<?xml version="1.0" encoding="utf-8"?>
<!-- Generator: Adobe Illustrator 24.1.0, SVG Export Plug-In . SVG Version: 6.00 Build 0)  -->
<svg version="1.1" id="Layer_1" xmlns="http://www.w3.org/2000/svg" xmlns:xlink="http://www.w3.org/1999/xlink" x="0px" y="0px"
	 viewBox="0 0 700 100" style="enable-background:new 0 0 700 100;" xml:space="preserve">
<style type="text/css">
	.st0{fill:#F26767;}
	.st1{fill:#FFFFFF;}
	.st2{fill:#5691CD;}
	.st3{fill:#F68C38;}
	.st4{fill:#F26A6C;}
	.st5{fill:#F69FA1;}
	.st6{fill:#4862AD;}
	.st7{fill:#57A7DD;}
	.st8{fill:#C1E8FB;}
	.st9{fill:#CC4847;}
	.st10{fill:#1F3364;}
	.st11{fill:#A9E0FA;}
	.st12{fill:#FBD6DC;}
</style>
<g>
	<path class="st0" d="M541.88,26.38l-7.26-3.48c-2.76-1.32-3.93-4.64-2.6-7.4l3.48-7.26c1.32-2.76,4.64-3.93,7.4-2.6l7.26,3.48
		c2.76,1.32,3.93,4.64,2.6,7.4l-3.48,7.26C547.96,26.54,544.64,27.7,541.88,26.38z"/>
	<g>
		<path class="st1" d="M536.99,20.82l-1.45-0.7l5.78-12.05l4.38,2.1c2.23,1.07,2.81,2.94,1.77,5.12c-0.93,1.93-2.58,2.67-4.58,1.94
			l0.57,6.69l-1.62-0.78l-0.47-6.55l-1.92-0.92L536.99,20.82z M542.95,15.84c1.21,0.58,2.24,0.29,2.78-0.83l0.43-0.9
			c0.54-1.12,0.12-2.11-1.09-2.69l-2.9-1.39l-2.12,4.42L542.95,15.84z"/>
	</g>
</g>
<g>
	<path class="st2" d="M350.2,27.98l-8.41,0.07c-3.2,0.03-5.81-2.54-5.84-5.74l-0.07-8.41c-0.03-3.2,2.54-5.81,5.74-5.84l8.41-0.07
		c3.2-0.03,5.81,2.54,5.84,5.74l0.07,8.41C355.97,25.33,353.4,27.95,350.2,27.98z"/>
	<g>
		<path class="st1" d="M341.79,11.07l3.9-0.03c3.4-0.03,5.1,2.35,5.14,6.93c0.04,4.58-1.62,6.99-5.02,7.02l-3.9,0.03
			C341.91,25.03,341.79,11.07,341.79,11.07z M345.72,23.54c2.22-0.02,3.36-1.67,3.34-4.47l-0.02-2.16c-0.02-2.8-1.2-4.43-3.42-4.41
			l-2.14,0.02l0.1,11.04L345.72,23.54z"/>
	</g>
</g>
<g>
	<path class="st0" d="M496.99,47.28l-4.13-5.54c-1.57-2.11-1.14-5.09,0.97-6.66l5.54-4.13c2.11-1.57,5.09-1.14,6.66,0.97l4.13,5.54
		c1.57,2.11,1.14,5.09-0.97,6.66l-5.54,4.13C501.54,49.82,498.56,49.39,496.99,47.28z"/>
	<g>
		<path class="st1" d="M495.49,41.11L494.66,40l9.2-6.85l2.49,3.35c1.27,1.7,0.97,3.36-0.69,4.6c-1.48,1.1-3.02,1-4.26-0.35
			l-2.23,5.31l-0.92-1.24l2.26-5.17l-1.09-1.46L495.49,41.11z M502,39.7c0.69,0.92,1.59,1.11,2.44,0.47l0.69-0.51
			c0.86-0.64,0.93-1.56,0.24-2.48l-1.65-2.21l-3.37,2.51L502,39.7z"/>
	</g>
</g>
<g>
	<path class="st2" d="M468.71,48.6l-6.55-4.69c-2.49-1.78-3.06-5.25-1.28-7.74l4.69-6.55c1.78-2.49,5.25-3.06,7.74-1.28l6.55,4.69
		c2.49,1.78,3.06,5.25,1.28,7.74l-4.69,6.55C474.66,49.81,471.2,50.38,468.71,48.6z"/>
	<g>
		<path class="st1" d="M471.74,30.78l3.03,2.17c2.65,1.9,2.62,4.7,0.06,8.26s-5.2,4.5-7.84,2.6l-3.03-2.17
			C463.96,41.64,471.74,30.78,471.74,30.78z M467.75,42.63c1.73,1.24,3.54,0.61,5.11-1.57l1.2-1.68c1.56-2.18,1.57-4.1-0.15-5.34
			l-1.67-1.19l-6.15,8.59L467.75,42.63z"/>
	</g>
</g>
<g>
	<path class="st0" d="M545.38,34.38l0.03-7.91c0.01-3.01,2.46-5.44,5.47-5.42l7.91,0.03c3.01,0.01,5.44,2.46,5.42,5.47l-0.03,7.91
		c-0.01,3.01-2.46,5.44-5.47,5.42l-7.91-0.03C547.8,39.83,545.37,37.39,545.38,34.38z"/>
	<g>
		<path class="st1" d="M548.25,27.7l0.01-1.58l13.12,0.05l-0.02,4.78c-0.01,2.43-1.42,3.74-3.79,3.73
			c-2.11-0.01-3.45-1.16-3.65-3.25l-5.69,3.32l0.01-1.77l5.61-3.17l0.01-2.09L548.25,27.7z M555.17,30.88
			c-0.01,1.32,0.69,2.11,1.91,2.11l0.98,0c1.22,0,1.92-0.78,1.93-2.1l0.01-3.16l-4.81-0.02L555.17,30.88z"/>
	</g>
</g>
<g>
	<path class="st2" d="M281.58,45.28l-7.37-2.32c-2.8-0.88-4.36-3.87-3.47-6.67l2.32-7.37c0.88-2.8,3.87-4.36,6.67-3.47l7.37,2.32
		c2.8,0.88,4.36,3.87,3.48,6.67l-2.32,7.37C287.37,44.6,284.38,46.16,281.58,45.28z"/>
	<g>
		<path class="st1" d="M279.02,28.13l3.41,1.07c2.98,0.94,3.79,3.5,2.52,7.51c-1.26,4.01-3.39,5.65-6.37,4.71l-3.41-1.07
			C275.18,40.35,279.02,28.13,279.02,28.13z M278.92,40.13c1.94,0.61,3.41-0.5,4.18-2.96l0.6-1.89c0.77-2.45,0.21-4.21-1.74-4.82
			l-1.87-0.59l-3.04,9.66L278.92,40.13z"/>
	</g>
</g>
<g>
	<path class="st0" d="M357.13,58.78l0.32-6.95c0.12-2.64,2.36-4.68,5-4.56l6.95,0.32c2.64,0.12,4.68,2.36,4.56,5l-0.32,6.95
		c-0.12,2.64-2.36,4.68-5,4.56l-6.95-0.32C359.05,63.66,357.01,61.42,357.13,58.78z"/>
	<g>
		<path class="st1" d="M359.89,53.02l0.06-1.39l11.52,0.52l-0.19,4.19c-0.1,2.13-1.39,3.23-3.47,3.13
			c-1.85-0.08-2.99-1.15-3.09-2.99l-5.12,2.71l0.07-1.55l5.05-2.58l0.08-1.83L359.89,53.02z M365.86,56.07
			c-0.05,1.16,0.53,1.88,1.6,1.93l0.86,0.04c1.07,0.05,1.72-0.62,1.77-1.77l0.13-2.77l-4.23-0.19L365.86,56.07z"/>
	</g>
</g>
<g>
	<path class="st2" d="M515.97,28.28l-6.95-1.5c-2.64-0.57-4.32-3.17-3.75-5.82l1.5-6.95c0.57-2.64,3.17-4.32,5.82-3.75l6.95,1.5
		c2.64,0.57,4.32,3.18,3.75,5.82l-1.5,6.95C521.21,27.17,518.61,28.85,515.97,28.28z"/>
	<g>
		<path class="st1" d="M512.17,12.78l3.22,0.7c2.81,0.61,3.77,2.89,2.95,6.67s-2.63,5.46-5.44,4.86l-3.22-0.7
			C509.68,24.31,512.17,12.78,512.17,12.78z M513.09,23.79c1.83,0.4,3.08-0.75,3.58-3.06l0.39-1.78c0.5-2.31-0.16-3.87-2-4.27
			l-1.77-0.38l-1.97,9.11L513.09,23.79z"/>
	</g>
</g>
<g>
	<path class="st0" d="M479.83,61.54l-3.28-6.66c-1.25-2.53-0.2-5.59,2.33-6.84l6.66-3.28c2.53-1.25,5.59-0.2,6.84,2.33l3.28,6.66
		c1.25,2.53,0.2,5.59-2.33,6.84l-6.66,3.28C484.14,65.11,481.08,64.07,479.83,61.54z"/>
	<g>
		<path class="st1" d="M479.45,54.73l-0.65-1.33l11.04-5.44l1.98,4.02c1,2.04,0.36,3.73-1.63,4.71c-1.77,0.87-3.39,0.47-4.43-1.2
			l-3.39,5.17l-0.73-1.49l3.39-5.01l-0.86-1.76L479.45,54.73z M486.6,54.52c0.55,1.11,1.46,1.48,2.49,0.98l0.82-0.41
			c1.03-0.51,1.29-1.46,0.74-2.57l-1.31-2.66l-4.05,1.99L486.6,54.52z"/>
	</g>
</g>
<g>
	<path class="st2" d="M499.38,70.52l-5.34,5.61c-2.03,2.13-5.41,2.21-7.54,0.18l-5.61-5.34c-2.13-2.03-2.21-5.41-0.18-7.54
		l5.34-5.61c2.03-2.13,5.41-2.22,7.54-0.18l5.61,5.34C501.33,65.01,501.41,68.39,499.38,70.52z"/>
	<g>
		<path class="st1" d="M482.82,65.25l2.48-2.6c2.16-2.27,4.82-1.86,7.88,1.04c3.05,2.91,3.59,5.55,1.43,7.82l-2.48,2.6
			C492.12,74.11,482.82,65.25,482.82,65.25z M493.57,70.64c1.41-1.48,1.05-3.29-0.81-5.07l-1.44-1.37c-1.87-1.78-3.7-2.05-5.11-0.57
			l-1.36,1.43l7.36,7.01L493.57,70.64z"/>
	</g>
</g>
<g>
	<path class="st0" d="M601.18,75.11l-7.33-0.71c-2.78-0.27-4.82-2.74-4.55-5.53l0.71-7.33c0.27-2.78,2.74-4.82,5.53-4.55l7.33,0.71
		c2.79,0.27,4.82,2.74,4.56,5.53l-0.71,7.33C606.44,73.34,603.97,75.38,601.18,75.11z"/>
	<g>
		<path class="st1" d="M595.24,71.88l-1.46-0.14l1.17-12.15l4.42,0.43c2.25,0.22,3.34,1.64,3.13,3.83c-0.19,1.95-1.37,3.1-3.32,3.11
			l2.59,5.56l-1.64-0.16l-2.46-5.47l-1.93-0.19L595.24,71.88z M598.79,65.74c1.22,0.12,2.01-0.46,2.12-1.59l0.09-0.91
			c0.11-1.13-0.56-1.85-1.78-1.96L596.29,61l-0.43,4.46L598.79,65.74z"/>
	</g>
</g>
<g>
	<path class="st2" d="M606.19,25.66l-6.14,5.09c-2.33,1.93-5.79,1.61-7.73-0.72l-5.09-6.14c-1.93-2.33-1.61-5.79,0.72-7.73
		l6.13-5.09c2.33-1.94,5.79-1.61,7.73,0.72l5.09,6.13C608.84,20.27,608.52,23.73,606.19,25.66z"/>
	<g>
		<path class="st1" d="M589.89,18.28l2.84-2.36c2.48-2.06,5.15-1.32,7.92,2.02s3,6.1,0.52,8.16l-2.84,2.36
			C598.34,28.46,589.89,18.28,589.89,18.28z M600.24,25.08c1.62-1.34,1.47-3.24-0.22-5.28l-1.31-1.57
			c-1.69-2.04-3.53-2.54-5.15-1.19L592,18.33l6.68,8.05L600.24,25.08z"/>
	</g>
</g>
<g>
	<path class="st0" d="M430.93,54.79l-0.25-7.57c-0.1-2.88,2.16-5.29,5.04-5.38l7.57-0.25c2.88-0.1,5.29,2.16,5.38,5.04l0.25,7.57
		c0.1,2.88-2.16,5.29-5.04,5.38l-7.57,0.25C433.43,59.93,431.02,57.67,430.93,54.79z"/>
	<g>
		<path class="st1" d="M433.43,48.3l-0.05-1.51l12.55-0.42l0.15,4.57c0.08,2.32-1.23,3.62-3.5,3.7c-2.01,0.07-3.35-0.99-3.61-2.98
			l-5.33,3.38l-0.06-1.69l5.26-3.24l-0.07-2L433.43,48.3z M440.17,51.1c0.04,1.26,0.73,1.99,1.9,1.95l0.94-0.03
			c1.17-0.04,1.81-0.82,1.77-2.08l-0.1-3.02l-4.6,0.15L440.17,51.1z"/>
	</g>
</g>
<g>
	<path class="st2" d="M480.41,69.49l-4.96-5.72c-1.89-2.17-1.65-5.46,0.52-7.35l5.72-4.96c2.17-1.89,5.46-1.65,7.35,0.52l4.96,5.72
		c1.89,2.17,1.65,5.46-0.52,7.35l-5.72,4.96C485.59,71.9,482.3,71.66,480.41,69.49z"/>
	<g>
		<path class="st1" d="M487.08,53.87l2.3,2.65c2,2.31,1.36,4.87-1.75,7.56c-3.11,2.7-5.73,2.97-7.74,0.66l-2.3-2.65
			C477.59,62.09,487.08,53.87,487.08,53.87z M480.83,63.83c1.31,1.51,3.11,1.33,5.01-0.32l1.47-1.27c1.9-1.65,2.33-3.4,1.02-4.91
			l-1.26-1.45l-7.5,6.51L480.83,63.83z"/>
	</g>
</g>
<g>
	<path class="st0" d="M475.05,72.62l-7.39-1.24c-2.81-0.47-4.71-3.13-4.23-5.94l1.24-7.39c0.47-2.81,3.13-4.71,5.94-4.23l7.39,1.24
		c2.81,0.47,4.71,3.13,4.24,5.94l-1.24,7.39C480.52,71.2,477.86,73.09,475.05,72.62z"/>
	<g>
		<path class="st1" d="M469.24,68.91l-1.48-0.25l2.06-12.27l4.46,0.75c2.27,0.38,3.28,1.91,2.9,4.12c-0.33,1.97-1.62,3.05-3.6,2.92
			l2.24,5.83l-1.65-0.28l-2.11-5.74l-1.95-0.33L469.24,68.91z M473.28,62.93c1.23,0.21,2.08-0.32,2.27-1.46l0.15-0.91
			c0.19-1.14-0.44-1.92-1.67-2.12l-2.95-0.5l-0.76,4.5L473.28,62.93z"/>
	</g>
</g>
<g>
	<path class="st2" d="M518.23,63.92l-6.7,4.96c-2.55,1.88-6.14,1.35-8.03-1.2l-4.96-6.7c-1.88-2.55-1.35-6.14,1.2-8.03l6.7-4.96
		c2.55-1.88,6.14-1.35,8.03,1.2l4.96,6.7C521.32,58.44,520.78,62.03,518.23,63.92z"/>
	<g>
		<path class="st1" d="M501.64,55.26l3.11-2.3c2.71-2,5.46-1.08,8.16,2.57c2.7,3.65,2.77,6.55,0.06,8.55l-3.11,2.3
			C509.87,66.38,501.64,55.26,501.64,55.26z M512.05,62.97c1.77-1.31,1.73-3.3,0.08-5.53l-1.27-1.72c-1.65-2.23-3.54-2.85-5.31-1.55
			l-1.7,1.26l6.5,8.79L512.05,62.97z"/>
	</g>
</g>
<g>
	<path class="st0" d="M579.31,52.85l-6.84-1.89c-2.6-0.72-4.13-3.4-3.41-6l1.89-6.84c0.72-2.6,3.4-4.13,6-3.41l6.84,1.89
		c2.6,0.72,4.13,3.4,3.41,6l-1.89,6.84C584.6,52.04,581.91,53.57,579.31,52.85z"/>
	<g>
		<path class="st1" d="M574.21,48.81l-1.37-0.38l3.13-11.35l4.13,1.14c2.1,0.58,2.9,2.11,2.33,4.16c-0.5,1.82-1.82,2.72-3.67,2.4
			l1.54,5.71l-1.53-0.42l-1.43-5.61l-1.8-0.5L574.21,48.81z M578.59,43.56c1.14,0.31,1.99-0.1,2.28-1.16l0.23-0.85
			c0.29-1.06-0.23-1.85-1.36-2.16l-2.73-0.75l-1.15,4.16L578.59,43.56z"/>
	</g>
</g>
<g>
	<path class="st2" d="M354.31,43.15l-4.9-5.14c-1.86-1.95-1.79-5.05,0.16-6.91l5.14-4.9c1.95-1.86,5.05-1.79,6.91,0.16l4.9,5.14
		c1.86,1.95,1.79,5.05-0.16,6.91l-5.14,4.9C359.26,45.18,356.17,45.1,354.31,43.15z"/>
	<g>
		<path class="st1" d="M359.85,28.21l2.27,2.38c1.98,2.07,1.49,4.5-1.3,7.17c-2.79,2.67-5.24,3.04-7.22,0.97l-2.27-2.38
			C351.33,36.35,359.85,28.21,359.85,28.21z M354.45,37.83c1.29,1.35,2.97,1.11,4.68-0.52l1.32-1.26c1.71-1.63,2.03-3.29,0.74-4.65
			l-1.25-1.31l-6.74,6.43L354.45,37.83z"/>
	</g>
</g>
<g>
	<path class="st0" d="M294.99,57.51l-1.72-7.91c-0.65-3.01,1.25-5.97,4.26-6.63l7.91-1.72c3.01-0.65,5.97,1.25,6.63,4.26l1.72,7.91
		c0.65,3.01-1.25,5.98-4.26,6.63l-7.91,1.72C298.61,62.42,295.64,60.52,294.99,57.51z"/>
	<g>
		<path class="st1" d="M296.37,50.2l-0.34-1.58l13.12-2.85l1.04,4.78c0.53,2.43-0.6,4.05-2.97,4.56c-2.11,0.46-3.71-0.39-4.37-2.44
			l-4.95,4.58l-0.38-1.77l4.91-4.41l-0.45-2.09L296.37,50.2z M304,51.85c0.29,1.32,1.15,1.95,2.38,1.69l0.98-0.21
			c1.22-0.27,1.75-1.21,1.46-2.52l-0.69-3.16l-4.81,1.05L304,51.85z"/>
	</g>
</g>
<g>
	<path class="st2" d="M472.02,55.29l-5.46,4.46c-2.07,1.7-5.13,1.39-6.83-0.68l-4.46-5.46c-1.7-2.07-1.39-5.13,0.68-6.83l5.46-4.46
		c2.07-1.7,5.13-1.39,6.83,0.68l4.46,5.46C474.4,50.54,474.09,53.59,472.02,55.29z"/>
	<g>
		<path class="st1" d="M457.66,48.66l2.53-2.07c2.2-1.8,4.57-1.14,6.99,1.83s2.61,5.42,0.41,7.22l-2.53,2.07
			C465.06,57.71,457.66,48.66,457.66,48.66z M466.76,54.74c1.44-1.18,1.32-2.86-0.16-4.67l-1.15-1.4c-1.48-1.82-3.11-2.26-4.55-1.09
			l-1.39,1.13l5.85,7.16L466.76,54.74z"/>
	</g>
</g>
<g>
	<path class="st0" d="M468.91,39.17l-7.81-1.89c-2.97-0.72-4.79-3.71-4.07-6.68l1.89-7.81c0.72-2.97,3.71-4.79,6.68-4.07l7.81,1.89
		c2.97,0.72,4.8,3.71,4.08,6.68l-1.89,7.81C474.87,38.07,471.88,39.89,468.91,39.17z"/>
	<g>
		<path class="st1" d="M462.98,34.77l-1.56-0.38l3.14-12.96l4.72,1.14c2.4,0.58,3.36,2.29,2.79,4.63c-0.5,2.08-1.96,3.14-4.07,2.85
			l1.95,6.41l-1.75-0.42l-1.82-6.3l-2.06-0.5L462.98,34.77z M467.76,28.67c1.3,0.31,2.25-0.18,2.54-1.39l0.23-0.97
			c0.29-1.21-0.32-2.08-1.62-2.4l-3.12-0.76l-1.15,4.75L467.76,28.67z"/>
	</g>
</g>
<g>
	<path class="st2" d="M532.12,46.99l-7.73-0.04c-2.94-0.01-5.31-2.41-5.29-5.34l0.04-7.73c0.01-2.94,2.41-5.31,5.34-5.29l7.73,0.04
		c2.94,0.01,5.31,2.41,5.29,5.34l-0.04,7.73C537.45,44.64,535.05,47,532.12,46.99z"/>
	<g>
		<path class="st1" d="M524.6,31.36l3.58,0.02c3.12,0.02,4.65,2.23,4.63,6.43s-1.57,6.4-4.7,6.39l-3.58-0.02
			C524.54,44.18,524.6,31.36,524.6,31.36z M528.05,42.86c2.04,0.01,3.11-1.49,3.12-4.06l0.01-1.98c0.01-2.57-1.04-4.08-3.08-4.09
			l-1.97-0.01l-0.05,10.14L528.05,42.86z"/>
	</g>
</g>
<g>
	<path class="st0" d="M418.1,51.37l-6.04-3.33c-2.3-1.27-3.13-4.15-1.87-6.45l3.33-6.04c1.27-2.3,4.15-3.13,6.45-1.87l6.04,3.33
		c2.3,1.27,3.13,4.15,1.87,6.45l-3.33,6.04C423.29,51.8,420.4,52.64,418.1,51.37z"/>
	<g>
		<path class="st1" d="M414.19,46.39l-1.21-0.66l5.53-10.02l3.65,2.01c1.85,1.02,2.26,2.65,1.27,4.46
			c-0.89,1.61-2.33,2.16-4.01,1.44l0.17,5.75l-1.35-0.74l-0.08-5.62l-1.59-0.88L414.19,46.39z M419.52,42.42
			c1.01,0.55,1.9,0.36,2.42-0.58l0.41-0.75c0.51-0.93,0.2-1.8-0.8-2.35l-2.41-1.33l-2.03,3.68L419.52,42.42z"/>
	</g>
</g>
<g>
	<path class="st2" d="M554.53,74.46l-6.06-5.52c-2.3-2.1-2.47-5.66-0.37-7.97l5.52-6.06c2.1-2.3,5.66-2.47,7.97-0.37l6.06,5.52
		c2.3,2.1,2.47,5.66,0.37,7.97l-5.52,6.06C560.39,76.39,556.83,76.56,554.53,74.46z"/>
	<g>
		<path class="st1" d="M559.71,56.82l2.81,2.56c2.45,2.23,2.08,5.06-0.92,8.35c-3,3.3-5.78,3.92-8.23,1.69l-2.81-2.56
			C550.56,66.87,559.71,56.82,559.71,56.82z M554.26,68.32c1.6,1.46,3.51,1.04,5.34-0.98l1.42-1.55c1.84-2.02,2.08-3.96,0.48-5.41
			l-1.54-1.4l-7.24,7.95L554.26,68.32z"/>
	</g>
</g>
<g>
	<path class="st0" d="M450.4,31.72l-6.38-5.05c-2.42-1.92-2.83-5.44-0.91-7.87l5.05-6.38c1.92-2.42,5.44-2.83,7.87-0.91l6.38,5.05
		c2.42,1.92,2.83,5.44,0.91,7.87l-5.05,6.38C456.35,33.23,452.83,33.64,450.4,31.72z"/>
	<g>
		<path class="st1" d="M446.82,25.15l-1.27-1.01l8.38-10.58l3.85,3.05c1.96,1.55,2.12,3.53,0.6,5.44c-1.34,1.7-3.13,2.06-4.95,0.89
			l-0.93,6.71l-1.42-1.13l1-6.56l-1.68-1.33L446.82,25.15z M453.8,21.58c1.06,0.84,2.14,0.78,2.92-0.2l0.62-0.79
			c0.78-0.99,0.59-2.05-0.47-2.89l-2.55-2.02l-3.07,3.88L453.8,21.58z"/>
	</g>
</g>
<g>
	<path class="st2" d="M525.23,46.36l-5.63,5.37c-2.14,2.04-5.53,1.96-7.57-0.18l-5.37-5.63c-2.04-2.14-1.96-5.53,0.18-7.57
		l5.63-5.37c2.14-2.04,5.53-1.96,7.57,0.18l5.37,5.63C527.45,40.93,527.37,44.32,525.23,46.36z"/>
	<g>
		<path class="st1" d="M508.87,40.27l2.61-2.49c2.27-2.17,4.93-1.63,7.85,1.43s3.33,5.74,1.05,7.91l-2.61,2.49
			C517.77,49.61,508.87,40.27,508.87,40.27z M519.4,46.2c1.48-1.42,1.22-3.25-0.57-5.13l-1.38-1.44c-1.79-1.87-3.61-2.23-5.09-0.81
			l-1.43,1.36l7.04,7.38L519.4,46.2z"/>
	</g>
</g>
<g>
	<path class="st0" d="M390.2,75.72L383,72.17c-2.73-1.35-3.86-4.66-2.51-7.4l3.55-7.19c1.35-2.73,4.66-3.86,7.4-2.51l7.19,3.55
		c2.74,1.35,3.86,4.66,2.51,7.4l-3.55,7.19C396.24,75.95,392.93,77.07,390.2,75.72z"/>
	<g>
		<path class="st1" d="M385.39,70.13l-1.44-0.71l5.89-11.93l4.34,2.14c2.21,1.09,2.77,2.96,1.71,5.12c-0.95,1.91-2.6,2.63-4.59,1.88
			l0.49,6.67l-1.61-0.79l-0.39-6.53l-1.9-0.94L385.39,70.13z M391.37,65.24c1.2,0.59,2.23,0.31,2.78-0.8l0.44-0.89
			c0.55-1.11,0.14-2.1-1.05-2.69l-2.87-1.42l-2.16,4.38L391.37,65.24z"/>
	</g>
</g>
<g>
	<path class="st2" d="M668.85,75.13l-6.33-5.44c-2.4-2.07-2.68-5.69-0.61-8.1l5.44-6.33c2.07-2.4,5.69-2.68,8.1-0.61l6.33,5.44
		c2.41,2.07,2.68,5.7,0.61,8.1l-5.44,6.33C674.88,76.93,671.25,77.2,668.85,75.13z"/>
	<g>
		<path class="st1" d="M673.61,57.02l2.93,2.52c2.56,2.2,2.27,5.09-0.69,8.53c-2.96,3.44-5.78,4.16-8.33,1.96l-2.93-2.52
			C664.58,67.52,673.61,57.02,673.61,57.02z M668.4,68.89c1.67,1.44,3.6,0.95,5.41-1.15l1.4-1.62c1.81-2.1,2-4.09,0.33-5.52
			l-1.61-1.38l-7.14,8.3L668.4,68.89z"/>
	</g>
</g>
<g>
	<path class="st0" d="M570.16,33.76l-2.83-6.44c-1.08-2.45,0.04-5.3,2.48-6.38l6.44-2.83c2.45-1.08,5.3,0.04,6.38,2.48l2.83,6.44
		c1.08,2.45-0.04,5.3-2.48,6.38l-6.44,2.83C574.09,37.32,571.23,36.21,570.16,33.76z"/>
	<g>
		<path class="st1" d="M570.08,27.3l-0.56-1.29l10.68-4.69l1.71,3.89c0.87,1.97,0.19,3.55-1.74,4.4c-1.71,0.75-3.23,0.3-4.14-1.32
			l-3.42,4.75l-0.63-1.44l3.42-4.6l-0.75-1.7L570.08,27.3z M576.85,27.39c0.47,1.07,1.32,1.46,2.31,1.03l0.8-0.35
			c0.99-0.44,1.28-1.33,0.81-2.4l-1.13-2.57l-3.92,1.72L576.85,27.39z"/>
	</g>
</g>
<g>
	<path class="st2" d="M462.48,65.22l-5.22,5.13c-1.98,1.95-5.17,1.92-7.12-0.06l-5.13-5.22c-1.95-1.98-1.92-5.17,0.06-7.12
		l5.22-5.13c1.98-1.95,5.17-1.92,7.12,0.06l5.13,5.22C464.49,60.08,464.47,63.27,462.48,65.22z"/>
	<g>
		<path class="st1" d="M447.01,59.73l2.42-2.38c2.11-2.07,4.61-1.61,7.4,1.23c2.79,2.84,3.21,5.35,1.1,7.42l-2.42,2.38
			C455.52,68.39,447.01,59.73,447.01,59.73z M457,65.16c1.38-1.35,1.1-3.08-0.61-4.81L455.07,59c-1.71-1.74-3.43-2.05-4.8-0.69
			l-1.33,1.3l6.73,6.84L457,65.16z"/>
	</g>
</g>
<g>
	<path class="st0" d="M557.55,70.18l-0.26-6.9c-0.1-2.62,1.95-4.83,4.57-4.93l6.9-0.26c2.62-0.1,4.83,1.95,4.93,4.57l0.26,6.9
		c0.1,2.62-1.95,4.83-4.57,4.93l-6.9,0.26C559.85,74.85,557.65,72.8,557.55,70.18z"/>
	<g>
		<path class="st1" d="M559.81,64.25l-0.05-1.38l11.45-0.43l0.16,4.17c0.08,2.12-1.11,3.31-3.17,3.39c-1.84,0.07-3.06-0.89-3.3-2.7
			l-4.84,3.11l-0.06-1.54l4.78-2.97l-0.07-1.82L559.81,64.25z M565.96,66.77c0.04,1.15,0.68,1.81,1.74,1.77l0.85-0.03
			c1.07-0.04,1.65-0.75,1.6-1.9l-0.1-2.76l-4.2,0.16L565.96,66.77z"/>
	</g>
</g>
<g>
	<path class="st2" d="M398.23,65.01l-5.75-4.05c-2.19-1.54-2.71-4.56-1.17-6.75l4.05-5.75c1.54-2.19,4.56-2.71,6.75-1.17l5.75,4.05
		c2.19,1.54,2.71,4.56,1.17,6.75l-4.05,5.75C403.43,66.02,400.41,66.55,398.23,65.01z"/>
	<g>
		<path class="st1" d="M400.75,49.42l2.67,1.88c2.32,1.64,2.32,4.09,0.11,7.22c-2.21,3.13-4.51,3.96-6.83,2.32l-2.67-1.88
			C394.03,58.96,400.75,49.42,400.75,49.42z M397.34,59.8c1.52,1.07,3.1,0.51,4.45-1.41l1.04-1.48c1.35-1.91,1.34-3.59-0.17-4.66
			l-1.46-1.03l-5.32,7.54L397.34,59.8z"/>
	</g>
</g>
<g>
	<path class="st0" d="M665.09,41.74l-6.3-4.53c-2.39-1.72-2.94-5.06-1.22-7.45l4.53-6.3c1.72-2.39,5.06-2.94,7.45-1.22l6.3,4.53
		c2.4,1.72,2.94,5.06,1.22,7.45l-4.53,6.3C670.82,42.92,667.48,43.46,665.09,41.74z"/>
	<g>
		<path class="st1" d="M661.38,35.65l-1.26-0.9l7.51-10.45l3.8,2.73c1.93,1.39,2.17,3.26,0.82,5.15c-1.21,1.68-2.89,2.1-4.67,1.07
			L667,39.69l-1.41-1.01l0.66-6.29l-1.66-1.19L661.38,35.65z M667.87,31.94c1.05,0.75,2.07,0.65,2.77-0.32l0.56-0.78
			c0.7-0.97,0.47-1.98-0.58-2.73l-2.52-1.81l-2.76,3.83L667.87,31.94z"/>
	</g>
</g>
<g>
	<path class="st2" d="M438.68,72.21l-7.49,1.14c-2.85,0.43-5.5-1.53-5.93-4.37l-1.14-7.49c-0.43-2.85,1.53-5.5,4.37-5.93l7.49-1.14
		c2.85-0.43,5.5,1.53,5.93,4.37l1.14,7.49C443.48,69.13,441.52,71.78,438.68,72.21z"/>
	<g>
		<path class="st1" d="M429.03,58.22l3.47-0.53c3.02-0.46,4.84,1.45,5.46,5.52s-0.55,6.44-3.58,6.89l-3.47,0.53
			C430.91,70.64,429.03,58.22,429.03,58.22z M434.11,68.83c1.97-0.3,2.79-1.91,2.41-4.41l-0.29-1.92c-0.38-2.49-1.63-3.79-3.61-3.49
			l-1.9,0.29l1.49,9.82L434.11,68.83z"/>
	</g>
</g>
<g>
	<path class="st0" d="M620.58,36.56l-1.02-8.08c-0.39-3.07,1.79-5.87,4.86-6.26l8.08-1.02c3.07-0.39,5.87,1.79,6.26,4.86l1.02,8.08
		c0.39,3.07-1.79,5.88-4.86,6.26l-8.08,1.02C623.78,41.81,620.97,39.63,620.58,36.56z"/>
	<g>
		<path class="st1" d="M622.62,29.36l-0.2-1.61l13.4-1.7l0.62,4.88c0.31,2.48-0.96,4-3.38,4.31c-2.15,0.27-3.68-0.72-4.16-2.83
			l-5.37,4.15l-0.23-1.8l5.31-3.99l-0.27-2.13L622.62,29.36z M630.11,31.69c0.17,1.34,0.98,2.06,2.23,1.9l1-0.13
			c1.25-0.16,1.86-1.05,1.69-2.4l-0.41-3.23l-4.91,0.62L630.11,31.69z"/>
	</g>
</g>
<g>
	<path class="st2" d="M398.1,34.22l-6.91,2.17c-2.63,0.82-5.42-0.64-6.25-3.27l-2.17-6.91c-0.82-2.63,0.64-5.42,3.27-6.25l6.91-2.17
		c2.63-0.82,5.42,0.64,6.25,3.26l2.17,6.91C402.19,30.6,400.73,33.39,398.1,34.22z"/>
	<g>
		<path class="st1" d="M386.94,22.4l3.2-1c2.79-0.88,4.79,0.66,5.97,4.42s0.42,6.16-2.37,7.04l-3.2,1
			C390.53,33.87,386.94,22.4,386.94,22.4z M393.3,31.68c1.82-0.57,2.35-2.22,1.63-4.52l-0.56-1.77c-0.72-2.3-2.1-3.35-3.92-2.78
			l-1.76,0.55l2.84,9.07L393.3,31.68z"/>
	</g>
</g>
<g>
	<path class="st0" d="M468.42,39.73l-5.1-4.38c-1.94-1.67-2.16-4.59-0.5-6.53l4.38-5.1c1.67-1.94,4.59-2.16,6.53-0.5l5.1,4.38
		c1.94,1.67,2.16,4.59,0.5,6.53l-4.38,5.1C473.28,41.18,470.36,41.4,468.42,39.73z"/>
	<g>
		<path class="st1" d="M465.68,34.2l-1.02-0.87l7.27-8.46l3.08,2.64c1.56,1.34,1.63,2.98,0.32,4.51c-1.17,1.36-2.66,1.6-4.11,0.57
			l-0.99,5.51l-1.14-0.98l1.04-5.38l-1.35-1.16L465.68,34.2z M471.56,31.47c0.85,0.73,1.74,0.72,2.42-0.07l0.54-0.63
			c0.68-0.79,0.55-1.67-0.3-2.4l-2.04-1.75l-2.67,3.1L471.56,31.47z"/>
	</g>
</g>
<g>
	<path class="st2" d="M473.11,35.78l-7.01,2.61c-2.67,0.99-5.63-0.36-6.62-3.03l-2.61-7.01c-0.99-2.67,0.36-5.63,3.03-6.62
		l7.01-2.61c2.67-0.99,5.63,0.36,6.62,3.03l2.61,7.01C477.13,31.83,475.78,34.79,473.11,35.78z"/>
	<g>
		<path class="st1" d="M460.96,24.2l3.25-1.21c2.83-1.05,4.98,0.42,6.4,4.24s0.76,6.34-2.07,7.39l-3.25,1.21
			C465.29,35.83,460.96,24.2,460.96,24.2z M468.02,33.43c1.85-0.69,2.31-2.41,1.44-4.75l-0.67-1.8c-0.87-2.33-2.34-3.34-4.19-2.65
			l-1.78,0.66l3.42,9.2L468.02,33.43z"/>
	</g>
</g>
<g>
	<path class="st0" d="M524.11,78.1l-6.27-2.17c-2.38-0.82-3.65-3.42-2.82-5.81l2.17-6.27c0.82-2.38,3.42-3.65,5.81-2.82l6.27,2.17
		c2.38,0.82,3.65,3.42,2.82,5.81l-2.17,6.27C529.09,77.66,526.49,78.92,524.11,78.1z"/>
	<g>
		<path class="st1" d="M519.58,74.02l-1.25-0.43l3.6-10.4l3.78,1.31c1.92,0.67,2.58,2.14,1.93,4.02c-0.58,1.67-1.86,2.43-3.57,2.02
			l1.09,5.42l-1.4-0.48l-1-5.32l-1.65-0.57L519.58,74.02z M523.99,69.38c1.04,0.36,1.86,0.03,2.19-0.94l0.27-0.77
			c0.34-0.97-0.1-1.74-1.14-2.1l-2.5-0.87l-1.32,3.81L523.99,69.38z"/>
	</g>
</g>
<g>
	<path class="st2" d="M559.12,57.55l-7.15,4.49c-2.72,1.71-6.3,0.89-8.01-1.83l-4.49-7.15c-1.71-2.72-0.89-6.3,1.83-8.01l7.15-4.49
		c2.72-1.71,6.3-0.89,8.01,1.83l4.49,7.15C562.65,52.26,561.83,55.84,559.12,57.55z"/>
	<g>
		<path class="st1" d="M543.03,47.54l3.31-2.08c2.89-1.81,5.59-0.67,8.04,3.22c2.44,3.89,2.3,6.82-0.59,8.64l-3.31,2.08
			C550.49,59.4,543.03,47.54,543.03,47.54z M552.95,56.12c1.89-1.19,1.99-3.2,0.5-5.57l-1.15-1.83c-1.49-2.38-3.36-3.15-5.24-1.97
			l-1.82,1.14l5.89,9.37L552.95,56.12z"/>
	</g>
</g>
<g>
	<path class="st0" d="M381.48,70.68l-2.83-7.1c-1.08-2.7,0.24-5.76,2.94-6.83l7.1-2.83c2.7-1.08,5.76,0.24,6.83,2.94l2.83,7.1
		c1.08,2.7-0.24,5.76-2.94,6.83l-7.1,2.83C385.62,74.7,382.56,73.38,381.48,70.68z"/>
	<g>
		<path class="st1" d="M381.64,63.66l-0.56-1.42l11.78-4.69l1.71,4.29c0.87,2.18,0.07,3.86-2.05,4.71
			c-1.89,0.75-3.52,0.21-4.45-1.59l-3.9,5.03l-0.63-1.59l3.89-4.87l-0.75-1.87L381.64,63.66z M388.99,64.01
			c0.47,1.18,1.38,1.64,2.47,1.2l0.88-0.35c1.1-0.44,1.44-1.39,0.97-2.58l-1.13-2.83l-4.32,1.72L388.99,64.01z"/>
	</g>
</g>
<g>
	<path class="st2" d="M609.78,68.16l-5.39,5.06c-2.05,1.92-5.27,1.82-7.19-0.23l-5.06-5.39c-1.92-2.05-1.82-5.27,0.23-7.19
		l5.39-5.06c2.05-1.92,5.27-1.82,7.19,0.23l5.06,5.39C611.93,63.02,611.83,66.24,609.78,68.16z"/>
	<g>
		<path class="st1" d="M594.28,62.27l2.5-2.34c2.18-2.04,4.69-1.52,7.45,1.41c2.75,2.93,3.12,5.48,0.94,7.52l-2.5,2.34
			C602.67,71.2,594.28,62.27,594.28,62.27z M604.24,67.97c1.42-1.33,1.18-3.08-0.51-4.87l-1.3-1.38c-1.68-1.79-3.41-2.14-4.83-0.81
			l-1.37,1.29l6.64,7.07L604.24,67.97z"/>
	</g>
</g>
<g>
	<path class="st0" d="M402.28,75.07l-5.83-4.91c-2.22-1.87-2.5-5.18-0.63-7.4l4.91-5.83c1.87-2.22,5.18-2.5,7.4-0.63l5.83,4.91
		c2.22,1.87,2.5,5.18,0.63,7.4l-4.91,5.83C407.81,76.65,404.5,76.94,402.28,75.07z"/>
	<g>
		<path class="st1" d="M399.11,68.82l-1.16-0.98l8.15-9.68l3.52,2.97c1.79,1.51,1.88,3.36,0.41,5.11c-1.31,1.55-2.99,1.84-4.66,0.7
			l-1.06,6.26l-1.3-1.1l1.12-6.12l-1.54-1.3L399.11,68.82z M405.75,65.67c0.97,0.82,1.98,0.79,2.74-0.11l0.61-0.72
			c0.76-0.9,0.61-1.9-0.36-2.72l-2.33-1.96l-2.99,3.55L405.75,65.67z"/>
	</g>
</g>
<g>
	<path class="st2" d="M520.09,59.45l-8.55-0.29c-3.25-0.11-5.79-2.84-5.68-6.09l0.29-8.55c0.11-3.25,2.84-5.79,6.09-5.68l8.55,0.29
		c3.25,0.11,5.8,2.84,5.68,6.09l-0.29,8.55C526.07,57.01,523.34,59.56,520.09,59.45z"/>
	<g>
		<path class="st1" d="M512.28,41.91l3.96,0.14c3.45,0.12,5.08,2.62,4.92,7.27s-1.95,7.03-5.4,6.92l-3.96-0.14
			C511.8,56.09,512.28,41.91,512.28,41.91z M515.73,54.74c2.26,0.08,3.49-1.55,3.59-4.39l0.08-2.19c0.1-2.84-1.02-4.55-3.28-4.63
			l-2.17-0.07l-0.38,11.22L515.73,54.74z"/>
	</g>
</g>
<g>
	<path class="st0" d="M524.29,62.16l-1.15-6.61c-0.44-2.51,1.25-4.9,3.76-5.34l6.61-1.15c2.51-0.44,4.9,1.25,5.34,3.76l1.15,6.61
		c0.44,2.51-1.25,4.9-3.76,5.34l-6.61,1.15C527.11,66.35,524.72,64.67,524.29,62.16z"/>
	<g>
		<path class="st1" d="M525.69,56.15l-0.23-1.32l10.97-1.9l0.69,3.99c0.35,2.03-0.64,3.33-2.61,3.67c-1.76,0.31-3.06-0.46-3.53-2.17
			l-4.26,3.62l-0.26-1.48l4.22-3.48l-0.3-1.74L525.69,56.15z M531.95,57.79c0.19,1.1,0.89,1.66,1.91,1.48l0.82-0.14
			c1.02-0.18,1.49-0.94,1.3-2.04l-0.46-2.64l-4.02,0.7L531.95,57.79z"/>
	</g>
</g>
<g>
	<path class="st2" d="M416.8,27.15l-6.76-4.55c-2.57-1.73-3.25-5.21-1.52-7.78l4.55-6.76c1.73-2.57,5.21-3.25,7.78-1.52l6.76,4.55
		c2.57,1.73,3.25,5.21,1.52,7.78l-4.55,6.76C422.85,28.2,419.37,28.88,416.8,27.15z"/>
	<g>
		<path class="st1" d="M419.33,9.05l3.13,2.11c2.73,1.84,2.78,4.67,0.31,8.35s-5.12,4.7-7.85,2.86l-3.13-2.11
			C411.79,20.26,419.33,9.05,419.33,9.05z M415.65,21.15c1.78,1.2,3.6,0.51,5.11-1.74l1.17-1.73c1.51-2.25,1.47-4.19-0.32-5.39
			l-1.72-1.16L413.93,20L415.65,21.15z"/>
	</g>
</g>
<g>
	<path d="M28.77,42.66H10.96v-2.43l9.7-9.3c2.58-2.5,4.41-5.25,4.41-8.03v-0.76c0-3.26-1.91-5.57-5.73-5.57
		c-3.7,0-5.53,2.07-6.4,5.01l-2.15-0.79c1.03-3.38,3.58-6.36,8.63-6.36c5.25,0,8.19,3.18,8.19,7.91c0,4.02-2.19,7-5.53,10.1
		l-8.55,8.11h15.23V42.66z"/>
	<path d="M34.18,28.79c0-9.5,3.06-14.35,9.38-14.35c6.32,0,9.38,4.85,9.38,14.35s-3.06,14.36-9.38,14.36
		C37.24,43.14,34.18,38.29,34.18,28.79z M50.44,30.65v-3.74c0-6.48-2.19-10.42-6.88-10.42c-4.69,0-6.88,3.94-6.88,10.42v3.74
		c0,6.48,2.19,10.42,6.88,10.42C48.25,41.07,50.44,37.14,50.44,30.65z"/>
	<path d="M76.48,42.66H58.67v-2.43l9.7-9.3c2.58-2.5,4.41-5.25,4.41-8.03v-0.76c0-3.26-1.91-5.57-5.73-5.57
		c-3.7,0-5.53,2.07-6.4,5.01l-2.15-0.79c1.03-3.38,3.58-6.36,8.63-6.36c5.25,0,8.19,3.18,8.19,7.91c0,4.02-2.19,7-5.53,10.1
		l-8.55,8.11h15.23V42.66z"/>
	<path d="M82.92,42.66v-2.11h8.11v-23.9h-0.2l-7.63,6.8l-1.35-1.51l7.91-7.04h3.66v25.65h7.63v2.11H82.92z"/>
	<path d="M122.84,42.66l-9.31-27.76h2.58l8.19,25.33h0.16l8.27-25.33h2.5l-9.38,27.76H122.84z"/>
	<path d="M139.46,15.34v-0.4c0-0.83,0.48-1.43,1.55-1.43s1.55,0.6,1.55,1.43v0.4c0,0.83-0.48,1.43-1.55,1.43
		S139.46,16.18,139.46,15.34z M139.9,22.3h2.27v20.36h-2.27V22.3z"/>
	<path d="M149.56,42.66V22.3h2.27v3.66h0.16c0.8-1.91,2.58-3.66,6.08-3.66h1.35v2.23h-1.79c-3.38,0-5.81,1.59-5.81,4.21v13.92
		H149.56z"/>
	<path d="M169.72,51.09c-6.2,0-8.79-1.91-8.79-5.09c0-2.31,1.31-3.66,3.5-4.29v-0.32c-1.27-0.52-1.91-1.43-1.91-2.78
		c0-1.99,1.51-2.98,3.46-3.5v-0.16c-2.35-1.07-3.78-3.26-3.78-6.2c0-4.1,2.9-6.92,7.4-6.92c1.59,0,2.98,0.36,4.1,0.99v-0.99
		c0-1.23,0.56-2.07,1.87-2.07h3.5v1.99h-4.14v1.95c1.35,1.23,2.15,2.98,2.15,5.05c0,4.14-2.94,6.96-7.44,6.96
		c-0.72,0-1.43-0.12-2.11-0.24c-1.75,0.48-3.02,1.27-3.02,2.62c0,1.19,1.03,1.83,3.26,1.83h4.73c4.89,0,7,1.95,7,5.13
		C179.5,49.18,176.08,51.09,169.72,51.09z M172.5,42.03h-6.6c-1.75,0.6-2.82,1.75-2.82,3.5c0,2.11,1.75,3.7,5.29,3.7h2.54
		c3.94,0,6.4-1.27,6.4-4.02C177.31,43.26,176.12,42.03,172.5,42.03z M174.65,29.38v-1.27c0-2.78-1.91-4.45-5.01-4.45
		c-3.14,0-5.01,1.67-5.01,4.45v1.27c0,2.86,1.91,4.49,5.01,4.49S174.65,32.25,174.65,29.38z"/>
	<path d="M183.4,15.34v-0.4c0-0.83,0.48-1.43,1.55-1.43s1.55,0.6,1.55,1.43v0.4c0,0.83-0.48,1.43-1.55,1.43S183.4,16.18,183.4,15.34
		z M183.83,22.3h2.27v20.36h-2.27V22.3z"/>
	<path d="M193.5,42.66V22.3h2.27v3.22h0.12c0.92-2.11,2.74-3.7,6-3.7c4.33,0,6.88,2.78,6.88,7.75v13.08h-2.27V29.98
		c0-4.14-1.83-6.12-5.21-6.12c-2.86,0-5.53,1.47-5.53,4.49v14.32H193.5z"/>
	<path d="M215.44,15.34v-0.4c0-0.83,0.48-1.43,1.55-1.43s1.55,0.6,1.55,1.43v0.4c0,0.83-0.48,1.43-1.55,1.43
		S215.44,16.18,215.44,15.34z M215.88,22.3h2.27v20.36h-2.27V22.3z"/>
	<path d="M239.54,42.66c-1.75,0-2.47-0.99-2.58-2.5v-0.72h-0.2c-0.92,2.27-2.98,3.7-6.16,3.7c-4.25,0-6.72-2.23-6.72-6
		c0-3.62,2.39-5.88,8.27-5.88h4.69v-2.39c0-3.34-1.75-5.05-5.21-5.05c-2.7,0-4.45,1.19-5.57,3.3l-1.43-1.19
		c1.11-2.35,3.38-4.1,7.08-4.1c4.73,0,7.4,2.51,7.4,6.8v12.05h2.74v1.99H239.54z M236.84,36.74v-3.78h-4.77
		c-4.06,0-5.81,1.39-5.81,3.66v0.95c0,2.35,1.87,3.62,4.65,3.62C234.21,41.19,236.84,39.48,236.84,36.74z"/>
	<path d="M29.76,86.12h-0.12c-0.99,2.82-3.86,4.73-8.15,4.73c-6.84,0-11.21-4.97-11.21-14.36c0-9.34,4.33-14.35,11.37-14.35
		c4.73,0,8.03,2.39,9.7,5.92l-1.95,1.15c-1.35-3.06-4.1-4.93-7.75-4.93c-5.37,0-8.83,3.9-8.83,10.5v3.38
		c0,6.64,3.42,10.54,9.03,10.54c4.21,0,7.79-2.23,7.79-6.76v-3.34h-6.48v-2.07h8.83v13.84h-2.23V86.12z"/>
	<path d="M51.39,87.16h-0.16c-0.76,1.91-2.43,3.7-5.92,3.7c-4.33,0-6.92-2.78-6.92-7.75V70.02h2.27v12.65
		c0,4.17,1.87,6.16,5.25,6.16c2.82,0,5.49-1.47,5.49-4.53V70.02h2.27v20.36h-2.27V87.16z"/>
	<path d="M61.05,60.95h2.27v12.33h0.12c0.99-2.27,3.1-3.74,6.2-3.74c5.21,0,8.39,3.94,8.39,10.66s-3.18,10.66-8.39,10.66
		c-3.1,0-5.09-1.47-6.2-3.74h-0.12v3.26h-2.27V60.95z M75.61,81.63v-2.86c0-4.37-2.43-7.2-6.48-7.2c-3.14,0-5.81,1.87-5.81,4.53
		v8.07c0,2.86,2.66,4.65,5.81,4.65C73.18,88.83,75.61,86,75.61,81.63z"/>
	<path d="M82.25,80.2c0-6.68,3.46-10.66,8.87-10.66c5.21,0,8.59,4.06,8.59,10.02v1.07H84.63v0.99c0,4.25,2.47,7.24,6.64,7.24
		c2.9,0,5.05-1.43,6.16-4.1l1.67,1.11c-1.27,2.98-4.1,4.97-7.95,4.97C85.71,90.85,82.25,86.88,82.25,80.2z M84.63,78.69v0.2h12.61
		v-0.32c0-4.29-2.47-7.12-6.12-7.12C87.18,71.45,84.63,74.39,84.63,78.69z"/>
	<path d="M105.47,90.38V70.02h2.27v3.66h0.16c0.8-1.91,2.58-3.66,6.08-3.66h1.35v2.23h-1.79c-3.38,0-5.81,1.59-5.81,4.21v13.92
		H105.47z"/>
	<path d="M119.66,90.38V70.02h2.27v3.22h0.12c0.91-2.11,2.74-3.7,6-3.7c4.33,0,6.88,2.78,6.88,7.75v13.08h-2.27V77.69
		c0-4.14-1.83-6.12-5.21-6.12c-2.86,0-5.53,1.47-5.53,4.49v14.32H119.66z"/>
	<path d="M156.04,90.38c-1.75,0-2.47-0.99-2.58-2.5v-0.72h-0.2c-0.91,2.27-2.98,3.7-6.16,3.7c-4.25,0-6.72-2.23-6.72-6
		c0-3.62,2.39-5.88,8.27-5.88h4.69v-2.39c0-3.34-1.75-5.05-5.21-5.05c-2.7,0-4.45,1.19-5.57,3.3l-1.43-1.19
		c1.11-2.35,3.38-4.1,7.08-4.1c4.73,0,7.4,2.51,7.4,6.8v12.05h2.74v1.99H156.04z M153.34,84.45v-3.78h-4.77
		c-4.06,0-5.81,1.39-5.81,3.66v0.95c0,2.35,1.87,3.62,4.65,3.62C150.71,88.91,153.34,87.2,153.34,84.45z"/>
	<path d="M166.58,90.38c-1.63,0-2.5-0.99-2.5-2.5V72.01h-3.54v-1.99h2.31c1.11,0,1.43-0.4,1.43-1.55v-4.14h2.07v5.69h4.61v1.99
		h-4.61v16.38h4.29v1.99H166.58z"/>
	<path d="M174.61,80.2c0-6.68,3.5-10.66,8.87-10.66s8.87,3.98,8.87,10.66s-3.5,10.66-8.87,10.66S174.61,86.88,174.61,80.2z
		 M189.92,81.47v-2.54c0-4.73-2.5-7.36-6.44-7.36c-3.94,0-6.44,2.58-6.44,7.36v2.54c0,4.73,2.5,7.36,6.44,7.36
		C187.41,88.83,189.92,86.24,189.92,81.47z"/>
	<path d="M198.11,90.38V70.02h2.27v3.66h0.16c0.79-1.91,2.58-3.66,6.08-3.66h1.35v2.23h-1.79c-3.38,0-5.81,1.59-5.81,4.21v13.92
		H198.11z"/>
	<path d="M211.86,63.06v-0.4c0-0.83,0.48-1.43,1.55-1.43s1.55,0.6,1.55,1.43v0.4c0,0.83-0.48,1.43-1.55,1.43
		S211.86,63.89,211.86,63.06z M212.3,70.02h2.27v20.36h-2.27V70.02z"/>
	<path d="M235.96,90.38c-1.75,0-2.47-0.99-2.58-2.5v-0.72h-0.2c-0.92,2.27-2.98,3.7-6.16,3.7c-4.25,0-6.72-2.23-6.72-6
		c0-3.62,2.39-5.88,8.27-5.88h4.69v-2.39c0-3.34-1.75-5.05-5.21-5.05c-2.7,0-4.45,1.19-5.57,3.3l-1.43-1.19
		c1.11-2.35,3.38-4.1,7.08-4.1c4.73,0,7.4,2.51,7.4,6.8v12.05h2.74v1.99H235.96z M233.26,84.45v-3.78h-4.77
		c-4.06,0-5.81,1.39-5.81,3.66v0.95c0,2.35,1.87,3.62,4.65,3.62C230.63,88.91,233.26,87.2,233.26,84.45z"/>
	<path d="M245.42,90.38c-1.63,0-2.5-0.99-2.5-2.47V60.95h2.27v27.44h3.14v1.99H245.42z"/>
	<path d="M263.04,90.38V62.62h15.87v2.11h-13.48v10.5h12.57v2.11h-12.57v13.04H263.04z"/>
	<path d="M282.12,80.2c0-6.68,3.5-10.66,8.87-10.66s8.87,3.98,8.87,10.66s-3.5,10.66-8.87,10.66S282.12,86.88,282.12,80.2z
		 M297.43,81.47v-2.54c0-4.73-2.5-7.36-6.44-7.36s-6.44,2.58-6.44,7.36v2.54c0,4.73,2.51,7.36,6.44,7.36S297.43,86.24,297.43,81.47z
		"/>
	<path d="M305.62,90.38V70.02h2.27v3.66h0.16c0.79-1.91,2.58-3.66,6.08-3.66h1.35v2.23h-1.79c-3.38,0-5.81,1.59-5.81,4.21v13.92
		H305.62z"/>
	<path d="M318.07,80.2c0-6.68,3.46-10.66,8.87-10.66c5.21,0,8.59,4.06,8.59,10.02v1.07h-15.07v0.99c0,4.25,2.46,7.24,6.64,7.24
		c2.9,0,5.05-1.43,6.16-4.1l1.67,1.11c-1.27,2.98-4.1,4.97-7.95,4.97C321.53,90.85,318.07,86.88,318.07,80.2z M320.45,78.69v0.2
		h12.6v-0.32c0-4.29-2.46-7.12-6.12-7.12C323,71.45,320.45,74.39,320.45,78.69z"/>
	<path d="M339.66,80.2c0-6.72,3.22-10.66,8.79-10.66c3.74,0,6.04,1.83,7.24,4.49l-1.91,0.95c-0.96-2.19-2.67-3.42-5.33-3.42
		c-4.14,0-6.36,2.9-6.36,7.2v2.86c0,4.29,2.23,7.2,6.36,7.2c2.78,0,4.69-1.27,5.85-3.54l1.67,1.11c-1.31,2.7-3.78,4.45-7.52,4.45
		C342.88,90.85,339.66,86.92,339.66,80.2z"/>
	<path d="M375,90.38c-1.75,0-2.47-0.99-2.58-2.5v-0.72h-0.2c-0.92,2.27-2.98,3.7-6.16,3.7c-4.25,0-6.72-2.23-6.72-6
		c0-3.62,2.39-5.88,8.27-5.88h4.69v-2.39c0-3.34-1.75-5.05-5.21-5.05c-2.7,0-4.45,1.19-5.57,3.3l-1.43-1.19
		c1.11-2.35,3.38-4.1,7.08-4.1c4.73,0,7.4,2.51,7.4,6.8v12.05h2.74v1.99H375z M372.3,84.45v-3.78h-4.77c-4.06,0-5.81,1.39-5.81,3.66
		v0.95c0,2.35,1.87,3.62,4.65,3.62C369.68,88.91,372.3,87.2,372.3,84.45z"/>
	<path d="M379.89,86.96l1.67-1.31c1.67,2.19,3.62,3.26,6.32,3.26c3.1,0,4.89-1.39,4.89-3.86c0-2.15-1.23-3.38-4.17-3.82l-1.67-0.28
		c-3.7-0.56-6.24-2.03-6.24-5.69c0-3.82,2.98-5.73,6.92-5.73c3.38,0,5.45,1.31,6.96,3.14l-1.51,1.39c-1.07-1.27-2.74-2.58-5.57-2.58
		c-2.9,0-4.61,1.35-4.61,3.66c0,2.35,1.47,3.26,4.37,3.74l1.63,0.24c4.14,0.64,6.08,2.42,6.08,5.69c0,3.78-2.74,6.04-7.24,6.04
		C384.19,90.85,381.72,89.46,379.89,86.96z"/>
	<path d="M404.27,90.38c-1.63,0-2.5-0.99-2.5-2.5V72.01h-3.54v-1.99h2.31c1.11,0,1.43-0.4,1.43-1.55v-4.14h2.07v5.69h4.61v1.99
		h-4.61v16.38h4.29v1.99H404.27z"/>
</g>
<path class="st4" d="M667.95,23.59l-0.04-0.19l0.22,0.07l0.05,0.08l-0.14,0.24L667.95,23.59z M670.83,21.09l0.14-0.39l2.07-0.78
	l1.43-0.55l-0.31,0.98l-0.24,1.08l-0.18,0.35l-0.07,0.05l-0.18-0.19l0.06-0.1l0.25,0.07l0.11-0.21l-0.05-0.11l-0.28,0.03l-0.07-0.07
	l-0.23,0.09l-0.06,0.24l0.02,0.11l-0.13,0.04l-0.11,0.1l-0.25,0.46l-0.14,0.36l-0.08,0.26l-0.11,0.54l-0.07,0.17l-0.02,0.52
	l-0.06,0.1l0.03,0.27l0.01,0.39l-0.06,0.25l0.01,0.11l0.11,0.38l0.14,0.04l-0.12,0.42l-0.26,0.79l-0.15,0l-0.02,0.18l0.1,0.11
	l0.22-0.05l0.07,0.19l-0.1,0.22l-0.11,0.37l-0.11,0.44l-0.05,0.16l0,0.2l-0.06,0.22l-0.08,0.2l-0.15,0.25l-0.06-0.05l-0.12,0.11
	l0.17,0.49l-0.03,0.27l0.02,0.17l-0.1,0.11l0.08,0.22l-0.1,0.15l0.02,0.1l-0.18,0.26l-0.13,0.32l-0.13,0.26l-0.16,0.11l0.01-0.14
	l-0.18-0.05l-0.13,0.14l-0.19,0.1l0.07,0.12l0.13,0l0.09,0.05l0.02,0.11l-0.15,0.12l-0.15-0.01l-0.08-0.08l0.05-0.2l-0.03-0.17
	l-0.19-0.39l-0.1-0.09l-0.18-0.22l-0.19-0.17l-0.05-0.34l-0.06-0.02l-0.17-0.22l-0.01-0.14l0.07-0.15l-0.15-0.23l-0.03-0.21
	l0.01-0.21l0.07-0.18l0.05-0.35l-0.03-0.1l0.1-0.07l0.02-0.19l-0.13-0.03l-0.06-0.12l-0.04-0.28l0.05-0.26l0.06-0.17l-0.07-0.06
	l-0.03-0.3l0.02-0.28l0.05-0.17l0.02-0.21l-0.13-0.14l0.04-0.21l0.12-0.11l-0.11-0.11l0.07-0.35l0.06-0.05l0.1,0.2l0.15-0.03
	l-0.1-0.29l-0.09-0.05l0-0.2l0.13-0.22l0.13,0.01l0.08-0.09l-0.11-0.17l0.02-0.18l0.06-0.15l0.1-0.14l0.13-0.02l0.11-0.14
	l-0.07-0.06l-0.22,0.12l-0.06-0.07l0.12-0.22l0.05,0.03l0.14-0.09l-0.02-0.18l-0.1-0.05l-0.08-0.11l-0.06,0.05l-0.08-0.12l0.17-0.24
	l0.21-0.06l0.31,0.16l0.14-0.06l0.07-0.09l-0.09-0.33l0.06-0.39l0.17,0.12l0.12-0.21l-0.19-0.06l-0.06-0.09l0.1-0.12l-0.03-0.16
	l-0.09,0.04l-0.12-0.16l-0.22,0.06l-0.14,0.1l-0.01-0.11l-0.1-0.05l0.11-0.15l0.05-0.18l0.05-0.06l0.11,0.09l0.09-0.04l0.1-0.18
	l0.14,0.03l0.22-0.05l0.03-0.13l-0.03-0.12L670.83,21.09z M667.12,22.23l0.5-0.13l-0.2,0.14l-0.02,0.08l0.08,0.12l-0.07,0.05
	l-0.09-0.06l0.03-0.14l-0.06-0.08l-0.12,0.05L667.12,22.23z M612.59,41.8l0.11,0.01l0.17,0.13l0.05,0.22l-0.09,0.06l-0.17,0.24
	l-0.14,0.06l-0.02,0.08l0.09,0.18l0.09,0.06l0.1-0.05l0.08,0.1l0.18-0.03l0.16,0.07l-0.03,0.1l0.12,0.14l0.1,0.25l-0.02,0.2
	l0.27,0.3l0.19,0.06l0.09,0.11l0.15-0.02l0.21,0.11l0.08,0.09l0.07,0.22l0.15-0.02l0.06,0.04l0.15-0.01l0.13-0.12l0.2-0.01l0.1,0.07
	l0.12-0.04l0.26,0.21l0,0.15l0.07,0.04l0.14-0.07l0.1,0.12l0.32,0.11l0.12,0.12l1.09-0.35l0.06-0.04l0.05-0.17l0.2-0.13l0.09-0.1
	l-0.01-0.25l0.22-0.04l0.15-0.15l0-0.07l0.2-0.16l0.09,0.02l0.1-0.05l0.02-0.1l0.03-0.39l0.08-0.15l0.12-0.01l0.06-0.26l0.52,0.35
	l1.09,0.53l0.17-0.15l0.29-0.33l0.47-0.32l0.25-0.14l0.42-0.18l0.51-0.29l0.03,0.11l0.13-0.02l0.16-0.09l0.24-0.19l0.15-0.15
	l0.23-0.36l0.16-0.14l-0.43-0.36l0.11-0.38l-0.05-0.09l0.02-0.13l0.15,0.04l0.09-0.04l0.35,0.17l0.08,0.09l0.15-0.03l0.2,0.23
	l0.09-0.06l0.46-0.37l0.41-0.43l0.16-0.2l0.26-0.25l0.1-0.16l0.27-0.28l0.14-0.04l0.21-0.15l0.25,0.24l0,0.16l0.05,0.11l0.22,0.1
	l0.26-0.26l0.13-0.18l0.5-0.51l-0.05-0.05l0.3-0.19l0.26-0.25l0.08-0.34l-0.09-0.01l-0.14,0.15l-0.22-0.05l0.14-0.16l-0.21-0.18
	l0.56-0.54l0.14-0.18l0.12-0.29l-0.2-0.07l-0.29-0.03l-0.15-0.1l-0.27-0.37l0.07-0.08l0.23-0.49l-0.13-0.07l-0.01-0.23l0.07-0.03
	l0.04-0.15l0.14-0.21l-0.1-0.11l0.05-0.24l0.1-0.1l0.01-0.11l0.11-0.2l0-0.11l0.11-0.39l0.09-0.17l0.08,0.03l0.26-0.53l0.06,0
	l0.13-0.34l0.2-0.25l0.32-0.53l0.02-0.2l0.08-0.27l0.08-0.48l0-0.21l0.18-0.36l-0.13-0.06l-0.12-0.22l0.12-0.13l0.05-0.31l-0.1-0.2
	l0.04-0.11l0.13-0.1l0.03-0.16l0.1-0.11l0.22-0.43l0.1-0.05l0.02-0.11l0.1-0.01l0.24-0.38l-0.13-0.18l-0.08,0l-0.11-0.13l0.07-0.26
	l0.18-0.2l0.01-0.27l0.2-0.02l0.14-0.16l-0.09-0.1l0.01-0.18l0.1-0.39l0.11-0.23l-0.05-0.23l-0.07-0.15l-0.11-0.12l-0.02-0.24
	l0.09-0.11l-0.01-0.12l0.16-0.1l-0.14-0.13l0.03-0.13l-0.06-0.13l-0.01-0.27l0.06-0.29l0.82,0.15l0.16,0l0.21,0.07l0.2,0.16
	l0.66,0.82l1.1,0.1l0.6,0.04l0.11-0.07l0.16-0.16l-0.05-0.08l0.12-0.12l0.08-0.24l0.1-0.01l-0.02-0.19l0.11-0.11l0.02-0.11
	l0.08-0.12l-0.05-0.18l-0.01-0.22l0.22-0.81l-0.01-0.23l0.01-0.25l0.07-0.25l0.01-0.2l0.08-0.11l0.14,0.02l0.12-0.07l0-0.35
	l-0.13-0.17l-0.01-0.23l0.05-0.37l0.1-0.19l0-0.23l-0.06-0.08l0.06-0.1l0.18-0.05l-0.01-0.33l0.11-0.11l-0.01-0.27l0.05-0.07
	l1.45,0.75l0.1-0.44l0.14-0.5l0.04-0.34l0.1-0.4l0.06-0.11l0.16-0.15l0.03-0.21l0.07-0.16l0.14-0.09l0.12,0.31l0.1-0.16l0.06-0.02
	l0.06-0.13l0.07-0.03l0.13-0.32l0.05-0.28l0.08,0l0.04-0.19l0.08-0.04l0.23,0.17l0.06-0.11l0.06-0.26l0.13-0.31l0.06-0.09
	l-0.24-0.12l0.21-0.43l0.13-0.17l0.03-0.15l0.14-0.26l0.13-0.17l0.16-0.09l0.13-0.28l0-0.12l0.05-0.16l0.11-0.1l0.07-0.13
	l-0.18-0.08l-0.12-0.1l-0.05-0.11l-0.08,0l0.21-0.49l-0.02-0.12l-0.08-0.13l-0.11-0.03l0.16-0.38l0.02-0.14l0.18-0.36l0.06-0.3
	l0.01-0.19l-0.27-0.01l0.07-0.18l0.05-0.24l-0.19-0.15l-0.04-0.1l0.07-0.21l-0.05-0.16l-0.04-0.24l-0.04-0.08l0.68,0.31l0.28,0.11
	l1.21,0.61l0.19,0.08l0.37,0.18l0.87,0.4l2.35,1.1l0-0.2l0.04-0.23l0.05-0.13l-0.01-0.47l0.12-0.38l0-0.16l0.05-0.38l0-0.23
	l0.06-0.24l0.12-0.15l0.22-0.02l0.19-0.12l0.27,0.1l0.36,0.01l0.27-0.06l0.19-0.1l0.06,0.04l0.06,0.19l0.23,0.19l0.37,0.09
	l0.22,0.01l0.31,0.17l0.03,0.12l-0.1,0.16l0.03,0.17l-0.08,0.14l-0.17,0.09l-0.07,0.16l-0.02,0.33l0.09,0.22l0.11,0.09l0.31,0.04
	l0.11,0.09l0.21,0.26l0.1,0.02l0.3-0.01l0.47-0.05l0.32-0.11l0.27,0.07l0.23,0.02l0.21,0.1l0.2,0l0.1,0.04l0.02,0.13l-0.04,0.17
	l0.17,0.21l0.25,0.08l0.24,0l0.3-0.09l0.19,0l0.26,0.25l0.09,0.05l0.22,0.22l0.11,0.06l0.27,0.02l0.07,0.12l0.19,0.18l0.08-0.03
	l0.15,0.23l-0.01,0.24l0.07,0.21l0.05,0.28l0.13,0.62l0.06,0.18l-0.01,0.15l-0.05,0.07L655,15.7l-0.2,0.21l-0.12,0.17l-0.06,0.17
	l0.04,0.3l0.1,0.17l-0.27,0.05l-0.07,0.16l-0.29,0.18l-0.19-0.21l0.1-0.05l0.06-0.16l-0.12-0.07l-0.06,0.04l-0.25,0.02l0.16,0.14
	l-0.02,0.11L653.66,17l0.06,0.17l0,0.19l-0.04,0.1l0.11,0.08l-0.14,0.17l0.11,0.28l-0.11,0.15l0.01,0.27l-0.07,0.27l-0.08,0.16
	l-0.04,0.39l0.04,0.29l0.15,0.29l0.14,0.22l-0.05,0.04l0.04,0.14l0.24,0.11l0.11,0.11l0.06,0.14l0.09,0.08l0.16,0.05l0.24-0.04
	l0.3-0.2l0.23-0.07l0.15-0.1l0.16-0.32l0.13-0.02l0.18-0.08l0.19-0.03l0.1-0.15l0.1-0.3l0.11-0.04l0.27,0.16l0.12,0.32l0.07,0.26
	l-0.12,0.2l-0.11-0.01l-0.14,0.06l0.18,0.1l0.11-0.06l0.36,0.29l0.03,0.08l0.18-0.04l0.24,0.17l0.11,0.22l-0.07,0.14l0.09,0.14
	l0.27,0.08l0.27,0l0.41,0.21l0.16-0.03l0.21,0.04l0.14-0.04l0.22-0.12l0.38-0.07l0.19,0.09l0.08,0.08l0.04,0.16l0.1,0l0.18-0.27
	l0-0.14l0.1-0.03l0.27,0.09l0.12,0.13l0.2,0.12l0.05-0.08l-0.17-0.22l0.12-0.09l0.18,0.01l0.03,0.13l0.09,0.07l0.1,0.23l0.25,0.13
	l0.23,0.05l0.25,0.1l0.02,0.09l0.2,0.2l-0.07,0.02l-0.08,0.11l-0.1,0.01l0,0.21l0.19,0l0.19-0.12l0.2,0.04l0.17,0l0.22,0.18
	l-0.09,0.06L663,22.9l0.11-0.05l0.2-0.02l0.15,0.05l0.14,0.09l0.33,0.05l0.24-0.01l0.17,0.02l0.85,0.24l0.2,0.15l0.14,0.03l0,0.49
	l0.04,0.2l-0.09,0.25l-0.12,0.09l-0.07-0.11l-0.2,0.06l0.06,0.26l-0.06,0.11l0.12,0.2l0.07,0.27l0.1,0.25l-0.14-0.05l0.06,0.21
	l0.09,0.02l0.13,0.15l0.04,0.14l-0.28,0.15l0.12,0.09l-0.08,0.16l0,0.11l0.1,0.1l0.06,0.19l0.12,0l0.02-0.2l0.21,0.02l0.18,0.18
	l-0.11,0.07l-0.22-0.07l-0.07,0.08l-0.12-0.03l-0.19,0.1l-0.04,0.14l-0.23-0.15l-0.09-0.02l-0.1,0.06l-0.16-0.1l-0.14,0l-0.13-0.11
	l-0.1,0.08l-0.24-0.21l0.13-0.12l-0.19-0.19l-0.08,0.04l-0.06,0.13l0.07,0.11l-0.05,0.16l-0.03,0.26l-0.1,0.01l-0.26-0.13
	l-0.06-0.09l-0.04-0.23l-0.12-0.23l-0.16-0.07l-0.08-0.12l-0.1-0.06l-0.06-0.14l-0.21-0.26l-0.16,0.03l-0.19-0.09l-0.1-0.13
	l-0.19-0.07l-0.06,0.13l-0.1-0.11l-0.12-0.04l-0.14-0.13l-0.19,0.09l-0.24-0.12l-0.13-0.14l-0.11-0.04l0-0.13l-0.12-0.1l-0.18,0
	l-0.09-0.23l-0.14-0.12l-0.23-0.12l-0.11,0.04l-0.13-0.08l-0.11,0.05l-0.22-0.19l0.02-0.07l-0.1-0.19l-0.13-0.02l-0.1-0.08
	l-0.2,0.05l-0.12-0.13l-0.17,0.04l-0.03,0.23l0.13,0.07l0.22-0.08l0.15,0.02l-0.04,0.25l0.07-0.01l0.25,0.14l0.17,0.19l0.14-0.03
	l0.14,0.14l0.28,0.02l0.03,0.12l0.17,0.24l0.14,0.07l0.13,0.22l0.15,0.1l0.24,0.26l0.13,0.1l0.09,0.01l0.24-0.06l0.1,0.04l0.02,0.18
	l0.09,0.1l0.14,0.02l0.23-0.05l0.25,0.05l0.01,0.14l0.25,0.11l0.07,0.21l0.09,0.05l0.03,0.1l0.12,0.12L662.9,27l0.18,0.07
	l-0.01,0.09l0.24,0.14l0.11,0.12l0.24,0.07l0.33-0.11l0.16-0.01l0.18-0.08l0.25-0.04l0.04,0.17l0.06,0.11l0.15,0.05l0.06-0.03
	l0.27,0.04l0.24-0.07l0.25-0.02l0.21,0.04l0.12-0.02l0.01,0.13l-0.07,0.08l-0.1,0.01l-0.08,0.1L665.45,28l0.09,0.25l0.09,0.09
	l0.16-0.04l0.16,0.19l0.08-0.06l0.18-0.37l0.09,0.06l0.15,0.19l-0.09,0.07l-0.27-0.05l0,0.08l0.32,0.09l0.01,0.11l0.27,0.1
	l0.08,0.18l0.17,0.49l0.05,0.18l-0.06,0.23l-0.1,0.11l-0.01,0.08l0.09,0.23l0.02,0.2l-0.26-0.11l-0.11,0l-0.1-0.18l-0.06,0.03
	l-0.35-0.26l-0.05,0.04l-0.18-0.09l-0.15-0.01l-0.16-0.18l-0.07-0.17l-0.13,0.02l0,0.11l0.14,0.48l-0.17-0.12l-0.21,0.06l-0.11-0.05
	l-0.04,0.1l0.04,0.15l0.13,0.06l0.09-0.12l0.13,0.12l0.1,0.02l0.11,0.09l0.14,0l-0.09,0.14l0.05,0.07l-0.24,0.07l0.02,0.1l0.2,0.03
	l0.17-0.12l0.12,0.03l-0.01,0.13l0.12,0.04l0.09,0.13l0.23-0.03l-0.06,0.14l-0.15,0.04l-0.09,0.08l-0.26,0.05l-0.02,0.13l-0.11,0
	l-0.27,0.16l-0.12,0.03l-0.07-0.04L665,31.79l-0.02,0.08l0.18,0.13l0.24,0.06l0.31-0.12l0.14-0.09l0.1-0.02l0.21-0.1l-0.08,0.27
	l0.15,0.13l0.03,0.23l-0.14,0.03l0,0.17l0.31-0.01l0.17-0.21l0.17,0.02l0.16,0.2l0.22,0.02l0.19,0.12l-0.03,0.14l0.25,0.1l0.12,0.14
	l-0.02,0.37l-0.03,0.3l0,0.43l-0.1,0.02l-0.05-0.13l-0.23,0.03l-0.04,0.12l-0.25,0.19l-0.13,0.22l-0.09,0.28l-0.13-0.02l-0.35-0.31
	l0.01-0.12l-0.22-0.2l-0.34-0.12l-0.35-0.14l-0.05-0.18l-0.19-0.08l-0.04,0.11l-0.11,0.07l-0.21-0.18l-0.19-0.08l-0.04-0.05
	l-0.21-0.05l-0.05-0.06l-0.05-0.19l0.05-0.03l0.06-0.19l-0.16-0.23l-0.07-0.15l-0.14-0.15l-0.23-0.12l-0.1,0l-0.31,0.08l-0.07,0.1
	l-0.26,0.13l-0.26,0.03l0.26,0.09L662.92,33l-0.13,0.05l-0.27-0.15l-0.19-0.23l-0.31-0.08l-0.26,0.1l-0.18,0.03l-0.04-0.22
	l-0.05-0.01l-0.1,0.15l-0.1,0.06l-0.05,0.11l-0.09,0.01l-0.01,0.12l-0.22,0.02l-0.03,0.13l0.23,0.09l0.27,0.13l0.11-0.03l0.21-0.17
	l0.46-0.07l0.16-0.05l0.01,0.09l0.25,0.19l0.22,0.07l0.19,0.17l0.18,0.02l0.14-0.07l0.05-0.3l0.04-0.06l-0.01-0.26l0.05-0.04
	l0.2,0.12l0.09,0.1l-0.03,0.2l0.05,0.2l0.1,0.09l0.06,0.17l0.07,0.06l0.04,0.18l-0.03,0.27l0.03,0.2l0.16,0.18l0.14,0.04l0.32-0.08
	l0.26,0.02l0.14,0.13L665,34.8l0.06,0.09l0.14-0.1l0.13,0.03l0.13,0.1l0.16,0.02l0.07,0.11l0.09,0.04l0.17-0.01l0.11,0.08l0.07,0.21
	l-0.1-0.01l0,0.15l0.23,0.13l0.03,0.22l-0.08,0.08l0.05,0.12l0.09,0.01l0.08-0.08l0.17-0.06l-0.02-0.1l0.07-0.19l0.35,0.02
	l0.16-0.02l0.02-0.05l-0.06-0.28l0.3-0.07l0.13,0.31l0.29,0.04l0.05-0.05l-0.03-0.17l-0.12,0.02l-0.16-0.44l-0.02-0.26l0.12,0.07
	l0.14-0.05l0-0.16l0.19-0.03l0.1,0.02l0.37,0.15l0.14,0.04l0.42,0.01l0.41-0.02l0.51,0.06l0.06-0.07l0.21-0.12l0.12-0.19l0.13-0.07
	l0.19-0.01l0.13,0.05l0.11,0.18l0.36,0.7l0.16,0.34l0.31,0.56l0.47,0.75l0.48,0.64l0.3,0.51l0.17,0.37l-4.21,1.1l-1.43,0.37
	l-0.72,0.19l-0.32,0.08l-1.54,0.4l-0.65,0.18l-1.03,0.25l0.03,0.1l-1.69,0.43l-0.54,0.15l-0.17,0l-0.33,0.12l-5.13,1.33l-1.18,0.32
	l-2.43,0.65l-1.06,0.27l-2.12,0.58l-0.36,0.11l-0.9,0.23l-0.55,0.13l-1.25,0.33l-1.66,0.43l-2.61,0.7l-1.85,0.48l-0.61,0.17
	l-1.48,0.38l-2.08,0.53l-0.16,0.05L633.07,49l-0.98,0.24l-0.66,0.17l-1.39,0.28l-1.76,0.36l-0.77,0.15l-0.24,0.06l-0.4,0.13
	l-0.29,0.07l-0.31,0.1l-1.04,0.22l-0.55,0.14l-0.53,0.1l-0.23,0.06l-0.84,0.17l-0.06,0l-0.69,0.17l-0.55,0.12l-0.63,0.17l-0.64,0.14
	l-0.33,0.04l-0.12,0.05l-0.3,0.06L619,52.13l-0.72,0.17l0.21-0.36l-0.85,0.22l-1.76,0.41l-0.04,0.29l-2.02,0.52l-0.59,0.14
	l-0.82,0.21l-1.6,0.43l-0.2,0.03l-1.15,0.32l-0.66,0.18l-1.96,0.52l-1.32,0.34l-2.19,0.57l-0.16-0.01l-0.93,0.26l-1.71,0.45
	l-0.62,0.15l-0.51,0.1l0.2-0.25l-0.01-0.07l0.21-0.09l0.07-0.13l0.17-0.13l0.16-0.05l0.11-0.15l0.18-0.11l0.07-0.12l0.18-0.1
	l0.17-0.06l0.12,0.02l0.27-0.05l0.28-0.11l0.23-0.18l0.06-0.14l0.22-0.15l0.14-0.13l0.31-0.21l0.18-0.08l0.21-0.14l0.38-0.23
	l0.21-0.16l0.31-0.09l0.23-0.1l0.06-0.11l-0.08-0.15l0-0.14l-0.06-0.08l0.11-0.11l0.12-0.34l-0.08-0.16l0.11-0.14l0.1-0.06
	l-0.02-0.17l0.24-0.03l0.18-0.1l0.06,0.05l0.16-0.01l0.04-0.12l0.17-0.08l0.09,0l0.15-0.15l0.13-0.05l0.12-0.12l0.13-0.04l0-0.06
	l0.22-0.18l0.05-0.17l-0.09-0.05l0.11-0.25l-0.07-0.28l-0.15-0.17l-0.02-0.11l0.11-0.17l0.09-0.01l0.1-0.15l0.04-0.15l0.2-0.1
	l0.17-0.05l0.16-0.28l0.11,0l0-0.22l0.15-0.03l-0.01-0.2l-0.09-0.17l0-0.15l-0.1-0.42l0.3-0.28l0.08-0.01l0.15-0.16l0.03-0.1
	l0.16-0.07l0.05-0.12l0.24-0.31l0.11-0.1l0.22-0.26l0.26-0.17l0.16-0.22l0.42-0.32l0.16-0.08l0.41-0.27l0.06-0.01l0.22-0.15
	l0.09-0.19l0.11-0.07l0.04-0.16l0.83-1.23l0.57-0.81l0.45-0.67l0.08-0.14L612.59,41.8z"/>
<g>
	<path class="st1" d="M637.32,35.82l-0.58-7.58l0.91,0.2l0.24,3.78l0.19,2.86l0.05,0.01l1.35-2.53l1.78-3.34l0.88,0.19l-3.65,6.67
		L637.32,35.82z"/>
	<path class="st1" d="M645.87,37.66l-0.17-2.16l-2.5-0.54l-1.04,1.9l-0.89-0.19l3.72-6.65l1.13,0.24l0.65,7.59L645.87,37.66z
		 M645.4,31.06l-0.09-0.02l-1.74,3.22l2.09,0.45L645.4,31.06z"/>
</g>
<path class="st7" d="M363.81,33.93l0.03-0.24l0.23,0.18l0.03,0.11l-0.26,0.22L363.81,33.93z M368.27,32.17l0.33-0.4l2.78-0.06
	l1.93-0.05l-0.78,1.03l-0.73,1.18l-0.36,0.34l-0.1,0.03l-0.13-0.3l0.11-0.09l0.26,0.19l0.21-0.2l-0.01-0.15l-0.35-0.08l-0.05-0.11
	l-0.31,0.01l-0.18,0.26l-0.03,0.14l-0.17,0l-0.17,0.08l-0.49,0.44l-0.32,0.36l-0.2,0.28l-0.36,0.6l-0.15,0.17l-0.24,0.61l-0.11,0.09
	l-0.07,0.34l-0.14,0.46l-0.18,0.27l-0.04,0.14l-0.02,0.5l0.15,0.11l-0.32,0.44l-0.64,0.82l-0.17-0.06l-0.1,0.21l0.07,0.17l0.28,0.03
	l0,0.25l-0.22,0.21l-0.29,0.39l-0.31,0.48l-0.13,0.17l-0.08,0.24l-0.16,0.23l-0.18,0.21l-0.29,0.24l-0.06-0.08l-0.19,0.08v0.65
	l-0.15,0.31l-0.05,0.22l-0.16,0.09l0,0.29l-0.18,0.14l-0.02,0.13l-0.32,0.23l-0.29,0.33l-0.26,0.25l-0.24,0.07l0.07-0.16l-0.19-0.13
	l-0.22,0.1l-0.26,0.04l0.03,0.17l0.16,0.06l0.09,0.1l-0.03,0.14l-0.23,0.08l-0.18-0.08l-0.06-0.13l0.15-0.21l0.04-0.22l-0.06-0.54
	l-0.09-0.15l-0.12-0.34l-0.15-0.28l0.08-0.43l-0.06-0.04l-0.1-0.33l0.04-0.18l0.15-0.15l-0.08-0.33l0.05-0.26l0.1-0.24l0.16-0.19
	l0.21-0.4l0.01-0.13l0.15-0.04l0.11-0.21l-0.15-0.09l-0.02-0.17l0.07-0.34l0.16-0.28l0.14-0.17l-0.06-0.1l0.09-0.37l0.14-0.33
	l0.13-0.18l0.12-0.24l-0.09-0.21l0.13-0.23l0.19-0.08l-0.08-0.17l0.23-0.39l0.09-0.03l0.03,0.28l0.19,0.02l0-0.39l-0.09-0.09
	l0.08-0.24l0.25-0.21l0.15,0.07l0.13-0.07l-0.06-0.24l0.1-0.21l0.13-0.16l0.17-0.12l0.16,0.03l0.19-0.13l-0.06-0.1l-0.32,0.05
	l-0.04-0.11l0.23-0.21l0.04,0.06l0.2-0.05l0.05-0.22l-0.1-0.1l-0.05-0.16l-0.09,0.03l-0.04-0.17l0.3-0.21l0.28,0.02l0.3,0.31
	l0.19-0.01l0.13-0.07l0.03-0.43l0.24-0.43l0.15,0.22l0.23-0.21l-0.2-0.15l-0.03-0.13l0.17-0.1l0.03-0.2l-0.12,0.01l-0.08-0.24
	l-0.29-0.02l-0.2,0.06l0.04-0.14l-0.1-0.1l0.19-0.13l0.13-0.19l0.09-0.05l0.09,0.15l0.13-0.01l0.2-0.17l0.15,0.1l0.28,0.03
	l0.09-0.14l0.01-0.15L368.27,32.17z M363.39,31.96l0.64,0.06l-0.29,0.08l-0.05,0.09l0.04,0.17l-0.11,0.03l-0.08-0.1l0.1-0.15
	l-0.04-0.12l-0.16,0.01L363.39,31.96z M290.52,32.24l0.13,0.06l0.15,0.23l-0.03,0.28l-0.13,0.04l-0.31,0.21l-0.19,0.01l-0.05,0.09
	l0.03,0.25l0.08,0.11l0.14-0.02l0.06,0.15l0.22,0.03l0.16,0.16l-0.07,0.11l0.08,0.22l0.02,0.33l-0.11,0.23l0.19,0.47l0.2,0.15
	l0.06,0.17l0.18,0.04l0.2,0.22l0.06,0.15l-0.02,0.29l0.18,0.04l0.05,0.07l0.18,0.05l0.2-0.08l0.24,0.07l0.09,0.13l0.16,0l0.23,0.35
	l-0.06,0.17l0.06,0.07l0.19-0.02l0.07,0.19l0.33,0.27l0.09,0.19l1.44,0.04l0.09-0.02l0.13-0.18l0.29-0.07l0.15-0.08l0.09-0.3
	l0.28,0.05l0.23-0.11l0.03-0.09l0.3-0.11l0.11,0.06l0.14-0.02l0.07-0.11l0.2-0.45l0.16-0.14l0.15,0.04l0.18-0.28l0.46,0.63
	l1.07,1.09l0.26-0.1l0.49-0.27l0.68-0.18l0.36-0.06l0.58-0.04l0.72-0.13l-0.02,0.14l0.16,0.03l0.23-0.04l0.36-0.13l0.24-0.12
	l0.42-0.33l0.25-0.11l-0.37-0.61l0.29-0.41l-0.02-0.12l0.08-0.15l0.16,0.11l0.12,0l0.34,0.34l0.06,0.14l0.19,0.04l0.14,0.36
	l0.13-0.03l0.69-0.24l0.67-0.33l0.28-0.17l0.41-0.18l0.19-0.15l0.44-0.22l0.19,0.01l0.32-0.09l0.19,0.39l-0.07,0.19l0.01,0.15
	l0.22,0.21l0.42-0.2l0.23-0.16l0.8-0.4l-0.04-0.08l0.44-0.1l0.42-0.19l0.24-0.37L310.99,34l-0.23,0.12l-0.24-0.16l0.23-0.14
	l-0.17-0.3l0.89-0.41l0.24-0.16l0.26-0.3l-0.21-0.17l-0.34-0.16l-0.13-0.18l-0.16-0.55l0.12-0.06l0.47-0.48l-0.12-0.14l0.09-0.27
	l0.1-0.01l0.11-0.16l0.25-0.19l-0.08-0.17l0.16-0.26l0.16-0.08l0.06-0.13l0.22-0.19l0.04-0.14l0.3-0.42l0.17-0.17l0.08,0.07
	l0.53-0.52l0.08,0.02l0.3-0.35l0.34-0.21l0.61-0.5l0.11-0.23l0.21-0.29l0.3-0.54l0.09-0.25l0.36-0.35l-0.13-0.12l-0.05-0.32
	l0.2-0.11l0.19-0.35l-0.04-0.27l0.1-0.12l0.2-0.06l0.1-0.17l0.16-0.08l0.44-0.42l0.14-0.01l0.07-0.12l0.12,0.03l0.44-0.35
	l-0.07-0.27l-0.09-0.04l-0.07-0.21l0.19-0.27l0.3-0.16l0.13-0.32l0.24,0.06l0.24-0.13l-0.06-0.15l0.08-0.21l0.28-0.43l0.23-0.23
	l0.04-0.3l-0.01-0.21l-0.08-0.19l0.08-0.29l0.15-0.1l0.04-0.14l0.23-0.06l-0.11-0.22l0.09-0.14l-0.02-0.18l0.11-0.32l0.2-0.32
	l0.91,0.52l0.19,0.06l0.22,0.17l0.17,0.28l0.44,1.25l1.26,0.58l0.69,0.3l0.15-0.03l0.26-0.13l-0.03-0.12l0.2-0.09l0.2-0.26
	l0.13,0.03l0.05-0.24l0.18-0.09l0.07-0.13l0.14-0.11l0.01-0.23l0.08-0.26l0.6-0.87l0.08-0.28l0.12-0.29l0.19-0.26l0.1-0.23l0.14-0.1
	l0.16,0.08l0.17-0.04l0.14-0.41l-0.08-0.26l0.09-0.27l0.22-0.41l0.2-0.18l0.1-0.27l-0.03-0.12l0.11-0.09l0.23,0.02l0.13-0.4
	l0.17-0.09l0.1-0.32l0.08-0.07l1.4,1.5l0.3-0.48l0.38-0.54l0.19-0.38l0.28-0.43l0.12-0.1l0.26-0.11l0.13-0.24l0.16-0.16l0.21-0.05
	l0.01,0.42l0.19-0.15l0.08,0l0.13-0.13l0.1,0l0.29-0.33l0.18-0.31l0.1,0.03l0.12-0.21l0.12-0.02l0.2,0.3l0.11-0.11l0.18-0.28
	l0.29-0.31l0.11-0.09l-0.24-0.24l0.43-0.42l0.23-0.14l0.09-0.16l0.27-0.25l0.23-0.15l0.23-0.04l0.27-0.27l0.05-0.14l0.13-0.16
	l0.17-0.08l0.13-0.13l-0.17-0.17l-0.11-0.17l-0.02-0.15l-0.09-0.03l0.45-0.49l0.03-0.15l-0.04-0.19l-0.12-0.09l0.35-0.38l0.09-0.16
	l0.37-0.36l0.2-0.32l0.09-0.22l-0.32-0.12l0.16-0.18l0.16-0.26l-0.16-0.26l-0.01-0.13l0.17-0.22l0-0.21l0.06-0.29L337.3,5.9
	l0.67,0.65l0.29,0.25l1.18,1.23l0.2,0.17l0.36,0.37l0.86,0.84l2.32,2.3l0.08-0.24l0.14-0.26l0.11-0.14l0.19-0.55l0.3-0.4l0.07-0.19
	l0.22-0.43l0.09-0.28l0.17-0.26l0.2-0.12l0.27,0.06l0.27-0.07l0.28,0.24l0.42,0.16l0.34,0.04l0.27-0.04l0.05,0.07l-0.01,0.25
	l0.19,0.32l0.4,0.26l0.26,0.1l0.3,0.33l-0.01,0.15l-0.18,0.15l-0.03,0.21l-0.15,0.13l-0.24,0.04l-0.16,0.16l-0.17,0.38l0.01,0.29
	l0.1,0.16l0.35,0.18l0.09,0.15l0.15,0.39l0.11,0.07l0.36,0.12l0.58,0.14l0.43,0.01l0.3,0.2l0.26,0.11l0.21,0.21l0.23,0.08l0.11,0.09
	l-0.03,0.16l-0.12,0.19l0.11,0.32l0.27,0.2l0.29,0.1l0.39,0.01l0.23,0.08l0.2,0.4l0.09,0.1l0.17,0.35l0.11,0.12l0.31,0.13l0.03,0.17
	l0.15,0.29l0.11,0l0.08,0.33l-0.12,0.28l0,0.29l-0.05,0.35l-0.11,0.79l-0.01,0.24l-0.07,0.17l-0.09,0.06l-0.33-0.01l-0.33,0.16
	l-0.21,0.16l-0.15,0.18l-0.07,0.37l0.05,0.24l-0.34-0.06l-0.15,0.17l-0.42,0.09l-0.13-0.33l0.14-0.02l0.14-0.16l-0.11-0.13
	l-0.09,0.02l-0.31-0.08l0.13,0.23l-0.07,0.12l-0.23,0.02l0,0.23l-0.08,0.22l-0.09,0.1l0.1,0.14l-0.24,0.14l0.01,0.37l-0.19,0.14
	l-0.1,0.32l-0.19,0.29l-0.16,0.15l-0.21,0.45l-0.07,0.36l0.05,0.41l0.07,0.32l-0.08,0.03l-0.02,0.19l0.24,0.24l0.08,0.17l0.01,0.19
	l0.07,0.13l0.17,0.12l0.3,0.05l0.44-0.11l0.3,0.01l0.22-0.06l0.33-0.32l0.16,0.03l0.25-0.02l0.24,0.04l0.19-0.13l0.24-0.31
	l0.14-0.01l0.26,0.31l0.01,0.43l-0.03,0.34l-0.23,0.19l-0.12-0.06l-0.19,0.01l0.17,0.19l0.15-0.02l0.31,0.49l0,0.11l0.24,0.03
	l0.21,0.3l0.04,0.31l-0.14,0.14l0.05,0.21l0.29,0.21l0.32,0.11l0.4,0.42l0.2,0.04l0.24,0.14l0.18,0.01l0.31-0.06l0.48,0.08
	l0.18,0.19l0.06,0.13l-0.02,0.21l0.12,0.05l0.32-0.25l0.06-0.16l0.13,0.01l0.28,0.22l0.09,0.2l0.19,0.22l0.09-0.07l-0.1-0.34
	l0.18-0.06l0.21,0.09l-0.01,0.17l0.08,0.12l0.01,0.32l0.24,0.26l0.26,0.16l0.25,0.22l-0.01,0.12l0.15,0.33l-0.1-0.01l-0.15,0.1
	l-0.13-0.04l-0.08,0.25l0.22,0.08l0.28-0.06l0.22,0.14l0.2,0.07l0.19,0.3l-0.13,0.03l-0.02,0.14l0.15-0.02l0.25,0.06l0.15,0.13
	l0.12,0.17l0.37,0.2l0.3,0.09l0.19,0.09l0.9,0.64l0.17,0.25l0.16,0.1l-0.21,0.59l-0.04,0.26l-0.21,0.26l-0.18,0.06l-0.04-0.16
	l-0.26-0.01L360,34.06l-0.11,0.11l0.05,0.28l-0.03,0.34l0.01,0.33l-0.15-0.11l-0.02,0.28l0.1,0.06l0.09,0.23l-0.01,0.18l-0.4,0.06
	l0.1,0.16l-0.16,0.15l-0.04,0.13l0.07,0.16l-0.01,0.25l0.15,0.06l0.1-0.23l0.24,0.11l0.14,0.29l-0.16,0.04l-0.24-0.17l-0.12,0.06
	l-0.13-0.08l-0.27,0.04l-0.11,0.15l-0.21-0.28l-0.1-0.06l-0.15,0.03l-0.15-0.18l-0.17-0.06l-0.11-0.19l-0.16,0.05l-0.19-0.35
	l0.2-0.09l-0.15-0.3l-0.11,0.01l-0.13,0.13l0.04,0.16l-0.12,0.17l-0.14,0.29l-0.13-0.03l-0.25-0.27l-0.03-0.13l0.05-0.28l-0.05-0.32
	l-0.16-0.15l-0.04-0.18l-0.1-0.11l-0.01-0.19l-0.15-0.4l-0.2-0.04L356.18,34l-0.06-0.2l-0.2-0.16l-0.12,0.13l-0.07-0.17l-0.12-0.1
	l-0.11-0.22l-0.27,0.03l-0.23-0.24l-0.09-0.21l-0.12-0.09l0.05-0.15l-0.1-0.17l-0.22-0.07l-0.01-0.31l-0.11-0.2l-0.22-0.23l-0.14,0
	l-0.12-0.15l-0.15,0.01l-0.18-0.32l0.05-0.07l-0.04-0.27l-0.14-0.08l-0.08-0.14l-0.25-0.03l-0.08-0.2l-0.22-0.02l-0.13,0.26
	l0.13,0.14l0.3,0l0.17,0.09l-0.16,0.28l0.09,0.02l0.23,0.26l0.13,0.3l0.18,0.02l0.11,0.22l0.33,0.14l-0.01,0.15l0.11,0.35l0.13,0.14
	l0.06,0.31l0.14,0.19l0.18,0.41l0.11,0.17l0.1,0.05l0.31,0.03l0.11,0.09l-0.06,0.22l0.07,0.15l0.15,0.08l0.29,0.04l0.27,0.16
	l-0.05,0.17l0.25,0.23l-0.01,0.27l0.08,0.1l0,0.14l0.09,0.19l-0.13,0.1l0.18,0.16l-0.05,0.1l0.23,0.27l0.08,0.19l0.26,0.18
	l0.43,0.01l0.2,0.05l0.24-0.02l0.31,0.06l-0.03,0.21l0.03,0.15l0.15,0.12l0.08-0.01l0.3,0.16l0.31,0.02l0.3,0.08l0.23,0.14
	l0.15,0.02l-0.05,0.16l-0.12,0.07l-0.12-0.03l-0.14,0.08l-0.37,0.07l0,0.33l0.07,0.14l0.2,0.02l0.11,0.29l0.12-0.03l0.37-0.36
	l0.08,0.1l0.1,0.29l-0.13,0.05l-0.3-0.17l-0.03,0.1l0.34,0.24l-0.03,0.14l0.28,0.23l0.02,0.25l0,0.65l-0.02,0.24l-0.16,0.24
	l-0.16,0.09l-0.04,0.09l0.01,0.31l-0.06,0.24l-0.26-0.23l-0.13-0.05l-0.04-0.25l-0.09,0.01l-0.31-0.45l-0.08,0.03l-0.18-0.19
	l-0.17-0.07l-0.12-0.28l-0.01-0.23l-0.17-0.04l-0.05,0.13l-0.04,0.63l-0.16-0.22l-0.27-0.02l-0.11-0.1l-0.09,0.11l-0.02,0.2
	l0.12,0.13l0.16-0.1l0.1,0.19l0.11,0.07l0.09,0.15l0.16,0.06l-0.17,0.13l0.03,0.11l-0.31-0.02l-0.02,0.13l0.23,0.12l0.25-0.07
	l0.13,0.09l-0.07,0.15l0.12,0.1l0.06,0.19l0.29,0.06l-0.14,0.14l-0.2-0.01l-0.14,0.06l-0.33-0.05l-0.08,0.15l-0.13-0.04l-0.38,0.08
	l-0.15-0.02l-0.06-0.08l-0.28,0.13l-0.06,0.08l0.16,0.23l0.26,0.17l0.42-0.01l0.2-0.05l0.13,0.02l0.3-0.03l-0.21,0.28l0.12,0.22
	l-0.06,0.28l-0.17-0.02l-0.07,0.2l0.37,0.12l0.29-0.17l0.19,0.1l0.11,0.3l0.26,0.11l0.18,0.22l-0.1,0.16l0.25,0.22l0.09,0.22
	l-0.17,0.43l-0.16,0.35l-0.18,0.5l-0.13-0.01l-0.01-0.17l-0.28-0.06l-0.1,0.12l-0.37,0.12l-0.25,0.21l-0.22,0.29l-0.15-0.08
	l-0.29-0.51l0.06-0.14l-0.17-0.32l-0.36-0.29l-0.35-0.32l0.02-0.24l-0.19-0.18l-0.1,0.11l-0.16,0.04l-0.17-0.3l-0.19-0.17
	l-0.02-0.08l-0.23-0.14l-0.04-0.1l0.02-0.25l0.07-0.02l0.15-0.2l-0.1-0.34l-0.02-0.21l-0.11-0.24l-0.23-0.24l-0.12-0.05l-0.4-0.04
	l-0.12,0.09l-0.36,0.05l-0.32-0.08l0.27,0.21l-0.11,0.15l-0.18,0l-0.25-0.29l-0.13-0.35l-0.33-0.22l-0.35,0.01l-0.23-0.04l0.05-0.28
	l-0.05-0.04l-0.18,0.14l-0.14,0.02l-0.1,0.11l-0.11-0.03l-0.06,0.14l-0.27-0.07l-0.09,0.14l0.24,0.21l0.27,0.27l0.14,0.02l0.32-0.12
	l0.57,0.1l0.21,0.01l-0.03,0.12l0.21,0.33l0.24,0.18l0.15,0.28l0.2,0.1l0.19-0.02l0.18-0.33l0.07-0.05l0.1-0.31l0.07-0.03l0.18,0.23
	l0.06,0.15l-0.12,0.22l-0.02,0.25l0.07,0.15l0,0.23l0.06,0.1l-0.03,0.24l-0.14,0.3l-0.05,0.25l0.11,0.28l0.15,0.11l0.41,0.05
	l0.31,0.13l0.11,0.22l-0.1,0.12l0.04,0.13l0.21-0.06l0.14,0.09l0.11,0.17l0.19,0.09l0.04,0.17l0.08,0.09l0.21,0.07l0.1,0.14
	l-0.01,0.28l-0.11-0.05l-0.07,0.18l0.22,0.25l-0.06,0.27l-0.12,0.06l0,0.16l0.1,0.05l0.12-0.06l0.23,0l0.02-0.13l0.17-0.19l0.4,0.17
	l0.2,0.04l0.05-0.05l0.05-0.36l0.38,0.04l0.03,0.43l0.32,0.17l0.08-0.03l0.04-0.22l-0.14-0.03l0-0.59l0.08-0.32l0.11,0.13l0.19,0
	l0.07-0.19l0.24,0.04l0.11,0.06l0.38,0.33l0.16,0.1l0.49,0.19l0.49,0.15l0.58,0.28l0.1-0.06l0.3-0.05l0.22-0.18l0.19-0.02l0.23,0.07
	l0.13,0.12l0.05,0.26l0.14,0.98l0.04,0.46l0.13,0.8l0.25,1.08l0.3,0.96l0.14,0.73l0.04,0.51l-5.45-0.46l-1.86-0.16l-0.93-0.07
	l-0.41-0.04l-1.99-0.17l-0.84-0.06l-1.33-0.13l-0.01,0.12l-2.18-0.2l-0.71-0.05l-0.2-0.07l-0.44,0l-6.65-0.58l-1.54-0.12l-3.15-0.25
	l-1.37-0.12l-2.76-0.2l-0.48-0.02l-1.17-0.1l-0.7-0.07l-1.63-0.13l-2.14-0.19l-3.39-0.27l-2.4-0.2l-0.79-0.06l-1.92-0.18l-2.68-0.25
	l-0.21-0.01l-2.66-0.23l-1.26-0.13l-0.85-0.07l-1.76-0.25l-2.24-0.31l-0.97-0.15l-0.31-0.03l-0.54-0.01l-0.37-0.04l-0.41-0.01
	l-1.32-0.17l-0.71-0.07l-0.67-0.11l-0.3-0.03l-1.07-0.15l-0.07-0.02l-0.89-0.09l-0.7-0.09l-0.82-0.07l-0.82-0.1l-0.41-0.09
	l-0.16,0.01l-0.38-0.05l-0.97-0.18l-0.93-0.1l0.4-0.33l-1.1-0.1l-2.26-0.25l-0.17,0.32l-2.62-0.23l-0.75-0.08l-1.06-0.09l-2.07-0.16
	l-0.25-0.04l-1.5-0.1l-0.86-0.07l-2.55-0.21l-1.71-0.15l-2.84-0.24l-0.18-0.08l-1.21-0.09l-2.22-0.19l-0.8-0.08l-0.64-0.1l0.34-0.21
	l0.02-0.09l0.29-0.02l0.14-0.12l0.26-0.08l0.21,0l0.19-0.13l0.26-0.06l0.13-0.12l0.25-0.04l0.22,0l0.13,0.07l0.34,0.05l0.38-0.01
	l0.35-0.11l0.13-0.14l0.33-0.08l0.22-0.1l0.45-0.12l0.24-0.02l0.31-0.08l0.55-0.11l0.32-0.1l0.41,0.03l0.31-0.02l0.11-0.11
	l-0.04-0.21l0.06-0.17l-0.04-0.12l0.18-0.08l0.29-0.36l-0.02-0.23l0.19-0.12l0.14-0.03l0.05-0.21l0.3,0.07l0.26-0.04l0.05,0.09
	l0.19,0.05l0.1-0.12l0.24-0.03l0.11,0.04l0.24-0.11l0.17,0l0.2-0.09l0.18,0l0.02-0.08l0.34-0.12l0.13-0.18l-0.08-0.1l0.23-0.25
	l0.04-0.36l-0.11-0.26l0.02-0.13l0.2-0.15l0.11,0.03l0.19-0.13l0.11-0.16l0.27-0.03l0.22,0.01l0.31-0.27l0.13,0.04l0.09-0.27
	l0.19,0.03l0.07-0.24l-0.04-0.24l0.07-0.18l0.06-0.54l0.48-0.2l0.09,0.02l0.25-0.13l0.08-0.1l0.23-0.02l0.12-0.12l0.42-0.27
	l0.17-0.07l0.37-0.21l0.38-0.1l0.28-0.2l0.63-0.21l0.22-0.03l0.6-0.15l0.08,0.01l0.32-0.08l0.19-0.18l0.15-0.04l0.12-0.17l1.5-1.11
	l1.01-0.72l0.81-0.61l0.16-0.14L290.52,32.24z"/>
<g>
	<path class="st1" d="M325.23,40.74l1.09-8l0.9,0.41l-0.59,3.98l-0.45,3.01l0.05,0.02l1.96-2.33l2.59-3.08l0.87,0.39l-5.28,6.11
		L325.23,40.74z"/>
	<path class="st1" d="M333.7,44.56l0.31-2.28l-2.48-1.12l-1.5,1.74l-0.88-0.4l5.35-6.08l1.12,0.51l-1.02,8.03L333.7,44.56z
		 M334.69,37.6l-0.09-0.04l-2.53,2.96l2.07,0.94L334.69,37.6z"/>
</g>
<path class="st11" d="M588.7,72.57l0.03-0.21l0.19,0.16l0.02,0.1l-0.23,0.18L588.7,72.57z M592.56,71.16l0.29-0.34l2.38,0l1.65-0.01
	l-0.68,0.87l-0.65,0.99l-0.31,0.28l-0.09,0.02l-0.11-0.26l0.1-0.08l0.22,0.17l0.19-0.17l-0.01-0.13l-0.3-0.08l-0.04-0.09l-0.27,0.01
	l-0.16,0.22l-0.02,0.12l-0.14-0.01l-0.15,0.06l-0.43,0.37l-0.28,0.3l-0.18,0.23l-0.32,0.51l-0.13,0.14l-0.22,0.51l-0.1,0.08
	l-0.07,0.29l-0.13,0.39l-0.16,0.23l-0.04,0.11l-0.03,0.42l0.12,0.09l-0.28,0.37l-0.56,0.69l-0.15-0.06l-0.09,0.18l0.06,0.14
	l0.24,0.03l0,0.22l-0.19,0.18l-0.25,0.33l-0.28,0.4l-0.12,0.14l-0.07,0.2l-0.14,0.2l-0.16,0.17l-0.25,0.2l-0.05-0.07l-0.16,0.06
	l-0.01,0.55l-0.14,0.26l-0.05,0.18l-0.14,0.08l0,0.25l-0.15,0.11l-0.02,0.11l-0.28,0.19l-0.25,0.28l-0.23,0.21l-0.2,0.05l0.06-0.13
	l-0.16-0.12l-0.19,0.08l-0.23,0.03l0.02,0.14l0.13,0.05l0.07,0.09l-0.02,0.12l-0.2,0.06l-0.15-0.07l-0.05-0.11l0.13-0.18l0.04-0.18
	l-0.04-0.46l-0.07-0.13l-0.1-0.29l-0.13-0.24l0.07-0.36l-0.05-0.04l-0.08-0.29l0.04-0.15l0.13-0.12l-0.06-0.29l0.05-0.22l0.09-0.2
	l0.14-0.16l0.19-0.33l0.01-0.11l0.12-0.03l0.09-0.18l-0.13-0.08l-0.02-0.15l0.07-0.29l0.14-0.24l0.12-0.14l-0.05-0.09l0.09-0.32
	l0.12-0.28l0.12-0.15l0.1-0.2l-0.07-0.18l0.12-0.2l0.16-0.07l-0.07-0.15l0.2-0.33l0.08-0.03l0.02,0.24l0.16,0.02l0.01-0.33
	l-0.07-0.08l0.08-0.2l0.22-0.18l0.12,0.06l0.12-0.06l-0.04-0.21l0.09-0.17l0.12-0.13l0.15-0.1l0.13,0.03l0.16-0.1l-0.05-0.09
	l-0.27,0.03l-0.03-0.09l0.2-0.17l0.03,0.05l0.17-0.04l0.04-0.19l-0.08-0.09l-0.04-0.14l-0.08,0.03l-0.03-0.14l0.26-0.17l0.24,0.03
	l0.25,0.27l0.17-0.01l0.11-0.06l0.03-0.36l0.21-0.36l0.12,0.19l0.2-0.17l-0.17-0.13l-0.03-0.12l0.15-0.08l0.03-0.17l-0.1,0
	l-0.06-0.2l-0.25-0.03l-0.17,0.05l0.04-0.12l-0.09-0.09l0.17-0.11l0.12-0.16l0.08-0.04l0.07,0.13l0.11,0l0.17-0.15l0.13,0.09
	l0.24,0.04l0.08-0.12l0.01-0.13L592.56,71.16z M588.39,70.88l0.55,0.06l-0.25,0.07l-0.05,0.08l0.03,0.15l-0.09,0.03l-0.07-0.09
	l0.09-0.13l-0.03-0.1l-0.14,0L588.39,70.88z M526.04,69.65l0.11,0.05l0.12,0.2l-0.03,0.24l-0.11,0.03l-0.27,0.17l-0.16,0l-0.05,0.08
	l0.02,0.21l0.07,0.1l0.12-0.01l0.04,0.13l0.19,0.03l0.13,0.14l-0.07,0.09l0.07,0.19l0.01,0.29l-0.1,0.19l0.16,0.4l0.17,0.13
	l0.05,0.15l0.16,0.04l0.17,0.19l0.05,0.13l-0.02,0.25l0.15,0.04l0.04,0.07l0.15,0.05l0.18-0.07l0.21,0.07l0.08,0.11l0.14,0
	l0.19,0.31l-0.05,0.15l0.05,0.06l0.17-0.01l0.06,0.16l0.28,0.24l0.07,0.16l1.23,0.07l0.08-0.02l0.11-0.15l0.25-0.05l0.13-0.06
	l0.09-0.26l0.24,0.05l0.2-0.09l0.02-0.07l0.26-0.08l0.09,0.05l0.12-0.02l0.06-0.09l0.18-0.38l0.14-0.12l0.13,0.04l0.16-0.24
	l0.38,0.55l0.9,0.95l0.23-0.08l0.42-0.22l0.59-0.14l0.31-0.05l0.49-0.02l0.62-0.09l-0.02,0.12l0.14,0.02l0.2-0.03l0.31-0.1l0.21-0.1
	l0.36-0.27l0.21-0.09l-0.3-0.53l0.25-0.34l-0.01-0.11l0.07-0.12l0.13,0.1l0.1,0l0.29,0.3l0.05,0.12l0.17,0.03l0.12,0.31l0.11-0.02
	l0.6-0.19l0.58-0.27l0.24-0.14l0.35-0.15l0.16-0.12l0.38-0.18l0.16,0.01l0.28-0.07l0.16,0.34l-0.06,0.16l0.01,0.13l0.18,0.18
	l0.36-0.16l0.2-0.14l0.7-0.32l-0.03-0.07l0.37-0.08l0.36-0.15l0.21-0.31l-0.09-0.05l-0.2,0.1l-0.21-0.14l0.2-0.11l-0.14-0.26
	l0.77-0.33l0.21-0.13l0.23-0.25l-0.18-0.15l-0.28-0.14L543.82,70l-0.13-0.48l0.1-0.05l0.41-0.4l-0.1-0.12l0.08-0.23l0.08,0l0.1-0.14
	l0.22-0.16l-0.06-0.15l0.14-0.22l0.14-0.07l0.05-0.11l0.19-0.16l0.04-0.11l0.27-0.35l0.15-0.14l0.07,0.07l0.46-0.44l0.06,0.02
	l0.26-0.29l0.29-0.17l0.53-0.41l0.1-0.19l0.18-0.24l0.27-0.46l0.08-0.21l0.31-0.29l-0.11-0.11l-0.03-0.27l0.17-0.09l0.17-0.3
	l-0.03-0.24l0.09-0.1l0.17-0.05l0.09-0.15l0.14-0.07l0.38-0.35l0.12-0.01l0.06-0.1l0.1,0.03l0.39-0.29l-0.06-0.23l-0.07-0.03
	l-0.06-0.18l0.17-0.23l0.26-0.13l0.12-0.27l0.21,0.05l0.21-0.11l-0.05-0.13l0.07-0.18l0.25-0.36l0.2-0.19l0.04-0.25l-0.01-0.18
	l-0.07-0.16l0.07-0.25l0.13-0.08l0.04-0.12l0.2-0.04l-0.09-0.19l0.08-0.12l-0.01-0.15l0.1-0.27l0.17-0.27l0.77,0.47l0.16,0.06
	l0.18,0.15l0.14,0.24l0.36,1.07l1.06,0.52l0.58,0.27l0.13-0.02l0.22-0.1l-0.02-0.1l0.17-0.07l0.18-0.21l0.11,0.03l0.05-0.21
	l0.16-0.07l0.06-0.11l0.12-0.09l0.02-0.2l0.08-0.22l0.53-0.73l0.07-0.24l0.11-0.25l0.17-0.22l0.09-0.2l0.12-0.08l0.14,0.07
	l0.14-0.03l0.13-0.35l-0.06-0.22l0.08-0.23l0.2-0.35l0.17-0.15l0.09-0.23l-0.02-0.11l0.1-0.07l0.2,0.02l0.12-0.34l0.15-0.08
	l0.09-0.27l0.07-0.05l1.17,1.31l0.27-0.4l0.33-0.45l0.17-0.32l0.25-0.36l0.1-0.09l0.22-0.09l0.11-0.2l0.14-0.14l0.18-0.04l0,0.36
	l0.17-0.13l0.07,0l0.11-0.11l0.08,0l0.25-0.27l0.16-0.26l0.08,0.03l0.11-0.18l0.1-0.01l0.17,0.26l0.1-0.09l0.16-0.23l0.25-0.26
	l0.1-0.07l-0.2-0.21l0.37-0.35l0.2-0.12l0.08-0.14l0.24-0.21l0.2-0.13l0.2-0.03l0.24-0.23l0.04-0.12l0.11-0.14l0.15-0.06l0.12-0.11
	l-0.14-0.15l-0.09-0.14l-0.01-0.13l-0.08-0.03l0.39-0.41l0.03-0.13l-0.03-0.16l-0.1-0.08l0.31-0.31l0.08-0.13l0.32-0.3l0.18-0.27
	l0.08-0.19l-0.27-0.11l0.14-0.15l0.15-0.22l-0.13-0.22l0-0.12l0.15-0.19l0.01-0.18l0.05-0.25l-0.01-0.09l0.56,0.57l0.24,0.22
	l0.99,1.07l0.16,0.15l0.3,0.33l0.72,0.73l1.94,2.01l0.08-0.2l0.13-0.22l0.1-0.11l0.17-0.47l0.27-0.34l0.06-0.16l0.19-0.36l0.08-0.23
	l0.15-0.22l0.18-0.1l0.23,0.06l0.23-0.05l0.24,0.21l0.35,0.15l0.29,0.04l0.23-0.03l0.04,0.06l-0.02,0.21l0.16,0.28l0.34,0.23
	l0.22,0.09l0.25,0.29l-0.01,0.13l-0.16,0.12l-0.03,0.18l-0.13,0.11l-0.2,0.03l-0.14,0.14l-0.15,0.32l0,0.25l0.08,0.14l0.3,0.16
	l0.08,0.13l0.12,0.34l0.1,0.06l0.3,0.11l0.49,0.13l0.36,0.02l0.25,0.17l0.22,0.1l0.17,0.19l0.2,0.08l0.09,0.08l-0.03,0.13
	l-0.11,0.16l0.09,0.28l0.22,0.18l0.24,0.09l0.34,0.02l0.19,0.07l0.16,0.35l0.07,0.08l0.14,0.31l0.09,0.1l0.27,0.12l0.02,0.15
	l0.13,0.26l0.09,0l0.06,0.29l-0.1,0.24l-0.01,0.24l-0.05,0.3l-0.11,0.67l-0.01,0.21l-0.07,0.15l-0.08,0.05l-0.28-0.02l-0.29,0.13
	l-0.18,0.13l-0.13,0.15l-0.07,0.31l0.04,0.21l-0.29-0.06l-0.13,0.14l-0.36,0.07l-0.11-0.28l0.12-0.02l0.12-0.13l-0.09-0.11
	l-0.08,0.02L577,60.14l0.1,0.2l-0.06,0.1l-0.19,0.01l-0.01,0.19l-0.07,0.19l-0.08,0.09l0.09,0.12l-0.21,0.12l0,0.32l-0.17,0.11
	l-0.1,0.27l-0.17,0.24l-0.14,0.12l-0.19,0.38l-0.07,0.31l0.04,0.35l0.06,0.28l-0.07,0.02l-0.02,0.16l0.2,0.21l0.07,0.15l0,0.17
	l0.06,0.11l0.15,0.11l0.25,0.05l0.38-0.08l0.25,0.02l0.19-0.04l0.29-0.26l0.14,0.03l0.21-0.02l0.2,0.04l0.16-0.11l0.21-0.26l0.12,0
	l0.21,0.27l0,0.37l-0.03,0.29l-0.2,0.16l-0.1-0.05l-0.16,0.01l0.14,0.16l0.13-0.01l0.26,0.43l0,0.09l0.2,0.03l0.17,0.26l0.03,0.27
	l-0.12,0.12l0.04,0.18l0.24,0.18l0.27,0.1l0.33,0.37l0.17,0.03l0.2,0.12l0.15,0.01l0.26-0.04l0.41,0.08l0.15,0.17l0.05,0.11
	l-0.02,0.18l0.1,0.04l0.28-0.21l0.05-0.14l0.11,0.01l0.24,0.19l0.07,0.17l0.16,0.19l0.08-0.06l-0.08-0.29l0.15-0.05l0.18,0.08
	l-0.02,0.15l0.06,0.1l0.01,0.27l0.2,0.23l0.22,0.14l0.21,0.19l-0.01,0.1l0.12,0.28l-0.08-0.01l-0.13,0.08l-0.11-0.03l-0.07,0.21
	l0.19,0.07l0.24-0.05l0.18,0.12l0.17,0.07l0.15,0.26L584,69.86l-0.02,0.12l0.13-0.01l0.21,0.06l0.13,0.11l0.1,0.15l0.31,0.18
	l0.25,0.08l0.16,0.08l0.76,0.57l0.14,0.22l0.13,0.09l-0.19,0.5l-0.04,0.22l-0.18,0.21l-0.16,0.05l-0.03-0.14l-0.23-0.02l-0.04,0.28
	l-0.1,0.09l0.04,0.24l-0.04,0.29l0,0.29l-0.13-0.1l-0.03,0.24l0.08,0.05l0.07,0.2l-0.01,0.15L585,74.1l0.08,0.14l-0.14,0.13
	l-0.04,0.11l0.06,0.14l-0.01,0.21l0.12,0.05l0.09-0.19l0.21,0.1l0.11,0.25l-0.14,0.03l-0.2-0.15l-0.1,0.05l-0.11-0.07l-0.24,0.03
	l-0.1,0.12l-0.17-0.24l-0.09-0.05l-0.13,0.02l-0.12-0.16l-0.14-0.05l-0.09-0.16l-0.13,0.04l-0.16-0.31l0.17-0.07l-0.13-0.26
	l-0.09,0.01l-0.11,0.11l0.03,0.14l-0.11,0.14l-0.13,0.25l-0.11-0.03l-0.21-0.23l-0.02-0.11l0.05-0.24l-0.04-0.28l-0.14-0.13
	l-0.03-0.15l-0.08-0.1l0-0.16l-0.12-0.34l-0.17-0.03l-0.16-0.16l-0.05-0.17l-0.17-0.14l-0.11,0.11l-0.06-0.14l-0.1-0.09l-0.09-0.19
	l-0.23,0.02l-0.19-0.21l-0.07-0.19l-0.1-0.08l0.05-0.13l-0.08-0.15l-0.19-0.07l0-0.27l-0.09-0.17l-0.18-0.2l-0.12,0l-0.1-0.13
	l-0.13,0.01L580,70l0.04-0.06l-0.03-0.23l-0.12-0.07l-0.07-0.12l-0.22-0.03l-0.07-0.18l-0.19-0.02l-0.12,0.22l0.1,0.12l0.25,0.01
	l0.15,0.08l-0.14,0.23l0.08,0.02l0.2,0.23l0.1,0.26l0.16,0.02l0.09,0.19l0.28,0.13l-0.01,0.13l0.08,0.31l0.11,0.12l0.05,0.27
	l0.12,0.16l0.14,0.35l0.09,0.15l0.08,0.04l0.27,0.04l0.09,0.08l-0.05,0.19l0.05,0.13l0.13,0.07l0.25,0.04l0.23,0.14l-0.04,0.14
	l0.21,0.2l-0.01,0.23l0.07,0.09l-0.01,0.12l0.07,0.16l-0.12,0.09l0.15,0.14l-0.04,0.09l0.19,0.23l0.06,0.17l0.21,0.16l0.37,0.02
	l0.17,0.05l0.21-0.01l0.27,0.06l-0.03,0.18l0.02,0.13l0.13,0.11l0.07-0.01l0.25,0.14l0.27,0.02l0.26,0.08l0.2,0.12l0.13,0.02
	l-0.04,0.13l-0.1,0.06l-0.1-0.03l-0.12,0.07l-0.32,0.06l-0.01,0.28l0.06,0.12l0.17,0.03l0.09,0.25l0.1-0.02l0.32-0.3l0.07,0.09
	l0.08,0.25l-0.11,0.04l-0.25-0.15l-0.03,0.08l0.29,0.21l-0.03,0.12l0.24,0.2l0.02,0.21l-0.01,0.56l-0.02,0.21l-0.14,0.21l-0.14,0.07
	l-0.04,0.07l0,0.27l-0.05,0.21l-0.22-0.21l-0.11-0.04l-0.03-0.21l-0.08,0.01l-0.25-0.39l-0.07,0.02l-0.15-0.16l-0.15-0.07l-0.1-0.24
	l0-0.2l-0.14-0.03l-0.05,0.11l-0.04,0.54l-0.13-0.19l-0.23-0.02l-0.09-0.09l-0.08,0.09l-0.02,0.17l0.1,0.11l0.14-0.08l0.08,0.17
	l0.09,0.06l0.08,0.13l0.14,0.05l-0.15,0.11l0.03,0.09l-0.27-0.02l-0.02,0.11l0.19,0.1l0.21-0.05l0.11,0.08l-0.06,0.12l0.1,0.09
	l0.04,0.17l0.25,0.06l-0.12,0.12l-0.17-0.02l-0.12,0.05l-0.28-0.05l-0.07,0.13l-0.11-0.04l-0.33,0.06l-0.13-0.02l-0.05-0.07
	l-0.24,0.1l-0.05,0.07l0.14,0.2l0.22,0.15l0.36,0l0.17-0.04l0.11,0.02l0.25-0.02l-0.19,0.24l0.1,0.19l-0.06,0.24l-0.15-0.02
	l-0.07,0.17l0.31,0.11l0.25-0.14l0.16,0.09l0.09,0.26l0.22,0.1l0.15,0.19l-0.09,0.13l0.21,0.19l0.07,0.19l-0.16,0.37l-0.14,0.3
	l-0.17,0.43l-0.11-0.02l0-0.15l-0.24-0.06l-0.09,0.1l-0.32,0.09l-0.22,0.17l-0.2,0.24l-0.13-0.07l-0.23-0.45l0.05-0.12l-0.14-0.28
	l-0.3-0.26l-0.29-0.28l0.02-0.2l-0.16-0.16l-0.08,0.09l-0.14,0.03l-0.14-0.26l-0.16-0.15l-0.02-0.07l-0.19-0.13l-0.03-0.09
	l0.02-0.21l0.06-0.02l0.13-0.17l-0.07-0.29l-0.01-0.18l-0.09-0.2l-0.19-0.21l-0.1-0.04l-0.35-0.04l-0.11,0.07l-0.31,0.03l-0.28-0.07
	l0.23,0.19l-0.1,0.13l-0.15,0l-0.21-0.26l-0.1-0.3l-0.28-0.2l-0.3,0.01l-0.2-0.04l0.05-0.24l-0.04-0.03l-0.16,0.11l-0.12,0.02
	l-0.09,0.1l-0.1-0.03l-0.05,0.12l-0.23-0.07l-0.08,0.12l0.2,0.18l0.22,0.24l0.12,0.02l0.28-0.09l0.49,0.1l0.18,0.01l-0.03,0.1
	l0.18,0.29l0.2,0.16l0.13,0.25l0.17,0.09l0.16-0.02l0.16-0.28l0.06-0.04l0.09-0.26l0.06-0.02l0.15,0.2l0.05,0.13l-0.1,0.19
	l-0.02,0.22l0.06,0.13l-0.01,0.19l0.05,0.09l-0.03,0.2l-0.13,0.26l-0.05,0.21l0.09,0.24l0.13,0.1l0.35,0.05l0.26,0.12l0.09,0.19
	l-0.09,0.1l0.03,0.11l0.18-0.05l0.12,0.08l0.09,0.15l0.16,0.08l0.03,0.14l0.07,0.07l0.18,0.06l0.09,0.12l-0.01,0.24l-0.1-0.05
	l-0.06,0.15l0.18,0.22l-0.06,0.23l-0.11,0.05l0,0.14l0.08,0.05l0.11-0.05l0.2,0l0.02-0.11l0.15-0.16l0.34,0.15l0.17,0.04l0.04-0.04
	l0.05-0.31l0.33,0.04l0.02,0.37l0.27,0.15l0.07-0.03l0.04-0.18l-0.12-0.03l0.01-0.5l0.08-0.27l0.09,0.11l0.16,0l0.06-0.16l0.2,0.04
	l0.09,0.05l0.31,0.29l0.13,0.09l0.41,0.17l0.42,0.13l0.49,0.25l0.09-0.05l0.26-0.04l0.19-0.15l0.16-0.01l0.19,0.06l0.11,0.1
	l0.04,0.22l0.1,0.84l0.03,0.4l0.09,0.69l0.19,0.93l0.24,0.83l0.11,0.63l0.03,0.44l-4.65-0.5l-1.59-0.18l-0.8-0.08l-0.35-0.04
	l-1.7-0.19l-0.72-0.07l-1.13-0.14l-0.01,0.11l-1.86-0.21l-0.6-0.06l-0.17-0.06l-0.38-0.01l-5.67-0.63l-1.31-0.13l-2.69-0.28
	l-1.17-0.13l-2.35-0.23l-0.41-0.03l-0.99-0.11l-0.6-0.07l-1.39-0.15l-1.83-0.21l-2.9-0.3l-2.04-0.22l-0.68-0.07l-1.64-0.19
	l-2.29-0.26L546.15,85l-2.27-0.25l-1.08-0.13l-0.73-0.08l-1.5-0.25l-1.91-0.31l-0.83-0.14l-0.26-0.03l-0.46-0.02l-0.31-0.04
	l-0.35-0.02l-1.13-0.18l-0.6-0.07l-0.57-0.11l-0.25-0.03l-0.91-0.15l-0.06-0.02l-0.76-0.1l-0.6-0.09l-0.7-0.07l-0.7-0.1l-0.35-0.09
	l-0.14,0l-0.32-0.05l-0.83-0.18l-0.8-0.1l0.35-0.28l-0.94-0.11l-1.93-0.26l-0.15,0.27l-2.23-0.25l-0.64-0.08l-0.9-0.1l-1.77-0.18
	l-0.21-0.04l-1.28-0.12l-0.74-0.07l-2.17-0.23l-1.46-0.16l-2.43-0.26l-0.15-0.07l-1.03-0.1l-1.9-0.21l-0.68-0.08l-0.55-0.09
	l0.29-0.18l0.02-0.08l0.24-0.01l0.12-0.1l0.22-0.06l0.18,0.01l0.17-0.11l0.23-0.05l0.11-0.1l0.22-0.03l0.19,0.01l0.11,0.06
	l0.29,0.05l0.33,0l0.3-0.09l0.11-0.11l0.28-0.06l0.19-0.08l0.39-0.09l0.21-0.01l0.26-0.07l0.47-0.09l0.28-0.08l0.35,0.03l0.26-0.01
	l0.1-0.09l-0.03-0.18l0.05-0.15l-0.03-0.1l0.15-0.07l0.25-0.3l-0.01-0.2l0.17-0.1l0.12-0.02l0.05-0.18l0.26,0.07l0.22-0.03
	l0.04,0.08l0.16,0.05l0.09-0.1l0.21-0.02l0.09,0.04l0.21-0.09l0.15,0l0.17-0.07l0.15,0.01l0.02-0.06l0.29-0.09l0.12-0.16l-0.07-0.09
	l0.2-0.21l0.04-0.31l-0.09-0.23l0.02-0.11l0.18-0.13l0.09,0.03l0.16-0.11l0.1-0.13l0.23-0.02l0.19,0.01l0.27-0.22l0.11,0.04
	l0.08-0.23l0.17,0.03l0.07-0.2l-0.03-0.2l0.06-0.15l0.06-0.46l0.41-0.16l0.08,0.02l0.22-0.11l0.07-0.09l0.19-0.01l0.1-0.1l0.37-0.22
	l0.15-0.06l0.32-0.18l0.33-0.08l0.24-0.16l0.54-0.16l0.19-0.02l0.52-0.12l0.07,0.01l0.28-0.07l0.17-0.15l0.13-0.03l0.11-0.14
	l1.3-0.92l0.88-0.6l0.71-0.5l0.14-0.11L526.04,69.65z"/>
<g>
	<path class="st1" d="M555.56,77.62l1.09-6.82l0.76,0.37l-0.59,3.39l-0.44,2.57l0.04,0.02l1.72-1.95l2.28-2.58l0.74,0.35l-4.64,5.12
		L555.56,77.62z"/>
	<path class="st1" d="M562.73,81.06l0.31-1.95l-2.1-1.01l-1.32,1.46l-0.74-0.36l4.7-5.09l0.95,0.46l-1.04,6.85L562.73,81.06z
		 M563.72,75.13l-0.08-0.04l-2.22,2.48l1.75,0.84L563.72,75.13z"/>
</g>
<path class="st12" d="M483.51,61.98l0.15-0.18l0.1,0.26l-0.03,0.11l-0.33,0.05L483.51,61.98z M488.1,62.82l0.48-0.16l2.33,1.37
	l1.62,0.94l-1.17,0.46l-1.21,0.6l-0.47,0.09l-0.1-0.03l0.04-0.32l0.14-0.02l0.12,0.29l0.28-0.06l0.07-0.13l-0.25-0.25L490,65.5
	l-0.27-0.15l-0.28,0.12l-0.09,0.1l-0.14-0.09l-0.18-0.03l-0.63,0.12l-0.45,0.14l-0.31,0.12l-0.6,0.31l-0.21,0.06l-0.51,0.37
	l-0.14,0.02l-0.23,0.24l-0.36,0.31l-0.29,0.13l-0.1,0.09l-0.27,0.4l0.07,0.16l-0.49,0.2l-0.95,0.35l-0.11-0.14l-0.19,0.12
	l-0.03,0.18l0.22,0.17l-0.13,0.21l-0.29,0.07l-0.44,0.18l-0.5,0.23l-0.2,0.07l-0.19,0.16l-0.25,0.11l-0.26,0.08l-0.36,0.05l0-0.1
	l-0.19-0.03l-0.33,0.54l-0.28,0.17l-0.15,0.15l-0.18-0.01l-0.15,0.24l-0.22,0.02l-0.09,0.09l-0.38,0.03l-0.41,0.12l-0.35,0.07
	l-0.23-0.06l0.14-0.1l-0.09-0.21l-0.23-0.02l-0.24-0.1l-0.06,0.15l0.1,0.13l0.02,0.13l-0.09,0.1l-0.23-0.05l-0.1-0.16l0.02-0.14
	l0.23-0.1l0.14-0.16l0.22-0.48l0-0.17l0.07-0.34l0.02-0.31l0.28-0.31l-0.03-0.07l0.08-0.33l0.12-0.12l0.2-0.05l0.11-0.32l0.18-0.19
	l0.21-0.14l0.23-0.07l0.38-0.22l0.08-0.1l0.14,0.04l0.2-0.12l-0.08-0.15l0.07-0.15l0.23-0.25l0.28-0.15l0.2-0.07l0-0.11l0.27-0.26
	l0.28-0.2l0.2-0.08l0.22-0.14l0.03-0.22l0.23-0.12l0.2,0.03l0.02-0.18l0.39-0.21l0.1,0.02l-0.12,0.24l0.15,0.12l0.2-0.32l-0.03-0.12
	l0.19-0.15l0.31-0.05l0.09,0.13l0.15,0.01l0.08-0.23l0.19-0.12l0.19-0.06l0.2-0.01l0.11,0.11l0.22-0.01l0-0.12l-0.29-0.12l0.03-0.11
	l0.3-0.05l0,0.07l0.19,0.06l0.15-0.16l-0.03-0.14l0.04-0.16l-0.1-0.02l0.05-0.16l0.36-0.02l0.22,0.16l0.09,0.41l0.17,0.09l0.14,0
	l0.24-0.34l0.42-0.23l0.01,0.26l0.29-0.05l-0.09-0.23l0.04-0.13l0.19,0l0.13-0.15l-0.1-0.05l0.05-0.24l-0.23-0.17l-0.2-0.06
	l0.1-0.09l-0.03-0.13l0.22-0.01l0.21-0.09l0.1,0l0,0.17l0.11,0.06l0.25-0.04l0.07,0.16l0.21,0.17l0.15-0.07l0.09-0.12L488.1,62.82z
	 M484.18,60.14l0.5,0.38l-0.28-0.08l-0.09,0.05l-0.05,0.16l-0.11-0.03l-0.01-0.13l0.16-0.08l0.03-0.11l-0.14-0.08L484.18,60.14z
	 M423.85,23.04l0.08,0.11l0.01,0.27l-0.17,0.22l-0.12-0.03l-0.36,0.02l-0.16-0.09l-0.09,0.05l-0.1,0.22l0.01,0.13l0.13,0.06
	l-0.03,0.16l0.17,0.14l0.05,0.21l-0.12,0.05l-0.04,0.22l-0.16,0.28l-0.2,0.13l-0.08,0.49l0.09,0.22l-0.04,0.17l0.13,0.13l0.05,0.28
	l-0.02,0.15l-0.16,0.23l0.13,0.12l0,0.09l0.12,0.13l0.21,0.04l0.16,0.18l0.01,0.15l0.13,0.08l0.01,0.41l-0.14,0.11l0.01,0.09
	l0.17,0.08l-0.04,0.19l0.14,0.39l-0.02,0.2l1.17,0.77l0.08,0.03l0.2-0.08l0.28,0.09l0.17,0.02l0.23-0.2l0.21,0.18l0.25,0.03
	l0.07-0.06l0.3,0.07l0.06,0.1l0.13,0.06l0.11-0.05l0.4-0.27l0.2-0.03l0.1,0.11l0.29-0.14l0.06,0.76l0.33,1.45l0.27,0.05l0.54,0.03
	l0.66,0.2l0.33,0.13l0.5,0.26l0.66,0.27l-0.09,0.11l0.12,0.1l0.21,0.09l0.36,0.08l0.26,0.03l0.51-0.06l0.26,0.04l0.01-0.69
	l0.45-0.19l0.05-0.11l0.14-0.08l0.07,0.17l0.1,0.06l0.11,0.46l-0.02,0.14l0.14,0.13l-0.06,0.37l0.12,0.04l0.7,0.16l0.72,0.07l0.32,0
	l0.43,0.06l0.23-0.03l0.48,0.04l0.15,0.1l0.31,0.09l-0.04,0.42l-0.15,0.12l-0.07,0.13l0.08,0.28l0.45,0.05l0.27-0.02l0.87,0.08
	l0.01-0.08l0.41,0.14l0.44,0.06l0.39-0.18l-0.06-0.1l-0.25-0.02l-0.12-0.25l0.26,0.01l0.01-0.33l0.94,0.12l0.28-0.01l0.37-0.11
	l-0.09-0.25l-0.19-0.3l-0.01-0.22l0.15-0.54l0.13,0.01l0.64-0.16l-0.03-0.18l0.21-0.18l0.08,0.04l0.18-0.08l0.31-0.03l0.02-0.18
	l0.26-0.14l0.17,0.01l0.11-0.08l0.28-0.05l0.11-0.09l0.46-0.19l0.23-0.05l0.03,0.1l0.7-0.16l0.05,0.06l0.43-0.14l0.39,0l0.76-0.1
	l0.21-0.13l0.32-0.13l0.52-0.29l0.2-0.16l0.48-0.1l-0.04-0.16l0.12-0.29l0.22,0.01l0.33-0.19l0.11-0.25l0.14-0.05l0.19,0.05
	l0.17-0.09l0.17,0.01l0.58-0.12l0.12,0.06l0.11-0.06l0.08,0.09l0.55-0.07l0.08-0.26l-0.05-0.08l0.04-0.21l0.3-0.13l0.33,0.02
	l0.27-0.19l0.17,0.17l0.27,0.01l0.03-0.16l0.17-0.13l0.45-0.21l0.3-0.07l0.19-0.22l0.1-0.18l0.03-0.2l0.22-0.2l0.17,0l0.11-0.1
	l0.22,0.07l0.02-0.24l0.15-0.07l0.08-0.15l0.25-0.21l0.32-0.16l0.48,0.9l0.13,0.15l0.09,0.25l0,0.32l-0.27,1.26l0.74,1.12l0.42,0.6
	l0.14,0.05l0.28,0.03l0.04-0.11l0.21,0.03l0.3-0.11l0.09,0.09l0.17-0.17l0.19,0.02l0.12-0.07l0.18-0.02l0.13-0.18l0.2-0.17
	l0.94-0.41l0.21-0.19l0.25-0.18l0.29-0.12l0.2-0.14l0.17-0.01l0.09,0.15l0.16,0.05l0.33-0.27l0.07-0.25l0.21-0.18l0.39-0.23
	l0.26-0.05l0.22-0.18l0.04-0.12l0.14-0.02l0.18,0.14l0.31-0.26l0.19,0.01l0.25-0.21l0.1-0.01l0.39,1.95l0.5-0.24l0.59-0.25
	l0.35-0.21l0.46-0.21l0.15-0.03l0.27,0.04l0.23-0.13l0.21-0.05l0.19,0.07l-0.21,0.35l0.24-0.03l0.07,0.04l0.17-0.05l0.08,0.05
	l0.41-0.12l0.31-0.16l0.07,0.08l0.21-0.11l0.1,0.05l0.01,0.35l0.15-0.03l0.29-0.14l0.4-0.11l0.14-0.01l-0.08-0.32l0.57-0.13l0.26,0
	l0.16-0.09l0.35-0.06l0.27-0.01l0.21,0.09l0.36-0.09l0.11-0.09l0.19-0.07l0.18,0.02l0.18-0.04l-0.06-0.23l0-0.19l0.06-0.13
	l-0.06-0.08l0.62-0.17l0.1-0.11l0.06-0.18l-0.06-0.13l0.48-0.13l0.15-0.09l0.48-0.11l0.33-0.17l0.19-0.14l-0.2-0.26l0.23-0.07
	l0.27-0.13l0-0.29l0.06-0.11l0.26-0.09l0.11-0.17l0.2-0.21l0.04-0.1l0.22,0.88l0.11,0.36l0.35,1.62l0.08,0.24l0.11,0.49l0.29,1.13
	l0.74,3.09l0.19-0.16l0.25-0.14l0.16-0.05l0.44-0.36l0.46-0.17l0.15-0.13l0.4-0.24l0.22-0.18l0.28-0.13l0.23,0l0.19,0.19l0.26,0.09
	l0.11,0.34l0.26,0.35l0.26,0.21l0.24,0.1l0.01,0.09l-0.14,0.2l-0.01,0.37l0.2,0.42l0.16,0.22l0.08,0.43l-0.08,0.12l-0.23,0.03
	l-0.13,0.16l-0.19,0.03l-0.21-0.09l-0.21,0.05l-0.33,0.23l-0.14,0.25l0,0.18l0.2,0.32l0,0.17l-0.08,0.4l0.06,0.12l0.23,0.28
	l0.41,0.41l0.35,0.23l0.14,0.31l0.16,0.23l0.06,0.28l0.15,0.19l0.04,0.13l-0.1,0.12l-0.2,0.09l-0.07,0.32l0.12,0.3l0.19,0.23
	l0.32,0.21l0.15,0.18l-0.04,0.43l0.02,0.12l-0.04,0.38l0.03,0.15l0.19,0.27l-0.06,0.16l-0.02,0.32l0.09,0.06l-0.1,0.32l-0.24,0.17
	l-0.15,0.23l-0.22,0.26l-0.49,0.59l-0.13,0.2l-0.15,0.1l-0.11,0.01l-0.27-0.18l-0.36-0.04l-0.25,0.02l-0.21,0.07l-0.25,0.27
	L480,44.14l-0.25-0.22l-0.21,0.06l-0.39-0.14l0.06-0.34l0.13,0.06l0.19-0.06l-0.03-0.17l-0.09-0.03l-0.21-0.22l-0.01,0.26
	l-0.12,0.07l-0.2-0.1l-0.12,0.19l-0.18,0.15l-0.12,0.04l0.01,0.17l-0.27,0l-0.18,0.32l-0.23,0.01l-0.25,0.21l-0.3,0.14l-0.21,0.04
	l-0.4,0.26l-0.24,0.26l-0.17,0.36l-0.11,0.31l-0.08-0.02l-0.11,0.15L476,46.2l-0.02,0.18l-0.09,0.16l-0.01,0.14l0.08,0.19l0.22,0.19
	l0.42,0.14l0.24,0.16l0.21,0.07l0.43-0.09l0.12,0.11l0.22,0.11l0.18,0.16l0.22-0.01l0.36-0.13l0.12,0.07l0.06,0.38l-0.21,0.36
	l-0.2,0.26l-0.29,0.04l-0.07-0.11l-0.16-0.09l0.04,0.24l0.14,0.06l0,0.57l-0.05,0.09l0.18,0.14l0.02,0.35l-0.13,0.28l-0.19,0.04
	l-0.07,0.2l0.13,0.32l0.2,0.25l0.11,0.55l0.15,0.13l0.12,0.23l0.14,0.1l0.28,0.11l0.36,0.31l0.05,0.25l-0.01,0.14l-0.12,0.16
	l0.07,0.1l0.39-0.04l0.13-0.11l0.1,0.08l0.12,0.33l-0.03,0.21l0.04,0.28l0.12-0.01l0.09-0.33l0.18,0.04l0.13,0.19l-0.1,0.13l0,0.14
	l-0.15,0.27l0.07,0.34l0.13,0.26l0.1,0.31l-0.07,0.09l-0.04,0.35l-0.07-0.06l-0.17,0.01l-0.08-0.09l-0.19,0.16l0.15,0.18l0.26,0.09
	l0.11,0.22l0.12,0.16l0,0.34l-0.12-0.04l-0.09,0.11l0.13,0.06l0.17,0.18l0.06,0.18l0.02,0.2l0.2,0.35l0.2,0.22l0.11,0.18l0.42,0.99
	l0.01,0.3l0.08,0.16l-0.47,0.38l-0.16,0.2l-0.3,0.1l-0.18-0.05l0.05-0.15l-0.21-0.15l-0.21,0.25l-0.15,0.03l-0.1,0.26l-0.2,0.27
	l-0.16,0.28l-0.07-0.17l-0.16,0.22l0.05,0.1l-0.05,0.24l-0.1,0.14L479,61.35l0,0.18l-0.21,0.04l-0.1,0.08l-0.02,0.17l-0.14,0.2
	l0.09,0.12l0.2-0.14l0.14,0.22l-0.04,0.31l-0.15-0.05l-0.11-0.26l-0.13-0.01l-0.06-0.13l-0.25-0.11l-0.17,0.07l-0.03-0.33l-0.06-0.1
	l-0.14-0.05l-0.03-0.22l-0.11-0.14l0-0.21l-0.15-0.04l0.02-0.39l0.21,0.03l0.03-0.33l-0.09-0.05l-0.17,0.04l-0.05,0.15l-0.19,0.07
	l-0.27,0.17l-0.09-0.09l-0.07-0.35l0.04-0.12l0.19-0.21l0.12-0.29l-0.06-0.21l0.06-0.17l-0.03-0.14l0.09-0.16l0.08-0.4l-0.15-0.13
	l-0.06-0.25l0.05-0.2l-0.08-0.24l-0.17,0.05l0.03-0.18l-0.05-0.14l0.02-0.24l-0.23-0.12l-0.07-0.31l0.03-0.22l-0.05-0.14l0.12-0.1
	l0.01-0.19l-0.14-0.17l0.15-0.26l0.01-0.22l-0.06-0.3l-0.12-0.07l-0.02-0.18l-0.13-0.07l0.01-0.36l0.08-0.03l0.11-0.24l-0.07-0.14
	l0-0.16l-0.2-0.15l0.03-0.21l-0.17-0.13l-0.24,0.14l0.03,0.18l0.24,0.15l0.1,0.16l-0.27,0.15l0.06,0.06l0.06,0.34l-0.05,0.32
	l0.14,0.11l-0.02,0.24l0.2,0.29l-0.09,0.12L476.32,56l0.04,0.18l-0.11,0.29l0.02,0.23l-0.06,0.43l0.01,0.2l0.05,0.09l0.24,0.19
	l0.04,0.13l-0.16,0.16l-0.02,0.16l0.09,0.15l0.22,0.18l0.14,0.27l-0.12,0.12l0.09,0.32l-0.15,0.22l0.02,0.13l-0.07,0.11l-0.02,0.2
	l-0.16,0.02l0.07,0.22l-0.09,0.06l0.05,0.34l-0.03,0.2l0.12,0.28l0.35,0.23l0.14,0.14l0.21,0.11l0.23,0.21l-0.13,0.16l-0.05,0.14
	l0.06,0.18l0.07,0.03l0.16,0.28l0.25,0.17l0.21,0.22l0.12,0.23l0.11,0.1l-0.12,0.11l-0.13,0l-0.09-0.09l-0.15,0l-0.34-0.13
	l-0.17,0.27l-0.01,0.15l0.16,0.13l-0.06,0.3l0.12,0.04l0.49-0.11l0.02,0.13l-0.07,0.29l-0.14-0.02l-0.16-0.3l-0.08,0.07l0.16,0.37
	l-0.09,0.1l0.12,0.33l-0.11,0.22l-0.33,0.54l-0.14,0.19l-0.26,0.12l-0.18-0.01l-0.08,0.05l-0.15,0.26l-0.17,0.17l-0.09-0.33
	l-0.09-0.11l0.09-0.23l-0.08-0.04l-0.02-0.53L475.98,65l-0.05-0.24l-0.1-0.15l0.05-0.29l0.11-0.19L475.86,64l-0.11,0.08l-0.35,0.5
	l-0.02-0.26l-0.22-0.16l-0.04-0.14L475,64.08l-0.12,0.16l0.04,0.17l0.18,0l-0.02,0.21l0.05,0.11l0,0.17l0.1,0.13l-0.21,0.02
	l-0.03,0.1l-0.25-0.17l-0.08,0.1l0.13,0.21l0.24,0.07l0.06,0.13l-0.13,0.09l0.05,0.15l-0.05,0.19l0.21,0.2L475,66.16l-0.16-0.11
	l-0.15-0.02l-0.24-0.21l-0.14,0.08l-0.09-0.1l-0.35-0.13l-0.12-0.09l-0.01-0.09l-0.3-0.04l-0.09,0.04l0.02,0.27l0.13,0.27l0.36,0.21
	l0.19,0.06l0.1,0.09l0.26,0.13l-0.32,0.13l-0.01,0.24l-0.19,0.2l-0.13-0.11l-0.16,0.13l0.24,0.29l0.32,0l0.11,0.18l-0.06,0.3
	l0.15,0.23l0.03,0.28l-0.16,0.08l0.1,0.31l-0.04,0.23l-0.36,0.27l-0.31,0.21l-0.41,0.32l-0.1-0.08l0.08-0.15l-0.2-0.2l-0.15,0.05
	l-0.37-0.09l-0.31,0.04l-0.33,0.13l-0.08-0.14l0.03-0.57l0.12-0.09l0.02-0.36l-0.15-0.42l-0.13-0.44l0.13-0.19l-0.07-0.25
	l-0.13,0.04l-0.15-0.05l0.01-0.33l-0.07-0.24l0.02-0.08l-0.12-0.24l0.02-0.1l0.14-0.2l0.07,0.02l0.22-0.09l0.1-0.33l0.09-0.18
	L471.9,65l-0.07-0.31l-0.07-0.1l-0.31-0.24l-0.15,0.01l-0.32-0.15l-0.23-0.23l0.11,0.31l-0.17,0.07l-0.15-0.09l-0.06-0.37l0.07-0.36
	l-0.16-0.35l-0.3-0.17l-0.17-0.15l0.18-0.21l-0.02-0.06l-0.22,0.02l-0.13-0.05l-0.14,0.04l-0.08-0.08l-0.12,0.09l-0.18-0.2
	l-0.15,0.07l0.09,0.29l0.08,0.36l0.11,0.09l0.33,0.07l0.42,0.38l0.17,0.12l-0.08,0.08l0.01,0.38l0.11,0.27l-0.02,0.31l0.12,0.18
	l0.17,0.08l0.32-0.18l0.08-0.01l0.24-0.21l0.07,0.01l0.03,0.28l-0.03,0.16l-0.21,0.13l-0.15,0.2l-0.01,0.16l-0.12,0.19l0,0.11
	l-0.14,0.18l-0.28,0.18l-0.17,0.18l-0.05,0.28l0.07,0.17l0.32,0.25l0.19,0.26l-0.02,0.24l-0.14,0.04l-0.04,0.13l0.2,0.06l0.07,0.14
	l0.01,0.2l0.11,0.17l-0.06,0.16l0.03,0.11l0.14,0.16l0.01,0.17l-0.15,0.22l-0.07-0.1l-0.15,0.11l0.05,0.32l-0.19,0.19l-0.13-0.01
	l-0.08,0.14l0.05,0.09l0.13,0.02l0.19,0.12l0.08-0.1l0.24-0.07l0.25,0.34l0.15,0.14l0.06-0.02l0.23-0.27l0.29,0.23l-0.2,0.37
	l0.18,0.31l0.08,0.01l0.14-0.16l-0.1-0.1l0.3-0.49l0.23-0.22l0.02,0.16l0.15,0.1l0.15-0.12l0.17,0.15l0.06,0.11l0.14,0.46l0.08,0.16
	l0.31,0.41l0.33,0.37l0.34,0.53l0.11,0l0.27,0.11l0.27-0.03l0.16,0.08l0.15,0.17l0.05,0.17l-0.09,0.24l-0.39,0.88l-0.2,0.4
	l-0.3,0.73l-0.35,1.02l-0.25,0.95l-0.26,0.68l-0.22,0.44l-4.27-3.17L467.64,74l-0.73-0.54l-0.32-0.24l-1.55-1.16l-0.66-0.48
	l-1.03-0.79l-0.07,0.1l-1.7-1.28l-0.56-0.41l-0.13-0.16l-0.37-0.22l-5.19-3.88l-1.21-0.88l-2.47-1.82l-1.07-0.8l-2.17-1.58
	l-0.39-0.26l-0.91-0.68l-0.55-0.42l-1.27-0.94l-1.67-1.25l-2.66-1.96l-1.87-1.39l-0.62-0.46l-1.49-1.13l-2.09-1.58l-0.17-0.12
	l-2.08-1.55l-0.98-0.75l-0.67-0.5l-1.33-1.11l-1.69-1.4l-0.73-0.62l-0.24-0.18l-0.44-0.28l-0.28-0.22l-0.34-0.22l-1-0.82l-0.55-0.42
	l-0.5-0.43l-0.23-0.18l-0.81-0.67l-0.04-0.05l-0.69-0.53l-0.54-0.43l-0.64-0.47l-0.63-0.51l-0.3-0.29l-0.14-0.08l-0.29-0.24
	l-0.71-0.65l-0.72-0.56l0.5-0.07l-0.86-0.64l-1.74-1.37l-0.3,0.18l-2.04-1.53l-0.58-0.45l-0.83-0.62l-1.63-1.19l-0.18-0.16
	l-1.18-0.85l-0.68-0.5l-1.99-1.48l-1.33-1l-2.22-1.65l-0.11-0.16l-0.95-0.69l-1.74-1.29l-0.62-0.48l-0.48-0.41l0.39,0l0.06-0.06
	l0.24,0.13l0.18-0.03l0.26,0.07l0.17,0.11l0.23-0.01l0.25,0.09l0.17-0.03l0.23,0.09l0.18,0.12l0.07,0.13l0.25,0.22l0.32,0.19
	l0.35,0.09l0.18-0.05l0.31,0.1l0.23,0.03l0.43,0.13l0.21,0.11l0.3,0.09l0.51,0.19l0.31,0.08l0.32,0.23l0.27,0.14l0.15-0.03
	l0.08-0.19l0.13-0.11l0.03-0.12l0.19,0.02l0.42-0.15l0.1-0.2l0.22,0l0.13,0.05l0.15-0.15l0.21,0.21l0.23,0.1l0,0.1l0.13,0.14
	l0.15-0.05l0.21,0.1l0.07,0.09l0.25,0.03l0.14,0.09l0.21,0.03l0.15,0.09l0.06-0.05l0.34,0.08l0.21-0.08l-0.02-0.13l0.32-0.09
	l0.22-0.28l0.05-0.27l0.09-0.1l0.24-0.02l0.07,0.08l0.22-0.01l0.17-0.07l0.24,0.11l0.18,0.12l0.39-0.06l0.09,0.11l0.21-0.17
	l0.14,0.13l0.18-0.16l0.09-0.22l0.14-0.11l0.32-0.41l0.5,0.08l0.07,0.06l0.27,0.02l0.12-0.04l0.2,0.1l0.16-0.04l0.49-0.01l0.18,0.03
	l0.42,0.01l0.36,0.11l0.33-0.02l0.63,0.15l0.2,0.09l0.57,0.18l0.06,0.05l0.31,0.1l0.25-0.05l0.15,0.05l0.19-0.08l1.81-0.15
	l1.21-0.08l0.98-0.08l0.2-0.03L423.85,23.04z"/>
<g>
	<path class="st1" d="M448.16,47.84l5.01-6.05l0.54,0.8l-2.53,2.99l-1.91,2.26l0.03,0.04l2.82-0.92l3.72-1.21l0.52,0.77l-7.5,2.35
		L448.16,47.84z"/>
	<path class="st1" d="M453.2,55.34l1.43-1.72l-1.47-2.2l-2.14,0.67l-0.52-0.78l7.54-2.28l0.67,0.99l-4.96,6.12L453.2,55.34z
		 M457.59,50.09l-0.05-0.08l-3.61,1.15l1.23,1.84L457.59,50.09z"/>
</g>
</svg>
