<?xml version="1.0" encoding="utf-8"?>
<!-- Generator: Adobe Illustrator 24.1.0, SVG Export Plug-In . SVG Version: 6.00 Build 0)  -->
<svg version="1.1" id="Layer_1" xmlns="http://www.w3.org/2000/svg" xmlns:xlink="http://www.w3.org/1999/xlink" x="0px" y="0px"
	 viewBox="0 0 600 200" style="enable-background:new 0 0 600 200;" xml:space="preserve">
<style type="text/css">
	.st0{fill:#F26767;}
	.st1{fill:#FFFFFF;}
	.st2{fill:#5691CD;}
	.st3{fill:#F68C38;}
	.st4{fill:#F26A6C;}
	.st5{fill:#F69FA1;}
	.st6{fill:#4862AD;}
	.st7{fill:#57A7DD;}
	.st8{fill:#C1E8FB;}
	.st9{fill:#CC4847;}
	.st10{fill:#1F3364;}
	.st11{fill:#A9E0FA;}
	.st12{fill:#FBD6DC;}
</style>
<g>
	<path class="st0" d="M531.36,49.55l-10.74-5.15c-4.08-1.96-5.81-6.86-3.85-10.94l5.15-10.74c1.96-4.08,6.86-5.81,10.94-3.85
		l10.74,5.15c4.09,1.96,5.81,6.86,3.85,10.94L542.3,45.7C540.34,49.79,535.44,51.51,531.36,49.55z"/>
	<g>
		<path class="st1" d="M524.12,41.33l-2.14-1.03l8.55-17.82l6.49,3.11c3.29,1.58,4.16,4.35,2.62,7.57
			c-1.37,2.86-3.81,3.95-6.78,2.87l0.85,9.89l-2.4-1.15l-0.69-9.69l-2.83-1.36L524.12,41.33z M532.93,33.97
			c1.79,0.86,3.31,0.43,4.11-1.23l0.64-1.33c0.8-1.66,0.18-3.12-1.61-3.98l-4.29-2.06l-3.14,6.54L532.93,33.97z"/>
	</g>
</g>
<g>
	<path class="st2" d="M270.03,39.55l-12.13,0.11c-4.61,0.04-8.38-3.67-8.42-8.28l-0.11-12.13c-0.04-4.61,3.67-8.38,8.28-8.42
		l12.13-0.11c4.61-0.04,8.38,3.67,8.43,8.28l0.11,12.13C278.34,35.73,274.64,39.5,270.03,39.55z"/>
	<g>
		<path class="st1" d="M257.89,15.17l5.62-0.05c4.9-0.04,7.35,3.4,7.41,10s-2.33,10.08-7.24,10.13l-5.62,0.05
			C258.07,35.3,257.89,15.17,257.89,15.17z M263.56,33.14c3.2-0.03,4.85-2.41,4.82-6.44l-0.03-3.11c-0.04-4.04-1.73-6.39-4.93-6.36
			l-3.09,0.03l0.14,15.92L263.56,33.14z"/>
	</g>
</g>
<g>
	<path class="st0" d="M464.95,80.47l-6.11-8.2c-2.32-3.12-1.68-7.53,1.44-9.85l8.2-6.11c3.12-2.32,7.53-1.68,9.85,1.44l6.11,8.2
		c2.32,3.12,1.68,7.53-1.44,9.85l-8.2,6.11C471.69,84.23,467.28,83.59,464.95,80.47z"/>
	<g>
		<path class="st1" d="M462.73,71.34l-1.22-1.64l13.61-10.14l3.69,4.95c1.87,2.51,1.43,4.97-1.03,6.8c-2.18,1.63-4.47,1.48-6.3-0.52
			l-3.3,7.86l-1.37-1.83l3.34-7.64l-1.61-2.16L462.73,71.34z M472.36,69.25c1.02,1.36,2.35,1.65,3.62,0.7l1.01-0.76
			c1.27-0.94,1.38-2.3,0.36-3.66l-2.44-3.27l-4.99,3.72L472.36,69.25z"/>
	</g>
</g>
<g>
	<path class="st2" d="M423.12,82.42l-9.69-6.94c-3.68-2.64-4.53-7.76-1.89-11.44l6.94-9.69c2.64-3.68,7.76-4.53,11.44-1.89
		l9.69,6.94c3.68,2.64,4.53,7.76,1.89,11.44l-6.94,9.69C431.93,84.22,426.8,85.06,423.12,82.42z"/>
	<g>
		<path class="st1" d="M427.61,56.06l4.49,3.22c3.91,2.8,3.87,6.95,0.09,12.22s-7.69,6.65-11.6,3.85l-4.49-3.22
			C416.09,72.13,427.61,56.06,427.61,56.06z M421.69,73.6c2.56,1.83,5.24,0.9,7.55-2.32l1.78-2.49c2.31-3.22,2.33-6.07-0.23-7.9
			l-2.46-1.76l-9.1,12.71L421.69,73.6z"/>
	</g>
</g>
<g>
	<path class="st0" d="M536.54,61.39l0.04-11.7c0.02-4.45,3.64-8.04,8.08-8.02l11.7,0.04c4.45,0.02,8.04,3.64,8.02,8.08l-0.04,11.7
		c-0.02,4.45-3.64,8.04-8.08,8.02l-11.7-0.04C540.11,69.46,536.52,65.84,536.54,61.39z"/>
	<g>
		<path class="st1" d="M540.78,51.51l0.01-2.34l19.41,0.07l-0.03,7.06c-0.01,3.59-2.11,5.53-5.61,5.51c-3.11-0.01-5.11-1.72-5.4-4.8
			l-8.42,4.92l0.01-2.61l8.31-4.7l0.01-3.09L540.78,51.51z M551.02,56.22c-0.01,1.95,1.02,3.12,2.82,3.13l1.45,0.01
			c1.81,0.01,2.84-1.16,2.85-3.1l0.02-4.67l-7.12-0.03L551.02,56.22z"/>
	</g>
</g>
<g>
	<path class="st2" d="M171.06,64.49l-10.63-3.34c-4.04-1.27-6.28-5.58-5.01-9.61l3.34-10.63c1.27-4.04,5.58-6.28,9.61-5.01
		l10.62,3.34c4.04,1.27,6.28,5.58,5.01,9.61l-3.34,10.62C179.4,63.52,175.1,65.77,171.06,64.49z"/>
	<g>
		<path class="st1" d="M167.37,39.77l4.92,1.55c4.29,1.35,5.46,5.05,3.64,10.83c-1.82,5.78-4.89,8.14-9.19,6.79l-4.92-1.55
			C161.82,57.4,167.37,39.77,167.37,39.77z M167.23,57.07c2.8,0.88,4.92-0.73,6.03-4.26l0.86-2.73c1.11-3.54,0.3-6.07-2.5-6.95
			l-2.7-0.85l-4.39,13.94L167.23,57.07z"/>
	</g>
</g>
<g>
	<path class="st0" d="M280.01,83.97l0.46-10.02c0.17-3.81,3.4-6.76,7.21-6.58l10.02,0.46c3.81,0.17,6.76,3.4,6.58,7.21l-0.46,10.02
		c-0.17,3.81-3.4,6.76-7.21,6.58l-10.02-0.46C282.79,91.01,279.84,87.78,280.01,83.97z"/>
	<g>
		<path class="st1" d="M284,75.66l0.09-2l16.62,0.76l-0.27,6.05c-0.14,3.07-2,4.66-5,4.52c-2.67-0.12-4.32-1.65-4.46-4.31
			l-7.38,3.91l0.1-2.24l7.28-3.73l0.12-2.64L284,75.66z M292.6,80.06c-0.08,1.67,0.76,2.71,2.31,2.78l1.24,0.06
			c1.55,0.07,2.47-0.89,2.55-2.56l0.18-4l-6.1-0.28L292.6,80.06z"/>
	</g>
</g>
<g>
	<path class="st2" d="M493.02,52.36l-10.28-2.22c-3.91-0.85-6.39-4.7-5.54-8.6l2.22-10.28c0.85-3.91,4.7-6.39,8.6-5.54l10.28,2.22
		c3.91,0.85,6.39,4.7,5.54,8.6l-2.22,10.28C500.78,50.73,496.93,53.21,493.02,52.36z"/>
	<g>
		<path class="st1" d="M487.41,29.44l4.76,1.03c4.15,0.9,5.57,4.27,4.36,9.87s-3.9,8.08-8.05,7.18l-4.76-1.03
			C483.72,46.49,487.41,29.44,487.41,29.44z M488.77,45.72c2.71,0.59,4.56-1.11,5.3-4.53l0.57-2.64c0.74-3.42-0.24-5.73-2.95-6.32
			l-2.61-0.57l-2.92,13.48L488.77,45.72z"/>
	</g>
</g>
<g>
	<path class="st0" d="M258.16,131.71l-4.85-9.85c-1.84-3.74-0.3-8.27,3.44-10.12l9.85-4.85c3.74-1.84,8.27-0.3,10.12,3.44l4.85,9.85
		c1.84,3.74,0.3,8.27-3.44,10.12l-9.85,4.85C264.53,136.99,260,135.45,258.16,131.71z"/>
	<g>
		<path class="st1" d="M257.59,121.64l-0.97-1.97l16.34-8.04l2.93,5.95c1.49,3.02,0.54,5.52-2.41,6.97
			c-2.62,1.29-5.01,0.69-6.55-1.78l-5.02,7.65l-1.08-2.2l5.02-7.41l-1.28-2.6L257.59,121.64z M268.16,121.32
			c0.81,1.64,2.16,2.2,3.68,1.45l1.22-0.6c1.52-0.75,1.9-2.16,1.1-3.8l-1.94-3.93l-5.99,2.95L268.16,121.32z"/>
	</g>
</g>
<g>
	<path class="st2" d="M468.49,114.85l-7.9,8.3c-3,3.15-8,3.28-11.15,0.27l-8.3-7.9c-3.15-3-3.28-8-0.27-11.15l7.9-8.3
		c3-3.16,8-3.28,11.15-0.27l8.3,7.9C471.37,106.7,471.5,111.69,468.49,114.85z"/>
	<g>
		<path class="st1" d="M443.98,107.06l3.66-3.85c3.19-3.35,7.14-2.76,11.65,1.55c4.52,4.3,5.31,8.21,2.11,11.56l-3.66,3.85
			C457.75,120.17,443.98,107.06,443.98,107.06z M459.9,115.03c2.08-2.19,1.56-4.87-1.2-7.5l-2.13-2.03
			c-2.76-2.63-5.47-3.03-7.55-0.84l-2.01,2.11l10.89,10.37L459.9,115.03z"/>
	</g>
</g>
<g>
	<path class="st0" d="M472.19,169.51l-7.33-0.71c-2.78-0.27-4.82-2.74-4.55-5.53l0.71-7.33c0.27-2.78,2.74-4.82,5.53-4.55l7.33,0.71
		c2.79,0.27,4.82,2.74,4.56,5.53l-0.71,7.33C477.45,167.74,474.97,169.77,472.19,169.51z"/>
	<g>
		<path class="st1" d="M466.25,166.28l-1.46-0.14l1.17-12.15l4.42,0.43c2.25,0.22,3.34,1.64,3.13,3.83
			c-0.19,1.95-1.37,3.1-3.32,3.11l2.59,5.56l-1.64-0.16l-2.46-5.47l-1.93-0.19L466.25,166.28z M469.79,160.14
			c1.22,0.12,2.01-0.46,2.12-1.59l0.09-0.91c0.11-1.13-0.56-1.85-1.78-1.96l-2.92-0.28l-0.43,4.46L469.79,160.14z"/>
	</g>
</g>
<g>
	<path class="st2" d="M477.2,120.06l-6.14,5.09c-2.33,1.93-5.79,1.61-7.73-0.72l-5.09-6.14c-1.93-2.33-1.61-5.79,0.72-7.73
		l6.13-5.09c2.33-1.94,5.79-1.61,7.73,0.72l5.09,6.13C479.85,114.66,479.53,118.12,477.2,120.06z"/>
	<g>
		<path class="st1" d="M460.9,112.68l2.84-2.36c2.48-2.06,5.15-1.32,7.92,2.02s3,6.1,0.52,8.16l-2.84,2.36
			C469.34,122.86,460.9,112.68,460.9,112.68z M471.24,119.48c1.62-1.34,1.47-3.24-0.22-5.28l-1.31-1.57
			c-1.69-2.04-3.53-2.54-5.15-1.19l-1.56,1.29l6.68,8.05L471.24,119.48z"/>
	</g>
</g>
<g>
	<path class="st0" d="M357.82,115.41l-0.37-11.2c-0.14-4.26,3.19-7.82,7.45-7.96l11.2-0.37c4.26-0.14,7.82,3.19,7.96,7.45
		l0.37,11.19c0.14,4.26-3.19,7.82-7.45,7.96l-11.19,0.37C361.52,123,357.96,119.67,357.82,115.41z"/>
	<g>
		<path class="st1" d="M361.52,105.81l-0.07-2.23l18.57-0.62l0.22,6.76c0.11,3.43-1.82,5.36-5.17,5.47c-2.98,0.1-4.95-1.46-5.34-4.4
			l-7.88,5l-0.08-2.5l7.78-4.79l-0.1-2.95L361.52,105.81z M371.49,109.95c0.06,1.86,1.08,2.95,2.81,2.89l1.38-0.05
			c1.73-0.06,2.68-1.21,2.61-3.07l-0.15-4.47l-6.81,0.23L371.49,109.95z"/>
	</g>
</g>
<g>
	<path class="st2" d="M293.51,150.72l-7.34-8.46c-2.79-3.21-2.44-8.08,0.77-10.87l8.46-7.34c3.21-2.79,8.08-2.44,10.87,0.77
		l7.34,8.46c2.79,3.22,2.44,8.08-0.77,10.87l-8.46,7.34C301.17,154.29,296.3,153.94,293.51,150.72z"/>
	<g>
		<path class="st1" d="M303.37,127.61l3.4,3.92c2.96,3.42,2.02,7.2-2.59,11.19c-4.6,3.99-8.48,4.4-11.44,0.98l-3.4-3.92
			C289.34,139.78,303.37,127.61,303.37,127.61z M294.14,142.35c1.94,2.23,4.59,1.97,7.41-0.47l2.17-1.88
			c2.81-2.44,3.45-5.04,1.52-7.27l-1.87-2.15l-11.09,9.62L294.14,142.35z"/>
	</g>
</g>
<g>
	<path class="st0" d="M497.59,192.82l-10.94-1.84c-4.16-0.7-6.96-4.63-6.26-8.79l1.84-10.94c0.7-4.16,4.63-6.96,8.79-6.26
		l10.94,1.84c4.16,0.7,6.96,4.63,6.26,8.79l-1.84,10.94C505.68,190.72,501.74,193.52,497.59,192.82z"/>
	<g>
		<path class="st1" d="M488.99,187.34l-2.18-0.37l3.05-18.14l6.6,1.11c3.35,0.56,4.85,2.82,4.3,6.09c-0.49,2.91-2.39,4.52-5.32,4.32
			l3.31,8.63l-2.44-0.41l-3.12-8.49l-2.89-0.48L488.99,187.34z M494.97,178.49c1.82,0.31,3.07-0.47,3.36-2.16l0.23-1.35
			c0.28-1.69-0.65-2.83-2.47-3.14l-4.37-0.73l-1.12,6.65L494.97,178.49z"/>
	</g>
</g>
<g>
	<path class="st2" d="M496.37,105.08l-9.92,7.33c-3.77,2.79-9.08,1.99-11.87-1.78l-7.33-9.92c-2.79-3.77-1.99-9.08,1.78-11.87
		l9.92-7.33c3.77-2.79,9.09-1.99,11.87,1.78l7.33,9.92C500.94,96.98,500.14,102.29,496.37,105.08z"/>
	<g>
		<path class="st1" d="M471.84,92.27l4.6-3.4c4.01-2.96,8.08-1.6,12.07,3.8s4.1,9.69,0.09,12.65l-4.6,3.4
			C484,108.73,471.84,92.27,471.84,92.27z M487.23,103.68c2.62-1.93,2.55-4.88,0.11-8.18l-1.88-2.55c-2.44-3.3-5.24-4.22-7.85-2.29
			l-2.52,1.86l9.62,13.01L487.23,103.68z"/>
	</g>
</g>
<g>
	<path class="st0" d="M366.83,197.3l-6.84-1.89c-2.6-0.72-4.13-3.4-3.41-6l1.89-6.84c0.72-2.6,3.4-4.13,6-3.41l6.84,1.89
		c2.6,0.72,4.13,3.4,3.41,6l-1.89,6.84C372.12,196.49,369.43,198.02,366.83,197.3z"/>
	<g>
		<path class="st1" d="M361.73,193.25l-1.37-0.38l3.13-11.35l4.13,1.14c2.1,0.58,2.9,2.11,2.33,4.16c-0.5,1.82-1.82,2.72-3.67,2.4
			l1.54,5.71l-1.53-0.42l-1.43-5.61l-1.8-0.5L361.73,193.25z M366.11,188.01c1.14,0.31,1.99-0.1,2.28-1.16l0.23-0.85
			c0.29-1.06-0.23-1.85-1.36-2.16l-2.73-0.75l-1.15,4.16L366.11,188.01z"/>
	</g>
</g>
<g>
	<path class="st2" d="M275.94,61.43l-7.07-7.41c-2.69-2.82-2.58-7.28,0.23-9.96l7.41-7.07c2.82-2.69,7.28-2.58,9.96,0.23l7.07,7.41
		c2.69,2.82,2.59,7.28-0.23,9.96l-7.41,7.07C283.09,64.35,278.63,64.25,275.94,61.43z"/>
	<g>
		<path class="st1" d="M283.94,39.89l3.28,3.43c2.86,2.99,2.16,6.49-1.87,10.34c-4.03,3.85-7.55,4.39-10.41,1.39l-3.28-3.43
			C271.65,51.62,283.94,39.89,283.94,39.89z M276.15,53.75c1.87,1.95,4.28,1.6,6.75-0.76l1.9-1.81c2.46-2.35,2.93-4.75,1.07-6.71
			l-1.8-1.88l-9.72,9.28L276.15,53.75z"/>
	</g>
</g>
<g>
	<path class="st0" d="M190.39,82.14l-2.48-11.41c-0.94-4.34,1.81-8.62,6.14-9.56l11.41-2.48c4.34-0.94,8.62,1.81,9.56,6.14
		l2.48,11.41c0.94,4.34-1.81,8.62-6.14,9.56l-11.41,2.48C195.62,89.23,191.34,86.48,190.39,82.14z"/>
	<g>
		<path class="st1" d="M192.39,71.6l-0.5-2.28l18.92-4.11l1.5,6.89c0.76,3.5-0.86,5.84-4.28,6.58c-3.04,0.66-5.35-0.57-6.3-3.51
			l-7.14,6.61l-0.55-2.55l7.08-6.37l-0.65-3.01L192.39,71.6z M203.38,73.98c0.41,1.9,1.66,2.82,3.43,2.44l1.41-0.31
			c1.76-0.38,2.52-1.74,2.11-3.64l-0.99-4.55l-6.94,1.51L203.38,73.98z"/>
	</g>
</g>
<g>
	<path class="st2" d="M428.01,92.32l-8.07,6.6c-3.07,2.51-7.59,2.06-10.1-1.01l-6.6-8.07c-2.51-3.07-2.06-7.59,1.01-10.1l8.07-6.6
		c3.07-2.51,7.59-2.06,10.1,1.01l6.6,8.07C431.53,85.29,431.08,89.81,428.01,92.32z"/>
	<g>
		<path class="st1" d="M406.77,82.52l3.74-3.06c3.26-2.67,6.75-1.68,10.35,2.71c3.59,4.39,3.86,8.01,0.6,10.68l-3.74,3.06
			C417.71,95.91,406.77,82.52,406.77,82.52z M420.23,91.51c2.13-1.74,1.96-4.22-0.24-6.91l-1.69-2.07c-2.2-2.69-4.59-3.35-6.72-1.61
			l-2.05,1.68l8.66,10.59L420.23,91.51z"/>
	</g>
</g>
<g>
	<path class="st0" d="M380.69,45.34l-11.56-2.8c-4.39-1.06-7.09-5.49-6.03-9.88l2.8-11.56c1.06-4.39,5.49-7.09,9.88-6.03l11.56,2.8
		c4.39,1.06,7.09,5.49,6.03,9.88l-2.8,11.56C389.51,43.71,385.08,46.41,380.69,45.34z"/>
	<g>
		<path class="st1" d="M371.92,38.83l-2.31-0.56l4.64-19.17l6.98,1.69c3.54,0.86,4.97,3.38,4.13,6.85c-0.75,3.08-2.9,4.65-6.02,4.21
			l2.88,9.48l-2.58-0.63l-2.69-9.32l-3.05-0.74L371.92,38.83z M378.99,29.81c1.92,0.47,3.32-0.27,3.76-2.06l0.35-1.43
			c0.43-1.79-0.47-3.08-2.4-3.55l-4.61-1.12l-1.7,7.03L378.99,29.81z"/>
	</g>
</g>
<g>
	<path class="st2" d="M516.91,80.04l-11.43-0.06c-4.35-0.02-7.85-3.56-7.83-7.91l0.06-11.43c0.02-4.35,3.56-7.85,7.91-7.83
		l11.43,0.06c4.35,0.02,7.85,3.56,7.83,7.91l-0.06,11.43C524.8,76.56,521.26,80.07,516.91,80.04z"/>
	<g>
		<path class="st1" d="M505.8,56.92l5.3,0.03c4.62,0.02,6.88,3.29,6.85,9.52c-0.03,6.22-2.33,9.47-6.95,9.45l-5.3-0.03
			C505.7,75.89,505.8,56.92,505.8,56.92z M510.9,73.93c3.02,0.01,4.6-2.2,4.62-6.01l0.01-2.93c0.02-3.8-1.55-6.04-4.56-6.05
			l-2.91-0.01l-0.07,15L510.9,73.93z"/>
	</g>
</g>
<g>
	<path class="st0" d="M348.26,86.53l-8.94-4.93c-3.4-1.87-4.63-6.15-2.76-9.54l4.93-8.94c1.87-3.4,6.15-4.63,9.54-2.76l8.94,4.93
		c3.4,1.87,4.63,6.15,2.76,9.54l-4.93,8.94C355.93,87.16,351.65,88.4,348.26,86.53z"/>
	<g>
		<path class="st1" d="M342.46,79.15l-1.78-0.98l8.17-14.83l5.4,2.97c2.74,1.51,3.35,3.92,1.87,6.6c-1.31,2.38-3.45,3.19-5.94,2.13
			l0.24,8.5l-2-1.1l-0.12-8.32l-2.36-1.3L342.46,79.15z M350.35,73.28c1.49,0.82,2.81,0.53,3.57-0.86l0.61-1.1
			c0.76-1.38,0.3-2.66-1.18-3.48l-3.57-1.97l-3,5.44L350.35,73.28z"/>
	</g>
</g>
<g>
	<path class="st2" d="M425.53,168.86l-6.06-5.52c-2.3-2.1-2.47-5.66-0.37-7.97l5.52-6.06c2.1-2.3,5.66-2.47,7.97-0.37l6.06,5.52
		c2.3,2.1,2.47,5.66,0.37,7.97l-5.52,6.06C431.4,170.79,427.84,170.96,425.53,168.86z"/>
	<g>
		<path class="st1" d="M430.71,151.22l2.81,2.56c2.45,2.23,2.08,5.06-0.92,8.35c-3,3.3-5.78,3.92-8.23,1.69l-2.81-2.56
			C421.56,161.27,430.71,151.22,430.71,151.22z M425.27,162.72c1.6,1.46,3.51,1.04,5.34-0.98l1.42-1.55
			c1.84-2.02,2.08-3.96,0.48-5.41l-1.54-1.4l-7.24,7.95L425.27,162.72z"/>
	</g>
</g>
<g>
	<path class="st0" d="M423.42,52.34l-9.43-7.47c-3.59-2.84-4.19-8.05-1.35-11.64l7.47-9.43c2.84-3.59,8.05-4.19,11.64-1.35
		l9.43,7.47c3.59,2.84,4.19,8.05,1.35,11.64l-7.47,9.43C432.21,54.58,427,55.18,423.42,52.34z"/>
	<g>
		<path class="st1" d="M418.12,42.64l-1.88-1.49l12.4-15.65l5.69,4.51c2.89,2.29,3.13,5.22,0.89,8.04
			c-1.99,2.51-4.64,3.04-7.32,1.32l-1.37,9.93l-2.11-1.67l1.48-9.7l-2.49-1.97L418.12,42.64z M428.44,37.35
			c1.57,1.24,3.17,1.16,4.32-0.3l0.92-1.17c1.15-1.46,0.87-3.03-0.7-4.28l-3.77-2.98l-4.55,5.74L428.44,37.35z"/>
	</g>
</g>
<g>
	<path class="st2" d="M322.95,60.94l-8.33,7.94c-3.17,3.02-8.18,2.9-11.19-0.27l-7.94-8.33c-3.02-3.17-2.9-8.18,0.27-11.19
		l8.33-7.94c3.17-3.02,8.18-2.9,11.2,0.27l7.94,8.33C326.24,52.91,326.12,57.92,322.95,60.94z"/>
	<g>
		<path class="st1" d="M298.75,51.94l3.86-3.68c3.36-3.21,7.29-2.42,11.61,2.11c4.32,4.53,4.92,8.49,1.56,11.7l-3.86,3.68
			C311.92,65.75,298.75,51.94,298.75,51.94z M314.32,60.7c2.2-2.09,1.8-4.81-0.84-7.58l-2.04-2.14c-2.64-2.77-5.34-3.3-7.53-1.21
			l-2.12,2.02l10.41,10.92L314.32,60.7z"/>
	</g>
</g>
<g>
	<path class="st0" d="M327.7,108.4l-10.37-5.12c-3.94-1.95-5.56-6.72-3.62-10.66l5.12-10.37c1.95-3.94,6.72-5.56,10.66-3.62
		l10.37,5.12c3.94,1.95,5.56,6.72,3.62,10.67l-5.12,10.37C336.42,108.73,331.65,110.34,327.7,108.4z"/>
	<g>
		<path class="st1" d="M320.77,100.34l-2.07-1.02l8.5-17.21l6.26,3.09c3.18,1.57,3.99,4.27,2.46,7.38
			c-1.36,2.76-3.74,3.79-6.61,2.71l0.71,9.61l-2.32-1.14l-0.56-9.42L324.39,93L320.77,100.34z M329.4,93.29
			c1.73,0.85,3.21,0.45,4-1.15l0.63-1.28c0.79-1.6,0.21-3.03-1.52-3.88l-4.14-2.04l-3.12,6.31L329.4,93.29z"/>
	</g>
</g>
<g>
	<path class="st2" d="M539.85,169.53l-6.33-5.44c-2.4-2.07-2.68-5.69-0.61-8.1l5.44-6.33c2.07-2.4,5.69-2.68,8.1-0.61l6.33,5.44
		c2.41,2.07,2.68,5.7,0.61,8.1l-5.44,6.33C545.88,171.33,542.26,171.6,539.85,169.53z"/>
	<g>
		<path class="st1" d="M544.62,151.42l2.93,2.52c2.56,2.2,2.27,5.09-0.69,8.53c-2.96,3.44-5.78,4.16-8.33,1.96l-2.93-2.52
			C535.59,161.91,544.62,151.42,544.62,151.42z M539.41,163.29c1.67,1.44,3.6,0.95,5.41-1.15l1.4-1.62c1.81-2.1,2-4.09,0.33-5.52
			l-1.61-1.38l-7.14,8.3L539.41,163.29z"/>
	</g>
</g>
<g>
	<path class="st0" d="M418.26,125.26l-2.83-6.44c-1.08-2.45,0.04-5.3,2.48-6.38l6.44-2.83c2.45-1.08,5.3,0.04,6.38,2.48l2.83,6.44
		c1.08,2.45-0.04,5.3-2.48,6.38l-6.44,2.83C422.19,128.82,419.34,127.7,418.26,125.26z"/>
	<g>
		<path class="st1" d="M418.18,118.8l-0.56-1.29l10.68-4.69l1.71,3.89c0.87,1.97,0.19,3.55-1.74,4.4c-1.71,0.75-3.23,0.3-4.14-1.32
			l-3.42,4.75l-0.63-1.44l3.42-4.6l-0.75-1.7L418.18,118.8z M424.96,118.89c0.47,1.07,1.32,1.46,2.31,1.03l0.8-0.35
			c0.99-0.44,1.28-1.33,0.81-2.4l-1.13-2.57l-3.92,1.72L424.96,118.89z"/>
	</g>
</g>
<g>
	<path class="st2" d="M401.86,150.78l-7.72,7.59c-2.93,2.88-7.65,2.84-10.53-0.09l-7.59-7.72c-2.88-2.93-2.84-7.65,0.09-10.53
		l7.72-7.59c2.93-2.89,7.65-2.84,10.53,0.09l7.59,7.72C404.83,143.18,404.79,147.89,401.86,150.78z"/>
	<g>
		<path class="st1" d="M378.97,142.66l3.58-3.52c3.12-3.07,6.82-2.38,10.95,1.82c4.13,4.2,4.75,7.92,1.63,10.98l-3.58,3.52
			C391.56,155.46,378.97,142.66,378.97,142.66z M393.74,150.68c2.04-2,1.62-4.55-0.9-7.12l-1.95-1.98c-2.52-2.57-5.07-3.03-7.1-1.02
			l-1.96,1.93l9.95,10.12L393.74,150.68z"/>
	</g>
</g>
<g>
	<path class="st0" d="M428.56,164.57l-0.26-6.9c-0.1-2.62,1.95-4.83,4.57-4.93l6.9-0.26c2.62-0.1,4.83,1.95,4.93,4.57l0.26,6.9
		c0.1,2.62-1.95,4.83-4.57,4.93l-6.9,0.26C430.86,169.24,428.66,167.2,428.56,164.57z"/>
	<g>
		<path class="st1" d="M430.81,158.64l-0.05-1.38l11.45-0.43l0.16,4.17c0.08,2.12-1.11,3.31-3.17,3.39c-1.84,0.07-3.06-0.89-3.3-2.7
			l-4.84,3.11l-0.06-1.54l4.78-2.97l-0.07-1.82L430.81,158.64z M436.97,161.17c0.04,1.15,0.68,1.81,1.74,1.77l0.85-0.03
			c1.07-0.04,1.65-0.75,1.6-1.9l-0.1-2.76l-4.2,0.16L436.97,161.17z"/>
	</g>
</g>
<g>
	<path class="st2" d="M393.42,61.26l-5.75-4.05c-2.19-1.54-2.71-4.56-1.17-6.75l4.05-5.75c1.54-2.19,4.56-2.71,6.75-1.17l5.75,4.05
		c2.19,1.54,2.71,4.56,1.17,6.75l-4.05,5.75C398.62,62.27,395.6,62.8,393.42,61.26z"/>
	<g>
		<path class="st1" d="M395.94,45.67l2.67,1.88c2.32,1.64,2.32,4.09,0.11,7.22c-2.21,3.13-4.51,3.96-6.83,2.32l-2.67-1.88
			C389.22,55.21,395.94,45.67,395.94,45.67z M392.53,56.05c1.52,1.07,3.1,0.51,4.45-1.41l1.04-1.48c1.35-1.91,1.34-3.59-0.17-4.66
			l-1.46-1.03l-5.32,7.54L392.53,56.05z"/>
	</g>
</g>
<g>
	<path class="st0" d="M571.35,137.74l-6.3-4.53c-2.39-1.72-2.94-5.06-1.22-7.45l4.53-6.3c1.72-2.39,5.06-2.94,7.45-1.22l6.3,4.53
		c2.4,1.72,2.94,5.06,1.22,7.45l-4.53,6.3C577.09,138.92,573.75,139.46,571.35,137.74z"/>
	<g>
		<path class="st1" d="M567.65,131.65l-1.26-0.9l7.51-10.45l3.8,2.73c1.93,1.39,2.17,3.26,0.82,5.15c-1.21,1.68-2.89,2.1-4.67,1.07
			l-0.59,6.44l-1.41-1.01l0.66-6.29l-1.66-1.19L567.65,131.65z M574.14,127.93c1.05,0.75,2.07,0.65,2.77-0.32l0.56-0.78
			c0.7-0.97,0.47-1.98-0.58-2.73l-2.52-1.81l-2.76,3.83L574.14,127.93z"/>
	</g>
</g>
<g>
	<path class="st2" d="M377.62,161.7l-11.07,1.68c-4.21,0.64-8.14-2.26-8.78-6.47l-1.68-11.07c-0.64-4.21,2.26-8.14,6.47-8.78
		l11.07-1.68c4.21-0.64,8.14,2.26,8.78,6.47l1.68,11.07C384.72,157.13,381.83,161.06,377.62,161.7z"/>
	<g>
		<path class="st1" d="M363.35,141l5.13-0.78c4.47-0.68,7.16,2.14,8.08,8.17s-0.82,9.52-5.29,10.2l-5.13,0.78
			C366.14,159.37,363.35,141,363.35,141z M370.87,156.69c2.92-0.44,4.12-2.83,3.56-6.52l-0.43-2.84c-0.56-3.68-2.41-5.61-5.33-5.17
			l-2.82,0.43l2.2,14.53L370.87,156.69z"/>
	</g>
</g>
<g>
	<path class="st0" d="M444.97,54.07L443.95,46c-0.39-3.07,1.79-5.87,4.86-6.26l8.08-1.02c3.07-0.39,5.87,1.79,6.26,4.86l1.02,8.08
		c0.39,3.07-1.79,5.88-4.86,6.26l-8.08,1.02C448.16,59.32,445.36,57.14,444.97,54.07z"/>
	<g>
		<path class="st1" d="M447,46.87l-0.2-1.61l13.4-1.7l0.62,4.88c0.31,2.48-0.96,4-3.38,4.31c-2.15,0.27-3.68-0.72-4.16-2.83
			l-5.37,4.15l-0.23-1.8l5.31-3.99l-0.27-2.13L447,46.87z M454.49,49.2c0.17,1.34,0.98,2.06,2.23,1.9l1-0.13
			c1.25-0.16,1.86-1.05,1.69-2.4L459,45.36l-4.91,0.62L454.49,49.2z"/>
	</g>
</g>
<g>
	<path class="st2" d="M339.1,48.55l-9.97,3.12c-3.79,1.19-7.82-0.92-9.01-4.71L317,37c-1.19-3.79,0.92-7.82,4.71-9.01l9.97-3.12
		c3.79-1.19,7.82,0.92,9.01,4.71l3.12,9.97C345,43.32,342.89,47.36,339.1,48.55z"/>
	<g>
		<path class="st1" d="M323.01,31.51l4.62-1.45c4.03-1.26,6.91,0.96,8.61,6.38s0.6,8.89-3.42,10.15l-4.62,1.45
			C328.19,48.04,323.01,31.51,323.01,31.51z M332.17,44.89c2.63-0.82,3.39-3.2,2.35-6.51l-0.8-2.56c-1.04-3.32-3.02-4.83-5.65-4
			l-2.53,0.79l4.1,13.07L332.17,44.89z"/>
	</g>
</g>
<g>
	<path class="st0" d="M438.42,39.32l-7.54-6.48c-2.87-2.46-3.2-6.78-0.73-9.65l6.48-7.54c2.46-2.87,6.78-3.2,9.65-0.73l7.54,6.48
		c2.87,2.46,3.2,6.79,0.73,9.65l-6.48,7.54C445.61,41.45,441.29,41.78,438.42,39.32z"/>
	<g>
		<path class="st1" d="M434.36,31.13l-1.51-1.29l10.75-12.51l4.55,3.91c2.31,1.99,2.41,4.41,0.47,6.67
			c-1.72,2.01-3.93,2.36-6.09,0.85l-1.46,8.16l-1.69-1.45l1.54-7.96l-1.99-1.71L434.36,31.13z M443.06,27.1
			c1.26,1.08,2.58,1.06,3.58-0.1l0.8-0.93c1-1.17,0.82-2.48-0.44-3.55l-3.01-2.59l-3.94,4.59L443.06,27.1z"/>
	</g>
</g>
<g>
	<path class="st2" d="M455.07,135.69l-10.37,3.86c-3.94,1.47-8.33-0.54-9.8-4.48l-3.86-10.37c-1.47-3.94,0.54-8.33,4.48-9.8
		l10.37-3.86c3.94-1.47,8.33,0.54,9.8,4.48l3.86,10.37C461.02,129.83,459.01,134.22,455.07,135.69z"/>
	<g>
		<path class="st1" d="M437.09,118.55l4.81-1.79c4.19-1.56,7.36,0.63,9.46,6.27c2.1,5.64,1.13,9.37-3.06,10.93l-4.81,1.79
			C443.49,135.76,437.09,118.55,437.09,118.55z M447.53,132.21c2.74-1.02,3.41-3.57,2.13-7.02l-0.99-2.66
			c-1.28-3.45-3.47-4.94-6.2-3.92l-2.64,0.98l5.06,13.61L447.53,132.21z"/>
	</g>
</g>
<g>
	<path class="st0" d="M388.17,123.54l-9.27-3.21c-3.52-1.22-5.39-5.07-4.17-8.59l3.21-9.27c1.22-3.52,5.07-5.39,8.59-4.17l9.27,3.21
		c3.53,1.22,5.39,5.07,4.17,8.59l-3.21,9.27C395.54,122.9,391.69,124.76,388.17,123.54z"/>
	<g>
		<path class="st1" d="M381.48,117.5l-1.85-0.64l5.32-15.38l5.6,1.94c2.84,0.98,3.81,3.17,2.85,5.95c-0.85,2.47-2.75,3.59-5.28,2.99
			l1.62,8.01l-2.07-0.72l-1.47-7.86l-2.45-0.85L381.48,117.5z M387.99,110.65c1.54,0.53,2.75,0.04,3.25-1.39l0.4-1.15
			c0.5-1.43-0.15-2.57-1.69-3.1l-3.7-1.28l-1.95,5.64L387.99,110.65z"/>
	</g>
</g>
<g>
	<path class="st2" d="M556.86,95.66l-10.57,6.65c-4.02,2.53-9.32,1.32-11.85-2.7l-6.65-10.57c-2.53-4.02-1.32-9.32,2.7-11.85
		l10.57-6.65c4.02-2.53,9.32-1.32,11.85,2.7l6.64,10.57C562.08,87.83,560.87,93.14,556.86,95.66z"/>
	<g>
		<path class="st1" d="M533.06,80.86l4.9-3.08c4.27-2.68,8.28-1,11.89,4.76c3.62,5.75,3.4,10.09-0.87,12.78l-4.9,3.08
			C544.09,98.4,533.06,80.86,533.06,80.86z M547.73,93.55c2.79-1.75,2.95-4.73,0.74-8.25l-1.71-2.71c-2.21-3.52-4.96-4.66-7.75-2.91
			l-2.69,1.69l8.72,13.87L547.73,93.55z"/>
	</g>
</g>
<g>
	<path class="st0" d="M325.28,148.15l-4.08-10.24c-1.55-3.89,0.35-8.3,4.24-9.86l10.24-4.08c3.89-1.55,8.3,0.35,9.86,4.24
		l4.08,10.24c1.55,3.89-0.35,8.31-4.24,9.86l-10.24,4.08C331.25,153.94,326.84,152.04,325.28,148.15z"/>
	<g>
		<path class="st1" d="M325.51,138.02l-0.81-2.04l16.99-6.77l2.46,6.18c1.25,3.14,0.1,5.57-2.96,6.79c-2.73,1.09-5.07,0.3-6.41-2.3
			l-5.62,7.26l-0.91-2.29l5.6-7.03l-1.08-2.7L325.51,138.02z M336.12,138.53c0.68,1.7,1.99,2.37,3.57,1.74l1.27-0.5
			c1.58-0.63,2.08-2.01,1.4-3.71l-1.63-4.09l-6.23,2.48L336.12,138.53z"/>
	</g>
</g>
<g>
	<path class="st2" d="M532.98,176.94l-5.39,5.06c-2.05,1.92-5.27,1.82-7.19-0.23l-5.06-5.39c-1.92-2.05-1.82-5.27,0.23-7.19
		l5.39-5.06c2.05-1.92,5.27-1.82,7.19,0.23l5.06,5.39C535.13,171.8,535.03,175.02,532.98,176.94z"/>
	<g>
		<path class="st1" d="M517.48,171.04l2.5-2.34c2.18-2.04,4.69-1.52,7.45,1.41s3.12,5.48,0.94,7.52l-2.5,2.34
			C525.87,179.98,517.48,171.04,517.48,171.04z M527.44,176.75c1.42-1.33,1.18-3.08-0.51-4.87l-1.3-1.38
			c-1.68-1.79-3.41-2.14-4.83-0.81l-1.37,1.29l6.64,7.07L527.44,176.75z"/>
	</g>
</g>
<g>
	<path class="st0" d="M397.47,71.32l-5.83-4.91c-2.22-1.87-2.5-5.18-0.63-7.4l4.91-5.83c1.87-2.22,5.18-2.5,7.4-0.63l5.83,4.91
		c2.22,1.87,2.5,5.18,0.63,7.4l-4.91,5.83C403,72.9,399.69,73.19,397.47,71.32z"/>
	<g>
		<path class="st1" d="M394.3,65.07l-1.16-0.98l8.15-9.68l3.52,2.97c1.79,1.51,1.88,3.36,0.41,5.11c-1.31,1.55-2.99,1.84-4.66,0.7
			l-1.06,6.26l-1.3-1.1l1.12-6.12l-1.54-1.3L394.3,65.07z M400.94,61.92c0.97,0.82,1.98,0.79,2.74-0.11l0.61-0.72
			c0.76-0.9,0.61-1.9-0.36-2.72l-2.33-1.96l-2.99,3.55L400.94,61.92z"/>
	</g>
</g>
<g>
	<path class="st2" d="M380.57,94.04l-12.65-0.43c-4.81-0.16-8.57-4.2-8.41-9l0.43-12.65c0.16-4.81,4.2-8.57,9-8.41l12.65,0.43
		c4.81,0.16,8.57,4.2,8.41,9l-0.43,12.65C389.41,90.44,385.38,94.2,380.57,94.04z"/>
	<g>
		<path class="st1" d="M369.02,68.09l5.86,0.2c5.11,0.17,7.51,3.87,7.28,10.75c-0.24,6.88-2.88,10.4-7.99,10.23l-5.86-0.2
			C368.3,89.07,369.02,68.09,369.02,68.09z M374.12,87.07c3.34,0.11,5.16-2.29,5.31-6.5l0.11-3.25c0.14-4.21-1.52-6.73-4.85-6.85
			l-3.22-0.11l-0.57,16.59L374.12,87.07z"/>
	</g>
</g>
<g>
	<path class="st0" d="M505.33,102.48l-1.7-9.78c-0.65-3.72,1.84-7.25,5.56-7.9l9.78-1.7c3.72-0.65,7.25,1.84,7.9,5.56l1.7,9.78
		c0.65,3.72-1.84,7.25-5.56,7.9l-9.78,1.7C509.51,108.68,505.98,106.19,505.33,102.48z"/>
	<g>
		<path class="st1" d="M507.41,93.6l-0.34-1.95l16.22-2.82l1.02,5.9c0.52,3-0.94,4.93-3.87,5.44c-2.6,0.45-4.52-0.68-5.23-3.21
			l-6.3,5.35l-0.38-2.18l6.24-5.15l-0.45-2.58L507.41,93.6z M516.66,96.01c0.28,1.63,1.31,2.45,2.82,2.19l1.21-0.21
			c1.51-0.26,2.2-1.39,1.92-3.01l-0.68-3.9l-5.95,1.03L516.66,96.01z"/>
	</g>
</g>
<g>
	<path class="st2" d="M346.33,50.7l-10-6.73c-3.8-2.56-4.81-7.71-2.25-11.51l6.73-10c2.56-3.8,7.71-4.81,11.51-2.25l10,6.72
		c3.8,2.56,4.81,7.71,2.25,11.51l-6.72,10C355.28,52.25,350.13,53.25,346.33,50.7z"/>
	<g>
		<path class="st1" d="M350.08,23.92l4.63,3.12c4.04,2.72,4.12,6.91,0.46,12.35s-7.57,6.95-11.61,4.23l-4.63-3.12
			C338.92,40.5,350.08,23.92,350.08,23.92z M344.63,41.82c2.64,1.77,5.33,0.75,7.56-2.57l1.73-2.57c2.24-3.33,2.17-6.2-0.47-7.98
			L350.91,27l-8.82,13.11L344.63,41.82z"/>
	</g>
</g>
<g>
	<path d="M23.96,40.7H6.15v-2.43l9.7-9.3c2.58-2.5,4.41-5.25,4.41-8.03v-0.76c0-3.26-1.91-5.57-5.73-5.57c-3.7,0-5.53,2.07-6.4,5.01
		l-2.15-0.79c1.03-3.38,3.58-6.36,8.63-6.36c5.25,0,8.19,3.18,8.19,7.91c0,4.02-2.19,7-5.53,10.1l-8.55,8.11h15.23V40.7z"/>
	<path d="M29.37,26.82c0-9.5,3.06-14.35,9.38-14.35c6.32,0,9.38,4.85,9.38,14.35s-3.06,14.36-9.38,14.36
		C32.43,41.17,29.37,36.32,29.37,26.82z M45.63,28.69v-3.74c0-6.48-2.19-10.42-6.88-10.42c-4.69,0-6.88,3.94-6.88,10.42v3.74
		c0,6.48,2.19,10.42,6.88,10.42C43.44,39.11,45.63,35.17,45.63,28.69z"/>
	<path d="M71.67,40.7H53.86v-2.43l9.7-9.3c2.58-2.5,4.41-5.25,4.41-8.03v-0.76c0-3.26-1.91-5.57-5.73-5.57
		c-3.7,0-5.53,2.07-6.4,5.01l-2.15-0.79c1.03-3.38,3.58-6.36,8.63-6.36c5.25,0,8.19,3.18,8.19,7.91c0,4.02-2.19,7-5.53,10.1
		l-8.55,8.11h15.23V40.7z"/>
	<path d="M78.11,40.7v-2.11h8.11v-23.9h-0.2l-7.63,6.8l-1.35-1.51l7.91-7.04h3.66v25.65h7.63v2.11H78.11z"/>
	<path d="M13.22,88.41L3.92,60.65H6.5l8.19,25.33h0.16l8.27-25.33h2.5l-9.38,27.76H13.22z"/>
	<path d="M29.84,61.09v-0.4c0-0.83,0.48-1.43,1.55-1.43s1.55,0.6,1.55,1.43v0.4c0,0.83-0.48,1.43-1.55,1.43S29.84,61.93,29.84,61.09
		z M30.28,68.05h2.27v20.36h-2.27V68.05z"/>
	<path d="M39.94,88.41V68.05h2.27v3.66h0.16c0.8-1.91,2.58-3.66,6.08-3.66h1.35v2.23h-1.79c-3.38,0-5.81,1.59-5.81,4.21v13.92H39.94
		z"/>
	<path d="M60.1,96.84c-6.2,0-8.79-1.91-8.79-5.09c0-2.31,1.31-3.66,3.5-4.29v-0.32c-1.27-0.52-1.91-1.43-1.91-2.78
		c0-1.99,1.51-2.98,3.46-3.5V80.7c-2.35-1.07-3.78-3.26-3.78-6.2c0-4.1,2.9-6.92,7.4-6.92c1.59,0,2.98,0.36,4.1,0.99v-0.99
		c0-1.23,0.56-2.07,1.87-2.07h3.5v1.99h-4.14v1.95c1.35,1.23,2.15,2.98,2.15,5.05c0,4.14-2.94,6.96-7.44,6.96
		c-0.72,0-1.43-0.12-2.11-0.24c-1.75,0.48-3.02,1.27-3.02,2.62c0,1.19,1.03,1.83,3.26,1.83h4.73c4.89,0,7,1.95,7,5.13
		C69.88,94.93,66.46,96.84,60.1,96.84z M62.89,87.77h-6.6c-1.75,0.6-2.82,1.75-2.82,3.5c0,2.11,1.75,3.7,5.29,3.7h2.54
		c3.94,0,6.4-1.27,6.4-4.02C67.7,89.01,66.5,87.77,62.89,87.77z M65.03,75.13v-1.27c0-2.78-1.91-4.45-5.01-4.45
		c-3.14,0-5.01,1.67-5.01,4.45v1.27c0,2.86,1.91,4.49,5.01,4.49S65.03,77.99,65.03,75.13z"/>
	<path d="M73.78,61.09v-0.4c0-0.83,0.48-1.43,1.55-1.43s1.55,0.6,1.55,1.43v0.4c0,0.83-0.48,1.43-1.55,1.43S73.78,61.93,73.78,61.09
		z M74.22,68.05h2.27v20.36h-2.27V68.05z"/>
	<path d="M83.88,88.41V68.05h2.27v3.22h0.12c0.91-2.11,2.74-3.7,6-3.7c4.33,0,6.88,2.78,6.88,7.75v13.08h-2.27V75.73
		c0-4.14-1.83-6.12-5.21-6.12c-2.86,0-5.53,1.47-5.53,4.49v14.32H83.88z"/>
	<path d="M105.83,61.09v-0.4c0-0.83,0.48-1.43,1.55-1.43s1.55,0.6,1.55,1.43v0.4c0,0.83-0.48,1.43-1.55,1.43
		S105.83,61.93,105.83,61.09z M106.26,68.05h2.27v20.36h-2.27V68.05z"/>
	<path d="M129.92,88.41c-1.75,0-2.47-0.99-2.58-2.5v-0.72h-0.2c-0.91,2.27-2.98,3.7-6.16,3.7c-4.25,0-6.72-2.23-6.72-6
		c0-3.62,2.39-5.88,8.27-5.88h4.69v-2.39c0-3.34-1.75-5.05-5.21-5.05c-2.7,0-4.45,1.19-5.57,3.3l-1.43-1.19
		c1.11-2.35,3.38-4.1,7.08-4.1c4.73,0,7.4,2.51,7.4,6.8v12.05h2.74v1.99H129.92z M127.22,82.49v-3.78h-4.77
		c-4.06,0-5.81,1.39-5.81,3.66v0.95c0,2.35,1.87,3.62,4.65,3.62C124.59,86.94,127.22,85.23,127.22,82.49z"/>
	<path d="M24.95,131.87h-0.12c-0.99,2.82-3.86,4.73-8.15,4.73c-6.84,0-11.21-4.97-11.21-14.36c0-9.34,4.33-14.35,11.37-14.35
		c4.73,0,8.03,2.39,9.7,5.92l-1.95,1.15c-1.35-3.06-4.1-4.93-7.75-4.93c-5.37,0-8.83,3.9-8.83,10.5v3.38
		c0,6.64,3.42,10.54,9.03,10.54c4.21,0,7.79-2.23,7.79-6.76v-3.34h-6.48v-2.07h8.83v13.84h-2.23V131.87z"/>
	<path d="M46.58,132.9h-0.16c-0.76,1.91-2.43,3.7-5.92,3.7c-4.33,0-6.92-2.78-6.92-7.75v-13.08h2.27v12.65
		c0,4.17,1.87,6.16,5.25,6.16c2.82,0,5.49-1.47,5.49-4.53v-14.28h2.27v20.36h-2.27V132.9z"/>
	<path d="M56.24,106.7h2.27v12.33h0.12c0.99-2.27,3.1-3.74,6.2-3.74c5.21,0,8.39,3.94,8.39,10.66s-3.18,10.66-8.39,10.66
		c-3.1,0-5.09-1.47-6.2-3.74h-0.12v3.26h-2.27V106.7z M70.8,127.38v-2.86c0-4.37-2.43-7.2-6.48-7.2c-3.14,0-5.81,1.87-5.81,4.53
		v8.07c0,2.86,2.66,4.65,5.81,4.65C68.37,134.57,70.8,131.75,70.8,127.38z"/>
	<path d="M77.44,125.94c0-6.68,3.46-10.66,8.87-10.66c5.21,0,8.59,4.06,8.59,10.02v1.07H79.82v0.99c0,4.25,2.47,7.24,6.64,7.24
		c2.9,0,5.05-1.43,6.16-4.1l1.67,1.11c-1.27,2.98-4.1,4.97-7.95,4.97C80.9,136.6,77.44,132.62,77.44,125.94z M79.82,124.43v0.2
		h12.61v-0.32c0-4.29-2.47-7.12-6.12-7.12C82.37,117.2,79.82,120.14,79.82,124.43z"/>
	<path d="M100.66,136.12v-20.36h2.27v3.66h0.16c0.8-1.91,2.58-3.66,6.08-3.66h1.35v2.23h-1.79c-3.38,0-5.81,1.59-5.81,4.21v13.92
		H100.66z"/>
	<path d="M114.85,136.12v-20.36h2.27v3.22h0.12c0.91-2.11,2.74-3.7,6-3.7c4.33,0,6.88,2.78,6.88,7.75v13.08h-2.27v-12.68
		c0-4.14-1.83-6.12-5.21-6.12c-2.86,0-5.53,1.47-5.53,4.49v14.32H114.85z"/>
	<path d="M151.23,136.12c-1.75,0-2.47-0.99-2.58-2.5v-0.72h-0.2c-0.91,2.27-2.98,3.7-6.16,3.7c-4.25,0-6.72-2.23-6.72-6
		c0-3.62,2.39-5.88,8.27-5.88h4.69v-2.39c0-3.34-1.75-5.05-5.21-5.05c-2.7,0-4.45,1.19-5.57,3.3l-1.43-1.19
		c1.11-2.35,3.38-4.1,7.08-4.1c4.73,0,7.4,2.51,7.4,6.8v12.05h2.74v1.99H151.23z M148.53,130.2v-3.78h-4.77
		c-4.06,0-5.81,1.39-5.81,3.66v0.95c0,2.35,1.87,3.62,4.65,3.62C145.9,134.65,148.53,132.94,148.53,130.2z"/>
	<path d="M161.77,136.12c-1.63,0-2.5-0.99-2.5-2.5v-15.87h-3.54v-1.99h2.31c1.11,0,1.43-0.4,1.43-1.55v-4.14h2.07v5.69h4.61v1.99
		h-4.61v16.38h4.29v1.99H161.77z"/>
	<path d="M169.8,125.94c0-6.68,3.5-10.66,8.87-10.66s8.87,3.98,8.87,10.66s-3.5,10.66-8.87,10.66S169.8,132.62,169.8,125.94z
		 M185.11,127.22v-2.54c0-4.73-2.5-7.36-6.44-7.36c-3.94,0-6.44,2.58-6.44,7.36v2.54c0,4.73,2.5,7.36,6.44,7.36
		C182.6,134.57,185.11,131.99,185.11,127.22z"/>
	<path d="M193.3,136.12v-20.36h2.27v3.66h0.16c0.79-1.91,2.58-3.66,6.08-3.66h1.35v2.23h-1.79c-3.38,0-5.81,1.59-5.81,4.21v13.92
		H193.3z"/>
	<path d="M207.06,108.8v-0.4c0-0.83,0.48-1.43,1.55-1.43s1.55,0.6,1.55,1.43v0.4c0,0.83-0.48,1.43-1.55,1.43
		S207.06,109.64,207.06,108.8z M207.49,115.76h2.27v20.36h-2.27V115.76z"/>
	<path d="M231.15,136.12c-1.75,0-2.47-0.99-2.58-2.5v-0.72h-0.2c-0.92,2.27-2.98,3.7-6.16,3.7c-4.25,0-6.72-2.23-6.72-6
		c0-3.62,2.39-5.88,8.27-5.88h4.69v-2.39c0-3.34-1.75-5.05-5.21-5.05c-2.7,0-4.45,1.19-5.57,3.3l-1.43-1.19
		c1.11-2.35,3.38-4.1,7.08-4.1c4.73,0,7.4,2.51,7.4,6.8v12.05h2.74v1.99H231.15z M228.45,130.2v-3.78h-4.77
		c-4.06,0-5.81,1.39-5.81,3.66v0.95c0,2.35,1.87,3.62,4.65,3.62C225.82,134.65,228.45,132.94,228.45,130.2z"/>
	<path d="M240.61,136.12c-1.63,0-2.5-0.99-2.5-2.47V106.7h2.27v27.44h3.14v1.99H240.61z"/>
	<path d="M6.9,183.84v-27.76h15.87v2.11H9.29v10.5h12.57v2.11H9.29v13.04H6.9z"/>
	<path d="M25.99,173.66c0-6.68,3.5-10.66,8.87-10.66s8.87,3.98,8.87,10.66s-3.5,10.66-8.87,10.66S25.99,180.34,25.99,173.66z
		 M41.29,174.93v-2.54c0-4.73-2.5-7.36-6.44-7.36c-3.94,0-6.44,2.58-6.44,7.36v2.54c0,4.73,2.51,7.36,6.44,7.36
		C38.79,182.29,41.29,179.7,41.29,174.93z"/>
	<path d="M49.48,183.84v-20.36h2.27v3.66h0.16c0.8-1.91,2.58-3.66,6.08-3.66h1.35v2.23h-1.79c-3.38,0-5.81,1.59-5.81,4.21v13.92
		H49.48z"/>
	<path d="M61.93,173.66c0-6.68,3.46-10.66,8.87-10.66c5.21,0,8.59,4.06,8.59,10.02v1.07H64.32v0.99c0,4.25,2.47,7.24,6.64,7.24
		c2.9,0,5.05-1.43,6.16-4.1l1.67,1.11c-1.27,2.98-4.1,4.97-7.95,4.97C65.39,184.31,61.93,180.34,61.93,173.66z M64.32,172.15v0.2
		h12.61v-0.32c0-4.29-2.47-7.12-6.12-7.12C66.86,164.91,64.32,167.85,64.32,172.15z"/>
	<path d="M83.52,173.66c0-6.72,3.22-10.66,8.79-10.66c3.74,0,6.04,1.83,7.24,4.49l-1.91,0.95c-0.95-2.19-2.66-3.42-5.33-3.42
		c-4.14,0-6.36,2.9-6.36,7.2v2.86c0,4.29,2.23,7.2,6.36,7.2c2.78,0,4.69-1.27,5.85-3.54l1.67,1.11c-1.31,2.7-3.78,4.45-7.52,4.45
		C86.74,184.31,83.52,180.38,83.52,173.66z"/>
	<path d="M118.87,183.84c-1.75,0-2.47-0.99-2.58-2.5v-0.72h-0.2c-0.91,2.27-2.98,3.7-6.16,3.7c-4.25,0-6.72-2.23-6.72-6
		c0-3.62,2.39-5.88,8.27-5.88h4.69v-2.39c0-3.34-1.75-5.05-5.21-5.05c-2.7,0-4.45,1.19-5.57,3.3l-1.43-1.19
		c1.11-2.35,3.38-4.1,7.08-4.1c4.73,0,7.4,2.51,7.4,6.8v12.05h2.74v1.99H118.87z M116.16,177.91v-3.78h-4.77
		c-4.06,0-5.81,1.39-5.81,3.66v0.95c0,2.35,1.87,3.62,4.65,3.62C113.54,182.37,116.16,180.66,116.16,177.91z"/>
	<path d="M123.76,180.42l1.67-1.31c1.67,2.19,3.62,3.26,6.32,3.26c3.1,0,4.89-1.39,4.89-3.86c0-2.15-1.23-3.38-4.18-3.82l-1.67-0.28
		c-3.7-0.56-6.24-2.03-6.24-5.69c0-3.82,2.98-5.73,6.92-5.73c3.38,0,5.45,1.31,6.96,3.14l-1.51,1.39c-1.07-1.27-2.74-2.58-5.57-2.58
		c-2.9,0-4.61,1.35-4.61,3.66c0,2.35,1.47,3.26,4.37,3.74l1.63,0.24c4.14,0.64,6.08,2.42,6.08,5.69c0,3.78-2.74,6.04-7.24,6.04
		C128.05,184.31,125.59,182.92,123.76,180.42z"/>
	<path d="M148.13,183.84c-1.63,0-2.5-0.99-2.5-2.5v-15.87h-3.54v-1.99h2.31c1.11,0,1.43-0.4,1.43-1.55v-4.14h2.07v5.69h4.61v1.99
		h-4.61v16.38h4.29v1.99H148.13z"/>
</g>
<path class="st4" d="M538.96,117.99l-0.04-0.19l0.22,0.07l0.05,0.08l-0.14,0.24L538.96,117.99z M541.84,115.48l0.14-0.39l2.07-0.78
	l1.43-0.55l-0.31,0.98l-0.24,1.08l-0.18,0.35l-0.07,0.05l-0.18-0.19l0.06-0.1l0.25,0.07l0.11-0.21l-0.05-0.11l-0.28,0.03l-0.07-0.07
	l-0.23,0.09l-0.06,0.24l0.02,0.11l-0.13,0.04l-0.11,0.1l-0.25,0.46l-0.14,0.36l-0.08,0.26l-0.11,0.54l-0.07,0.17l-0.02,0.52
	l-0.06,0.1l0.03,0.27l0.01,0.39l-0.06,0.25l0.01,0.11l0.11,0.38l0.14,0.04l-0.12,0.42l-0.26,0.79l-0.15,0l-0.02,0.18l0.1,0.11
	l0.22-0.05l0.07,0.19l-0.1,0.22l-0.11,0.37l-0.11,0.44l-0.05,0.16l0,0.2l-0.06,0.22l-0.08,0.2l-0.15,0.25l-0.06-0.05l-0.12,0.11
	l0.17,0.49l-0.03,0.27l0.02,0.17l-0.1,0.11l0.08,0.22l-0.1,0.15l0.02,0.1l-0.18,0.26l-0.13,0.32l-0.13,0.26l-0.16,0.11l0.01-0.14
	l-0.18-0.05l-0.13,0.14l-0.19,0.1l0.07,0.12l0.13,0l0.09,0.05l0.02,0.11l-0.15,0.12l-0.15-0.01l-0.08-0.08l0.05-0.2l-0.03-0.17
	l-0.19-0.39l-0.1-0.09l-0.18-0.22l-0.19-0.17l-0.05-0.34l-0.06-0.02l-0.17-0.22l-0.01-0.14l0.07-0.15l-0.15-0.23l-0.03-0.21
	l0.01-0.21l0.07-0.18l0.05-0.35l-0.03-0.1l0.1-0.07l0.02-0.19l-0.13-0.03l-0.06-0.12l-0.04-0.28l0.05-0.26l0.06-0.17l-0.07-0.06
	l-0.03-0.3l0.02-0.28l0.05-0.17l0.02-0.21l-0.13-0.14l0.04-0.21l0.12-0.11l-0.11-0.11l0.07-0.35l0.06-0.05l0.1,0.2l0.15-0.03
	l-0.1-0.29l-0.09-0.05l0-0.2l0.13-0.22l0.13,0.01l0.08-0.09l-0.11-0.17l0.02-0.18l0.06-0.15l0.1-0.14l0.13-0.02l0.11-0.14
	l-0.07-0.06l-0.22,0.12l-0.06-0.07l0.12-0.22l0.05,0.03l0.14-0.09l-0.02-0.18l-0.1-0.05l-0.08-0.11l-0.06,0.05l-0.08-0.12l0.17-0.24
	l0.21-0.06l0.31,0.16l0.14-0.06l0.07-0.09l-0.09-0.33l0.06-0.39l0.17,0.12l0.12-0.21l-0.19-0.06l-0.06-0.09l0.1-0.12l-0.03-0.16
	l-0.09,0.04l-0.12-0.16l-0.22,0.06l-0.14,0.1l-0.01-0.11l-0.1-0.05l0.11-0.15l0.05-0.18l0.05-0.06l0.11,0.09l0.09-0.04l0.1-0.18
	l0.14,0.03l0.22-0.05l0.03-0.13l-0.03-0.12L541.84,115.48z M538.13,116.62l0.5-0.13l-0.2,0.14l-0.02,0.08l0.08,0.12l-0.07,0.05
	l-0.09-0.06l0.03-0.14l-0.06-0.08l-0.12,0.05L538.13,116.62z M483.6,136.19l0.11,0.01l0.17,0.13l0.05,0.22l-0.09,0.06l-0.17,0.24
	l-0.14,0.06l-0.02,0.08l0.09,0.18l0.09,0.06l0.1-0.05l0.08,0.1l0.18-0.03l0.16,0.07l-0.03,0.1l0.12,0.14l0.1,0.25l-0.02,0.2
	l0.27,0.3l0.19,0.06l0.09,0.11l0.15-0.02l0.21,0.11l0.08,0.09l0.07,0.22l0.15-0.02l0.06,0.04l0.15-0.01l0.13-0.12l0.2-0.01l0.1,0.07
	l0.12-0.04l0.26,0.21l0,0.15l0.07,0.04l0.14-0.07l0.1,0.12l0.32,0.11l0.12,0.12l1.09-0.35l0.06-0.04l0.05-0.17l0.2-0.13l0.09-0.1
	l-0.01-0.25l0.22-0.04l0.15-0.15l0-0.07l0.2-0.16l0.09,0.02l0.1-0.05l0.02-0.1l0.03-0.39l0.08-0.15l0.12-0.01l0.06-0.26l0.52,0.35
	l1.09,0.53l0.17-0.15l0.29-0.33l0.47-0.32l0.25-0.14l0.42-0.18l0.51-0.29l0.03,0.11l0.13-0.02l0.16-0.09l0.24-0.19l0.15-0.15
	l0.23-0.36l0.16-0.14l-0.43-0.36l0.11-0.38l-0.05-0.09l0.02-0.13l0.15,0.04l0.09-0.04l0.35,0.17l0.08,0.09l0.15-0.03l0.2,0.23
	l0.09-0.06l0.46-0.37l0.41-0.43l0.16-0.2l0.26-0.25l0.1-0.16l0.27-0.28l0.14-0.04l0.21-0.15l0.25,0.24l0,0.16l0.05,0.11l0.22,0.1
	l0.26-0.26l0.13-0.18l0.5-0.51l-0.05-0.05l0.3-0.19l0.26-0.25l0.08-0.34l-0.09-0.01l-0.14,0.15l-0.22-0.05l0.14-0.16l-0.21-0.18
	l0.56-0.54l0.14-0.18l0.12-0.29l-0.2-0.07l-0.29-0.03l-0.15-0.1l-0.27-0.37l0.07-0.08l0.23-0.49l-0.13-0.07l-0.01-0.23l0.07-0.03
	l0.04-0.15l0.14-0.21l-0.1-0.11l0.05-0.24l0.1-0.1l0.01-0.11l0.11-0.2l0-0.11l0.11-0.39l0.09-0.17l0.08,0.03l0.26-0.53l0.06,0
	l0.13-0.34l0.2-0.25l0.32-0.53l0.02-0.2l0.08-0.27l0.08-0.48l0-0.21l0.18-0.36l-0.13-0.06l-0.12-0.22l0.12-0.13l0.05-0.31l-0.1-0.2
	l0.04-0.11l0.13-0.1l0.03-0.16l0.1-0.11l0.22-0.43l0.1-0.05l0.02-0.11l0.1-0.01l0.24-0.38l-0.13-0.18l-0.08,0l-0.11-0.13l0.07-0.26
	l0.18-0.2l0.01-0.27l0.2-0.02l0.14-0.16l-0.09-0.1l0.01-0.18l0.1-0.39l0.11-0.23l-0.05-0.23l-0.07-0.15l-0.11-0.12l-0.02-0.24
	l0.09-0.11l-0.01-0.12l0.16-0.1l-0.14-0.13l0.03-0.13l-0.06-0.13l-0.01-0.27l0.06-0.29l0.82,0.15l0.16,0l0.21,0.07l0.2,0.16
	l0.66,0.82l1.1,0.1l0.6,0.04l0.11-0.07l0.16-0.16l-0.05-0.08l0.12-0.12l0.08-0.24l0.1-0.01l-0.02-0.19l0.11-0.11l0.02-0.11
	l0.08-0.12l-0.05-0.18l-0.01-0.22l0.22-0.81l-0.01-0.23l0.01-0.25l0.07-0.25l0.01-0.2l0.08-0.11l0.14,0.02l0.12-0.07l0-0.35
	l-0.13-0.17l-0.01-0.23l0.05-0.37l0.1-0.19l0-0.23l-0.06-0.08l0.06-0.1l0.18-0.05l-0.01-0.33l0.11-0.11l-0.01-0.27l0.05-0.07
	l1.45,0.75l0.1-0.44l0.14-0.5l0.04-0.34l0.1-0.4l0.06-0.11l0.16-0.15l0.03-0.21l0.07-0.16l0.14-0.09l0.12,0.31l0.1-0.16l0.06-0.02
	l0.06-0.13l0.07-0.03l0.13-0.32l0.05-0.28l0.08,0l0.04-0.19l0.08-0.04l0.23,0.17l0.06-0.11l0.06-0.26l0.13-0.31l0.06-0.09
	l-0.24-0.12l0.21-0.43l0.13-0.17l0.03-0.15l0.14-0.26l0.13-0.17l0.16-0.09l0.13-0.28l0-0.12l0.05-0.16l0.11-0.1l0.07-0.13
	l-0.18-0.08l-0.12-0.1l-0.05-0.11l-0.08,0l0.21-0.49l-0.02-0.12l-0.08-0.13l-0.11-0.03l0.16-0.38l0.02-0.14l0.18-0.36l0.06-0.3
	l0.01-0.19l-0.27-0.01l0.07-0.18l0.05-0.24l-0.19-0.15l-0.04-0.1l0.07-0.21l-0.05-0.16l-0.04-0.24l-0.04-0.08l0.68,0.31l0.28,0.11
	l1.21,0.61l0.19,0.08l0.37,0.18l0.87,0.4l2.35,1.1l0-0.2l0.04-0.23l0.05-0.13l-0.01-0.47l0.12-0.38l0-0.16l0.05-0.38l0-0.23
	l0.06-0.24l0.12-0.15l0.22-0.02l0.19-0.12l0.27,0.1l0.36,0.01l0.27-0.06l0.19-0.1l0.06,0.04l0.06,0.19l0.23,0.19l0.37,0.09
	l0.22,0.01l0.31,0.17l0.03,0.12l-0.1,0.16l0.03,0.17l-0.08,0.14l-0.17,0.09l-0.07,0.16l-0.02,0.33l0.09,0.22l0.11,0.09l0.31,0.04
	l0.11,0.09l0.21,0.26l0.1,0.02l0.3-0.01l0.47-0.05l0.32-0.11l0.27,0.07l0.23,0.02l0.21,0.1l0.2,0l0.1,0.04l0.02,0.13l-0.04,0.17
	l0.17,0.21l0.25,0.08l0.24,0l0.3-0.09l0.19,0l0.26,0.25l0.09,0.05l0.22,0.22l0.11,0.06l0.27,0.02l0.07,0.12l0.19,0.18l0.08-0.03
	l0.15,0.23L526,108.5l0.07,0.21l0.05,0.28l0.13,0.62l0.06,0.18l-0.01,0.15l-0.05,0.07l-0.25,0.08l-0.2,0.21l-0.12,0.17l-0.06,0.17
	l0.04,0.3l0.1,0.17l-0.27,0.05l-0.07,0.16l-0.29,0.18l-0.19-0.21l0.1-0.05l0.06-0.16l-0.12-0.07l-0.06,0.04l-0.25,0.02l0.16,0.14
	l-0.02,0.11l-0.16,0.08l0.06,0.17l0,0.19l-0.04,0.1l0.11,0.08l-0.14,0.17l0.11,0.28l-0.11,0.15l0.01,0.27l-0.07,0.27l-0.08,0.16
	l-0.04,0.39l0.04,0.29l0.15,0.29l0.14,0.22l-0.05,0.04l0.04,0.14l0.24,0.11l0.11,0.11l0.06,0.14l0.09,0.08l0.16,0.05l0.24-0.04
	l0.3-0.2l0.23-0.07l0.15-0.1l0.16-0.32l0.13-0.02l0.18-0.08l0.19-0.03l0.1-0.15l0.1-0.3l0.11-0.04l0.27,0.16l0.12,0.32l0.07,0.26
	l-0.12,0.2l-0.11-0.01l-0.14,0.06l0.18,0.1l0.11-0.06l0.36,0.29l0.03,0.08l0.18-0.04l0.24,0.17l0.11,0.22l-0.07,0.14l0.09,0.14
	l0.27,0.08l0.27,0l0.41,0.21l0.16-0.03l0.21,0.04l0.14-0.04l0.22-0.12l0.38-0.07l0.19,0.09l0.08,0.08l0.04,0.16l0.1,0l0.18-0.27
	l0-0.14l0.1-0.03l0.27,0.09l0.12,0.13l0.2,0.12l0.05-0.08l-0.17-0.22l0.12-0.09l0.18,0.01l0.03,0.13l0.09,0.07l0.1,0.23l0.25,0.13
	l0.23,0.05l0.25,0.1l0.02,0.09l0.2,0.2l-0.07,0.02l-0.08,0.11l-0.1,0.01l0,0.21l0.19,0l0.19-0.12l0.2,0.04l0.17,0l0.22,0.18
	l-0.09,0.06l0.02,0.11l0.11-0.05l0.2-0.02l0.15,0.05l0.14,0.09l0.33,0.05l0.24-0.01l0.17,0.02l0.85,0.24l0.2,0.15l0.14,0.03l0,0.49
	l0.04,0.2l-0.09,0.25l-0.12,0.09l-0.07-0.11l-0.2,0.06l0.06,0.26l-0.06,0.11l0.12,0.2l0.07,0.27l0.1,0.25l-0.14-0.05l0.06,0.21
	l0.09,0.02l0.13,0.15l0.04,0.14l-0.28,0.15l0.12,0.09l-0.08,0.16l0,0.11l0.1,0.1l0.06,0.19l0.12,0l0.02-0.2l0.21,0.02l0.18,0.18
	l-0.11,0.07l-0.22-0.07l-0.07,0.08l-0.12-0.03l-0.19,0.1l-0.04,0.14l-0.23-0.15l-0.09-0.02l-0.1,0.06l-0.16-0.1l-0.14,0l-0.13-0.11
	l-0.1,0.08l-0.24-0.21l0.13-0.12l-0.19-0.19l-0.08,0.04l-0.06,0.13l0.07,0.11l-0.05,0.16l-0.03,0.26l-0.1,0.01l-0.26-0.13
	l-0.06-0.09l-0.04-0.23l-0.12-0.23l-0.16-0.07l-0.08-0.12l-0.1-0.06l-0.06-0.14l-0.21-0.26l-0.16,0.03l-0.19-0.09l-0.1-0.13
	l-0.19-0.07l-0.06,0.13l-0.1-0.11l-0.12-0.04l-0.14-0.13l-0.19,0.09l-0.24-0.12l-0.13-0.14l-0.11-0.04l0-0.13l-0.12-0.1l-0.18,0
	l-0.09-0.23l-0.14-0.12l-0.23-0.12l-0.11,0.04l-0.13-0.08l-0.11,0.05l-0.22-0.19l0.02-0.07l-0.1-0.19l-0.13-0.02l-0.1-0.08
	l-0.2,0.05l-0.12-0.13l-0.17,0.04l-0.03,0.23l0.13,0.07l0.22-0.08l0.15,0.02l-0.04,0.25l0.07-0.01l0.25,0.14l0.17,0.19l0.14-0.03
	l0.14,0.14l0.28,0.02l0.03,0.12l0.17,0.24l0.14,0.07l0.13,0.22l0.15,0.1l0.24,0.26l0.13,0.1l0.09,0.01l0.24-0.06l0.1,0.04l0.02,0.18
	l0.09,0.1l0.14,0.02l0.23-0.05l0.25,0.05l0.01,0.14l0.25,0.11l0.07,0.21l0.09,0.05l0.03,0.1l0.12,0.12l-0.07,0.11l0.18,0.07
	l-0.01,0.09l0.24,0.14l0.11,0.12l0.24,0.07l0.33-0.11l0.16-0.01l0.18-0.08l0.25-0.04l0.04,0.17l0.06,0.11l0.15,0.05l0.06-0.03
	l0.27,0.04l0.24-0.07l0.25-0.02l0.21,0.04l0.12-0.02l0.01,0.13l-0.07,0.08l-0.1,0.01l-0.08,0.1l-0.26,0.15l0.09,0.25l0.09,0.09
	l0.16-0.04l0.16,0.19l0.08-0.06l0.18-0.37l0.09,0.06l0.15,0.19l-0.09,0.07l-0.27-0.05l0,0.08l0.32,0.09l0.01,0.11l0.27,0.1
	l0.08,0.18l0.17,0.49l0.05,0.18l-0.06,0.23l-0.1,0.11l-0.01,0.08l0.09,0.23l0.02,0.2l-0.26-0.11l-0.11,0l-0.1-0.18l-0.06,0.03
	l-0.35-0.26l-0.05,0.04l-0.18-0.09l-0.15-0.01l-0.16-0.18l-0.07-0.17l-0.13,0.02l0,0.11l0.14,0.48l-0.17-0.12l-0.21,0.06l-0.11-0.05
	l-0.04,0.1l0.04,0.15l0.13,0.06l0.09-0.12l0.13,0.12l0.1,0.02l0.11,0.09l0.14,0l-0.09,0.14l0.05,0.07l-0.24,0.07l0.02,0.1l0.2,0.03
	l0.17-0.12l0.12,0.03l-0.01,0.13l0.12,0.04l0.09,0.13l0.23-0.03l-0.06,0.14l-0.15,0.04l-0.09,0.08l-0.26,0.05l-0.02,0.13l-0.11,0
	l-0.27,0.16l-0.12,0.03l-0.07-0.04l-0.18,0.17l-0.02,0.08l0.18,0.13l0.24,0.06l0.31-0.12l0.14-0.09l0.1-0.02l0.21-0.1l-0.08,0.27
	l0.15,0.13l0.03,0.23l-0.14,0.03l0,0.17l0.31-0.01l0.17-0.21l0.17,0.02l0.16,0.2l0.22,0.02l0.19,0.12l-0.03,0.14l0.25,0.1l0.12,0.14
	l-0.02,0.37l-0.03,0.3l0,0.43l-0.1,0.02l-0.05-0.13l-0.23,0.03l-0.04,0.12l-0.25,0.19l-0.13,0.22l-0.09,0.28l-0.13-0.02l-0.35-0.31
	l0.01-0.12l-0.22-0.2l-0.34-0.12l-0.35-0.14l-0.05-0.18l-0.19-0.08l-0.04,0.11l-0.11,0.07l-0.21-0.18l-0.19-0.08l-0.04-0.05
	l-0.21-0.05l-0.05-0.06l-0.05-0.19l0.05-0.03l0.06-0.19l-0.16-0.23l-0.07-0.15l-0.14-0.15l-0.23-0.12l-0.1,0l-0.31,0.08l-0.07,0.1
	l-0.26,0.13l-0.26,0.03l0.26,0.09l-0.04,0.15l-0.13,0.05l-0.27-0.15l-0.19-0.23l-0.31-0.08l-0.26,0.1l-0.18,0.03l-0.04-0.22
	l-0.05-0.01l-0.1,0.15l-0.1,0.06l-0.05,0.11l-0.09,0.01l-0.01,0.12l-0.22,0.02l-0.03,0.13l0.23,0.09l0.27,0.13l0.11-0.03l0.21-0.17
	l0.46-0.07l0.16-0.05l0.01,0.09l0.25,0.19l0.22,0.07l0.19,0.17l0.18,0.02l0.14-0.07l0.05-0.3l0.04-0.06l-0.01-0.26l0.05-0.04
	l0.2,0.12l0.09,0.1l-0.03,0.2l0.05,0.2l0.1,0.09l0.06,0.17l0.07,0.06l0.04,0.18l-0.03,0.27l0.03,0.2l0.16,0.18l0.14,0.04l0.32-0.08
	l0.26,0.02l0.14,0.13l-0.04,0.12l0.06,0.09l0.14-0.1l0.13,0.03l0.13,0.1l0.16,0.02l0.07,0.11l0.09,0.04l0.17-0.01l0.11,0.08
	l0.07,0.21l-0.1-0.01l-0.01,0.15l0.23,0.13l0.03,0.22l-0.08,0.08l0.05,0.12l0.09,0.01l0.08-0.08l0.17-0.06l-0.02-0.1l0.07-0.19
	l0.35,0.02l0.16-0.02l0.02-0.05l-0.06-0.28l0.3-0.07l0.13,0.31l0.29,0.04l0.05-0.05l-0.03-0.17l-0.12,0.02l-0.16-0.44l-0.02-0.26
	l0.12,0.07l0.14-0.05l0-0.16l0.19-0.03l0.1,0.02l0.37,0.15l0.14,0.04l0.42,0.01l0.41-0.02l0.51,0.06l0.06-0.07l0.21-0.12l0.12-0.19
	l0.13-0.07l0.19-0.01l0.13,0.05l0.11,0.18l0.36,0.7l0.16,0.34l0.31,0.56l0.47,0.75l0.48,0.64l0.3,0.51l0.17,0.37l-4.21,1.1
	l-1.43,0.37l-0.72,0.19l-0.32,0.08l-1.54,0.4l-0.65,0.18l-1.03,0.25l0.03,0.1l-1.69,0.43l-0.54,0.15l-0.17,0l-0.33,0.12l-5.13,1.33
	l-1.18,0.32l-2.43,0.65l-1.06,0.27l-2.12,0.58l-0.36,0.11l-0.9,0.23l-0.55,0.13l-1.25,0.33l-1.66,0.43l-2.62,0.7l-1.85,0.48
	l-0.61,0.17l-1.48,0.38l-2.08,0.53l-0.16,0.05l-2.05,0.53l-0.98,0.24l-0.66,0.17l-1.39,0.28l-1.76,0.36l-0.77,0.15l-0.24,0.06
	l-0.4,0.13l-0.29,0.07l-0.31,0.1l-1.04,0.22l-0.55,0.14l-0.53,0.1l-0.23,0.06l-0.84,0.17l-0.06,0l-0.69,0.17l-0.55,0.12l-0.63,0.17
	l-0.64,0.14l-0.33,0.04l-0.12,0.05l-0.3,0.06l-0.78,0.12l-0.72,0.17l0.21-0.36l-0.85,0.22l-1.76,0.41l-0.04,0.29l-2.02,0.52
	l-0.59,0.14l-0.82,0.21l-1.6,0.43l-0.2,0.03l-1.15,0.32l-0.66,0.18l-1.96,0.52l-1.32,0.34l-2.19,0.57l-0.16-0.01l-0.93,0.26
	l-1.71,0.45l-0.62,0.15l-0.51,0.1l0.2-0.25l-0.01-0.07l0.21-0.09l0.07-0.13l0.17-0.13l0.16-0.05l0.11-0.15l0.18-0.11l0.07-0.12
	l0.18-0.1l0.17-0.06l0.12,0.02l0.27-0.05l0.28-0.11l0.23-0.18l0.06-0.14l0.22-0.15l0.14-0.13l0.31-0.21l0.18-0.08l0.21-0.14
	l0.38-0.23l0.21-0.16l0.31-0.09l0.23-0.1l0.06-0.11l-0.08-0.15l0-0.14l-0.06-0.08l0.11-0.11l0.12-0.34l-0.08-0.16l0.11-0.14
	l0.1-0.06l-0.02-0.17l0.24-0.03l0.18-0.1l0.06,0.05l0.16-0.01l0.04-0.12l0.17-0.08l0.09,0l0.15-0.15l0.13-0.05l0.12-0.12l0.13-0.04
	l0-0.06l0.22-0.18l0.05-0.17l-0.09-0.05l0.11-0.25l-0.07-0.28l-0.15-0.17l-0.02-0.11l0.11-0.17l0.09-0.01l0.1-0.15l0.04-0.15
	l0.2-0.1l0.17-0.05l0.16-0.28l0.11,0l0-0.22l0.15-0.03l-0.01-0.2l-0.09-0.17l0-0.15l-0.1-0.42l0.3-0.28l0.08-0.01l0.15-0.16
	l0.03-0.1l0.16-0.07l0.05-0.12l0.24-0.31l0.11-0.1l0.22-0.26l0.26-0.17l0.16-0.22l0.42-0.32l0.16-0.08l0.41-0.27l0.06-0.01
	l0.22-0.15l0.09-0.19l0.11-0.07l0.04-0.16l0.83-1.23l0.56-0.81l0.45-0.67l0.08-0.14L483.6,136.19z"/>
<g>
	<path class="st1" d="M508.33,130.22l-0.58-7.58l0.91,0.2l0.24,3.78l0.19,2.86l0.05,0.01l1.35-2.53l1.78-3.34l0.88,0.19l-3.65,6.67
		L508.33,130.22z"/>
	<path class="st1" d="M516.88,132.06l-0.17-2.16l-2.5-0.54l-1.04,1.9l-0.89-0.19l3.72-6.65l1.13,0.24l0.65,7.59L516.88,132.06z
		 M516.41,125.46l-0.09-0.02l-1.74,3.22l2.09,0.45L516.41,125.46z"/>
</g>
<path class="st7" d="M289.64,48.13l0.04-0.35l0.33,0.26l0.04,0.16l-0.38,0.32L289.64,48.13z M296.09,45.6l0.47-0.58l4.01-0.09
	l2.78-0.08l-1.12,1.49l-1.06,1.7l-0.52,0.49l-0.15,0.04l-0.19-0.43l0.16-0.13l0.38,0.28l0.31-0.29l-0.01-0.22l-0.51-0.12l-0.07-0.15
	l-0.45,0.02l-0.26,0.37l-0.04,0.2l-0.24,0l-0.25,0.11l-0.7,0.64l-0.45,0.52l-0.29,0.4l-0.52,0.86l-0.22,0.25l-0.35,0.87l-0.16,0.13
	l-0.11,0.49l-0.21,0.67l-0.26,0.39l-0.06,0.19l-0.03,0.71l0.21,0.15l-0.46,0.64l-0.92,1.19l-0.25-0.09l-0.15,0.3l0.11,0.24
	l0.41,0.04l0,0.37l-0.31,0.31l-0.41,0.57l-0.45,0.69l-0.19,0.25l-0.12,0.35l-0.23,0.33l-0.26,0.3l-0.41,0.34l-0.08-0.12l-0.27,0.11
	v0.93l-0.22,0.44l-0.07,0.31l-0.24,0.14l0,0.42l-0.25,0.2l-0.04,0.18l-0.46,0.33l-0.42,0.47l-0.38,0.36l-0.34,0.1l0.1-0.23
	l-0.27-0.19l-0.31,0.15l-0.38,0.06l0.05,0.24l0.22,0.08l0.13,0.15l-0.04,0.2l-0.33,0.12l-0.25-0.12l-0.08-0.19l0.21-0.3l0.05-0.31
	l-0.09-0.77l-0.13-0.21l-0.18-0.49l-0.22-0.41l0.11-0.61l-0.09-0.06l-0.15-0.48l0.06-0.25l0.21-0.21l-0.11-0.48l0.08-0.38l0.15-0.34
	l0.23-0.27l0.31-0.57l0.02-0.19l0.21-0.05l0.15-0.31l-0.21-0.13l-0.03-0.25l0.1-0.5l0.23-0.41l0.2-0.25l-0.08-0.14l0.13-0.54
	l0.2-0.47l0.19-0.26l0.17-0.35l-0.13-0.31l0.19-0.33l0.27-0.12l-0.12-0.25l0.33-0.56l0.14-0.05l0.05,0.4l0.27,0.03l0-0.56
	l-0.13-0.13l0.12-0.34l0.36-0.3l0.21,0.1l0.19-0.1l-0.08-0.35l0.14-0.3l0.19-0.23l0.25-0.18l0.23,0.05l0.27-0.18l-0.09-0.15
	l-0.46,0.07l-0.05-0.16l0.34-0.3l0.06,0.09l0.29-0.08l0.07-0.32l-0.15-0.15l-0.07-0.23l-0.14,0.05l-0.06-0.24l0.44-0.3l0.4,0.03
	l0.43,0.45l0.28-0.02l0.18-0.1l0.04-0.61l0.34-0.62l0.22,0.32l0.33-0.3l-0.29-0.22l-0.05-0.19l0.24-0.15l0.04-0.29l-0.17,0.01
	l-0.12-0.34l-0.42-0.04l-0.29,0.08l0.06-0.2l-0.15-0.14l0.27-0.19l0.19-0.28l0.13-0.08l0.13,0.22l0.19-0.01l0.29-0.25l0.22,0.14
	l0.4,0.05l0.13-0.2l0.02-0.22L296.09,45.6z M289.05,45.29l0.93,0.08l-0.42,0.12l-0.08,0.13l0.06,0.24l-0.16,0.05l-0.12-0.15
	l0.14-0.22l-0.05-0.17l-0.23,0.01L289.05,45.29z M183.95,45.69l0.18,0.08l0.22,0.33l-0.04,0.41l-0.18,0.05l-0.44,0.3l-0.27,0.01
	l-0.08,0.13l0.04,0.35l0.12,0.16l0.21-0.03l0.08,0.22l0.32,0.05l0.23,0.22l-0.11,0.16l0.12,0.32l0.03,0.48l-0.15,0.33l0.28,0.67
	l0.29,0.21l0.08,0.25l0.27,0.05l0.29,0.31l0.09,0.21l-0.02,0.42l0.26,0.05l0.07,0.11l0.26,0.08l0.29-0.12l0.35,0.1l0.14,0.18l0.23,0
	l0.33,0.51l-0.08,0.25l0.09,0.1l0.28-0.03l0.1,0.27l0.48,0.39l0.13,0.27l2.08,0.06l0.13-0.03l0.19-0.26l0.43-0.1l0.22-0.11
	l0.14-0.43l0.4,0.07l0.34-0.16l0.04-0.13l0.43-0.15l0.15,0.08l0.21-0.03l0.1-0.15l0.29-0.65l0.23-0.2l0.21,0.06l0.25-0.4l0.67,0.91
	l1.55,1.57l0.38-0.15l0.7-0.39l0.99-0.26l0.52-0.09l0.83-0.06l1.04-0.18l-0.02,0.21l0.24,0.04l0.34-0.06l0.52-0.18l0.35-0.17
	l0.6-0.48l0.36-0.15l-0.53-0.87l0.41-0.59l-0.02-0.18l0.12-0.21l0.22,0.16l0.17-0.01l0.49,0.49l0.09,0.2l0.28,0.05l0.21,0.51
	l0.18-0.04l1-0.35l0.96-0.48l0.4-0.25l0.59-0.26l0.27-0.21l0.63-0.32l0.27,0.01l0.46-0.13l0.28,0.56l-0.1,0.28l0.02,0.22l0.32,0.3
	l0.6-0.29l0.33-0.24l1.16-0.57l-0.06-0.11l0.63-0.15l0.6-0.27l0.35-0.54l-0.15-0.08l-0.33,0.17l-0.35-0.22l0.33-0.2l-0.25-0.43
	l1.28-0.59l0.35-0.23l0.38-0.43l-0.3-0.25l-0.48-0.23l-0.19-0.26l-0.23-0.8l0.17-0.09l0.68-0.69l-0.17-0.2l0.13-0.39l0.14-0.01
	l0.17-0.23l0.37-0.27l-0.11-0.25l0.22-0.38l0.23-0.12l0.08-0.18l0.31-0.28l0.06-0.19l0.43-0.6l0.25-0.24l0.12,0.11l0.76-0.75
	l0.11,0.03l0.43-0.51l0.49-0.31l0.87-0.72l0.16-0.33l0.3-0.42l0.43-0.78l0.12-0.36l0.52-0.5l-0.18-0.17l-0.07-0.46l0.29-0.15
	l0.27-0.5l-0.05-0.4l0.14-0.17l0.28-0.08l0.15-0.25l0.23-0.12l0.63-0.6l0.2-0.02l0.09-0.17l0.17,0.05l0.64-0.51l-0.11-0.39
	l-0.13-0.05l-0.11-0.3l0.28-0.4l0.44-0.24l0.19-0.46l0.35,0.08l0.35-0.19l-0.09-0.22l0.12-0.3l0.4-0.61l0.33-0.33l0.06-0.43
	l-0.02-0.3l-0.12-0.27l0.12-0.42l0.22-0.14l0.06-0.21l0.33-0.08l-0.17-0.31l0.13-0.21l-0.02-0.25l0.15-0.46l0.28-0.46l1.31,0.76
	l0.28,0.09l0.31,0.24l0.24,0.4l0.64,1.8l1.81,0.83l0.99,0.43l0.22-0.05l0.37-0.18l-0.04-0.17l0.28-0.13l0.29-0.37l0.18,0.05
	l0.08-0.35l0.26-0.13l0.09-0.18l0.21-0.16l0.02-0.33l0.12-0.38l0.86-1.26l0.11-0.4l0.17-0.42l0.28-0.38l0.14-0.33l0.2-0.14
	l0.24,0.11l0.24-0.06l0.2-0.6l-0.11-0.37l0.13-0.39l0.32-0.6l0.29-0.27l0.14-0.39l-0.04-0.18l0.16-0.13l0.33,0.03l0.19-0.57
	l0.25-0.13l0.15-0.47l0.12-0.09l2.03,2.16l0.44-0.69l0.54-0.78l0.28-0.55l0.41-0.62l0.17-0.15l0.37-0.16l0.18-0.34l0.22-0.23
	l0.3-0.07l0.01,0.61l0.28-0.22l0.12,0l0.18-0.19l0.14,0l0.42-0.47l0.26-0.45l0.14,0.05l0.18-0.31l0.17-0.02l0.29,0.44l0.17-0.16
	l0.26-0.4l0.42-0.45l0.16-0.12l-0.35-0.35l0.61-0.6l0.33-0.21l0.13-0.24l0.39-0.36l0.33-0.22l0.34-0.05l0.39-0.4l0.07-0.21
	l0.19-0.24l0.25-0.11l0.19-0.19l-0.25-0.25l-0.15-0.24l-0.02-0.21l-0.13-0.05l0.65-0.71l0.05-0.22l-0.06-0.27l-0.17-0.13l0.51-0.54
	l0.13-0.23l0.53-0.51l0.28-0.47l0.13-0.32l-0.46-0.17l0.23-0.26l0.24-0.37l-0.23-0.37l-0.01-0.19l0.25-0.32l0.01-0.3l0.08-0.42
	l-0.02-0.16l0.97,0.94l0.41,0.37l1.71,1.77l0.28,0.25l0.52,0.54l1.25,1.2l3.35,3.31l0.12-0.35l0.2-0.37l0.16-0.2l0.27-0.8l0.44-0.58
	l0.1-0.28l0.31-0.61l0.13-0.4l0.25-0.38l0.29-0.18l0.38,0.09l0.39-0.09l0.41,0.34l0.6,0.23l0.49,0.06l0.39-0.06l0.08,0.11
	l-0.02,0.36l0.28,0.47l0.58,0.38l0.37,0.15l0.43,0.48l-0.01,0.22l-0.26,0.21l-0.05,0.31l-0.21,0.19l-0.34,0.05l-0.22,0.23
	l-0.24,0.55l0.02,0.42l0.14,0.23l0.51,0.25l0.13,0.22l0.21,0.57l0.16,0.1l0.51,0.17l0.84,0.2l0.61,0.01l0.43,0.28l0.38,0.16
	l0.3,0.31l0.33,0.12l0.15,0.13l-0.04,0.23l-0.18,0.27l0.16,0.46l0.39,0.29l0.41,0.14l0.57,0.02l0.33,0.11l0.29,0.58l0.13,0.14
	l0.24,0.51l0.16,0.17l0.45,0.19l0.05,0.25l0.22,0.43l0.15,0l0.12,0.48l-0.17,0.4l0,0.41l-0.08,0.51l-0.16,1.13L273,26.46l-0.11,0.25
	l-0.13,0.09l-0.47-0.02l-0.48,0.23l-0.3,0.23l-0.21,0.26l-0.1,0.53l0.08,0.35l-0.49-0.09l-0.21,0.24l-0.6,0.13l-0.19-0.48l0.21-0.03
	l0.2-0.23l-0.16-0.19l-0.13,0.03l-0.44-0.11l0.18,0.33l-0.09,0.18l-0.33,0.03l0,0.33l-0.11,0.32L268.96,29l0.15,0.2l-0.34,0.21
	l0.02,0.54l-0.28,0.19l-0.15,0.46l-0.27,0.41l-0.24,0.21l-0.31,0.65l-0.1,0.52l0.08,0.59l0.11,0.47l-0.12,0.04l-0.02,0.27l0.35,0.34
	l0.12,0.24l0.01,0.28l0.1,0.18l0.25,0.18l0.43,0.07l0.64-0.16l0.43,0.02l0.32-0.08l0.48-0.46l0.23,0.04l0.36-0.03l0.35,0.06
	l0.27-0.19l0.35-0.45l0.21-0.01l0.37,0.44l0.01,0.62l-0.04,0.49l-0.33,0.28l-0.18-0.09l-0.27,0.02l0.24,0.27l0.22-0.03l0.45,0.71
	l0.01,0.16l0.34,0.04l0.3,0.43l0.05,0.45l-0.2,0.2l0.07,0.3l0.42,0.3l0.46,0.16l0.58,0.61l0.29,0.05l0.34,0.2l0.26,0.02l0.44-0.08
	l0.69,0.11l0.26,0.27l0.09,0.19l-0.03,0.3l0.17,0.07l0.47-0.36l0.08-0.24l0.19,0.02l0.41,0.32l0.13,0.29l0.27,0.32l0.13-0.11
	l-0.15-0.49l0.26-0.09l0.31,0.13l-0.02,0.25l0.11,0.17l0.02,0.46l0.35,0.37l0.37,0.23l0.36,0.31l-0.01,0.17l0.22,0.47l-0.14-0.02
	l-0.21,0.14l-0.18-0.05l-0.12,0.35l0.32,0.11l0.4-0.09l0.31,0.19l0.28,0.11l0.27,0.43l-0.18,0.04l-0.03,0.2l0.22-0.02l0.36,0.09
	l0.22,0.18l0.18,0.24l0.53,0.28l0.43,0.13l0.28,0.13l1.3,0.92l0.25,0.37l0.23,0.14l-0.3,0.85l-0.05,0.37l-0.3,0.37l-0.27,0.09
	l-0.06-0.23l-0.38-0.02l-0.06,0.48l-0.17,0.15l0.08,0.41l-0.05,0.49l0.01,0.48l-0.22-0.16l-0.03,0.4l0.15,0.08l0.12,0.33l-0.01,0.26
	l-0.58,0.09l0.15,0.23l-0.23,0.22l-0.06,0.18l0.11,0.24l-0.02,0.35l0.21,0.08l0.15-0.33l0.35,0.16l0.2,0.42l-0.23,0.06l-0.34-0.25
	l-0.17,0.09l-0.18-0.12l-0.4,0.06l-0.16,0.21l-0.3-0.4l-0.15-0.09l-0.22,0.05l-0.21-0.26l-0.24-0.09l-0.16-0.27l-0.22,0.07
	l-0.27-0.51l0.29-0.13l-0.22-0.43l-0.15,0.01l-0.19,0.19l0.05,0.24l-0.18,0.24l-0.21,0.43l-0.18-0.04l-0.36-0.39l-0.04-0.18
	l0.07-0.41l-0.07-0.47l-0.23-0.21l-0.06-0.26l-0.15-0.16l-0.01-0.28l-0.21-0.57l-0.29-0.05l-0.27-0.27l-0.09-0.29l-0.28-0.24
	l-0.17,0.19l-0.11-0.24l-0.18-0.14l-0.16-0.32l-0.39,0.04l-0.33-0.34l-0.13-0.31l-0.17-0.13l0.07-0.22l-0.14-0.25l-0.32-0.1
	l-0.01-0.45l-0.16-0.29l-0.32-0.34l-0.21,0l-0.17-0.21l-0.22,0.01l-0.27-0.46l0.07-0.1l-0.05-0.39l-0.2-0.11l-0.12-0.2l-0.37-0.04
	l-0.12-0.29l-0.31-0.03l-0.19,0.37l0.18,0.2l0.43,0l0.25,0.12l-0.23,0.4l0.13,0.03l0.34,0.38l0.18,0.44l0.26,0.03l0.16,0.32
	l0.47,0.21l-0.01,0.22l0.15,0.51l0.19,0.2l0.09,0.45l0.2,0.27l0.25,0.59l0.16,0.25l0.14,0.07l0.45,0.05l0.15,0.13l-0.08,0.32
	l0.09,0.22l0.22,0.12l0.43,0.06l0.39,0.23l-0.07,0.24l0.36,0.33l-0.01,0.39l0.12,0.15l0,0.2l0.13,0.27l-0.19,0.15l0.26,0.23
	l-0.07,0.15l0.32,0.38l0.12,0.28l0.37,0.26l0.62,0.01l0.28,0.07l0.35-0.02l0.45,0.09l-0.04,0.3l0.04,0.22l0.22,0.18l0.12-0.02
	l0.43,0.23l0.45,0.02l0.43,0.12l0.33,0.2l0.22,0.04l-0.07,0.23l-0.17,0.1l-0.18-0.04l-0.2,0.12l-0.53,0.11l0,0.47l0.1,0.2l0.29,0.04
	l0.16,0.42l0.18-0.04l0.53-0.52l0.12,0.15l0.14,0.42l-0.19,0.08l-0.44-0.25l-0.05,0.14l0.49,0.35L284,55.8l0.41,0.33l0.04,0.36
	l0,0.94l-0.02,0.35l-0.23,0.35l-0.24,0.13l-0.06,0.12l0.01,0.45l-0.08,0.35l-0.37-0.34l-0.19-0.07l-0.06-0.36l-0.13,0.02l-0.44-0.65
	l-0.12,0.04l-0.25-0.27L282,57.45l-0.17-0.41l-0.01-0.33l-0.24-0.05l-0.08,0.19l-0.05,0.91l-0.22-0.31l-0.39-0.03l-0.16-0.15
	l-0.13,0.16l-0.02,0.29l0.18,0.18l0.23-0.14l0.14,0.28l0.16,0.1l0.13,0.22l0.23,0.08l-0.24,0.19l0.05,0.15l-0.45-0.03l-0.02,0.18
	l0.33,0.17l0.36-0.1l0.18,0.12l-0.1,0.21l0.18,0.14l0.08,0.28l0.42,0.08l-0.2,0.2l-0.29-0.02l-0.21,0.09l-0.48-0.08l-0.12,0.22
	l-0.19-0.06l-0.55,0.11l-0.22-0.02l-0.09-0.11l-0.41,0.18l-0.08,0.12l0.24,0.33l0.38,0.24l0.61-0.02l0.29-0.07l0.19,0.03l0.43-0.04
	l-0.31,0.41l0.17,0.32l-0.09,0.41l-0.25-0.03l-0.1,0.29l0.53,0.17l0.41-0.25l0.27,0.14l0.16,0.43l0.37,0.17l0.26,0.32l-0.14,0.23
	l0.36,0.31l0.13,0.32l-0.25,0.62l-0.23,0.51l-0.27,0.73l-0.19-0.02l-0.01-0.25l-0.41-0.09l-0.15,0.18l-0.54,0.17l-0.36,0.3
	l-0.32,0.42l-0.22-0.11l-0.41-0.74l0.08-0.2l-0.25-0.47l-0.51-0.42l-0.5-0.46l0.02-0.34l-0.28-0.26l-0.14,0.15l-0.24,0.05
	l-0.25-0.43l-0.28-0.24l-0.03-0.12l-0.33-0.21l-0.05-0.14l0.02-0.36l0.1-0.03l0.21-0.29l-0.14-0.49l-0.03-0.3l-0.16-0.34l-0.33-0.34
	l-0.17-0.07l-0.58-0.06l-0.18,0.13l-0.52,0.07l-0.47-0.11l0.39,0.31l-0.16,0.22l-0.26,0l-0.37-0.42l-0.19-0.5l-0.48-0.32l-0.5,0.02
	l-0.33-0.06l0.07-0.4l-0.07-0.05l-0.26,0.2l-0.21,0.04l-0.15,0.16l-0.16-0.04l-0.08,0.2l-0.39-0.11l-0.14,0.2l0.35,0.3l0.38,0.39
	l0.2,0.02l0.46-0.17l0.83,0.15l0.31,0.01l-0.04,0.17l0.31,0.48l0.34,0.25l0.22,0.41l0.29,0.14l0.27-0.04l0.26-0.48l0.1-0.07
	l0.14-0.45l0.1-0.04l0.26,0.33l0.09,0.22l-0.17,0.32l-0.03,0.37l0.11,0.21l0,0.33l0.09,0.14l-0.04,0.34l-0.21,0.44l-0.07,0.36
	l0.16,0.4l0.22,0.16l0.6,0.07l0.44,0.19l0.16,0.31l-0.15,0.17l0.06,0.19l0.3-0.09l0.2,0.12l0.16,0.25l0.27,0.12l0.05,0.24l0.12,0.12
	l0.3,0.1l0.15,0.2l-0.01,0.4l-0.17-0.08l-0.1,0.26l0.31,0.36l-0.09,0.39l-0.18,0.09l0.01,0.24l0.14,0.08l0.18-0.08l0.34,0l0.03-0.19
	l0.24-0.28l0.58,0.24l0.29,0.06l0.07-0.07l0.07-0.52l0.55,0.06l0.04,0.62l0.47,0.25l0.11-0.05l0.06-0.31l-0.21-0.04l0-0.85
	l0.12-0.46l0.16,0.19l0.27,0l0.1-0.28l0.34,0.06l0.16,0.09l0.54,0.47l0.23,0.15l0.7,0.27l0.71,0.21l0.84,0.41l0.15-0.08l0.44-0.07
	l0.32-0.26l0.27-0.03l0.33,0.1l0.19,0.17l0.07,0.38l0.2,1.42l0.06,0.67l0.19,1.15l0.36,1.56l0.43,1.39l0.21,1.06l0.06,0.73
	l-7.86-0.66l-2.68-0.23l-1.35-0.1l-0.59-0.06l-2.87-0.25l-1.22-0.09l-1.91-0.19l-0.02,0.18l-3.15-0.28l-1.02-0.08l-0.29-0.09
	l-0.64,0l-9.59-0.84l-2.21-0.17l-4.55-0.36l-1.98-0.18l-3.98-0.3L243,72.87l-1.68-0.15l-1.02-0.1l-2.34-0.19l-3.09-0.27l-4.89-0.39
	l-3.45-0.29l-1.14-0.09l-2.76-0.26l-3.87-0.36l-0.3-0.02l-3.83-0.33l-1.82-0.18l-1.23-0.1l-2.54-0.36l-3.24-0.45l-1.4-0.21
	l-0.45-0.04l-0.77-0.02l-0.53-0.06l-0.59-0.01l-1.9-0.25l-1.02-0.1l-0.97-0.16l-0.43-0.04l-1.54-0.22l-0.1-0.03l-1.28-0.14
	l-1.01-0.12l-1.18-0.1l-1.18-0.15l-0.6-0.13l-0.23,0.01l-0.55-0.08l-1.4-0.26l-1.34-0.14l0.58-0.48l-1.59-0.14l-3.26-0.36
	l-0.24,0.46L179,66.25l-1.09-0.11l-1.52-0.13l-2.99-0.23l-0.36-0.06l-2.16-0.15l-1.24-0.09l-3.67-0.31l-2.47-0.22l-4.1-0.35
	l-0.26-0.12l-1.74-0.13l-3.2-0.27l-1.15-0.11l-0.93-0.14l0.49-0.31l0.03-0.13l0.41-0.02l0.2-0.17l0.37-0.12l0.3,0l0.28-0.19
	l0.38-0.09l0.19-0.17l0.36-0.06l0.32,0.01l0.19,0.1l0.49,0.07l0.55-0.01l0.51-0.16l0.19-0.2l0.47-0.12l0.32-0.14l0.65-0.17
	l0.35-0.02l0.44-0.12l0.79-0.16l0.46-0.14l0.59,0.04l0.45-0.03l0.17-0.16l-0.05-0.3l0.08-0.25l-0.06-0.17l0.25-0.12l0.41-0.51
	l-0.03-0.33l0.28-0.18l0.21-0.04l0.07-0.3l0.43,0.1l0.37-0.05l0.08,0.13l0.28,0.07l0.15-0.18l0.35-0.04l0.15,0.06l0.34-0.16l0.24,0
	l0.28-0.13l0.26,0.01l0.04-0.11l0.49-0.17l0.19-0.27l-0.12-0.14l0.33-0.36l0.05-0.53l-0.15-0.38l0.04-0.19l0.29-0.22l0.15,0.05
	l0.27-0.19l0.16-0.23l0.39-0.05l0.32,0.02l0.44-0.39l0.19,0.06l0.13-0.39l0.28,0.05l0.1-0.34l-0.06-0.34l0.09-0.25l0.09-0.78
	l0.69-0.29l0.14,0.03l0.36-0.19l0.11-0.15l0.33-0.03l0.17-0.18l0.61-0.39l0.25-0.11l0.54-0.31l0.55-0.14l0.4-0.28l0.91-0.3
	l0.32-0.04l0.87-0.22l0.12,0.02l0.47-0.12l0.27-0.26l0.22-0.06l0.17-0.24l2.16-1.61l1.46-1.04l1.17-0.88l0.23-0.2L183.95,45.69z"/>
<g>
	<path class="st1" d="M234,57.95l1.58-11.55l1.3,0.59l-0.85,5.74l-0.65,4.34l0.07,0.03l2.83-3.36l3.74-4.44l1.25,0.57l-7.62,8.82
		L234,57.95z"/>
	<path class="st1" d="M246.23,63.47l0.45-3.29l-3.57-1.61l-2.17,2.51l-1.27-0.57l7.72-8.77l1.62,0.73l-1.48,11.59L246.23,63.47z
		 M247.66,53.42l-0.13-0.06l-3.65,4.27l2.99,1.35L247.66,53.42z"/>
</g>
<path class="st11" d="M459.71,166.97l0.03-0.21l0.19,0.16l0.02,0.1l-0.23,0.18L459.71,166.97z M463.57,165.55l0.29-0.34l2.38,0
	l1.65-0.01l-0.68,0.87l-0.65,0.99l-0.31,0.28l-0.09,0.02l-0.11-0.26l0.1-0.08l0.22,0.17l0.19-0.17l-0.01-0.13l-0.3-0.08l-0.04-0.09
	l-0.27,0.01l-0.16,0.22l-0.02,0.12l-0.14-0.01l-0.15,0.06l-0.43,0.37l-0.28,0.3l-0.18,0.23l-0.32,0.51l-0.13,0.14l-0.22,0.51
	l-0.1,0.08l-0.07,0.29l-0.13,0.39l-0.16,0.23l-0.04,0.11l-0.03,0.42l0.12,0.09l-0.28,0.37l-0.56,0.69l-0.15-0.06l-0.09,0.18
	l0.06,0.14l0.24,0.03l0,0.22l-0.19,0.18l-0.25,0.33l-0.28,0.4l-0.12,0.14l-0.07,0.2l-0.14,0.2l-0.16,0.17l-0.25,0.2l-0.05-0.07
	l-0.16,0.06l-0.01,0.55l-0.14,0.26l-0.05,0.18l-0.14,0.08l0,0.25l-0.15,0.11l-0.02,0.11l-0.28,0.19l-0.25,0.28l-0.23,0.21l-0.2,0.05
	l0.06-0.13l-0.16-0.12l-0.19,0.08l-0.23,0.03l0.02,0.14l0.13,0.05l0.07,0.09l-0.02,0.12l-0.2,0.06l-0.15-0.07l-0.05-0.11l0.13-0.18
	l0.04-0.18l-0.04-0.46l-0.07-0.13l-0.1-0.29l-0.13-0.24l0.07-0.36l-0.05-0.04l-0.08-0.29l0.04-0.15l0.13-0.12l-0.06-0.29l0.05-0.22
	l0.09-0.2l0.14-0.16l0.19-0.33l0.01-0.11l0.12-0.03l0.09-0.18l-0.13-0.08l-0.02-0.15l0.07-0.29l0.14-0.24l0.12-0.14l-0.05-0.09
	l0.09-0.32l0.12-0.28l0.12-0.15l0.1-0.2l-0.07-0.18l0.12-0.2l0.16-0.07l-0.07-0.15l0.2-0.33l0.08-0.03l0.02,0.24l0.16,0.02
	l0.01-0.33l-0.07-0.08l0.08-0.2l0.22-0.18l0.12,0.06l0.12-0.06l-0.04-0.21l0.09-0.17l0.12-0.13l0.15-0.1l0.13,0.03l0.16-0.1
	l-0.05-0.09l-0.27,0.03l-0.03-0.09l0.2-0.17l0.03,0.05l0.17-0.04l0.04-0.19l-0.08-0.09l-0.04-0.14l-0.08,0.03l-0.03-0.14l0.26-0.17
	l0.24,0.03l0.25,0.27l0.17-0.01l0.11-0.06l0.03-0.36l0.21-0.36l0.12,0.19l0.2-0.17l-0.17-0.13l-0.03-0.12l0.15-0.08l0.03-0.17
	l-0.1,0l-0.06-0.2l-0.25-0.03l-0.17,0.05l0.04-0.12l-0.09-0.09l0.17-0.11l0.12-0.16l0.08-0.04l0.07,0.13l0.11,0l0.17-0.15l0.13,0.09
	l0.24,0.04l0.08-0.12l0.01-0.13L463.57,165.55z M459.4,165.27l0.55,0.06l-0.25,0.07l-0.05,0.08l0.03,0.15l-0.09,0.03l-0.07-0.09
	l0.09-0.13l-0.03-0.1l-0.14,0L459.4,165.27z M397.05,164.05l0.11,0.05l0.12,0.2l-0.03,0.24l-0.11,0.03l-0.27,0.17l-0.16,0
	l-0.05,0.08l0.02,0.21l0.07,0.1l0.12-0.01l0.04,0.13l0.19,0.03l0.13,0.14l-0.07,0.09l0.07,0.19l0.01,0.29l-0.1,0.19l0.16,0.4
	l0.17,0.13l0.05,0.15l0.16,0.04l0.17,0.19l0.05,0.13l-0.02,0.25l0.15,0.04l0.04,0.07l0.15,0.05l0.18-0.07l0.21,0.07l0.08,0.11
	l0.14,0l0.19,0.31l-0.05,0.15l0.05,0.06l0.17-0.01l0.06,0.16l0.28,0.24l0.07,0.16l1.23,0.07l0.08-0.02l0.11-0.15l0.25-0.05
	l0.13-0.06l0.09-0.26l0.24,0.05l0.2-0.09l0.02-0.07l0.26-0.08l0.09,0.05l0.12-0.02l0.06-0.09l0.18-0.38l0.14-0.12l0.13,0.04
	l0.16-0.24l0.38,0.55l0.9,0.95l0.23-0.08l0.42-0.22l0.59-0.14l0.31-0.05l0.49-0.02l0.62-0.09l-0.02,0.12l0.14,0.02l0.2-0.03
	l0.31-0.1l0.21-0.1l0.36-0.27l0.21-0.09l-0.3-0.53l0.25-0.34l-0.01-0.11l0.07-0.12l0.13,0.1l0.1,0l0.29,0.3l0.05,0.12l0.17,0.03
	l0.12,0.31l0.11-0.02l0.6-0.19l0.58-0.27l0.24-0.14l0.35-0.15l0.16-0.12l0.38-0.18l0.16,0.01l0.28-0.07l0.16,0.34l-0.06,0.16
	l0.01,0.13l0.18,0.18l0.36-0.16l0.2-0.14l0.7-0.32l-0.03-0.07l0.37-0.08l0.36-0.15l0.21-0.31l-0.09-0.05l-0.2,0.1l-0.21-0.14
	l0.2-0.11l-0.14-0.26l0.77-0.33l0.21-0.13l0.23-0.25l-0.18-0.15l-0.28-0.14l-0.11-0.16l-0.13-0.48l0.1-0.05l0.41-0.4l-0.1-0.12
	l0.08-0.23l0.08,0l0.1-0.14l0.22-0.16l-0.06-0.15l0.14-0.22l0.14-0.07l0.05-0.11l0.19-0.16l0.04-0.11l0.27-0.35l0.15-0.14l0.07,0.07
	l0.46-0.44l0.06,0.02l0.26-0.29l0.29-0.17l0.53-0.41l0.1-0.19l0.18-0.24l0.27-0.46l0.08-0.21l0.31-0.29l-0.11-0.11L419,158.5
	l0.17-0.09l0.17-0.3l-0.03-0.24l0.09-0.1l0.17-0.05l0.09-0.15l0.14-0.07l0.38-0.35l0.12-0.01l0.06-0.1l0.1,0.03l0.39-0.29
	l-0.06-0.23l-0.07-0.03l-0.06-0.18l0.17-0.23l0.26-0.13l0.12-0.27l0.21,0.05l0.21-0.11l-0.05-0.13l0.07-0.18l0.25-0.36l0.2-0.19
	l0.04-0.25l-0.01-0.18l-0.07-0.16l0.07-0.25l0.13-0.08l0.04-0.12l0.2-0.04l-0.09-0.19l0.08-0.12l-0.01-0.15l0.1-0.27l0.17-0.27
	l0.77,0.47l0.16,0.06l0.18,0.15l0.14,0.24l0.36,1.07l1.06,0.52l0.58,0.27l0.13-0.02l0.22-0.1l-0.02-0.1l0.17-0.07l0.18-0.21
	l0.11,0.03l0.05-0.21l0.16-0.07l0.06-0.11l0.12-0.09l0.02-0.2l0.08-0.22l0.53-0.73l0.07-0.24l0.11-0.25l0.17-0.22l0.09-0.2
	l0.12-0.08l0.14,0.07l0.14-0.03l0.13-0.35l-0.06-0.22l0.08-0.23l0.2-0.35l0.17-0.15l0.09-0.23l-0.02-0.11l0.1-0.07l0.2,0.02
	l0.12-0.34l0.15-0.08l0.09-0.27l0.07-0.05l1.17,1.31l0.27-0.4l0.33-0.45l0.17-0.32l0.25-0.36l0.1-0.09l0.22-0.09l0.11-0.2l0.14-0.14
	l0.18-0.04l0,0.36l0.17-0.13l0.07,0l0.11-0.11l0.08,0l0.25-0.27l0.16-0.26l0.08,0.03l0.11-0.18l0.1-0.01l0.17,0.26l0.1-0.09
	l0.16-0.23l0.25-0.26l0.1-0.07l-0.2-0.21l0.37-0.35l0.2-0.12l0.08-0.14l0.24-0.21l0.2-0.13l0.2-0.03l0.24-0.23l0.04-0.12l0.11-0.14
	l0.15-0.06l0.12-0.11l-0.14-0.15l-0.09-0.14l-0.01-0.13l-0.08-0.03l0.39-0.41l0.03-0.13l-0.03-0.16l-0.1-0.08l0.31-0.31l0.08-0.13
	l0.32-0.3l0.18-0.27l0.08-0.19l-0.27-0.11l0.14-0.15l0.15-0.22l-0.13-0.22l0-0.12l0.15-0.19l0.01-0.18l0.05-0.25l-0.01-0.09
	l0.56,0.57l0.24,0.22l0.99,1.07l0.16,0.15l0.3,0.33l0.72,0.73l1.94,2.01l0.08-0.2l0.13-0.22l0.1-0.11l0.17-0.47l0.27-0.34l0.06-0.16
	l0.19-0.36l0.08-0.23l0.15-0.22l0.18-0.1l0.23,0.06l0.23-0.05l0.24,0.21l0.35,0.15l0.29,0.04l0.23-0.03l0.04,0.06l-0.02,0.21
	l0.16,0.28l0.34,0.23l0.22,0.09l0.25,0.29l-0.01,0.13l-0.16,0.12l-0.03,0.18l-0.13,0.11l-0.2,0.03l-0.14,0.14l-0.15,0.32l0,0.25
	l0.08,0.14l0.3,0.16l0.08,0.13l0.12,0.34l0.1,0.06l0.3,0.11l0.49,0.13l0.36,0.02l0.25,0.17l0.22,0.1l0.17,0.19l0.2,0.08l0.09,0.08
	l-0.03,0.13l-0.11,0.16l0.09,0.28l0.22,0.18l0.24,0.09l0.34,0.02l0.19,0.07l0.16,0.35l0.07,0.08l0.14,0.31l0.09,0.1l0.27,0.12
	l0.02,0.15l0.13,0.26l0.09,0l0.06,0.29l-0.1,0.24l-0.01,0.24l-0.05,0.3l-0.11,0.67l-0.01,0.21l-0.07,0.15l-0.08,0.05l-0.28-0.02
	l-0.29,0.13l-0.18,0.13l-0.13,0.15l-0.07,0.31l0.04,0.21l-0.29-0.06l-0.13,0.14l-0.36,0.07l-0.11-0.28l0.12-0.02l0.12-0.13
	l-0.09-0.11l-0.08,0.02l-0.26-0.07l0.1,0.2l-0.06,0.1l-0.19,0.01l-0.01,0.19l-0.07,0.19l-0.08,0.09l0.08,0.12l-0.21,0.12l0,0.32
	l-0.17,0.11l-0.1,0.27l-0.17,0.24l-0.14,0.12l-0.19,0.38l-0.07,0.31l0.04,0.35l0.06,0.28l-0.07,0.02l-0.02,0.16l0.2,0.21l0.07,0.15
	l0,0.17l0.06,0.11l0.15,0.11l0.25,0.05l0.38-0.08l0.25,0.02l0.19-0.04l0.29-0.26l0.14,0.03l0.21-0.02l0.2,0.04l0.16-0.11l0.21-0.26
	l0.12,0l0.21,0.27l0,0.37l-0.03,0.29l-0.2,0.16l-0.1-0.05l-0.16,0.01l0.14,0.16l0.13-0.01l0.26,0.43l0,0.09l0.2,0.03l0.17,0.26
	l0.03,0.27l-0.12,0.12l0.04,0.18l0.24,0.18l0.27,0.1l0.33,0.37l0.17,0.03l0.2,0.12l0.15,0.01l0.26-0.04l0.41,0.08l0.15,0.17
	l0.05,0.11l-0.02,0.18l0.1,0.04l0.28-0.21l0.05-0.14l0.11,0.01l0.24,0.19l0.07,0.17l0.16,0.19l0.08-0.06l-0.08-0.29l0.15-0.05
	l0.18,0.08l-0.02,0.15l0.06,0.1l0.01,0.27l0.2,0.23l0.22,0.14l0.21,0.19l-0.01,0.1l0.12,0.28l-0.08-0.01l-0.13,0.08l-0.11-0.03
	l-0.07,0.21l0.19,0.07l0.24-0.05l0.18,0.12l0.17,0.07l0.15,0.26l-0.11,0.02l-0.02,0.12l0.13-0.01l0.21,0.06l0.13,0.11l0.1,0.15
	l0.31,0.18l0.25,0.08l0.16,0.08l0.76,0.57l0.14,0.22l0.13,0.09l-0.19,0.5l-0.04,0.22l-0.18,0.21l-0.16,0.05l-0.03-0.14l-0.23-0.02
	l-0.04,0.28l-0.1,0.09l0.04,0.24l-0.04,0.29l0,0.29l-0.13-0.1l-0.03,0.24l0.08,0.05l0.07,0.2l-0.01,0.15l-0.34,0.05l0.08,0.14
	l-0.14,0.13l-0.04,0.11l0.06,0.14l-0.01,0.21l0.12,0.05l0.09-0.19l0.21,0.1l0.11,0.25l-0.14,0.03l-0.2-0.15l-0.1,0.05l-0.11-0.07
	l-0.24,0.03l-0.1,0.12l-0.17-0.24l-0.09-0.05l-0.13,0.02l-0.12-0.16l-0.14-0.05l-0.09-0.16l-0.13,0.04l-0.16-0.31l0.17-0.07
	l-0.13-0.26l-0.09,0.01l-0.11,0.11l0.03,0.14l-0.11,0.14l-0.13,0.25l-0.11-0.03l-0.21-0.23l-0.02-0.11l0.05-0.24l-0.04-0.28
	l-0.14-0.13l-0.03-0.15l-0.08-0.1l0-0.16l-0.12-0.34l-0.17-0.03l-0.16-0.16l-0.05-0.17l-0.17-0.14l-0.11,0.11l-0.06-0.14l-0.1-0.09
	l-0.09-0.19l-0.23,0.02l-0.19-0.21l-0.07-0.19l-0.1-0.08l0.05-0.13l-0.08-0.15l-0.19-0.07l0-0.27l-0.09-0.17l-0.18-0.2l-0.12,0
	l-0.1-0.13l-0.13,0.01l-0.15-0.28l0.04-0.06l-0.03-0.23l-0.12-0.07l-0.07-0.12l-0.22-0.03l-0.07-0.18l-0.19-0.02l-0.12,0.22
	l0.1,0.12l0.25,0.01l0.15,0.08l-0.14,0.23l0.08,0.02l0.2,0.23l0.1,0.26l0.16,0.02l0.09,0.19l0.28,0.13l-0.01,0.13l0.08,0.31
	l0.11,0.12l0.05,0.27l0.12,0.16l0.14,0.35l0.09,0.15l0.08,0.04l0.27,0.04l0.09,0.08l-0.05,0.19l0.05,0.13l0.13,0.07l0.25,0.04
	l0.23,0.14l-0.04,0.14l0.21,0.2L453.3,168l0.07,0.09l0,0.12l0.07,0.16l-0.12,0.09l0.15,0.14l-0.04,0.09l0.19,0.23l0.06,0.17
	l0.21,0.16l0.37,0.02l0.17,0.05l0.21-0.01l0.27,0.06l-0.03,0.18l0.02,0.13l0.13,0.11l0.07-0.01l0.25,0.14l0.27,0.02l0.26,0.08
	l0.2,0.12l0.13,0.02l-0.04,0.13l-0.1,0.06l-0.1-0.03l-0.12,0.07l-0.32,0.06l-0.01,0.28l0.06,0.12l0.17,0.03l0.09,0.25l0.1-0.02
	l0.32-0.3l0.07,0.09l0.08,0.25l-0.11,0.04l-0.25-0.15l-0.03,0.08l0.29,0.21l-0.03,0.12l0.24,0.2l0.02,0.21l-0.01,0.56l-0.02,0.21
	l-0.14,0.21l-0.14,0.07l-0.04,0.07l0,0.27l-0.05,0.21l-0.22-0.21l-0.11-0.04l-0.03-0.21l-0.08,0.01l-0.25-0.39l-0.07,0.02
	l-0.15-0.16l-0.15-0.07l-0.1-0.24l0-0.2l-0.14-0.03l-0.05,0.11l-0.04,0.54l-0.13-0.19l-0.23-0.02l-0.09-0.09l-0.08,0.09l-0.02,0.17
	l0.1,0.11l0.14-0.08l0.08,0.17l0.09,0.06l0.08,0.13l0.14,0.05l-0.15,0.11l0.03,0.09l-0.27-0.02l-0.02,0.11l0.19,0.1l0.21-0.05
	l0.11,0.08l-0.06,0.12l0.1,0.09l0.04,0.17l0.25,0.06l-0.12,0.12l-0.17-0.02l-0.12,0.05l-0.28-0.05l-0.07,0.13l-0.11-0.04l-0.33,0.06
	l-0.13-0.02l-0.05-0.07l-0.24,0.1l-0.05,0.07l0.14,0.2l0.22,0.15l0.36,0l0.17-0.04l0.11,0.02l0.25-0.02l-0.19,0.24l0.1,0.19
	l-0.06,0.24l-0.15-0.02l-0.07,0.17l0.31,0.11l0.25-0.14l0.16,0.09l0.09,0.26l0.22,0.1l0.15,0.19l-0.09,0.13l0.21,0.19l0.07,0.19
	l-0.16,0.37l-0.14,0.3l-0.17,0.43l-0.11-0.02l0-0.15l-0.24-0.06l-0.09,0.1l-0.32,0.09l-0.22,0.17l-0.2,0.24l-0.13-0.07l-0.23-0.45
	l0.05-0.12l-0.14-0.28l-0.3-0.26l-0.29-0.28l0.02-0.2l-0.16-0.16l-0.08,0.09l-0.14,0.03l-0.14-0.26l-0.16-0.15l-0.02-0.07
	l-0.19-0.13l-0.03-0.09l0.02-0.21l0.06-0.02l0.13-0.17l-0.07-0.29l-0.01-0.18l-0.09-0.2l-0.19-0.21l-0.1-0.04l-0.35-0.04l-0.11,0.07
	l-0.31,0.03l-0.28-0.07l0.23,0.19l-0.1,0.13l-0.15,0l-0.21-0.26l-0.1-0.3l-0.28-0.2l-0.3,0.01l-0.2-0.04l0.05-0.24l-0.04-0.03
	l-0.16,0.11l-0.12,0.02l-0.09,0.1l-0.1-0.03l-0.05,0.12l-0.23-0.07l-0.08,0.12l0.2,0.18l0.22,0.24l0.12,0.02l0.28-0.09l0.49,0.1
	l0.18,0.01l-0.03,0.1l0.18,0.29l0.2,0.16l0.13,0.25l0.17,0.09l0.16-0.02l0.16-0.28l0.06-0.04l0.09-0.26l0.06-0.02l0.15,0.2
	l0.05,0.13l-0.1,0.19l-0.02,0.22l0.06,0.13l-0.01,0.19l0.05,0.09l-0.03,0.2l-0.13,0.26l-0.05,0.21l0.09,0.24l0.13,0.1l0.35,0.05
	l0.26,0.12l0.09,0.19l-0.09,0.1l0.03,0.11l0.18-0.05l0.12,0.08l0.09,0.15l0.16,0.08l0.03,0.14l0.07,0.07l0.18,0.06l0.09,0.12
	l-0.01,0.24l-0.1-0.05l-0.06,0.15l0.18,0.22l-0.06,0.23l-0.11,0.05l0,0.14l0.08,0.05l0.11-0.05l0.2,0l0.02-0.11l0.15-0.16l0.34,0.15
	l0.17,0.04l0.04-0.04l0.05-0.31l0.33,0.04l0.02,0.37l0.27,0.15l0.07-0.03l0.04-0.18l-0.12-0.03l0.01-0.5l0.08-0.27l0.09,0.11l0.16,0
	l0.06-0.16l0.2,0.04l0.09,0.05l0.31,0.29l0.13,0.09l0.41,0.17l0.42,0.13l0.49,0.25l0.09-0.05l0.26-0.04l0.19-0.15l0.16-0.01
	l0.19,0.06l0.11,0.1l0.04,0.22l0.1,0.84l0.03,0.4l0.09,0.69l0.19,0.93l0.24,0.83l0.11,0.63l0.03,0.44l-4.65-0.5l-1.59-0.18
	l-0.8-0.08l-0.35-0.04l-1.7-0.19l-0.72-0.07l-1.13-0.14l-0.01,0.11l-1.86-0.21l-0.6-0.06l-0.17-0.06l-0.38-0.01l-5.67-0.63
	l-1.31-0.13l-2.69-0.28l-1.17-0.13l-2.35-0.23l-0.41-0.03l-0.99-0.11l-0.6-0.07l-1.39-0.15l-1.83-0.21l-2.9-0.3l-2.04-0.22
	l-0.68-0.07l-1.64-0.19l-2.29-0.26l-0.18-0.01l-2.27-0.25l-1.08-0.13l-0.73-0.08l-1.5-0.25l-1.91-0.31l-0.83-0.14l-0.26-0.03
	l-0.46-0.02l-0.31-0.04l-0.35-0.02l-1.13-0.18l-0.6-0.07l-0.57-0.11l-0.25-0.03l-0.91-0.15l-0.06-0.02l-0.76-0.1l-0.6-0.09
	l-0.7-0.07l-0.7-0.1l-0.35-0.09l-0.14,0l-0.32-0.05l-0.83-0.18l-0.8-0.1l0.35-0.28l-0.94-0.11l-1.93-0.26l-0.15,0.27l-2.23-0.25
	l-0.64-0.08l-0.9-0.1l-1.77-0.18l-0.21-0.04l-1.28-0.12l-0.74-0.07l-2.17-0.23l-1.46-0.16l-2.43-0.26l-0.15-0.07l-1.03-0.1
	l-1.9-0.21l-0.68-0.08l-0.55-0.09l0.29-0.18l0.02-0.08l0.24-0.01l0.12-0.1l0.22-0.06l0.18,0.01l0.17-0.11l0.23-0.05l0.11-0.1
	l0.22-0.03l0.19,0.01l0.11,0.06l0.29,0.05l0.33,0l0.3-0.09l0.11-0.11l0.28-0.06l0.19-0.08l0.39-0.09l0.21-0.01l0.26-0.07l0.47-0.09
	l0.28-0.08l0.35,0.03l0.26-0.01l0.1-0.09l-0.03-0.18l0.05-0.15l-0.03-0.1l0.15-0.07l0.25-0.3l-0.01-0.2l0.17-0.1l0.12-0.02
	l0.05-0.18l0.26,0.07l0.22-0.03l0.04,0.08l0.16,0.05l0.09-0.1l0.21-0.02l0.09,0.04l0.21-0.09l0.15,0l0.17-0.07l0.15,0.01l0.02-0.06
	l0.29-0.09l0.12-0.16l-0.07-0.09l0.2-0.21l0.04-0.31l-0.09-0.23l0.02-0.11l0.18-0.13l0.09,0.03l0.16-0.11l0.1-0.13l0.23-0.02
	l0.19,0.01l0.27-0.22l0.11,0.04l0.08-0.23l0.17,0.03l0.07-0.2l-0.03-0.2l0.06-0.15l0.06-0.46l0.41-0.16l0.08,0.02l0.22-0.11
	l0.07-0.09l0.19-0.01l0.1-0.1l0.37-0.22l0.15-0.06l0.32-0.18l0.33-0.08l0.24-0.16l0.54-0.16l0.19-0.02l0.52-0.12l0.07,0.01
	l0.28-0.07l0.17-0.15l0.13-0.03l0.11-0.14l1.3-0.92l0.88-0.6l0.71-0.5l0.14-0.11L397.05,164.05z"/>
<g>
	<path class="st1" d="M426.57,172.02l1.09-6.82l0.76,0.37l-0.59,3.39l-0.44,2.57l0.04,0.02l1.72-1.95l2.28-2.58l0.74,0.35
		l-4.64,5.12L426.57,172.02z"/>
	<path class="st1" d="M433.74,175.46l0.31-1.95l-2.1-1.01l-1.32,1.46l-0.74-0.36l4.7-5.09l0.95,0.46l-1.04,6.85L433.74,175.46z
		 M434.73,169.52l-0.08-0.04l-2.22,2.48l1.75,0.84L434.73,169.52z"/>
</g>
<path class="st12" d="M325.28,156.41l0.01-0.35l0.35,0.22l0.05,0.16l-0.34,0.35L325.28,156.41z M331.43,153.28l0.41-0.62l3.97-0.47
	l2.76-0.34l-0.97,1.58l-0.89,1.79l-0.47,0.53l-0.14,0.05l-0.23-0.41l0.15-0.15l0.4,0.24l0.28-0.32l-0.04-0.22l-0.51-0.07l-0.09-0.14
	l-0.45,0.06l-0.22,0.4l-0.02,0.2l-0.24,0.02l-0.24,0.13l-0.64,0.7l-0.4,0.56l-0.25,0.42l-0.43,0.91l-0.19,0.27l-0.27,0.9l-0.15,0.15
	l-0.06,0.49l-0.14,0.68l-0.22,0.42l-0.04,0.2l0.03,0.71l0.22,0.13l-0.4,0.68l-0.8,1.27l-0.26-0.07l-0.12,0.31l0.13,0.23l0.41,0
	l0.04,0.36l-0.28,0.33l-0.35,0.6l-0.38,0.73l-0.17,0.26l-0.08,0.35l-0.2,0.35l-0.23,0.32l-0.38,0.38l-0.09-0.11l-0.25,0.14
	l0.09,0.93l-0.18,0.46l-0.04,0.32l-0.22,0.16l0.04,0.42l-0.23,0.22l-0.02,0.19l-0.42,0.37l-0.37,0.51l-0.34,0.39l-0.33,0.13
	l0.08-0.24l-0.29-0.16l-0.29,0.18l-0.37,0.09l0.07,0.23l0.23,0.06l0.14,0.14l-0.02,0.2l-0.32,0.15l-0.26-0.09l-0.1-0.18l0.18-0.32
	l0.02-0.31l-0.17-0.76l-0.15-0.2l-0.22-0.47l-0.26-0.38l0.05-0.62l-0.09-0.05l-0.2-0.46l0.04-0.26l0.19-0.23l-0.16-0.47l0.04-0.38
	l0.11-0.35l0.2-0.29l0.25-0.6l0-0.19l0.2-0.07l0.12-0.32l-0.22-0.1l-0.06-0.25l0.05-0.5l0.19-0.43l0.17-0.26l-0.09-0.13l0.08-0.55
	l0.15-0.49l0.17-0.28l0.13-0.36l-0.16-0.29l0.16-0.35l0.25-0.14l-0.14-0.23l0.27-0.59l0.13-0.06l0.08,0.39l0.28,0.01l-0.05-0.55
	l-0.14-0.12l0.09-0.35l0.32-0.34l0.22,0.08l0.18-0.12l-0.12-0.34l0.11-0.31l0.17-0.24l0.23-0.2l0.23,0.02l0.25-0.21l-0.1-0.14
	l-0.45,0.11l-0.07-0.15l0.31-0.33l0.07,0.08l0.28-0.11l0.04-0.33l-0.16-0.13l-0.09-0.22l-0.13,0.06l-0.08-0.24l0.4-0.34l0.4,0
	l0.47,0.41l0.28-0.05l0.17-0.12l-0.02-0.61l0.28-0.65l0.25,0.29l0.3-0.33l-0.3-0.19l-0.07-0.19l0.23-0.17l0.02-0.29l-0.17,0.03
	l-0.15-0.33l-0.42,0l-0.28,0.11l0.04-0.2l-0.16-0.13l0.25-0.21l0.16-0.29l0.12-0.09l0.15,0.2l0.18-0.03l0.26-0.28l0.23,0.12
	l0.4,0.01l0.11-0.21l0-0.22L331.43,153.28z M324.42,153.65l0.93,0l-0.41,0.16l-0.06,0.14l0.08,0.24l-0.15,0.06l-0.13-0.14l0.12-0.23
	l-0.07-0.16l-0.23,0.03L324.42,153.65z M220.18,164.06l0.19,0.06l0.25,0.31l0,0.41l-0.18,0.07l-0.41,0.34l-0.27,0.04l-0.06,0.14
	l0.08,0.35l0.13,0.15l0.2-0.05l0.1,0.21l0.32,0.02l0.25,0.2l-0.09,0.17l0.15,0.3l0.07,0.47l-0.12,0.34l0.34,0.64l0.3,0.18l0.11,0.24
	l0.27,0.03l0.32,0.28l0.11,0.2l0.02,0.42l0.26,0.03l0.08,0.1l0.26,0.05l0.28-0.15l0.36,0.07l0.15,0.17l0.23-0.02l0.37,0.48
	l-0.06,0.26l0.1,0.09l0.28-0.06l0.13,0.26l0.52,0.34l0.15,0.25l2.07-0.13l0.12-0.04l0.16-0.27l0.41-0.14l0.21-0.13l0.09-0.44
	l0.41,0.03l0.32-0.2l0.02-0.13l0.41-0.19l0.16,0.07l0.2-0.05l0.08-0.16l0.22-0.67l0.21-0.22l0.22,0.04l0.21-0.42l0.75,0.84
	l1.68,1.41l0.36-0.19l0.66-0.45l0.96-0.35l0.5-0.14l0.82-0.14l1.02-0.28l0,0.21l0.24,0.01l0.33-0.09l0.5-0.23l0.33-0.2l0.55-0.53
	l0.34-0.19l-0.61-0.82l0.35-0.62l-0.04-0.18l0.1-0.22l0.24,0.14l0.17-0.02l0.54,0.44l0.11,0.19l0.28,0.02l0.26,0.49l0.18-0.06
	l0.96-0.44l0.91-0.57l0.37-0.28l0.56-0.32l0.25-0.24l0.59-0.38l0.27-0.01l0.44-0.18l0.33,0.53l-0.07,0.28l0.04,0.22l0.34,0.26
	l0.57-0.34l0.31-0.27l1.1-0.68l-0.07-0.11l0.61-0.2l0.57-0.33l0.3-0.57l-0.16-0.06l-0.31,0.2l-0.37-0.19l0.31-0.23l-0.29-0.4
	l1.21-0.7l0.33-0.26l0.34-0.46l-0.32-0.22l-0.5-0.18l-0.21-0.24l-0.3-0.77l0.16-0.1l0.61-0.75l-0.19-0.19l0.09-0.4l0.14-0.02
	l0.14-0.25l0.34-0.3l-0.13-0.23l0.19-0.39l0.22-0.14l0.06-0.19l0.29-0.3l0.04-0.2l0.37-0.64l0.23-0.27l0.13,0.1l0.68-0.82l0.11,0.02
	l0.38-0.54l0.46-0.35l0.8-0.8l0.13-0.34l0.26-0.44l0.35-0.81l0.09-0.37l0.47-0.55l-0.2-0.15l-0.11-0.45l0.27-0.18l0.22-0.53
	l-0.09-0.39l0.12-0.18l0.27-0.11l0.12-0.26l0.22-0.14l0.57-0.66l0.2-0.04l0.08-0.18l0.17,0.03l0.58-0.57l-0.14-0.38l-0.13-0.04
	l-0.13-0.29l0.24-0.42l0.41-0.28l0.15-0.47l0.36,0.05l0.33-0.23l-0.11-0.21l0.09-0.31l0.34-0.65l0.29-0.36l0.02-0.43l-0.05-0.3
	l-0.15-0.26l0.07-0.43l0.2-0.16l0.04-0.21l0.32-0.11l-0.19-0.3l0.11-0.22l-0.05-0.25l0.11-0.47l0.24-0.48l1.37,0.63l0.28,0.06
	l0.33,0.21l0.28,0.38l0.81,1.72l1.88,0.65l1.03,0.34l0.22-0.07l0.35-0.22l-0.05-0.17l0.27-0.15l0.25-0.39l0.18,0.03l0.04-0.35
	l0.25-0.15l0.08-0.19l0.19-0.18l-0.01-0.33l0.08-0.39l0.73-1.33l0.07-0.41l0.13-0.44l0.24-0.4l0.11-0.34l0.19-0.16l0.24,0.09
	l0.24-0.08l0.14-0.61l-0.15-0.36l0.09-0.4l0.26-0.62l0.26-0.29l0.1-0.4l-0.06-0.17l0.15-0.14l0.33,0l0.13-0.58l0.23-0.16l0.1-0.48
	l0.11-0.1l2.22,1.95l0.37-0.73l0.46-0.82l0.22-0.57l0.35-0.66l0.16-0.17l0.35-0.19l0.15-0.36l0.2-0.25l0.29-0.1l0.07,0.6l0.25-0.24
	l0.12-0.01l0.16-0.21l0.14-0.01l0.37-0.51l0.22-0.47l0.14,0.03l0.15-0.32l0.16-0.04l0.33,0.41l0.15-0.17l0.22-0.42l0.37-0.49
	l0.15-0.14l-0.38-0.31l0.55-0.66l0.31-0.24l0.11-0.25l0.36-0.39l0.31-0.25l0.33-0.09l0.35-0.43l0.05-0.21l0.16-0.25l0.24-0.13
	l0.18-0.2l-0.27-0.22l-0.17-0.22l-0.04-0.21l-0.14-0.04l0.58-0.76l0.02-0.22l-0.09-0.26l-0.19-0.11l0.45-0.59l0.1-0.24l0.47-0.56
	l0.24-0.49l0.1-0.33l-0.47-0.13l0.21-0.28l0.2-0.39l-0.26-0.35l-0.03-0.19l0.22-0.34l-0.02-0.3l0.04-0.43l-0.03-0.15l1.05,0.84
	l0.44,0.32l1.86,1.59l0.3,0.22l0.57,0.48l1.35,1.08l3.64,2.97l0.09-0.36l0.17-0.39l0.14-0.21l0.19-0.82l0.38-0.61l0.07-0.29
	l0.25-0.64l0.09-0.41l0.21-0.4l0.27-0.21l0.39,0.06l0.38-0.13l0.44,0.3l0.62,0.17l0.49,0.01l0.38-0.1l0.09,0.1l0.02,0.36l0.32,0.44
	l0.61,0.32l0.38,0.11l0.47,0.43l0.01,0.22l-0.24,0.24l-0.02,0.31l-0.19,0.21l-0.33,0.09l-0.2,0.25l-0.18,0.57l0.06,0.42l0.16,0.21
	l0.53,0.2l0.15,0.2l0.26,0.54l0.17,0.09l0.53,0.12l0.85,0.12l0.61-0.04l0.45,0.24l0.39,0.13l0.32,0.28l0.34,0.09l0.17,0.11L303,130
	l-0.15,0.29l0.2,0.45l0.41,0.25l0.42,0.1l0.56-0.03l0.34,0.08l0.34,0.55l0.14,0.12l0.29,0.48l0.17,0.16l0.47,0.15l0.07,0.24
	l0.26,0.4l0.15-0.01l0.16,0.47l-0.13,0.42l0.04,0.41l-0.03,0.51l-0.05,1.14l0.02,0.35l-0.08,0.26l-0.12,0.1l-0.47,0.03l-0.45,0.28
	l-0.28,0.25l-0.19,0.27l-0.05,0.54l0.11,0.34l-0.49-0.04l-0.19,0.26l-0.58,0.19l-0.23-0.45l0.2-0.05l0.17-0.25l-0.18-0.17
	l-0.12,0.04l-0.45-0.07l0.21,0.31l-0.08,0.19l-0.32,0.06l0.03,0.33l-0.08,0.33l-0.11,0.16l0.17,0.19l-0.32,0.24l0.07,0.53
	l-0.26,0.22l-0.11,0.47l-0.23,0.44l-0.21,0.24l-0.24,0.67l-0.05,0.53l0.13,0.58l0.15,0.45l-0.11,0.05l0,0.27l0.38,0.3l0.14,0.23
	l0.04,0.28l0.12,0.17l0.26,0.15l0.43,0.03l0.62-0.22l0.43-0.02l0.31-0.11l0.43-0.5l0.24,0.02l0.35-0.07l0.35,0.03l0.25-0.21
	l0.3-0.48l0.2-0.03l0.41,0.4l0.07,0.62l0.01,0.49l-0.3,0.31l-0.18-0.07l-0.27,0.05l0.27,0.25l0.22-0.05l0.51,0.67l0.02,0.16
	l0.34,0.01l0.34,0.4l0.1,0.44l-0.18,0.22l0.1,0.29l0.44,0.26l0.47,0.11l0.63,0.55l0.29,0.02l0.36,0.16l0.26-0.01l0.43-0.12l0.7,0.05
	l0.29,0.25l0.11,0.18l0,0.3l0.17,0.05l0.43-0.4l0.06-0.24l0.19,0l0.44,0.28l0.15,0.27l0.3,0.29l0.12-0.12l-0.2-0.47l0.25-0.11
	l0.32,0.1l0,0.25l0.13,0.16l0.06,0.45l0.38,0.34l0.39,0.19l0.39,0.28l0,0.17l0.26,0.44l-0.14,0l-0.2,0.16l-0.18-0.04l-0.08,0.36
	l0.33,0.08l0.39-0.12l0.33,0.16l0.29,0.08l0.31,0.41l-0.18,0.06l-0.01,0.2l0.22-0.05l0.36,0.06l0.23,0.16l0.2,0.22l0.55,0.23
	l0.43,0.09l0.29,0.1l1.38,0.79l0.28,0.34l0.24,0.12l-0.21,0.87l-0.02,0.38l-0.26,0.4l-0.26,0.11l-0.08-0.22l-0.38,0.01l-0.01,0.48
	l-0.15,0.17l0.12,0.4l0,0.49l0.06,0.48l-0.23-0.14l0,0.4l0.15,0.07l0.15,0.32l0.02,0.26l-0.56,0.15l0.17,0.21l-0.21,0.24l-0.04,0.19
	l0.13,0.22l0.02,0.35l0.22,0.06l0.11-0.34l0.36,0.13l0.23,0.39l-0.22,0.08l-0.36-0.22l-0.16,0.11l-0.19-0.1l-0.39,0.1l-0.14,0.23
	L318.6,161l-0.16-0.07l-0.21,0.07l-0.23-0.24l-0.25-0.06l-0.19-0.25l-0.22,0.09l-0.32-0.48l0.27-0.15l-0.26-0.41l-0.15,0.03
	l-0.17,0.21l0.07,0.23l-0.15,0.25l-0.17,0.44l-0.18-0.02l-0.4-0.35l-0.06-0.18l0.03-0.41l-0.12-0.45l-0.25-0.19l-0.08-0.25
	l-0.16-0.14l-0.04-0.27l-0.26-0.55l-0.29-0.02l-0.3-0.24l-0.11-0.28l-0.3-0.21l-0.16,0.21l-0.13-0.23l-0.19-0.12l-0.19-0.3
	l-0.38,0.07l-0.36-0.31l-0.16-0.29l-0.18-0.12l0.05-0.23l-0.17-0.23l-0.32-0.07l-0.06-0.45l-0.19-0.27l-0.34-0.3l-0.2,0.02
	l-0.19-0.2l-0.22,0.03l-0.31-0.43l0.06-0.11l-0.09-0.38l-0.21-0.09l-0.14-0.19l-0.37,0l-0.15-0.28l-0.32,0l-0.15,0.38l0.2,0.18
	l0.43-0.04l0.26,0.1l-0.19,0.42l0.13,0.02l0.37,0.35l0.22,0.42l0.26,0l0.19,0.3l0.49,0.16l0.01,0.22l0.2,0.49l0.21,0.18l0.13,0.43
	l0.23,0.25l0.31,0.56l0.19,0.23l0.15,0.06l0.45,0.01l0.17,0.11l-0.05,0.33l0.11,0.21l0.23,0.09l0.43,0.02l0.41,0.19l-0.04,0.25
	l0.39,0.3l0.02,0.39l0.13,0.13l0.02,0.2l0.15,0.26l-0.18,0.17l0.28,0.21l-0.06,0.16l0.36,0.35l0.14,0.27l0.39,0.22l0.62-0.04
	l0.29,0.05l0.34-0.06l0.45,0.04l-0.01,0.31l0.06,0.21l0.23,0.16l0.12-0.03l0.45,0.19l0.45-0.02l0.44,0.08l0.35,0.17l0.22,0.01
	l-0.04,0.23l-0.16,0.11l-0.18-0.02l-0.18,0.14l-0.52,0.16l0.04,0.47l0.12,0.19l0.3,0.01l0.19,0.4l0.17-0.06l0.47-0.57l0.13,0.14
	l0.18,0.4l-0.18,0.09l-0.46-0.2l-0.03,0.14l0.52,0.3l-0.02,0.2l0.44,0.29l0.07,0.35l0.09,0.93l0.01,0.35l-0.2,0.37l-0.22,0.15
	l-0.04,0.13l0.06,0.45l-0.05,0.36l-0.4-0.3l-0.2-0.05l-0.1-0.35l-0.12,0.03l-0.5-0.6l-0.11,0.05l-0.28-0.24l-0.26-0.08l-0.21-0.39
	l-0.04-0.33l-0.24-0.03l-0.06,0.2l0.04,0.91l-0.25-0.29l-0.39,0.01l-0.17-0.13l-0.11,0.17l0,0.29l0.19,0.16l0.21-0.16l0.17,0.27
	l0.17,0.08l0.15,0.2l0.24,0.06l-0.22,0.21l0.06,0.15l-0.45,0.02l0,0.18l0.34,0.14l0.35-0.13l0.19,0.1l-0.08,0.22l0.19,0.13
	l0.11,0.27l0.42,0.04l-0.17,0.22l-0.29,0.01l-0.2,0.11l-0.48-0.03l-0.1,0.23l-0.2-0.04l-0.54,0.16l-0.22,0l-0.1-0.1l-0.39,0.22
	l-0.07,0.13l0.27,0.31l0.4,0.2l0.6-0.08l0.28-0.09l0.19,0.01l0.42-0.08l-0.26,0.43l0.2,0.3l-0.05,0.41l-0.25-0.01l-0.08,0.3
	l0.55,0.12l0.38-0.29l0.28,0.11l0.2,0.41l0.38,0.13l0.29,0.3l-0.12,0.24l0.39,0.28l0.15,0.3l-0.19,0.64l-0.18,0.52l-0.2,0.75
	l-0.19,0l-0.04-0.24l-0.41-0.05l-0.13,0.19l-0.52,0.22l-0.33,0.33l-0.28,0.44l-0.22-0.09l-0.48-0.7l0.06-0.21l-0.29-0.44l-0.55-0.37
	l-0.54-0.4l-0.01-0.34l-0.3-0.23l-0.12,0.17l-0.23,0.08l-0.29-0.4l-0.3-0.21l-0.04-0.11l-0.35-0.17l-0.07-0.14l-0.01-0.36l0.1-0.04
	l0.18-0.31l-0.18-0.47l-0.06-0.29l-0.19-0.32l-0.36-0.31l-0.18-0.05l-0.58,0l-0.16,0.15l-0.51,0.12l-0.47-0.07l0.42,0.27l-0.14,0.24
	l-0.26,0.02l-0.4-0.38l-0.24-0.48l-0.51-0.27l-0.5,0.07l-0.34-0.03l0.03-0.41l-0.08-0.05l-0.24,0.22l-0.2,0.06l-0.13,0.18
	l-0.16-0.02l-0.06,0.21l-0.39-0.07l-0.12,0.21l0.37,0.26l0.42,0.35l0.2,0l0.44-0.21l0.84,0.07l0.31-0.02l-0.02,0.17l0.35,0.44
	l0.36,0.22l0.26,0.39l0.3,0.11l0.27-0.06l0.21-0.5l0.09-0.08l0.09-0.46l0.1-0.05l0.29,0.3l0.11,0.21l-0.13,0.34l0,0.37l0.13,0.2
	l0.03,0.32l0.1,0.13l-0.01,0.34l-0.17,0.45l-0.04,0.36l0.19,0.38l0.23,0.14l0.6,0.01l0.45,0.14l0.19,0.3l-0.13,0.18l0.07,0.19
	l0.29-0.11l0.21,0.1l0.19,0.23l0.28,0.1l0.07,0.23l0.13,0.11l0.31,0.07l0.17,0.18l0.02,0.4l-0.17-0.06l-0.08,0.27l0.35,0.33
	l-0.05,0.4l-0.17,0.1l0.03,0.23l0.15,0.06l0.17-0.1l0.33-0.04l0.01-0.19l0.21-0.3l0.6,0.18l0.3,0.03l0.06-0.08l0.02-0.53l0.55,0
	l0.1,0.61l0.49,0.2l0.1-0.06l0.03-0.31l-0.21-0.02l-0.08-0.84l0.07-0.47l0.17,0.17l0.27-0.02l0.07-0.28l0.34,0.02l0.17,0.07
	l0.58,0.42l0.24,0.12l0.72,0.2l0.72,0.14l0.87,0.32l0.14-0.1l0.43-0.11l0.29-0.28l0.26-0.06l0.34,0.07l0.21,0.15l0.11,0.37
	l0.33,1.39l0.13,0.66l0.29,1.13l0.5,1.51l0.56,1.34l0.31,1.03l0.13,0.72l-7.86,0.09l-2.68,0.02l-1.35,0.03l-0.59,0l-2.87,0.03
	l-1.22,0.02l-1.92-0.01l0,0.18l-3.15,0.02l-1.02,0.02l-0.3-0.07l-0.63,0.07l-9.59,0.08l-2.21,0.04l-4.55,0.07l-1.98,0.01l-3.97,0.09
	l-0.69,0.04l-1.68,0.01l-1.02,0l-2.34,0.03l-3.09,0.02l-4.89,0.07l-3.45,0.04l-1.14,0.02l-2.77,0.01l-3.88,0.02l-0.3,0.01
	l-3.84,0.04l-1.82-0.01l-1.23,0.01l-2.56-0.12l-3.25-0.13l-1.41-0.07l-0.45,0l-0.77,0.06l-0.53,0l-0.59,0.04l-1.91-0.07l-1.02,0
	l-0.97-0.06l-0.43,0l-1.55-0.07l-0.1-0.02l-1.29-0.01l-1.02-0.03l-1.18,0.02l-1.19-0.03l-0.61-0.07l-0.23,0.03l-0.55-0.03
	l-1.41-0.13l-1.35-0.01l0.53-0.53l-1.59,0.01l-3.27-0.05l-0.2,0.48l-3.78,0.03l-1.09-0.01l-1.52,0.02l-2.99,0.06l-0.36-0.03
	l-2.15,0.06l-1.24,0.02l-3.67,0.05l-2.47,0.02l-4.1,0.05l-0.27-0.09l-1.74,0.04l-3.21,0.04l-1.16,0l-0.93-0.05l0.46-0.35l0.02-0.13
	l0.41-0.06l0.18-0.19l0.36-0.15l0.3-0.02l0.26-0.21l0.37-0.12l0.17-0.19l0.35-0.09l0.32-0.02l0.2,0.08l0.49,0.03l0.54-0.06
	l0.49-0.21l0.17-0.21l0.46-0.16l0.3-0.17l0.63-0.23l0.34-0.06l0.43-0.16l0.77-0.24l0.44-0.19l0.58-0.02l0.44-0.07l0.15-0.17
	l-0.08-0.3l0.06-0.26l-0.07-0.16l0.24-0.14l0.36-0.55l-0.06-0.32l0.26-0.2l0.2-0.06l0.04-0.3l0.44,0.06l0.37-0.09l0.09,0.12
	l0.28,0.04l0.13-0.19l0.34-0.07l0.16,0.04l0.33-0.19l0.24-0.02l0.27-0.15l0.26-0.02l0.03-0.11l0.47-0.21l0.17-0.28l-0.13-0.13
	l0.3-0.39l0-0.53l-0.19-0.36l0.02-0.19l0.27-0.25l0.16,0.03l0.25-0.22l0.14-0.24l0.39-0.08l0.32-0.01l0.4-0.42l0.2,0.05l0.09-0.39
	l0.28,0.02l0.07-0.35l-0.09-0.33l0.07-0.26l0.01-0.78l0.65-0.35l0.14,0.01l0.34-0.22l0.1-0.16l0.32-0.06l0.15-0.19l0.57-0.44
	l0.24-0.13l0.5-0.36l0.53-0.19l0.37-0.32l0.88-0.38l0.31-0.07l0.84-0.3l0.12,0l0.45-0.17l0.25-0.29l0.22-0.08l0.15-0.26l1.99-1.8
	l1.35-1.17l1.08-0.98l0.21-0.22L220.18,164.06z"/>
<g>
	<path class="st1" d="M271.01,171.45l0.47-11.6l1.34,0.46l-0.3,5.78l-0.23,4.37l0.08,0.03l2.49-3.6l3.29-4.76l1.3,0.44l-6.72,9.47
		L271.01,171.45z"/>
	<path class="st1" d="M283.66,175.76l0.13-3.31l-3.7-1.26l-1.92,2.7l-1.31-0.45l6.82-9.43l1.68,0.57L285,176.22L283.66,175.76z
		 M284.12,165.66l-0.14-0.05l-3.21,4.58l3.09,1.05L284.12,165.66z"/>
</g>
</svg>
