<?xml version="1.0" encoding="utf-8"?>
<!-- Generator: Adobe Illustrator 24.1.0, SVG Export Plug-In . SVG Version: 6.00 Build 0)  -->
<svg version="1.1" id="Layer_1" xmlns="http://www.w3.org/2000/svg" xmlns:xlink="http://www.w3.org/1999/xlink" x="0px" y="0px"
	 viewBox="0 0 700 100" style="enable-background:new 0 0 700 100;" xml:space="preserve">
<style type="text/css">
	.st0{fill:#FFFFFF;stroke:#231F20;stroke-width:5;stroke-miterlimit:10;}
	.st1{fill:#FF6666;}
	.st2{fill:#FFFFFF;}
	.st3{fill:#F68C38;}
	.st4{fill:#231F20;}
	.st5{fill:none;stroke:#231F20;stroke-width:6;stroke-miterlimit:10;}
	.st6{fill:#231F20;stroke:#231F20;stroke-width:7;stroke-miterlimit:10;}
	.st7{fill:none;stroke:#231F20;stroke-width:0.75;stroke-miterlimit:10;}
	.st8{fill:#FF6060;}
	.st9{fill:#339AFF;}
	.st10{fill:#FFFFFF;stroke:#231F20;stroke-width:10;stroke-miterlimit:10;}
	.st11{fill:none;stroke:#231F20;stroke-width:10;stroke-miterlimit:10;}
	.st12{fill:#0F3A46;}
	.st13{fill:#FDFDFD;}
	.st14{fill:#FDB828;}
	.st15{fill:#FFFFFF;stroke:#231F20;stroke-width:3;stroke-miterlimit:10;}
	.st16{fill:none;stroke:#231F20;stroke-width:4;stroke-miterlimit:10;}
	.st17{fill:#FFFFFF;stroke:#231F20;stroke-width:6.7233;stroke-miterlimit:10;}
	.st18{fill:none;stroke:#231F20;stroke-width:8.068;stroke-miterlimit:10;}
	.st19{fill:#231F20;stroke:#231F20;stroke-width:9.4127;stroke-miterlimit:10;}
	.st20{fill:none;stroke:#231F20;stroke-width:1.0085;stroke-miterlimit:10;}
	.st21{fill:#FFFFFF;stroke:#231F20;stroke-width:4.4578;stroke-miterlimit:10;}
	.st22{fill:none;stroke:#231F20;stroke-width:8.9156;stroke-miterlimit:10;}
	.st23{fill:#231F20;stroke:#231F20;stroke-width:10.4016;stroke-miterlimit:10;}
	.st24{fill:none;stroke:#231F20;stroke-width:1.1145;stroke-miterlimit:10;}
	.st25{fill:none;stroke:#231F20;stroke-width:5.9438;stroke-miterlimit:10;}
	.st26{fill:#FFFFFF;stroke:#231F20;stroke-width:8.0745;stroke-miterlimit:10;}
	.st27{fill:none;stroke:#231F20;stroke-width:9.6894;stroke-miterlimit:10;}
	.st28{fill:#231F20;stroke:#231F20;stroke-width:11.3043;stroke-miterlimit:10;}
	.st29{fill:none;stroke:#231F20;stroke-width:1.2112;stroke-miterlimit:10;}
</style>
<path class="st0" d="M125.95,81.45H26.12c-9.35,0-16.92-7.58-16.92-16.92v-31.5c0-9.35,7.58-16.92,16.92-16.92h99.83
	c9.35,0,16.92,7.58,16.92,16.92v31.5C142.87,73.87,135.3,81.45,125.95,81.45z"/>
<g>
	<path class="st1" d="M87.75,84.42H64.33c-4.24,0-7.68-3.44-7.68-7.68v-3.58c0-4.24,3.44-7.68,7.68-7.68h23.42
		c4.24,0,7.68,3.44,7.68,7.68v3.58C95.43,80.98,91.99,84.42,87.75,84.42z"/>
	<g>
		<path class="st2" d="M66.93,80.52c-0.69,0-1.3-0.13-1.82-0.39s-0.92-0.63-1.2-1.11c-0.28-0.48-0.42-1.05-0.42-1.7v-4.72
			c0-0.66,0.14-1.23,0.42-1.71c0.28-0.48,0.68-0.85,1.2-1.11s1.13-0.39,1.82-0.39c0.71,0,1.31,0.13,1.82,0.39
			c0.51,0.26,0.91,0.63,1.2,1.11c0.29,0.48,0.43,1.05,0.43,1.71h-1.87c0-0.51-0.13-0.91-0.41-1.17c-0.27-0.27-0.66-0.4-1.17-0.4
			c-0.51,0-0.9,0.13-1.17,0.4c-0.27,0.27-0.42,0.65-0.42,1.16v4.74c0,0.5,0.14,0.9,0.42,1.17s0.67,0.42,1.17,0.42
			c0.5,0,0.89-0.14,1.17-0.42c0.27-0.27,0.41-0.67,0.41-1.17v-1.1h-1.84v-1.6h3.71v2.7c0,0.65-0.14,1.22-0.43,1.7
			c-0.29,0.48-0.68,0.85-1.2,1.11C68.24,80.38,67.63,80.52,66.93,80.52z"/>
		<path class="st2" d="M75.79,80.52c-0.69,0-1.29-0.13-1.8-0.39c-0.51-0.26-0.9-0.63-1.17-1.11s-0.41-1.05-0.41-1.7v-4.72
			c0-0.65,0.13-1.22,0.41-1.7s0.66-0.85,1.17-1.11c0.51-0.26,1.11-0.39,1.8-0.39c0.71,0,1.31,0.13,1.81,0.39
			c0.5,0.26,0.89,0.63,1.17,1.11c0.27,0.48,0.41,1.04,0.41,1.69v4.74c0,0.65-0.13,1.22-0.41,1.7s-0.66,0.85-1.17,1.11
			C77.09,80.38,76.48,80.52,75.79,80.52z M75.79,78.88c0.5,0,0.88-0.13,1.14-0.41c0.26-0.27,0.39-0.66,0.39-1.17v-4.72
			c0-0.51-0.13-0.91-0.39-1.17c-0.26-0.27-0.64-0.4-1.14-0.4s-0.88,0.13-1.14,0.4c-0.26,0.27-0.39,0.66-0.39,1.17v4.72
			c0,0.5,0.13,0.89,0.39,1.17C74.91,78.75,75.29,78.88,75.79,78.88z"/>
		<path class="st2" d="M81.39,80.37V69.53h3.61c0.72,0,1.35,0.14,1.89,0.42c0.54,0.27,0.96,0.67,1.26,1.17s0.45,1.08,0.45,1.76
			c0,0.66-0.15,1.25-0.45,1.75c-0.3,0.5-0.72,0.9-1.26,1.17c-0.53,0.27-1.17,0.42-1.89,0.42h-1.75v4.16H81.39z M83.24,74.53h1.75
			c0.51,0,0.93-0.15,1.24-0.45c0.31-0.3,0.47-0.71,0.47-1.21c0-0.51-0.16-0.92-0.47-1.22c-0.31-0.3-0.73-0.45-1.24-0.45h-1.75V74.53
			z"/>
	</g>
</g>
<path class="st5" d="M142.87,56.8h6.06c8.58,0,15.54-6.96,15.54-15.54V19"/>
<circle class="st6" cx="164.48" cy="19" r="6.27"/>
<rect x="54.55" y="16.77" class="st7" width="42.96" height="63.75"/>
<g>
	<path class="st8" d="M78.85,39.49h-6.46c-3.45,0-6.24-2.79-6.24-6.24v-6.46c0-3.45,2.79-6.24,6.24-6.24h6.47
		c3.45,0,6.24,2.79,6.24,6.24v6.47C85.08,36.7,82.29,39.49,78.85,39.49z"/>
	<g>
		<path class="st2" d="M72.19,35.44V24.6h3.43c0.72,0,1.35,0.13,1.88,0.4c0.53,0.27,0.94,0.64,1.24,1.12s0.45,1.05,0.45,1.7
			c0,0.71-0.18,1.34-0.54,1.89c-0.36,0.54-0.85,0.93-1.46,1.16l2.15,4.57h-2.08l-1.89-4.31h-1.32v4.31H72.19z M74.05,29.5h1.57
			c0.53,0,0.94-0.14,1.23-0.43s0.45-0.68,0.45-1.19c0-0.51-0.15-0.92-0.45-1.21c-0.3-0.29-0.71-0.44-1.23-0.44h-1.57V29.5z"/>
	</g>
</g>
<g>
	<path class="st9" d="M45.19,35.7H21.77c-4.24,0-7.68-3.44-7.68-7.68v-3.58c0-4.24,3.44-7.68,7.68-7.68h23.42
		c4.24,0,7.68,3.44,7.68,7.68v3.58C52.87,32.27,49.43,35.7,45.19,35.7z"/>
	<g>
		<path class="st2" d="M21.08,31.66V20.81h3.22c0.74,0,1.37,0.14,1.91,0.42s0.96,0.67,1.26,1.17c0.3,0.5,0.45,1.11,0.45,1.8v4.05
			c0,0.68-0.15,1.28-0.45,1.79s-0.71,0.91-1.26,1.19c-0.54,0.28-1.17,0.42-1.91,0.42C24.31,31.66,21.08,31.66,21.08,31.66z
			 M22.94,29.95h1.37c0.53,0,0.96-0.15,1.28-0.45c0.32-0.3,0.48-0.71,0.48-1.24V24.2c0-0.51-0.16-0.92-0.48-1.23
			c-0.32-0.3-0.74-0.45-1.28-0.45h-1.37V29.95z"/>
		<path class="st2" d="M30.19,31.66V20.81h6.51v1.62h-4.68v2.82h4.16v1.6h-4.16v3.18h4.68v1.62C36.7,31.66,30.19,31.66,30.19,31.66z
			"/>
		<path class="st2" d="M38.63,31.66V20.81h2.2l1.05,3.45c0.11,0.35,0.2,0.66,0.27,0.95s0.11,0.5,0.13,0.62
			c0.02-0.13,0.07-0.33,0.13-0.62c0.07-0.29,0.16-0.6,0.25-0.95l1.01-3.45h2.2v10.84h-1.74v-3.37c0-0.5,0.01-1.03,0.04-1.62
			c0.03-0.59,0.07-1.17,0.1-1.75c0.04-0.59,0.09-1.14,0.14-1.66c0.05-0.53,0.1-0.99,0.14-1.38l-1.46,5.12h-1.69l-1.5-5.12
			c0.05,0.38,0.1,0.82,0.15,1.33c0.05,0.51,0.1,1.05,0.14,1.63c0.04,0.58,0.08,1.17,0.11,1.76c0.03,0.59,0.04,1.16,0.04,1.69v3.37
			C40.36,31.66,38.63,31.66,38.63,31.66z"/>
	</g>
</g>
<g>
	<path class="st9" d="M78.12,61.95h-6.46c-3.45,0-6.24-2.79-6.24-6.24v-6.46c0-3.45,2.79-6.24,6.24-6.24h6.47
		c3.45,0,6.24,2.79,6.24,6.24v6.47C84.35,59.16,81.56,61.95,78.12,61.95z"/>
	<g>
		<path class="st2" d="M72.2,57.91V47.06h3.22c0.74,0,1.37,0.14,1.91,0.42c0.54,0.27,0.96,0.67,1.26,1.17
			c0.3,0.51,0.45,1.11,0.45,1.8v4.05c0,0.68-0.15,1.28-0.45,1.79c-0.3,0.51-0.71,0.91-1.26,1.19c-0.54,0.28-1.17,0.42-1.91,0.42
			H72.2z M74.06,56.2h1.37c0.53,0,0.96-0.15,1.28-0.45s0.48-0.71,0.48-1.24v-4.05c0-0.51-0.16-0.92-0.48-1.23s-0.74-0.45-1.28-0.45
			h-1.37V56.2z"/>
	</g>
</g>
<g>
	<path class="st8" d="M35.64,57.22h-6.46c-3.45,0-6.24-2.79-6.24-6.24v-6.46c0-3.45,2.79-6.24,6.24-6.24h6.47
		c3.45,0,6.24,2.79,6.24,6.24v6.47C41.88,54.43,39.09,57.22,35.64,57.22z"/>
	<g>
		<path class="st2" d="M28.99,53.18V42.33h3.43c0.72,0,1.35,0.13,1.88,0.4s0.94,0.64,1.24,1.12c0.3,0.48,0.45,1.05,0.45,1.7
			c0,0.71-0.18,1.34-0.54,1.89c-0.36,0.54-0.85,0.93-1.46,1.16l2.15,4.57h-2.08l-1.89-4.31h-1.32v4.31H28.99z M30.84,47.24h1.57
			c0.53,0,0.94-0.14,1.23-0.43s0.45-0.68,0.45-1.19c0-0.51-0.15-0.92-0.45-1.21s-0.71-0.44-1.23-0.44h-1.57V47.24z"/>
	</g>
</g>
<g>
	<path class="st9" d="M35.64,78.99h-6.46c-3.45,0-6.24-2.79-6.24-6.24V66.3c0-3.45,2.79-6.24,6.24-6.24h6.47
		c3.45,0,6.24,2.79,6.24,6.24v6.47C41.88,76.2,39.09,78.99,35.64,78.99z"/>
	<g>
		<path class="st2" d="M29.73,74.95V64.1h3.22c0.74,0,1.37,0.14,1.91,0.42c0.54,0.27,0.96,0.67,1.26,1.17
			c0.3,0.5,0.45,1.11,0.45,1.8v4.05c0,0.68-0.15,1.28-0.45,1.79c-0.3,0.51-0.71,0.91-1.26,1.19c-0.54,0.28-1.17,0.42-1.91,0.42
			H29.73z M31.59,73.24h1.37c0.53,0,0.96-0.15,1.28-0.45c0.32-0.3,0.48-0.71,0.48-1.24v-4.05c0-0.51-0.16-0.92-0.48-1.23
			c-0.32-0.3-0.74-0.45-1.28-0.45h-1.37V73.24z"/>
	</g>
</g>
<g>
	<path class="st1" d="M129.94,62.65h-23.42c-4.24,0-7.68-3.44-7.68-7.68v-3.58c0-4.24,3.44-7.68,7.68-7.68h23.42
		c4.24,0,7.68,3.44,7.68,7.68v3.58C137.61,59.21,134.18,62.65,129.94,62.65z"/>
	<g>
		<path class="st2" d="M109.12,58.75c-0.69,0-1.3-0.13-1.82-0.39s-0.92-0.63-1.2-1.11s-0.42-1.05-0.42-1.7v-4.72
			c0-0.66,0.14-1.23,0.42-1.71s0.68-0.85,1.2-1.11s1.13-0.39,1.82-0.39c0.71,0,1.31,0.13,1.82,0.39c0.51,0.26,0.91,0.63,1.2,1.11
			c0.29,0.48,0.43,1.05,0.43,1.71h-1.87c0-0.51-0.13-0.91-0.41-1.17c-0.27-0.27-0.66-0.4-1.17-0.4s-0.9,0.13-1.17,0.4
			s-0.42,0.65-0.42,1.16v4.74c0,0.51,0.14,0.9,0.42,1.17s0.67,0.42,1.17,0.42c0.51,0,0.89-0.14,1.17-0.42s0.41-0.67,0.41-1.17v-1.1
			h-1.84v-1.6h3.71v2.7c0,0.65-0.14,1.22-0.43,1.7c-0.29,0.48-0.68,0.85-1.2,1.11C110.43,58.61,109.82,58.75,109.12,58.75z"/>
		<path class="st2" d="M117.97,58.75c-0.69,0-1.29-0.13-1.8-0.39s-0.9-0.63-1.17-1.11s-0.41-1.05-0.41-1.7v-4.72
			c0-0.65,0.13-1.22,0.41-1.7s0.66-0.85,1.17-1.11s1.11-0.39,1.8-0.39c0.71,0,1.31,0.13,1.81,0.39c0.51,0.26,0.89,0.63,1.17,1.11
			s0.41,1.04,0.41,1.69v4.74c0,0.65-0.13,1.22-0.41,1.7s-0.66,0.85-1.17,1.11C119.28,58.61,118.67,58.75,117.97,58.75z
			 M117.97,57.11c0.5,0,0.88-0.13,1.14-0.41c0.26-0.27,0.39-0.66,0.39-1.17v-4.72c0-0.51-0.13-0.91-0.39-1.17
			c-0.26-0.27-0.64-0.4-1.14-0.4c-0.51,0-0.88,0.13-1.14,0.4s-0.39,0.66-0.39,1.17v4.72c0,0.5,0.13,0.89,0.39,1.17
			C117.09,56.98,117.47,57.11,117.97,57.11z"/>
		<path class="st2" d="M123.57,58.6V47.76h3.61c0.72,0,1.35,0.14,1.89,0.42s0.96,0.67,1.26,1.17s0.45,1.08,0.45,1.76
			c0,0.66-0.15,1.25-0.45,1.75c-0.3,0.5-0.72,0.9-1.26,1.17c-0.53,0.27-1.17,0.42-1.89,0.42h-1.75v4.16H123.57z M125.43,52.76h1.75
			c0.51,0,0.93-0.15,1.24-0.45s0.47-0.71,0.47-1.21c0-0.51-0.16-0.92-0.47-1.22s-0.73-0.45-1.24-0.45h-1.75V52.76z"/>
	</g>
</g>
<g>
	<path class="st8" d="M120.91,84.42h-6.46c-3.45,0-6.24-2.79-6.24-6.24v-6.46c0-3.45,2.79-6.24,6.24-6.24h6.47
		c3.45,0,6.24,2.79,6.24,6.24v6.47C127.15,81.62,124.36,84.42,120.91,84.42z"/>
	<g>
		<path class="st2" d="M114.26,80.37V69.53h3.43c0.72,0,1.35,0.13,1.88,0.4c0.53,0.27,0.94,0.64,1.24,1.12s0.45,1.05,0.45,1.7
			c0,0.71-0.18,1.34-0.54,1.89c-0.36,0.54-0.85,0.93-1.46,1.16l2.15,4.57h-2.08l-1.89-4.31h-1.32v4.31H114.26z M116.11,74.43h1.57
			c0.53,0,0.94-0.14,1.23-0.43c0.3-0.29,0.45-0.68,0.45-1.19c0-0.51-0.15-0.92-0.45-1.21s-0.71-0.44-1.23-0.44h-1.57V74.43z"/>
	</g>
</g>
<g>
	<path class="st9" d="M129.94,39.49h-23.42c-4.24,0-7.68-3.44-7.68-7.68v-3.58c0-4.24,3.44-7.68,7.68-7.68h23.42
		c4.24,0,7.68,3.44,7.68,7.68v3.58C137.61,36.05,134.18,39.49,129.94,39.49z"/>
	<g>
		<path class="st2" d="M105.83,35.44V24.6h3.22c0.74,0,1.37,0.14,1.91,0.42c0.54,0.27,0.96,0.67,1.26,1.17s0.45,1.11,0.45,1.8v4.05
			c0,0.68-0.15,1.28-0.45,1.79c-0.3,0.51-0.71,0.91-1.26,1.19c-0.54,0.28-1.17,0.42-1.91,0.42H105.83z M107.69,33.74h1.37
			c0.53,0,0.96-0.15,1.28-0.45c0.32-0.3,0.48-0.71,0.48-1.24v-4.05c0-0.51-0.16-0.92-0.48-1.23c-0.32-0.3-0.74-0.45-1.28-0.45h-1.37
			V33.74z"/>
		<path class="st2" d="M114.93,35.44V24.6h6.51v1.62h-4.68v2.82h4.16v1.6h-4.16v3.18h4.68v1.62H114.93z"/>
		<path class="st2" d="M123.37,35.44V24.6h2.2l1.05,3.45c0.11,0.35,0.2,0.66,0.27,0.95c0.07,0.29,0.11,0.5,0.13,0.62
			c0.02-0.13,0.07-0.33,0.13-0.62c0.07-0.29,0.16-0.6,0.25-0.95l1.01-3.45h2.2v10.84h-1.74v-3.37c0-0.5,0.01-1.03,0.04-1.62
			c0.03-0.59,0.07-1.17,0.1-1.75c0.04-0.59,0.09-1.14,0.14-1.66c0.05-0.53,0.1-0.99,0.14-1.38l-1.46,5.12h-1.69l-1.5-5.12
			c0.05,0.38,0.1,0.82,0.15,1.33c0.05,0.51,0.1,1.05,0.14,1.63s0.08,1.17,0.11,1.76c0.03,0.59,0.04,1.16,0.04,1.69v3.37H123.37z"/>
	</g>
</g>
<path class="st5" d="M125.95,81.45H26.12c-9.35,0-16.92-7.58-16.92-16.92v-31.5c0-9.35,7.58-16.92,16.92-16.92h99.83
	c9.35,0,16.92,7.58,16.92,16.92v31.5C142.87,73.87,135.3,81.45,125.95,81.45z"/>
<path class="st4" d="M318.67,42.03l-0.5-3.61l5.86-7.76c0.82-1.11,1.4-2.08,1.75-2.93c0.35-0.85,0.47-1.69,0.35-2.52
	c-0.14-1.01-0.53-1.77-1.16-2.26c-0.64-0.49-1.43-0.67-2.38-0.54c-1.05,0.14-1.84,0.56-2.35,1.25c-0.51,0.69-0.7,1.57-0.55,2.64
	l-3.73,0.51c-0.17-1.39-0.03-2.63,0.42-3.72c0.45-1.08,1.17-1.98,2.17-2.68c1-0.7,2.21-1.16,3.64-1.35c1.37-0.19,2.6-0.09,3.69,0.29
	s1.97,1,2.66,1.85c0.68,0.86,1.12,1.93,1.29,3.23c0.18,1.33,0.02,2.68-0.49,4.03c-0.51,1.36-1.42,2.86-2.74,4.52l-3.92,5.07
	l9.13-1.25l0.46,3.37L318.67,42.03z"/>
<path class="st4" d="M341.81,41.61c-1.4,0.26-2.67,0.21-3.79-0.14c-1.12-0.35-2.05-0.95-2.79-1.82c-0.74-0.86-1.23-1.95-1.46-3.25
	l-1.69-9.3c-0.24-1.3-0.16-2.49,0.22-3.56c0.39-1.07,1.04-1.97,1.97-2.68c0.93-0.72,2.09-1.21,3.5-1.46
	c1.42-0.26,2.69-0.21,3.8,0.13c1.11,0.35,2.04,0.95,2.78,1.82c0.74,0.86,1.23,1.95,1.46,3.25l1.69,9.3c0.24,1.3,0.16,2.49-0.22,3.56
	c-0.39,1.07-1.05,1.96-1.97,2.68C344.38,40.86,343.22,41.35,341.81,41.61z M341.23,38.41c1.03-0.19,1.79-0.63,2.3-1.34
	c0.5-0.7,0.67-1.55,0.49-2.54l-1.69-9.3c-0.18-0.99-0.63-1.72-1.35-2.2c-0.72-0.48-1.59-0.63-2.62-0.44
	c-1.03,0.19-1.79,0.63-2.3,1.34c-0.5,0.7-0.67,1.55-0.49,2.54l1.69,9.3c0.18,0.99,0.63,1.72,1.35,2.2
	C339.33,38.45,340.21,38.59,341.23,38.41z M340.14,32.42c-0.57,0.1-1.07,0-1.51-0.31c-0.43-0.31-0.7-0.76-0.81-1.35
	c-0.11-0.59-0.02-1.1,0.28-1.52c0.29-0.42,0.73-0.68,1.32-0.79c0.59-0.11,1.1-0.02,1.52,0.27c0.42,0.29,0.68,0.73,0.79,1.32
	c0.11,0.59,0.02,1.11-0.27,1.55C341.18,32.04,340.74,32.32,340.14,32.42z"/>
<path class="st4" d="M353.51,38.4l0.07-3.64l6.99-6.76c0.98-0.97,1.71-1.84,2.19-2.62c0.48-0.78,0.72-1.6,0.74-2.44
	c0.02-1.02-0.25-1.83-0.8-2.41c-0.55-0.58-1.31-0.88-2.27-0.9c-1.06-0.02-1.9,0.27-2.52,0.87c-0.61,0.6-0.93,1.44-0.95,2.53
	l-3.76-0.07c0.05-1.4,0.37-2.61,0.99-3.61c0.61-1,1.46-1.77,2.56-2.32c1.09-0.54,2.36-0.8,3.81-0.77c1.38,0.03,2.58,0.31,3.6,0.85
	c1.01,0.54,1.79,1.29,2.34,2.24c0.54,0.95,0.8,2.08,0.78,3.39c-0.03,1.35-0.4,2.65-1.11,3.91c-0.72,1.26-1.85,2.61-3.4,4.05
	l-4.66,4.4l9.21,0.17l-0.06,3.4L353.51,38.4z"/>
<path class="st4" d="M369.56,40.78l-0.36-3.62l6.14-7.55c0.86-1.07,1.48-2.03,1.86-2.87c0.38-0.83,0.53-1.67,0.44-2.51
	c-0.1-1.02-0.46-1.78-1.08-2.3c-0.62-0.51-1.4-0.72-2.36-0.62c-1.06,0.11-1.86,0.49-2.4,1.16c-0.54,0.67-0.75,1.54-0.64,2.62
	l-3.74,0.38c-0.12-1.4,0.06-2.63,0.55-3.7c0.49-1.07,1.24-1.93,2.26-2.6s2.25-1.07,3.69-1.22c1.38-0.14,2.6,0,3.67,0.42
	c1.07,0.42,1.93,1.07,2.59,1.95c0.65,0.88,1.04,1.97,1.18,3.27c0.13,1.34-0.08,2.68-0.64,4.01c-0.56,1.34-1.53,2.81-2.9,4.42
	l-4.1,4.92l9.17-0.92l0.34,3.38L369.56,40.78z"/>
<path class="st4" d="M214.65,80.1l4.11-21.59l3.7,0.7l-1.65,8.67l5.8,1.1l1.65-8.67l3.7,0.7l-4.11,21.59l-3.7-0.7l1.81-9.49
	l-5.8-1.1l-1.81,9.49L214.65,80.1z"/>
<path class="st4" d="M241.1,82.07c-1.4-0.12-2.59-0.5-3.57-1.11c-0.98-0.62-1.72-1.44-2.2-2.46c-0.48-1.02-0.67-2.19-0.55-3.51
	l0.36-4.08c0.12-1.32,0.5-2.44,1.16-3.36c0.66-0.92,1.52-1.6,2.6-2.04c1.08-0.44,2.31-0.6,3.71-0.48c1.42,0.12,2.62,0.5,3.59,1.12
	c0.97,0.62,1.7,1.44,2.19,2.46c0.48,1.02,0.67,2.18,0.56,3.48l-0.36,4.11c-0.12,1.32-0.5,2.44-1.16,3.36
	c-0.66,0.92-1.52,1.6-2.58,2.04C243.77,82.04,242.52,82.2,241.1,82.07z M241.39,78.8c1,0.09,1.8-0.12,2.4-0.62
	c0.6-0.5,0.94-1.27,1.03-2.31l0.36-4.08c0.09-1.06-0.11-1.88-0.61-2.47c-0.5-0.59-1.25-0.93-2.25-1.01
	c-0.98-0.09-1.77,0.12-2.38,0.61c-0.61,0.49-0.96,1.27-1.05,2.33l-0.36,4.08c-0.09,1.04,0.12,1.86,0.63,2.46
	C239.67,78.38,240.41,78.72,241.39,78.8z"/>
<path class="st4" d="M259.86,81.45c-2.08-0.35-3.61-1.21-4.6-2.57c-0.99-1.36-1.31-3.04-0.97-5.04l1.73-10.15l3.71,0.63L258,74.45
	c-0.18,1.05-0.06,1.9,0.36,2.55c0.42,0.65,1.1,1.06,2.05,1.22c0.93,0.16,1.7,0,2.33-0.47c0.62-0.47,1.02-1.24,1.2-2.28l1.73-10.12
	l3.71,0.63l-1.73,10.15c-0.34,2-1.21,3.47-2.62,4.42C263.61,81.5,261.89,81.8,259.86,81.45z"/>
<path class="st4" d="M276.71,80.57c-1.24-0.26-2.28-0.68-3.12-1.26c-0.84-0.58-1.45-1.28-1.83-2.09c-0.38-0.81-0.49-1.68-0.33-2.64
	l3.68,0.77c-0.07,0.52,0.1,0.98,0.49,1.39c0.4,0.41,0.97,0.69,1.72,0.85l1.3,0.27c0.9,0.19,1.62,0.15,2.14-0.11
	c0.53-0.26,0.85-0.69,0.98-1.3c0.12-0.57,0.01-1.06-0.33-1.47c-0.34-0.41-0.92-0.75-1.74-1.02l-1.94-0.71
	c-1.79-0.64-3.05-1.41-3.76-2.32c-0.71-0.91-0.92-2.09-0.62-3.54c0.31-1.51,1.07-2.58,2.26-3.2c1.19-0.62,2.79-0.73,4.77-0.32
	l1.12,0.23c1.81,0.38,3.17,1.08,4.08,2.11c0.91,1.03,1.27,2.23,1.06,3.6l-3.68-0.77c0.03-0.44-0.14-0.85-0.5-1.21
	c-0.37-0.36-0.89-0.62-1.58-0.76l-1.12-0.23c-0.85-0.18-1.49-0.15-1.94,0.07c-0.45,0.23-0.73,0.63-0.85,1.22
	c-0.11,0.55-0.03,0.99,0.25,1.33c0.28,0.33,0.78,0.64,1.5,0.91l2.03,0.73c1.87,0.68,3.18,1.49,3.94,2.43
	c0.76,0.95,0.98,2.16,0.68,3.63c-0.33,1.57-1.12,2.69-2.37,3.34c-1.25,0.65-2.92,0.76-5,0.33L276.71,80.57z"/>
<path class="st4" d="M298.86,80.29c-1.4,0.11-2.64-0.06-3.73-0.51c-1.08-0.46-1.95-1.15-2.6-2.07c-0.65-0.92-1.03-2.04-1.13-3.34
	l-0.33-4.14c-0.1-1.3,0.09-2.46,0.58-3.48c0.49-1.02,1.24-1.84,2.23-2.46c1-0.62,2.19-0.99,3.6-1.1c1.38-0.11,2.61,0.06,3.68,0.52
	c1.07,0.46,1.93,1.15,2.58,2.07c0.65,0.92,1.03,2.04,1.13,3.34l0.24,2.97l-10.17,0.82l0.09,1.17c0.09,1.16,0.45,2.01,1.05,2.56
	c0.61,0.54,1.46,0.77,2.56,0.68c0.84-0.07,1.51-0.27,2.01-0.6c0.5-0.33,0.79-0.78,0.89-1.35l3.69-0.3
	c-0.16,1.44-0.83,2.64-1.99,3.59C302.08,79.6,300.62,80.15,298.86,80.29z M301.31,70.27l-0.07-0.9c-0.09-1.14-0.43-1.99-1.02-2.56
	c-0.59-0.57-1.42-0.81-2.5-0.72c-1.08,0.09-1.88,0.46-2.39,1.13c-0.51,0.67-0.72,1.57-0.63,2.71l0.05,0.63l6.81-0.61L301.31,70.27z"
	/>
<path class="st4" d="M330.87,80.41c-1.5-0.06-2.8-0.36-3.88-0.9c-1.08-0.54-1.9-1.29-2.46-2.25c-0.56-0.95-0.82-2.07-0.79-3.33
	l3.76,0.14c-0.03,0.9,0.26,1.62,0.9,2.16c0.63,0.54,1.51,0.83,2.63,0.87c1.08,0.04,1.94-0.18,2.57-0.66c0.63-0.48,0.96-1.16,1-2.04
	c0.03-0.74-0.16-1.4-0.57-1.97c-0.41-0.57-1.01-0.97-1.81-1.2l-2.5-0.79c-1.71-0.51-3.01-1.35-3.9-2.53
	c-0.89-1.18-1.3-2.58-1.24-4.2c0.05-1.24,0.37-2.32,0.97-3.22c0.6-0.9,1.42-1.58,2.47-2.05c1.05-0.46,2.28-0.67,3.68-0.61
	c2.12,0.08,3.79,0.69,4.99,1.83c1.2,1.14,1.78,2.63,1.73,4.48l-3.76-0.14c0.03-0.86-0.22-1.55-0.77-2.06
	c-0.54-0.51-1.33-0.79-2.35-0.83c-0.98-0.04-1.75,0.16-2.31,0.61c-0.56,0.44-0.85,1.08-0.89,1.92c-0.03,0.76,0.15,1.42,0.54,1.96
	s0.97,0.95,1.75,1.2l2.59,0.82c1.73,0.51,3.03,1.35,3.91,2.51c0.88,1.17,1.29,2.58,1.23,4.25c-0.05,1.24-0.39,2.33-1.03,3.26
	c-0.64,0.93-1.51,1.64-2.61,2.12C333.61,80.25,332.33,80.46,330.87,80.41z"/>
<path class="st4" d="M343.8,79.85l-0.04-3.43l5.78-0.07l-0.12-9.72l-5.03,0.06l-0.04-3.4l8.64-0.1l0.16,13.12l5.12-0.06l0.04,3.43
	L343.8,79.85z M350.85,60.44c-0.76,0.01-1.37-0.18-1.81-0.57c-0.45-0.39-0.67-0.91-0.68-1.57c-0.01-0.66,0.21-1.19,0.64-1.59
	c0.44-0.4,1.04-0.6,1.8-0.61c0.76-0.01,1.37,0.18,1.81,0.57c0.45,0.39,0.67,0.91,0.68,1.57c0.01,0.66-0.21,1.19-0.64,1.59
	C352.21,60.23,351.61,60.43,350.85,60.44z"/>
<path class="st4" d="M362.73,83.04l-2.89-16.3l3.02-0.54l0.39,2.19l0.62-0.11l-0.41,0.62c-0.16-0.91-0.03-1.69,0.38-2.33
	c0.42-0.65,1.03-1.04,1.84-1.18c0.87-0.15,1.61,0.08,2.22,0.71s1.02,1.54,1.24,2.75l-0.91-1.34l1.01-0.18l-0.29,0.6
	c-0.16-0.91-0.03-1.69,0.38-2.33c0.42-0.65,1.05-1.04,1.9-1.19c1.01-0.18,1.87,0.05,2.6,0.7c0.73,0.65,1.2,1.61,1.43,2.89l2.2,12.42
	L374.2,81l-2.18-12.27c-0.09-0.53-0.29-0.93-0.58-1.2c-0.29-0.26-0.67-0.36-1.12-0.28c-0.44,0.08-0.75,0.29-0.94,0.63
	c-0.19,0.34-0.24,0.79-0.14,1.34l2.18,12.27l-2.67,0.47l-2.18-12.27c-0.1-0.55-0.29-0.96-0.58-1.21c-0.29-0.25-0.66-0.34-1.12-0.26
	s-0.77,0.29-0.94,0.63s-0.21,0.78-0.11,1.34l2.18,12.27L362.73,83.04z"/>
<path class="st4" d="M389.61,81.37c-2.09,0.25-3.81-0.13-5.14-1.15c-1.34-1.02-2.13-2.53-2.37-4.55l-1.25-10.22l3.74-0.46
	l1.24,10.19c0.13,1.06,0.49,1.84,1.07,2.34c0.59,0.51,1.36,0.7,2.31,0.58c0.94-0.11,1.63-0.49,2.09-1.12
	c0.46-0.63,0.62-1.48,0.49-2.53l-1.24-10.19l3.74-0.46l1.25,10.22c0.25,2.01-0.17,3.68-1.24,4.99
	C393.23,80.34,391.66,81.12,389.61,81.37z"/>
<path class="st4" d="M406.59,83.74c-1.08-0.11-2-0.43-2.76-0.95c-0.76-0.52-1.33-1.21-1.71-2.07c-0.38-0.86-0.51-1.81-0.4-2.87
	l1.34-13.15l-5.27-0.54l0.35-3.39l9.02,0.92l-1.69,16.53c-0.06,0.6,0.06,1.09,0.38,1.48c0.31,0.39,0.77,0.61,1.37,0.67l4.97,0.51
	l-0.34,3.38L406.59,83.74z"/>
<path class="st4" d="M421.92,84.6c-1.7,0.18-3.08-0.13-4.15-0.93c-1.07-0.8-1.69-1.95-1.85-3.47c-0.17-1.62,0.24-2.92,1.22-3.91
	c0.99-0.99,2.47-1.59,4.44-1.8l4.1-0.43l-0.15-1.41c-0.08-0.8-0.41-1.39-0.97-1.79c-0.57-0.39-1.3-0.55-2.2-0.45
	c-0.82,0.09-1.48,0.34-1.98,0.75c-0.5,0.42-0.77,0.94-0.8,1.57l-3.65,0.38c0.02-1.58,0.58-2.89,1.71-3.93
	c1.12-1.05,2.63-1.67,4.53-1.87c2.02-0.21,3.66,0.13,4.93,1.01c1.27,0.89,2,2.19,2.18,3.9l1.17,11.17l-3.62,0.38l-0.3-2.87
	l-0.6,0.06l0.51-0.87c0.13,1.22-0.22,2.23-1.04,3.05C424.58,83.95,423.42,84.44,421.92,84.6z M422.85,81.65
	c1.06-0.11,1.89-0.47,2.51-1.08c0.61-0.61,0.87-1.34,0.78-2.2l-0.21-2.01l-4.04,0.42c-0.76,0.08-1.34,0.36-1.76,0.85
	c-0.41,0.49-0.58,1.09-0.51,1.81c0.08,0.78,0.41,1.36,0.99,1.76C421.19,81.6,421.93,81.75,422.85,81.65z"/>
<path class="st4" d="M443.06,79.67c-1.57-0.18-2.76-0.76-3.54-1.74c-0.79-0.98-1.09-2.24-0.91-3.77l0.94-8.13l-4.46-0.51l0.39-3.38
	l4.46,0.51l0.53-4.64l3.77,0.43l-0.53,4.64l6.31,0.73l-0.39,3.38l-6.31-0.73l-0.94,8.13c-0.12,1.04,0.33,1.61,1.35,1.73l4.49,0.52
	l-0.39,3.38L443.06,79.67z"/>
<path class="st4" d="M459.57,79.63c-1.4-0.02-2.62-0.3-3.65-0.85c-1.03-0.55-1.82-1.31-2.37-2.29c-0.56-0.98-0.83-2.13-0.81-3.46
	l0.06-4.09c0.02-1.32,0.32-2.47,0.91-3.43c0.58-0.96,1.4-1.71,2.44-2.22c1.04-0.52,2.26-0.77,3.67-0.75
	c1.43,0.02,2.65,0.31,3.66,0.85c1.01,0.55,1.8,1.31,2.36,2.29c0.56,0.98,0.83,2.13,0.81,3.43l-0.06,4.12
	c-0.02,1.32-0.32,2.47-0.91,3.43c-0.58,0.97-1.39,1.71-2.42,2.22C462.22,79.41,460.99,79.66,459.57,79.63z M459.61,76.35
	c1,0.01,1.79-0.25,2.35-0.79c0.56-0.54,0.85-1.34,0.86-2.38l0.06-4.09c0.02-1.06-0.25-1.87-0.79-2.42
	c-0.54-0.55-1.32-0.83-2.32-0.85c-0.98-0.01-1.76,0.25-2.33,0.78c-0.57,0.53-0.86,1.33-0.88,2.4l-0.06,4.09
	c-0.02,1.04,0.25,1.85,0.81,2.41C457.86,76.05,458.63,76.34,459.61,76.35z"/>
<path class="st4" d="M469.88,78.18l2.3-16.4l3.52,0.49l-0.44,3.13l0.92,0.13l-1.37,1.75c0.25-1.77,0.83-3.05,1.75-3.83
	c0.92-0.78,2.16-1.07,3.71-0.85c1.77,0.25,3.08,0.99,3.94,2.22c0.86,1.24,1.16,2.82,0.89,4.74l-0.17,1.19l-3.91-0.55l0.13-0.92
	c0.15-1.05-0.01-1.91-0.48-2.56c-0.47-0.65-1.18-1.05-2.13-1.18c-0.98-0.14-1.76,0.05-2.37,0.55c-0.61,0.5-0.99,1.28-1.13,2.33
	l-1.44,10.26L469.88,78.18z"/>
<path class="st15" d="M584.49,65.88h-66.06c-6.18,0-11.2-5.01-11.2-11.2V33.84c0-6.18,5.01-11.2,11.2-11.2h66.06
	c6.18,0,11.2,5.01,11.2,11.2v20.85C595.69,60.87,590.68,65.88,584.49,65.88z"/>
<g>
	<path class="st1" d="M559.21,67.85h-15.5c-2.81,0-5.08-2.28-5.08-5.08V60.4c0-2.81,2.28-5.08,5.08-5.08h15.5
		c2.81,0,5.08,2.28,5.08,5.08v2.37C564.29,65.57,562.02,67.85,559.21,67.85z"/>
	<g>
		<path class="st2" d="M545.44,65.27c-0.46,0-0.86-0.09-1.2-0.26s-0.61-0.42-0.8-0.74c-0.19-0.32-0.28-0.69-0.28-1.13v-3.13
			c0-0.44,0.09-0.82,0.28-1.13c0.19-0.31,0.45-0.56,0.8-0.73s0.75-0.26,1.2-0.26c0.47,0,0.86,0.09,1.2,0.26s0.6,0.42,0.79,0.73
			c0.19,0.31,0.29,0.69,0.29,1.13h-1.24c0-0.34-0.09-0.6-0.27-0.78c-0.18-0.18-0.44-0.27-0.77-0.27s-0.59,0.09-0.78,0.27
			c-0.18,0.18-0.28,0.43-0.28,0.77v3.14c0,0.33,0.09,0.59,0.28,0.78c0.18,0.18,0.44,0.28,0.78,0.28s0.59-0.09,0.77-0.28
			c0.18-0.18,0.27-0.44,0.27-0.78v-0.73h-1.22v-1.06h2.46v1.79c0,0.43-0.09,0.81-0.29,1.13c-0.19,0.32-0.45,0.57-0.79,0.74
			S545.9,65.27,545.44,65.27z"/>
		<path class="st2" d="M551.3,65.27c-0.46,0-0.86-0.09-1.19-0.26c-0.34-0.17-0.59-0.42-0.78-0.74c-0.18-0.32-0.27-0.69-0.27-1.13
			v-3.13c0-0.43,0.09-0.81,0.27-1.13s0.44-0.57,0.78-0.74c0.34-0.17,0.74-0.26,1.19-0.26c0.47,0,0.86,0.09,1.2,0.26
			s0.59,0.42,0.77,0.74c0.18,0.32,0.27,0.69,0.27,1.12v3.14c0,0.43-0.09,0.81-0.27,1.13c-0.18,0.32-0.44,0.57-0.77,0.74
			S551.76,65.27,551.3,65.27z M551.3,64.19c0.33,0,0.58-0.09,0.76-0.27c0.17-0.18,0.26-0.44,0.26-0.77v-3.13
			c0-0.34-0.08-0.6-0.26-0.78c-0.17-0.18-0.42-0.27-0.76-0.27c-0.33,0-0.58,0.09-0.76,0.27c-0.17,0.18-0.26,0.44-0.26,0.78v3.13
			c0,0.33,0.09,0.59,0.26,0.77C550.72,64.1,550.97,64.19,551.3,64.19z"/>
		<path class="st2" d="M555,65.17V58h2.39c0.48,0,0.89,0.09,1.25,0.28s0.63,0.44,0.83,0.77c0.2,0.33,0.29,0.72,0.29,1.16
			c0,0.44-0.1,0.83-0.3,1.16c-0.2,0.33-0.48,0.59-0.83,0.78c-0.35,0.18-0.77,0.28-1.25,0.28h-1.16v2.75H555z M556.23,61.31h1.16
			c0.34,0,0.61-0.1,0.82-0.3c0.21-0.2,0.31-0.47,0.31-0.8c0-0.34-0.1-0.61-0.31-0.81c-0.21-0.2-0.48-0.29-0.82-0.29h-1.16V61.31z"/>
	</g>
</g>
<path class="st5" d="M595.69,49.57h4.01c5.68,0,10.29-4.61,10.29-10.29V24.56"/>
<circle class="st6" cx="609.99" cy="24.56" r="4.15"/>
<rect x="537.24" y="24.5" class="st7" width="28.43" height="39.52"/>
<g>
	<path class="st8" d="M524.83,34.98h-4.28c-2.28,0-4.13-1.85-4.13-4.13v-4.28c0-2.28,1.85-4.13,4.13-4.13h4.28
		c2.28,0,4.13,1.85,4.13,4.13v4.28C528.95,33.13,527.11,34.98,524.83,34.98z"/>
	<g>
		<path class="st2" d="M520.42,32.3v-7.18h2.27c0.48,0,0.89,0.09,1.24,0.27s0.62,0.42,0.82,0.74c0.2,0.32,0.29,0.69,0.29,1.13
			c0,0.47-0.12,0.89-0.36,1.25c-0.24,0.36-0.56,0.61-0.97,0.77l1.43,3.03h-1.38l-1.25-2.85h-0.87v2.85H520.42z M521.65,28.37h1.04
			c0.35,0,0.62-0.09,0.82-0.29c0.2-0.19,0.29-0.45,0.29-0.79c0-0.34-0.1-0.61-0.29-0.8c-0.2-0.19-0.47-0.29-0.82-0.29h-1.04V28.37z"
			/>
	</g>
</g>
<g>
	<path class="st9" d="M587.13,37.04h-15.5c-2.81,0-5.08-2.28-5.08-5.08v-2.37c0-2.81,2.28-5.08,5.08-5.08h15.5
		c2.81,0,5.08,2.28,5.08,5.08v2.37C592.21,34.76,589.93,37.04,587.13,37.04z"/>
	<g>
		<path class="st2" d="M571.18,34.36v-7.18h2.13c0.49,0,0.9,0.09,1.26,0.28s0.63,0.44,0.83,0.78c0.2,0.33,0.29,0.73,0.29,1.19v2.68
			c0,0.45-0.1,0.85-0.29,1.18c-0.2,0.34-0.47,0.6-0.83,0.79c-0.36,0.19-0.78,0.28-1.26,0.28H571.18z M572.41,33.23h0.9
			c0.35,0,0.63-0.1,0.85-0.3c0.21-0.2,0.31-0.47,0.31-0.82v-2.68c0-0.34-0.1-0.61-0.31-0.81c-0.21-0.2-0.49-0.3-0.85-0.3h-0.9V33.23
			z"/>
		<path class="st2" d="M577.2,34.36v-7.18h4.31v1.07h-3.1v1.87h2.75v1.06h-2.75v2.1h3.1v1.07H577.2z"/>
		<path class="st2" d="M582.78,34.36v-7.18h1.45l0.7,2.28c0.07,0.23,0.13,0.44,0.18,0.63c0.04,0.19,0.07,0.33,0.09,0.41
			c0.01-0.08,0.04-0.22,0.09-0.41c0.04-0.19,0.1-0.4,0.17-0.63l0.67-2.28h1.45v7.18h-1.15v-2.23c0-0.33,0.01-0.68,0.03-1.07
			c0.02-0.39,0.04-0.77,0.07-1.16c0.02-0.39,0.06-0.75,0.09-1.1s0.07-0.65,0.09-0.91l-0.96,3.39h-1.12l-0.99-3.39
			c0.03,0.25,0.06,0.54,0.1,0.88s0.06,0.7,0.09,1.08c0.03,0.38,0.05,0.77,0.07,1.16c0.02,0.39,0.03,0.77,0.03,1.12v2.23H582.78z"/>
	</g>
</g>
<g>
	<path class="st9" d="M553.31,38.07h-4.28c-2.28,0-4.13-1.85-4.13-4.13v-4.28c0-2.28,1.85-4.13,4.13-4.13h4.28
		c2.28,0,4.13,1.85,4.13,4.13v4.28C557.44,36.22,555.59,38.07,553.31,38.07z"/>
	<g>
		<path class="st2" d="M549.4,35.39v-7.18h2.13c0.49,0,0.9,0.09,1.26,0.28c0.36,0.18,0.63,0.44,0.83,0.78
			c0.2,0.33,0.29,0.73,0.29,1.19v2.68c0,0.45-0.1,0.85-0.29,1.18c-0.2,0.34-0.47,0.6-0.83,0.79s-0.78,0.28-1.26,0.28H549.4z
			 M550.63,34.26h0.9c0.35,0,0.63-0.1,0.85-0.3s0.31-0.47,0.31-0.82v-2.68c0-0.34-0.1-0.61-0.31-0.81s-0.49-0.3-0.85-0.3h-0.9V34.26
			z"/>
	</g>
</g>
<g>
	<path class="st8" d="M524.43,50.18h-4.28c-2.28,0-4.13-1.85-4.13-4.13v-4.28c0-2.28,1.85-4.13,4.13-4.13h4.28
		c2.28,0,4.13,1.85,4.13,4.13v4.28C528.56,48.33,526.71,50.18,524.43,50.18z"/>
	<g>
		<path class="st2" d="M520.03,47.5v-7.18h2.27c0.48,0,0.89,0.09,1.24,0.27c0.35,0.18,0.62,0.42,0.82,0.74
			c0.2,0.32,0.29,0.69,0.29,1.13c0,0.47-0.12,0.89-0.36,1.25c-0.24,0.36-0.56,0.61-0.97,0.77l1.43,3.03h-1.38l-1.25-2.85h-0.87v2.85
			H520.03z M521.26,43.57h1.04c0.35,0,0.62-0.09,0.82-0.29c0.2-0.19,0.29-0.45,0.29-0.79c0-0.34-0.1-0.61-0.29-0.8
			c-0.2-0.19-0.47-0.29-0.82-0.29h-1.04V43.57z"/>
	</g>
</g>
<g>
	<path class="st9" d="M553.31,52.96h-4.28c-2.28,0-4.13-1.85-4.13-4.13v-4.28c0-2.28,1.85-4.13,4.13-4.13h4.28
		c2.28,0,4.13,1.85,4.13,4.13v4.28C557.44,51.11,555.59,52.96,553.31,52.96z"/>
	<g>
		<path class="st2" d="M549.4,50.28v-7.18h2.13c0.49,0,0.9,0.09,1.26,0.28s0.63,0.44,0.83,0.78c0.2,0.33,0.29,0.73,0.29,1.19v2.68
			c0,0.45-0.1,0.85-0.29,1.18c-0.2,0.34-0.47,0.6-0.83,0.79s-0.78,0.28-1.26,0.28H549.4z M550.63,49.15h0.9
			c0.35,0,0.63-0.1,0.85-0.3c0.21-0.2,0.31-0.47,0.31-0.82v-2.68c0-0.34-0.1-0.61-0.31-0.81s-0.49-0.3-0.85-0.3h-0.9V49.15z"/>
	</g>
</g>
<g>
	<path class="st1" d="M587.13,53.44h-15.5c-2.81,0-5.08-2.28-5.08-5.08v-2.37c0-2.81,2.28-5.08,5.08-5.08h15.5
		c2.81,0,5.08,2.28,5.08,5.08v2.37C592.21,51.17,589.93,53.44,587.13,53.44z"/>
	<g>
		<path class="st2" d="M573.35,50.86c-0.46,0-0.86-0.09-1.2-0.26c-0.34-0.17-0.61-0.42-0.8-0.74c-0.19-0.32-0.28-0.69-0.28-1.13
			v-3.13c0-0.44,0.09-0.82,0.28-1.13c0.19-0.31,0.45-0.56,0.8-0.73c0.34-0.17,0.75-0.26,1.2-0.26c0.47,0,0.86,0.09,1.2,0.26
			c0.34,0.17,0.6,0.42,0.79,0.73c0.19,0.31,0.29,0.69,0.29,1.13h-1.24c0-0.34-0.09-0.6-0.27-0.78c-0.18-0.18-0.44-0.27-0.77-0.27
			s-0.59,0.09-0.78,0.27c-0.18,0.18-0.28,0.43-0.28,0.77v3.14c0,0.33,0.09,0.59,0.28,0.78c0.18,0.18,0.44,0.28,0.78,0.28
			s0.59-0.09,0.77-0.28c0.18-0.18,0.27-0.44,0.27-0.78v-0.73h-1.22v-1.06h2.46v1.79c0,0.43-0.09,0.81-0.29,1.13
			c-0.19,0.32-0.45,0.57-0.79,0.74C574.22,50.77,573.82,50.86,573.35,50.86z"/>
		<path class="st2" d="M579.21,50.86c-0.46,0-0.86-0.09-1.19-0.26c-0.34-0.17-0.59-0.42-0.78-0.74s-0.27-0.69-0.27-1.13v-3.13
			c0-0.43,0.09-0.81,0.27-1.13s0.44-0.57,0.78-0.74c0.34-0.17,0.74-0.26,1.19-0.26c0.47,0,0.86,0.09,1.2,0.26
			c0.33,0.17,0.59,0.42,0.77,0.74c0.18,0.32,0.27,0.69,0.27,1.12v3.14c0,0.43-0.09,0.81-0.27,1.13c-0.18,0.32-0.44,0.57-0.77,0.74
			C580.08,50.77,579.67,50.86,579.21,50.86z M579.21,49.78c0.33,0,0.58-0.09,0.76-0.27c0.17-0.18,0.26-0.44,0.26-0.77v-3.13
			c0-0.34-0.08-0.6-0.26-0.78c-0.17-0.18-0.42-0.27-0.76-0.27s-0.58,0.09-0.76,0.27c-0.17,0.18-0.26,0.44-0.26,0.78v3.13
			c0,0.33,0.09,0.59,0.26,0.77C578.63,49.69,578.88,49.78,579.21,49.78z"/>
		<path class="st2" d="M582.92,50.77v-7.18h2.39c0.48,0,0.89,0.09,1.25,0.28c0.36,0.18,0.63,0.44,0.83,0.77
			c0.2,0.33,0.29,0.72,0.29,1.16c0,0.44-0.1,0.83-0.3,1.16c-0.2,0.33-0.48,0.59-0.83,0.78c-0.35,0.18-0.77,0.28-1.25,0.28h-1.16
			v2.75H582.92z M584.15,46.9h1.16c0.34,0,0.61-0.1,0.82-0.3c0.21-0.2,0.31-0.47,0.31-0.8c0-0.34-0.1-0.61-0.31-0.81
			c-0.21-0.2-0.48-0.29-0.82-0.29h-1.16V46.9z"/>
	</g>
</g>
<g>
	<path class="st8" d="M581.16,67.85h-4.28c-2.28,0-4.13-1.85-4.13-4.13v-4.28c0-2.28,1.85-4.13,4.13-4.13h4.28
		c2.28,0,4.13,1.85,4.13,4.13v4.28C585.29,66,583.44,67.85,581.16,67.85z"/>
	<g>
		<path class="st2" d="M576.75,65.17V58h2.27c0.48,0,0.89,0.09,1.24,0.27c0.35,0.18,0.62,0.42,0.82,0.74
			c0.2,0.32,0.29,0.69,0.29,1.13c0,0.47-0.12,0.89-0.36,1.25s-0.56,0.61-0.97,0.77l1.43,3.03h-1.38l-1.25-2.85h-0.87v2.85H576.75z
			 M577.98,61.24h1.04c0.35,0,0.62-0.09,0.82-0.29c0.2-0.19,0.29-0.45,0.29-0.79c0-0.34-0.1-0.61-0.29-0.8
			c-0.2-0.19-0.47-0.29-0.82-0.29h-1.04V61.24z"/>
	</g>
</g>
<g>
	<path class="st9" d="M530.44,65.37h-15.5c-2.81,0-5.08-2.28-5.08-5.08v-2.37c0-2.81,2.28-5.08,5.08-5.08h15.5
		c2.81,0,5.08,2.28,5.08,5.08v2.37C535.52,63.1,533.25,65.37,530.44,65.37z"/>
	<g>
		<path class="st2" d="M514.49,62.69v-7.18h2.13c0.49,0,0.9,0.09,1.26,0.28s0.63,0.44,0.83,0.78c0.2,0.33,0.29,0.73,0.29,1.19v2.68
			c0,0.45-0.1,0.85-0.29,1.18c-0.2,0.34-0.47,0.6-0.83,0.79s-0.78,0.28-1.26,0.28C516.62,62.69,514.49,62.69,514.49,62.69z
			 M515.72,61.56h0.9c0.35,0,0.63-0.1,0.85-0.3s0.31-0.47,0.31-0.82v-2.68c0-0.34-0.1-0.61-0.31-0.81s-0.49-0.3-0.85-0.3h-0.9V61.56
			z"/>
		<path class="st2" d="M520.52,62.69v-7.18h4.31v1.07h-3.1v1.87h2.75v1.06h-2.75v2.1h3.1v1.07
			C524.82,62.69,520.52,62.69,520.52,62.69z"/>
		<path class="st2" d="M526.1,62.69v-7.18h1.45l0.7,2.28c0.07,0.23,0.13,0.44,0.18,0.63c0.04,0.19,0.07,0.33,0.09,0.41
			c0.01-0.08,0.04-0.22,0.09-0.41c0.04-0.19,0.1-0.4,0.17-0.63l0.67-2.28h1.45v7.18h-1.15v-2.23c0-0.33,0.01-0.68,0.03-1.07
			s0.04-0.77,0.07-1.16c0.02-0.39,0.06-0.75,0.09-1.1c0.03-0.35,0.07-0.65,0.09-0.91l-0.96,3.39h-1.12l-0.99-3.39
			c0.03,0.25,0.06,0.54,0.1,0.88c0.03,0.34,0.06,0.7,0.09,1.08c0.03,0.38,0.05,0.77,0.07,1.16c0.02,0.39,0.03,0.77,0.03,1.12v2.23
			C527.25,62.69,526.1,62.69,526.1,62.69z"/>
	</g>
</g>
<path class="st16" d="M584.49,65.88h-66.06c-6.18,0-11.2-5.01-11.2-11.2V33.84c0-6.18,5.01-11.2,11.2-11.2h66.06
	c6.18,0,11.2,5.01,11.2,11.2v20.85C595.69,60.87,590.68,65.88,584.49,65.88z"/>
<g>
	<path class="st2" d="M289.98,32.15c-0.09,0.83-0.15,1.66-0.27,2.49c-0.47,3.38-1.48,6.58-3.04,9.61c-1.43,2.78-3.26,5.27-5.47,7.48
		c-1.78,1.78-3.76,3.31-5.94,4.59c-2.64,1.55-5.43,2.69-8.42,3.36c-5.18,1.16-10.32,1.04-15.41-0.48c-2.38-0.71-4.63-1.72-6.77-3
		c-2.13-1.27-4.07-2.79-5.81-4.55c-3.3-3.32-5.71-7.2-7.19-11.65c-0.49-1.46-0.85-2.96-1.11-4.48c-0.02-0.1-0.01-0.2-0.1-0.27
		c-0.01-0.01-0.03-0.01-0.04,0c0.05-0.05,0.04-0.1-0.02-0.13c0,0-0.01-0.03-0.01-0.03c0.06-0.06,0.06-0.11-0.01-0.16
		c0.05-0.48-0.05-0.95-0.1-1.42c-0.46-4.74,0.16-9.33,1.86-13.77c0.88-2.3,2.05-4.45,3.47-6.47c1.2-1.71,2.56-3.27,4.09-4.68
		c3.97-3.66,8.59-6.11,13.88-7.28c5.13-1.13,10.21-0.92,15.25,0.59c1.02,0.3,2,0.69,2.99,1.08c0.05,0.01,0.1,0.02,0.15,0.04
		c0.54,0.27,1.07,0.54,1.61,0.8c1.22,0.61,2.39,1.31,3.51,2.09c1.25,0.87,2.44,1.81,3.54,2.86c2.9,2.77,5.19,5.97,6.81,9.64
		c1.77,4,2.58,8.2,2.58,12.56c0,0.11-0.03,0.22,0.03,0.33c-0.07,0.09-0.09,0.17,0.01,0.26c0,0,0,0.03,0,0.03
		c-0.06,0.04-0.06,0.09,0,0.14c0,0-0.01-0.02-0.01-0.02c-0.09,0.09-0.11,0.18-0.01,0.28C289.99,32.02,289.97,32.08,289.98,32.15z
		 M274.77,6.37c-1.03-0.67-2.13-1.22-3.25-1.72c-0.31-0.13-0.6-0.32-0.94-0.35c-0.67-0.36-1.39-0.59-2.11-0.82
		c-1.69-0.53-3.43-0.87-5.19-1.09c-0.86-0.11-1.72-0.2-2.59-0.13c-1.54-0.06-3.08,0.03-4.6,0.27c-2.2,0.3-4.33,0.85-6.4,1.67
		c-1.1,0.43-2.19,0.9-3.2,1.52c-0.39,0.14-0.73,0.38-1.08,0.59c-1.01,0.58-1.92,1.29-2.87,1.96c-0.1,0.09-0.19,0.19-0.3,0.27
		c-0.62,0.5-1.21,1.03-1.78,1.58c-0.92,0.9-1.78,1.84-2.58,2.84c-0.72,0.91-1.39,1.85-1.97,2.86c-0.54,0.77-0.96,1.61-1.36,2.45
		c-0.27,0.57-0.57,1.13-0.73,1.75c-0.56,1.19-0.91,2.46-1.25,3.73c-0.27,1-0.44,2.02-0.56,3.05c-0.12,1.02-0.24,2.03-0.23,3.06
		c-0.04,1.06,0,2.11,0.1,3.16c0.05,0.51,0.07,1.01,0.21,1.51c0.04,0.88,0.26,1.74,0.46,2.59c0.4,1.74,0.97,3.44,1.73,5.07
		c0.3,0.64,0.58,1.3,0.98,1.9c0.04,0.09,0.07,0.19,0.12,0.27c0.7,1.28,1.51,2.49,2.43,3.62c0.06,0.08,0.13,0.15,0.19,0.23
		c0.99,1.31,2.15,2.47,3.37,3.56c0.77,0.69,1.58,1.34,2.44,1.92c0.51,0.34,0.99,0.72,1.56,0.96c0.57,0.47,1.24,0.78,1.89,1.11
		c0.75,0.38,1.5,0.78,2.31,1.01c0.1,0.05,0.19,0.11,0.3,0.15c2.59,1,5.28,1.62,8.05,1.81c0.5,0.03,0.99,0.12,1.49,0.02
		c0.09,0.07,0.19,0.06,0.29,0.06c1.39,0.03,2.78-0.06,4.16-0.24c0.09-0.01,0.18-0.02,0.24-0.1c0.12,0.05,0.24,0.03,0.36,0.01
		c2.42-0.39,4.76-1.05,7-2.05c0.74-0.33,1.49-0.65,2.17-1.1c0.1-0.04,0.21-0.08,0.3-0.13c1.27-0.69,2.45-1.5,3.59-2.39
		c1.72-1.35,3.28-2.88,4.64-4.6c0.77-0.97,1.5-1.96,2.11-3.04c0.46-0.67,0.83-1.39,1.19-2.11c0.32-0.66,0.66-1.3,0.87-2.01
		c0.05-0.09,0.1-0.18,0.13-0.27c0.91-2.35,1.51-4.77,1.76-7.28c0.08-0.77,0.19-1.54,0.1-2.32c0.02-0.11,0.04-0.22,0.04-0.33
		c0.03-1.36-0.06-2.71-0.24-4.06c-0.01-0.1-0.01-0.2-0.1-0.27c0.06-0.14,0.02-0.28,0-0.43c-0.27-1.74-0.69-3.45-1.29-5.11
		c-0.51-1.39-1.09-2.75-1.84-4.03c-0.12-0.32-0.32-0.61-0.49-0.9c-0.63-1.04-1.29-2.07-2.09-2.99c-0.07-0.1-0.14-0.2-0.21-0.3
		c-1.29-1.58-2.71-3.03-4.32-4.29C276.8,7.72,275.82,7,274.77,6.37z"/>
	<path class="st12" d="M270.58,4.3c0.34,0.03,0.64,0.21,0.94,0.35c1.12,0.5,2.22,1.05,3.25,1.72c-0.11,0.19-0.23,0.38-0.34,0.57
		c-1.23,1.97-2.47,3.93-3.7,5.9c-0.23,0.37-0.22,0.37,0.15,0.6c1.85,1.18,3.47,2.62,4.86,4.31c0.31,0.37,0.3,0.37,0.67,0.07
		c1-0.81,2-1.61,3-2.42c0.96-0.78,1.92-1.56,2.88-2.34c0.8,0.93,1.46,1.95,2.09,2.99c0.18,0.29,0.37,0.58,0.49,0.9
		c-2.28,1.21-4.56,2.43-6.85,3.63c-0.21,0.11-0.23,0.2-0.12,0.41c1.08,2.01,1.8,4.15,2.13,6.41c0.05,0.31,0.16,0.35,0.44,0.3
		c1.44-0.23,2.89-0.45,4.33-0.67c1.07-0.17,2.13-0.34,3.2-0.52c0.09,0.07,0.09,0.18,0.1,0.27c0.19,1.35,0.27,2.7,0.24,4.06
		c0,0.11-0.03,0.22-0.04,0.33c-2.57-0.09-5.13-0.18-7.7-0.28c-0.25-0.01-0.32,0.06-0.33,0.31c-0.07,2.28-0.52,4.5-1.35,6.62
		c-0.09,0.24-0.06,0.35,0.2,0.45c1.02,0.38,2.04,0.79,3.06,1.18c1.37,0.53,2.75,1.05,4.12,1.58c-0.2,0.71-0.54,1.36-0.87,2.01
		c-0.36,0.73-0.73,1.44-1.19,2.11c-0.12,0.02-0.21-0.06-0.3-0.12c-0.69-0.43-1.38-0.86-2.07-1.29c-1.39-0.87-2.78-1.73-4.16-2.61
		c-0.26-0.17-0.38-0.12-0.53,0.14c-0.43,0.73-0.94,1.41-1.48,2.06c-0.88,1.07-1.86,2.05-2.94,2.92c-0.21,0.17-0.25,0.29-0.06,0.5
		c0.32,0.36,0.61,0.74,0.91,1.11c0.93,1.16,1.86,2.31,2.78,3.47c0.38,0.48,0.8,0.92,1.12,1.45c-1.14,0.89-2.32,1.7-3.59,2.39
		c-0.1,0.05-0.2,0.09-0.3,0.13c-0.02-0.06-0.04-0.13-0.07-0.19c-1.17-2.2-2.35-4.4-3.51-6.61c-0.13-0.26-0.24-0.28-0.48-0.15
		c-2,1.08-4.13,1.78-6.38,2.12c-0.27,0.04-0.34,0.12-0.3,0.41c0.24,1.46,0.46,2.93,0.69,4.4c0.17,1.06,0.34,2.11,0.51,3.17
		c-0.06,0.08-0.15,0.09-0.24,0.1c-1.38,0.18-2.77,0.27-4.16,0.24c-0.1,0-0.2,0.01-0.29-0.06c0.03-0.54,0.06-1.09,0.08-1.63
		c0.07-2.03,0.14-4.06,0.22-6.08c0.01-0.22-0.06-0.28-0.28-0.29c-2.32-0.08-4.56-0.53-6.71-1.38c-0.19-0.07-0.28-0.05-0.36,0.16
		c-0.58,1.52-1.18,3.03-1.76,4.55c-0.34,0.89-0.73,1.77-1.01,2.69c-0.81-0.24-1.56-0.63-2.31-1.01c-0.65-0.33-1.32-0.64-1.89-1.11
		c0.06-0.08,0.13-0.15,0.18-0.24c1.3-2.09,2.6-4.18,3.91-6.27c0.13-0.21,0.12-0.31-0.1-0.45c-1.95-1.23-3.66-2.74-5.09-4.54
		c-0.13-0.17-0.22-0.17-0.37-0.04c-0.47,0.39-0.96,0.77-1.44,1.15c-1.55,1.24-3.1,2.48-4.65,3.72c-0.92-1.13-1.73-2.35-2.43-3.62
		c-0.05-0.09-0.08-0.18-0.12-0.27c0.02-0.01,0.05-0.01,0.06-0.02c2.26-1.2,4.53-2.41,6.79-3.6c0.2-0.11,0.2-0.22,0.11-0.4
		c-1.09-2.03-1.81-4.19-2.15-6.47c-0.04-0.24-0.12-0.29-0.35-0.25c-2.54,0.4-5.09,0.79-7.64,1.19c-0.14-0.49-0.16-1-0.21-1.51
		c-0.1-1.05-0.14-2.11-0.1-3.16c0.24,0.05,0.49,0.02,0.73,0.03c2.32,0.08,4.64,0.17,6.96,0.26c0.29,0.01,0.38-0.07,0.39-0.36
		c0.07-2.27,0.53-4.47,1.35-6.59c0.09-0.23,0.08-0.32-0.17-0.42c-1.66-0.63-3.31-1.28-4.96-1.92c-0.75-0.29-1.48-0.62-2.25-0.84
		c0.16-0.62,0.46-1.18,0.73-1.75c0.4-0.84,0.83-1.68,1.36-2.45c0.28,0.18,0.56,0.36,0.84,0.54c1.9,1.19,3.8,2.37,5.69,3.57
		c0.22,0.14,0.33,0.09,0.45-0.11c1.21-1.94,2.7-3.62,4.49-5.05c0.18-0.15,0.22-0.26,0.06-0.46c-0.52-0.63-1.02-1.27-1.53-1.9
		c-1.06-1.32-2.13-2.64-3.19-3.95l0,0.01c-0.04-0.08-0.1-0.16-0.19-0.2c0.95-0.67,1.86-1.38,2.87-1.96
		c0.36-0.21,0.69-0.45,1.08-0.59c0.48,0.9,0.97,1.81,1.45,2.71c0.73,1.38,1.46,2.76,2.19,4.14c0.09,0.17,0.19,0.22,0.37,0.12
		c2.04-1.1,4.22-1.82,6.51-2.17c0.21-0.03,0.28-0.1,0.25-0.32c-0.23-1.4-0.44-2.8-0.65-4.2c-0.18-1.16-0.34-2.32-0.52-3.48
		c1.53-0.24,3.06-0.33,4.6-0.27c0,0.19,0.01,0.38,0,0.57c-0.08,2.36-0.16,4.73-0.25,7.09c-0.01,0.3,0.06,0.4,0.38,0.41
		c2.26,0.07,4.45,0.53,6.55,1.35c0.25,0.1,0.35,0.05,0.44-0.19c0.58-1.53,1.18-3.05,1.77-4.58C269.93,6.03,270.25,5.16,270.58,4.3z
		 M274.38,19.65c-0.05-0.07-0.09-0.15-0.15-0.22c-1.12-1.4-2.41-2.63-3.89-3.66c-3.42-2.36-7.21-3.49-11.34-3.18
		c-6.69,0.5-11.7,3.76-14.88,9.66c-2.1,3.9-2.55,8.08-1.55,12.41c0.82,3.54,2.56,6.56,5.22,9.01c3.74,3.45,8.19,5.12,13.28,4.81
		c5.84-0.35,10.5-2.98,13.84-7.79c2.84-4.09,3.72-8.65,2.83-13.54c-0.44-2.42-1.36-4.66-2.77-6.69
		C274.81,20.17,274.61,19.89,274.38,19.65z"/>
	<path class="st8" d="M233.83,20.02c0.77,0.22,1.5,0.56,2.25,0.84c1.66,0.63,3.3,1.29,4.96,1.92c0.25,0.09,0.26,0.19,0.17,0.42
		c-0.82,2.12-1.28,4.32-1.35,6.59c-0.01,0.3-0.1,0.38-0.39,0.36c-2.32-0.1-4.64-0.18-6.96-0.26c-0.24-0.01-0.49,0.02-0.73-0.03
		c-0.01-1.03,0.11-2.04,0.23-3.06c0.13-1.03,0.3-2.05,0.56-3.05C232.91,22.48,233.27,21.22,233.83,20.02z"/>
	<path class="st9" d="M277.51,52.82c-0.31-0.53-0.74-0.97-1.12-1.45c-0.92-1.16-1.85-2.32-2.78-3.47c-0.3-0.37-0.59-0.75-0.91-1.11
		c-0.19-0.21-0.14-0.34,0.06-0.5c1.08-0.87,2.06-1.84,2.94-2.92c0.54-0.66,1.05-1.33,1.48-2.06c0.15-0.26,0.27-0.31,0.53-0.14
		c1.38,0.88,2.78,1.74,4.16,2.61c0.69,0.43,1.38,0.86,2.07,1.29c0.09,0.06,0.18,0.13,0.3,0.12c-0.6,1.08-1.34,2.07-2.11,3.04
		C280.79,49.94,279.23,51.46,277.51,52.82z"/>
	<path class="st9" d="M288.01,26.52c-1.07,0.17-2.13,0.35-3.2,0.52c-1.44,0.23-2.89,0.44-4.33,0.67c-0.28,0.04-0.39,0.01-0.44-0.3
		c-0.34-2.26-1.06-4.39-2.13-6.41c-0.11-0.21-0.1-0.3,0.12-0.41c2.29-1.21,4.57-2.42,6.85-3.63c0.74,1.28,1.33,2.64,1.84,4.03
		c0.6,1.66,1.02,3.36,1.29,5.11C288.03,26.24,288.07,26.38,288.01,26.52z"/>
	<path class="st8" d="M256.09,2.53c0.17,1.16,0.34,2.32,0.52,3.48c0.21,1.4,0.43,2.8,0.65,4.2c0.04,0.22-0.03,0.29-0.25,0.32
		c-2.29,0.35-4.47,1.07-6.51,2.17c-0.19,0.1-0.28,0.05-0.37-0.12c-0.73-1.38-1.45-2.76-2.19-4.14c-0.48-0.91-0.97-1.81-1.45-2.71
		c1.01-0.62,2.1-1.09,3.2-1.52C251.76,3.39,253.89,2.83,256.09,2.53z"/>
	<path class="st8" d="M282.3,13.07c-0.96,0.78-1.92,1.56-2.88,2.34c-1,0.81-2,1.61-3,2.42c-0.37,0.3-0.36,0.3-0.67-0.07
		c-1.39-1.69-3.01-3.14-4.86-4.31c-0.37-0.24-0.38-0.23-0.15-0.6c1.23-1.97,2.47-3.93,3.7-5.9c0.12-0.19,0.23-0.38,0.34-0.57
		c1.05,0.63,2.03,1.35,2.99,2.11c1.61,1.26,3.03,2.71,4.32,4.29C282.16,12.86,282.23,12.97,282.3,13.07z"/>
	<path class="st8" d="M264.08,58.48c-0.17-1.06-0.35-2.11-0.51-3.17c-0.23-1.47-0.45-2.93-0.69-4.4c-0.05-0.28,0.03-0.37,0.3-0.41
		c2.25-0.34,4.38-1.04,6.38-2.12c0.23-0.13,0.34-0.11,0.48,0.15c1.16,2.21,2.34,4.41,3.51,6.61c0.03,0.06,0.05,0.12,0.07,0.19
		c-0.68,0.45-1.43,0.77-2.17,1.1c-2.24,1-4.58,1.66-7,2.05C264.32,58.52,264.2,58.54,264.08,58.48z"/>
	<path class="st8" d="M286.31,41.05c-1.37-0.53-2.75-1.05-4.12-1.58c-1.02-0.39-2.04-0.8-3.06-1.18c-0.25-0.09-0.29-0.21-0.2-0.45
		c0.84-2.13,1.28-4.34,1.35-6.62c0.01-0.25,0.08-0.32,0.33-0.31c2.57,0.1,5.13,0.19,7.7,0.28c0.09,0.78-0.03,1.55-0.1,2.32
		c-0.25,2.51-0.85,4.93-1.76,7.28C286.41,40.88,286.36,40.97,286.31,41.05z"/>
	<path class="st9" d="M232.09,34.53c2.55-0.4,5.09-0.79,7.64-1.19c0.22-0.04,0.31,0.01,0.35,0.25c0.35,2.28,1.06,4.44,2.15,6.47
		c0.1,0.18,0.1,0.29-0.11,0.4c-2.27,1.2-4.53,2.4-6.79,3.6c-0.02,0.01-0.04,0.01-0.06,0.02c-0.4-0.59-0.68-1.25-0.98-1.9
		c-0.76-1.63-1.33-3.32-1.73-5.07C232.35,36.27,232.13,35.41,232.09,34.53z"/>
	<path class="st9" d="M242.54,8.27c0.09,0.04,0.14,0.11,0.19,0.2c0,0,0-0.01,0-0.01c1.06,1.32,2.13,2.64,3.19,3.95
		c0.51,0.63,1.01,1.27,1.53,1.9c0.16,0.2,0.13,0.31-0.06,0.46c-1.78,1.43-3.28,3.11-4.49,5.05c-0.12,0.2-0.24,0.25-0.45,0.11
		c-1.89-1.2-3.8-2.38-5.69-3.57c-0.28-0.18-0.56-0.36-0.84-0.54c0.58-1,1.25-1.95,1.97-2.86c0.8-1,1.67-1.94,2.58-2.84
		c0.57-0.56,1.16-1.08,1.78-1.58C242.35,8.46,242.45,8.36,242.54,8.27z"/>
	<path class="st9" d="M249.56,56.77c0.29-0.91,0.67-1.79,1.01-2.69c0.58-1.52,1.18-3.03,1.76-4.55c0.08-0.22,0.18-0.24,0.36-0.16
		c2.16,0.85,4.4,1.3,6.71,1.38c0.22,0.01,0.29,0.07,0.28,0.29c-0.08,2.03-0.14,4.06-0.22,6.08c-0.02,0.55-0.05,1.09-0.08,1.63
		c-0.5,0.1-1,0.01-1.49-0.02c-2.77-0.19-5.46-0.81-8.05-1.81C249.75,56.88,249.66,56.82,249.56,56.77z"/>
	<path class="st8" d="M237.81,47.98c1.55-1.24,3.1-2.48,4.65-3.72c0.48-0.38,0.96-0.76,1.44-1.15c0.15-0.13,0.24-0.13,0.37,0.04
		c1.44,1.81,3.15,3.31,5.09,4.54c0.21,0.13,0.23,0.23,0.1,0.45c-1.31,2.09-2.61,4.18-3.91,6.27c-0.05,0.08-0.12,0.16-0.18,0.24
		c-0.57-0.24-1.05-0.62-1.56-0.96c-0.86-0.58-1.67-1.23-2.44-1.92c-1.22-1.09-2.38-2.25-3.37-3.56
		C237.94,48.14,237.87,48.06,237.81,47.98z"/>
	<path class="st9" d="M270.58,4.3c-0.33,0.86-0.65,1.73-0.98,2.59c-0.59,1.53-1.19,3.05-1.77,4.58c-0.09,0.25-0.19,0.29-0.44,0.19
		c-2.11-0.82-4.29-1.27-6.55-1.35c-0.31-0.01-0.39-0.11-0.38-0.41c0.09-2.36,0.17-4.73,0.25-7.09c0.01-0.19,0-0.38,0-0.57
		c0.87-0.06,1.73,0.02,2.59,0.13c1.76,0.22,3.5,0.55,5.19,1.09C269.19,3.7,269.91,3.94,270.58,4.3z"/>
	<path class="st13" d="M274.97,20.47c1.4,2.03,2.33,4.27,2.77,6.69c0.89,4.89,0,9.46-2.83,13.54c-3.34,4.8-8,7.44-13.84,7.79
		c-5.09,0.3-9.54-1.36-13.28-4.81c-2.66-2.45-4.4-5.48-5.22-9.01c-1-4.32-0.55-8.51,1.55-12.41c3.18-5.9,8.19-9.16,14.88-9.66
		c4.13-0.31,7.93,0.82,11.34,3.18c1.48,1.02,2.76,2.25,3.89,3.66c0.06,0.07,0.1,0.15,0.15,0.22
		C274.6,19.85,274.79,20.18,274.97,20.47z M267.86,21.73c-4.87-4.31-12.28-3.86-16.59,1c-4.33,4.88-3.87,12.3,1.04,16.64
		c4.84,4.29,12.28,3.8,16.62-1.1C273.19,33.47,272.71,26.01,267.86,21.73z"/>
	<path class="st14" d="M242.73,8.46c0,0,0,0.01,0,0.01C242.73,8.47,242.73,8.46,242.73,8.46z"/>
	<path class="st12" d="M267.86,21.73c4.84,4.29,5.32,11.74,1.06,16.55c-4.34,4.9-11.78,5.39-16.62,1.1
		c-4.9-4.34-5.36-11.77-1.04-16.64C255.58,17.87,262.99,17.42,267.86,21.73z M252.1,32.29c-0.22,0.26-0.29,0.65-0.12,1.07
		c0.17,0.42,0.5,0.66,0.95,0.69c0.47,0.03,0.83-0.17,1.05-0.58c0.09-0.15,0.17-0.27,0.35-0.32c1.27-0.43,2.54-0.86,3.8-1.3
		c0.18-0.06,0.3-0.06,0.44,0.09c0.35,0.39,0.8,0.6,1.33,0.64c0.16,0.01,0.23,0.07,0.28,0.22c0.44,1.3,0.88,2.6,1.33,3.9
		c0.05,0.13,0.05,0.24-0.01,0.38c-0.29,0.6-0.08,1.22,0.49,1.51c0.54,0.27,1.18,0.07,1.47-0.46c0.3-0.56,0.12-1.2-0.46-1.52
		c-0.14-0.08-0.25-0.16-0.3-0.33c-0.43-1.28-0.87-2.56-1.31-3.83c-0.07-0.19-0.03-0.3,0.11-0.44c0.36-0.34,0.58-0.77,0.61-1.27
		c0.01-0.2,0.1-0.28,0.28-0.34c1.28-0.43,2.56-0.87,3.83-1.31c0.15-0.05,0.27-0.04,0.41,0.02c0.61,0.27,1.23,0.05,1.5-0.52
		c0.26-0.54,0.04-1.2-0.49-1.47c-0.56-0.28-1.2-0.08-1.51,0.5c-0.08,0.16-0.18,0.23-0.34,0.28c-1.27,0.43-2.54,0.86-3.8,1.3
		c-0.18,0.06-0.3,0.05-0.44-0.1c-0.34-0.38-0.78-0.59-1.29-0.63c-0.17-0.01-0.25-0.07-0.3-0.24c-0.43-1.28-0.87-2.56-1.31-3.83
		c-0.06-0.17-0.06-0.3,0.02-0.47c0.27-0.58,0.03-1.22-0.52-1.48c-0.55-0.26-1.2-0.04-1.47,0.48c-0.29,0.56-0.09,1.21,0.49,1.51
		c0.15,0.08,0.24,0.18,0.29,0.34c0.43,1.27,0.86,2.54,1.3,3.8c0.07,0.2,0.04,0.32-0.12,0.46c-0.36,0.33-0.57,0.75-0.6,1.23
		c-0.02,0.22-0.1,0.3-0.3,0.37c-1.26,0.42-2.52,0.85-3.77,1.29c-0.18,0.06-0.32,0.06-0.5-0.03C253.02,31.71,252.5,31.84,252.1,32.29
		z"/>
	<path class="st14" d="M252.1,32.29c0.4-0.45,0.91-0.58,1.35-0.36c0.18,0.09,0.32,0.09,0.5,0.03c1.25-0.43,2.51-0.87,3.77-1.29
		c0.2-0.07,0.28-0.15,0.3-0.37c0.04-0.48,0.25-0.9,0.6-1.23c0.15-0.14,0.19-0.26,0.12-0.46c-0.44-1.26-0.87-2.53-1.3-3.8
		c-0.05-0.16-0.14-0.26-0.29-0.34c-0.58-0.3-0.78-0.95-0.49-1.51c0.27-0.52,0.92-0.74,1.47-0.48c0.55,0.26,0.79,0.9,0.52,1.48
		c-0.08,0.17-0.08,0.31-0.02,0.47c0.44,1.28,0.88,2.55,1.31,3.83c0.06,0.16,0.13,0.22,0.3,0.24c0.51,0.04,0.95,0.25,1.29,0.63
		c0.14,0.15,0.26,0.16,0.44,0.1c1.27-0.44,2.53-0.87,3.8-1.3c0.16-0.05,0.26-0.13,0.34-0.28c0.31-0.58,0.95-0.78,1.51-0.5
		c0.53,0.27,0.75,0.93,0.49,1.47c-0.27,0.57-0.89,0.79-1.5,0.52c-0.14-0.06-0.26-0.07-0.41-0.02c-1.28,0.44-2.55,0.88-3.83,1.31
		c-0.18,0.06-0.26,0.14-0.28,0.34c-0.04,0.5-0.25,0.93-0.61,1.27c-0.14,0.13-0.18,0.25-0.11,0.44c0.44,1.28,0.88,2.55,1.31,3.83
		c0.06,0.16,0.16,0.24,0.3,0.33c0.58,0.32,0.76,0.96,0.46,1.52c-0.29,0.53-0.93,0.73-1.47,0.46c-0.57-0.29-0.78-0.91-0.49-1.51
		c0.07-0.14,0.06-0.25,0.01-0.38c-0.45-1.3-0.89-2.6-1.33-3.9c-0.05-0.15-0.12-0.21-0.28-0.22c-0.52-0.04-0.97-0.25-1.33-0.64
		c-0.14-0.15-0.26-0.15-0.44-0.09c-1.27,0.44-2.53,0.87-3.8,1.3c-0.18,0.06-0.26,0.17-0.35,0.32c-0.23,0.4-0.59,0.61-1.05,0.58
		c-0.45-0.03-0.78-0.27-0.95-0.69C251.81,32.94,251.89,32.55,252.1,32.29z"/>
</g>
<g>
	<path class="st2" d="M460.9,31.46c-0.07,0.67-0.12,1.34-0.21,2c-0.38,2.72-1.19,5.29-2.45,7.73c-1.15,2.24-2.63,4.24-4.4,6.02
		c-1.43,1.43-3.03,2.67-4.78,3.69c-2.12,1.25-4.37,2.16-6.77,2.7c-4.16,0.94-8.3,0.84-12.4-0.39c-1.92-0.57-3.73-1.39-5.45-2.41
		c-1.71-1.02-3.28-2.24-4.68-3.66c-2.65-2.67-4.59-5.8-5.78-9.38c-0.39-1.18-0.69-2.38-0.9-3.6c-0.01-0.08-0.01-0.16-0.08-0.22
		c-0.01-0.01-0.02-0.01-0.03,0c0.04-0.04,0.03-0.08-0.02-0.11c0,0-0.01-0.02-0.01-0.02c0.05-0.05,0.05-0.09-0.01-0.13
		c0.04-0.39-0.04-0.76-0.08-1.15c-0.37-3.81,0.13-7.51,1.5-11.08c0.71-1.85,1.65-3.58,2.79-5.2c0.97-1.37,2.06-2.63,3.29-3.77
		c3.2-2.95,6.91-4.92,11.17-5.85c4.13-0.91,8.22-0.74,12.27,0.47c0.82,0.25,1.61,0.56,2.4,0.87c0.04,0.01,0.08,0.02,0.12,0.03
		c0.43,0.22,0.86,0.43,1.3,0.65c0.98,0.49,1.92,1.05,2.82,1.68c1,0.7,1.96,1.45,2.85,2.3c2.33,2.23,4.17,4.8,5.48,7.75
		c1.43,3.22,2.08,6.6,2.08,10.11c0,0.09-0.02,0.18,0.03,0.26c-0.06,0.07-0.07,0.14,0.01,0.21c0,0,0,0.02,0,0.02
		c-0.04,0.04-0.05,0.07,0,0.11c0,0-0.01-0.01-0.01-0.01c-0.08,0.07-0.09,0.14-0.01,0.22C460.9,31.35,460.88,31.4,460.9,31.46z
		 M448.66,10.71c-0.83-0.54-1.71-0.98-2.62-1.38c-0.25-0.11-0.48-0.25-0.76-0.28c-0.54-0.29-1.12-0.48-1.7-0.66
		c-1.36-0.43-2.76-0.7-4.18-0.88c-0.69-0.09-1.38-0.16-2.08-0.11c-1.24-0.05-2.48,0.03-3.7,0.22c-1.77,0.24-3.49,0.69-5.15,1.34
		c-0.88,0.35-1.76,0.72-2.57,1.22c-0.31,0.12-0.59,0.31-0.87,0.47c-0.81,0.47-1.55,1.04-2.31,1.58c-0.08,0.07-0.15,0.15-0.24,0.22
		c-0.5,0.4-0.97,0.83-1.43,1.27c-0.74,0.72-1.44,1.48-2.08,2.28c-0.58,0.73-1.12,1.49-1.58,2.3c-0.43,0.62-0.77,1.29-1.1,1.97
		c-0.22,0.46-0.46,0.91-0.59,1.41c-0.45,0.96-0.73,1.98-1.01,3c-0.21,0.8-0.35,1.63-0.45,2.46c-0.1,0.82-0.19,1.63-0.19,2.46
		c-0.03,0.85,0,1.7,0.08,2.54c0.04,0.41,0.06,0.82,0.17,1.21c0.03,0.71,0.21,1.4,0.37,2.09c0.32,1.4,0.78,2.77,1.39,4.08
		c0.24,0.52,0.47,1.05,0.79,1.53c0.03,0.07,0.06,0.15,0.1,0.22c0.57,1.03,1.21,2,1.96,2.92c0.05,0.06,0.11,0.12,0.15,0.19
		c0.8,1.06,1.73,1.99,2.71,2.86c0.62,0.55,1.27,1.08,1.96,1.54c0.41,0.27,0.79,0.58,1.25,0.77c0.46,0.38,1,0.62,1.52,0.89
		c0.6,0.31,1.2,0.62,1.86,0.81c0.08,0.04,0.16,0.09,0.24,0.12c2.09,0.81,4.24,1.3,6.48,1.46c0.4,0.03,0.8,0.1,1.2,0.02
		c0.07,0.05,0.15,0.05,0.23,0.05c1.12,0.02,2.24-0.05,3.35-0.19c0.07-0.01,0.14-0.01,0.19-0.08c0.1,0.04,0.19,0.03,0.29,0.01
		c1.95-0.31,3.83-0.85,5.63-1.65c0.6-0.26,1.2-0.52,1.75-0.89c0.08-0.04,0.17-0.06,0.24-0.11c1.02-0.56,1.98-1.21,2.89-1.93
		c1.39-1.09,2.64-2.32,3.74-3.7c0.62-0.78,1.21-1.58,1.69-2.45c0.37-0.54,0.67-1.12,0.95-1.7c0.26-0.53,0.53-1.05,0.7-1.62
		c0.04-0.07,0.08-0.14,0.11-0.22c0.73-1.89,1.21-3.84,1.42-5.86c0.06-0.62,0.15-1.24,0.08-1.87c0.01-0.09,0.03-0.18,0.04-0.26
		c0.02-1.09-0.05-2.18-0.2-3.27c-0.01-0.08-0.01-0.16-0.08-0.22c0.05-0.12,0.01-0.23,0-0.34c-0.22-1.4-0.55-2.77-1.04-4.11
		c-0.41-1.12-0.88-2.21-1.48-3.24c-0.1-0.26-0.25-0.49-0.4-0.73c-0.51-0.84-1.04-1.66-1.68-2.41c-0.06-0.08-0.11-0.16-0.17-0.24
		c-1.04-1.27-2.18-2.44-3.47-3.46C450.29,11.8,449.5,11.22,448.66,10.71z"/>
	<path class="st12" d="M445.28,9.05c0.28,0.03,0.51,0.17,0.76,0.28c0.9,0.4,1.78,0.85,2.62,1.38c-0.09,0.15-0.18,0.31-0.28,0.46
		c-0.99,1.58-1.99,3.16-2.98,4.74c-0.19,0.3-0.18,0.3,0.12,0.48c1.49,0.95,2.79,2.11,3.91,3.47c0.25,0.3,0.24,0.3,0.54,0.06
		c0.8-0.65,1.61-1.3,2.41-1.94c0.77-0.63,1.55-1.25,2.32-1.88c0.64,0.75,1.18,1.57,1.68,2.41c0.14,0.24,0.3,0.47,0.4,0.73
		c-1.84,0.98-3.67,1.95-5.51,2.92c-0.17,0.09-0.18,0.16-0.09,0.33c0.87,1.62,1.45,3.34,1.72,5.16c0.04,0.25,0.13,0.28,0.35,0.24
		c1.16-0.19,2.32-0.36,3.48-0.54c0.86-0.13,1.72-0.28,2.57-0.42c0.07,0.06,0.07,0.14,0.08,0.22c0.15,1.08,0.22,2.17,0.2,3.27
		c0,0.09-0.02,0.18-0.04,0.26c-2.06-0.07-4.13-0.14-6.19-0.22c-0.2-0.01-0.26,0.05-0.26,0.25c-0.06,1.84-0.42,3.62-1.09,5.33
		c-0.08,0.19-0.04,0.28,0.16,0.36c0.82,0.31,1.64,0.63,2.46,0.95c1.11,0.43,2.21,0.85,3.32,1.27c-0.16,0.57-0.44,1.09-0.7,1.62
		c-0.29,0.58-0.59,1.16-0.95,1.7c-0.1,0.01-0.17-0.05-0.25-0.09c-0.55-0.35-1.11-0.69-1.66-1.04c-1.12-0.7-2.24-1.39-3.35-2.1
		c-0.21-0.13-0.3-0.1-0.43,0.11c-0.35,0.59-0.76,1.13-1.19,1.66c-0.71,0.86-1.5,1.65-2.37,2.35c-0.17,0.13-0.2,0.23-0.05,0.41
		c0.25,0.29,0.49,0.6,0.73,0.9c0.75,0.93,1.5,1.86,2.24,2.79c0.3,0.39,0.65,0.74,0.9,1.17c-0.91,0.71-1.87,1.37-2.89,1.93
		c-0.08,0.04-0.16,0.07-0.24,0.11c-0.02-0.05-0.03-0.1-0.06-0.15c-0.94-1.77-1.89-3.54-2.83-5.32c-0.11-0.21-0.19-0.22-0.38-0.12
		c-1.61,0.87-3.32,1.43-5.13,1.71c-0.22,0.03-0.28,0.1-0.24,0.33c0.19,1.18,0.37,2.36,0.55,3.54c0.13,0.85,0.27,1.7,0.41,2.55
		c-0.05,0.07-0.12,0.07-0.19,0.08c-1.11,0.15-2.23,0.22-3.35,0.19c-0.08,0-0.16,0-0.23-0.05c0.02-0.44,0.05-0.88,0.06-1.32
		c0.06-1.63,0.11-3.26,0.17-4.9c0.01-0.18-0.05-0.23-0.22-0.23c-1.86-0.06-3.67-0.42-5.4-1.11c-0.15-0.06-0.23-0.04-0.29,0.13
		c-0.46,1.22-0.95,2.44-1.42,3.66c-0.27,0.72-0.58,1.43-0.82,2.16c-0.65-0.19-1.26-0.51-1.86-0.81c-0.52-0.27-1.06-0.51-1.52-0.89
		c0.05-0.06,0.11-0.12,0.15-0.19c1.05-1.68,2.09-3.37,3.15-5.04c0.11-0.17,0.09-0.25-0.08-0.36c-1.57-0.99-2.94-2.2-4.1-3.66
		c-0.11-0.13-0.18-0.13-0.3-0.03c-0.38,0.31-0.77,0.62-1.15,0.92c-1.25,1-2.49,1.99-3.74,2.99c-0.74-0.91-1.39-1.89-1.96-2.92
		c-0.04-0.07-0.06-0.15-0.1-0.22c0.02,0,0.04-0.01,0.05-0.01c1.82-0.97,3.64-1.94,5.47-2.9c0.16-0.09,0.16-0.18,0.09-0.32
		c-0.88-1.64-1.45-3.37-1.73-5.21c-0.03-0.19-0.1-0.23-0.28-0.2c-2.05,0.32-4.1,0.64-6.14,0.96c-0.11-0.4-0.13-0.81-0.17-1.21
		c-0.08-0.85-0.12-1.69-0.08-2.54c0.2,0.04,0.39,0.02,0.59,0.02c1.87,0.07,3.73,0.13,5.6,0.21c0.24,0.01,0.31-0.05,0.31-0.29
		c0.05-1.83,0.43-3.6,1.09-5.3c0.07-0.18,0.06-0.26-0.14-0.33c-1.33-0.51-2.66-1.03-3.99-1.54c-0.6-0.23-1.19-0.5-1.81-0.68
		c0.13-0.5,0.37-0.95,0.59-1.41c0.33-0.68,0.67-1.35,1.1-1.97c0.23,0.15,0.45,0.29,0.68,0.44c1.53,0.96,3.06,1.91,4.58,2.87
		c0.17,0.11,0.26,0.07,0.36-0.09c0.97-1.56,2.17-2.92,3.61-4.07c0.15-0.12,0.18-0.21,0.05-0.37c-0.42-0.5-0.82-1.02-1.23-1.53
		c-0.86-1.06-1.71-2.12-2.57-3.18l0,0.01c-0.04-0.07-0.08-0.13-0.15-0.16c0.76-0.54,1.5-1.11,2.31-1.58
		c0.29-0.17,0.56-0.36,0.87-0.47c0.39,0.73,0.78,1.45,1.17,2.18c0.59,1.11,1.17,2.22,1.76,3.33c0.07,0.14,0.15,0.18,0.3,0.1
		c1.64-0.88,3.39-1.46,5.24-1.74c0.17-0.03,0.23-0.08,0.2-0.26c-0.18-1.13-0.35-2.25-0.53-3.38c-0.14-0.93-0.28-1.86-0.42-2.8
		c1.23-0.19,2.46-0.27,3.7-0.22c0,0.15,0.01,0.3,0,0.46c-0.06,1.9-0.13,3.8-0.2,5.7c-0.01,0.24,0.05,0.32,0.3,0.33
		c1.82,0.06,3.58,0.42,5.27,1.08c0.2,0.08,0.28,0.04,0.36-0.16c0.47-1.23,0.95-2.46,1.43-3.69C444.76,10.44,445.02,9.74,445.28,9.05
		z M448.34,21.4c-0.04-0.06-0.07-0.12-0.12-0.18c-0.9-1.13-1.94-2.12-3.13-2.94c-2.75-1.9-5.8-2.81-9.13-2.56
		c-5.38,0.4-9.41,3.02-11.97,7.77c-1.69,3.14-2.05,6.5-1.25,9.98c0.66,2.84,2.06,5.28,4.2,7.25c3.01,2.78,6.59,4.12,10.68,3.87
		c4.7-0.28,8.45-2.4,11.14-6.27c2.28-3.29,2.99-6.96,2.28-10.89c-0.35-1.95-1.1-3.75-2.23-5.38
		C448.68,21.82,448.53,21.6,448.34,21.4z"/>
	<path class="st8" d="M415.71,21.7c0.62,0.18,1.21,0.45,1.81,0.68c1.33,0.51,2.66,1.04,3.99,1.54c0.2,0.08,0.21,0.15,0.14,0.33
		c-0.66,1.71-1.03,3.47-1.09,5.3c-0.01,0.24-0.08,0.3-0.31,0.29c-1.87-0.08-3.73-0.15-5.6-0.21c-0.2-0.01-0.39,0.02-0.59-0.02
		c-0.01-0.83,0.09-1.64,0.19-2.46c0.1-0.83,0.24-1.65,0.45-2.46C414.98,23.68,415.26,22.66,415.71,21.7z"/>
	<path class="st9" d="M450.86,48.09c-0.25-0.43-0.6-0.78-0.9-1.17c-0.74-0.94-1.49-1.86-2.24-2.79c-0.24-0.3-0.48-0.61-0.73-0.9
		c-0.15-0.17-0.12-0.27,0.05-0.41c0.87-0.7,1.66-1.48,2.37-2.35c0.43-0.53,0.85-1.07,1.19-1.66c0.12-0.21,0.22-0.25,0.43-0.11
		c1.11,0.71,2.23,1.4,3.35,2.1c0.56,0.35,1.11,0.69,1.66,1.04c0.08,0.05,0.15,0.11,0.25,0.09c-0.49,0.87-1.08,1.67-1.69,2.45
		C453.5,45.77,452.25,47,450.86,48.09z"/>
	<path class="st9" d="M459.31,26.93c-0.86,0.14-1.72,0.28-2.57,0.42c-1.16,0.18-2.32,0.35-3.48,0.54c-0.22,0.04-0.31,0-0.35-0.24
		c-0.27-1.82-0.85-3.54-1.72-5.16c-0.09-0.17-0.08-0.24,0.09-0.33c1.84-0.97,3.67-1.95,5.51-2.92c0.6,1.03,1.07,2.12,1.48,3.24
		c0.48,1.33,0.82,2.71,1.04,4.11C459.32,26.7,459.36,26.82,459.31,26.93z"/>
	<path class="st8" d="M433.63,7.63c0.14,0.93,0.27,1.87,0.42,2.8c0.17,1.13,0.35,2.26,0.53,3.38c0.03,0.18-0.03,0.23-0.2,0.26
		c-1.85,0.28-3.59,0.86-5.24,1.74c-0.15,0.08-0.23,0.04-0.3-0.1c-0.58-1.11-1.17-2.22-1.76-3.33c-0.39-0.73-0.78-1.46-1.17-2.18
		c0.81-0.5,1.69-0.88,2.57-1.22C430.14,8.32,431.86,7.87,433.63,7.63z"/>
	<path class="st8" d="M454.71,16.1c-0.77,0.63-1.55,1.26-2.32,1.88c-0.8,0.65-1.61,1.29-2.41,1.94c-0.3,0.24-0.29,0.24-0.54-0.06
		c-1.12-1.36-2.42-2.52-3.91-3.47c-0.3-0.19-0.31-0.19-0.12-0.48c0.99-1.58,1.98-3.16,2.98-4.74c0.1-0.15,0.18-0.31,0.28-0.46
		c0.84,0.51,1.63,1.09,2.41,1.69c1.3,1.02,2.43,2.18,3.47,3.46C454.6,15.94,454.66,16.02,454.71,16.1z"/>
	<path class="st8" d="M440.06,52.65c-0.14-0.85-0.28-1.7-0.41-2.55c-0.19-1.18-0.36-2.36-0.55-3.54c-0.04-0.23,0.02-0.29,0.24-0.33
		c1.81-0.27,3.52-0.84,5.13-1.71c0.19-0.1,0.27-0.09,0.38,0.12c0.93,1.78,1.88,3.55,2.83,5.32c0.02,0.05,0.04,0.1,0.06,0.15
		c-0.55,0.36-1.15,0.62-1.75,0.89c-1.8,0.8-3.69,1.34-5.63,1.65C440.25,52.67,440.15,52.69,440.06,52.65z"/>
	<path class="st8" d="M457.94,38.62c-1.11-0.42-2.21-0.85-3.32-1.27c-0.82-0.32-1.64-0.64-2.46-0.95c-0.2-0.08-0.24-0.17-0.16-0.36
		c0.67-1.71,1.03-3.49,1.09-5.33c0.01-0.2,0.06-0.26,0.26-0.25c2.06,0.08,4.13,0.15,6.19,0.22c0.07,0.63-0.02,1.25-0.08,1.87
		c-0.2,2.02-0.69,3.97-1.42,5.86C458.02,38.48,457.98,38.55,457.94,38.62z"/>
	<path class="st9" d="M414.32,33.37c2.05-0.32,4.1-0.64,6.14-0.96c0.18-0.03,0.25,0.01,0.28,0.2c0.28,1.83,0.85,3.57,1.73,5.21
		c0.08,0.14,0.08,0.24-0.09,0.32c-1.82,0.96-3.64,1.93-5.47,2.9c-0.02,0.01-0.03,0.01-0.05,0.01c-0.32-0.48-0.55-1.01-0.79-1.53
		c-0.61-1.31-1.07-2.67-1.39-4.08C414.53,34.77,414.35,34.09,414.32,33.37z"/>
	<path class="st9" d="M422.73,12.25c0.07,0.03,0.12,0.09,0.15,0.16c0,0,0-0.01,0-0.01c0.86,1.06,1.71,2.12,2.57,3.18
		c0.41,0.51,0.81,1.03,1.23,1.53c0.13,0.16,0.1,0.25-0.05,0.37c-1.43,1.15-2.64,2.51-3.61,4.07c-0.1,0.16-0.19,0.2-0.36,0.09
		c-1.52-0.96-3.05-1.91-4.58-2.87c-0.23-0.14-0.45-0.29-0.68-0.44c0.47-0.81,1-1.57,1.58-2.3c0.64-0.81,1.34-1.56,2.08-2.28
		c0.46-0.45,0.93-0.87,1.43-1.27C422.57,12.4,422.65,12.32,422.73,12.25z"/>
	<path class="st9" d="M428.37,51.27c0.23-0.74,0.54-1.44,0.82-2.16c0.47-1.22,0.95-2.44,1.42-3.66c0.07-0.18,0.14-0.19,0.29-0.13
		c1.74,0.69,3.54,1.05,5.4,1.11c0.17,0.01,0.23,0.05,0.22,0.23c-0.06,1.63-0.12,3.26-0.17,4.9c-0.02,0.44-0.04,0.88-0.06,1.32
		c-0.4,0.08-0.8,0.01-1.2-0.02c-2.23-0.16-4.39-0.65-6.48-1.46C428.53,51.36,428.45,51.31,428.37,51.27z"/>
	<path class="st8" d="M418.92,44.2c1.25-1,2.49-1.99,3.74-2.99c0.39-0.31,0.77-0.61,1.15-0.92c0.12-0.1,0.2-0.1,0.3,0.03
		c1.16,1.45,2.53,2.66,4.1,3.66c0.17,0.11,0.18,0.19,0.08,0.36c-1.05,1.68-2.1,3.36-3.15,5.04c-0.04,0.07-0.1,0.13-0.15,0.19
		c-0.46-0.19-0.84-0.5-1.25-0.77c-0.69-0.46-1.34-0.99-1.96-1.54c-0.98-0.88-1.91-1.81-2.71-2.86
		C419.02,44.32,418.97,44.26,418.92,44.2z"/>
	<path class="st9" d="M445.28,9.05c-0.26,0.69-0.52,1.39-0.79,2.08c-0.47,1.23-0.96,2.46-1.43,3.69c-0.08,0.2-0.15,0.23-0.36,0.16
		c-1.7-0.66-3.45-1.03-5.27-1.08c-0.25-0.01-0.31-0.09-0.3-0.33c0.07-1.9,0.14-3.8,0.2-5.7c0.01-0.15,0-0.3,0-0.46
		c0.7-0.05,1.39,0.02,2.08,0.11c1.42,0.18,2.81,0.45,4.18,0.88C444.17,8.57,444.75,8.76,445.28,9.05z"/>
	<path class="st13" d="M448.81,22.06c1.13,1.63,1.87,3.43,2.23,5.38c0.71,3.94,0,7.61-2.28,10.89c-2.68,3.87-6.43,5.98-11.14,6.27
		c-4.09,0.24-7.67-1.09-10.68-3.87c-2.14-1.97-3.54-4.41-4.2-7.25c-0.8-3.48-0.44-6.84,1.25-9.98c2.56-4.75,6.59-7.37,11.97-7.77
		c3.32-0.25,6.38,0.66,9.13,2.56c1.19,0.82,2.22,1.81,3.13,2.94c0.04,0.06,0.08,0.12,0.12,0.18
		C448.52,21.56,448.68,21.83,448.81,22.06z M443.1,23.07c-3.92-3.47-9.88-3.11-13.35,0.8c-3.48,3.92-3.11,9.9,0.83,13.39
		c3.9,3.45,9.88,3.06,13.37-0.88C447.38,32.52,447,26.52,443.1,23.07z"/>
	<path class="st14" d="M422.88,12.4c0,0,0,0.01,0,0.01C422.88,12.41,422.88,12.4,422.88,12.4z"/>
	<path class="st12" d="M443.1,23.07c3.9,3.45,4.28,9.44,0.85,13.31c-3.49,3.94-9.47,4.33-13.37,0.88
		c-3.94-3.49-4.32-9.47-0.83-13.39C433.22,19.97,439.18,19.61,443.1,23.07z M430.42,31.57c-0.17,0.21-0.24,0.53-0.1,0.86
		c0.14,0.34,0.4,0.53,0.76,0.55c0.38,0.03,0.67-0.14,0.85-0.46c0.07-0.12,0.14-0.21,0.28-0.26c1.02-0.34,2.04-0.69,3.06-1.04
		c0.14-0.05,0.24-0.05,0.35,0.07c0.28,0.31,0.65,0.48,1.07,0.51c0.13,0.01,0.18,0.06,0.22,0.18c0.35,1.05,0.71,2.09,1.07,3.14
		c0.04,0.11,0.04,0.19-0.01,0.31c-0.23,0.48-0.06,0.98,0.39,1.21c0.43,0.22,0.95,0.06,1.18-0.37c0.24-0.45,0.09-0.96-0.37-1.22
		c-0.12-0.06-0.2-0.13-0.24-0.26c-0.35-1.03-0.7-2.06-1.05-3.08c-0.05-0.15-0.02-0.24,0.09-0.35c0.29-0.27,0.46-0.62,0.49-1.02
		c0.01-0.16,0.08-0.23,0.22-0.27c1.03-0.35,2.06-0.7,3.08-1.05c0.12-0.04,0.21-0.03,0.33,0.02c0.49,0.22,0.99,0.04,1.21-0.42
		c0.21-0.43,0.03-0.96-0.39-1.18c-0.45-0.23-0.97-0.07-1.22,0.4c-0.07,0.12-0.15,0.19-0.27,0.23c-1.02,0.35-2.04,0.69-3.06,1.05
		c-0.14,0.05-0.24,0.04-0.35-0.08c-0.28-0.31-0.63-0.48-1.04-0.51c-0.14-0.01-0.2-0.06-0.24-0.19c-0.35-1.03-0.7-2.06-1.06-3.08
		c-0.05-0.13-0.05-0.24,0.02-0.38c0.21-0.46,0.02-0.98-0.42-1.19c-0.44-0.21-0.96-0.03-1.18,0.39c-0.23,0.45-0.07,0.97,0.39,1.22
		c0.12,0.06,0.19,0.14,0.23,0.27c0.34,1.02,0.69,2.04,1.05,3.06c0.06,0.16,0.03,0.26-0.09,0.37c-0.29,0.27-0.46,0.6-0.49,0.99
		c-0.01,0.17-0.08,0.24-0.24,0.29c-1.01,0.34-2.02,0.68-3.03,1.03c-0.15,0.05-0.26,0.05-0.4-0.02
		C431.15,31.11,430.74,31.21,430.42,31.57z"/>
	<path class="st14" d="M430.42,31.57c0.32-0.36,0.73-0.47,1.09-0.29c0.14,0.07,0.26,0.08,0.4,0.02c1.01-0.35,2.02-0.7,3.03-1.03
		c0.16-0.05,0.23-0.12,0.24-0.29c0.03-0.39,0.2-0.73,0.49-0.99c0.12-0.11,0.15-0.21,0.09-0.37c-0.36-1.02-0.7-2.04-1.05-3.06
		c-0.04-0.13-0.11-0.21-0.23-0.27c-0.46-0.24-0.63-0.77-0.39-1.22c0.22-0.42,0.74-0.59,1.18-0.39c0.44,0.21,0.63,0.72,0.42,1.19
		c-0.06,0.14-0.06,0.25-0.02,0.38c0.36,1.03,0.71,2.05,1.06,3.08c0.04,0.13,0.11,0.18,0.24,0.19c0.41,0.03,0.76,0.2,1.04,0.51
		c0.11,0.12,0.21,0.13,0.35,0.08c1.02-0.35,2.04-0.7,3.06-1.05c0.12-0.04,0.21-0.1,0.27-0.23c0.25-0.47,0.77-0.63,1.22-0.4
		c0.42,0.22,0.6,0.75,0.39,1.18c-0.22,0.46-0.72,0.64-1.21,0.42c-0.12-0.05-0.21-0.06-0.33-0.02c-1.03,0.36-2.05,0.71-3.08,1.05
		c-0.15,0.05-0.21,0.11-0.22,0.27c-0.03,0.4-0.2,0.74-0.49,1.02c-0.11,0.11-0.14,0.2-0.09,0.35c0.36,1.03,0.71,2.05,1.05,3.08
		c0.04,0.13,0.13,0.2,0.24,0.26c0.46,0.26,0.61,0.77,0.37,1.22c-0.23,0.43-0.75,0.59-1.18,0.37c-0.46-0.23-0.63-0.73-0.39-1.21
		c0.05-0.11,0.05-0.2,0.01-0.31c-0.36-1.04-0.72-2.09-1.07-3.14c-0.04-0.12-0.1-0.17-0.22-0.18c-0.42-0.03-0.78-0.2-1.07-0.51
		c-0.11-0.12-0.21-0.12-0.35-0.07c-1.02,0.35-2.04,0.7-3.06,1.04c-0.14,0.05-0.21,0.14-0.28,0.26c-0.18,0.33-0.47,0.49-0.85,0.46
		c-0.36-0.03-0.63-0.22-0.76-0.55C430.18,32.1,430.25,31.78,430.42,31.57z"/>
</g>
</svg>
