<?xml version="1.0" encoding="utf-8"?>
<!-- Generator: Adobe Illustrator 24.1.0, SVG Export Plug-In . SVG Version: 6.00 Build 0)  -->
<svg version="1.1" id="Layer_1" xmlns="http://www.w3.org/2000/svg" xmlns:xlink="http://www.w3.org/1999/xlink" x="0px" y="0px"
	 viewBox="0 0 800 418" style="enable-background:new 0 0 800 418;" xml:space="preserve">
<style type="text/css">
	.st0{fill:#FFFFFF;stroke:#231F20;stroke-width:5;stroke-miterlimit:10;}
	.st1{fill:#FF6666;}
	.st2{fill:#FFFFFF;}
	.st3{fill:#F68C38;}
	.st4{fill:#231F20;}
	.st5{fill:none;stroke:#231F20;stroke-width:6;stroke-miterlimit:10;}
	.st6{fill:#231F20;stroke:#231F20;stroke-width:7;stroke-miterlimit:10;}
	.st7{fill:none;stroke:#231F20;stroke-width:0.75;stroke-miterlimit:10;}
	.st8{fill:#FF6060;}
	.st9{fill:#339AFF;}
	.st10{fill:#FFFFFF;stroke:#231F20;stroke-width:10;stroke-miterlimit:10;}
	.st11{fill:none;stroke:#231F20;stroke-width:10;stroke-miterlimit:10;}
	.st12{fill:#0F3A46;}
	.st13{fill:#FDFDFD;}
	.st14{fill:#FDB828;}
	.st15{fill:#FFFFFF;stroke:#231F20;stroke-width:3;stroke-miterlimit:10;}
	.st16{fill:none;stroke:#231F20;stroke-width:4;stroke-miterlimit:10;}
	.st17{fill:#FFFFFF;stroke:#231F20;stroke-width:6.7233;stroke-miterlimit:10;}
	.st18{fill:none;stroke:#231F20;stroke-width:8.068;stroke-miterlimit:10;}
	.st19{fill:#231F20;stroke:#231F20;stroke-width:9.4127;stroke-miterlimit:10;}
	.st20{fill:none;stroke:#231F20;stroke-width:1.0085;stroke-miterlimit:10;}
	.st21{fill:#FFFFFF;stroke:#231F20;stroke-width:4.4578;stroke-miterlimit:10;}
	.st22{fill:none;stroke:#231F20;stroke-width:8.9156;stroke-miterlimit:10;}
	.st23{fill:#231F20;stroke:#231F20;stroke-width:10.4016;stroke-miterlimit:10;}
	.st24{fill:none;stroke:#231F20;stroke-width:1.1145;stroke-miterlimit:10;}
	.st25{fill:none;stroke:#231F20;stroke-width:5.9438;stroke-miterlimit:10;}
	.st26{fill:#FFFFFF;stroke:#231F20;stroke-width:8.0745;stroke-miterlimit:10;}
	.st27{fill:none;stroke:#231F20;stroke-width:9.6894;stroke-miterlimit:10;}
	.st28{fill:#231F20;stroke:#231F20;stroke-width:11.3043;stroke-miterlimit:10;}
	.st29{fill:none;stroke:#231F20;stroke-width:1.2112;stroke-miterlimit:10;}
</style>
<path class="st4" d="M322.25,118.05l0.78-8.58l17.65-14.76c2.48-2.11,4.35-4.05,5.61-5.82c1.26-1.77,1.98-3.64,2.16-5.63
	c0.22-2.41-0.27-4.35-1.47-5.82s-2.93-2.31-5.2-2.51c-2.51-0.23-4.53,0.31-6.08,1.62c-1.55,1.31-2.44,3.24-2.67,5.8l-8.86-0.81
	c0.35-3.3,1.33-6.09,2.94-8.35c1.61-2.26,3.75-3.93,6.43-5.02c2.67-1.09,5.71-1.48,9.12-1.17c3.26,0.3,6.04,1.17,8.34,2.62
	c2.3,1.45,4.01,3.35,5.13,5.69c1.12,2.34,1.54,5.05,1.26,8.12c-0.29,3.17-1.39,6.18-3.29,9.03c-1.91,2.85-4.81,5.84-8.72,8.96
	l-11.74,9.58l21.7,1.98l-0.73,8.01L322.25,118.05z"/>
<path class="st4" d="M379.36,151.16c-3.36,0.29-6.32-0.09-8.89-1.16c-2.57-1.06-4.63-2.7-6.18-4.9c-1.55-2.2-2.46-4.86-2.73-7.98
	l-1.93-22.27c-0.27-3.12,0.17-5.9,1.31-8.33c1.15-2.43,2.89-4.4,5.24-5.89c2.35-1.49,5.2-2.38,8.56-2.67
	c3.41-0.3,6.38,0.09,8.93,1.16c2.55,1.07,4.59,2.7,6.14,4.9c1.55,2.2,2.46,4.86,2.73,7.98l1.93,22.27c0.27,3.12-0.17,5.9-1.31,8.33
	c-1.15,2.44-2.9,4.4-5.24,5.89C385.57,149.98,382.72,150.87,379.36,151.16z M378.7,143.5c2.46-0.21,4.36-1.09,5.7-2.64
	c1.34-1.55,1.91-3.5,1.71-5.87l-1.93-22.27c-0.2-2.36-1.1-4.19-2.69-5.48c-1.59-1.29-3.61-1.83-6.07-1.62
	c-2.46,0.21-4.36,1.09-5.7,2.64c-1.34,1.55-1.91,3.5-1.71,5.86l1.93,22.27c0.21,2.37,1.1,4.19,2.69,5.48
	C374.21,143.18,376.24,143.72,378.7,143.5z M377.45,129.17c-1.37,0.12-2.53-0.23-3.49-1.06c-0.95-0.82-1.49-1.94-1.61-3.36
	c-0.12-1.42,0.2-2.59,0.98-3.51c0.78-0.93,1.88-1.45,3.29-1.57c1.42-0.12,2.59,0.2,3.52,0.98c0.92,0.78,1.45,1.88,1.57,3.29
	c0.12,1.42-0.2,2.62-0.98,3.59C379.97,128.5,378.87,129.05,377.45,129.17z"/>
<path class="st4" d="M403.11,138.16l0.29-8.61l16.78-15.74c2.36-2.25,4.11-4.29,5.27-6.13c1.15-1.84,1.77-3.75,1.83-5.74
	c0.08-2.42-0.52-4.33-1.8-5.72c-1.28-1.4-3.06-2.13-5.34-2.21c-2.52-0.09-4.51,0.57-5.98,1.97c-1.47,1.4-2.25,3.38-2.34,5.94
	l-8.89-0.3c0.16-3.32,0.98-6.15,2.46-8.5c1.48-2.35,3.53-4.14,6.13-5.38c2.61-1.24,5.62-1.8,9.03-1.69c3.27,0.11,6.1,0.82,8.48,2.14
	c2.38,1.32,4.19,3.11,5.45,5.39c1.25,2.28,1.83,4.95,1.72,8.04c-0.11,3.18-1.03,6.25-2.77,9.2c-1.74,2.96-4.47,6.11-8.19,9.45
	l-11.18,10.24l21.77,0.74l-0.27,8.04L403.11,138.16z"/>
<path class="st4" d="M445.06,150.14l-1.29-8.52l13.61-18.55c1.9-2.64,3.26-4.97,4.05-6.99c0.8-2.02,1.05-4.01,0.75-5.98
	c-0.36-2.39-1.3-4.16-2.82-5.3c-1.52-1.14-3.4-1.54-5.65-1.2c-2.49,0.38-4.33,1.39-5.52,3.03c-1.19,1.65-1.6,3.73-1.21,6.27
	l-8.8,1.33c-0.45-3.29-0.16-6.23,0.86-8.81c1.03-2.58,2.71-4.72,5.04-6.42c2.34-1.7,5.19-2.8,8.57-3.32
	c3.24-0.49,6.15-0.31,8.72,0.55c2.58,0.86,4.69,2.29,6.34,4.3c1.65,2.01,2.7,4.54,3.17,7.59c0.48,3.14,0.13,6.33-1.04,9.56
	c-1.17,3.23-3.28,6.82-6.32,10.79l-9.11,12.11l21.54-3.26l1.21,7.96L445.06,150.14z"/>
<path class="st4" d="M291.05,234.42l-1.5-51.95l8.9-0.26l0.6,20.85l13.95-0.4l-0.6-20.85l8.9-0.26l1.5,51.95l-8.9,0.26l-0.66-22.85
	l-13.95,0.4l0.66,22.85L291.05,234.42z"/>
<path class="st4" d="M356.84,223.55c-3.32-0.21-6.16-1.02-8.52-2.42c-2.36-1.41-4.15-3.3-5.35-5.68c-1.21-2.38-1.71-5.14-1.52-8.26
	l0.6-9.66c0.2-3.13,1.04-5.8,2.53-8.01c1.49-2.21,3.5-3.87,6.02-4.97c2.52-1.1,5.43-1.55,8.75-1.34c3.36,0.21,6.21,1.02,8.55,2.42
	c2.34,1.41,4.11,3.3,5.32,5.68c1.21,2.38,1.71,5.11,1.52,8.19l-0.61,9.74c-0.2,3.13-1.04,5.8-2.53,8.01
	c-1.49,2.21-3.49,3.87-5.98,4.98C363.13,223.31,360.2,223.76,356.84,223.55z M357.32,215.8c2.37,0.15,4.24-0.39,5.63-1.61
	c1.38-1.22,2.15-3.06,2.31-5.53l0.6-9.66c0.16-2.51-0.38-4.45-1.6-5.81c-1.22-1.36-3.02-2.11-5.39-2.26
	c-2.32-0.14-4.19,0.38-5.59,1.58c-1.41,1.2-2.19,3.05-2.35,5.56l-0.6,9.66c-0.15,2.46,0.39,4.39,1.64,5.77
	C353.22,214.89,355,215.66,357.32,215.8z"/>
<path class="st4" d="M399.35,218.7c-4.98-0.29-8.8-1.9-11.49-4.84c-2.68-2.94-3.88-6.8-3.6-11.59l1.42-24.31l8.89,0.52l-1.41,24.24
	c-0.15,2.51,0.36,4.48,1.51,5.9c1.15,1.42,2.87,2.2,5.14,2.33c2.23,0.13,4.01-0.44,5.34-1.72c1.33-1.28,2.07-3.17,2.22-5.68
	l1.41-24.24l8.88,0.52l-1.42,24.31c-0.28,4.79-1.94,8.48-5,11.08C408.19,217.83,404.23,218.99,399.35,218.7z"/>
<path class="st4" d="M445.61,220.31c-2.89,0.77-5.54,0.98-7.94,0.63c-2.4-0.34-4.43-1.17-6.07-2.48c-1.65-1.31-2.81-3.05-3.49-5.23
	l8.6-2.28c0.41,1.17,1.25,1.98,2.52,2.42c1.27,0.45,2.78,0.44,4.52-0.02l3.03-0.8c2.11-0.56,3.58-1.39,4.42-2.5
	c0.84-1.11,1.07-2.37,0.69-3.79c-0.35-1.33-1.1-2.25-2.24-2.76c-1.14-0.51-2.73-0.61-4.76-0.32l-4.86,0.55
	c-4.47,0.55-7.94,0.24-10.41-0.92c-2.47-1.16-4.15-3.44-5.06-6.83c-0.94-3.53-0.47-6.59,1.39-9.17c1.87-2.58,5.12-4.49,9.75-5.72
	l2.62-0.69c4.22-1.12,7.84-1.08,10.86,0.14c3.02,1.21,5.05,3.37,6.07,6.49l-8.6,2.28c-0.41-0.97-1.19-1.65-2.34-2.03
	c-1.16-0.38-2.54-0.36-4.14,0.07l-2.62,0.69c-1.97,0.52-3.31,1.26-4.02,2.21c-0.71,0.95-0.88,2.11-0.51,3.49
	c0.34,1.28,0.98,2.13,1.93,2.55c0.94,0.41,2.32,0.52,4.14,0.34l5.07-0.61c4.67-0.55,8.3-0.23,10.9,0.97c2.6,1.2,4.36,3.52,5.27,6.96
	c0.97,3.67,0.48,6.86-1.47,9.56c-1.96,2.71-5.37,4.7-10.23,5.99L445.61,220.31z"/>
<path class="st4" d="M492.87,202.69c-3.26,0.66-6.22,0.6-8.9-0.17c-2.67-0.77-4.9-2.15-6.68-4.14c-1.78-1.99-2.98-4.5-3.59-7.52
	l-1.94-9.63c-0.61-3.02-0.48-5.8,0.39-8.32c0.87-2.52,2.39-4.66,4.56-6.4c2.17-1.74,4.88-2.94,8.13-3.6
	c3.21-0.65,6.14-0.58,8.79,0.19c2.65,0.77,4.87,2.15,6.65,4.14c1.78,1.99,2.98,4.5,3.59,7.52l1.39,6.91l-23.66,4.77l0.55,2.72
	c0.54,2.7,1.61,4.6,3.19,5.71c1.58,1.11,3.65,1.41,6.21,0.89c1.95-0.39,3.47-1.05,4.54-1.97c1.07-0.92,1.64-2.06,1.7-3.43l8.58-1.73
	c0.01,3.44-1.21,6.43-3.67,8.98C500.24,200.18,496.96,201.87,492.87,202.69z M495.83,178.49l-0.42-2.09
	c-0.53-2.65-1.57-4.56-3.12-5.73c-1.54-1.17-3.57-1.5-6.08-0.99c-2.51,0.51-4.28,1.61-5.29,3.32c-1.01,1.71-1.25,3.88-0.71,6.54
	l0.3,1.47l15.81-3.34L495.83,178.49z"/>
<path class="st4" d="M231.99,284.62c-3.54-0.36-6.55-1.26-9.03-2.7c-2.48-1.44-4.31-3.33-5.48-5.67c-1.17-2.34-1.63-4.99-1.38-7.97
	l8.86,0.89c-0.21,2.12,0.39,3.87,1.8,5.23c1.41,1.36,3.44,2.17,6.09,2.44c2.55,0.26,4.6-0.13,6.16-1.17
	c1.56-1.03,2.44-2.59,2.65-4.67c0.18-1.75-0.18-3.32-1.06-4.72c-0.89-1.4-2.25-2.43-4.09-3.1l-5.79-2.23
	c-3.96-1.45-6.9-3.63-8.82-6.54c-1.93-2.91-2.7-6.28-2.31-10.11c0.29-2.93,1.21-5.41,2.75-7.45c1.54-2.04,3.59-3.53,6.14-4.46
	c2.55-0.94,5.48-1.24,8.79-0.9c5.01,0.5,8.84,2.19,11.51,5.06c2.67,2.87,3.81,6.48,3.42,10.83l-8.86-0.89
	c0.2-2.03-0.3-3.69-1.5-4.98c-1.21-1.29-3.01-2.06-5.42-2.3c-2.31-0.23-4.16,0.13-5.55,1.09c-1.38,0.96-2.18,2.43-2.38,4.41
	c-0.18,1.8,0.15,3.37,0.99,4.72c0.84,1.35,2.16,2.38,3.95,3.08l5.99,2.32c4,1.45,6.96,3.62,8.86,6.51c1.9,2.89,2.66,6.29,2.26,10.21
	c-0.29,2.93-1.26,5.44-2.91,7.54c-1.64,2.1-3.8,3.64-6.48,4.61C238.49,284.66,235.43,284.97,231.99,284.62z"/>
<path class="st4" d="M259.02,296.17l-0.08-8.12l13.67-0.14l-0.23-23l-11.89,0.12l-0.08-8.05l20.43-0.21l0.31,31.04l12.1-0.12
	l0.08,8.12L259.02,296.17z M275.79,250.28c-1.8,0.02-3.23-0.43-4.29-1.35c-1.05-0.91-1.59-2.15-1.6-3.72
	c-0.02-1.57,0.49-2.82,1.53-3.75c1.03-0.94,2.45-1.41,4.26-1.43c1.8-0.02,3.23,0.43,4.29,1.35c1.05,0.92,1.59,2.16,1.6,3.72
	s-0.49,2.82-1.53,3.75C279.01,249.79,277.59,250.27,275.79,250.28z"/>
<path class="st4" d="M296.96,302.38l5.87-38.72l7.18,1.09l-0.79,5.21l1.48,0.22l-1.39,1.09c0.33-2.16,1.2-3.8,2.62-4.93
	c1.42-1.13,3.09-1.55,5.01-1.26c2.06,0.31,3.54,1.4,4.44,3.27c0.89,1.86,1.12,4.23,0.69,7.09l-1.03-3.68l2.39,0.36l-1.11,1.13
	c0.33-2.16,1.2-3.8,2.62-4.93c1.42-1.13,3.14-1.54,5.16-1.23c2.39,0.36,4.16,1.54,5.3,3.54c1.14,2,1.47,4.52,1.01,7.57l-4.47,29.5
	l-7.74-1.17l4.42-29.14c0.19-1.27,0.06-2.31-0.39-3.12c-0.45-0.81-1.22-1.3-2.3-1.46c-1.03-0.16-1.9,0.07-2.59,0.69
	c-0.69,0.62-1.14,1.58-1.34,2.89l-4.42,29.14l-6.34-0.96l4.42-29.14c0.2-1.31,0.07-2.37-0.39-3.16c-0.46-0.79-1.23-1.27-2.3-1.43
	c-1.08-0.16-1.94,0.06-2.59,0.69c-0.65,0.62-1.07,1.59-1.27,2.91l-4.42,29.14L296.96,302.38z"/>
<path class="st4" d="M358.28,311.69c-4.97-0.4-8.76-2.1-11.38-5.09c-2.62-3-3.73-6.88-3.35-11.66l1.95-24.27l8.87,0.71l-1.95,24.2
	c-0.2,2.51,0.26,4.49,1.38,5.93s2.82,2.26,5.09,2.45c2.22,0.18,4.02-0.36,5.38-1.6c1.36-1.25,2.14-3.12,2.35-5.63l1.95-24.2
	l8.87,0.71l-1.95,24.27c-0.38,4.78-2.13,8.44-5.24,10.97C367.14,311.01,363.15,312.08,358.28,311.69z"/>
<path class="st4" d="M406.63,306.4c-2.49-0.59-4.56-1.61-6.19-3.07c-1.63-1.46-2.76-3.25-3.38-5.37c-0.62-2.12-0.64-4.41-0.07-6.86
	l7.18-30.42l-12.2-2.88l1.85-7.83l20.86,4.92l-9.03,38.25c-0.33,1.39-0.18,2.58,0.44,3.58c0.62,1,1.62,1.66,3,1.99l11.5,2.71
	l-1.85,7.83L406.63,306.4z"/>
<path class="st4" d="M444.6,291.25c-3.95,0.84-7.28,0.46-10-1.14c-2.72-1.6-4.46-4.17-5.21-7.7c-0.8-3.76-0.17-6.93,1.9-9.51
	c2.07-2.58,5.4-4.36,10-5.34l9.54-2.04l-0.7-3.27c-0.4-1.86-1.31-3.18-2.74-3.96c-1.43-0.79-3.19-0.96-5.28-0.51
	c-1.9,0.41-3.39,1.16-4.47,2.27c-1.08,1.1-1.58,2.4-1.5,3.89l-8.49,1.82c-0.36-3.71,0.65-6.93,3.03-9.67
	c2.38-2.74,5.77-4.58,10.18-5.52c4.69-1,8.64-0.62,11.86,1.14c3.22,1.76,5.25,4.64,6.1,8.63l5.55,25.97l-8.43,1.8l-1.43-6.68
	l-1.39,0.3l0.99-2.18c0.61,2.83,0.04,5.31-1.69,7.42C450.69,289.08,448.08,290.51,444.6,291.25z M446.05,284.1
	c2.46-0.53,4.33-1.58,5.62-3.17c1.29-1.59,1.72-3.38,1.29-5.37l-1-4.67l-9.4,2.01c-1.76,0.38-3.07,1.19-3.92,2.44
	c-0.85,1.25-1.09,2.71-0.74,4.38c0.39,1.81,1.31,3.11,2.76,3.89C442.12,284.39,443.92,284.55,446.05,284.1z"/>
<path class="st4" d="M487.01,307.6c-3.74-0.3-6.58-1.57-8.52-3.82c-1.94-2.25-2.77-5.2-2.48-8.84l1.53-19.31l-10.58-0.84l0.64-8.02
	l10.58,0.84l0.87-11l8.94,0.71l-0.87,11l14.98,1.19l-0.64,8.02l-14.98-1.19l-1.53,19.31c-0.2,2.46,0.91,3.79,3.33,3.98l10.65,0.85
	l-0.64,8.02L487.01,307.6z"/>
<path class="st4" d="M520.79,298.5c-3.32-0.06-6.19-0.75-8.61-2.05c-2.42-1.3-4.28-3.12-5.59-5.45c-1.31-2.33-1.93-5.06-1.87-8.19
	l0.19-9.68c0.06-3.13,0.79-5.84,2.19-8.11c1.4-2.28,3.33-4.02,5.8-5.23c2.47-1.21,5.36-1.78,8.69-1.72
	c3.37,0.06,6.25,0.75,8.65,2.05c2.4,1.3,4.25,3.12,5.56,5.45c1.31,2.33,1.93,5.03,1.87,8.12l-0.19,9.75
	c-0.06,3.13-0.79,5.84-2.19,8.11c-1.4,2.28-3.32,4.02-5.76,5.23S524.16,298.56,520.79,298.5z M520.94,290.74
	c2.37,0.05,4.22-0.57,5.55-1.85c1.33-1.28,2.02-3.15,2.07-5.62l0.19-9.68c0.05-2.52-0.57-4.43-1.85-5.73
	c-1.28-1.31-3.11-1.98-5.48-2.03c-2.33-0.04-4.17,0.56-5.52,1.82c-1.35,1.26-2.05,3.14-2.1,5.66l-0.19,9.68
	c-0.05,2.47,0.58,4.37,1.88,5.7C516.8,290,518.61,290.69,520.94,290.74z"/>
<path class="st4" d="M566.31,306.54l-12.28-37.18l7.98-2.64l2.34,7.1l2.1-0.69l-1.07,5.15c-1.33-4.01-1.42-7.33-0.29-9.95
	c1.13-2.62,3.46-4.52,6.97-5.68c4.01-1.33,7.58-1.13,10.69,0.59c3.12,1.72,5.4,4.77,6.84,9.14l0.89,2.7l-8.86,2.93l-0.69-2.1
	c-0.79-2.39-2.02-4.03-3.69-4.93c-1.67-0.9-3.59-0.99-5.75-0.27c-2.21,0.73-3.69,1.95-4.46,3.65c-0.76,1.7-0.75,3.75,0.04,6.14
	l7.68,23.26L566.31,306.54z"/>
<path class="st10" d="M184.91,388.19l-133.22-18c-12.47-1.69-21.21-13.16-19.53-25.63l5.68-42.04
	c1.69-12.47,13.16-21.21,25.63-19.53l133.22,18c12.47,1.69,21.21,13.16,19.53,25.63l-5.68,42.04
	C208.86,381.13,197.38,389.87,184.91,388.19z"/>
<g>
	<path class="st1" d="M83.96,312.49l-31.26-4.22c-5.66-0.76-9.63-5.97-8.86-11.63l0.65-4.78c0.76-5.66,5.97-9.63,11.63-8.86
		l31.25,4.22c5.66,0.76,9.63,5.97,8.86,11.63l-0.65,4.78C94.83,309.29,89.62,313.26,83.96,312.49z"/>
	<g>
		<path class="st2" d="M56.89,303.54c-0.92-0.12-1.71-0.41-2.36-0.85s-1.12-1.01-1.4-1.7c-0.29-0.7-0.38-1.47-0.26-2.35l0.85-6.3
			c0.12-0.88,0.41-1.62,0.87-2.2c0.46-0.58,1.06-1.01,1.8-1.26c0.74-0.25,1.58-0.32,2.5-0.2c0.94,0.13,1.72,0.41,2.36,0.85
			c0.64,0.44,1.1,1.01,1.4,1.69c0.3,0.69,0.39,1.47,0.27,2.36l-2.5-0.34c0.09-0.68-0.02-1.23-0.33-1.64
			c-0.32-0.41-0.81-0.65-1.48-0.75c-0.67-0.09-1.22,0.02-1.64,0.32s-0.67,0.8-0.76,1.47l-0.85,6.32c-0.09,0.67,0.03,1.22,0.34,1.64
			c0.32,0.42,0.82,0.68,1.49,0.77c0.67,0.09,1.21-0.03,1.63-0.34c0.42-0.32,0.67-0.82,0.76-1.49l0.2-1.47l-2.46-0.33l0.29-2.14
			l4.95,0.67l-0.49,3.61c-0.12,0.87-0.41,1.6-0.88,2.19s-1.07,1.02-1.8,1.27C58.66,303.6,57.82,303.66,56.89,303.54z"/>
		<path class="st2" d="M68.7,305.13c-0.92-0.12-1.7-0.41-2.34-0.85c-0.64-0.44-1.09-1-1.36-1.7c-0.28-0.69-0.36-1.47-0.24-2.34
			l0.85-6.3c0.12-0.87,0.4-1.6,0.85-2.2c0.45-0.59,1.04-1.02,1.77-1.27c0.73-0.25,1.56-0.32,2.48-0.2c0.94,0.13,1.72,0.41,2.35,0.85
			c0.63,0.44,1.08,1,1.35,1.7s0.36,1.46,0.24,2.32l-0.85,6.32c-0.12,0.87-0.4,1.6-0.85,2.2c-0.45,0.59-1.04,1.02-1.76,1.28
			C70.47,305.19,69.63,305.26,68.7,305.13z M68.99,302.95c0.67,0.09,1.2-0.02,1.6-0.34c0.4-0.32,0.63-0.81,0.73-1.49l0.85-6.3
			c0.09-0.68-0.01-1.23-0.3-1.64c-0.3-0.4-0.78-0.65-1.45-0.74s-1.2,0.02-1.6,0.33c-0.4,0.31-0.63,0.81-0.73,1.5l-0.85,6.3
			c-0.09,0.67,0.02,1.21,0.31,1.63S68.33,302.86,68.99,302.95z"/>
		<path class="st2" d="M76.2,305.95l1.96-14.47l4.82,0.65c0.96,0.13,1.78,0.43,2.45,0.9c0.67,0.46,1.16,1.06,1.46,1.78
			c0.31,0.72,0.4,1.53,0.28,2.43c-0.12,0.88-0.42,1.64-0.92,2.26c-0.5,0.62-1.12,1.07-1.89,1.34c-0.76,0.27-1.63,0.34-2.59,0.21
			l-2.34-0.32l-0.75,5.55L76.2,305.95z M79.73,298.49l2.34,0.32c0.68,0.09,1.27-0.03,1.74-0.38c0.47-0.35,0.75-0.86,0.84-1.53
			c0.09-0.68-0.04-1.26-0.4-1.71c-0.36-0.45-0.89-0.73-1.57-0.82l-2.34-0.32L79.73,298.49z"/>
	</g>
</g>
<path class="st5" d="M211.94,358.35l8.08,1.09c11.46,1.55,22-6.48,23.54-17.94l4.01-29.69"/>
<circle class="st6" cx="247.58" cy="311.81" r="8.44"/>
<rect x="95.27" y="295.38" transform="matrix(0.991 0.1339 -0.1339 0.991 46.0562 -13.6082)" class="st7" width="57.85" height="80.41"/>
<g>
	<path class="st8" d="M186.57,328.14l-8.62-1.17c-4.6-0.62-7.82-4.85-7.2-9.45l1.17-8.62c0.62-4.6,4.85-7.82,9.45-7.2l8.63,1.17
		c4.6,0.62,7.82,4.85,7.2,9.45l-1.17,8.63C195.4,325.54,191.17,328.76,186.57,328.14z"/>
	<g>
		<path class="st2" d="M178.42,321.54l1.96-14.47l4.58,0.62c0.96,0.13,1.78,0.42,2.43,0.87c0.66,0.45,1.14,1.02,1.45,1.72
			c0.31,0.7,0.41,1.48,0.29,2.35c-0.13,0.95-0.48,1.76-1.06,2.42s-1.3,1.09-2.16,1.28l2.05,6.49l-2.77-0.37l-1.74-6.09l-1.76-0.24
			l-0.78,5.75L178.42,321.54z M181.97,313.94l2.1,0.28c0.7,0.1,1.27-0.02,1.72-0.35c0.45-0.33,0.72-0.83,0.81-1.51
			c0.09-0.68-0.03-1.26-0.38-1.7c-0.34-0.44-0.86-0.71-1.57-0.81l-2.1-0.28L181.97,313.94z"/>
	</g>
</g>
<g>
	<path class="st9" d="M133.4,385.26l-31.26-4.22c-5.66-0.76-9.63-5.97-8.86-11.63l0.65-4.78c0.76-5.66,5.97-9.63,11.63-8.86
		l31.25,4.22c5.66,0.76,9.63,5.97,8.86,11.63l-0.65,4.78C144.27,382.06,139.06,386.03,133.4,385.26z"/>
	<g>
		<path class="st2" d="M101.96,375.51l1.96-14.47l4.3,0.58c0.98,0.13,1.8,0.43,2.47,0.9s1.16,1.06,1.46,1.79
			c0.31,0.73,0.4,1.56,0.27,2.48l-0.73,5.41c-0.12,0.91-0.43,1.68-0.92,2.31c-0.49,0.63-1.11,1.08-1.89,1.36
			c-0.77,0.28-1.64,0.35-2.62,0.22L101.96,375.51z M104.75,373.57l1.82,0.25c0.71,0.1,1.31-0.03,1.79-0.37
			c0.48-0.35,0.76-0.87,0.86-1.57l0.73-5.41c0.09-0.68-0.04-1.26-0.41-1.72c-0.37-0.46-0.91-0.74-1.62-0.83l-1.82-0.25
			L104.75,373.57z"/>
		<path class="st2" d="M114.11,377.16l1.96-14.47l8.68,1.17l-0.29,2.16l-6.24-0.84l-0.51,3.77l5.55,0.75l-0.29,2.14l-5.55-0.75
			l-0.57,4.24l6.24,0.84l-0.29,2.16L114.11,377.16z"/>
		<path class="st2" d="M125.37,378.68l1.96-14.47l2.93,0.4l0.79,4.79c0.09,0.49,0.15,0.92,0.19,1.32c0.04,0.4,0.06,0.68,0.07,0.86
			c0.05-0.16,0.15-0.43,0.29-0.81c0.14-0.37,0.32-0.77,0.51-1.22l1.97-4.42l2.93,0.4l-1.96,14.47l-2.32-0.31l0.61-4.5
			c0.09-0.66,0.21-1.37,0.35-2.15c0.15-0.78,0.3-1.54,0.45-2.32c0.16-0.78,0.32-1.5,0.49-2.19c0.16-0.69,0.32-1.3,0.44-1.82
			l-2.87,6.58l-2.26-0.31l-1.08-7.11c0,0.51-0.02,1.11-0.04,1.8c-0.02,0.69-0.06,1.42-0.11,2.21c-0.04,0.78-0.1,1.57-0.17,2.37
			s-0.15,1.55-0.25,2.27l-0.61,4.5L125.37,378.68z"/>
	</g>
</g>
<g>
	<path class="st9" d="M124.59,353.55l-8.62-1.17c-4.6-0.62-7.82-4.85-7.2-9.45l1.17-8.62c0.62-4.6,4.85-7.82,9.45-7.2l8.63,1.17
		c4.6,0.62,7.82,4.85,7.2,9.45l-1.17,8.63C133.42,350.95,129.19,354.17,124.59,353.55z"/>
	<g>
		<path class="st2" d="M117.44,347.08l1.96-14.47l4.3,0.58c0.98,0.13,1.8,0.43,2.47,0.9c0.67,0.46,1.16,1.06,1.46,1.79
			c0.31,0.73,0.4,1.56,0.27,2.48l-0.73,5.41c-0.12,0.91-0.43,1.68-0.92,2.31c-0.49,0.63-1.11,1.08-1.89,1.36
			c-0.77,0.28-1.64,0.35-2.62,0.22L117.44,347.08z M120.22,345.14l1.82,0.25c0.71,0.1,1.31-0.03,1.79-0.37
			c0.48-0.35,0.76-0.87,0.86-1.57l0.73-5.41c0.09-0.68-0.04-1.26-0.41-1.72c-0.37-0.46-0.91-0.74-1.62-0.83l-1.82-0.25
			L120.22,345.14z"/>
	</g>
</g>
<g>
	<path class="st8" d="M68.77,339.58l-8.62-1.17c-4.6-0.62-7.82-4.85-7.2-9.45l1.16-8.62c0.62-4.6,4.85-7.82,9.45-7.2l8.63,1.17
		c4.6,0.62,7.82,4.85,7.2,9.45l-1.17,8.63C77.6,336.98,73.37,340.2,68.77,339.58z"/>
	<g>
		<path class="st2" d="M60.62,332.98l1.96-14.47l4.58,0.62c0.96,0.13,1.78,0.42,2.43,0.87c0.66,0.45,1.14,1.02,1.45,1.72
			c0.31,0.7,0.41,1.48,0.29,2.35c-0.13,0.95-0.48,1.76-1.06,2.42s-1.3,1.09-2.16,1.28l2.05,6.49l-2.77-0.37l-1.74-6.09l-1.76-0.24
			l-0.78,5.75L60.62,332.98z M64.17,325.39l2.1,0.28c0.7,0.1,1.27-0.02,1.72-0.35c0.45-0.33,0.72-0.83,0.81-1.51
			c0.09-0.68-0.03-1.26-0.38-1.7c-0.34-0.44-0.86-0.71-1.57-0.81l-2.1-0.28L64.17,325.39z"/>
	</g>
</g>
<g>
	<path class="st9" d="M129.05,323.63l-8.62-1.17c-4.6-0.62-7.82-4.85-7.2-9.45l1.17-8.62c0.62-4.6,4.85-7.82,9.45-7.2l8.63,1.17
		c4.6,0.62,7.82,4.85,7.2,9.45l-1.17,8.63C137.88,321.03,133.65,324.25,129.05,323.63z"/>
	<g>
		<path class="st2" d="M121.89,317.17l1.96-14.47l4.3,0.58c0.98,0.13,1.8,0.43,2.47,0.9c0.67,0.46,1.16,1.06,1.46,1.79
			s0.4,1.56,0.27,2.48l-0.73,5.41c-0.12,0.91-0.43,1.68-0.92,2.31c-0.49,0.63-1.11,1.08-1.89,1.36s-1.64,0.35-2.62,0.22
			L121.89,317.17z M124.68,315.22l1.82,0.25c0.71,0.1,1.31-0.03,1.79-0.37c0.48-0.35,0.76-0.87,0.86-1.57l0.73-5.41
			c0.09-0.68-0.04-1.26-0.41-1.72c-0.37-0.46-0.91-0.74-1.62-0.83l-1.82-0.25L124.68,315.22z"/>
	</g>
</g>
<g>
	<path class="st1" d="M191.22,389.11l-31.26-4.22c-5.66-0.76-9.63-5.97-8.86-11.63l0.65-4.78c0.76-5.66,5.97-9.63,11.63-8.86
		l31.25,4.22c5.66,0.76,9.63,5.97,8.86,11.63l-0.65,4.78C202.09,385.91,196.88,389.88,191.22,389.11z"/>
	<g>
		<path class="st2" d="M164.15,380.15c-0.92-0.12-1.71-0.41-2.36-0.85c-0.65-0.44-1.12-1.01-1.4-1.7c-0.29-0.7-0.38-1.47-0.26-2.35
			l0.85-6.3c0.12-0.88,0.41-1.62,0.87-2.2c0.46-0.58,1.06-1.01,1.8-1.26c0.74-0.25,1.58-0.32,2.5-0.2c0.94,0.13,1.72,0.41,2.36,0.85
			c0.64,0.44,1.1,1.01,1.4,1.69c0.3,0.69,0.39,1.47,0.27,2.36l-2.5-0.34c0.09-0.68-0.02-1.23-0.33-1.64
			c-0.32-0.41-0.81-0.65-1.48-0.75c-0.67-0.09-1.22,0.02-1.64,0.32c-0.41,0.31-0.67,0.8-0.76,1.47l-0.85,6.32
			c-0.09,0.67,0.03,1.22,0.34,1.64c0.32,0.42,0.82,0.68,1.49,0.77c0.67,0.09,1.21-0.03,1.63-0.34c0.42-0.32,0.67-0.82,0.76-1.49
			l0.2-1.47l-2.46-0.33l0.29-2.14l4.95,0.67l-0.49,3.61c-0.12,0.87-0.41,1.6-0.88,2.19s-1.07,1.02-1.8,1.27
			S165.08,380.28,164.15,380.15z"/>
		<path class="st2" d="M175.96,381.75c-0.92-0.12-1.7-0.41-2.34-0.85s-1.09-1-1.36-1.7c-0.28-0.69-0.36-1.47-0.24-2.34l0.85-6.3
			c0.12-0.87,0.4-1.6,0.85-2.2s1.04-1.02,1.77-1.27s1.56-0.32,2.48-0.2c0.94,0.13,1.72,0.41,2.35,0.85c0.63,0.44,1.08,1,1.35,1.7
			c0.28,0.69,0.36,1.46,0.24,2.32l-0.85,6.32c-0.12,0.87-0.4,1.6-0.85,2.2c-0.45,0.59-1.04,1.02-1.76,1.28
			S176.89,381.88,175.96,381.75z M176.25,379.57c0.67,0.09,1.2-0.02,1.6-0.34s0.63-0.81,0.73-1.49l0.85-6.3
			c0.09-0.68-0.01-1.23-0.3-1.64s-0.78-0.65-1.45-0.74s-1.2,0.02-1.6,0.33c-0.4,0.31-0.63,0.81-0.73,1.5l-0.85,6.3
			c-0.09,0.67,0.02,1.21,0.32,1.63S175.59,379.48,176.25,379.57z"/>
		<path class="st2" d="M183.46,382.56l1.96-14.47l4.82,0.65c0.96,0.13,1.78,0.43,2.45,0.9c0.67,0.46,1.16,1.06,1.46,1.78
			c0.31,0.72,0.4,1.53,0.28,2.43c-0.12,0.88-0.42,1.64-0.92,2.26c-0.5,0.62-1.12,1.07-1.89,1.34c-0.76,0.27-1.63,0.34-2.59,0.21
			l-2.34-0.32l-0.75,5.55L183.46,382.56z M186.99,375.11l2.34,0.32c0.68,0.09,1.27-0.03,1.74-0.38s0.75-0.86,0.84-1.53
			c0.09-0.68-0.04-1.26-0.4-1.71c-0.36-0.45-0.89-0.73-1.57-0.82l-2.34-0.32L186.99,375.11z"/>
	</g>
</g>
<g>
	<path class="st8" d="M64.61,370.88l-8.62-1.17c-4.6-0.62-7.82-4.85-7.2-9.45l1.17-8.62c0.62-4.6,4.85-7.82,9.45-7.2l8.63,1.17
		c4.6,0.62,7.82,4.85,7.2,9.45l-1.17,8.63C73.44,368.28,69.21,371.5,64.61,370.88z"/>
	<g>
		<path class="st2" d="M56.46,364.28l1.96-14.47l4.58,0.62c0.96,0.13,1.78,0.42,2.43,0.87c0.66,0.45,1.14,1.02,1.45,1.72
			c0.31,0.7,0.41,1.48,0.29,2.35c-0.13,0.95-0.48,1.76-1.06,2.42c-0.58,0.66-1.3,1.09-2.16,1.28l2.05,6.49l-2.77-0.37l-1.74-6.09
			l-1.76-0.24l-0.78,5.75L56.46,364.28z M60.01,356.69l2.1,0.28c0.7,0.1,1.27-0.02,1.72-0.35c0.45-0.33,0.72-0.83,0.81-1.51
			c0.09-0.68-0.03-1.26-0.38-1.7c-0.34-0.44-0.86-0.71-1.57-0.81l-2.1-0.28L60.01,356.69z"/>
	</g>
</g>
<g>
	<path class="st9" d="M194.22,359.34l-31.26-4.22c-5.66-0.76-9.63-5.97-8.86-11.63l0.65-4.78c0.76-5.66,5.97-9.63,11.63-8.86
		l31.25,4.22c5.66,0.76,9.63,5.97,8.86,11.63l-0.65,4.78C205.09,356.14,199.88,360.11,194.22,359.34z"/>
	<g>
		<path class="st2" d="M162.78,349.6l1.96-14.47l4.3,0.58c0.98,0.13,1.8,0.43,2.47,0.9c0.67,0.46,1.16,1.06,1.46,1.79
			c0.31,0.73,0.4,1.56,0.27,2.48l-0.73,5.41c-0.12,0.91-0.43,1.68-0.92,2.31c-0.49,0.63-1.11,1.08-1.89,1.36
			c-0.77,0.28-1.64,0.35-2.62,0.22L162.78,349.6z M165.57,347.65l1.82,0.25c0.71,0.1,1.31-0.03,1.79-0.37
			c0.48-0.35,0.76-0.87,0.86-1.57l0.73-5.41c0.09-0.68-0.04-1.26-0.41-1.72c-0.37-0.46-0.91-0.74-1.62-0.83l-1.82-0.25
			L165.57,347.65z"/>
		<path class="st2" d="M174.93,351.24l1.96-14.47l8.68,1.17l-0.29,2.16l-6.24-0.84l-0.51,3.77l5.55,0.75l-0.29,2.14l-5.55-0.75
			l-0.57,4.24l6.24,0.84l-0.29,2.16L174.93,351.24z"/>
		<path class="st2" d="M186.19,352.76l1.96-14.47l2.93,0.4l0.79,4.79c0.09,0.49,0.15,0.92,0.19,1.32c0.04,0.4,0.06,0.68,0.07,0.86
			c0.05-0.16,0.15-0.43,0.29-0.81c0.14-0.37,0.32-0.77,0.51-1.22l1.97-4.42l2.93,0.4l-1.96,14.47l-2.32-0.31l0.61-4.5
			c0.09-0.66,0.21-1.37,0.35-2.15s0.3-1.54,0.45-2.32s0.32-1.5,0.49-2.19c0.16-0.69,0.32-1.3,0.44-1.82l-2.87,6.58l-2.26-0.31
			l-1.08-7.11c0,0.51-0.02,1.11-0.04,1.8c-0.02,0.69-0.06,1.42-0.11,2.21c-0.04,0.78-0.1,1.57-0.17,2.37
			c-0.07,0.8-0.15,1.55-0.25,2.27l-0.61,4.5L186.19,352.76z"/>
	</g>
</g>
<path class="st11" d="M184.91,388.19l-133.22-18c-12.47-1.69-21.21-13.16-19.53-25.63l5.68-42.04
	c1.69-12.47,13.16-21.21,25.63-19.53l133.22,18c12.47,1.69,21.21,13.16,19.53,25.63l-5.68,42.04
	C208.86,381.13,197.38,389.87,184.91,388.19z"/>
<path class="st2" d="M393.32,343.5c0.75,1.04,1.52,2.06,2.23,3.13c2.9,4.35,5,9.05,6.3,14.12c1.19,4.65,1.62,9.37,1.34,14.14
	c-0.23,3.85-0.94,7.63-2.13,11.31c-1.45,4.46-3.5,8.61-6.23,12.42c-4.75,6.6-10.77,11.69-18.16,15.14
	c-3.46,1.61-7.07,2.74-10.81,3.45c-3.74,0.71-7.51,0.95-11.29,0.71c-7.16-0.45-13.87-2.45-20.1-6.05c-2.05-1.18-3.99-2.52-5.83-4
	c-0.12-0.09-0.22-0.22-0.39-0.21c-0.03,0-0.04,0.01-0.04,0.04c0.01-0.12-0.05-0.15-0.16-0.13c0,0-0.04-0.02-0.04-0.02
	c0.01-0.13-0.05-0.19-0.17-0.17c-0.43-0.6-1.03-1.04-1.56-1.53c-5.34-4.96-9.32-10.85-11.88-17.68c-1.33-3.54-2.18-7.19-2.6-10.95
	c-0.36-3.18-0.4-6.35-0.08-9.53c0.83-8.24,3.64-15.75,8.51-22.47c4.73-6.52,10.77-11.45,18.08-14.85c1.47-0.68,3-1.24,4.52-1.81
	c0.07-0.04,0.14-0.08,0.21-0.11c0.89-0.24,1.78-0.48,2.67-0.72c2.02-0.55,4.07-0.93,6.14-1.18c2.32-0.28,4.64-0.41,6.97-0.33
	c6.14,0.23,12.02,1.56,17.62,4.12c6.11,2.78,11.3,6.77,15.75,11.77c0.11,0.12,0.19,0.29,0.37,0.34c0.01,0.17,0.07,0.29,0.27,0.28
	c0,0,0.03,0.03,0.03,0.03c-0.02,0.11,0.02,0.16,0.14,0.16c0,0-0.03,0-0.03,0c-0.02,0.2,0.06,0.32,0.27,0.33
	C393.19,343.35,393.23,343.44,393.32,343.5z M349.64,329.42c-1.86,0.29-3.68,0.76-5.48,1.34c-0.49,0.16-1.01,0.24-1.44,0.56
	c-1.13,0.26-2.2,0.73-3.25,1.2c-2.49,1.11-4.82,2.5-7.06,4.04c-1.09,0.75-2.17,1.53-3.1,2.48c-1.83,1.51-3.5,3.17-5,5
	c-2.22,2.58-4.1,5.39-5.63,8.43c-0.82,1.62-1.59,3.26-2.11,5c-0.3,0.56-0.44,1.18-0.64,1.78c-0.56,1.69-0.89,3.44-1.3,5.17
	c-0.02,0.2-0.03,0.41-0.07,0.61c-0.2,1.2-0.34,2.41-0.43,3.62c-0.14,1.96-0.18,3.92-0.07,5.88c0.1,1.78,0.3,3.54,0.65,5.28
	c0.17,1.43,0.54,2.82,0.93,4.2c0.27,0.93,0.5,1.88,0.95,2.75c0.57,1.94,1.46,3.75,2.36,5.55c0.71,1.42,1.56,2.76,2.46,4.07
	c0.89,1.29,1.79,2.57,2.85,3.74c1.03,1.25,2.15,2.42,3.33,3.52c0.57,0.53,1.11,1.09,1.78,1.52c0.94,0.97,2.07,1.73,3.16,2.51
	c2.24,1.59,4.62,2.95,7.14,4.05c1,0.43,1.99,0.9,3.05,1.18c0.14,0.06,0.27,0.14,0.41,0.19c2.11,0.75,4.27,1.32,6.48,1.68
	c0.15,0.02,0.3,0.04,0.46,0.07c2.47,0.5,4.98,0.64,7.48,0.65c1.58,0.01,3.17-0.07,4.75-0.29c0.93-0.13,1.87-0.17,2.76-0.48
	c1.13-0.04,2.21-0.37,3.29-0.65c1.25-0.32,2.5-0.63,3.68-1.19c0.16-0.04,0.33-0.07,0.49-0.13c3.99-1.49,7.7-3.51,11.08-6.11
	c0.6-0.46,1.27-0.87,1.74-1.49c0.17-0.01,0.28-0.13,0.39-0.22c1.63-1.38,3.13-2.89,4.53-4.51c0.09-0.1,0.19-0.2,0.17-0.36
	c0.19-0.06,0.31-0.21,0.43-0.35c2.38-2.91,4.39-6.05,5.94-9.48c0.51-1.13,1.05-2.26,1.37-3.47c0.07-0.15,0.15-0.3,0.21-0.46
	c0.75-2.08,1.28-4.22,1.68-6.4c0.6-3.31,0.82-6.64,0.64-10c-0.1-1.89-0.27-3.78-0.68-5.63c-0.16-1.23-0.46-2.44-0.79-3.63
	c-0.3-1.08-0.57-2.17-1.05-3.19c-0.04-0.15-0.07-0.3-0.12-0.44c-1.35-3.62-3.13-7.01-5.39-10.14c-0.7-0.96-1.35-1.96-2.24-2.77
	c-0.09-0.14-0.17-0.29-0.28-0.42c-1.35-1.59-2.83-3.05-4.41-4.41c-0.12-0.1-0.22-0.22-0.39-0.21c-0.08-0.22-0.27-0.34-0.44-0.49
	c-2.08-1.72-4.3-3.25-6.68-4.54c-1.99-1.08-4.05-2.04-6.21-2.75c-0.47-0.24-0.98-0.38-1.48-0.53c-1.78-0.56-3.58-1.06-5.44-1.3
	c-0.18-0.04-0.36-0.1-0.55-0.13c-3.09-0.5-6.19-0.72-9.32-0.53C353.34,328.9,351.48,329.08,349.64,329.42z"/>
<path class="st12" d="M342.72,331.32c0.43-0.31,0.95-0.4,1.44-0.56c1.79-0.58,3.61-1.05,5.48-1.34c0.06,0.34,0.13,0.67,0.19,1.01
	c0.59,3.51,1.17,7.02,1.76,10.52c0.11,0.66,0.12,0.64,0.79,0.54c3.32-0.53,6.65-0.53,9.97-0.01c0.73,0.12,0.72,0.13,0.84-0.6
	c0.32-1.94,0.65-3.88,0.97-5.82c0.31-1.87,0.62-3.75,0.93-5.62c1.86,0.25,3.66,0.75,5.44,1.3c0.5,0.16,1.01,0.29,1.48,0.53
	c-1.38,3.71-2.76,7.43-4.16,11.14c-0.13,0.35-0.06,0.46,0.28,0.59c3.28,1.21,6.28,2.93,8.97,5.18c0.37,0.31,0.54,0.24,0.81-0.1
	c1.42-1.74,2.86-3.45,4.28-5.18c1.05-1.28,2.1-2.56,3.14-3.85c0.17-0.01,0.28,0.11,0.39,0.21c1.58,1.36,3.06,2.82,4.41,4.41
	c0.11,0.13,0.19,0.28,0.28,0.42c-3.03,2.51-6.07,5.02-9.11,7.52c-0.29,0.24-0.31,0.39-0.06,0.69c2.24,2.7,3.98,5.68,5.19,8.97
	c0.14,0.37,0.29,0.46,0.68,0.31c1.56-0.61,3.14-1.18,4.71-1.76c2.11-0.79,4.22-1.59,6.34-2.38c0.49,1.02,0.76,2.11,1.05,3.19
	c0.33,1.19,0.64,2.4,0.79,3.63c-0.12,0.14-0.3,0.15-0.47,0.18c-1.23,0.21-2.46,0.41-3.69,0.62c-2.48,0.42-4.95,0.85-7.43,1.24
	c-0.47,0.08-0.56,0.25-0.47,0.7c0.25,1.28,0.35,2.57,0.4,3.87c0.09,2.13-0.05,4.24-0.4,6.34c-0.07,0.4,0.01,0.59,0.44,0.64
	c0.73,0.09,1.45,0.23,2.18,0.35c2.24,0.38,4.48,0.75,6.72,1.15c0.92,0.16,1.86,0.24,2.76,0.53c-0.4,2.18-0.93,4.32-1.68,6.4
	c-0.06,0.16-0.14,0.31-0.21,0.46c-0.09-0.05-0.17-0.11-0.27-0.14c-3.59-1.33-7.18-2.65-10.76-4.01c-0.42-0.16-0.56-0.07-0.7,0.31
	c-1.19,3.28-2.92,6.25-5.15,8.92c-0.27,0.32-0.27,0.49,0.07,0.77c1.77,1.43,3.51,2.9,5.26,4.34c1.27,1.04,2.54,2.07,3.81,3.11
	c0.01,0.15-0.08,0.25-0.17,0.36c-1.4,1.61-2.9,3.12-4.53,4.51c-0.12,0.1-0.23,0.21-0.39,0.22c-0.52-0.65-1.04-1.31-1.58-1.95
	c-1.98-2.4-3.97-4.79-5.94-7.2c-0.22-0.27-0.36-0.26-0.62-0.05c-2.73,2.27-5.76,4.03-9.1,5.25c-0.29,0.11-0.38,0.22-0.25,0.56
	c0.89,2.33,1.73,4.68,2.61,7.01c0.52,1.37,0.97,2.77,1.57,4.11c-1.17,0.56-2.43,0.87-3.68,1.19c-1.08,0.28-2.16,0.61-3.29,0.65
	c-0.01-0.15-0.01-0.31-0.03-0.46c-0.63-3.72-1.28-7.44-1.9-11.17c-0.06-0.38-0.18-0.47-0.56-0.41c-3.49,0.57-6.98,0.58-10.46-0.02
	c-0.32-0.06-0.42,0.04-0.47,0.34c-0.15,0.93-0.32,1.85-0.48,2.78c-0.51,3-1.03,5.99-1.54,8.99c-2.21-0.36-4.37-0.93-6.48-1.68
	c-0.14-0.05-0.28-0.13-0.41-0.19c0.02-0.03,0.05-0.05,0.06-0.09c1.37-3.68,2.74-7.37,4.12-11.04c0.12-0.33,0.01-0.46-0.28-0.57
	c-3.32-1.22-6.34-2.97-9.06-5.23c-0.28-0.24-0.43-0.2-0.65,0.06c-2.51,3.05-5.03,6.09-7.54,9.14c-0.66-0.42-1.21-0.99-1.78-1.52
	c-1.19-1.1-2.31-2.27-3.33-3.52c0.33-0.19,0.58-0.47,0.87-0.71c2.74-2.27,5.49-4.53,8.24-6.78c0.35-0.28,0.37-0.46,0.08-0.81
	c-2.24-2.68-3.94-5.66-5.16-8.93c-0.13-0.35-0.24-0.45-0.62-0.3c-2.54,0.96-5.1,1.89-7.64,2.85c-1.15,0.43-2.33,0.79-3.44,1.32
	c-0.45-0.87-0.68-1.82-0.95-2.75c-0.4-1.38-0.76-2.77-0.93-4.2c0.51-0.08,1.01-0.15,1.52-0.24c3.39-0.57,6.77-1.15,10.16-1.7
	c0.39-0.06,0.47-0.23,0.41-0.59c-0.59-3.45-0.59-6.91,0-10.36c0.06-0.36-0.01-0.52-0.4-0.58c-1.23-0.19-2.46-0.41-3.69-0.62
	c-2.56-0.43-5.12-0.86-7.69-1.28l0.02,0.01c-0.14-0.05-0.27-0.08-0.42-0.03c0.41-1.73,0.73-3.48,1.3-5.17
	c0.2-0.6,0.34-1.22,0.64-1.78c1.47,0.55,2.95,1.09,4.42,1.64c2.24,0.84,4.48,1.68,6.72,2.53c0.28,0.11,0.44,0.06,0.55-0.24
	c1.23-3.34,2.98-6.38,5.26-9.11c0.21-0.25,0.22-0.4-0.05-0.62c-1.68-1.38-3.36-2.76-5.03-4.15c-1.38-1.15-2.75-2.31-4.13-3.46
	c1.5-1.83,3.17-3.49,5-5c0.19,0.22,0.4,0.42,0.58,0.65c2.31,2.79,4.63,5.58,6.93,8.38c0.29,0.36,0.48,0.39,0.85,0.09
	c2.66-2.22,5.63-3.92,8.88-5.13c0.39-0.14,0.45-0.29,0.31-0.67c-0.89-2.35-1.75-4.71-2.63-7.06
	C343.74,333.96,343.23,332.64,342.72,331.32z M362.7,345.06c-0.13-0.04-0.26-0.08-0.4-0.11c-2.72-0.47-5.44-0.57-8.18-0.24
	c-6.32,0.77-11.82,3.34-16.24,7.9c-7.16,7.38-9.59,16.22-7.23,26.22c1.56,6.61,5.3,11.86,10.85,15.81
	c4.54,3.22,9.61,4.91,15.16,5.02c7.8,0.15,14.6-2.47,20.12-7.99c6.35-6.35,9.01-14.11,7.94-23.02c-0.91-7.57-4.54-13.71-10.53-18.41
	c-2.97-2.33-6.3-3.95-9.98-4.85C363.72,345.21,363.22,345.1,362.7,345.06z"/>
<path class="st8" d="M316.59,386.76c1.11-0.53,2.29-0.89,3.44-1.32c2.54-0.96,5.1-1.89,7.64-2.85c0.38-0.14,0.49-0.04,0.62,0.3
	c1.22,3.27,2.92,6.25,5.16,8.93c0.29,0.35,0.27,0.53-0.08,0.81c-2.76,2.25-5.5,4.51-8.24,6.78c-0.29,0.24-0.54,0.52-0.87,0.71
	c-1.05-1.17-1.95-2.45-2.85-3.74c-0.9-1.31-1.75-2.65-2.46-4.07C318.05,390.51,317.16,388.7,316.59,386.76z"/>
<path class="st9" d="M400.06,379.9c-0.9-0.29-1.84-0.36-2.76-0.53c-2.24-0.4-4.48-0.77-6.72-1.15c-0.72-0.12-1.45-0.26-2.18-0.35
	c-0.43-0.05-0.51-0.24-0.44-0.64c0.36-2.1,0.49-4.21,0.4-6.34c-0.05-1.3-0.15-2.6-0.4-3.87c-0.09-0.45,0-0.62,0.47-0.7
	c2.48-0.4,4.96-0.83,7.43-1.24c1.23-0.21,2.46-0.42,3.69-0.62c0.17-0.03,0.34-0.04,0.47-0.18c0.41,1.85,0.58,3.74,0.68,5.63
	C400.88,373.26,400.65,376.59,400.06,379.9z"/>
<path class="st9" d="M385.33,339.06c-1.05,1.28-2.09,2.57-3.14,3.85c-1.42,1.73-2.87,3.44-4.28,5.18c-0.27,0.33-0.44,0.4-0.81,0.1
	c-2.69-2.25-5.69-3.96-8.97-5.18c-0.34-0.12-0.41-0.24-0.28-0.59c1.39-3.71,2.77-7.42,4.16-11.14c2.16,0.72,4.21,1.67,6.21,2.75
	c2.38,1.29,4.59,2.82,6.68,4.54C385.06,338.71,385.25,338.84,385.33,339.06z"/>
<path class="st8" d="M324.31,344.04c1.38,1.15,2.75,2.31,4.13,3.46c1.67,1.39,3.35,2.78,5.03,4.15c0.27,0.22,0.26,0.37,0.05,0.62
	c-2.28,2.73-4.03,5.77-5.26,9.11c-0.11,0.3-0.27,0.35-0.55,0.24c-2.24-0.85-4.48-1.69-6.72-2.53c-1.47-0.55-2.95-1.09-4.42-1.64
	c0.52-1.74,1.3-3.38,2.11-5C320.21,349.43,322.09,346.62,324.31,344.04z"/>
<path class="st8" d="M365.08,329.44c-0.31,1.87-0.62,3.75-0.93,5.62c-0.32,1.94-0.65,3.88-0.97,5.82c-0.12,0.73-0.11,0.72-0.84,0.6
	c-3.32-0.52-6.65-0.53-9.97,0.01c-0.66,0.11-0.68,0.12-0.79-0.54c-0.59-3.51-1.17-7.02-1.76-10.52c-0.06-0.34-0.13-0.67-0.19-1.01
	c1.84-0.35,3.7-0.52,5.58-0.63c3.13-0.19,6.23,0.03,9.32,0.53C364.72,329.35,364.9,329.4,365.08,329.44z"/>
<path class="st8" d="M390.43,400.06c-1.27-1.04-2.55-2.07-3.81-3.11c-1.76-1.45-3.5-2.91-5.26-4.34c-0.34-0.28-0.34-0.45-0.07-0.77
	c2.23-2.68,3.96-5.65,5.15-8.92c0.14-0.38,0.28-0.47,0.7-0.31c3.58,1.35,7.17,2.67,10.76,4.01c0.09,0.04,0.18,0.1,0.27,0.14
	c-0.32,1.21-0.85,2.34-1.37,3.47c-1.56,3.42-3.56,6.57-5.94,9.48C390.74,399.85,390.62,400,390.43,400.06z"/>
<path class="st8" d="M398.17,357.45c-2.11,0.79-4.22,1.59-6.34,2.38c-1.57,0.59-3.15,1.16-4.71,1.76c-0.39,0.15-0.54,0.06-0.68-0.31
	c-1.21-3.29-2.95-6.28-5.19-8.97c-0.25-0.3-0.24-0.45,0.06-0.69c3.04-2.5,6.07-5.01,9.11-7.52c0.89,0.81,1.55,1.8,2.24,2.77
	c2.26,3.13,4.04,6.52,5.39,10.14C398.11,357.15,398.13,357.3,398.17,357.45z"/>
<path class="st9" d="M329.36,405.16c2.52-3.04,5.03-6.09,7.54-9.14c0.22-0.27,0.37-0.3,0.65-0.06c2.72,2.26,5.73,4.02,9.06,5.23
	c0.29,0.11,0.41,0.24,0.28,0.57c-1.38,3.68-2.75,7.36-4.12,11.04c-0.01,0.03-0.04,0.06-0.06,0.09c-1.06-0.28-2.05-0.74-3.05-1.18
	c-2.52-1.09-4.9-2.46-7.14-4.05C331.43,406.89,330.31,406.13,329.36,405.16z"/>
<path class="st9" d="M314.62,364.41c0.14-0.05,0.28-0.02,0.42,0.03c0,0-0.02-0.01-0.02-0.01c2.56,0.43,5.12,0.85,7.69,1.28
	c1.23,0.21,2.46,0.43,3.69,0.62c0.39,0.06,0.46,0.23,0.4,0.58c-0.59,3.45-0.59,6.91,0,10.36c0.06,0.36-0.02,0.52-0.41,0.59
	c-3.39,0.56-6.77,1.14-10.16,1.7c-0.51,0.08-1.01,0.16-1.52,0.24c-0.35-1.74-0.55-3.5-0.65-5.28c-0.11-1.96-0.07-3.92,0.07-5.88
	c0.09-1.22,0.23-2.42,0.43-3.62C314.59,364.82,314.6,364.62,314.62,364.41z"/>
<path class="st9" d="M372.03,412.88c-0.6-1.34-1.05-2.74-1.57-4.11c-0.88-2.33-1.73-4.68-2.61-7.01c-0.13-0.34-0.04-0.45,0.25-0.56
	c3.34-1.22,6.37-2.98,9.1-5.25c0.25-0.21,0.4-0.22,0.62,0.05c1.97,2.4,3.96,4.8,5.94,7.2c0.53,0.64,1.05,1.3,1.58,1.95
	c-0.47,0.62-1.13,1.03-1.74,1.49c-3.38,2.6-7.08,4.62-11.08,6.11C372.37,412.81,372.2,412.84,372.03,412.88z"/>
<path class="st8" d="M349.61,414.76c0.51-3,1.03-5.99,1.54-8.99c0.16-0.93,0.33-1.85,0.48-2.78c0.05-0.3,0.15-0.39,0.47-0.34
	c3.49,0.61,6.98,0.59,10.46,0.02c0.38-0.06,0.5,0.04,0.56,0.41c0.62,3.72,1.27,7.44,1.9,11.17c0.03,0.15,0.02,0.31,0.03,0.46
	c-0.89,0.31-1.84,0.35-2.76,0.48c-1.57,0.22-3.17,0.29-4.75,0.29c-2.51-0.01-5.01-0.15-7.48-0.65
	C349.92,414.81,349.77,414.79,349.61,414.76z"/>
<path class="st9" d="M342.72,331.32c0.5,1.32,1.01,2.65,1.51,3.97c0.88,2.35,1.74,4.71,2.63,7.06c0.14,0.38,0.08,0.53-0.31,0.67
	c-3.25,1.2-6.22,2.91-8.88,5.13c-0.37,0.31-0.55,0.27-0.85-0.09c-2.3-2.8-4.62-5.59-6.93-8.38c-0.18-0.22-0.39-0.43-0.58-0.65
	c0.93-0.96,2.01-1.73,3.1-2.48c2.24-1.53,4.58-2.93,7.06-4.04C340.53,332.05,341.59,331.58,342.72,331.32z"/>
<path class="st13" d="M364.21,345.39c3.68,0.9,7.01,2.52,9.98,4.85c6,4.7,9.63,10.84,10.53,18.41c1.06,8.9-1.6,16.67-7.94,23.02
	c-5.52,5.53-12.32,8.15-20.12,7.99c-5.55-0.11-10.62-1.8-15.16-5.02c-5.55-3.94-9.29-9.19-10.85-15.81
	c-2.36-10,0.07-18.84,7.23-26.22c4.42-4.56,9.92-7.13,16.24-7.9c2.74-0.33,5.46-0.23,8.18,0.24c0.13,0.02,0.26,0.07,0.4,0.11
	C363.16,345.06,363.72,345.24,364.21,345.39z M357.35,354.07c-9.97,0.02-18.01,8.07-18.01,18.04c0,9.99,8.09,18.04,18.13,18.03
	c9.92-0.01,17.95-8.14,17.94-18.17C375.4,362.11,367.27,354.05,357.35,354.07z"/>
<path class="st12" d="M357.35,354.07c9.92-0.02,18.05,8.04,18.06,17.89c0.01,10.03-8.02,18.16-17.94,18.17
	c-10.04,0.01-18.13-8.03-18.13-18.03C339.34,362.14,347.38,354.09,357.35,354.07z M350.03,382.22c0.02,0.52,0.33,1.05,0.95,1.35
	c0.62,0.31,1.24,0.24,1.79-0.18c0.57-0.44,0.77-1.04,0.62-1.73c-0.06-0.26-0.07-0.48,0.07-0.73c1.02-1.78,2.03-3.57,3.04-5.36
	c0.14-0.25,0.28-0.38,0.6-0.35c0.8,0.08,1.53-0.13,2.17-0.62c0.19-0.15,0.33-0.15,0.54-0.03c1.83,1.05,3.66,2.08,5.49,3.11
	c0.19,0.11,0.31,0.22,0.37,0.45c0.28,0.98,1.15,1.48,2.1,1.23c0.89-0.24,1.42-1.12,1.21-2.02c-0.22-0.95-1.08-1.49-2.07-1.27
	c-0.25,0.05-0.44,0.07-0.68-0.07c-1.8-1.03-3.6-2.05-5.4-3.06c-0.27-0.15-0.34-0.32-0.31-0.62c0.07-0.76-0.12-1.47-0.59-2.08
	c-0.19-0.25-0.17-0.42-0.03-0.67c1.03-1.79,2.05-3.6,3.07-5.4c0.12-0.21,0.26-0.32,0.49-0.39c0.98-0.31,1.46-1.19,1.19-2.12
	c-0.25-0.88-1.18-1.41-2.05-1.18c-0.93,0.24-1.46,1.13-1.22,2.11c0.06,0.26,0.03,0.45-0.1,0.67c-1.02,1.78-2.03,3.57-3.03,5.36
	c-0.14,0.25-0.29,0.37-0.6,0.34c-0.78-0.09-1.5,0.12-2.12,0.59c-0.21,0.16-0.36,0.17-0.59,0.04c-1.8-1.03-3.6-2.04-5.41-3.06
	c-0.23-0.13-0.38-0.29-0.46-0.56c-0.28-0.93-1.21-1.43-2.1-1.16c-0.89,0.26-1.42,1.17-1.19,2.05c0.24,0.94,1.13,1.48,2.1,1.24
	c0.26-0.06,0.45-0.03,0.68,0.09c1.78,1.02,3.57,2.03,5.36,3.03c0.28,0.16,0.37,0.34,0.34,0.65c-0.07,0.74,0.11,1.44,0.56,2.03
	c0.2,0.27,0.19,0.45,0.03,0.72c-1.02,1.76-2.02,3.54-3.01,5.31c-0.14,0.26-0.31,0.39-0.61,0.48
	C350.49,380.63,350.03,381.3,350.03,382.22z"/>
<path class="st14" d="M350.03,382.22c0-0.92,0.46-1.59,1.18-1.79c0.29-0.08,0.47-0.22,0.61-0.48c1-1.78,2-3.55,3.01-5.31
	c0.16-0.27,0.17-0.46-0.03-0.72c-0.45-0.59-0.64-1.29-0.56-2.03c0.03-0.32-0.06-0.49-0.34-0.65c-1.79-1-3.58-2.01-5.36-3.03
	c-0.22-0.13-0.42-0.16-0.68-0.09c-0.97,0.24-1.86-0.3-2.1-1.24c-0.22-0.88,0.31-1.79,1.19-2.05c0.89-0.26,1.82,0.23,2.1,1.16
	c0.08,0.28,0.23,0.43,0.46,0.56c1.81,1.01,3.61,2.03,5.41,3.06c0.23,0.13,0.38,0.12,0.59-0.04c0.63-0.47,1.34-0.68,2.12-0.59
	c0.31,0.03,0.46-0.08,0.6-0.34c1-1.79,2.02-3.58,3.03-5.36c0.12-0.22,0.16-0.41,0.1-0.67c-0.24-0.98,0.3-1.87,1.22-2.11
	c0.88-0.23,1.8,0.3,2.05,1.18c0.27,0.94-0.21,1.82-1.19,2.12c-0.23,0.07-0.38,0.18-0.49,0.39c-1.01,1.81-2.03,3.61-3.07,5.4
	c-0.15,0.25-0.16,0.43,0.03,0.67c0.47,0.61,0.66,1.31,0.59,2.08c-0.03,0.29,0.05,0.47,0.31,0.62c1.81,1.01,3.61,2.03,5.4,3.06
	c0.23,0.13,0.43,0.12,0.68,0.07c0.99-0.22,1.85,0.32,2.07,1.27c0.21,0.9-0.32,1.79-1.21,2.02c-0.94,0.25-1.82-0.25-2.1-1.23
	c-0.06-0.23-0.18-0.34-0.37-0.45c-1.83-1.03-3.67-2.07-5.49-3.11c-0.21-0.12-0.35-0.12-0.54,0.03c-0.64,0.49-1.37,0.7-2.17,0.62
	c-0.32-0.03-0.46,0.09-0.6,0.35c-1,1.79-2.02,3.58-3.04,5.36c-0.14,0.25-0.13,0.46-0.07,0.73c0.15,0.69-0.05,1.3-0.62,1.73
	c-0.55,0.42-1.17,0.48-1.79,0.18C350.36,383.27,350.05,382.74,350.03,382.22z"/>
<g>
	<path class="st2" d="M183.37,204.04c-0.17,1.58-0.29,3.17-0.51,4.75c-0.89,6.43-2.82,12.53-5.79,18.31
		c-2.73,5.3-6.22,10.04-10.42,14.25c-3.39,3.39-7.16,6.31-11.31,8.75c-5.02,2.95-10.35,5.12-16.03,6.4
		c-9.86,2.22-19.66,1.98-29.36-0.92c-4.54-1.36-8.83-3.28-12.9-5.71c-4.06-2.42-7.76-5.31-11.07-8.66
		c-6.28-6.33-10.87-13.72-13.69-22.2c-0.93-2.79-1.62-5.63-2.12-8.53c-0.03-0.19-0.02-0.39-0.19-0.52c-0.02-0.02-0.05-0.02-0.07,0
		c0.1-0.1,0.08-0.19-0.04-0.25c0,0-0.02-0.05-0.01-0.05c0.12-0.11,0.11-0.21-0.02-0.3c0.09-0.91-0.1-1.81-0.19-2.71
		c-0.87-9.02,0.3-17.77,3.54-26.23c1.68-4.38,3.91-8.47,6.61-12.32c2.29-3.25,4.87-6.23,7.78-8.92
		c7.57-6.98,16.37-11.64,26.43-13.86c9.78-2.16,19.46-1.76,29.04,1.12c1.93,0.58,3.81,1.32,5.69,2.05c0.1,0.02,0.19,0.05,0.29,0.07
		c1.02,0.51,2.05,1.02,3.07,1.53c2.33,1.16,4.55,2.49,6.68,3.97c2.38,1.65,4.65,3.44,6.74,5.45c5.52,5.28,9.88,11.37,12.98,18.36
		c3.38,7.62,4.91,15.62,4.92,23.93c0,0.21-0.06,0.42,0.06,0.62c-0.13,0.17-0.18,0.33,0.02,0.49c0,0,0.01,0.05,0.01,0.05
		c-0.1,0.08-0.12,0.17,0,0.26c0,0-0.03-0.03-0.03-0.03c-0.18,0.17-0.21,0.34-0.02,0.53C183.38,203.8,183.34,203.91,183.37,204.04z
		 M154.4,154.94c-1.97-1.27-4.05-2.33-6.19-3.28c-0.58-0.26-1.14-0.6-1.79-0.67c-1.27-0.69-2.64-1.13-4.01-1.56
		c-3.23-1.02-6.54-1.65-9.89-2.07c-1.63-0.21-3.27-0.37-4.93-0.25c-2.94-0.11-5.86,0.06-8.77,0.52c-4.19,0.57-8.25,1.63-12.18,3.18
		c-2.09,0.83-4.16,1.71-6.09,2.9c-0.74,0.27-1.39,0.73-2.07,1.12c-1.92,1.11-3.66,2.46-5.47,3.73c-0.19,0.17-0.37,0.35-0.56,0.51
		c-1.18,0.95-2.3,1.96-3.38,3.01c-1.75,1.71-3.4,3.5-4.92,5.41c-1.37,1.73-2.64,3.53-3.75,5.44c-1.02,1.47-1.83,3.06-2.6,4.67
		c-0.52,1.09-1.09,2.16-1.39,3.34c-1.07,2.27-1.74,4.69-2.38,7.1c-0.51,1.9-0.83,3.85-1.07,5.81c-0.24,1.93-0.46,3.87-0.44,5.82
		c-0.08,2.01,0,4.02,0.19,6.02c0.09,0.96,0.14,1.93,0.4,2.87c0.07,1.68,0.49,3.31,0.87,4.94c0.77,3.32,1.85,6.55,3.3,9.65
		c0.57,1.23,1.11,2.48,1.87,3.61c0.08,0.17,0.14,0.35,0.23,0.52c1.34,2.44,2.87,4.75,4.63,6.9c0.12,0.15,0.25,0.29,0.36,0.44
		c1.88,2.5,4.09,4.7,6.41,6.78c1.47,1.31,3.01,2.55,4.65,3.65c0.96,0.65,1.88,1.38,2.96,1.83c1.09,0.89,2.36,1.48,3.6,2.11
		c1.42,0.73,2.85,1.48,4.4,1.93c0.19,0.1,0.37,0.21,0.56,0.29c4.94,1.91,10.05,3.09,15.33,3.45c0.94,0.07,1.89,0.24,2.84,0.05
		c0.16,0.13,0.36,0.11,0.55,0.11c2.65,0.06,5.29-0.11,7.92-0.45c0.17-0.02,0.34-0.03,0.45-0.19c0.23,0.1,0.46,0.06,0.69,0.02
		c4.61-0.74,9.07-2.01,13.34-3.9c1.41-0.63,2.84-1.24,4.13-2.1c0.19-0.08,0.39-0.15,0.57-0.25c2.41-1.32,4.68-2.87,6.84-4.56
		c3.28-2.58,6.24-5.49,8.84-8.76c1.46-1.84,2.86-3.73,4.01-5.79c0.87-1.28,1.58-2.64,2.26-4.03c0.61-1.25,1.26-2.48,1.65-3.83
		c0.09-0.17,0.19-0.33,0.26-0.51c1.73-4.47,2.87-9.09,3.36-13.86c0.15-1.47,0.36-2.94,0.2-4.42c0.03-0.21,0.08-0.42,0.09-0.62
		c0.05-2.59-0.11-5.17-0.46-7.74c-0.03-0.19-0.02-0.39-0.19-0.52c0.11-0.27,0.03-0.54-0.01-0.81c-0.51-3.32-1.31-6.57-2.46-9.73
		c-0.96-2.65-2.08-5.23-3.5-7.68c-0.24-0.61-0.6-1.16-0.94-1.72c-1.2-1.99-2.46-3.94-3.98-5.7c-0.13-0.19-0.26-0.39-0.41-0.57
		c-2.46-3.01-5.15-5.77-8.22-8.18C158.26,157.51,156.39,156.14,154.4,154.94z"/>
	<path class="st12" d="M146.41,151c0.66,0.06,1.21,0.41,1.79,0.67c2.14,0.94,4.22,2.01,6.19,3.28c-0.22,0.36-0.43,0.73-0.66,1.09
		c-2.35,3.74-4.7,7.48-7.04,11.23c-0.44,0.7-0.42,0.7,0.29,1.15c3.53,2.24,6.61,4.99,9.27,8.22c0.58,0.71,0.57,0.71,1.28,0.13
		c1.9-1.54,3.8-3.07,5.7-4.6c1.83-1.48,3.66-2.97,5.5-4.46c1.52,1.76,2.78,3.71,3.98,5.7c0.34,0.56,0.7,1.11,0.94,1.72
		c-4.35,2.31-8.69,4.63-13.05,6.92c-0.41,0.21-0.43,0.38-0.22,0.78c2.05,3.84,3.42,7.9,4.06,12.21c0.09,0.59,0.3,0.66,0.83,0.58
		c2.75-0.45,5.5-0.85,8.25-1.28c2.03-0.32,4.06-0.65,6.09-0.98c0.17,0.14,0.17,0.34,0.19,0.52c0.35,2.57,0.52,5.14,0.46,7.74
		c0,0.21-0.06,0.42-0.09,0.62c-4.89-0.17-9.78-0.34-14.66-0.53c-0.47-0.02-0.61,0.11-0.62,0.59c-0.14,4.35-0.98,8.56-2.58,12.62
		c-0.18,0.46-0.11,0.67,0.38,0.85c1.95,0.73,3.89,1.5,5.83,2.25c2.62,1.01,5.23,2.01,7.85,3.01c-0.38,1.35-1.04,2.58-1.65,3.83
		c-0.68,1.38-1.39,2.75-2.26,4.03c-0.23,0.03-0.4-0.11-0.58-0.22c-1.31-0.82-2.63-1.64-3.94-2.47c-2.65-1.66-5.3-3.3-7.93-4.97
		c-0.5-0.32-0.72-0.23-1.01,0.27c-0.82,1.39-1.8,2.68-2.82,3.93c-1.67,2.05-3.54,3.9-5.6,5.55c-0.39,0.32-0.48,0.55-0.12,0.96
		c0.6,0.69,1.16,1.41,1.73,2.12c1.77,2.2,3.55,4.4,5.29,6.61c0.72,0.91,1.53,1.76,2.13,2.77c-2.17,1.69-4.43,3.24-6.84,4.56
		c-0.18,0.1-0.38,0.17-0.57,0.25c-0.04-0.12-0.07-0.25-0.13-0.36c-2.23-4.2-4.48-8.39-6.69-12.6c-0.26-0.49-0.46-0.53-0.91-0.29
		c-3.81,2.06-7.87,3.39-12.15,4.04c-0.51,0.08-0.66,0.24-0.57,0.77c0.46,2.79,0.87,5.58,1.31,8.37c0.32,2.01,0.65,4.02,0.98,6.03
		c-0.11,0.15-0.29,0.17-0.45,0.19c-2.63,0.34-5.27,0.51-7.92,0.45c-0.19,0-0.38,0.01-0.55-0.11c0.05-1.04,0.11-2.08,0.15-3.11
		c0.14-3.86,0.27-7.73,0.41-11.59c0.02-0.43-0.12-0.54-0.53-0.56c-4.41-0.14-8.68-1-12.79-2.63c-0.36-0.14-0.54-0.1-0.69,0.31
		c-1.1,2.9-2.25,5.77-3.35,8.67c-0.65,1.7-1.38,3.37-1.93,5.12c-1.55-0.45-2.97-1.2-4.4-1.93c-1.24-0.64-2.51-1.22-3.59-2.11
		c0.12-0.15,0.25-0.29,0.35-0.45c2.48-3.98,4.95-7.97,7.45-11.94c0.25-0.4,0.22-0.59-0.19-0.85c-3.71-2.35-6.96-5.21-9.7-8.65
		c-0.25-0.32-0.42-0.31-0.71-0.07c-0.9,0.74-1.82,1.46-2.73,2.19c-2.95,2.36-5.9,4.72-8.85,7.08c-1.76-2.16-3.29-4.47-4.63-6.9
		c-0.09-0.17-0.15-0.35-0.23-0.52c0.04-0.01,0.09-0.01,0.12-0.03c4.31-2.29,8.62-4.58,12.94-6.86c0.39-0.2,0.39-0.42,0.21-0.76
		c-2.08-3.87-3.44-7.99-4.1-12.33c-0.07-0.45-0.23-0.55-0.66-0.48c-4.85,0.76-9.7,1.51-14.55,2.27c-0.26-0.94-0.31-1.91-0.4-2.87
		c-0.19-2-0.27-4.01-0.19-6.02c0.46,0.1,0.93,0.04,1.39,0.06c4.42,0.16,8.83,0.32,13.25,0.5c0.56,0.02,0.72-0.12,0.74-0.69
		c0.13-4.33,1.01-8.51,2.57-12.55c0.17-0.43,0.15-0.61-0.32-0.79c-3.16-1.2-6.3-2.45-9.45-3.65c-1.43-0.54-2.82-1.19-4.29-1.61
		c0.3-1.18,0.87-2.25,1.39-3.34c0.77-1.61,1.57-3.2,2.6-4.67c0.54,0.34,1.07,0.69,1.61,1.03c3.62,2.26,7.24,4.52,10.85,6.8
		c0.41,0.26,0.62,0.17,0.86-0.21c2.3-3.69,5.15-6.9,8.54-9.62c0.35-0.28,0.42-0.5,0.11-0.87c-0.99-1.19-1.95-2.41-2.92-3.62
		c-2.03-2.51-4.05-5.02-6.08-7.53l0.01,0.02c-0.08-0.16-0.19-0.3-0.36-0.37c1.81-1.27,3.55-2.63,5.47-3.73
		c0.68-0.39,1.32-0.85,2.07-1.12c0.92,1.72,1.85,3.44,2.76,5.17c1.39,2.63,2.78,5.26,4.16,7.89c0.17,0.33,0.35,0.42,0.71,0.23
		c3.89-2.09,8.03-3.47,12.4-4.13c0.4-0.06,0.53-0.2,0.47-0.62c-0.43-2.67-0.84-5.34-1.25-8.01c-0.34-2.21-0.66-4.41-0.98-6.62
		c2.91-0.46,5.83-0.63,8.77-0.52c0,0.36,0.02,0.72,0.01,1.08c-0.15,4.5-0.3,9-0.47,13.5c-0.02,0.57,0.12,0.76,0.71,0.78
		c4.31,0.14,8.47,1,12.48,2.56c0.48,0.19,0.66,0.1,0.84-0.37c1.11-2.92,2.26-5.82,3.38-8.73C145.17,154.29,145.79,152.64,146.41,151
		z M153.64,180.24c-0.09-0.14-0.18-0.29-0.28-0.43c-2.14-2.67-4.58-5.02-7.4-6.97c-6.51-4.5-13.74-6.65-21.61-6.06
		c-12.74,0.96-22.29,7.16-28.34,18.4c-4,7.43-4.86,15.4-2.95,23.64c1.56,6.74,4.88,12.49,9.94,17.16c7.12,6.58,15.6,9.75,25.29,9.17
		c11.13-0.67,20.01-5.68,26.36-14.83c5.4-7.78,7.09-16.48,5.4-25.79c-0.84-4.61-2.6-8.87-5.27-12.74
		C154.46,181.22,154.08,180.71,153.64,180.24z"/>
	<path class="st8" d="M76.4,180.95c1.47,0.42,2.86,1.06,4.29,1.61c3.15,1.21,6.29,2.45,9.45,3.65c0.47,0.18,0.49,0.36,0.32,0.79
		c-1.56,4.04-2.44,8.22-2.57,12.55c-0.02,0.57-0.18,0.71-0.74,0.69c-4.42-0.19-8.83-0.35-13.25-0.5c-0.47-0.02-0.93,0.04-1.39-0.06
		c-0.02-1.95,0.21-3.89,0.44-5.82c0.24-1.96,0.57-3.91,1.07-5.81C74.66,185.64,75.33,183.23,76.4,180.95z"/>
	<path class="st9" d="M159.61,243.42c-0.6-1.01-1.41-1.85-2.13-2.77c-1.75-2.22-3.53-4.41-5.29-6.61c-0.57-0.71-1.13-1.44-1.73-2.12
		c-0.36-0.41-0.27-0.64,0.12-0.96c2.06-1.65,3.93-3.51,5.6-5.55c1.02-1.25,2-2.54,2.82-3.93c0.29-0.5,0.51-0.58,1.01-0.27
		c2.63,1.68,5.29,3.32,7.93,4.97c1.31,0.82,2.63,1.64,3.94,2.47c0.18,0.11,0.35,0.25,0.58,0.22c-1.15,2.06-2.55,3.95-4.01,5.79
		C165.85,237.93,162.89,240.84,159.61,243.42z"/>
	<path class="st9" d="M179.61,193.33c-2.03,0.33-4.06,0.66-6.09,0.98c-2.75,0.43-5.5,0.84-8.25,1.28c-0.53,0.09-0.74,0.01-0.83-0.58
		c-0.64-4.3-2.01-8.37-4.06-12.21c-0.21-0.39-0.18-0.56,0.22-0.78c4.35-2.3,8.7-4.61,13.05-6.92c1.42,2.44,2.54,5.03,3.5,7.68
		c1.15,3.16,1.95,6.41,2.46,9.73C179.65,192.79,179.72,193.06,179.61,193.33z"/>
	<path class="st8" d="M118.81,147.63c0.33,2.21,0.65,4.42,0.98,6.62c0.41,2.67,0.82,5.34,1.25,8.01c0.07,0.42-0.06,0.56-0.47,0.62
		c-4.37,0.66-8.51,2.03-12.4,4.13c-0.35,0.19-0.53,0.1-0.71-0.23c-1.38-2.63-2.77-5.26-4.16-7.89c-0.91-1.73-1.84-3.45-2.76-5.17
		c1.92-1.19,3.99-2.07,6.09-2.9C110.56,149.26,114.62,148.2,118.81,147.63z"/>
	<path class="st8" d="M168.73,167.7c-1.83,1.49-3.66,2.97-5.5,4.46c-1.9,1.54-3.81,3.06-5.7,4.6c-0.71,0.58-0.69,0.58-1.28-0.13
		c-2.65-3.23-5.74-5.97-9.27-8.22c-0.71-0.45-0.73-0.45-0.29-1.15c2.34-3.75,4.7-7.49,7.04-11.23c0.23-0.36,0.44-0.73,0.66-1.09
		c2,1.2,3.87,2.57,5.7,4.01c3.07,2.4,5.76,5.17,8.22,8.18C168.47,167.31,168.6,167.51,168.73,167.7z"/>
	<path class="st8" d="M134.03,254.21c-0.33-2.01-0.66-4.02-0.98-6.03c-0.44-2.79-0.85-5.59-1.31-8.37c-0.09-0.54,0.05-0.7,0.57-0.77
		c4.28-0.64,8.34-1.98,12.15-4.04c0.45-0.24,0.65-0.2,0.91,0.29c2.21,4.21,4.46,8.4,6.69,12.6c0.06,0.11,0.09,0.24,0.13,0.36
		c-1.29,0.86-2.72,1.47-4.13,2.1c-4.27,1.9-8.73,3.17-13.34,3.9C134.49,254.27,134.26,254.31,134.03,254.21z"/>
	<path class="st8" d="M176.37,221.01c-2.62-1-5.24-2-7.85-3.01c-1.94-0.75-3.88-1.52-5.83-2.25c-0.48-0.18-0.56-0.39-0.38-0.85
		c1.6-4.05,2.44-8.27,2.58-12.62c0.02-0.48,0.15-0.61,0.62-0.59c4.89,0.19,9.78,0.35,14.66,0.53c0.16,1.48-0.05,2.95-0.2,4.42
		c-0.48,4.77-1.62,9.39-3.36,13.86C176.56,220.68,176.46,220.84,176.37,221.01z"/>
	<path class="st9" d="M73.1,208.58c4.85-0.75,9.7-1.5,14.55-2.27c0.42-0.07,0.59,0.03,0.66,0.48c0.66,4.34,2.01,8.46,4.1,12.33
		c0.18,0.34,0.18,0.56-0.21,0.76c-4.32,2.28-8.63,4.57-12.94,6.86c-0.04,0.02-0.08,0.02-0.12,0.03c-0.76-1.13-1.29-2.39-1.87-3.61
		c-1.44-3.1-2.53-6.33-3.3-9.65C73.59,211.9,73.17,210.27,73.1,208.58z"/>
	<path class="st9" d="M93.01,158.57c0.17,0.07,0.28,0.21,0.36,0.37c0,0-0.01-0.02-0.01-0.02c2.03,2.51,4.06,5.02,6.08,7.53
		c0.97,1.21,1.93,2.43,2.92,3.62c0.31,0.38,0.24,0.59-0.11,0.87c-3.39,2.72-6.24,5.93-8.54,9.62c-0.24,0.38-0.45,0.47-0.86,0.21
		c-3.61-2.28-7.23-4.53-10.85-6.8c-0.54-0.34-1.07-0.69-1.61-1.03c1.11-1.91,2.38-3.71,3.75-5.44c1.52-1.91,3.17-3.7,4.92-5.41
		c1.08-1.06,2.21-2.06,3.38-3.01C92.64,158.92,92.82,158.74,93.01,158.57z"/>
	<path class="st9" d="M106.37,250.95c0.55-1.74,1.28-3.41,1.93-5.12c1.1-2.9,2.25-5.77,3.35-8.67c0.16-0.42,0.33-0.46,0.69-0.31
		c4.11,1.62,8.38,2.48,12.79,2.63c0.41,0.01,0.55,0.13,0.53,0.56c-0.15,3.86-0.27,7.73-0.41,11.59c-0.04,1.04-0.1,2.08-0.15,3.11
		c-0.95,0.19-1.9,0.02-2.84-0.05c-5.28-0.37-10.39-1.54-15.33-3.45C106.74,251.16,106.56,251.05,106.37,250.95z"/>
	<path class="st8" d="M83.99,234.21c2.95-2.36,5.9-4.72,8.85-7.08c0.91-0.73,1.83-1.45,2.73-2.19c0.29-0.24,0.46-0.24,0.71,0.07
		c2.74,3.44,5.99,6.3,9.7,8.65c0.4,0.26,0.44,0.45,0.19,0.85c-2.49,3.97-4.96,7.96-7.45,11.94c-0.1,0.16-0.23,0.3-0.35,0.45
		c-1.09-0.45-2-1.19-2.96-1.83c-1.64-1.1-3.18-2.34-4.65-3.65c-2.32-2.07-4.53-4.28-6.41-6.78
		C84.24,234.5,84.11,234.36,83.99,234.21z"/>
	<path class="st9" d="M146.41,151c-0.62,1.64-1.24,3.29-1.88,4.93c-1.12,2.91-2.27,5.81-3.38,8.73c-0.18,0.47-0.36,0.56-0.84,0.37
		c-4.01-1.56-8.18-2.43-12.48-2.56c-0.59-0.02-0.74-0.2-0.71-0.78c0.17-4.5,0.32-9,0.47-13.5c0.01-0.36,0-0.72-0.01-1.08
		c1.65-0.12,3.29,0.04,4.93,0.25c3.35,0.43,6.66,1.06,9.89,2.07C143.77,149.87,145.14,150.31,146.41,151z"/>
	<path class="st13" d="M154.77,181.79c2.67,3.87,4.43,8.12,5.27,12.74c1.69,9.32,0.01,18.01-5.4,25.79
		c-6.35,9.15-15.23,14.17-26.36,14.83c-9.69,0.58-18.16-2.59-25.29-9.17c-5.06-4.68-8.38-10.43-9.94-17.16
		c-1.91-8.24-1.05-16.2,2.95-23.64c6.06-11.24,15.6-17.44,28.34-18.4c7.87-0.59,15.1,1.56,21.61,6.06c2.82,1.95,5.27,4.3,7.4,6.97
		c0.11,0.13,0.19,0.28,0.28,0.43C154.06,180.62,154.44,181.25,154.77,181.79z M141.23,184.2c-9.28-8.21-23.39-7.36-31.61,1.9
		c-8.24,9.29-7.36,23.43,1.97,31.7c9.23,8.17,23.39,7.24,31.66-2.09C151.37,206.56,150.46,192.36,141.23,184.2z"/>
	<path class="st14" d="M93.36,158.92c0,0,0.01,0.02,0.01,0.02C93.37,158.94,93.36,158.92,93.36,158.92z"/>
	<path class="st12" d="M141.23,184.2c9.23,8.16,10.14,22.36,2.02,31.52c-8.26,9.33-22.43,10.26-31.66,2.09
		c-9.34-8.27-10.22-22.41-1.97-31.7C117.85,176.84,131.96,175.99,141.23,184.2z M111.22,204.32c-0.41,0.5-0.56,1.24-0.23,2.04
		c0.33,0.8,0.95,1.25,1.81,1.31c0.89,0.07,1.57-0.33,2.01-1.1c0.17-0.29,0.33-0.5,0.66-0.62c2.42-0.81,4.83-1.64,7.24-2.47
		c0.34-0.12,0.57-0.12,0.84,0.17c0.67,0.73,1.53,1.14,2.53,1.21c0.3,0.02,0.43,0.13,0.53,0.42c0.83,2.48,1.68,4.95,2.53,7.42
		c0.09,0.25,0.1,0.46-0.03,0.72c-0.55,1.14-0.15,2.33,0.93,2.87c1.03,0.52,2.25,0.13,2.8-0.88c0.58-1.06,0.22-2.28-0.88-2.89
		c-0.27-0.15-0.47-0.31-0.57-0.62c-0.82-2.44-1.65-4.87-2.5-7.3c-0.12-0.36-0.05-0.58,0.22-0.83c0.69-0.65,1.1-1.46,1.17-2.41
		c0.03-0.39,0.19-0.53,0.53-0.65c2.44-0.82,4.87-1.65,7.3-2.49c0.28-0.1,0.51-0.08,0.78,0.04c1.16,0.52,2.33,0.1,2.86-0.99
		c0.49-1.03,0.07-2.28-0.93-2.79c-1.06-0.54-2.29-0.15-2.88,0.95c-0.16,0.3-0.35,0.44-0.65,0.54c-2.42,0.82-4.83,1.64-7.24,2.48
		c-0.34,0.12-0.57,0.1-0.83-0.18c-0.65-0.72-1.49-1.13-2.46-1.2c-0.33-0.03-0.47-0.14-0.58-0.45c-0.82-2.44-1.66-4.87-2.5-7.3
		c-0.11-0.32-0.11-0.58,0.04-0.9c0.51-1.1,0.05-2.32-0.99-2.81c-1.04-0.49-2.28-0.08-2.8,0.92c-0.55,1.07-0.16,2.31,0.93,2.88
		c0.29,0.15,0.45,0.34,0.55,0.64c0.82,2.42,1.64,4.83,2.48,7.24c0.13,0.38,0.07,0.62-0.22,0.88c-0.68,0.63-1.08,1.43-1.15,2.35
		c-0.03,0.41-0.19,0.57-0.57,0.7c-2.4,0.8-4.79,1.62-7.18,2.45c-0.34,0.12-0.62,0.11-0.96-0.06
		C112.95,203.21,111.97,203.46,111.22,204.32z"/>
	<path class="st14" d="M111.22,204.32c0.75-0.86,1.74-1.1,2.58-0.69c0.34,0.17,0.61,0.18,0.96,0.06c2.39-0.83,4.78-1.65,7.18-2.45
		c0.37-0.12,0.54-0.29,0.57-0.7c0.07-0.92,0.47-1.72,1.15-2.35c0.29-0.27,0.36-0.5,0.22-0.88c-0.84-2.41-1.66-4.82-2.48-7.24
		c-0.1-0.3-0.26-0.49-0.55-0.64c-1.1-0.58-1.48-1.82-0.93-2.88c0.52-1,1.76-1.41,2.8-0.92c1.05,0.49,1.5,1.71,0.99,2.81
		c-0.15,0.32-0.15,0.59-0.04,0.9c0.84,2.43,1.68,4.86,2.5,7.3c0.11,0.31,0.25,0.42,0.58,0.45c0.97,0.08,1.81,0.48,2.46,1.2
		c0.26,0.29,0.5,0.3,0.83,0.18c2.41-0.84,4.82-1.66,7.24-2.48c0.3-0.1,0.49-0.25,0.65-0.54c0.59-1.11,1.82-1.49,2.88-0.95
		c1,0.51,1.42,1.76,0.93,2.79c-0.52,1.09-1.7,1.51-2.86,0.99c-0.28-0.12-0.5-0.14-0.78-0.04c-2.43,0.84-4.86,1.67-7.3,2.49
		c-0.34,0.12-0.5,0.26-0.53,0.65c-0.07,0.95-0.47,1.76-1.17,2.41c-0.27,0.25-0.34,0.47-0.22,0.83c0.85,2.43,1.68,4.86,2.5,7.3
		c0.11,0.31,0.3,0.47,0.57,0.62c1.1,0.62,1.46,1.83,0.88,2.89c-0.55,1.01-1.77,1.39-2.8,0.88c-1.08-0.54-1.48-1.73-0.93-2.87
		c0.13-0.26,0.11-0.47,0.03-0.72c-0.85-2.47-1.7-4.94-2.53-7.42c-0.1-0.29-0.23-0.4-0.53-0.42c-1-0.07-1.85-0.48-2.53-1.21
		c-0.27-0.29-0.5-0.29-0.84-0.17c-2.41,0.84-4.82,1.66-7.24,2.47c-0.34,0.11-0.5,0.32-0.66,0.62c-0.43,0.77-1.12,1.16-2.01,1.1
		c-0.86-0.06-1.48-0.51-1.81-1.31C110.66,205.56,110.81,204.82,111.22,204.32z"/>
</g>
<path class="st2" d="M602.06,29.83c1.18,1.65,2.41,3.27,3.54,4.96c4.59,6.89,7.93,14.34,9.98,22.38c1.88,7.37,2.57,14.85,2.13,22.42
	c-0.36,6.11-1.49,12.09-3.38,17.92c-2.3,7.07-5.54,13.65-9.88,19.68c-7.53,10.46-17.08,18.54-28.79,23.99
	c-5.48,2.55-11.2,4.35-17.14,5.48c-5.93,1.13-11.9,1.5-17.9,1.12c-11.35-0.72-21.99-3.89-31.86-9.59c-3.25-1.88-6.32-4-9.25-6.34
	c-0.19-0.15-0.35-0.35-0.63-0.33c-0.04,0-0.06,0.02-0.06,0.06c0.01-0.19-0.08-0.24-0.25-0.21c0,0-0.06-0.04-0.06-0.04
	c0.02-0.2-0.07-0.29-0.28-0.27c-0.69-0.95-1.63-1.64-2.47-2.43c-8.47-7.87-14.77-17.2-18.84-28.02c-2.11-5.6-3.45-11.4-4.12-17.36
	c-0.57-5.04-0.63-10.07-0.13-15.1c1.31-13.07,5.76-24.97,13.48-35.61c7.5-10.34,17.08-18.16,28.66-23.53
	c2.34-1.09,4.75-1.97,7.17-2.86c0.11-0.06,0.22-0.12,0.34-0.18c1.41-0.38,2.82-0.76,4.23-1.14c3.2-0.86,6.45-1.47,9.74-1.86
	c3.67-0.44,7.35-0.65,11.05-0.52c9.73,0.36,19.05,2.48,27.93,6.52c9.68,4.41,17.92,10.74,24.96,18.66c0.18,0.2,0.31,0.45,0.59,0.54
	c0.01,0.27,0.11,0.47,0.43,0.45c0,0,0.05,0.04,0.05,0.04c-0.03,0.17,0.03,0.26,0.21,0.25c0,0-0.05,0-0.05,0
	c-0.03,0.31,0.09,0.5,0.42,0.52C601.86,29.59,601.91,29.73,602.06,29.83z M532.82,7.52c-2.95,0.46-5.84,1.21-8.68,2.12
	c-0.77,0.25-1.6,0.39-2.28,0.88c-1.8,0.42-3.48,1.16-5.15,1.91c-3.94,1.76-7.64,3.97-11.19,6.4c-1.73,1.18-3.44,2.42-4.91,3.93
	c-2.9,2.39-5.54,5.03-7.93,7.93c-3.52,4.09-6.49,8.54-8.93,13.36c-1.3,2.56-2.52,5.16-3.35,7.92c-0.48,0.89-0.7,1.87-1.02,2.82
	c-0.89,2.68-1.41,5.45-2.06,8.19c-0.03,0.32-0.05,0.65-0.1,0.97c-0.32,1.9-0.54,3.82-0.68,5.74c-0.22,3.11-0.28,6.21-0.11,9.33
	c0.15,2.81,0.47,5.6,1.03,8.37c0.27,2.27,0.85,4.47,1.48,6.65c0.42,1.48,0.79,2.98,1.5,4.36c0.9,3.08,2.31,5.95,3.74,8.79
	c1.13,2.25,2.47,4.38,3.9,6.45c1.41,2.05,2.84,4.08,4.51,5.93c1.63,1.99,3.41,3.84,5.29,5.59c0.9,0.84,1.77,1.73,2.81,2.4
	c1.49,1.55,3.28,2.74,5.01,3.97c3.55,2.52,7.32,4.68,11.32,6.41c1.59,0.69,3.16,1.43,4.84,1.87c0.22,0.1,0.43,0.22,0.66,0.3
	c3.34,1.19,6.76,2.1,10.26,2.67c0.24,0.04,0.48,0.06,0.72,0.11c3.91,0.79,7.89,1.02,11.86,1.03c2.51,0.01,5.03-0.11,7.53-0.45
	c1.47-0.2,2.96-0.28,4.38-0.76c1.79-0.07,3.5-0.59,5.22-1.03c1.98-0.51,3.97-1,5.83-1.88c0.26-0.07,0.53-0.11,0.78-0.2
	c6.33-2.36,12.2-5.57,17.56-9.69c0.96-0.74,2.01-1.38,2.75-2.37c0.26-0.02,0.44-0.2,0.62-0.36c2.58-2.19,4.96-4.59,7.17-7.14
	c0.14-0.16,0.3-0.32,0.27-0.56c0.3-0.09,0.49-0.33,0.68-0.56c3.77-4.61,6.95-9.6,9.42-15.02c0.82-1.79,1.66-3.58,2.16-5.5
	c0.11-0.24,0.24-0.48,0.33-0.73c1.18-3.3,2.03-6.69,2.67-10.14c0.95-5.24,1.3-10.53,1.02-15.85c-0.16-3-0.43-5.98-1.08-8.92
	c-0.25-1.96-0.73-3.86-1.25-5.76c-0.47-1.71-0.9-3.44-1.67-5.05c-0.06-0.23-0.1-0.48-0.19-0.7c-2.14-5.73-4.96-11.1-8.54-16.07
	c-1.1-1.53-2.14-3.11-3.56-4.39c-0.15-0.22-0.27-0.47-0.45-0.67c-2.14-2.52-4.48-4.84-6.99-6.99c-0.18-0.16-0.35-0.35-0.63-0.34
	c-0.13-0.35-0.43-0.55-0.7-0.77c-3.3-2.73-6.82-5.16-10.58-7.2c-3.16-1.71-6.42-3.23-9.84-4.36c-0.75-0.39-1.56-0.6-2.35-0.85
	c-2.83-0.89-5.68-1.67-8.62-2.07c-0.29-0.07-0.58-0.15-0.87-0.2c-4.9-0.79-9.81-1.14-14.78-0.84C538.69,6.7,535.74,6.97,532.82,7.52
	z"/>
<path class="st12" d="M521.86,10.52c0.68-0.5,1.5-0.64,2.28-0.88c2.84-0.91,5.73-1.66,8.68-2.12c0.1,0.53,0.21,1.06,0.3,1.6
	c0.93,5.56,1.85,11.12,2.79,16.68c0.17,1.04,0.19,1.02,1.25,0.85c5.27-0.85,10.53-0.84,15.8-0.01c1.16,0.18,1.14,0.2,1.33-0.96
	c0.51-3.08,1.03-6.15,1.55-9.22c0.49-2.97,0.98-5.94,1.47-8.91c2.95,0.39,5.8,1.18,8.62,2.07c0.79,0.25,1.6,0.46,2.35,0.85
	c-2.19,5.89-4.38,11.78-6.59,17.66c-0.21,0.55-0.09,0.73,0.45,0.93c5.2,1.92,9.96,4.64,14.22,8.2c0.58,0.49,0.85,0.37,1.28-0.15
	c2.24-2.75,4.53-5.47,6.78-8.21c1.67-2.03,3.32-4.07,4.98-6.1c0.27-0.01,0.44,0.18,0.63,0.34c2.51,2.15,4.85,4.47,6.99,6.99
	c0.17,0.2,0.3,0.44,0.45,0.67c-4.81,3.98-9.61,7.96-14.44,11.92c-0.47,0.38-0.49,0.62-0.09,1.1c3.55,4.27,6.32,9,8.23,14.22
	c0.21,0.59,0.46,0.73,1.08,0.49c2.48-0.96,4.98-1.86,7.46-2.79c3.35-1.25,6.7-2.52,10.04-3.78c0.78,1.61,1.2,3.34,1.67,5.05
	c0.53,1.89,1.01,3.8,1.25,5.76c-0.2,0.22-0.47,0.24-0.74,0.28c-1.95,0.33-3.9,0.66-5.85,0.99c-3.93,0.66-7.85,1.34-11.78,1.97
	c-0.75,0.12-0.88,0.39-0.74,1.11c0.4,2.02,0.55,4.08,0.64,6.14c0.14,3.37-0.07,6.72-0.64,10.04c-0.11,0.64,0.01,0.93,0.7,1.02
	c1.15,0.15,2.3,0.36,3.45,0.56c3.55,0.6,7.11,1.19,10.65,1.82c1.46,0.26,2.95,0.38,4.37,0.84c-0.63,3.45-1.48,6.84-2.67,10.14
	c-0.09,0.25-0.22,0.48-0.33,0.73c-0.14-0.08-0.28-0.17-0.43-0.23c-5.69-2.11-11.38-4.21-17.05-6.35c-0.66-0.25-0.89-0.12-1.11,0.49
	c-1.89,5.19-4.63,9.9-8.17,14.14c-0.42,0.51-0.43,0.78,0.11,1.22c2.8,2.27,5.56,4.59,8.34,6.88c2.01,1.65,4.03,3.29,6.04,4.93
	c0.02,0.24-0.13,0.4-0.27,0.56c-2.22,2.56-4.59,4.95-7.17,7.14c-0.18,0.16-0.36,0.34-0.62,0.36c-0.83-1.03-1.65-2.07-2.5-3.09
	c-3.14-3.8-6.29-7.6-9.42-11.41c-0.35-0.42-0.58-0.41-0.98-0.08c-4.33,3.6-9.13,6.39-14.43,8.33c-0.46,0.17-0.6,0.35-0.4,0.89
	c1.4,3.7,2.74,7.42,4.14,11.11c0.82,2.17,1.54,4.39,2.49,6.52c-1.86,0.88-3.85,1.38-5.83,1.88c-1.72,0.44-3.43,0.96-5.22,1.03
	c-0.02-0.24-0.01-0.49-0.05-0.73c-1-5.9-2.02-11.8-3.01-17.7c-0.1-0.6-0.29-0.75-0.9-0.65c-5.53,0.9-11.06,0.92-16.59-0.04
	c-0.51-0.09-0.67,0.06-0.74,0.53c-0.23,1.47-0.5,2.94-0.75,4.4c-0.82,4.75-1.63,9.5-2.44,14.25c-3.5-0.57-6.92-1.48-10.26-2.67
	c-0.23-0.08-0.44-0.2-0.66-0.3c0.03-0.05,0.07-0.09,0.09-0.14c2.18-5.84,4.35-11.67,6.53-17.51c0.2-0.52,0.02-0.73-0.45-0.9
	c-5.27-1.93-10.05-4.71-14.35-8.3c-0.45-0.37-0.69-0.32-1.04,0.1c-3.98,4.83-7.97,9.66-11.96,14.48c-1.05-0.67-1.91-1.56-2.81-2.4
	c-1.88-1.75-3.66-3.6-5.29-5.59c0.52-0.3,0.92-0.75,1.38-1.13c4.35-3.59,8.7-7.18,13.07-10.75c0.55-0.45,0.59-0.73,0.12-1.29
	c-3.54-4.24-6.25-8.98-8.18-14.15c-0.21-0.55-0.38-0.71-0.98-0.48c-4.03,1.53-8.08,3-12.11,4.52c-1.82,0.69-3.69,1.26-5.45,2.1
	c-0.71-1.38-1.08-2.89-1.5-4.36c-0.63-2.19-1.21-4.38-1.48-6.65c0.8-0.13,1.61-0.24,2.41-0.38c5.37-0.9,10.74-1.82,16.11-2.7
	c0.61-0.1,0.74-0.36,0.65-0.93c-0.93-5.47-0.93-10.95,0-16.42c0.1-0.57-0.02-0.83-0.64-0.92c-1.95-0.3-3.9-0.65-5.85-0.98
	c-4.06-0.68-8.12-1.36-12.18-2.03l0.03,0.02c-0.22-0.08-0.43-0.13-0.66-0.05c0.65-2.74,1.16-5.51,2.06-8.19
	c0.32-0.95,0.54-1.93,1.02-2.82c2.34,0.86,4.68,1.72,7.01,2.59c3.56,1.33,7.11,2.66,10.66,4c0.44,0.17,0.69,0.1,0.87-0.38
	c1.94-5.3,4.73-10.11,8.34-14.44c0.33-0.4,0.34-0.64-0.08-0.98c-2.67-2.18-5.32-4.38-7.97-6.58c-2.19-1.82-4.37-3.66-6.55-5.48
	c2.39-2.9,5.03-5.54,7.93-7.93c0.31,0.34,0.63,0.67,0.92,1.02c3.67,4.42,7.34,8.84,10.98,13.28c0.46,0.56,0.76,0.62,1.34,0.14
	c4.22-3.52,8.93-6.22,14.08-8.13c0.61-0.23,0.72-0.46,0.49-1.07c-1.41-3.72-2.78-7.46-4.17-11.19
	C523.47,14.72,522.66,12.62,521.86,10.52z M553.52,32.3c-0.21-0.06-0.42-0.13-0.63-0.17c-4.3-0.74-8.62-0.91-12.96-0.38
	c-10.02,1.22-18.74,5.3-25.75,12.52c-11.35,11.71-15.2,25.71-11.46,41.56c2.48,10.48,8.41,18.81,17.2,25.05
	c7.19,5.11,15.23,7.78,24.02,7.96c12.37,0.24,23.14-3.91,31.89-12.67c10.06-10.07,14.28-22.37,12.59-36.48
	c-1.44-12-7.19-21.72-16.7-29.18c-4.71-3.69-9.99-6.27-15.82-7.69C555.14,32.54,554.35,32.37,553.52,32.3z"/>
<path class="st8" d="M480.44,98.4c1.76-0.84,3.63-1.41,5.45-2.1c4.03-1.52,8.08-2.99,12.11-4.52c0.6-0.23,0.77-0.07,0.98,0.48
	c1.93,5.18,4.63,9.91,8.18,14.15c0.46,0.56,0.43,0.84-0.12,1.29c-4.37,3.56-8.72,7.15-13.07,10.75c-0.46,0.38-0.86,0.83-1.38,1.13
	c-1.67-1.85-3.1-3.88-4.51-5.93c-1.43-2.07-2.77-4.21-3.9-6.45C482.75,104.34,481.34,101.47,480.44,98.4z"/>
<path class="st9" d="M612.74,87.52c-1.42-0.45-2.91-0.58-4.37-0.84c-3.55-0.63-7.1-1.22-10.65-1.82c-1.15-0.2-2.29-0.41-3.45-0.56
	c-0.68-0.09-0.81-0.38-0.7-1.02c0.57-3.32,0.78-6.67,0.64-10.04c-0.08-2.06-0.24-4.12-0.64-6.14c-0.14-0.72-0.01-0.99,0.74-1.11
	c3.93-0.63,7.86-1.31,11.78-1.97c1.95-0.33,3.9-0.66,5.85-0.99c0.27-0.04,0.54-0.06,0.74-0.28c0.65,2.94,0.92,5.93,1.08,8.92
	C614.04,77,613.68,82.28,612.74,87.52z"/>
<path class="st9" d="M589.4,22.79c-1.66,2.03-3.31,4.07-4.98,6.1c-2.26,2.74-4.54,5.46-6.78,8.21c-0.43,0.53-0.7,0.64-1.28,0.15
	c-4.26-3.56-9.01-6.28-14.22-8.2c-0.53-0.2-0.65-0.38-0.45-0.93c2.21-5.88,4.39-11.77,6.59-17.66c3.42,1.13,6.68,2.65,9.84,4.36
	c3.77,2.04,7.28,4.47,10.58,7.2C588.97,22.25,589.27,22.44,589.4,22.79z"/>
<path class="st8" d="M492.68,30.69c2.18,1.83,4.36,3.66,6.55,5.48c2.65,2.2,5.3,4.4,7.97,6.58c0.42,0.34,0.41,0.58,0.08,0.98
	c-3.61,4.33-6.4,9.15-8.34,14.44c-0.18,0.48-0.42,0.55-0.87,0.38c-3.55-1.34-7.1-2.68-10.66-4c-2.33-0.87-4.67-1.73-7.01-2.59
	c0.83-2.76,2.05-5.36,3.35-7.92C486.18,39.23,489.16,34.78,492.68,30.69z"/>
<path class="st8" d="M557.3,7.55c-0.49,2.97-0.98,5.94-1.47,8.91c-0.51,3.07-1.04,6.15-1.55,9.22c-0.19,1.16-0.17,1.14-1.33,0.96
	c-5.27-0.83-10.53-0.84-15.8,0.01c-1.05,0.17-1.07,0.19-1.25-0.85c-0.94-5.56-1.86-11.12-2.79-16.68c-0.09-0.53-0.2-1.07-0.3-1.6
	c2.92-0.55,5.87-0.82,8.84-1.01c4.97-0.31,9.88,0.05,14.78,0.84C556.73,7.4,557.01,7.48,557.3,7.55z"/>
<path class="st8" d="M597.47,119.48c-2.01-1.64-4.04-3.28-6.04-4.93c-2.78-2.29-5.54-4.61-8.34-6.88c-0.54-0.44-0.54-0.71-0.11-1.22
	c3.54-4.24,6.28-8.95,8.17-14.14c0.22-0.61,0.45-0.74,1.11-0.49c5.67,2.14,11.37,4.24,17.05,6.35c0.15,0.06,0.28,0.15,0.43,0.23
	c-0.5,1.92-1.35,3.71-2.16,5.5c-2.47,5.43-5.65,10.41-9.42,15.02C597.96,119.15,597.78,119.39,597.47,119.48z"/>
<path class="st8" d="M609.75,51.94c-3.35,1.26-6.69,2.52-10.04,3.78c-2.49,0.93-4.99,1.83-7.46,2.79c-0.61,0.24-0.86,0.1-1.08-0.49
	c-1.91-5.22-4.68-9.95-8.23-14.22c-0.39-0.47-0.37-0.71,0.09-1.1c4.82-3.96,9.63-7.94,14.44-11.92c1.41,1.28,2.45,2.86,3.56,4.39
	c3.58,4.96,6.4,10.33,8.54,16.07C609.65,51.47,609.69,51.71,609.75,51.94z"/>
<path class="st9" d="M500.69,127.56c3.99-4.83,7.98-9.65,11.96-14.48c0.35-0.42,0.59-0.47,1.04-0.1c4.31,3.59,9.09,6.37,14.35,8.3
	c0.47,0.17,0.65,0.38,0.45,0.9c-2.19,5.83-4.36,11.67-6.53,17.51c-0.02,0.05-0.06,0.09-0.09,0.14c-1.69-0.44-3.25-1.18-4.84-1.87
	c-4-1.73-7.77-3.89-11.32-6.41C503.97,130.31,502.18,129.11,500.69,127.56z"/>
<path class="st9" d="M477.32,62.98c0.23-0.08,0.45-0.03,0.66,0.05c0,0-0.03-0.02-0.03-0.02c4.06,0.68,8.12,1.35,12.18,2.03
	c1.95,0.33,3.9,0.68,5.85,0.98c0.62,0.09,0.73,0.36,0.64,0.92c-0.93,5.47-0.93,10.95,0,16.42c0.1,0.56-0.03,0.83-0.65,0.93
	c-5.37,0.88-10.74,1.8-16.11,2.7c-0.8,0.13-1.61,0.25-2.41,0.38c-0.56-2.76-0.88-5.55-1.03-8.37c-0.17-3.11-0.11-6.22,0.11-9.33
	c0.14-1.93,0.36-3.84,0.68-5.74C477.27,63.63,477.29,63.3,477.32,62.98z"/>
<path class="st9" d="M568.32,139.81c-0.95-2.13-1.67-4.34-2.49-6.52c-1.4-3.7-2.74-7.42-4.14-11.11c-0.2-0.53-0.07-0.72,0.4-0.89
	c5.29-1.93,10.1-4.73,14.43-8.33c0.4-0.33,0.63-0.34,0.98,0.08c3.13,3.81,6.28,7.61,9.42,11.41c0.84,1.02,1.67,2.06,2.5,3.09
	c-0.74,0.99-1.8,1.63-2.75,2.37c-5.35,4.12-11.22,7.33-17.56,9.69C568.85,139.69,568.58,139.74,568.32,139.81z"/>
<path class="st8" d="M532.78,142.79c0.81-4.75,1.63-9.5,2.44-14.25c0.25-1.47,0.52-2.93,0.75-4.4c0.08-0.48,0.24-0.62,0.74-0.53
	c5.52,0.96,11.06,0.94,16.59,0.04c0.6-0.1,0.8,0.06,0.9,0.65c0.99,5.9,2.01,11.8,3.01,17.7c0.04,0.24,0.03,0.49,0.05,0.73
	c-1.42,0.49-2.91,0.56-4.38,0.76c-2.49,0.34-5.02,0.46-7.53,0.45c-3.97-0.01-7.94-0.24-11.86-1.03
	C533.27,142.85,533.02,142.83,532.78,142.79z"/>
<path class="st9" d="M521.86,10.52c0.8,2.1,1.6,4.19,2.39,6.3c1.39,3.73,2.76,7.47,4.17,11.19c0.23,0.6,0.12,0.84-0.49,1.07
	c-5.15,1.91-9.86,4.61-14.08,8.13c-0.58,0.49-0.88,0.43-1.34-0.14c-3.64-4.44-7.32-8.86-10.98-13.28c-0.29-0.35-0.61-0.68-0.92-1.02
	c1.47-1.52,3.18-2.75,4.91-3.93c3.56-2.43,7.25-4.64,11.19-6.4C518.38,11.68,520.06,10.94,521.86,10.52z"/>
<path class="st13" d="M555.92,32.83c5.83,1.42,11.11,4,15.82,7.69c9.51,7.46,15.26,17.18,16.7,29.18
	c1.69,14.11-2.53,26.42-12.59,36.48c-8.75,8.76-19.52,12.91-31.89,12.67c-8.79-0.17-16.83-2.85-24.02-7.96
	c-8.8-6.25-14.73-14.57-17.2-25.05c-3.74-15.86,0.11-29.86,11.46-41.56c7.01-7.23,15.73-11.3,25.75-12.52
	c4.34-0.53,8.66-0.36,12.96,0.38c0.21,0.04,0.42,0.11,0.63,0.17C554.25,32.31,555.14,32.58,555.92,32.83z M545.05,46.59
	c-15.8,0.03-28.55,12.79-28.54,28.59c0,15.84,12.82,28.59,28.73,28.57c15.73-0.01,28.45-12.91,28.44-28.8
	C573.65,59.33,560.76,46.56,545.05,46.59z"/>
<path class="st14" d="M477.96,63.02c0,0,0.03,0.02,0.03,0.02C477.98,63.03,477.96,63.02,477.96,63.02z"/>
<path class="st12" d="M545.05,46.59c15.72-0.03,28.61,12.74,28.63,28.36c0.02,15.9-12.71,28.79-28.44,28.8
	c-15.91,0.01-28.73-12.73-28.73-28.57C516.5,59.38,529.24,46.61,545.05,46.59z M533.44,91.2c0.03,0.83,0.52,1.66,1.51,2.14
	c0.99,0.49,1.96,0.39,2.84-0.28c0.91-0.69,1.22-1.65,0.99-2.75c-0.09-0.42-0.12-0.76,0.11-1.15c1.62-2.82,3.22-5.65,4.82-8.49
	c0.22-0.4,0.44-0.6,0.94-0.55c1.26,0.13,2.43-0.21,3.43-0.98c0.3-0.23,0.52-0.24,0.86-0.05c2.89,1.66,5.8,3.3,8.7,4.94
	c0.3,0.17,0.49,0.35,0.59,0.71c0.44,1.56,1.83,2.35,3.32,1.95c1.42-0.38,2.26-1.78,1.92-3.21c-0.35-1.5-1.72-2.36-3.29-2.02
	c-0.39,0.09-0.7,0.1-1.07-0.11c-2.85-1.63-5.7-3.25-8.57-4.85c-0.42-0.24-0.54-0.51-0.5-0.97c0.11-1.21-0.19-2.33-0.93-3.29
	c-0.3-0.39-0.28-0.67-0.04-1.07c1.63-2.85,3.25-5.7,4.86-8.56c0.19-0.33,0.42-0.51,0.78-0.62c1.55-0.48,2.31-1.88,1.89-3.36
	c-0.4-1.4-1.86-2.24-3.25-1.87c-1.47,0.39-2.31,1.79-1.94,3.35c0.1,0.42,0.04,0.72-0.16,1.06c-1.61,2.83-3.22,5.66-4.81,8.5
	c-0.22,0.4-0.46,0.59-0.95,0.53c-1.24-0.14-2.38,0.19-3.37,0.94c-0.33,0.25-0.57,0.27-0.93,0.06c-2.85-1.63-5.71-3.24-8.57-4.84
	c-0.37-0.21-0.6-0.46-0.73-0.89c-0.44-1.47-1.92-2.26-3.33-1.84c-1.41,0.42-2.25,1.86-1.89,3.25c0.38,1.48,1.8,2.34,3.33,1.96
	c0.41-0.1,0.72-0.05,1.07,0.15c2.83,1.61,5.65,3.22,8.5,4.81c0.45,0.25,0.59,0.53,0.54,1.03c-0.12,1.18,0.18,2.28,0.89,3.22
	c0.32,0.42,0.3,0.71,0.05,1.15c-1.61,2.8-3.2,5.61-4.78,8.42c-0.23,0.4-0.5,0.63-0.96,0.76C534.17,88.68,533.44,89.75,533.44,91.2z"
	/>
<path class="st14" d="M533.44,91.2c-0.01-1.46,0.72-2.52,1.87-2.84c0.47-0.13,0.74-0.35,0.96-0.76c1.58-2.81,3.17-5.62,4.78-8.42
	c0.25-0.44,0.27-0.73-0.05-1.15c-0.71-0.94-1.01-2.04-0.89-3.22c0.05-0.5-0.09-0.78-0.54-1.03c-2.84-1.58-5.67-3.19-8.5-4.81
	c-0.35-0.2-0.66-0.25-1.07-0.15c-1.53,0.38-2.95-0.48-3.33-1.96c-0.35-1.39,0.49-2.83,1.89-3.25c1.41-0.42,2.88,0.37,3.33,1.84
	c0.13,0.44,0.36,0.68,0.73,0.89c2.86,1.61,5.72,3.21,8.57,4.84c0.37,0.21,0.6,0.19,0.93-0.06c0.99-0.75,2.13-1.07,3.37-0.94
	c0.49,0.05,0.73-0.13,0.95-0.53c1.59-2.84,3.2-5.67,4.81-8.5c0.2-0.35,0.26-0.65,0.16-1.06c-0.37-1.56,0.47-2.96,1.94-3.35
	c1.39-0.36,2.85,0.48,3.25,1.87c0.43,1.48-0.34,2.88-1.89,3.36c-0.37,0.12-0.6,0.29-0.78,0.62c-1.61,2.86-3.22,5.72-4.86,8.56
	c-0.23,0.4-0.26,0.68,0.04,1.07c0.74,0.96,1.04,2.08,0.93,3.29c-0.04,0.47,0.07,0.74,0.5,0.97c2.86,1.6,5.72,3.22,8.57,4.85
	c0.37,0.21,0.68,0.19,1.07,0.11c1.57-0.34,2.94,0.51,3.29,2.02c0.33,1.43-0.51,2.83-1.92,3.21c-1.5,0.4-2.88-0.4-3.32-1.95
	c-0.1-0.36-0.29-0.55-0.59-0.71c-2.91-1.64-5.81-3.28-8.7-4.94c-0.34-0.19-0.55-0.19-0.86,0.05c-1.01,0.78-2.17,1.12-3.43,0.98
	c-0.5-0.05-0.72,0.15-0.94,0.55c-1.59,2.84-3.19,5.67-4.82,8.49c-0.23,0.39-0.2,0.73-0.11,1.15c0.24,1.1-0.08,2.06-0.99,2.75
	c-0.87,0.67-1.85,0.77-2.84,0.28C533.97,92.86,533.48,92.03,533.44,91.2z"/>
<path class="st10" d="M712.81,397.58L578.84,408.6c-12.54,1.03-23.54-8.3-24.58-20.84l-3.48-42.28
	c-1.03-12.54,8.3-23.54,20.84-24.58l133.98-11.02c12.54-1.03,23.54,8.3,24.58,20.84l3.48,42.28
	C734.69,385.55,725.35,396.55,712.81,397.58z"/>
<g>
	<path class="st1" d="M661.87,405.79l-31.43,2.59c-5.69,0.47-10.68-3.77-11.15-9.46l-0.4-4.8c-0.47-5.69,3.77-10.68,9.46-11.15
		l31.42-2.58c5.69-0.47,10.68,3.77,11.15,9.46l0.4,4.8C671.8,400.32,667.57,405.32,661.87,405.79z"/>
	<g>
		<path class="st2" d="M633.51,402.85c-0.93,0.08-1.76-0.04-2.49-0.33c-0.73-0.29-1.31-0.75-1.74-1.36s-0.68-1.36-0.76-2.24
			l-0.52-6.34c-0.07-0.89,0.05-1.67,0.38-2.34c0.33-0.67,0.82-1.21,1.49-1.62c0.67-0.41,1.47-0.65,2.4-0.73
			c0.95-0.08,1.77,0.04,2.49,0.33c0.72,0.29,1.29,0.75,1.73,1.35c0.44,0.61,0.69,1.36,0.77,2.24l-2.51,0.21
			c-0.06-0.69-0.28-1.2-0.68-1.53c-0.4-0.33-0.93-0.47-1.61-0.41c-0.68,0.06-1.19,0.28-1.53,0.67c-0.34,0.39-0.49,0.92-0.43,1.6
			l0.52,6.36c0.06,0.68,0.29,1.19,0.69,1.53c0.4,0.34,0.94,0.48,1.62,0.43c0.68-0.06,1.18-0.29,1.52-0.69
			c0.34-0.4,0.47-0.94,0.42-1.62l-0.12-1.48l-2.47,0.2l-0.18-2.15l4.98-0.41l0.3,3.63c0.07,0.88-0.05,1.65-0.39,2.33
			c-0.34,0.68-0.82,1.22-1.48,1.63S634.45,402.77,633.51,402.85z"/>
		<path class="st2" d="M645.39,401.87c-0.93,0.08-1.75-0.04-2.47-0.33c-0.72-0.29-1.28-0.75-1.7-1.37
			c-0.42-0.62-0.66-1.36-0.74-2.24l-0.52-6.34c-0.07-0.88,0.04-1.65,0.36-2.33c0.32-0.68,0.79-1.22,1.45-1.62
			c0.66-0.41,1.45-0.65,2.38-0.73c0.95-0.08,1.77,0.04,2.48,0.33c0.71,0.29,1.27,0.75,1.69,1.37c0.42,0.62,0.66,1.35,0.73,2.22
			l0.52,6.36c0.07,0.88-0.04,1.65-0.36,2.33c-0.32,0.68-0.79,1.22-1.44,1.62C647.13,401.55,646.32,401.8,645.39,401.87z
			 M645.21,399.68c0.68-0.06,1.17-0.28,1.49-0.67c0.32-0.4,0.45-0.93,0.39-1.61l-0.52-6.34c-0.06-0.69-0.27-1.2-0.65-1.53
			c-0.38-0.33-0.9-0.47-1.58-0.41c-0.68,0.06-1.17,0.28-1.49,0.66c-0.32,0.39-0.45,0.93-0.39,1.62l0.52,6.34
			c0.06,0.68,0.28,1.18,0.66,1.52C644.02,399.6,644.54,399.74,645.21,399.68z"/>
		<path class="st2" d="M652.89,401.06l-1.2-14.55l4.84-0.4c0.97-0.08,1.83,0.04,2.59,0.35c0.76,0.31,1.36,0.79,1.81,1.43
			c0.45,0.63,0.72,1.41,0.79,2.31c0.07,0.89-0.06,1.69-0.41,2.4c-0.35,0.71-0.87,1.29-1.55,1.71c-0.69,0.43-1.52,0.69-2.49,0.77
			l-2.35,0.19l0.46,5.58L652.89,401.06z M654.73,393.02l2.35-0.19c0.69-0.06,1.23-0.3,1.61-0.74s0.55-1,0.49-1.68
			c-0.06-0.69-0.31-1.22-0.76-1.58c-0.45-0.36-1.03-0.52-1.71-0.46l-2.35,0.19L654.73,393.02z"/>
	</g>
</g>
<path class="st5" d="M732.8,362.64l8.13-0.67c11.52-0.95,20.09-11.06,19.14-22.58l-2.46-29.86"/>
<circle class="st6" cx="757.62" cy="309.53" r="8.44"/>
<rect x="613.29" y="319.04" transform="matrix(0.9966 -0.082 0.082 0.9966 -27.289 53.8579)" class="st7" width="57.85" height="80.41"/>
<g>
	<path class="st8" d="M586.65,344.86l-8.67,0.71c-4.62,0.38-8.68-3.06-9.06-7.68l-0.71-8.67c-0.38-4.62,3.06-8.68,7.68-9.06
		l8.68-0.71c4.62-0.38,8.68,3.06,9.06,7.68l0.71,8.68C594.72,340.42,591.28,344.48,586.65,344.86z"/>
	<g>
		<path class="st2" d="M577.28,340.16l-1.2-14.55l4.6-0.38c0.97-0.08,1.83,0.03,2.57,0.33c0.74,0.3,1.34,0.75,1.79,1.37
			c0.45,0.62,0.71,1.36,0.79,2.23c0.08,0.96-0.09,1.82-0.52,2.59c-0.43,0.77-1.03,1.34-1.84,1.72l3.4,5.9l-2.79,0.23l-3.01-5.57
			l-1.77,0.15l0.48,5.78L577.28,340.16z M579.11,331.98l2.11-0.17c0.71-0.06,1.24-0.29,1.61-0.71c0.37-0.42,0.52-0.97,0.47-1.64
			c-0.06-0.69-0.3-1.22-0.73-1.58c-0.43-0.36-1-0.51-1.7-0.45l-2.11,0.17L579.11,331.98z"/>
	</g>
</g>
<g>
	<path class="st9" d="M713.35,338.64l-31.43,2.59c-5.69,0.47-10.68-3.77-11.15-9.46l-0.4-4.8c-0.47-5.69,3.77-10.68,9.46-11.15
		l31.42-2.58c5.69-0.47,10.68,3.77,11.15,9.46l0.4,4.8C723.27,333.18,719.04,338.17,713.35,338.64z"/>
	<g>
		<path class="st2" d="M680.55,335.87l-1.2-14.55l4.33-0.36c0.99-0.08,1.85,0.04,2.61,0.35c0.76,0.31,1.36,0.79,1.81,1.44
			c0.45,0.64,0.72,1.44,0.8,2.36l0.45,5.44c0.08,0.92-0.06,1.73-0.4,2.45c-0.34,0.72-0.86,1.29-1.55,1.73s-1.53,0.7-2.51,0.78
			L680.55,335.87z M682.85,333.37l1.83-0.15c0.72-0.06,1.27-0.31,1.66-0.75c0.39-0.44,0.56-1.01,0.5-1.72l-0.45-5.44
			c-0.06-0.69-0.31-1.22-0.77-1.59c-0.46-0.37-1.05-0.53-1.76-0.47l-1.83,0.15L682.85,333.37z"/>
		<path class="st2" d="M692.77,334.86l-1.2-14.55l8.73-0.72l0.18,2.17l-6.28,0.52l0.31,3.79l5.58-0.46l0.18,2.15l-5.58,0.46
			l0.35,4.27l6.28-0.52l0.18,2.17L692.77,334.86z"/>
		<path class="st2" d="M704.09,333.93l-1.2-14.55l2.95-0.24l1.8,4.51c0.19,0.46,0.34,0.86,0.46,1.25c0.12,0.38,0.2,0.66,0.25,0.82
			c0.02-0.17,0.05-0.46,0.11-0.85c0.06-0.4,0.14-0.82,0.23-1.3l0.98-4.74l2.95-0.24l1.2,14.55l-2.33,0.19l-0.37-4.52
			c-0.05-0.67-0.09-1.39-0.12-2.18s-0.04-1.57-0.05-2.36c-0.01-0.79-0.01-1.53,0.01-2.25c0.01-0.71,0.03-1.34,0.04-1.87l-1.39,7.04
			l-2.27,0.19l-2.58-6.71c0.11,0.5,0.22,1.09,0.35,1.77s0.25,1.4,0.37,2.18c0.12,0.77,0.24,1.56,0.34,2.35s0.19,1.55,0.25,2.27
			l0.37,4.52L704.09,333.93z"/>
	</g>
</g>
<g>
	<path class="st9" d="M644.94,346.38l-8.67,0.71c-4.62,0.38-8.68-3.06-9.06-7.68l-0.71-8.67c-0.38-4.62,3.06-8.68,7.68-9.06
		l8.68-0.71c4.62-0.38,8.68,3.06,9.06,7.68l0.71,8.68C653.01,341.95,649.57,346,644.94,346.38z"/>
	<g>
		<path class="st2" d="M636.56,341.6l-1.2-14.55l4.33-0.36c0.99-0.08,1.85,0.04,2.61,0.35c0.76,0.31,1.36,0.79,1.81,1.44
			s0.72,1.44,0.8,2.36l0.45,5.44c0.08,0.92-0.06,1.73-0.4,2.45c-0.34,0.72-0.86,1.29-1.55,1.73c-0.7,0.44-1.53,0.7-2.51,0.78
			L636.56,341.6z M638.87,339.11l1.83-0.15c0.72-0.06,1.27-0.31,1.66-0.75s0.56-1.01,0.5-1.72l-0.45-5.44
			c-0.06-0.69-0.31-1.22-0.77-1.59c-0.46-0.37-1.05-0.53-1.76-0.47l-1.83,0.15L638.87,339.11z"/>
	</g>
</g>
<g>
	<path class="st8" d="M588.4,375.74l-8.67,0.71c-4.62,0.38-8.68-3.06-9.06-7.68l-0.71-8.67c-0.38-4.62,3.06-8.68,7.68-9.06
		l8.68-0.71c4.62-0.38,8.68,3.06,9.06,7.68l0.71,8.68C596.46,371.31,593.02,375.36,588.4,375.74z"/>
	<g>
		<path class="st2" d="M579.02,371.05l-1.2-14.55l4.6-0.38c0.97-0.08,1.83,0.03,2.57,0.33c0.74,0.3,1.34,0.75,1.79,1.37
			c0.45,0.62,0.71,1.36,0.79,2.23c0.08,0.96-0.09,1.82-0.52,2.59c-0.43,0.77-1.03,1.34-1.84,1.72l3.4,5.9l-2.79,0.23l-3.01-5.57
			l-1.77,0.15l0.48,5.78L579.02,371.05z M580.86,362.87l2.11-0.17c0.71-0.06,1.24-0.29,1.61-0.71c0.37-0.42,0.52-0.97,0.47-1.64
			c-0.06-0.69-0.3-1.22-0.73-1.58c-0.43-0.36-1-0.51-1.7-0.45l-2.11,0.17L580.86,362.87z"/>
	</g>
</g>
<g>
	<path class="st9" d="M647.43,376.58l-8.67,0.71c-4.62,0.38-8.68-3.06-9.06-7.68l-0.71-8.67c-0.38-4.62,3.06-8.68,7.68-9.06
		l8.68-0.71c4.62-0.38,8.68,3.06,9.06,7.68l0.71,8.68C655.49,372.14,652.05,376.2,647.43,376.58z"/>
	<g>
		<path class="st2" d="M639.05,371.8l-1.2-14.55l4.33-0.36c0.99-0.08,1.85,0.04,2.61,0.35c0.76,0.31,1.36,0.79,1.81,1.44
			s0.72,1.44,0.8,2.36l0.45,5.44c0.08,0.92-0.06,1.73-0.4,2.45s-0.86,1.29-1.55,1.73c-0.7,0.44-1.53,0.7-2.51,0.78
			C643.37,371.44,639.05,371.8,639.05,371.8z M641.35,369.3l1.83-0.15c0.72-0.06,1.27-0.31,1.66-0.75c0.39-0.44,0.56-1.01,0.5-1.72
			l-0.45-5.44c-0.06-0.69-0.31-1.22-0.77-1.59c-0.46-0.37-1.05-0.53-1.76-0.47l-1.83,0.15L641.35,369.3z"/>
	</g>
</g>
<g>
	<path class="st1" d="M716.08,371.91l-31.43,2.59c-5.69,0.47-10.68-3.77-11.15-9.46l-0.4-4.8c-0.47-5.69,3.77-10.68,9.46-11.15
		l31.42-2.58c5.69-0.47,10.68,3.77,11.15,9.46l0.4,4.8C726.01,366.45,721.78,371.44,716.08,371.91z"/>
	<g>
		<path class="st2" d="M687.72,368.98c-0.93,0.08-1.76-0.04-2.49-0.33c-0.73-0.29-1.31-0.75-1.74-1.36s-0.68-1.36-0.76-2.24
			l-0.52-6.34c-0.07-0.89,0.05-1.67,0.38-2.34c0.33-0.67,0.82-1.21,1.49-1.62c0.67-0.41,1.47-0.65,2.4-0.73
			c0.95-0.08,1.77,0.04,2.49,0.33c0.72,0.29,1.29,0.75,1.73,1.35c0.44,0.61,0.69,1.36,0.77,2.24l-2.51,0.21
			c-0.06-0.69-0.28-1.2-0.68-1.53s-0.93-0.47-1.61-0.41c-0.68,0.06-1.19,0.28-1.53,0.67c-0.34,0.39-0.49,0.92-0.43,1.6l0.52,6.36
			c0.06,0.68,0.29,1.19,0.69,1.53c0.4,0.34,0.94,0.48,1.62,0.43c0.68-0.06,1.18-0.29,1.52-0.69c0.34-0.4,0.47-0.94,0.42-1.62
			l-0.12-1.48l-2.47,0.2l-0.18-2.15l4.98-0.41l0.3,3.63c0.07,0.88-0.05,1.65-0.39,2.33c-0.34,0.68-0.82,1.22-1.48,1.63
			S688.66,368.9,687.72,368.98z"/>
		<path class="st2" d="M699.6,368c-0.93,0.08-1.75-0.04-2.47-0.33c-0.72-0.29-1.28-0.75-1.7-1.37c-0.42-0.62-0.66-1.36-0.74-2.24
			l-0.52-6.34c-0.07-0.88,0.04-1.65,0.36-2.33c0.32-0.68,0.79-1.22,1.45-1.62c0.66-0.41,1.45-0.65,2.38-0.73
			c0.95-0.08,1.77,0.04,2.48,0.33c0.71,0.29,1.27,0.75,1.69,1.37c0.42,0.62,0.66,1.35,0.73,2.22l0.52,6.36
			c0.07,0.88-0.04,1.65-0.36,2.33s-0.79,1.22-1.44,1.62C701.34,367.68,700.54,367.92,699.6,368z M699.42,365.81
			c0.68-0.06,1.17-0.28,1.49-0.67c0.32-0.4,0.45-0.93,0.39-1.61l-0.52-6.34c-0.06-0.69-0.27-1.2-0.65-1.53
			c-0.38-0.33-0.9-0.47-1.58-0.41c-0.68,0.06-1.17,0.28-1.49,0.66c-0.32,0.39-0.45,0.93-0.39,1.62l0.52,6.34
			c0.06,0.68,0.28,1.18,0.66,1.52S698.75,365.86,699.42,365.81z"/>
		<path class="st2" d="M707.1,367.18l-1.2-14.55l4.84-0.4c0.97-0.08,1.83,0.04,2.59,0.35c0.76,0.31,1.36,0.79,1.81,1.43
			c0.45,0.63,0.72,1.41,0.79,2.31c0.07,0.89-0.06,1.69-0.41,2.4c-0.35,0.71-0.87,1.29-1.55,1.71c-0.69,0.43-1.52,0.69-2.49,0.77
			l-2.35,0.19l0.46,5.58L707.1,367.18z M708.94,359.15l2.35-0.19c0.69-0.06,1.23-0.3,1.61-0.74c0.38-0.44,0.55-1,0.49-1.68
			c-0.06-0.69-0.31-1.22-0.76-1.58c-0.45-0.36-1.03-0.52-1.71-0.46l-2.35,0.19L708.94,359.15z"/>
	</g>
</g>
<g>
	<path class="st8" d="M706.38,402.12l-8.67,0.71c-4.62,0.38-8.68-3.06-9.06-7.68l-0.71-8.67c-0.38-4.62,3.06-8.68,7.68-9.06
		l8.68-0.71c4.62-0.38,8.68,3.06,9.06,7.68l0.71,8.68C714.44,397.69,711,401.74,706.38,402.12z"/>
	<g>
		<path class="st2" d="M697,397.43l-1.2-14.55l4.6-0.38c0.97-0.08,1.83,0.03,2.57,0.33c0.74,0.3,1.34,0.75,1.79,1.37
			c0.45,0.62,0.71,1.36,0.79,2.23c0.08,0.96-0.09,1.82-0.52,2.59c-0.43,0.77-1.03,1.34-1.84,1.72l3.4,5.9l-2.79,0.23l-3.01-5.57
			l-1.77,0.15l0.48,5.78L697,397.43z M698.84,389.25l2.11-0.17c0.71-0.06,1.24-0.29,1.61-0.71c0.37-0.42,0.52-0.97,0.47-1.64
			c-0.06-0.69-0.3-1.22-0.73-1.58c-0.43-0.36-1-0.51-1.7-0.45l-2.11,0.17L698.84,389.25z"/>
	</g>
</g>
<g>
	<path class="st9" d="M603.12,405.56l-31.43,2.59c-5.69,0.47-10.68-3.77-11.15-9.46l-0.4-4.8c-0.47-5.69,3.77-10.68,9.46-11.15
		l31.42-2.58c5.69-0.47,10.68,3.77,11.15,9.46l0.4,4.8C613.04,400.1,608.81,405.09,603.12,405.56z"/>
	<g>
		<path class="st2" d="M570.32,402.79l-1.2-14.55l4.33-0.36c0.99-0.08,1.85,0.04,2.61,0.35s1.36,0.79,1.81,1.44
			c0.45,0.64,0.72,1.44,0.8,2.36l0.45,5.44c0.08,0.92-0.06,1.73-0.4,2.45c-0.34,0.72-0.86,1.29-1.55,1.73
			c-0.7,0.44-1.53,0.7-2.51,0.78C574.64,402.44,570.32,402.79,570.32,402.79z M572.62,400.29l1.83-0.15
			c0.72-0.06,1.27-0.31,1.66-0.75c0.39-0.44,0.56-1.01,0.5-1.72l-0.45-5.44c-0.06-0.69-0.31-1.22-0.77-1.59
			c-0.46-0.37-1.05-0.53-1.76-0.47l-1.83,0.15L572.62,400.29z"/>
		<path class="st2" d="M582.54,401.79l-1.2-14.55l8.73-0.72l0.18,2.17l-6.28,0.52l0.31,3.79l5.58-0.46l0.18,2.15l-5.58,0.46
			l0.35,4.27l6.28-0.52l0.18,2.17L582.54,401.79z"/>
		<path class="st2" d="M593.86,400.85l-1.2-14.55l2.95-0.24l1.8,4.51c0.19,0.46,0.34,0.86,0.46,1.25c0.12,0.38,0.2,0.66,0.25,0.82
			c0.02-0.17,0.05-0.46,0.11-0.85s0.14-0.82,0.23-1.3l0.98-4.74l2.95-0.24l1.2,14.55l-2.33,0.19l-0.37-4.52
			c-0.05-0.67-0.09-1.39-0.12-2.18s-0.04-1.57-0.05-2.36c-0.01-0.79-0.01-1.53,0.01-2.25c0.01-0.71,0.03-1.34,0.04-1.87l-1.39,7.04
			l-2.27,0.19l-2.58-6.71c0.11,0.5,0.22,1.09,0.35,1.77c0.13,0.68,0.25,1.4,0.37,2.18c0.12,0.77,0.24,1.56,0.34,2.35
			s0.19,1.55,0.25,2.27l0.37,4.52L593.86,400.85z"/>
	</g>
</g>
<path class="st11" d="M712.81,397.58L578.84,408.6c-12.54,1.03-23.54-8.3-24.58-20.84l-3.48-42.28
	c-1.03-12.54,8.3-23.54,20.84-24.58l133.98-11.02c12.54-1.03,23.54,8.3,24.58,20.84l3.48,42.28
	C734.69,385.55,725.35,396.55,712.81,397.58z"/>
<path class="st10" d="M726.55,233.43l-133.39,16.72c-12.49,1.57-23.88-7.29-25.44-19.77l-5.28-42.09
	c-1.57-12.49,7.29-23.88,19.77-25.44l133.39-16.72c12.49-1.57,23.88,7.29,25.44,19.77l5.28,42.09
	C747.89,220.47,739.04,231.86,726.55,233.43z"/>
<g>
	<path class="st1" d="M610.76,186.79l-31.3,3.92c-5.67,0.71-10.84-3.31-11.55-8.97l-0.6-4.78c-0.71-5.67,3.31-10.84,8.97-11.55
		l31.29-3.92c5.67-0.71,10.84,3.31,11.55,8.97l0.6,4.78C620.44,180.91,616.42,186.08,610.76,186.79z"/>
	<g>
		<path class="st2" d="M582.29,185.07c-0.92,0.12-1.76,0.04-2.5-0.22c-0.74-0.26-1.34-0.69-1.79-1.29s-0.74-1.33-0.85-2.2
			l-0.79-6.31c-0.11-0.88-0.02-1.67,0.28-2.35c0.3-0.68,0.77-1.25,1.42-1.68c0.65-0.43,1.44-0.71,2.37-0.83
			c0.94-0.12,1.77-0.04,2.5,0.22c0.73,0.26,1.32,0.69,1.78,1.28c0.47,0.59,0.75,1.33,0.86,2.21l-2.5,0.31
			c-0.09-0.68-0.33-1.19-0.74-1.5s-0.95-0.43-1.62-0.34c-0.67,0.08-1.18,0.33-1.5,0.73c-0.32,0.4-0.45,0.94-0.36,1.62l0.79,6.33
			c0.08,0.67,0.34,1.18,0.75,1.5c0.41,0.32,0.96,0.44,1.64,0.36c0.67-0.08,1.17-0.34,1.49-0.75s0.43-0.96,0.35-1.64l-0.18-1.47
			l-2.46,0.31l-0.27-2.14l4.96-0.62l0.45,3.61c0.11,0.87,0.02,1.65-0.29,2.34c-0.31,0.69-0.77,1.26-1.41,1.69
			C584.02,184.67,583.22,184.95,582.29,185.07z"/>
		<path class="st2" d="M594.12,183.59c-0.92,0.12-1.75,0.04-2.48-0.22c-0.73-0.26-1.31-0.69-1.75-1.29c-0.45-0.6-0.72-1.33-0.83-2.2
			l-0.79-6.31c-0.11-0.87-0.03-1.65,0.26-2.34c0.29-0.69,0.74-1.25,1.38-1.68c0.64-0.43,1.42-0.71,2.35-0.83
			c0.94-0.12,1.77-0.04,2.49,0.22s1.3,0.69,1.74,1.29c0.45,0.6,0.72,1.32,0.83,2.18l0.79,6.33c0.11,0.87,0.03,1.65-0.26,2.34
			c-0.29,0.69-0.74,1.25-1.37,1.68S595.05,183.47,594.12,183.59z M593.85,181.41c0.67-0.08,1.16-0.33,1.46-0.74s0.41-0.95,0.32-1.62
			l-0.79-6.31c-0.09-0.68-0.32-1.19-0.71-1.5c-0.39-0.31-0.92-0.43-1.6-0.34c-0.67,0.08-1.16,0.33-1.46,0.73
			c-0.3,0.4-0.41,0.95-0.32,1.63l0.79,6.31c0.08,0.67,0.33,1.17,0.72,1.49C592.65,181.37,593.18,181.49,593.85,181.41z"/>
		<path class="st2" d="M601.58,182.45l-1.82-14.49l4.82-0.6c0.96-0.12,1.83-0.04,2.6,0.24c0.77,0.28,1.39,0.73,1.87,1.35
			s0.78,1.37,0.89,2.28c0.11,0.88,0.01,1.69-0.31,2.42c-0.32,0.73-0.81,1.32-1.48,1.78s-1.49,0.75-2.45,0.87l-2.34,0.29l0.7,5.56
			L601.58,182.45z M603.08,174.34l2.34-0.29c0.68-0.09,1.22-0.35,1.58-0.81c0.37-0.46,0.51-1.02,0.42-1.7
			c-0.09-0.68-0.36-1.2-0.83-1.55c-0.47-0.34-1.05-0.47-1.73-0.39l-2.34,0.29L603.08,174.34z"/>
	</g>
</g>
<path class="st5" d="M745.03,197.66l8.1-1.01c11.47-1.44,19.6-11.9,18.16-23.37l-3.73-29.73"/>
<circle class="st6" cx="767.57" cy="143.55" r="8.44"/>
<rect x="625.46" y="157.93" transform="matrix(0.9922 -0.1244 0.1244 0.9922 -19.5614 82.9272)" class="st7" width="57.85" height="80.41"/>
<g>
	<path class="st8" d="M664.58,244.48l-8.63,1.08c-4.6,0.58-8.8-2.69-9.38-7.29l-1.08-8.63c-0.58-4.6,2.69-8.8,7.29-9.38l8.64-1.08
		c4.6-0.58,8.8,2.69,9.38,7.29l1.08,8.64C672.44,239.7,669.18,243.9,664.58,244.48z"/>
	<g>
		<path class="st2" d="M655.01,240.19l-1.82-14.49l4.58-0.57c0.96-0.12,1.83-0.05,2.58,0.22s1.37,0.7,1.84,1.29s0.77,1.32,0.88,2.2
			c0.12,0.95-0.01,1.83-0.41,2.61c-0.4,0.79-0.98,1.38-1.76,1.79l3.64,5.75l-2.78,0.35l-3.24-5.44l-1.77,0.22l0.72,5.75
			L655.01,240.19z M656.49,231.94l2.1-0.26c0.7-0.09,1.23-0.35,1.58-0.78s0.48-0.99,0.4-1.66c-0.09-0.68-0.35-1.21-0.8-1.54
			c-0.45-0.34-1.02-0.47-1.72-0.38l-2.1,0.26L656.49,231.94z"/>
	</g>
</g>
<g>
	<path class="st9" d="M614.57,216.87l-31.3,3.92c-5.67,0.71-10.84-3.31-11.55-8.97l-0.6-4.78c-0.71-5.67,3.31-10.84,8.97-11.55
		l31.29-3.92c5.67-0.71,10.84,3.31,11.55,8.97l0.6,4.78C624.26,210.99,620.24,216.16,614.57,216.87z"/>
	<g>
		<path class="st2" d="M581.69,215.5l-1.82-14.49l4.31-0.54c0.98-0.12,1.85-0.04,2.62,0.24c0.77,0.28,1.39,0.73,1.87,1.36
			c0.48,0.62,0.78,1.4,0.9,2.33l0.68,5.42c0.11,0.91,0.02,1.73-0.3,2.47c-0.31,0.73-0.8,1.33-1.48,1.8
			c-0.68,0.47-1.5,0.76-2.48,0.89C585.99,214.96,581.69,215.5,581.69,215.5z M583.88,212.91l1.83-0.23
			c0.71-0.09,1.26-0.36,1.63-0.82s0.52-1.03,0.43-1.74l-0.68-5.42c-0.09-0.68-0.36-1.2-0.84-1.56s-1.07-0.48-1.78-0.39l-1.83,0.23
			L583.88,212.91z"/>
		<path class="st2" d="M593.85,213.98l-1.82-14.49l8.69-1.09l0.27,2.16l-6.25,0.78l0.47,3.77l5.56-0.7l0.27,2.14l-5.56,0.7
			l0.53,4.25l6.25-0.78l0.27,2.16L593.85,213.98z"/>
		<path class="st2" d="M605.12,212.56l-1.82-14.49l2.94-0.37l1.99,4.43c0.21,0.45,0.38,0.85,0.52,1.23s0.23,0.65,0.28,0.81
			c0.01-0.17,0.03-0.46,0.07-0.86c0.04-0.4,0.11-0.83,0.18-1.31l0.77-4.77l2.94-0.37l1.82,14.49l-2.32,0.29l-0.56-4.5
			c-0.08-0.66-0.15-1.38-0.21-2.17c-0.06-0.79-0.11-1.57-0.15-2.36s-0.07-1.53-0.09-2.25c-0.02-0.71-0.03-1.34-0.04-1.87l-1.09,7.09
			l-2.26,0.28l-2.86-6.6c0.13,0.5,0.27,1.08,0.42,1.75s0.31,1.39,0.46,2.16c0.16,0.77,0.3,1.54,0.44,2.33
			c0.14,0.79,0.25,1.54,0.34,2.25l0.56,4.5L605.12,212.56z"/>
	</g>
</g>
<g>
	<path class="st9" d="M657.13,185.09l-8.63,1.08c-4.6,0.58-8.8-2.69-9.38-7.29l-1.08-8.63c-0.58-4.6,2.69-8.8,7.29-9.38l8.64-1.08
		c4.6-0.58,8.8,2.69,9.38,7.29l1.08,8.64C665,180.32,661.74,184.52,657.13,185.09z"/>
	<g>
		<path class="st2" d="M648.56,180.68l-1.82-14.49l4.31-0.54c0.98-0.12,1.85-0.04,2.62,0.24c0.77,0.28,1.39,0.73,1.87,1.36
			c0.48,0.62,0.78,1.4,0.9,2.33l0.68,5.42c0.11,0.91,0.02,1.73-0.3,2.47c-0.31,0.73-0.8,1.33-1.48,1.8
			c-0.68,0.47-1.5,0.76-2.48,0.89L648.56,180.68z M650.75,178.08l1.83-0.23c0.71-0.09,1.26-0.36,1.63-0.82s0.52-1.03,0.43-1.74
			l-0.68-5.42c-0.09-0.68-0.36-1.2-0.84-1.56c-0.48-0.35-1.07-0.48-1.78-0.39l-1.83,0.23L650.75,178.08z"/>
	</g>
</g>
<g>
	<path class="st9" d="M660.9,215.15l-8.63,1.08c-4.6,0.58-8.8-2.69-9.38-7.29l-1.08-8.63c-0.58-4.6,2.69-8.8,7.29-9.38l8.64-1.08
		c4.6-0.58,8.8,2.69,9.38,7.29l1.08,8.64C668.77,210.38,665.5,214.58,660.9,215.15z"/>
	<g>
		<path class="st2" d="M652.32,210.74l-1.82-14.49l4.31-0.54c0.98-0.12,1.85-0.04,2.62,0.24c0.77,0.28,1.39,0.73,1.87,1.36
			c0.48,0.62,0.78,1.4,0.9,2.33l0.68,5.42c0.11,0.91,0.02,1.73-0.3,2.47c-0.31,0.73-0.8,1.33-1.48,1.8
			c-0.68,0.47-1.5,0.76-2.48,0.89L652.32,210.74z M654.52,208.14l1.83-0.23c0.71-0.09,1.26-0.36,1.63-0.82s0.52-1.03,0.43-1.74
			l-0.68-5.42c-0.09-0.68-0.36-1.2-0.84-1.56s-1.07-0.48-1.78-0.39l-1.83,0.23L654.52,208.14z"/>
	</g>
</g>
<g>
	<path class="st1" d="M724.59,174.63l-31.3,3.92c-5.67,0.71-10.84-3.31-11.55-8.97l-0.6-4.78c-0.71-5.67,3.31-10.84,8.97-11.55
		l31.29-3.92c5.67-0.71,10.84,3.31,11.55,8.97l0.6,4.78C734.27,168.75,730.26,173.92,724.59,174.63z"/>
	<g>
		<path class="st2" d="M696.12,172.91c-0.92,0.12-1.76,0.04-2.5-0.22s-1.34-0.69-1.79-1.29c-0.46-0.6-0.74-1.33-0.85-2.2l-0.79-6.31
			c-0.11-0.88-0.02-1.67,0.28-2.35c0.3-0.68,0.77-1.25,1.42-1.68c0.65-0.43,1.44-0.71,2.37-0.83c0.94-0.12,1.77-0.04,2.5,0.22
			c0.73,0.26,1.32,0.69,1.78,1.28c0.47,0.59,0.75,1.33,0.86,2.21l-2.5,0.31c-0.09-0.68-0.33-1.19-0.74-1.5
			c-0.41-0.31-0.95-0.43-1.62-0.34c-0.67,0.08-1.18,0.33-1.5,0.73c-0.32,0.4-0.45,0.94-0.36,1.62l0.79,6.33
			c0.08,0.67,0.34,1.18,0.75,1.5s0.96,0.44,1.64,0.36c0.67-0.08,1.17-0.34,1.49-0.75c0.32-0.41,0.43-0.96,0.35-1.64l-0.18-1.47
			l-2.46,0.31l-0.27-2.14l4.96-0.62l0.45,3.61c0.11,0.87,0.02,1.65-0.29,2.34c-0.31,0.69-0.77,1.26-1.41,1.69
			C697.85,172.51,697.06,172.79,696.12,172.91z"/>
		<path class="st2" d="M707.95,171.43c-0.92,0.12-1.75,0.04-2.48-0.22c-0.73-0.26-1.31-0.69-1.75-1.29c-0.45-0.6-0.72-1.33-0.83-2.2
			l-0.79-6.31c-0.11-0.87-0.03-1.65,0.26-2.34c0.29-0.69,0.74-1.25,1.38-1.68c0.64-0.43,1.42-0.71,2.35-0.83
			c0.94-0.12,1.77-0.04,2.49,0.22c0.72,0.26,1.3,0.69,1.74,1.29c0.45,0.6,0.72,1.32,0.83,2.18l0.79,6.33
			c0.11,0.87,0.03,1.65-0.26,2.34c-0.29,0.69-0.74,1.25-1.37,1.68C709.68,171.03,708.88,171.31,707.95,171.43z M707.68,169.24
			c0.67-0.08,1.16-0.33,1.46-0.74s0.41-0.95,0.32-1.62l-0.79-6.31c-0.09-0.68-0.32-1.19-0.71-1.5c-0.39-0.31-0.92-0.43-1.6-0.34
			s-1.16,0.33-1.46,0.73s-0.41,0.95-0.32,1.63l0.79,6.31c0.08,0.67,0.33,1.17,0.72,1.49C706.49,169.21,707.01,169.33,707.68,169.24z
			"/>
		<path class="st2" d="M715.41,170.29l-1.82-14.49l4.82-0.6c0.96-0.12,1.83-0.04,2.6,0.24c0.77,0.28,1.39,0.73,1.87,1.35
			c0.48,0.62,0.78,1.37,0.89,2.28c0.11,0.88,0.01,1.69-0.31,2.42c-0.32,0.73-0.81,1.32-1.48,1.78c-0.67,0.46-1.49,0.75-2.45,0.87
			l-2.34,0.29l0.7,5.56L715.41,170.29z M716.91,162.18l2.34-0.29c0.68-0.09,1.22-0.35,1.58-0.81c0.37-0.46,0.51-1.02,0.42-1.7
			c-0.09-0.68-0.36-1.2-0.83-1.55c-0.47-0.34-1.05-0.47-1.73-0.39l-2.34,0.29L716.91,162.18z"/>
	</g>
</g>
<g>
	<path class="st8" d="M716.96,205.69l-8.63,1.08c-4.6,0.58-8.8-2.69-9.38-7.29l-1.08-8.63c-0.58-4.6,2.69-8.8,7.29-9.38l8.64-1.08
		c4.6-0.58,8.8,2.69,9.38,7.29l1.08,8.64C724.83,200.92,721.57,205.11,716.96,205.69z"/>
	<g>
		<path class="st2" d="M707.4,201.4l-1.82-14.49l4.58-0.57c0.96-0.12,1.83-0.05,2.58,0.22c0.75,0.27,1.37,0.7,1.84,1.29
			c0.48,0.6,0.77,1.32,0.88,2.2c0.12,0.95-0.01,1.83-0.41,2.61c-0.4,0.79-0.98,1.38-1.76,1.79l3.64,5.75l-2.78,0.35l-3.24-5.44
			l-1.77,0.22l0.72,5.75L707.4,201.4z M708.88,193.15l2.1-0.26c0.7-0.09,1.23-0.35,1.57-0.78s0.48-0.99,0.4-1.66
			c-0.09-0.68-0.35-1.21-0.8-1.54c-0.45-0.34-1.02-0.47-1.72-0.38l-2.1,0.26L708.88,193.15z"/>
	</g>
</g>
<g>
	<path class="st9" d="M618.89,245.87l-31.3,3.92c-5.67,0.71-10.84-3.31-11.55-8.97l-0.6-4.78c-0.71-5.67,3.31-10.84,8.97-11.55
		l31.29-3.92c5.67-0.71,10.84,3.31,11.55,8.97l0.6,4.78C628.57,239.99,624.55,245.16,618.89,245.87z"/>
	<g>
		<path class="st2" d="M586,244.5l-1.82-14.49l4.31-0.54c0.98-0.12,1.85-0.04,2.62,0.24c0.77,0.28,1.39,0.73,1.87,1.36
			s0.78,1.4,0.9,2.33l0.68,5.42c0.11,0.91,0.02,1.73-0.3,2.47c-0.31,0.73-0.8,1.33-1.48,1.8c-0.68,0.47-1.5,0.76-2.48,0.89
			L586,244.5z M588.2,241.91l1.83-0.23c0.71-0.09,1.26-0.36,1.63-0.82s0.52-1.03,0.43-1.74l-0.68-5.42
			c-0.09-0.68-0.36-1.2-0.84-1.56s-1.07-0.48-1.78-0.39l-1.83,0.23L588.2,241.91z"/>
		<path class="st2" d="M598.17,242.98l-1.82-14.49l8.69-1.09l0.27,2.16l-6.25,0.78l0.47,3.77l5.56-0.7l0.27,2.14l-5.56,0.7
			l0.53,4.25l6.25-0.78l0.27,2.16C606.86,241.89,598.17,242.98,598.17,242.98z"/>
		<path class="st2" d="M609.44,241.57l-1.82-14.49l2.94-0.37l1.99,4.43c0.21,0.45,0.38,0.85,0.52,1.23s0.23,0.65,0.28,0.81
			c0.01-0.17,0.03-0.46,0.07-0.86c0.04-0.4,0.11-0.83,0.18-1.31l0.77-4.77l2.94-0.37l1.82,14.49l-2.32,0.29l-0.56-4.5
			c-0.08-0.66-0.15-1.38-0.21-2.17c-0.06-0.79-0.11-1.57-0.15-2.36s-0.07-1.53-0.09-2.25c-0.02-0.71-0.03-1.34-0.04-1.87l-1.09,7.09
			l-2.26,0.28l-2.86-6.6c0.13,0.5,0.27,1.08,0.42,1.75s0.31,1.39,0.46,2.16s0.3,1.54,0.44,2.33c0.14,0.79,0.25,1.54,0.34,2.25
			l0.56,4.5L609.44,241.57z"/>
	</g>
</g>
<g>
	<path class="st9" d="M719.96,235.42l-8.63,1.08c-4.6,0.58-8.8-2.69-9.38-7.29l-1.08-8.63c-0.58-4.6,2.69-8.8,7.29-9.38l8.64-1.08
		c4.6-0.58,8.8,2.69,9.38,7.29l1.08,8.64C727.83,230.64,724.57,234.84,719.96,235.42z"/>
	<g>
		<path class="st2" d="M711.39,231l-1.82-14.49l4.31-0.54c0.98-0.12,1.85-0.04,2.62,0.24c0.77,0.28,1.39,0.73,1.87,1.36
			c0.48,0.62,0.78,1.4,0.9,2.33l0.68,5.42c0.11,0.91,0.02,1.73-0.3,2.47s-0.8,1.33-1.48,1.8c-0.68,0.47-1.5,0.76-2.48,0.89
			L711.39,231z M713.58,228.41l1.83-0.23c0.71-0.09,1.26-0.36,1.63-0.82s0.52-1.03,0.43-1.74l-0.68-5.42
			c-0.09-0.68-0.36-1.2-0.84-1.56c-0.48-0.35-1.07-0.48-1.78-0.39l-1.83,0.23L713.58,228.41z"/>
	</g>
</g>
<path class="st11" d="M726.55,233.43l-133.39,16.72c-12.49,1.57-23.88-7.29-25.44-19.77l-5.28-42.09
	c-1.57-12.49,7.29-23.88,19.77-25.44l133.39-16.72c12.49-1.57,23.88,7.29,25.44,19.77l5.28,42.09
	C747.89,220.47,739.04,231.86,726.55,233.43z"/>
<path class="st26" d="M216.89,128.98H55.67c-15.09,0-27.33-12.23-27.33-27.33V50.78c0-15.09,12.23-27.33,27.33-27.33h161.22
	c15.09,0,27.33,12.23,27.33,27.33v50.87C244.22,116.75,231.99,128.98,216.89,128.98z"/>
<g>
	<path class="st1" d="M155.2,133.78h-37.83c-6.85,0-12.4-5.55-12.4-12.4v-5.78c0-6.85,5.55-12.4,12.4-12.4h37.81
		c6.85,0,12.4,5.55,12.4,12.4v5.78C167.6,128.23,162.05,133.78,155.2,133.78z"/>
	<g>
		<path class="st2" d="M121.58,127.48c-1.12,0-2.1-0.22-2.94-0.64c-0.84-0.42-1.49-1.02-1.94-1.8c-0.46-0.78-0.68-1.69-0.68-2.75
			v-7.63c0-1.07,0.23-1.99,0.68-2.76s1.1-1.37,1.94-1.79c0.84-0.42,1.82-0.64,2.94-0.64c1.14,0,2.11,0.22,2.94,0.64
			c0.83,0.42,1.46,1.02,1.93,1.79s0.7,1.69,0.7,2.76h-3.02c0-0.83-0.22-1.46-0.66-1.89s-1.07-0.65-1.88-0.65
			c-0.82,0-1.45,0.22-1.89,0.65c-0.44,0.43-0.67,1.06-0.67,1.87v7.65c0,0.82,0.23,1.45,0.67,1.89s1.08,0.67,1.89,0.67
			s1.44-0.23,1.88-0.67s0.66-1.08,0.66-1.89v-1.77h-2.97v-2.59h6v4.37c0,1.06-0.23,1.97-0.7,2.75c-0.47,0.78-1.1,1.38-1.93,1.8
			S122.71,127.48,121.58,127.48z"/>
		<path class="st2" d="M135.88,127.48c-1.12,0-2.09-0.22-2.91-0.64c-0.83-0.42-1.45-1.02-1.89-1.8c-0.44-0.78-0.66-1.69-0.66-2.75
			v-7.63c0-1.06,0.22-1.97,0.66-2.75s1.07-1.38,1.89-1.8c0.83-0.42,1.8-0.64,2.91-0.64c1.14,0,2.11,0.22,2.93,0.64
			c0.82,0.42,1.44,1.02,1.88,1.8s0.66,1.68,0.66,2.72v7.65c0,1.06-0.22,1.97-0.66,2.75c-0.44,0.78-1.07,1.38-1.88,1.8
			C137.99,127.27,137.01,127.48,135.88,127.48z M135.88,124.84c0.82,0,1.43-0.22,1.85-0.66c0.42-0.44,0.62-1.07,0.62-1.88v-7.63
			c0-0.83-0.2-1.46-0.62-1.89c-0.42-0.43-1.03-0.65-1.85-0.65c-0.82,0-1.43,0.22-1.85,0.65c-0.42,0.43-0.62,1.07-0.62,1.89v7.63
			c0,0.82,0.22,1.44,0.64,1.88S135.08,124.84,135.88,124.84z"/>
		<path class="st2" d="M144.92,127.24v-17.51h5.83c1.16,0,2.18,0.23,3.06,0.67s1.55,1.08,2.03,1.88c0.48,0.8,0.72,1.75,0.72,2.84
			c0,1.07-0.24,2.01-0.73,2.83c-0.49,0.82-1.16,1.45-2.03,1.89s-1.88,0.67-3.05,0.67h-2.83v6.72H144.92z M147.92,117.82h2.83
			c0.83,0,1.5-0.24,2-0.73s0.76-1.14,0.76-1.95c0-0.83-0.25-1.49-0.76-1.97s-1.18-0.72-2-0.72h-2.83V117.82z"/>
	</g>
</g>
<path class="st27" d="M244.22,89.18H254c13.86,0,25.1-11.24,25.1-25.1V28.14"/>
<circle class="st28" cx="279.11" cy="28.14" r="10.13"/>
<rect x="101.59" y="24.53" class="st29" width="69.38" height="102.95"/>
<g>
	<path class="st8" d="M140.82,61.23h-10.43c-5.56,0-10.07-4.51-10.07-10.07V40.72c0-5.56,4.51-10.07,10.07-10.07h10.45
		c5.56,0,10.07,4.51,10.07,10.07v10.45C150.9,56.72,146.39,61.23,140.82,61.23z"/>
	<g>
		<path class="st2" d="M130.08,54.69V37.18h5.54c1.16,0,2.18,0.22,3.03,0.65c0.85,0.43,1.52,1.03,2,1.81
			c0.48,0.78,0.72,1.69,0.72,2.75c0,1.15-0.29,2.17-0.88,3.05c-0.59,0.88-1.37,1.5-2.36,1.87l3.48,7.39h-3.36l-3.05-6.96h-2.13v6.96
			H130.08z M133.08,45.1h2.54c0.85,0,1.51-0.23,1.99-0.7s0.72-1.1,0.72-1.92c0-0.83-0.24-1.49-0.72-1.95s-1.14-0.71-1.99-0.71h-2.54
			V45.1z"/>
	</g>
</g>
<g>
	<path class="st9" d="M86.47,55.11H48.65c-6.85,0-12.4-5.55-12.4-12.4v-5.78c0-6.85,5.55-12.4,12.4-12.4h37.81
		c6.85,0,12.4,5.55,12.4,12.4v5.78C98.87,49.56,93.32,55.11,86.47,55.11z"/>
	<g>
		<path class="st2" d="M47.54,48.58V31.07h5.2c1.19,0,2.21,0.23,3.08,0.67c0.88,0.44,1.55,1.08,2.03,1.89s0.72,1.79,0.72,2.9v6.55
			c0,1.1-0.24,2.06-0.72,2.89c-0.48,0.83-1.15,1.46-2.03,1.92c-0.88,0.46-1.89,0.68-3.08,0.68C52.75,48.58,47.54,48.58,47.54,48.58z
			 M50.54,45.82h2.21c0.86,0,1.55-0.24,2.06-0.73s0.77-1.15,0.77-2v-6.55c0-0.83-0.25-1.49-0.77-1.98c-0.52-0.49-1.2-0.73-2.06-0.73
			h-2.21V45.82z"/>
		<path class="st2" d="M62.25,48.58V31.07h10.51v2.61H65.2v4.56h6.72v2.59H65.2v5.13h7.56v2.61C72.75,48.58,62.25,48.58,62.25,48.58
			z"/>
		<path class="st2" d="M75.87,48.58V31.07h3.55l1.7,5.56c0.18,0.56,0.32,1.07,0.43,1.54s0.18,0.8,0.22,1.01
			c0.04-0.2,0.11-0.54,0.22-1.01c0.11-0.47,0.25-0.97,0.41-1.54l1.63-5.56h3.55v17.51h-2.81v-5.44c0-0.8,0.02-1.67,0.07-2.61
			c0.05-0.95,0.11-1.88,0.17-2.83c0.06-0.95,0.14-1.83,0.23-2.69c0.08-0.85,0.17-1.6,0.23-2.23l-2.35,8.28h-2.73l-2.42-8.28
			c0.08,0.61,0.16,1.32,0.24,2.15s0.16,1.7,0.23,2.64c0.07,0.94,0.13,1.88,0.18,2.84c0.05,0.96,0.07,1.87,0.07,2.73v5.44
			C78.68,48.58,75.87,48.58,75.87,48.58z"/>
	</g>
</g>
<g>
	<path class="st9" d="M139.64,97.5h-10.43c-5.56,0-10.07-4.51-10.07-10.07V77c0-5.56,4.51-10.07,10.07-10.07h10.45
		c5.56,0,10.07,4.51,10.07,10.07v10.45C149.72,92.99,145.21,97.5,139.64,97.5z"/>
	<g>
		<path class="st2" d="M130.1,90.97V73.46h5.2c1.19,0,2.21,0.23,3.08,0.67s1.55,1.08,2.03,1.89c0.48,0.82,0.72,1.79,0.72,2.9v6.55
			c0,1.1-0.24,2.06-0.72,2.89c-0.48,0.83-1.15,1.46-2.03,1.92c-0.88,0.46-1.89,0.68-3.08,0.68H130.1z M133.09,88.21h2.21
			c0.86,0,1.55-0.24,2.06-0.73s0.77-1.15,0.77-2v-6.55c0-0.83-0.25-1.49-0.77-1.98s-1.2-0.73-2.06-0.73h-2.21V88.21z"/>
	</g>
</g>
<g>
	<path class="st8" d="M71.05,89.87H60.62c-5.56,0-10.07-4.51-10.07-10.07V69.36c0-5.56,4.51-10.07,10.07-10.07h10.45
		c5.56,0,10.07,4.51,10.07,10.07V79.8C81.12,85.36,76.61,89.87,71.05,89.87z"/>
	<g>
		<path class="st2" d="M60.3,83.33V65.82h5.54c1.16,0,2.18,0.22,3.03,0.65c0.85,0.43,1.52,1.03,2,1.81
			c0.48,0.78,0.72,1.69,0.72,2.75c0,1.15-0.29,2.17-0.88,3.05c-0.59,0.88-1.37,1.5-2.36,1.87l3.48,7.39h-3.36l-3.05-6.96H63.3v6.96
			H60.3z M63.3,73.74h2.54c0.85,0,1.51-0.23,1.99-0.7s0.72-1.1,0.72-1.92c0-0.83-0.24-1.49-0.72-1.95s-1.14-0.71-1.99-0.71H63.3
			V73.74z"/>
	</g>
</g>
<g>
	<path class="st9" d="M71.05,125.02H60.62c-5.56,0-10.07-4.51-10.07-10.07v-10.43c0-5.56,4.51-10.07,10.07-10.07h10.45
		c5.56,0,10.07,4.51,10.07,10.07v10.45C81.12,120.51,76.61,125.02,71.05,125.02z"/>
	<g>
		<path class="st2" d="M61.5,118.49v-17.51h5.2c1.19,0,2.21,0.23,3.08,0.67c0.88,0.44,1.55,1.08,2.03,1.89
			c0.48,0.82,0.72,1.79,0.72,2.9v6.55c0,1.1-0.24,2.06-0.72,2.89c-0.48,0.83-1.15,1.46-2.03,1.92c-0.88,0.46-1.89,0.68-3.08,0.68
			C66.71,118.49,61.5,118.49,61.5,118.49z M64.5,115.73h2.21c0.86,0,1.55-0.24,2.06-0.73c0.52-0.49,0.77-1.15,0.77-2v-6.55
			c0-0.83-0.25-1.49-0.77-1.98c-0.52-0.49-1.2-0.73-2.06-0.73H64.5V115.73z"/>
	</g>
</g>
<g>
	<path class="st1" d="M223.33,98.62H185.5c-6.85,0-12.4-5.55-12.4-12.4v-5.78c0-6.85,5.55-12.4,12.4-12.4h37.81
		c6.85,0,12.4,5.55,12.4,12.4v5.78C235.73,93.07,230.18,98.62,223.33,98.62z"/>
	<g>
		<path class="st2" d="M189.71,92.32c-1.12,0-2.1-0.22-2.94-0.64s-1.49-1.02-1.94-1.8c-0.46-0.78-0.68-1.69-0.68-2.75v-7.63
			c0-1.07,0.23-1.99,0.68-2.76s1.1-1.37,1.94-1.79c0.84-0.42,1.82-0.64,2.94-0.64c1.14,0,2.11,0.22,2.94,0.64
			c0.83,0.42,1.46,1.02,1.93,1.79s0.7,1.69,0.7,2.76h-3.02c0-0.83-0.22-1.46-0.66-1.89c-0.44-0.43-1.07-0.65-1.88-0.65
			s-1.45,0.22-1.89,0.65c-0.44,0.43-0.67,1.06-0.67,1.87v7.65c0,0.82,0.23,1.45,0.67,1.89s1.08,0.67,1.89,0.67s1.44-0.23,1.88-0.67
			s0.66-1.08,0.66-1.89v-1.77h-2.97v-2.59h6v4.37c0,1.06-0.23,1.97-0.7,2.75c-0.47,0.78-1.1,1.38-1.93,1.8
			C191.82,92.11,190.84,92.32,189.71,92.32z"/>
		<path class="st2" d="M204.01,92.32c-1.12,0-2.09-0.22-2.91-0.64s-1.45-1.02-1.89-1.8c-0.44-0.78-0.66-1.69-0.66-2.75v-7.63
			c0-1.06,0.22-1.97,0.66-2.75s1.07-1.38,1.89-1.8c0.83-0.42,1.8-0.64,2.91-0.64c1.14,0,2.11,0.22,2.93,0.64
			c0.82,0.42,1.44,1.02,1.88,1.8s0.66,1.68,0.66,2.72v7.65c0,1.06-0.22,1.97-0.66,2.75c-0.44,0.78-1.07,1.38-1.88,1.8
			S205.13,92.32,204.01,92.32z M204.01,89.69c0.82,0,1.43-0.22,1.85-0.66s0.62-1.07,0.62-1.88v-7.63c0-0.83-0.2-1.46-0.62-1.89
			c-0.42-0.43-1.03-0.65-1.85-0.65s-1.43,0.22-1.85,0.65c-0.42,0.43-0.62,1.07-0.62,1.89v7.63c0,0.82,0.22,1.44,0.64,1.88
			S203.2,89.69,204.01,89.69z"/>
		<path class="st2" d="M213.05,92.09V74.58h5.83c1.16,0,2.18,0.23,3.06,0.67c0.88,0.44,1.55,1.08,2.03,1.88
			c0.48,0.8,0.72,1.75,0.72,2.84c0,1.07-0.24,2.01-0.73,2.83s-1.16,1.45-2.03,1.89c-0.86,0.44-1.88,0.67-3.05,0.67h-2.83v6.72
			H213.05z M216.05,82.66h2.83c0.83,0,1.5-0.24,2-0.73s0.76-1.14,0.76-1.95c0-0.83-0.25-1.49-0.76-1.97s-1.18-0.72-2-0.72h-2.83
			V82.66z"/>
	</g>
</g>
<g>
	<path class="st8" d="M208.76,133.78h-10.43c-5.56,0-10.07-4.51-10.07-10.07v-10.43c0-5.56,4.51-10.07,10.07-10.07h10.45
		c5.56,0,10.07,4.51,10.07,10.07v10.45C218.83,129.27,214.32,133.78,208.76,133.78z"/>
	<g>
		<path class="st2" d="M198.01,127.24v-17.51h5.54c1.16,0,2.18,0.22,3.03,0.65s1.52,1.03,2,1.81c0.48,0.78,0.72,1.69,0.72,2.75
			c0,1.15-0.29,2.17-0.88,3.05c-0.59,0.88-1.37,1.5-2.36,1.87l3.48,7.39h-3.36l-3.05-6.96h-2.13v6.96H198.01z M201.01,117.65h2.54
			c0.85,0,1.51-0.23,1.99-0.7s0.72-1.1,0.72-1.92c0-0.83-0.24-1.49-0.72-1.95s-1.14-0.71-1.99-0.71h-2.54V117.65z"/>
	</g>
</g>
<g>
	<path class="st9" d="M223.33,61.23H185.5c-6.85,0-12.4-5.55-12.4-12.4v-5.78c0-6.85,5.55-12.4,12.4-12.4h37.81
		c6.85,0,12.4,5.55,12.4,12.4v5.78C235.73,55.68,230.18,61.23,223.33,61.23z"/>
	<g>
		<path class="st2" d="M184.4,54.69V37.18h5.2c1.19,0,2.21,0.23,3.08,0.67c0.88,0.44,1.55,1.08,2.03,1.89
			c0.48,0.82,0.72,1.79,0.72,2.9v6.55c0,1.1-0.24,2.06-0.72,2.89c-0.48,0.83-1.15,1.46-2.03,1.92c-0.88,0.46-1.89,0.68-3.08,0.68
			L184.4,54.69z M187.4,51.94h2.21c0.86,0,1.55-0.24,2.06-0.73s0.77-1.15,0.77-2v-6.55c0-0.83-0.25-1.49-0.77-1.98
			s-1.2-0.73-2.06-0.73h-2.21V51.94z"/>
		<path class="st2" d="M199.1,54.69V37.18h10.51v2.61h-7.56v4.56h6.72v2.59h-6.72v5.13h7.56v2.61L199.1,54.69z"/>
		<path class="st2" d="M212.73,54.69V37.18h3.55l1.7,5.56c0.18,0.56,0.32,1.07,0.43,1.54s0.18,0.8,0.22,1.01
			c0.04-0.2,0.11-0.54,0.22-1.01s0.25-0.97,0.41-1.54l1.63-5.56h3.55v17.51h-2.81v-5.44c0-0.8,0.02-1.67,0.07-2.61
			s0.11-1.88,0.17-2.83s0.14-1.83,0.23-2.69c0.08-0.85,0.17-1.6,0.23-2.23l-2.35,8.28h-2.73l-2.42-8.28
			c0.08,0.61,0.16,1.32,0.24,2.15c0.08,0.83,0.16,1.7,0.23,2.64c0.07,0.94,0.13,1.88,0.18,2.84s0.07,1.87,0.07,2.73v5.44
			L212.73,54.69z"/>
	</g>
</g>
<path class="st27" d="M216.89,128.98H55.67c-15.09,0-27.33-12.23-27.33-27.33V50.78c0-15.09,12.23-27.33,27.33-27.33h161.22
	c15.09,0,27.33,12.23,27.33,27.33v50.87C244.22,116.75,231.99,128.98,216.89,128.98z"/>
</svg>
