<?xml version="1.0" encoding="utf-8"?>
<!-- Generator: Adobe Illustrator 24.1.0, SVG Export Plug-In . SVG Version: 6.00 Build 0)  -->
<svg version="1.1" id="Layer_1" xmlns="http://www.w3.org/2000/svg" xmlns:xlink="http://www.w3.org/1999/xlink" x="0px" y="0px"
	 viewBox="0 0 600 200" style="enable-background:new 0 0 600 200;" xml:space="preserve">
<style type="text/css">
	.st0{fill:#FFFFFF;stroke:#231F20;stroke-width:5;stroke-miterlimit:10;}
	.st1{fill:#FF6666;}
	.st2{fill:#FFFFFF;}
	.st3{fill:#F68C38;}
	.st4{fill:#231F20;}
	.st5{fill:none;stroke:#231F20;stroke-width:6;stroke-miterlimit:10;}
	.st6{fill:#231F20;stroke:#231F20;stroke-width:7;stroke-miterlimit:10;}
	.st7{fill:none;stroke:#231F20;stroke-width:0.75;stroke-miterlimit:10;}
	.st8{fill:#FF6060;}
	.st9{fill:#339AFF;}
	.st10{fill:#FFFFFF;stroke:#231F20;stroke-width:10;stroke-miterlimit:10;}
	.st11{fill:none;stroke:#231F20;stroke-width:10;stroke-miterlimit:10;}
	.st12{fill:#0F3A46;}
	.st13{fill:#FDFDFD;}
	.st14{fill:#FDB828;}
	.st15{fill:#FFFFFF;stroke:#231F20;stroke-width:3;stroke-miterlimit:10;}
	.st16{fill:none;stroke:#231F20;stroke-width:4;stroke-miterlimit:10;}
	.st17{fill:#FFFFFF;stroke:#231F20;stroke-width:6.7233;stroke-miterlimit:10;}
	.st18{fill:none;stroke:#231F20;stroke-width:8.068;stroke-miterlimit:10;}
	.st19{fill:#231F20;stroke:#231F20;stroke-width:9.4127;stroke-miterlimit:10;}
	.st20{fill:none;stroke:#231F20;stroke-width:1.0085;stroke-miterlimit:10;}
	.st21{fill:#FFFFFF;stroke:#231F20;stroke-width:4.4578;stroke-miterlimit:10;}
	.st22{fill:none;stroke:#231F20;stroke-width:8.9156;stroke-miterlimit:10;}
	.st23{fill:#231F20;stroke:#231F20;stroke-width:10.4016;stroke-miterlimit:10;}
	.st24{fill:none;stroke:#231F20;stroke-width:1.1145;stroke-miterlimit:10;}
	.st25{fill:none;stroke:#231F20;stroke-width:5.9438;stroke-miterlimit:10;}
	.st26{fill:#FFFFFF;stroke:#231F20;stroke-width:8.0745;stroke-miterlimit:10;}
	.st27{fill:none;stroke:#231F20;stroke-width:9.6894;stroke-miterlimit:10;}
	.st28{fill:#231F20;stroke:#231F20;stroke-width:11.3043;stroke-miterlimit:10;}
	.st29{fill:none;stroke:#231F20;stroke-width:1.2112;stroke-miterlimit:10;}
</style>
<g>
	<path class="st2" d="M87.03,155.36c-0.09,0.83-0.15,1.66-0.27,2.49c-0.47,3.38-1.48,6.58-3.04,9.61c-1.43,2.78-3.26,5.27-5.47,7.48
		c-1.78,1.78-3.76,3.31-5.94,4.59c-2.64,1.55-5.43,2.69-8.42,3.36c-5.18,1.16-10.32,1.04-15.41-0.48c-2.38-0.71-4.63-1.72-6.77-3
		c-2.13-1.27-4.07-2.79-5.81-4.55c-3.3-3.32-5.71-7.2-7.19-11.65c-0.49-1.46-0.85-2.96-1.11-4.48c-0.02-0.1-0.01-0.2-0.1-0.27
		c-0.01-0.01-0.03-0.01-0.04,0c0.05-0.05,0.04-0.1-0.02-0.13c0,0-0.01-0.03-0.01-0.03c0.06-0.06,0.06-0.11-0.01-0.16
		c0.05-0.48-0.05-0.95-0.1-1.42c-0.46-4.74,0.16-9.33,1.86-13.77c0.88-2.3,2.05-4.45,3.47-6.47c1.2-1.71,2.56-3.27,4.09-4.68
		c3.97-3.66,8.59-6.11,13.88-7.28c5.13-1.13,10.21-0.92,15.25,0.59c1.02,0.3,2,0.69,2.99,1.08c0.05,0.01,0.1,0.02,0.15,0.04
		c0.54,0.27,1.07,0.54,1.61,0.8c1.22,0.61,2.39,1.31,3.51,2.09c1.25,0.87,2.44,1.81,3.54,2.86c2.9,2.77,5.19,5.97,6.81,9.64
		c1.77,4,2.58,8.2,2.58,12.56c0,0.11-0.03,0.22,0.03,0.33c-0.07,0.09-0.09,0.17,0.01,0.26c0,0,0,0.03,0,0.03
		c-0.06,0.04-0.06,0.09,0,0.14c0,0-0.01-0.02-0.01-0.02c-0.09,0.09-0.11,0.18-0.01,0.28C87.03,155.23,87.01,155.29,87.03,155.36z
		 M71.82,129.58c-1.03-0.67-2.13-1.22-3.25-1.72c-0.31-0.13-0.6-0.32-0.94-0.35c-0.67-0.36-1.39-0.59-2.11-0.82
		c-1.69-0.53-3.43-0.87-5.19-1.09c-0.86-0.11-1.72-0.2-2.59-0.13c-1.54-0.06-3.08,0.03-4.6,0.27c-2.2,0.3-4.33,0.85-6.4,1.67
		c-1.1,0.43-2.19,0.9-3.2,1.52c-0.39,0.14-0.73,0.38-1.08,0.59c-1.01,0.58-1.92,1.29-2.87,1.96c-0.1,0.09-0.19,0.19-0.3,0.27
		c-0.62,0.5-1.21,1.03-1.78,1.58c-0.92,0.9-1.78,1.84-2.58,2.84c-0.72,0.91-1.39,1.85-1.97,2.86c-0.54,0.77-0.96,1.61-1.36,2.45
		c-0.27,0.57-0.57,1.13-0.73,1.75c-0.56,1.19-0.91,2.46-1.25,3.73c-0.27,1-0.44,2.02-0.56,3.05c-0.12,1.02-0.24,2.03-0.23,3.06
		c-0.04,1.06,0,2.11,0.1,3.16c0.05,0.51,0.07,1.01,0.21,1.51c0.04,0.88,0.26,1.74,0.46,2.59c0.4,1.74,0.97,3.44,1.73,5.07
		c0.3,0.64,0.58,1.3,0.98,1.9c0.04,0.09,0.07,0.19,0.12,0.27c0.7,1.28,1.51,2.49,2.43,3.62c0.06,0.08,0.13,0.15,0.19,0.23
		c0.99,1.31,2.15,2.47,3.37,3.56c0.77,0.69,1.58,1.34,2.44,1.92c0.51,0.34,0.99,0.72,1.56,0.96c0.57,0.47,1.24,0.78,1.89,1.11
		c0.75,0.38,1.5,0.78,2.31,1.01c0.1,0.05,0.19,0.11,0.3,0.15c2.59,1,5.28,1.62,8.05,1.81c0.5,0.03,0.99,0.12,1.49,0.02
		c0.09,0.07,0.19,0.06,0.29,0.06c1.39,0.03,2.78-0.06,4.16-0.24c0.09-0.01,0.18-0.02,0.24-0.1c0.12,0.05,0.24,0.03,0.36,0.01
		c2.42-0.39,4.76-1.05,7-2.05c0.74-0.33,1.49-0.65,2.17-1.1c0.1-0.04,0.21-0.08,0.3-0.13c1.27-0.69,2.45-1.5,3.59-2.39
		c1.72-1.35,3.28-2.88,4.64-4.6c0.77-0.97,1.5-1.96,2.11-3.04c0.46-0.67,0.83-1.39,1.19-2.11c0.32-0.66,0.66-1.3,0.87-2.01
		c0.05-0.09,0.1-0.18,0.13-0.27c0.91-2.35,1.51-4.77,1.76-7.28c0.08-0.77,0.19-1.54,0.1-2.32c0.02-0.11,0.04-0.22,0.04-0.33
		c0.03-1.36-0.06-2.71-0.24-4.06c-0.01-0.1-0.01-0.2-0.1-0.27c0.06-0.14,0.02-0.28,0-0.43c-0.27-1.74-0.69-3.45-1.29-5.11
		c-0.51-1.39-1.09-2.75-1.84-4.03c-0.12-0.32-0.32-0.61-0.49-0.9c-0.63-1.04-1.29-2.07-2.09-2.99c-0.07-0.1-0.14-0.2-0.21-0.3
		c-1.29-1.58-2.71-3.03-4.32-4.29C73.85,130.93,72.87,130.21,71.82,129.58z"/>
	<path class="st12" d="M67.62,127.51c0.34,0.03,0.64,0.21,0.94,0.35c1.12,0.5,2.22,1.05,3.25,1.72c-0.11,0.19-0.23,0.38-0.34,0.57
		c-1.23,1.97-2.47,3.93-3.7,5.9c-0.23,0.37-0.22,0.37,0.15,0.6c1.85,1.18,3.47,2.62,4.86,4.31c0.31,0.37,0.3,0.37,0.67,0.07
		c1-0.81,2-1.61,3-2.42c0.96-0.78,1.92-1.56,2.88-2.34c0.8,0.93,1.46,1.95,2.09,2.99c0.18,0.29,0.37,0.58,0.49,0.9
		c-2.28,1.21-4.56,2.43-6.85,3.63c-0.21,0.11-0.23,0.2-0.12,0.41c1.08,2.01,1.8,4.15,2.13,6.41c0.05,0.31,0.16,0.35,0.44,0.3
		c1.44-0.23,2.89-0.45,4.33-0.67c1.07-0.17,2.13-0.34,3.2-0.52c0.09,0.07,0.09,0.18,0.1,0.27c0.19,1.35,0.27,2.7,0.24,4.06
		c0,0.11-0.03,0.22-0.04,0.33c-2.57-0.09-5.13-0.18-7.7-0.28c-0.25-0.01-0.32,0.06-0.33,0.31c-0.07,2.28-0.52,4.5-1.35,6.62
		c-0.09,0.24-0.06,0.35,0.2,0.45c1.02,0.38,2.04,0.79,3.06,1.18c1.37,0.53,2.75,1.05,4.12,1.58c-0.2,0.71-0.54,1.36-0.87,2.01
		c-0.36,0.73-0.73,1.44-1.19,2.11c-0.12,0.02-0.21-0.06-0.3-0.12c-0.69-0.43-1.38-0.86-2.07-1.29c-1.39-0.87-2.78-1.73-4.16-2.61
		c-0.26-0.17-0.38-0.12-0.53,0.14c-0.43,0.73-0.94,1.41-1.48,2.06c-0.88,1.07-1.86,2.05-2.94,2.92c-0.21,0.17-0.25,0.29-0.06,0.5
		c0.32,0.36,0.61,0.74,0.91,1.11c0.93,1.16,1.86,2.31,2.78,3.47c0.38,0.48,0.8,0.92,1.12,1.45c-1.14,0.89-2.32,1.7-3.59,2.39
		c-0.1,0.05-0.2,0.09-0.3,0.13c-0.02-0.06-0.04-0.13-0.07-0.19c-1.17-2.2-2.35-4.4-3.51-6.61c-0.13-0.26-0.24-0.28-0.48-0.15
		c-2,1.08-4.13,1.78-6.38,2.12c-0.27,0.04-0.34,0.12-0.3,0.41c0.24,1.46,0.46,2.93,0.69,4.4c0.17,1.06,0.34,2.11,0.51,3.17
		c-0.06,0.08-0.15,0.09-0.24,0.1c-1.38,0.18-2.77,0.27-4.16,0.24c-0.1,0-0.2,0.01-0.29-0.06c0.03-0.54,0.06-1.09,0.08-1.63
		c0.07-2.03,0.14-4.06,0.22-6.08c0.01-0.22-0.06-0.28-0.28-0.29c-2.32-0.08-4.56-0.53-6.71-1.38c-0.19-0.07-0.28-0.05-0.36,0.16
		c-0.58,1.52-1.18,3.03-1.76,4.55c-0.34,0.89-0.73,1.77-1.01,2.69c-0.81-0.24-1.56-0.63-2.31-1.01c-0.65-0.33-1.32-0.64-1.89-1.11
		c0.06-0.08,0.13-0.15,0.18-0.24c1.3-2.09,2.6-4.18,3.91-6.27c0.13-0.21,0.12-0.31-0.1-0.45c-1.95-1.23-3.66-2.74-5.09-4.54
		c-0.13-0.17-0.22-0.17-0.37-0.04c-0.47,0.39-0.96,0.77-1.44,1.15c-1.55,1.24-3.1,2.48-4.65,3.72c-0.92-1.13-1.73-2.35-2.43-3.62
		c-0.05-0.09-0.08-0.18-0.12-0.27c0.02-0.01,0.05-0.01,0.06-0.02c2.26-1.2,4.53-2.41,6.79-3.6c0.2-0.11,0.2-0.22,0.11-0.4
		c-1.09-2.03-1.81-4.19-2.15-6.47c-0.04-0.24-0.12-0.29-0.35-0.25c-2.54,0.4-5.09,0.79-7.64,1.19c-0.14-0.49-0.16-1-0.21-1.51
		c-0.1-1.05-0.14-2.11-0.1-3.16c0.24,0.05,0.49,0.02,0.73,0.03c2.32,0.08,4.64,0.17,6.96,0.26c0.29,0.01,0.38-0.07,0.39-0.36
		c0.07-2.27,0.53-4.47,1.35-6.59c0.09-0.23,0.08-0.32-0.17-0.42c-1.66-0.63-3.31-1.28-4.96-1.92c-0.75-0.29-1.48-0.62-2.25-0.84
		c0.16-0.62,0.46-1.18,0.73-1.75c0.4-0.84,0.83-1.68,1.36-2.45c0.28,0.18,0.56,0.36,0.84,0.54c1.9,1.19,3.8,2.37,5.69,3.57
		c0.22,0.14,0.33,0.09,0.45-0.11c1.21-1.94,2.7-3.62,4.49-5.05c0.18-0.15,0.22-0.26,0.06-0.46c-0.52-0.63-1.02-1.27-1.53-1.9
		c-1.06-1.32-2.13-2.64-3.19-3.95l0,0.01c-0.04-0.08-0.1-0.16-0.19-0.2c0.95-0.67,1.86-1.38,2.87-1.96
		c0.36-0.21,0.69-0.45,1.08-0.59c0.48,0.9,0.97,1.81,1.45,2.71c0.73,1.38,1.46,2.76,2.19,4.14c0.09,0.17,0.19,0.22,0.37,0.12
		c2.04-1.1,4.22-1.82,6.51-2.17c0.21-0.03,0.28-0.1,0.25-0.32c-0.23-1.4-0.44-2.8-0.65-4.2c-0.18-1.16-0.34-2.32-0.52-3.48
		c1.53-0.24,3.06-0.33,4.6-0.27c0,0.19,0.01,0.38,0,0.57c-0.08,2.36-0.16,4.73-0.25,7.09c-0.01,0.3,0.06,0.4,0.38,0.41
		c2.26,0.07,4.45,0.53,6.55,1.35c0.25,0.1,0.35,0.05,0.44-0.19c0.58-1.53,1.18-3.05,1.77-4.58
		C66.97,129.24,67.3,128.38,67.62,127.51z M71.42,142.86c-0.05-0.07-0.09-0.15-0.15-0.22c-1.12-1.4-2.41-2.63-3.89-3.66
		c-3.42-2.36-7.21-3.49-11.34-3.18c-6.69,0.5-11.7,3.76-14.88,9.66c-2.1,3.9-2.55,8.08-1.55,12.41c0.82,3.54,2.56,6.56,5.22,9.01
		c3.74,3.45,8.19,5.12,13.28,4.81c5.84-0.35,10.5-2.98,13.84-7.79c2.84-4.09,3.72-8.65,2.83-13.54c-0.44-2.42-1.36-4.66-2.77-6.69
		C71.85,143.38,71.65,143.11,71.42,142.86z"/>
	<path class="st8" d="M30.87,143.24c0.77,0.22,1.5,0.56,2.25,0.84c1.66,0.63,3.3,1.29,4.96,1.92c0.25,0.09,0.26,0.19,0.17,0.42
		c-0.82,2.12-1.28,4.32-1.35,6.59c-0.01,0.3-0.1,0.38-0.39,0.36c-2.32-0.1-4.64-0.18-6.96-0.26c-0.24-0.01-0.49,0.02-0.73-0.03
		c-0.01-1.03,0.11-2.04,0.23-3.06c0.13-1.03,0.3-2.05,0.56-3.05C29.96,145.7,30.31,144.43,30.87,143.24z"/>
	<path class="st9" d="M74.55,176.03c-0.31-0.53-0.74-0.97-1.12-1.45c-0.92-1.16-1.85-2.32-2.78-3.47c-0.3-0.37-0.59-0.75-0.91-1.11
		c-0.19-0.21-0.14-0.34,0.06-0.5c1.08-0.87,2.06-1.84,2.94-2.92c0.54-0.66,1.05-1.33,1.48-2.06c0.15-0.26,0.27-0.31,0.53-0.14
		c1.38,0.88,2.78,1.74,4.16,2.61c0.69,0.43,1.38,0.86,2.07,1.29c0.09,0.06,0.18,0.13,0.3,0.12c-0.6,1.08-1.34,2.07-2.11,3.04
		C77.83,173.15,76.28,174.68,74.55,176.03z"/>
	<path class="st9" d="M85.06,149.74c-1.07,0.17-2.13,0.35-3.2,0.52c-1.44,0.23-2.89,0.44-4.33,0.67c-0.28,0.04-0.39,0.01-0.44-0.3
		c-0.34-2.26-1.06-4.39-2.13-6.41c-0.11-0.21-0.1-0.3,0.12-0.41c2.29-1.21,4.57-2.42,6.85-3.63c0.74,1.28,1.33,2.64,1.84,4.03
		c0.6,1.66,1.02,3.36,1.29,5.11C85.07,149.45,85.11,149.59,85.06,149.74z"/>
	<path class="st8" d="M53.13,125.74c0.17,1.16,0.34,2.32,0.52,3.48c0.21,1.4,0.43,2.8,0.65,4.2c0.04,0.22-0.03,0.29-0.25,0.32
		c-2.29,0.35-4.47,1.07-6.51,2.17c-0.19,0.1-0.28,0.05-0.37-0.12c-0.73-1.38-1.45-2.76-2.19-4.14c-0.48-0.91-0.97-1.81-1.45-2.71
		c1.01-0.62,2.1-1.09,3.2-1.52C48.8,126.6,50.93,126.04,53.13,125.74z"/>
	<path class="st8" d="M79.34,136.28c-0.96,0.78-1.92,1.56-2.88,2.34c-1,0.81-2,1.61-3,2.42c-0.37,0.3-0.36,0.3-0.67-0.07
		c-1.39-1.69-3.01-3.14-4.86-4.31c-0.37-0.24-0.38-0.23-0.15-0.6c1.23-1.97,2.47-3.93,3.7-5.9c0.12-0.19,0.23-0.38,0.34-0.57
		c1.05,0.63,2.03,1.35,2.99,2.11c1.61,1.26,3.03,2.71,4.32,4.29C79.21,136.07,79.27,136.18,79.34,136.28z"/>
	<path class="st8" d="M61.13,181.7c-0.17-1.06-0.35-2.11-0.51-3.17c-0.23-1.47-0.45-2.93-0.69-4.4c-0.05-0.28,0.03-0.37,0.3-0.41
		c2.25-0.34,4.38-1.04,6.38-2.12c0.23-0.13,0.34-0.11,0.48,0.15c1.16,2.21,2.34,4.41,3.51,6.61c0.03,0.06,0.05,0.12,0.07,0.19
		c-0.68,0.45-1.43,0.77-2.17,1.1c-2.24,1-4.58,1.66-7,2.05C61.37,181.73,61.25,181.75,61.13,181.7z"/>
	<path class="st8" d="M83.35,164.27c-1.37-0.53-2.75-1.05-4.12-1.58c-1.02-0.39-2.04-0.8-3.06-1.18c-0.25-0.09-0.29-0.21-0.2-0.45
		c0.84-2.13,1.28-4.34,1.35-6.62c0.01-0.25,0.08-0.32,0.33-0.31c2.57,0.1,5.13,0.19,7.7,0.28c0.09,0.78-0.03,1.55-0.1,2.32
		c-0.25,2.51-0.85,4.93-1.76,7.28C83.45,164.09,83.4,164.18,83.35,164.27z"/>
	<path class="st9" d="M29.13,157.74c2.55-0.4,5.09-0.79,7.64-1.19c0.22-0.04,0.31,0.01,0.35,0.25c0.35,2.28,1.06,4.44,2.15,6.47
		c0.1,0.18,0.1,0.29-0.11,0.4c-2.27,1.2-4.53,2.4-6.79,3.6c-0.02,0.01-0.04,0.01-0.06,0.02c-0.4-0.59-0.68-1.25-0.98-1.9
		c-0.76-1.63-1.33-3.32-1.73-5.07C29.39,159.48,29.17,158.63,29.13,157.74z"/>
	<path class="st9" d="M39.59,131.49c0.09,0.04,0.14,0.11,0.19,0.2c0,0,0-0.01,0-0.01c1.06,1.32,2.13,2.64,3.19,3.95
		c0.51,0.63,1.01,1.27,1.53,1.9c0.16,0.2,0.13,0.31-0.06,0.46c-1.78,1.43-3.28,3.11-4.49,5.05c-0.12,0.2-0.24,0.25-0.45,0.11
		c-1.89-1.2-3.8-2.38-5.69-3.57c-0.28-0.18-0.56-0.36-0.84-0.54c0.58-1,1.25-1.95,1.97-2.86c0.8-1,1.67-1.94,2.58-2.84
		c0.57-0.56,1.16-1.08,1.78-1.58C39.4,131.67,39.49,131.58,39.59,131.49z"/>
	<path class="st9" d="M46.6,179.99c0.29-0.91,0.67-1.79,1.01-2.69c0.58-1.52,1.18-3.03,1.76-4.55c0.08-0.22,0.18-0.24,0.36-0.16
		c2.16,0.85,4.4,1.3,6.71,1.38c0.22,0.01,0.29,0.07,0.28,0.29c-0.08,2.03-0.14,4.06-0.22,6.08c-0.02,0.55-0.05,1.09-0.08,1.63
		c-0.5,0.1-1,0.01-1.49-0.02c-2.77-0.19-5.46-0.81-8.05-1.81C46.8,180.1,46.7,180.04,46.6,179.99z"/>
	<path class="st8" d="M34.85,171.2c1.55-1.24,3.1-2.48,4.65-3.72c0.48-0.38,0.96-0.76,1.44-1.15c0.15-0.13,0.24-0.13,0.37,0.04
		c1.44,1.81,3.15,3.31,5.09,4.54c0.21,0.13,0.23,0.23,0.1,0.45c-1.31,2.09-2.61,4.18-3.91,6.27c-0.05,0.08-0.12,0.16-0.18,0.24
		c-0.57-0.24-1.05-0.62-1.56-0.96c-0.86-0.58-1.67-1.23-2.44-1.92c-1.22-1.09-2.38-2.25-3.37-3.56
		C34.98,171.35,34.92,171.27,34.85,171.2z"/>
	<path class="st9" d="M67.62,127.51c-0.33,0.86-0.65,1.73-0.98,2.59c-0.59,1.53-1.19,3.05-1.77,4.58c-0.09,0.25-0.19,0.29-0.44,0.19
		c-2.11-0.82-4.29-1.27-6.55-1.35c-0.31-0.01-0.39-0.11-0.38-0.41c0.09-2.36,0.17-4.73,0.25-7.09c0.01-0.19,0-0.38,0-0.57
		c0.87-0.06,1.73,0.02,2.59,0.13c1.76,0.22,3.5,0.55,5.19,1.09C66.24,126.92,66.96,127.15,67.62,127.51z"/>
	<path class="st13" d="M72.01,143.68c1.4,2.03,2.33,4.27,2.77,6.69c0.89,4.89,0,9.46-2.83,13.54c-3.34,4.8-8,7.44-13.84,7.79
		c-5.09,0.3-9.54-1.36-13.28-4.81c-2.66-2.45-4.4-5.48-5.22-9.01c-1-4.32-0.55-8.51,1.55-12.41c3.18-5.9,8.19-9.16,14.88-9.66
		c4.13-0.31,7.93,0.82,11.34,3.18c1.48,1.02,2.76,2.25,3.89,3.66c0.06,0.07,0.1,0.15,0.15,0.22
		C71.64,143.06,71.84,143.39,72.01,143.68z M64.91,144.94c-4.87-4.31-12.28-3.86-16.59,1c-4.33,4.88-3.87,12.3,1.04,16.64
		c4.84,4.29,12.28,3.8,16.62-1.1C70.23,156.68,69.75,149.23,64.91,144.94z"/>
	<path class="st14" d="M39.77,131.67c0,0,0,0.01,0,0.01S39.77,131.67,39.77,131.67z"/>
	<path class="st12" d="M64.91,144.94c4.84,4.29,5.32,11.74,1.06,16.55c-4.34,4.9-11.78,5.39-16.62,1.1
		c-4.9-4.34-5.36-11.77-1.04-16.64C52.63,141.08,60.04,140.63,64.91,144.94z M49.15,155.5c-0.22,0.26-0.29,0.65-0.12,1.07
		c0.17,0.42,0.5,0.66,0.95,0.69c0.47,0.03,0.83-0.17,1.05-0.58c0.09-0.15,0.17-0.27,0.35-0.32c1.27-0.43,2.54-0.86,3.8-1.3
		c0.18-0.06,0.3-0.06,0.44,0.09c0.35,0.39,0.8,0.6,1.33,0.64c0.16,0.01,0.23,0.07,0.28,0.22c0.44,1.3,0.88,2.6,1.33,3.9
		c0.05,0.13,0.05,0.24-0.01,0.38c-0.29,0.6-0.08,1.22,0.49,1.51c0.54,0.27,1.18,0.07,1.47-0.46c0.3-0.56,0.12-1.2-0.46-1.52
		c-0.14-0.08-0.25-0.16-0.3-0.33c-0.43-1.28-0.87-2.56-1.31-3.83c-0.07-0.19-0.03-0.3,0.11-0.44c0.36-0.34,0.58-0.77,0.61-1.27
		c0.01-0.2,0.1-0.28,0.28-0.34c1.28-0.43,2.56-0.87,3.83-1.31c0.15-0.05,0.27-0.04,0.41,0.02c0.61,0.27,1.23,0.05,1.5-0.52
		c0.26-0.54,0.04-1.2-0.49-1.47c-0.56-0.28-1.2-0.08-1.51,0.5c-0.08,0.16-0.18,0.23-0.34,0.28c-1.27,0.43-2.54,0.86-3.8,1.3
		c-0.18,0.06-0.3,0.05-0.44-0.1c-0.34-0.38-0.78-0.59-1.29-0.63c-0.17-0.01-0.25-0.07-0.3-0.24c-0.43-1.28-0.87-2.56-1.31-3.83
		c-0.06-0.17-0.06-0.3,0.02-0.47c0.27-0.58,0.03-1.22-0.52-1.48c-0.55-0.26-1.2-0.04-1.47,0.48c-0.29,0.56-0.09,1.21,0.49,1.51
		c0.15,0.08,0.24,0.18,0.29,0.34c0.43,1.27,0.86,2.54,1.3,3.8c0.07,0.2,0.04,0.32-0.12,0.46c-0.36,0.33-0.57,0.75-0.6,1.23
		c-0.02,0.22-0.1,0.3-0.3,0.37c-1.26,0.42-2.52,0.85-3.77,1.29c-0.18,0.06-0.32,0.06-0.5-0.03
		C50.06,154.92,49.54,155.05,49.15,155.5z"/>
	<path class="st14" d="M49.15,155.5c0.4-0.45,0.91-0.58,1.35-0.36c0.18,0.09,0.32,0.09,0.5,0.03c1.25-0.43,2.51-0.87,3.77-1.29
		c0.2-0.07,0.28-0.15,0.3-0.37c0.04-0.48,0.25-0.9,0.6-1.23c0.15-0.14,0.19-0.26,0.12-0.46c-0.44-1.26-0.87-2.53-1.3-3.8
		c-0.05-0.16-0.14-0.26-0.29-0.34c-0.58-0.3-0.78-0.95-0.49-1.51c0.27-0.52,0.92-0.74,1.47-0.48c0.55,0.26,0.79,0.9,0.52,1.48
		c-0.08,0.17-0.08,0.31-0.02,0.47c0.44,1.28,0.88,2.55,1.31,3.83c0.06,0.16,0.13,0.22,0.3,0.24c0.51,0.04,0.95,0.25,1.29,0.63
		c0.14,0.15,0.26,0.16,0.44,0.1c1.27-0.44,2.53-0.87,3.8-1.3c0.16-0.05,0.26-0.13,0.34-0.28c0.31-0.58,0.95-0.78,1.51-0.5
		c0.53,0.27,0.75,0.93,0.49,1.47c-0.27,0.57-0.89,0.79-1.5,0.52c-0.14-0.07-0.26-0.07-0.41-0.02c-1.28,0.44-2.55,0.88-3.83,1.31
		c-0.18,0.06-0.26,0.14-0.28,0.34c-0.04,0.5-0.25,0.93-0.61,1.27c-0.14,0.13-0.18,0.25-0.11,0.44c0.44,1.28,0.88,2.55,1.31,3.83
		c0.06,0.16,0.16,0.24,0.3,0.33c0.58,0.32,0.76,0.96,0.46,1.52c-0.29,0.53-0.93,0.73-1.47,0.46c-0.57-0.29-0.78-0.91-0.49-1.51
		c0.07-0.14,0.06-0.25,0.01-0.38c-0.45-1.3-0.89-2.6-1.33-3.9c-0.05-0.15-0.12-0.21-0.28-0.22c-0.52-0.04-0.97-0.25-1.33-0.64
		c-0.14-0.15-0.26-0.15-0.44-0.09c-1.27,0.44-2.53,0.87-3.8,1.3c-0.18,0.06-0.26,0.17-0.35,0.32c-0.23,0.4-0.59,0.61-1.05,0.58
		c-0.45-0.03-0.78-0.27-0.95-0.69C48.86,156.16,48.93,155.77,49.15,155.5z"/>
</g>
<g>
	<path class="st2" d="M570.5,63.81c-0.29,0.88-0.55,1.76-0.86,2.63c-1.28,3.53-3.11,6.76-5.5,9.67c-2.19,2.67-4.74,4.93-7.63,6.81
		c-2.33,1.51-4.82,2.71-7.47,3.58c-3.2,1.06-6.48,1.65-9.86,1.68c-5.85,0.06-11.37-1.26-16.52-4.08c-2.41-1.32-4.6-2.93-6.61-4.8
		c-2.01-1.87-3.75-3.95-5.22-6.25c-2.79-4.35-4.49-9.09-5.06-14.23c-0.19-1.69-0.24-3.39-0.17-5.09c0-0.11,0.03-0.22-0.05-0.32
		c-0.01-0.02-0.02-0.02-0.04-0.01c0.07-0.05,0.07-0.1,0.01-0.15c0,0,0-0.03,0-0.03c0.08-0.05,0.09-0.11,0.03-0.17
		c0.16-0.51,0.16-1.04,0.22-1.56c0.6-5.22,2.32-10.03,5.18-14.43c1.48-2.28,3.24-4.33,5.24-6.18c1.69-1.56,3.51-2.94,5.49-4.11
		c5.13-3.04,10.68-4.61,16.65-4.65c5.8-0.04,11.24,1.36,16.32,4.15c1.03,0.56,2,1.21,2.97,1.85c0.05,0.02,0.1,0.05,0.16,0.07
		c0.52,0.41,1.04,0.83,1.55,1.24c1.18,0.94,2.27,1.96,3.3,3.06c1.15,1.22,2.22,2.51,3.16,3.9c2.49,3.66,4.22,7.64,5.13,11.97
		c0.99,4.73,0.89,9.44-0.11,14.15c-0.02,0.12-0.08,0.23-0.04,0.36c-0.1,0.08-0.14,0.17-0.05,0.28c0,0,0,0.03,0,0.03
		c-0.07,0.04-0.09,0.08-0.03,0.15c0,0-0.01-0.02-0.01-0.02c-0.12,0.07-0.16,0.17-0.08,0.3C570.53,63.67,570.5,63.73,570.5,63.81z
		 M560.04,32.48c-0.96-0.96-2.01-1.81-3.11-2.61c-0.3-0.22-0.57-0.48-0.94-0.59c-0.64-0.55-1.36-0.96-2.08-1.37
		c-1.7-0.97-3.51-1.73-5.35-2.37c-0.9-0.32-1.81-0.61-2.76-0.74c-1.65-0.42-3.33-0.67-5.03-0.77c-2.44-0.19-4.87-0.08-7.29,0.33
		c-1.29,0.22-2.57,0.47-3.8,0.91c-0.45,0.06-0.87,0.25-1.31,0.39c-1.22,0.39-2.37,0.95-3.55,1.45c-0.13,0.07-0.25,0.16-0.38,0.22
		c-0.78,0.4-1.54,0.83-2.28,1.3c-1.2,0.76-2.35,1.57-3.44,2.47c-0.99,0.81-1.92,1.68-2.78,2.63c-0.76,0.71-1.4,1.51-2.04,2.33
		c-0.43,0.55-0.88,1.09-1.19,1.72c-0.88,1.16-1.55,2.44-2.21,3.73c-0.52,1.02-0.94,2.08-1.31,3.16c-0.37,1.07-0.73,2.14-0.96,3.25
		c-0.29,1.13-0.49,2.28-0.62,3.44c-0.06,0.56-0.16,1.11-0.12,1.68c-0.16,0.96-0.12,1.94-0.11,2.9c0.03,1.98,0.26,3.94,0.7,5.87
		c0.18,0.77,0.33,1.54,0.62,2.27c0.02,0.11,0.03,0.22,0.07,0.32c0.46,1.54,1.05,3.04,1.79,4.47c0.05,0.1,0.11,0.19,0.15,0.29
		c0.76,1.64,1.75,3.16,2.81,4.62c0.67,0.92,1.39,1.81,2.19,2.63c0.47,0.48,0.9,1.01,1.46,1.4c0.51,0.64,1.16,1.12,1.78,1.63
		c0.72,0.59,1.43,1.18,2.26,1.63c0.09,0.08,0.18,0.16,0.28,0.23c2.57,1.68,5.32,2.97,8.27,3.81c0.53,0.15,1.04,0.36,1.61,0.37
		c0.08,0.09,0.19,0.11,0.3,0.13c1.5,0.35,3.01,0.58,4.54,0.7c0.1,0.01,0.2,0.02,0.28-0.05c0.12,0.09,0.25,0.09,0.39,0.1
		c2.7,0.14,5.38-0.04,8.03-0.6c0.88-0.18,1.76-0.36,2.6-0.69c0.12-0.02,0.24-0.04,0.36-0.07c1.53-0.46,3-1.06,4.43-1.75
		c2.17-1.06,4.2-2.36,6.07-3.89c1.05-0.87,2.07-1.77,2.97-2.79c0.65-0.62,1.22-1.31,1.77-2.01c0.5-0.63,1.02-1.25,1.4-1.97
		c0.07-0.09,0.15-0.17,0.21-0.26c1.52-2.32,2.73-4.8,3.58-7.45c0.26-0.81,0.56-1.62,0.65-2.48c0.04-0.11,0.1-0.23,0.12-0.34
		c0.34-1.46,0.56-2.94,0.68-4.44c0.01-0.11,0.03-0.22-0.04-0.32c0.09-0.14,0.09-0.3,0.09-0.46c0.11-1.94,0.05-3.88-0.21-5.81
		c-0.22-1.62-0.55-3.22-1.05-4.77c-0.06-0.38-0.2-0.73-0.32-1.09c-0.44-1.27-0.92-2.53-1.56-3.71c-0.05-0.12-0.1-0.25-0.16-0.37
		c-1.03-2-2.22-3.9-3.67-5.63C561.92,34.41,561.02,33.4,560.04,32.48z"/>
	<path class="st12" d="M555.99,29.28c0.36,0.11,0.64,0.38,0.94,0.59c1.1,0.79,2.15,1.65,3.11,2.61c-0.17,0.18-0.33,0.36-0.5,0.54
		c-1.78,1.84-3.57,3.67-5.35,5.51c-0.33,0.34-0.32,0.35,0.02,0.68c1.73,1.7,3.14,3.63,4.25,5.78c0.24,0.47,0.23,0.47,0.71,0.23
		c1.26-0.64,2.53-1.28,3.79-1.92c1.22-0.62,2.44-1.24,3.65-1.86c0.65,1.18,1.13,2.44,1.56,3.71c0.12,0.36,0.26,0.71,0.32,1.09
		c-2.74,0.78-5.48,1.57-8.23,2.34c-0.26,0.07-0.29,0.16-0.22,0.41c0.7,2.42,0.98,4.89,0.82,7.41c-0.02,0.34,0.09,0.41,0.4,0.43
		c1.61,0.08,3.22,0.18,4.83,0.27c1.19,0.07,2.38,0.12,3.57,0.18c0.08,0.1,0.05,0.21,0.04,0.32c-0.11,1.5-0.33,2.98-0.68,4.44
		c-0.03,0.12-0.08,0.23-0.12,0.34c-2.75-0.69-5.5-1.38-8.24-2.07c-0.27-0.07-0.36-0.01-0.43,0.26c-0.61,2.45-1.59,4.73-2.99,6.84
		c-0.16,0.24-0.14,0.37,0.11,0.53c1.02,0.65,2.02,1.32,3.03,1.98c1.36,0.89,2.72,1.77,4.08,2.66c-0.38,0.72-0.9,1.34-1.4,1.97
		c-0.55,0.7-1.12,1.39-1.77,2.01c-0.14-0.01-0.21-0.11-0.3-0.19c-0.64-0.63-1.29-1.25-1.93-1.87c-1.3-1.26-2.6-2.51-3.89-3.78
		c-0.24-0.24-0.38-0.22-0.6,0.03c-0.63,0.69-1.34,1.3-2.07,1.88c-1.2,0.96-2.48,1.78-3.85,2.47c-0.26,0.13-0.34,0.26-0.19,0.53
		c0.26,0.46,0.49,0.94,0.72,1.41c0.73,1.46,1.48,2.92,2.2,4.39c0.3,0.6,0.65,1.18,0.87,1.83c-1.43,0.7-2.9,1.3-4.43,1.75
		c-0.12,0.03-0.24,0.05-0.36,0.07c-0.01-0.07-0.01-0.15-0.03-0.22c-0.76-2.65-1.52-5.29-2.26-7.95c-0.09-0.31-0.2-0.36-0.48-0.27
		c-2.41,0.7-4.87,0.97-7.37,0.82c-0.3-0.02-0.4,0.05-0.42,0.37c-0.08,1.63-0.18,3.27-0.27,4.9c-0.06,1.18-0.12,2.36-0.18,3.54
		c-0.08,0.07-0.18,0.06-0.28,0.05c-1.53-0.12-3.05-0.35-4.54-0.7c-0.11-0.03-0.22-0.04-0.3-0.13c0.15-0.58,0.31-1.16,0.46-1.75
		c0.55-2.17,1.09-4.35,1.64-6.52c0.06-0.24,0-0.32-0.23-0.38c-2.48-0.62-4.8-1.62-6.93-3.04c-0.19-0.12-0.29-0.12-0.43,0.09
		c-0.97,1.51-1.97,3-2.95,4.5c-0.57,0.89-1.19,1.74-1.71,2.66c-0.82-0.44-1.54-1.04-2.26-1.63c-0.62-0.51-1.27-0.99-1.78-1.63
		c0.08-0.07,0.18-0.14,0.25-0.21c1.89-1.95,3.77-3.91,5.66-5.86c0.19-0.2,0.2-0.31,0-0.5c-1.82-1.78-3.31-3.8-4.45-6.08
		c-0.1-0.21-0.2-0.23-0.39-0.13c-0.6,0.31-1.21,0.61-1.81,0.91c-1.96,0.98-3.91,1.96-5.87,2.94c-0.73-1.44-1.32-2.93-1.79-4.47
		c-0.03-0.1-0.04-0.21-0.07-0.32c0.02,0,0.05,0,0.07,0c2.72-0.77,5.44-1.55,8.16-2.32c0.24-0.07,0.27-0.19,0.21-0.41
		c-0.71-2.45-0.98-4.94-0.83-7.48c0.02-0.26-0.07-0.34-0.32-0.35c-2.84-0.15-5.68-0.32-8.52-0.48c-0.04-0.56,0.06-1.12,0.12-1.68
		c0.13-1.16,0.33-2.31,0.62-3.44c0.25,0.11,0.52,0.14,0.78,0.2c2.48,0.62,4.97,1.25,7.45,1.89c0.31,0.08,0.42,0.02,0.5-0.3
		c0.6-2.44,1.6-4.7,2.98-6.8c0.15-0.22,0.16-0.33-0.09-0.49c-1.64-1.06-3.27-2.15-4.91-3.21c-0.74-0.48-1.45-1.01-2.24-1.43
		c0.31-0.63,0.77-1.17,1.19-1.72c0.63-0.82,1.28-1.62,2.04-2.33c0.26,0.26,0.52,0.52,0.79,0.78c1.77,1.72,3.55,3.44,5.32,5.17
		c0.2,0.2,0.33,0.17,0.51-0.01c1.75-1.81,3.75-3.29,6.01-4.42c0.23-0.12,0.3-0.23,0.17-0.48c-0.42-0.8-0.81-1.6-1.21-2.4
		c-0.84-1.67-1.69-3.34-2.53-5l0,0.01c-0.03-0.1-0.07-0.19-0.16-0.26c1.18-0.5,2.33-1.06,3.55-1.45c0.43-0.14,0.85-0.32,1.31-0.39
		c0.31,1.09,0.63,2.17,0.94,3.26c0.47,1.66,0.94,3.32,1.4,4.98c0.06,0.21,0.15,0.28,0.37,0.21c2.46-0.71,4.97-0.99,7.53-0.84
		c0.24,0.01,0.33-0.05,0.34-0.29c0.08-1.56,0.17-3.12,0.26-4.69c0.08-1.29,0.16-2.58,0.24-3.87c1.7,0.09,3.38,0.35,5.03,0.77
		c-0.04,0.2-0.08,0.41-0.13,0.61c-0.63,2.53-1.26,5.06-1.9,7.59c-0.08,0.32-0.02,0.44,0.31,0.53c2.42,0.6,4.68,1.59,6.76,2.96
		c0.25,0.16,0.36,0.14,0.52-0.11c0.98-1.52,1.98-3.02,2.97-4.54C554.89,31,555.44,30.14,555.99,29.28z M556.54,46.72
		c-0.04-0.09-0.06-0.19-0.11-0.28c-0.89-1.77-1.99-3.4-3.35-4.84c-3.14-3.34-6.98-5.43-11.51-6.05c-7.33-1-13.49,1.35-18.29,6.99
		c-3.17,3.73-4.62,8.13-4.54,13.03c0.07,4,1.25,7.67,3.55,10.93c3.24,4.59,7.66,7.41,13.21,8.26c6.39,0.97,12.02-0.8,16.73-5.21
		c4-3.75,6.01-8.47,6.18-13.96c0.08-2.71-0.4-5.34-1.44-7.85C556.89,47.38,556.74,47.04,556.54,46.72z"/>
	<path class="st8" d="M512.7,37.77c0.78,0.42,1.49,0.95,2.24,1.43c1.64,1.07,3.27,2.15,4.91,3.21c0.24,0.16,0.23,0.26,0.09,0.49
		c-1.37,2.1-2.38,4.36-2.98,6.8c-0.08,0.32-0.19,0.38-0.5,0.3c-2.48-0.64-4.96-1.27-7.45-1.89c-0.26-0.07-0.53-0.09-0.78-0.2
		c0.23-1.11,0.59-2.18,0.96-3.25c0.37-1.08,0.79-2.15,1.31-3.16C511.15,40.21,511.82,38.93,512.7,37.77z"/>
	<path class="st9" d="M552.27,83.24c-0.22-0.64-0.57-1.22-0.87-1.83c-0.72-1.47-1.46-2.93-2.2-4.39c-0.24-0.47-0.47-0.95-0.72-1.41
		c-0.15-0.27-0.08-0.4,0.19-0.53c1.37-0.69,2.65-1.51,3.85-2.47c0.73-0.58,1.44-1.2,2.07-1.88c0.23-0.25,0.36-0.27,0.6-0.03
		c1.29,1.27,2.59,2.52,3.89,3.78c0.64,0.62,1.29,1.25,1.93,1.87c0.09,0.09,0.17,0.18,0.3,0.19c-0.9,1.03-1.92,1.93-2.97,2.79
		C556.47,80.88,554.44,82.17,552.27,83.24z"/>
	<path class="st9" d="M569.67,57.29c-1.19-0.06-2.38-0.12-3.57-0.18c-1.61-0.09-3.22-0.19-4.83-0.27c-0.31-0.02-0.42-0.08-0.4-0.43
		c0.16-2.52-0.13-4.99-0.82-7.41c-0.07-0.25-0.04-0.34,0.22-0.41c2.75-0.77,5.49-1.56,8.23-2.34c0.51,1.56,0.83,3.15,1.05,4.77
		c0.27,1.93,0.33,3.87,0.21,5.81C569.75,56.98,569.76,57.15,569.67,57.29z"/>
	<path class="st8" d="M540.76,24.03c-0.08,1.29-0.17,2.58-0.24,3.87c-0.09,1.56-0.18,3.12-0.26,4.69c-0.01,0.25-0.1,0.31-0.34,0.29
		c-2.56-0.15-5.07,0.12-7.53,0.84c-0.22,0.06-0.31-0.01-0.37-0.21c-0.46-1.66-0.93-3.32-1.4-4.98c-0.31-1.09-0.62-2.17-0.94-3.26
		c1.23-0.44,2.51-0.69,3.8-0.91C535.89,23.95,538.32,23.84,540.76,24.03z"/>
	<path class="st8" d="M566.61,41.45c-1.22,0.62-2.43,1.24-3.65,1.86c-1.26,0.64-2.53,1.27-3.79,1.92c-0.47,0.24-0.46,0.24-0.71-0.23
		c-1.11-2.15-2.53-4.08-4.25-5.78c-0.35-0.34-0.36-0.34-0.02-0.68c1.78-1.84,3.57-3.67,5.35-5.51c0.17-0.18,0.34-0.36,0.5-0.54
		c0.99,0.92,1.88,1.93,2.75,2.96c1.45,1.73,2.64,3.63,3.67,5.63C566.51,41.19,566.56,41.32,566.61,41.45z"/>
	<path class="st8" d="M536.47,86.25c0.06-1.18,0.11-2.36,0.18-3.54c0.09-1.63,0.2-3.27,0.27-4.9c0.01-0.31,0.12-0.39,0.42-0.37
		c2.5,0.15,4.96-0.11,7.37-0.82c0.28-0.08,0.39-0.04,0.48,0.27c0.74,2.65,1.51,5.3,2.26,7.95c0.02,0.07,0.02,0.14,0.03,0.22
		c-0.84,0.33-1.72,0.5-2.6,0.69c-2.65,0.56-5.33,0.74-8.03,0.6C536.73,86.34,536.59,86.34,536.47,86.25z"/>
	<path class="st8" d="M564.48,72.57c-1.36-0.89-2.72-1.77-4.08-2.66c-1.01-0.66-2.01-1.33-3.03-1.98c-0.25-0.16-0.27-0.29-0.11-0.53
		c1.4-2.1,2.38-4.39,2.99-6.84c0.07-0.27,0.16-0.33,0.43-0.26c2.75,0.7,5.5,1.38,8.24,2.07c-0.09,0.86-0.39,1.67-0.65,2.48
		c-0.85,2.65-2.06,5.12-3.58,7.45C564.63,72.41,564.55,72.49,564.48,72.57z"/>
	<path class="st9" d="M507.48,53.02c2.84,0.16,5.68,0.32,8.52,0.48c0.25,0.01,0.33,0.09,0.32,0.35c-0.15,2.54,0.12,5.04,0.83,7.48
		c0.06,0.22,0.04,0.34-0.21,0.41c-2.72,0.77-5.44,1.55-8.16,2.32c-0.02,0.01-0.05,0-0.07,0c-0.29-0.73-0.44-1.51-0.62-2.27
		c-0.44-1.93-0.67-3.89-0.7-5.87C507.36,54.96,507.32,53.98,507.48,53.02z"/>
	<path class="st9" d="M524.82,27.1c0.09,0.06,0.13,0.16,0.16,0.26c0,0,0-0.01,0-0.01c0.84,1.67,1.69,3.33,2.53,5
		c0.41,0.8,0.8,1.61,1.21,2.4c0.13,0.25,0.07,0.36-0.17,0.48c-2.25,1.13-4.26,2.6-6.01,4.42c-0.18,0.19-0.31,0.21-0.51,0.01
		c-1.77-1.73-3.55-3.44-5.32-5.17c-0.26-0.26-0.52-0.52-0.79-0.78c0.86-0.95,1.8-1.81,2.78-2.63c1.09-0.9,2.25-1.71,3.44-2.47
		c0.74-0.47,1.5-0.9,2.28-1.3C524.57,27.26,524.69,27.18,524.82,27.1z"/>
	<path class="st9" d="M521.2,81.05c0.52-0.92,1.14-1.78,1.71-2.66c0.98-1.51,1.98-3,2.95-4.5c0.14-0.22,0.24-0.22,0.43-0.09
		c2.13,1.42,4.45,2.42,6.93,3.04c0.23,0.06,0.3,0.14,0.23,0.38c-0.55,2.17-1.09,4.34-1.64,6.52c-0.15,0.58-0.31,1.16-0.46,1.75
		c-0.56-0.01-1.08-0.22-1.61-0.37c-2.95-0.85-5.7-2.13-8.27-3.81C521.38,81.22,521.29,81.13,521.2,81.05z"/>
	<path class="st8" d="M510.55,68.86c1.96-0.98,3.91-1.96,5.87-2.94c0.6-0.3,1.21-0.6,1.81-0.91c0.2-0.1,0.29-0.08,0.39,0.13
		c1.13,2.28,2.63,4.3,4.45,6.08c0.2,0.19,0.19,0.31,0,0.5c-1.89,1.95-3.78,3.91-5.66,5.86c-0.08,0.08-0.17,0.14-0.25,0.21
		c-0.56-0.39-0.99-0.91-1.46-1.4c-0.8-0.82-1.52-1.71-2.19-2.63c-1.06-1.46-2.05-2.97-2.81-4.62
		C510.65,69.05,510.6,68.96,510.55,68.86z"/>
	<path class="st9" d="M555.99,29.28c-0.55,0.86-1.1,1.72-1.66,2.57c-0.99,1.51-1.99,3.02-2.97,4.54c-0.16,0.25-0.27,0.27-0.52,0.11
		c-2.08-1.37-4.34-2.37-6.76-2.96c-0.33-0.08-0.39-0.21-0.31-0.53c0.64-2.53,1.27-5.06,1.9-7.59c0.05-0.2,0.08-0.41,0.13-0.61
		c0.95,0.13,1.86,0.42,2.76,0.74c1.85,0.65,3.65,1.41,5.35,2.37C554.63,28.32,555.35,28.74,555.99,29.28z"/>
	<path class="st13" d="M556.99,47.74c1.05,2.51,1.53,5.14,1.44,7.85c-0.17,5.48-2.18,10.2-6.18,13.96
		c-4.71,4.41-10.34,6.18-16.73,5.21c-5.56-0.85-9.98-3.67-13.21-8.26c-2.3-3.26-3.48-6.92-3.55-10.93
		c-0.08-4.9,1.37-9.31,4.54-13.03c4.79-5.64,10.95-7.99,18.29-6.99c4.53,0.62,8.37,2.71,11.51,6.05c1.36,1.45,2.46,3.07,3.35,4.84
		c0.04,0.09,0.07,0.18,0.11,0.27C556.73,46.99,556.87,47.39,556.99,47.74z M549.04,47.46c-4.26-5.77-12.36-7-18.14-2.75
		c-5.79,4.26-7.01,12.38-2.72,18.2c4.24,5.75,12.38,6.94,18.19,2.65C552.07,61.36,553.27,53.21,549.04,47.46z"/>
	<path class="st14" d="M524.98,27.34c0,0,0,0.01,0,0.01C524.98,27.36,524.98,27.34,524.98,27.34z"/>
	<path class="st12" d="M549.04,47.46c4.24,5.74,3.03,13.89-2.67,18.1c-5.81,4.28-13.95,3.1-18.19-2.65
		c-4.29-5.82-3.07-13.93,2.72-18.2C536.68,40.46,544.77,41.69,549.04,47.46z M529.59,55.22c-0.29,0.23-0.47,0.64-0.38,1.13
		c0.09,0.49,0.39,0.82,0.87,0.96c0.5,0.15,0.93,0.01,1.27-0.38c0.13-0.15,0.25-0.25,0.45-0.27c1.47-0.17,2.94-0.34,4.4-0.52
		c0.21-0.03,0.34,0,0.45,0.2c0.29,0.5,0.73,0.83,1.28,0.99c0.17,0.05,0.23,0.13,0.25,0.3c0.17,1.5,0.35,3.01,0.54,4.51
		c0.02,0.15,0,0.27-0.1,0.41c-0.45,0.58-0.37,1.3,0.18,1.74c0.52,0.42,1.26,0.35,1.69-0.16c0.46-0.53,0.4-1.26-0.15-1.75
		c-0.14-0.12-0.23-0.23-0.25-0.42c-0.17-1.48-0.35-2.96-0.53-4.44c-0.03-0.22,0.04-0.33,0.22-0.44c0.47-0.28,0.8-0.7,0.95-1.23
		c0.06-0.22,0.17-0.28,0.38-0.3c1.48-0.17,2.96-0.34,4.44-0.53c0.17-0.02,0.3,0.02,0.44,0.12c0.59,0.44,1.31,0.34,1.74-0.22
		c0.4-0.52,0.32-1.28-0.19-1.69c-0.54-0.43-1.28-0.36-1.75,0.19c-0.13,0.15-0.25,0.21-0.43,0.23c-1.47,0.17-2.94,0.35-4.4,0.53
		c-0.21,0.03-0.34-0.01-0.45-0.21c-0.28-0.49-0.71-0.82-1.25-0.98c-0.18-0.05-0.25-0.13-0.27-0.33c-0.17-1.48-0.35-2.96-0.53-4.44
		c-0.02-0.19,0.01-0.34,0.13-0.51c0.42-0.56,0.31-1.31-0.22-1.71c-0.53-0.4-1.28-0.32-1.7,0.18c-0.44,0.54-0.37,1.29,0.18,1.75
		c0.15,0.12,0.21,0.25,0.23,0.43c0.17,1.47,0.34,2.94,0.53,4.4c0.03,0.23-0.04,0.36-0.23,0.47c-0.46,0.27-0.78,0.68-0.94,1.19
		c-0.07,0.23-0.18,0.3-0.41,0.33c-1.46,0.16-2.91,0.34-4.37,0.52c-0.21,0.03-0.36-0.01-0.54-0.15
		C530.71,54.81,530.13,54.83,529.59,55.22z"/>
	<path class="st14" d="M529.59,55.22c0.53-0.39,1.12-0.41,1.54-0.08c0.17,0.14,0.33,0.18,0.54,0.15c1.45-0.18,2.91-0.35,4.37-0.52
		c0.23-0.03,0.34-0.1,0.41-0.33c0.15-0.51,0.48-0.92,0.94-1.19c0.2-0.12,0.26-0.24,0.23-0.47c-0.19-1.47-0.36-2.93-0.53-4.4
		c-0.02-0.18-0.09-0.31-0.23-0.43c-0.55-0.46-0.62-1.21-0.18-1.75c0.41-0.5,1.17-0.58,1.7-0.18c0.53,0.4,0.64,1.15,0.22,1.71
		c-0.12,0.17-0.15,0.31-0.13,0.51c0.18,1.48,0.36,2.96,0.53,4.44c0.02,0.19,0.09,0.27,0.27,0.33c0.54,0.16,0.97,0.49,1.25,0.98
		c0.11,0.19,0.24,0.23,0.45,0.21c1.47-0.18,2.93-0.36,4.4-0.53c0.18-0.02,0.31-0.08,0.43-0.23c0.47-0.56,1.21-0.63,1.75-0.19
		c0.51,0.41,0.59,1.17,0.19,1.69c-0.43,0.56-1.14,0.65-1.74,0.22c-0.14-0.1-0.27-0.14-0.44-0.12c-1.48,0.18-2.96,0.36-4.44,0.53
		c-0.21,0.02-0.32,0.09-0.38,0.3c-0.15,0.53-0.48,0.94-0.95,1.23c-0.18,0.11-0.25,0.23-0.22,0.44c0.19,1.48,0.36,2.96,0.53,4.44
		c0.02,0.19,0.11,0.3,0.25,0.42c0.55,0.48,0.6,1.21,0.15,1.75c-0.43,0.51-1.17,0.58-1.69,0.16c-0.55-0.44-0.63-1.16-0.18-1.74
		c0.1-0.13,0.12-0.25,0.1-0.41c-0.18-1.5-0.36-3.01-0.54-4.51c-0.02-0.17-0.08-0.25-0.25-0.3c-0.56-0.16-0.99-0.49-1.28-0.99
		c-0.12-0.2-0.25-0.22-0.45-0.2c-1.47,0.18-2.93,0.36-4.4,0.52c-0.21,0.02-0.32,0.12-0.45,0.27c-0.34,0.38-0.77,0.52-1.27,0.38
		c-0.48-0.14-0.78-0.47-0.87-0.96C529.13,55.86,529.3,55.46,529.59,55.22z"/>
</g>
<path class="st4" d="M257.93,67.04l-2.87-4.67l3.37-14.24c0.46-2.02,0.68-3.72,0.64-5.1c-0.03-1.38-0.38-2.61-1.04-3.69
	c-0.81-1.31-1.79-2.11-2.97-2.41c-1.17-0.29-2.37-0.06-3.61,0.7c-1.36,0.84-2.19,1.89-2.48,3.14s-0.01,2.58,0.84,3.97L245,47.71
	c-1.08-1.82-1.64-3.61-1.68-5.37c-0.04-1.77,0.41-3.44,1.36-5.01c0.95-1.57,2.35-2.93,4.2-4.07c1.78-1.09,3.53-1.7,5.25-1.84
	c1.72-0.14,3.32,0.18,4.78,0.95c1.46,0.77,2.71,1.99,3.74,3.66c1.06,1.72,1.65,3.68,1.76,5.86s-0.23,4.81-1.03,7.89l-2.34,9.35
	l11.81-7.25l2.68,4.36L257.93,67.04z"/>
<path class="st4" d="M283.39,51.62c-2.11-0.38-3.87-1.1-5.27-2.18c-1.4-1.08-2.4-2.42-2.99-4.03c-0.59-1.61-0.71-3.39-0.36-5.36
	l2.49-14c0.35-1.96,1.08-3.6,2.18-4.9c1.11-1.31,2.5-2.22,4.19-2.75c1.69-0.53,3.59-0.6,5.7-0.23c2.14,0.38,3.91,1.11,5.29,2.18
	c1.39,1.08,2.38,2.42,2.97,4.02c0.59,1.61,0.71,3.39,0.36,5.36l-2.49,14c-0.35,1.96-1.08,3.6-2.18,4.9
	c-1.11,1.31-2.51,2.22-4.19,2.75C287.41,51.92,285.51,51.99,283.39,51.62z M284.25,46.8c1.55,0.27,2.86,0.05,3.94-0.68
	c1.08-0.73,1.75-1.83,2.02-3.32l2.49-14c0.26-1.49,0.02-2.76-0.75-3.81c-0.76-1.06-1.92-1.72-3.46-2c-1.55-0.27-2.86-0.05-3.94,0.68
	c-1.08,0.73-1.75,1.84-2.02,3.32l-2.49,14c-0.26,1.49-0.02,2.76,0.75,3.81C281.55,45.86,282.71,46.53,284.25,46.8z M285.85,37.79
	c-0.86-0.15-1.52-0.56-1.97-1.22c-0.45-0.66-0.59-1.44-0.44-2.33c0.16-0.89,0.55-1.56,1.18-2c0.63-0.44,1.39-0.58,2.28-0.42
	c0.89,0.16,1.56,0.55,2,1.18c0.44,0.63,0.58,1.39,0.42,2.28c-0.16,0.89-0.56,1.57-1.19,2.04C287.51,37.79,286.75,37.95,285.85,37.79
	z"/>
<path class="st4" d="M297.58,49.13l1.93-5.13l13.33-6.06c1.88-0.87,3.35-1.74,4.42-2.62c1.07-0.87,1.83-1.9,2.28-3.09
	c0.54-1.44,0.57-2.71,0.08-3.82c-0.49-1.1-1.41-1.91-2.77-2.42c-1.5-0.57-2.83-0.58-4.01-0.03c-1.17,0.54-2.05,1.58-2.62,3.1l-5.3-2
	c0.77-1.97,1.85-3.51,3.22-4.62c1.37-1.11,2.97-1.78,4.79-1.99c1.82-0.21,3.75,0.06,5.79,0.83c1.95,0.74,3.51,1.74,4.67,3.02
	c1.16,1.28,1.89,2.73,2.18,4.36c0.29,1.63,0.09,3.36-0.6,5.19c-0.71,1.89-1.9,3.55-3.55,4.98c-1.65,1.43-3.94,2.77-6.87,4.02
	l-8.82,3.88l12.97,4.89l-1.81,4.79L297.58,49.13z"/>
<path class="st4" d="M325.96,52.44l1.85-5.16L341.03,41c1.86-0.9,3.32-1.8,4.38-2.69c1.06-0.89,1.8-1.93,2.23-3.12
	c0.52-1.45,0.53-2.72,0.02-3.82c-0.51-1.1-1.44-1.89-2.81-2.38c-1.51-0.54-2.84-0.53-4.01,0.03c-1.16,0.56-2.02,1.61-2.57,3.14
	l-5.33-1.91c0.74-1.98,1.79-3.54,3.14-4.67c1.35-1.14,2.94-1.83,4.76-2.07c1.82-0.25,3.75,0,5.8,0.73c1.96,0.7,3.53,1.68,4.72,2.94
	c1.18,1.26,1.94,2.7,2.25,4.32c0.32,1.62,0.15,3.36-0.52,5.2c-0.68,1.9-1.84,3.58-3.47,5.04c-1.63,1.45-3.89,2.83-6.8,4.13
	l-8.76,4.03l13.05,4.67l-1.73,4.82L325.96,52.44z"/>
<path class="st4" d="M232.72,117.89l5.51-32.61l5.58,0.94l-2.21,13.09l8.75,1.48l2.21-13.09l5.58,0.94l-5.51,32.61l-5.58-0.94
	l2.42-14.34l-8.75-1.48l-2.42,14.34L232.72,117.89z"/>
<path class="st4" d="M278.74,118.52c-1.93,0.86-3.77,1.25-5.51,1.15c-1.75-0.09-3.31-0.63-4.7-1.62c-1.38-0.98-2.48-2.39-3.3-4.21
	l-2.52-5.62c-0.81-1.82-1.13-3.57-0.94-5.26c0.19-1.69,0.83-3.22,1.92-4.58c1.09-1.37,2.6-2.48,4.53-3.34
	c1.96-0.88,3.8-1.26,5.54-1.16c1.73,0.1,3.29,0.64,4.68,1.63c1.38,0.99,2.48,2.37,3.28,4.17l2.53,5.66
	c0.81,1.82,1.13,3.57,0.94,5.26c-0.19,1.69-0.82,3.21-1.9,4.57C282.22,116.52,280.7,117.64,278.74,118.52z M276.72,114.01
	c1.38-0.62,2.28-1.47,2.7-2.57c0.42-1.1,0.31-2.36-0.33-3.8l-2.52-5.62c-0.65-1.46-1.53-2.39-2.62-2.8c-1.09-0.4-2.33-0.3-3.7,0.32
	c-1.35,0.6-2.25,1.45-2.68,2.54s-0.33,2.36,0.32,3.83l2.52,5.62c0.64,1.43,1.52,2.36,2.63,2.77
	C274.14,114.71,275.37,114.61,276.72,114.01z"/>
<path class="st4" d="M297.82,120.35c-3.04-0.92-5.16-2.49-6.39-4.7c-1.22-2.22-1.39-4.78-0.51-7.7l4.49-14.83l5.42,1.64l-4.47,14.79
	c-0.46,1.53-0.44,2.82,0.06,3.88c0.5,1.05,1.45,1.79,2.83,2.21c1.36,0.41,2.55,0.32,3.56-0.27c1.01-0.59,1.75-1.65,2.22-3.19
	l4.47-14.79l5.42,1.64l-4.49,14.83c-0.88,2.92-2.46,4.96-4.74,6.12C303.42,121.12,300.79,121.25,297.82,120.35z"/>
<path class="st4" d="M328.54,114.07c-1.88,0.29-3.57,0.24-5.06-0.14c-1.49-0.38-2.72-1.04-3.67-1.98c-0.95-0.94-1.57-2.12-1.85-3.54
	l5.6-0.86c0.18,0.77,0.66,1.34,1.43,1.71c0.77,0.37,1.73,0.47,2.86,0.29l1.97-0.3c1.37-0.21,2.36-0.64,2.97-1.28
	c0.6-0.64,0.84-1.43,0.69-2.35c-0.13-0.86-0.54-1.5-1.23-1.9c-0.69-0.4-1.68-0.57-2.99-0.53l-3.11,0.02
	c-2.87,0.04-5.04-0.39-6.52-1.29c-1.48-0.9-2.39-2.46-2.73-4.67c-0.35-2.3,0.15-4.2,1.51-5.71c1.36-1.51,3.54-2.49,6.56-2.95
	l1.7-0.26c2.75-0.42,5.03-0.14,6.86,0.83c1.83,0.97,2.96,2.48,3.4,4.52l-5.6,0.86c-0.19-0.64-0.64-1.12-1.34-1.44
	c-0.71-0.32-1.58-0.4-2.63-0.24l-1.7,0.26c-1.28,0.2-2.18,0.57-2.69,1.12c-0.51,0.55-0.7,1.27-0.56,2.17
	c0.13,0.84,0.48,1.42,1.05,1.74c0.57,0.33,1.43,0.49,2.6,0.5l3.25-0.04c2.99-0.03,5.27,0.42,6.83,1.36
	c1.56,0.94,2.52,2.53,2.86,4.76c0.37,2.39-0.16,4.37-1.59,5.95c-1.42,1.58-3.72,2.61-6.88,3.09L328.54,114.07z"/>
<path class="st4" d="M353.3,119.37c-2.1-0.24-3.88-0.86-5.35-1.85c-1.47-0.99-2.54-2.26-3.23-3.82c-0.69-1.55-0.92-3.31-0.69-5.26
	l0.72-6.21c0.23-1.95,0.85-3.6,1.87-4.96c1.02-1.36,2.36-2.35,4.02-2.98c1.65-0.63,3.53-0.82,5.63-0.58
	c2.07,0.24,3.83,0.85,5.28,1.84c1.45,0.99,2.52,2.26,3.21,3.81c0.69,1.55,0.92,3.31,0.69,5.26l-0.52,4.45l-15.25-1.77l-0.2,1.75
	c-0.2,1.74,0.07,3.1,0.8,4.08c0.74,0.98,1.93,1.57,3.58,1.76c1.26,0.15,2.3,0.05,3.14-0.3c0.83-0.34,1.4-0.92,1.71-1.74l5.54,0.64
	c-0.67,2.08-2,3.65-3.99,4.71C358.26,119.3,355.94,119.67,353.3,119.37z M359.85,105.31l0.16-1.35c0.2-1.71-0.05-3.07-0.76-4.08
	c-0.7-1.01-1.87-1.61-3.49-1.79s-2.9,0.13-3.85,0.97c-0.95,0.83-1.52,2.1-1.72,3.81l-0.11,0.94l10.23,1.09L359.85,105.31z"/>
<path class="st4" d="M195.28,167.61c-2.25,0.29-4.24,0.16-5.98-0.38c-1.74-0.54-3.15-1.45-4.2-2.73c-1.06-1.28-1.73-2.86-1.99-4.75
	l5.62-0.71c0.17,1.35,0.79,2.34,1.86,2.98c1.07,0.64,2.44,0.85,4.12,0.64c1.62-0.21,2.84-0.74,3.65-1.6
	c0.82-0.86,1.14-1.96,0.98-3.27c-0.14-1.11-0.59-2.03-1.33-2.78c-0.75-0.74-1.74-1.19-2.98-1.34l-3.91-0.55
	c-2.66-0.33-4.79-1.26-6.4-2.79s-2.57-3.51-2.88-5.94c-0.24-1.86-0.02-3.53,0.64-5.01c0.66-1.48,1.72-2.7,3.17-3.64
	c1.45-0.94,3.22-1.55,5.32-1.82c3.18-0.4,5.8,0.09,7.86,1.49c2.06,1.4,3.29,3.47,3.67,6.22l-5.62,0.71
	c-0.16-1.29-0.71-2.25-1.64-2.87c-0.93-0.63-2.16-0.84-3.69-0.65c-1.47,0.19-2.56,0.67-3.28,1.47c-0.72,0.79-1,1.82-0.84,3.08
	c0.14,1.14,0.57,2.07,1.29,2.78c0.71,0.72,1.68,1.16,2.89,1.35l4.05,0.58c2.69,0.33,4.83,1.25,6.43,2.77
	c1.59,1.52,2.55,3.52,2.86,6.01c0.24,1.86-0.01,3.56-0.72,5.09c-0.72,1.54-1.84,2.8-3.36,3.78
	C199.32,166.7,197.47,167.33,195.28,167.61z"/>
<path class="st4" d="M217.93,167.98l-2.05-4.74l7.98-3.46l-5.82-13.43l-6.94,3.01l-2.03-4.7l11.93-5.17l7.85,18.12l7.07-3.06
	l2.05,4.74L217.93,167.98z M216.43,136.94c-1.05,0.46-2,0.55-2.84,0.27c-0.84-0.28-1.46-0.87-1.86-1.79
	c-0.4-0.91-0.41-1.77-0.03-2.58c0.38-0.8,1.09-1.43,2.14-1.89c1.05-0.46,2-0.55,2.84-0.27c0.84,0.28,1.46,0.87,1.86,1.79
	c0.4,0.91,0.41,1.77,0.03,2.58C218.19,135.85,217.48,136.48,216.43,136.94z"/>
<path class="st4" d="M232.76,170.54l12.58-21.51l3.99,2.33l-1.69,2.89l0.82,0.48l-1.08,0.32c0.7-1.2,1.6-1.97,2.71-2.3
	s2.19-0.19,3.26,0.44c1.15,0.67,1.77,1.66,1.86,2.97c0.09,1.31-0.33,2.76-1.26,4.35l0.26-2.42l1.33,0.78l-0.92,0.41
	c0.7-1.2,1.6-1.97,2.71-2.3c1.1-0.33,2.22-0.17,3.34,0.48c1.33,0.78,2.1,1.89,2.3,3.34c0.2,1.45-0.19,3.02-1.18,4.71l-9.58,16.39
	l-4.3-2.52l9.47-16.19c0.41-0.7,0.58-1.35,0.5-1.94c-0.08-0.59-0.41-1.06-1.01-1.41c-0.57-0.34-1.14-0.4-1.69-0.2
	c-0.55,0.2-1.04,0.67-1.47,1.4l-9.47,16.19l-3.52-2.06l9.47-16.19c0.43-0.73,0.6-1.38,0.51-1.96c-0.08-0.57-0.43-1.04-1.03-1.39
	c-0.6-0.35-1.16-0.42-1.69-0.2c-0.53,0.22-1.01,0.69-1.43,1.42l-9.47,16.19L232.76,170.54z"/>
<path class="st4" d="M280.07,167.55c-2.87,1.34-5.5,1.6-7.89,0.76c-2.39-0.83-4.23-2.63-5.52-5.4l-6.56-14.04l5.13-2.4l6.54,14
	c0.68,1.45,1.55,2.4,2.63,2.85c1.07,0.45,2.27,0.36,3.58-0.25c1.29-0.6,2.11-1.46,2.47-2.58c0.36-1.12,0.2-2.4-0.47-3.85l-6.54-14
	l5.13-2.4l6.56,14.04c1.29,2.76,1.48,5.34,0.55,7.72C284.76,164.39,282.89,166.24,280.07,167.55z"/>
<path class="st4" d="M297.2,172.2c-1.53-0.57-2.75-1.39-3.66-2.44c-0.91-1.05-1.48-2.27-1.7-3.66c-0.22-1.39-0.05-2.83,0.51-4.33
	l6.99-18.62l-7.47-2.8l1.8-4.79l12.77,4.79l-8.79,23.41c-0.32,0.85-0.32,1.61-0.01,2.29c0.31,0.68,0.89,1.18,1.74,1.5l7.04,2.64
	l-1.8,4.79L297.2,172.2z"/>
<path class="st4" d="M331.02,167.72c-2.39,0.94-4.52,1.05-6.4,0.32c-1.87-0.72-3.23-2.15-4.07-4.29c-0.9-2.28-0.83-4.33,0.2-6.17
	c1.03-1.83,2.94-3.3,5.72-4.39l5.78-2.27l-0.78-1.98c-0.44-1.12-1.15-1.86-2.13-2.2c-0.98-0.34-2.1-0.27-3.37,0.23
	c-1.15,0.45-2.01,1.08-2.57,1.89c-0.56,0.8-0.74,1.67-0.54,2.6l-5.14,2.02c-0.61-2.29-0.31-4.42,0.9-6.39
	c1.21-1.97,3.14-3.48,5.81-4.53c2.84-1.12,5.36-1.29,7.56-0.51c2.2,0.77,3.78,2.37,4.73,4.79l6.18,15.72l-5.1,2.01l-1.59-4.05
	l-0.84,0.33l0.4-1.47c0.67,1.71,0.58,3.33-0.29,4.84C334.61,165.72,333.13,166.89,331.02,167.72z M331.19,163.07
	c1.49-0.59,2.56-1.44,3.2-2.57c0.64-1.13,0.73-2.3,0.25-3.51l-1.11-2.82l-5.69,2.24c-1.07,0.42-1.8,1.07-2.21,1.94
	c-0.4,0.87-0.41,1.82-0.01,2.83c0.43,1.1,1.14,1.81,2.14,2.15S329.9,163.58,331.19,163.07z"/>
<path class="st4" d="M353.54,172.62c-2.3-0.63-3.93-1.76-4.87-3.4c-0.95-1.64-1.11-3.58-0.5-5.82l3.25-11.89l-6.51-1.78l1.35-4.94
	l6.51,1.78l1.85-6.77l5.51,1.5l-1.85,6.77l9.22,2.52l-1.35,4.94l-9.22-2.52l-3.25,11.89c-0.41,1.51,0.12,2.48,1.61,2.88l6.55,1.79
	l-1.35,4.94L353.54,172.62z"/>
<path class="st4" d="M384.15,174.2c-2.01,0.65-3.88,0.84-5.61,0.56s-3.22-0.98-4.5-2.11c-1.27-1.13-2.21-2.64-2.83-4.53l-1.9-5.86
	c-0.62-1.9-0.74-3.67-0.37-5.33c0.37-1.66,1.17-3.11,2.4-4.35c1.23-1.24,2.85-2.19,4.86-2.84c2.04-0.66,3.92-0.85,5.63-0.56
	c1.71,0.28,3.2,0.99,4.47,2.12c1.27,1.13,2.21,2.62,2.82,4.49l1.92,5.9c0.62,1.9,0.74,3.67,0.37,5.33
	c-0.37,1.66-1.16,3.11-2.38,4.34C387.82,172.59,386.19,173.54,384.15,174.2z M382.63,169.51c1.44-0.47,2.42-1.22,2.95-2.27
	c0.53-1.05,0.56-2.32,0.07-3.81l-1.9-5.86c-0.49-1.52-1.26-2.54-2.3-3.06c-1.04-0.52-2.28-0.55-3.72-0.08
	c-1.41,0.46-2.39,1.2-2.94,2.24s-0.58,2.32-0.09,3.84l1.9,5.86c0.48,1.49,1.26,2.5,2.32,3.03
	C379.99,169.93,381.22,169.96,382.63,169.51z"/>
<path class="st4" d="M401.04,166.51l-5.07-24.39l5.23-1.09l0.97,4.66l1.37-0.29l-1.05,3.18c-0.55-2.63-0.37-4.74,0.54-6.31
	c0.91-1.58,2.51-2.6,4.82-3.08c2.63-0.55,4.87-0.16,6.72,1.15c1.85,1.31,3.07,3.4,3.66,6.27l0.37,1.77l-5.81,1.21l-0.29-1.37
	c-0.33-1.57-0.98-2.7-1.97-3.38c-0.99-0.69-2.2-0.89-3.62-0.59c-1.45,0.3-2.48,0.96-3.08,1.98c-0.61,1.02-0.75,2.31-0.42,3.88
	l3.17,15.26L401.04,166.51z"/>
<path class="st17" d="M164.82,101.39H30.58c-12.57,0-22.75-10.19-22.75-22.75V36.28c0-12.57,10.19-22.75,22.75-22.75h134.24
	c12.57,0,22.75,10.19,22.75,22.75v42.36C187.58,91.2,177.39,101.39,164.82,101.39z"/>
<g>
	<path class="st1" d="M113.45,105.39h-31.5c-5.7,0-10.33-4.62-10.33-10.33v-4.81c0-5.7,4.62-10.33,10.33-10.33h31.49
		c5.7,0,10.33,4.62,10.33,10.33v4.81C123.78,100.76,119.16,105.39,113.45,105.39z"/>
	<g>
		<path class="st2" d="M85.46,100.14c-0.93,0-1.75-0.18-2.45-0.53c-0.7-0.35-1.24-0.85-1.62-1.5c-0.38-0.65-0.57-1.41-0.57-2.29
			v-6.35c0-0.89,0.19-1.66,0.57-2.3s0.92-1.14,1.62-1.49c0.7-0.35,1.52-0.53,2.45-0.53c0.95,0,1.76,0.18,2.45,0.53
			c0.69,0.35,1.22,0.85,1.61,1.49c0.39,0.64,0.58,1.41,0.58,2.3h-2.52c0-0.69-0.18-1.22-0.55-1.58c-0.37-0.36-0.89-0.54-1.57-0.54
			s-1.21,0.18-1.58,0.54c-0.37,0.36-0.56,0.88-0.56,1.56v6.37c0,0.68,0.19,1.21,0.56,1.58s0.9,0.56,1.58,0.56
			c0.68,0,1.2-0.19,1.57-0.56c0.37-0.37,0.55-0.9,0.55-1.58v-1.48H85.1v-2.16h4.99v3.63c0,0.88-0.19,1.64-0.58,2.29
			s-0.92,1.15-1.61,1.5C87.22,99.96,86.4,100.14,85.46,100.14z"/>
		<path class="st2" d="M97.37,100.14c-0.93,0-1.74-0.18-2.43-0.53c-0.69-0.35-1.21-0.85-1.58-1.5c-0.37-0.65-0.55-1.41-0.55-2.29
			v-6.35c0-0.88,0.18-1.64,0.55-2.29c0.37-0.65,0.89-1.15,1.58-1.5c0.69-0.35,1.5-0.53,2.43-0.53c0.95,0,1.76,0.18,2.44,0.53
			c0.68,0.35,1.2,0.85,1.57,1.5c0.37,0.65,0.55,1.4,0.55,2.27v6.37c0,0.88-0.18,1.64-0.55,2.29c-0.37,0.65-0.89,1.15-1.57,1.5
			C99.12,99.96,98.31,100.14,97.37,100.14z M97.37,97.95c0.68,0,1.19-0.18,1.54-0.55c0.35-0.37,0.52-0.89,0.52-1.57v-6.35
			c0-0.69-0.17-1.22-0.52-1.58c-0.35-0.36-0.86-0.54-1.54-0.54c-0.68,0-1.19,0.18-1.54,0.54c-0.35,0.36-0.52,0.89-0.52,1.58v6.35
			c0,0.68,0.18,1.2,0.53,1.57C96.19,97.77,96.7,97.95,97.37,97.95z"/>
		<path class="st2" d="M104.9,99.94V85.36h4.85c0.97,0,1.82,0.19,2.55,0.56c0.73,0.37,1.29,0.9,1.69,1.57
			c0.4,0.67,0.6,1.46,0.6,2.37c0,0.89-0.2,1.68-0.61,2.36c-0.41,0.68-0.97,1.21-1.69,1.58s-1.57,0.56-2.54,0.56h-2.36v5.59H104.9z
			 M107.39,92.09h2.36c0.69,0,1.25-0.2,1.67-0.61c0.42-0.41,0.63-0.95,0.63-1.63c0-0.69-0.21-1.24-0.63-1.64
			c-0.42-0.4-0.98-0.6-1.67-0.6h-2.36V92.09z"/>
	</g>
</g>
<path class="st18" d="M187.58,68.25h8.15c11.54,0,20.9-9.36,20.9-20.9V17.43"/>
<circle class="st19" cx="216.62" cy="17.43" r="8.43"/>
<rect x="68.82" y="14.42" class="st20" width="57.77" height="85.72"/>
<g>
	<path class="st8" d="M101.48,44.98h-8.69c-4.63,0-8.39-3.75-8.39-8.39V27.9c0-4.63,3.75-8.39,8.39-8.39h8.7
		c4.63,0,8.39,3.75,8.39,8.39v8.7C109.87,41.22,106.12,44.98,101.48,44.98z"/>
	<g>
		<path class="st2" d="M92.54,39.54V24.96h4.61c0.97,0,1.82,0.18,2.53,0.54s1.27,0.86,1.67,1.51s0.6,1.41,0.6,2.29
			c0,0.96-0.24,1.81-0.73,2.54c-0.49,0.73-1.14,1.25-1.97,1.56l2.9,6.15h-2.8l-2.54-5.79h-1.78v5.79H92.54z M95.03,31.55h2.12
			c0.71,0,1.26-0.19,1.66-0.58s0.6-0.92,0.6-1.6c0-0.69-0.2-1.24-0.6-1.63c-0.4-0.39-0.95-0.59-1.66-0.59h-2.12V31.55z"/>
	</g>
</g>
<g>
	<path class="st9" d="M56.23,39.88h-31.5c-5.7,0-10.33-4.62-10.33-10.33v-4.81c0-5.7,4.62-10.33,10.33-10.33h31.49
		c5.7,0,10.33,4.62,10.33,10.33v4.81C66.55,35.26,61.93,39.88,56.23,39.88z"/>
	<g>
		<path class="st2" d="M23.81,34.44V19.86h4.33c0.99,0,1.84,0.19,2.57,0.56c0.73,0.37,1.29,0.9,1.69,1.58s0.6,1.49,0.6,2.42v5.45
			c0,0.92-0.2,1.72-0.6,2.41c-0.4,0.69-0.96,1.22-1.69,1.6c-0.73,0.38-1.58,0.57-2.57,0.57H23.81z M26.31,32.15h1.84
			c0.72,0,1.29-0.2,1.72-0.61c0.43-0.41,0.64-0.96,0.64-1.67v-5.45c0-0.69-0.21-1.24-0.64-1.65c-0.43-0.41-1-0.61-1.72-0.61h-1.84
			V32.15z"/>
		<path class="st2" d="M36.06,34.44V19.86h8.75v2.18h-6.29v3.79h5.59v2.16h-5.59v4.27h6.29v2.18H36.06z"/>
		<path class="st2" d="M47.4,34.44V19.86h2.96l1.42,4.63c0.15,0.47,0.27,0.89,0.36,1.28s0.15,0.67,0.18,0.84
			c0.03-0.17,0.09-0.45,0.18-0.84c0.09-0.39,0.21-0.81,0.34-1.28l1.36-4.63h2.96v14.58h-2.34v-4.53c0-0.67,0.02-1.39,0.06-2.18
			c0.04-0.79,0.09-1.57,0.14-2.36c0.05-0.79,0.12-1.53,0.19-2.24c0.07-0.71,0.14-1.33,0.19-1.86l-1.96,6.89h-2.28l-2.02-6.89
			c0.07,0.51,0.13,1.1,0.2,1.79c0.07,0.69,0.13,1.42,0.19,2.2c0.06,0.78,0.11,1.57,0.15,2.37c0.04,0.8,0.06,1.56,0.06,2.28v4.53
			H47.4z"/>
	</g>
</g>
<g>
	<path class="st9" d="M100.5,75.18h-8.69c-4.63,0-8.39-3.75-8.39-8.39v-8.69c0-4.63,3.75-8.39,8.39-8.39h8.7
		c4.63,0,8.39,3.75,8.39,8.39v8.7C108.89,71.43,105.13,75.18,100.5,75.18z"/>
	<g>
		<path class="st2" d="M92.55,69.74V55.16h4.33c0.99,0,1.84,0.19,2.57,0.56s1.29,0.9,1.69,1.58c0.4,0.68,0.6,1.49,0.6,2.42v5.45
			c0,0.92-0.2,1.72-0.6,2.41c-0.4,0.69-0.96,1.22-1.69,1.6c-0.73,0.38-1.58,0.57-2.57,0.57H92.55z M95.05,67.44h1.84
			c0.72,0,1.29-0.2,1.72-0.61c0.43-0.41,0.64-0.96,0.64-1.67v-5.45c0-0.69-0.21-1.24-0.64-1.65c-0.43-0.41-1-0.61-1.72-0.61h-1.84
			V67.44z"/>
	</g>
</g>
<g>
	<path class="st8" d="M43.39,68.82H34.7c-4.63,0-8.39-3.75-8.39-8.39v-8.69c0-4.63,3.75-8.39,8.39-8.39h8.7
		c4.63,0,8.39,3.75,8.39,8.39v8.7C51.77,65.07,48.02,68.82,43.39,68.82z"/>
	<g>
		<path class="st2" d="M34.44,63.38V48.8h4.61c0.97,0,1.82,0.18,2.53,0.54s1.27,0.86,1.67,1.51s0.6,1.41,0.6,2.29
			c0,0.96-0.24,1.81-0.73,2.54c-0.49,0.73-1.14,1.25-1.97,1.56l2.9,6.15h-2.8l-2.54-5.79h-1.78v5.79H34.44z M36.93,55.39h2.12
			c0.71,0,1.26-0.19,1.66-0.58c0.4-0.39,0.6-0.92,0.6-1.6c0-0.69-0.2-1.24-0.6-1.63C40.31,51.2,39.76,51,39.05,51h-2.12V55.39z"/>
	</g>
</g>
<g>
	<path class="st9" d="M43.39,98.1H34.7c-4.63,0-8.39-3.75-8.39-8.39v-8.69c0-4.63,3.75-8.39,8.39-8.39h8.7
		c4.63,0,8.39,3.75,8.39,8.39v8.7C51.77,94.34,48.02,98.1,43.39,98.1z"/>
	<g>
		<path class="st2" d="M35.44,92.65V78.07h4.33c0.99,0,1.84,0.19,2.57,0.56c0.73,0.37,1.29,0.9,1.69,1.58
			c0.4,0.68,0.6,1.49,0.6,2.42v5.45c0,0.92-0.2,1.72-0.6,2.41s-0.96,1.22-1.69,1.6c-0.73,0.38-1.58,0.57-2.57,0.57H35.44z
			 M37.93,90.36h1.84c0.72,0,1.29-0.2,1.72-0.61c0.43-0.41,0.64-0.96,0.64-1.67v-5.45c0-0.69-0.21-1.24-0.64-1.65
			c-0.43-0.41-1-0.61-1.72-0.61h-1.84V90.36z"/>
	</g>
</g>
<g>
	<path class="st1" d="M170.18,76.11h-31.5c-5.7,0-10.33-4.62-10.33-10.33v-4.81c0-5.7,4.62-10.33,10.33-10.33h31.49
		c5.7,0,10.33,4.62,10.33,10.33v4.81C180.51,71.49,175.88,76.11,170.18,76.11z"/>
	<g>
		<path class="st2" d="M142.19,70.87c-0.93,0-1.75-0.18-2.45-0.53c-0.7-0.35-1.24-0.85-1.62-1.5c-0.38-0.65-0.57-1.41-0.57-2.29
			V60.2c0-0.89,0.19-1.66,0.57-2.3c0.38-0.64,0.92-1.14,1.62-1.49c0.7-0.35,1.52-0.53,2.45-0.53c0.95,0,1.76,0.18,2.45,0.53
			s1.22,0.85,1.61,1.49c0.39,0.64,0.58,1.41,0.58,2.3h-2.52c0-0.69-0.18-1.22-0.55-1.58c-0.37-0.36-0.89-0.54-1.57-0.54
			s-1.21,0.18-1.58,0.54s-0.56,0.88-0.56,1.56v6.37c0,0.68,0.19,1.21,0.56,1.58c0.37,0.37,0.9,0.56,1.58,0.56s1.2-0.19,1.57-0.56
			c0.37-0.37,0.55-0.9,0.55-1.58v-1.48h-2.48v-2.16h4.99v3.63c0,0.88-0.19,1.64-0.58,2.29c-0.39,0.65-0.92,1.15-1.61,1.5
			C143.95,70.69,143.13,70.87,142.19,70.87z"/>
		<path class="st2" d="M154.09,70.87c-0.93,0-1.74-0.18-2.43-0.53c-0.69-0.35-1.21-0.85-1.58-1.5c-0.37-0.65-0.55-1.41-0.55-2.29
			V60.2c0-0.88,0.18-1.64,0.55-2.29c0.37-0.65,0.89-1.15,1.58-1.5s1.5-0.53,2.43-0.53c0.95,0,1.76,0.18,2.44,0.53
			c0.68,0.35,1.2,0.85,1.57,1.5c0.37,0.65,0.55,1.4,0.55,2.27v6.37c0,0.88-0.18,1.64-0.55,2.29c-0.37,0.65-0.89,1.15-1.57,1.5
			C155.85,70.69,155.03,70.87,154.09,70.87z M154.09,68.67c0.68,0,1.19-0.18,1.54-0.55c0.35-0.37,0.52-0.89,0.52-1.57V60.2
			c0-0.69-0.17-1.22-0.52-1.58c-0.35-0.36-0.86-0.54-1.54-0.54c-0.68,0-1.19,0.18-1.54,0.54s-0.52,0.89-0.52,1.58v6.35
			c0,0.68,0.18,1.2,0.53,1.57C152.91,68.49,153.42,68.67,154.09,68.67z"/>
		<path class="st2" d="M161.62,70.67V56.09h4.85c0.97,0,1.82,0.19,2.55,0.56c0.73,0.37,1.29,0.9,1.69,1.57
			c0.4,0.67,0.6,1.46,0.6,2.37c0,0.89-0.2,1.68-0.61,2.36c-0.41,0.68-0.97,1.21-1.69,1.58c-0.72,0.37-1.57,0.56-2.54,0.56h-2.36
			v5.59H161.62z M164.12,62.82h2.36c0.69,0,1.25-0.2,1.67-0.61s0.63-0.95,0.63-1.63c0-0.69-0.21-1.24-0.63-1.64s-0.98-0.6-1.67-0.6
			h-2.36V62.82z"/>
	</g>
</g>
<g>
	<path class="st8" d="M158.05,105.39h-8.69c-4.63,0-8.39-3.75-8.39-8.39v-8.69c0-4.63,3.75-8.39,8.39-8.39h8.7
		c4.63,0,8.39,3.75,8.39,8.39v8.7C166.44,101.63,162.68,105.39,158.05,105.39z"/>
	<g>
		<path class="st2" d="M149.1,99.94V85.36h4.61c0.97,0,1.82,0.18,2.53,0.54c0.71,0.36,1.27,0.86,1.67,1.51
			c0.4,0.65,0.6,1.41,0.6,2.29c0,0.96-0.24,1.81-0.73,2.54c-0.49,0.73-1.14,1.25-1.97,1.56l2.9,6.15h-2.8l-2.54-5.79h-1.78v5.79
			H149.1z M151.6,91.95h2.12c0.71,0,1.26-0.19,1.66-0.58s0.6-0.92,0.6-1.6c0-0.69-0.2-1.24-0.6-1.63s-0.95-0.59-1.66-0.59h-2.12
			V91.95z"/>
	</g>
</g>
<g>
	<path class="st9" d="M170.18,44.98h-31.5c-5.7,0-10.33-4.62-10.33-10.33v-4.81c0-5.7,4.62-10.33,10.33-10.33h31.49
		c5.7,0,10.33,4.62,10.33,10.33v4.81C180.51,40.35,175.88,44.98,170.18,44.98z"/>
	<g>
		<path class="st2" d="M137.77,39.54V24.96h4.33c0.99,0,1.84,0.19,2.57,0.56c0.73,0.37,1.29,0.9,1.69,1.58s0.6,1.49,0.6,2.42v5.45
			c0,0.92-0.2,1.72-0.6,2.41s-0.96,1.22-1.69,1.6c-0.73,0.38-1.58,0.57-2.57,0.57L137.77,39.54z M140.26,37.24h1.84
			c0.72,0,1.29-0.2,1.72-0.61c0.43-0.41,0.64-0.96,0.64-1.67v-5.45c0-0.69-0.21-1.24-0.64-1.65c-0.43-0.41-1-0.61-1.72-0.61h-1.84
			V37.24z"/>
		<path class="st2" d="M150.01,39.54V24.96h8.75v2.18h-6.29v3.79h5.59v2.16h-5.59v4.27h6.29v2.18L150.01,39.54z"/>
		<path class="st2" d="M161.35,39.54V24.96h2.96l1.42,4.63c0.15,0.47,0.27,0.89,0.36,1.28s0.15,0.67,0.18,0.84
			c0.03-0.17,0.09-0.45,0.18-0.84c0.09-0.39,0.21-0.81,0.34-1.28l1.36-4.63h2.96v14.58h-2.34V35c0-0.67,0.02-1.39,0.06-2.18
			c0.04-0.79,0.09-1.57,0.14-2.36c0.05-0.79,0.12-1.53,0.19-2.24c0.07-0.71,0.14-1.33,0.19-1.86l-1.96,6.89h-2.28l-2.02-6.89
			c0.07,0.51,0.13,1.1,0.2,1.79c0.07,0.69,0.13,1.42,0.19,2.2c0.06,0.78,0.11,1.57,0.15,2.37c0.04,0.8,0.06,1.56,0.06,2.28v4.53
			L161.35,39.54z"/>
	</g>
</g>
<path class="st18" d="M164.82,101.39H30.58c-12.57,0-22.75-10.19-22.75-22.75V36.28c0-12.57,10.19-22.75,22.75-22.75h134.24
	c12.57,0,22.75,10.19,22.75,22.75v42.36C187.58,91.2,177.39,101.39,164.82,101.39z"/>
<path class="st21" d="M537.27,190.9l-96.35-18.81c-9.02-1.76-14.9-10.5-13.14-19.52l5.94-30.4c1.76-9.02,10.5-14.9,19.52-13.14
	l96.35,18.81c9.02,1.76,14.9,10.5,13.14,19.52l-5.94,30.4C555.03,186.78,546.29,192.67,537.27,190.9z"/>
<g>
	<path class="st1" d="M499.84,186.57l-22.61-4.41c-4.09-0.8-6.76-4.77-5.96-8.86l0.67-3.45c0.8-4.09,4.77-6.76,8.86-5.96l22.6,4.41
		c4.09,0.8,6.76,4.77,5.96,8.86l-0.67,3.45C507.9,184.7,503.93,187.37,499.84,186.57z"/>
	<g>
		<path class="st2" d="M480.48,178.89c-0.67-0.13-1.23-0.37-1.68-0.72s-0.77-0.78-0.95-1.3s-0.21-1.09-0.09-1.72l0.89-4.56
			c0.12-0.64,0.37-1.16,0.73-1.57s0.82-0.69,1.37-0.84c0.55-0.15,1.16-0.17,1.83-0.04c0.68,0.13,1.24,0.38,1.68,0.72
			c0.45,0.35,0.76,0.78,0.95,1.29c0.19,0.51,0.22,1.09,0.09,1.73l-1.81-0.35c0.1-0.49,0.04-0.9-0.17-1.21s-0.56-0.51-1.05-0.61
			s-0.89-0.04-1.21,0.17c-0.32,0.21-0.52,0.55-0.62,1.04l-0.89,4.57c-0.1,0.49-0.03,0.89,0.18,1.21s0.57,0.53,1.05,0.62
			c0.49,0.1,0.89,0.03,1.2-0.18s0.52-0.57,0.62-1.06l0.21-1.06l-1.78-0.35l0.3-1.55l3.58,0.7l-0.51,2.61
			c-0.12,0.63-0.37,1.15-0.74,1.56s-0.82,0.7-1.36,0.85C481.77,179.01,481.16,179.02,480.48,178.89z"/>
		<path class="st2" d="M489.03,180.56c-0.67-0.13-1.22-0.37-1.67-0.72c-0.45-0.35-0.75-0.78-0.92-1.3c-0.17-0.52-0.2-1.09-0.07-1.72
			l0.89-4.56c0.12-0.63,0.36-1.15,0.71-1.56s0.8-0.7,1.34-0.85s1.15-0.17,1.82-0.04c0.68,0.13,1.24,0.38,1.67,0.72
			s0.74,0.78,0.92,1.29c0.17,0.52,0.2,1.08,0.08,1.7l-0.89,4.57c-0.12,0.63-0.36,1.15-0.71,1.56c-0.36,0.41-0.8,0.7-1.34,0.86
			S489.7,180.69,489.03,180.56z M489.34,178.98c0.49,0.1,0.88,0.04,1.18-0.18c0.3-0.22,0.5-0.57,0.59-1.05l0.89-4.56
			c0.1-0.49,0.05-0.9-0.15-1.21c-0.2-0.31-0.54-0.51-1.03-0.6s-0.88-0.04-1.18,0.17s-0.5,0.57-0.59,1.06l-0.89,4.56
			c-0.1,0.49-0.04,0.89,0.16,1.2C488.52,178.69,488.86,178.89,489.34,178.98z"/>
		<path class="st2" d="M494.46,181.47L496.5,171l3.48,0.68c0.7,0.14,1.28,0.39,1.75,0.76c0.47,0.37,0.8,0.83,0.99,1.36
			c0.19,0.54,0.23,1.13,0.1,1.78c-0.12,0.64-0.38,1.18-0.77,1.61c-0.39,0.43-0.86,0.73-1.43,0.9s-1.2,0.18-1.9,0.05l-1.69-0.33
			l-0.78,4.01L494.46,181.47z M497.35,176.19l1.69,0.33c0.49,0.1,0.92,0.03,1.28-0.2c0.36-0.24,0.58-0.59,0.68-1.08
			c0.1-0.49,0.02-0.92-0.22-1.26s-0.62-0.57-1.11-0.66l-1.69-0.33L497.35,176.19z"/>
	</g>
</g>
<path class="st22" d="M558.24,170.31l5.85,1.14c8.28,1.62,16.31-3.79,17.93-12.07l4.19-21.48"/>
<circle class="st23" cx="586.21" cy="137.9" r="6.17"/>
<rect x="474.13" y="120.61" transform="matrix(0.9815 0.1916 -0.1916 0.9815 37.9137 -92.1201)" class="st24" width="42.25" height="58.72"/>
<g>
	<path class="st8" d="M459.05,128.84l-6.24-1.22c-3.33-0.65-5.49-3.87-4.85-7.2l1.22-6.24c0.65-3.33,3.87-5.49,7.2-4.85l6.24,1.22
		c3.33,0.65,5.49,3.87,4.85,7.2l-1.22,6.24C465.6,127.32,462.37,129.49,459.05,128.84z"/>
	<g>
		<path class="st2" d="M453.39,123.68l2.04-10.46l3.31,0.65c0.7,0.14,1.28,0.38,1.74,0.74c0.46,0.36,0.79,0.79,0.99,1.32
			s0.23,1.09,0.11,1.73c-0.13,0.69-0.43,1.26-0.88,1.72c-0.45,0.45-0.99,0.74-1.63,0.84l1.22,4.82l-2.01-0.39l-1.01-4.51l-1.28-0.25
			l-0.81,4.16L453.39,123.68z M456.3,118.3l1.52,0.3c0.51,0.1,0.93,0.04,1.27-0.18c0.34-0.22,0.56-0.58,0.65-1.06
			c0.1-0.49,0.03-0.92-0.2-1.25s-0.6-0.56-1.11-0.66l-1.52-0.3L456.3,118.3z"/>
	</g>
</g>
<g>
	<path class="st9" d="M549.33,149.58l-22.61-4.41c-4.09-0.8-6.76-4.77-5.96-8.86l0.67-3.45c0.8-4.09,4.77-6.76,8.86-5.96l22.6,4.41
		c4.09,0.8,6.76,4.77,5.96,8.86l-0.67,3.45C557.39,147.71,553.42,150.38,549.33,149.58z"/>
	<g>
		<path class="st2" d="M526.82,141.14l2.04-10.46l3.11,0.61c0.71,0.14,1.29,0.39,1.76,0.76s0.8,0.83,0.99,1.37
			c0.19,0.54,0.22,1.15,0.09,1.82l-0.76,3.91c-0.13,0.66-0.38,1.2-0.77,1.64c-0.38,0.44-0.86,0.74-1.44,0.91
			c-0.58,0.17-1.21,0.19-1.92,0.05C529.93,141.74,526.82,141.14,526.82,141.14z M528.94,139.84l1.32,0.26
			c0.52,0.1,0.95,0.04,1.32-0.2c0.37-0.23,0.59-0.6,0.69-1.11l0.76-3.91c0.1-0.49,0.02-0.92-0.23-1.27
			c-0.25-0.35-0.63-0.58-1.15-0.68l-1.32-0.26L528.94,139.84z"/>
		<path class="st2" d="M535.61,142.85l2.04-10.46l6.28,1.23l-0.31,1.56l-4.52-0.88l-0.53,2.72l4.01,0.78l-0.3,1.55l-4.01-0.78
			l-0.6,3.07l4.52,0.88l-0.31,1.56L535.61,142.85z"/>
		<path class="st2" d="M543.75,144.44l2.04-10.46l2.12,0.41l0.37,3.52c0.04,0.36,0.07,0.68,0.08,0.97s0.01,0.5,0.01,0.63
			c0.05-0.12,0.13-0.31,0.25-0.58c0.12-0.27,0.26-0.55,0.42-0.87l1.62-3.14l2.12,0.41l-2.04,10.46l-1.68-0.33l0.64-3.25
			c0.09-0.48,0.21-0.99,0.35-1.55c0.14-0.56,0.28-1.11,0.43-1.67c0.15-0.56,0.3-1.08,0.45-1.58c0.15-0.5,0.29-0.93,0.4-1.31
			l-2.37,4.67l-1.63-0.32l-0.48-5.23c-0.02,0.38-0.06,0.81-0.11,1.31s-0.11,1.04-0.17,1.6c-0.07,0.57-0.14,1.14-0.22,1.72
			c-0.08,0.58-0.18,1.13-0.28,1.64l-0.64,3.25L543.75,144.44z"/>
	</g>
</g>
<g>
	<path class="st9" d="M499.72,141.47l-6.24-1.22c-3.33-0.65-5.49-3.87-4.85-7.2l1.22-6.24c0.65-3.33,3.87-5.49,7.2-4.85l6.24,1.22
		c3.33,0.65,5.49,3.87,4.85,7.2l-1.22,6.24C506.26,139.95,503.04,142.12,499.72,141.47z"/>
	<g>
		<path class="st2" d="M494.77,136.45l2.04-10.46l3.11,0.61c0.71,0.14,1.29,0.39,1.76,0.76c0.47,0.37,0.8,0.83,0.99,1.37
			c0.19,0.54,0.22,1.15,0.09,1.82l-0.76,3.91c-0.13,0.66-0.38,1.2-0.77,1.64s-0.86,0.74-1.44,0.91c-0.58,0.17-1.21,0.19-1.92,0.05
			L494.77,136.45z M496.89,135.15l1.32,0.26c0.52,0.1,0.95,0.04,1.32-0.2c0.37-0.23,0.59-0.6,0.69-1.11l0.76-3.91
			c0.1-0.49,0.02-0.92-0.23-1.27c-0.25-0.35-0.63-0.58-1.15-0.68l-1.32-0.26L496.89,135.15z"/>
	</g>
</g>
<g>
	<path class="st8" d="M454.15,150.9l-6.24-1.22c-3.33-0.65-5.49-3.87-4.85-7.2l1.22-6.24c0.65-3.33,3.87-5.49,7.2-4.85l6.24,1.22
		c3.33,0.65,5.49,3.87,4.85,7.2l-1.22,6.24C460.7,149.38,457.48,151.54,454.15,150.9z"/>
	<g>
		<path class="st2" d="M448.49,145.74l2.04-10.46l3.31,0.65c0.7,0.14,1.28,0.38,1.74,0.74c0.46,0.36,0.79,0.79,0.99,1.32
			c0.2,0.52,0.23,1.09,0.11,1.73c-0.13,0.69-0.43,1.26-0.88,1.72c-0.45,0.45-0.99,0.74-1.63,0.84l1.22,4.82l-2.01-0.39l-1.01-4.51
			l-1.28-0.25l-0.81,4.16L448.49,145.74z M451.4,140.35l1.52,0.3c0.51,0.1,0.93,0.04,1.27-0.18c0.34-0.22,0.56-0.58,0.65-1.06
			c0.1-0.49,0.03-0.92-0.2-1.25s-0.6-0.56-1.11-0.66l-1.52-0.3L451.4,140.35z"/>
	</g>
</g>
<g>
	<path class="st9" d="M495.48,163.18l-6.24-1.22c-3.33-0.65-5.49-3.87-4.85-7.2l1.22-6.24c0.65-3.33,3.87-5.49,7.2-4.85l6.24,1.22
		c3.33,0.65,5.49,3.87,4.85,7.2l-1.22,6.24C502.02,161.66,498.8,163.83,495.48,163.18z"/>
	<g>
		<path class="st2" d="M490.53,158.16l2.04-10.46l3.11,0.61c0.71,0.14,1.29,0.39,1.76,0.76c0.47,0.37,0.8,0.83,0.99,1.37
			c0.19,0.54,0.22,1.15,0.09,1.82l-0.76,3.91c-0.13,0.66-0.38,1.2-0.77,1.64s-0.86,0.74-1.44,0.91c-0.58,0.17-1.21,0.19-1.92,0.05
			L490.53,158.16z M492.65,156.86l1.32,0.26c0.52,0.1,0.95,0.04,1.32-0.2s0.59-0.6,0.69-1.11l0.76-3.91
			c0.1-0.49,0.02-0.92-0.23-1.27c-0.25-0.35-0.63-0.58-1.15-0.68l-1.32-0.26L492.65,156.86z"/>
	</g>
</g>
<g>
	<path class="st1" d="M544.65,173.51l-22.61-4.41c-4.09-0.8-6.76-4.77-5.96-8.86l0.67-3.45c0.8-4.09,4.77-6.76,8.86-5.96l22.6,4.41
		c4.09,0.8,6.76,4.77,5.96,8.86l-0.67,3.45C552.71,171.64,548.75,174.31,544.65,173.51z"/>
	<g>
		<path class="st2" d="M525.3,165.83c-0.67-0.13-1.23-0.37-1.68-0.72c-0.45-0.35-0.77-0.78-0.95-1.3c-0.18-0.52-0.21-1.09-0.09-1.72
			l0.89-4.56c0.12-0.64,0.37-1.16,0.73-1.57c0.36-0.41,0.82-0.69,1.37-0.84c0.55-0.15,1.16-0.17,1.83-0.04
			c0.68,0.13,1.24,0.38,1.68,0.72c0.45,0.35,0.76,0.78,0.95,1.29c0.19,0.51,0.22,1.09,0.09,1.73l-1.81-0.35
			c0.1-0.49,0.04-0.9-0.17-1.21c-0.21-0.31-0.56-0.51-1.05-0.61c-0.49-0.1-0.89-0.04-1.21,0.17c-0.32,0.21-0.52,0.55-0.62,1.04
			l-0.89,4.57c-0.1,0.49-0.03,0.89,0.18,1.21c0.21,0.32,0.57,0.53,1.05,0.62s0.89,0.03,1.2-0.18c0.32-0.21,0.52-0.57,0.62-1.06
			l0.21-1.06l-1.78-0.35l0.3-1.55l3.58,0.7l-0.51,2.61c-0.12,0.63-0.37,1.15-0.74,1.56c-0.37,0.41-0.82,0.7-1.36,0.85
			S525.97,165.96,525.3,165.83z"/>
		<path class="st2" d="M533.84,167.5c-0.67-0.13-1.22-0.37-1.67-0.72c-0.45-0.35-0.75-0.78-0.92-1.3c-0.17-0.52-0.2-1.09-0.07-1.72
			l0.89-4.56c0.12-0.63,0.36-1.15,0.71-1.56s0.8-0.7,1.34-0.85c0.54-0.15,1.15-0.17,1.82-0.04c0.68,0.13,1.24,0.38,1.67,0.72
			c0.44,0.35,0.74,0.78,0.92,1.29c0.17,0.52,0.2,1.08,0.08,1.7l-0.89,4.57c-0.12,0.63-0.36,1.15-0.71,1.56
			c-0.36,0.41-0.8,0.7-1.34,0.86C535.13,167.61,534.52,167.63,533.84,167.5z M534.15,165.92c0.49,0.1,0.88,0.04,1.18-0.18
			c0.3-0.22,0.5-0.57,0.59-1.05l0.89-4.56c0.1-0.49,0.05-0.9-0.15-1.21c-0.2-0.31-0.54-0.51-1.03-0.6c-0.49-0.1-0.88-0.04-1.18,0.17
			c-0.3,0.21-0.5,0.57-0.59,1.06l-0.89,4.56c-0.1,0.49-0.04,0.89,0.16,1.2C533.33,165.62,533.67,165.82,534.15,165.92z"/>
		<path class="st2" d="M539.28,168.41l2.04-10.46l3.48,0.68c0.7,0.14,1.28,0.39,1.75,0.76s0.8,0.83,0.99,1.36s0.23,1.13,0.1,1.78
			c-0.12,0.64-0.38,1.18-0.77,1.61c-0.39,0.43-0.86,0.73-1.43,0.9c-0.57,0.16-1.2,0.18-1.9,0.05l-1.69-0.33l-0.78,4.01
			L539.28,168.41z M542.17,163.12l1.69,0.33c0.49,0.1,0.92,0.03,1.28-0.2s0.58-0.59,0.68-1.08c0.1-0.49,0.02-0.92-0.22-1.26
			c-0.25-0.35-0.62-0.57-1.11-0.66l-1.69-0.33L542.17,163.12z"/>
	</g>
</g>
<g>
	<path class="st8" d="M531.84,192.82l-6.24-1.22c-3.33-0.65-5.49-3.87-4.85-7.2l1.22-6.24c0.65-3.33,3.87-5.49,7.2-4.85l6.24,1.22
		c3.33,0.65,5.49,3.87,4.85,7.2l-1.22,6.24C538.39,191.3,535.17,193.47,531.84,192.82z"/>
	<g>
		<path class="st2" d="M526.19,187.66l2.04-10.46l3.31,0.65c0.7,0.14,1.28,0.38,1.74,0.74c0.46,0.36,0.79,0.79,0.99,1.32
			c0.2,0.52,0.23,1.09,0.11,1.73c-0.13,0.69-0.43,1.26-0.88,1.72c-0.45,0.45-0.99,0.74-1.63,0.84l1.22,4.82l-2.01-0.39l-1.01-4.51
			l-1.28-0.25l-0.81,4.16L526.19,187.66z M529.1,182.28l1.52,0.3c0.51,0.1,0.93,0.04,1.27-0.18s0.56-0.58,0.65-1.06
			c0.1-0.49,0.03-0.92-0.2-1.25s-0.6-0.56-1.11-0.66l-1.52-0.3L529.1,182.28z"/>
	</g>
</g>
<g>
	<path class="st9" d="M458.59,174.77l-22.61-4.41c-4.09-0.8-6.76-4.77-5.96-8.86l0.67-3.45c0.8-4.09,4.77-6.76,8.86-5.96l22.6,4.41
		c4.09,0.8,6.76,4.77,5.96,8.86l-0.67,3.45C466.65,172.9,462.68,175.57,458.59,174.77z"/>
	<g>
		<path class="st2" d="M436.08,166.32l2.04-10.46l3.11,0.61c0.71,0.14,1.29,0.39,1.76,0.76c0.47,0.37,0.8,0.83,0.99,1.37
			c0.19,0.54,0.22,1.15,0.09,1.82l-0.76,3.91c-0.13,0.66-0.38,1.2-0.77,1.64s-0.86,0.74-1.44,0.91c-0.58,0.17-1.21,0.19-1.92,0.05
			L436.08,166.32z M438.2,165.02l1.32,0.26c0.52,0.1,0.95,0.04,1.32-0.2s0.59-0.6,0.69-1.11l0.76-3.91c0.1-0.49,0.02-0.92-0.23-1.27
			c-0.25-0.35-0.63-0.58-1.15-0.68l-1.32-0.26L438.2,165.02z"/>
		<path class="st2" d="M444.87,168.04l2.04-10.46l6.28,1.23l-0.31,1.56l-4.52-0.88l-0.53,2.72l4.01,0.78l-0.3,1.55l-4.01-0.78
			l-0.6,3.07l4.52,0.88l-0.31,1.56L444.87,168.04z"/>
		<path class="st2" d="M453.01,169.63l2.04-10.46l2.12,0.41l0.37,3.52c0.04,0.36,0.07,0.68,0.08,0.97c0.01,0.29,0.01,0.5,0.01,0.63
			c0.05-0.12,0.13-0.31,0.25-0.58c0.12-0.27,0.26-0.55,0.42-0.87l1.62-3.14l2.12,0.41l-2.04,10.46l-1.68-0.33l0.64-3.25
			c0.09-0.48,0.21-0.99,0.35-1.55s0.28-1.11,0.43-1.67c0.15-0.56,0.3-1.08,0.45-1.58c0.15-0.5,0.29-0.93,0.4-1.31l-2.37,4.67
			l-1.63-0.32l-0.48-5.23c-0.02,0.38-0.06,0.81-0.11,1.31s-0.11,1.04-0.17,1.6c-0.07,0.57-0.14,1.14-0.22,1.72
			c-0.08,0.58-0.18,1.13-0.28,1.64l-0.64,3.25L453.01,169.63z"/>
	</g>
</g>
<path class="st25" d="M537.27,190.9l-96.35-18.81c-9.02-1.76-14.9-10.5-13.14-19.52l5.94-30.4c1.76-9.02,10.5-14.9,19.52-13.14
	l96.35,18.81c9.02,1.76,14.9,10.5,13.14,19.52l-5.94,30.4C555.03,186.78,546.29,192.67,537.27,190.9z"/>
<g>
	<path class="st2" d="M445.32,77.86c-0.67,0.64-1.32,1.29-2,1.91c-2.8,2.51-5.94,4.48-9.42,5.92c-3.19,1.32-6.51,2.11-9.94,2.39
		c-2.77,0.23-5.53,0.11-8.27-0.37c-3.32-0.58-6.49-1.62-9.48-3.18c-5.19-2.71-9.43-6.49-12.63-11.4c-1.5-2.3-2.67-4.75-3.56-7.35
		c-0.89-2.59-1.44-5.25-1.65-7.97c-0.41-5.15,0.34-10.13,2.27-14.94c0.64-1.58,1.39-3.1,2.26-4.56c0.06-0.09,0.13-0.18,0.11-0.3
		c0-0.02-0.01-0.03-0.03-0.02c0.08-0.01,0.1-0.05,0.08-0.13c0,0,0.01-0.03,0.01-0.03c0.09,0,0.13-0.05,0.11-0.14
		c0.38-0.37,0.63-0.84,0.93-1.27c2.99-4.31,6.79-7.74,11.39-10.26c2.38-1.31,4.9-2.28,7.54-2.97c2.23-0.58,4.49-0.93,6.78-1.03
		c5.96-0.25,11.59,0.99,16.87,3.78c5.13,2.71,9.26,6.51,12.42,11.37c0.64,0.98,1.19,2.01,1.75,3.04c0.03,0.05,0.07,0.09,0.1,0.14
		c0.26,0.61,0.52,1.22,0.78,1.83c0.59,1.38,1.07,2.8,1.46,4.26c0.43,1.62,0.76,3.26,0.94,4.93c0.46,4.4,0.11,8.72-1.14,12.97
		c-1.36,4.63-3.68,8.74-6.79,12.42c-0.08,0.09-0.18,0.17-0.2,0.3c-0.12,0.02-0.2,0.08-0.17,0.22c0,0-0.02,0.03-0.02,0.03
		c-0.08,0-0.12,0.03-0.1,0.11c0,0,0-0.02,0-0.02c-0.14,0.01-0.22,0.07-0.21,0.22C445.41,77.76,445.35,77.79,445.32,77.86z
		 M450.91,45.31c-0.4-1.3-0.92-2.55-1.51-3.77c-0.16-0.33-0.28-0.69-0.54-0.97c-0.3-0.78-0.74-1.49-1.19-2.19
		c-1.04-1.66-2.27-3.18-3.59-4.62c-0.64-0.7-1.31-1.39-2.08-1.96c-1.26-1.15-2.62-2.17-4.07-3.05c-2.06-1.32-4.26-2.37-6.58-3.16
		c-1.24-0.42-2.48-0.8-3.78-1c-0.43-0.16-0.89-0.2-1.33-0.28c-1.26-0.23-2.54-0.28-3.81-0.4c-0.15,0.01-0.29,0.02-0.44,0.02
		c-0.88-0.02-1.75,0-2.62,0.06c-1.41,0.1-2.81,0.27-4.2,0.55c-1.26,0.25-2.49,0.57-3.7,1c-1,0.27-1.95,0.67-2.9,1.09
		c-0.64,0.29-1.29,0.55-1.87,0.95c-1.32,0.6-2.52,1.42-3.71,2.25c-0.94,0.65-1.81,1.39-2.65,2.17c-0.83,0.77-1.65,1.54-2.38,2.41
		c-0.79,0.86-1.51,1.78-2.17,2.73c-0.32,0.46-0.66,0.91-0.9,1.42c-0.6,0.77-1.02,1.65-1.47,2.51c-0.91,1.76-1.64,3.59-2.16,5.5
		c-0.21,0.76-0.44,1.51-0.53,2.3c-0.03,0.1-0.07,0.21-0.09,0.32c-0.32,1.58-0.51,3.17-0.54,4.78c0,0.11,0,0.22,0,0.33
		c-0.1,1.81,0.05,3.61,0.3,5.4c0.16,1.13,0.37,2.25,0.69,3.35c0.18,0.65,0.31,1.31,0.62,1.92c0.14,0.8,0.49,1.54,0.8,2.28
		c0.35,0.86,0.71,1.72,1.22,2.5c0.05,0.11,0.08,0.23,0.14,0.34c1.47,2.69,3.28,5.13,5.48,7.27c0.39,0.38,0.75,0.81,1.24,1.09
		c0.03,0.12,0.12,0.18,0.2,0.26c1.15,1.02,2.38,1.93,3.67,2.77c0.08,0.05,0.16,0.11,0.27,0.09c0.06,0.13,0.18,0.2,0.3,0.27
		c2.31,1.4,4.76,2.51,7.36,3.27c0.86,0.25,1.72,0.52,2.61,0.62c0.12,0.04,0.23,0.08,0.35,0.1c1.56,0.32,3.14,0.48,4.73,0.55
		c2.42,0.09,4.82-0.09,7.19-0.56c1.34-0.26,2.66-0.58,3.94-1.06c0.86-0.24,1.69-0.58,2.51-0.93c0.74-0.32,1.49-0.62,2.16-1.08
		c0.1-0.04,0.21-0.08,0.3-0.13c2.44-1.33,4.67-2.94,6.68-4.87c0.62-0.59,1.26-1.16,1.74-1.88c0.09-0.08,0.19-0.15,0.27-0.24
		c0.99-1.12,1.89-2.33,2.69-3.59c0.06-0.09,0.13-0.18,0.11-0.3c0.15-0.08,0.22-0.23,0.3-0.36c1.02-1.66,1.88-3.39,2.56-5.22
		c0.57-1.53,1.04-3.09,1.33-4.7c0.13-0.36,0.17-0.74,0.23-1.11c0.22-1.33,0.39-2.66,0.38-4.01c0.01-0.13,0.03-0.27,0.03-0.4
		c0.04-2.25-0.11-4.48-0.57-6.7C451.66,47.9,451.34,46.59,450.91,45.31z"/>
	<path class="st12" d="M448.86,40.58c0.27,0.27,0.38,0.63,0.54,0.97c0.59,1.22,1.11,2.47,1.51,3.77c-0.23,0.08-0.46,0.16-0.7,0.24
		c-2.44,0.77-4.88,1.55-7.32,2.32c-0.46,0.15-0.45,0.15-0.3,0.62c0.72,2.31,1.05,4.68,1.02,7.1c-0.01,0.53-0.02,0.53,0.52,0.54
		c1.42,0.03,2.83,0.07,4.24,0.1c1.37,0.03,2.73,0.06,4.1,0.09c0.01,1.35-0.16,2.68-0.38,4.01c-0.06,0.37-0.1,0.75-0.23,1.11
		c-2.79-0.61-5.57-1.21-8.36-1.83c-0.26-0.06-0.34,0.01-0.39,0.26c-0.53,2.46-1.45,4.77-2.78,6.92c-0.18,0.29-0.11,0.41,0.15,0.57
		c1.38,0.83,2.75,1.68,4.13,2.52c1.02,0.62,2.04,1.23,3.06,1.85c0.02,0.12-0.05,0.21-0.11,0.3c-0.81,1.27-1.7,2.47-2.69,3.59
		c-0.08,0.09-0.18,0.16-0.27,0.24c-2.1-1.91-4.19-3.81-6.28-5.72c-0.2-0.19-0.31-0.18-0.5,0.03c-1.69,1.87-3.64,3.42-5.87,4.61
		c-0.25,0.13-0.3,0.26-0.15,0.52c0.59,1.05,1.16,2.12,1.73,3.18c0.78,1.43,1.56,2.85,2.34,4.27c-0.67,0.45-1.43,0.75-2.16,1.08
		c-0.82,0.36-1.64,0.7-2.51,0.93c-0.11-0.07-0.14-0.2-0.17-0.31c-0.27-0.86-0.55-1.71-0.82-2.57c-0.55-1.72-1.11-3.44-1.64-5.17
		c-0.1-0.33-0.23-0.37-0.55-0.26c-0.88,0.31-1.8,0.51-2.72,0.68c-1.51,0.28-3.03,0.4-4.56,0.36c-0.29-0.01-0.42,0.07-0.41,0.38
		c0.01,0.53-0.02,1.06-0.03,1.59c-0.04,1.64-0.08,3.27-0.14,4.91c-0.02,0.67,0.02,1.35-0.1,2.02c-1.59-0.06-3.17-0.23-4.73-0.55
		c-0.12-0.02-0.23-0.07-0.35-0.1c0.03-0.07,0.06-0.14,0.08-0.21c0.59-2.69,1.16-5.38,1.76-8.07c0.07-0.31,0-0.41-0.29-0.47
		c-2.45-0.52-4.75-1.45-6.88-2.77c-0.26-0.16-0.38-0.14-0.54,0.13c-0.84,1.4-1.71,2.79-2.56,4.19c-0.61,1.01-1.22,2.02-1.83,3.03
		c-0.11,0.03-0.19-0.03-0.27-0.09c-1.29-0.83-2.52-1.75-3.67-2.77c-0.08-0.07-0.17-0.14-0.2-0.26c0.41-0.44,0.83-0.88,1.23-1.32
		c1.51-1.66,3.01-3.32,4.52-4.97c0.17-0.18,0.15-0.29-0.03-0.45c-1.9-1.72-3.46-3.69-4.67-5.95c-0.11-0.2-0.2-0.25-0.42-0.12
		c-1.57,0.87-3.16,1.71-4.73,2.57c-0.92,0.51-1.88,0.97-2.77,1.54c-0.52-0.78-0.87-1.64-1.22-2.5c-0.31-0.74-0.65-1.48-0.8-2.28
		c0.11-0.02,0.22-0.04,0.32-0.07c2.59-0.83,5.17-1.67,7.76-2.49c0.26-0.08,0.32-0.18,0.24-0.44c-0.76-2.43-1.12-4.91-1.05-7.46
		c0.01-0.23-0.07-0.3-0.29-0.3c-0.68-0.01-1.35-0.04-2.03-0.06c-2.19-0.06-4.38-0.12-6.56-0.18c0.03-1.61,0.22-3.21,0.54-4.78
		c0.02-0.11,0.06-0.21,0.09-0.32c0.02,0.01,0.04,0.03,0.07,0.03c2.76,0.6,5.53,1.2,8.29,1.81c0.25,0.05,0.33-0.04,0.38-0.26
		c0.53-2.49,1.47-4.82,2.81-6.98c0.14-0.23,0.1-0.33-0.11-0.46c-2.43-1.48-4.85-2.96-7.28-4.45c0.24-0.51,0.58-0.96,0.9-1.42
		c0.67-0.96,1.38-1.87,2.17-2.73c0.17,0.22,0.4,0.37,0.6,0.55c1.89,1.72,3.79,3.45,5.67,5.19c0.24,0.22,0.37,0.22,0.59-0.03
		c1.68-1.87,3.64-3.38,5.84-4.58c0.24-0.13,0.29-0.22,0.15-0.47c-0.94-1.71-1.87-3.44-2.81-5.15c-0.43-0.77-0.8-1.58-1.29-2.32
		c0.57-0.41,1.23-0.67,1.87-0.95c0.94-0.42,1.89-0.82,2.9-1.09c0.11,0.35,0.21,0.71,0.32,1.06c0.75,2.36,1.5,4.71,2.25,7.07
		c0.08,0.27,0.21,0.31,0.46,0.23c2.4-0.77,4.86-1.12,7.38-1.05c0.26,0.01,0.37-0.06,0.37-0.34c0.01-0.9,0.04-1.79,0.07-2.69
		c0.05-1.87,0.09-3.74,0.13-5.61l-0.01,0.01c0.02-0.1,0.03-0.2-0.02-0.3c1.27,0.12,2.55,0.17,3.81,0.4c0.45,0.08,0.9,0.12,1.33,0.28
		c-0.24,1.11-0.47,2.21-0.72,3.32c-0.37,1.68-0.74,3.37-1.12,5.05c-0.05,0.21,0,0.32,0.23,0.37c2.51,0.53,4.85,1.48,7.03,2.82
		c0.2,0.12,0.31,0.11,0.44-0.1c0.81-1.34,1.63-2.67,2.45-4c0.68-1.1,1.36-2.2,2.05-3.29c1.46,0.89,2.81,1.91,4.07,3.05
		c-0.13,0.16-0.26,0.33-0.4,0.48c-1.75,1.93-3.5,3.87-5.27,5.79c-0.22,0.24-0.23,0.38,0.02,0.61c1.85,1.67,3.37,3.62,4.56,5.81
		c0.14,0.26,0.25,0.29,0.51,0.15c1.58-0.87,3.18-1.73,4.76-2.59C447.07,41.57,447.96,41.07,448.86,40.58z M441.1,56.21
		c0.01-0.1,0.03-0.2,0.04-0.29c0.06-1.98-0.14-3.93-0.66-5.85c-1.19-4.43-3.58-8.08-7.28-10.77c-5.99-4.35-12.53-5.19-19.42-2.49
		c-4.55,1.78-7.91,4.99-10.16,9.34c-1.83,3.56-2.52,7.35-2.04,11.31c0.68,5.58,3.24,10.15,7.74,13.52
		c5.17,3.88,10.97,4.98,17.21,3.32c5.3-1.41,9.3-4.62,12.05-9.38c1.36-2.35,2.18-4.89,2.44-7.6
		C441.09,56.95,441.12,56.58,441.1,56.21z"/>
	<path class="st8" d="M406.7,27.59c0.49,0.74,0.87,1.54,1.29,2.32c0.94,1.71,1.86,3.44,2.81,5.15c0.14,0.25,0.08,0.34-0.15,0.47
		c-2.2,1.2-4.16,2.72-5.84,4.58c-0.22,0.24-0.35,0.25-0.59,0.03c-1.88-1.74-3.77-3.46-5.67-5.19c-0.2-0.18-0.43-0.33-0.6-0.55
		c0.72-0.87,1.55-1.64,2.38-2.41c0.84-0.78,1.71-1.52,2.65-2.17C404.18,29.01,405.37,28.2,406.7,27.59z"/>
	<path class="st9" d="M420.07,86.36c0.11-0.67,0.07-1.35,0.1-2.02c0.06-1.63,0.09-3.27,0.14-4.91c0.01-0.53,0.04-1.06,0.03-1.59
		c-0.01-0.31,0.12-0.39,0.41-0.38c1.53,0.04,3.05-0.08,4.56-0.36c0.92-0.17,1.83-0.37,2.72-0.68c0.32-0.11,0.44-0.07,0.55,0.26
		c0.54,1.73,1.09,3.45,1.64,5.17c0.27,0.86,0.55,1.71,0.82,2.57c0.04,0.12,0.06,0.24,0.17,0.31c-1.28,0.48-2.61,0.79-3.94,1.06
		C424.89,86.28,422.49,86.45,420.07,86.36z"/>
	<path class="st9" d="M447.67,71.72c-1.02-0.62-2.04-1.23-3.06-1.85c-1.38-0.84-2.74-1.69-4.13-2.52c-0.26-0.16-0.33-0.27-0.15-0.57
		c1.33-2.14,2.24-4.45,2.78-6.92c0.05-0.25,0.13-0.32,0.39-0.26c2.78,0.62,5.57,1.22,8.36,1.83c-0.29,1.61-0.76,3.17-1.33,4.7
		c-0.68,1.82-1.54,3.56-2.56,5.22C447.89,71.5,447.82,71.64,447.67,71.72z"/>
	<path class="st8" d="M437.92,28.75c-0.68,1.1-1.37,2.19-2.05,3.29c-0.82,1.33-1.64,2.67-2.45,4c-0.13,0.21-0.24,0.22-0.44,0.1
		c-2.18-1.34-4.52-2.29-7.03-2.82c-0.23-0.05-0.27-0.16-0.23-0.37c0.38-1.68,0.75-3.36,1.12-5.05c0.24-1.11,0.48-2.21,0.72-3.32
		c1.29,0.2,2.54,0.58,3.78,1C433.66,26.38,435.86,27.43,437.92,28.75z"/>
	<path class="st8" d="M452.46,56.32c-1.37-0.03-2.73-0.06-4.1-0.09c-1.42-0.03-2.83-0.07-4.24-0.1c-0.53-0.01-0.52,0-0.52-0.54
		c0.04-2.42-0.3-4.79-1.02-7.1c-0.14-0.46-0.15-0.47,0.3-0.62c2.44-0.78,4.88-1.55,7.32-2.32c0.23-0.07,0.47-0.16,0.7-0.24
		c0.43,1.28,0.75,2.59,1.02,3.91c0.46,2.21,0.61,4.44,0.57,6.7C452.5,56.05,452.48,56.18,452.46,56.32z"/>
	<path class="st8" d="M404.73,81.55c0.61-1.01,1.21-2.02,1.83-3.03c0.85-1.4,1.72-2.79,2.56-4.19c0.16-0.27,0.28-0.29,0.54-0.13
		c2.13,1.32,4.43,2.25,6.88,2.77c0.29,0.06,0.36,0.15,0.29,0.47c-0.6,2.69-1.18,5.38-1.76,8.07c-0.02,0.07-0.05,0.14-0.08,0.21
		c-0.9-0.1-1.75-0.37-2.61-0.62c-2.6-0.76-5.04-1.87-7.36-3.27C404.91,81.75,404.79,81.68,404.73,81.55z"/>
	<path class="st8" d="M435.87,82.74c-0.78-1.42-1.56-2.85-2.34-4.27c-0.58-1.06-1.14-2.12-1.73-3.18c-0.15-0.26-0.1-0.38,0.15-0.52
		c2.22-1.19,4.17-2.74,5.87-4.61c0.19-0.21,0.3-0.21,0.5-0.03c2.09,1.91,4.19,3.82,6.28,5.72c-0.48,0.72-1.13,1.29-1.74,1.88
		c-2,1.93-4.23,3.54-6.68,4.87C436.08,82.66,435.97,82.7,435.87,82.74z"/>
	<path class="st9" d="M394.89,38.56c2.43,1.48,4.85,2.97,7.28,4.45c0.21,0.13,0.25,0.23,0.11,0.46c-1.34,2.17-2.28,4.49-2.81,6.98
		c-0.05,0.22-0.13,0.31-0.38,0.26c-2.76-0.61-5.53-1.21-8.29-1.81c-0.02-0.01-0.04-0.02-0.07-0.03c0.09-0.79,0.32-1.54,0.53-2.3
		c0.52-1.91,1.25-3.74,2.16-5.5C393.86,40.21,394.29,39.34,394.89,38.56z"/>
	<path class="st9" d="M422.42,23.92c0.05,0.1,0.04,0.2,0.02,0.3c0,0,0.01-0.01,0.01-0.01c-0.04,1.87-0.09,3.74-0.13,5.61
		c-0.02,0.9-0.06,1.79-0.07,2.69c0,0.28-0.11,0.35-0.37,0.34c-2.52-0.07-4.98,0.28-7.38,1.05c-0.25,0.08-0.37,0.04-0.46-0.23
		c-0.74-2.36-1.5-4.71-2.25-7.07c-0.11-0.35-0.22-0.71-0.32-1.06c1.21-0.43,2.44-0.75,3.7-1c1.39-0.28,2.79-0.45,4.2-0.55
		c0.87-0.06,1.75-0.09,2.62-0.06C422.13,23.94,422.27,23.93,422.42,23.92z"/>
	<path class="st9" d="M393.72,69.75c0.89-0.56,1.85-1.03,2.77-1.54c1.57-0.87,3.16-1.71,4.73-2.57c0.23-0.13,0.32-0.08,0.42,0.12
		c1.21,2.26,2.77,4.23,4.67,5.95c0.18,0.16,0.19,0.26,0.03,0.45c-1.51,1.65-3.02,3.31-4.52,4.97c-0.41,0.44-0.82,0.88-1.23,1.32
		c-0.49-0.27-0.85-0.7-1.24-1.09c-2.2-2.14-4.01-4.58-5.48-7.27C393.8,69.98,393.77,69.86,393.72,69.75z"/>
	<path class="st8" d="M390.1,53.97c2.19,0.06,4.38,0.12,6.56,0.18c0.68,0.02,1.35,0.05,2.03,0.06c0.22,0,0.29,0.07,0.29,0.3
		c-0.08,2.54,0.29,5.03,1.05,7.46c0.08,0.26,0.03,0.36-0.24,0.44c-2.59,0.82-5.18,1.66-7.76,2.49c-0.1,0.03-0.22,0.05-0.32,0.07
		c-0.31-0.61-0.44-1.27-0.62-1.92c-0.31-1.1-0.53-2.23-0.69-3.35c-0.25-1.79-0.4-3.59-0.3-5.4C390.1,54.19,390.1,54.08,390.1,53.97z
		"/>
	<path class="st9" d="M448.86,40.58c-0.89,0.49-1.78,0.99-2.68,1.48c-1.59,0.87-3.18,1.72-4.76,2.59c-0.26,0.14-0.37,0.11-0.51-0.15
		c-1.19-2.19-2.7-4.14-4.56-5.81c-0.26-0.23-0.25-0.37-0.02-0.61c1.76-1.92,3.51-3.86,5.27-5.79c0.14-0.15,0.27-0.32,0.4-0.48
		c0.78,0.57,1.44,1.25,2.08,1.96c1.32,1.44,2.55,2.96,3.59,4.62C448.11,39.09,448.55,39.8,448.86,40.58z"/>
	<path class="st13" d="M441.01,57.32c-0.27,2.71-1.09,5.25-2.44,7.6c-2.74,4.75-6.74,7.96-12.05,9.38
		c-6.24,1.66-12.04,0.56-17.21-3.32c-4.5-3.37-7.06-7.95-7.74-13.52c-0.49-3.96,0.2-7.75,2.04-11.31c2.24-4.35,5.6-7.55,10.16-9.34
		c6.89-2.7,13.43-1.87,19.42,2.49c3.7,2.69,6.09,6.34,7.28,10.77c0.52,1.92,0.72,3.87,0.66,5.85c0,0.1-0.02,0.2-0.04,0.29
		C441.14,56.53,441.07,56.95,441.01,57.32z M434.13,53.31c-1.03-7.1-7.58-12.01-14.68-11c-7.12,1.02-12.03,7.6-11,14.75
		c1.02,7.07,7.63,11.96,14.77,10.94C430.24,66.99,435.15,60.38,434.13,53.31z"/>
	<path class="st14" d="M422.44,24.21c0,0-0.01,0.01-0.01,0.01S422.44,24.21,422.44,24.21z"/>
	<path class="st12" d="M434.13,53.31c1.02,7.06-3.89,13.68-10.91,14.69c-7.15,1.03-13.76-3.87-14.77-10.94
		c-1.03-7.15,3.88-13.73,11-14.75C426.55,41.3,433.11,46.21,434.13,53.31z M413.33,50.96c-0.37,0.07-0.71,0.34-0.87,0.82
		c-0.16,0.48-0.05,0.91,0.31,1.26c0.37,0.36,0.82,0.45,1.3,0.27c0.18-0.07,0.33-0.1,0.53-0.02c1.37,0.55,2.75,1.09,4.13,1.62
		c0.19,0.07,0.3,0.16,0.31,0.39c0.02,0.58,0.25,1.08,0.66,1.48c0.12,0.12,0.14,0.22,0.08,0.38c-0.56,1.41-1.11,2.82-1.66,4.23
		c-0.06,0.14-0.13,0.24-0.28,0.31c-0.67,0.3-0.94,0.97-0.66,1.62c0.26,0.61,0.94,0.9,1.57,0.66c0.65-0.25,0.95-0.92,0.7-1.61
		c-0.06-0.17-0.09-0.31-0.02-0.49c0.55-1.38,1.1-2.77,1.63-4.16c0.08-0.2,0.19-0.27,0.41-0.29c0.55-0.03,1.03-0.24,1.42-0.63
		c0.16-0.16,0.28-0.17,0.48-0.09c1.38,0.55,2.77,1.1,4.16,1.63c0.16,0.06,0.25,0.15,0.33,0.31c0.32,0.67,0.99,0.92,1.63,0.63
		c0.6-0.27,0.89-0.98,0.63-1.58c-0.27-0.64-0.95-0.93-1.63-0.66c-0.18,0.07-0.32,0.06-0.49,0c-1.37-0.54-2.75-1.08-4.13-1.62
		c-0.19-0.07-0.29-0.17-0.3-0.39c-0.02-0.56-0.24-1.06-0.64-1.45c-0.13-0.13-0.16-0.24-0.09-0.42c0.55-1.38,1.09-2.77,1.63-4.16
		c0.07-0.18,0.17-0.3,0.35-0.39c0.63-0.29,0.89-1.01,0.61-1.61c-0.28-0.61-0.98-0.89-1.58-0.64c-0.64,0.26-0.94,0.96-0.67,1.62
		c0.07,0.18,0.07,0.32,0,0.49c-0.54,1.37-1.09,2.75-1.62,4.13c-0.08,0.22-0.2,0.3-0.43,0.31c-0.54,0.02-1.01,0.23-1.39,0.61
		c-0.17,0.17-0.3,0.18-0.51,0.1c-1.36-0.55-2.72-1.08-4.09-1.61c-0.2-0.08-0.31-0.18-0.4-0.38
		C414.51,51.12,413.99,50.86,413.33,50.96z"/>
	<path class="st14" d="M413.33,50.96c0.65-0.1,1.18,0.16,1.4,0.66c0.09,0.2,0.2,0.31,0.4,0.38c1.37,0.53,2.73,1.06,4.09,1.61
		c0.21,0.08,0.34,0.07,0.51-0.1c0.38-0.38,0.85-0.58,1.39-0.61c0.23-0.01,0.35-0.09,0.43-0.31c0.53-1.38,1.07-2.75,1.62-4.13
		c0.07-0.17,0.07-0.31,0-0.49c-0.27-0.67,0.03-1.36,0.67-1.62c0.6-0.25,1.3,0.04,1.58,0.64c0.28,0.61,0.02,1.32-0.61,1.61
		c-0.19,0.09-0.28,0.2-0.35,0.39c-0.54,1.39-1.08,2.78-1.63,4.16c-0.07,0.18-0.05,0.28,0.09,0.42c0.4,0.4,0.62,0.89,0.64,1.45
		c0.01,0.22,0.11,0.32,0.3,0.39c1.38,0.53,2.75,1.07,4.13,1.62c0.17,0.07,0.31,0.07,0.49,0c0.68-0.27,1.36,0.02,1.63,0.66
		c0.25,0.6-0.03,1.31-0.63,1.58c-0.64,0.29-1.32,0.03-1.63-0.63c-0.08-0.16-0.17-0.25-0.33-0.31c-1.39-0.54-2.78-1.08-4.16-1.63
		c-0.2-0.08-0.32-0.07-0.48,0.09c-0.38,0.39-0.87,0.6-1.42,0.63c-0.21,0.01-0.33,0.08-0.41,0.29c-0.54,1.39-1.08,2.78-1.63,4.16
		c-0.07,0.18-0.04,0.32,0.02,0.49c0.26,0.68-0.04,1.35-0.7,1.61c-0.62,0.24-1.3-0.05-1.57-0.66c-0.27-0.65-0.01-1.32,0.66-1.62
		c0.15-0.07,0.23-0.17,0.28-0.31c0.55-1.41,1.1-2.82,1.66-4.23c0.06-0.16,0.05-0.26-0.08-0.38c-0.41-0.4-0.64-0.9-0.66-1.48
		c-0.01-0.23-0.11-0.31-0.31-0.39c-1.38-0.53-2.75-1.07-4.13-1.62c-0.19-0.08-0.34-0.04-0.53,0.02c-0.48,0.18-0.93,0.1-1.3-0.27
		c-0.35-0.35-0.46-0.78-0.31-1.26C412.62,51.3,412.96,51.03,413.33,50.96z"/>
</g>
</svg>
