<?xml version="1.0" encoding="utf-8"?>
<!-- Generator: Adobe Illustrator 24.1.0, SVG Export Plug-In . SVG Version: 6.00 Build 0)  -->
<svg version="1.1" id="Layer_1" xmlns="http://www.w3.org/2000/svg" xmlns:xlink="http://www.w3.org/1999/xlink" x="0px" y="0px"
	 viewBox="0 0 48.07 69.87" enable-background="new 0 0 48.07 69.87" xml:space="preserve">
<g>
	<path fill="#3E63AE" d="M0.9,33.15v-5.42l10.21-10.26c1.43-1.46,2.49-2.78,3.18-3.96c0.69-1.18,1.03-2.4,1.03-3.65
		c0-1.52-0.42-2.71-1.25-3.56c-0.84-0.85-1.97-1.28-3.4-1.28c-1.58,0-2.82,0.46-3.72,1.37C6.05,7.3,5.6,8.56,5.6,10.17H0
		c0.03-2.09,0.48-3.89,1.37-5.4c0.88-1.51,2.13-2.68,3.74-3.52C6.72,0.42,8.6,0,10.75,0c2.06,0,3.85,0.39,5.38,1.17
		c1.52,0.78,2.7,1.87,3.54,3.27c0.84,1.4,1.25,3.08,1.25,5.02c0,2-0.52,3.95-1.55,5.85c-1.03,1.9-2.68,3.94-4.95,6.12l-6.81,6.67
		h13.71v5.06H0.9z"/>
	<path d="M37.67,33.6c-2.12,0-3.96-0.4-5.51-1.21c-1.55-0.81-2.75-1.94-3.61-3.4c-0.85-1.46-1.28-3.18-1.28-5.15V9.77
		c0-1.97,0.43-3.69,1.28-5.15c0.85-1.46,2.05-2.6,3.61-3.4C33.72,0.4,35.55,0,37.67,0c2.15,0,3.99,0.4,5.53,1.21
		c1.54,0.81,2.73,1.94,3.58,3.4c0.85,1.46,1.28,3.18,1.28,5.15v14.07c0,1.97-0.43,3.69-1.28,5.15c-0.85,1.46-2.05,2.6-3.61,3.4
		C41.63,33.2,39.79,33.6,37.67,33.6z M37.67,28.76c1.55,0,2.79-0.45,3.72-1.34c0.93-0.9,1.39-2.09,1.39-3.58V9.77
		c0-1.49-0.46-2.69-1.39-3.58c-0.93-0.9-2.17-1.34-3.72-1.34c-1.55,0-2.79,0.45-3.72,1.34c-0.93,0.9-1.39,2.09-1.39,3.58v14.07
		c0,1.49,0.46,2.69,1.39,3.58C34.88,28.31,36.12,28.76,37.67,28.76z M37.67,19.71c-0.87,0-1.58-0.28-2.13-0.85
		c-0.55-0.57-0.83-1.3-0.83-2.19s0.27-1.61,0.81-2.15s1.25-0.81,2.15-0.81s1.61,0.27,2.15,0.81s0.81,1.25,0.81,2.15
		s-0.27,1.63-0.81,2.19C39.29,19.43,38.57,19.71,37.67,19.71z"/>
</g>
<g>
	<path fill="#3E63AE" d="M0.9,69.87v-5.42l10.21-10.26c1.43-1.46,2.49-2.78,3.18-3.97c0.69-1.18,1.03-2.4,1.03-3.65
		c0-1.52-0.42-2.71-1.25-3.56c-0.84-0.85-1.97-1.28-3.4-1.28c-1.58,0-2.82,0.46-3.72,1.37c-0.9,0.91-1.34,2.17-1.34,3.79H0
		c0.03-2.09,0.48-3.89,1.37-5.4c0.88-1.51,2.13-2.68,3.74-3.52s3.5-1.25,5.65-1.25c2.06,0,3.85,0.39,5.38,1.16
		c1.52,0.78,2.7,1.87,3.54,3.27c0.84,1.4,1.25,3.08,1.25,5.02c0,2-0.51,3.95-1.55,5.84c-1.03,1.9-2.68,3.94-4.95,6.12L7.62,64.8
		h13.71v5.06H0.9z"/>
</g>
</svg>
