<?xml version="1.0" encoding="utf-8"?>
<!-- Generator: Adobe Illustrator 24.1.0, SVG Export Plug-In . SVG Version: 6.00 Build 0)  -->
<svg version="1.1" id="Layer_1" xmlns="http://www.w3.org/2000/svg" xmlns:xlink="http://www.w3.org/1999/xlink" x="0px" y="0px"
	 viewBox="0 0 700 100" style="enable-background:new 0 0 700 100;" xml:space="preserve">
<style type="text/css">
	.st0{fill:#FF6666;}
	.st1{fill:#FFFFFF;}
	.st2{fill:#339AFF;}
</style>
<g>
	<path d="M172.46,62.23v-4.04l7.61-7.64c1.07-1.09,1.86-2.07,2.37-2.95s0.77-1.79,0.77-2.72c0-1.13-0.31-2.02-0.93-2.65
		s-1.47-0.95-2.54-0.95c-1.18,0-2.1,0.34-2.77,1.02c-0.67,0.68-1,1.62-1,2.82h-4.17c0.02-1.56,0.36-2.9,1.02-4.02
		c0.66-1.12,1.58-2,2.79-2.62s2.6-0.93,4.2-0.93c1.53,0,2.87,0.29,4,0.87s2.01,1.39,2.64,2.44c0.62,1.05,0.93,2.29,0.93,3.74
		c0,1.49-0.38,2.94-1.15,4.35c-0.77,1.41-2,2.93-3.69,4.55l-5.07,4.97h10.21v3.77H172.46z"/>
	<path d="M199.85,62.57c-1.58,0-2.95-0.3-4.1-0.9s-2.05-1.45-2.69-2.54c-0.63-1.09-0.95-2.37-0.95-3.84V44.81
		c0-1.47,0.32-2.75,0.95-3.84c0.63-1.09,1.53-1.93,2.69-2.54s2.52-0.9,4.1-0.9c1.6,0,2.97,0.3,4.12,0.9
		c1.14,0.6,2.04,1.45,2.67,2.54c0.63,1.09,0.95,2.37,0.95,3.84v10.48c0,1.47-0.32,2.75-0.95,3.84c-0.63,1.09-1.53,1.94-2.69,2.54
		C202.8,62.26,201.43,62.57,199.85,62.57z M199.85,58.96c1.16,0,2.08-0.33,2.77-1c0.69-0.67,1.03-1.56,1.03-2.67V44.81
		c0-1.11-0.34-2-1.03-2.67c-0.69-0.67-1.61-1-2.77-1c-1.16,0-2.08,0.33-2.77,1c-0.69,0.67-1.03,1.56-1.03,2.67v10.48
		c0,1.11,0.34,2,1.03,2.67C197.77,58.63,198.7,58.96,199.85,58.96z M199.85,52.22c-0.65,0-1.17-0.21-1.58-0.63
		c-0.41-0.42-0.62-0.97-0.62-1.64c0-0.67,0.2-1.2,0.6-1.6s0.93-0.6,1.6-0.6s1.2,0.2,1.6,0.6s0.6,0.93,0.6,1.6
		c0,0.67-0.2,1.21-0.6,1.64S200.52,52.22,199.85,52.22z"/>
	<path d="M212.5,62.23v-4.04l7.61-7.64c1.07-1.09,1.86-2.07,2.37-2.95s0.77-1.79,0.77-2.72c0-1.13-0.31-2.02-0.94-2.65
		c-0.62-0.63-1.47-0.95-2.54-0.95c-1.18,0-2.1,0.34-2.77,1.02c-0.67,0.68-1,1.62-1,2.82h-4.17c0.02-1.56,0.36-2.9,1.02-4.02
		c0.66-1.12,1.58-2,2.79-2.62s2.6-0.93,4.2-0.93c1.53,0,2.87,0.29,4,0.87s2.01,1.39,2.64,2.44s0.93,2.29,0.93,3.74
		c0,1.49-0.38,2.94-1.15,4.35c-0.77,1.41-2,2.93-3.69,4.55l-5.07,4.97h10.21v3.77H212.5z"/>
	<path d="M232.52,62.23v-4.04l7.61-7.64c1.07-1.09,1.86-2.07,2.37-2.95s0.77-1.79,0.77-2.72c0-1.13-0.31-2.02-0.93-2.65
		s-1.47-0.95-2.54-0.95c-1.18,0-2.1,0.34-2.77,1.02c-0.67,0.68-1,1.62-1,2.82h-4.17c0.02-1.56,0.36-2.9,1.02-4.02
		c0.66-1.12,1.58-2,2.79-2.62s2.6-0.93,4.2-0.93c1.54,0,2.87,0.29,4,0.87s2.01,1.39,2.64,2.44s0.93,2.29,0.93,3.74
		c0,1.49-0.38,2.94-1.15,4.35c-0.77,1.41-2,2.93-3.69,4.55l-5.07,4.97h10.21v3.77H232.52z"/>
	<path d="M273.36,62.23V37.87h4.17v20.49h10.34v3.87H273.36z"/>
	<path d="M292.48,62.23v-3.8h6.41V47.65h-5.57v-3.77h9.58v14.55h5.67v3.8H292.48z M300.55,40.81c-0.85,0-1.51-0.22-2-0.65
		c-0.49-0.43-0.73-1.02-0.73-1.75c0-0.73,0.25-1.32,0.73-1.75s1.16-0.65,2-0.65s1.51,0.22,2,0.65s0.73,1.02,0.73,1.75
		c0,0.73-0.25,1.32-0.73,1.75C302.06,40.59,301.4,40.81,300.55,40.81z"/>
	<path d="M317.3,62.23l-6.04-18.35h4.27l3.5,11.14c0.2,0.67,0.4,1.36,0.58,2.07c0.19,0.71,0.33,1.28,0.42,1.7
		c0.11-0.42,0.25-0.99,0.43-1.7c0.18-0.71,0.36-1.39,0.53-2.04l3.44-11.18h4.24l-6.01,18.35H317.3z"/>
	<path d="M340.02,62.57c-1.56,0-2.91-0.3-4.07-0.9c-1.16-0.6-2.05-1.44-2.69-2.52c-0.63-1.08-0.95-2.34-0.95-3.79v-4.61
		c0-1.45,0.32-2.71,0.95-3.79c0.63-1.08,1.53-1.92,2.69-2.52c1.16-0.6,2.51-0.9,4.07-0.9c1.54,0,2.88,0.3,4.02,0.9
		s2.04,1.44,2.67,2.52c0.63,1.08,0.95,2.34,0.95,3.79v3.3h-11.31v1.3c0,1.29,0.31,2.26,0.93,2.92c0.62,0.66,1.55,0.98,2.77,0.98
		c0.93,0,1.69-0.16,2.27-0.48c0.58-0.32,0.95-0.79,1.1-1.42h4.1c-0.31,1.58-1.15,2.84-2.52,3.79S341.98,62.57,340.02,62.57z
		 M343.63,51.72v-1c0-1.27-0.3-2.24-0.9-2.92s-1.5-1.02-2.7-1.02s-2.11,0.34-2.74,1.03c-0.62,0.69-0.93,1.67-0.93,2.94v0.7
		l7.57-0.07L343.63,51.72z"/>
	<path d="M372.69,62.23V37.87h15.15v3.87h-11.04v6.51h10.18v3.87h-10.11v10.11H372.69z"/>
	<path d="M400.05,62.53c-1.56,0-2.91-0.3-4.05-0.88c-1.15-0.59-2.04-1.42-2.67-2.5c-0.63-1.08-0.95-2.35-0.95-3.82v-4.54
		c0-1.47,0.32-2.74,0.95-3.82c0.63-1.08,1.52-1.91,2.67-2.5c1.15-0.59,2.5-0.88,4.05-0.88c1.58,0,2.94,0.29,4.07,0.88
		c1.13,0.59,2.02,1.42,2.65,2.5c0.63,1.08,0.95,2.34,0.95,3.79v4.57c0,1.47-0.32,2.74-0.95,3.82s-1.52,1.91-2.65,2.5
		C402.99,62.24,401.63,62.53,400.05,62.53z M400.05,58.89c1.11,0,1.97-0.31,2.59-0.92c0.61-0.61,0.92-1.5,0.92-2.65v-4.54
		c0-1.18-0.31-2.07-0.92-2.67c-0.61-0.6-1.47-0.9-2.59-0.9c-1.09,0-1.95,0.3-2.57,0.9s-0.93,1.49-0.93,2.67v4.54
		c0,1.16,0.31,2.04,0.93,2.65C398.1,58.59,398.96,58.89,400.05,58.89z"/>
	<path d="M413.2,62.23V43.88h3.94v3.5h1.04l-1.24,2.13c0-1.98,0.45-3.47,1.33-4.47s2.2-1.5,3.94-1.5c1.98,0,3.54,0.61,4.67,1.84
		c1.13,1.22,1.7,2.91,1.7,5.07v1.33h-4.37v-1.04c0-1.18-0.31-2.09-0.92-2.74c-0.61-0.65-1.45-0.97-2.52-0.97
		c-1.09,0-1.93,0.32-2.52,0.97c-0.59,0.65-0.88,1.56-0.88,2.74v11.48H413.2z"/>
	<path d="M440.12,62.57c-1.56,0-2.91-0.3-4.07-0.9c-1.16-0.6-2.05-1.44-2.69-2.52c-0.63-1.08-0.95-2.34-0.95-3.79v-4.61
		c0-1.45,0.32-2.71,0.95-3.79c0.63-1.08,1.53-1.92,2.69-2.52c1.16-0.6,2.51-0.9,4.07-0.9c1.54,0,2.88,0.3,4.02,0.9
		s2.04,1.44,2.67,2.52c0.63,1.08,0.95,2.34,0.95,3.79v3.3h-11.31v1.3c0,1.29,0.31,2.26,0.93,2.92c0.62,0.66,1.55,0.98,2.77,0.98
		c0.93,0,1.69-0.16,2.27-0.48c0.58-0.32,0.95-0.79,1.1-1.42h4.1c-0.31,1.58-1.15,2.84-2.52,3.79S442.08,62.57,440.12,62.57z
		 M443.72,51.72v-1c0-1.27-0.3-2.24-0.9-2.92s-1.5-1.02-2.7-1.02s-2.11,0.34-2.74,1.03c-0.62,0.69-0.93,1.67-0.93,2.94v0.7
		l7.57-0.07L443.72,51.72z"/>
	<path d="M460.21,62.57c-1.56,0-2.92-0.29-4.09-0.88c-1.17-0.59-2.07-1.42-2.72-2.5c-0.65-1.08-0.97-2.35-0.97-3.82v-4.61
		c0-1.49,0.32-2.77,0.97-3.84c0.64-1.07,1.55-1.9,2.72-2.49c1.17-0.59,2.53-0.88,4.09-0.88c2.31,0,4.16,0.6,5.54,1.79
		c1.38,1.19,2.1,2.81,2.17,4.86h-4.17c-0.07-0.96-0.41-1.7-1.02-2.22c-0.61-0.52-1.45-0.78-2.52-0.78c-1.11,0-1.99,0.31-2.64,0.92
		c-0.64,0.61-0.97,1.49-0.97,2.62v4.64c0,1.13,0.32,2.01,0.97,2.64c0.65,0.62,1.52,0.93,2.64,0.93c1.07,0,1.91-0.26,2.52-0.78
		c0.61-0.52,0.95-1.26,1.02-2.22h4.17c-0.07,2.05-0.79,3.67-2.17,4.86C464.37,61.97,462.52,62.57,460.21,62.57z"/>
	<path d="M478.09,62.57c-1.89,0-3.38-0.5-4.47-1.5c-1.09-1-1.64-2.35-1.64-4.04c0-1.8,0.6-3.19,1.8-4.17
		c1.2-0.98,2.9-1.47,5.11-1.47h4.57v-1.57c0-0.89-0.29-1.58-0.87-2.09c-0.58-0.5-1.37-0.75-2.37-0.75c-0.91,0-1.67,0.2-2.27,0.6
		s-0.96,0.95-1.07,1.63h-4.07c0.2-1.74,0.98-3.11,2.33-4.14c1.36-1.02,3.09-1.54,5.21-1.54c2.25,0,4.02,0.56,5.32,1.69
		s1.95,2.64,1.95,4.55v12.45h-4.04v-3.2h-0.67l0.67-0.9c0,1.36-0.5,2.44-1.5,3.24S479.76,62.57,478.09,62.57z M479.46,59.43
		c1.18,0,2.14-0.3,2.89-0.9s1.12-1.38,1.12-2.33v-2.24h-4.5c-0.85,0-1.52,0.24-2.04,0.73s-0.77,1.13-0.77,1.94
		c0,0.87,0.29,1.55,0.88,2.05C477.63,59.18,478.44,59.43,479.46,59.43z"/>
	<path d="M499.45,62.53c-1.4,0-2.62-0.22-3.67-0.67c-1.05-0.44-1.86-1.06-2.45-1.85c-0.59-0.79-0.91-1.72-0.95-2.79h4.17
		c0.04,0.58,0.33,1.05,0.85,1.4c0.52,0.36,1.21,0.53,2.05,0.53h1.47c1.02,0,1.79-0.2,2.3-0.6c0.51-0.4,0.77-0.95,0.77-1.64
		c0-0.64-0.23-1.15-0.68-1.52s-1.16-0.61-2.12-0.72l-2.27-0.33c-2.09-0.29-3.63-0.85-4.6-1.67c-0.98-0.82-1.47-2.06-1.47-3.7
		c0-1.71,0.58-3.04,1.73-3.99s2.86-1.42,5.11-1.42h1.27c2.05,0,3.68,0.46,4.91,1.37c1.22,0.91,1.88,2.14,1.97,3.67h-4.17
		c-0.07-0.49-0.34-0.89-0.82-1.2c-0.48-0.31-1.11-0.47-1.89-0.47h-1.27c-0.96,0-1.65,0.17-2.09,0.52c-0.43,0.34-0.65,0.85-0.65,1.52
		c0,0.62,0.19,1.08,0.57,1.38c0.38,0.3,0.99,0.52,1.83,0.65l2.37,0.33c2.18,0.31,3.79,0.9,4.82,1.75c1.03,0.86,1.55,2.12,1.55,3.79
		c0,1.78-0.61,3.17-1.82,4.15c-1.21,0.99-3,1.49-5.36,1.49H499.45z"/>
	<path d="M522.17,62.23c-1.76,0-3.13-0.49-4.12-1.47c-0.99-0.98-1.49-2.32-1.49-4.04v-9.08h-4.97v-3.77h4.97v-5.17h4.2v5.17h7.04
		v3.77h-7.04v9.08c0,1.16,0.57,1.74,1.7,1.74h5v3.77H522.17z"/>
</g>
<g>
	<path class="st0" d="M106.64,93.82h-8.7c-4.64,0-8.4-3.76-8.4-8.4v-8.7c0-4.64,3.76-8.4,8.4-8.4h8.71c4.64,0,8.4,3.76,8.4,8.4v8.71
		C115.04,90.06,111.28,93.82,106.64,93.82z"/>
	<g>
		<path class="st1" d="M97.68,88.37v-14.6h4.62c0.97,0,1.82,0.18,2.53,0.54c0.71,0.36,1.27,0.86,1.67,1.51
			c0.4,0.65,0.6,1.41,0.6,2.29c0,0.96-0.24,1.81-0.73,2.54c-0.49,0.73-1.14,1.25-1.97,1.56l2.9,6.16h-2.8l-2.54-5.8h-1.78v5.8H97.68
			z M100.18,80.37h2.12c0.71,0,1.26-0.19,1.66-0.58s0.6-0.92,0.6-1.6c0-0.69-0.2-1.24-0.6-1.63s-0.95-0.59-1.66-0.59h-2.12V80.37z"
			/>
	</g>
</g>
<g>
	<path class="st2" d="M614.85,55.41h-8.7c-4.64,0-8.4-3.76-8.4-8.4v-8.7c0-4.64,3.76-8.4,8.4-8.4h8.71c4.64,0,8.4,3.76,8.4,8.4v8.71
		C623.25,51.65,619.49,55.41,614.85,55.41z"/>
	<g>
		<path class="st1" d="M606.89,49.96v-14.6h4.34c0.99,0,1.84,0.19,2.57,0.56c0.73,0.37,1.29,0.9,1.69,1.58
			c0.4,0.68,0.6,1.49,0.6,2.42v5.46c0,0.92-0.2,1.72-0.6,2.41c-0.4,0.69-0.96,1.22-1.69,1.6c-0.73,0.38-1.58,0.57-2.57,0.57H606.89z
			 M609.39,47.66h1.84c0.72,0,1.29-0.2,1.72-0.61s0.64-0.96,0.64-1.67v-5.46c0-0.69-0.21-1.24-0.64-1.65s-1-0.61-1.72-0.61h-1.84
			V47.66z"/>
	</g>
</g>
<g>
	<path class="st0" d="M541.01,88.72h-8.7c-4.64,0-8.4-3.76-8.4-8.4v-8.7c0-4.64,3.76-8.4,8.4-8.4h8.71c4.64,0,8.4,3.76,8.4,8.4v8.71
		C549.41,84.96,545.65,88.72,541.01,88.72z"/>
	<g>
		<path class="st1" d="M532.05,83.27v-14.6h4.62c0.97,0,1.82,0.18,2.53,0.54s1.27,0.86,1.67,1.51c0.4,0.65,0.6,1.41,0.6,2.29
			c0,0.96-0.24,1.81-0.73,2.54c-0.49,0.73-1.14,1.25-1.97,1.56l2.9,6.16h-2.8l-2.54-5.8h-1.78v5.8H532.05z M534.55,75.27h2.12
			c0.71,0,1.26-0.19,1.66-0.58c0.4-0.39,0.6-0.92,0.6-1.6c0-0.69-0.2-1.24-0.6-1.63s-0.95-0.59-1.66-0.59h-2.12V75.27z"/>
	</g>
</g>
<g>
	<path class="st2" d="M70.8,40.84h-8.7c-4.64,0-8.4-3.76-8.4-8.4v-8.7c0-4.64,3.76-8.4,8.4-8.4h8.71c4.64,0,8.4,3.76,8.4,8.4v8.71
		C79.2,37.08,75.44,40.84,70.8,40.84z"/>
	<g>
		<path class="st1" d="M62.84,35.39v-14.6h4.34c0.99,0,1.84,0.19,2.57,0.56c0.73,0.37,1.29,0.9,1.69,1.58s0.6,1.49,0.6,2.42v5.46
			c0,0.92-0.2,1.72-0.6,2.41c-0.4,0.69-0.96,1.22-1.69,1.6c-0.73,0.38-1.58,0.57-2.57,0.57H62.84z M65.34,33.09h1.84
			c0.72,0,1.29-0.2,1.72-0.61s0.64-0.96,0.64-1.67v-5.46c0-0.69-0.21-1.24-0.64-1.65s-1-0.61-1.72-0.61h-1.84V33.09z"/>
	</g>
</g>
<g>
	<path class="st0" d="M43.66,79.98h-8.7c-4.64,0-8.4-3.76-8.4-8.4v-8.7c0-4.64,3.76-8.4,8.4-8.4h8.71c4.64,0,8.4,3.76,8.4,8.4v8.71
		C52.06,76.22,48.3,79.98,43.66,79.98z"/>
	<g>
		<path class="st1" d="M34.7,74.53v-14.6h4.62c0.97,0,1.82,0.18,2.53,0.54c0.71,0.36,1.27,0.86,1.67,1.51
			c0.4,0.65,0.6,1.41,0.6,2.29c0,0.96-0.24,1.81-0.73,2.54c-0.49,0.73-1.14,1.25-1.97,1.56l2.9,6.16h-2.8l-2.54-5.8H37.2v5.8H34.7z
			 M37.2,66.53h2.12c0.71,0,1.26-0.19,1.66-0.58c0.4-0.39,0.6-0.92,0.6-1.6c0-0.69-0.2-1.24-0.6-1.63c-0.4-0.39-0.95-0.59-1.66-0.59
			H37.2V66.53z"/>
	</g>
</g>
<g>
	<path class="st2" d="M560.02,40.84h-8.7c-4.64,0-8.4-3.76-8.4-8.4v-8.7c0-4.64,3.76-8.4,8.4-8.4h8.71c4.64,0,8.4,3.76,8.4,8.4v8.71
		C568.42,37.08,564.66,40.84,560.02,40.84z"/>
	<g>
		<path class="st1" d="M552.06,35.39v-14.6h4.34c0.99,0,1.84,0.19,2.57,0.56c0.73,0.37,1.29,0.9,1.69,1.58
			c0.4,0.68,0.6,1.49,0.6,2.42v5.46c0,0.92-0.2,1.72-0.6,2.41c-0.4,0.69-0.96,1.22-1.69,1.6c-0.73,0.38-1.58,0.57-2.57,0.57H552.06z
			 M554.56,33.09h1.84c0.72,0,1.29-0.2,1.72-0.61s0.64-0.96,0.64-1.67v-5.46c0-0.69-0.21-1.24-0.64-1.65s-1-0.61-1.72-0.61h-1.84
			V33.09z"/>
	</g>
</g>
<g>
	<path class="st0" d="M652.41,90.92h-8.7c-4.64,0-8.4-3.76-8.4-8.4v-8.7c0-4.64,3.76-8.4,8.4-8.4h8.71c4.64,0,8.4,3.76,8.4,8.4v8.71
		C660.81,87.16,657.05,90.92,652.41,90.92z"/>
	<g>
		<path class="st1" d="M643.45,85.47v-14.6h4.62c0.97,0,1.82,0.18,2.53,0.54c0.71,0.36,1.27,0.86,1.67,1.51s0.6,1.41,0.6,2.29
			c0,0.96-0.24,1.81-0.73,2.54c-0.49,0.73-1.14,1.25-1.97,1.56l2.9,6.16h-2.8l-2.54-5.8h-1.78v5.8H643.45z M645.95,77.47h2.12
			c0.71,0,1.26-0.19,1.66-0.58c0.4-0.39,0.6-0.92,0.6-1.6c0-0.69-0.2-1.24-0.6-1.63c-0.4-0.39-0.95-0.59-1.66-0.59h-2.12V77.47z"/>
	</g>
</g>
<g>
	<path class="st2" d="M349.02,34.01h-8.7c-4.64,0-8.4-3.76-8.4-8.4v-8.7c0-4.64,3.76-8.4,8.4-8.4h8.71c4.64,0,8.4,3.76,8.4,8.4v8.71
		C357.42,30.25,353.66,34.01,349.02,34.01z"/>
	<g>
		<path class="st1" d="M341.06,28.56v-14.6h4.34c0.99,0,1.84,0.19,2.57,0.56c0.73,0.37,1.29,0.9,1.69,1.58s0.6,1.49,0.6,2.42v5.46
			c0,0.92-0.2,1.72-0.6,2.41s-0.96,1.22-1.69,1.6c-0.73,0.38-1.58,0.57-2.57,0.57L341.06,28.56z M343.56,26.26h1.84
			c0.72,0,1.29-0.2,1.72-0.61c0.43-0.41,0.64-0.96,0.64-1.67v-5.46c0-0.69-0.21-1.24-0.64-1.65c-0.43-0.41-1-0.61-1.72-0.61h-1.84
			V26.26z"/>
	</g>
</g>
<g>
	<path class="st0" d="M276.75,93.12h-8.7c-4.64,0-8.4-3.76-8.4-8.4v-8.7c0-4.64,3.76-8.4,8.4-8.4h8.71c4.64,0,8.4,3.76,8.4,8.4v8.71
		C285.15,89.36,281.39,93.12,276.75,93.12z"/>
	<g>
		<path class="st1" d="M267.79,87.67v-14.6h4.62c0.97,0,1.82,0.18,2.53,0.54c0.71,0.36,1.27,0.86,1.67,1.51
			c0.4,0.65,0.6,1.41,0.6,2.29c0,0.96-0.24,1.81-0.73,2.54c-0.49,0.73-1.14,1.25-1.97,1.56l2.9,6.16h-2.8l-2.54-5.8h-1.78v5.8
			H267.79z M270.29,79.67h2.12c0.71,0,1.26-0.19,1.66-0.58c0.4-0.39,0.6-0.92,0.6-1.6c0-0.69-0.2-1.24-0.6-1.63
			s-0.95-0.59-1.66-0.59h-2.12V79.67z"/>
	</g>
</g>
<g>
	<path class="st2" d="M438.61,29.01h-8.7c-4.64,0-8.4-3.76-8.4-8.4v-8.7c0-4.64,3.76-8.4,8.4-8.4h8.71c4.64,0,8.4,3.76,8.4,8.4v8.71
		C447.01,25.25,443.25,29.01,438.61,29.01z"/>
	<g>
		<path class="st1" d="M430.65,23.56V8.96h4.34c0.99,0,1.84,0.19,2.57,0.56c0.73,0.37,1.29,0.9,1.69,1.58
			c0.4,0.68,0.6,1.49,0.6,2.42v5.46c0,0.92-0.2,1.72-0.6,2.41s-0.96,1.22-1.69,1.6c-0.73,0.38-1.58,0.57-2.57,0.57L430.65,23.56z
			 M433.15,21.26h1.84c0.72,0,1.29-0.2,1.72-0.61s0.64-0.96,0.64-1.67v-5.46c0-0.69-0.21-1.24-0.64-1.65s-1-0.61-1.72-0.61h-1.84
			V21.26z"/>
	</g>
</g>
<g>
	<path class="st2" d="M415.13,98.22h-8.7c-4.64,0-8.4-3.76-8.4-8.4v-8.7c0-4.64,3.76-8.4,8.4-8.4h8.71c4.64,0,8.4,3.76,8.4,8.4v8.71
		C423.53,94.46,419.77,98.22,415.13,98.22z"/>
	<g>
		<path class="st1" d="M407.17,92.77v-14.6h4.34c0.99,0,1.84,0.19,2.57,0.56c0.73,0.37,1.29,0.9,1.69,1.58s0.6,1.49,0.6,2.42v5.46
			c0,0.92-0.2,1.72-0.6,2.41s-0.96,1.22-1.69,1.6c-0.73,0.38-1.58,0.57-2.57,0.57H407.17z M409.67,90.47h1.84
			c0.72,0,1.29-0.2,1.72-0.61c0.43-0.41,0.64-0.96,0.64-1.67v-5.46c0-0.69-0.21-1.24-0.64-1.65c-0.43-0.41-1-0.61-1.72-0.61h-1.84
			V90.47z"/>
	</g>
</g>
<g>
	<path class="st2" d="M164.02,96.02h-8.7c-4.64,0-8.4-3.76-8.4-8.4v-8.7c0-4.64,3.76-8.4,8.4-8.4h8.71c4.64,0,8.4,3.76,8.4,8.4v8.71
		C172.42,92.26,168.66,96.02,164.02,96.02z"/>
	<g>
		<path class="st1" d="M156.06,90.57v-14.6h4.34c0.99,0,1.84,0.19,2.57,0.56c0.73,0.37,1.29,0.9,1.69,1.58
			c0.4,0.68,0.6,1.49,0.6,2.42v5.46c0,0.92-0.2,1.72-0.6,2.41c-0.4,0.69-0.96,1.22-1.69,1.6c-0.73,0.38-1.58,0.57-2.57,0.57H156.06z
			 M158.56,88.27h1.84c0.72,0,1.29-0.2,1.72-0.61c0.43-0.41,0.64-0.96,0.64-1.67v-5.46c0-0.69-0.21-1.24-0.64-1.65
			c-0.43-0.41-1-0.61-1.72-0.61h-1.84V88.27z"/>
	</g>
</g>
<g>
	<path class="st2" d="M195.19,32.77h-8.7c-4.64,0-8.4-3.76-8.4-8.4v-8.7c0-4.64,3.76-8.4,8.4-8.4h8.71c4.64,0,8.4,3.76,8.4,8.4v8.71
		C203.59,29.01,199.83,32.77,195.19,32.77z"/>
	<g>
		<path class="st1" d="M187.23,27.32v-14.6h4.34c0.99,0,1.84,0.19,2.57,0.56s1.29,0.9,1.69,1.58c0.4,0.68,0.6,1.49,0.6,2.42v5.46
			c0,0.92-0.2,1.72-0.6,2.41c-0.4,0.69-0.96,1.22-1.69,1.6c-0.73,0.38-1.58,0.57-2.57,0.57L187.23,27.32z M189.73,25.02h1.84
			c0.72,0,1.29-0.2,1.72-0.61c0.43-0.41,0.64-0.96,0.64-1.67v-5.46c0-0.69-0.21-1.24-0.64-1.65c-0.43-0.41-1-0.61-1.72-0.61h-1.84
			V25.02z"/>
	</g>
</g>
<g>
	<path class="st0" d="M138.39,51.69h-8.7c-4.64,0-8.4-3.76-8.4-8.4v-8.7c0-4.64,3.76-8.4,8.4-8.4h8.71c4.64,0,8.4,3.76,8.4,8.4v8.71
		C146.79,47.93,143.03,51.69,138.39,51.69z"/>
	<g>
		<path class="st1" d="M129.43,46.24v-14.6h4.62c0.97,0,1.82,0.18,2.53,0.54c0.71,0.36,1.27,0.86,1.67,1.51
			c0.4,0.65,0.6,1.41,0.6,2.29c0,0.96-0.24,1.81-0.73,2.54s-1.14,1.25-1.97,1.56l2.9,6.16h-2.8l-2.54-5.8h-1.78v5.8H129.43z
			 M131.93,38.24h2.12c0.71,0,1.26-0.19,1.66-0.58c0.4-0.39,0.6-0.92,0.6-1.6c0-0.69-0.2-1.24-0.6-1.63
			c-0.4-0.39-0.95-0.59-1.66-0.59h-2.12V38.24z"/>
	</g>
</g>
<g>
	<path class="st0" d="M259.56,32.77h-8.7c-4.64,0-8.4-3.76-8.4-8.4v-8.7c0-4.64,3.76-8.4,8.4-8.4h8.71c4.64,0,8.4,3.76,8.4,8.4v8.71
		C267.96,29.01,264.2,32.77,259.56,32.77z"/>
	<g>
		<path class="st1" d="M250.6,27.32v-14.6h4.62c0.97,0,1.82,0.18,2.53,0.54c0.71,0.36,1.27,0.86,1.67,1.51
			c0.4,0.65,0.6,1.41,0.6,2.29c0,0.96-0.24,1.81-0.73,2.54c-0.49,0.73-1.14,1.25-1.97,1.56l2.9,6.16h-2.8l-2.54-5.8h-1.78v5.8H250.6
			z M253.1,19.32h2.12c0.71,0,1.26-0.19,1.66-0.58c0.4-0.39,0.6-0.92,0.6-1.6c0-0.69-0.2-1.24-0.6-1.63
			c-0.4-0.39-0.95-0.59-1.66-0.59h-2.12V19.32z"/>
	</g>
</g>
<g>
	<path class="st0" d="M593.11,96.02h-8.7c-4.64,0-8.4-3.76-8.4-8.4v-8.7c0-4.64,3.76-8.4,8.4-8.4h8.71c4.64,0,8.4,3.76,8.4,8.4v8.71
		C601.51,92.26,597.75,96.02,593.11,96.02z"/>
	<g>
		<path class="st1" d="M584.15,90.57v-14.6h4.62c0.97,0,1.82,0.18,2.53,0.54c0.71,0.36,1.27,0.86,1.67,1.51
			c0.4,0.65,0.6,1.41,0.6,2.29c0,0.96-0.24,1.81-0.73,2.54c-0.49,0.73-1.14,1.25-1.97,1.56l2.9,6.16h-2.8l-2.54-5.8h-1.78v5.8
			H584.15z M586.65,82.57h2.12c0.71,0,1.26-0.19,1.66-0.58c0.4-0.39,0.6-0.92,0.6-1.6c0-0.69-0.2-1.24-0.6-1.63
			c-0.4-0.39-0.95-0.59-1.66-0.59h-2.12V82.57z"/>
	</g>
</g>
<g>
	<path class="st0" d="M471.86,95.87h-8.7c-4.64,0-8.4-3.76-8.4-8.4v-8.7c0-4.64,3.76-8.4,8.4-8.4h8.71c4.64,0,8.4,3.76,8.4,8.4v8.71
		C480.26,92.11,476.5,95.87,471.86,95.87z"/>
	<g>
		<path class="st1" d="M462.9,90.42v-14.6h4.62c0.97,0,1.82,0.18,2.53,0.54s1.27,0.86,1.67,1.51c0.4,0.65,0.6,1.41,0.6,2.29
			c0,0.96-0.24,1.81-0.73,2.54c-0.49,0.73-1.14,1.25-1.97,1.56l2.9,6.16h-2.8l-2.54-5.8h-1.78v5.8H462.9z M465.4,82.42h2.12
			c0.71,0,1.26-0.19,1.66-0.58s0.6-0.92,0.6-1.6c0-0.69-0.2-1.24-0.6-1.63s-0.95-0.59-1.66-0.59h-2.12V82.42z"/>
	</g>
</g>
<g>
	<path class="st0" d="M333.14,96.02h-8.7c-4.64,0-8.4-3.76-8.4-8.4v-8.7c0-4.64,3.76-8.4,8.4-8.4h8.71c4.64,0,8.4,3.76,8.4,8.4v8.71
		C341.54,92.26,337.78,96.02,333.14,96.02z"/>
	<g>
		<path class="st1" d="M324.18,90.57v-14.6h4.62c0.97,0,1.82,0.18,2.53,0.54c0.71,0.36,1.27,0.86,1.67,1.51
			c0.4,0.65,0.6,1.41,0.6,2.29c0,0.96-0.24,1.81-0.73,2.54c-0.49,0.73-1.14,1.25-1.97,1.56l2.9,6.16H331l-2.54-5.8h-1.78v5.8H324.18
			z M326.68,82.57h2.12c0.71,0,1.26-0.19,1.66-0.58c0.4-0.39,0.6-0.92,0.6-1.6c0-0.69-0.2-1.24-0.6-1.63
			c-0.4-0.39-0.95-0.59-1.66-0.59h-2.12V82.57z"/>
	</g>
</g>
</svg>
