<?xml version="1.0" encoding="utf-8"?>
<!-- Generator: Adobe Illustrator 24.1.0, SVG Export Plug-In . SVG Version: 6.00 Build 0)  -->
<svg version="1.1" id="Layer_1" xmlns="http://www.w3.org/2000/svg" xmlns:xlink="http://www.w3.org/1999/xlink" x="0px" y="0px"
	 viewBox="0 0 800 418" style="enable-background:new 0 0 800 418;" xml:space="preserve">
<style type="text/css">
	.st0{fill:#FF6666;}
	.st1{fill:#FFFFFF;}
	.st2{fill:#339AFF;}
</style>
<g>
	<path class="st2" d="M96.08,174.55h-8.7c-4.64,0-8.4-3.76-8.4-8.4v-8.7c0-4.64,3.76-8.4,8.4-8.4h8.71c4.64,0,8.4,3.76,8.4,8.4v8.71
		C104.48,170.79,100.72,174.55,96.08,174.55z"/>
	<g>
		<path class="st1" d="M88.12,169.1v-14.6h4.34c0.99,0,1.84,0.19,2.57,0.56c0.73,0.37,1.29,0.9,1.69,1.58
			c0.4,0.68,0.6,1.49,0.6,2.42v5.46c0,0.92-0.2,1.72-0.6,2.41c-0.4,0.69-0.96,1.22-1.69,1.6c-0.73,0.38-1.58,0.57-2.57,0.57H88.12z
			 M90.62,166.8h1.84c0.72,0,1.29-0.2,1.72-0.61c0.43-0.41,0.64-0.96,0.64-1.67v-5.46c0-0.69-0.21-1.24-0.64-1.65
			c-0.43-0.41-1-0.61-1.72-0.61h-1.84V166.8z"/>
	</g>
</g>
<g>
	<path d="M162.66,209v-5.44l10.26-10.3c1.44-1.47,2.5-2.8,3.19-3.98c0.69-1.18,1.03-2.41,1.03-3.67c0-1.53-0.42-2.72-1.26-3.58
		c-0.84-0.85-1.98-1.28-3.42-1.28c-1.59,0-2.83,0.46-3.73,1.37c-0.9,0.92-1.35,2.18-1.35,3.8h-5.62c0.03-2.1,0.49-3.91,1.37-5.42
		c0.88-1.51,2.14-2.69,3.76-3.53s3.51-1.26,5.67-1.26c2.07,0,3.87,0.39,5.4,1.17c1.53,0.78,2.71,1.88,3.55,3.28
		c0.84,1.41,1.26,3.09,1.26,5.04c0,2.01-0.52,3.97-1.55,5.87s-2.69,3.95-4.97,6.14l-6.84,6.7h13.77V209H162.66z"/>
	<path d="M199.59,209.45c-2.13,0-3.97-0.41-5.53-1.21c-1.56-0.81-2.77-1.95-3.62-3.42c-0.85-1.47-1.28-3.19-1.28-5.17v-14.12
		c0-1.98,0.43-3.7,1.28-5.17c0.85-1.47,2.06-2.61,3.62-3.42c1.56-0.81,3.4-1.21,5.53-1.21c2.16,0,4.01,0.4,5.56,1.21
		c1.54,0.81,2.74,1.95,3.6,3.42c0.85,1.47,1.28,3.19,1.28,5.17v14.12c0,1.98-0.43,3.7-1.28,5.17c-0.85,1.47-2.06,2.61-3.62,3.42
		C203.56,209.05,201.72,209.45,199.59,209.45z M199.59,204.59c1.56,0,2.8-0.45,3.73-1.35c0.93-0.9,1.39-2.1,1.39-3.6v-14.12
		c0-1.5-0.47-2.7-1.39-3.6c-0.93-0.9-2.17-1.35-3.73-1.35c-1.56,0-2.8,0.45-3.73,1.35c-0.93,0.9-1.39,2.1-1.39,3.6v14.12
		c0,1.5,0.46,2.7,1.39,3.6C196.79,204.14,198.03,204.59,199.59,204.59z M199.59,195.51c-0.87,0-1.58-0.29-2.14-0.85
		c-0.56-0.57-0.83-1.3-0.83-2.2c0-0.9,0.27-1.62,0.81-2.16c0.54-0.54,1.26-0.81,2.16-0.81c0.9,0,1.62,0.27,2.16,0.81
		c0.54,0.54,0.81,1.26,0.81,2.16c0,0.9-0.27,1.63-0.81,2.2C201.21,195.22,200.49,195.51,199.59,195.51z"/>
	<path d="M216.64,209v-5.44l10.26-10.3c1.44-1.47,2.5-2.8,3.19-3.98c0.69-1.18,1.03-2.41,1.03-3.67c0-1.53-0.42-2.72-1.26-3.58
		c-0.84-0.85-1.98-1.28-3.42-1.28c-1.59,0-2.83,0.46-3.73,1.37c-0.9,0.92-1.35,2.18-1.35,3.8h-5.62c0.03-2.1,0.49-3.91,1.37-5.42
		c0.88-1.51,2.14-2.69,3.76-3.53s3.51-1.26,5.67-1.26c2.07,0,3.87,0.39,5.4,1.17c1.53,0.78,2.71,1.88,3.55,3.28
		c0.84,1.41,1.26,3.09,1.26,5.04c0,2.01-0.52,3.97-1.55,5.87c-1.04,1.9-2.69,3.95-4.97,6.14l-6.84,6.7h13.77V209H216.64z"/>
	<path d="M243.63,209v-5.44l10.26-10.3c1.44-1.47,2.5-2.8,3.19-3.98c0.69-1.18,1.04-2.41,1.04-3.67c0-1.53-0.42-2.72-1.26-3.58
		c-0.84-0.85-1.98-1.28-3.42-1.28c-1.59,0-2.83,0.46-3.73,1.37c-0.9,0.92-1.35,2.18-1.35,3.8h-5.62c0.03-2.1,0.49-3.91,1.37-5.42
		c0.88-1.51,2.14-2.69,3.76-3.53s3.51-1.26,5.67-1.26c2.07,0,3.87,0.39,5.4,1.17c1.53,0.78,2.71,1.88,3.55,3.28
		c0.84,1.41,1.26,3.09,1.26,5.04c0,2.01-0.52,3.97-1.55,5.87c-1.03,1.9-2.69,3.95-4.97,6.14l-6.84,6.7h13.76V209H243.63z"/>
	<path d="M298.69,209v-32.84h5.62v27.62h13.94V209H298.69z"/>
	<path d="M324.46,209v-5.13h8.64v-14.53h-7.51v-5.08h12.91v19.61h7.65V209H324.46z M335.35,180.12c-1.14,0-2.04-0.29-2.7-0.88
		c-0.66-0.58-0.99-1.37-0.99-2.36c0-0.99,0.33-1.78,0.99-2.36c0.66-0.58,1.56-0.88,2.7-0.88s2.04,0.29,2.7,0.88
		c0.66,0.58,0.99,1.37,0.99,2.36c0,0.99-0.33,1.78-0.99,2.36C337.39,179.83,336.49,180.12,335.35,180.12z"/>
	<path d="M357.93,209l-8.14-24.74h5.76l4.72,15.02c0.27,0.9,0.53,1.83,0.79,2.79c0.25,0.96,0.44,1.72,0.56,2.29
		c0.15-0.57,0.34-1.33,0.58-2.29c0.24-0.96,0.48-1.87,0.72-2.74l4.63-15.07h5.71l-8.1,24.74H357.93z"/>
	<path d="M388.57,209.45c-2.1,0-3.93-0.41-5.49-1.21s-2.77-1.94-3.62-3.4c-0.85-1.45-1.28-3.16-1.28-5.11v-6.21
		c0-1.95,0.43-3.65,1.28-5.11c0.85-1.45,2.06-2.59,3.62-3.4s3.39-1.21,5.49-1.21c2.07,0,3.88,0.41,5.42,1.21
		c1.54,0.81,2.74,1.94,3.6,3.4c0.85,1.46,1.28,3.16,1.28,5.11v4.45h-15.25v1.75c0,1.74,0.42,3.05,1.26,3.94
		c0.84,0.89,2.08,1.33,3.73,1.33c1.26,0,2.28-0.22,3.06-0.65c0.78-0.43,1.27-1.07,1.48-1.91h5.53c-0.42,2.13-1.55,3.83-3.4,5.11
		C393.45,208.81,391.21,209.45,388.57,209.45z M393.42,194.83v-1.35c0-1.71-0.4-3.02-1.21-3.94c-0.81-0.91-2.02-1.37-3.64-1.37
		c-1.62,0-2.85,0.47-3.69,1.39c-0.84,0.93-1.26,2.25-1.26,3.96v0.94l10.21-0.09L393.42,194.83z"/>
	<path d="M432.61,209v-32.84h20.42v5.22h-14.89v8.77h13.72v5.22h-13.63V209H432.61z"/>
	<path d="M469.49,209.41c-2.1,0-3.92-0.4-5.47-1.19s-2.74-1.92-3.6-3.37c-0.85-1.45-1.28-3.17-1.28-5.15v-6.12
		c0-1.98,0.43-3.7,1.28-5.15c0.85-1.45,2.05-2.58,3.6-3.37c1.54-0.79,3.37-1.19,5.47-1.19c2.13,0,3.96,0.4,5.49,1.19
		c1.53,0.79,2.72,1.92,3.58,3.37c0.85,1.46,1.28,3.16,1.28,5.11v6.16c0,1.98-0.43,3.7-1.28,5.15c-0.85,1.46-2.05,2.58-3.58,3.37
		S471.62,209.41,469.49,209.41z M469.49,204.5c1.5,0,2.66-0.41,3.49-1.24c0.82-0.82,1.24-2.02,1.24-3.58v-6.12
		c0-1.59-0.41-2.79-1.24-3.6c-0.83-0.81-1.99-1.21-3.49-1.21c-1.47,0-2.62,0.41-3.46,1.21s-1.26,2.01-1.26,3.6v6.12
		c0,1.56,0.42,2.75,1.26,3.58C466.87,204.09,468.02,204.5,469.49,204.5z"/>
	<path d="M487.22,209v-24.74h5.31v4.72h1.39l-1.67,2.88c0-2.67,0.6-4.68,1.8-6.03c1.2-1.35,2.97-2.02,5.31-2.02
		c2.67,0,4.77,0.83,6.3,2.47s2.29,3.93,2.29,6.84v1.8h-5.89v-1.39c0-1.59-0.41-2.82-1.24-3.69s-1.96-1.3-3.4-1.3
		c-1.47,0-2.6,0.43-3.4,1.3c-0.79,0.87-1.19,2.1-1.19,3.69V209H487.22z"/>
	<path d="M523.52,209.45c-2.1,0-3.93-0.41-5.49-1.21s-2.77-1.94-3.62-3.4c-0.85-1.45-1.28-3.16-1.28-5.11v-6.21
		c0-1.95,0.43-3.65,1.28-5.11c0.85-1.45,2.06-2.59,3.62-3.4s3.39-1.21,5.49-1.21c2.07,0,3.88,0.41,5.42,1.21
		c1.54,0.81,2.74,1.94,3.6,3.4c0.85,1.46,1.28,3.16,1.28,5.11v4.45h-15.25v1.75c0,1.74,0.42,3.05,1.26,3.94
		c0.84,0.89,2.08,1.33,3.73,1.33c1.26,0,2.28-0.22,3.06-0.65c0.78-0.43,1.27-1.07,1.48-1.91h5.53c-0.42,2.13-1.55,3.83-3.4,5.11
		C528.4,208.81,526.16,209.45,523.52,209.45z M528.38,194.83v-1.35c0-1.71-0.4-3.02-1.21-3.94c-0.81-0.91-2.02-1.37-3.64-1.37
		c-1.62,0-2.85,0.47-3.69,1.39c-0.84,0.93-1.26,2.25-1.26,3.96v0.94l10.21-0.09L528.38,194.83z"/>
	<path d="M550.6,209.45c-2.1,0-3.94-0.4-5.51-1.19c-1.58-0.79-2.8-1.92-3.67-3.37c-0.87-1.45-1.3-3.17-1.3-5.15v-6.21
		c0-2.01,0.43-3.73,1.3-5.17s2.09-2.56,3.67-3.35c1.57-0.79,3.41-1.19,5.51-1.19c3.12,0,5.61,0.8,7.47,2.41
		c1.86,1.6,2.83,3.79,2.92,6.54h-5.62c-0.09-1.29-0.55-2.29-1.37-2.99c-0.83-0.7-1.96-1.06-3.4-1.06c-1.5,0-2.68,0.41-3.55,1.24
		c-0.87,0.83-1.3,2-1.3,3.53v6.25c0,1.53,0.43,2.71,1.3,3.55c0.87,0.84,2.05,1.26,3.55,1.26c1.44,0,2.57-0.35,3.4-1.06
		c0.82-0.7,1.28-1.7,1.37-2.99h5.62c-0.09,2.76-1.06,4.94-2.92,6.54C556.2,208.65,553.72,209.45,550.6,209.45z"/>
	<path d="M574.71,209.45c-2.55,0-4.56-0.67-6.03-2.02c-1.47-1.35-2.2-3.16-2.2-5.44c0-2.43,0.81-4.3,2.43-5.62
		c1.62-1.32,3.91-1.98,6.88-1.98h6.16v-2.11c0-1.2-0.39-2.14-1.17-2.81c-0.78-0.67-1.84-1.01-3.19-1.01c-1.23,0-2.25,0.27-3.06,0.81
		s-1.29,1.28-1.44,2.2h-5.49c0.27-2.34,1.32-4.2,3.15-5.58c1.83-1.38,4.17-2.07,7.02-2.07c3.03,0,5.42,0.76,7.17,2.27
		c1.75,1.52,2.63,3.56,2.63,6.14V209h-5.44v-4.32h-0.9l0.9-1.21c0,1.83-0.67,3.28-2.02,4.36
		C578.76,208.91,576.96,209.45,574.71,209.45z M576.55,205.22c1.59,0,2.89-0.41,3.89-1.21s1.51-1.86,1.51-3.15v-3.01h-6.07
		c-1.14,0-2.05,0.33-2.74,0.99c-0.69,0.66-1.03,1.53-1.03,2.61c0,1.17,0.4,2.09,1.19,2.77S575.17,205.22,576.55,205.22z"/>
	<path d="M603.5,209.41c-1.89,0-3.54-0.3-4.95-0.9c-1.41-0.6-2.51-1.43-3.31-2.5c-0.79-1.06-1.22-2.32-1.28-3.76h5.62
		c0.06,0.78,0.44,1.41,1.15,1.89c0.7,0.48,1.63,0.72,2.77,0.72h1.98c1.38,0,2.41-0.27,3.1-0.81c0.69-0.54,1.03-1.27,1.03-2.2
		c0-0.87-0.31-1.55-0.92-2.05c-0.62-0.5-1.57-0.82-2.86-0.97l-3.06-0.45c-2.82-0.39-4.89-1.14-6.21-2.25
		c-1.32-1.11-1.98-2.77-1.98-4.99c0-2.31,0.78-4.1,2.34-5.38c1.56-1.27,3.85-1.91,6.88-1.91h1.71c2.76,0,4.96,0.62,6.61,1.84
		s2.53,2.88,2.65,4.95h-5.62c-0.09-0.66-0.46-1.2-1.1-1.62s-1.49-0.63-2.54-0.63h-1.71c-1.29,0-2.23,0.23-2.81,0.7
		s-0.88,1.15-0.88,2.05c0,0.84,0.25,1.46,0.76,1.87c0.51,0.41,1.33,0.7,2.47,0.88l3.19,0.45c2.94,0.42,5.11,1.21,6.5,2.36
		s2.09,2.86,2.09,5.11c0,2.4-0.82,4.27-2.45,5.6c-1.63,1.33-4.04,2-7.22,2H603.5z"/>
	<path d="M634.13,209c-2.37,0-4.22-0.66-5.56-1.98c-1.33-1.32-2-3.13-2-5.44v-12.24h-6.7v-5.08h6.7v-6.97h5.67v6.97h9.49v5.08h-9.49
		v12.24c0,1.56,0.76,2.34,2.29,2.34h6.75V209H634.13z"/>
</g>
<g>
	<path class="st0" d="M85.66,221.11h-8.7c-4.64,0-8.4-3.76-8.4-8.4v-8.7c0-4.64,3.76-8.4,8.4-8.4h8.71c4.64,0,8.4,3.76,8.4,8.4v8.71
		C94.06,217.35,90.3,221.11,85.66,221.11z"/>
	<g>
		<path class="st1" d="M76.7,215.66v-14.6h4.62c0.97,0,1.82,0.18,2.53,0.54c0.71,0.36,1.27,0.86,1.67,1.51
			c0.4,0.65,0.6,1.41,0.6,2.29c0,0.96-0.24,1.81-0.73,2.54c-0.49,0.73-1.14,1.25-1.97,1.56l2.9,6.16h-2.8l-2.54-5.8H79.2v5.8H76.7z
			 M79.2,207.66h2.12c0.71,0,1.26-0.19,1.66-0.58s0.6-0.92,0.6-1.6c0-0.69-0.2-1.24-0.6-1.63s-0.95-0.59-1.66-0.59H79.2V207.66z"/>
	</g>
</g>
<g>
	<path class="st0" d="M126.39,188.1h-8.7c-4.64,0-8.4-3.76-8.4-8.4V171c0-4.64,3.76-8.4,8.4-8.4h8.71c4.64,0,8.4,3.76,8.4,8.4v8.71
		C134.79,184.34,131.03,188.1,126.39,188.1z"/>
	<g>
		<path class="st1" d="M117.43,182.65v-14.6h4.62c0.97,0,1.82,0.18,2.53,0.54s1.27,0.86,1.67,1.51c0.4,0.65,0.6,1.41,0.6,2.29
			c0,0.96-0.24,1.81-0.73,2.54c-0.49,0.73-1.14,1.25-1.97,1.56l2.9,6.16h-2.8l-2.54-5.8h-1.78v5.8H117.43z M119.93,174.65h2.12
			c0.71,0,1.26-0.19,1.66-0.58s0.6-0.92,0.6-1.6c0-0.69-0.2-1.24-0.6-1.63s-0.95-0.59-1.66-0.59h-2.12V174.65z"/>
	</g>
</g>
<g>
	<path class="st2" d="M113.63,234.11h-8.7c-4.64,0-8.4-3.76-8.4-8.4v-8.7c0-4.64,3.76-8.4,8.4-8.4h8.71c4.64,0,8.4,3.76,8.4,8.4
		v8.71C122.03,230.35,118.27,234.11,113.63,234.11z"/>
	<g>
		<path class="st1" d="M105.67,228.66v-14.6h4.34c0.99,0,1.84,0.19,2.57,0.56c0.73,0.37,1.29,0.9,1.69,1.58
			c0.4,0.68,0.6,1.49,0.6,2.42v5.46c0,0.92-0.2,1.72-0.6,2.41c-0.4,0.69-0.96,1.22-1.69,1.6c-0.73,0.38-1.58,0.57-2.57,0.57
			L105.67,228.66z M108.17,226.36h1.84c0.72,0,1.29-0.2,1.72-0.61c0.43-0.41,0.64-0.96,0.64-1.67v-5.46c0-0.69-0.21-1.24-0.64-1.65
			c-0.43-0.41-1-0.61-1.72-0.61h-1.84V226.36z"/>
	</g>
</g>
<g>
	<path class="st2" d="M88.52,122.66h-8.7c-4.64,0-8.4-3.76-8.4-8.4v-8.7c0-4.64,3.76-8.4,8.4-8.4h8.71c4.64,0,8.4,3.76,8.4,8.4v8.71
		C96.92,118.9,93.16,122.66,88.52,122.66z"/>
	<g>
		<path class="st1" d="M80.56,117.21v-14.6h4.34c0.99,0,1.84,0.19,2.57,0.56c0.73,0.37,1.29,0.9,1.69,1.58
			c0.4,0.68,0.6,1.49,0.6,2.42v5.46c0,0.92-0.2,1.72-0.6,2.41c-0.4,0.69-0.96,1.22-1.69,1.6c-0.73,0.38-1.58,0.57-2.57,0.57H80.56z
			 M83.06,114.91h1.84c0.72,0,1.29-0.2,1.72-0.61c0.43-0.41,0.64-0.96,0.64-1.67v-5.46c0-0.69-0.21-1.24-0.64-1.65
			c-0.43-0.41-1-0.61-1.72-0.61h-1.84V114.91z"/>
	</g>
</g>
<g>
	<path class="st0" d="M61.39,161.8h-8.7c-4.64,0-8.4-3.76-8.4-8.4v-8.7c0-4.64,3.76-8.4,8.4-8.4h8.71c4.64,0,8.4,3.76,8.4,8.4v8.71
		C69.79,158.04,66.03,161.8,61.39,161.8z"/>
	<g>
		<path class="st1" d="M52.43,156.35v-14.6h4.62c0.97,0,1.82,0.18,2.53,0.54s1.27,0.86,1.67,1.51c0.4,0.65,0.6,1.41,0.6,2.29
			c0,0.96-0.24,1.81-0.73,2.54c-0.49,0.73-1.14,1.25-1.97,1.56l2.9,6.16h-2.8l-2.54-5.8h-1.78v5.8H52.43z M54.93,148.35h2.12
			c0.71,0,1.26-0.19,1.66-0.58c0.4-0.39,0.6-0.92,0.6-1.6c0-0.69-0.2-1.24-0.6-1.63c-0.4-0.39-0.95-0.59-1.66-0.59h-2.12V148.35z"/>
	</g>
</g>
<g>
	<path class="st2" d="M171.58,111.52h-8.7c-4.64,0-8.4-3.76-8.4-8.4v-8.7c0-4.64,3.76-8.4,8.4-8.4h8.71c4.64,0,8.4,3.76,8.4,8.4
		v8.71C179.98,107.76,176.22,111.52,171.58,111.52z"/>
	<g>
		<path class="st1" d="M163.62,106.07v-14.6h4.34c0.99,0,1.84,0.19,2.57,0.56s1.29,0.9,1.69,1.58c0.4,0.68,0.6,1.49,0.6,2.42v5.46
			c0,0.92-0.2,1.72-0.6,2.41s-0.96,1.22-1.69,1.6s-1.58,0.57-2.57,0.57H163.62z M166.12,103.77h1.84c0.72,0,1.29-0.2,1.72-0.61
			c0.43-0.41,0.64-0.96,0.64-1.67v-5.46c0-0.69-0.21-1.24-0.64-1.65c-0.43-0.41-1-0.61-1.72-0.61h-1.84V103.77z"/>
	</g>
</g>
<g>
	<path class="st0" d="M161.15,158.08h-8.7c-4.64,0-8.4-3.76-8.4-8.4v-8.7c0-4.64,3.76-8.4,8.4-8.4h8.71c4.64,0,8.4,3.76,8.4,8.4
		v8.71C169.55,154.32,165.79,158.08,161.15,158.08z"/>
	<g>
		<path class="st1" d="M152.19,152.63v-14.6h4.62c0.97,0,1.82,0.18,2.53,0.54s1.27,0.86,1.67,1.51c0.4,0.65,0.6,1.41,0.6,2.29
			c0,0.96-0.24,1.81-0.73,2.54c-0.49,0.73-1.14,1.25-1.97,1.56l2.9,6.16h-2.8l-2.54-5.8h-1.78v5.8H152.19z M154.69,144.63h2.12
			c0.71,0,1.26-0.19,1.66-0.58c0.4-0.39,0.6-0.92,0.6-1.6c0-0.69-0.2-1.24-0.6-1.63c-0.4-0.39-0.95-0.59-1.66-0.59h-2.12V144.63z"/>
	</g>
</g>
<g>
	<path class="st0" d="M201.89,125.08h-8.7c-4.64,0-8.4-3.76-8.4-8.4v-8.7c0-4.64,3.76-8.4,8.4-8.4h8.71c4.64,0,8.4,3.76,8.4,8.4
		v8.71C210.29,121.32,206.53,125.08,201.89,125.08z"/>
	<g>
		<path class="st1" d="M192.93,119.63v-14.6h4.62c0.97,0,1.82,0.18,2.53,0.54c0.71,0.36,1.27,0.86,1.67,1.51
			c0.4,0.65,0.6,1.41,0.6,2.29c0,0.96-0.24,1.81-0.73,2.54c-0.49,0.73-1.14,1.25-1.97,1.56l2.9,6.16h-2.8l-2.54-5.8h-1.78v5.8
			H192.93z M195.43,111.63h2.12c0.71,0,1.26-0.19,1.66-0.58c0.4-0.39,0.6-0.92,0.6-1.6c0-0.69-0.2-1.24-0.6-1.63
			c-0.4-0.39-0.95-0.59-1.66-0.59h-2.12V111.63z"/>
	</g>
</g>
<g>
	<path class="st2" d="M91.61,88.83h-8.7c-4.64,0-8.4-3.76-8.4-8.4v-8.7c0-4.64,3.76-8.4,8.4-8.4h8.71c4.64,0,8.4,3.76,8.4,8.4v8.71
		C100.01,85.07,96.25,88.83,91.61,88.83z"/>
	<g>
		<path class="st1" d="M83.65,83.38v-14.6h4.34c0.99,0,1.84,0.19,2.57,0.56c0.73,0.37,1.29,0.9,1.69,1.58s0.6,1.49,0.6,2.42v5.46
			c0,0.92-0.2,1.72-0.6,2.41c-0.4,0.69-0.96,1.22-1.69,1.6c-0.73,0.38-1.58,0.57-2.57,0.57H83.65z M86.15,81.08h1.84
			c0.72,0,1.29-0.2,1.72-0.61c0.43-0.41,0.64-0.96,0.64-1.67v-5.46c0-0.69-0.21-1.24-0.64-1.65c-0.43-0.41-1-0.61-1.72-0.61h-1.84
			V81.08z"/>
	</g>
</g>
<g>
	<path class="st2" d="M164.02,59.63h-8.7c-4.64,0-8.4-3.76-8.4-8.4v-8.7c0-4.64,3.76-8.4,8.4-8.4h8.71c4.64,0,8.4,3.76,8.4,8.4v8.71
		C172.42,55.87,168.66,59.63,164.02,59.63z"/>
	<g>
		<path class="st1" d="M156.06,54.18v-14.6h4.34c0.99,0,1.84,0.19,2.57,0.56c0.73,0.37,1.29,0.9,1.69,1.58
			c0.4,0.68,0.6,1.49,0.6,2.42v5.46c0,0.92-0.2,1.72-0.6,2.41c-0.4,0.69-0.96,1.22-1.69,1.6c-0.73,0.38-1.58,0.57-2.57,0.57H156.06z
			 M158.56,51.88h1.84c0.72,0,1.29-0.2,1.72-0.61c0.43-0.41,0.64-0.96,0.64-1.67v-5.46c0-0.69-0.21-1.24-0.64-1.65
			c-0.43-0.41-1-0.61-1.72-0.61h-1.84V51.88z"/>
	</g>
</g>
<g>
	<path class="st0" d="M136.89,98.77h-8.7c-4.64,0-8.4-3.76-8.4-8.4v-8.7c0-4.64,3.76-8.4,8.4-8.4h8.71c4.64,0,8.4,3.76,8.4,8.4v8.71
		C145.29,95.01,141.53,98.77,136.89,98.77z"/>
	<g>
		<path class="st1" d="M127.93,93.32v-14.6h4.62c0.97,0,1.82,0.18,2.53,0.54c0.71,0.36,1.27,0.86,1.67,1.51s0.6,1.41,0.6,2.29
			c0,0.96-0.24,1.81-0.73,2.54c-0.49,0.73-1.14,1.25-1.97,1.56l2.9,6.16h-2.8l-2.54-5.8h-1.78v5.8H127.93z M130.43,85.32h2.12
			c0.71,0,1.26-0.19,1.66-0.58c0.4-0.39,0.6-0.92,0.6-1.6c0-0.69-0.2-1.24-0.6-1.63c-0.4-0.39-0.95-0.59-1.66-0.59h-2.12V85.32z"/>
	</g>
</g>
<g>
	<path class="st2" d="M351.22,106.07h-8.7c-4.64,0-8.4-3.76-8.4-8.4v-8.7c0-4.64,3.76-8.4,8.4-8.4h8.71c4.64,0,8.4,3.76,8.4,8.4
		v8.71C359.62,102.31,355.86,106.07,351.22,106.07z"/>
	<g>
		<path class="st1" d="M343.26,100.62v-14.6h4.34c0.99,0,1.84,0.19,2.57,0.56c0.73,0.37,1.29,0.9,1.69,1.58s0.6,1.49,0.6,2.42v5.46
			c0,0.92-0.2,1.72-0.6,2.41c-0.4,0.69-0.96,1.22-1.69,1.6c-0.73,0.38-1.58,0.57-2.57,0.57L343.26,100.62z M345.76,98.32h1.84
			c0.72,0,1.29-0.2,1.72-0.61c0.43-0.41,0.64-0.96,0.64-1.67v-5.46c0-0.69-0.21-1.24-0.64-1.65c-0.43-0.41-1-0.61-1.72-0.61h-1.84
			V98.32z"/>
	</g>
</g>
<g>
	<path class="st0" d="M340.79,152.63h-8.7c-4.64,0-8.4-3.76-8.4-8.4v-8.7c0-4.64,3.76-8.4,8.4-8.4h8.71c4.64,0,8.4,3.76,8.4,8.4
		v8.71C349.19,148.87,345.43,152.63,340.79,152.63z"/>
	<g>
		<path class="st1" d="M331.83,147.18v-14.6h4.62c0.97,0,1.82,0.18,2.53,0.54s1.27,0.86,1.67,1.51c0.4,0.65,0.6,1.41,0.6,2.29
			c0,0.96-0.24,1.81-0.73,2.54c-0.49,0.73-1.14,1.25-1.97,1.56l2.9,6.16h-2.8l-2.54-5.8h-1.78v5.8H331.83z M334.33,139.18h2.12
			c0.71,0,1.26-0.19,1.66-0.58s0.6-0.92,0.6-1.6c0-0.69-0.2-1.24-0.6-1.63s-0.95-0.59-1.66-0.59h-2.12V139.18z"/>
	</g>
</g>
<g>
	<path class="st0" d="M381.53,119.63h-8.7c-4.64,0-8.4-3.76-8.4-8.4v-8.7c0-4.64,3.76-8.4,8.4-8.4h8.71c4.64,0,8.4,3.76,8.4,8.4
		v8.71C389.93,115.87,386.17,119.63,381.53,119.63z"/>
	<g>
		<path class="st1" d="M372.57,114.18v-14.6h4.62c0.97,0,1.82,0.18,2.53,0.54c0.71,0.36,1.27,0.86,1.67,1.51
			c0.4,0.65,0.6,1.41,0.6,2.29c0,0.96-0.24,1.81-0.73,2.54c-0.49,0.73-1.14,1.25-1.97,1.56l2.9,6.16h-2.8l-2.54-5.8h-1.78v5.8
			H372.57z M375.07,106.18h2.12c0.71,0,1.26-0.19,1.66-0.58c0.4-0.39,0.6-0.92,0.6-1.6c0-0.69-0.2-1.24-0.6-1.63
			c-0.4-0.39-0.95-0.59-1.66-0.59h-2.12V106.18z"/>
	</g>
</g>
<g>
	<path class="st2" d="M382.26,67.05h-8.7c-4.64,0-8.4-3.76-8.4-8.4v-8.7c0-4.64,3.76-8.4,8.4-8.4h8.71c4.64,0,8.4,3.76,8.4,8.4v8.71
		C390.66,63.29,386.9,67.05,382.26,67.05z"/>
	<g>
		<path class="st1" d="M374.3,61.6V47h4.34c0.99,0,1.84,0.19,2.57,0.56c0.73,0.37,1.29,0.9,1.69,1.58s0.6,1.49,0.6,2.42v5.46
			c0,0.92-0.2,1.72-0.6,2.41c-0.4,0.69-0.96,1.22-1.69,1.6c-0.73,0.38-1.58,0.57-2.57,0.57L374.3,61.6z M376.8,59.3h1.84
			c0.72,0,1.29-0.2,1.72-0.61c0.43-0.41,0.64-0.96,0.64-1.67v-5.46c0-0.69-0.21-1.24-0.64-1.65c-0.43-0.41-1-0.61-1.72-0.61h-1.84
			V59.3z"/>
	</g>
</g>
<g>
	<path class="st2" d="M287.44,155.89h-8.7c-4.64,0-8.4-3.76-8.4-8.4v-8.7c0-4.64,3.76-8.4,8.4-8.4h8.71c4.64,0,8.4,3.76,8.4,8.4
		v8.71C295.84,152.13,292.08,155.89,287.44,155.89z"/>
	<g>
		<path class="st1" d="M279.48,150.44v-14.6h4.34c0.99,0,1.84,0.19,2.57,0.56s1.29,0.9,1.69,1.58c0.4,0.68,0.6,1.49,0.6,2.42v5.46
			c0,0.92-0.2,1.72-0.6,2.41c-0.4,0.69-0.96,1.22-1.69,1.6c-0.73,0.38-1.58,0.57-2.57,0.57L279.48,150.44z M281.98,148.14h1.84
			c0.72,0,1.29-0.2,1.72-0.61c0.43-0.41,0.64-0.96,0.64-1.67v-5.46c0-0.69-0.21-1.24-0.64-1.65c-0.43-0.41-1-0.61-1.72-0.61h-1.84
			V148.14z"/>
	</g>
</g>
<g>
	<path class="st0" d="M316.53,93.32h-8.7c-4.64,0-8.4-3.76-8.4-8.4v-8.7c0-4.64,3.76-8.4,8.4-8.4h8.71c4.64,0,8.4,3.76,8.4,8.4v8.71
		C324.93,89.56,321.17,93.32,316.53,93.32z"/>
	<g>
		<path class="st1" d="M307.57,87.87v-14.6h4.62c0.97,0,1.82,0.18,2.53,0.54s1.27,0.86,1.67,1.51c0.4,0.65,0.6,1.41,0.6,2.29
			c0,0.96-0.24,1.81-0.73,2.54c-0.49,0.73-1.14,1.25-1.97,1.56l2.9,6.16h-2.8l-2.54-5.8h-1.78v5.8H307.57z M310.07,79.87h2.12
			c0.71,0,1.26-0.19,1.66-0.58s0.6-0.92,0.6-1.6c0-0.69-0.2-1.24-0.6-1.63s-0.95-0.59-1.66-0.59h-2.12V79.87z"/>
	</g>
</g>
<g>
	<path class="st2" d="M604.29,106.07h-8.7c-4.64,0-8.4-3.76-8.4-8.4v-8.7c0-4.64,3.76-8.4,8.4-8.4h8.71c4.64,0,8.4,3.76,8.4,8.4
		v8.71C612.69,102.31,608.93,106.07,604.29,106.07z"/>
	<g>
		<path class="st1" d="M596.33,100.62v-14.6h4.34c0.99,0,1.84,0.19,2.57,0.56c0.73,0.37,1.29,0.9,1.69,1.58s0.6,1.49,0.6,2.42v5.46
			c0,0.92-0.2,1.72-0.6,2.41c-0.4,0.69-0.96,1.22-1.69,1.6c-0.73,0.38-1.58,0.57-2.57,0.57L596.33,100.62z M598.83,98.32h1.84
			c0.72,0,1.29-0.2,1.72-0.61c0.43-0.41,0.64-0.96,0.64-1.67v-5.46c0-0.69-0.21-1.24-0.64-1.65c-0.43-0.41-1-0.61-1.72-0.61h-1.84
			V98.32z"/>
	</g>
</g>
<g>
	<path class="st0" d="M593.86,152.63h-8.7c-4.64,0-8.4-3.76-8.4-8.4v-8.7c0-4.64,3.76-8.4,8.4-8.4h8.71c4.64,0,8.4,3.76,8.4,8.4
		v8.71C602.26,148.87,598.5,152.63,593.86,152.63z"/>
	<g>
		<path class="st1" d="M584.9,147.18v-14.6h4.62c0.97,0,1.82,0.18,2.53,0.54c0.71,0.36,1.27,0.86,1.67,1.51
			c0.4,0.65,0.6,1.41,0.6,2.29c0,0.96-0.24,1.81-0.73,2.54s-1.14,1.25-1.97,1.56l2.9,6.16h-2.8l-2.54-5.8h-1.78v5.8H584.9z
			 M587.4,139.18h2.12c0.71,0,1.26-0.19,1.66-0.58c0.4-0.39,0.6-0.92,0.6-1.6c0-0.69-0.2-1.24-0.6-1.63
			c-0.4-0.39-0.95-0.59-1.66-0.59h-2.12V139.18z"/>
	</g>
</g>
<g>
	<path class="st0" d="M634.59,119.63h-8.7c-4.64,0-8.4-3.76-8.4-8.4v-8.7c0-4.64,3.76-8.4,8.4-8.4h8.71c4.64,0,8.4,3.76,8.4,8.4
		v8.71C642.99,115.87,639.23,119.63,634.59,119.63z"/>
	<g>
		<path class="st1" d="M625.63,114.18v-14.6h4.62c0.97,0,1.82,0.18,2.53,0.54s1.27,0.86,1.67,1.51c0.4,0.65,0.6,1.41,0.6,2.29
			c0,0.96-0.24,1.81-0.73,2.54c-0.49,0.73-1.14,1.25-1.97,1.56l2.9,6.16h-2.8l-2.54-5.8h-1.78v5.8H625.63z M628.13,106.18h2.12
			c0.71,0,1.26-0.19,1.66-0.58c0.4-0.39,0.6-0.92,0.6-1.6c0-0.69-0.2-1.24-0.6-1.63s-0.95-0.59-1.66-0.59h-2.12V106.18z"/>
	</g>
</g>
<g>
	<path class="st2" d="M621.84,165.63h-8.7c-4.64,0-8.4-3.76-8.4-8.4v-8.7c0-4.64,3.76-8.4,8.4-8.4h8.71c4.64,0,8.4,3.76,8.4,8.4
		v8.71C630.24,161.87,626.48,165.63,621.84,165.63z"/>
	<g>
		<path class="st1" d="M613.88,160.18v-14.6h4.34c0.99,0,1.84,0.19,2.57,0.56s1.29,0.9,1.69,1.58c0.4,0.68,0.6,1.49,0.6,2.42v5.46
			c0,0.92-0.2,1.72-0.6,2.41s-0.96,1.22-1.69,1.6s-1.58,0.57-2.57,0.57H613.88z M616.38,157.88h1.84c0.72,0,1.29-0.2,1.72-0.61
			c0.43-0.41,0.64-0.96,0.64-1.67v-5.46c0-0.69-0.21-1.24-0.64-1.65c-0.43-0.41-1-0.61-1.72-0.61h-1.84V157.88z"/>
	</g>
</g>
<g>
	<path class="st2" d="M596.73,54.18h-8.7c-4.64,0-8.4-3.76-8.4-8.4v-8.7c0-4.64,3.76-8.4,8.4-8.4h8.71c4.64,0,8.4,3.76,8.4,8.4v8.71
		C605.13,50.42,601.37,54.18,596.73,54.18z"/>
	<g>
		<path class="st1" d="M588.77,48.73v-14.6h4.34c0.99,0,1.84,0.19,2.57,0.56c0.73,0.37,1.29,0.9,1.69,1.58
			c0.4,0.68,0.6,1.49,0.6,2.42v5.46c0,0.92-0.2,1.72-0.6,2.41c-0.4,0.69-0.96,1.22-1.69,1.6c-0.73,0.38-1.58,0.57-2.57,0.57H588.77z
			 M591.27,46.43h1.84c0.72,0,1.29-0.2,1.72-0.61s0.64-0.96,0.64-1.67v-5.46c0-0.69-0.21-1.24-0.64-1.65s-1-0.61-1.72-0.61h-1.84
			V46.43z"/>
	</g>
</g>
<g>
	<path class="st0" d="M569.59,93.32h-8.7c-4.64,0-8.4-3.76-8.4-8.4v-8.7c0-4.64,3.76-8.4,8.4-8.4h8.71c4.64,0,8.4,3.76,8.4,8.4v8.71
		C577.99,89.56,574.23,93.32,569.59,93.32z"/>
	<g>
		<path class="st1" d="M560.63,87.87v-14.6h4.62c0.97,0,1.82,0.18,2.53,0.54c0.71,0.36,1.27,0.86,1.67,1.51
			c0.4,0.65,0.6,1.41,0.6,2.29c0,0.96-0.24,1.81-0.73,2.54c-0.49,0.73-1.14,1.25-1.97,1.56l2.9,6.16h-2.8l-2.54-5.8h-1.78v5.8
			H560.63z M563.13,79.87h2.12c0.71,0,1.26-0.19,1.66-0.58c0.4-0.39,0.6-0.92,0.6-1.6c0-0.69-0.2-1.24-0.6-1.63
			c-0.4-0.39-0.95-0.59-1.66-0.59h-2.12V79.87z"/>
	</g>
</g>
<g>
	<path class="st2" d="M468.77,103.07h-8.7c-4.64,0-8.4-3.76-8.4-8.4v-8.7c0-4.64,3.76-8.4,8.4-8.4h8.71c4.64,0,8.4,3.76,8.4,8.4
		v8.71C477.17,99.31,473.41,103.07,468.77,103.07z"/>
	<g>
		<path class="st1" d="M460.81,97.62v-14.6h4.34c0.99,0,1.84,0.19,2.57,0.56c0.73,0.37,1.29,0.9,1.69,1.58
			c0.4,0.68,0.6,1.49,0.6,2.42v5.46c0,0.92-0.2,1.72-0.6,2.41c-0.4,0.69-0.96,1.22-1.69,1.6c-0.73,0.38-1.58,0.57-2.57,0.57
			L460.81,97.62z M463.31,95.32h1.84c0.72,0,1.29-0.2,1.72-0.61c0.43-0.41,0.64-0.96,0.64-1.67v-5.46c0-0.69-0.21-1.24-0.64-1.65
			c-0.43-0.41-1-0.61-1.72-0.61h-1.84V95.32z"/>
	</g>
</g>
<g>
	<path class="st0" d="M458.35,149.63h-8.7c-4.64,0-8.4-3.76-8.4-8.4v-8.7c0-4.64,3.76-8.4,8.4-8.4h8.71c4.64,0,8.4,3.76,8.4,8.4
		v8.71C466.75,145.87,462.99,149.63,458.35,149.63z"/>
	<g>
		<path class="st1" d="M449.39,144.18v-14.6h4.62c0.97,0,1.82,0.18,2.53,0.54c0.71,0.36,1.27,0.86,1.67,1.51s0.6,1.41,0.6,2.29
			c0,0.96-0.24,1.81-0.73,2.54c-0.49,0.73-1.14,1.25-1.97,1.56l2.9,6.16h-2.8l-2.54-5.8h-1.78v5.8H449.39z M451.89,136.18h2.12
			c0.71,0,1.26-0.19,1.66-0.58c0.4-0.39,0.6-0.92,0.6-1.6c0-0.69-0.2-1.24-0.6-1.63c-0.4-0.39-0.95-0.59-1.66-0.59h-2.12V136.18z"/>
	</g>
</g>
<g>
	<path class="st0" d="M499.08,116.63h-8.7c-4.64,0-8.4-3.76-8.4-8.4v-8.7c0-4.64,3.76-8.4,8.4-8.4h8.71c4.64,0,8.4,3.76,8.4,8.4
		v8.71C507.48,112.87,503.72,116.63,499.08,116.63z"/>
	<g>
		<path class="st1" d="M490.12,111.18v-14.6h4.62c0.97,0,1.82,0.18,2.53,0.54c0.71,0.36,1.27,0.86,1.67,1.51s0.6,1.41,0.6,2.29
			c0,0.96-0.24,1.81-0.73,2.54c-0.49,0.73-1.14,1.25-1.97,1.56l2.9,6.16h-2.8l-2.54-5.8h-1.78v5.8H490.12z M492.62,103.18h2.12
			c0.71,0,1.26-0.19,1.66-0.58s0.6-0.92,0.6-1.6c0-0.69-0.2-1.24-0.6-1.63s-0.95-0.59-1.66-0.59h-2.12V103.18z"/>
	</g>
</g>
<g>
	<path class="st2" d="M514.75,57.45h-8.7c-4.64,0-8.4-3.76-8.4-8.4v-8.7c0-4.64,3.76-8.4,8.4-8.4h8.71c4.64,0,8.4,3.76,8.4,8.4v8.71
		C523.15,53.69,519.39,57.45,514.75,57.45z"/>
	<g>
		<path class="st1" d="M506.79,52V37.4h4.34c0.99,0,1.84,0.19,2.57,0.56c0.73,0.37,1.29,0.9,1.69,1.58c0.4,0.68,0.6,1.49,0.6,2.42
			v5.46c0,0.92-0.2,1.72-0.6,2.41c-0.4,0.69-0.96,1.22-1.69,1.6c-0.73,0.38-1.58,0.57-2.57,0.57H506.79z M509.29,49.7h1.84
			c0.72,0,1.29-0.2,1.72-0.61s0.64-0.96,0.64-1.67v-5.46c0-0.69-0.21-1.24-0.64-1.65s-1-0.61-1.72-0.61h-1.84V49.7z"/>
	</g>
</g>
<g>
	<path class="st2" d="M461.21,51.18h-8.7c-4.64,0-8.4-3.76-8.4-8.4v-8.7c0-4.64,3.76-8.4,8.4-8.4h8.71c4.64,0,8.4,3.76,8.4,8.4v8.71
		C469.61,47.42,465.85,51.18,461.21,51.18z"/>
	<g>
		<path class="st1" d="M453.25,45.73v-14.6h4.34c0.99,0,1.84,0.19,2.57,0.56c0.73,0.37,1.29,0.9,1.69,1.58s0.6,1.49,0.6,2.42v5.46
			c0,0.92-0.2,1.72-0.6,2.41c-0.4,0.69-0.96,1.22-1.69,1.6c-0.73,0.38-1.58,0.57-2.57,0.57L453.25,45.73z M455.75,43.43h1.84
			c0.72,0,1.29-0.2,1.72-0.61s0.64-0.96,0.64-1.67v-5.46c0-0.69-0.21-1.24-0.64-1.65s-1-0.61-1.72-0.61h-1.84V43.43z"/>
	</g>
</g>
<g>
	<path class="st0" d="M434.08,90.32h-8.7c-4.64,0-8.4-3.76-8.4-8.4v-8.7c0-4.64,3.76-8.4,8.4-8.4h8.71c4.64,0,8.4,3.76,8.4,8.4v8.71
		C442.48,86.56,438.72,90.32,434.08,90.32z"/>
	<g>
		<path class="st1" d="M425.12,84.87v-14.6h4.62c0.97,0,1.82,0.18,2.53,0.54c0.71,0.36,1.27,0.86,1.67,1.51s0.6,1.41,0.6,2.29
			c0,0.96-0.24,1.81-0.73,2.54c-0.49,0.73-1.14,1.25-1.97,1.56l2.9,6.16h-2.8l-2.54-5.8h-1.78v5.8H425.12z M427.62,76.87h2.12
			c0.71,0,1.26-0.19,1.66-0.58c0.4-0.39,0.6-0.92,0.6-1.6c0-0.69-0.2-1.24-0.6-1.63c-0.4-0.39-0.95-0.59-1.66-0.59h-2.12V76.87z"/>
	</g>
</g>
<g>
	<path class="st2" d="M249.78,105.49h-8.7c-4.64,0-8.4-3.76-8.4-8.4v-8.7c0-4.64,3.76-8.4,8.4-8.4h8.71c4.64,0,8.4,3.76,8.4,8.4
		v8.71C258.18,101.73,254.42,105.49,249.78,105.49z"/>
	<g>
		<path class="st1" d="M241.82,100.04v-14.6h4.34c0.99,0,1.84,0.19,2.57,0.56c0.73,0.37,1.29,0.9,1.69,1.58
			c0.4,0.68,0.6,1.49,0.6,2.42v5.46c0,0.92-0.2,1.72-0.6,2.41c-0.4,0.69-0.96,1.22-1.69,1.6c-0.73,0.38-1.58,0.57-2.57,0.57
			L241.82,100.04z M244.32,97.74h1.84c0.72,0,1.29-0.2,1.72-0.61c0.43-0.41,0.64-0.96,0.64-1.67V90c0-0.69-0.21-1.24-0.64-1.65
			c-0.43-0.41-1-0.61-1.72-0.61h-1.84V97.74z"/>
	</g>
</g>
<g>
	<path class="st0" d="M239.35,152.05h-8.7c-4.64,0-8.4-3.76-8.4-8.4v-8.7c0-4.64,3.76-8.4,8.4-8.4h8.71c4.64,0,8.4,3.76,8.4,8.4
		v8.71C247.75,148.29,243.99,152.05,239.35,152.05z"/>
	<g>
		<path class="st1" d="M230.39,146.6V132h4.62c0.97,0,1.82,0.18,2.53,0.54c0.71,0.36,1.27,0.86,1.67,1.51
			c0.4,0.65,0.6,1.41,0.6,2.29c0,0.96-0.24,1.81-0.73,2.54s-1.14,1.25-1.97,1.56l2.9,6.16h-2.8l-2.54-5.8h-1.78v5.8H230.39z
			 M232.89,138.6h2.12c0.71,0,1.26-0.19,1.66-0.58c0.4-0.39,0.6-0.92,0.6-1.6c0-0.69-0.2-1.24-0.6-1.63
			c-0.4-0.39-0.95-0.59-1.66-0.59h-2.12V138.6z"/>
	</g>
</g>
<g>
	<path class="st0" d="M280.08,119.05h-8.7c-4.64,0-8.4-3.76-8.4-8.4v-8.7c0-4.64,3.76-8.4,8.4-8.4h8.71c4.64,0,8.4,3.76,8.4,8.4
		v8.71C288.48,115.29,284.72,119.05,280.08,119.05z"/>
	<g>
		<path class="st1" d="M271.12,113.6V99h4.62c0.97,0,1.82,0.18,2.53,0.54s1.27,0.86,1.67,1.51c0.4,0.65,0.6,1.41,0.6,2.29
			c0,0.96-0.24,1.81-0.73,2.54c-0.49,0.73-1.14,1.25-1.97,1.56l2.9,6.16h-2.8l-2.54-5.8h-1.78v5.8H271.12z M273.62,105.6h2.12
			c0.71,0,1.26-0.19,1.66-0.58c0.4-0.39,0.6-0.92,0.6-1.6c0-0.69-0.2-1.24-0.6-1.63s-0.95-0.59-1.66-0.59h-2.12V105.6z"/>
	</g>
</g>
<g>
	<path class="st2" d="M63.03,62.05h-8.7c-4.64,0-8.4-3.76-8.4-8.4v-8.7c0-4.64,3.76-8.4,8.4-8.4h8.71c4.64,0,8.4,3.76,8.4,8.4v8.71
		C71.43,58.29,67.67,62.05,63.03,62.05z"/>
	<g>
		<path class="st1" d="M55.07,56.6V42h4.34c0.99,0,1.84,0.19,2.57,0.56s1.29,0.9,1.69,1.58s0.6,1.49,0.6,2.42v5.46
			c0,0.92-0.2,1.72-0.6,2.41c-0.4,0.69-0.96,1.22-1.69,1.6c-0.73,0.38-1.58,0.57-2.57,0.57L55.07,56.6z M57.57,54.3h1.84
			c0.72,0,1.29-0.2,1.72-0.61s0.64-0.96,0.64-1.67v-5.46c0-0.69-0.21-1.24-0.64-1.65s-1-0.61-1.72-0.61h-1.84V54.3z"/>
	</g>
</g>
<g>
	<path class="st2" d="M242.22,53.6h-8.7c-4.64,0-8.4-3.76-8.4-8.4v-8.7c0-4.64,3.76-8.4,8.4-8.4h8.71c4.64,0,8.4,3.76,8.4,8.4v8.71
		C250.62,49.84,246.86,53.6,242.22,53.6z"/>
	<g>
		<path class="st1" d="M234.26,48.15v-14.6h4.34c0.99,0,1.84,0.19,2.57,0.56c0.73,0.37,1.29,0.9,1.69,1.58
			c0.4,0.68,0.6,1.49,0.6,2.42v5.46c0,0.92-0.2,1.72-0.6,2.41c-0.4,0.69-0.96,1.22-1.69,1.6s-1.58,0.57-2.57,0.57H234.26z
			 M236.76,45.85h1.84c0.72,0,1.29-0.2,1.72-0.61c0.43-0.41,0.64-0.96,0.64-1.67v-5.46c0-0.69-0.21-1.24-0.64-1.65
			c-0.43-0.41-1-0.61-1.72-0.61h-1.84V45.85z"/>
	</g>
</g>
<g>
	<path class="st0" d="M215.08,92.74h-8.7c-4.64,0-8.4-3.76-8.4-8.4v-8.7c0-4.64,3.76-8.4,8.4-8.4h8.71c4.64,0,8.4,3.76,8.4,8.4v8.71
		C223.48,88.98,219.72,92.74,215.08,92.74z"/>
	<g>
		<path class="st1" d="M206.12,87.29v-14.6h4.62c0.97,0,1.82,0.18,2.53,0.54c0.71,0.36,1.27,0.86,1.67,1.51
			c0.4,0.65,0.6,1.41,0.6,2.29c0,0.96-0.24,1.81-0.73,2.54c-0.49,0.73-1.14,1.25-1.97,1.56l2.9,6.16h-2.8l-2.54-5.8h-1.78v5.8
			H206.12z M208.62,79.29h2.12c0.71,0,1.26-0.19,1.66-0.58c0.4-0.39,0.6-0.92,0.6-1.6c0-0.69-0.2-1.24-0.6-1.63
			c-0.4-0.39-0.95-0.59-1.66-0.59h-2.12V79.29z"/>
	</g>
</g>
<g>
	<path class="st2" d="M83.34,333.76h-8.7c-4.64,0-8.4-3.76-8.4-8.4v-8.7c0-4.64,3.76-8.4,8.4-8.4h8.71c4.64,0,8.4,3.76,8.4,8.4v8.71
		C91.74,330,87.98,333.76,83.34,333.76z"/>
	<g>
		<path class="st1" d="M75.38,328.31v-14.6h4.34c0.99,0,1.84,0.19,2.57,0.56c0.73,0.37,1.29,0.9,1.69,1.58
			c0.4,0.68,0.6,1.49,0.6,2.42v5.46c0,0.92-0.2,1.72-0.6,2.41c-0.4,0.69-0.96,1.22-1.69,1.6s-1.58,0.57-2.57,0.57H75.38z
			 M77.88,326.01h1.84c0.72,0,1.29-0.2,1.72-0.61s0.64-0.96,0.64-1.67v-5.46c0-0.69-0.21-1.24-0.64-1.65s-1-0.61-1.72-0.61h-1.84
			V326.01z"/>
	</g>
</g>
<g>
	<path class="st0" d="M72.91,380.32h-8.7c-4.64,0-8.4-3.76-8.4-8.4v-8.7c0-4.64,3.76-8.4,8.4-8.4h8.71c4.64,0,8.4,3.76,8.4,8.4v8.71
		C81.31,376.56,77.55,380.32,72.91,380.32z"/>
	<g>
		<path class="st1" d="M63.95,374.87v-14.6h4.62c0.97,0,1.82,0.18,2.53,0.54c0.71,0.36,1.27,0.86,1.67,1.51
			c0.4,0.65,0.6,1.41,0.6,2.29c0,0.96-0.24,1.81-0.73,2.54c-0.49,0.73-1.14,1.25-1.97,1.56l2.9,6.16h-2.8l-2.54-5.8h-1.78v5.8H63.95
			z M66.45,366.87h2.12c0.71,0,1.26-0.19,1.66-0.58c0.4-0.39,0.6-0.92,0.6-1.6c0-0.69-0.2-1.24-0.6-1.63
			c-0.4-0.39-0.95-0.59-1.66-0.59h-2.12V366.87z"/>
	</g>
</g>
<g>
	<path class="st0" d="M113.65,347.32h-8.7c-4.64,0-8.4-3.76-8.4-8.4v-8.7c0-4.64,3.76-8.4,8.4-8.4h8.71c4.64,0,8.4,3.76,8.4,8.4
		v8.71C122.05,343.56,118.29,347.32,113.65,347.32z"/>
	<g>
		<path class="st1" d="M104.69,341.87v-14.6h4.62c0.97,0,1.82,0.18,2.53,0.54c0.71,0.36,1.27,0.86,1.67,1.51s0.6,1.41,0.6,2.29
			c0,0.96-0.24,1.81-0.73,2.54c-0.49,0.73-1.14,1.25-1.97,1.56l2.9,6.16h-2.8l-2.54-5.8h-1.78v5.8H104.69z M107.19,333.87h2.12
			c0.71,0,1.26-0.19,1.66-0.58c0.4-0.39,0.6-0.92,0.6-1.6c0-0.69-0.2-1.24-0.6-1.63c-0.4-0.39-0.95-0.59-1.66-0.59h-2.12V333.87z"/>
	</g>
</g>
<g>
	<path class="st2" d="M100.89,393.32h-8.7c-4.64,0-8.4-3.76-8.4-8.4v-8.7c0-4.64,3.76-8.4,8.4-8.4h8.71c4.64,0,8.4,3.76,8.4,8.4
		v8.71C109.29,389.56,105.53,393.32,100.89,393.32z"/>
	<g>
		<path class="st1" d="M92.93,387.87v-14.6h4.34c0.99,0,1.84,0.19,2.57,0.56c0.73,0.37,1.29,0.9,1.69,1.58
			c0.4,0.68,0.6,1.49,0.6,2.42v5.46c0,0.92-0.2,1.72-0.6,2.41s-0.96,1.22-1.69,1.6c-0.73,0.38-1.58,0.57-2.57,0.57H92.93z
			 M95.43,385.57h1.84c0.72,0,1.29-0.2,1.72-0.61s0.64-0.96,0.64-1.67v-5.46c0-0.69-0.21-1.24-0.64-1.65s-1-0.61-1.72-0.61h-1.84
			V385.57z"/>
	</g>
</g>
<g>
	<path class="st2" d="M75.78,281.87h-8.7c-4.64,0-8.4-3.76-8.4-8.4v-8.7c0-4.64,3.76-8.4,8.4-8.4h8.71c4.64,0,8.4,3.76,8.4,8.4v8.71
		C84.18,278.11,80.42,281.87,75.78,281.87z"/>
	<g>
		<path class="st1" d="M67.82,276.42v-14.6h4.34c0.99,0,1.84,0.19,2.57,0.56c0.73,0.37,1.29,0.9,1.69,1.58
			c0.4,0.68,0.6,1.49,0.6,2.42v5.46c0,0.92-0.2,1.72-0.6,2.41s-0.96,1.22-1.69,1.6c-0.73,0.38-1.58,0.57-2.57,0.57H67.82z
			 M70.32,274.12h1.84c0.72,0,1.29-0.2,1.72-0.61s0.64-0.96,0.64-1.67v-5.46c0-0.69-0.21-1.24-0.64-1.65s-1-0.61-1.72-0.61h-1.84
			V274.12z"/>
	</g>
</g>
<g>
	<path class="st0" d="M48.65,321.01h-8.7c-4.64,0-8.4-3.76-8.4-8.4v-8.7c0-4.64,3.76-8.4,8.4-8.4h8.71c4.64,0,8.4,3.76,8.4,8.4v8.71
		C57.05,317.25,53.29,321.01,48.65,321.01z"/>
	<g>
		<path class="st1" d="M39.69,315.56v-14.6h4.62c0.97,0,1.82,0.18,2.53,0.54c0.71,0.36,1.27,0.86,1.67,1.51
			c0.4,0.65,0.6,1.41,0.6,2.29c0,0.96-0.24,1.81-0.73,2.54c-0.49,0.73-1.14,1.25-1.97,1.56l2.9,6.16h-2.8l-2.54-5.8h-1.78v5.8H39.69
			z M42.19,307.56h2.12c0.71,0,1.26-0.19,1.66-0.58c0.4-0.39,0.6-0.92,0.6-1.6c0-0.69-0.2-1.24-0.6-1.63
			c-0.4-0.39-0.95-0.59-1.66-0.59h-2.12V307.56z"/>
	</g>
</g>
<g>
	<path class="st2" d="M179.36,304.43h-8.7c-4.64,0-8.4-3.76-8.4-8.4v-8.7c0-4.64,3.76-8.4,8.4-8.4h8.71c4.64,0,8.4,3.76,8.4,8.4
		v8.71C187.76,300.67,184,304.43,179.36,304.43z"/>
	<g>
		<path class="st1" d="M171.4,298.98v-14.6h4.34c0.99,0,1.84,0.19,2.57,0.56c0.73,0.37,1.29,0.9,1.69,1.58
			c0.4,0.68,0.6,1.49,0.6,2.42v5.46c0,0.92-0.2,1.72-0.6,2.41c-0.4,0.69-0.96,1.22-1.69,1.6c-0.73,0.38-1.58,0.57-2.57,0.57H171.4z
			 M173.9,296.68h1.84c0.72,0,1.29-0.2,1.72-0.61c0.43-0.41,0.64-0.96,0.64-1.67v-5.46c0-0.69-0.21-1.24-0.64-1.65
			c-0.43-0.41-1-0.61-1.72-0.61h-1.84V296.68z"/>
	</g>
</g>
<g>
	<path class="st0" d="M168.94,350.99h-8.7c-4.64,0-8.4-3.76-8.4-8.4v-8.7c0-4.64,3.76-8.4,8.4-8.4h8.71c4.64,0,8.4,3.76,8.4,8.4
		v8.71C177.34,347.23,173.58,350.99,168.94,350.99z"/>
	<g>
		<path class="st1" d="M159.98,345.54v-14.6h4.62c0.97,0,1.82,0.18,2.53,0.54c0.71,0.36,1.27,0.86,1.67,1.51
			c0.4,0.65,0.6,1.41,0.6,2.29c0,0.96-0.24,1.81-0.73,2.54c-0.49,0.73-1.14,1.25-1.97,1.56l2.9,6.16h-2.8l-2.54-5.8h-1.78v5.8
			H159.98z M162.48,337.54h2.12c0.71,0,1.26-0.19,1.66-0.58c0.4-0.39,0.6-0.92,0.6-1.6c0-0.69-0.2-1.24-0.6-1.63
			c-0.4-0.39-0.95-0.59-1.66-0.59h-2.12V337.54z"/>
	</g>
</g>
<g>
	<path class="st0" d="M209.67,317.98h-8.7c-4.64,0-8.4-3.76-8.4-8.4v-8.7c0-4.64,3.76-8.4,8.4-8.4h8.71c4.64,0,8.4,3.76,8.4,8.4
		v8.71C218.07,314.22,214.31,317.98,209.67,317.98z"/>
	<g>
		<path class="st1" d="M200.71,312.53v-14.6h4.62c0.97,0,1.82,0.18,2.53,0.54c0.71,0.36,1.27,0.86,1.67,1.51
			c0.4,0.65,0.6,1.41,0.6,2.29c0,0.96-0.24,1.81-0.73,2.54c-0.49,0.73-1.14,1.25-1.97,1.56l2.9,6.16h-2.8l-2.54-5.8h-1.78v5.8
			H200.71z M203.21,304.53h2.12c0.71,0,1.26-0.19,1.66-0.58c0.4-0.39,0.6-0.92,0.6-1.6c0-0.69-0.2-1.24-0.6-1.63
			c-0.4-0.39-0.95-0.59-1.66-0.59h-2.12V304.53z"/>
	</g>
</g>
<g>
	<path class="st2" d="M196.91,363.99h-8.7c-4.64,0-8.4-3.76-8.4-8.4v-8.7c0-4.64,3.76-8.4,8.4-8.4h8.71c4.64,0,8.4,3.76,8.4,8.4
		v8.71C205.31,360.23,201.55,363.99,196.91,363.99z"/>
	<g>
		<path class="st1" d="M188.95,358.54v-14.6h4.34c0.99,0,1.84,0.19,2.57,0.56s1.29,0.9,1.69,1.58c0.4,0.68,0.6,1.49,0.6,2.42v5.46
			c0,0.92-0.2,1.72-0.6,2.41c-0.4,0.69-0.96,1.22-1.69,1.6s-1.58,0.57-2.57,0.57H188.95z M191.45,356.24h1.84
			c0.72,0,1.29-0.2,1.72-0.61c0.43-0.41,0.64-0.96,0.64-1.67v-5.46c0-0.69-0.21-1.24-0.64-1.65c-0.43-0.41-1-0.61-1.72-0.61h-1.84
			V356.24z"/>
	</g>
</g>
<g>
	<path class="st2" d="M171.8,252.53h-8.7c-4.64,0-8.4-3.76-8.4-8.4v-8.7c0-4.64,3.76-8.4,8.4-8.4h8.71c4.64,0,8.4,3.76,8.4,8.4v8.71
		C180.2,248.77,176.44,252.53,171.8,252.53z"/>
	<g>
		<path class="st1" d="M163.84,247.08v-14.6h4.34c0.99,0,1.84,0.19,2.57,0.56s1.29,0.9,1.69,1.58c0.4,0.68,0.6,1.49,0.6,2.42v5.46
			c0,0.92-0.2,1.72-0.6,2.41c-0.4,0.69-0.96,1.22-1.69,1.6s-1.58,0.57-2.57,0.57L163.84,247.08z M166.34,244.78h1.84
			c0.72,0,1.29-0.2,1.72-0.61c0.43-0.41,0.64-0.96,0.64-1.67v-5.46c0-0.69-0.21-1.24-0.64-1.65c-0.43-0.41-1-0.61-1.72-0.61h-1.84
			V244.78z"/>
	</g>
</g>
<g>
	<path class="st0" d="M144.67,291.68h-8.7c-4.64,0-8.4-3.76-8.4-8.4v-8.7c0-4.64,3.76-8.4,8.4-8.4h8.71c4.64,0,8.4,3.76,8.4,8.4
		v8.71C153.07,287.92,149.31,291.68,144.67,291.68z"/>
	<g>
		<path class="st1" d="M135.71,286.23v-14.6h4.62c0.97,0,1.82,0.18,2.53,0.54c0.71,0.36,1.27,0.86,1.67,1.51
			c0.4,0.65,0.6,1.41,0.6,2.29c0,0.96-0.24,1.81-0.73,2.54c-0.49,0.73-1.14,1.25-1.97,1.56l2.9,6.16h-2.8l-2.54-5.8h-1.78v5.8
			H135.71z M138.21,278.23h2.12c0.71,0,1.26-0.19,1.66-0.58c0.4-0.39,0.6-0.92,0.6-1.6c0-0.69-0.2-1.24-0.6-1.63
			c-0.4-0.39-0.95-0.59-1.66-0.59h-2.12V278.23z"/>
	</g>
</g>
<g>
	<path class="st2" d="M305.97,302.98h-8.7c-4.64,0-8.4-3.76-8.4-8.4v-8.7c0-4.64,3.76-8.4,8.4-8.4h8.71c4.64,0,8.4,3.76,8.4,8.4
		v8.71C314.37,299.22,310.61,302.98,305.97,302.98z"/>
	<g>
		<path class="st1" d="M298.01,297.53v-14.6h4.34c0.99,0,1.84,0.19,2.57,0.56c0.73,0.37,1.29,0.9,1.69,1.58
			c0.4,0.68,0.6,1.49,0.6,2.42v5.46c0,0.92-0.2,1.72-0.6,2.41s-0.96,1.22-1.69,1.6c-0.73,0.38-1.58,0.57-2.57,0.57H298.01z
			 M300.51,295.23h1.84c0.72,0,1.29-0.2,1.72-0.61s0.64-0.96,0.64-1.67v-5.46c0-0.69-0.21-1.24-0.64-1.65s-1-0.61-1.72-0.61h-1.84
			V295.23z"/>
	</g>
</g>
<g>
	<path class="st0" d="M295.54,349.54h-8.7c-4.64,0-8.4-3.76-8.4-8.4v-8.7c0-4.64,3.76-8.4,8.4-8.4h8.71c4.64,0,8.4,3.76,8.4,8.4
		v8.71C303.94,345.78,300.18,349.54,295.54,349.54z"/>
	<g>
		<path class="st1" d="M286.58,344.09v-14.6h4.62c0.97,0,1.82,0.18,2.53,0.54c0.71,0.36,1.27,0.86,1.67,1.51s0.6,1.41,0.6,2.29
			c0,0.96-0.24,1.81-0.73,2.54c-0.49,0.73-1.14,1.25-1.97,1.56l2.9,6.16h-2.8l-2.54-5.8h-1.78v5.8H286.58z M289.08,336.09h2.12
			c0.71,0,1.26-0.19,1.66-0.58c0.4-0.39,0.6-0.92,0.6-1.6c0-0.69-0.2-1.24-0.6-1.63c-0.4-0.39-0.95-0.59-1.66-0.59h-2.12V336.09z"/>
	</g>
</g>
<g>
	<path class="st0" d="M336.27,316.53h-8.7c-4.64,0-8.4-3.76-8.4-8.4v-8.7c0-4.64,3.76-8.4,8.4-8.4h8.71c4.64,0,8.4,3.76,8.4,8.4
		v8.71C344.67,312.77,340.91,316.53,336.27,316.53z"/>
	<g>
		<path class="st1" d="M327.31,311.08v-14.6h4.62c0.97,0,1.82,0.18,2.53,0.54c0.71,0.36,1.27,0.86,1.67,1.51s0.6,1.41,0.6,2.29
			c0,0.96-0.24,1.81-0.73,2.54c-0.49,0.73-1.14,1.25-1.97,1.56l2.9,6.16h-2.8l-2.54-5.8h-1.78v5.8H327.31z M329.81,303.08h2.12
			c0.71,0,1.26-0.19,1.66-0.58c0.4-0.39,0.6-0.92,0.6-1.6c0-0.69-0.2-1.24-0.6-1.63c-0.4-0.39-0.95-0.59-1.66-0.59h-2.12V303.08z"/>
	</g>
</g>
<g>
	<path class="st2" d="M323.52,362.54h-8.7c-4.64,0-8.4-3.76-8.4-8.4v-8.7c0-4.64,3.76-8.4,8.4-8.4h8.71c4.64,0,8.4,3.76,8.4,8.4
		v8.71C331.92,358.78,328.16,362.54,323.52,362.54z"/>
	<g>
		<path class="st1" d="M315.56,357.09v-14.6h4.34c0.99,0,1.84,0.19,2.57,0.56c0.73,0.37,1.29,0.9,1.69,1.58
			c0.4,0.68,0.6,1.49,0.6,2.42v5.46c0,0.92-0.2,1.72-0.6,2.41c-0.4,0.69-0.96,1.22-1.69,1.6c-0.73,0.38-1.58,0.57-2.57,0.57H315.56z
			 M318.06,354.79h1.84c0.72,0,1.29-0.2,1.72-0.61c0.43-0.41,0.64-0.96,0.64-1.67v-5.46c0-0.69-0.21-1.24-0.64-1.65
			c-0.43-0.41-1-0.61-1.72-0.61h-1.84V354.79z"/>
	</g>
</g>
<g>
	<path class="st2" d="M298.41,251.08h-8.7c-4.64,0-8.4-3.76-8.4-8.4v-8.7c0-4.64,3.76-8.4,8.4-8.4h8.71c4.64,0,8.4,3.76,8.4,8.4
		v8.71C306.81,247.32,303.05,251.08,298.41,251.08z"/>
	<g>
		<path class="st1" d="M290.45,245.63v-14.6h4.34c0.99,0,1.84,0.19,2.57,0.56s1.29,0.9,1.69,1.58c0.4,0.68,0.6,1.49,0.6,2.42v5.46
			c0,0.92-0.2,1.72-0.6,2.41s-0.96,1.22-1.69,1.6s-1.58,0.57-2.57,0.57H290.45z M292.95,243.33h1.84c0.72,0,1.29-0.2,1.72-0.61
			c0.43-0.41,0.64-0.96,0.64-1.67v-5.46c0-0.69-0.21-1.24-0.64-1.65c-0.43-0.41-1-0.61-1.72-0.61h-1.84V243.33z"/>
	</g>
</g>
<g>
	<path class="st0" d="M271.27,290.23h-8.7c-4.64,0-8.4-3.76-8.4-8.4v-8.7c0-4.64,3.76-8.4,8.4-8.4h8.71c4.64,0,8.4,3.76,8.4,8.4
		v8.71C279.67,286.47,275.91,290.23,271.27,290.23z"/>
	<g>
		<path class="st1" d="M262.31,284.78v-14.6h4.62c0.97,0,1.82,0.18,2.53,0.54c0.71,0.36,1.27,0.86,1.67,1.51s0.6,1.41,0.6,2.29
			c0,0.96-0.24,1.81-0.73,2.54c-0.49,0.73-1.14,1.25-1.97,1.56l2.9,6.16h-2.8l-2.54-5.8h-1.78v5.8H262.31z M264.81,276.78h2.12
			c0.71,0,1.26-0.19,1.66-0.58c0.4-0.39,0.6-0.92,0.6-1.6c0-0.69-0.2-1.24-0.6-1.63c-0.4-0.39-0.95-0.59-1.66-0.59h-2.12V276.78z"/>
	</g>
</g>
<g>
	<path class="st2" d="M453.6,336.89h-8.7c-4.64,0-8.4-3.76-8.4-8.4v-8.7c0-4.64,3.76-8.4,8.4-8.4h8.71c4.64,0,8.4,3.76,8.4,8.4v8.71
		C462,333.13,458.24,336.89,453.6,336.89z"/>
	<g>
		<path class="st1" d="M445.64,331.44v-14.6h4.34c0.99,0,1.84,0.19,2.57,0.56c0.73,0.37,1.29,0.9,1.69,1.58s0.6,1.49,0.6,2.42v5.46
			c0,0.92-0.2,1.72-0.6,2.41c-0.4,0.69-0.96,1.22-1.69,1.6c-0.73,0.38-1.58,0.57-2.57,0.57H445.64z M448.14,329.14h1.84
			c0.72,0,1.29-0.2,1.72-0.61c0.43-0.41,0.64-0.96,0.64-1.67v-5.46c0-0.69-0.21-1.24-0.64-1.65c-0.43-0.41-1-0.61-1.72-0.61h-1.84
			V329.14z"/>
	</g>
</g>
<g>
	<path class="st0" d="M400.11,329.59h-8.7c-4.64,0-8.4-3.76-8.4-8.4v-8.7c0-4.64,3.76-8.4,8.4-8.4h8.71c4.64,0,8.4,3.76,8.4,8.4
		v8.71C408.51,325.83,404.75,329.59,400.11,329.59z"/>
	<g>
		<path class="st1" d="M391.15,324.14v-14.6h4.62c0.97,0,1.82,0.18,2.53,0.54c0.71,0.36,1.27,0.86,1.67,1.51s0.6,1.41,0.6,2.29
			c0,0.96-0.24,1.81-0.73,2.54c-0.49,0.73-1.14,1.25-1.97,1.56l2.9,6.16h-2.8l-2.54-5.8h-1.78v5.8H391.15z M393.65,316.14h2.12
			c0.71,0,1.26-0.19,1.66-0.58c0.4-0.39,0.6-0.92,0.6-1.6c0-0.69-0.2-1.24-0.6-1.63c-0.4-0.39-0.95-0.59-1.66-0.59h-2.12V316.14z"/>
	</g>
</g>
<g>
	<path class="st0" d="M412.87,287.69h-8.7c-4.64,0-8.4-3.76-8.4-8.4v-8.7c0-4.64,3.76-8.4,8.4-8.4h8.71c4.64,0,8.4,3.76,8.4,8.4
		v8.71C421.27,283.93,417.51,287.69,412.87,287.69z"/>
	<g>
		<path class="st1" d="M403.91,282.24v-14.6h4.62c0.97,0,1.82,0.18,2.53,0.54c0.71,0.36,1.27,0.86,1.67,1.51s0.6,1.41,0.6,2.29
			c0,0.96-0.24,1.81-0.73,2.54c-0.49,0.73-1.14,1.25-1.97,1.56l2.9,6.16h-2.8l-2.54-5.8h-1.78v5.8H403.91z M406.41,274.24h2.12
			c0.71,0,1.26-0.19,1.66-0.58c0.4-0.39,0.6-0.92,0.6-1.6c0-0.69-0.2-1.24-0.6-1.63c-0.4-0.39-0.95-0.59-1.66-0.59h-2.12V274.24z"/>
	</g>
</g>
<g>
	<path class="st2" d="M371.23,303.34h-8.7c-4.64,0-8.4-3.76-8.4-8.4v-8.7c0-4.64,3.76-8.4,8.4-8.4h8.71c4.64,0,8.4,3.76,8.4,8.4
		v8.71C379.63,299.58,375.87,303.34,371.23,303.34z"/>
	<g>
		<path class="st1" d="M363.27,297.89v-14.6h4.34c0.99,0,1.84,0.19,2.57,0.56c0.73,0.37,1.29,0.9,1.69,1.58
			c0.4,0.68,0.6,1.49,0.6,2.42v5.46c0,0.92-0.2,1.72-0.6,2.41s-0.96,1.22-1.69,1.6c-0.73,0.38-1.58,0.57-2.57,0.57H363.27z
			 M365.77,295.59h1.84c0.72,0,1.29-0.2,1.72-0.61c0.43-0.41,0.64-0.96,0.64-1.67v-5.46c0-0.69-0.21-1.24-0.64-1.65
			c-0.43-0.41-1-0.61-1.72-0.61h-1.84V295.59z"/>
	</g>
</g>
<g>
	<path class="st2" d="M441.04,242.16h-8.7c-4.64,0-8.4-3.76-8.4-8.4v-8.7c0-4.64,3.76-8.4,8.4-8.4h8.71c4.64,0,8.4,3.76,8.4,8.4
		v8.71C449.44,238.4,445.68,242.16,441.04,242.16z"/>
	<g>
		<path class="st1" d="M433.08,236.71v-14.6h4.34c0.99,0,1.84,0.19,2.57,0.56c0.73,0.37,1.29,0.9,1.69,1.58
			c0.4,0.68,0.6,1.49,0.6,2.42v5.46c0,0.92-0.2,1.72-0.6,2.41s-0.96,1.22-1.69,1.6c-0.73,0.38-1.58,0.57-2.57,0.57H433.08z
			 M435.58,234.41h1.84c0.72,0,1.29-0.2,1.72-0.61c0.43-0.41,0.64-0.96,0.64-1.67v-5.46c0-0.69-0.21-1.24-0.64-1.65
			c-0.43-0.41-1-0.61-1.72-0.61h-1.84V234.41z"/>
	</g>
</g>
<g>
	<path class="st0" d="M375.85,270.29h-8.7c-4.64,0-8.4-3.76-8.4-8.4v-8.7c0-4.64,3.76-8.4,8.4-8.4h8.71c4.64,0,8.4,3.76,8.4,8.4
		v8.71C384.25,266.53,380.49,270.29,375.85,270.29z"/>
	<g>
		<path class="st1" d="M366.89,264.84v-14.6h4.62c0.97,0,1.82,0.18,2.53,0.54s1.27,0.86,1.67,1.51c0.4,0.65,0.6,1.41,0.6,2.29
			c0,0.96-0.24,1.81-0.73,2.54c-0.49,0.73-1.14,1.25-1.97,1.56l2.9,6.16h-2.8l-2.54-5.8h-1.78v5.8H366.89z M369.39,256.84h2.12
			c0.71,0,1.26-0.19,1.66-0.58c0.4-0.39,0.6-0.92,0.6-1.6c0-0.69-0.2-1.24-0.6-1.63c-0.4-0.39-0.95-0.59-1.66-0.59h-2.12V256.84z"/>
	</g>
</g>
<g>
	<path class="st2" d="M567.33,414.91h-8.7c-4.64,0-8.4-3.76-8.4-8.4v-8.7c0-4.64,3.76-8.4,8.4-8.4h8.71c4.64,0,8.4,3.76,8.4,8.4
		v8.71C575.73,411.15,571.97,414.91,567.33,414.91z"/>
	<g>
		<path class="st1" d="M559.37,409.46v-14.6h4.34c0.99,0,1.84,0.19,2.57,0.56s1.29,0.9,1.69,1.58c0.4,0.68,0.6,1.49,0.6,2.42v5.46
			c0,0.92-0.2,1.72-0.6,2.41s-0.96,1.22-1.69,1.6s-1.58,0.57-2.57,0.57H559.37z M561.87,407.16h1.84c0.72,0,1.29-0.2,1.72-0.61
			s0.64-0.96,0.64-1.67v-5.46c0-0.69-0.21-1.24-0.64-1.65s-1-0.61-1.72-0.61h-1.84V407.16z"/>
	</g>
</g>
<g>
	<path class="st0" d="M513.84,407.61h-8.7c-4.64,0-8.4-3.76-8.4-8.4v-8.7c0-4.64,3.76-8.4,8.4-8.4h8.71c4.64,0,8.4,3.76,8.4,8.4
		v8.71C522.24,403.85,518.48,407.61,513.84,407.61z"/>
	<g>
		<path class="st1" d="M504.88,402.16v-14.6h4.62c0.97,0,1.82,0.18,2.53,0.54c0.71,0.36,1.27,0.86,1.67,1.51
			c0.4,0.65,0.6,1.41,0.6,2.29c0,0.96-0.24,1.81-0.73,2.54c-0.49,0.73-1.14,1.25-1.97,1.56l2.9,6.16h-2.8l-2.54-5.8h-1.78v5.8
			H504.88z M507.38,394.16h2.12c0.71,0,1.26-0.19,1.66-0.58c0.4-0.39,0.6-0.92,0.6-1.6c0-0.69-0.2-1.24-0.6-1.63
			c-0.4-0.39-0.95-0.59-1.66-0.59h-2.12V394.16z"/>
	</g>
</g>
<g>
	<path class="st0" d="M526.59,365.7h-8.7c-4.64,0-8.4-3.76-8.4-8.4v-8.7c0-4.64,3.76-8.4,8.4-8.4h8.71c4.64,0,8.4,3.76,8.4,8.4v8.71
		C534.99,361.94,531.23,365.7,526.59,365.7z"/>
	<g>
		<path class="st1" d="M517.63,360.25v-14.6h4.62c0.97,0,1.82,0.18,2.53,0.54c0.71,0.36,1.27,0.86,1.67,1.51s0.6,1.41,0.6,2.29
			c0,0.96-0.24,1.81-0.73,2.54c-0.49,0.73-1.14,1.25-1.97,1.56l2.9,6.16h-2.8l-2.54-5.8h-1.78v5.8H517.63z M520.13,352.25h2.12
			c0.71,0,1.26-0.19,1.66-0.58c0.4-0.39,0.6-0.92,0.6-1.6c0-0.69-0.2-1.24-0.6-1.63c-0.4-0.39-0.95-0.59-1.66-0.59h-2.12V352.25z"/>
	</g>
</g>
<g>
	<path class="st2" d="M484.96,381.35h-8.7c-4.64,0-8.4-3.76-8.4-8.4v-8.7c0-4.64,3.76-8.4,8.4-8.4h8.71c4.64,0,8.4,3.76,8.4,8.4
		v8.71C493.36,377.59,489.6,381.35,484.96,381.35z"/>
	<g>
		<path class="st1" d="M477,375.9v-14.6h4.34c0.99,0,1.84,0.19,2.57,0.56c0.73,0.37,1.29,0.9,1.69,1.58s0.6,1.49,0.6,2.42v5.46
			c0,0.92-0.2,1.72-0.6,2.41s-0.96,1.22-1.69,1.6c-0.73,0.38-1.58,0.57-2.57,0.57H477z M479.5,373.6h1.84c0.72,0,1.29-0.2,1.72-0.61
			c0.43-0.41,0.64-0.96,0.64-1.67v-5.46c0-0.69-0.21-1.24-0.64-1.65c-0.43-0.41-1-0.61-1.72-0.61h-1.84V373.6z"/>
	</g>
</g>
<g>
	<path class="st2" d="M554.77,320.17h-8.7c-4.64,0-8.4-3.76-8.4-8.4v-8.7c0-4.64,3.76-8.4,8.4-8.4h8.71c4.64,0,8.4,3.76,8.4,8.4
		v8.71C563.17,316.41,559.41,320.17,554.77,320.17z"/>
	<g>
		<path class="st1" d="M546.81,314.72v-14.6h4.34c0.99,0,1.84,0.19,2.57,0.56s1.29,0.9,1.69,1.58c0.4,0.68,0.6,1.49,0.6,2.42v5.46
			c0,0.92-0.2,1.72-0.6,2.41s-0.96,1.22-1.69,1.6s-1.58,0.57-2.57,0.57H546.81z M549.31,312.42h1.84c0.72,0,1.29-0.2,1.72-0.61
			s0.64-0.96,0.64-1.67v-5.46c0-0.69-0.21-1.24-0.64-1.65s-1-0.61-1.72-0.61h-1.84V312.42z"/>
	</g>
</g>
<g>
	<path class="st0" d="M489.57,348.3h-8.7c-4.64,0-8.4-3.76-8.4-8.4v-8.7c0-4.64,3.76-8.4,8.4-8.4h8.71c4.64,0,8.4,3.76,8.4,8.4v8.71
		C497.97,344.54,494.21,348.3,489.57,348.3z"/>
	<g>
		<path class="st1" d="M480.61,342.85v-14.6h4.62c0.97,0,1.82,0.18,2.53,0.54c0.71,0.36,1.27,0.86,1.67,1.51
			c0.4,0.65,0.6,1.41,0.6,2.29c0,0.96-0.24,1.81-0.73,2.54c-0.49,0.73-1.14,1.25-1.97,1.56l2.9,6.16h-2.8l-2.54-5.8h-1.78v5.8
			H480.61z M483.11,334.85h2.12c0.71,0,1.26-0.19,1.66-0.58c0.4-0.39,0.6-0.92,0.6-1.6c0-0.69-0.2-1.24-0.6-1.63
			c-0.4-0.39-0.95-0.59-1.66-0.59h-2.12V334.85z"/>
	</g>
</g>
<g>
	<path class="st2" d="M695.86,391.8h-8.7c-4.64,0-8.4-3.76-8.4-8.4v-8.7c0-4.64,3.76-8.4,8.4-8.4h8.71c4.64,0,8.4,3.76,8.4,8.4v8.71
		C704.26,388.04,700.5,391.8,695.86,391.8z"/>
	<g>
		<path class="st1" d="M687.9,386.35v-14.6h4.34c0.99,0,1.84,0.19,2.57,0.56c0.73,0.37,1.29,0.9,1.69,1.58
			c0.4,0.68,0.6,1.49,0.6,2.42v5.46c0,0.92-0.2,1.72-0.6,2.41c-0.4,0.69-0.96,1.22-1.69,1.6c-0.73,0.38-1.58,0.57-2.57,0.57H687.9z
			 M690.4,384.05h1.84c0.72,0,1.29-0.2,1.72-0.61s0.64-0.96,0.64-1.67v-5.46c0-0.69-0.21-1.24-0.64-1.65s-1-0.61-1.72-0.61h-1.84
			V384.05z"/>
	</g>
</g>
<g>
	<path class="st0" d="M642.37,384.5h-8.7c-4.64,0-8.4-3.76-8.4-8.4v-8.7c0-4.64,3.76-8.4,8.4-8.4h8.71c4.64,0,8.4,3.76,8.4,8.4v8.71
		C650.77,380.74,647.01,384.5,642.37,384.5z"/>
	<g>
		<path class="st1" d="M633.41,379.05v-14.6h4.62c0.97,0,1.82,0.18,2.53,0.54c0.71,0.36,1.27,0.86,1.67,1.51
			c0.4,0.65,0.6,1.41,0.6,2.29c0,0.96-0.24,1.81-0.73,2.54c-0.49,0.73-1.14,1.25-1.97,1.56l2.9,6.16h-2.8l-2.54-5.8h-1.78v5.8
			H633.41z M635.91,371.05h2.12c0.71,0,1.26-0.19,1.66-0.58c0.4-0.39,0.6-0.92,0.6-1.6c0-0.69-0.2-1.24-0.6-1.63
			c-0.4-0.39-0.95-0.59-1.66-0.59h-2.12V371.05z"/>
	</g>
</g>
<g>
	<path class="st0" d="M655.12,342.6h-8.7c-4.64,0-8.4-3.76-8.4-8.4v-8.7c0-4.64,3.76-8.4,8.4-8.4h8.71c4.64,0,8.4,3.76,8.4,8.4v8.71
		C663.52,338.84,659.76,342.6,655.12,342.6z"/>
	<g>
		<path class="st1" d="M646.16,337.15v-14.6h4.62c0.97,0,1.82,0.18,2.53,0.54c0.71,0.36,1.27,0.86,1.67,1.51
			c0.4,0.65,0.6,1.41,0.6,2.29c0,0.96-0.24,1.81-0.73,2.54s-1.14,1.25-1.97,1.56l2.9,6.16h-2.8l-2.54-5.8h-1.78v5.8H646.16z
			 M648.66,329.15h2.12c0.71,0,1.26-0.19,1.66-0.58c0.4-0.39,0.6-0.92,0.6-1.6c0-0.69-0.2-1.24-0.6-1.63
			c-0.4-0.39-0.95-0.59-1.66-0.59h-2.12V329.15z"/>
	</g>
</g>
<g>
	<path class="st2" d="M613.49,358.25h-8.7c-4.64,0-8.4-3.76-8.4-8.4v-8.7c0-4.64,3.76-8.4,8.4-8.4h8.71c4.64,0,8.4,3.76,8.4,8.4
		v8.71C621.89,354.49,618.13,358.25,613.49,358.25z"/>
	<g>
		<path class="st1" d="M605.53,352.8v-14.6h4.34c0.99,0,1.84,0.19,2.57,0.56c0.73,0.37,1.29,0.9,1.69,1.58
			c0.4,0.68,0.6,1.49,0.6,2.42v5.46c0,0.92-0.2,1.72-0.6,2.41c-0.4,0.69-0.96,1.22-1.69,1.6c-0.73,0.38-1.58,0.57-2.57,0.57H605.53z
			 M608.03,350.5h1.84c0.72,0,1.29-0.2,1.72-0.61s0.64-0.96,0.64-1.67v-5.46c0-0.69-0.21-1.24-0.64-1.65s-1-0.61-1.72-0.61h-1.84
			V350.5z"/>
	</g>
</g>
<g>
	<path class="st2" d="M683.3,297.07h-8.7c-4.64,0-8.4-3.76-8.4-8.4v-8.7c0-4.64,3.76-8.4,8.4-8.4h8.71c4.64,0,8.4,3.76,8.4,8.4v8.71
		C691.7,293.31,687.94,297.07,683.3,297.07z"/>
	<g>
		<path class="st1" d="M675.34,291.62v-14.6h4.34c0.99,0,1.84,0.19,2.57,0.56c0.73,0.37,1.29,0.9,1.69,1.58
			c0.4,0.68,0.6,1.49,0.6,2.42v5.46c0,0.92-0.2,1.72-0.6,2.41c-0.4,0.69-0.96,1.22-1.69,1.6c-0.73,0.38-1.58,0.57-2.57,0.57H675.34z
			 M677.84,289.32h1.84c0.72,0,1.29-0.2,1.72-0.61s0.64-0.96,0.64-1.67v-5.46c0-0.69-0.21-1.24-0.64-1.65s-1-0.61-1.72-0.61h-1.84
			V289.32z"/>
	</g>
</g>
<g>
	<path class="st0" d="M618.1,325.19h-8.7c-4.64,0-8.4-3.76-8.4-8.4v-8.7c0-4.64,3.76-8.4,8.4-8.4h8.71c4.64,0,8.4,3.76,8.4,8.4v8.71
		C626.5,321.43,622.74,325.19,618.1,325.19z"/>
	<g>
		<path class="st1" d="M609.14,319.74v-14.6h4.62c0.97,0,1.82,0.18,2.53,0.54c0.71,0.36,1.27,0.86,1.67,1.51
			c0.4,0.65,0.6,1.41,0.6,2.29c0,0.96-0.24,1.81-0.73,2.54c-0.49,0.73-1.14,1.25-1.97,1.56l2.9,6.16h-2.8l-2.54-5.8h-1.78v5.8
			H609.14z M611.64,311.74h2.12c0.71,0,1.26-0.19,1.66-0.58c0.4-0.39,0.6-0.92,0.6-1.6c0-0.69-0.2-1.24-0.6-1.63
			c-0.4-0.39-0.95-0.59-1.66-0.59h-2.12V311.74z"/>
	</g>
</g>
<g>
	<path class="st2" d="M749.8,143.14h-8.7c-4.64,0-8.4-3.76-8.4-8.4v-8.7c0-4.64,3.76-8.4,8.4-8.4h8.71c4.64,0,8.4,3.76,8.4,8.4v8.71
		C758.2,139.38,754.44,143.14,749.8,143.14z"/>
	<g>
		<path class="st1" d="M741.84,137.69v-14.6h4.34c0.99,0,1.84,0.19,2.57,0.56c0.73,0.37,1.29,0.9,1.69,1.58
			c0.4,0.68,0.6,1.49,0.6,2.42v5.46c0,0.92-0.2,1.72-0.6,2.41c-0.4,0.69-0.96,1.22-1.69,1.6s-1.58,0.57-2.57,0.57L741.84,137.69z
			 M744.34,135.39h1.84c0.72,0,1.29-0.2,1.72-0.61c0.43-0.41,0.64-0.96,0.64-1.67v-5.46c0-0.69-0.21-1.24-0.64-1.65
			c-0.43-0.41-1-0.61-1.72-0.61h-1.84V135.39z"/>
	</g>
</g>
<g>
	<path class="st0" d="M696.31,135.84h-8.7c-4.64,0-8.4-3.76-8.4-8.4v-8.7c0-4.64,3.76-8.4,8.4-8.4h8.71c4.64,0,8.4,3.76,8.4,8.4
		v8.71C704.71,132.08,700.95,135.84,696.31,135.84z"/>
	<g>
		<path class="st1" d="M687.35,130.39v-14.6h4.62c0.97,0,1.82,0.18,2.53,0.54c0.71,0.36,1.27,0.86,1.67,1.51s0.6,1.41,0.6,2.29
			c0,0.96-0.24,1.81-0.73,2.54c-0.49,0.73-1.14,1.25-1.97,1.56l2.9,6.16h-2.8l-2.54-5.8h-1.78v5.8H687.35z M689.85,122.39h2.12
			c0.71,0,1.26-0.19,1.66-0.58c0.4-0.39,0.6-0.92,0.6-1.6c0-0.69-0.2-1.24-0.6-1.63c-0.4-0.39-0.95-0.59-1.66-0.59h-2.12V122.39z"/>
	</g>
</g>
<g>
	<path class="st0" d="M709.06,93.93h-8.7c-4.64,0-8.4-3.76-8.4-8.4v-8.7c0-4.64,3.76-8.4,8.4-8.4h8.71c4.64,0,8.4,3.76,8.4,8.4v8.71
		C717.46,90.17,713.7,93.93,709.06,93.93z"/>
	<g>
		<path class="st1" d="M700.1,88.48v-14.6h4.62c0.97,0,1.82,0.18,2.53,0.54c0.71,0.36,1.27,0.86,1.67,1.51
			c0.4,0.65,0.6,1.41,0.6,2.29c0,0.96-0.24,1.81-0.73,2.54c-0.49,0.73-1.14,1.25-1.97,1.56l2.9,6.16h-2.8l-2.54-5.8h-1.78v5.8H700.1
			z M702.6,80.48h2.12c0.71,0,1.26-0.19,1.66-0.58c0.4-0.39,0.6-0.92,0.6-1.6c0-0.69-0.2-1.24-0.6-1.63
			c-0.4-0.39-0.95-0.59-1.66-0.59h-2.12V80.48z"/>
	</g>
</g>
<g>
	<path class="st2" d="M667.43,109.58h-8.7c-4.64,0-8.4-3.76-8.4-8.4v-8.7c0-4.64,3.76-8.4,8.4-8.4h8.71c4.64,0,8.4,3.76,8.4,8.4
		v8.71C675.83,105.82,672.07,109.58,667.43,109.58z"/>
	<g>
		<path class="st1" d="M659.47,104.13v-14.6h4.34c0.99,0,1.84,0.19,2.57,0.56c0.73,0.37,1.29,0.9,1.69,1.58
			c0.4,0.68,0.6,1.49,0.6,2.42v5.46c0,0.92-0.2,1.72-0.6,2.41c-0.4,0.69-0.96,1.22-1.69,1.6c-0.73,0.38-1.58,0.57-2.57,0.57H659.47z
			 M661.97,101.83h1.84c0.72,0,1.29-0.2,1.72-0.61c0.43-0.41,0.64-0.96,0.64-1.67v-5.46c0-0.69-0.21-1.24-0.64-1.65
			c-0.43-0.41-1-0.61-1.72-0.61h-1.84V101.83z"/>
	</g>
</g>
<g>
	<path class="st2" d="M737.24,48.41h-8.7c-4.64,0-8.4-3.76-8.4-8.4v-8.7c0-4.64,3.76-8.4,8.4-8.4h8.71c4.64,0,8.4,3.76,8.4,8.4v8.71
		C745.64,44.65,741.88,48.41,737.24,48.41z"/>
	<g>
		<path class="st1" d="M729.28,42.96v-14.6h4.34c0.99,0,1.84,0.19,2.57,0.56c0.73,0.37,1.29,0.9,1.69,1.58
			c0.4,0.68,0.6,1.49,0.6,2.42v5.46c0,0.92-0.2,1.72-0.6,2.41c-0.4,0.69-0.96,1.22-1.69,1.6c-0.73,0.38-1.58,0.57-2.57,0.57H729.28z
			 M731.78,40.66h1.84c0.72,0,1.29-0.2,1.72-0.61c0.43-0.41,0.64-0.96,0.64-1.67v-5.46c0-0.69-0.21-1.24-0.64-1.65
			c-0.43-0.41-1-0.61-1.72-0.61h-1.84V40.66z"/>
	</g>
</g>
<g>
	<path class="st0" d="M672.04,76.53h-8.7c-4.64,0-8.4-3.76-8.4-8.4v-8.7c0-4.64,3.76-8.4,8.4-8.4h8.71c4.64,0,8.4,3.76,8.4,8.4v8.71
		C680.44,72.77,676.68,76.53,672.04,76.53z"/>
	<g>
		<path class="st1" d="M663.08,71.08v-14.6h4.62c0.97,0,1.82,0.18,2.53,0.54c0.71,0.36,1.27,0.86,1.67,1.51
			c0.4,0.65,0.6,1.41,0.6,2.29c0,0.96-0.24,1.81-0.73,2.54s-1.14,1.25-1.97,1.56l2.9,6.16h-2.8l-2.54-5.8h-1.78v5.8H663.08z
			 M665.58,63.08h2.12c0.71,0,1.26-0.19,1.66-0.58c0.4-0.39,0.6-0.92,0.6-1.6c0-0.69-0.2-1.24-0.6-1.63
			c-0.4-0.39-0.95-0.59-1.66-0.59h-2.12V63.08z"/>
	</g>
</g>
<g>
	<path class="st2" d="M748.13,273.46h-8.7c-4.64,0-8.4-3.76-8.4-8.4v-8.7c0-4.64,3.76-8.4,8.4-8.4h8.71c4.64,0,8.4,3.76,8.4,8.4
		v8.71C756.53,269.7,752.77,273.46,748.13,273.46z"/>
	<g>
		<path class="st1" d="M740.17,268.01v-14.6h4.34c0.99,0,1.84,0.19,2.57,0.56c0.73,0.37,1.29,0.9,1.69,1.58
			c0.4,0.68,0.6,1.49,0.6,2.42v5.46c0,0.92-0.2,1.72-0.6,2.41c-0.4,0.69-0.96,1.22-1.69,1.6c-0.73,0.38-1.58,0.57-2.57,0.57H740.17z
			 M742.67,265.71h1.84c0.72,0,1.29-0.2,1.72-0.61s0.64-0.96,0.64-1.67v-5.46c0-0.69-0.21-1.24-0.64-1.65s-1-0.61-1.72-0.61h-1.84
			V265.71z"/>
	</g>
</g>
<g>
	<path class="st0" d="M694.65,266.16h-8.7c-4.64,0-8.4-3.76-8.4-8.4v-8.7c0-4.64,3.76-8.4,8.4-8.4h8.71c4.64,0,8.4,3.76,8.4,8.4
		v8.71C703.05,262.4,699.29,266.16,694.65,266.16z"/>
	<g>
		<path class="st1" d="M685.69,260.71v-14.6h4.62c0.97,0,1.82,0.18,2.53,0.54c0.71,0.36,1.27,0.86,1.67,1.51
			c0.4,0.65,0.6,1.41,0.6,2.29c0,0.96-0.24,1.81-0.73,2.54c-0.49,0.73-1.14,1.25-1.97,1.56l2.9,6.16h-2.8l-2.54-5.8h-1.78v5.8
			H685.69z M688.19,252.71h2.12c0.71,0,1.26-0.19,1.66-0.58c0.4-0.39,0.6-0.92,0.6-1.6c0-0.69-0.2-1.24-0.6-1.63
			c-0.4-0.39-0.95-0.59-1.66-0.59h-2.12V252.71z"/>
	</g>
</g>
<g>
	<path class="st0" d="M707.4,224.25h-8.7c-4.64,0-8.4-3.76-8.4-8.4v-8.7c0-4.64,3.76-8.4,8.4-8.4h8.71c4.64,0,8.4,3.76,8.4,8.4v8.71
		C715.8,220.49,712.04,224.25,707.4,224.25z"/>
	<g>
		<path class="st1" d="M698.44,218.8v-14.6h4.62c0.97,0,1.82,0.18,2.53,0.54c0.71,0.36,1.27,0.86,1.67,1.51
			c0.4,0.65,0.6,1.41,0.6,2.29c0,0.96-0.24,1.81-0.73,2.54c-0.49,0.73-1.14,1.25-1.97,1.56l2.9,6.16h-2.8l-2.54-5.8h-1.78v5.8
			H698.44z M700.94,210.8h2.12c0.71,0,1.26-0.19,1.66-0.58c0.4-0.39,0.6-0.92,0.6-1.6c0-0.69-0.2-1.24-0.6-1.63
			c-0.4-0.39-0.95-0.59-1.66-0.59h-2.12V210.8z"/>
	</g>
</g>
<g>
	<path class="st2" d="M665.76,239.9h-8.7c-4.64,0-8.4-3.76-8.4-8.4v-8.7c0-4.64,3.76-8.4,8.4-8.4h8.71c4.64,0,8.4,3.76,8.4,8.4v8.71
		C674.16,236.14,670.4,239.9,665.76,239.9z"/>
	<g>
		<path class="st1" d="M657.8,234.45v-14.6h4.34c0.99,0,1.84,0.19,2.57,0.56s1.29,0.9,1.69,1.58c0.4,0.68,0.6,1.49,0.6,2.42v5.46
			c0,0.92-0.2,1.72-0.6,2.41c-0.4,0.69-0.96,1.22-1.69,1.6s-1.58,0.57-2.57,0.57L657.8,234.45z M660.3,232.15h1.84
			c0.72,0,1.29-0.2,1.72-0.61c0.43-0.41,0.64-0.96,0.64-1.67v-5.46c0-0.69-0.21-1.24-0.64-1.65c-0.43-0.41-1-0.61-1.72-0.61h-1.84
			V232.15z"/>
	</g>
</g>
<g>
	<path class="st2" d="M735.57,178.72h-8.7c-4.64,0-8.4-3.76-8.4-8.4v-8.7c0-4.64,3.76-8.4,8.4-8.4h8.71c4.64,0,8.4,3.76,8.4,8.4
		v8.71C743.97,174.96,740.21,178.72,735.57,178.72z"/>
	<g>
		<path class="st1" d="M727.61,173.27v-14.6h4.34c0.99,0,1.84,0.19,2.57,0.56c0.73,0.37,1.29,0.9,1.69,1.58
			c0.4,0.68,0.6,1.49,0.6,2.42v5.46c0,0.92-0.2,1.72-0.6,2.41c-0.4,0.69-0.96,1.22-1.69,1.6c-0.73,0.38-1.58,0.57-2.57,0.57H727.61z
			 M730.11,170.97h1.84c0.72,0,1.29-0.2,1.72-0.61c0.43-0.41,0.64-0.96,0.64-1.67v-5.46c0-0.69-0.21-1.24-0.64-1.65
			c-0.43-0.41-1-0.61-1.72-0.61h-1.84V170.97z"/>
	</g>
</g>
<g>
	<path class="st0" d="M670.38,206.85h-8.7c-4.64,0-8.4-3.76-8.4-8.4v-8.7c0-4.64,3.76-8.4,8.4-8.4h8.71c4.64,0,8.4,3.76,8.4,8.4
		v8.71C678.78,203.09,675.02,206.85,670.38,206.85z"/>
	<g>
		<path class="st1" d="M661.42,201.4v-14.6h4.62c0.97,0,1.82,0.18,2.53,0.54c0.71,0.36,1.27,0.86,1.67,1.51
			c0.4,0.65,0.6,1.41,0.6,2.29c0,0.96-0.24,1.81-0.73,2.54s-1.14,1.25-1.97,1.56l2.9,6.16h-2.8l-2.54-5.8h-1.78v5.8H661.42z
			 M663.92,193.4h2.12c0.71,0,1.26-0.19,1.66-0.58c0.4-0.39,0.6-0.92,0.6-1.6c0-0.69-0.2-1.24-0.6-1.63
			c-0.4-0.39-0.95-0.59-1.66-0.59h-2.12V193.4z"/>
	</g>
</g>
<g>
	<path class="st2" d="M460.91,305.43h-8.7c-4.64,0-8.4-3.76-8.4-8.4v-8.7c0-4.64,3.76-8.4,8.4-8.4h8.71c4.64,0,8.4,3.76,8.4,8.4
		v8.71C469.31,301.67,465.55,305.43,460.91,305.43z"/>
	<g>
		<path class="st1" d="M452.95,299.98v-14.6h4.34c0.99,0,1.84,0.19,2.57,0.56c0.73,0.37,1.29,0.9,1.69,1.58
			c0.4,0.68,0.6,1.49,0.6,2.42v5.46c0,0.92-0.2,1.72-0.6,2.41c-0.4,0.69-0.96,1.22-1.69,1.6c-0.73,0.38-1.58,0.57-2.57,0.57H452.95z
			 M455.45,297.68h1.84c0.72,0,1.29-0.2,1.72-0.61c0.43-0.41,0.64-0.96,0.64-1.67v-5.46c0-0.69-0.21-1.24-0.64-1.65
			c-0.43-0.41-1-0.61-1.72-0.61h-1.84V297.68z"/>
	</g>
</g>
<g>
	<path class="st0" d="M496.88,316.83h-8.7c-4.64,0-8.4-3.76-8.4-8.4v-8.7c0-4.64,3.76-8.4,8.4-8.4h8.71c4.64,0,8.4,3.76,8.4,8.4
		v8.71C505.28,313.07,501.52,316.83,496.88,316.83z"/>
	<g>
		<path class="st1" d="M487.92,311.38v-14.6h4.62c0.97,0,1.82,0.18,2.53,0.54c0.71,0.36,1.27,0.86,1.67,1.51
			c0.4,0.65,0.6,1.41,0.6,2.29c0,0.96-0.24,1.81-0.73,2.54c-0.49,0.73-1.14,1.25-1.97,1.56l2.9,6.16h-2.8l-2.54-5.8h-1.78v5.8
			H487.92z M490.42,303.38h2.12c0.71,0,1.26-0.19,1.66-0.58c0.4-0.39,0.6-0.92,0.6-1.6c0-0.69-0.2-1.24-0.6-1.63
			c-0.4-0.39-0.95-0.59-1.66-0.59h-2.12V303.38z"/>
	</g>
</g>
<g>
	<path class="st2" d="M486.1,249.21h-8.7c-4.64,0-8.4-3.76-8.4-8.4v-8.7c0-4.64,3.76-8.4,8.4-8.4h8.71c4.64,0,8.4,3.76,8.4,8.4v8.71
		C494.5,245.45,490.74,249.21,486.1,249.21z"/>
	<g>
		<path class="st1" d="M478.14,243.76v-14.6h4.34c0.99,0,1.84,0.19,2.57,0.56c0.73,0.37,1.29,0.9,1.69,1.58s0.6,1.49,0.6,2.42v5.46
			c0,0.92-0.2,1.72-0.6,2.41c-0.4,0.69-0.96,1.22-1.69,1.6c-0.73,0.38-1.58,0.57-2.57,0.57H478.14z M480.64,241.46h1.84
			c0.72,0,1.29-0.2,1.72-0.61c0.43-0.41,0.64-0.96,0.64-1.67v-5.46c0-0.69-0.21-1.24-0.64-1.65c-0.43-0.41-1-0.61-1.72-0.61h-1.84
			V241.46z"/>
	</g>
</g>
<g>
	<path class="st0" d="M522.07,260.61h-8.7c-4.64,0-8.4-3.76-8.4-8.4v-8.7c0-4.64,3.76-8.4,8.4-8.4h8.71c4.64,0,8.4,3.76,8.4,8.4
		v8.71C530.47,256.85,526.71,260.61,522.07,260.61z"/>
	<g>
		<path class="st1" d="M513.11,255.16v-14.6h4.62c0.97,0,1.82,0.18,2.53,0.54s1.27,0.86,1.67,1.51c0.4,0.65,0.6,1.41,0.6,2.29
			c0,0.96-0.24,1.81-0.73,2.54c-0.49,0.73-1.14,1.25-1.97,1.56l2.9,6.16h-2.8l-2.54-5.8h-1.78v5.8H513.11z M515.61,247.16h2.12
			c0.71,0,1.26-0.19,1.66-0.58c0.4-0.39,0.6-0.92,0.6-1.6c0-0.69-0.2-1.24-0.6-1.63c-0.4-0.39-0.95-0.59-1.66-0.59h-2.12V247.16z"/>
	</g>
</g>
<g>
	<path class="st2" d="M551.68,264.58h-8.7c-4.64,0-8.4-3.76-8.4-8.4v-8.7c0-4.64,3.76-8.4,8.4-8.4h8.71c4.64,0,8.4,3.76,8.4,8.4
		v8.71C560.08,260.82,556.32,264.58,551.68,264.58z"/>
	<g>
		<path class="st1" d="M543.72,259.13v-14.6h4.34c0.99,0,1.84,0.19,2.57,0.56s1.29,0.9,1.69,1.58c0.4,0.68,0.6,1.49,0.6,2.42v5.46
			c0,0.92-0.2,1.72-0.6,2.41c-0.4,0.69-0.96,1.22-1.69,1.6c-0.73,0.38-1.58,0.57-2.57,0.57H543.72z M546.22,256.83h1.84
			c0.72,0,1.29-0.2,1.72-0.61c0.43-0.41,0.64-0.96,0.64-1.67v-5.46c0-0.69-0.21-1.24-0.64-1.65c-0.43-0.41-1-0.61-1.72-0.61h-1.84
			V256.83z"/>
	</g>
</g>
<g>
	<path class="st0" d="M587.65,275.99h-8.7c-4.64,0-8.4-3.76-8.4-8.4v-8.7c0-4.64,3.76-8.4,8.4-8.4h8.71c4.64,0,8.4,3.76,8.4,8.4
		v8.71C596.05,272.23,592.29,275.99,587.65,275.99z"/>
	<g>
		<path class="st1" d="M578.69,270.54v-14.6h4.62c0.97,0,1.82,0.18,2.53,0.54c0.71,0.36,1.27,0.86,1.67,1.51s0.6,1.41,0.6,2.29
			c0,0.96-0.24,1.81-0.73,2.54c-0.49,0.73-1.14,1.25-1.97,1.56l2.9,6.16h-2.8l-2.54-5.8h-1.78v5.8H578.69z M581.19,262.54h2.12
			c0.71,0,1.26-0.19,1.66-0.58c0.4-0.39,0.6-0.92,0.6-1.6c0-0.69-0.2-1.24-0.6-1.63c-0.4-0.39-0.95-0.59-1.66-0.59h-2.12V262.54z"/>
	</g>
</g>
<g>
	<path class="st2" d="M381.28,378.2h-8.7c-4.64,0-8.4-3.76-8.4-8.4v-8.7c0-4.64,3.76-8.4,8.4-8.4h8.71c4.64,0,8.4,3.76,8.4,8.4v8.71
		C389.68,374.44,385.92,378.2,381.28,378.2z"/>
	<g>
		<path class="st1" d="M373.32,372.75v-14.6h4.34c0.99,0,1.84,0.19,2.57,0.56c0.73,0.37,1.29,0.9,1.69,1.58
			c0.4,0.68,0.6,1.49,0.6,2.42v5.46c0,0.92-0.2,1.72-0.6,2.41s-0.96,1.22-1.69,1.6s-1.58,0.57-2.57,0.57H373.32z M375.82,370.45
			h1.84c0.72,0,1.29-0.2,1.72-0.61s0.64-0.96,0.64-1.67v-5.46c0-0.69-0.21-1.24-0.64-1.65s-1-0.61-1.72-0.61h-1.84V370.45z"/>
	</g>
</g>
<g>
	<path class="st0" d="M417.25,389.6h-8.7c-4.64,0-8.4-3.76-8.4-8.4v-8.7c0-4.64,3.76-8.4,8.4-8.4h8.71c4.64,0,8.4,3.76,8.4,8.4v8.71
		C425.65,385.84,421.89,389.6,417.25,389.6z"/>
	<g>
		<path class="st1" d="M408.29,384.15v-14.6h4.62c0.97,0,1.82,0.18,2.53,0.54c0.71,0.36,1.27,0.86,1.67,1.51
			c0.4,0.65,0.6,1.41,0.6,2.29c0,0.96-0.24,1.81-0.73,2.54s-1.14,1.25-1.97,1.56l2.9,6.16h-2.8l-2.54-5.8h-1.78v5.8H408.29z
			 M410.79,376.15h2.12c0.71,0,1.26-0.19,1.66-0.58c0.4-0.39,0.6-0.92,0.6-1.6c0-0.69-0.2-1.24-0.6-1.63
			c-0.4-0.39-0.95-0.59-1.66-0.59h-2.12V376.15z"/>
	</g>
</g>
<g>
	<path class="st2" d="M228.55,398.85h-8.7c-4.64,0-8.4-3.76-8.4-8.4v-8.7c0-4.64,3.76-8.4,8.4-8.4h8.71c4.64,0,8.4,3.76,8.4,8.4
		v8.71C236.95,395.09,233.19,398.85,228.55,398.85z"/>
	<g>
		<path class="st1" d="M220.59,393.4v-14.6h4.34c0.99,0,1.84,0.19,2.57,0.56c0.73,0.37,1.29,0.9,1.69,1.58
			c0.4,0.68,0.6,1.49,0.6,2.42v5.46c0,0.92-0.2,1.72-0.6,2.41c-0.4,0.69-0.96,1.22-1.69,1.6c-0.73,0.38-1.58,0.57-2.57,0.57H220.59z
			 M223.09,391.1h1.84c0.72,0,1.29-0.2,1.72-0.61c0.43-0.41,0.64-0.96,0.64-1.67v-5.46c0-0.69-0.21-1.24-0.64-1.65
			c-0.43-0.41-1-0.61-1.72-0.61h-1.84V391.1z"/>
	</g>
</g>
<g>
	<path class="st0" d="M264.52,410.25h-8.7c-4.64,0-8.4-3.76-8.4-8.4v-8.7c0-4.64,3.76-8.4,8.4-8.4h8.71c4.64,0,8.4,3.76,8.4,8.4
		v8.71C272.92,406.49,269.16,410.25,264.52,410.25z"/>
	<g>
		<path class="st1" d="M255.56,404.8v-14.6h4.62c0.97,0,1.82,0.18,2.53,0.54c0.71,0.36,1.27,0.86,1.67,1.51s0.6,1.41,0.6,2.29
			c0,0.96-0.24,1.81-0.73,2.54c-0.49,0.73-1.14,1.25-1.97,1.56l2.9,6.16h-2.8l-2.54-5.8h-1.78v5.8H255.56z M258.06,396.8h2.12
			c0.71,0,1.26-0.19,1.66-0.58s0.6-0.92,0.6-1.6c0-0.69-0.2-1.24-0.6-1.63c-0.4-0.39-0.95-0.59-1.66-0.59h-2.12V396.8z"/>
	</g>
</g>
<g>
	<path class="st2" d="M204.44,248.51h-8.7c-4.64,0-8.4-3.76-8.4-8.4v-8.7c0-4.64,3.76-8.4,8.4-8.4h8.71c4.64,0,8.4,3.76,8.4,8.4
		v8.71C212.84,244.75,209.08,248.51,204.44,248.51z"/>
	<g>
		<path class="st1" d="M196.48,243.06v-14.6h4.34c0.99,0,1.84,0.19,2.57,0.56c0.73,0.37,1.29,0.9,1.69,1.58
			c0.4,0.68,0.6,1.49,0.6,2.42v5.46c0,0.92-0.2,1.72-0.6,2.41c-0.4,0.69-0.96,1.22-1.69,1.6c-0.73,0.38-1.58,0.57-2.57,0.57H196.48z
			 M198.98,240.76h1.84c0.72,0,1.29-0.2,1.72-0.61c0.43-0.41,0.64-0.96,0.64-1.67v-5.46c0-0.69-0.21-1.24-0.64-1.65
			c-0.43-0.41-1-0.61-1.72-0.61h-1.84V240.76z"/>
	</g>
</g>
<g>
	<path class="st0" d="M240.41,259.91h-8.7c-4.64,0-8.4-3.76-8.4-8.4v-8.7c0-4.64,3.76-8.4,8.4-8.4h8.71c4.64,0,8.4,3.76,8.4,8.4
		v8.71C248.81,256.15,245.05,259.91,240.41,259.91z"/>
	<g>
		<path class="st1" d="M231.45,254.46v-14.6h4.62c0.97,0,1.82,0.18,2.53,0.54c0.71,0.36,1.27,0.86,1.67,1.51
			c0.4,0.65,0.6,1.41,0.6,2.29c0,0.96-0.24,1.81-0.73,2.54c-0.49,0.73-1.14,1.25-1.97,1.56l2.9,6.16h-2.8l-2.54-5.8h-1.78v5.8
			H231.45z M233.95,246.46h2.12c0.71,0,1.26-0.19,1.66-0.58c0.4-0.39,0.6-0.92,0.6-1.6c0-0.69-0.2-1.24-0.6-1.63
			c-0.4-0.39-0.95-0.59-1.66-0.59h-2.12V246.46z"/>
	</g>
</g>
<g>
	<path class="st2" d="M400.78,152.88h-8.7c-4.64,0-8.4-3.76-8.4-8.4v-8.7c0-4.64,3.76-8.4,8.4-8.4h8.71c4.64,0,8.4,3.76,8.4,8.4
		v8.71C409.18,149.12,405.42,152.88,400.78,152.88z"/>
	<g>
		<path class="st1" d="M392.82,147.43v-14.6h4.34c0.99,0,1.84,0.19,2.57,0.56s1.29,0.9,1.69,1.58c0.4,0.68,0.6,1.49,0.6,2.42v5.46
			c0,0.92-0.2,1.72-0.6,2.41s-0.96,1.22-1.69,1.6c-0.73,0.38-1.58,0.57-2.57,0.57H392.82z M395.32,145.13h1.84
			c0.72,0,1.29-0.2,1.72-0.61c0.43-0.41,0.64-0.96,0.64-1.67v-5.46c0-0.69-0.21-1.24-0.64-1.65c-0.43-0.41-1-0.61-1.72-0.61h-1.84
			V145.13z"/>
	</g>
</g>
<g>
	<path class="st2" d="M521.53,168.64h-8.7c-4.64,0-8.4-3.76-8.4-8.4v-8.7c0-4.64,3.76-8.4,8.4-8.4h8.71c4.64,0,8.4,3.76,8.4,8.4
		v8.71C529.93,164.88,526.17,168.64,521.53,168.64z"/>
	<g>
		<path class="st1" d="M513.57,163.19v-14.6h4.34c0.99,0,1.84,0.19,2.57,0.56c0.73,0.37,1.29,0.9,1.69,1.58
			c0.4,0.68,0.6,1.49,0.6,2.42v5.46c0,0.92-0.2,1.72-0.6,2.41c-0.4,0.69-0.96,1.22-1.69,1.6c-0.73,0.38-1.58,0.57-2.57,0.57
			L513.57,163.19z M516.07,160.89h1.84c0.72,0,1.29-0.2,1.72-0.61c0.43-0.41,0.64-0.96,0.64-1.67v-5.46c0-0.69-0.21-1.24-0.64-1.65
			c-0.43-0.41-1-0.61-1.72-0.61h-1.84V160.89z"/>
	</g>
</g>
<g>
	<path class="st2" d="M341.28,246.86h-8.7c-4.64,0-8.4-3.76-8.4-8.4v-8.7c0-4.64,3.76-8.4,8.4-8.4h8.71c4.64,0,8.4,3.76,8.4,8.4
		v8.71C349.68,243.1,345.92,246.86,341.28,246.86z"/>
	<g>
		<path class="st1" d="M333.32,241.41v-14.6h4.34c0.99,0,1.84,0.19,2.57,0.56s1.29,0.9,1.69,1.58c0.4,0.68,0.6,1.49,0.6,2.42v5.46
			c0,0.92-0.2,1.72-0.6,2.41c-0.4,0.69-0.96,1.22-1.69,1.6s-1.58,0.57-2.57,0.57L333.32,241.41z M335.82,239.11h1.84
			c0.72,0,1.29-0.2,1.72-0.61c0.43-0.41,0.64-0.96,0.64-1.67v-5.46c0-0.69-0.21-1.24-0.64-1.65c-0.43-0.41-1-0.61-1.72-0.61h-1.84
			V239.11z"/>
	</g>
</g>
<g>
	<path class="st2" d="M632.48,273.46h-8.7c-4.64,0-8.4-3.76-8.4-8.4v-8.7c0-4.64,3.76-8.4,8.4-8.4h8.71c4.64,0,8.4,3.76,8.4,8.4
		v8.71C640.88,269.7,637.12,273.46,632.48,273.46z"/>
	<g>
		<path class="st1" d="M624.52,268.01v-14.6h4.34c0.99,0,1.84,0.19,2.57,0.56c0.73,0.37,1.29,0.9,1.69,1.58
			c0.4,0.68,0.6,1.49,0.6,2.42v5.46c0,0.92-0.2,1.72-0.6,2.41c-0.4,0.69-0.96,1.22-1.69,1.6c-0.73,0.38-1.58,0.57-2.57,0.57H624.52z
			 M627.02,265.71h1.84c0.72,0,1.29-0.2,1.72-0.61s0.64-0.96,0.64-1.67v-5.46c0-0.69-0.21-1.24-0.64-1.65s-1-0.61-1.72-0.61h-1.84
			V265.71z"/>
	</g>
</g>
<g>
	<path class="st2" d="M251.76,348.3h-8.7c-4.64,0-8.4-3.76-8.4-8.4v-8.7c0-4.64,3.76-8.4,8.4-8.4h8.71c4.64,0,8.4,3.76,8.4,8.4v8.71
		C260.16,344.54,256.4,348.3,251.76,348.3z"/>
	<g>
		<path class="st1" d="M243.8,342.85v-14.6h4.34c0.99,0,1.84,0.19,2.57,0.56c0.73,0.37,1.29,0.9,1.69,1.58
			c0.4,0.68,0.6,1.49,0.6,2.42v5.46c0,0.92-0.2,1.72-0.6,2.41c-0.4,0.69-0.96,1.22-1.69,1.6c-0.73,0.38-1.58,0.57-2.57,0.57H243.8z
			 M246.3,340.55h1.84c0.72,0,1.29-0.2,1.72-0.61c0.43-0.41,0.64-0.96,0.64-1.67v-5.46c0-0.69-0.21-1.24-0.64-1.65
			c-0.43-0.41-1-0.61-1.72-0.61h-1.84V340.55z"/>
	</g>
</g>
<g>
	<path class="st2" d="M568.31,360.07h-8.7c-4.64,0-8.4-3.76-8.4-8.4v-8.7c0-4.64,3.76-8.4,8.4-8.4h8.71c4.64,0,8.4,3.76,8.4,8.4
		v8.71C576.71,356.31,572.95,360.07,568.31,360.07z"/>
	<g>
		<path class="st1" d="M560.35,354.62v-14.6h4.34c0.99,0,1.84,0.19,2.57,0.56c0.73,0.37,1.29,0.9,1.69,1.58
			c0.4,0.68,0.6,1.49,0.6,2.42v5.46c0,0.92-0.2,1.72-0.6,2.41c-0.4,0.69-0.96,1.22-1.69,1.6c-0.73,0.38-1.58,0.57-2.57,0.57H560.35z
			 M562.85,352.32h1.84c0.72,0,1.29-0.2,1.72-0.61s0.64-0.96,0.64-1.67v-5.46c0-0.69-0.21-1.24-0.64-1.65s-1-0.61-1.72-0.61h-1.84
			V352.32z"/>
	</g>
</g>
<g>
	<path class="st2" d="M310.08,51.18h-8.7c-4.64,0-8.4-3.76-8.4-8.4v-8.7c0-4.64,3.76-8.4,8.4-8.4h8.71c4.64,0,8.4,3.76,8.4,8.4v8.71
		C318.48,47.42,314.72,51.18,310.08,51.18z"/>
	<g>
		<path class="st1" d="M302.12,45.73v-14.6h4.34c0.99,0,1.84,0.19,2.57,0.56c0.73,0.37,1.29,0.9,1.69,1.58
			c0.4,0.68,0.6,1.49,0.6,2.42v5.46c0,0.92-0.2,1.72-0.6,2.41c-0.4,0.69-0.96,1.22-1.69,1.6c-0.73,0.38-1.58,0.57-2.57,0.57
			L302.12,45.73z M304.62,43.43h1.84c0.72,0,1.29-0.2,1.72-0.61c0.43-0.41,0.64-0.96,0.64-1.67v-5.46c0-0.69-0.21-1.24-0.64-1.65
			c-0.43-0.41-1-0.61-1.72-0.61h-1.84V43.43z"/>
	</g>
</g>
</svg>
