<?xml version="1.0" encoding="utf-8"?>
<!-- Generator: Adobe Illustrator 24.1.0, SVG Export Plug-In . SVG Version: 6.00 Build 0)  -->
<svg version="1.1" id="Layer_1" xmlns="http://www.w3.org/2000/svg" xmlns:xlink="http://www.w3.org/1999/xlink" x="0px" y="0px"
	 viewBox="0 0 700 100" style="enable-background:new 0 0 700 100;" xml:space="preserve">
<style type="text/css">
	.st0{fill:#8284FF;}
	.st1{fill:#231F20;}
	.st2{fill:#FFD448;}
	.st3{fill:#FFFFFF;}
	.st4{fill:#FF4646;}
	.st5{fill:#010101;stroke:#000000;stroke-miterlimit:10;}
	.st6{fill:#010101;}
	.st7{fill:#499AFF;}
	.st8{fill:#339AFF;}
	.st9{fill:#FF6666;}
	.st10{fill:#000AEE;}
	.st11{fill:#FFB0B2;}
	.st12{fill:#FF7C7C;}
	.st13{fill:#0021A2;}
	.st14{fill:#EE0000;}
	.st15{fill:#6182FF;}
	.st16{fill:#FFAAAA;}
</style>
<g>
	<path class="st1" d="M312.17,27.78v-3.04l6.06-6.16c0.89-0.92,1.54-1.76,1.96-2.49s0.63-1.48,0.63-2.23c0-0.94-0.26-1.68-0.77-2.23
		c-0.52-0.54-1.22-0.81-2.11-0.81c-1,0-1.77,0.28-2.33,0.85c-0.56,0.57-0.84,1.35-0.84,2.35h-3.12c0.02-1.23,0.29-2.29,0.81-3.17
		s1.26-1.58,2.2-2.07c0.94-0.49,2.04-0.73,3.31-0.73c1.21,0,2.26,0.23,3.16,0.69c0.9,0.46,1.59,1.11,2.08,1.95s0.73,1.82,0.73,2.96
		c0,1.17-0.3,2.32-0.91,3.44c-0.61,1.12-1.58,2.35-2.93,3.68l-4.24,4.22h8.35v2.8H312.17z"/>
	<path class="st1" d="M333.99,28.05c-1.25,0-2.33-0.24-3.24-0.72c-0.92-0.48-1.62-1.16-2.12-2.03c-0.5-0.87-0.75-1.88-0.75-3.04
		v-8.43c0-1.17,0.25-2.19,0.75-3.05s1.21-1.53,2.12-2.01s2-0.72,3.24-0.72c1.26,0,2.35,0.24,3.25,0.72s1.61,1.15,2.11,2.01
		s0.75,1.88,0.75,3.05v8.43c0,1.16-0.25,2.17-0.75,3.04c-0.5,0.87-1.21,1.55-2.12,2.03C336.32,27.81,335.24,28.05,333.99,28.05z
		 M333.99,25.38c0.96,0,1.73-0.29,2.29-0.87c0.57-0.58,0.85-1.33,0.85-2.25v-8.43c0-0.92-0.29-1.68-0.85-2.25
		c-0.57-0.58-1.33-0.87-2.29-0.87c-0.96,0-1.73,0.29-2.29,0.87c-0.57,0.58-0.85,1.33-0.85,2.25v8.43c0,0.92,0.28,1.68,0.85,2.25
		C332.27,25.09,333.03,25.38,333.99,25.38z M333.99,19.73c-0.52,0-0.93-0.16-1.24-0.48c-0.31-0.32-0.47-0.75-0.47-1.28
		c0-0.52,0.16-0.93,0.47-1.24c0.31-0.31,0.72-0.47,1.24-0.47s0.93,0.16,1.24,0.47c0.31,0.31,0.47,0.72,0.47,1.24
		c0,0.53-0.16,0.96-0.47,1.28C334.92,19.57,334.51,19.73,333.99,19.73z"/>
	<path class="st1" d="M344.18,27.78v-3.04l6.06-6.16c0.89-0.92,1.54-1.76,1.96-2.49s0.63-1.48,0.63-2.23c0-0.94-0.26-1.68-0.77-2.23
		c-0.52-0.54-1.22-0.81-2.11-0.81c-1,0-1.77,0.28-2.33,0.85c-0.56,0.57-0.84,1.35-0.84,2.35h-3.12c0.02-1.23,0.29-2.29,0.81-3.17
		c0.52-0.89,1.26-1.58,2.2-2.07c0.94-0.49,2.05-0.73,3.31-0.73c1.21,0,2.26,0.23,3.16,0.69s1.59,1.11,2.08,1.95s0.73,1.82,0.73,2.96
		c0,1.17-0.3,2.32-0.91,3.44c-0.6,1.12-1.58,2.35-2.93,3.68l-4.24,4.22h8.35v2.8H344.18z"/>
	<path class="st1" d="M360.19,27.78v-3.04l6.06-6.16c0.89-0.92,1.54-1.76,1.96-2.49s0.63-1.48,0.63-2.23c0-0.94-0.26-1.68-0.77-2.23
		c-0.52-0.54-1.22-0.81-2.11-0.81c-1,0-1.77,0.28-2.33,0.85c-0.56,0.57-0.84,1.35-0.84,2.35h-3.12c0.02-1.23,0.29-2.29,0.81-3.17
		s1.26-1.58,2.2-2.07c0.94-0.49,2.04-0.73,3.31-0.73c1.21,0,2.26,0.23,3.16,0.69c0.9,0.46,1.59,1.11,2.08,1.95s0.73,1.82,0.73,2.96
		c0,1.17-0.3,2.32-0.91,3.44c-0.61,1.12-1.58,2.35-2.93,3.68l-4.24,4.22h8.35v2.8H360.19z"/>
	<path class="st1" d="M312.14,59.8V40.32h3.12v7.95h5.44v-7.95h3.12V59.8h-3.12v-8.64h-5.44v8.64H312.14z"/>
	<path class="st1" d="M333.99,60.04c-1.23,0-2.29-0.23-3.19-0.69c-0.9-0.46-1.6-1.12-2.09-1.99c-0.5-0.86-0.75-1.88-0.75-3.05v-3.68
		c0-1.17,0.25-2.19,0.75-3.05c0.5-0.86,1.2-1.53,2.09-1.99c0.9-0.46,1.96-0.69,3.19-0.69c1.25,0,2.31,0.23,3.2,0.69
		c0.89,0.46,1.58,1.12,2.08,1.99c0.5,0.86,0.75,1.87,0.75,3.03v3.71c0,1.17-0.25,2.19-0.75,3.05c-0.5,0.86-1.19,1.53-2.08,1.99
		C336.31,59.81,335.24,60.04,333.99,60.04z M333.99,57.32c0.92,0,1.65-0.26,2.16-0.77c0.52-0.52,0.77-1.26,0.77-2.24v-3.68
		c0-1-0.26-1.75-0.77-2.25s-1.24-0.76-2.16-0.76c-0.91,0-1.62,0.25-2.15,0.76s-0.79,1.26-0.79,2.25v3.68c0,0.98,0.26,1.73,0.79,2.24
		C332.37,57.06,333.09,57.32,333.99,57.32z"/>
	<path class="st1" d="M349.97,60.06c-1.81,0-3.25-0.52-4.31-1.55c-1.06-1.03-1.59-2.44-1.59-4.22v-9.18h3.12v9.15
		c0,0.98,0.24,1.73,0.73,2.27c0.49,0.53,1.17,0.8,2.04,0.8c0.89,0,1.58-0.27,2.08-0.8c0.5-0.53,0.75-1.29,0.75-2.27v-9.15h3.12v9.18
		c0,1.78-0.54,3.18-1.61,4.22S351.79,60.06,349.97,60.06z"/>
	<path class="st1" d="M365.47,60.04c-1.08,0-2.03-0.17-2.84-0.52c-0.81-0.35-1.45-0.83-1.92-1.44c-0.47-0.61-0.73-1.34-0.79-2.17
		h3.12c0.05,0.48,0.3,0.86,0.73,1.15c0.44,0.29,1,0.43,1.69,0.43h1.15c0.85,0,1.49-0.17,1.92-0.51c0.43-0.34,0.64-0.79,0.64-1.36
		c0-0.53-0.19-0.96-0.57-1.27c-0.38-0.31-0.96-0.52-1.72-0.63l-1.87-0.27c-1.62-0.25-2.81-0.7-3.56-1.35s-1.13-1.62-1.13-2.92
		c0-1.37,0.45-2.43,1.35-3.17c0.9-0.75,2.23-1.12,3.99-1.12h1.01c1.58,0,2.84,0.36,3.79,1.07c0.94,0.71,1.47,1.67,1.57,2.88h-3.12
		c-0.05-0.41-0.28-0.74-0.67-1c-0.39-0.26-0.92-0.39-1.57-0.39h-1.01c-0.8,0-1.38,0.15-1.75,0.44c-0.36,0.29-0.55,0.73-0.55,1.29
		c0,0.52,0.16,0.9,0.48,1.16s0.83,0.44,1.52,0.55l1.92,0.27c1.69,0.25,2.93,0.72,3.74,1.4c0.8,0.68,1.2,1.69,1.2,3
		c0,1.42-0.47,2.53-1.4,3.31s-2.33,1.17-4.2,1.17H365.47z"/>
	<path class="st1" d="M382.01,60.06c-1.21,0-2.27-0.24-3.17-0.71c-0.91-0.47-1.61-1.14-2.11-2c-0.5-0.86-0.75-1.86-0.75-3v-3.79
		c0-1.14,0.25-2.14,0.75-3c0.5-0.86,1.2-1.53,2.11-2c0.91-0.47,1.97-0.71,3.17-0.71c1.23,0,2.29,0.24,3.19,0.71
		c0.9,0.47,1.6,1.14,2.09,2c0.5,0.86,0.75,1.86,0.75,3v2.64h-9.07v1.15c0,1.05,0.26,1.85,0.79,2.4c0.52,0.55,1.28,0.83,2.28,0.83
		c0.8,0,1.44-0.14,1.93-0.43c0.49-0.28,0.8-0.68,0.92-1.2h3.07c-0.23,1.25-0.89,2.24-1.97,2.99
		C384.9,59.69,383.58,60.06,382.01,60.06z M385.05,51.39v-0.83c0-1.05-0.25-1.85-0.76-2.41c-0.51-0.56-1.27-0.84-2.28-0.84
		c-0.98,0-1.73,0.29-2.25,0.85c-0.53,0.57-0.79,1.37-0.79,2.4v0.61l6.3-0.03L385.05,51.39z"/>
	<path class="st1" d="M288.21,91.81v-19.5h11.95v2.88h-8.91v5.52h8.22v2.88h-8.16v8.22H288.21z"/>
	<path class="st1" d="M309.98,92.05c-1.23,0-2.29-0.23-3.19-0.69c-0.9-0.46-1.6-1.12-2.09-1.99c-0.5-0.86-0.75-1.88-0.75-3.05v-3.68
		c0-1.17,0.25-2.19,0.75-3.05c0.5-0.86,1.2-1.53,2.09-1.99c0.9-0.46,1.96-0.69,3.19-0.69c1.25,0,2.31,0.23,3.2,0.69
		c0.89,0.46,1.58,1.12,2.08,1.99c0.5,0.86,0.75,1.87,0.75,3.03v3.71c0,1.17-0.25,2.19-0.75,3.05c-0.5,0.86-1.19,1.53-2.08,1.99
		C312.3,91.82,311.23,92.05,309.98,92.05z M309.98,89.33c0.92,0,1.65-0.26,2.16-0.77c0.52-0.52,0.77-1.26,0.77-2.24v-3.68
		c0-1-0.26-1.75-0.77-2.25s-1.24-0.76-2.16-0.76c-0.91,0-1.62,0.25-2.15,0.76s-0.79,1.26-0.79,2.25v3.68c0,0.98,0.26,1.73,0.79,2.24
		C308.36,89.07,309.08,89.33,309.98,89.33z"/>
	<path class="st1" d="M320.6,91.81V77.14h2.96v2.8h0.77l-0.93,1.73c0-1.58,0.35-2.78,1.05-3.59c0.7-0.81,1.74-1.21,3.11-1.21
		c1.58,0,2.83,0.48,3.74,1.45c0.91,0.97,1.36,2.32,1.36,4.04v1.01h-3.23v-0.8c0-1-0.25-1.76-0.76-2.29c-0.51-0.53-1.21-0.8-2.09-0.8
		c-0.91,0-1.61,0.27-2.11,0.81c-0.5,0.54-0.75,1.3-0.75,2.28v9.23H320.6z"/>
	<path class="st1" d="M342,92.08c-1.21,0-2.27-0.24-3.17-0.71c-0.91-0.47-1.61-1.14-2.11-2c-0.5-0.86-0.75-1.86-0.75-3v-3.79
		c0-1.14,0.25-2.14,0.75-3c0.5-0.86,1.2-1.53,2.11-2s1.96-0.71,3.17-0.71c1.23,0,2.29,0.24,3.19,0.71s1.6,1.14,2.09,2
		c0.5,0.86,0.75,1.86,0.75,3v2.64h-9.07v1.15c0,1.05,0.26,1.85,0.79,2.4c0.52,0.55,1.29,0.83,2.28,0.83c0.8,0,1.44-0.14,1.93-0.43
		c0.49-0.28,0.79-0.68,0.92-1.2h3.07c-0.23,1.25-0.89,2.24-1.97,2.99S343.56,92.08,342,92.08z M345.04,83.41v-0.83
		c0-1.05-0.25-1.85-0.76-2.41c-0.51-0.56-1.27-0.84-2.28-0.84c-0.98,0-1.73,0.29-2.25,0.85c-0.52,0.57-0.79,1.37-0.79,2.4v0.61
		l6.3-0.03L345.04,83.41z"/>
	<path class="st1" d="M358.11,92.08c-1.25,0-2.33-0.23-3.24-0.69s-1.63-1.12-2.13-1.99s-0.76-1.87-0.76-3.03v-3.79
		c0-1.17,0.25-2.19,0.76-3.04c0.51-0.85,1.22-1.51,2.13-1.97c0.92-0.46,2-0.69,3.24-0.69c1.8,0,3.24,0.47,4.32,1.41
		s1.65,2.22,1.71,3.84h-3.09c-0.05-0.8-0.34-1.42-0.85-1.87c-0.52-0.44-1.21-0.67-2.08-0.67c-0.94,0-1.68,0.26-2.23,0.77
		c-0.54,0.52-0.81,1.25-0.81,2.21v3.79c0,0.94,0.27,1.68,0.81,2.2c0.54,0.52,1.29,0.79,2.23,0.79c0.87,0,1.57-0.22,2.08-0.67
		s0.8-1.07,0.85-1.87h3.09c-0.05,1.62-0.62,2.9-1.71,3.84C361.35,91.61,359.91,92.08,358.11,92.08z"/>
	<path class="st1" d="M372.46,92.08c-1.51,0-2.71-0.4-3.59-1.19c-0.88-0.79-1.32-1.87-1.32-3.24c0-1.42,0.48-2.52,1.43-3.31
		c0.95-0.78,2.27-1.17,3.96-1.17h3.87v-1.31c0-0.75-0.24-1.33-0.72-1.76s-1.15-0.64-2-0.64c-0.76,0-1.4,0.16-1.91,0.49
		s-0.8,0.78-0.89,1.35h-3.04c0.16-1.35,0.78-2.43,1.85-3.23c1.08-0.8,2.43-1.2,4.07-1.2c1.78,0,3.18,0.44,4.21,1.33
		s1.55,2.1,1.55,3.63v9.98h-3.04V89.2h-0.51l0.53-0.64c0,1.08-0.41,1.94-1.23,2.57C374.87,91.76,373.8,92.08,372.46,92.08z
		 M373.45,89.73c0.98,0,1.78-0.25,2.41-0.76c0.63-0.51,0.95-1.15,0.95-1.93v-1.87H373c-0.71,0-1.28,0.2-1.71,0.6
		c-0.43,0.4-0.64,0.94-0.64,1.61c0,0.73,0.25,1.3,0.75,1.72C371.89,89.52,372.58,89.73,373.45,89.73z"/>
	<path class="st1" d="M389.48,92.05c-1.08,0-2.03-0.17-2.84-0.52c-0.81-0.35-1.45-0.83-1.92-1.44c-0.47-0.61-0.73-1.34-0.79-2.17
		h3.12c0.05,0.48,0.3,0.86,0.73,1.15c0.44,0.29,1,0.43,1.69,0.43h1.15c0.85,0,1.49-0.17,1.92-0.51c0.43-0.34,0.64-0.79,0.64-1.36
		c0-0.53-0.19-0.96-0.57-1.27c-0.38-0.31-0.96-0.52-1.72-0.63l-1.87-0.27c-1.62-0.25-2.81-0.7-3.56-1.35s-1.13-1.62-1.13-2.92
		c0-1.37,0.45-2.43,1.35-3.17c0.9-0.75,2.23-1.12,3.99-1.12h1.01c1.58,0,2.84,0.36,3.79,1.07c0.94,0.71,1.47,1.67,1.57,2.88h-3.12
		c-0.05-0.41-0.28-0.74-0.67-1c-0.39-0.26-0.92-0.39-1.57-0.39h-1.01c-0.8,0-1.38,0.15-1.75,0.44c-0.36,0.29-0.55,0.73-0.55,1.29
		c0,0.52,0.16,0.9,0.48,1.16s0.83,0.44,1.52,0.55l1.92,0.27c1.69,0.25,2.93,0.72,3.74,1.4c0.8,0.68,1.2,1.69,1.2,3
		c0,1.42-0.47,2.53-1.4,3.31s-2.33,1.17-4.2,1.17H389.48z"/>
	<path class="st1" d="M407.62,91.81c-1.37,0-2.44-0.38-3.2-1.13s-1.15-1.8-1.15-3.13v-7.6h-4.03v-2.8h4.03V73h3.09v4.13h5.71v2.8
		h-5.71v7.6c0,0.98,0.48,1.47,1.44,1.47h4v2.8H407.62z"/>
</g>
<g>
	<polygon class="st11" points="97.52,33.85 94.52,57.4 125.68,64.91 133.58,42.35 	"/>
</g>
<g>
	<g>
		<path class="st5" d="M100.22,9.37c-0.19,1.49-0.38,2.99-0.57,4.48c-0.46,3.61-0.92,7.23-1.38,10.84
			c-0.56,4.44-1.13,8.87-1.69,13.31c-0.5,3.96-1.01,7.93-1.51,11.89c-0.28,2.19-0.56,4.38-0.84,6.58c-0.02,0.12-0.03,0.24-0.05,0.36
			c-0.07,0.52-0.28,0.95-0.53,1.39c-0.63,1.1-1.27,2.2-1.9,3.3c-2.14,3.71-4.27,7.41-6.41,11.12c-0.79,1.37-1.58,2.75-2.37,4.12
			c-0.17,0.29-0.34,0.59-0.51,0.89c-0.52,0.91-0.67,1.97-0.36,2.97c0.39,1.24,1.41,2.16,2.66,2.47c0.17,0.04,0.35,0.08,0.52,0.12
			c1,0.24,2,0.47,3,0.71c3.73,0.88,7.46,1.76,11.2,2.64c4.26,1,8.53,2.01,12.79,3.01c2.67,0.63,5.34,1.26,8.02,1.89
			c0.17,0.04,0.34,0.08,0.52,0.12c1.27,0.28,2.62-0.1,3.52-1.06c0.66-0.7,0.96-1.59,0.99-2.53c0.01-0.38,0.03-0.75,0.04-1.13
			c0.13-3.83,0.26-7.67,0.39-11.5c0.11-3.25,0.22-6.5,0.33-9.75c0.02-0.54,0.16-1.02,0.33-1.52c0.28-0.81,0.57-1.62,0.85-2.42
			c1.1-3.13,2.19-6.27,3.29-9.4c1.45-4.15,2.9-8.3,4.35-12.45c1.38-3.96,2.77-7.92,4.16-11.89c0.89-2.54,1.78-5.08,2.66-7.62
			c0.12-0.36,0.25-0.71,0.37-1.06c0.2-0.56-0.71-0.77-0.9-0.21c-0.49,1.4-0.98,2.8-1.47,4.2c-1.19,3.4-2.38,6.8-3.56,10.19
			c-1.47,4.19-2.93,8.38-4.4,12.57c-1.32,3.77-2.63,7.53-3.95,11.3c-0.76,2.18-1.53,4.37-2.29,6.55c-0.2,0.57-0.35,1.11-0.37,1.72
			c-0.04,1.12-0.08,2.25-0.12,3.37c-0.14,4.2-0.29,8.39-0.43,12.59c-0.06,1.7-0.11,3.4-0.17,5.1c-0.04,1.06,0.07,2.23-0.66,3.11
			c-0.68,0.83-1.74,1.17-2.79,0.93c-0.2-0.05-0.4-0.09-0.6-0.14c-1.04-0.25-2.09-0.49-3.13-0.74c-3.75-0.88-7.5-1.77-11.25-2.65
			c-4.21-0.99-8.42-1.98-12.63-2.98c-2.64-0.62-5.27-1.24-7.91-1.86c-0.17-0.04-0.33-0.08-0.5-0.12c-1.22-0.3-2.09-1.36-2.12-2.63
			c-0.02-1.03,0.71-1.99,1.21-2.85c1.95-3.38,3.9-6.77,5.86-10.16c1.55-2.69,3.1-5.37,4.65-8.06c0.36-0.62,0.5-1.26,0.59-1.95
			c0.11-0.86,0.22-1.71,0.33-2.57c0.42-3.3,0.84-6.61,1.26-9.91c0.55-4.33,1.1-8.67,1.65-13c0.53-4.14,1.05-8.28,1.58-12.42
			c0.34-2.65,0.67-5.3,1.01-7.95c0.05-0.37,0.09-0.73,0.14-1.1C101.2,9,100.3,8.78,100.22,9.37L100.22,9.37z"/>
	</g>
</g>
<g>
	<g>
		<path class="st6" d="M94.48,57.87c1.03,0.24,2.06,0.49,3.1,0.73c2.48,0.58,4.95,1.17,7.43,1.75c3,0.71,5.99,1.41,8.99,2.12
			c2.58,0.61,5.16,1.22,7.74,1.82c1.25,0.3,2.51,0.64,3.77,0.89c0.02,0,0.04,0.01,0.06,0.01c0.39,0.09,0.53-0.51,0.14-0.6
			c-1.03-0.24-2.06-0.49-3.1-0.73c-2.48-0.58-4.95-1.17-7.43-1.75c-3-0.71-5.99-1.41-8.99-2.12c-2.58-0.61-5.16-1.22-7.74-1.82
			c-1.25-0.3-2.51-0.64-3.77-0.89c-0.02,0-0.04-0.01-0.06-0.01C94.24,57.18,94.1,57.78,94.48,57.87L94.48,57.87z"/>
	</g>
</g>
<g>
	<g>
		<path class="st6" d="M109.81,71.24c-0.29,1.18-1.29,2.1-2.51,2.23c-1.21,0.13-2.4-0.51-2.94-1.61c-0.54-1.09-0.33-2.44,0.52-3.32
			c0.85-0.88,2.21-1.14,3.32-0.62C109.45,68.51,110.11,69.9,109.81,71.24c-0.09,0.39,0.51,0.53,0.6,0.14
			c0.32-1.44-0.26-2.93-1.49-3.75c-1.22-0.82-2.9-0.77-4.07,0.12c-1.18,0.9-1.7,2.46-1.25,3.88c0.45,1.41,1.75,2.39,3.23,2.47
			c1.68,0.08,3.18-1.11,3.58-2.72C110.5,70.99,109.9,70.85,109.81,71.24z"/>
	</g>
</g>
<g>
	<g>
		<path class="st6" d="M95.22,78.55c0,0.02-0.01,0.04-0.01,0.05c-0.01,0.05,0.01-0.02,0.01-0.03c-0.02,0.02-0.03,0.06-0.04,0.08
			c-0.01,0.01-0.02,0.03-0.03,0.04c0-0.01,0.05-0.06,0.02-0.02c-0.02,0.02-0.05,0.05-0.07,0.07c-0.04,0.04,0.05-0.03,0.01-0.01
			c-0.01,0.01-0.02,0.02-0.04,0.02c-0.01,0.01-0.02,0.01-0.03,0.02c-0.03,0.02-0.06,0.01,0.01,0c-0.03,0.01-0.05,0.02-0.08,0.03
			c-0.01,0-0.02,0.01-0.03,0.01c-0.05,0.02,0.07-0.01,0,0c-0.03,0-0.06,0-0.09,0c-0.04,0-0.04-0.02,0.02,0
			c-0.01-0.01-0.03,0-0.05-0.01c-0.03,0-0.06-0.01-0.09-0.02c-0.04-0.01,0.08,0.03,0.02,0.01c-0.02-0.01-0.03-0.02-0.05-0.02
			c-0.02-0.01-0.03-0.02-0.04-0.03c-0.03-0.02,0-0.02,0.02,0.02c-0.02-0.02-0.05-0.04-0.06-0.06c-0.01-0.01-0.02-0.02-0.03-0.03
			c-0.03-0.03,0.05,0.06,0.01,0.01c-0.01-0.02-0.03-0.07-0.05-0.09c0.03,0.03,0.02,0.06,0.01,0.03c-0.01-0.02-0.01-0.03-0.02-0.05
			c0-0.01-0.01-0.02-0.01-0.03c-0.01-0.04,0.01-0.06,0,0.01c0-0.03-0.01-0.06-0.01-0.09c0-0.01,0-0.02,0-0.04c0-0.06-0.01,0.08,0,0
			c0-0.03,0.01-0.05,0.02-0.08s0.04-0.07,0,0.01c0.01-0.01,0.01-0.02,0.02-0.03c0.01-0.03,0.03-0.05,0.04-0.08
			c0.03-0.06-0.05,0.05,0,0.01c0.01-0.01,0.02-0.03,0.03-0.04c0.01-0.01,0.02-0.02,0.03-0.03c0.03-0.03,0.03,0-0.02,0.01
			c0.02-0.01,0.05-0.04,0.07-0.05c0.01-0.01,0.06-0.03,0.01-0.01c-0.05,0.02,0,0,0.01,0c0.03-0.01,0.08-0.01,0.1-0.03
			c-0.01,0-0.08,0.01-0.03,0c0.02,0,0.04,0,0.05-0.01c0.02,0,0.1,0,0.05,0c-0.06-0.01,0,0,0.01,0c0.01,0,0.03,0.01,0.05,0.01
			c0.01,0,0.03,0.01,0.05,0.01c0.06,0.02-0.06-0.03-0.01,0c0.03,0.02,0.06,0.03,0.09,0.05c0.05,0.03-0.04-0.04-0.02-0.01
			c0.01,0.02,0.03,0.03,0.05,0.04c0.01,0.01,0.02,0.02,0.02,0.03s0.02,0.02,0.02,0.03c-0.03-0.04-0.04-0.05-0.02-0.02
			c0.01,0.02,0.03,0.05,0.05,0.07c0.03,0.05-0.02-0.07,0-0.01c0.01,0.02,0.01,0.03,0.02,0.05c0.01,0.02,0.01,0.03,0.01,0.05
			c0.02,0.05-0.01-0.07,0-0.01c0,0.04,0,0.07,0.01,0.11c0,0.03-0.02,0.02,0-0.03C95.22,78.5,95.22,78.53,95.22,78.55
			c-0.03,0.16,0.06,0.34,0.23,0.37c0.16,0.03,0.33-0.06,0.37-0.23c0.09-0.41-0.08-0.81-0.42-1.04c-0.32-0.21-0.78-0.2-1.09,0.03
			c-0.33,0.25-0.49,0.68-0.36,1.08c0.13,0.4,0.49,0.66,0.9,0.68c0.46,0.02,0.86-0.32,0.97-0.75c0.04-0.16-0.07-0.34-0.23-0.37
			C95.42,78.29,95.26,78.39,95.22,78.55z"/>
	</g>
</g>
<g>
	<g>
		<path class="st6" d="M104.98,80.85c0,0.02-0.01,0.04-0.01,0.05c-0.01,0.05,0.01-0.02,0.01-0.03c-0.02,0.02-0.03,0.06-0.04,0.08
			c-0.01,0.01-0.02,0.03-0.03,0.04c0-0.01,0.05-0.06,0.02-0.02c-0.02,0.02-0.05,0.05-0.07,0.07c-0.04,0.04,0.05-0.03,0.01-0.01
			c-0.01,0.01-0.02,0.02-0.04,0.02c-0.01,0.01-0.02,0.01-0.03,0.02c-0.03,0.02-0.06,0.01,0.01,0c-0.03,0.01-0.05,0.02-0.08,0.03
			c-0.01,0-0.02,0.01-0.03,0.01c-0.05,0.02,0.07-0.01,0,0c-0.03,0-0.06,0-0.09,0c-0.04,0-0.04-0.02,0.02,0
			c-0.01-0.01-0.03,0-0.05-0.01c-0.03,0-0.06-0.01-0.09-0.02c-0.04-0.01,0.08,0.03,0.02,0.01c-0.02-0.01-0.03-0.02-0.05-0.02
			c-0.02-0.01-0.03-0.02-0.04-0.03c-0.03-0.02,0-0.02,0.02,0.02c-0.02-0.02-0.05-0.04-0.06-0.06c-0.01-0.01-0.02-0.02-0.03-0.03
			c-0.03-0.03,0.05,0.06,0.01,0.01c-0.01-0.02-0.03-0.07-0.05-0.09c0.03,0.03,0.02,0.06,0.01,0.03c-0.01-0.02-0.01-0.03-0.02-0.05
			c0-0.01-0.01-0.02-0.01-0.03c-0.01-0.04,0.01-0.06,0,0.01c0-0.03-0.01-0.06-0.01-0.09c0-0.01,0-0.02,0-0.04c0-0.06-0.01,0.08,0,0
			c0-0.03,0.01-0.05,0.02-0.08c0.01-0.03,0.04-0.07,0,0.01c0.01-0.01,0.01-0.02,0.02-0.03c0.01-0.03,0.03-0.05,0.04-0.08
			c0.03-0.06-0.05,0.05,0,0.01c0.01-0.01,0.02-0.03,0.03-0.04c0.01-0.01,0.02-0.02,0.03-0.03c0.03-0.03,0.03,0-0.02,0.01
			c0.02-0.01,0.05-0.04,0.07-0.05c0.01-0.01,0.06-0.03,0.01-0.01c-0.05,0.02,0,0,0.01,0c0.03-0.01,0.08-0.01,0.1-0.03
			c-0.01,0-0.08,0.01-0.03,0c0.02,0,0.04,0,0.05-0.01c0.02,0,0.1,0,0.05,0c-0.06-0.01,0,0,0.01,0c0.01,0,0.03,0.01,0.05,0.01
			c0.01,0,0.03,0.01,0.05,0.01c0.06,0.02-0.06-0.03-0.01,0c0.03,0.02,0.06,0.03,0.09,0.05c0.05,0.03-0.04-0.04-0.02-0.01
			c0.01,0.02,0.03,0.03,0.05,0.04c0.01,0.01,0.02,0.02,0.02,0.03c0.01,0.01,0.02,0.02,0.02,0.03c-0.03-0.04-0.04-0.05-0.02-0.02
			c0.01,0.02,0.03,0.05,0.05,0.07c0.03,0.05-0.02-0.07,0-0.01c0.01,0.02,0.01,0.03,0.02,0.05s0.01,0.03,0.01,0.05
			c0.02,0.05-0.01-0.07,0-0.01c0,0.04,0,0.07,0.01,0.11c0,0.03-0.02,0.02,0-0.03C104.98,80.8,104.98,80.83,104.98,80.85
			c-0.03,0.16,0.06,0.34,0.23,0.37c0.16,0.03,0.33-0.06,0.37-0.23c0.09-0.41-0.08-0.81-0.42-1.04c-0.32-0.21-0.78-0.2-1.09,0.03
			c-0.33,0.25-0.49,0.68-0.36,1.08c0.13,0.4,0.49,0.66,0.9,0.68c0.46,0.02,0.86-0.32,0.97-0.75c0.04-0.16-0.07-0.34-0.23-0.37
			C105.18,80.59,105.02,80.69,104.98,80.85z"/>
	</g>
</g>
<g>
	<g>
		<path class="st6" d="M115.3,83.29c0,0.02-0.01,0.04-0.01,0.05c-0.01,0.05,0.01-0.02,0.01-0.03c-0.02,0.02-0.03,0.06-0.04,0.08
			c-0.01,0.01-0.02,0.03-0.03,0.04c0-0.01,0.05-0.06,0.02-0.02c-0.02,0.02-0.05,0.05-0.07,0.07c-0.04,0.04,0.05-0.03,0.01-0.01
			c-0.01,0.01-0.02,0.02-0.04,0.02c-0.01,0.01-0.02,0.01-0.03,0.02c-0.03,0.02-0.06,0.01,0.01,0c-0.03,0.01-0.05,0.02-0.08,0.03
			c-0.01,0-0.02,0.01-0.03,0.01c-0.05,0.02,0.07-0.01,0,0c-0.03,0-0.06,0-0.09,0c-0.04,0-0.04-0.02,0.02,0
			c-0.01-0.01-0.03,0-0.05-0.01c-0.03,0-0.06-0.01-0.09-0.02c-0.04-0.01,0.08,0.03,0.02,0.01c-0.02-0.01-0.03-0.02-0.05-0.02
			c-0.02-0.01-0.03-0.02-0.04-0.03c-0.03-0.02,0-0.02,0.02,0.02c-0.02-0.02-0.05-0.04-0.06-0.06c-0.01-0.01-0.02-0.02-0.03-0.03
			c-0.03-0.03,0.05,0.06,0.01,0.01c-0.01-0.02-0.03-0.07-0.05-0.09c0.03,0.03,0.02,0.06,0.01,0.03c-0.01-0.02-0.01-0.03-0.02-0.05
			c0-0.01-0.01-0.02-0.01-0.03c-0.01-0.04,0.01-0.06,0,0.01c0-0.03-0.01-0.06-0.01-0.09c0-0.01,0-0.02,0-0.04c0-0.06-0.01,0.08,0,0
			c0-0.03,0.01-0.05,0.02-0.08s0.04-0.07,0,0.01c0.01-0.01,0.01-0.02,0.02-0.03c0.01-0.03,0.03-0.05,0.04-0.08
			c0.03-0.06-0.05,0.05,0,0.01c0.01-0.01,0.02-0.03,0.03-0.04c0.01-0.01,0.02-0.02,0.03-0.03c0.03-0.03,0.03,0-0.02,0.01
			c0.02-0.01,0.05-0.04,0.07-0.05c0.01-0.01,0.06-0.03,0.01-0.01c-0.05,0.02,0,0,0.01,0c0.03-0.01,0.08-0.01,0.1-0.03
			c-0.01,0-0.08,0.01-0.03,0c0.02,0,0.04,0,0.05-0.01c0.02,0,0.1,0,0.05,0c-0.06-0.01,0,0,0.01,0c0.01,0,0.03,0.01,0.05,0.01
			c0.01,0,0.03,0.01,0.05,0.01c0.06,0.02-0.06-0.03-0.01,0c0.03,0.02,0.06,0.03,0.09,0.05c0.05,0.03-0.04-0.04-0.02-0.01
			c0.01,0.02,0.03,0.03,0.05,0.04c0.01,0.01,0.02,0.02,0.02,0.03c0.01,0.01,0.02,0.02,0.02,0.03c-0.03-0.04-0.04-0.05-0.02-0.02
			c0.01,0.02,0.03,0.05,0.05,0.07c0.03,0.05-0.02-0.07,0-0.01c0.01,0.02,0.01,0.03,0.02,0.05c0.01,0.02,0.01,0.03,0.01,0.05
			c0.02,0.05-0.01-0.07,0-0.01c0,0.04,0,0.07,0.01,0.11c0,0.03-0.02,0.02,0-0.03C115.3,83.24,115.3,83.26,115.3,83.29
			c-0.03,0.16,0.06,0.34,0.23,0.37c0.16,0.03,0.33-0.06,0.37-0.23c0.09-0.41-0.08-0.81-0.42-1.04c-0.32-0.21-0.78-0.2-1.09,0.03
			c-0.33,0.25-0.49,0.68-0.36,1.08c0.13,0.4,0.49,0.66,0.9,0.68c0.46,0.02,0.86-0.32,0.97-0.75c0.04-0.16-0.07-0.34-0.23-0.37
			C115.5,83.03,115.34,83.12,115.3,83.29z"/>
	</g>
</g>
<g>
	<g>
		<path class="st6" d="M110,82.04c0,0.02-0.01,0.04-0.01,0.05c-0.01,0.05,0.01-0.02,0.01-0.03c-0.02,0.02-0.03,0.06-0.04,0.08
			c-0.01,0.01-0.02,0.03-0.03,0.04c0-0.01,0.05-0.06,0.02-0.02c-0.02,0.02-0.05,0.05-0.07,0.07c-0.04,0.04,0.05-0.03,0.01-0.01
			c-0.01,0.01-0.02,0.02-0.04,0.02c-0.01,0.01-0.02,0.01-0.03,0.02c-0.03,0.02-0.06,0.01,0.01,0c-0.03,0.01-0.05,0.02-0.08,0.03
			c-0.01,0-0.02,0.01-0.03,0.01c-0.05,0.02,0.07-0.01,0,0c-0.03,0-0.06,0-0.09,0c-0.04,0-0.04-0.02,0.02,0
			c-0.01-0.01-0.03,0-0.05-0.01c-0.03,0-0.06-0.01-0.09-0.02c-0.04-0.01,0.08,0.03,0.02,0.01c-0.02-0.01-0.03-0.02-0.05-0.02
			c-0.02-0.01-0.03-0.02-0.04-0.03c-0.03-0.02,0-0.02,0.02,0.02c-0.02-0.02-0.05-0.04-0.06-0.06c-0.01-0.01-0.02-0.02-0.03-0.03
			c-0.03-0.03,0.05,0.06,0.01,0.01c-0.01-0.02-0.03-0.07-0.05-0.09c0.03,0.03,0.02,0.06,0.01,0.03c-0.01-0.02-0.01-0.03-0.02-0.05
			c0-0.01-0.01-0.02-0.01-0.03c-0.01-0.04,0.01-0.06,0,0.01c0-0.03-0.01-0.06-0.01-0.09c0-0.01,0-0.02,0-0.04c0-0.06-0.01,0.08,0,0
			c0-0.03,0.01-0.05,0.02-0.08s0.04-0.07,0,0.01c0.01-0.01,0.01-0.02,0.02-0.03c0.01-0.03,0.03-0.05,0.04-0.08
			c0.03-0.06-0.05,0.05,0,0.01c0.01-0.01,0.02-0.03,0.03-0.04c0.01-0.01,0.02-0.02,0.03-0.03c0.03-0.03,0.03,0-0.02,0.01
			c0.02-0.01,0.05-0.04,0.07-0.05c0.01-0.01,0.06-0.03,0.01-0.01c-0.05,0.02,0,0,0.01,0c0.03-0.01,0.08-0.01,0.1-0.03
			c-0.01,0-0.08,0.01-0.03,0c0.02,0,0.04,0,0.05-0.01c0.02,0,0.1,0,0.05,0c-0.06-0.01,0,0,0.01,0c0.01,0,0.03,0.01,0.05,0.01
			c0.01,0,0.03,0.01,0.05,0.01c0.06,0.02-0.06-0.03-0.01,0c0.03,0.02,0.06,0.03,0.09,0.05c0.05,0.03-0.04-0.04-0.02-0.01
			c0.01,0.02,0.03,0.03,0.05,0.04c0.01,0.01,0.02,0.02,0.02,0.03c0.01,0.01,0.02,0.02,0.02,0.03c-0.03-0.04-0.04-0.05-0.02-0.02
			c0.01,0.02,0.03,0.05,0.05,0.07c0.03,0.05-0.02-0.07,0-0.01c0.01,0.02,0.01,0.03,0.02,0.05C110,81.87,110,81.88,110,81.9
			c0.02,0.05-0.01-0.07,0-0.01c0,0.04,0,0.07,0.01,0.11c0,0.03-0.02,0.02,0-0.03C110,81.99,110,82.01,110,82.04
			c-0.03,0.16,0.06,0.34,0.23,0.37c0.16,0.03,0.33-0.06,0.37-0.23c0.09-0.41-0.08-0.81-0.42-1.04c-0.32-0.21-0.78-0.2-1.09,0.03
			c-0.33,0.25-0.49,0.68-0.36,1.08c0.13,0.4,0.49,0.66,0.9,0.68c0.46,0.02,0.86-0.32,0.97-0.75c0.04-0.16-0.07-0.34-0.23-0.37
			C110.2,81.78,110.04,81.87,110,82.04z"/>
	</g>
</g>
<g>
	<g>
		<path class="st6" d="M99.96,79.67c0,0.02-0.01,0.04-0.01,0.05c-0.01,0.05,0.01-0.02,0.01-0.03c-0.02,0.02-0.03,0.06-0.04,0.08
			c-0.01,0.01-0.02,0.03-0.03,0.04c0-0.01,0.05-0.06,0.02-0.02c-0.02,0.02-0.05,0.05-0.07,0.07c-0.04,0.04,0.05-0.03,0.01-0.01
			c-0.01,0.01-0.02,0.02-0.04,0.02c-0.01,0.01-0.02,0.01-0.03,0.02c-0.03,0.02-0.06,0.01,0.01,0c-0.03,0.01-0.05,0.02-0.08,0.03
			c-0.01,0-0.02,0.01-0.03,0.01c-0.05,0.02,0.07-0.01,0,0c-0.03,0-0.06,0-0.09,0c-0.04,0-0.04-0.02,0.02,0
			c-0.01-0.01-0.03,0-0.05-0.01c-0.03,0-0.06-0.01-0.09-0.02c-0.04-0.01,0.08,0.03,0.02,0.01c-0.02-0.01-0.03-0.02-0.05-0.02
			c-0.02-0.01-0.03-0.02-0.04-0.03c-0.03-0.02,0-0.02,0.02,0.02c-0.02-0.02-0.05-0.04-0.06-0.06c-0.01-0.01-0.02-0.02-0.03-0.03
			c-0.03-0.03,0.05,0.06,0.01,0.01c-0.01-0.02-0.03-0.07-0.05-0.09c0.03,0.03,0.02,0.06,0.01,0.03c-0.01-0.02-0.01-0.03-0.02-0.05
			c0-0.01-0.01-0.02-0.01-0.03c-0.01-0.04,0.01-0.06,0,0.01c0-0.03-0.01-0.06-0.01-0.09c0-0.01,0-0.02,0-0.04c0-0.06-0.01,0.08,0,0
			c0-0.03,0.01-0.05,0.02-0.08c0.01-0.03,0.04-0.07,0,0.01c0.01-0.01,0.01-0.02,0.02-0.03c0.01-0.03,0.03-0.05,0.04-0.08
			c0.03-0.06-0.05,0.05,0,0.01c0.01-0.01,0.02-0.03,0.03-0.04c0.01-0.01,0.02-0.02,0.03-0.03c0.03-0.03,0.03,0-0.02,0.01
			c0.02-0.01,0.05-0.04,0.07-0.05c0.01-0.01,0.06-0.03,0.01-0.01c-0.05,0.02,0,0,0.01,0c0.03-0.01,0.08-0.01,0.1-0.03
			c-0.01,0-0.08,0.01-0.03,0c0.02,0,0.04,0,0.05-0.01c0.02,0,0.1,0,0.05,0c-0.06-0.01,0,0,0.01,0c0.01,0,0.03,0.01,0.05,0.01
			s0.03,0.01,0.05,0.01c0.06,0.02-0.06-0.03-0.01,0c0.03,0.02,0.06,0.03,0.09,0.05c0.05,0.03-0.04-0.04-0.02-0.01
			c0.01,0.02,0.03,0.03,0.05,0.04c0.01,0.01,0.02,0.02,0.02,0.03c0.01,0.01,0.02,0.02,0.02,0.03c-0.03-0.04-0.04-0.05-0.02-0.02
			c0.01,0.02,0.03,0.05,0.05,0.07c0.03,0.05-0.02-0.07,0-0.01c0.01,0.02,0.01,0.03,0.02,0.05c0.01,0.02,0.01,0.03,0.01,0.05
			c0.02,0.05-0.01-0.07,0-0.01c0,0.04,0,0.07,0.01,0.11c0,0.03-0.02,0.02,0-0.03C99.96,79.62,99.96,79.65,99.96,79.67
			c-0.03,0.16,0.06,0.34,0.23,0.37c0.16,0.03,0.33-0.06,0.37-0.23c0.09-0.41-0.08-0.81-0.42-1.04c-0.32-0.21-0.78-0.2-1.09,0.03
			c-0.33,0.25-0.49,0.68-0.36,1.08c0.13,0.4,0.49,0.66,0.9,0.68c0.46,0.02,0.86-0.32,0.97-0.75c0.04-0.16-0.07-0.34-0.23-0.37
			C100.16,79.41,100,79.5,99.96,79.67z"/>
	</g>
</g>
<g>
	<polygon class="st15" points="591.42,41.76 596.65,63.09 626.04,59.22 625.37,37.13 	"/>
</g>
<g>
	<g>
		<path class="st5" d="M585.63,19.73c0.33,1.35,0.66,2.7,0.99,4.05c0.8,3.27,1.6,6.54,2.41,9.82c0.99,4.02,1.97,8.04,2.96,12.05
			c0.88,3.59,1.76,7.18,2.64,10.77c0.49,1.98,0.97,3.97,1.46,5.95c0.03,0.11,0.05,0.22,0.08,0.32c0.11,0.47,0.07,0.91,0,1.38
			c-0.18,1.16-0.37,2.32-0.55,3.48c-0.61,3.91-1.23,7.82-1.84,11.72c-0.23,1.45-0.45,2.9-0.68,4.34c-0.05,0.31-0.1,0.62-0.15,0.93
			c-0.15,0.96,0.07,1.92,0.68,2.69c0.75,0.94,1.93,1.4,3.12,1.25c0.16-0.02,0.33-0.04,0.49-0.07c0.94-0.13,1.89-0.26,2.83-0.39
			c3.51-0.48,7.03-0.96,10.54-1.44c4.01-0.55,8.03-1.1,12.04-1.64c2.52-0.34,5.03-0.69,7.55-1.03c0.16-0.02,0.32-0.04,0.49-0.07
			c1.19-0.18,2.23-0.95,2.68-2.08c0.33-0.82,0.3-1.69,0.02-2.51c-0.11-0.33-0.23-0.66-0.34-0.99c-1.16-3.35-2.32-6.71-3.48-10.06
			c-0.98-2.84-1.97-5.68-2.95-8.53c-0.16-0.47-0.2-0.94-0.22-1.43c-0.03-0.79-0.05-1.58-0.07-2.37c-0.09-3.07-0.19-6.14-0.28-9.21
			c-0.12-4.06-0.25-8.13-0.37-12.19c-0.12-3.88-0.24-7.76-0.36-11.64c-0.08-2.49-0.15-4.97-0.23-7.46c-0.01-0.35-0.02-0.7-0.03-1.04
			c-0.02-0.55-0.86-0.43-0.85,0.12c0.04,1.37,0.08,2.74,0.13,4.11c0.1,3.33,0.2,6.65,0.31,9.98c0.13,4.1,0.25,8.21,0.38,12.31
			c0.11,3.69,0.23,7.37,0.34,11.06c0.07,2.14,0.13,4.28,0.2,6.41c0.02,0.55,0.07,1.07,0.26,1.61c0.34,0.98,0.68,1.97,1.02,2.95
			c1.27,3.67,2.54,7.34,3.81,11.01c0.51,1.49,1.03,2.97,1.54,4.46c0.32,0.93,0.8,1.9,0.46,2.9c-0.32,0.94-1.12,1.59-2.1,1.73
			c-0.19,0.03-0.38,0.05-0.57,0.08c-0.98,0.13-1.97,0.27-2.95,0.4c-3.53,0.48-7.06,0.96-10.59,1.45c-3.96,0.54-7.92,1.08-11.89,1.62
			c-2.48,0.34-4.97,0.68-7.45,1.02c-0.16,0.02-0.31,0.04-0.47,0.06c-1.15,0.14-2.26-0.48-2.7-1.57c-0.36-0.89-0.05-1.95,0.09-2.86
			c0.56-3.57,1.12-7.14,1.68-10.71c0.44-2.83,0.89-5.67,1.33-8.5c0.1-0.65,0.01-1.25-0.14-1.88c-0.19-0.78-0.38-1.55-0.57-2.33
			c-0.73-2.99-1.47-5.98-2.2-8.97c-0.96-3.92-1.92-7.85-2.89-11.77c-0.92-3.75-1.84-7.5-2.76-11.25c-0.59-2.4-1.18-4.8-1.76-7.19
			c-0.08-0.33-0.16-0.66-0.24-1C586.35,19.09,585.5,19.2,585.63,19.73L585.63,19.73z"/>
	</g>
</g>
<g>
	<g>
		<path class="st6" d="M596.77,63.5c0.97-0.13,1.94-0.27,2.91-0.4c2.33-0.32,4.66-0.64,7-0.95c2.82-0.38,5.64-0.77,8.46-1.15
			c2.43-0.33,4.86-0.66,7.29-0.99c1.18-0.16,2.38-0.28,3.55-0.48c0.02,0,0.03,0,0.05-0.01c0.36-0.05,0.29-0.61-0.08-0.56
			c-0.97,0.13-1.94,0.27-2.91,0.4c-2.33,0.32-4.66,0.64-7,0.95c-2.82,0.38-5.64,0.77-8.46,1.15c-2.43,0.33-4.86,0.66-7.29,0.99
			c-1.18,0.16-2.38,0.28-3.55,0.48c-0.02,0-0.03,0-0.05,0.01C596.33,62.99,596.41,63.55,596.77,63.5L596.77,63.5z"/>
	</g>
</g>
<g>
	<g>
		<path class="st6" d="M614.44,69.96c0.14,1.11-0.41,2.24-1.43,2.76c-1,0.51-2.24,0.35-3.07-0.41c-0.83-0.76-1.09-2-0.65-3.04
			c0.44-1.04,1.53-1.72,2.66-1.63C613.22,67.72,614.25,68.7,614.44,69.96c0.05,0.36,0.62,0.29,0.56-0.08
			c-0.2-1.35-1.2-2.44-2.53-2.75c-1.32-0.3-2.76,0.3-3.47,1.46c-0.72,1.16-0.65,2.69,0.21,3.77c0.85,1.07,2.31,1.48,3.6,1.06
			c1.48-0.49,2.37-2.01,2.19-3.53C614.96,69.51,614.39,69.59,614.44,69.96z"/>
	</g>
</g>
<g>
	<g>
		<path class="st6" d="M604.27,81.11c0,0.02,0,0.03,0,0.05c0,0.05,0-0.02,0-0.03c-0.01,0.02,0,0.06-0.01,0.08
			c0,0.01-0.01,0.03-0.01,0.05c0-0.01,0.02-0.07,0.01-0.02c-0.01,0.03-0.02,0.06-0.04,0.09c-0.02,0.05,0.03-0.04,0.01-0.01
			c-0.01,0.01-0.02,0.02-0.02,0.03c-0.01,0.01-0.01,0.02-0.02,0.03c-0.02,0.02-0.05,0.03,0.01-0.01c-0.02,0.01-0.04,0.04-0.06,0.05
			c-0.01,0.01-0.02,0.01-0.02,0.02c-0.04,0.03,0.06-0.03,0,0c-0.03,0.01-0.05,0.02-0.08,0.03c-0.03,0.01-0.04,0,0.02,0
			c-0.01,0-0.03,0.01-0.04,0.01c-0.03,0.01-0.06,0.01-0.08,0.01c-0.04,0,0.08,0,0.02,0c-0.02,0-0.03,0-0.05,0
			c-0.02,0-0.03,0-0.05-0.01c-0.03-0.01-0.01-0.02,0.02,0.01c-0.02-0.01-0.05-0.02-0.08-0.03c-0.01-0.01-0.02-0.01-0.04-0.02
			c-0.03-0.01,0.06,0.04,0.01,0.01c-0.02-0.02-0.05-0.05-0.07-0.06c0.03,0.02,0.04,0.04,0.02,0.02c-0.01-0.01-0.02-0.02-0.03-0.04
			c-0.01-0.01-0.01-0.02-0.02-0.02c-0.02-0.03-0.01-0.05,0,0.01c-0.01-0.02-0.03-0.05-0.04-0.07c0-0.01-0.01-0.02-0.01-0.03
			c-0.02-0.05,0.01,0.07,0,0c-0.01-0.02-0.01-0.05-0.01-0.08c0-0.03,0.01-0.07,0,0.01c0-0.01,0-0.02,0-0.03
			c0-0.03,0.01-0.05,0.01-0.08c0.01-0.06-0.02,0.06,0,0.01c0-0.01,0.01-0.03,0.02-0.05c0.01-0.01,0.01-0.02,0.02-0.04
			c0.02-0.03,0.03-0.02-0.01,0.02c0.02-0.01,0.03-0.05,0.05-0.06c0.01-0.01,0.04-0.04,0.01-0.01c-0.04,0.03,0,0,0.01-0.01
			c0.02-0.02,0.06-0.04,0.08-0.06c0,0.01-0.06,0.03-0.02,0.01c0.02-0.01,0.03-0.02,0.04-0.02c0.02-0.01,0.09-0.03,0.04-0.02
			c-0.05,0.01,0,0,0.01,0c0.01,0,0.03,0,0.04-0.01c0.01,0,0.03,0,0.04,0c0.06-0.01-0.06-0.01-0.01,0c0.03,0,0.07,0.01,0.1,0.01
			c0.05,0.01-0.05-0.02-0.02,0c0.02,0.01,0.04,0.01,0.05,0.02c0.01,0,0.02,0.01,0.03,0.01c0.01,0.01,0.02,0.01,0.03,0.01
			c-0.04-0.02-0.05-0.03-0.02-0.01c0.02,0.02,0.04,0.03,0.06,0.05c0.05,0.04-0.04-0.05-0.01-0.01c0.01,0.01,0.02,0.02,0.03,0.04
			c0.01,0.01,0.02,0.02,0.03,0.04c0.03,0.04-0.03-0.06,0-0.01c0.01,0.03,0.03,0.06,0.04,0.09c0.01,0.03-0.01,0.03-0.01-0.02
			C604.26,81.07,604.27,81.09,604.27,81.11c0.02,0.15,0.17,0.27,0.32,0.24c0.15-0.03,0.27-0.16,0.24-0.32
			c-0.06-0.38-0.34-0.67-0.71-0.76c-0.35-0.08-0.74,0.09-0.93,0.39c-0.2,0.32-0.2,0.74,0.05,1.05c0.24,0.3,0.64,0.4,1.01,0.29
			c0.4-0.13,0.64-0.56,0.59-0.97c-0.02-0.15-0.17-0.27-0.32-0.24C604.36,80.82,604.25,80.95,604.27,81.11z"/>
	</g>
</g>
<g>
	<g>
		<path class="st6" d="M613.46,79.86c0,0.02,0,0.03,0,0.05c0,0.05,0-0.02,0-0.03c-0.01,0.02,0,0.06-0.01,0.08
			c0,0.01-0.01,0.03-0.01,0.05c0-0.01,0.02-0.07,0.01-0.02c-0.01,0.03-0.02,0.06-0.04,0.09c-0.02,0.05,0.03-0.04,0.01-0.01
			c-0.01,0.01-0.02,0.02-0.02,0.03c-0.01,0.01-0.01,0.02-0.02,0.03c-0.02,0.02-0.05,0.03,0.01-0.01c-0.02,0.01-0.04,0.04-0.06,0.05
			c-0.01,0.01-0.02,0.01-0.02,0.02c-0.04,0.03,0.06-0.03,0,0c-0.03,0.01-0.05,0.02-0.08,0.03c-0.03,0.01-0.04,0,0.02,0
			c-0.01,0-0.03,0.01-0.04,0.01c-0.03,0.01-0.06,0.01-0.08,0.01c-0.04,0,0.08,0,0.02,0c-0.02,0-0.03,0-0.05,0s-0.03,0-0.05-0.01
			c-0.03-0.01-0.01-0.02,0.02,0.01c-0.02-0.01-0.05-0.02-0.08-0.03c-0.01-0.01-0.02-0.01-0.04-0.02c-0.03-0.01,0.06,0.04,0.01,0.01
			c-0.02-0.02-0.05-0.05-0.07-0.06c0.03,0.02,0.04,0.04,0.02,0.02c-0.01-0.01-0.02-0.02-0.03-0.04c-0.01-0.01-0.01-0.02-0.02-0.02
			c-0.02-0.03-0.01-0.05,0,0.01c-0.01-0.02-0.03-0.05-0.04-0.07c0-0.01-0.01-0.02-0.01-0.03c-0.02-0.05,0.01,0.07,0,0
			c-0.01-0.02-0.01-0.05-0.01-0.08c0-0.03,0.01-0.07,0,0.01c0-0.01,0-0.02,0-0.03c0-0.03,0.01-0.05,0.01-0.08
			c0.01-0.06-0.02,0.06,0,0.01c0-0.01,0.01-0.03,0.02-0.05c0.01-0.01,0.01-0.02,0.02-0.04c0.02-0.03,0.03-0.02-0.01,0.02
			c0.02-0.01,0.03-0.05,0.05-0.06c0.01-0.01,0.04-0.04,0.01-0.01c-0.04,0.03,0,0,0.01-0.01c0.02-0.02,0.06-0.04,0.08-0.06
			c0,0.01-0.06,0.03-0.02,0.01c0.02-0.01,0.03-0.02,0.04-0.02c0.02-0.01,0.09-0.03,0.04-0.02c-0.05,0.01,0,0,0.01,0
			c0.01,0,0.03,0,0.04-0.01c0.01,0,0.03,0,0.04,0c0.06-0.01-0.06-0.01-0.01,0c0.03,0,0.07,0.01,0.1,0.01c0.05,0.01-0.05-0.02-0.02,0
			c0.02,0.01,0.04,0.01,0.05,0.02c0.01,0,0.02,0.01,0.03,0.01c0.01,0.01,0.02,0.01,0.03,0.01c-0.04-0.02-0.05-0.03-0.02-0.01
			c0.02,0.02,0.04,0.03,0.06,0.05c0.05,0.04-0.04-0.05-0.01-0.01c0.01,0.01,0.02,0.02,0.03,0.04c0.01,0.01,0.02,0.02,0.03,0.04
			c0.03,0.04-0.03-0.06,0-0.01c0.01,0.03,0.03,0.06,0.04,0.09c0.01,0.03-0.01,0.03-0.01-0.02
			C613.44,79.81,613.45,79.84,613.46,79.86c0.02,0.15,0.17,0.27,0.32,0.24c0.15-0.03,0.27-0.16,0.24-0.32
			c-0.06-0.38-0.34-0.67-0.71-0.76c-0.35-0.08-0.74,0.09-0.93,0.39c-0.2,0.32-0.2,0.74,0.05,1.05c0.24,0.3,0.64,0.4,1.01,0.29
			c0.4-0.13,0.64-0.56,0.59-0.97c-0.02-0.15-0.17-0.27-0.32-0.24C613.55,79.57,613.44,79.7,613.46,79.86z"/>
	</g>
</g>
<g>
	<g>
		<path class="st6" d="M623.17,78.53c0,0.02,0,0.03,0,0.05c0,0.05,0-0.02,0-0.03c-0.01,0.02,0,0.06-0.01,0.08
			c0,0.01-0.01,0.03-0.01,0.05c0-0.01,0.02-0.07,0.01-0.02c-0.01,0.03-0.02,0.06-0.04,0.09c-0.02,0.05,0.03-0.04,0.01-0.01
			c-0.01,0.01-0.02,0.02-0.02,0.03c-0.01,0.01-0.01,0.02-0.02,0.03c-0.02,0.02-0.05,0.03,0.01-0.01c-0.02,0.01-0.04,0.04-0.06,0.05
			c-0.01,0.01-0.02,0.01-0.02,0.02c-0.04,0.03,0.06-0.03,0,0c-0.03,0.01-0.05,0.02-0.08,0.03c-0.03,0.01-0.04,0,0.02,0
			c-0.01,0-0.03,0.01-0.04,0.01c-0.03,0.01-0.06,0.01-0.08,0.01c-0.04,0,0.08,0,0.02,0c-0.02,0-0.03,0-0.05,0s-0.03,0-0.05-0.01
			c-0.03-0.01-0.01-0.02,0.02,0.01c-0.02-0.01-0.05-0.02-0.08-0.03c-0.01-0.01-0.02-0.01-0.04-0.02c-0.03-0.01,0.06,0.04,0.01,0.01
			c-0.02-0.02-0.05-0.05-0.07-0.06c0.03,0.02,0.04,0.04,0.02,0.02c-0.01-0.01-0.02-0.02-0.03-0.04c-0.01-0.01-0.01-0.02-0.02-0.02
			c-0.02-0.03-0.01-0.05,0,0.01c-0.01-0.02-0.03-0.05-0.04-0.07c0-0.01-0.01-0.02-0.01-0.03c-0.02-0.05,0.01,0.07,0,0
			c-0.01-0.02-0.01-0.05-0.01-0.08c0-0.03,0.01-0.07,0,0.01c0-0.01,0-0.02,0-0.03c0-0.03,0.01-0.05,0.01-0.08
			c0.01-0.06-0.02,0.06,0,0.01c0-0.01,0.01-0.03,0.02-0.05c0.01-0.01,0.01-0.02,0.02-0.04c0.02-0.03,0.03-0.02-0.01,0.02
			c0.02-0.01,0.03-0.05,0.05-0.06c0.01-0.01,0.04-0.04,0.01-0.01c-0.04,0.03,0,0,0.01-0.01c0.02-0.02,0.06-0.04,0.08-0.06
			c0,0.01-0.06,0.03-0.02,0.01c0.02-0.01,0.03-0.02,0.04-0.02c0.02-0.01,0.09-0.03,0.04-0.02c-0.05,0.01,0,0,0.01,0
			c0.01,0,0.03,0,0.04-0.01c0.01,0,0.03,0,0.04,0c0.06-0.01-0.06-0.01-0.01,0c0.03,0,0.07,0.01,0.1,0.01c0.05,0.01-0.05-0.02-0.02,0
			c0.02,0.01,0.04,0.01,0.05,0.02c0.01,0,0.02,0.01,0.03,0.01c0.01,0.01,0.02,0.01,0.03,0.01c-0.04-0.02-0.05-0.03-0.02-0.01
			c0.02,0.02,0.04,0.03,0.06,0.05c0.05,0.04-0.04-0.05-0.01-0.01c0.01,0.01,0.02,0.02,0.03,0.04c0.01,0.01,0.02,0.02,0.03,0.04
			c0.03,0.04-0.03-0.06,0-0.01c0.01,0.03,0.03,0.06,0.04,0.09c0.01,0.03-0.01,0.03-0.01-0.02
			C623.16,78.49,623.17,78.51,623.17,78.53c0.02,0.15,0.17,0.27,0.32,0.24c0.15-0.03,0.27-0.16,0.24-0.32
			c-0.06-0.38-0.34-0.67-0.71-0.76c-0.35-0.08-0.74,0.09-0.93,0.39c-0.2,0.32-0.2,0.74,0.05,1.05c0.24,0.3,0.64,0.4,1.01,0.29
			c0.4-0.13,0.64-0.56,0.59-0.97c-0.02-0.15-0.17-0.27-0.32-0.24C623.27,78.24,623.16,78.37,623.17,78.53z"/>
	</g>
</g>
<g>
	<g>
		<path class="st6" d="M618.18,79.21c0,0.02,0,0.03,0,0.05c0,0.05,0-0.02,0-0.03c-0.01,0.02,0,0.06-0.01,0.08
			c0,0.01-0.01,0.03-0.01,0.05c0-0.01,0.02-0.07,0.01-0.02c-0.01,0.03-0.02,0.06-0.04,0.09c-0.02,0.05,0.03-0.04,0.01-0.01
			c-0.01,0.01-0.02,0.02-0.02,0.03c-0.01,0.01-0.01,0.02-0.02,0.03c-0.02,0.02-0.05,0.03,0.01-0.01c-0.02,0.01-0.04,0.04-0.06,0.05
			c-0.01,0.01-0.02,0.01-0.02,0.02c-0.04,0.03,0.06-0.03,0,0c-0.03,0.01-0.05,0.02-0.08,0.03c-0.03,0.01-0.04,0,0.02,0
			c-0.01,0-0.03,0.01-0.04,0.01c-0.03,0.01-0.06,0.01-0.08,0.01c-0.04,0,0.08,0,0.02,0c-0.02,0-0.03,0-0.05,0s-0.03,0-0.05-0.01
			c-0.03-0.01-0.01-0.02,0.02,0.01c-0.02-0.01-0.05-0.02-0.08-0.03c-0.01-0.01-0.02-0.01-0.04-0.02c-0.03-0.01,0.06,0.04,0.01,0.01
			c-0.02-0.02-0.05-0.05-0.07-0.06c0.03,0.02,0.04,0.04,0.02,0.02c-0.01-0.01-0.02-0.02-0.03-0.04c-0.01-0.01-0.01-0.02-0.02-0.02
			c-0.02-0.03-0.01-0.05,0,0.01c-0.01-0.02-0.03-0.05-0.04-0.07c0-0.01-0.01-0.02-0.01-0.03c-0.02-0.05,0.01,0.07,0,0
			c-0.01-0.02-0.01-0.05-0.01-0.08c0-0.03,0.01-0.07,0,0.01c0-0.01,0-0.02,0-0.03c0-0.03,0.01-0.05,0.01-0.08
			c0.01-0.06-0.02,0.06,0,0.01c0-0.01,0.01-0.03,0.02-0.05c0.01-0.01,0.01-0.02,0.02-0.04c0.02-0.03,0.03-0.02-0.01,0.02
			c0.02-0.01,0.03-0.05,0.05-0.06c0.01-0.01,0.04-0.04,0.01-0.01c-0.04,0.03,0,0,0.01-0.01c0.02-0.02,0.06-0.04,0.08-0.06
			c0,0.01-0.06,0.03-0.02,0.01c0.02-0.01,0.03-0.02,0.04-0.02c0.02-0.01,0.09-0.03,0.04-0.02c-0.05,0.01,0,0,0.01,0
			c0.01,0,0.03,0,0.04-0.01c0.01,0,0.03,0,0.04,0c0.06-0.01-0.06-0.01-0.01,0c0.03,0,0.07,0.01,0.1,0.01c0.05,0.01-0.05-0.02-0.02,0
			c0.02,0.01,0.04,0.01,0.05,0.02c0.01,0,0.02,0.01,0.03,0.01c0.01,0.01,0.02,0.01,0.03,0.01c-0.04-0.02-0.05-0.03-0.02-0.01
			c0.02,0.02,0.04,0.03,0.06,0.05c0.05,0.04-0.04-0.05-0.01-0.01c0.01,0.01,0.02,0.02,0.03,0.04c0.01,0.01,0.02,0.02,0.03,0.04
			c0.03,0.04-0.03-0.06,0-0.01c0.01,0.03,0.03,0.06,0.04,0.09c0.01,0.03-0.01,0.03-0.01-0.02
			C618.17,79.17,618.18,79.19,618.18,79.21c0.02,0.15,0.17,0.27,0.32,0.24c0.15-0.03,0.27-0.16,0.24-0.32
			c-0.06-0.38-0.34-0.67-0.71-0.76c-0.35-0.08-0.74,0.09-0.93,0.39c-0.2,0.32-0.2,0.74,0.05,1.05c0.24,0.3,0.64,0.4,1.01,0.29
			c0.4-0.13,0.64-0.56,0.59-0.97c-0.02-0.15-0.17-0.27-0.32-0.24C618.27,78.92,618.16,79.06,618.18,79.21z"/>
	</g>
</g>
<g>
	<g>
		<path class="st6" d="M608.73,80.5c0,0.02,0,0.03,0,0.05c0,0.05,0-0.02,0-0.03c-0.01,0.02,0,0.06-0.01,0.08
			c0,0.01-0.01,0.03-0.01,0.05c0-0.01,0.02-0.07,0.01-0.02c-0.01,0.03-0.02,0.06-0.04,0.09c-0.02,0.05,0.03-0.04,0.01-0.01
			c-0.01,0.01-0.02,0.02-0.02,0.03c-0.01,0.01-0.01,0.02-0.02,0.03c-0.02,0.02-0.05,0.03,0.01-0.01c-0.02,0.01-0.04,0.04-0.06,0.05
			c-0.01,0.01-0.02,0.01-0.02,0.02c-0.04,0.03,0.06-0.03,0,0c-0.03,0.01-0.05,0.02-0.08,0.03c-0.03,0.01-0.04,0,0.02,0
			c-0.01,0-0.03,0.01-0.04,0.01c-0.03,0.01-0.06,0.01-0.08,0.01c-0.04,0,0.08,0,0.02,0c-0.02,0-0.03,0-0.05,0s-0.03,0-0.05-0.01
			c-0.03-0.01-0.01-0.02,0.02,0.01c-0.02-0.01-0.05-0.02-0.08-0.03c-0.01-0.01-0.02-0.01-0.04-0.02c-0.03-0.01,0.06,0.04,0.01,0.01
			c-0.02-0.02-0.05-0.05-0.07-0.06c0.03,0.02,0.04,0.04,0.02,0.02c-0.01-0.01-0.02-0.02-0.03-0.04c-0.01-0.01-0.01-0.02-0.02-0.02
			c-0.02-0.03-0.01-0.05,0,0.01c-0.01-0.02-0.03-0.05-0.04-0.07c0-0.01-0.01-0.02-0.01-0.03c-0.02-0.05,0.01,0.07,0,0
			c-0.01-0.02-0.01-0.05-0.01-0.08c0-0.03,0.01-0.07,0,0.01c0-0.01,0-0.02,0-0.03c0-0.03,0.01-0.05,0.01-0.08
			c0.01-0.06-0.02,0.06,0,0.01c0-0.01,0.01-0.03,0.02-0.05c0.01-0.01,0.01-0.02,0.02-0.04c0.02-0.03,0.03-0.02-0.01,0.02
			c0.02-0.01,0.03-0.05,0.05-0.06c0.01-0.01,0.04-0.04,0.01-0.01c-0.04,0.03,0,0,0.01-0.01c0.02-0.02,0.06-0.04,0.08-0.06
			c0,0.01-0.06,0.03-0.02,0.01c0.02-0.01,0.03-0.02,0.04-0.02c0.02-0.01,0.09-0.03,0.04-0.02c-0.05,0.01,0,0,0.01,0
			c0.01,0,0.03,0,0.04-0.01c0.01,0,0.03,0,0.04,0c0.06-0.01-0.06-0.01-0.01,0c0.03,0,0.07,0.01,0.1,0.01c0.05,0.01-0.05-0.02-0.02,0
			c0.02,0.01,0.04,0.01,0.05,0.02c0.01,0,0.02,0.01,0.03,0.01c0.01,0.01,0.02,0.01,0.03,0.01c-0.04-0.02-0.05-0.03-0.02-0.01
			c0.02,0.02,0.04,0.03,0.06,0.05c0.05,0.04-0.04-0.05-0.01-0.01c0.01,0.01,0.02,0.02,0.03,0.04c0.01,0.01,0.02,0.02,0.03,0.04
			c0.03,0.04-0.03-0.06,0-0.01c0.01,0.03,0.03,0.06,0.04,0.09c0.01,0.03-0.01,0.03-0.01-0.02C608.72,80.46,608.73,80.48,608.73,80.5
			c0.02,0.15,0.17,0.27,0.32,0.24c0.15-0.03,0.27-0.16,0.24-0.32c-0.06-0.38-0.34-0.67-0.71-0.76c-0.35-0.08-0.74,0.09-0.93,0.39
			c-0.2,0.32-0.2,0.74,0.05,1.05c0.24,0.3,0.64,0.4,1.01,0.29c0.4-0.13,0.64-0.56,0.59-0.97c-0.02-0.15-0.17-0.27-0.32-0.24
			C608.82,80.21,608.71,80.35,608.73,80.5z"/>
	</g>
</g>
<g>
	<path class="st2" d="M191.56,24.61h-3.87c-2.06,0-3.73-1.67-3.73-3.73V17c0-2.06,1.67-3.73,3.73-3.73h3.87
		c2.06,0,3.73,1.67,3.73,3.73v3.87C195.3,22.94,193.63,24.61,191.56,24.61z"/>
	<g>
		<path class="st3" d="M187.76,22.18v-0.98h1.31v-4.54h-1.31v-0.98h3.73v0.98h-1.31v4.54h1.31v0.98H187.76z"/>
	</g>
</g>
<g>
	<path class="st1" d="M186.57,87.42h-3.87c-2.06,0-3.73-1.67-3.73-3.73v-3.87c0-2.06,1.67-3.73,3.73-3.73h3.87
		c2.06,0,3.73,1.67,3.73,3.73v3.87C190.31,85.74,188.63,87.42,186.57,87.42z"/>
	<g>
		<path class="st3" d="M183.57,83.04l-0.02-1.78h0.7c0.3,0,0.53-0.08,0.71-0.24c0.18-0.16,0.27-0.37,0.27-0.63
			c0-0.27-0.09-0.48-0.27-0.64c-0.18-0.16-0.42-0.24-0.72-0.24h-1.32v-1.04h1.27c0.44,0,0.82,0.08,1.14,0.24s0.57,0.38,0.75,0.66
			c0.18,0.28,0.27,0.62,0.27,1.01c0,0.36-0.08,0.68-0.23,0.95c-0.15,0.27-0.36,0.49-0.63,0.65c-0.27,0.16-0.58,0.24-0.93,0.25v0.8
			H183.57z M183.94,85.02c-0.18,0-0.33-0.05-0.44-0.16c-0.11-0.11-0.17-0.25-0.17-0.42c0-0.17,0.06-0.31,0.17-0.42
			c0.11-0.11,0.26-0.16,0.44-0.16h0.27c0.18,0,0.33,0.05,0.44,0.16s0.16,0.25,0.16,0.43c0,0.17-0.06,0.31-0.17,0.42
			c-0.11,0.11-0.26,0.16-0.44,0.16H183.94z"/>
	</g>
</g>
<g>
	<path class="st9" d="M205.5,49.38h-3.87c-2.06,0-3.73-1.67-3.73-3.73v-3.87c0-2.06,1.67-3.73,3.73-3.73h3.87
		c2.06,0,3.73,1.67,3.73,3.73v3.87C209.23,47.71,207.56,49.38,205.5,49.38z"/>
	<g>
		<path class="st3" d="M201.52,46.96v-6.49h2.05c0.43,0,0.81,0.08,1.12,0.24c0.32,0.16,0.56,0.38,0.74,0.67
			c0.18,0.29,0.27,0.63,0.27,1.02c0,0.43-0.11,0.8-0.32,1.13c-0.22,0.32-0.51,0.56-0.88,0.69l1.29,2.74h-1.24l-1.13-2.58h-0.79v2.58
			H201.52z M202.63,43.4h0.94c0.32,0,0.56-0.08,0.74-0.26c0.18-0.17,0.27-0.41,0.27-0.71c0-0.31-0.09-0.55-0.27-0.72
			c-0.18-0.17-0.42-0.26-0.74-0.26h-0.94V43.4z"/>
	</g>
</g>
<g>
	<path class="st8" d="M189.69,70.3h-3.87c-2.06,0-3.73-1.67-3.73-3.73V62.7c0-2.06,1.67-3.73,3.73-3.73h3.87
		c2.06,0,3.73,1.67,3.73,3.73v3.87C193.43,68.63,191.76,70.3,189.69,70.3z"/>
	<g>
		<path class="st3" d="M186.15,67.88v-6.49h1.93c0.44,0,0.82,0.08,1.14,0.25c0.32,0.16,0.57,0.4,0.75,0.7
			c0.18,0.3,0.27,0.66,0.27,1.08v2.43c0,0.41-0.09,0.76-0.27,1.07c-0.18,0.31-0.43,0.54-0.75,0.71c-0.32,0.17-0.7,0.25-1.14,0.25
			H186.15z M187.27,66.86h0.82c0.32,0,0.57-0.09,0.76-0.27c0.19-0.18,0.28-0.43,0.28-0.74v-2.43c0-0.31-0.09-0.55-0.28-0.73
			s-0.44-0.27-0.76-0.27h-0.82V66.86z"/>
	</g>
</g>
<g>
	<path class="st9" d="M186.74,38.17h-3.87c-2.06,0-3.73-1.67-3.73-3.73v-3.87c0-2.06,1.67-3.73,3.73-3.73h3.87
		c2.06,0,3.73,1.67,3.73,3.73v3.87C190.48,36.5,188.8,38.17,186.74,38.17z"/>
	<g>
		<path class="st3" d="M182.76,35.75v-6.49h2.05c0.43,0,0.81,0.08,1.12,0.24c0.32,0.16,0.56,0.38,0.74,0.67
			c0.18,0.29,0.27,0.63,0.27,1.02c0,0.43-0.11,0.8-0.32,1.13c-0.22,0.32-0.51,0.56-0.88,0.69l1.29,2.74h-1.24l-1.13-2.58h-0.79v2.58
			H182.76z M183.87,32.19h0.94c0.32,0,0.56-0.08,0.74-0.26c0.18-0.17,0.27-0.41,0.27-0.71c0-0.31-0.09-0.55-0.27-0.72
			c-0.18-0.17-0.42-0.26-0.74-0.26h-0.94V32.19z"/>
	</g>
</g>
<g>
	<path class="st2" d="M229.98,27.85h-3.87c-2.06,0-3.73-1.67-3.73-3.73v-3.87c0-2.06,1.67-3.73,3.73-3.73h3.87
		c2.06,0,3.73,1.67,3.73,3.73v3.87C233.71,26.18,232.04,27.85,229.98,27.85z"/>
	<g>
		<path class="st3" d="M226.18,25.43v-0.98h1.31v-4.54h-1.31v-0.98h3.73v0.98h-1.31v4.54h1.31v0.98H226.18z"/>
	</g>
</g>
<g>
	<path class="st1" d="M213.19,81.75h-3.87c-2.06,0-3.73-1.67-3.73-3.73v-3.87c0-2.06,1.67-3.73,3.73-3.73h3.87
		c2.06,0,3.73,1.67,3.73,3.73v3.87C216.92,80.08,215.25,81.75,213.19,81.75z"/>
	<g>
		<path class="st3" d="M210.19,77.37l-0.02-1.78h0.7c0.3,0,0.53-0.08,0.71-0.24c0.18-0.16,0.27-0.37,0.27-0.63
			c0-0.27-0.09-0.48-0.27-0.64c-0.18-0.16-0.42-0.24-0.72-0.24h-1.32v-1.04h1.27c0.44,0,0.82,0.08,1.14,0.24
			c0.32,0.16,0.57,0.38,0.75,0.66c0.18,0.28,0.27,0.62,0.27,1.01c0,0.36-0.08,0.68-0.23,0.95c-0.15,0.27-0.36,0.49-0.63,0.65
			c-0.27,0.16-0.58,0.24-0.93,0.25v0.8C211.18,77.37,210.19,77.37,210.19,77.37z M210.55,79.35c-0.18,0-0.33-0.05-0.44-0.16
			c-0.11-0.11-0.17-0.25-0.17-0.42c0-0.17,0.06-0.31,0.17-0.42c0.11-0.11,0.26-0.16,0.44-0.16h0.27c0.18,0,0.33,0.05,0.44,0.16
			c0.11,0.11,0.16,0.25,0.16,0.43c0,0.17-0.06,0.31-0.17,0.42c-0.11,0.11-0.26,0.16-0.44,0.16H210.55z"/>
	</g>
</g>
<g>
	<path class="st9" d="M423.12,52.95h-3.87c-2.06,0-3.73-1.67-3.73-3.73v-3.87c0-2.06,1.67-3.73,3.73-3.73h3.87
		c2.06,0,3.73,1.67,3.73,3.73v3.87C426.86,51.28,425.19,52.95,423.12,52.95z"/>
	<g>
		<path class="st3" d="M419.14,50.53v-6.49h2.05c0.43,0,0.81,0.08,1.12,0.24c0.32,0.16,0.56,0.38,0.74,0.67
			c0.18,0.29,0.27,0.63,0.27,1.02c0,0.43-0.11,0.8-0.32,1.13s-0.51,0.56-0.88,0.69l1.29,2.74h-1.24l-1.13-2.58h-0.79v2.58H419.14z
			 M420.25,46.97h0.94c0.32,0,0.56-0.08,0.74-0.26s0.27-0.41,0.27-0.71c0-0.31-0.09-0.55-0.27-0.72s-0.42-0.26-0.74-0.26h-0.94
			V46.97z"/>
	</g>
</g>
<g>
	<path class="st8" d="M231.84,76.45h-3.87c-2.06,0-3.73-1.67-3.73-3.73v-3.87c0-2.06,1.67-3.73,3.73-3.73h3.87
		c2.06,0,3.73,1.67,3.73,3.73v3.87C235.58,74.78,233.91,76.45,231.84,76.45z"/>
	<g>
		<path class="st3" d="M228.31,74.03v-6.49h1.93c0.44,0,0.82,0.08,1.14,0.25c0.32,0.16,0.57,0.4,0.75,0.7
			c0.18,0.3,0.27,0.66,0.27,1.08v2.43c0,0.41-0.09,0.76-0.27,1.07c-0.18,0.31-0.43,0.54-0.75,0.71c-0.32,0.17-0.7,0.25-1.14,0.25
			H228.31z M229.42,73.01h0.82c0.32,0,0.57-0.09,0.76-0.27c0.19-0.18,0.28-0.43,0.28-0.74v-2.43c0-0.31-0.09-0.55-0.28-0.73
			c-0.19-0.18-0.44-0.27-0.76-0.27h-0.82V73.01z"/>
	</g>
</g>
<g>
	<path class="st9" d="M446.07,15.96h-3.87c-2.06,0-3.73-1.67-3.73-3.73V8.35c0-2.06,1.67-3.73,3.73-3.73h3.87
		c2.06,0,3.73,1.67,3.73,3.73v3.87C449.81,14.28,448.13,15.96,446.07,15.96z"/>
	<g>
		<path class="st3" d="M442.09,13.53V7.04h2.05c0.43,0,0.81,0.08,1.12,0.24c0.32,0.16,0.56,0.38,0.74,0.67
			c0.18,0.29,0.27,0.63,0.27,1.02c0,0.43-0.11,0.8-0.32,1.13s-0.51,0.56-0.88,0.69l1.29,2.74h-1.24l-1.13-2.58h-0.79v2.58H442.09z
			 M443.2,9.98h0.94c0.32,0,0.56-0.08,0.74-0.26s0.27-0.41,0.27-0.71c0-0.31-0.09-0.55-0.27-0.72s-0.42-0.26-0.74-0.26h-0.94V9.98z"
			/>
	</g>
</g>
<g>
	<path class="st9" d="M440.34,40.3h-3.87c-2.06,0-3.73-1.67-3.73-3.73v-3.87c0-2.06,1.67-3.73,3.73-3.73h3.87
		c2.06,0,3.73,1.67,3.73,3.73v3.87C444.08,38.63,442.41,40.3,440.34,40.3z"/>
	<g>
		<path class="st3" d="M436.36,37.87v-6.49h2.05c0.43,0,0.81,0.08,1.12,0.24s0.56,0.38,0.74,0.67s0.27,0.63,0.27,1.02
			c0,0.43-0.11,0.8-0.32,1.13s-0.51,0.56-0.88,0.69l1.29,2.74h-1.24l-1.13-2.58h-0.79v2.58H436.36z M437.47,34.32h0.94
			c0.32,0,0.56-0.08,0.74-0.26c0.18-0.17,0.27-0.41,0.27-0.71c0-0.31-0.09-0.55-0.27-0.72c-0.18-0.17-0.42-0.26-0.74-0.26h-0.94
			V34.32z"/>
	</g>
</g>
<g>
	<path class="st8" d="M229.69,93.86h-3.87c-2.06,0-3.73-1.67-3.73-3.73v-3.87c0-2.06,1.67-3.73,3.73-3.73h3.87
		c2.06,0,3.73,1.67,3.73,3.73v3.87C233.43,92.19,231.76,93.86,229.69,93.86z"/>
	<g>
		<path class="st3" d="M226.15,91.44v-6.49h1.93c0.44,0,0.82,0.08,1.14,0.25c0.32,0.16,0.57,0.4,0.75,0.7
			c0.18,0.3,0.27,0.66,0.27,1.08v2.43c0,0.41-0.09,0.76-0.27,1.07c-0.18,0.31-0.43,0.54-0.75,0.71c-0.32,0.17-0.7,0.25-1.14,0.25
			C228.08,91.44,226.15,91.44,226.15,91.44z M227.27,90.42h0.82c0.32,0,0.57-0.09,0.76-0.27c0.19-0.18,0.28-0.43,0.28-0.74v-2.43
			c0-0.31-0.09-0.55-0.28-0.73c-0.19-0.18-0.44-0.27-0.76-0.27h-0.82V90.42z"/>
	</g>
</g>
<g>
	<path class="st9" d="M451.74,69.85h-3.87c-2.06,0-3.73-1.67-3.73-3.73v-3.87c0-2.06,1.67-3.73,3.73-3.73h3.87
		c2.06,0,3.73,1.67,3.73,3.73v3.87C455.48,68.18,453.81,69.85,451.74,69.85z"/>
	<g>
		<path class="st3" d="M447.76,67.43v-6.49h2.05c0.43,0,0.81,0.08,1.12,0.24c0.32,0.16,0.56,0.38,0.74,0.67
			c0.18,0.29,0.27,0.63,0.27,1.02c0,0.43-0.11,0.8-0.32,1.13c-0.22,0.32-0.51,0.56-0.88,0.69l1.29,2.74h-1.24l-1.13-2.58h-0.79v2.58
			H447.76z M448.87,63.87h0.94c0.32,0,0.56-0.08,0.74-0.26s0.27-0.41,0.27-0.71c0-0.31-0.09-0.55-0.27-0.72s-0.42-0.26-0.74-0.26
			h-0.94V63.87z"/>
	</g>
</g>
<g>
	<path class="st8" d="M435.23,66.28h-3.87c-2.06,0-3.73-1.67-3.73-3.73v-3.87c0-2.06,1.67-3.73,3.73-3.73h3.87
		c2.06,0,3.73,1.67,3.73,3.73v3.87C438.97,64.61,437.29,66.28,435.23,66.28z"/>
	<g>
		<path class="st3" d="M431.69,63.86v-6.49h1.93c0.44,0,0.82,0.08,1.14,0.25c0.32,0.16,0.57,0.4,0.75,0.7
			c0.18,0.3,0.27,0.66,0.27,1.08v2.43c0,0.41-0.09,0.76-0.27,1.07c-0.18,0.31-0.43,0.54-0.75,0.71c-0.32,0.17-0.7,0.25-1.14,0.25
			H431.69z M432.8,62.84h0.82c0.32,0,0.57-0.09,0.76-0.27s0.28-0.43,0.28-0.74V59.4c0-0.31-0.09-0.55-0.28-0.73
			s-0.44-0.27-0.76-0.27h-0.82V62.84z"/>
	</g>
</g>
<g>
	<path class="st9" d="M205.37,93.15h-3.87c-2.06,0-3.73-1.67-3.73-3.73v-3.87c0-2.06,1.67-3.73,3.73-3.73h3.87
		c2.06,0,3.73,1.67,3.73,3.73v3.87C209.1,91.48,207.43,93.15,205.37,93.15z"/>
	<g>
		<path class="st3" d="M201.38,90.73v-6.49h2.05c0.43,0,0.81,0.08,1.12,0.24c0.32,0.16,0.56,0.38,0.74,0.67
			c0.18,0.29,0.27,0.63,0.27,1.02c0,0.43-0.11,0.8-0.32,1.13c-0.22,0.32-0.51,0.56-0.88,0.69l1.29,2.74h-1.24l-1.13-2.58h-0.79v2.58
			H201.38z M202.49,87.17h0.94c0.32,0,0.56-0.08,0.74-0.26c0.18-0.17,0.27-0.41,0.27-0.71c0-0.31-0.09-0.55-0.27-0.72
			c-0.18-0.17-0.42-0.26-0.74-0.26h-0.94V87.17z"/>
	</g>
</g>
<g>
	<path class="st8" d="M164.94,60.91h-3.87c-2.06,0-3.73-1.67-3.73-3.73v-3.87c0-2.06,1.67-3.73,3.73-3.73h3.87
		c2.06,0,3.73,1.67,3.73,3.73v3.87C168.68,59.24,167.01,60.91,164.94,60.91z"/>
	<g>
		<path class="st3" d="M161.4,58.49v-6.49h1.93c0.44,0,0.82,0.08,1.14,0.25s0.57,0.4,0.75,0.7c0.18,0.3,0.27,0.66,0.27,1.08v2.43
			c0,0.41-0.09,0.76-0.27,1.07s-0.43,0.54-0.75,0.71c-0.32,0.17-0.7,0.25-1.14,0.25H161.4z M162.51,57.46h0.82
			c0.32,0,0.57-0.09,0.76-0.27s0.28-0.43,0.28-0.74v-2.43c0-0.31-0.09-0.55-0.28-0.73s-0.44-0.27-0.76-0.27h-0.82V57.46z"/>
	</g>
</g>
<g>
	<path class="st9" d="M500.14,35.19h-3.87c-2.06,0-3.73-1.67-3.73-3.73v-3.87c0-2.06,1.67-3.73,3.73-3.73h3.87
		c2.06,0,3.73,1.67,3.73,3.73v3.87C503.87,33.51,502.2,35.19,500.14,35.19z"/>
	<g>
		<path class="st3" d="M496.16,32.76v-6.49h2.05c0.43,0,0.81,0.08,1.12,0.24c0.32,0.16,0.56,0.38,0.74,0.67
			c0.18,0.29,0.27,0.63,0.27,1.02c0,0.43-0.11,0.8-0.32,1.13s-0.51,0.56-0.88,0.69l1.29,2.74h-1.24l-1.13-2.58h-0.79v2.58H496.16z
			 M497.27,29.21h0.94c0.32,0,0.56-0.08,0.74-0.26s0.27-0.41,0.27-0.71c0-0.31-0.09-0.55-0.27-0.72s-0.42-0.26-0.74-0.26h-0.94
			V29.21z"/>
	</g>
</g>
<g>
	<path class="st8" d="M489.23,58.39h-3.87c-2.06,0-3.73-1.67-3.73-3.73v-3.87c0-2.06,1.67-3.73,3.73-3.73h3.87
		c2.06,0,3.73,1.67,3.73,3.73v3.87C492.97,56.72,491.3,58.39,489.23,58.39z"/>
	<g>
		<path class="st3" d="M485.69,55.97v-6.49h1.93c0.44,0,0.82,0.08,1.14,0.25s0.57,0.4,0.75,0.7s0.27,0.66,0.27,1.08v2.43
			c0,0.41-0.09,0.76-0.27,1.07s-0.43,0.54-0.75,0.71c-0.32,0.17-0.7,0.25-1.14,0.25H485.69z M486.81,54.95h0.82
			c0.32,0,0.57-0.09,0.76-0.27s0.28-0.43,0.28-0.74V51.5c0-0.31-0.09-0.55-0.28-0.73s-0.44-0.27-0.76-0.27h-0.82V54.95z"/>
	</g>
</g>
<g>
	<path class="st9" d="M226.82,43.15h-3.87c-2.06,0-3.73-1.67-3.73-3.73v-3.87c0-2.06,1.67-3.73,3.73-3.73h3.87
		c2.06,0,3.73,1.67,3.73,3.73v3.87C230.55,41.48,228.88,43.15,226.82,43.15z"/>
	<g>
		<path class="st3" d="M222.83,40.73v-6.49h2.05c0.43,0,0.81,0.08,1.12,0.24c0.32,0.16,0.56,0.38,0.74,0.67
			c0.18,0.29,0.27,0.63,0.27,1.02c0,0.43-0.11,0.8-0.32,1.13s-0.51,0.56-0.88,0.69l1.29,2.74h-1.24l-1.13-2.58h-0.79v2.58H222.83z
			 M223.95,37.17h0.94c0.32,0,0.56-0.08,0.74-0.26s0.27-0.41,0.27-0.71c0-0.31-0.09-0.55-0.27-0.72s-0.42-0.26-0.74-0.26h-0.94
			V37.17z"/>
	</g>
</g>
<g>
	<path class="st8" d="M215.91,66.36h-3.87c-2.06,0-3.73-1.67-3.73-3.73v-3.87c0-2.06,1.67-3.73,3.73-3.73h3.87
		c2.06,0,3.73,1.67,3.73,3.73v3.87C219.65,64.69,217.98,66.36,215.91,66.36z"/>
	<g>
		<path class="st3" d="M212.37,63.94v-6.49h1.93c0.44,0,0.82,0.08,1.14,0.25c0.32,0.16,0.57,0.4,0.75,0.7
			c0.18,0.3,0.27,0.66,0.27,1.08v2.43c0,0.41-0.09,0.76-0.27,1.07s-0.43,0.54-0.75,0.71c-0.32,0.17-0.7,0.25-1.14,0.25H212.37z
			 M213.49,62.91h0.82c0.32,0,0.57-0.09,0.76-0.27s0.28-0.43,0.28-0.74v-2.43c0-0.31-0.09-0.55-0.28-0.73s-0.44-0.27-0.76-0.27
			h-0.82V62.91z"/>
	</g>
</g>
<g>
	<path class="st9" d="M153.23,87.41h-3.87c-2.06,0-3.73-1.67-3.73-3.73v-3.87c0-2.06,1.67-3.73,3.73-3.73h3.87
		c2.06,0,3.73,1.67,3.73,3.73v3.87C156.97,85.74,155.3,87.41,153.23,87.41z"/>
	<g>
		<path class="st3" d="M149.25,84.99V78.5h2.05c0.43,0,0.81,0.08,1.12,0.24c0.32,0.16,0.56,0.38,0.74,0.67
			c0.18,0.29,0.27,0.63,0.27,1.02c0,0.43-0.11,0.8-0.32,1.13s-0.51,0.56-0.88,0.69l1.29,2.74h-1.24l-1.13-2.58h-0.79v2.58H149.25z
			 M150.36,81.43h0.94c0.32,0,0.56-0.08,0.74-0.26c0.18-0.17,0.27-0.41,0.27-0.71c0-0.31-0.09-0.55-0.27-0.72
			c-0.18-0.17-0.42-0.26-0.74-0.26h-0.94V81.43z"/>
	</g>
</g>
<g>
	<path class="st8" d="M165.44,33.52h-3.87c-2.06,0-3.73-1.67-3.73-3.73v-3.87c0-2.06,1.67-3.73,3.73-3.73h3.87
		c2.06,0,3.73,1.67,3.73,3.73v3.87C169.17,31.85,167.5,33.52,165.44,33.52z"/>
	<g>
		<path class="st3" d="M161.9,31.1v-6.49h1.93c0.44,0,0.82,0.08,1.14,0.25c0.32,0.16,0.57,0.4,0.75,0.7
			c0.18,0.3,0.27,0.66,0.27,1.08v2.43c0,0.41-0.09,0.76-0.27,1.07c-0.18,0.31-0.43,0.54-0.75,0.71c-0.32,0.17-0.7,0.25-1.14,0.25
			H161.9z M163.01,30.08h0.82c0.32,0,0.57-0.09,0.76-0.27s0.28-0.43,0.28-0.74v-2.43c0-0.31-0.09-0.55-0.28-0.73
			c-0.19-0.18-0.44-0.27-0.76-0.27h-0.82V30.08z"/>
	</g>
</g>
<g>
	<path class="st9" d="M62.48,51.95h-3.87c-2.06,0-3.73-1.67-3.73-3.73v-3.87c0-2.06,1.67-3.73,3.73-3.73h3.87
		c2.06,0,3.73,1.67,3.73,3.73v3.87C66.22,50.28,64.55,51.95,62.48,51.95z"/>
	<g>
		<path class="st3" d="M58.5,49.53v-6.49h2.05c0.43,0,0.81,0.08,1.12,0.24c0.32,0.16,0.56,0.38,0.74,0.67
			c0.18,0.29,0.27,0.63,0.27,1.02c0,0.43-0.11,0.8-0.32,1.13c-0.22,0.32-0.51,0.56-0.88,0.69l1.29,2.74h-1.24l-1.13-2.58h-0.79v2.58
			H58.5z M59.61,45.97h0.94c0.32,0,0.56-0.08,0.74-0.26c0.18-0.17,0.27-0.41,0.27-0.71c0-0.31-0.09-0.55-0.27-0.72
			c-0.18-0.17-0.42-0.26-0.74-0.26h-0.94V45.97z"/>
	</g>
</g>
<g>
	<path class="st8" d="M51.58,75.16h-3.87c-2.06,0-3.73-1.67-3.73-3.73v-3.87c0-2.06,1.67-3.73,3.73-3.73h3.87
		c2.06,0,3.73,1.67,3.73,3.73v3.87C55.31,73.49,53.64,75.16,51.58,75.16z"/>
	<g>
		<path class="st3" d="M48.04,72.73v-6.49h1.93c0.44,0,0.82,0.08,1.14,0.25s0.57,0.4,0.75,0.7s0.27,0.66,0.27,1.08v2.43
			c0,0.41-0.09,0.76-0.27,1.07c-0.18,0.31-0.43,0.54-0.75,0.71s-0.7,0.25-1.14,0.25H48.04z M49.15,71.71h0.82
			c0.32,0,0.57-0.09,0.76-0.27s0.28-0.43,0.28-0.74v-2.43c0-0.31-0.09-0.55-0.28-0.73s-0.44-0.27-0.76-0.27h-0.82V71.71z"/>
	</g>
</g>
<g>
	<path class="st9" d="M39.21,38.08h-3.87c-2.06,0-3.73-1.67-3.73-3.73v-3.87c0-2.06,1.67-3.73,3.73-3.73h3.87
		c2.06,0,3.73,1.67,3.73,3.73v3.87C42.95,36.41,41.27,38.08,39.21,38.08z"/>
	<g>
		<path class="st3" d="M35.23,35.66v-6.49h2.05c0.43,0,0.81,0.08,1.12,0.24c0.32,0.16,0.56,0.38,0.74,0.67
			c0.18,0.29,0.27,0.63,0.27,1.02c0,0.43-0.11,0.8-0.32,1.13c-0.22,0.32-0.51,0.56-0.88,0.69l1.29,2.74h-1.24l-1.13-2.58h-0.79v2.58
			H35.23z M36.34,32.1h0.94c0.32,0,0.56-0.08,0.74-0.26c0.18-0.17,0.27-0.41,0.27-0.71c0-0.31-0.09-0.55-0.27-0.72
			c-0.18-0.17-0.42-0.26-0.74-0.26h-0.94V32.1z"/>
	</g>
</g>
<g>
	<path class="st8" d="M28.31,61.29h-3.87c-2.06,0-3.73-1.67-3.73-3.73v-3.87c0-2.06,1.67-3.73,3.73-3.73h3.87
		c2.06,0,3.73,1.67,3.73,3.73v3.87C32.04,59.62,30.37,61.29,28.31,61.29z"/>
	<g>
		<path class="st3" d="M24.77,58.86v-6.49h1.93c0.44,0,0.82,0.08,1.14,0.25c0.32,0.16,0.57,0.4,0.75,0.7
			c0.18,0.3,0.27,0.66,0.27,1.08v2.43c0,0.41-0.09,0.76-0.27,1.07s-0.43,0.54-0.75,0.71c-0.32,0.17-0.7,0.25-1.14,0.25H24.77z
			 M25.88,57.84h0.82c0.32,0,0.57-0.09,0.76-0.27c0.19-0.18,0.28-0.43,0.28-0.74V54.4c0-0.31-0.09-0.55-0.28-0.73
			c-0.19-0.18-0.44-0.27-0.76-0.27h-0.82V57.84z"/>
	</g>
</g>
<g>
	<path class="st9" d="M61.54,89.51h-3.87c-2.06,0-3.73-1.67-3.73-3.73v-3.87c0-2.06,1.67-3.73,3.73-3.73h3.87
		c2.06,0,3.73,1.67,3.73,3.73v3.87C65.28,87.84,63.6,89.51,61.54,89.51z"/>
	<g>
		<path class="st3" d="M57.56,87.09V80.6h2.05c0.43,0,0.81,0.08,1.12,0.24c0.32,0.16,0.56,0.38,0.74,0.67
			c0.18,0.29,0.27,0.63,0.27,1.02c0,0.43-0.11,0.8-0.32,1.13c-0.22,0.32-0.51,0.56-0.88,0.69l1.29,2.74h-1.24l-1.13-2.58h-0.79v2.58
			H57.56z M58.67,83.53h0.94c0.32,0,0.56-0.08,0.74-0.26c0.18-0.17,0.27-0.41,0.27-0.71c0-0.31-0.09-0.55-0.27-0.72
			c-0.18-0.17-0.42-0.26-0.74-0.26h-0.94V83.53z"/>
	</g>
</g>
<g>
	<path class="st8" d="M12.01,86.65H8.14c-2.06,0-3.73-1.67-3.73-3.73v-3.87c0-2.06,1.67-3.73,3.73-3.73h3.87
		c2.06,0,3.73,1.67,3.73,3.73v3.87C15.74,84.98,14.07,86.65,12.01,86.65z"/>
	<g>
		<path class="st3" d="M8.47,84.23v-6.49h1.93c0.44,0,0.82,0.08,1.14,0.25c0.32,0.16,0.57,0.4,0.75,0.7
			c0.18,0.3,0.27,0.66,0.27,1.08v2.43c0,0.41-0.09,0.76-0.27,1.07s-0.43,0.54-0.75,0.71c-0.32,0.17-0.7,0.25-1.14,0.25H8.47z
			 M9.58,83.21h0.82c0.32,0,0.57-0.09,0.76-0.27s0.28-0.43,0.28-0.74v-2.43c0-0.31-0.09-0.55-0.28-0.73s-0.44-0.27-0.76-0.27H9.58
			V83.21z"/>
	</g>
</g>
<g>
	<path class="st9" d="M87.62,45.04h-3.87c-2.06,0-3.73-1.67-3.73-3.73v-3.87c0-2.06,1.67-3.73,3.73-3.73h3.87
		c2.06,0,3.73,1.67,3.73,3.73v3.87C91.36,43.37,89.69,45.04,87.62,45.04z"/>
	<g>
		<path class="st3" d="M83.64,42.62v-6.49h2.05c0.43,0,0.81,0.08,1.12,0.24c0.32,0.16,0.56,0.38,0.74,0.67
			c0.18,0.29,0.27,0.63,0.27,1.02c0,0.43-0.11,0.8-0.32,1.13s-0.51,0.56-0.88,0.69l1.29,2.74h-1.24l-1.13-2.58h-0.79v2.58H83.64z
			 M84.75,39.06h0.94c0.32,0,0.56-0.08,0.74-0.26s0.27-0.41,0.27-0.71c0-0.31-0.09-0.55-0.27-0.72s-0.42-0.26-0.74-0.26h-0.94V39.06
			z"/>
	</g>
</g>
<g>
	<path class="st8" d="M76.72,68.25h-3.87c-2.06,0-3.73-1.67-3.73-3.73v-3.87c0-2.06,1.67-3.73,3.73-3.73h3.87
		c2.06,0,3.73,1.67,3.73,3.73v3.87C80.45,66.58,78.78,68.25,76.72,68.25z"/>
	<g>
		<path class="st3" d="M73.18,65.83v-6.49h1.93c0.44,0,0.82,0.08,1.14,0.25c0.32,0.16,0.57,0.4,0.75,0.7
			c0.18,0.3,0.27,0.66,0.27,1.08v2.43c0,0.41-0.09,0.76-0.27,1.07c-0.18,0.31-0.43,0.54-0.75,0.71c-0.32,0.17-0.7,0.25-1.14,0.25
			C75.11,65.83,73.18,65.83,73.18,65.83z M74.29,64.8h0.82c0.32,0,0.57-0.09,0.76-0.27c0.19-0.18,0.28-0.43,0.28-0.74v-2.43
			c0-0.31-0.09-0.55-0.28-0.73c-0.19-0.18-0.44-0.27-0.76-0.27h-0.82V64.8z"/>
	</g>
</g>
<g>
	<path class="st9" d="M12.01,66.58H8.14c-2.06,0-3.73-1.67-3.73-3.73v-3.87c0-2.06,1.67-3.73,3.73-3.73h3.87
		c2.06,0,3.73,1.67,3.73,3.73v3.87C15.74,64.91,14.07,66.58,12.01,66.58z"/>
	<g>
		<path class="st3" d="M8.02,64.16v-6.49h2.05c0.43,0,0.81,0.08,1.12,0.24s0.56,0.38,0.74,0.67c0.18,0.29,0.27,0.63,0.27,1.02
			c0,0.43-0.11,0.8-0.32,1.13s-0.51,0.56-0.88,0.69l1.29,2.74h-1.24l-1.13-2.58H9.13v2.58H8.02z M9.13,60.6h0.94
			c0.32,0,0.56-0.08,0.74-0.26c0.18-0.17,0.27-0.41,0.27-0.71c0-0.31-0.09-0.55-0.27-0.72c-0.18-0.17-0.42-0.26-0.74-0.26H9.13V60.6
			z"/>
	</g>
</g>
<g>
	<path class="st8" d="M17.68,22.18h-3.87c-2.06,0-3.73-1.67-3.73-3.73v-3.87c0-2.06,1.67-3.73,3.73-3.73h3.87
		c2.06,0,3.73,1.67,3.73,3.73v3.87C21.41,20.51,19.74,22.18,17.68,22.18z"/>
	<g>
		<path class="st3" d="M14.14,19.76v-6.49h1.93c0.44,0,0.82,0.08,1.14,0.25c0.32,0.16,0.57,0.4,0.75,0.7s0.27,0.66,0.27,1.08v2.43
			c0,0.41-0.09,0.76-0.27,1.07s-0.43,0.54-0.75,0.71c-0.32,0.17-0.7,0.25-1.14,0.25L14.14,19.76z M15.25,18.74h0.82
			c0.32,0,0.57-0.09,0.76-0.27c0.19-0.18,0.28-0.43,0.28-0.74V15.3c0-0.31-0.09-0.55-0.28-0.73c-0.19-0.18-0.44-0.27-0.76-0.27
			h-0.82V18.74z"/>
	</g>
</g>
<g>
	<path class="st9" d="M33.76,90.1h-3.87c-2.06,0-3.73-1.67-3.73-3.73V82.5c0-2.06,1.67-3.73,3.73-3.73h3.87
		c2.06,0,3.73,1.67,3.73,3.73v3.87C37.49,88.43,35.82,90.1,33.76,90.1z"/>
	<g>
		<path class="st3" d="M29.77,87.68v-6.49h2.05c0.43,0,0.81,0.08,1.12,0.24c0.32,0.16,0.56,0.38,0.74,0.67
			c0.18,0.29,0.27,0.63,0.27,1.02c0,0.43-0.11,0.8-0.32,1.13c-0.22,0.32-0.51,0.56-0.88,0.69l1.29,2.74h-1.24l-1.13-2.58h-0.79v2.58
			H29.77z M30.89,84.12h0.94c0.32,0,0.56-0.08,0.74-0.26c0.18-0.17,0.27-0.41,0.27-0.71c0-0.31-0.09-0.55-0.27-0.72
			c-0.18-0.17-0.42-0.26-0.74-0.26h-0.94V84.12z"/>
	</g>
</g>
<g>
	<path class="st8" d="M46.56,55.44h-3.87c-2.06,0-3.73-1.67-3.73-3.73v-3.87c0-2.06,1.67-3.73,3.73-3.73h3.87
		c2.06,0,3.73,1.67,3.73,3.73v3.87C50.3,53.77,48.63,55.44,46.56,55.44z"/>
	<g>
		<path class="st3" d="M43.02,53.02v-6.49h1.93c0.44,0,0.82,0.08,1.14,0.25s0.57,0.4,0.75,0.7c0.18,0.3,0.27,0.66,0.27,1.08v2.43
			c0,0.41-0.09,0.76-0.27,1.07c-0.18,0.31-0.43,0.54-0.75,0.71c-0.32,0.17-0.7,0.25-1.14,0.25L43.02,53.02z M44.14,51.99h0.82
			c0.32,0,0.57-0.09,0.76-0.27C45.91,51.54,46,51.3,46,50.98v-2.43c0-0.31-0.09-0.55-0.28-0.73c-0.19-0.18-0.44-0.27-0.76-0.27
			h-0.82V51.99z"/>
	</g>
</g>
<g>
	<path class="st9" d="M67.08,16.25h-3.87c-2.06,0-3.73-1.67-3.73-3.73V8.65c0-2.06,1.67-3.73,3.73-3.73h3.87
		c2.06,0,3.73,1.67,3.73,3.73v3.87C70.82,14.58,69.14,16.25,67.08,16.25z"/>
	<g>
		<path class="st3" d="M63.1,13.83V7.34h2.05c0.43,0,0.81,0.08,1.12,0.24c0.32,0.16,0.56,0.38,0.74,0.67
			c0.18,0.29,0.27,0.63,0.27,1.02c0,0.43-0.11,0.8-0.32,1.13c-0.22,0.32-0.51,0.56-0.88,0.69l1.29,2.74h-1.24L65,11.25h-0.79v2.58
			H63.1z M64.21,10.27h0.94c0.32,0,0.56-0.08,0.74-0.26s0.27-0.41,0.27-0.71c0-0.31-0.09-0.55-0.27-0.72
			c-0.18-0.17-0.42-0.26-0.74-0.26h-0.94V10.27z"/>
	</g>
</g>
<g>
	<path class="st8" d="M56.18,39.46h-3.87c-2.06,0-3.73-1.67-3.73-3.73v-3.87c0-2.06,1.67-3.73,3.73-3.73h3.87
		c2.06,0,3.73,1.67,3.73,3.73v3.87C59.91,37.78,58.24,39.46,56.18,39.46z"/>
	<g>
		<path class="st3" d="M52.64,37.03v-6.49h1.93c0.44,0,0.82,0.08,1.14,0.25c0.32,0.16,0.57,0.4,0.75,0.7
			c0.18,0.3,0.27,0.66,0.27,1.08V35c0,0.41-0.09,0.76-0.27,1.07c-0.18,0.31-0.43,0.54-0.75,0.71c-0.32,0.17-0.7,0.25-1.14,0.25
			H52.64z M53.75,36.01h0.82c0.32,0,0.57-0.09,0.76-0.27c0.19-0.18,0.28-0.43,0.28-0.74v-2.43c0-0.31-0.09-0.55-0.28-0.73
			c-0.19-0.18-0.44-0.27-0.76-0.27h-0.82V36.01z"/>
	</g>
</g>
<g>
	<path class="st9" d="M457.41,89.22h-3.87c-2.06,0-3.73-1.67-3.73-3.73v-3.87c0-2.06,1.67-3.73,3.73-3.73h3.87
		c2.06,0,3.73,1.67,3.73,3.73v3.87C461.15,87.54,459.48,89.22,457.41,89.22z"/>
	<g>
		<path class="st3" d="M453.43,86.79V80.3h2.05c0.43,0,0.81,0.08,1.12,0.24c0.32,0.16,0.56,0.38,0.74,0.67
			c0.18,0.29,0.27,0.63,0.27,1.02c0,0.43-0.11,0.8-0.32,1.13s-0.51,0.56-0.88,0.69l1.29,2.74h-1.24l-1.13-2.58h-0.79v2.58H453.43z
			 M454.54,83.24h0.94c0.32,0,0.56-0.08,0.74-0.26c0.18-0.17,0.27-0.41,0.27-0.71c0-0.31-0.09-0.55-0.27-0.72
			c-0.18-0.17-0.42-0.26-0.74-0.26h-0.94V83.24z"/>
	</g>
</g>
<g>
	<path class="st8" d="M473.69,94.64h-3.87c-2.06,0-3.73-1.67-3.73-3.73v-3.87c0-2.06,1.67-3.73,3.73-3.73h3.87
		c2.06,0,3.73,1.67,3.73,3.73v3.87C477.43,92.97,475.76,94.64,473.69,94.64z"/>
	<g>
		<path class="st3" d="M470.15,92.21v-6.49h1.93c0.44,0,0.82,0.08,1.14,0.25s0.57,0.4,0.75,0.7c0.18,0.3,0.27,0.66,0.27,1.08v2.43
			c0,0.41-0.09,0.76-0.27,1.07c-0.18,0.31-0.43,0.54-0.75,0.71s-0.7,0.25-1.14,0.25C472.08,92.21,470.15,92.21,470.15,92.21z
			 M471.27,91.19h0.82c0.32,0,0.57-0.09,0.76-0.27s0.28-0.43,0.28-0.74v-2.43c0-0.31-0.09-0.55-0.28-0.73s-0.44-0.27-0.76-0.27
			h-0.82V91.19z"/>
	</g>
</g>
<g>
	<path class="st9" d="M498.09,74.8h-3.87c-2.06,0-3.73-1.67-3.73-3.73v-3.87c0-2.06,1.67-3.73,3.73-3.73h3.87
		c2.06,0,3.73,1.67,3.73,3.73v3.87C501.82,73.13,500.15,74.8,498.09,74.8z"/>
	<g>
		<path class="st3" d="M494.1,72.37v-6.49h2.05c0.43,0,0.81,0.08,1.12,0.24c0.32,0.16,0.56,0.38,0.74,0.67
			c0.18,0.29,0.27,0.63,0.27,1.02c0,0.43-0.11,0.8-0.32,1.13s-0.51,0.56-0.88,0.69l1.29,2.74h-1.24l-1.13-2.58h-0.79v2.58H494.1z
			 M495.21,68.82h0.94c0.32,0,0.56-0.08,0.74-0.26c0.18-0.17,0.27-0.41,0.27-0.71c0-0.31-0.09-0.55-0.27-0.72
			c-0.18-0.17-0.42-0.26-0.74-0.26h-0.94V68.82z"/>
	</g>
</g>
<g>
	<path class="st8" d="M395.74,23.57h-3.87c-2.06,0-3.73-1.67-3.73-3.73v-3.87c0-2.06,1.67-3.73,3.73-3.73h3.87
		c2.06,0,3.73,1.67,3.73,3.73v3.87C399.48,21.9,397.81,23.57,395.74,23.57z"/>
	<g>
		<path class="st3" d="M392.2,21.14v-6.49h1.93c0.44,0,0.82,0.08,1.14,0.25c0.32,0.16,0.57,0.4,0.75,0.7
			c0.18,0.3,0.27,0.66,0.27,1.08v2.43c0,0.41-0.09,0.76-0.27,1.07c-0.18,0.31-0.43,0.54-0.75,0.71s-0.7,0.25-1.14,0.25H392.2z
			 M393.31,20.12h0.82c0.32,0,0.57-0.09,0.76-0.27s0.28-0.43,0.28-0.74v-2.43c0-0.31-0.09-0.55-0.28-0.73
			c-0.19-0.18-0.44-0.27-0.76-0.27h-0.82V20.12z"/>
	</g>
</g>
<g>
	<path class="st9" d="M421.89,87.09h-3.87c-2.06,0-3.73-1.67-3.73-3.73v-3.87c0-2.06,1.67-3.73,3.73-3.73h3.87
		c2.06,0,3.73,1.67,3.73,3.73v3.87C425.62,85.42,423.95,87.09,421.89,87.09z"/>
	<g>
		<path class="st3" d="M417.9,84.67v-6.49h2.05c0.43,0,0.81,0.08,1.12,0.24c0.32,0.16,0.56,0.38,0.74,0.67
			c0.18,0.29,0.27,0.63,0.27,1.02c0,0.43-0.11,0.8-0.32,1.13s-0.51,0.56-0.88,0.69l1.29,2.74h-1.24l-1.13-2.58h-0.79v2.58H417.9z
			 M419.02,81.11h0.94c0.32,0,0.56-0.08,0.74-0.26c0.18-0.17,0.27-0.41,0.27-0.71c0-0.31-0.09-0.55-0.27-0.72
			c-0.18-0.17-0.42-0.26-0.74-0.26h-0.94V81.11z"/>
	</g>
</g>
<g>
	<path class="st8" d="M438.17,92.51h-3.87c-2.06,0-3.73-1.67-3.73-3.73v-3.87c0-2.06,1.67-3.73,3.73-3.73h3.87
		c2.06,0,3.73,1.67,3.73,3.73v3.87C441.9,90.84,440.23,92.51,438.17,92.51z"/>
	<g>
		<path class="st3" d="M434.63,90.09V83.6h1.93c0.44,0,0.82,0.08,1.14,0.25c0.32,0.16,0.57,0.4,0.75,0.7s0.27,0.66,0.27,1.08v2.43
			c0,0.41-0.09,0.76-0.27,1.07s-0.43,0.54-0.75,0.71c-0.32,0.17-0.7,0.25-1.14,0.25H434.63z M435.74,89.07h0.82
			c0.32,0,0.57-0.09,0.76-0.27c0.19-0.18,0.28-0.43,0.28-0.74v-2.43c0-0.31-0.09-0.55-0.28-0.73c-0.19-0.18-0.44-0.27-0.76-0.27
			h-0.82V89.07z"/>
	</g>
</g>
<g>
	<path class="st9" d="M494.91,95.76h-3.87c-2.06,0-3.73-1.67-3.73-3.73v-3.87c0-2.06,1.67-3.73,3.73-3.73h3.87
		c2.06,0,3.73,1.67,3.73,3.73v3.87C498.64,94.09,496.97,95.76,494.91,95.76z"/>
	<g>
		<path class="st3" d="M490.92,93.34v-6.49h2.05c0.43,0,0.81,0.08,1.12,0.24c0.32,0.16,0.56,0.38,0.74,0.67s0.27,0.63,0.27,1.02
			c0,0.43-0.11,0.8-0.32,1.13s-0.51,0.56-0.88,0.69l1.29,2.74h-1.24l-1.13-2.58h-0.79v2.58H490.92z M492.03,89.78h0.94
			c0.32,0,0.56-0.08,0.74-0.26c0.18-0.17,0.27-0.41,0.27-0.71c0-0.31-0.09-0.55-0.27-0.72c-0.18-0.17-0.42-0.26-0.74-0.26h-0.94
			V89.78z"/>
	</g>
</g>
<g>
	<path class="st8" d="M477.69,69.99h-3.87c-2.06,0-3.73-1.67-3.73-3.73v-3.87c0-2.06,1.67-3.73,3.73-3.73h3.87
		c2.06,0,3.73,1.67,3.73,3.73v3.87C481.43,68.32,479.75,69.99,477.69,69.99z"/>
	<g>
		<path class="st3" d="M474.15,67.57v-6.49h1.93c0.44,0,0.82,0.08,1.14,0.25s0.57,0.4,0.75,0.7c0.18,0.3,0.27,0.66,0.27,1.08v2.43
			c0,0.41-0.09,0.76-0.27,1.07c-0.18,0.31-0.43,0.54-0.75,0.71c-0.32,0.17-0.7,0.25-1.14,0.25H474.15z M475.26,66.55h0.82
			c0.32,0,0.57-0.09,0.76-0.27s0.28-0.43,0.28-0.74v-2.43c0-0.31-0.09-0.55-0.28-0.73c-0.19-0.18-0.44-0.27-0.76-0.27h-0.82V66.55z"
			/>
	</g>
</g>
<g>
	<path class="st8" d="M469.52,27.1h-4.21c-2.24,0-4.06-1.73-4.06-3.85v-3.99c0-2.13,1.82-3.85,4.06-3.85h4.21
		c2.24,0,4.06,1.73,4.06,3.85v4C473.58,25.37,471.77,27.1,469.52,27.1z"/>
	<g>
		<path class="st3" d="M465.67,24.6v-6.7h2.1c0.48,0,0.89,0.09,1.24,0.26c0.35,0.17,0.62,0.41,0.82,0.73s0.29,0.68,0.29,1.11v2.51
			c0,0.42-0.1,0.79-0.29,1.11s-0.46,0.56-0.82,0.73c-0.35,0.17-0.76,0.26-1.24,0.26L465.67,24.6z M466.88,23.54h0.89
			c0.35,0,0.62-0.09,0.83-0.28c0.21-0.19,0.31-0.44,0.31-0.77v-2.51c0-0.32-0.1-0.57-0.31-0.76c-0.21-0.19-0.48-0.28-0.83-0.28
			h-0.89V23.54z"/>
	</g>
</g>
<g>
	<path class="st9" d="M480.04,38.39h-4.21c-2.24,0-4.06-1.73-4.06-3.85v-3.99c0-2.13,1.82-3.85,4.06-3.85h4.21
		c2.24,0,4.06,1.73,4.06,3.85v4C484.1,36.66,482.28,38.39,480.04,38.39z"/>
	<g>
		<path class="st3" d="M475.7,35.88v-6.7h2.23c0.47,0,0.88,0.08,1.22,0.25c0.34,0.17,0.61,0.39,0.81,0.69s0.29,0.65,0.29,1.05
			c0,0.44-0.12,0.83-0.35,1.17c-0.24,0.33-0.55,0.57-0.95,0.72l1.4,2.83H479l-1.23-2.66h-0.86v2.66H475.7z M476.91,32.21h1.02
			c0.34,0,0.61-0.09,0.8-0.27c0.19-0.18,0.29-0.42,0.29-0.73c0-0.32-0.1-0.57-0.29-0.75s-0.46-0.27-0.8-0.27h-1.02V32.21z"/>
	</g>
</g>
<g>
	<path class="st9" d="M641.05,99.09h-3.87c-2.06,0-3.73-1.67-3.73-3.73v-3.87c0-2.06,1.67-3.73,3.73-3.73h3.87
		c2.06,0,3.73,1.67,3.73,3.73v3.87C644.79,97.42,643.11,99.09,641.05,99.09z"/>
	<g>
		<path class="st3" d="M637.07,96.67v-6.49h2.05c0.43,0,0.81,0.08,1.12,0.24s0.56,0.38,0.74,0.67c0.18,0.29,0.27,0.63,0.27,1.02
			c0,0.43-0.11,0.8-0.32,1.13c-0.22,0.32-0.51,0.56-0.88,0.69l1.29,2.74h-1.24l-1.13-2.58h-0.79v2.58H637.07z M638.18,93.11h0.94
			c0.32,0,0.56-0.08,0.74-0.26c0.18-0.17,0.27-0.41,0.27-0.71c0-0.31-0.09-0.55-0.27-0.72c-0.18-0.17-0.42-0.26-0.74-0.26h-0.94
			V93.11z"/>
	</g>
</g>
<g>
	<path class="st9" d="M671.94,22.6h-3.87c-2.06,0-3.73-1.67-3.73-3.73V15c0-2.06,1.67-3.73,3.73-3.73h3.87
		c2.06,0,3.73,1.67,3.73,3.73v3.87C675.67,20.93,674,22.6,671.94,22.6z"/>
	<g>
		<path class="st3" d="M667.95,20.18v-6.49h2.05c0.43,0,0.81,0.08,1.12,0.24c0.32,0.16,0.56,0.38,0.74,0.67s0.27,0.63,0.27,1.02
			c0,0.43-0.11,0.8-0.32,1.13s-0.51,0.56-0.88,0.69l1.29,2.74h-1.24l-1.13-2.58h-0.79v2.58H667.95z M669.06,16.62h0.94
			c0.32,0,0.56-0.08,0.74-0.26s0.27-0.41,0.27-0.71c0-0.31-0.09-0.55-0.27-0.72s-0.42-0.26-0.74-0.26h-0.94V16.62z"/>
	</g>
</g>
<g>
	<path class="st9" d="M606.77,19.67h-3.87c-2.06,0-3.73-1.67-3.73-3.73v-3.87c0-2.06,1.67-3.73,3.73-3.73h3.87
		c2.06,0,3.73,1.67,3.73,3.73v3.87C610.51,17.99,608.84,19.67,606.77,19.67z"/>
	<g>
		<path class="st3" d="M602.79,17.24v-6.49h2.05c0.43,0,0.81,0.08,1.12,0.24s0.56,0.38,0.74,0.67c0.18,0.29,0.27,0.63,0.27,1.02
			c0,0.43-0.11,0.8-0.32,1.13c-0.22,0.32-0.51,0.56-0.88,0.69l1.29,2.74h-1.24l-1.13-2.58h-0.79v2.58H602.79z M603.9,13.68h0.94
			c0.32,0,0.56-0.08,0.74-0.26s0.27-0.41,0.27-0.71c0-0.31-0.09-0.55-0.27-0.72s-0.42-0.26-0.74-0.26h-0.94V13.68z"/>
	</g>
</g>
<g>
	<path class="st9" d="M537.39,91.5h-3.87c-2.06,0-3.73-1.67-3.73-3.73v-3.87c0-2.06,1.67-3.73,3.73-3.73h3.87
		c2.06,0,3.73,1.67,3.73,3.73v3.87C541.13,89.83,539.45,91.5,537.39,91.5z"/>
	<g>
		<path class="st3" d="M533.41,89.07v-6.49h2.05c0.43,0,0.81,0.08,1.12,0.24c0.32,0.16,0.56,0.38,0.74,0.67s0.27,0.63,0.27,1.02
			c0,0.43-0.11,0.8-0.32,1.13s-0.51,0.56-0.88,0.69l1.29,2.74h-1.24l-1.13-2.58h-0.79v2.58H533.41z M534.52,85.52h0.94
			c0.32,0,0.56-0.08,0.74-0.26c0.18-0.17,0.27-0.41,0.27-0.71c0-0.31-0.09-0.55-0.27-0.72c-0.18-0.17-0.42-0.26-0.74-0.26h-0.94
			V85.52z"/>
	</g>
</g>
<g>
	<path class="st9" d="M526.67,63.84h-3.87c-2.06,0-3.73-1.67-3.73-3.73v-3.87c0-2.06,1.67-3.73,3.73-3.73h3.87
		c2.06,0,3.73,1.67,3.73,3.73v3.87C530.4,62.17,528.73,63.84,526.67,63.84z"/>
	<g>
		<path class="st3" d="M522.68,61.42v-6.49h2.05c0.43,0,0.81,0.08,1.12,0.24c0.32,0.16,0.56,0.38,0.74,0.67
			c0.18,0.29,0.27,0.63,0.27,1.02c0,0.43-0.11,0.8-0.32,1.13c-0.22,0.32-0.51,0.56-0.88,0.69l1.29,2.74h-1.24l-1.13-2.58h-0.79v2.58
			H522.68z M523.79,57.86h0.94c0.32,0,0.56-0.08,0.74-0.26s0.27-0.41,0.27-0.71c0-0.31-0.09-0.55-0.27-0.72s-0.42-0.26-0.74-0.26
			h-0.94V57.86z"/>
	</g>
</g>
<g>
	<path class="st9" d="M509,19.35h-3.87c-2.06,0-3.73-1.67-3.73-3.73v-3.87c0-2.06,1.67-3.73,3.73-3.73h3.87
		c2.06,0,3.73,1.67,3.73,3.73v3.87C512.74,17.68,511.07,19.35,509,19.35z"/>
	<g>
		<path class="st3" d="M505.02,16.93v-6.49h2.05c0.43,0,0.81,0.08,1.12,0.24s0.56,0.38,0.74,0.67c0.18,0.29,0.27,0.63,0.27,1.02
			c0,0.43-0.11,0.8-0.32,1.13s-0.51,0.56-0.88,0.69l1.29,2.74h-1.24l-1.13-2.58h-0.79v2.58H505.02z M506.13,13.37h0.94
			c0.32,0,0.56-0.08,0.74-0.26c0.18-0.17,0.27-0.41,0.27-0.71c0-0.31-0.09-0.55-0.27-0.72c-0.18-0.17-0.42-0.26-0.74-0.26h-0.94
			V13.37z"/>
	</g>
</g>
<g>
	<path class="st9" d="M466.5,59.6h-3.87c-2.06,0-3.73-1.67-3.73-3.73V52c0-2.06,1.67-3.73,3.73-3.73h3.87
		c2.06,0,3.73,1.67,3.73,3.73v3.87C470.24,57.93,468.57,59.6,466.5,59.6z"/>
	<g>
		<path class="st3" d="M462.52,57.18v-6.49h2.05c0.43,0,0.81,0.08,1.12,0.24c0.32,0.16,0.56,0.38,0.74,0.67
			c0.18,0.29,0.27,0.63,0.27,1.02c0,0.43-0.11,0.8-0.32,1.13s-0.51,0.56-0.88,0.69l1.29,2.74h-1.24l-1.13-2.58h-0.79v2.58H462.52z
			 M463.63,53.62h0.94c0.32,0,0.56-0.08,0.74-0.26s0.27-0.41,0.27-0.71c0-0.31-0.09-0.55-0.27-0.72s-0.42-0.26-0.74-0.26h-0.94
			V53.62z"/>
	</g>
</g>
<g>
	<path class="st9" d="M689.9,83.03h-3.87c-2.06,0-3.73-1.67-3.73-3.73v-3.87c0-2.06,1.67-3.73,3.73-3.73h3.87
		c2.06,0,3.73,1.67,3.73,3.73v3.87C693.63,81.36,691.96,83.03,689.9,83.03z"/>
	<g>
		<path class="st3" d="M685.91,80.61v-6.49h2.05c0.43,0,0.81,0.08,1.12,0.24s0.56,0.38,0.74,0.67s0.27,0.63,0.27,1.02
			c0,0.43-0.11,0.8-0.32,1.13c-0.22,0.32-0.51,0.56-0.88,0.69l1.29,2.74h-1.24l-1.13-2.58h-0.79v2.58H685.91z M687.02,77.05h0.94
			c0.32,0,0.56-0.08,0.74-0.26c0.18-0.17,0.27-0.41,0.27-0.71c0-0.31-0.09-0.55-0.27-0.72c-0.18-0.17-0.42-0.26-0.74-0.26h-0.94
			V77.05z"/>
	</g>
</g>
<g>
	<path class="st9" d="M459.64,40.89h-3.87c-2.06,0-3.73-1.67-3.73-3.73v-3.87c0-2.06,1.67-3.73,3.73-3.73h3.87
		c2.06,0,3.73,1.67,3.73,3.73v3.87C463.37,39.21,461.7,40.89,459.64,40.89z"/>
	<g>
		<path class="st3" d="M455.66,38.46v-6.49h2.05c0.43,0,0.81,0.08,1.12,0.24c0.32,0.16,0.56,0.38,0.74,0.67
			c0.18,0.29,0.27,0.63,0.27,1.02c0,0.43-0.11,0.8-0.32,1.13s-0.51,0.56-0.88,0.69l1.29,2.74h-1.24l-1.13-2.58h-0.79v2.58H455.66z
			 M456.77,34.91h0.94c0.32,0,0.56-0.08,0.74-0.26s0.27-0.41,0.27-0.71c0-0.31-0.09-0.55-0.27-0.72s-0.42-0.26-0.74-0.26h-0.94
			V34.91z"/>
	</g>
</g>
<g>
	<path class="st8" d="M510.72,86.21h-3.87c-2.06,0-3.73-1.67-3.73-3.73v-3.87c0-2.06,1.67-3.73,3.73-3.73h3.87
		c2.06,0,3.73,1.67,3.73,3.73v3.87C514.46,84.54,512.79,86.21,510.72,86.21z"/>
	<g>
		<path class="st3" d="M507.19,83.79V77.3h1.93c0.44,0,0.82,0.08,1.14,0.25c0.32,0.16,0.57,0.4,0.75,0.7s0.27,0.66,0.27,1.08v2.43
			c0,0.41-0.09,0.76-0.27,1.07s-0.43,0.54-0.75,0.71c-0.32,0.17-0.7,0.25-1.14,0.25H507.19z M508.3,82.77h0.82
			c0.32,0,0.57-0.09,0.76-0.27s0.28-0.43,0.28-0.74v-2.43c0-0.31-0.09-0.55-0.28-0.73s-0.44-0.27-0.76-0.27h-0.82V82.77z"/>
	</g>
</g>
<g>
	<path class="st8" d="M643.28,18.38h-3.87c-2.06,0-3.73-1.67-3.73-3.73v-3.87c0-2.06,1.67-3.73,3.73-3.73h3.87
		c2.06,0,3.73,1.67,3.73,3.73v3.87C647.01,16.7,645.34,18.38,643.28,18.38z"/>
	<g>
		<path class="st3" d="M639.74,15.95V9.46h1.93c0.44,0,0.82,0.08,1.14,0.25c0.32,0.16,0.57,0.4,0.75,0.7s0.27,0.66,0.27,1.08v2.43
			c0,0.41-0.09,0.76-0.27,1.07c-0.18,0.31-0.43,0.54-0.75,0.71c-0.32,0.17-0.7,0.25-1.14,0.25L639.74,15.95z M640.85,14.93h0.82
			c0.32,0,0.57-0.09,0.76-0.27c0.19-0.18,0.28-0.43,0.28-0.74v-2.43c0-0.31-0.09-0.55-0.28-0.73c-0.19-0.18-0.44-0.27-0.76-0.27
			h-0.82V14.93z"/>
	</g>
</g>
<g>
	<path class="st8" d="M417.45,24.87h-3.87c-2.06,0-3.73-1.67-3.73-3.73v-3.87c0-2.06,1.67-3.73,3.73-3.73h3.87
		c2.06,0,3.73,1.67,3.73,3.73v3.87C421.19,23.2,419.52,24.87,417.45,24.87z"/>
	<g>
		<path class="st3" d="M413.91,22.45v-6.49h1.93c0.44,0,0.82,0.08,1.14,0.25c0.32,0.16,0.57,0.4,0.75,0.7
			c0.18,0.3,0.27,0.66,0.27,1.08v2.43c0,0.41-0.09,0.76-0.27,1.07c-0.18,0.31-0.43,0.54-0.75,0.71c-0.32,0.17-0.7,0.25-1.14,0.25
			L413.91,22.45z M415.02,21.42h0.82c0.32,0,0.57-0.09,0.76-0.27c0.19-0.18,0.28-0.43,0.28-0.74v-2.43c0-0.31-0.09-0.55-0.28-0.73
			c-0.19-0.18-0.44-0.27-0.76-0.27h-0.82V21.42z"/>
	</g>
</g>
<g>
	<path class="st8" d="M583.28,93.72h-3.87c-2.06,0-3.73-1.67-3.73-3.73v-3.87c0-2.06,1.67-3.73,3.73-3.73h3.87
		c2.06,0,3.73,1.67,3.73,3.73v3.87C587.02,92.05,585.34,93.72,583.28,93.72z"/>
	<g>
		<path class="st3" d="M579.74,91.3v-6.49h1.93c0.44,0,0.82,0.08,1.14,0.25s0.57,0.4,0.75,0.7s0.27,0.66,0.27,1.08v2.43
			c0,0.41-0.09,0.76-0.27,1.07s-0.43,0.54-0.75,0.71s-0.7,0.25-1.14,0.25L579.74,91.3z M580.85,90.27h0.82
			c0.32,0,0.57-0.09,0.76-0.27s0.28-0.43,0.28-0.74v-2.43c0-0.31-0.09-0.55-0.28-0.73s-0.44-0.27-0.76-0.27h-0.82V90.27z"/>
	</g>
</g>
<g>
	<path class="st8" d="M546.79,55.67h-3.87c-2.06,0-3.73-1.67-3.73-3.73v-3.87c0-2.06,1.67-3.73,3.73-3.73h3.87
		c2.06,0,3.73,1.67,3.73,3.73v3.87C550.53,54,548.86,55.67,546.79,55.67z"/>
	<g>
		<path class="st3" d="M543.25,53.25v-6.49h1.93c0.44,0,0.82,0.08,1.14,0.25c0.32,0.16,0.57,0.4,0.75,0.7
			c0.18,0.3,0.27,0.66,0.27,1.08v2.43c0,0.41-0.09,0.76-0.27,1.07s-0.43,0.54-0.75,0.71c-0.32,0.17-0.7,0.25-1.14,0.25H543.25z
			 M544.36,52.22h0.82c0.32,0,0.57-0.09,0.76-0.27c0.19-0.18,0.28-0.43,0.28-0.74v-2.43c0-0.31-0.09-0.55-0.28-0.73
			c-0.19-0.18-0.44-0.27-0.76-0.27h-0.82V52.22z"/>
	</g>
</g>
<g>
	<path class="st8" d="M532.34,18.38h-3.87c-2.06,0-3.73-1.67-3.73-3.73v-3.87c0-2.06,1.67-3.73,3.73-3.73h3.87
		c2.06,0,3.73,1.67,3.73,3.73v3.87C536.07,16.7,534.4,18.38,532.34,18.38z"/>
	<g>
		<path class="st3" d="M528.8,15.95V9.46h1.93c0.44,0,0.82,0.08,1.14,0.25s0.57,0.4,0.75,0.7s0.27,0.66,0.27,1.08v2.43
			c0,0.41-0.09,0.76-0.27,1.07c-0.18,0.31-0.43,0.54-0.75,0.71c-0.32,0.17-0.7,0.25-1.14,0.25L528.8,15.95z M529.91,14.93h0.82
			c0.32,0,0.57-0.09,0.76-0.27c0.19-0.18,0.28-0.43,0.28-0.74v-2.43c0-0.31-0.09-0.55-0.28-0.73c-0.19-0.18-0.44-0.27-0.76-0.27
			h-0.82V14.93z"/>
	</g>
</g>
<g>
	<path class="st8" d="M511.77,63.84h-3.87c-2.06,0-3.73-1.67-3.73-3.73v-3.87c0-2.06,1.67-3.73,3.73-3.73h3.87
		c2.06,0,3.73,1.67,3.73,3.73v3.87C515.5,62.17,513.83,63.84,511.77,63.84z"/>
	<g>
		<path class="st3" d="M508.23,61.42v-6.49h1.93c0.44,0,0.82,0.08,1.14,0.25c0.32,0.16,0.57,0.4,0.75,0.7
			c0.18,0.3,0.27,0.66,0.27,1.08v2.43c0,0.41-0.09,0.76-0.27,1.07s-0.43,0.54-0.75,0.71c-0.32,0.17-0.7,0.25-1.14,0.25H508.23z
			 M509.34,60.4h0.82c0.32,0,0.57-0.09,0.76-0.27c0.19-0.18,0.28-0.43,0.28-0.74v-2.43c0-0.31-0.09-0.55-0.28-0.73
			c-0.19-0.18-0.44-0.27-0.76-0.27h-0.82V60.4z"/>
	</g>
</g>
<g>
	<path class="st8" d="M491.35,19.2h-3.87c-2.06,0-3.73-1.67-3.73-3.73V11.6c0-2.06,1.67-3.73,3.73-3.73h3.87
		c2.06,0,3.73,1.67,3.73,3.73v3.87C495.08,17.53,493.41,19.2,491.35,19.2z"/>
	<g>
		<path class="st3" d="M487.81,16.78v-6.49h1.93c0.44,0,0.82,0.08,1.14,0.25c0.32,0.16,0.57,0.4,0.75,0.7s0.27,0.66,0.27,1.08v2.43
			c0,0.41-0.09,0.76-0.27,1.07s-0.43,0.54-0.75,0.71c-0.32,0.17-0.7,0.25-1.14,0.25H487.81z M488.92,15.76h0.82
			c0.32,0,0.57-0.09,0.76-0.27c0.19-0.18,0.28-0.43,0.28-0.74v-2.43c0-0.31-0.09-0.55-0.28-0.73c-0.19-0.18-0.44-0.27-0.76-0.27
			h-0.82V15.76z"/>
	</g>
</g>
<g>
	<path class="st9" d="M254.12,35.37h-3.87c-2.06,0-3.73-1.67-3.73-3.73v-3.87c0-2.06,1.67-3.73,3.73-3.73h3.87
		c2.06,0,3.73,1.67,3.73,3.73v3.87C257.85,33.7,256.18,35.37,254.12,35.37z"/>
	<g>
		<path class="st3" d="M250.14,32.95v-6.49h2.05c0.43,0,0.81,0.08,1.12,0.24c0.32,0.16,0.56,0.38,0.74,0.67s0.27,0.63,0.27,1.02
			c0,0.43-0.11,0.8-0.32,1.13s-0.51,0.56-0.88,0.69l1.29,2.74h-1.24l-1.13-2.58h-0.79v2.58H250.14z M251.25,29.39h0.94
			c0.32,0,0.56-0.08,0.74-0.26c0.18-0.17,0.27-0.41,0.27-0.71c0-0.31-0.09-0.55-0.27-0.72s-0.42-0.26-0.74-0.26h-0.94V29.39z"/>
	</g>
</g>
<g>
	<path class="st9" d="M271.34,22.72h-3.87c-2.06,0-3.73-1.67-3.73-3.73v-3.87c0-2.06,1.67-3.73,3.73-3.73h3.87
		c2.06,0,3.73,1.67,3.73,3.73v3.87C275.07,21.04,273.4,22.72,271.34,22.72z"/>
	<g>
		<path class="st3" d="M267.35,20.29V13.8h2.05c0.43,0,0.81,0.08,1.12,0.24s0.56,0.38,0.74,0.67s0.27,0.63,0.27,1.02
			c0,0.43-0.11,0.8-0.32,1.13s-0.51,0.56-0.88,0.69l1.29,2.74h-1.24l-1.13-2.58h-0.79v2.58H267.35z M268.47,16.73h0.94
			c0.32,0,0.56-0.08,0.74-0.26c0.18-0.17,0.27-0.41,0.27-0.71c0-0.31-0.09-0.55-0.27-0.72c-0.18-0.17-0.42-0.26-0.74-0.26h-0.94
			V16.73z"/>
	</g>
</g>
<g>
	<path class="st9" d="M264.67,95.45h-3.87c-2.06,0-3.73-1.67-3.73-3.73v-3.87c0-2.06,1.67-3.73,3.73-3.73h3.87
		c2.06,0,3.73,1.67,3.73,3.73v3.87C268.41,93.78,266.73,95.45,264.67,95.45z"/>
	<g>
		<path class="st3" d="M260.69,93.02v-6.49h2.05c0.43,0,0.81,0.08,1.12,0.24s0.56,0.38,0.74,0.67s0.27,0.63,0.27,1.02
			c0,0.43-0.11,0.8-0.32,1.13s-0.51,0.56-0.88,0.69l1.29,2.74h-1.24l-1.13-2.58h-0.79v2.58H260.69z M261.8,89.47h0.94
			c0.32,0,0.56-0.08,0.74-0.26c0.18-0.17,0.27-0.41,0.27-0.71c0-0.31-0.09-0.55-0.27-0.72c-0.18-0.17-0.42-0.26-0.74-0.26h-0.94
			V89.47z"/>
	</g>
</g>
<g>
	<path class="st8" d="M266.23,48.7h-3.87c-2.06,0-3.73-1.67-3.73-3.73V41.1c0-2.06,1.67-3.73,3.73-3.73h3.87
		c2.06,0,3.73,1.67,3.73,3.73v3.87C269.96,47.03,268.29,48.7,266.23,48.7z"/>
	<g>
		<path class="st3" d="M262.69,46.28v-6.49h1.93c0.44,0,0.82,0.08,1.14,0.25c0.32,0.16,0.57,0.4,0.75,0.7
			c0.18,0.3,0.27,0.66,0.27,1.08v2.43c0,0.41-0.09,0.76-0.27,1.07s-0.43,0.54-0.75,0.71c-0.32,0.17-0.7,0.25-1.14,0.25H262.69z
			 M263.8,45.26h0.82c0.32,0,0.57-0.09,0.76-0.27s0.28-0.43,0.28-0.74v-2.43c0-0.31-0.09-0.55-0.28-0.73s-0.44-0.27-0.76-0.27h-0.82
			V45.26z"/>
	</g>
</g>
<g>
	<path class="st9" d="M285.36,55.24h-3.87c-2.06,0-3.73-1.67-3.73-3.73v-3.87c0-2.06,1.67-3.73,3.73-3.73h3.87
		c2.06,0,3.73,1.67,3.73,3.73v3.87C289.1,53.57,287.42,55.24,285.36,55.24z"/>
	<g>
		<path class="st3" d="M281.38,52.82v-6.49h2.05c0.43,0,0.81,0.08,1.12,0.24c0.32,0.16,0.56,0.38,0.74,0.67
			c0.18,0.29,0.27,0.63,0.27,1.02c0,0.43-0.11,0.8-0.32,1.13s-0.51,0.56-0.88,0.69l1.29,2.74h-1.24l-1.13-2.58h-0.79v2.58H281.38z
			 M282.49,49.26h0.94c0.32,0,0.56-0.08,0.74-0.26s0.27-0.41,0.27-0.71c0-0.31-0.09-0.55-0.27-0.72s-0.42-0.26-0.74-0.26h-0.94
			V49.26z"/>
	</g>
</g>
<g>
	<path class="st9" d="M252.88,69.51h-3.87c-2.06,0-3.73-1.67-3.73-3.73v-3.87c0-2.06,1.67-3.73,3.73-3.73h3.87
		c2.06,0,3.73,1.67,3.73,3.73v3.87C256.62,67.84,254.95,69.51,252.88,69.51z"/>
	<g>
		<path class="st3" d="M248.9,67.09v-6.49h2.05c0.43,0,0.81,0.08,1.12,0.24c0.32,0.16,0.56,0.38,0.74,0.67
			c0.18,0.29,0.27,0.63,0.27,1.02c0,0.43-0.11,0.8-0.32,1.13c-0.22,0.32-0.51,0.56-0.88,0.69l1.29,2.74h-1.24l-1.13-2.58h-0.79v2.58
			H248.9z M250.01,63.53h0.94c0.32,0,0.56-0.08,0.74-0.26c0.18-0.17,0.27-0.41,0.27-0.71c0-0.31-0.09-0.55-0.27-0.72
			c-0.18-0.17-0.42-0.26-0.74-0.26h-0.94V63.53z"/>
	</g>
</g>
<g>
	<path class="st8" d="M269.16,74.93h-3.87c-2.06,0-3.73-1.67-3.73-3.73v-3.87c0-2.06,1.67-3.73,3.73-3.73h3.87
		c2.06,0,3.73,1.67,3.73,3.73v3.87C272.9,73.26,271.23,74.93,269.16,74.93z"/>
	<g>
		<path class="st3" d="M265.62,72.51v-6.49h1.93c0.44,0,0.82,0.08,1.14,0.25s0.57,0.4,0.75,0.7c0.18,0.3,0.27,0.66,0.27,1.08v2.43
			c0,0.41-0.09,0.76-0.27,1.07c-0.18,0.31-0.43,0.54-0.75,0.71c-0.32,0.17-0.7,0.25-1.14,0.25H265.62z M266.74,71.49h0.82
			c0.32,0,0.57-0.09,0.76-0.27s0.28-0.43,0.28-0.74v-2.43c0-0.31-0.09-0.55-0.28-0.73s-0.44-0.27-0.76-0.27h-0.82V71.49z"/>
	</g>
</g>
<g>
	<path class="st9" d="M297.5,42.02h-3.87c-2.06,0-3.73-1.67-3.73-3.73v-3.87c0-2.06,1.67-3.73,3.73-3.73h3.87
		c2.06,0,3.73,1.67,3.73,3.73v3.87C301.23,40.34,299.56,42.02,297.5,42.02z"/>
	<g>
		<path class="st3" d="M293.52,39.59V33.1h2.05c0.43,0,0.81,0.08,1.12,0.24c0.32,0.16,0.56,0.38,0.74,0.67
			c0.18,0.29,0.27,0.63,0.27,1.02c0,0.43-0.11,0.8-0.32,1.13s-0.51,0.56-0.88,0.69l1.29,2.74h-1.24l-1.13-2.58h-0.79v2.58H293.52z
			 M294.63,36.04h0.94c0.32,0,0.56-0.08,0.74-0.26s0.27-0.41,0.27-0.71c0-0.31-0.09-0.55-0.27-0.72s-0.42-0.26-0.74-0.26h-0.94
			V36.04z"/>
	</g>
</g>
<g>
	<path class="st9" d="M290.64,23.3h-3.87c-2.06,0-3.73-1.67-3.73-3.73V15.7c0-2.06,1.67-3.73,3.73-3.73h3.87
		c2.06,0,3.73,1.67,3.73,3.73v3.87C294.37,21.63,292.7,23.3,290.64,23.3z"/>
	<g>
		<path class="st3" d="M286.65,20.88v-6.49h2.05c0.43,0,0.81,0.08,1.12,0.24s0.56,0.38,0.74,0.67c0.18,0.29,0.27,0.63,0.27,1.02
			c0,0.43-0.11,0.8-0.32,1.13s-0.51,0.56-0.88,0.69l1.29,2.74h-1.24l-1.13-2.58h-0.79v2.58H286.65z M287.76,17.32h0.94
			c0.32,0,0.56-0.08,0.74-0.26c0.18-0.17,0.27-0.41,0.27-0.71c0-0.31-0.09-0.55-0.27-0.72c-0.18-0.17-0.42-0.26-0.74-0.26h-0.94
			V17.32z"/>
	</g>
</g>
<g>
	<path class="st8" d="M244.95,55.19h-3.87c-2.06,0-3.73-1.67-3.73-3.73v-3.87c0-2.06,1.67-3.73,3.73-3.73h3.87
		c2.06,0,3.73,1.67,3.73,3.73v3.87C248.69,53.52,247.01,55.19,244.95,55.19z"/>
	<g>
		<path class="st3" d="M241.41,52.77v-6.49h1.93c0.44,0,0.82,0.08,1.14,0.25c0.32,0.16,0.57,0.4,0.75,0.7
			c0.18,0.3,0.27,0.66,0.27,1.08v2.43c0,0.41-0.09,0.76-0.27,1.07c-0.18,0.31-0.43,0.54-0.75,0.71c-0.32,0.17-0.7,0.25-1.14,0.25
			H241.41z M242.52,51.74h0.82c0.32,0,0.57-0.09,0.76-0.27s0.28-0.43,0.28-0.74V48.3c0-0.31-0.09-0.55-0.28-0.73
			s-0.44-0.27-0.76-0.27h-0.82V51.74z"/>
	</g>
</g>
<g>
	<path class="st8" d="M246.84,83.46h-3.87c-2.06,0-3.73-1.67-3.73-3.73v-3.87c0-2.06,1.67-3.73,3.73-3.73h3.87
		c2.06,0,3.73,1.67,3.73,3.73v3.87C250.57,81.78,248.9,83.46,246.84,83.46z"/>
	<g>
		<path class="st3" d="M243.3,81.03v-6.49h1.93c0.44,0,0.82,0.08,1.14,0.25c0.32,0.16,0.57,0.4,0.75,0.7
			c0.18,0.3,0.27,0.66,0.27,1.08V79c0,0.41-0.09,0.76-0.27,1.07c-0.18,0.31-0.43,0.54-0.75,0.71c-0.32,0.17-0.7,0.25-1.14,0.25
			H243.3z M244.41,80.01h0.82c0.32,0,0.57-0.09,0.76-0.27s0.28-0.43,0.28-0.74v-2.43c0-0.31-0.09-0.55-0.28-0.73
			s-0.44-0.27-0.76-0.27h-0.82V80.01z"/>
	</g>
</g>
<g>
	<path class="st2" d="M410.09,43.75h-3.87c-2.06,0-3.73-1.67-3.73-3.73v-3.87c0-2.06,1.67-3.73,3.73-3.73h3.87
		c2.06,0,3.73,1.67,3.73,3.73v3.87C413.83,42.08,412.16,43.75,410.09,43.75z"/>
	<g>
		<path class="st3" d="M406.29,41.33v-0.98h1.31v-4.54h-1.31v-0.98h3.73v0.98h-1.31v4.54h1.31v0.98H406.29z"/>
	</g>
</g>
<g>
	<path class="st1" d="M450.8,55.05h-3.87c-2.06,0-3.73-1.67-3.73-3.73v-3.87c0-2.06,1.67-3.73,3.73-3.73h3.87
		c2.06,0,3.73,1.67,3.73,3.73v3.87C454.54,53.38,452.87,55.05,450.8,55.05z"/>
	<g>
		<path class="st3" d="M447.81,50.67l-0.02-1.78h0.7c0.3,0,0.53-0.08,0.71-0.24c0.18-0.16,0.27-0.37,0.27-0.63
			c0-0.27-0.09-0.48-0.27-0.64s-0.42-0.24-0.72-0.24h-1.32v-1.04h1.27c0.44,0,0.82,0.08,1.14,0.24s0.57,0.38,0.75,0.66
			c0.18,0.28,0.27,0.62,0.27,1.01c0,0.36-0.08,0.68-0.23,0.95c-0.15,0.27-0.36,0.49-0.63,0.65s-0.58,0.24-0.93,0.25v0.8
			C448.79,50.67,447.81,50.67,447.81,50.67z M448.17,52.65c-0.18,0-0.33-0.05-0.44-0.16s-0.17-0.25-0.17-0.42
			c0-0.17,0.06-0.31,0.17-0.42s0.26-0.16,0.44-0.16h0.27c0.18,0,0.33,0.05,0.44,0.16c0.11,0.11,0.16,0.25,0.16,0.43
			c0,0.17-0.06,0.31-0.17,0.42c-0.11,0.11-0.26,0.16-0.44,0.16H448.17z"/>
	</g>
</g>
<g>
	<path class="st8" d="M209.72,19.2h-3.87c-2.06,0-3.73-1.67-3.73-3.73V11.6c0-2.06,1.67-3.73,3.73-3.73h3.87
		c2.06,0,3.73,1.67,3.73,3.73v3.87C213.45,17.53,211.78,19.2,209.72,19.2z"/>
	<g>
		<path class="st3" d="M206.18,16.78v-6.49h1.93c0.44,0,0.82,0.08,1.14,0.25c0.32,0.16,0.57,0.4,0.75,0.7
			c0.18,0.3,0.27,0.66,0.27,1.08v2.43c0,0.41-0.09,0.76-0.27,1.07c-0.18,0.31-0.43,0.54-0.75,0.71c-0.32,0.17-0.7,0.25-1.14,0.25
			H206.18z M207.29,15.76h0.82c0.32,0,0.57-0.09,0.76-0.27c0.19-0.18,0.28-0.43,0.28-0.74v-2.43c0-0.31-0.09-0.55-0.28-0.73
			c-0.19-0.18-0.44-0.27-0.76-0.27h-0.82V15.76z"/>
	</g>
</g>
<g>
	<path class="st9" d="M555.01,88.19h-3.87c-2.06,0-3.73-1.67-3.73-3.73v-3.87c0-2.06,1.67-3.73,3.73-3.73h3.87
		c2.06,0,3.73,1.67,3.73,3.73v3.87C558.74,86.52,557.07,88.19,555.01,88.19z"/>
	<g>
		<path class="st3" d="M551.02,85.77v-6.49h2.05c0.43,0,0.81,0.08,1.12,0.24c0.32,0.16,0.56,0.38,0.74,0.67s0.27,0.63,0.27,1.02
			c0,0.43-0.11,0.8-0.32,1.13c-0.22,0.32-0.51,0.56-0.88,0.69l1.29,2.74h-1.24l-1.13-2.58h-0.79v2.58H551.02z M552.14,82.21h0.94
			c0.32,0,0.56-0.08,0.74-0.26c0.18-0.17,0.27-0.41,0.27-0.71c0-0.31-0.09-0.55-0.27-0.72c-0.18-0.17-0.42-0.26-0.74-0.26h-0.94
			V82.21z"/>
	</g>
</g>
<g>
	<path class="st9" d="M563.87,72.36h-3.87c-2.06,0-3.73-1.67-3.73-3.73v-3.87c0-2.06,1.67-3.73,3.73-3.73h3.87
		c2.06,0,3.73,1.67,3.73,3.73v3.87C567.61,70.69,565.94,72.36,563.87,72.36z"/>
	<g>
		<path class="st3" d="M559.89,69.94v-6.49h2.05c0.43,0,0.81,0.08,1.12,0.24c0.32,0.16,0.56,0.38,0.74,0.67
			c0.18,0.29,0.27,0.63,0.27,1.02c0,0.43-0.11,0.8-0.32,1.13c-0.22,0.32-0.51,0.56-0.88,0.69l1.29,2.74h-1.24l-1.13-2.58H561v2.58
			H559.89z M561,66.38h0.94c0.32,0,0.56-0.08,0.74-0.26c0.18-0.17,0.27-0.41,0.27-0.71c0-0.31-0.09-0.55-0.27-0.72
			c-0.18-0.17-0.42-0.26-0.74-0.26H561V66.38z"/>
	</g>
</g>
<g>
	<path class="st8" d="M587.21,71.38h-3.87c-2.06,0-3.73-1.67-3.73-3.73v-3.87c0-2.06,1.67-3.73,3.73-3.73h3.87
		c2.06,0,3.73,1.67,3.73,3.73v3.87C590.94,69.71,589.27,71.38,587.21,71.38z"/>
	<g>
		<path class="st3" d="M583.67,68.96v-6.49h1.93c0.44,0,0.82,0.08,1.14,0.25c0.32,0.16,0.57,0.4,0.75,0.7
			c0.18,0.3,0.27,0.66,0.27,1.08v2.43c0,0.41-0.09,0.76-0.27,1.07c-0.18,0.31-0.43,0.54-0.75,0.71s-0.7,0.25-1.14,0.25H583.67z
			 M584.78,67.94h0.82c0.32,0,0.57-0.09,0.76-0.27c0.19-0.18,0.28-0.43,0.28-0.74v-2.43c0-0.31-0.09-0.55-0.28-0.73
			c-0.19-0.18-0.44-0.27-0.76-0.27h-0.82V67.94z"/>
	</g>
</g>
<g>
	<path class="st8" d="M546.22,72.21h-3.87c-2.06,0-3.73-1.67-3.73-3.73V64.6c0-2.06,1.67-3.73,3.73-3.73h3.87
		c2.06,0,3.73,1.67,3.73,3.73v3.87C549.95,70.54,548.28,72.21,546.22,72.21z"/>
	<g>
		<path class="st3" d="M542.68,69.78v-6.49h1.93c0.44,0,0.82,0.08,1.14,0.25c0.32,0.16,0.57,0.4,0.75,0.7s0.27,0.66,0.27,1.08v2.43
			c0,0.41-0.09,0.76-0.27,1.07s-0.43,0.54-0.75,0.71c-0.32,0.17-0.7,0.25-1.14,0.25H542.68z M543.79,68.76h0.82
			c0.32,0,0.57-0.09,0.76-0.27c0.19-0.18,0.28-0.43,0.28-0.74v-2.43c0-0.31-0.09-0.55-0.28-0.73c-0.19-0.18-0.44-0.27-0.76-0.27
			h-0.82V68.76z"/>
	</g>
</g>
<g>
	<path class="st9" d="M532.89,49.96h-3.87c-2.06,0-3.73-1.67-3.73-3.73v-3.87c0-2.06,1.67-3.73,3.73-3.73h3.87
		c2.06,0,3.73,1.67,3.73,3.73v3.87C536.63,48.29,534.96,49.96,532.89,49.96z"/>
	<g>
		<path class="st3" d="M528.91,47.54v-6.49h2.05c0.43,0,0.81,0.08,1.12,0.24c0.32,0.16,0.56,0.38,0.74,0.67
			c0.18,0.29,0.27,0.63,0.27,1.02c0,0.43-0.11,0.8-0.32,1.13c-0.22,0.32-0.51,0.56-0.88,0.69l1.29,2.74h-1.24l-1.13-2.58h-0.79v2.58
			H528.91z M530.02,43.98h0.94c0.32,0,0.56-0.08,0.74-0.26s0.27-0.41,0.27-0.71c0-0.31-0.09-0.55-0.27-0.72s-0.42-0.26-0.74-0.26
			h-0.94V43.98z"/>
	</g>
</g>
<g>
	<path class="st9" d="M541.76,34.13h-3.87c-2.06,0-3.73-1.67-3.73-3.73v-3.87c0-2.06,1.67-3.73,3.73-3.73h3.87
		c2.06,0,3.73,1.67,3.73,3.73v3.87C545.49,32.46,543.82,34.13,541.76,34.13z"/>
	<g>
		<path class="st3" d="M537.78,31.7v-6.49h2.05c0.43,0,0.81,0.08,1.12,0.24c0.32,0.16,0.56,0.38,0.74,0.67
			c0.18,0.29,0.27,0.63,0.27,1.02c0,0.43-0.11,0.8-0.32,1.13c-0.22,0.32-0.51,0.56-0.88,0.69l1.29,2.74h-1.24l-1.13-2.58h-0.79v2.58
			H537.78z M538.89,28.15h0.94c0.32,0,0.56-0.08,0.74-0.26s0.27-0.41,0.27-0.71c0-0.31-0.09-0.55-0.27-0.72s-0.42-0.26-0.74-0.26
			h-0.94V28.15z"/>
	</g>
</g>
<g>
	<path class="st8" d="M565.09,33.15h-3.87c-2.06,0-3.73-1.67-3.73-3.73v-3.87c0-2.06,1.67-3.73,3.73-3.73h3.87
		c2.06,0,3.73,1.67,3.73,3.73v3.87C568.83,31.48,567.15,33.15,565.09,33.15z"/>
	<g>
		<path class="st3" d="M561.55,30.73v-6.49h1.93c0.44,0,0.82,0.08,1.14,0.25c0.32,0.16,0.57,0.4,0.75,0.7
			c0.18,0.3,0.27,0.66,0.27,1.08v2.43c0,0.41-0.09,0.76-0.27,1.07s-0.43,0.54-0.75,0.71s-0.7,0.25-1.14,0.25H561.55z M562.66,29.7
			h0.82c0.32,0,0.57-0.09,0.76-0.27s0.28-0.43,0.28-0.74v-2.43c0-0.31-0.09-0.55-0.28-0.73c-0.19-0.18-0.44-0.27-0.76-0.27h-0.82
			V29.7z"/>
	</g>
</g>
<g>
	<path class="st8" d="M524.1,33.97h-3.87c-2.06,0-3.73-1.67-3.73-3.73v-3.87c0-2.06,1.67-3.73,3.73-3.73h3.87
		c2.06,0,3.73,1.67,3.73,3.73v3.87C527.84,32.3,526.16,33.97,524.1,33.97z"/>
	<g>
		<path class="st3" d="M520.56,31.55v-6.49h1.93c0.44,0,0.82,0.08,1.14,0.25c0.32,0.16,0.57,0.4,0.75,0.7
			c0.18,0.3,0.27,0.66,0.27,1.08v2.43c0,0.41-0.09,0.76-0.27,1.07s-0.43,0.54-0.75,0.71c-0.32,0.17-0.7,0.25-1.14,0.25H520.56z
			 M521.67,30.53h0.82c0.32,0,0.57-0.09,0.76-0.27c0.19-0.18,0.28-0.43,0.28-0.74v-2.43c0-0.31-0.09-0.55-0.28-0.73
			c-0.19-0.18-0.44-0.27-0.76-0.27h-0.82V30.53z"/>
	</g>
</g>
<g>
	<path class="st9" d="M649.74,51.95h-3.87c-2.06,0-3.73-1.67-3.73-3.73v-3.87c0-2.06,1.67-3.73,3.73-3.73h3.87
		c2.06,0,3.73,1.67,3.73,3.73v3.87C653.48,50.28,651.8,51.95,649.74,51.95z"/>
	<g>
		<path class="st3" d="M645.76,49.52v-6.49h2.05c0.43,0,0.81,0.08,1.12,0.24s0.56,0.38,0.74,0.67s0.27,0.63,0.27,1.02
			c0,0.43-0.11,0.8-0.32,1.13c-0.22,0.32-0.51,0.56-0.88,0.69l1.29,2.74h-1.24l-1.13-2.58h-0.79v2.58H645.76z M646.87,45.97h0.94
			c0.32,0,0.56-0.08,0.74-0.26s0.27-0.41,0.27-0.71c0-0.31-0.09-0.55-0.27-0.72s-0.42-0.26-0.74-0.26h-0.94V45.97z"/>
	</g>
</g>
<g>
	<path class="st9" d="M658.61,36.12h-3.87c-2.06,0-3.73-1.67-3.73-3.73v-3.87c0-2.06,1.67-3.73,3.73-3.73h3.87
		c2.06,0,3.73,1.67,3.73,3.73v3.87C662.34,34.44,660.67,36.12,658.61,36.12z"/>
	<g>
		<path class="st3" d="M654.62,33.69V27.2h2.05c0.43,0,0.81,0.08,1.12,0.24c0.32,0.16,0.56,0.38,0.74,0.67s0.27,0.63,0.27,1.02
			c0,0.43-0.11,0.8-0.32,1.13c-0.22,0.32-0.51,0.56-0.88,0.69l1.29,2.74h-1.24l-1.13-2.58h-0.79v2.58H654.62z M655.73,30.14h0.94
			c0.32,0,0.56-0.08,0.74-0.26s0.27-0.41,0.27-0.71c0-0.31-0.09-0.55-0.27-0.72s-0.42-0.26-0.74-0.26h-0.94V30.14z"/>
	</g>
</g>
<g>
	<path class="st8" d="M681.94,35.14h-3.87c-2.06,0-3.73-1.67-3.73-3.73v-3.87c0-2.06,1.67-3.73,3.73-3.73h3.87
		c2.06,0,3.73,1.67,3.73,3.73v3.87C685.67,33.47,684,35.14,681.94,35.14z"/>
	<g>
		<path class="st3" d="M678.4,32.71v-6.49h1.93c0.44,0,0.82,0.08,1.14,0.25c0.32,0.16,0.57,0.4,0.75,0.7
			c0.18,0.3,0.27,0.66,0.27,1.08v2.43c0,0.41-0.09,0.76-0.27,1.07c-0.18,0.31-0.43,0.54-0.75,0.71c-0.32,0.17-0.7,0.25-1.14,0.25
			H678.4z M679.51,31.69h0.82c0.32,0,0.57-0.09,0.76-0.27c0.19-0.18,0.28-0.43,0.28-0.74v-2.43c0-0.31-0.09-0.55-0.28-0.73
			c-0.19-0.18-0.44-0.27-0.76-0.27h-0.82V31.69z"/>
	</g>
</g>
<g>
	<path class="st8" d="M640.95,35.96h-3.87c-2.06,0-3.73-1.67-3.73-3.73v-3.87c0-2.06,1.67-3.73,3.73-3.73h3.87
		c2.06,0,3.73,1.67,3.73,3.73v3.87C644.68,34.29,643.01,35.96,640.95,35.96z"/>
	<g>
		<path class="st3" d="M637.41,33.54v-6.49h1.93c0.44,0,0.82,0.08,1.14,0.25c0.32,0.16,0.57,0.4,0.75,0.7
			c0.18,0.3,0.27,0.66,0.27,1.08v2.43c0,0.41-0.09,0.76-0.27,1.07s-0.43,0.54-0.75,0.71c-0.32,0.17-0.7,0.25-1.14,0.25H637.41z
			 M638.52,32.52h0.82c0.32,0,0.57-0.09,0.76-0.27c0.19-0.18,0.28-0.43,0.28-0.74v-2.43c0-0.31-0.09-0.55-0.28-0.73
			c-0.19-0.18-0.44-0.27-0.76-0.27h-0.82V32.52z"/>
	</g>
</g>
<g>
	<path class="st9" d="M654.56,84.39h-3.87c-2.06,0-3.73-1.67-3.73-3.73v-3.87c0-2.06,1.67-3.73,3.73-3.73h3.87
		c2.06,0,3.73,1.67,3.73,3.73v3.87C658.3,82.72,656.62,84.39,654.56,84.39z"/>
	<g>
		<path class="st3" d="M650.58,81.97v-6.49h2.05c0.43,0,0.81,0.08,1.12,0.24c0.32,0.16,0.56,0.38,0.74,0.67
			c0.18,0.29,0.27,0.63,0.27,1.02c0,0.43-0.11,0.8-0.32,1.13c-0.22,0.32-0.51,0.56-0.88,0.69l1.29,2.74h-1.24l-1.13-2.58h-0.79v2.58
			H650.58z M651.69,78.41h0.94c0.32,0,0.56-0.08,0.74-0.26c0.18-0.17,0.27-0.41,0.27-0.71c0-0.31-0.09-0.55-0.27-0.72
			c-0.18-0.17-0.42-0.26-0.74-0.26h-0.94V78.41z"/>
	</g>
</g>
<g>
	<path class="st9" d="M663.43,68.56h-3.87c-2.06,0-3.73-1.67-3.73-3.73v-3.87c0-2.06,1.67-3.73,3.73-3.73h3.87
		c2.06,0,3.73,1.67,3.73,3.73v3.87C667.16,66.89,665.49,68.56,663.43,68.56z"/>
	<g>
		<path class="st3" d="M659.44,66.14v-6.49h2.05c0.43,0,0.81,0.08,1.12,0.24c0.32,0.16,0.56,0.38,0.74,0.67
			c0.18,0.29,0.27,0.63,0.27,1.02c0,0.43-0.11,0.8-0.32,1.13c-0.22,0.32-0.51,0.56-0.88,0.69l1.29,2.74h-1.24l-1.13-2.58h-0.79v2.58
			H659.44z M660.55,62.58h0.94c0.32,0,0.56-0.08,0.74-0.26s0.27-0.41,0.27-0.71c0-0.31-0.09-0.55-0.27-0.72s-0.42-0.26-0.74-0.26
			h-0.94V62.58z"/>
	</g>
</g>
<g>
	<path class="st8" d="M686.76,67.58h-3.87c-2.06,0-3.73-1.67-3.73-3.73v-3.87c0-2.06,1.67-3.73,3.73-3.73h3.87
		c2.06,0,3.73,1.67,3.73,3.73v3.87C690.49,65.91,688.82,67.58,686.76,67.58z"/>
	<g>
		<path class="st3" d="M683.22,65.16v-6.49h1.93c0.44,0,0.82,0.08,1.14,0.25s0.57,0.4,0.75,0.7c0.18,0.3,0.27,0.66,0.27,1.08v2.43
			c0,0.41-0.09,0.76-0.27,1.07s-0.43,0.54-0.75,0.71s-0.7,0.25-1.14,0.25L683.22,65.16z M684.33,64.13h0.82
			c0.32,0,0.57-0.09,0.76-0.27c0.19-0.18,0.28-0.43,0.28-0.74v-2.43c0-0.31-0.09-0.55-0.28-0.73c-0.19-0.18-0.44-0.27-0.76-0.27
			h-0.82V64.13z"/>
	</g>
</g>
<g>
	<path class="st8" d="M645.77,68.41h-3.87c-2.06,0-3.73-1.67-3.73-3.73V60.8c0-2.06,1.67-3.73,3.73-3.73h3.87
		c2.06,0,3.73,1.67,3.73,3.73v3.87C649.5,66.73,647.83,68.41,645.77,68.41z"/>
	<g>
		<path class="st3" d="M642.23,65.98v-6.49h1.93c0.44,0,0.82,0.08,1.14,0.25s0.57,0.4,0.75,0.7s0.27,0.66,0.27,1.08v2.43
			c0,0.41-0.09,0.76-0.27,1.07s-0.43,0.54-0.75,0.71s-0.7,0.25-1.14,0.25H642.23z M643.34,64.96h0.82c0.32,0,0.57-0.09,0.76-0.27
			c0.19-0.18,0.28-0.43,0.28-0.74v-2.43c0-0.31-0.09-0.55-0.28-0.73c-0.19-0.18-0.44-0.27-0.76-0.27h-0.82V64.96z"/>
	</g>
</g>
<g>
	<path class="st8" d="M570.76,53.93h-3.87c-2.06,0-3.73-1.67-3.73-3.73v-3.87c0-2.06,1.67-3.73,3.73-3.73h3.87
		c2.06,0,3.73,1.67,3.73,3.73v3.87C574.5,52.26,572.83,53.93,570.76,53.93z"/>
	<g>
		<path class="st3" d="M567.22,51.51v-6.49h1.93c0.44,0,0.82,0.08,1.14,0.25s0.57,0.4,0.75,0.7c0.18,0.3,0.27,0.66,0.27,1.08v2.43
			c0,0.41-0.09,0.76-0.27,1.07c-0.18,0.31-0.43,0.54-0.75,0.71c-0.32,0.17-0.7,0.25-1.14,0.25L567.22,51.51z M568.33,50.48h0.82
			c0.32,0,0.57-0.09,0.76-0.27c0.19-0.18,0.28-0.43,0.28-0.74v-2.43c0-0.31-0.09-0.55-0.28-0.73c-0.19-0.18-0.44-0.27-0.76-0.27
			h-0.82V50.48z"/>
	</g>
</g>
<g>
	<path class="st8" d="M676.29,52.64h-3.87c-2.06,0-3.73-1.67-3.73-3.73v-3.87c0-2.06,1.67-3.73,3.73-3.73h3.87
		c2.06,0,3.73,1.67,3.73,3.73v3.87C680.03,50.97,678.36,52.64,676.29,52.64z"/>
	<g>
		<path class="st3" d="M672.75,50.22v-6.49h1.93c0.44,0,0.82,0.08,1.14,0.25s0.57,0.4,0.75,0.7c0.18,0.3,0.27,0.66,0.27,1.08v2.43
			c0,0.41-0.09,0.76-0.27,1.07s-0.43,0.54-0.75,0.71c-0.32,0.17-0.7,0.25-1.14,0.25H672.75z M673.87,49.19h0.82
			c0.32,0,0.57-0.09,0.76-0.27c0.19-0.18,0.28-0.43,0.28-0.74v-2.43c0-0.31-0.09-0.55-0.28-0.73c-0.19-0.18-0.44-0.27-0.76-0.27
			h-0.82V49.19z"/>
	</g>
</g>
<g>
	<path class="st9" d="M573.25,18.38h-3.87c-2.06,0-3.73-1.67-3.73-3.73v-3.87c0-2.06,1.67-3.73,3.73-3.73h3.87
		c2.06,0,3.73,1.67,3.73,3.73v3.87C576.98,16.7,575.31,18.38,573.25,18.38z"/>
	<g>
		<path class="st3" d="M569.26,15.95V9.46h2.05c0.43,0,0.81,0.08,1.12,0.24c0.32,0.16,0.56,0.38,0.74,0.67
			c0.18,0.29,0.27,0.63,0.27,1.02c0,0.43-0.11,0.8-0.32,1.13c-0.22,0.32-0.51,0.56-0.88,0.69l1.29,2.74h-1.24l-1.13-2.58h-0.79v2.58
			H569.26z M570.37,12.4h0.94c0.32,0,0.56-0.08,0.74-0.26c0.18-0.17,0.27-0.41,0.27-0.71c0-0.31-0.09-0.55-0.27-0.72
			c-0.18-0.17-0.42-0.26-0.74-0.26h-0.94V12.4z"/>
	</g>
</g>
<g>
	<path class="st9" d="M674.16,96.22h-3.87c-2.06,0-3.73-1.67-3.73-3.73v-3.87c0-2.06,1.67-3.73,3.73-3.73h3.87
		c2.06,0,3.73,1.67,3.73,3.73v3.87C677.9,94.55,676.22,96.22,674.16,96.22z"/>
	<g>
		<path class="st3" d="M670.18,93.8v-6.49h2.05c0.43,0,0.81,0.08,1.12,0.24s0.56,0.38,0.74,0.67c0.18,0.29,0.27,0.63,0.27,1.02
			c0,0.43-0.11,0.8-0.32,1.13c-0.22,0.32-0.51,0.56-0.88,0.69l1.29,2.74h-1.24l-1.13-2.58h-0.79v2.58H670.18z M671.29,90.24h0.94
			c0.32,0,0.56-0.08,0.74-0.26c0.18-0.17,0.27-0.41,0.27-0.71c0-0.31-0.09-0.55-0.27-0.72c-0.18-0.17-0.42-0.26-0.74-0.26h-0.94
			V90.24z"/>
	</g>
</g>
<g>
	<path class="st8" d="M513.14,50.66h-3.87c-2.06,0-3.73-1.67-3.73-3.73v-3.87c0-2.06,1.67-3.73,3.73-3.73h3.87
		c2.06,0,3.73,1.67,3.73,3.73v3.87C516.87,48.99,515.2,50.66,513.14,50.66z"/>
	<g>
		<path class="st3" d="M509.6,48.24v-6.49h1.93c0.44,0,0.82,0.08,1.14,0.25s0.57,0.4,0.75,0.7c0.18,0.3,0.27,0.66,0.27,1.08v2.43
			c0,0.41-0.09,0.76-0.27,1.07c-0.18,0.31-0.43,0.54-0.75,0.71c-0.32,0.17-0.7,0.25-1.14,0.25H509.6z M510.71,47.21h0.82
			c0.32,0,0.57-0.09,0.76-0.27c0.19-0.18,0.28-0.43,0.28-0.74v-2.43c0-0.31-0.09-0.55-0.28-0.73c-0.19-0.18-0.44-0.27-0.76-0.27
			h-0.82V47.21z"/>
	</g>
</g>
<g>
	<path class="st8" d="M674.16,80.76h-3.87c-2.06,0-3.73-1.67-3.73-3.73v-3.87c0-2.06,1.67-3.73,3.73-3.73h3.87
		c2.06,0,3.73,1.67,3.73,3.73v3.87C677.9,79.09,676.22,80.76,674.16,80.76z"/>
	<g>
		<path class="st3" d="M670.62,78.34v-6.49h1.93c0.44,0,0.82,0.08,1.14,0.25s0.57,0.4,0.75,0.7c0.18,0.3,0.27,0.66,0.27,1.08v2.43
			c0,0.41-0.09,0.76-0.27,1.07c-0.18,0.31-0.43,0.54-0.75,0.71c-0.32,0.17-0.7,0.25-1.14,0.25H670.62z M671.73,77.32h0.82
			c0.32,0,0.57-0.09,0.76-0.27c0.19-0.18,0.28-0.43,0.28-0.74v-2.43c0-0.31-0.09-0.55-0.28-0.73c-0.19-0.18-0.44-0.27-0.76-0.27
			h-0.82V77.32z"/>
	</g>
</g>
</svg>
