<?xml version="1.0" encoding="utf-8"?>
<!-- Generator: Adobe Illustrator 24.1.0, SVG Export Plug-In . SVG Version: 6.00 Build 0)  -->
<svg version="1.1" id="Layer_1" xmlns="http://www.w3.org/2000/svg" xmlns:xlink="http://www.w3.org/1999/xlink" x="0px" y="0px"
	 viewBox="0 0 600 200" style="enable-background:new 0 0 600 200;" xml:space="preserve">
<style type="text/css">
	.st0{fill:#FF6666;}
	.st1{fill:#FFFFFF;}
	.st2{fill:#339AFF;}
</style>
<g>
	<path d="M152,111.72v-3.37l6.34-6.37c0.89-0.91,1.55-1.73,1.97-2.46s0.64-1.49,0.64-2.27c0-0.95-0.26-1.68-0.78-2.21
		c-0.52-0.53-1.22-0.79-2.11-0.79c-0.98,0-1.75,0.28-2.31,0.85c-0.56,0.57-0.83,1.35-0.83,2.35h-3.48c0.02-1.3,0.3-2.42,0.85-3.35
		s1.32-1.66,2.32-2.18s2.17-0.78,3.5-0.78c1.28,0,2.39,0.24,3.34,0.72s1.68,1.16,2.2,2.03c0.52,0.87,0.78,1.91,0.78,3.12
		c0,1.24-0.32,2.45-0.96,3.63s-1.66,2.44-3.07,3.8l-4.23,4.14h8.51v3.14H152z"/>
	<path d="M174.84,112c-1.32,0-2.46-0.25-3.42-0.75c-0.96-0.5-1.71-1.21-2.24-2.11c-0.53-0.91-0.79-1.97-0.79-3.2v-8.73
		c0-1.22,0.26-2.29,0.79-3.2s1.27-1.61,2.24-2.11c0.96-0.5,2.1-0.75,3.42-0.75c1.34,0,2.48,0.25,3.44,0.75
		c0.96,0.5,1.7,1.21,2.23,2.11c0.53,0.91,0.79,1.97,0.79,3.2v8.73c0,1.22-0.26,2.29-0.79,3.2c-0.53,0.91-1.27,1.61-2.24,2.11
		C177.29,111.75,176.15,112,174.84,112z M174.84,109c0.96,0,1.73-0.28,2.31-0.83c0.57-0.56,0.86-1.3,0.86-2.22v-8.73
		c0-0.93-0.29-1.67-0.86-2.22c-0.57-0.56-1.34-0.83-2.31-0.83c-0.96,0-1.73,0.28-2.31,0.83c-0.57,0.56-0.86,1.3-0.86,2.22v8.73
		c0,0.93,0.29,1.67,0.86,2.22C173.1,108.72,173.87,109,174.84,109z M174.84,103.38c-0.54,0-0.98-0.18-1.32-0.53
		c-0.34-0.35-0.51-0.81-0.51-1.36c0-0.56,0.17-1,0.5-1.34c0.33-0.33,0.78-0.5,1.33-0.5c0.56,0,1,0.17,1.34,0.5
		c0.33,0.33,0.5,0.78,0.5,1.34c0,0.56-0.17,1.01-0.5,1.36C175.84,103.2,175.39,103.38,174.84,103.38z"/>
	<path d="M185.38,111.72v-3.37l6.34-6.37c0.89-0.91,1.55-1.73,1.97-2.46s0.64-1.49,0.64-2.27c0-0.95-0.26-1.68-0.78-2.21
		c-0.52-0.53-1.22-0.79-2.11-0.79c-0.98,0-1.75,0.28-2.31,0.85c-0.56,0.57-0.83,1.35-0.83,2.35h-3.48c0.02-1.3,0.3-2.42,0.85-3.35
		s1.32-1.66,2.32-2.18s2.17-0.78,3.5-0.78c1.28,0,2.39,0.24,3.34,0.72s1.68,1.16,2.2,2.03c0.52,0.87,0.78,1.91,0.78,3.12
		c0,1.24-0.32,2.45-0.96,3.63s-1.66,2.44-3.07,3.8l-4.23,4.14h8.51v3.14H185.38z"/>
	<path d="M202.07,111.72v-3.37l6.34-6.37c0.89-0.91,1.55-1.73,1.97-2.46s0.64-1.49,0.64-2.27c0-0.95-0.26-1.68-0.78-2.21
		c-0.52-0.53-1.22-0.79-2.11-0.79c-0.98,0-1.75,0.28-2.31,0.85c-0.56,0.57-0.83,1.35-0.83,2.35h-3.48c0.02-1.3,0.3-2.42,0.85-3.35
		s1.32-1.66,2.32-2.18s2.17-0.78,3.5-0.78c1.28,0,2.39,0.24,3.34,0.72s1.68,1.16,2.2,2.03c0.52,0.87,0.78,1.91,0.78,3.12
		c0,1.24-0.32,2.45-0.96,3.63s-1.66,2.44-3.07,3.8l-4.23,4.14h8.51v3.14H202.07z"/>
	<path d="M236.11,111.72v-20.3h3.48v17.08h8.62v3.23H236.11z"/>
	<path d="M252.05,111.72v-3.17h5.34v-8.98h-4.64v-3.14h7.98v12.13h4.73v3.17H252.05z M258.78,93.87c-0.71,0-1.26-0.18-1.67-0.54
		c-0.41-0.36-0.61-0.85-0.61-1.46c0-0.61,0.2-1.1,0.61-1.46c0.41-0.36,0.96-0.54,1.67-0.54c0.7,0,1.26,0.18,1.67,0.54
		c0.41,0.36,0.61,0.85,0.61,1.46c0,0.61-0.2,1.1-0.61,1.46C260.04,93.69,259.48,93.87,258.78,93.87z"/>
	<path d="M272.74,111.72l-5.03-15.3h3.56l2.92,9.29c0.17,0.56,0.33,1.13,0.49,1.72c0.16,0.59,0.27,1.07,0.35,1.42
		c0.09-0.35,0.21-0.82,0.36-1.42s0.3-1.16,0.45-1.7l2.86-9.32h3.53l-5.01,15.3H272.74z"/>
	<path d="M291.68,112c-1.3,0-2.43-0.25-3.39-0.75c-0.96-0.5-1.71-1.2-2.24-2.1c-0.53-0.9-0.79-1.95-0.79-3.16v-3.84
		c0-1.21,0.26-2.26,0.79-3.16c0.53-0.9,1.28-1.6,2.24-2.1s2.1-0.75,3.39-0.75c1.28,0,2.4,0.25,3.35,0.75s1.7,1.2,2.23,2.1
		c0.53,0.9,0.79,1.95,0.79,3.16v2.75h-9.43V106c0,1.08,0.26,1.89,0.78,2.43c0.52,0.55,1.29,0.82,2.31,0.82
		c0.78,0,1.41-0.13,1.89-0.4c0.48-0.27,0.79-0.66,0.92-1.18h3.42c-0.26,1.32-0.96,2.37-2.1,3.16C294.7,111.61,293.32,112,291.68,112
		z M294.69,102.96v-0.83c0-1.06-0.25-1.87-0.75-2.43s-1.25-0.85-2.25-0.85c-1,0-1.76,0.29-2.28,0.86c-0.52,0.58-0.78,1.39-0.78,2.45
		v0.58l6.31-0.06L294.69,102.96z"/>
	<path d="M318.91,111.72v-20.3h12.63v3.23h-9.21v5.42h8.48v3.23h-8.43v8.43H318.91z"/>
	<path d="M341.72,111.97c-1.3,0-2.42-0.25-3.38-0.74c-0.96-0.49-1.7-1.19-2.23-2.09c-0.53-0.9-0.79-1.96-0.79-3.18v-3.78
		c0-1.22,0.26-2.29,0.79-3.19c0.53-0.9,1.27-1.59,2.23-2.09c0.96-0.49,2.08-0.74,3.38-0.74c1.32,0,2.45,0.25,3.39,0.74
		c0.95,0.49,1.68,1.19,2.21,2.09c0.53,0.9,0.79,1.95,0.79,3.16v3.81c0,1.22-0.26,2.29-0.79,3.18c-0.53,0.9-1.27,1.6-2.21,2.09
		C344.17,111.73,343.04,111.97,341.72,111.97z M341.72,108.94c0.93,0,1.65-0.25,2.16-0.76s0.76-1.25,0.76-2.21v-3.78
		c0-0.98-0.25-1.72-0.76-2.23s-1.23-0.75-2.16-0.75c-0.91,0-1.62,0.25-2.14,0.75c-0.52,0.5-0.78,1.24-0.78,2.23v3.78
		c0,0.96,0.26,1.7,0.78,2.21C340.1,108.69,340.81,108.94,341.72,108.94z"/>
	<path d="M352.68,111.72v-15.3h3.28v2.92h0.86l-1.03,1.78c0-1.65,0.37-2.89,1.11-3.73c0.74-0.83,1.83-1.25,3.28-1.25
		c1.65,0,2.95,0.51,3.89,1.53s1.42,2.43,1.42,4.23v1.11h-3.64v-0.86c0-0.98-0.25-1.74-0.76-2.28s-1.21-0.81-2.1-0.81
		c-0.91,0-1.61,0.27-2.1,0.81s-0.74,1.3-0.74,2.28v9.57H352.68z"/>
	<path d="M375.13,112c-1.3,0-2.43-0.25-3.39-0.75c-0.96-0.5-1.71-1.2-2.24-2.1c-0.53-0.9-0.79-1.95-0.79-3.16v-3.84
		c0-1.21,0.26-2.26,0.79-3.16c0.53-0.9,1.28-1.6,2.24-2.1s2.1-0.75,3.39-0.75c1.28,0,2.4,0.25,3.35,0.75s1.7,1.2,2.23,2.1
		c0.53,0.9,0.79,1.95,0.79,3.16v2.75h-9.43V106c0,1.08,0.26,1.89,0.78,2.43c0.52,0.55,1.29,0.82,2.31,0.82
		c0.78,0,1.41-0.13,1.89-0.4c0.48-0.27,0.79-0.66,0.92-1.18h3.42c-0.26,1.32-0.96,2.37-2.1,3.16
		C378.14,111.61,376.76,112,375.13,112z M378.13,102.96v-0.83c0-1.06-0.25-1.87-0.75-2.43s-1.25-0.85-2.25-0.85
		s-1.76,0.29-2.28,0.86c-0.52,0.58-0.78,1.39-0.78,2.45v0.58l6.31-0.06L378.13,102.96z"/>
	<path d="M391.87,112c-1.3,0-2.43-0.25-3.41-0.74s-1.73-1.19-2.27-2.09c-0.54-0.9-0.81-1.96-0.81-3.18v-3.84
		c0-1.24,0.27-2.31,0.81-3.2c0.54-0.89,1.29-1.58,2.27-2.07s2.11-0.74,3.41-0.74c1.93,0,3.47,0.5,4.62,1.49s1.75,2.34,1.81,4.05
		h-3.48c-0.06-0.8-0.34-1.41-0.85-1.85s-1.21-0.65-2.1-0.65c-0.93,0-1.66,0.25-2.2,0.76c-0.54,0.51-0.81,1.24-0.81,2.18V106
		c0,0.95,0.27,1.68,0.81,2.2c0.54,0.52,1.27,0.78,2.2,0.78c0.89,0,1.59-0.22,2.1-0.65s0.79-1.05,0.85-1.85h3.48
		c-0.06,1.71-0.66,3.05-1.81,4.05S393.8,112,391.87,112z"/>
	<path d="M406.78,112c-1.58,0-2.82-0.42-3.73-1.25c-0.91-0.83-1.36-1.96-1.36-3.37c0-1.5,0.5-2.66,1.5-3.48
		c1-0.82,2.42-1.22,4.26-1.22h3.81v-1.31c0-0.74-0.24-1.32-0.72-1.74c-0.48-0.42-1.14-0.63-1.97-0.63c-0.76,0-1.39,0.17-1.89,0.5
		c-0.5,0.33-0.8,0.79-0.89,1.36h-3.39c0.17-1.45,0.82-2.6,1.95-3.45c1.13-0.85,2.58-1.28,4.34-1.28c1.87,0,3.35,0.47,4.44,1.4
		c1.08,0.94,1.63,2.2,1.63,3.8v10.38h-3.37v-2.67h-0.56l0.56-0.75c0,1.13-0.42,2.03-1.25,2.7C409.28,111.67,408.17,112,406.78,112z
		 M407.92,109.39c0.98,0,1.78-0.25,2.41-0.75c0.62-0.5,0.93-1.15,0.93-1.95v-1.86h-3.75c-0.71,0-1.27,0.21-1.7,0.61
		c-0.43,0.41-0.64,0.95-0.64,1.61c0,0.72,0.25,1.29,0.74,1.71C406.39,109.18,407.07,109.39,407.92,109.39z"/>
	<path d="M424.58,111.97c-1.17,0-2.19-0.19-3.06-0.56c-0.87-0.37-1.55-0.89-2.04-1.54s-0.76-1.43-0.79-2.32h3.48
		c0.04,0.48,0.27,0.87,0.71,1.17c0.44,0.3,1.01,0.45,1.71,0.45h1.22c0.85,0,1.49-0.17,1.92-0.5s0.64-0.79,0.64-1.36
		c0-0.54-0.19-0.96-0.57-1.27c-0.38-0.31-0.97-0.5-1.77-0.6l-1.89-0.28c-1.74-0.24-3.02-0.7-3.84-1.39
		c-0.82-0.69-1.22-1.71-1.22-3.09c0-1.43,0.48-2.54,1.45-3.32s2.38-1.18,4.26-1.18h1.06c1.71,0,3.07,0.38,4.09,1.14
		c1.02,0.76,1.57,1.78,1.64,3.06h-3.48c-0.06-0.41-0.28-0.74-0.68-1c-0.4-0.26-0.92-0.39-1.57-0.39h-1.06
		c-0.8,0-1.38,0.14-1.74,0.43c-0.36,0.29-0.54,0.71-0.54,1.27c0,0.52,0.16,0.9,0.47,1.15c0.31,0.25,0.82,0.43,1.53,0.54l1.97,0.28
		c1.82,0.26,3.16,0.75,4.02,1.46s1.29,1.77,1.29,3.16c0,1.48-0.5,2.64-1.52,3.46s-2.5,1.24-4.46,1.24H424.58z"/>
	<path d="M443.52,111.72c-1.47,0-2.61-0.41-3.44-1.22s-1.24-1.94-1.24-3.37v-7.57h-4.14v-3.14h4.14v-4.31h3.5v4.31h5.87v3.14h-5.87
		v7.57c0,0.96,0.47,1.45,1.42,1.45h4.17v3.14H443.52z"/>
</g>
<g>
	<path class="st0" d="M71.72,152.13h-8.7c-4.64,0-8.4-3.76-8.4-8.4v-8.7c0-4.64,3.76-8.4,8.4-8.4h8.71c4.64,0,8.4,3.76,8.4,8.4v8.71
		C80.12,148.37,76.36,152.13,71.72,152.13z"/>
	<g>
		<path class="st1" d="M62.76,146.68v-14.6h4.62c0.97,0,1.82,0.18,2.53,0.54s1.27,0.86,1.67,1.51c0.4,0.65,0.6,1.41,0.6,2.29
			c0,0.96-0.24,1.81-0.73,2.54c-0.49,0.73-1.14,1.25-1.97,1.56l2.9,6.16h-2.8l-2.54-5.8h-1.78v5.8H62.76z M65.26,138.68h2.12
			c0.71,0,1.26-0.19,1.66-0.58c0.4-0.39,0.6-0.92,0.6-1.6c0-0.69-0.2-1.24-0.6-1.63c-0.4-0.39-0.95-0.59-1.66-0.59h-2.12V138.68z"/>
	</g>
</g>
<g>
	<path class="st0" d="M112.45,119.13h-8.7c-4.64,0-8.4-3.76-8.4-8.4v-8.7c0-4.64,3.76-8.4,8.4-8.4h8.71c4.64,0,8.4,3.76,8.4,8.4
		v8.71C120.85,115.37,117.09,119.13,112.45,119.13z"/>
	<g>
		<path class="st1" d="M103.49,113.68v-14.6h4.62c0.97,0,1.82,0.18,2.53,0.54c0.71,0.36,1.27,0.86,1.67,1.51
			c0.4,0.65,0.6,1.41,0.6,2.29c0,0.96-0.24,1.81-0.73,2.54c-0.49,0.73-1.14,1.25-1.97,1.56l2.9,6.16h-2.8l-2.54-5.8h-1.78v5.8
			H103.49z M105.99,105.68h2.12c0.71,0,1.26-0.19,1.66-0.58s0.6-0.92,0.6-1.6c0-0.69-0.2-1.24-0.6-1.63s-0.95-0.59-1.66-0.59h-2.12
			V105.68z"/>
	</g>
</g>
<g>
	<path class="st2" d="M99.7,165.14H91c-4.64,0-8.4-3.76-8.4-8.4v-8.7c0-4.64,3.76-8.4,8.4-8.4h8.71c4.64,0,8.4,3.76,8.4,8.4v8.71
		C108.1,161.38,104.34,165.14,99.7,165.14z"/>
	<g>
		<path class="st1" d="M91.74,159.69v-14.6h4.34c0.99,0,1.84,0.19,2.57,0.56c0.73,0.37,1.29,0.9,1.69,1.58
			c0.4,0.68,0.6,1.49,0.6,2.42v5.46c0,0.92-0.2,1.72-0.6,2.41c-0.4,0.69-0.96,1.22-1.69,1.6c-0.73,0.38-1.58,0.57-2.57,0.57H91.74z
			 M94.24,157.39h1.84c0.72,0,1.29-0.2,1.72-0.61s0.64-0.96,0.64-1.67v-5.46c0-0.69-0.21-1.24-0.64-1.65s-1-0.61-1.72-0.61h-1.84
			V157.39z"/>
	</g>
</g>
<g>
	<path class="st2" d="M502,151.77h-8.7c-4.64,0-8.4-3.76-8.4-8.4v-8.7c0-4.64,3.76-8.4,8.4-8.4h8.71c4.64,0,8.4,3.76,8.4,8.4v8.71
		C510.4,148.01,506.64,151.77,502,151.77z"/>
	<g>
		<path class="st1" d="M494.04,146.32v-14.6h4.34c0.99,0,1.84,0.19,2.57,0.56c0.73,0.37,1.29,0.9,1.69,1.58
			c0.4,0.68,0.6,1.49,0.6,2.42v5.46c0,0.92-0.2,1.72-0.6,2.41c-0.4,0.69-0.96,1.22-1.69,1.6c-0.73,0.38-1.58,0.57-2.57,0.57H494.04z
			 M496.54,144.02h1.84c0.72,0,1.29-0.2,1.72-0.61s0.64-0.96,0.64-1.67v-5.46c0-0.69-0.21-1.24-0.64-1.65s-1-0.61-1.72-0.61h-1.84
			V144.02z"/>
	</g>
</g>
<g>
	<path class="st2" d="M492.99,73.73h-8.7c-4.64,0-8.4-3.76-8.4-8.4v-8.7c0-4.64,3.76-8.4,8.4-8.4H493c4.64,0,8.4,3.76,8.4,8.4v8.71
		C501.39,69.97,497.63,73.73,492.99,73.73z"/>
	<g>
		<path class="st1" d="M485.03,68.28v-14.6h4.34c0.99,0,1.84,0.19,2.57,0.56s1.29,0.9,1.69,1.58c0.4,0.68,0.6,1.49,0.6,2.42v5.46
			c0,0.92-0.2,1.72-0.6,2.41c-0.4,0.69-0.96,1.22-1.69,1.6c-0.73,0.38-1.58,0.57-2.57,0.57L485.03,68.28z M487.53,65.98h1.84
			c0.72,0,1.29-0.2,1.72-0.61c0.43-0.41,0.64-0.96,0.64-1.67v-5.46c0-0.69-0.21-1.24-0.64-1.65s-1-0.61-1.72-0.61h-1.84V65.98z"/>
	</g>
</g>
<g>
	<path class="st0" d="M490.77,119.54h-8.7c-4.64,0-8.4-3.76-8.4-8.4v-8.7c0-4.64,3.76-8.4,8.4-8.4h8.71c4.64,0,8.4,3.76,8.4,8.4
		v8.71C499.17,115.78,495.41,119.54,490.77,119.54z"/>
	<g>
		<path class="st1" d="M481.81,114.09v-14.6h4.62c0.97,0,1.82,0.18,2.53,0.54c0.71,0.36,1.27,0.86,1.67,1.51
			c0.4,0.65,0.6,1.41,0.6,2.29c0,0.96-0.24,1.81-0.73,2.54c-0.49,0.73-1.14,1.25-1.97,1.56l2.9,6.16h-2.8l-2.54-5.8h-1.78v5.8
			H481.81z M484.31,106.09h2.12c0.71,0,1.26-0.19,1.66-0.58c0.4-0.39,0.6-0.92,0.6-1.6c0-0.69-0.2-1.24-0.6-1.63
			c-0.4-0.39-0.95-0.59-1.66-0.59h-2.12V106.09z"/>
	</g>
</g>
<g>
	<path class="st2" d="M256.48,177.89h-8.7c-4.64,0-8.4-3.76-8.4-8.4v-8.7c0-4.64,3.76-8.4,8.4-8.4h8.71c4.64,0,8.4,3.76,8.4,8.4
		v8.71C264.88,174.13,261.12,177.89,256.48,177.89z"/>
	<g>
		<path class="st1" d="M248.52,172.44v-14.6h4.34c0.99,0,1.84,0.19,2.57,0.56c0.73,0.37,1.29,0.9,1.69,1.58
			c0.4,0.68,0.6,1.49,0.6,2.42v5.46c0,0.92-0.2,1.72-0.6,2.41s-0.96,1.22-1.69,1.6c-0.73,0.38-1.58,0.57-2.57,0.57H248.52z
			 M251.02,170.14h1.84c0.72,0,1.29-0.2,1.72-0.61c0.43-0.41,0.64-0.96,0.64-1.67v-5.46c0-0.69-0.21-1.24-0.64-1.65
			c-0.43-0.41-1-0.61-1.72-0.61h-1.84V170.14z"/>
	</g>
</g>
<g>
	<path class="st0" d="M335.25,150.9h-8.7c-4.64,0-8.4-3.76-8.4-8.4v-8.7c0-4.64,3.76-8.4,8.4-8.4h8.71c4.64,0,8.4,3.76,8.4,8.4v8.71
		C343.65,147.14,339.89,150.9,335.25,150.9z"/>
	<g>
		<path class="st1" d="M326.29,145.45v-14.6h4.62c0.97,0,1.82,0.18,2.53,0.54s1.27,0.86,1.67,1.51c0.4,0.65,0.6,1.41,0.6,2.29
			c0,0.96-0.24,1.81-0.73,2.54s-1.14,1.25-1.97,1.56l2.9,6.16h-2.8l-2.54-5.8h-1.78v5.8H326.29z M328.79,137.45h2.12
			c0.71,0,1.26-0.19,1.66-0.58s0.6-0.92,0.6-1.6c0-0.69-0.2-1.24-0.6-1.63s-0.95-0.59-1.66-0.59h-2.12V137.45z"/>
	</g>
</g>
<g>
	<path class="st2" d="M74.59,53.68h-8.7c-4.64,0-8.4-3.76-8.4-8.4v-8.7c0-4.64,3.76-8.4,8.4-8.4h8.71c4.64,0,8.4,3.76,8.4,8.4v8.71
		C82.99,49.92,79.23,53.68,74.59,53.68z"/>
	<g>
		<path class="st1" d="M66.63,48.23v-14.6h4.34c0.99,0,1.84,0.19,2.57,0.56c0.73,0.37,1.29,0.9,1.69,1.58s0.6,1.49,0.6,2.42v5.46
			c0,0.92-0.2,1.72-0.6,2.41c-0.4,0.69-0.96,1.22-1.69,1.6c-0.73,0.38-1.58,0.57-2.57,0.57L66.63,48.23z M69.13,45.93h1.84
			c0.72,0,1.29-0.2,1.72-0.61s0.64-0.96,0.64-1.67v-5.46c0-0.69-0.21-1.24-0.64-1.65s-1-0.61-1.72-0.61h-1.84V45.93z"/>
	</g>
</g>
<g>
	<path class="st2" d="M170.5,48.68h-8.7c-4.64,0-8.4-3.76-8.4-8.4v-8.7c0-4.64,3.76-8.4,8.4-8.4h8.71c4.64,0,8.4,3.76,8.4,8.4v8.71
		C178.9,44.92,175.14,48.68,170.5,48.68z"/>
	<g>
		<path class="st1" d="M162.54,43.23v-14.6h4.34c0.99,0,1.84,0.19,2.57,0.56c0.73,0.37,1.29,0.9,1.69,1.58
			c0.4,0.68,0.6,1.49,0.6,2.42v5.46c0,0.92-0.2,1.72-0.6,2.41c-0.4,0.69-0.96,1.22-1.69,1.6c-0.73,0.38-1.58,0.57-2.57,0.57
			L162.54,43.23z M165.04,40.93h1.84c0.72,0,1.29-0.2,1.72-0.61c0.43-0.41,0.64-0.96,0.64-1.67v-5.46c0-0.69-0.21-1.24-0.64-1.65
			c-0.43-0.41-1-0.61-1.72-0.61h-1.84V40.93z"/>
	</g>
</g>
<g>
	<path class="st2" d="M400.78,185.19h-8.7c-4.64,0-8.4-3.76-8.4-8.4v-8.7c0-4.64,3.76-8.4,8.4-8.4h8.71c4.64,0,8.4,3.76,8.4,8.4
		v8.71C409.18,181.43,405.42,185.19,400.78,185.19z"/>
	<g>
		<path class="st1" d="M392.82,179.74v-14.6h4.34c0.99,0,1.84,0.19,2.57,0.56c0.73,0.37,1.29,0.9,1.69,1.58
			c0.4,0.68,0.6,1.49,0.6,2.42v5.46c0,0.92-0.2,1.72-0.6,2.41s-0.96,1.22-1.69,1.6c-0.73,0.38-1.58,0.57-2.57,0.57H392.82z
			 M395.32,177.44h1.84c0.72,0,1.29-0.2,1.72-0.61c0.43-0.41,0.64-0.96,0.64-1.67v-5.46c0-0.69-0.21-1.24-0.64-1.65
			c-0.43-0.41-1-0.61-1.72-0.61h-1.84V177.44z"/>
	</g>
</g>
<g>
	<path class="st2" d="M182.43,170.14h-8.7c-4.64,0-8.4-3.76-8.4-8.4v-8.7c0-4.64,3.76-8.4,8.4-8.4h8.71c4.64,0,8.4,3.76,8.4,8.4
		v8.71C190.83,166.38,187.07,170.14,182.43,170.14z"/>
	<g>
		<path class="st1" d="M174.47,164.69v-14.6h4.34c0.99,0,1.84,0.19,2.57,0.56c0.73,0.37,1.29,0.9,1.69,1.58
			c0.4,0.68,0.6,1.49,0.6,2.42v5.46c0,0.92-0.2,1.72-0.6,2.41s-0.96,1.22-1.69,1.6c-0.73,0.38-1.58,0.57-2.57,0.57H174.47z
			 M176.97,162.39h1.84c0.72,0,1.29-0.2,1.72-0.61c0.43-0.41,0.64-0.96,0.64-1.67v-5.46c0-0.69-0.21-1.24-0.64-1.65
			c-0.43-0.41-1-0.61-1.72-0.61h-1.84V162.39z"/>
	</g>
</g>
<g>
	<path class="st2" d="M281.85,61.43h-8.7c-4.64,0-8.4-3.76-8.4-8.4v-8.7c0-4.64,3.76-8.4,8.4-8.4h8.71c4.64,0,8.4,3.76,8.4,8.4v8.71
		C290.25,57.67,286.49,61.43,281.85,61.43z"/>
	<g>
		<path class="st1" d="M273.89,55.98v-14.6h4.34c0.99,0,1.84,0.19,2.57,0.56c0.73,0.37,1.29,0.9,1.69,1.58
			c0.4,0.68,0.6,1.49,0.6,2.42v5.46c0,0.92-0.2,1.72-0.6,2.41c-0.4,0.69-0.96,1.22-1.69,1.6c-0.73,0.38-1.58,0.57-2.57,0.57
			L273.89,55.98z M276.39,53.68h1.84c0.72,0,1.29-0.2,1.72-0.61s0.64-0.96,0.64-1.67v-5.46c0-0.69-0.21-1.24-0.64-1.65
			s-1-0.61-1.72-0.61h-1.84V53.68z"/>
	</g>
</g>
<g>
	<path class="st2" d="M383.57,68.73h-8.7c-4.64,0-8.4-3.76-8.4-8.4v-8.7c0-4.64,3.76-8.4,8.4-8.4h8.71c4.64,0,8.4,3.76,8.4,8.4v8.71
		C391.97,64.97,388.21,68.73,383.57,68.73z"/>
	<g>
		<path class="st1" d="M375.61,63.28v-14.6h4.34c0.99,0,1.84,0.19,2.57,0.56s1.29,0.9,1.69,1.58c0.4,0.68,0.6,1.49,0.6,2.42v5.46
			c0,0.92-0.2,1.72-0.6,2.41c-0.4,0.69-0.96,1.22-1.69,1.6s-1.58,0.57-2.57,0.57H375.61z M378.11,60.98h1.84
			c0.72,0,1.29-0.2,1.72-0.61c0.43-0.41,0.64-0.96,0.64-1.67v-5.46c0-0.69-0.21-1.24-0.64-1.65c-0.43-0.41-1-0.61-1.72-0.61h-1.84
			V60.98z"/>
	</g>
</g>
<g>
	<path class="st2" d="M444.34,156.77h-8.7c-4.64,0-8.4-3.76-8.4-8.4v-8.7c0-4.64,3.76-8.4,8.4-8.4h8.71c4.64,0,8.4,3.76,8.4,8.4
		v8.71C452.74,153.01,448.98,156.77,444.34,156.77z"/>
	<g>
		<path class="st1" d="M436.38,151.32v-14.6h4.34c0.99,0,1.84,0.19,2.57,0.56c0.73,0.37,1.29,0.9,1.69,1.58
			c0.4,0.68,0.6,1.49,0.6,2.42v5.46c0,0.92-0.2,1.72-0.6,2.41c-0.4,0.69-0.96,1.22-1.69,1.6c-0.73,0.38-1.58,0.57-2.57,0.57H436.38z
			 M438.88,149.02h1.84c0.72,0,1.29-0.2,1.72-0.61c0.43-0.41,0.64-0.96,0.64-1.67v-5.46c0-0.69-0.21-1.24-0.64-1.65
			c-0.43-0.41-1-0.61-1.72-0.61h-1.84V149.02z"/>
	</g>
</g>
<g>
	<path class="st0" d="M218.49,152.39h-8.7c-4.64,0-8.4-3.76-8.4-8.4v-8.7c0-4.64,3.76-8.4,8.4-8.4h8.71c4.64,0,8.4,3.76,8.4,8.4V144
		C226.89,148.63,223.13,152.39,218.49,152.39z"/>
	<g>
		<path class="st1" d="M209.53,146.94v-14.6h4.62c0.97,0,1.82,0.18,2.53,0.54c0.71,0.36,1.27,0.86,1.67,1.51
			c0.4,0.65,0.6,1.41,0.6,2.29c0,0.96-0.24,1.81-0.73,2.54c-0.49,0.73-1.14,1.25-1.97,1.56l2.9,6.16h-2.8l-2.54-5.8h-1.78v5.8
			H209.53z M212.03,138.94h2.12c0.71,0,1.26-0.19,1.66-0.58c0.4-0.39,0.6-0.92,0.6-1.6c0-0.69-0.2-1.24-0.6-1.63
			c-0.4-0.39-0.95-0.59-1.66-0.59h-2.12V138.94z"/>
	</g>
</g>
<g>
	<path class="st0" d="M309.89,190.19h-8.7c-4.64,0-8.4-3.76-8.4-8.4v-8.7c0-4.64,3.76-8.4,8.4-8.4h8.71c4.64,0,8.4,3.76,8.4,8.4
		v8.71C318.29,186.43,314.53,190.19,309.89,190.19z"/>
	<g>
		<path class="st1" d="M300.93,184.74v-14.6h4.62c0.97,0,1.82,0.18,2.53,0.54s1.27,0.86,1.67,1.51c0.4,0.65,0.6,1.41,0.6,2.29
			c0,0.96-0.24,1.81-0.73,2.54c-0.49,0.73-1.14,1.25-1.97,1.56l2.9,6.16h-2.8l-2.54-5.8h-1.78v5.8H300.93z M303.43,176.74h2.12
			c0.71,0,1.26-0.19,1.66-0.58s0.6-0.92,0.6-1.6c0-0.69-0.2-1.24-0.6-1.63s-0.95-0.59-1.66-0.59h-2.12V176.74z"/>
	</g>
</g>
<g>
	<path class="st0" d="M134.45,73.83h-8.7c-4.64,0-8.4-3.76-8.4-8.4v-8.7c0-4.64,3.76-8.4,8.4-8.4h8.71c4.64,0,8.4,3.76,8.4,8.4v8.71
		C142.85,70.07,139.09,73.83,134.45,73.83z"/>
	<g>
		<path class="st1" d="M125.49,68.38v-14.6h4.62c0.97,0,1.82,0.18,2.53,0.54c0.71,0.36,1.27,0.86,1.67,1.51
			c0.4,0.65,0.6,1.41,0.6,2.29c0,0.96-0.24,1.81-0.73,2.54s-1.14,1.25-1.97,1.56l2.9,6.16h-2.8l-2.54-5.8h-1.78v5.8H125.49z
			 M127.99,60.38h2.12c0.71,0,1.26-0.19,1.66-0.58c0.4-0.39,0.6-0.92,0.6-1.6c0-0.69-0.2-1.24-0.6-1.63
			c-0.4-0.39-0.95-0.59-1.66-0.59h-2.12V60.38z"/>
	</g>
</g>
<g>
	<path class="st0" d="M47.46,92.83h-8.7c-4.64,0-8.4-3.76-8.4-8.4v-8.7c0-4.64,3.76-8.4,8.4-8.4h8.71c4.64,0,8.4,3.76,8.4,8.4v8.71
		C55.86,89.07,52.1,92.83,47.46,92.83z"/>
	<g>
		<path class="st1" d="M38.5,87.38v-14.6h4.62c0.97,0,1.82,0.18,2.53,0.54c0.71,0.36,1.27,0.86,1.67,1.51
			c0.4,0.65,0.6,1.41,0.6,2.29c0,0.96-0.24,1.81-0.73,2.54c-0.49,0.73-1.14,1.25-1.97,1.56l2.9,6.16h-2.8l-2.54-5.8H41v5.8H38.5z
			 M41,79.38h2.12c0.71,0,1.26-0.19,1.66-0.58c0.4-0.39,0.6-0.92,0.6-1.6c0-0.69-0.2-1.24-0.6-1.63c-0.4-0.39-0.95-0.59-1.66-0.59
			H41V79.38z"/>
	</g>
</g>
<g>
	<path class="st0" d="M231.25,55.98h-8.7c-4.64,0-8.4-3.76-8.4-8.4v-8.7c0-4.64,3.76-8.4,8.4-8.4h8.71c4.64,0,8.4,3.76,8.4,8.4v8.71
		C239.65,52.22,235.89,55.98,231.25,55.98z"/>
	<g>
		<path class="st1" d="M222.29,50.53v-14.6h4.62c0.97,0,1.82,0.18,2.53,0.54c0.71,0.36,1.27,0.86,1.67,1.51
			c0.4,0.65,0.6,1.41,0.6,2.29c0,0.96-0.24,1.81-0.73,2.54s-1.14,1.25-1.97,1.56l2.9,6.16h-2.8l-2.54-5.8h-1.78v5.8H222.29z
			 M224.79,42.53h2.12c0.71,0,1.26-0.19,1.66-0.58c0.4-0.39,0.6-0.92,0.6-1.6c0-0.69-0.2-1.24-0.6-1.63
			c-0.4-0.39-0.95-0.59-1.66-0.59h-2.12V42.53z"/>
	</g>
</g>
<g>
	<path class="st0" d="M346.76,54.38h-8.7c-4.64,0-8.4-3.76-8.4-8.4v-8.7c0-4.64,3.76-8.4,8.4-8.4h8.71c4.64,0,8.4,3.76,8.4,8.4v8.71
		C355.16,50.62,351.4,54.38,346.76,54.38z"/>
	<g>
		<path class="st1" d="M337.8,48.93v-14.6h4.62c0.97,0,1.82,0.18,2.53,0.54c0.71,0.36,1.27,0.86,1.67,1.51
			c0.4,0.65,0.6,1.41,0.6,2.29c0,0.96-0.24,1.81-0.73,2.54c-0.49,0.73-1.14,1.25-1.97,1.56l2.9,6.16h-2.8l-2.54-5.8h-1.78v5.8H337.8
			z M340.3,40.93h2.12c0.71,0,1.26-0.19,1.66-0.58c0.4-0.39,0.6-0.92,0.6-1.6c0-0.69-0.2-1.24-0.6-1.63
			c-0.4-0.39-0.95-0.59-1.66-0.59h-2.12V40.93z"/>
	</g>
</g>
<g>
	<path class="st0" d="M440.72,58.68h-8.7c-4.64,0-8.4-3.76-8.4-8.4v-8.7c0-4.64,3.76-8.4,8.4-8.4h8.71c4.64,0,8.4,3.76,8.4,8.4v8.71
		C449.12,54.92,445.36,58.68,440.72,58.68z"/>
	<g>
		<path class="st1" d="M431.76,53.23v-14.6h4.62c0.97,0,1.82,0.18,2.53,0.54c0.71,0.36,1.27,0.86,1.67,1.51
			c0.4,0.65,0.6,1.41,0.6,2.29c0,0.96-0.24,1.81-0.73,2.54s-1.14,1.25-1.97,1.56l2.9,6.16h-2.8l-2.54-5.8h-1.78v5.8H431.76z
			 M434.26,45.23h2.12c0.71,0,1.26-0.19,1.66-0.58s0.6-0.92,0.6-1.6c0-0.69-0.2-1.24-0.6-1.63s-0.95-0.59-1.66-0.59h-2.12V45.23z"/>
	</g>
</g>
<g>
	<path class="st0" d="M399.66,149.23h-8.7c-4.64,0-8.4-3.76-8.4-8.4v-8.7c0-4.64,3.76-8.4,8.4-8.4h8.71c4.64,0,8.4,3.76,8.4,8.4
		v8.71C408.06,145.47,404.3,149.23,399.66,149.23z"/>
	<g>
		<path class="st1" d="M390.7,143.78v-14.6h4.62c0.97,0,1.82,0.18,2.53,0.54s1.27,0.86,1.67,1.51c0.4,0.65,0.6,1.41,0.6,2.29
			c0,0.96-0.24,1.81-0.73,2.54s-1.14,1.25-1.97,1.56l2.9,6.16h-2.8l-2.54-5.8h-1.78v5.8H390.7z M393.2,135.78h2.12
			c0.71,0,1.26-0.19,1.66-0.58s0.6-0.92,0.6-1.6c0-0.69-0.2-1.24-0.6-1.63s-0.95-0.59-1.66-0.59h-2.12V135.78z"/>
	</g>
</g>
<g>
	<path class="st0" d="M526.14,190.64h-8.7c-4.64,0-8.4-3.76-8.4-8.4v-8.7c0-4.64,3.76-8.4,8.4-8.4h8.71c4.64,0,8.4,3.76,8.4,8.4
		v8.71C534.54,186.88,530.78,190.64,526.14,190.64z"/>
	<g>
		<path class="st1" d="M517.18,185.19v-14.6h4.62c0.97,0,1.82,0.18,2.53,0.54s1.27,0.86,1.67,1.51c0.4,0.65,0.6,1.41,0.6,2.29
			c0,0.96-0.24,1.81-0.73,2.54c-0.49,0.73-1.14,1.25-1.97,1.56l2.9,6.16H524l-2.54-5.8h-1.78v5.8H517.18z M519.68,177.19h2.12
			c0.71,0,1.26-0.19,1.66-0.58s0.6-0.92,0.6-1.6c0-0.69-0.2-1.24-0.6-1.63s-0.95-0.59-1.66-0.59h-2.12V177.19z"/>
	</g>
</g>
<g>
	<path class="st0" d="M150.74,182.89h-8.7c-4.64,0-8.4-3.76-8.4-8.4v-8.7c0-4.64,3.76-8.4,8.4-8.4h8.71c4.64,0,8.4,3.76,8.4,8.4
		v8.71C159.14,179.13,155.38,182.89,150.74,182.89z"/>
	<g>
		<path class="st1" d="M141.78,177.44v-14.6h4.62c0.97,0,1.82,0.18,2.53,0.54s1.27,0.86,1.67,1.51c0.4,0.65,0.6,1.41,0.6,2.29
			c0,0.96-0.24,1.81-0.73,2.54c-0.49,0.73-1.14,1.25-1.97,1.56l2.9,6.16h-2.8l-2.54-5.8h-1.78v5.8H141.78z M144.28,169.44h2.12
			c0.71,0,1.26-0.19,1.66-0.58c0.4-0.39,0.6-0.92,0.6-1.6c0-0.69-0.2-1.24-0.6-1.63c-0.4-0.39-0.95-0.59-1.66-0.59h-2.12V169.44z"/>
	</g>
</g>
<g>
	<path class="st0" d="M459.79,189.49h-8.7c-4.64,0-8.4-3.76-8.4-8.4v-8.7c0-4.64,3.76-8.4,8.4-8.4h8.71c4.64,0,8.4,3.76,8.4,8.4
		v8.71C468.19,185.73,464.43,189.49,459.79,189.49z"/>
	<g>
		<path class="st1" d="M450.83,184.04v-14.6h4.62c0.97,0,1.82,0.18,2.53,0.54c0.71,0.36,1.27,0.86,1.67,1.51
			c0.4,0.65,0.6,1.41,0.6,2.29c0,0.96-0.24,1.81-0.73,2.54s-1.14,1.25-1.97,1.56l2.9,6.16h-2.8l-2.54-5.8h-1.78v5.8H450.83z
			 M453.33,176.04h2.12c0.71,0,1.26-0.19,1.66-0.58s0.6-0.92,0.6-1.6c0-0.69-0.2-1.24-0.6-1.63c-0.4-0.39-0.95-0.59-1.66-0.59h-2.12
			V176.04z"/>
	</g>
</g>
<g>
	<path class="st0" d="M560.02,71.43h-8.7c-4.64,0-8.4-3.76-8.4-8.4v-8.7c0-4.64,3.76-8.4,8.4-8.4h8.71c4.64,0,8.4,3.76,8.4,8.4v8.71
		C568.42,67.67,564.66,71.43,560.02,71.43z"/>
	<g>
		<path class="st1" d="M551.06,65.98v-14.6h4.62c0.97,0,1.82,0.18,2.53,0.54c0.71,0.36,1.27,0.86,1.67,1.51
			c0.4,0.65,0.6,1.41,0.6,2.29c0,0.96-0.24,1.81-0.73,2.54s-1.14,1.25-1.97,1.56l2.9,6.16h-2.8l-2.54-5.8h-1.78v5.8H551.06z
			 M553.56,57.98h2.12c0.71,0,1.26-0.19,1.66-0.58c0.4-0.39,0.6-0.92,0.6-1.6c0-0.69-0.2-1.24-0.6-1.63
			c-0.4-0.39-0.95-0.59-1.66-0.59h-2.12V57.98z"/>
	</g>
</g>
<g>
	<path class="st2" d="M489.24,35.93h-8.7c-4.64,0-8.4-3.76-8.4-8.4v-8.7c0-4.64,3.76-8.4,8.4-8.4h8.71c4.64,0,8.4,3.76,8.4,8.4v8.71
		C497.64,32.17,493.88,35.93,489.24,35.93z"/>
	<g>
		<path class="st1" d="M481.28,30.48v-14.6h4.34c0.99,0,1.84,0.19,2.57,0.56c0.73,0.37,1.29,0.9,1.69,1.58s0.6,1.49,0.6,2.42v5.46
			c0,0.92-0.2,1.72-0.6,2.41s-0.96,1.22-1.69,1.6c-0.73,0.38-1.58,0.57-2.57,0.57L481.28,30.48z M483.78,28.18h1.84
			c0.72,0,1.29-0.2,1.72-0.61s0.64-0.96,0.64-1.67v-5.46c0-0.69-0.21-1.24-0.64-1.65s-1-0.61-1.72-0.61h-1.84V28.18z"/>
	</g>
</g>
<g>
	<path class="st2" d="M546.02,124.47h-8.7c-4.64,0-8.4-3.76-8.4-8.4v-8.7c0-4.64,3.76-8.4,8.4-8.4h8.71c4.64,0,8.4,3.76,8.4,8.4
		v8.71C554.42,120.71,550.66,124.47,546.02,124.47z"/>
	<g>
		<path class="st1" d="M538.06,119.02v-14.6h4.34c0.99,0,1.84,0.19,2.57,0.56c0.73,0.37,1.29,0.9,1.69,1.58
			c0.4,0.68,0.6,1.49,0.6,2.42v5.46c0,0.92-0.2,1.72-0.6,2.41c-0.4,0.69-0.96,1.22-1.69,1.6c-0.73,0.38-1.58,0.57-2.57,0.57
			L538.06,119.02z M540.56,116.72h1.84c0.72,0,1.29-0.2,1.72-0.61c0.43-0.41,0.64-0.96,0.64-1.67v-5.46c0-0.69-0.21-1.24-0.64-1.65
			c-0.43-0.41-1-0.61-1.72-0.61h-1.84V116.72z"/>
	</g>
</g>
<g>
	<path class="st2" d="M30.91,195.64h-8.7c-4.64,0-8.4-3.76-8.4-8.4v-8.7c0-4.64,3.76-8.4,8.4-8.4h8.71c4.64,0,8.4,3.76,8.4,8.4v8.71
		C39.31,191.88,35.55,195.64,30.91,195.64z"/>
	<g>
		<path class="st1" d="M22.95,190.19v-14.6h4.34c0.99,0,1.84,0.19,2.57,0.56c0.73,0.37,1.29,0.9,1.69,1.58
			c0.4,0.68,0.6,1.49,0.6,2.42v5.46c0,0.92-0.2,1.72-0.6,2.41s-0.96,1.22-1.69,1.6c-0.73,0.38-1.58,0.57-2.57,0.57H22.95z
			 M25.45,187.89h1.84c0.72,0,1.29-0.2,1.72-0.61s0.64-0.96,0.64-1.67v-5.46c0-0.69-0.21-1.24-0.64-1.65s-1-0.61-1.72-0.61h-1.84
			V187.89z"/>
	</g>
</g>
<g>
	<path class="st2" d="M35.89,131.77h-8.7c-4.64,0-8.4-3.76-8.4-8.4v-8.7c0-4.64,3.76-8.4,8.4-8.4h8.71c4.64,0,8.4,3.76,8.4,8.4v8.71
		C44.29,128.01,40.53,131.77,35.89,131.77z"/>
	<g>
		<path class="st1" d="M27.93,126.32v-14.6h4.34c0.99,0,1.84,0.19,2.57,0.56c0.73,0.37,1.29,0.9,1.69,1.58
			c0.4,0.68,0.6,1.49,0.6,2.42v5.46c0,0.92-0.2,1.72-0.6,2.41c-0.4,0.69-0.96,1.22-1.69,1.6c-0.73,0.38-1.58,0.57-2.57,0.57H27.93z
			 M30.43,124.02h1.84c0.72,0,1.29-0.2,1.72-0.61c0.43-0.41,0.64-0.96,0.64-1.67v-5.46c0-0.69-0.21-1.24-0.64-1.65
			c-0.43-0.41-1-0.61-1.72-0.61h-1.84V124.02z"/>
	</g>
</g>
</svg>
