<?xml version="1.0" encoding="utf-8"?>
<!-- Generator: Adobe Illustrator 24.1.0, SVG Export Plug-In . SVG Version: 6.00 Build 0)  -->
<svg version="1.1" id="Layer_1" xmlns="http://www.w3.org/2000/svg" xmlns:xlink="http://www.w3.org/1999/xlink" x="0px" y="0px"
	 viewBox="0 0 700 100" enable-background="new 0 0 700 100" xml:space="preserve">
<path fill="#A2C2FF" d="M525.28,44.91h-15c-2.76,0-5-2.24-5-5v-15c0-2.76,2.24-5,5-5h15c2.76,0,5,2.24,5,5v15
	C530.28,42.67,528.04,44.91,525.28,44.91z"/>
<g>
	<path d="M509.5,37.95V26.22h7.19v1.73h-5.36v3.32h4.94v1.73h-4.91v4.94H509.5z"/>
	<path d="M519.48,37.95V26.24h1.88v9.98h5.04v1.73H519.48z"/>
</g>
<g>
	<path fill="#231F20" d="M2.19,23.54V20.5l6.06-6.16c0.89-0.92,1.54-1.76,1.96-2.49s0.63-1.48,0.63-2.23c0-0.94-0.26-1.68-0.77-2.23
		C9.54,6.85,8.84,6.58,7.95,6.58c-1,0-1.77,0.28-2.33,0.85S4.78,8.78,4.78,9.78H1.65C1.67,8.55,1.94,7.49,2.47,6.6
		c0.52-0.89,1.26-1.58,2.2-2.07S6.71,3.8,7.98,3.8c1.21,0,2.26,0.23,3.16,0.69c0.9,0.46,1.59,1.11,2.08,1.95s0.73,1.82,0.73,2.96
		c0,1.17-0.3,2.32-0.91,3.44c-0.6,1.12-1.58,2.35-2.93,3.68l-4.24,4.22h8.35v2.8H2.19z"/>
	<path fill="#231F20" d="M24.01,23.81c-1.25,0-2.33-0.24-3.24-0.72c-0.92-0.48-1.62-1.16-2.12-2.03c-0.5-0.87-0.75-1.88-0.75-3.04
		V9.59c0-1.17,0.25-2.19,0.75-3.05c0.5-0.86,1.2-1.53,2.12-2.01c0.92-0.48,2-0.72,3.24-0.72c1.26,0,2.35,0.24,3.25,0.72
		c0.91,0.48,1.61,1.15,2.11,2.01c0.5,0.86,0.75,1.88,0.75,3.05v8.43c0,1.16-0.25,2.17-0.75,3.04c-0.5,0.87-1.21,1.55-2.12,2.03
		C26.33,23.57,25.25,23.81,24.01,23.81z M24.01,21.14c0.96,0,1.73-0.29,2.29-0.87c0.57-0.58,0.85-1.33,0.85-2.25V9.59
		c0-0.92-0.28-1.68-0.85-2.25c-0.57-0.58-1.33-0.87-2.29-0.87s-1.73,0.29-2.29,0.87c-0.57,0.58-0.85,1.33-0.85,2.25v8.43
		c0,0.92,0.28,1.68,0.85,2.25C22.28,20.85,23.05,21.14,24.01,21.14z M24.01,15.49c-0.52,0-0.93-0.16-1.24-0.48s-0.47-0.75-0.47-1.28
		c0-0.52,0.16-0.93,0.47-1.24c0.31-0.31,0.72-0.47,1.24-0.47c0.52,0,0.93,0.16,1.24,0.47c0.31,0.31,0.47,0.72,0.47,1.24
		c0,0.53-0.16,0.96-0.47,1.28C24.94,15.33,24.53,15.49,24.01,15.49z"/>
	<path fill="#231F20" d="M34.2,23.54V20.5l6.06-6.16c0.89-0.92,1.54-1.76,1.96-2.49s0.63-1.48,0.63-2.23c0-0.94-0.26-1.68-0.77-2.23
		c-0.52-0.54-1.22-0.81-2.11-0.81c-1,0-1.77,0.28-2.33,0.85s-0.84,1.35-0.84,2.35h-3.12c0.02-1.23,0.29-2.29,0.81-3.17
		c0.52-0.89,1.26-1.58,2.2-2.07s2.05-0.73,3.31-0.73c1.21,0,2.26,0.23,3.16,0.69c0.9,0.46,1.59,1.11,2.08,1.95s0.73,1.82,0.73,2.96
		c0,1.17-0.3,2.32-0.91,3.44c-0.6,1.12-1.58,2.35-2.93,3.68l-4.24,4.22h8.35v2.8H34.2z"/>
	<path fill="#231F20" d="M50.21,23.54V20.5l6.06-6.16c0.89-0.92,1.54-1.76,1.96-2.49s0.63-1.48,0.63-2.23
		c0-0.94-0.26-1.68-0.77-2.23c-0.52-0.54-1.22-0.81-2.11-0.81c-1,0-1.77,0.28-2.33,0.85s-0.84,1.35-0.84,2.35h-3.12
		c0.02-1.23,0.29-2.29,0.81-3.17c0.52-0.89,1.26-1.58,2.2-2.07S54.73,3.8,56,3.8c1.21,0,2.26,0.23,3.16,0.69
		c0.9,0.46,1.59,1.11,2.08,1.95s0.73,1.82,0.73,2.96c0,1.17-0.3,2.32-0.91,3.44c-0.6,1.12-1.58,2.35-2.93,3.68l-4.24,4.22h8.35v2.8
		H50.21z"/>
	<path fill="#231F20" d="M8.06,55.82c-1.32,0-2.45-0.22-3.41-0.67s-1.7-1.08-2.23-1.89c-0.52-0.82-0.79-1.78-0.79-2.88h3.09
		c0,0.84,0.3,1.49,0.91,1.97s1.43,0.72,2.48,0.72c0.98,0,1.75-0.24,2.32-0.71c0.57-0.47,0.85-1.12,0.85-1.96
		c0-0.69-0.2-1.29-0.59-1.8s-0.95-0.85-1.68-1.03l-2.35-0.67c-1.48-0.41-2.61-1.12-3.41-2.12s-1.2-2.2-1.2-3.59
		c0-1.1,0.24-2.05,0.73-2.85c0.49-0.8,1.18-1.43,2.08-1.88c0.9-0.45,1.96-0.68,3.19-0.68c1.85,0,3.32,0.49,4.4,1.45
		c1.08,0.97,1.64,2.26,1.65,3.88h-3.12c0-0.8-0.26-1.43-0.77-1.89c-0.52-0.46-1.25-0.69-2.19-0.69c-0.91,0-1.61,0.22-2.12,0.65
		c-0.51,0.44-0.76,1.04-0.76,1.8c0,0.71,0.19,1.32,0.57,1.81c0.38,0.5,0.93,0.85,1.64,1.07l2.43,0.69c1.48,0.39,2.61,1.08,3.4,2.08
		c0.79,1,1.19,2.21,1.19,3.65c0,1.1-0.26,2.07-0.79,2.89c-0.52,0.83-1.26,1.47-2.2,1.93C10.45,55.59,9.34,55.82,8.06,55.82z"/>
	<path fill="#231F20" d="M24.01,55.82c-1.21,0-2.27-0.24-3.17-0.71c-0.91-0.47-1.61-1.14-2.11-2c-0.5-0.86-0.75-1.86-0.75-3v-3.79
		c0-1.14,0.25-2.14,0.75-3c0.5-0.86,1.2-1.53,2.11-2c0.91-0.47,1.97-0.71,3.17-0.71c1.23,0,2.29,0.24,3.19,0.71
		c0.9,0.47,1.6,1.14,2.09,2c0.5,0.86,0.75,1.86,0.75,3v2.64h-9.07v1.15c0,1.05,0.26,1.85,0.79,2.4c0.52,0.55,1.28,0.83,2.28,0.83
		c0.8,0,1.44-0.14,1.93-0.43c0.49-0.28,0.8-0.68,0.92-1.2h3.07c-0.23,1.25-0.89,2.24-1.97,2.99C26.9,55.45,25.57,55.82,24.01,55.82z
		 M27.05,47.15v-0.83c0-1.05-0.25-1.85-0.76-2.41c-0.51-0.56-1.27-0.84-2.28-0.84c-0.98,0-1.73,0.29-2.25,0.85
		c-0.52,0.57-0.79,1.37-0.79,2.4v0.61l6.3-0.03L27.05,47.15z"/>
	<path fill="#231F20" d="M34.15,55.56V40.88h3.07v2.8h0.8l-0.8,0.72c0-1.19,0.35-2.12,1.05-2.79s1.66-1,2.87-1
		c1.46,0,2.62,0.47,3.49,1.41c0.87,0.94,1.31,2.22,1.31,3.84v9.68h-3.12v-9.36c0-0.92-0.24-1.64-0.73-2.13s-1.16-0.75-2.01-0.75
		c-0.87,0-1.56,0.26-2.05,0.79c-0.5,0.52-0.75,1.27-0.75,2.23v9.23H34.15z"/>
	<path fill="#231F20" d="M54.48,55.82c-1.51,0-2.71-0.4-3.59-1.19c-0.88-0.79-1.32-1.87-1.32-3.24c0-1.42,0.48-2.52,1.43-3.31
		c0.95-0.78,2.27-1.17,3.96-1.17h3.87v-1.31c0-0.75-0.24-1.33-0.72-1.76c-0.48-0.43-1.15-0.64-2-0.64c-0.77,0-1.4,0.16-1.91,0.49
		s-0.8,0.78-0.89,1.35h-3.04c0.16-1.35,0.78-2.43,1.85-3.23c1.08-0.8,2.43-1.2,4.07-1.2c1.78,0,3.18,0.44,4.21,1.33
		c1.03,0.89,1.55,2.1,1.55,3.63v9.98H58.9v-2.61H58.4l0.53-0.64c0,1.08-0.41,1.94-1.23,2.57C56.89,55.51,55.81,55.82,54.48,55.82z
		 M55.46,53.48c0.98,0,1.78-0.25,2.41-0.76s0.95-1.15,0.95-1.93v-1.87h-3.81c-0.71,0-1.28,0.2-1.71,0.6
		c-0.43,0.4-0.64,0.94-0.64,1.61c0,0.73,0.25,1.3,0.75,1.72C53.91,53.27,54.59,53.48,55.46,53.48z"/>
	<path fill="#231F20" d="M73.63,55.56c-1.37,0-2.44-0.38-3.2-1.13c-0.77-0.76-1.15-1.8-1.15-3.13v-7.6h-4.03v-2.8h4.03v-4.13h3.09
		v4.13h5.71v2.8h-5.71v7.6c0,0.98,0.48,1.47,1.44,1.47h4v2.8H73.63z"/>
	<path fill="#231F20" d="M88.04,55.82c-1.21,0-2.27-0.24-3.17-0.71c-0.91-0.47-1.61-1.14-2.11-2c-0.5-0.86-0.75-1.86-0.75-3v-3.79
		c0-1.14,0.25-2.14,0.75-3c0.5-0.86,1.2-1.53,2.11-2c0.91-0.47,1.97-0.71,3.17-0.71c1.23,0,2.29,0.24,3.19,0.71
		c0.9,0.47,1.6,1.14,2.09,2c0.5,0.86,0.75,1.86,0.75,3v2.64h-9.07v1.15c0,1.05,0.26,1.85,0.79,2.4c0.52,0.55,1.28,0.83,2.28,0.83
		c0.8,0,1.44-0.14,1.93-0.43c0.49-0.28,0.8-0.68,0.92-1.2h3.07c-0.23,1.25-0.89,2.24-1.97,2.99C90.93,55.45,89.6,55.82,88.04,55.82z
		 M91.08,47.15v-0.83c0-1.05-0.25-1.85-0.76-2.41c-0.51-0.56-1.27-0.84-2.28-0.84c-0.98,0-1.73,0.29-2.25,0.85
		c-0.52,0.57-0.79,1.37-0.79,2.4v0.61l6.3-0.03L91.08,47.15z"/>
	<path fill="#231F20" d="M2.24,87.57v-19.5h11.95v2.88H5.28v5.52h8.22v2.88H5.34v8.22H2.24z"/>
	<path fill="#231F20" d="M24.01,87.81c-1.23,0-2.29-0.23-3.19-0.69c-0.9-0.46-1.6-1.12-2.09-1.99c-0.5-0.86-0.75-1.88-0.75-3.05
		v-3.68c0-1.17,0.25-2.19,0.75-3.05c0.5-0.86,1.2-1.53,2.09-1.99c0.9-0.46,1.96-0.69,3.19-0.69c1.24,0,2.31,0.23,3.2,0.69
		c0.89,0.46,1.58,1.12,2.08,1.99c0.5,0.86,0.75,1.87,0.75,3.03v3.71c0,1.17-0.25,2.19-0.75,3.05c-0.5,0.86-1.19,1.53-2.08,1.99
		C26.32,87.58,25.25,87.81,24.01,87.81z M24.01,85.09c0.92,0,1.65-0.26,2.16-0.77c0.52-0.52,0.77-1.26,0.77-2.24v-3.68
		c0-1-0.26-1.75-0.77-2.25s-1.24-0.76-2.16-0.76c-0.91,0-1.62,0.25-2.15,0.76c-0.52,0.51-0.79,1.26-0.79,2.25v3.68
		c0,0.98,0.26,1.73,0.79,2.24C22.39,84.83,23.1,85.09,24.01,85.09z"/>
	<path fill="#231F20" d="M34.63,87.57V72.9h2.96v2.8h0.77l-0.93,1.73c0-1.58,0.35-2.78,1.05-3.59s1.74-1.21,3.11-1.21
		c1.58,0,2.83,0.48,3.74,1.45c0.91,0.97,1.36,2.32,1.36,4.04v1.01h-3.23v-0.8c0-1-0.25-1.76-0.76-2.29c-0.51-0.53-1.21-0.8-2.09-0.8
		c-0.91,0-1.61,0.27-2.11,0.81c-0.5,0.54-0.75,1.3-0.75,2.28v9.23H34.63z"/>
	<path fill="#231F20" d="M56.02,87.84c-1.21,0-2.27-0.24-3.17-0.71c-0.91-0.47-1.61-1.14-2.11-2c-0.5-0.86-0.75-1.86-0.75-3v-3.79
		c0-1.14,0.25-2.14,0.75-3c0.5-0.86,1.2-1.53,2.11-2c0.91-0.47,1.97-0.71,3.17-0.71c1.23,0,2.29,0.24,3.19,0.71
		c0.9,0.47,1.6,1.14,2.09,2c0.5,0.86,0.75,1.86,0.75,3v2.64h-9.07v1.15c0,1.05,0.26,1.85,0.79,2.4c0.52,0.55,1.28,0.83,2.28,0.83
		c0.8,0,1.44-0.14,1.93-0.43c0.49-0.28,0.8-0.68,0.92-1.2h3.07c-0.23,1.25-0.89,2.24-1.97,2.99C58.91,87.46,57.59,87.84,56.02,87.84
		z M59.06,79.17v-0.83c0-1.05-0.25-1.85-0.76-2.41c-0.51-0.56-1.27-0.84-2.28-0.84c-0.98,0-1.73,0.29-2.25,0.85
		c-0.52,0.57-0.79,1.37-0.79,2.4v0.61l6.3-0.03L59.06,79.17z"/>
	<path fill="#231F20" d="M72.14,87.84c-1.25,0-2.33-0.23-3.24-0.69s-1.63-1.12-2.13-1.99S66,83.28,66,82.13v-3.79
		c0-1.17,0.25-2.19,0.76-3.04c0.51-0.85,1.22-1.51,2.13-1.97c0.92-0.46,2-0.69,3.24-0.69c1.8,0,3.24,0.47,4.32,1.41
		c1.08,0.94,1.65,2.22,1.71,3.84h-3.09c-0.05-0.8-0.34-1.42-0.85-1.87c-0.52-0.44-1.21-0.67-2.08-0.67c-0.94,0-1.69,0.26-2.23,0.77
		c-0.54,0.52-0.81,1.25-0.81,2.21v3.79c0,0.94,0.27,1.68,0.81,2.2s1.28,0.79,2.23,0.79c0.87,0,1.56-0.22,2.08-0.67
		c0.52-0.44,0.8-1.07,0.85-1.87h3.09c-0.05,1.62-0.62,2.9-1.71,3.84C75.37,87.37,73.93,87.84,72.14,87.84z"/>
	<path fill="#231F20" d="M86.49,87.84c-1.51,0-2.71-0.4-3.59-1.19c-0.88-0.79-1.32-1.87-1.32-3.24c0-1.42,0.48-2.52,1.43-3.31
		c0.95-0.78,2.27-1.17,3.96-1.17h3.87v-1.31c0-0.75-0.24-1.33-0.72-1.76c-0.48-0.43-1.15-0.64-2-0.64c-0.77,0-1.4,0.16-1.91,0.49
		s-0.8,0.78-0.89,1.35h-3.04c0.16-1.35,0.78-2.43,1.85-3.23c1.08-0.8,2.43-1.2,4.07-1.2c1.78,0,3.18,0.44,4.21,1.33
		c1.03,0.89,1.55,2.1,1.55,3.63v9.98h-3.04v-2.61h-0.51l0.53-0.64c0,1.08-0.41,1.94-1.23,2.57C88.9,87.52,87.82,87.84,86.49,87.84z
		 M87.48,85.49c0.98,0,1.78-0.25,2.41-0.76s0.95-1.15,0.95-1.93v-1.87h-3.81c-0.71,0-1.28,0.2-1.71,0.6
		c-0.43,0.4-0.64,0.94-0.64,1.61c0,0.73,0.25,1.3,0.75,1.72C85.92,85.28,86.6,85.49,87.48,85.49z"/>
	<path fill="#231F20" d="M103.51,87.81c-1.08,0-2.03-0.17-2.84-0.52s-1.45-0.83-1.92-1.44c-0.47-0.61-0.73-1.34-0.79-2.17h3.12
		c0.05,0.48,0.3,0.86,0.73,1.15c0.44,0.29,1,0.43,1.69,0.43h1.15c0.85,0,1.49-0.17,1.92-0.51c0.43-0.34,0.64-0.79,0.64-1.36
		c0-0.53-0.19-0.96-0.57-1.27c-0.38-0.31-0.96-0.52-1.72-0.63l-1.87-0.27c-1.62-0.25-2.81-0.7-3.56-1.35s-1.13-1.62-1.13-2.92
		c0-1.37,0.45-2.43,1.35-3.17c0.9-0.75,2.23-1.12,3.99-1.12h1.01c1.58,0,2.85,0.36,3.79,1.07c0.94,0.71,1.47,1.67,1.57,2.88h-3.12
		c-0.05-0.41-0.28-0.74-0.67-1s-0.92-0.39-1.57-0.39h-1.01c-0.8,0-1.38,0.15-1.75,0.44c-0.36,0.29-0.55,0.73-0.55,1.29
		c0,0.52,0.16,0.9,0.48,1.16c0.32,0.26,0.83,0.44,1.52,0.55l1.92,0.27c1.69,0.25,2.93,0.72,3.74,1.4c0.8,0.68,1.2,1.69,1.2,3
		c0,1.42-0.47,2.53-1.4,3.31s-2.33,1.17-4.2,1.17H103.51z"/>
	<path fill="#231F20" d="M121.65,87.57c-1.37,0-2.44-0.38-3.2-1.13c-0.77-0.76-1.15-1.8-1.15-3.13v-7.6h-4.03v-2.8h4.03v-4.13h3.09
		v4.13h5.71v2.8h-5.71v7.6c0,0.98,0.48,1.47,1.44,1.47h4v2.8H121.65z"/>
</g>
<g>
	<polygon fill="#FFB0B2" points="237.92,34.76 234.93,58.31 266.09,65.82 273.99,43.26 	"/>
</g>
<g>
	<g>
		<path fill="#010101" stroke="#000000" stroke-miterlimit="10" d="M240.63,10.28c-0.19,1.49-0.38,2.99-0.57,4.48
			c-0.46,3.61-0.92,7.23-1.38,10.84c-0.56,4.44-1.13,8.87-1.69,13.31c-0.5,3.96-1.01,7.93-1.51,11.89
			c-0.28,2.19-0.56,4.38-0.84,6.58c-0.02,0.12-0.03,0.24-0.05,0.36c-0.07,0.52-0.28,0.95-0.53,1.39c-0.63,1.1-1.27,2.2-1.9,3.3
			c-2.14,3.71-4.27,7.41-6.41,11.12c-0.79,1.37-1.58,2.75-2.37,4.12c-0.17,0.29-0.34,0.59-0.51,0.89c-0.52,0.91-0.67,1.97-0.36,2.97
			c0.39,1.24,1.41,2.16,2.66,2.47c0.17,0.04,0.35,0.08,0.52,0.12c1,0.24,2,0.47,3,0.71c3.73,0.88,7.46,1.76,11.2,2.64
			c4.26,1,8.53,2.01,12.79,3.01c2.67,0.63,5.34,1.26,8.02,1.89c0.17,0.04,0.34,0.08,0.52,0.12c1.27,0.28,2.62-0.1,3.52-1.06
			c0.66-0.7,0.96-1.59,0.99-2.53c0.01-0.38,0.03-0.75,0.04-1.13c0.13-3.83,0.26-7.67,0.39-11.5c0.11-3.25,0.22-6.5,0.33-9.75
			c0.02-0.54,0.16-1.02,0.33-1.52c0.28-0.81,0.57-1.62,0.85-2.42c1.1-3.13,2.19-6.27,3.29-9.4c1.45-4.15,2.9-8.3,4.35-12.45
			c1.38-3.96,2.77-7.92,4.16-11.89c0.89-2.54,1.78-5.08,2.66-7.62c0.12-0.36,0.25-0.71,0.37-1.06c0.2-0.56-0.71-0.77-0.9-0.21
			c-0.49,1.4-0.98,2.8-1.47,4.2c-1.19,3.4-2.38,6.8-3.56,10.19c-1.47,4.19-2.93,8.38-4.4,12.57c-1.32,3.77-2.63,7.53-3.95,11.3
			c-0.76,2.18-1.53,4.37-2.29,6.55c-0.2,0.57-0.35,1.11-0.37,1.72c-0.04,1.12-0.08,2.25-0.12,3.37c-0.14,4.2-0.29,8.39-0.43,12.59
			c-0.06,1.7-0.11,3.4-0.17,5.1c-0.04,1.06,0.07,2.23-0.66,3.11c-0.68,0.83-1.74,1.17-2.79,0.93c-0.2-0.05-0.4-0.09-0.6-0.14
			c-1.04-0.25-2.09-0.49-3.13-0.74c-3.75-0.88-7.5-1.77-11.25-2.65c-4.21-0.99-8.42-1.98-12.63-2.98c-2.64-0.62-5.27-1.24-7.91-1.86
			c-0.17-0.04-0.33-0.08-0.5-0.12c-1.22-0.3-2.09-1.36-2.12-2.63c-0.02-1.03,0.71-1.99,1.21-2.85c1.95-3.38,3.9-6.77,5.86-10.16
			c1.55-2.69,3.1-5.37,4.65-8.06c0.36-0.62,0.5-1.26,0.59-1.95c0.11-0.86,0.22-1.71,0.33-2.57c0.42-3.3,0.84-6.61,1.26-9.91
			c0.55-4.33,1.1-8.67,1.65-13c0.53-4.14,1.05-8.28,1.58-12.42c0.34-2.65,0.67-5.3,1.01-7.95c0.05-0.37,0.09-0.73,0.14-1.1
			C241.61,9.91,240.71,9.69,240.63,10.28L240.63,10.28z"/>
	</g>
</g>
<g>
	<g>
		<path fill="#010101" d="M234.89,58.78c1.03,0.24,2.06,0.49,3.1,0.73c2.48,0.58,4.95,1.17,7.43,1.75c3,0.71,5.99,1.41,8.99,2.12
			c2.58,0.61,5.16,1.22,7.74,1.82c1.25,0.3,2.51,0.64,3.77,0.89c0.02,0,0.04,0.01,0.06,0.01c0.39,0.09,0.53-0.51,0.14-0.6
			c-1.03-0.24-2.06-0.49-3.1-0.73c-2.48-0.58-4.95-1.17-7.43-1.75c-3-0.71-5.99-1.41-8.99-2.12c-2.58-0.61-5.16-1.22-7.74-1.82
			c-1.25-0.3-2.51-0.64-3.77-0.89c-0.02,0-0.04-0.01-0.06-0.01C234.65,58.09,234.51,58.69,234.89,58.78L234.89,58.78z"/>
	</g>
</g>
<g>
	<g>
		<path fill="#010101" d="M250.22,72.15c-0.29,1.18-1.29,2.1-2.51,2.23c-1.21,0.13-2.4-0.51-2.94-1.61
			c-0.54-1.09-0.33-2.44,0.52-3.32c0.85-0.88,2.21-1.14,3.32-0.62C249.86,69.43,250.52,70.81,250.22,72.15
			c-0.09,0.39,0.51,0.53,0.6,0.14c0.32-1.44-0.26-2.93-1.49-3.75c-1.22-0.82-2.9-0.77-4.07,0.12c-1.18,0.9-1.7,2.46-1.25,3.88
			c0.45,1.41,1.75,2.39,3.23,2.47c1.68,0.08,3.18-1.11,3.58-2.72C250.91,71.91,250.31,71.76,250.22,72.15z"/>
	</g>
</g>
<g>
	<g>
		<path fill="#010101" d="M235.63,79.47c0,0.02-0.01,0.04-0.01,0.05c-0.01,0.05,0.01-0.02,0.01-0.03c-0.02,0.02-0.03,0.06-0.04,0.08
			c-0.01,0.01-0.02,0.03-0.03,0.04c0-0.01,0.05-0.06,0.02-0.02c-0.02,0.02-0.05,0.05-0.07,0.07c-0.04,0.04,0.05-0.03,0.01-0.01
			c-0.01,0.01-0.02,0.02-0.04,0.02c-0.01,0.01-0.02,0.01-0.03,0.02c-0.03,0.02-0.06,0.01,0.01,0c-0.03,0.01-0.05,0.02-0.08,0.03
			c-0.01,0-0.02,0.01-0.03,0.01c-0.05,0.02,0.07-0.01,0,0c-0.03,0-0.06,0-0.09,0c-0.04,0-0.04-0.02,0.02,0
			c-0.01-0.01-0.03,0-0.05-0.01c-0.03,0-0.06-0.01-0.09-0.02c-0.04-0.01,0.08,0.03,0.02,0.01c-0.02-0.01-0.03-0.02-0.05-0.02
			c-0.02-0.01-0.03-0.02-0.04-0.03c-0.03-0.02,0-0.02,0.02,0.02c-0.02-0.02-0.05-0.04-0.06-0.06c-0.01-0.01-0.02-0.02-0.03-0.03
			c-0.03-0.03,0.05,0.06,0.01,0.01c-0.01-0.02-0.03-0.07-0.05-0.09c0.03,0.03,0.02,0.06,0.01,0.03c-0.01-0.02-0.01-0.03-0.02-0.05
			c0-0.01-0.01-0.02-0.01-0.03c-0.01-0.04,0.01-0.06,0,0.01c0-0.03-0.01-0.06-0.01-0.09c0-0.01,0-0.02,0-0.04c0-0.06-0.01,0.08,0,0
			c0-0.03,0.01-0.05,0.02-0.08s0.04-0.07,0,0.01c0.01-0.01,0.01-0.02,0.02-0.03c0.01-0.03,0.03-0.05,0.04-0.08
			c0.03-0.06-0.05,0.05,0,0.01c0.01-0.01,0.02-0.03,0.03-0.04c0.01-0.01,0.02-0.02,0.03-0.03c0.03-0.03,0.03,0-0.02,0.01
			c0.02-0.01,0.05-0.04,0.07-0.05c0.01-0.01,0.06-0.03,0.01-0.01c-0.05,0.02,0,0,0.01,0c0.03-0.01,0.08-0.01,0.1-0.03
			c-0.01,0-0.08,0.01-0.03,0c0.02,0,0.04,0,0.05-0.01c0.02,0,0.1,0,0.05,0c-0.06-0.01,0,0,0.01,0c0.01,0,0.03,0.01,0.05,0.01
			c0.01,0,0.03,0.01,0.05,0.01c0.06,0.02-0.06-0.03-0.01,0c0.03,0.02,0.06,0.03,0.09,0.05c0.05,0.03-0.04-0.04-0.02-0.01
			c0.01,0.02,0.03,0.03,0.05,0.04c0.01,0.01,0.02,0.02,0.02,0.03s0.02,0.02,0.02,0.03c-0.03-0.04-0.04-0.05-0.02-0.02
			c0.01,0.02,0.03,0.05,0.05,0.07c0.03,0.05-0.02-0.07,0-0.01c0.01,0.02,0.01,0.03,0.02,0.05c0.01,0.02,0.01,0.03,0.01,0.05
			c0.02,0.05-0.01-0.07,0-0.01c0,0.04,0,0.07,0.01,0.11c0,0.03-0.02,0.02,0-0.03C235.63,79.42,235.63,79.44,235.63,79.47
			c-0.03,0.16,0.06,0.34,0.23,0.37c0.16,0.03,0.33-0.06,0.37-0.23c0.09-0.41-0.08-0.81-0.42-1.04c-0.32-0.21-0.78-0.2-1.09,0.03
			c-0.33,0.25-0.49,0.68-0.36,1.08c0.13,0.4,0.49,0.66,0.9,0.68c0.46,0.02,0.86-0.32,0.97-0.75c0.04-0.16-0.07-0.34-0.23-0.37
			C235.83,79.21,235.67,79.3,235.63,79.47z"/>
	</g>
</g>
<g>
	<g>
		<path fill="#010101" d="M245.39,81.77c0,0.02-0.01,0.04-0.01,0.05c-0.01,0.05,0.01-0.02,0.01-0.03c-0.02,0.02-0.03,0.06-0.04,0.08
			c-0.01,0.01-0.02,0.03-0.03,0.04c0-0.01,0.05-0.06,0.02-0.02c-0.02,0.02-0.05,0.05-0.07,0.07c-0.04,0.04,0.05-0.03,0.01-0.01
			c-0.01,0.01-0.02,0.02-0.04,0.02c-0.01,0.01-0.02,0.01-0.03,0.02c-0.03,0.02-0.06,0.01,0.01,0c-0.03,0.01-0.05,0.02-0.08,0.03
			c-0.01,0-0.02,0.01-0.03,0.01c-0.05,0.02,0.07-0.01,0,0c-0.03,0-0.06,0-0.09,0c-0.04,0-0.04-0.02,0.02,0
			c-0.01-0.01-0.03,0-0.05-0.01c-0.03,0-0.06-0.01-0.09-0.02c-0.04-0.01,0.08,0.03,0.02,0.01c-0.02-0.01-0.03-0.02-0.05-0.02
			s-0.03-0.02-0.04-0.03c-0.03-0.02,0-0.02,0.02,0.02c-0.02-0.02-0.05-0.04-0.06-0.06c-0.01-0.01-0.02-0.02-0.03-0.03
			c-0.03-0.03,0.05,0.06,0.01,0.01c-0.01-0.02-0.03-0.07-0.05-0.09c0.03,0.03,0.02,0.06,0.01,0.03c-0.01-0.02-0.01-0.03-0.02-0.05
			c0-0.01-0.01-0.02-0.01-0.03c-0.01-0.04,0.01-0.06,0,0.01c0-0.03-0.01-0.06-0.01-0.09c0-0.01,0-0.02,0-0.04c0-0.06-0.01,0.08,0,0
			c0-0.03,0.01-0.05,0.02-0.08c0.01-0.03,0.04-0.07,0,0.01c0.01-0.01,0.01-0.02,0.02-0.03c0.01-0.03,0.03-0.05,0.04-0.08
			c0.03-0.06-0.05,0.05,0,0.01c0.01-0.01,0.02-0.03,0.03-0.04c0.01-0.01,0.02-0.02,0.03-0.03c0.03-0.03,0.03,0-0.02,0.01
			c0.02-0.01,0.05-0.04,0.07-0.05c0.01-0.01,0.06-0.03,0.01-0.01c-0.05,0.02,0,0,0.01,0c0.03-0.01,0.08-0.01,0.1-0.03
			c-0.01,0-0.08,0.01-0.03,0c0.02,0,0.04,0,0.05-0.01c0.02,0,0.1,0,0.05,0c-0.06-0.01,0,0,0.01,0c0.01,0,0.03,0.01,0.05,0.01
			c0.01,0,0.03,0.01,0.05,0.01c0.06,0.02-0.06-0.03-0.01,0c0.03,0.02,0.06,0.03,0.09,0.05c0.05,0.03-0.04-0.04-0.02-0.01
			c0.01,0.02,0.03,0.03,0.05,0.04c0.01,0.01,0.02,0.02,0.02,0.03c0.01,0.01,0.02,0.02,0.02,0.03c-0.03-0.04-0.04-0.05-0.02-0.02
			c0.01,0.02,0.03,0.05,0.05,0.07c0.03,0.05-0.02-0.07,0-0.01c0.01,0.02,0.01,0.03,0.02,0.05c0.01,0.02,0.01,0.03,0.01,0.05
			c0.02,0.05-0.01-0.07,0-0.01c0,0.04,0,0.07,0.01,0.11c0,0.03-0.02,0.02,0-0.03C245.39,81.72,245.39,81.74,245.39,81.77
			c-0.03,0.16,0.06,0.34,0.23,0.37c0.16,0.03,0.33-0.06,0.37-0.23c0.09-0.41-0.08-0.81-0.42-1.04c-0.32-0.21-0.78-0.2-1.09,0.03
			c-0.33,0.25-0.49,0.68-0.36,1.08c0.13,0.4,0.49,0.66,0.9,0.68c0.46,0.02,0.86-0.32,0.97-0.75c0.04-0.16-0.07-0.34-0.23-0.37
			C245.59,81.5,245.43,81.6,245.39,81.77z"/>
	</g>
</g>
<g>
	<g>
		<path fill="#010101" d="M255.71,84.2c0,0.02-0.01,0.04-0.01,0.05c-0.01,0.05,0.01-0.02,0.01-0.03c-0.02,0.02-0.03,0.06-0.04,0.08
			c-0.01,0.01-0.02,0.03-0.03,0.04c0-0.01,0.05-0.06,0.02-0.02c-0.02,0.02-0.05,0.05-0.07,0.07c-0.04,0.04,0.05-0.03,0.01-0.01
			c-0.01,0.01-0.02,0.02-0.04,0.02c-0.01,0.01-0.02,0.01-0.03,0.02c-0.03,0.02-0.06,0.01,0.01,0c-0.03,0.01-0.05,0.02-0.08,0.03
			c-0.01,0-0.02,0.01-0.03,0.01c-0.05,0.02,0.07-0.01,0,0c-0.03,0-0.06,0-0.09,0c-0.04,0-0.04-0.02,0.02,0
			c-0.01-0.01-0.03,0-0.05-0.01c-0.03,0-0.06-0.01-0.09-0.02c-0.04-0.01,0.08,0.03,0.02,0.01c-0.02-0.01-0.03-0.02-0.05-0.02
			c-0.02-0.01-0.03-0.02-0.04-0.03c-0.03-0.02,0-0.02,0.02,0.02c-0.02-0.02-0.05-0.04-0.06-0.06c-0.01-0.01-0.02-0.02-0.03-0.03
			c-0.03-0.03,0.05,0.06,0.01,0.01c-0.01-0.02-0.03-0.07-0.05-0.09c0.03,0.03,0.02,0.06,0.01,0.03c-0.01-0.02-0.01-0.03-0.02-0.05
			c0-0.01-0.01-0.02-0.01-0.03c-0.01-0.04,0.01-0.06,0,0.01c0-0.03-0.01-0.06-0.01-0.09c0-0.01,0-0.02,0-0.04c0-0.06-0.01,0.08,0,0
			c0-0.03,0.01-0.05,0.02-0.08s0.04-0.07,0,0.01c0.01-0.01,0.01-0.02,0.02-0.03c0.01-0.03,0.03-0.05,0.04-0.08
			c0.03-0.06-0.05,0.05,0,0.01c0.01-0.01,0.02-0.03,0.03-0.04c0.01-0.01,0.02-0.02,0.03-0.03c0.03-0.03,0.03,0-0.02,0.01
			c0.02-0.01,0.05-0.04,0.07-0.05c0.01-0.01,0.06-0.03,0.01-0.01c-0.05,0.02,0,0,0.01,0c0.03-0.01,0.08-0.01,0.1-0.03
			c-0.01,0-0.08,0.01-0.03,0c0.02,0,0.04,0,0.05-0.01c0.02,0,0.1,0,0.05,0c-0.06-0.01,0,0,0.01,0c0.01,0,0.03,0.01,0.05,0.01
			c0.01,0,0.03,0.01,0.05,0.01c0.06,0.02-0.06-0.03-0.01,0c0.03,0.02,0.06,0.03,0.09,0.05c0.05,0.03-0.04-0.04-0.02-0.01
			c0.01,0.02,0.03,0.03,0.05,0.04c0.01,0.01,0.02,0.02,0.02,0.03c0.01,0.01,0.02,0.02,0.02,0.03c-0.03-0.04-0.04-0.05-0.02-0.02
			c0.01,0.02,0.03,0.05,0.05,0.07c0.03,0.05-0.02-0.07,0-0.01c0.01,0.02,0.01,0.03,0.02,0.05s0.01,0.03,0.01,0.05
			c0.02,0.05-0.01-0.07,0-0.01c0,0.04,0,0.07,0.01,0.11c0,0.03-0.02,0.02,0-0.03C255.71,84.15,255.71,84.18,255.71,84.2
			c-0.03,0.16,0.06,0.34,0.23,0.37c0.16,0.03,0.33-0.06,0.37-0.23c0.09-0.41-0.08-0.81-0.42-1.04c-0.32-0.21-0.78-0.2-1.09,0.03
			c-0.33,0.25-0.49,0.68-0.36,1.08c0.13,0.4,0.49,0.66,0.9,0.68c0.46,0.02,0.86-0.32,0.97-0.75c0.04-0.16-0.07-0.34-0.23-0.37
			C255.91,83.94,255.75,84.03,255.71,84.2z"/>
	</g>
</g>
<g>
	<g>
		<path fill="#010101" d="M250.41,82.95c0,0.02-0.01,0.04-0.01,0.05c-0.01,0.05,0.01-0.02,0.01-0.03c-0.02,0.02-0.03,0.06-0.04,0.08
			c-0.01,0.01-0.02,0.03-0.03,0.04c0-0.01,0.05-0.06,0.02-0.02c-0.02,0.02-0.05,0.05-0.07,0.07c-0.04,0.04,0.05-0.03,0.01-0.01
			c-0.01,0.01-0.02,0.02-0.04,0.02c-0.01,0.01-0.02,0.01-0.03,0.02c-0.03,0.02-0.06,0.01,0.01,0c-0.03,0.01-0.05,0.02-0.08,0.03
			c-0.01,0-0.02,0.01-0.03,0.01c-0.05,0.02,0.07-0.01,0,0c-0.03,0-0.06,0-0.09,0c-0.04,0-0.04-0.02,0.02,0
			c-0.01-0.01-0.03,0-0.05-0.01c-0.03,0-0.06-0.01-0.09-0.02c-0.04-0.01,0.08,0.03,0.02,0.01c-0.02-0.01-0.03-0.02-0.05-0.02
			c-0.02-0.01-0.03-0.02-0.04-0.03c-0.03-0.02,0-0.02,0.02,0.02c-0.02-0.02-0.05-0.04-0.06-0.06c-0.01-0.01-0.02-0.02-0.03-0.03
			c-0.03-0.03,0.05,0.06,0.01,0.01c-0.01-0.02-0.03-0.07-0.05-0.09c0.03,0.03,0.02,0.06,0.01,0.03c-0.01-0.02-0.01-0.03-0.02-0.05
			c0-0.01-0.01-0.02-0.01-0.03c-0.01-0.04,0.01-0.06,0,0.01c0-0.03-0.01-0.06-0.01-0.09c0-0.01,0-0.02,0-0.04c0-0.06-0.01,0.08,0,0
			c0-0.03,0.01-0.05,0.02-0.08s0.04-0.07,0,0.01c0.01-0.01,0.01-0.02,0.02-0.03c0.01-0.03,0.03-0.05,0.04-0.08
			c0.03-0.06-0.05,0.05,0,0.01c0.01-0.01,0.02-0.03,0.03-0.04c0.01-0.01,0.02-0.02,0.03-0.03c0.03-0.03,0.03,0-0.02,0.01
			c0.02-0.01,0.05-0.04,0.07-0.05c0.01-0.01,0.06-0.03,0.01-0.01c-0.05,0.02,0,0,0.01,0c0.03-0.01,0.08-0.01,0.1-0.03
			c-0.01,0-0.08,0.01-0.03,0c0.02,0,0.04,0,0.05-0.01c0.02,0,0.1,0,0.05,0c-0.06-0.01,0,0,0.01,0c0.01,0,0.03,0.01,0.05,0.01
			c0.01,0,0.03,0.01,0.05,0.01c0.06,0.02-0.06-0.03-0.01,0c0.03,0.02,0.06,0.03,0.09,0.05c0.05,0.03-0.04-0.04-0.02-0.01
			c0.01,0.02,0.03,0.03,0.05,0.04c0.01,0.01,0.02,0.02,0.02,0.03c0.01,0.01,0.02,0.02,0.02,0.03c-0.03-0.04-0.04-0.05-0.02-0.02
			c0.01,0.02,0.03,0.05,0.05,0.07c0.03,0.05-0.02-0.07,0-0.01c0.01,0.02,0.01,0.03,0.02,0.05s0.01,0.03,0.01,0.05
			c0.02,0.05-0.01-0.07,0-0.01c0,0.04,0,0.07,0.01,0.11c0,0.03-0.02,0.02,0-0.03C250.41,82.9,250.41,82.93,250.41,82.95
			c-0.03,0.16,0.06,0.34,0.23,0.37c0.16,0.03,0.33-0.06,0.37-0.23c0.09-0.41-0.08-0.81-0.42-1.04c-0.32-0.21-0.78-0.2-1.09,0.03
			c-0.33,0.25-0.49,0.68-0.36,1.08c0.13,0.4,0.49,0.66,0.9,0.68c0.46,0.02,0.86-0.32,0.97-0.75c0.04-0.16-0.07-0.34-0.23-0.37
			C250.61,82.69,250.45,82.78,250.41,82.95z"/>
	</g>
</g>
<g>
	<g>
		<path fill="#010101" d="M240.37,80.58c0,0.02-0.01,0.04-0.01,0.05c-0.01,0.05,0.01-0.02,0.01-0.03c-0.02,0.02-0.03,0.06-0.04,0.08
			c-0.01,0.01-0.02,0.03-0.03,0.04c0-0.01,0.05-0.06,0.02-0.02c-0.02,0.02-0.05,0.05-0.07,0.07c-0.04,0.04,0.05-0.03,0.01-0.01
			c-0.01,0.01-0.02,0.02-0.04,0.02c-0.01,0.01-0.02,0.01-0.03,0.02c-0.03,0.02-0.06,0.01,0.01,0c-0.03,0.01-0.05,0.02-0.08,0.03
			c-0.01,0-0.02,0.01-0.03,0.01c-0.05,0.02,0.07-0.01,0,0c-0.03,0-0.06,0-0.09,0c-0.04,0-0.04-0.02,0.02,0
			c-0.01-0.01-0.03,0-0.05-0.01c-0.03,0-0.06-0.01-0.09-0.02c-0.04-0.01,0.08,0.03,0.02,0.01c-0.02-0.01-0.03-0.02-0.05-0.02
			c-0.02-0.01-0.03-0.02-0.04-0.03c-0.03-0.02,0-0.02,0.02,0.02c-0.02-0.02-0.05-0.04-0.06-0.06c-0.01-0.01-0.02-0.02-0.03-0.03
			c-0.03-0.03,0.05,0.06,0.01,0.01c-0.01-0.02-0.03-0.07-0.05-0.09c0.03,0.03,0.02,0.06,0.01,0.03c-0.01-0.02-0.01-0.03-0.02-0.05
			c0-0.01-0.01-0.02-0.01-0.03c-0.01-0.04,0.01-0.06,0,0.01c0-0.03-0.01-0.06-0.01-0.09c0-0.01,0-0.02,0-0.04c0-0.06-0.01,0.08,0,0
			c0-0.03,0.01-0.05,0.02-0.08c0.01-0.03,0.04-0.07,0,0.01c0.01-0.01,0.01-0.02,0.02-0.03c0.01-0.03,0.03-0.05,0.04-0.08
			c0.03-0.06-0.05,0.05,0,0.01c0.01-0.01,0.02-0.03,0.03-0.04c0.01-0.01,0.02-0.02,0.03-0.03c0.03-0.03,0.03,0-0.02,0.01
			c0.02-0.01,0.05-0.04,0.07-0.05c0.01-0.01,0.06-0.03,0.01-0.01c-0.05,0.02,0,0,0.01,0c0.03-0.01,0.08-0.01,0.1-0.03
			c-0.01,0-0.08,0.01-0.03,0c0.02,0,0.04,0,0.05-0.01c0.02,0,0.1,0,0.05,0c-0.06-0.01,0,0,0.01,0c0.01,0,0.03,0.01,0.05,0.01
			c0.01,0,0.03,0.01,0.05,0.01c0.06,0.02-0.06-0.03-0.01,0c0.03,0.02,0.06,0.03,0.09,0.05c0.05,0.03-0.04-0.04-0.02-0.01
			c0.01,0.02,0.03,0.03,0.05,0.04c0.01,0.01,0.02,0.02,0.02,0.03c0.01,0.01,0.02,0.02,0.02,0.03c-0.03-0.04-0.04-0.05-0.02-0.02
			c0.01,0.02,0.03,0.05,0.05,0.07c0.03,0.05-0.02-0.07,0-0.01c0.01,0.02,0.01,0.03,0.02,0.05c0.01,0.02,0.01,0.03,0.01,0.05
			c0.02,0.05-0.01-0.07,0-0.01c0,0.04,0,0.07,0.01,0.11c0,0.03-0.02,0.02,0-0.03C240.37,80.53,240.37,80.56,240.37,80.58
			c-0.03,0.16,0.06,0.34,0.23,0.37c0.16,0.03,0.33-0.06,0.37-0.23c0.09-0.41-0.08-0.81-0.42-1.04c-0.32-0.21-0.78-0.2-1.09,0.03
			c-0.33,0.25-0.49,0.68-0.36,1.08c0.13,0.4,0.49,0.66,0.9,0.68c0.46,0.02,0.86-0.32,0.97-0.75c0.04-0.16-0.07-0.34-0.23-0.37
			C240.57,80.32,240.41,80.42,240.37,80.58z"/>
	</g>
</g>
<g>
	<polygon fill="#6182FF" points="591.42,41.76 596.65,63.09 626.04,59.22 625.37,37.13 	"/>
</g>
<g>
	<g>
		<path fill="#010101" stroke="#000000" stroke-miterlimit="10" d="M585.63,19.73c0.33,1.35,0.66,2.7,0.99,4.05
			c0.8,3.27,1.6,6.54,2.41,9.82c0.99,4.02,1.97,8.04,2.96,12.05c0.88,3.59,1.76,7.18,2.64,10.77c0.49,1.98,0.97,3.97,1.46,5.95
			c0.03,0.11,0.05,0.22,0.08,0.32c0.11,0.47,0.07,0.91,0,1.38c-0.18,1.16-0.37,2.32-0.55,3.48c-0.61,3.91-1.23,7.82-1.84,11.72
			c-0.23,1.45-0.45,2.9-0.68,4.34c-0.05,0.31-0.1,0.62-0.15,0.93c-0.15,0.96,0.07,1.92,0.68,2.69c0.75,0.94,1.93,1.4,3.12,1.25
			c0.16-0.02,0.33-0.04,0.49-0.07c0.94-0.13,1.89-0.26,2.83-0.39c3.51-0.48,7.03-0.96,10.54-1.44c4.01-0.55,8.03-1.1,12.04-1.64
			c2.52-0.34,5.03-0.69,7.55-1.03c0.16-0.02,0.32-0.04,0.49-0.07c1.19-0.18,2.23-0.95,2.68-2.08c0.33-0.82,0.3-1.69,0.02-2.51
			c-0.11-0.33-0.23-0.66-0.34-0.99c-1.16-3.35-2.32-6.71-3.48-10.06c-0.98-2.84-1.97-5.68-2.95-8.53c-0.16-0.47-0.2-0.94-0.22-1.43
			c-0.03-0.79-0.05-1.58-0.07-2.37c-0.09-3.07-0.19-6.14-0.28-9.21c-0.12-4.06-0.25-8.13-0.37-12.19
			c-0.12-3.88-0.24-7.76-0.36-11.64c-0.08-2.49-0.15-4.97-0.23-7.46c-0.01-0.35-0.02-0.7-0.03-1.04c-0.02-0.55-0.86-0.43-0.85,0.12
			c0.04,1.37,0.08,2.74,0.13,4.11c0.1,3.33,0.2,6.65,0.31,9.98c0.13,4.1,0.25,8.21,0.38,12.31c0.11,3.69,0.23,7.37,0.34,11.06
			c0.07,2.14,0.13,4.28,0.2,6.41c0.02,0.55,0.07,1.07,0.26,1.61c0.34,0.98,0.68,1.97,1.02,2.95c1.27,3.67,2.54,7.34,3.81,11.01
			c0.51,1.49,1.03,2.97,1.54,4.46c0.32,0.93,0.8,1.9,0.46,2.9c-0.32,0.94-1.12,1.59-2.1,1.73c-0.19,0.03-0.38,0.05-0.57,0.08
			c-0.98,0.13-1.97,0.27-2.95,0.4c-3.53,0.48-7.06,0.96-10.59,1.45c-3.96,0.54-7.92,1.08-11.89,1.62c-2.48,0.34-4.97,0.68-7.45,1.02
			c-0.16,0.02-0.31,0.04-0.47,0.06c-1.15,0.14-2.26-0.48-2.7-1.57c-0.36-0.89-0.05-1.95,0.09-2.86c0.56-3.57,1.12-7.14,1.68-10.71
			c0.44-2.83,0.89-5.67,1.33-8.5c0.1-0.65,0.01-1.25-0.14-1.88c-0.19-0.78-0.38-1.55-0.57-2.33c-0.73-2.99-1.47-5.98-2.2-8.97
			c-0.96-3.92-1.92-7.85-2.89-11.77c-0.92-3.75-1.84-7.5-2.76-11.25c-0.59-2.4-1.18-4.8-1.76-7.19c-0.08-0.33-0.16-0.66-0.24-1
			C586.35,19.09,585.5,19.2,585.63,19.73L585.63,19.73z"/>
	</g>
</g>
<g>
	<g>
		<path fill="#010101" d="M596.77,63.5c0.97-0.13,1.94-0.27,2.91-0.4c2.33-0.32,4.66-0.64,7-0.95c2.82-0.38,5.64-0.77,8.46-1.15
			c2.43-0.33,4.86-0.66,7.29-0.99c1.18-0.16,2.38-0.28,3.55-0.48c0.02,0,0.03,0,0.05-0.01c0.36-0.05,0.29-0.61-0.08-0.56
			c-0.97,0.13-1.94,0.27-2.91,0.4c-2.33,0.32-4.66,0.64-7,0.95c-2.82,0.38-5.64,0.77-8.46,1.15c-2.43,0.33-4.86,0.66-7.29,0.99
			c-1.18,0.16-2.38,0.28-3.55,0.48c-0.02,0-0.03,0-0.05,0.01C596.33,62.99,596.41,63.55,596.77,63.5L596.77,63.5z"/>
	</g>
</g>
<g>
	<g>
		<path fill="#010101" d="M614.44,69.96c0.14,1.11-0.41,2.24-1.43,2.76c-1,0.51-2.24,0.35-3.07-0.41c-0.83-0.76-1.09-2-0.65-3.04
			c0.44-1.04,1.53-1.72,2.66-1.63C613.22,67.72,614.25,68.7,614.44,69.96c0.05,0.36,0.62,0.29,0.56-0.08
			c-0.2-1.35-1.2-2.44-2.53-2.75c-1.32-0.3-2.76,0.3-3.47,1.46c-0.72,1.16-0.65,2.69,0.21,3.77c0.85,1.07,2.31,1.48,3.6,1.06
			c1.48-0.49,2.37-2.01,2.19-3.53C614.96,69.51,614.39,69.59,614.44,69.96z"/>
	</g>
</g>
<g>
	<g>
		<path fill="#010101" d="M604.27,81.11c0,0.02,0,0.03,0,0.05c0,0.05,0-0.02,0-0.03c-0.01,0.02,0,0.06-0.01,0.08
			c0,0.01-0.01,0.03-0.01,0.05c0-0.01,0.02-0.07,0.01-0.02c-0.01,0.03-0.02,0.06-0.04,0.09c-0.02,0.05,0.03-0.04,0.01-0.01
			c-0.01,0.01-0.02,0.02-0.02,0.03c-0.01,0.01-0.01,0.02-0.02,0.03c-0.02,0.02-0.05,0.03,0.01-0.01c-0.02,0.01-0.04,0.04-0.06,0.05
			c-0.01,0.01-0.02,0.01-0.02,0.02c-0.04,0.03,0.06-0.03,0,0c-0.03,0.01-0.05,0.02-0.08,0.03c-0.03,0.01-0.04,0,0.02,0
			c-0.01,0-0.03,0.01-0.04,0.01c-0.03,0.01-0.06,0.01-0.08,0.01c-0.04,0,0.08,0,0.02,0c-0.02,0-0.03,0-0.05,0
			c-0.02,0-0.03,0-0.05-0.01c-0.03-0.01-0.01-0.02,0.02,0.01c-0.02-0.01-0.05-0.02-0.08-0.03c-0.01-0.01-0.02-0.01-0.04-0.02
			c-0.03-0.01,0.06,0.04,0.01,0.01c-0.02-0.02-0.05-0.05-0.07-0.06c0.03,0.02,0.04,0.04,0.02,0.02c-0.01-0.01-0.02-0.02-0.03-0.04
			c-0.01-0.01-0.01-0.02-0.02-0.02c-0.02-0.03-0.01-0.05,0,0.01c-0.01-0.02-0.03-0.05-0.04-0.07c0-0.01-0.01-0.02-0.01-0.03
			c-0.02-0.05,0.01,0.07,0,0c-0.01-0.02-0.01-0.05-0.01-0.08c0-0.03,0.01-0.07,0,0.01c0-0.01,0-0.02,0-0.03
			c0-0.03,0.01-0.05,0.01-0.08c0.01-0.06-0.02,0.06,0,0.01c0-0.01,0.01-0.03,0.02-0.05c0.01-0.01,0.01-0.02,0.02-0.04
			c0.02-0.03,0.03-0.02-0.01,0.02c0.02-0.01,0.03-0.05,0.05-0.06c0.01-0.01,0.04-0.04,0.01-0.01c-0.04,0.03,0,0,0.01-0.01
			c0.02-0.02,0.06-0.04,0.08-0.06c0,0.01-0.06,0.03-0.02,0.01c0.02-0.01,0.03-0.02,0.04-0.02c0.02-0.01,0.09-0.03,0.04-0.02
			c-0.05,0.01,0,0,0.01,0c0.01,0,0.03,0,0.04-0.01c0.01,0,0.03,0,0.04,0c0.06-0.01-0.06-0.01-0.01,0c0.03,0,0.07,0.01,0.1,0.01
			c0.05,0.01-0.05-0.02-0.02,0c0.02,0.01,0.04,0.01,0.05,0.02c0.01,0,0.02,0.01,0.03,0.01c0.01,0.01,0.02,0.01,0.03,0.01
			c-0.04-0.02-0.05-0.03-0.02-0.01c0.02,0.02,0.04,0.03,0.06,0.05c0.05,0.04-0.04-0.05-0.01-0.01c0.01,0.01,0.02,0.02,0.03,0.04
			c0.01,0.01,0.02,0.02,0.03,0.04c0.03,0.04-0.03-0.06,0-0.01c0.01,0.03,0.03,0.06,0.04,0.09c0.01,0.03-0.01,0.03-0.01-0.02
			C604.26,81.07,604.27,81.09,604.27,81.11c0.02,0.15,0.17,0.27,0.32,0.24c0.15-0.03,0.27-0.16,0.24-0.32
			c-0.06-0.38-0.34-0.67-0.71-0.76c-0.35-0.08-0.74,0.09-0.93,0.39c-0.2,0.32-0.2,0.74,0.05,1.05c0.24,0.3,0.64,0.4,1.01,0.29
			c0.4-0.13,0.64-0.56,0.59-0.97c-0.02-0.15-0.17-0.27-0.32-0.24C604.36,80.82,604.25,80.95,604.27,81.11z"/>
	</g>
</g>
<g>
	<g>
		<path fill="#010101" d="M613.46,79.86c0,0.02,0,0.03,0,0.05c0,0.05,0-0.02,0-0.03c-0.01,0.02,0,0.06-0.01,0.08
			c0,0.01-0.01,0.03-0.01,0.05c0-0.01,0.02-0.07,0.01-0.02c-0.01,0.03-0.02,0.06-0.04,0.09c-0.02,0.05,0.03-0.04,0.01-0.01
			c-0.01,0.01-0.02,0.02-0.02,0.03c-0.01,0.01-0.01,0.02-0.02,0.03c-0.02,0.02-0.05,0.03,0.01-0.01c-0.02,0.01-0.04,0.04-0.06,0.05
			c-0.01,0.01-0.02,0.01-0.02,0.02c-0.04,0.03,0.06-0.03,0,0c-0.03,0.01-0.05,0.02-0.08,0.03c-0.03,0.01-0.04,0,0.02,0
			c-0.01,0-0.03,0.01-0.04,0.01c-0.03,0.01-0.06,0.01-0.08,0.01c-0.04,0,0.08,0,0.02,0c-0.02,0-0.03,0-0.05,0s-0.03,0-0.05-0.01
			c-0.03-0.01-0.01-0.02,0.02,0.01c-0.02-0.01-0.05-0.02-0.08-0.03c-0.01-0.01-0.02-0.01-0.04-0.02c-0.03-0.01,0.06,0.04,0.01,0.01
			c-0.02-0.02-0.05-0.05-0.07-0.06c0.03,0.02,0.04,0.04,0.02,0.02c-0.01-0.01-0.02-0.02-0.03-0.04c-0.01-0.01-0.01-0.02-0.02-0.02
			c-0.02-0.03-0.01-0.05,0,0.01c-0.01-0.02-0.03-0.05-0.04-0.07c0-0.01-0.01-0.02-0.01-0.03c-0.02-0.05,0.01,0.07,0,0
			c-0.01-0.02-0.01-0.05-0.01-0.08c0-0.03,0.01-0.07,0,0.01c0-0.01,0-0.02,0-0.03c0-0.03,0.01-0.05,0.01-0.08
			c0.01-0.06-0.02,0.06,0,0.01c0-0.01,0.01-0.03,0.02-0.05c0.01-0.01,0.01-0.02,0.02-0.04c0.02-0.03,0.03-0.02-0.01,0.02
			c0.02-0.01,0.03-0.05,0.05-0.06c0.01-0.01,0.04-0.04,0.01-0.01c-0.04,0.03,0,0,0.01-0.01c0.02-0.02,0.06-0.04,0.08-0.06
			c0,0.01-0.06,0.03-0.02,0.01c0.02-0.01,0.03-0.02,0.04-0.02c0.02-0.01,0.09-0.03,0.04-0.02c-0.05,0.01,0,0,0.01,0
			c0.01,0,0.03,0,0.04-0.01c0.01,0,0.03,0,0.04,0c0.06-0.01-0.06-0.01-0.01,0c0.03,0,0.07,0.01,0.1,0.01c0.05,0.01-0.05-0.02-0.02,0
			c0.02,0.01,0.04,0.01,0.05,0.02c0.01,0,0.02,0.01,0.03,0.01c0.01,0.01,0.02,0.01,0.03,0.01c-0.04-0.02-0.05-0.03-0.02-0.01
			c0.02,0.02,0.04,0.03,0.06,0.05c0.05,0.04-0.04-0.05-0.01-0.01c0.01,0.01,0.02,0.02,0.03,0.04c0.01,0.01,0.02,0.02,0.03,0.04
			c0.03,0.04-0.03-0.06,0-0.01c0.01,0.03,0.03,0.06,0.04,0.09c0.01,0.03-0.01,0.03-0.01-0.02
			C613.44,79.81,613.45,79.84,613.46,79.86c0.02,0.15,0.17,0.27,0.32,0.24c0.15-0.03,0.27-0.16,0.24-0.32
			c-0.06-0.38-0.34-0.67-0.71-0.76c-0.35-0.08-0.74,0.09-0.93,0.39c-0.2,0.32-0.2,0.74,0.05,1.05c0.24,0.3,0.64,0.4,1.01,0.29
			c0.4-0.13,0.64-0.56,0.59-0.97c-0.02-0.15-0.17-0.27-0.32-0.24C613.55,79.57,613.44,79.7,613.46,79.86z"/>
	</g>
</g>
<g>
	<g>
		<path fill="#010101" d="M623.17,78.53c0,0.02,0,0.03,0,0.05c0,0.05,0-0.02,0-0.03c-0.01,0.02,0,0.06-0.01,0.08
			c0,0.01-0.01,0.03-0.01,0.05c0-0.01,0.02-0.07,0.01-0.02c-0.01,0.03-0.02,0.06-0.04,0.09c-0.02,0.05,0.03-0.04,0.01-0.01
			c-0.01,0.01-0.02,0.02-0.02,0.03c-0.01,0.01-0.01,0.02-0.02,0.03c-0.02,0.02-0.05,0.03,0.01-0.01c-0.02,0.01-0.04,0.04-0.06,0.05
			c-0.01,0.01-0.02,0.01-0.02,0.02c-0.04,0.03,0.06-0.03,0,0c-0.03,0.01-0.05,0.02-0.08,0.03c-0.03,0.01-0.04,0,0.02,0
			c-0.01,0-0.03,0.01-0.04,0.01c-0.03,0.01-0.06,0.01-0.08,0.01c-0.04,0,0.08,0,0.02,0c-0.02,0-0.03,0-0.05,0s-0.03,0-0.05-0.01
			c-0.03-0.01-0.01-0.02,0.02,0.01c-0.02-0.01-0.05-0.02-0.08-0.03c-0.01-0.01-0.02-0.01-0.04-0.02c-0.03-0.01,0.06,0.04,0.01,0.01
			c-0.02-0.02-0.05-0.05-0.07-0.06c0.03,0.02,0.04,0.04,0.02,0.02c-0.01-0.01-0.02-0.02-0.03-0.04c-0.01-0.01-0.01-0.02-0.02-0.02
			c-0.02-0.03-0.01-0.05,0,0.01c-0.01-0.02-0.03-0.05-0.04-0.07c0-0.01-0.01-0.02-0.01-0.03c-0.02-0.05,0.01,0.07,0,0
			c-0.01-0.02-0.01-0.05-0.01-0.08c0-0.03,0.01-0.07,0,0.01c0-0.01,0-0.02,0-0.03c0-0.03,0.01-0.05,0.01-0.08
			c0.01-0.06-0.02,0.06,0,0.01c0-0.01,0.01-0.03,0.02-0.05c0.01-0.01,0.01-0.02,0.02-0.04c0.02-0.03,0.03-0.02-0.01,0.02
			c0.02-0.01,0.03-0.05,0.05-0.06c0.01-0.01,0.04-0.04,0.01-0.01c-0.04,0.03,0,0,0.01-0.01c0.02-0.02,0.06-0.04,0.08-0.06
			c0,0.01-0.06,0.03-0.02,0.01c0.02-0.01,0.03-0.02,0.04-0.02c0.02-0.01,0.09-0.03,0.04-0.02c-0.05,0.01,0,0,0.01,0
			c0.01,0,0.03,0,0.04-0.01c0.01,0,0.03,0,0.04,0c0.06-0.01-0.06-0.01-0.01,0c0.03,0,0.07,0.01,0.1,0.01c0.05,0.01-0.05-0.02-0.02,0
			c0.02,0.01,0.04,0.01,0.05,0.02c0.01,0,0.02,0.01,0.03,0.01c0.01,0.01,0.02,0.01,0.03,0.01c-0.04-0.02-0.05-0.03-0.02-0.01
			c0.02,0.02,0.04,0.03,0.06,0.05c0.05,0.04-0.04-0.05-0.01-0.01c0.01,0.01,0.02,0.02,0.03,0.04c0.01,0.01,0.02,0.02,0.03,0.04
			c0.03,0.04-0.03-0.06,0-0.01c0.01,0.03,0.03,0.06,0.04,0.09c0.01,0.03-0.01,0.03-0.01-0.02
			C623.16,78.49,623.17,78.51,623.17,78.53c0.02,0.15,0.17,0.27,0.32,0.24c0.15-0.03,0.27-0.16,0.24-0.32
			c-0.06-0.38-0.34-0.67-0.71-0.76c-0.35-0.08-0.74,0.09-0.93,0.39c-0.2,0.32-0.2,0.74,0.05,1.05c0.24,0.3,0.64,0.4,1.01,0.29
			c0.4-0.13,0.64-0.56,0.59-0.97c-0.02-0.15-0.17-0.27-0.32-0.24C623.27,78.24,623.16,78.37,623.17,78.53z"/>
	</g>
</g>
<g>
	<g>
		<path fill="#010101" d="M618.18,79.21c0,0.02,0,0.03,0,0.05c0,0.05,0-0.02,0-0.03c-0.01,0.02,0,0.06-0.01,0.08
			c0,0.01-0.01,0.03-0.01,0.05c0-0.01,0.02-0.07,0.01-0.02c-0.01,0.03-0.02,0.06-0.04,0.09c-0.02,0.05,0.03-0.04,0.01-0.01
			c-0.01,0.01-0.02,0.02-0.02,0.03c-0.01,0.01-0.01,0.02-0.02,0.03c-0.02,0.02-0.05,0.03,0.01-0.01c-0.02,0.01-0.04,0.04-0.06,0.05
			c-0.01,0.01-0.02,0.01-0.02,0.02c-0.04,0.03,0.06-0.03,0,0c-0.03,0.01-0.05,0.02-0.08,0.03c-0.03,0.01-0.04,0,0.02,0
			c-0.01,0-0.03,0.01-0.04,0.01c-0.03,0.01-0.06,0.01-0.08,0.01c-0.04,0,0.08,0,0.02,0c-0.02,0-0.03,0-0.05,0s-0.03,0-0.05-0.01
			c-0.03-0.01-0.01-0.02,0.02,0.01c-0.02-0.01-0.05-0.02-0.08-0.03c-0.01-0.01-0.02-0.01-0.04-0.02c-0.03-0.01,0.06,0.04,0.01,0.01
			c-0.02-0.02-0.05-0.05-0.07-0.06c0.03,0.02,0.04,0.04,0.02,0.02c-0.01-0.01-0.02-0.02-0.03-0.04c-0.01-0.01-0.01-0.02-0.02-0.02
			c-0.02-0.03-0.01-0.05,0,0.01c-0.01-0.02-0.03-0.05-0.04-0.07c0-0.01-0.01-0.02-0.01-0.03c-0.02-0.05,0.01,0.07,0,0
			c-0.01-0.02-0.01-0.05-0.01-0.08c0-0.03,0.01-0.07,0,0.01c0-0.01,0-0.02,0-0.03c0-0.03,0.01-0.05,0.01-0.08
			c0.01-0.06-0.02,0.06,0,0.01c0-0.01,0.01-0.03,0.02-0.05c0.01-0.01,0.01-0.02,0.02-0.04c0.02-0.03,0.03-0.02-0.01,0.02
			c0.02-0.01,0.03-0.05,0.05-0.06c0.01-0.01,0.04-0.04,0.01-0.01c-0.04,0.03,0,0,0.01-0.01c0.02-0.02,0.06-0.04,0.08-0.06
			c0,0.01-0.06,0.03-0.02,0.01c0.02-0.01,0.03-0.02,0.04-0.02c0.02-0.01,0.09-0.03,0.04-0.02c-0.05,0.01,0,0,0.01,0
			c0.01,0,0.03,0,0.04-0.01c0.01,0,0.03,0,0.04,0c0.06-0.01-0.06-0.01-0.01,0c0.03,0,0.07,0.01,0.1,0.01c0.05,0.01-0.05-0.02-0.02,0
			c0.02,0.01,0.04,0.01,0.05,0.02c0.01,0,0.02,0.01,0.03,0.01c0.01,0.01,0.02,0.01,0.03,0.01c-0.04-0.02-0.05-0.03-0.02-0.01
			c0.02,0.02,0.04,0.03,0.06,0.05c0.05,0.04-0.04-0.05-0.01-0.01c0.01,0.01,0.02,0.02,0.03,0.04c0.01,0.01,0.02,0.02,0.03,0.04
			c0.03,0.04-0.03-0.06,0-0.01c0.01,0.03,0.03,0.06,0.04,0.09c0.01,0.03-0.01,0.03-0.01-0.02
			C618.17,79.17,618.18,79.19,618.18,79.21c0.02,0.15,0.17,0.27,0.32,0.24c0.15-0.03,0.27-0.16,0.24-0.32
			c-0.06-0.38-0.34-0.67-0.71-0.76c-0.35-0.08-0.74,0.09-0.93,0.39c-0.2,0.32-0.2,0.74,0.05,1.05c0.24,0.3,0.64,0.4,1.01,0.29
			c0.4-0.13,0.64-0.56,0.59-0.97c-0.02-0.15-0.17-0.27-0.32-0.24C618.27,78.92,618.16,79.06,618.18,79.21z"/>
	</g>
</g>
<g>
	<g>
		<path fill="#010101" d="M608.73,80.5c0,0.02,0,0.03,0,0.05c0,0.05,0-0.02,0-0.03c-0.01,0.02,0,0.06-0.01,0.08
			c0,0.01-0.01,0.03-0.01,0.05c0-0.01,0.02-0.07,0.01-0.02c-0.01,0.03-0.02,0.06-0.04,0.09c-0.02,0.05,0.03-0.04,0.01-0.01
			c-0.01,0.01-0.02,0.02-0.02,0.03c-0.01,0.01-0.01,0.02-0.02,0.03c-0.02,0.02-0.05,0.03,0.01-0.01c-0.02,0.01-0.04,0.04-0.06,0.05
			c-0.01,0.01-0.02,0.01-0.02,0.02c-0.04,0.03,0.06-0.03,0,0c-0.03,0.01-0.05,0.02-0.08,0.03c-0.03,0.01-0.04,0,0.02,0
			c-0.01,0-0.03,0.01-0.04,0.01c-0.03,0.01-0.06,0.01-0.08,0.01c-0.04,0,0.08,0,0.02,0c-0.02,0-0.03,0-0.05,0s-0.03,0-0.05-0.01
			c-0.03-0.01-0.01-0.02,0.02,0.01c-0.02-0.01-0.05-0.02-0.08-0.03c-0.01-0.01-0.02-0.01-0.04-0.02c-0.03-0.01,0.06,0.04,0.01,0.01
			c-0.02-0.02-0.05-0.05-0.07-0.06c0.03,0.02,0.04,0.04,0.02,0.02c-0.01-0.01-0.02-0.02-0.03-0.04c-0.01-0.01-0.01-0.02-0.02-0.02
			c-0.02-0.03-0.01-0.05,0,0.01c-0.01-0.02-0.03-0.05-0.04-0.07c0-0.01-0.01-0.02-0.01-0.03c-0.02-0.05,0.01,0.07,0,0
			c-0.01-0.02-0.01-0.05-0.01-0.08c0-0.03,0.01-0.07,0,0.01c0-0.01,0-0.02,0-0.03c0-0.03,0.01-0.05,0.01-0.08
			c0.01-0.06-0.02,0.06,0,0.01c0-0.01,0.01-0.03,0.02-0.05c0.01-0.01,0.01-0.02,0.02-0.04c0.02-0.03,0.03-0.02-0.01,0.02
			c0.02-0.01,0.03-0.05,0.05-0.06c0.01-0.01,0.04-0.04,0.01-0.01c-0.04,0.03,0,0,0.01-0.01c0.02-0.02,0.06-0.04,0.08-0.06
			c0,0.01-0.06,0.03-0.02,0.01c0.02-0.01,0.03-0.02,0.04-0.02c0.02-0.01,0.09-0.03,0.04-0.02c-0.05,0.01,0,0,0.01,0
			c0.01,0,0.03,0,0.04-0.01c0.01,0,0.03,0,0.04,0c0.06-0.01-0.06-0.01-0.01,0c0.03,0,0.07,0.01,0.1,0.01c0.05,0.01-0.05-0.02-0.02,0
			c0.02,0.01,0.04,0.01,0.05,0.02c0.01,0,0.02,0.01,0.03,0.01c0.01,0.01,0.02,0.01,0.03,0.01c-0.04-0.02-0.05-0.03-0.02-0.01
			c0.02,0.02,0.04,0.03,0.06,0.05c0.05,0.04-0.04-0.05-0.01-0.01c0.01,0.01,0.02,0.02,0.03,0.04c0.01,0.01,0.02,0.02,0.03,0.04
			c0.03,0.04-0.03-0.06,0-0.01c0.01,0.03,0.03,0.06,0.04,0.09c0.01,0.03-0.01,0.03-0.01-0.02C608.72,80.46,608.73,80.48,608.73,80.5
			c0.02,0.15,0.17,0.27,0.32,0.24c0.15-0.03,0.27-0.16,0.24-0.32c-0.06-0.38-0.34-0.67-0.71-0.76c-0.35-0.08-0.74,0.09-0.93,0.39
			c-0.2,0.32-0.2,0.74,0.05,1.05c0.24,0.3,0.64,0.4,1.01,0.29c0.4-0.13,0.64-0.56,0.59-0.97c-0.02-0.15-0.17-0.27-0.32-0.24
			C608.82,80.21,608.71,80.35,608.73,80.5z"/>
	</g>
</g>
<g>
	<path fill="#FFD448" d="M331.97,25.52h-3.87c-2.06,0-3.73-1.67-3.73-3.73v-3.87c0-2.06,1.67-3.73,3.73-3.73h3.87
		c2.06,0,3.73,1.67,3.73,3.73v3.87C335.71,23.85,334.04,25.52,331.97,25.52z"/>
	<g>
		<path fill="#FFFFFF" d="M328.17,23.1v-0.98h1.31v-4.54h-1.31V16.6h3.73v0.98h-1.31v4.54h1.31v0.98H328.17z"/>
	</g>
</g>
<g>
	<path fill="#231F20" d="M326.98,88.33h-3.87c-2.06,0-3.73-1.67-3.73-3.73v-3.87c0-2.06,1.67-3.73,3.73-3.73h3.87
		c2.06,0,3.73,1.67,3.73,3.73v3.87C330.71,86.66,329.04,88.33,326.98,88.33z"/>
	<g>
		<path fill="#FFFFFF" d="M323.98,83.95l-0.02-1.78h0.7c0.3,0,0.53-0.08,0.71-0.24c0.18-0.16,0.27-0.37,0.27-0.63
			c0-0.27-0.09-0.48-0.27-0.64c-0.18-0.16-0.42-0.24-0.72-0.24h-1.32v-1.04h1.27c0.44,0,0.82,0.08,1.14,0.24
			c0.32,0.16,0.57,0.38,0.75,0.66c0.18,0.28,0.27,0.62,0.27,1.01c0,0.36-0.08,0.68-0.23,0.95c-0.15,0.27-0.36,0.49-0.63,0.65
			c-0.27,0.16-0.58,0.24-0.93,0.25v0.8C324.97,83.95,323.98,83.95,323.98,83.95z M324.35,85.93c-0.18,0-0.33-0.05-0.44-0.16
			c-0.11-0.11-0.17-0.25-0.17-0.42c0-0.17,0.06-0.31,0.17-0.42c0.11-0.11,0.26-0.16,0.44-0.16h0.27c0.18,0,0.33,0.05,0.44,0.16
			c0.11,0.11,0.16,0.25,0.16,0.43c0,0.17-0.06,0.31-0.17,0.42c-0.11,0.11-0.26,0.16-0.44,0.16
			C324.61,85.93,324.35,85.93,324.35,85.93z"/>
	</g>
</g>
<g>
	<path fill="#FF6666" d="M343.19,65.81h-3.87c-2.06,0-3.73-1.67-3.73-3.73V58.2c0-2.06,1.67-3.73,3.73-3.73h3.87
		c2.06,0,3.73,1.67,3.73,3.73v3.87C346.93,64.14,345.26,65.81,343.19,65.81z"/>
	<g>
		<path fill="#FFFFFF" d="M339.21,63.38v-6.49h2.05c0.43,0,0.81,0.08,1.12,0.24c0.32,0.16,0.56,0.38,0.74,0.67s0.27,0.63,0.27,1.02
			c0,0.43-0.11,0.8-0.32,1.13s-0.51,0.56-0.88,0.69l1.29,2.74h-1.24l-1.13-2.58h-0.79v2.58H339.21z M340.32,59.83h0.94
			c0.32,0,0.56-0.08,0.74-0.26s0.27-0.41,0.27-0.71c0-0.31-0.09-0.55-0.27-0.72s-0.42-0.26-0.74-0.26h-0.94V59.83z"/>
	</g>
</g>
<g>
	<path fill="#339AFF" d="M330.1,71.21h-3.87c-2.06,0-3.73-1.67-3.73-3.73v-3.87c0-2.06,1.67-3.73,3.73-3.73h3.87
		c2.06,0,3.73,1.67,3.73,3.73v3.87C333.84,69.54,332.17,71.21,330.1,71.21z"/>
	<g>
		<path fill="#FFFFFF" d="M326.56,68.79V62.3h1.93c0.44,0,0.82,0.08,1.14,0.25c0.32,0.16,0.57,0.4,0.75,0.7
			c0.18,0.3,0.27,0.66,0.27,1.08v2.43c0,0.41-0.09,0.76-0.27,1.07c-0.18,0.31-0.43,0.54-0.75,0.71c-0.32,0.17-0.7,0.25-1.14,0.25
			C328.49,68.79,326.56,68.79,326.56,68.79z M327.68,67.77h0.82c0.32,0,0.57-0.09,0.76-0.27s0.28-0.43,0.28-0.74v-2.43
			c0-0.31-0.09-0.55-0.28-0.73s-0.44-0.27-0.76-0.27h-0.82V67.77z"/>
	</g>
</g>
<g>
	<path fill="#FF6666" d="M327.15,39.08h-3.87c-2.06,0-3.73-1.67-3.73-3.73v-3.87c0-2.06,1.67-3.73,3.73-3.73h3.87
		c2.06,0,3.73,1.67,3.73,3.73v3.87C330.89,37.41,329.21,39.08,327.15,39.08z"/>
	<g>
		<path fill="#FFFFFF" d="M323.17,36.66v-6.49h2.05c0.43,0,0.81,0.08,1.12,0.24c0.32,0.16,0.56,0.38,0.74,0.67
			c0.18,0.29,0.27,0.63,0.27,1.02c0,0.43-0.11,0.8-0.32,1.13s-0.51,0.56-0.88,0.69l1.29,2.74h-1.24l-1.13-2.58h-0.79v2.58H323.17z
			 M324.28,33.1h0.94c0.32,0,0.56-0.08,0.74-0.26s0.27-0.41,0.27-0.71c0-0.31-0.09-0.55-0.27-0.72s-0.42-0.26-0.74-0.26h-0.94V33.1z
			"/>
	</g>
</g>
<g>
	<path fill="#FFD448" d="M370.39,28.77h-3.87c-2.06,0-3.73-1.67-3.73-3.73v-3.87c0-2.06,1.67-3.73,3.73-3.73h3.87
		c2.06,0,3.73,1.67,3.73,3.73v3.87C374.12,27.09,372.45,28.77,370.39,28.77z"/>
	<g>
		<path fill="#FFFFFF" d="M366.59,26.34v-0.98h1.31v-4.54h-1.31v-0.98h3.73v0.98h-1.31v4.54h1.31v0.98H366.59z"/>
	</g>
</g>
<g>
	<path fill="#231F20" d="M353.6,82.66h-3.87c-2.06,0-3.73-1.67-3.73-3.73v-3.87c0-2.06,1.67-3.73,3.73-3.73h3.87
		c2.06,0,3.73,1.67,3.73,3.73v3.87C357.33,80.99,355.66,82.66,353.6,82.66z"/>
	<g>
		<path fill="#FFFFFF" d="M350.6,78.28l-0.02-1.78h0.7c0.3,0,0.53-0.08,0.71-0.24s0.27-0.37,0.27-0.63c0-0.27-0.09-0.48-0.27-0.64
			c-0.18-0.16-0.42-0.24-0.72-0.24h-1.32v-1.04h1.27c0.44,0,0.82,0.08,1.14,0.24c0.32,0.16,0.57,0.38,0.75,0.66s0.27,0.62,0.27,1.01
			c0,0.36-0.08,0.68-0.23,0.95c-0.15,0.27-0.36,0.49-0.63,0.65c-0.27,0.16-0.58,0.24-0.93,0.25v0.8
			C351.59,78.28,350.6,78.28,350.6,78.28z M350.96,80.26c-0.18,0-0.33-0.05-0.44-0.16c-0.11-0.11-0.17-0.25-0.17-0.42
			c0-0.17,0.06-0.31,0.17-0.42c0.11-0.11,0.26-0.16,0.44-0.16h0.27c0.18,0,0.33,0.05,0.44,0.16c0.11,0.11,0.16,0.25,0.16,0.43
			c0,0.17-0.06,0.31-0.17,0.42c-0.11,0.11-0.26,0.16-0.44,0.16C351.22,80.26,350.96,80.26,350.96,80.26z"/>
	</g>
</g>
<g>
	<path fill="#FF6666" d="M383.16,54.16h-3.87c-2.06,0-3.73-1.67-3.73-3.73v-3.87c0-2.06,1.67-3.73,3.73-3.73h3.87
		c2.06,0,3.73,1.67,3.73,3.73v3.87C386.89,52.49,385.22,54.16,383.16,54.16z"/>
	<g>
		<path fill="#FFFFFF" d="M379.18,51.73v-6.49h2.05c0.43,0,0.81,0.08,1.12,0.24c0.32,0.16,0.56,0.38,0.74,0.67
			c0.18,0.29,0.27,0.63,0.27,1.02c0,0.43-0.11,0.8-0.32,1.13s-0.51,0.56-0.88,0.69l1.29,2.74h-1.24l-1.13-2.58h-0.79v2.58H379.18z
			 M380.29,48.18h0.94c0.32,0,0.56-0.08,0.74-0.26c0.18-0.17,0.27-0.41,0.27-0.71c0-0.31-0.09-0.55-0.27-0.72
			c-0.18-0.17-0.42-0.26-0.74-0.26h-0.94V48.18z"/>
	</g>
</g>
<g>
	<path fill="#339AFF" d="M372.25,77.36h-3.87c-2.06,0-3.73-1.67-3.73-3.73v-3.87c0-2.06,1.67-3.73,3.73-3.73h3.87
		c2.06,0,3.73,1.67,3.73,3.73v3.87C375.99,75.69,374.32,77.36,372.25,77.36z"/>
	<g>
		<path fill="#FFFFFF" d="M368.72,74.94v-6.49h1.93c0.44,0,0.82,0.08,1.14,0.25s0.57,0.4,0.75,0.7c0.18,0.3,0.27,0.66,0.27,1.08
			v2.43c0,0.41-0.09,0.76-0.27,1.07c-0.18,0.31-0.43,0.54-0.75,0.71c-0.32,0.17-0.7,0.25-1.14,0.25
			C370.64,74.94,368.72,74.94,368.72,74.94z M369.83,73.92h0.82c0.32,0,0.57-0.09,0.76-0.27s0.28-0.43,0.28-0.74v-2.43
			c0-0.31-0.09-0.55-0.28-0.73c-0.19-0.18-0.44-0.27-0.76-0.27h-0.82V73.92z"/>
	</g>
</g>
<g>
	<path fill="#FF6666" d="M406.11,17.16h-3.87c-2.06,0-3.73-1.67-3.73-3.73V9.56c0-2.06,1.67-3.73,3.73-3.73h3.87
		c2.06,0,3.73,1.67,3.73,3.73v3.87C409.84,15.49,408.17,17.16,406.11,17.16z"/>
	<g>
		<path fill="#FFFFFF" d="M402.12,14.74V8.25h2.05c0.43,0,0.81,0.08,1.12,0.24s0.56,0.38,0.74,0.67c0.18,0.29,0.27,0.63,0.27,1.02
			c0,0.43-0.11,0.8-0.32,1.13s-0.51,0.56-0.88,0.69l1.29,2.74h-1.24l-1.13-2.58h-0.79v2.58H402.12z M403.24,11.18h0.94
			c0.32,0,0.56-0.08,0.74-0.26c0.18-0.17,0.27-0.41,0.27-0.71c0-0.31-0.09-0.55-0.27-0.72c-0.18-0.17-0.42-0.26-0.74-0.26h-0.94
			V11.18z"/>
	</g>
</g>
<g>
	<path fill="#FF6666" d="M400.38,41.5h-3.87c-2.06,0-3.73-1.67-3.73-3.73V33.9c0-2.06,1.67-3.73,3.73-3.73h3.87
		c2.06,0,3.73,1.67,3.73,3.73v3.87C404.11,39.83,402.44,41.5,400.38,41.5z"/>
	<g>
		<path fill="#FFFFFF" d="M396.39,39.08v-6.49h2.05c0.43,0,0.81,0.08,1.12,0.24c0.32,0.16,0.56,0.38,0.74,0.67
			c0.18,0.29,0.27,0.63,0.27,1.02c0,0.43-0.11,0.8-0.32,1.13s-0.51,0.56-0.88,0.69l1.29,2.74h-1.24l-1.13-2.58h-0.79v2.58H396.39z
			 M397.51,35.52h0.94c0.32,0,0.56-0.08,0.74-0.26s0.27-0.41,0.27-0.71c0-0.31-0.09-0.55-0.27-0.72s-0.42-0.26-0.74-0.26h-0.94
			V35.52z"/>
	</g>
</g>
<g>
	<path fill="#339AFF" d="M370.1,94.78h-3.87c-2.06,0-3.73-1.67-3.73-3.73v-3.87c0-2.06,1.67-3.73,3.73-3.73h3.87
		c2.06,0,3.73,1.67,3.73,3.73v3.87C373.84,93.1,372.17,94.78,370.1,94.78z"/>
	<g>
		<path fill="#FFFFFF" d="M366.56,92.35v-6.49h1.93c0.44,0,0.82,0.08,1.14,0.25c0.32,0.16,0.57,0.4,0.75,0.7s0.27,0.66,0.27,1.08
			v2.43c0,0.41-0.09,0.76-0.27,1.07s-0.43,0.54-0.75,0.71c-0.32,0.17-0.7,0.25-1.14,0.25C368.49,92.35,366.56,92.35,366.56,92.35z
			 M367.68,91.33h0.82c0.32,0,0.57-0.09,0.76-0.27c0.19-0.18,0.28-0.43,0.28-0.74v-2.43c0-0.31-0.09-0.55-0.28-0.73
			c-0.19-0.18-0.44-0.27-0.76-0.27h-0.82V91.33z"/>
	</g>
</g>
<g>
	<path fill="#FF6666" d="M411.78,71.06h-3.87c-2.06,0-3.73-1.67-3.73-3.73v-3.87c0-2.06,1.67-3.73,3.73-3.73h3.87
		c2.06,0,3.73,1.67,3.73,3.73v3.87C415.51,69.38,413.84,71.06,411.78,71.06z"/>
	<g>
		<path fill="#FFFFFF" d="M407.8,68.63v-6.49h2.05c0.43,0,0.81,0.08,1.12,0.24c0.32,0.16,0.56,0.38,0.74,0.67
			c0.18,0.29,0.27,0.63,0.27,1.02c0,0.43-0.11,0.8-0.32,1.13s-0.51,0.56-0.88,0.69l1.29,2.74h-1.24l-1.13-2.58h-0.79v2.58H407.8z
			 M408.91,65.08h0.94c0.32,0,0.56-0.08,0.74-0.26c0.18-0.17,0.27-0.41,0.27-0.71c0-0.31-0.09-0.55-0.27-0.72s-0.42-0.26-0.74-0.26
			h-0.94V65.08z"/>
	</g>
</g>
<g>
	<path fill="#339AFF" d="M395.27,67.49h-3.87c-2.06,0-3.73-1.67-3.73-3.73v-3.87c0-2.06,1.67-3.73,3.73-3.73h3.87
		c2.06,0,3.73,1.67,3.73,3.73v3.87C399,65.82,397.33,67.49,395.27,67.49z"/>
	<g>
		<path fill="#FFFFFF" d="M391.73,65.07v-6.49h1.93c0.44,0,0.82,0.08,1.14,0.25s0.57,0.4,0.75,0.7c0.18,0.3,0.27,0.66,0.27,1.08
			v2.43c0,0.41-0.09,0.76-0.27,1.07c-0.18,0.31-0.43,0.54-0.75,0.71s-0.7,0.25-1.14,0.25C393.66,65.07,391.73,65.07,391.73,65.07z
			 M392.84,64.04h0.82c0.32,0,0.57-0.09,0.76-0.27s0.28-0.43,0.28-0.74V60.6c0-0.31-0.09-0.55-0.28-0.73s-0.44-0.27-0.76-0.27h-0.82
			V64.04z"/>
	</g>
</g>
<g>
	<path fill="#FF6666" d="M345.78,94.07h-3.87c-2.06,0-3.73-1.67-3.73-3.73v-3.87c0-2.06,1.67-3.73,3.73-3.73h3.87
		c2.06,0,3.73,1.67,3.73,3.73v3.87C349.51,92.39,347.84,94.07,345.78,94.07z"/>
	<g>
		<path fill="#FFFFFF" d="M341.79,91.64v-6.49h2.05c0.43,0,0.81,0.08,1.12,0.24c0.32,0.16,0.56,0.38,0.74,0.67
			c0.18,0.29,0.27,0.63,0.27,1.02c0,0.43-0.11,0.8-0.32,1.13c-0.22,0.32-0.51,0.56-0.88,0.69l1.29,2.74h-1.24l-1.13-2.58h-0.79v2.58
			H341.79z M342.9,88.09h0.94c0.32,0,0.56-0.08,0.74-0.26c0.18-0.17,0.27-0.41,0.27-0.71c0-0.31-0.09-0.55-0.27-0.72
			c-0.18-0.17-0.42-0.26-0.74-0.26h-0.94V88.09z"/>
	</g>
</g>
<g>
	<path fill="#339AFF" d="M305.35,61.82h-3.87c-2.06,0-3.73-1.67-3.73-3.73v-3.87c0-2.06,1.67-3.73,3.73-3.73h3.87
		c2.06,0,3.73,1.67,3.73,3.73v3.87C309.09,60.15,307.41,61.82,305.35,61.82z"/>
	<g>
		<path fill="#FFFFFF" d="M301.81,59.4v-6.49h1.93c0.44,0,0.82,0.08,1.14,0.25c0.32,0.16,0.57,0.4,0.75,0.7
			c0.18,0.3,0.27,0.66,0.27,1.08v2.43c0,0.41-0.09,0.76-0.27,1.07s-0.43,0.54-0.75,0.71c-0.32,0.17-0.7,0.25-1.14,0.25
			C303.74,59.4,301.81,59.4,301.81,59.4z M302.92,58.38h0.82c0.32,0,0.57-0.09,0.76-0.27s0.28-0.43,0.28-0.74v-2.43
			c0-0.31-0.09-0.55-0.28-0.73s-0.44-0.27-0.76-0.27h-0.82V58.38z"/>
	</g>
</g>
<g>
	<path fill="#FF6666" d="M460.18,36.39h-3.87c-2.06,0-3.73-1.67-3.73-3.73v-3.87c0-2.06,1.67-3.73,3.73-3.73h3.87
		c2.06,0,3.73,1.67,3.73,3.73v3.87C463.91,34.72,462.24,36.39,460.18,36.39z"/>
	<g>
		<path fill="#FFFFFF" d="M456.19,33.97v-6.49h2.05c0.43,0,0.81,0.08,1.12,0.24c0.32,0.16,0.56,0.38,0.74,0.67
			c0.18,0.29,0.27,0.63,0.27,1.02c0,0.43-0.11,0.8-0.32,1.13s-0.51,0.56-0.88,0.69l1.29,2.74h-1.24l-1.13-2.58h-0.79v2.58H456.19z
			 M457.3,30.41h0.94c0.32,0,0.56-0.08,0.74-0.26c0.18-0.17,0.27-0.41,0.27-0.71c0-0.31-0.09-0.55-0.27-0.72
			c-0.18-0.17-0.42-0.26-0.74-0.26h-0.94V30.41z"/>
	</g>
</g>
<g>
	<path fill="#339AFF" d="M449.27,59.6h-3.87c-2.06,0-3.73-1.67-3.73-3.73V52c0-2.06,1.67-3.73,3.73-3.73h3.87
		c2.06,0,3.73,1.67,3.73,3.73v3.87C453.01,57.93,451.33,59.6,449.27,59.6z"/>
	<g>
		<path fill="#FFFFFF" d="M445.73,57.18v-6.49h1.93c0.44,0,0.82,0.08,1.14,0.25s0.57,0.4,0.75,0.7c0.18,0.3,0.27,0.66,0.27,1.08
			v2.43c0,0.41-0.09,0.76-0.27,1.07c-0.18,0.31-0.43,0.54-0.75,0.71c-0.32,0.17-0.7,0.25-1.14,0.25
			C447.66,57.18,445.73,57.18,445.73,57.18z M446.84,56.15h0.82c0.32,0,0.57-0.09,0.76-0.27c0.19-0.18,0.28-0.43,0.28-0.74v-2.43
			c0-0.31-0.09-0.55-0.28-0.73s-0.44-0.27-0.76-0.27h-0.82V56.15z"/>
	</g>
</g>
<g>
	<path fill="#FF6666" d="M367.23,44.07h-3.87c-2.06,0-3.73-1.67-3.73-3.73v-3.87c0-2.06,1.67-3.73,3.73-3.73h3.87
		c2.06,0,3.73,1.67,3.73,3.73v3.87C370.96,42.39,369.29,44.07,367.23,44.07z"/>
	<g>
		<path fill="#FFFFFF" d="M363.24,41.64v-6.49h2.05c0.43,0,0.81,0.08,1.12,0.24c0.32,0.16,0.56,0.38,0.74,0.67
			c0.18,0.29,0.27,0.63,0.27,1.02c0,0.43-0.11,0.8-0.32,1.13s-0.51,0.56-0.88,0.69l1.29,2.74h-1.24l-1.13-2.58h-0.79v2.58H363.24z
			 M364.36,38.09h0.94c0.32,0,0.56-0.08,0.74-0.26c0.18-0.17,0.27-0.41,0.27-0.71c0-0.31-0.09-0.55-0.27-0.72s-0.42-0.26-0.74-0.26
			h-0.94V38.09z"/>
	</g>
</g>
<g>
	<path fill="#339AFF" d="M356.32,67.27h-3.87c-2.06,0-3.73-1.67-3.73-3.73v-3.87c0-2.06,1.67-3.73,3.73-3.73h3.87
		c2.06,0,3.73,1.67,3.73,3.73v3.87C360.06,65.6,358.39,67.27,356.32,67.27z"/>
	<g>
		<path fill="#FFFFFF" d="M352.78,64.85v-6.49h1.93c0.44,0,0.82,0.08,1.14,0.25c0.32,0.16,0.57,0.4,0.75,0.7
			c0.18,0.3,0.27,0.66,0.27,1.08v2.43c0,0.41-0.09,0.76-0.27,1.07s-0.43,0.54-0.75,0.71s-0.7,0.25-1.14,0.25
			C354.71,64.85,352.78,64.85,352.78,64.85z M353.9,63.83h0.82c0.32,0,0.57-0.09,0.76-0.27s0.28-0.43,0.28-0.74v-2.43
			c0-0.31-0.09-0.55-0.28-0.73s-0.44-0.27-0.76-0.27h-0.82V63.83z"/>
	</g>
</g>
<g>
	<path fill="#FF6666" d="M293.64,88.32h-3.87c-2.06,0-3.73-1.67-3.73-3.73v-3.87c0-2.06,1.67-3.73,3.73-3.73h3.87
		c2.06,0,3.73,1.67,3.73,3.73v3.87C297.38,86.65,295.71,88.32,293.64,88.32z"/>
	<g>
		<path fill="#FFFFFF" d="M289.66,85.9v-6.49h2.05c0.43,0,0.81,0.08,1.12,0.24c0.32,0.16,0.56,0.38,0.74,0.67
			c0.18,0.29,0.27,0.63,0.27,1.02c0,0.43-0.11,0.8-0.32,1.13s-0.51,0.56-0.88,0.69l1.29,2.74h-1.24l-1.13-2.58h-0.79v2.58H289.66z
			 M290.77,82.34h0.94c0.32,0,0.56-0.08,0.74-0.26c0.18-0.17,0.27-0.41,0.27-0.71c0-0.31-0.09-0.55-0.27-0.72
			c-0.18-0.17-0.42-0.26-0.74-0.26h-0.94V82.34z"/>
	</g>
</g>
<g>
	<path fill="#339AFF" d="M305.85,34.43h-3.87c-2.06,0-3.73-1.67-3.73-3.73v-3.87c0-2.06,1.67-3.73,3.73-3.73h3.87
		c2.06,0,3.73,1.67,3.73,3.73v3.87C309.58,32.76,307.91,34.43,305.85,34.43z"/>
	<g>
		<path fill="#FFFFFF" d="M302.31,32.01v-6.49h1.93c0.44,0,0.82,0.08,1.14,0.25c0.32,0.16,0.57,0.4,0.75,0.7
			c0.18,0.3,0.27,0.66,0.27,1.08v2.43c0,0.41-0.09,0.76-0.27,1.07s-0.43,0.54-0.75,0.71s-0.7,0.25-1.14,0.25
			C304.24,32.01,302.31,32.01,302.31,32.01z M303.42,30.99h0.82c0.32,0,0.57-0.09,0.76-0.27s0.28-0.43,0.28-0.74v-2.43
			c0-0.31-0.09-0.55-0.28-0.73c-0.19-0.18-0.44-0.27-0.76-0.27h-0.82V30.99z"/>
	</g>
</g>
<g>
	<path fill="#FF6666" d="M202.89,52.86h-3.87c-2.06,0-3.73-1.67-3.73-3.73v-3.87c0-2.06,1.67-3.73,3.73-3.73h3.87
		c2.06,0,3.73,1.67,3.73,3.73v3.87C206.63,51.19,204.96,52.86,202.89,52.86z"/>
	<g>
		<path fill="#FFFFFF" d="M198.91,50.44v-6.49h2.05c0.43,0,0.81,0.08,1.12,0.24c0.32,0.16,0.56,0.38,0.74,0.67
			c0.18,0.29,0.27,0.63,0.27,1.02c0,0.43-0.11,0.8-0.32,1.13s-0.51,0.56-0.88,0.69l1.29,2.74h-1.24l-1.13-2.58h-0.79v2.58H198.91z
			 M200.02,46.88h0.94c0.32,0,0.56-0.08,0.74-0.26c0.18-0.17,0.27-0.41,0.27-0.71c0-0.31-0.09-0.55-0.27-0.72
			c-0.18-0.17-0.42-0.26-0.74-0.26h-0.94V46.88z"/>
	</g>
</g>
<g>
	<path fill="#339AFF" d="M191.99,76.07h-3.87c-2.06,0-3.73-1.67-3.73-3.73v-3.87c0-2.06,1.67-3.73,3.73-3.73h3.87
		c2.06,0,3.73,1.67,3.73,3.73v3.87C195.72,74.4,194.05,76.07,191.99,76.07z"/>
	<g>
		<path fill="#FFFFFF" d="M188.45,73.65v-6.49h1.93c0.44,0,0.82,0.08,1.14,0.25c0.32,0.16,0.57,0.4,0.75,0.7
			c0.18,0.3,0.27,0.66,0.27,1.08v2.43c0,0.41-0.09,0.76-0.27,1.07c-0.18,0.31-0.43,0.54-0.75,0.71c-0.32,0.17-0.7,0.25-1.14,0.25
			C190.38,73.65,188.45,73.65,188.45,73.65z M189.56,72.62h0.82c0.32,0,0.57-0.09,0.76-0.27c0.19-0.18,0.28-0.43,0.28-0.74v-2.43
			c0-0.31-0.09-0.55-0.28-0.73c-0.19-0.18-0.44-0.27-0.76-0.27h-0.82V72.62z"/>
	</g>
</g>
<g>
	<path fill="#FF6666" d="M179.62,38.99h-3.87c-2.06,0-3.73-1.67-3.73-3.73v-3.87c0-2.06,1.67-3.73,3.73-3.73h3.87
		c2.06,0,3.73,1.67,3.73,3.73v3.87C183.36,37.32,181.68,38.99,179.62,38.99z"/>
	<g>
		<path fill="#FFFFFF" d="M175.64,36.57v-6.49h2.05c0.43,0,0.81,0.08,1.12,0.24c0.32,0.16,0.56,0.38,0.74,0.67
			c0.18,0.29,0.27,0.63,0.27,1.02c0,0.43-0.11,0.8-0.32,1.13c-0.22,0.32-0.51,0.56-0.88,0.69l1.29,2.74h-1.24l-1.13-2.58h-0.79v2.58
			H175.64z M176.75,33.01h0.94c0.32,0,0.56-0.08,0.74-0.26c0.18-0.17,0.27-0.41,0.27-0.71c0-0.31-0.09-0.55-0.27-0.72
			c-0.18-0.17-0.42-0.26-0.74-0.26h-0.94V33.01z"/>
	</g>
</g>
<g>
	<path fill="#339AFF" d="M168.72,62.2h-3.87c-2.06,0-3.73-1.67-3.73-3.73V54.6c0-2.06,1.67-3.73,3.73-3.73h3.87
		c2.06,0,3.73,1.67,3.73,3.73v3.87C172.45,60.53,170.78,62.2,168.72,62.2z"/>
	<g>
		<path fill="#FFFFFF" d="M165.18,59.78v-6.49h1.93c0.44,0,0.82,0.08,1.14,0.25c0.32,0.16,0.57,0.4,0.75,0.7
			c0.18,0.3,0.27,0.66,0.27,1.08v2.43c0,0.41-0.09,0.76-0.27,1.07c-0.18,0.31-0.43,0.54-0.75,0.71c-0.32,0.17-0.7,0.25-1.14,0.25
			C167.11,59.78,165.18,59.78,165.18,59.78z M166.29,58.75h0.82c0.32,0,0.57-0.09,0.76-0.27s0.28-0.43,0.28-0.74v-2.43
			c0-0.31-0.09-0.55-0.28-0.73s-0.44-0.27-0.76-0.27h-0.82V58.75z"/>
	</g>
</g>
<g>
	<path fill="#FF6666" d="M201.95,90.42h-3.87c-2.06,0-3.73-1.67-3.73-3.73v-3.87c0-2.06,1.67-3.73,3.73-3.73h3.87
		c2.06,0,3.73,1.67,3.73,3.73v3.87C205.69,88.75,204.01,90.42,201.95,90.42z"/>
	<g>
		<path fill="#FFFFFF" d="M197.97,88v-6.49h2.05c0.43,0,0.81,0.08,1.12,0.24c0.32,0.16,0.56,0.38,0.74,0.67
			c0.18,0.29,0.27,0.63,0.27,1.02c0,0.43-0.11,0.8-0.32,1.13s-0.51,0.56-0.88,0.69l1.29,2.74H201l-1.13-2.58h-0.79V88H197.97z
			 M199.08,84.44h0.94c0.32,0,0.56-0.08,0.74-0.26c0.18-0.17,0.27-0.41,0.27-0.71c0-0.31-0.09-0.55-0.27-0.72
			c-0.18-0.17-0.42-0.26-0.74-0.26h-0.94V84.44z"/>
	</g>
</g>
<g>
	<path fill="#339AFF" d="M152.42,87.56h-3.87c-2.06,0-3.73-1.67-3.73-3.73v-3.87c0-2.06,1.67-3.73,3.73-3.73h3.87
		c2.06,0,3.73,1.67,3.73,3.73v3.87C156.15,85.89,154.48,87.56,152.42,87.56z"/>
	<g>
		<path fill="#FFFFFF" d="M148.88,85.14v-6.49h1.93c0.44,0,0.82,0.08,1.14,0.25c0.32,0.16,0.57,0.4,0.75,0.7
			c0.18,0.3,0.27,0.66,0.27,1.08v2.43c0,0.41-0.09,0.76-0.27,1.07c-0.18,0.31-0.43,0.54-0.75,0.71c-0.32,0.17-0.7,0.25-1.14,0.25
			C150.81,85.14,148.88,85.14,148.88,85.14z M149.99,84.12h0.82c0.32,0,0.57-0.09,0.76-0.27s0.28-0.43,0.28-0.74v-2.43
			c0-0.31-0.09-0.55-0.28-0.73s-0.44-0.27-0.76-0.27h-0.82V84.12z"/>
	</g>
</g>
<g>
	<path fill="#FF6666" d="M228.03,45.96h-3.87c-2.06,0-3.73-1.67-3.73-3.73v-3.87c0-2.06,1.67-3.73,3.73-3.73h3.87
		c2.06,0,3.73,1.67,3.73,3.73v3.87C231.77,44.28,230.1,45.96,228.03,45.96z"/>
	<g>
		<path fill="#FFFFFF" d="M224.05,43.53v-6.49h2.05c0.43,0,0.81,0.08,1.12,0.24c0.32,0.16,0.56,0.38,0.74,0.67
			c0.18,0.29,0.27,0.63,0.27,1.02c0,0.43-0.11,0.8-0.32,1.13c-0.22,0.32-0.51,0.56-0.88,0.69l1.29,2.74h-1.24l-1.13-2.58h-0.79v2.58
			H224.05z M225.16,39.98h0.94c0.32,0,0.56-0.08,0.74-0.26c0.18-0.17,0.27-0.41,0.27-0.71c0-0.31-0.09-0.55-0.27-0.72
			c-0.18-0.17-0.42-0.26-0.74-0.26h-0.94V39.98z"/>
	</g>
</g>
<g>
	<path fill="#339AFF" d="M217.13,69.16h-3.87c-2.06,0-3.73-1.67-3.73-3.73v-3.87c0-2.06,1.67-3.73,3.73-3.73h3.87
		c2.06,0,3.73,1.67,3.73,3.73v3.87C220.86,67.49,219.19,69.16,217.13,69.16z"/>
	<g>
		<path fill="#FFFFFF" d="M213.59,66.74v-6.49h1.93c0.44,0,0.82,0.08,1.14,0.25c0.32,0.16,0.57,0.4,0.75,0.7
			c0.18,0.3,0.27,0.66,0.27,1.08v2.43c0,0.41-0.09,0.76-0.27,1.07c-0.18,0.31-0.43,0.54-0.75,0.71c-0.32,0.17-0.7,0.25-1.14,0.25
			C215.52,66.74,213.59,66.74,213.59,66.74z M214.7,65.72h0.82c0.32,0,0.57-0.09,0.76-0.27c0.19-0.18,0.28-0.43,0.28-0.74v-2.43
			c0-0.31-0.09-0.55-0.28-0.73c-0.19-0.18-0.44-0.27-0.76-0.27h-0.82V65.72z"/>
	</g>
</g>
<g>
	<path fill="#FF6666" d="M152.42,67.49h-3.87c-2.06,0-3.73-1.67-3.73-3.73v-3.87c0-2.06,1.67-3.73,3.73-3.73h3.87
		c2.06,0,3.73,1.67,3.73,3.73v3.87C156.15,65.82,154.48,67.49,152.42,67.49z"/>
	<g>
		<path fill="#FFFFFF" d="M148.43,65.07v-6.49h2.05c0.43,0,0.81,0.08,1.12,0.24s0.56,0.38,0.74,0.67c0.18,0.29,0.27,0.63,0.27,1.02
			c0,0.43-0.11,0.8-0.32,1.13s-0.51,0.56-0.88,0.69l1.29,2.74h-1.24l-1.13-2.58h-0.79v2.58H148.43z M149.54,61.51h0.94
			c0.32,0,0.56-0.08,0.74-0.26c0.18-0.17,0.27-0.41,0.27-0.71c0-0.31-0.09-0.55-0.27-0.72c-0.18-0.17-0.42-0.26-0.74-0.26h-0.94
			V61.51z"/>
	</g>
</g>
<g>
	<path fill="#339AFF" d="M158.09,23.1h-3.87c-2.06,0-3.73-1.67-3.73-3.73v-3.87c0-2.06,1.67-3.73,3.73-3.73h3.87
		c2.06,0,3.73,1.67,3.73,3.73v3.87C161.82,21.42,160.15,23.1,158.09,23.1z"/>
	<g>
		<path fill="#FFFFFF" d="M154.55,20.67v-6.49h1.93c0.44,0,0.82,0.08,1.14,0.25c0.32,0.16,0.57,0.4,0.75,0.7
			c0.18,0.3,0.27,0.66,0.27,1.08v2.43c0,0.41-0.09,0.76-0.27,1.07c-0.18,0.31-0.43,0.54-0.75,0.71c-0.32,0.17-0.7,0.25-1.14,0.25
			C156.48,20.67,154.55,20.67,154.55,20.67z M155.66,19.65h0.82c0.32,0,0.57-0.09,0.76-0.27c0.19-0.18,0.28-0.43,0.28-0.74v-2.43
			c0-0.31-0.09-0.55-0.28-0.73c-0.19-0.18-0.44-0.27-0.76-0.27h-0.82V19.65z"/>
	</g>
</g>
<g>
	<path fill="#FF6666" d="M174.17,91.02h-3.87c-2.06,0-3.73-1.67-3.73-3.73v-3.87c0-2.06,1.67-3.73,3.73-3.73h3.87
		c2.06,0,3.73,1.67,3.73,3.73v3.87C177.9,89.34,176.23,91.02,174.17,91.02z"/>
	<g>
		<path fill="#FFFFFF" d="M170.18,88.59V82.1h2.05c0.43,0,0.81,0.08,1.12,0.24c0.32,0.16,0.56,0.38,0.74,0.67
			c0.18,0.29,0.27,0.63,0.27,1.02c0,0.43-0.11,0.8-0.32,1.13s-0.51,0.56-0.88,0.69l1.29,2.74h-1.24l-1.13-2.58h-0.79v2.58H170.18z
			 M171.3,85.04h0.94c0.32,0,0.56-0.08,0.74-0.26c0.18-0.17,0.27-0.41,0.27-0.71c0-0.31-0.09-0.55-0.27-0.72
			c-0.18-0.17-0.42-0.26-0.74-0.26h-0.94V85.04z"/>
	</g>
</g>
<g>
	<path fill="#339AFF" d="M186.97,56.35h-3.87c-2.06,0-3.73-1.67-3.73-3.73v-3.87c0-2.06,1.67-3.73,3.73-3.73h3.87
		c2.06,0,3.73,1.67,3.73,3.73v3.87C190.71,54.68,189.04,56.35,186.97,56.35z"/>
	<g>
		<path fill="#FFFFFF" d="M183.43,53.93v-6.49h1.93c0.44,0,0.82,0.08,1.14,0.25c0.32,0.16,0.57,0.4,0.75,0.7
			c0.18,0.3,0.27,0.66,0.27,1.08v2.43c0,0.41-0.09,0.76-0.27,1.07c-0.18,0.31-0.43,0.54-0.75,0.71c-0.32,0.17-0.7,0.25-1.14,0.25
			C185.36,53.93,183.43,53.93,183.43,53.93z M184.54,52.91h0.82c0.32,0,0.57-0.09,0.76-0.27c0.19-0.18,0.28-0.43,0.28-0.74v-2.43
			c0-0.31-0.09-0.55-0.28-0.73c-0.19-0.18-0.44-0.27-0.76-0.27h-0.82V52.91z"/>
	</g>
</g>
<g>
	<path fill="#FF6666" d="M207.49,17.16h-3.87c-2.06,0-3.73-1.67-3.73-3.73V9.56c0-2.06,1.67-3.73,3.73-3.73h3.87
		c2.06,0,3.73,1.67,3.73,3.73v3.87C211.23,15.49,209.55,17.16,207.49,17.16z"/>
	<g>
		<path fill="#FFFFFF" d="M203.51,14.74V8.25h2.05c0.43,0,0.81,0.08,1.12,0.24c0.32,0.16,0.56,0.38,0.74,0.67
			c0.18,0.29,0.27,0.63,0.27,1.02c0,0.43-0.11,0.8-0.32,1.13s-0.51,0.56-0.88,0.69l1.29,2.74h-1.24l-1.13-2.58h-0.79v2.58H203.51z
			 M204.62,11.18h0.94c0.32,0,0.56-0.08,0.74-0.26c0.18-0.17,0.27-0.41,0.27-0.71c0-0.31-0.09-0.55-0.27-0.72
			c-0.18-0.17-0.42-0.26-0.74-0.26h-0.94V11.18z"/>
	</g>
</g>
<g>
	<path fill="#339AFF" d="M196.59,40.37h-3.87c-2.06,0-3.73-1.67-3.73-3.73v-3.87c0-2.06,1.67-3.73,3.73-3.73h3.87
		c2.06,0,3.73,1.67,3.73,3.73v3.87C200.32,38.7,198.65,40.37,196.59,40.37z"/>
	<g>
		<path fill="#FFFFFF" d="M193.05,37.94v-6.49h1.93c0.44,0,0.82,0.08,1.14,0.25c0.32,0.16,0.57,0.4,0.75,0.7
			c0.18,0.3,0.27,0.66,0.27,1.08v2.43c0,0.41-0.09,0.76-0.27,1.07c-0.18,0.31-0.43,0.54-0.75,0.71c-0.32,0.17-0.7,0.25-1.14,0.25
			C194.98,37.94,193.05,37.94,193.05,37.94z M194.16,36.92h0.82c0.32,0,0.57-0.09,0.76-0.27s0.28-0.43,0.28-0.74v-2.43
			c0-0.31-0.09-0.55-0.28-0.73s-0.44-0.27-0.76-0.27h-0.82V36.92z"/>
	</g>
</g>
<g>
	<path fill="#FF6666" d="M417.45,90.42h-3.87c-2.06,0-3.73-1.67-3.73-3.73v-3.87c0-2.06,1.67-3.73,3.73-3.73h3.87
		c2.06,0,3.73,1.67,3.73,3.73v3.87C421.19,88.75,419.51,90.42,417.45,90.42z"/>
	<g>
		<path fill="#FFFFFF" d="M413.47,88v-6.49h2.05c0.43,0,0.81,0.08,1.12,0.24c0.32,0.16,0.56,0.38,0.74,0.67
			c0.18,0.29,0.27,0.63,0.27,1.02c0,0.43-0.11,0.8-0.32,1.13s-0.51,0.56-0.88,0.69l1.29,2.74h-1.24l-1.13-2.58h-0.79V88H413.47z
			 M414.58,84.44h0.94c0.32,0,0.56-0.08,0.74-0.26c0.18-0.17,0.27-0.41,0.27-0.71c0-0.31-0.09-0.55-0.27-0.72
			c-0.18-0.17-0.42-0.26-0.74-0.26h-0.94V84.44z"/>
	</g>
</g>
<g>
	<path fill="#339AFF" d="M433.73,95.84h-3.87c-2.06,0-3.73-1.67-3.73-3.73v-3.87c0-2.06,1.67-3.73,3.73-3.73h3.87
		c2.06,0,3.73,1.67,3.73,3.73v3.87C437.46,94.17,435.79,95.84,433.73,95.84z"/>
	<g>
		<path fill="#FFFFFF" d="M430.19,93.42v-6.49h1.93c0.44,0,0.82,0.08,1.14,0.25c0.32,0.16,0.57,0.4,0.75,0.7s0.27,0.66,0.27,1.08
			v2.43c0,0.41-0.09,0.76-0.27,1.07c-0.18,0.31-0.43,0.54-0.75,0.71c-0.32,0.17-0.7,0.25-1.14,0.25
			C432.12,93.42,430.19,93.42,430.19,93.42z M431.3,92.4h0.82c0.32,0,0.57-0.09,0.76-0.27c0.19-0.18,0.28-0.43,0.28-0.74v-2.43
			c0-0.31-0.09-0.55-0.28-0.73c-0.19-0.18-0.44-0.27-0.76-0.27h-0.82V92.4z"/>
	</g>
</g>
<g>
	<path fill="#FF6666" d="M496.87,69.49H493c-2.06,0-3.73-1.67-3.73-3.73v-3.87c0-2.06,1.67-3.73,3.73-3.73h3.87
		c2.06,0,3.73,1.67,3.73,3.73v3.87C500.6,67.82,498.93,69.49,496.87,69.49z"/>
	<g>
		<path fill="#FFFFFF" d="M492.88,67.07v-6.49h2.05c0.43,0,0.81,0.08,1.12,0.24s0.56,0.38,0.74,0.67c0.18,0.29,0.27,0.63,0.27,1.02
			c0,0.43-0.11,0.8-0.32,1.13s-0.51,0.56-0.88,0.69l1.29,2.74h-1.24l-1.13-2.58h-0.79v2.58H492.88z M493.99,63.51h0.94
			c0.32,0,0.56-0.08,0.74-0.26c0.18-0.17,0.27-0.41,0.27-0.71c0-0.31-0.09-0.55-0.27-0.72c-0.18-0.17-0.42-0.26-0.74-0.26h-0.94
			V63.51z"/>
	</g>
</g>
<g>
	<path fill="#339AFF" d="M480.19,74.45h-3.87c-2.06,0-3.73-1.67-3.73-3.73v-3.87c0-2.06,1.67-3.73,3.73-3.73h3.87
		c2.06,0,3.73,1.67,3.73,3.73v3.87C483.92,72.78,482.25,74.45,480.19,74.45z"/>
	<g>
		<path fill="#FFFFFF" d="M476.65,72.02v-6.49h1.93c0.44,0,0.82,0.08,1.14,0.25c0.32,0.16,0.57,0.4,0.75,0.7s0.27,0.66,0.27,1.08
			v2.43c0,0.41-0.09,0.76-0.27,1.07s-0.43,0.54-0.75,0.71c-0.32,0.17-0.7,0.25-1.14,0.25C478.58,72.02,476.65,72.02,476.65,72.02z
			 M477.76,71h0.82c0.32,0,0.57-0.09,0.76-0.27c0.19-0.18,0.28-0.43,0.28-0.74v-2.43c0-0.31-0.09-0.55-0.28-0.73
			c-0.19-0.18-0.44-0.27-0.76-0.27h-0.82V71z"/>
	</g>
</g>
<g>
	<path fill="#FF6666" d="M381.92,88.3h-3.87c-2.06,0-3.73-1.67-3.73-3.73V80.7c0-2.06,1.67-3.73,3.73-3.73h3.87
		c2.06,0,3.73,1.67,3.73,3.73v3.87C385.66,86.63,383.99,88.3,381.92,88.3z"/>
	<g>
		<path fill="#FFFFFF" d="M377.94,85.88v-6.49h2.05c0.43,0,0.81,0.08,1.12,0.24c0.32,0.16,0.56,0.38,0.74,0.67s0.27,0.63,0.27,1.02
			c0,0.43-0.11,0.8-0.32,1.13s-0.51,0.56-0.88,0.69l1.29,2.74h-1.24l-1.13-2.58h-0.79v2.58H377.94z M379.05,82.32h0.94
			c0.32,0,0.56-0.08,0.74-0.26c0.18-0.17,0.27-0.41,0.27-0.71c0-0.31-0.09-0.55-0.27-0.72c-0.18-0.17-0.42-0.26-0.74-0.26h-0.94
			V82.32z"/>
	</g>
</g>
<g>
	<path fill="#339AFF" d="M398.2,93.72h-3.87c-2.06,0-3.73-1.67-3.73-3.73v-3.87c0-2.06,1.67-3.73,3.73-3.73h3.87
		c2.06,0,3.73,1.67,3.73,3.73v3.87C401.94,92.05,400.27,93.72,398.2,93.72z"/>
	<g>
		<path fill="#FFFFFF" d="M394.66,91.3v-6.49h1.93c0.44,0,0.82,0.08,1.14,0.25c0.32,0.16,0.57,0.4,0.75,0.7s0.27,0.66,0.27,1.08
			v2.43c0,0.41-0.09,0.76-0.27,1.07s-0.43,0.54-0.75,0.71c-0.32,0.17-0.7,0.25-1.14,0.25C396.59,91.3,394.66,91.3,394.66,91.3z
			 M395.78,90.27h0.82c0.32,0,0.57-0.09,0.76-0.27s0.28-0.43,0.28-0.74v-2.43c0-0.31-0.09-0.55-0.28-0.73s-0.44-0.27-0.76-0.27
			h-0.82V90.27z"/>
	</g>
</g>
<g>
	<path fill="#FF6666" d="M454.94,96.97h-3.87c-2.06,0-3.73-1.67-3.73-3.73v-3.87c0-2.06,1.67-3.73,3.73-3.73h3.87
		c2.06,0,3.73,1.67,3.73,3.73v3.87C458.68,95.29,457,96.97,454.94,96.97z"/>
	<g>
		<path fill="#FFFFFF" d="M450.96,94.54v-6.49h2.05c0.43,0,0.81,0.08,1.12,0.24c0.32,0.16,0.56,0.38,0.74,0.67s0.27,0.63,0.27,1.02
			c0,0.43-0.11,0.8-0.32,1.13s-0.51,0.56-0.88,0.69l1.29,2.74h-1.24l-1.13-2.58h-0.79v2.58H450.96z M452.07,90.99h0.94
			c0.32,0,0.56-0.08,0.74-0.26c0.18-0.17,0.27-0.41,0.27-0.71c0-0.31-0.09-0.55-0.27-0.72c-0.18-0.17-0.42-0.26-0.74-0.26h-0.94
			V90.99z"/>
	</g>
</g>
<g>
	<path fill="#339AFF" d="M437.73,71.2h-3.87c-2.06,0-3.73-1.67-3.73-3.73V63.6c0-2.06,1.67-3.73,3.73-3.73h3.87
		c2.06,0,3.73,1.67,3.73,3.73v3.87C441.46,69.53,439.79,71.2,437.73,71.2z"/>
	<g>
		<path fill="#FFFFFF" d="M434.19,68.78v-6.49h1.93c0.44,0,0.82,0.08,1.14,0.25s0.57,0.4,0.75,0.7s0.27,0.66,0.27,1.08v2.43
			c0,0.41-0.09,0.76-0.27,1.07s-0.43,0.54-0.75,0.71c-0.32,0.17-0.7,0.25-1.14,0.25C436.12,68.78,434.19,68.78,434.19,68.78z
			 M435.3,67.76h0.82c0.32,0,0.57-0.09,0.76-0.27s0.28-0.43,0.28-0.74v-2.43c0-0.31-0.09-0.55-0.28-0.73s-0.44-0.27-0.76-0.27h-0.82
			V67.76z"/>
	</g>
</g>
<g>
	<path fill="#339AFF" d="M429.56,28.31h-4.21c-2.24,0-4.06-1.73-4.06-3.85v-3.99c0-2.13,1.82-3.85,4.06-3.85h4.21
		c2.24,0,4.06,1.73,4.06,3.85v4C433.62,26.58,431.8,28.31,429.56,28.31z"/>
	<g>
		<path fill="#FFFFFF" d="M425.71,25.81v-6.7h2.1c0.48,0,0.89,0.09,1.24,0.26c0.35,0.17,0.62,0.41,0.82,0.73
			c0.19,0.31,0.29,0.68,0.29,1.11v2.51c0,0.42-0.1,0.79-0.29,1.11c-0.19,0.32-0.46,0.56-0.82,0.73c-0.35,0.17-0.76,0.26-1.24,0.26
			C427.81,25.81,425.71,25.81,425.71,25.81z M426.92,24.75h0.89c0.35,0,0.62-0.09,0.83-0.28s0.31-0.44,0.31-0.77V21.2
			c0-0.32-0.1-0.57-0.31-0.76s-0.48-0.28-0.83-0.28h-0.89V24.75z"/>
	</g>
</g>
<g>
	<path fill="#FF6666" d="M440.07,39.59h-4.21c-2.24,0-4.06-1.73-4.06-3.85v-3.99c0-2.13,1.82-3.85,4.06-3.85h4.21
		c2.24,0,4.06,1.73,4.06,3.85v4C444.13,37.87,442.31,39.59,440.07,39.59z"/>
	<g>
		<path fill="#FFFFFF" d="M435.74,37.09v-6.7h2.23c0.47,0,0.88,0.08,1.22,0.25c0.34,0.17,0.61,0.39,0.81,0.69
			c0.19,0.3,0.29,0.65,0.29,1.05c0,0.44-0.12,0.83-0.35,1.17c-0.24,0.33-0.55,0.57-0.95,0.72l1.4,2.83h-1.35l-1.23-2.66h-0.86v2.66
			H435.74z M436.95,33.42h1.02c0.34,0,0.61-0.09,0.8-0.27c0.19-0.18,0.29-0.42,0.29-0.73c0-0.32-0.1-0.57-0.29-0.75
			c-0.19-0.18-0.46-0.27-0.8-0.27h-1.02V33.42z"/>
	</g>
</g>
<path fill="#090064" d="M353.57,49.54h-15c-2.76,0-5-2.24-5-5v-15c0-2.76,2.24-5,5-5h15c2.76,0,5,2.24,5,5v15
	C358.57,47.3,356.33,49.54,353.57,49.54z"/>
<g>
	<path fill="#FFFFFF" d="M339,41.71v-9.88h1.95l2.81,8.09c-0.02-0.27-0.04-0.59-0.07-0.97c-0.03-0.37-0.06-0.76-0.07-1.16
		c-0.02-0.4-0.03-0.76-0.03-1.08v-4.88h1.45v9.88h-1.95l-2.8-8.09c0.03,0.24,0.05,0.55,0.07,0.91s0.04,0.73,0.06,1.12
		c0.02,0.38,0.03,0.74,0.03,1.06v5.01H339z"/>
	<path fill="#FFFFFF" d="M349.1,41.71l-2.5-9.88h1.62l1.54,6.51c0.09,0.35,0.17,0.71,0.24,1.08s0.13,0.67,0.16,0.89
		c0.04-0.23,0.09-0.52,0.16-0.89s0.15-0.74,0.24-1.1l1.52-6.49h1.58l-2.5,9.88H349.1z"/>
</g>
<path fill="#749CFF" d="M510.77,95.23h-15c-2.76,0-5-2.24-5-5v-15c0-2.76,2.24-5,5-5h15c2.76,0,5,2.24,5,5v15
	C515.77,92.99,513.53,95.23,510.77,95.23z"/>
<g>
	<path fill="#FFFFFF" d="M494.31,88.64v-12.5h2.47l3.56,10.24c-0.02-0.34-0.05-0.75-0.09-1.22s-0.07-0.96-0.09-1.47
		c-0.02-0.51-0.04-0.96-0.04-1.36v-6.18h1.83v12.5h-2.47l-3.55-10.24c0.03,0.31,0.07,0.69,0.09,1.15c0.03,0.46,0.05,0.93,0.08,1.41
		c0.02,0.49,0.03,0.93,0.03,1.34v6.34H494.31z"/>
	<path fill="#FFFFFF" d="M508.48,88.81c-0.79,0-1.48-0.15-2.06-0.45c-0.59-0.3-1.04-0.72-1.36-1.28s-0.48-1.2-0.48-1.94v-5.52
		c0-0.75,0.16-1.4,0.48-1.95c0.32-0.55,0.77-0.97,1.36-1.27c0.59-0.3,1.28-0.45,2.06-0.45c0.8,0,1.49,0.15,2.06,0.45
		c0.58,0.3,1.02,0.73,1.34,1.27c0.32,0.54,0.48,1.19,0.48,1.94h-1.99c0-0.62-0.17-1.09-0.5-1.41s-0.8-0.49-1.4-0.49
		s-1.08,0.16-1.41,0.49s-0.5,0.8-0.5,1.41v5.52c0,0.61,0.17,1.07,0.5,1.4s0.81,0.5,1.41,0.5s1.07-0.17,1.4-0.5s0.5-0.8,0.5-1.4h1.99
		c0,0.73-0.16,1.37-0.48,1.93c-0.32,0.55-0.77,0.98-1.34,1.29C509.97,88.66,509.28,88.81,508.48,88.81z"/>
</g>
<path fill="#FFAAAA" d="M568.4,78.31h-15c-2.76,0-5-2.24-5-5v-15c0-2.76,2.24-5,5-5h15c2.76,0,5,2.24,5,5v15
	C573.4,76.07,571.17,78.31,568.4,78.31z"/>
<g>
	<path d="M555.66,71.95c-0.82,0-1.53-0.15-2.13-0.46c-0.61-0.31-1.08-0.75-1.41-1.32s-0.5-1.24-0.5-2.01v-5.71
		c0-0.78,0.17-1.45,0.5-2.02c0.33-0.57,0.8-1,1.41-1.31c0.61-0.31,1.32-0.46,2.13-0.46c0.83,0,1.54,0.16,2.14,0.47
		c0.6,0.31,1.06,0.75,1.39,1.31c0.33,0.56,0.5,1.23,0.5,2.01h-2.06c0-0.64-0.17-1.12-0.51-1.46s-0.83-0.5-1.45-0.5
		s-1.11,0.17-1.46,0.5s-0.52,0.82-0.52,1.46v5.71c0,0.63,0.17,1.11,0.52,1.46c0.35,0.35,0.84,0.52,1.46,0.52s1.11-0.17,1.45-0.52
		c0.34-0.35,0.51-0.84,0.51-1.48v-1.36h-2.32v-1.81h4.38v3.19c0,0.77-0.17,1.44-0.5,2c-0.33,0.57-0.79,1.01-1.39,1.32
		C557.2,71.79,556.49,71.95,555.66,71.95z"/>
	<path d="M561.6,71.77l3.28-12.94h2.69l3.28,12.94h-2.09l-0.76-3.21h-3.54l-0.74,3.21H561.6z M564.82,66.86h2.78l-0.82-3.6
		c-0.14-0.61-0.26-1.16-0.36-1.65s-0.17-0.82-0.2-1.01c-0.04,0.19-0.1,0.52-0.19,1s-0.21,1.02-0.35,1.64L564.82,66.86z"/>
</g>
<path fill="#1C0DFF" d="M676.11,35.6h-15c-2.76,0-5-2.24-5-5v-15c0-2.76,2.24-5,5-5h15c2.76,0,5,2.24,5,5v15
	C681.11,33.36,678.88,35.6,676.11,35.6z"/>
<g>
	<path fill="#FFFFFF" d="M664.02,28.54c-0.71,0-1.32-0.13-1.83-0.4c-0.52-0.27-0.91-0.65-1.19-1.14c-0.28-0.5-0.41-1.07-0.41-1.74
		v-4.93c0-0.67,0.14-1.26,0.41-1.75c0.28-0.49,0.67-0.87,1.19-1.13c0.51-0.27,1.12-0.4,1.83-0.4c0.71,0,1.33,0.13,1.84,0.4
		c0.51,0.27,0.9,0.64,1.18,1.13c0.28,0.49,0.41,1.07,0.41,1.75v4.93c0,0.66-0.14,1.24-0.41,1.74s-0.67,0.88-1.18,1.14
		C665.35,28.4,664.73,28.54,664.02,28.54z M664.02,26.96c0.54,0,0.95-0.15,1.23-0.44s0.42-0.71,0.42-1.26v-4.93
		c0-0.55-0.14-0.97-0.42-1.26s-0.69-0.44-1.23-0.44c-0.54,0-0.95,0.15-1.23,0.44c-0.28,0.29-0.42,0.71-0.42,1.26v4.93
		c0,0.54,0.14,0.96,0.43,1.26S663.49,26.96,664.02,26.96z"/>
	<path fill="#FFFFFF" d="M669.85,28.38V17.2h1.79v4.56h3.12V17.2h1.79v11.18h-1.79v-4.96h-3.12v4.96H669.85z"/>
</g>
<path fill="#FF777B" d="M490.01,29.73h-15.13c-2.76,0-5-2.24-5-5V9.6c0-2.76,2.24-5,5-5h15.13c2.76,0,5,2.24,5,5v15.13
	C495.01,27.49,492.77,29.73,490.01,29.73z"/>
<g>
	<path fill="#FFFFFF" d="M475.42,21.96l-1.07-10.14h1.43l0.65,7.18c0.01,0.17,0.02,0.36,0.03,0.59c0.01,0.23,0.03,0.45,0.04,0.67
		s0.02,0.42,0.02,0.58c0.02-0.17,0.04-0.36,0.06-0.58s0.04-0.45,0.07-0.67c0.03-0.23,0.05-0.42,0.07-0.59l0.86-7.18h1.42l0.81,7.18
		c0.02,0.17,0.04,0.36,0.06,0.59c0.02,0.23,0.05,0.45,0.08,0.67c0.03,0.22,0.05,0.42,0.06,0.58c0.01-0.17,0.02-0.36,0.03-0.58
		c0.01-0.22,0.03-0.45,0.05-0.67c0.02-0.23,0.03-0.42,0.04-0.59l0.65-7.18h1.4l-1.13,10.14h-1.83l-0.78-7.24
		c-0.02-0.19-0.04-0.4-0.06-0.62c-0.02-0.22-0.04-0.45-0.06-0.67c-0.02-0.22-0.04-0.41-0.06-0.57c-0.01,0.16-0.02,0.35-0.04,0.57
		c-0.02,0.22-0.04,0.44-0.06,0.67c-0.02,0.22-0.04,0.43-0.07,0.62l-0.85,7.24H475.42z"/>
	<path fill="#FFFFFF" d="M483.75,21.96v-1.43h2.04v-7.28h-2.04v-1.43h5.73v1.43h-2.04v7.28h2.04v1.43H483.75z"/>
</g>
<path fill="#FF5978" d="M666.93,86.42h-15c-2.76,0-5-2.24-5-5v-15c0-2.76,2.24-5,5-5h15c2.76,0,5,2.24,5,5v15
	C671.93,84.18,669.69,86.42,666.93,86.42z"/>
<g>
	<path fill="#FFFFFF" d="M649.73,80.32V66.78h2.67l3.86,11.09c-0.02-0.37-0.06-0.81-0.1-1.33s-0.08-1.04-0.1-1.59
		c-0.03-0.55-0.04-1.04-0.04-1.47v-6.69H658v13.53h-2.67l-3.84-11.09c0.04,0.33,0.07,0.75,0.1,1.24c0.03,0.49,0.06,1,0.08,1.53
		c0.02,0.53,0.04,1.01,0.04,1.46v6.86H649.73z"/>
	<path fill="#FFFFFF" d="M660.93,80.32V66.78h2.17v5.53h3.78v-5.53h2.17v13.53h-2.17v-6.01h-3.78v6.01H660.93z"/>
</g>
<path fill="#5187FF" d="M564.86,39.98h-15c-2.76,0-5-2.24-5-5v-15c0-2.76,2.24-5,5-5h15c2.76,0,5,2.24,5,5v15
	C569.86,37.74,567.62,39.98,564.86,39.98z"/>
<g>
	<path fill="#FFFFFF" d="M548.19,32.97l3.02-11.93h2.48l3.02,11.93h-1.93l-0.7-2.96h-3.27l-0.69,2.96H548.19z M551.17,28.44h2.57
		l-0.75-3.32c-0.13-0.57-0.24-1.07-0.33-1.52c-0.09-0.45-0.16-0.76-0.19-0.93c-0.03,0.17-0.09,0.48-0.18,0.92
		c-0.09,0.44-0.2,0.95-0.33,1.51L551.17,28.44z"/>
	<path fill="#FFFFFF" d="M558.68,32.97v-1.83l4.94-8.33h-4.84v-1.77h6.9v1.83l-4.94,8.33h5.1v1.76H558.68z"/>
</g>
<path fill="#DE0005" d="M132.29,38.84h-15c-2.76,0-5-2.24-5-5v-15c0-2.76,2.24-5,5-5h15c2.76,0,5,2.24,5,5v15
	C137.29,36.6,135.05,38.84,132.29,38.84z"/>
<g>
	<path fill="#FFFFFF" d="M115.92,32.23V19.77h4.13c0.82,0,1.53,0.16,2.13,0.47c0.6,0.31,1.07,0.75,1.41,1.32
		c0.34,0.57,0.5,1.24,0.5,2.01c0,0.75-0.17,1.41-0.5,1.99c-0.34,0.58-0.81,1.02-1.41,1.33c-0.6,0.31-1.31,0.47-2.13,0.47h-2.13v4.86
		H115.92z M117.91,25.58h2.13c0.61,0,1.11-0.18,1.48-0.55c0.37-0.36,0.55-0.85,0.55-1.45c0-0.62-0.19-1.12-0.55-1.48
		c-0.37-0.36-0.86-0.54-1.48-0.54h-2.13V25.58z"/>
	<path fill="#FFFFFF" d="M125.46,32.23l3.16-12.46h2.59l3.16,12.46h-2.01l-0.73-3.09h-3.41l-0.72,3.09H125.46z M128.56,27.5h2.68
		l-0.78-3.46c-0.14-0.59-0.25-1.12-0.35-1.59s-0.16-0.79-0.2-0.97c-0.03,0.18-0.1,0.5-0.19,0.96c-0.09,0.46-0.21,0.99-0.34,1.58
		L128.56,27.5z"/>
</g>
<g>
	<path fill="#FF6666" d="M641.05,99.09h-3.87c-2.06,0-3.73-1.67-3.73-3.73v-3.87c0-2.06,1.67-3.73,3.73-3.73h3.87
		c2.06,0,3.73,1.67,3.73,3.73v3.87C644.79,97.42,643.11,99.09,641.05,99.09z"/>
	<g>
		<path fill="#FFFFFF" d="M637.07,96.67v-6.49h2.05c0.43,0,0.81,0.08,1.12,0.24s0.56,0.38,0.74,0.67c0.18,0.29,0.27,0.63,0.27,1.02
			c0,0.43-0.11,0.8-0.32,1.13c-0.22,0.32-0.51,0.56-0.88,0.69l1.29,2.74h-1.24l-1.13-2.58h-0.79v2.58H637.07z M638.18,93.11h0.94
			c0.32,0,0.56-0.08,0.74-0.26c0.18-0.17,0.27-0.41,0.27-0.71c0-0.31-0.09-0.55-0.27-0.72c-0.18-0.17-0.42-0.26-0.74-0.26h-0.94
			V93.11z"/>
	</g>
</g>
<g>
	<path fill="#FF6666" d="M661.36,49.95h-3.87c-2.06,0-3.73-1.67-3.73-3.73v-3.87c0-2.06,1.67-3.73,3.73-3.73h3.87
		c2.06,0,3.73,1.67,3.73,3.73v3.87C665.09,48.28,663.42,49.95,661.36,49.95z"/>
	<g>
		<path fill="#FFFFFF" d="M657.37,47.53v-6.49h2.05c0.43,0,0.81,0.08,1.12,0.24c0.32,0.16,0.56,0.38,0.74,0.67
			c0.18,0.29,0.27,0.63,0.27,1.02c0,0.43-0.11,0.8-0.32,1.13c-0.22,0.32-0.51,0.56-0.88,0.69l1.29,2.74h-1.24l-1.13-2.58h-0.79v2.58
			H657.37z M658.48,43.97h0.94c0.32,0,0.56-0.08,0.74-0.26s0.27-0.41,0.27-0.71c0-0.31-0.09-0.55-0.27-0.72s-0.42-0.26-0.74-0.26
			h-0.94V43.97z"/>
	</g>
</g>
<g>
	<path fill="#FF6666" d="M606.77,19.67h-3.87c-2.06,0-3.73-1.67-3.73-3.73v-3.87c0-2.06,1.67-3.73,3.73-3.73h3.87
		c2.06,0,3.73,1.67,3.73,3.73v3.87C610.51,17.99,608.84,19.67,606.77,19.67z"/>
	<g>
		<path fill="#FFFFFF" d="M602.79,17.24v-6.49h2.05c0.43,0,0.81,0.08,1.12,0.24s0.56,0.38,0.74,0.67c0.18,0.29,0.27,0.63,0.27,1.02
			c0,0.43-0.11,0.8-0.32,1.13c-0.22,0.32-0.51,0.56-0.88,0.69l1.29,2.74h-1.24l-1.13-2.58h-0.79v2.58H602.79z M603.9,13.68h0.94
			c0.32,0,0.56-0.08,0.74-0.26s0.27-0.41,0.27-0.71c0-0.31-0.09-0.55-0.27-0.72s-0.42-0.26-0.74-0.26h-0.94V13.68z"/>
	</g>
</g>
<g>
	<path fill="#FF6666" d="M537.39,91.5h-3.87c-2.06,0-3.73-1.67-3.73-3.73v-3.87c0-2.06,1.67-3.73,3.73-3.73h3.87
		c2.06,0,3.73,1.67,3.73,3.73v3.87C541.13,89.83,539.45,91.5,537.39,91.5z"/>
	<g>
		<path fill="#FFFFFF" d="M533.41,89.07v-6.49h2.05c0.43,0,0.81,0.08,1.12,0.24c0.32,0.16,0.56,0.38,0.74,0.67s0.27,0.63,0.27,1.02
			c0,0.43-0.11,0.8-0.32,1.13s-0.51,0.56-0.88,0.69l1.29,2.74h-1.24l-1.13-2.58h-0.79v2.58H533.41z M534.52,85.52h0.94
			c0.32,0,0.56-0.08,0.74-0.26c0.18-0.17,0.27-0.41,0.27-0.71c0-0.31-0.09-0.55-0.27-0.72c-0.18-0.17-0.42-0.26-0.74-0.26h-0.94
			V85.52z"/>
	</g>
</g>
<g>
	<path fill="#FF6666" d="M526.67,63.84h-3.87c-2.06,0-3.73-1.67-3.73-3.73v-3.87c0-2.06,1.67-3.73,3.73-3.73h3.87
		c2.06,0,3.73,1.67,3.73,3.73v3.87C530.4,62.17,528.73,63.84,526.67,63.84z"/>
	<g>
		<path fill="#FFFFFF" d="M522.68,61.42v-6.49h2.05c0.43,0,0.81,0.08,1.12,0.24c0.32,0.16,0.56,0.38,0.74,0.67
			c0.18,0.29,0.27,0.63,0.27,1.02c0,0.43-0.11,0.8-0.32,1.13c-0.22,0.32-0.51,0.56-0.88,0.69l1.29,2.74h-1.24l-1.13-2.58h-0.79v2.58
			H522.68z M523.79,57.86h0.94c0.32,0,0.56-0.08,0.74-0.26s0.27-0.41,0.27-0.71c0-0.31-0.09-0.55-0.27-0.72s-0.42-0.26-0.74-0.26
			h-0.94V57.86z"/>
	</g>
</g>
<g>
	<path fill="#FF6666" d="M509,19.35h-3.87c-2.06,0-3.73-1.67-3.73-3.73v-3.87c0-2.06,1.67-3.73,3.73-3.73h3.87
		c2.06,0,3.73,1.67,3.73,3.73v3.87C512.74,17.68,511.07,19.35,509,19.35z"/>
	<g>
		<path fill="#FFFFFF" d="M505.02,16.93v-6.49h2.05c0.43,0,0.81,0.08,1.12,0.24s0.56,0.38,0.74,0.67c0.18,0.29,0.27,0.63,0.27,1.02
			c0,0.43-0.11,0.8-0.32,1.13s-0.51,0.56-0.88,0.69l1.29,2.74h-1.24l-1.13-2.58h-0.79v2.58H505.02z M506.13,13.37h0.94
			c0.32,0,0.56-0.08,0.74-0.26c0.18-0.17,0.27-0.41,0.27-0.71c0-0.31-0.09-0.55-0.27-0.72c-0.18-0.17-0.42-0.26-0.74-0.26h-0.94
			V13.37z"/>
	</g>
</g>
<g>
	<path fill="#FF6666" d="M466.5,59.6h-3.87c-2.06,0-3.73-1.67-3.73-3.73V52c0-2.06,1.67-3.73,3.73-3.73h3.87
		c2.06,0,3.73,1.67,3.73,3.73v3.87C470.24,57.93,468.57,59.6,466.5,59.6z"/>
	<g>
		<path fill="#FFFFFF" d="M462.52,57.18v-6.49h2.05c0.43,0,0.81,0.08,1.12,0.24c0.32,0.16,0.56,0.38,0.74,0.67
			c0.18,0.29,0.27,0.63,0.27,1.02c0,0.43-0.11,0.8-0.32,1.13s-0.51,0.56-0.88,0.69l1.29,2.74h-1.24l-1.13-2.58h-0.79v2.58H462.52z
			 M463.63,53.62h0.94c0.32,0,0.56-0.08,0.74-0.26s0.27-0.41,0.27-0.71c0-0.31-0.09-0.55-0.27-0.72s-0.42-0.26-0.74-0.26h-0.94
			V53.62z"/>
	</g>
</g>
<g>
	<path fill="#FF6666" d="M689.9,83.03h-3.87c-2.06,0-3.73-1.67-3.73-3.73v-3.87c0-2.06,1.67-3.73,3.73-3.73h3.87
		c2.06,0,3.73,1.67,3.73,3.73v3.87C693.63,81.36,691.96,83.03,689.9,83.03z"/>
	<g>
		<path fill="#FFFFFF" d="M685.91,80.61v-6.49h2.05c0.43,0,0.81,0.08,1.12,0.24s0.56,0.38,0.74,0.67s0.27,0.63,0.27,1.02
			c0,0.43-0.11,0.8-0.32,1.13c-0.22,0.32-0.51,0.56-0.88,0.69l1.29,2.74h-1.24l-1.13-2.58h-0.79v2.58H685.91z M687.02,77.05h0.94
			c0.32,0,0.56-0.08,0.74-0.26c0.18-0.17,0.27-0.41,0.27-0.71c0-0.31-0.09-0.55-0.27-0.72c-0.18-0.17-0.42-0.26-0.74-0.26h-0.94
			V77.05z"/>
	</g>
</g>
<g>
	<path fill="#FF6666" d="M425.54,51.89h-3.87c-2.06,0-3.73-1.67-3.73-3.73v-3.87c0-2.06,1.67-3.73,3.73-3.73h3.87
		c2.06,0,3.73,1.67,3.73,3.73v3.87C429.28,50.22,427.61,51.89,425.54,51.89z"/>
	<g>
		<path fill="#FFFFFF" d="M421.56,49.47v-6.49h2.05c0.43,0,0.81,0.08,1.12,0.24c0.32,0.16,0.56,0.38,0.74,0.67
			c0.18,0.29,0.27,0.63,0.27,1.02c0,0.43-0.11,0.8-0.32,1.13c-0.22,0.32-0.51,0.56-0.88,0.69l1.29,2.74h-1.24l-1.13-2.58h-0.79v2.58
			H421.56z M422.67,45.91h0.94c0.32,0,0.56-0.08,0.74-0.26s0.27-0.41,0.27-0.71c0-0.31-0.09-0.55-0.27-0.72s-0.42-0.26-0.74-0.26
			h-0.94V45.91z"/>
	</g>
</g>
<g>
	<path fill="#339AFF" d="M461.18,80.12h-3.87c-2.06,0-3.73-1.67-3.73-3.73v-3.87c0-2.06,1.67-3.73,3.73-3.73h3.87
		c2.06,0,3.73,1.67,3.73,3.73v3.87C464.92,78.44,463.25,80.12,461.18,80.12z"/>
	<g>
		<path fill="#FFFFFF" d="M457.64,77.69V71.2h1.93c0.44,0,0.82,0.08,1.14,0.25s0.57,0.4,0.75,0.7c0.18,0.3,0.27,0.66,0.27,1.08v2.43
			c0,0.41-0.09,0.76-0.27,1.07c-0.18,0.31-0.43,0.54-0.75,0.71c-0.32,0.17-0.7,0.25-1.14,0.25
			C459.57,77.69,457.64,77.69,457.64,77.69z M458.75,76.67h0.82c0.32,0,0.57-0.09,0.76-0.27s0.28-0.43,0.28-0.74v-2.43
			c0-0.31-0.09-0.55-0.28-0.73s-0.44-0.27-0.76-0.27h-0.82V76.67z"/>
	</g>
</g>
<g>
	<path fill="#339AFF" d="M643.28,18.38h-3.87c-2.06,0-3.73-1.67-3.73-3.73v-3.87c0-2.06,1.67-3.73,3.73-3.73h3.87
		c2.06,0,3.73,1.67,3.73,3.73v3.87C647.01,16.7,645.34,18.38,643.28,18.38z"/>
	<g>
		<path fill="#FFFFFF" d="M639.74,15.95V9.46h1.93c0.44,0,0.82,0.08,1.14,0.25c0.32,0.16,0.57,0.4,0.75,0.7s0.27,0.66,0.27,1.08
			v2.43c0,0.41-0.09,0.76-0.27,1.07c-0.18,0.31-0.43,0.54-0.75,0.71c-0.32,0.17-0.7,0.25-1.14,0.25
			C641.67,15.95,639.74,15.95,639.74,15.95z M640.85,14.93h0.82c0.32,0,0.57-0.09,0.76-0.27c0.19-0.18,0.28-0.43,0.28-0.74v-2.43
			c0-0.31-0.09-0.55-0.28-0.73c-0.19-0.18-0.44-0.27-0.76-0.27h-0.82V14.93z"/>
	</g>
</g>
<g>
	<path fill="#339AFF" d="M484.37,52.42h-3.87c-2.06,0-3.73-1.67-3.73-3.73v-3.87c0-2.06,1.67-3.73,3.73-3.73h3.87
		c2.06,0,3.73,1.67,3.73,3.73v3.87C488.11,50.75,486.44,52.42,484.37,52.42z"/>
	<g>
		<path fill="#FFFFFF" d="M480.84,50v-6.49h1.93c0.44,0,0.82,0.08,1.14,0.25c0.32,0.16,0.57,0.4,0.75,0.7
			c0.18,0.3,0.27,0.66,0.27,1.08v2.43c0,0.41-0.09,0.76-0.27,1.07c-0.18,0.31-0.43,0.54-0.75,0.71s-0.7,0.25-1.14,0.25
			C482.77,50,480.84,50,480.84,50z M481.95,48.98h0.82c0.32,0,0.57-0.09,0.76-0.27s0.28-0.43,0.28-0.74v-2.43
			c0-0.31-0.09-0.55-0.28-0.73s-0.44-0.27-0.76-0.27h-0.82V48.98z"/>
	</g>
</g>
<g>
	<path fill="#339AFF" d="M583.28,93.72h-3.87c-2.06,0-3.73-1.67-3.73-3.73v-3.87c0-2.06,1.67-3.73,3.73-3.73h3.87
		c2.06,0,3.73,1.67,3.73,3.73v3.87C587.02,92.05,585.34,93.72,583.28,93.72z"/>
	<g>
		<path fill="#FFFFFF" d="M579.74,91.3v-6.49h1.93c0.44,0,0.82,0.08,1.14,0.25s0.57,0.4,0.75,0.7s0.27,0.66,0.27,1.08v2.43
			c0,0.41-0.09,0.76-0.27,1.07s-0.43,0.54-0.75,0.71s-0.7,0.25-1.14,0.25C581.67,91.3,579.74,91.3,579.74,91.3z M580.85,90.27h0.82
			c0.32,0,0.57-0.09,0.76-0.27s0.28-0.43,0.28-0.74v-2.43c0-0.31-0.09-0.55-0.28-0.73s-0.44-0.27-0.76-0.27h-0.82V90.27z"/>
	</g>
</g>
<g>
	<path fill="#339AFF" d="M546.79,55.67h-3.87c-2.06,0-3.73-1.67-3.73-3.73v-3.87c0-2.06,1.67-3.73,3.73-3.73h3.87
		c2.06,0,3.73,1.67,3.73,3.73v3.87C550.53,54,548.86,55.67,546.79,55.67z"/>
	<g>
		<path fill="#FFFFFF" d="M543.25,53.25v-6.49h1.93c0.44,0,0.82,0.08,1.14,0.25c0.32,0.16,0.57,0.4,0.75,0.7
			c0.18,0.3,0.27,0.66,0.27,1.08v2.43c0,0.41-0.09,0.76-0.27,1.07s-0.43,0.54-0.75,0.71c-0.32,0.17-0.7,0.25-1.14,0.25
			C545.18,53.25,543.25,53.25,543.25,53.25z M544.36,52.22h0.82c0.32,0,0.57-0.09,0.76-0.27c0.19-0.18,0.28-0.43,0.28-0.74v-2.43
			c0-0.31-0.09-0.55-0.28-0.73c-0.19-0.18-0.44-0.27-0.76-0.27h-0.82V52.22z"/>
	</g>
</g>
<g>
	<path fill="#339AFF" d="M532.34,18.38h-3.87c-2.06,0-3.73-1.67-3.73-3.73v-3.87c0-2.06,1.67-3.73,3.73-3.73h3.87
		c2.06,0,3.73,1.67,3.73,3.73v3.87C536.07,16.7,534.4,18.38,532.34,18.38z"/>
	<g>
		<path fill="#FFFFFF" d="M528.8,15.95V9.46h1.93c0.44,0,0.82,0.08,1.14,0.25s0.57,0.4,0.75,0.7s0.27,0.66,0.27,1.08v2.43
			c0,0.41-0.09,0.76-0.27,1.07c-0.18,0.31-0.43,0.54-0.75,0.71c-0.32,0.17-0.7,0.25-1.14,0.25C530.73,15.95,528.8,15.95,528.8,15.95
			z M529.91,14.93h0.82c0.32,0,0.57-0.09,0.76-0.27c0.19-0.18,0.28-0.43,0.28-0.74v-2.43c0-0.31-0.09-0.55-0.28-0.73
			c-0.19-0.18-0.44-0.27-0.76-0.27h-0.82V14.93z"/>
	</g>
</g>
<g>
	<path fill="#339AFF" d="M511.77,63.84h-3.87c-2.06,0-3.73-1.67-3.73-3.73v-3.87c0-2.06,1.67-3.73,3.73-3.73h3.87
		c2.06,0,3.73,1.67,3.73,3.73v3.87C515.5,62.17,513.83,63.84,511.77,63.84z"/>
	<g>
		<path fill="#FFFFFF" d="M508.23,61.42v-6.49h1.93c0.44,0,0.82,0.08,1.14,0.25c0.32,0.16,0.57,0.4,0.75,0.7
			c0.18,0.3,0.27,0.66,0.27,1.08v2.43c0,0.41-0.09,0.76-0.27,1.07s-0.43,0.54-0.75,0.71c-0.32,0.17-0.7,0.25-1.14,0.25
			C510.16,61.42,508.23,61.42,508.23,61.42z M509.34,60.4h0.82c0.32,0,0.57-0.09,0.76-0.27c0.19-0.18,0.28-0.43,0.28-0.74v-2.43
			c0-0.31-0.09-0.55-0.28-0.73c-0.19-0.18-0.44-0.27-0.76-0.27h-0.82V60.4z"/>
	</g>
</g>
<g>
	<path fill="#339AFF" d="M451.38,20.41h-3.87c-2.06,0-3.73-1.67-3.73-3.73v-3.87c0-2.06,1.67-3.73,3.73-3.73h3.87
		c2.06,0,3.73,1.67,3.73,3.73v3.87C455.12,18.74,453.45,20.41,451.38,20.41z"/>
	<g>
		<path fill="#FFFFFF" d="M447.84,17.99v-6.49h1.93c0.44,0,0.82,0.08,1.14,0.25s0.57,0.4,0.75,0.7s0.27,0.66,0.27,1.08v2.43
			c0,0.41-0.09,0.76-0.27,1.07s-0.43,0.54-0.75,0.71s-0.7,0.25-1.14,0.25C449.77,17.99,447.84,17.99,447.84,17.99z M448.95,16.96
			h0.82c0.32,0,0.57-0.09,0.76-0.27s0.28-0.43,0.28-0.74v-2.43c0-0.31-0.09-0.55-0.28-0.73c-0.19-0.18-0.44-0.27-0.76-0.27h-0.82
			V16.96z"/>
	</g>
</g>
</svg>
