<?xml version="1.0" encoding="utf-8"?>
<!-- Generator: Adobe Illustrator 24.1.0, SVG Export Plug-In . SVG Version: 6.00 Build 0)  -->
<svg version="1.1" id="Layer_1" xmlns="http://www.w3.org/2000/svg" xmlns:xlink="http://www.w3.org/1999/xlink" x="0px" y="0px"
	 viewBox="0 0 700 100" style="enable-background:new 0 0 700 100;" xml:space="preserve">
<style type="text/css">
	.st0{clip-path:url(#SVGID_2_);}
	.st1{fill:#231F20;}
	.st2{fill:#1E61FF;}
	.st3{clip-path:url(#SVGID_2_);fill:none;}
	.st4{fill:#FC474E;}
	.st5{stroke:#000000;stroke-width:0.2374;stroke-miterlimit:10;}
	.st6{stroke:#000000;stroke-width:0.2459;stroke-miterlimit:10;}
	.st7{stroke:#000000;stroke-width:0.1669;stroke-miterlimit:10;}
	.st8{stroke:#000000;stroke-width:0.22;stroke-miterlimit:10;}
	.st9{stroke:#000000;stroke-width:0.2395;stroke-miterlimit:10;}
	.st10{stroke:#000000;stroke-width:0.2418;stroke-miterlimit:10;}
	.st11{stroke:#000000;stroke-width:0.2676;stroke-miterlimit:10;}
	.st12{stroke:#000000;stroke-width:0.2516;stroke-miterlimit:10;}
	.st13{fill:none;stroke:#000000;stroke-width:0.4917;stroke-miterlimit:10;}
	.st14{font-family:'JetBrainsMono-Bold';}
	.st15{font-size:34.3047px;}
	.st16{fill:#339AFF;}
	.st17{fill:#FFFFFF;}
	.st18{fill:#F16667;}
	.st19{fill:#C77BF6;}
	.st20{stroke:#000000;stroke-width:0.2702;stroke-miterlimit:10;}
	.st21{stroke:#000000;stroke-width:0.2799;stroke-miterlimit:10;}
	.st22{stroke:#000000;stroke-width:0.19;stroke-miterlimit:10;}
	.st23{stroke:#000000;stroke-width:0.2504;stroke-miterlimit:10;}
	.st24{stroke:#000000;stroke-width:0.2727;stroke-miterlimit:10;}
	.st25{stroke:#000000;stroke-width:0.2753;stroke-miterlimit:10;}
	.st26{stroke:#000000;stroke-width:0.3046;stroke-miterlimit:10;}
	.st27{stroke:#000000;stroke-width:0.2864;stroke-miterlimit:10;}
	.st28{fill:none;stroke:#000000;stroke-width:0.5597;stroke-miterlimit:10;}
	.st29{stroke:#000000;stroke-width:0.1874;stroke-miterlimit:10;}
	.st30{stroke:#000000;stroke-width:0.1941;stroke-miterlimit:10;}
	.st31{stroke:#000000;stroke-width:0.1318;stroke-miterlimit:10;}
	.st32{stroke:#000000;stroke-width:0.1737;stroke-miterlimit:10;}
	.st33{stroke:#000000;stroke-width:0.1891;stroke-miterlimit:10;}
	.st34{stroke:#000000;stroke-width:0.1909;stroke-miterlimit:10;}
	.st35{stroke:#000000;stroke-width:0.2113;stroke-miterlimit:10;}
	.st36{stroke:#000000;stroke-width:0.1987;stroke-miterlimit:10;}
	.st37{fill:none;stroke:#000000;stroke-width:0.3882;stroke-miterlimit:10;}
	.st38{stroke:#000000;stroke-width:0.1856;stroke-miterlimit:10;}
	.st39{stroke:#000000;stroke-width:0.1922;stroke-miterlimit:10;}
	.st40{stroke:#000000;stroke-width:0.1305;stroke-miterlimit:10;}
	.st41{stroke:#000000;stroke-width:0.172;stroke-miterlimit:10;}
	.st42{stroke:#000000;stroke-width:0.1873;stroke-miterlimit:10;}
	.st43{stroke:#000000;stroke-width:0.2092;stroke-miterlimit:10;}
	.st44{stroke:#000000;stroke-width:0.1968;stroke-miterlimit:10;}
	.st45{fill:none;stroke:#000000;stroke-width:0.3845;stroke-miterlimit:10;}
	.st46{stroke:#000000;stroke-width:0.5379;stroke-miterlimit:10;}
	.st47{stroke:#000000;stroke-width:0.5571;stroke-miterlimit:10;}
	.st48{stroke:#000000;stroke-width:0.3781;stroke-miterlimit:10;}
	.st49{stroke:#000000;stroke-width:0.4985;stroke-miterlimit:10;}
	.st50{stroke:#000000;stroke-width:0.5427;stroke-miterlimit:10;}
	.st51{stroke:#000000;stroke-width:0.5479;stroke-miterlimit:10;}
	.st52{stroke:#000000;stroke-width:0.6063;stroke-miterlimit:10;}
	.st53{stroke:#000000;stroke-width:0.5701;stroke-miterlimit:10;}
	.st54{fill:none;stroke:#000000;stroke-width:1.1141;stroke-miterlimit:10;}
	.st55{stroke:#000000;stroke-width:0.4885;stroke-miterlimit:10;}
	.st56{stroke:#000000;stroke-width:0.506;stroke-miterlimit:10;}
	.st57{stroke:#000000;stroke-width:0.3435;stroke-miterlimit:10;}
	.st58{stroke:#000000;stroke-width:0.4528;stroke-miterlimit:10;}
	.st59{stroke:#000000;stroke-width:0.493;stroke-miterlimit:10;}
	.st60{stroke:#000000;stroke-width:0.4977;stroke-miterlimit:10;}
	.st61{stroke:#000000;stroke-width:0.5507;stroke-miterlimit:10;}
	.st62{stroke:#000000;stroke-width:0.5179;stroke-miterlimit:10;}
	.st63{fill:none;stroke:#000000;stroke-width:1.0119;stroke-miterlimit:10;}
	.st64{clip-path:url(#SVGID_4_);}
	.st65{clip-path:url(#SVGID_4_);fill:none;}
	.st66{clip-path:url(#SVGID_6_);}
	.st67{clip-path:url(#SVGID_6_);fill:none;}
	.st68{clip-path:url(#SVGID_8_);}
	.st69{clip-path:url(#SVGID_8_);fill:none;}
	.st70{clip-path:url(#SVGID_10_);}
	.st71{clip-path:url(#SVGID_10_);fill:none;}
	.st72{clip-path:url(#SVGID_12_);}
	.st73{clip-path:url(#SVGID_12_);fill:none;}
</style>
<g>
	<defs>
		<circle id="SVGID_1_" cx="684.29" cy="19.43" r="21.43"/>
	</defs>
	<clipPath id="SVGID_2_">
		<use xlink:href="#SVGID_1_"  style="overflow:visible;"/>
	</clipPath>
	<g class="st0">
		<g>
			<g>
				<path class="st1" d="M697.2,13.01c-0.54-0.05-1.03-0.32-1.56-0.09c-0.48,0.21-0.85,0.73-1.1,1.17c-0.87,1.5-1.05,3.23-1.56,4.85
					c-0.15,0.46-0.57,1.1-0.52,1.61c0.07,0.75,0.83,1.31,0.95,2.06c0.18,1.13-1.44,1.92-2.28,2.09c-0.69,0.14-1.09,0.21-1.66,0.73
					c-1.49,1.36-2.01,3.34-3.07,4.99c-0.78,1.2-1.83,2.26-3.11,2.92c-3.36,1.72-9.7-0.02-10.3-4.27c-0.29-2.01,1.01-4.41,1.58-6.29
					c0.45-1.49,0.92-2.92,1.53-4.35c0.08-0.2-0.13-0.38-0.3-0.23c-0.28-0.07-0.56-0.14-0.84-0.21c0.01-0.13,0.02-0.27,0.03-0.4
					c0.01-0.23,0.33-0.87,0.48-1.12c0.33-0.54,0.78-0.69,1.36-0.93c0.69-0.29,0.92-0.54,1.37-1.12c0.9-1.15,1.89-2.1,2.74-3.3
					c0.77-1.1,1.6-2.12,2.13-3.36c0.31-0.73,0.46-1.43,0.14-2.2c-0.52-1.24-1.52-1.9-0.55-3.37c0.14-0.21-0.19-0.4-0.33-0.19
					c-0.55,0.83-0.7,1.7-0.2,2.58c0.37,0.65,0.91,1.14,0.88,1.97c-0.03,0.69-0.41,1.37-0.74,1.96c-0.8,1.43-1.85,2.95-2.96,4.16
					c-0.43,0.47-0.91,0.88-1.32,1.38c-0.59,0.73-0.7,0.84-1.69,1.18c-0.87,0.3-1.05,0.73-1.43,1.59c-0.22,0.5-0.51,1.07-0.17,1.58
					c0.36,0.54,0.91,0.43,1.35,0.07c-0.1-0.08-0.2-0.15-0.3-0.23c-0.5,1.18-0.95,2.36-1.31,3.59c-0.6,2.02-1.47,4.03-1.82,6.11
					c-0.56,3.25,2.69,5.37,5.38,6.13c3.33,0.94,6.49-0.29,8.47-3.09c1.18-1.67,1.99-5.38,4.29-5.77c0.76-0.13,1.21-0.06,1.81-0.6
					c0.4-0.36,1.15-1.01,1.24-1.6c0.08-0.51-0.3-1.12-0.52-1.54c-0.34-0.64-0.53-0.98-0.24-1.72c0.15-0.37,0.28-0.73,0.38-1.12
					c0.32-1.24,0.56-2.51,1.09-3.69c0.21-0.46,0.46-1.05,0.86-1.37c0.64-0.52,1.15-0.24,1.8-0.18
					C697.45,13.41,697.45,13.03,697.2,13.01L697.2,13.01z"/>
			</g>
		</g>
		<g>
			<g>
				<path class="st1" d="M697.36,13.41c1.15-0.07,2.31-0.14,3.46-0.21c0.96-0.06,2.27-0.38,3.16-0.02c1.23,0.49,0.4,1.83,0.19,2.77
					c-0.19,0.88,0.09,1.66,0.12,2.55c0.02,0.74,0.03,1.03-0.72,0.8c-0.42-0.13-0.75-0.4-1.19-0.5c-0.81-0.19-1.63-0.12-2.32,0.37
					c-0.74,0.51-1.27,1.41-1.76,2.14c-0.45,0.68-0.87,1.4-0.76,2.24c0.1,0.84,0.82,1.2,1.05,1.93c0.31,0.97-0.79,1.58-1.3,2.17
					c-0.33,0.38-0.61,0.8-0.86,1.24c-1.03,1.81-1.96,3.59-3.34,5.18c-1.85,2.15-4.09,3.36-6.72,4.31c-1.84,0.66-3.8,1.36-5.79,1.18
					c-2.16-0.19-4.59-1.17-6.42-2.29c-1.49-0.91-2.96-2.13-3.83-3.67c-0.84-1.5-1.11-3.33-1.32-5.01
					c-0.63-5.19-0.73-11.19,2.15-15.79c0.78-1.25,1.91-2.16,3.14-2.95c0.29-0.19,1.3-0.59,1.41-1c0.06-0.22,0.06-0.28-0.13-0.43
					c-0.11-0.08-0.31,0-0.43,0c-0.79,0-1.65,0.45-2.06-0.59c-0.28-0.71,0.16-1.79,0.6-2.32c0.3-0.36,0.98-0.56,1.19-1
					c0.25-0.52-0.19-0.92-0.62-1.16c-0.4-0.22-0.84-0.3-1.29-0.28c-0.42,0.02-0.98,0.35-1.36,0.31c-0.54-0.05-0.22-0.47-0.04-0.87
					c0.21-0.49,0.37-1,0.43-1.54c0.06-0.55-0.13-1.23,0.02-1.76c0.24-0.84,1.2-1.07,1.96-1.13c0.94-0.08,1.69,0.2,2.5,0.66
					c2,1.13,3.75,2.68,5.54,4.1c0.19,0.15,0.46-0.12,0.27-0.27c-1.71-1.36-3.37-2.8-5.23-3.94c-1.3-0.79-2.71-1.29-4.22-0.71
					c-0.64,0.25-1.11,0.7-1.21,1.39c-0.05,0.34,0.02,0.68,0.03,1.02c0.01,1-0.34,1.63-0.68,2.54c-0.69,1.82,1.8,0.29,2.64,0.68
					c0.15,0.04,0.31,0.08,0.46,0.12c0.37,0.54,0.32,0.89-0.14,1.07c-0.12,0.17-0.39,0.32-0.54,0.49c-0.22,0.26-0.38,0.57-0.5,0.88
					c-0.25,0.67-0.4,1.65,0.02,2.28c0.35,0.53,0.97,0.57,1.55,0.51c0.19-0.02,0.38-0.07,0.57-0.09c0.54-0.05,0.31-0.14,0.01,0.11
					c-0.46,0.37-1.03,0.63-1.51,0.97c-4.55,3.16-5.45,9.56-5.22,14.71c0.16,3.56,0.24,7.85,2.77,10.65
					c1.51,1.67,3.51,2.88,5.61,3.65c1.74,0.64,3.54,1.21,5.41,1.01c2.35-0.26,4.78-1.18,6.9-2.2c2.41-1.16,4.26-3.05,5.75-5.24
					c0.46-0.68,0.89-1.38,1.29-2.11c0.29-0.53,0.55-1.09,0.87-1.6c0.5-0.8,1.26-1.29,1.8-2.02c0.35-0.47,0.45-0.93,0.19-1.47
					c-0.18-0.38-0.53-0.66-0.74-1.03c-0.59-1.06-0.03-2.03,0.57-2.92c0.47-0.71,1-1.6,1.79-2.01c1.15-0.59,2.11-0.03,3.08,0.48
					c0.48,0.25,0.8,0.27,1.01-0.3c0.39-1.08-0.32-2.34-0.08-3.44c0.16-0.72,0.81-1.91,0.46-2.66c-0.49-1.04-2.55-0.69-3.44-0.62
					c-1.4,0.1-2.8,0.17-4.2,0.25C697.12,13.04,697.12,13.42,697.36,13.41L697.36,13.41z"/>
			</g>
		</g>
		<g>
			<path class="st2" d="M708.94,4.55l-0.98,2.01l0.21,1.89c-1.52,1.45-3.04,2.9-4.56,4.35c-3.4,0.29-5.72-0.25-6.41,0.4
				c0,0,0.8-0.35,1.61-3.2c0.42-1.47,0.18-2.05,0.4-3.85c0.17-1.4,1.72-5.73,2.88-8.1"/>
			<g>
				<path class="st1" d="M708.78,4.45c-0.2,0.4-0.39,0.8-0.59,1.2c-0.13,0.27-0.38,0.61-0.42,0.91c-0.06,0.44,0.11,1.01,0.16,1.45
					c0.01,0.08,0.05,0.24,0.04,0.32c-0.04,0.28,0.1-0.2-0.15,0.2c-0.3,0.49-1,0.95-1.41,1.35c-0.47,0.45-0.94,0.9-1.41,1.35
					c-0.41,0.39-0.83,0.93-1.3,1.24c-0.48,0.31-1.18,0.22-1.73,0.24c-0.52,0.01-1.03,0.01-1.55,0c-0.97-0.02-2.52-0.31-3.34,0.37
					c-0.18,0.15,0.05,0.39,0.23,0.3c0.51-0.24,0.84-1.02,1.05-1.48c0.69-1.53,0.88-2.99,0.97-4.63c0.07-1.48,0.5-2.84,0.98-4.24
					c0.57-1.65,1.2-3.29,1.96-4.87c0.11-0.22-0.22-0.41-0.33-0.19c-0.67,1.38-1.24,2.81-1.75,4.25c-0.45,1.24-0.94,2.53-1.13,3.84
					c-0.11,0.74-0.11,1.49-0.14,2.23c-0.04,0.89-0.26,1.72-0.55,2.56c-0.21,0.59-0.57,1.87-1.24,2.19c0.08,0.1,0.15,0.2,0.23,0.3
					c0.44-0.37,1.25-0.28,1.78-0.28c0.86,0.01,1.72,0.04,2.59,0.03c0.54-0.01,1.08-0.03,1.62-0.07c0.49-0.04,0.59-0.24,0.97-0.6
					c0.91-0.86,1.81-1.72,2.72-2.59c0.41-0.39,1.31-0.93,1.35-1.5c0.03-0.54-0.17-1.1-0.18-1.64c0-0.19-0.06,0.06,0.04-0.19
					c0.09-0.22,0.21-0.43,0.32-0.65c0.2-0.4,0.39-0.8,0.59-1.2C709.22,4.42,708.89,4.23,708.78,4.45L708.78,4.45z"/>
			</g>
		</g>
		<g>
			<g>
				<path class="st1" d="M683.74,24.45c0.44-1.63,1.6-2.97,3.15-3.65c0.22-0.1,0.03-0.43-0.19-0.33c-1.64,0.72-2.86,2.16-3.32,3.88
					C683.31,24.59,683.68,24.69,683.74,24.45L683.74,24.45z"/>
			</g>
		</g>
		<g>
			<g>
				<path class="st1" d="M682.13,18.52c0.53-0.16,1.06-0.23,1.61-0.24c0.28,0,0.57,0,0.85,0.01c0.16,0,0.33,0,0.48,0.05
					c0.3,0.09,0.5,0.38,0.69,0.61c0.41,0.51,0.81,1.02,1.2,1.54c0.15,0.19,0.48,0,0.33-0.19c-0.41-0.55-0.83-1.09-1.26-1.62
					c-0.23-0.28-0.47-0.58-0.83-0.7c-0.42-0.14-0.94-0.08-1.38-0.08c-0.61,0-1.22,0.07-1.81,0.25
					C681.79,18.22,681.89,18.59,682.13,18.52L682.13,18.52z"/>
			</g>
		</g>
		<g>
			<g>
				<path class="st1" d="M683.83,26.47c0.36,0.69,0.92,1.14,1.66,1.39c0.49,0.17,1,0.26,1.51,0.3c0.3,0.03,0.65,0.07,0.94-0.01
					c0.24-0.07,0.13-0.44-0.1-0.37c-0.24,0.07-0.56,0.02-0.82,0c-0.47-0.04-0.93-0.13-1.37-0.27c-0.41-0.14-0.81-0.34-1.12-0.66
					c-0.16-0.17-0.27-0.37-0.38-0.57C684.04,26.06,683.71,26.25,683.83,26.47L683.83,26.47z"/>
			</g>
		</g>
		<g>
			<g>
				<path class="st1" d="M680.07,24.49c-0.7,0.02-1.41-0.05-2.09-0.24c-0.81-0.22-1.39-0.76-1.65-1.56
					c-0.08-0.23-0.45-0.13-0.37,0.1c0.28,0.85,0.88,1.5,1.74,1.77c0.75,0.24,1.58,0.33,2.37,0.3
					C680.31,24.86,680.32,24.48,680.07,24.49L680.07,24.49z"/>
			</g>
		</g>
		<g>
			<g>
				<path class="st1" d="M681.28,22.67c-1.53,0.66-3.68,0.18-4.3-1.52c-0.04,0.08-0.09,0.16-0.13,0.24c1.67-0.36,3.23,0.44,4.4,1.59
					c0.18,0.17,0.45-0.1,0.27-0.27c-1.27-1.25-2.96-2.08-4.77-1.69c-0.1,0.02-0.17,0.14-0.13,0.24c0.37,1.01,1.23,1.67,2.24,1.96
					c0.88,0.25,1.78,0.15,2.62-0.21C681.7,22.91,681.5,22.58,681.28,22.67z"/>
			</g>
		</g>
		<g>
			<g>
				<path class="st1" d="M684.6,24.24c0.23,0.78,0.71,1.44,1.38,1.9c0.77,0.53,1.75,0.59,2.59,0.18c0.12-0.06,0.11-0.21,0.04-0.3
					c-0.91-1.17-2.36-1.72-3.77-2.01c-0.24-0.05-0.34,0.32-0.1,0.37c1.35,0.28,2.73,0.79,3.6,1.91c0.01-0.1,0.03-0.2,0.04-0.3
					c-1.47,0.72-2.99-0.43-3.41-1.85C684.9,23.9,684.53,24,684.6,24.24z"/>
			</g>
		</g>
		<g>
			<g>
				<path class="st1" d="M692.95,17.78c-0.11-3.21-1.15-6.9-4.46-8.11c-2.87-1.06-6.13,0.34-8.17,2.4c-0.17,0.18,0.1,0.45,0.27,0.27
					c1.94-1.96,5.01-3.3,7.75-2.32c3.16,1.13,4.13,4.73,4.23,7.76C692.57,18.02,692.96,18.02,692.95,17.78L692.95,17.78z"/>
			</g>
		</g>
		<g>
			<g>
				<path class="st1" d="M689.78,17.93c-0.06,0.04-0.44-0.12-0.52-0.15c-0.43-0.14-0.85-0.3-1.27-0.47
					c-0.32-0.13-0.63-0.26-0.92-0.44c-0.29-0.17-0.54-0.4-0.83-0.57c-0.61-0.34-1.26-0.35-1.93-0.49c-0.79-0.17-1.49-0.58-2.13-1.07
					c0.01,0.1,0.03,0.2,0.04,0.3c1.38-1.14,3.34-1.36,4.91-0.48c0.75,0.42,1.4,1.01,1.9,1.7c0.23,0.32,0.45,0.67,0.59,1.04
					c0.05,0.12,0.23,0.52,0.12,0.65c-0.16,0.18,0.11,0.46,0.27,0.27c0.4-0.46-0.15-1.37-0.4-1.77c-0.53-0.87-1.27-1.61-2.14-2.14
					c-1.76-1.06-3.95-0.84-5.52,0.45c-0.11,0.09-0.05,0.23,0.04,0.3c0.65,0.5,1.37,0.92,2.18,1.1c0.8,0.18,1.54,0.17,2.23,0.7
					c0.6,0.45,1.26,0.73,1.96,0.99c0.37,0.14,0.74,0.29,1.12,0.39c0.15,0.04,0.36,0.11,0.5,0.01
					C690.17,18.12,689.98,17.79,689.78,17.93z"/>
			</g>
		</g>
		<g>
			<g>
				<path class="st1" d="M692.08,21.7c-0.29,0.71-0.57,1.41-0.86,2.12c-0.04,0.1,0.04,0.21,0.13,0.24c0.11,0.03,0.2-0.04,0.24-0.13
					c0.29-0.71,0.57-1.41,0.86-2.12c0.04-0.1-0.04-0.21-0.13-0.24C692.2,21.53,692.12,21.6,692.08,21.7L692.08,21.7z"/>
			</g>
		</g>
		<g>
			<g>
				<path class="st1" d="M676.83,17.13c0.18-0.34,0.35-0.67,0.53-1.01c0.05-0.09,0.03-0.21-0.07-0.26
					c-0.09-0.05-0.21-0.03-0.26,0.07c-0.18,0.34-0.35,0.67-0.53,1.01c-0.05,0.09-0.03,0.21,0.07,0.26
					C676.66,17.24,676.78,17.22,676.83,17.13L676.83,17.13z"/>
			</g>
		</g>
		<g>
			<g>
				<path class="st1" d="M702.6,16.03c-1.13-0.46-2.38-0.53-3.51-0.04c-1.34,0.59-2.53,1.54-3.53,2.6c-0.17,0.18,0.1,0.45,0.27,0.27
					c0.94-1,2.04-1.88,3.28-2.46c1.09-0.51,2.29-0.45,3.38,0C702.73,16.49,702.83,16.12,702.6,16.03L702.6,16.03z"/>
			</g>
		</g>
		<g>
			<g>
				<path class="st1" d="M701.55,17.42c-2.04,0.13-3.96,0.95-5.49,2.31c-0.18,0.16,0.09,0.43,0.27,0.27
					c1.45-1.28,3.28-2.07,5.22-2.19C701.79,17.78,701.79,17.4,701.55,17.42L701.55,17.42z"/>
			</g>
		</g>
		<g>
			<g>
				<path class="st1" d="M679.03,36.25c5.17-0.05,9.73-3.21,11.76-7.92c0.1-0.22-0.23-0.42-0.33-0.19
					c-1.98,4.59-6.39,7.68-11.43,7.73C678.78,35.87,678.78,36.25,679.03,36.25L679.03,36.25z"/>
			</g>
		</g>
		<g>
			<g>
				<path class="st1" d="M680.92,38.01c4.73-0.77,8.7-3.82,10.86-8.06c0.11-0.22-0.22-0.41-0.33-0.19
					c-2.13,4.16-5.99,7.13-10.64,7.88C680.57,37.68,680.67,38.05,680.92,38.01L680.92,38.01z"/>
			</g>
		</g>
		<g>
			<g>
				<path class="st1" d="M688.76,36.04c3.21-1.97,5.59-5.08,6.64-8.7c0.07-0.24-0.3-0.34-0.37-0.1c-1.02,3.53-3.34,6.55-6.47,8.47
					C688.35,35.84,688.55,36.17,688.76,36.04L688.76,36.04z"/>
			</g>
		</g>
		<g>
			<g>
				<path class="st1" d="M691.63,28.1c0.96-1.19,1.93-2.37,2.89-3.56c0.15-0.19-0.11-0.46-0.27-0.27c-0.96,1.19-1.93,2.37-2.89,3.56
					C691.2,28.02,691.47,28.3,691.63,28.1L691.63,28.1z"/>
			</g>
		</g>
		<g>
			<g>
				<path class="st1" d="M695.68,16.86c1.95-1.51,4.51-2.14,6.94-1.71c0.24,0.04,0.34-0.33,0.1-0.37c-2.58-0.45-5.24,0.21-7.31,1.81
					C695.21,16.74,695.48,17.01,695.68,16.86L695.68,16.86z"/>
			</g>
		</g>
		<g>
			<g>
				<path class="st1" d="M695.46,25.76c0.53-1.14,1.06-2.28,1.58-3.42c0.1-0.22-0.23-0.42-0.33-0.19c-0.53,1.14-1.06,2.28-1.58,3.42
					C695.03,25.79,695.36,25.99,695.46,25.76L695.46,25.76z"/>
			</g>
		</g>
		<g>
			<g>
				<path class="st1" d="M674,33.61c-2.25-1.92-3.44-4.8-2.92-7.76c0.32-1.81,1.19-3.62,2.4-5c0.16-0.18-0.11-0.46-0.27-0.27
					c-1.34,1.52-2.28,3.53-2.56,5.54c-0.41,2.97,0.82,5.84,3.08,7.76C673.92,34.04,674.19,33.77,674,33.61L674,33.61z"/>
			</g>
		</g>
		<g>
			<g>
				<path class="st1" d="M672.38,33.47c-1.97-2.65-2.86-5.92-2.47-9.2c0.03-0.24-0.35-0.24-0.38,0c-0.39,3.34,0.53,6.7,2.53,9.39
					C672.19,33.85,672.52,33.66,672.38,33.47L672.38,33.47z"/>
			</g>
		</g>
		<g>
			<g>
				<path class="st1" d="M671.29,21.86c1.06-2.42,2.24-4.78,3.53-7.08c0.12-0.21-0.21-0.41-0.33-0.19c-1.29,2.3-2.47,4.67-3.53,7.08
					C670.86,21.89,671.19,22.09,671.29,21.86L671.29,21.86z"/>
			</g>
		</g>
		<g>
			<g>
				<path class="st1" d="M670.14,22.14c-0.17-2.61,0.64-5.21,2.29-7.25c0.15-0.19-0.12-0.46-0.27-0.27c-1.71,2.11-2.58,4.8-2.4,7.52
					C669.78,22.38,670.16,22.38,670.14,22.14L670.14,22.14z"/>
			</g>
		</g>
		<g>
			<g>
				<path class="st1" d="M673.76,13.1c1.02-1.29,2.64-1.97,4.28-1.7c0.24,0.04,0.34-0.33,0.1-0.37c-1.77-0.29-3.54,0.4-4.65,1.8
					C673.34,13.02,673.61,13.29,673.76,13.1L673.76,13.1z"/>
			</g>
		</g>
		<g>
			<g>
				<path class="st1" d="M679.66,10.05c0.22-0.48,0.39-1.03,0.24-1.55c-0.11-0.42-0.43-0.73-0.82-0.91
					c-0.57-0.28-1.23-0.36-1.85-0.45c-0.65-0.1-1.31-0.13-1.97-0.08c-0.24,0.02-0.25,0.4,0,0.38c0.54-0.04,1.08-0.03,1.62,0.03
					c0.59,0.07,1.21,0.16,1.78,0.36c0.36,0.13,0.73,0.37,0.84,0.71c0.15,0.44,0.01,0.92-0.18,1.32
					C679.23,10.08,679.56,10.28,679.66,10.05L679.66,10.05z"/>
			</g>
		</g>
		<g>
			<g>
				<path class="st1" d="M681.49,6.97c-0.12-0.99-0.65-1.95-1.45-2.55c-1.36-1.01-3.22-0.81-4.5,0.22
					c-0.19,0.15,0.08,0.42,0.27,0.27c1.17-0.94,2.93-1.09,4.12-0.09c0.43,0.36,0.76,0.83,0.96,1.36c0.07,0.17,0.12,0.35,0.16,0.53
					c0.01,0.06,0.03,0.12,0.04,0.19c0.01,0.04,0.02,0.12,0.01,0.09C681.14,7.21,681.52,7.22,681.49,6.97L681.49,6.97z"/>
			</g>
		</g>
		<g>
			<g>
				<path class="st1" d="M680.07,6.86c-1.56-0.51-3.19-0.78-4.83-0.81c-0.25,0-0.25,0.38,0,0.38c1.61,0.03,3.2,0.3,4.72,0.8
					C680.2,7.3,680.3,6.94,680.07,6.86L680.07,6.86z"/>
			</g>
		</g>
		<g>
			<g>
				<path class="st1" d="M679.03,2c-1.82-0.1-3.65,0.07-5.43,0.5c-0.24,0.06-0.14,0.43,0.1,0.37c1.74-0.42,3.54-0.59,5.33-0.49
					C679.28,2.39,679.28,2.01,679.03,2L679.03,2z"/>
			</g>
		</g>
		<g>
			<g>
				<path class="st1" d="M675.8-0.34c-1.22-0.14-2.39,0.6-2.83,1.74c-0.09,0.23,0.28,0.33,0.37,0.1c0.02-0.06,0.04-0.1,0.08-0.18
					c0.05-0.1,0.11-0.2,0.18-0.3c0.17-0.25,0.4-0.47,0.65-0.63c0.46-0.29,1.01-0.41,1.56-0.35c0.1,0.01,0.19-0.1,0.19-0.19
					C675.99-0.26,675.9-0.32,675.8-0.34L675.8-0.34z"/>
			</g>
		</g>
		<g>
			<polyline class="st2" points="678.79,-10.24 680.54,-4.81 677.4,-5 676.68,-1.46 682.15,2.71 689.27,-7.59 			"/>
			<g>
				<path class="st1" d="M678.6-10.18c0.58,1.81,1.17,3.62,1.75,5.42c0.06-0.08,0.12-0.16,0.18-0.24c-1.05-0.06-2.09-0.13-3.14-0.19
					c-0.08,0-0.17,0.06-0.18,0.14c-0.24,1.18-0.48,2.36-0.73,3.54c-0.02,0.09,0.02,0.16,0.09,0.22c1.83,1.39,3.65,2.78,5.48,4.17
					c0.09,0.07,0.21,0.01,0.26-0.07c2.07-3,4.14-6,6.22-9c0.3-0.43,0.6-0.87,0.9-1.3c0.14-0.2-0.19-0.39-0.33-0.19
					c-2.07,3-4.14,6-6.22,9c-0.3,0.43-0.6,0.87-0.9,1.3c0.09-0.02,0.17-0.05,0.26-0.07c-1.83-1.39-3.65-2.78-5.48-4.17
					c0.03,0.07,0.06,0.14,0.09,0.22c0.24-1.18,0.48-2.36,0.73-3.54c-0.06,0.05-0.12,0.09-0.18,0.14c1.05,0.06,2.09,0.13,3.14,0.19
					c0.12,0.01,0.22-0.13,0.18-0.24c-0.58-1.81-1.17-3.62-1.75-5.42C678.9-10.52,678.53-10.42,678.6-10.18L678.6-10.18z"/>
			</g>
		</g>
	</g>
	<circle class="st3" cx="684.29" cy="19.43" r="21.43"/>
</g>
<g>
	<path class="st4" d="M-2.18,100.26c0.86-0.59,2.64-1.96,2.65-2.31c0.01-0.33-0.14-0.46-0.62-1.57c-0.43-1.02-0.48-1.26-0.36-1.42
		c0.13-0.18,0.34-0.11,0.84-0.17c0.87-0.1,0.96-0.39,2.28-0.74c0.54-0.14,0.82-0.21,1.09-0.16c0.77,0.13,1.22,0.81,1.41,1.1
		c0.45,0.66,0.13,0.72,0.71,2.46c0.12,0.36,0.22,0.63,0.09,0.87c-0.16,0.28-0.5,0.3-1.1,0.44c-0.52,0.12-1.33,0.31-1.83,0.68
		c-0.32,0.23-1.12,2.18-1.32,3.08"/>
	<g>
		<g>
			<path class="st5" d="M-0.15,85.12c0.2,0.88,0.49,1.69,0.88,2.52c0.46,0.99,0.91,1.97,1.28,3.01c0.39,1.12,0.8,2.25,1.54,3.21
				c0.18,0.24,0.39,0.51,0.65,0.68c0.33,0.21,0.8,0.22,1.19,0.24c1.93,0.09,3.82-0.43,5.67-0.92c0.94-0.24,1.85-0.5,2.77-0.78
				c0.8-0.24,1.52-0.58,2.24-1.03c0.95-0.61,1.86-1.33,2.67-2.11c0.71-0.7,1.17-1.6,1.58-2.5c0.03-0.08,0.07-0.16,0.1-0.24
				c-0.05,0.03-0.11,0.07-0.15,0.1c0.34,0.02,0.71,0.02,1.04-0.1c0.4-0.14,0.74-0.42,1.01-0.73c0.57-0.62,1.11-1.29,1.65-1.95
				c0.49-0.6,0.94-1.23,1.51-1.75c0.29-0.26,0.63-0.48,0.91-0.77c0.14-0.15,0.25-0.32,0.35-0.5c0.23-0.42,0.42-0.85,0.61-1.29
				c0.28-0.62,0.52-1.24,0.76-1.87c0.02-0.03,0.06-0.12,0.01-0.05c0.03-0.08,0.07-0.16,0.1-0.23c0.14-0.33,0.29-0.64,0.45-0.96
				c0.16-0.34,0.35-0.66,0.51-1.01c0.16-0.39,0.3-0.79,0.45-1.17c0.1-0.25,0.23-0.63,0.46-0.78c0.18-0.12,0.46-0.02,0.65,0.02
				c0.6,0.15,1.25,0.29,1.78-0.15c0.47-0.39,0.61-1.04,0.63-1.61c0.03-0.81-0.12-1.63-0.33-2.42c-0.89-3.43-2.93-6.43-5.61-8.73
				c-1.49-1.28-3.2-2.37-5-3.17c-1.27-0.55-2.55-1.07-3.91-1.39c-1.69-0.39-3.45-0.5-5.16-0.18c-3.11,0.58-5.77,2.44-7.84,4.75
				c-1.05,1.19-1.97,2.49-2.76,3.87c-0.68,1.17-1.33,2.33-1.56,3.68c-0.26,1.48-0.85,2.87-1.21,4.34c-0.1,0.42-0.2,0.87-0.16,1.3
				c0.03,0.55,0.14,1.27,0.59,1.64c0.27,0.22,0.61,0.23,0.92,0.15c0.07-0.02,0.14-0.05,0.22-0.06c0.03-0.01,0.12-0.02,0.14-0.03
				c-0.01,0.02,0.07-0.05,0.01-0.01c-0.01,0.01-0.04-0.03-0.02-0.04l-0.02,0.11c-0.11,0.33-0.36,0.62-0.54,0.91
				C0.62,77.56,0.37,78,0.18,78.47c-0.52,1.27-0.67,2.71-0.62,4.09C-0.46,83.4-0.34,84.27-0.15,85.12c0.06,0.23,0.4,0.12,0.33-0.1
				c-0.29-1.37-0.38-2.75-0.26-4.14c0.08-0.91,0.27-1.78,0.67-2.59c0.21-0.43,0.45-0.83,0.7-1.24c0.15-0.25,0.36-0.52,0.43-0.8
				c0.05-0.21-0.02-0.44-0.28-0.46c-0.24-0.02-0.47,0.14-0.72,0.16c-0.66,0.03-0.8-0.97-0.83-1.45c-0.03-0.41,0.06-0.81,0.15-1.21
				c0.19-0.79,0.44-1.57,0.7-2.35c0.21-0.63,0.39-1.26,0.49-1.92C1.36,68.5,1.47,68,1.67,67.51c0.3-0.74,0.69-1.42,1.08-2.1
				c0.47-0.79,0.96-1.59,1.5-2.33c1.61-2.2,3.7-4.17,6.19-5.33c1.65-0.77,3.47-1.13,5.29-1.06c1.55,0.06,3.09,0.46,4.54,1
				c1.74,0.66,3.41,1.46,4.94,2.53c2.67,1.83,4.92,4.29,6.28,7.24c0.38,0.81,0.68,1.66,0.91,2.53c0.21,0.78,0.37,1.6,0.34,2.41
				c-0.03,0.56-0.16,1.25-0.74,1.47c-0.57,0.23-1.12-0.12-1.68-0.17c-0.62-0.05-0.89,0.59-1.09,1.08c-0.15,0.37-0.28,0.76-0.44,1.12
				c-0.15,0.35-0.33,0.67-0.51,1.01c-0.47,0.97-0.84,1.99-1.26,2.99c-0.2,0.46-0.4,0.92-0.63,1.36c-0.09,0.16-0.19,0.33-0.31,0.46
				c-0.25,0.28-0.58,0.49-0.88,0.75c-0.56,0.52-1.02,1.12-1.5,1.71c-0.51,0.63-1.02,1.25-1.56,1.86c-0.27,0.31-0.56,0.63-0.96,0.77
				c-0.31,0.12-0.67,0.14-1,0.1c-0.05,0-0.13,0.04-0.15,0.1c-0.3,0.77-0.68,1.57-1.19,2.22c-0.28,0.35-0.6,0.65-0.94,0.93
				c-0.42,0.37-0.89,0.73-1.34,1.07c-0.76,0.55-1.57,1.07-2.45,1.37c-0.78,0.27-1.6,0.49-2.39,0.71c-0.99,0.26-1.99,0.52-2.98,0.76
				c-0.82,0.18-1.63,0.35-2.48,0.38c-0.5,0.02-1,0.03-1.49-0.04c-0.15-0.03-0.32-0.05-0.45-0.14c-0.09-0.06-0.18-0.17-0.26-0.26
				c-0.68-0.73-1.12-1.68-1.46-2.6c-0.41-1.13-0.82-2.26-1.34-3.35C0.9,87.3,0.55,86.58,0.33,85.8c-0.07-0.23-0.13-0.5-0.18-0.73
				C0.14,84.79-0.19,84.89-0.15,85.12z"/>
		</g>
	</g>
	<g>
		<g>
			<path class="st5" d="M8.83,59.31c0.61,1.16,1.3,2.27,1.99,3.37c0.48,0.76,0.95,1.5,1.46,2.22c0.44,0.62,0.9,1.26,1.42,1.82
				c0.55,0.6,1.2,1.1,1.87,1.55c0.8,0.53,1.65,0.96,2.55,1.32c2,0.82,4.11,1.39,6.18,1.99c2.14,0.61,4.28,1.19,6.45,1.61
				c0.28,0.06,0.55,0.11,0.84,0.16c0.22,0.04,0.31-0.31,0.08-0.35c-2.22-0.38-4.4-0.96-6.56-1.56c-0.92-0.26-1.86-0.53-2.79-0.81
				c-1.12-0.34-2.22-0.66-3.31-1.07c-1.73-0.64-3.44-1.5-4.77-2.81c-0.5-0.47-0.91-1.04-1.31-1.61c-0.52-0.71-0.99-1.44-1.47-2.17
				c-0.78-1.2-1.52-2.41-2.21-3.66c-0.04-0.08-0.09-0.15-0.12-0.22C9.03,58.93,8.73,59.11,8.83,59.31L8.83,59.31z"/>
		</g>
	</g>
	<g>
		<g>
			<path class="st5" d="M1.8,67.51c0.4,0.21,0.81,0.38,1.22,0.56c0.66,0.27,1.37,0.57,2.09,0.63c0.74,0.06,1.4-0.47,1.91-0.95
				c0.71-0.66,1.32-1.43,1.9-2.19c0.69-0.89,1.45-1.74,2.32-2.47c0.18-0.14-0.08-0.39-0.25-0.25c-0.76,0.63-1.44,1.37-2.07,2.15
				c-0.58,0.73-1.14,1.49-1.79,2.15c-0.3,0.31-0.61,0.62-0.98,0.85c-0.26,0.16-0.57,0.33-0.86,0.35s-0.58-0.07-0.87-0.16
				c-0.35-0.1-0.71-0.22-1.05-0.37c-0.48-0.2-0.96-0.41-1.42-0.64C1.76,67.09,1.59,67.4,1.8,67.51L1.8,67.51z"/>
		</g>
	</g>
	<g>
		<g>
			<path class="st5" d="M12.97,62.09c1.15,1.42,2.51,2.68,4.01,3.74c0.38,0.27,0.76,0.52,1.15,0.77c0.19,0.12,0.36-0.19,0.17-0.31
				c-1.53-0.95-2.92-2.09-4.15-3.39c-0.33-0.35-0.63-0.69-0.93-1.06C13.07,61.67,12.81,61.92,12.97,62.09L12.97,62.09z"/>
		</g>
	</g>
	<g>
		<g>
			<path class="st5" d="M14.88,61.24c1.36,2,3.09,3.72,5.08,5.08c0.54,0.37,1.1,0.71,1.67,1.02c0.19,0.11,0.37-0.2,0.17-0.31
				c-2.16-1.18-4.08-2.75-5.63-4.64c-0.36-0.42-0.68-0.87-0.99-1.33C15.06,60.88,14.76,61.06,14.88,61.24L14.88,61.24z"/>
		</g>
	</g>
	<g>
		<g>
			<path class="st5" d="M14.56,58.52c2.2,2.31,4.66,4.37,7.32,6.13c0.71,0.47,1.42,0.92,2.16,1.35c0.19,0.11,0.37-0.2,0.17-0.31
				c-2.78-1.6-5.36-3.52-7.7-5.71c-0.6-0.54-1.15-1.12-1.7-1.69C14.65,58.09,14.4,58.35,14.56,58.52L14.56,58.52z"/>
		</g>
	</g>
	<g>
		<g>
			<path class="st5" d="M21.11,65.29c2.08,1.95,4.44,3.6,6.98,4.87c0.8,0.39,1.61,0.74,2.45,1.07c0.21,0.08,0.3-0.27,0.08-0.35
				c-2.77-1.06-5.37-2.58-7.68-4.46c-0.55-0.45-1.08-0.91-1.59-1.39C21.19,64.87,20.94,65.13,21.11,65.29L21.11,65.29z"/>
		</g>
	</g>
	<g>
		<g>
			<path class="st5" d="M18.8,58.74c1.12,1.79,2.55,3.4,4.21,4.72c0.41,0.34,0.86,0.66,1.3,0.95c0.18,0.13,0.35-0.18,0.17-0.31
				c-1.73-1.16-3.26-2.61-4.51-4.28c-0.31-0.41-0.58-0.83-0.86-1.27C18.99,58.37,18.67,58.56,18.8,58.74L18.8,58.74z"/>
		</g>
	</g>
	<g>
		<g>
			<path class="st5" d="M25.72,63.79c0.57,2.11,1.85,3.97,3.61,5.25c0.35,0.26,0.72,0.48,1.09,0.69c0.19,0.11,0.37-0.2,0.17-0.31
				c-1.76-0.95-3.19-2.45-4.03-4.3c-0.22-0.46-0.39-0.95-0.52-1.44C26.01,63.46,25.67,63.58,25.72,63.79L25.72,63.79z"/>
		</g>
	</g>
	<g>
		<g>
			<path class="st5" d="M23.42,82.09c0.91-2.66,2.42-5.1,4.39-7.1c0.5-0.51,1.04-0.98,1.58-1.43c0.18-0.14-0.08-0.39-0.25-0.25
				c-2.28,1.84-4.12,4.21-5.33,6.87c-0.27,0.59-0.51,1.21-0.73,1.82C23,82.22,23.34,82.3,23.42,82.09L23.42,82.09z"/>
		</g>
	</g>
	<g>
		<g>
			<path class="st5" d="M23.4,82.27c1.21-0.51,2.35-1.18,3.35-2.03c0.18-0.14-0.08-0.39-0.25-0.25c-0.97,0.8-2.05,1.45-3.2,1.93
				C23.1,82.01,23.18,82.36,23.4,82.27L23.4,82.27z"/>
		</g>
	</g>
	<g>
		<g>
			<path class="st5" d="M2.3,75.12c0.88-1.94,1.48-4.02,1.77-6.13c0.03-0.22-0.32-0.32-0.35-0.08c-0.29,2.08-0.88,4.11-1.74,6.04
				C1.89,75.16,2.21,75.33,2.3,75.12L2.3,75.12z"/>
		</g>
	</g>
	<g>
		<g>
			<path class="st6" d="M6.69,82.91c0.54,0.5,1.11,0.96,1.7,1.4c1.2,0.88,2.47,1.68,3.85,2.23c0.65,0.25,1.32,0.46,2.01,0.59
				c0.19,0.05,0.27-0.3,0.05-0.34l0,0c-1.32-0.27-2.57-0.77-3.74-1.45c-1.09-0.64-2.13-1.38-3.1-2.19
				c-0.18-0.16-0.38-0.33-0.56-0.49c-0.13-0.13-0.29-0.02-0.3,0.13c-0.01,0.09,0.02,0.21,0.05,0.28c0.09,0.32,0.24,0.63,0.41,0.93
				c0.29,0.6,0.57,1.19,0.91,1.76c0.29,0.49,0.64,0.89,1.1,1.2c0.59,0.41,1.28,0.66,1.98,0.79c0.55,0.11,1.13,0.15,1.69,0.14
				c0.23-0.01,0.23-0.36,0-0.35c-1.11,0.02-2.28-0.16-3.25-0.74c-0.48-0.28-0.86-0.68-1.14-1.13c-0.31-0.48-0.54-0.99-0.8-1.5
				c-0.18-0.35-0.37-0.73-0.51-1.1C7.02,82.98,7,82.9,6.98,82.82"/>
		</g>
	</g>
	<g>
		<g>
			<path class="st5" d="M1.86,84.54c0.29,1.19,0.79,2.31,1.43,3.36c0.58,0.91,1.25,1.77,2.07,2.46c1,0.83,2.19,1.39,3.5,1.58
				c1.02,0.16,2.07,0.11,3.08-0.1c0.67-0.14,1.31-0.33,1.94-0.6c0.09-0.03,0.15-0.11,0.12-0.21c-0.02-0.08-0.13-0.15-0.21-0.12
				c-1.37,0.6-2.92,0.88-4.41,0.74c-1.22-0.1-2.38-0.54-3.37-1.25c-0.93-0.66-1.67-1.52-2.28-2.47c-0.71-1.08-1.24-2.24-1.54-3.49
				C2.16,84.21,1.82,84.31,1.86,84.54L1.86,84.54z"/>
		</g>
	</g>
	<g>
		<g>
			<path class="st5" d="M11.25,79.2c-0.17,0.05-0.62,0.44-0.82,0.95c-0.05,0.11-0.14,0.37-0.07,0.62c0.07,0.23,0.26,0.34,0.48,0.38
				c0.22,0.04,0.44,0.09,0.53,0.31c0.08,0.2,0.13,0.42,0.23,0.62c0.23,0.47,0.66,0.89,1.15,1.09c0.19,0.08,0.43,0.13,0.65,0.08
				c0.13-0.03,0.23-0.08,0.31-0.18c0.1-0.1,0.17-0.18,0.32-0.22c0.14-0.03,0.27,0.02,0.42,0.06c0.14,0.03,0.27,0.02,0.4-0.02
				c0.27-0.1,0.41-0.36,0.53-0.62c0.09-0.24,0.12-0.51,0.09-0.77c-0.01-0.11-0.03-0.22-0.06-0.3c-0.01-0.03-0.01-0.08-0.03-0.12
				c0-0.02,0-0.02-0.01-0.03l0-0.02c0.01,0.05,0,0.11-0.05,0.16c0.17-0.15-0.09-0.4-0.25-0.25c-0.11,0.09-0.02,0.24,0,0.35
				c0.06,0.2,0.08,0.39,0.04,0.6c-0.03,0.2-0.1,0.45-0.25,0.59c-0.2,0.18-0.45,0.02-0.67,0.01c-0.29-0.02-0.5,0.12-0.7,0.3
				c-0.16,0.15-0.38,0.11-0.57,0.05c-0.48-0.18-0.89-0.63-1.05-1.1c-0.07-0.2-0.1-0.4-0.23-0.58c-0.14-0.2-0.37-0.32-0.61-0.35
				c-0.09-0.02-0.2-0.01-0.27-0.07c-0.07-0.05-0.07-0.15-0.07-0.23c0.02-0.19,0.11-0.37,0.2-0.52c0.13-0.21,0.23-0.21,0.47-0.46
				c0.13-0.13,0.31-0.23,0.28-0.32C11.58,79.11,11.38,79.17,11.25,79.2z"/>
		</g>
	</g>
	<g>
		<g>
			<path class="st7" d="M12.56,78.4c1.06-0.59,1.76-1.65,2.23-2.76c0.07-0.15-0.16-0.27-0.21-0.12c-0.45,1.06-1.11,2.07-2.13,2.66
				C12.29,78.25,12.42,78.46,12.56,78.4L12.56,78.4z"/>
		</g>
	</g>
	<g>
		<g>
			<path class="st5" d="M1.64,72.61c0-0.9,0.47-1.75,1.24-2.23c0.19-0.12,0.01-0.43-0.18-0.3c-0.88,0.54-1.42,1.51-1.42,2.54
				C1.27,72.84,1.63,72.83,1.64,72.61L1.64,72.61z"/>
		</g>
	</g>
	<g>
		<g>
			<path class="st5" d="M20.73,86.43c0.55-1.38,1.3-2.67,2.26-3.8c0.15-0.17-0.1-0.42-0.25-0.25c-1,1.19-1.79,2.52-2.35,3.97
				c-0.04,0.09,0.05,0.19,0.13,0.23C20.62,86.58,20.7,86.52,20.73,86.43L20.73,86.43z"/>
		</g>
	</g>
	<g>
		<g>
			<path class="st5" d="M25.14,79.99c0.23-0.22,0.5-0.39,0.8-0.5c0.16-0.06,0.3-0.1,0.46-0.12c0.14-0.03,0.22-0.03,0.34-0.03
				c0.11,0,0.19-0.07,0.18-0.16c0.01-0.1-0.08-0.2-0.17-0.19c-0.69,0-1.37,0.26-1.87,0.74C24.75,79.89,24.98,80.16,25.14,79.99
				L25.14,79.99z"/>
		</g>
	</g>
	<g>
		<g>
			<path class="st5" d="M26.02,78.1c0.01-0.01,0.02-0.01,0.03-0.02c0.03-0.02-0.02,0.01,0,0c0.02-0.01,0.05-0.03,0.07-0.04
				c0.05-0.03,0.1-0.06,0.16-0.08c0.07-0.03,0.12-0.05,0.19-0.08c0.06-0.02,0.12-0.04,0.2-0.05c0.07-0.01,0.14-0.02,0.21-0.03
				c0.03-0.01,0.07-0.01,0.1-0.01c0.02,0,0.03,0,0.04,0c-0.03,0.01,0.02,0,0.02,0c0.11,0,0.2,0.01,0.29,0.01
				c0.1,0.01,0.2-0.07,0.19-0.15c0.01-0.1-0.07-0.18-0.16-0.19c-0.53-0.08-1.07,0.07-1.53,0.36c-0.08,0.05-0.08,0.18-0.02,0.26
				C25.84,78.16,25.93,78.16,26.02,78.1L26.02,78.1z"/>
		</g>
	</g>
	<g>
		<g>
			<path class="st5" d="M22.91,84.21c0.57-0.52,1.04-1.18,1.32-1.89c0.04-0.09,0.02-0.19-0.07-0.23c-0.08-0.04-0.2-0.01-0.23,0.07
				c-0.29,0.7-0.73,1.31-1.28,1.82C22.49,84.11,22.74,84.37,22.91,84.21L22.91,84.21z"/>
		</g>
	</g>
	<g>
		<g>
			<path class="st8" d="M7.12,65.87c-1.36-0.11-2.74-0.11-4.14,0.01c-0.21,0.03-0.23,0.37-0.02,0.34c1.36-0.13,2.72-0.13,4.05-0.02
				C7.23,66.21,7.33,65.87,7.12,65.87L7.12,65.87z"/>
		</g>
	</g>
	<g>
		<g>
			<path class="st5" d="M8.3,64.49c-0.95-0.27-1.92-0.48-2.9-0.66c-0.22-0.04-0.31,0.31-0.08,0.35c0.97,0.18,1.95,0.4,2.9,0.66
				C8.44,64.89,8.54,64.55,8.3,64.49L8.3,64.49z"/>
		</g>
	</g>
	<g>
		<g>
			<path class="st5" d="M9.34,62.88c-0.95-0.22-1.9-0.47-2.84-0.77c-0.22-0.06-0.31,0.28-0.08,0.35c0.93,0.29,1.88,0.54,2.84,0.77
				C9.48,63.29,9.56,62.94,9.34,62.88L9.34,62.88z"/>
		</g>
	</g>
	<g>
		<g>
			<path class="st10" d="M7.66,105.98c1.3-3.24,2.67-6.45,4.12-9.62c0.39-0.88,0.8-1.76,1.21-2.63c0.1-0.21-0.21-0.38-0.31-0.17
				c-1.49,3.18-2.9,6.36-4.25,9.61c-0.36,0.88-0.73,1.76-1.08,2.65c-0.04,0.09-0.03,0.2,0.06,0.24
				C7.49,106.1,7.62,106.07,7.66,105.98L7.66,105.98z"/>
		</g>
	</g>
	<g>
		<g>
			<path class="st5" d="M13.72,93.38c0.49,1.52,1.28,2.94,2.34,4.12c0.89,0.98,1.97,1.76,2.9,2.7c0.74,0.75,1.4,1.57,2.07,2.39
				c0.92,1.15,1.83,2.3,2.71,3.47c1.1,1.46,2.14,2.95,3.15,4.47c0.12,0.19,0.43,0.01,0.3-0.18c-1.71-2.6-3.58-5.06-5.49-7.49
				c-0.71-0.9-1.42-1.77-2.21-2.61c-0.85-0.9-1.82-1.63-2.71-2.49c-1.27-1.26-2.2-2.76-2.74-4.47C14,93.06,13.65,93.16,13.72,93.38
				L13.72,93.38z"/>
		</g>
	</g>
	<g>
		<g>
			<path class="st11" d="M-5.78,97.04c2.33-0.88,4.69-1.68,7.09-2.38c0.67-0.19,1.34-0.38,2-0.56c0.24-0.06,0.14-0.46-0.11-0.38
				c-2.42,0.65-4.83,1.39-7.18,2.23c-0.65,0.23-1.28,0.45-1.91,0.71C-6.14,96.75-6.03,97.13-5.78,97.04L-5.78,97.04z"/>
		</g>
	</g>
	<g>
		<g>
			<path class="st12" d="M4.96,94.99c0.5,1.22,0.81,2.55,0.89,3.86c0.04,0.66,0,1.31,0.03,1.97c0.02,0.57,0.06,1.13,0.13,1.71
				c0.1,0.83,0.26,1.66,0.46,2.48c0.06,0.23,0.42,0.13,0.36-0.09c-0.31-1.29-0.51-2.59-0.56-3.92c-0.04-0.67,0.01-1.33-0.03-2
				c-0.03-0.73-0.13-1.45-0.3-2.17c-0.15-0.66-0.36-1.3-0.61-1.93C5.24,94.66,4.87,94.76,4.96,94.99L4.96,94.99z"/>
		</g>
	</g>
	<g>
		<g>
			<path class="st5" d="M-0.64,95.37c0.07,0.35,0.19,0.7,0.35,1.02c0.12,0.26,0.3,0.48,0.44,0.72c0.24,0.37,0.3,1-0.01,1.36
				c-0.27,0.31-0.71,0.34-1.05,0.5c-0.36,0.17-0.7,0.41-0.99,0.69c-0.55,0.5-1.01,1.08-1.45,1.69c-0.13,0.18,0.18,0.35,0.31,0.17
				c0.39-0.55,0.83-1.1,1.34-1.56c0.3-0.27,0.62-0.53,0.99-0.69c0.11-0.05,0.25-0.09,0.38-0.13c0.27-0.08,0.56-0.22,0.74-0.45
				c0.33-0.38,0.35-0.95,0.2-1.41c-0.1-0.32-0.34-0.58-0.5-0.87c-0.2-0.35-0.33-0.75-0.41-1.14C-0.34,95.05-0.67,95.15-0.64,95.37
				L-0.64,95.37z"/>
		</g>
	</g>
	<g>
		<g>
			<path class="st5" d="M5.62,98.28c-0.29,0.11-0.61,0.21-0.91,0.28c-0.29,0.06-0.61,0.08-0.9,0.15c-0.52,0.1-0.87,0.5-1.15,0.92
				c-0.61,0.91-1.04,1.97-1.27,3.04c-0.18,0.81-0.27,1.62-0.28,2.45c0,0.23,0.35,0.22,0.35,0c0.02-1.09,0.16-2.21,0.51-3.24
				c0.2-0.59,0.45-1.17,0.78-1.72C3,99.72,3.28,99.22,3.8,99.07c0.28-0.08,0.61-0.08,0.9-0.15c0.35-0.07,0.69-0.18,1.03-0.3
				C5.93,98.56,5.83,98.22,5.62,98.28L5.62,98.28z"/>
		</g>
	</g>
	<g>
		<g>
			<path class="st5" d="M0.62,98.68c0.7,0.03,1.33,0.44,1.65,1.06c0.1,0.21,0.41,0.03,0.3-0.18c-0.38-0.73-1.13-1.21-1.96-1.23
				C0.39,98.32,0.39,98.68,0.62,98.68L0.62,98.68z"/>
		</g>
	</g>
	<g>
		<g>
			<path d="M14,73.37c-1.15-1.4-2.74-2.36-4.49-2.8c-0.35-0.09-0.48,0.45-0.14,0.54c1.67,0.42,3.15,1.33,4.25,2.66
				C13.84,74.05,14.22,73.64,14,73.37L14,73.37z"/>
		</g>
	</g>
	<g>
		<g>
			<path d="M22.8,78.17c-1.19-1.37-2.8-2.29-4.56-2.69c-0.35-0.08-0.49,0.46-0.14,0.54c1.68,0.38,3.18,1.25,4.31,2.55
				C22.65,78.83,23.04,78.43,22.8,78.17L22.8,78.17z"/>
		</g>
	</g>
	<path class="st13" d="M9.51,72.75c0,0.1,0.02,1.01,0.75,1.53c0.65,0.46,1.58,0.43,2.27-0.1"/>
	<g>
		<g>
			<path d="M8.52,73.1c1.01-0.36,2.18-0.21,3.03,0.45c0.55,0.43,0.98,1.05,1.17,1.72c0.1,0.34,0.63,0.19,0.53-0.16
				c-0.23-0.81-0.75-1.55-1.42-2.04c-0.98-0.73-2.32-0.9-3.47-0.5C8.03,72.69,8.18,73.22,8.52,73.1L8.52,73.1z"/>
		</g>
	</g>
	<path class="st13" d="M18.19,77.5c-0.01,0.1-0.08,1,0.6,1.59c0.6,0.52,1.53,0.57,2.27,0.11"/>
	<g>
		<g>
			<path d="M17.19,77.75c1.03-0.26,2.17,0.01,2.95,0.73c0.52,0.48,0.88,1.15,1.02,1.85c0.07,0.35,0.6,0.19,0.53-0.16
				c-0.15-0.83-0.62-1.63-1.25-2.17c-0.93-0.8-2.22-1.08-3.4-0.78C16.69,77.31,16.84,77.84,17.19,77.75L17.19,77.75z"/>
		</g>
	</g>
</g>
<text transform="matrix(1 0 0 1 82.4276 59.6908)" class="st14 st15">2024 Presidential Forecast</text>
<g>
	<path class="st16" d="M51.77,96.63l-6.7-0.3c-2.55-0.11-4.52-2.27-4.41-4.82l0.3-6.7c0.11-2.55,2.27-4.52,4.82-4.41l6.7,0.3
		c2.55,0.11,4.52,2.27,4.41,4.82l-0.3,6.7C56.48,94.77,54.32,96.75,51.77,96.63z"/>
	<g>
		<path class="st17" d="M45.79,82.82l3.11,0.14c2.71,0.12,3.96,2.09,3.8,5.74c-0.16,3.65-1.58,5.5-4.29,5.38l-3.11-0.14L45.79,82.82
			z M48.39,92.91c1.77,0.08,2.75-1.19,2.85-3.42l0.08-1.72c0.1-2.23-0.77-3.58-2.53-3.65l-1.7-0.08l-0.39,8.79L48.39,92.91z"/>
	</g>
</g>
<g>
	<path class="st19" d="M134.51,21.01l-4.07,1.84c-1.55,0.7-3.37,0.01-4.07-1.53l-1.84-4.07c-0.7-1.55-0.01-3.37,1.53-4.07l4.07-1.84
		c1.55-0.7,3.37-0.01,4.07,1.53l1.84,4.07C136.74,18.49,136.05,20.31,134.51,21.01z"/>
	<g>
		<path class="st17" d="M129.72,21.41l-0.29-0.65l1.68-0.76l-2.47-5.46l-1.68,0.76l-0.29-0.65l4.18-1.89l0.29,0.65l-1.68,0.76
			l2.47,5.46l1.68-0.76l0.29,0.65L129.72,21.41z"/>
	</g>
</g>
<g>
	<path class="st18" d="M436.02,81.02l-5.22-4.21c-1.99-1.6-2.3-4.51-0.7-6.49l4.21-5.22c1.6-1.99,4.51-2.3,6.49-0.7l5.22,4.21
		c1.99,1.6,2.3,4.51,0.7,6.49l-4.21,5.22C440.91,82.3,438.01,82.62,436.02,81.02z"/>
	<g>
		<path class="st17" d="M433.11,75.58l-1.04-0.84l6.98-8.66l3.15,2.54c1.6,1.29,1.72,2.92,0.46,4.48c-1.12,1.39-2.6,1.67-4.09,0.7
			l-0.81,5.53l-1.17-0.94l0.87-5.4l-1.38-1.11L433.11,75.58z M438.89,72.68c0.87,0.7,1.76,0.66,2.41-0.15l0.52-0.65
			c0.65-0.81,0.5-1.69-0.37-2.39l-2.08-1.68L436.81,71L438.89,72.68z"/>
	</g>
</g>
<g>
	<path class="st16" d="M223.58,89.18l-6.55-1.43c-2.49-0.54-4.07-3-3.53-5.49l1.43-6.55c0.54-2.49,3-4.07,5.49-3.53l6.55,1.43
		c2.49,0.54,4.07,3,3.53,5.49l-1.43,6.55C228.53,88.14,226.07,89.72,223.58,89.18z"/>
	<g>
		<path class="st17" d="M220.02,74.55l3.04,0.66c2.65,0.58,3.55,2.73,2.77,6.3s-2.49,5.15-5.14,4.57l-3.04-0.66L220.02,74.55z
			 M220.88,84.93c1.73,0.38,2.91-0.7,3.39-2.88l0.37-1.68c0.48-2.18-0.15-3.65-1.88-4.03l-1.67-0.36l-1.87,8.6L220.88,84.93z"/>
	</g>
</g>
<g>
	<path class="st19" d="M642.13,41.37l-4.18-1.59c-1.59-0.6-2.39-2.38-1.78-3.97l1.59-4.18c0.6-1.59,2.38-2.39,3.97-1.78l4.18,1.59
		c1.59,0.6,2.39,2.38,1.78,3.97l-1.59,4.18C645.49,41.17,643.71,41.97,642.13,41.37z"/>
	<g>
		<path class="st17" d="M638.46,38.26l0.25-0.67l1.73,0.66l2.13-5.6L640.84,32l0.25-0.67l4.29,1.63l-0.25,0.67l-1.73-0.66l-2.13,5.6
			l1.73,0.66l-0.25,0.67L638.46,38.26z"/>
	</g>
</g>
<g>
	<path class="st18" d="M685.17,80.07l-6.47-1.78c-2.46-0.68-3.9-3.22-3.23-5.68l1.78-6.47c0.68-2.46,3.22-3.9,5.67-3.23l6.47,1.78
		c2.46,0.68,3.9,3.22,3.23,5.68l-1.78,6.47C690.17,79.3,687.63,80.75,685.17,80.07z"/>
	<g>
		<path class="st17" d="M680.34,76.25l-1.29-0.35L682,65.16l3.9,1.07c1.98,0.54,2.74,1.99,2.21,3.93c-0.47,1.72-1.71,2.57-3.47,2.27
			l1.46,5.39l-1.44-0.4l-1.35-5.3l-1.71-0.47L680.34,76.25z M684.48,71.29c1.08,0.3,1.88-0.1,2.15-1.09l0.22-0.8
			c0.27-1-0.21-1.75-1.29-2.04l-2.58-0.71l-1.08,3.93L684.48,71.29z"/>
	</g>
</g>
<g>
	<path class="st16" d="M600.27,75.85l-6.67-0.68c-2.54-0.26-4.38-2.52-4.12-5.06l0.68-6.67c0.26-2.54,2.52-4.38,5.06-4.12l6.67,0.68
		c2.54,0.26,4.38,2.52,4.12,5.06l-0.68,6.67C605.07,74.26,602.81,76.11,600.27,75.85z"/>
	<g>
		<path class="st17" d="M595.09,61.72l3.09,0.32c2.7,0.28,3.83,2.31,3.46,5.95s-1.9,5.4-4.59,5.12l-3.09-0.32L595.09,61.72z
			 M597.11,71.94c1.76,0.18,2.81-1.03,3.04-3.25l0.17-1.71c0.23-2.22-0.56-3.61-2.32-3.79l-1.7-0.17l-0.89,8.75L597.11,71.94z"/>
	</g>
</g>
<g>
	<path class="st19" d="M109.81,26.97l-3.06-3.25c-1.17-1.24-1.11-3.18,0.13-4.35l3.25-3.06c1.24-1.17,3.18-1.11,4.35,0.13l3.06,3.25
		c1.17,1.24,1.11,3.18-0.13,4.35l-3.25,3.06C112.92,28.26,110.98,28.21,109.81,26.97z"/>
	<g>
		<path class="st17" d="M107.87,22.57l0.52-0.49l1.27,1.34l4.36-4.11l-1.27-1.34l0.52-0.49l3.15,3.34l-0.52,0.49l-1.27-1.34
			l-4.36,4.11l1.27,1.34l-0.52,0.49L107.87,22.57z"/>
	</g>
</g>
<g>
	<path class="st18" d="M16.03,47.42l-6.52-1.55c-2.48-0.59-4.01-3.08-3.42-5.56l1.55-6.52c0.59-2.48,3.08-4.01,5.56-3.42l6.52,1.55
		c2.48,0.59,4.01,3.08,3.42,5.56L21.59,44C21,46.48,18.51,48.01,16.03,47.42z"/>
	<g>
		<path class="st17" d="M11.07,43.76l-1.3-0.31l2.58-10.82l3.94,0.94c2,0.48,2.81,1.9,2.34,3.85c-0.41,1.74-1.62,2.63-3.39,2.39
			l1.65,5.34l-1.46-0.35l-1.54-5.25l-1.72-0.41L11.07,43.76z M15.04,38.66c1.09,0.26,1.87-0.16,2.11-1.17l0.19-0.81
			c0.24-1.01-0.27-1.74-1.36-1.99l-2.61-0.62l-0.94,3.97L15.04,38.66z"/>
	</g>
</g>
<g>
	<path class="st16" d="M482.2,38.7l-4.51-4.97c-1.71-1.89-1.57-4.81,0.32-6.52l4.97-4.51c1.89-1.71,4.81-1.57,6.52,0.32l4.51,4.97
		c1.71,1.89,1.57,4.81-0.32,6.52l-4.97,4.51C486.84,40.73,483.92,40.58,482.2,38.7z"/>
	<g>
		<path class="st17" d="M487.8,24.72l2.09,2.3c1.82,2.01,1.3,4.28-1.4,6.74c-2.7,2.45-5.02,2.75-6.84,0.74l-2.09-2.3L487.8,24.72z
			 M482.46,33.67c1.19,1.31,2.78,1.12,4.43-0.38l1.27-1.16c1.65-1.5,2-3.06,0.81-4.37l-1.15-1.26l-6.52,5.91L482.46,33.67z"/>
	</g>
</g>
<g>
	<path class="st19" d="M251.48,79.51l-4.36-0.97c-1.66-0.37-2.7-2.01-2.33-3.67l0.97-4.36c0.37-1.66,2.01-2.7,3.67-2.33l4.36,0.97
		c1.66,0.37,2.7,2.01,2.33,3.67l-0.97,4.36C254.79,78.84,253.14,79.88,251.48,79.51z"/>
	<g>
		<path class="st17" d="M247.41,76.97l0.15-0.69l1.8,0.4l1.3-5.85l-1.8-0.4l0.15-0.69l4.48,1l-0.15,0.69l-1.8-0.4l-1.3,5.85l1.8,0.4
			l-0.15,0.69L247.41,76.97z"/>
	</g>
</g>
<g>
	<path class="st18" d="M626.1,49.42l-4.75-4.73c-1.81-1.8-1.81-4.72-0.01-6.53l4.73-4.75c1.8-1.81,4.72-1.81,6.53-0.01l4.75,4.73
		c1.81,1.8,1.81,4.72,0.01,6.53l-4.73,4.75C630.83,51.21,627.91,51.22,626.1,49.42z"/>
	<g>
		<path class="st17" d="M623.78,43.71l-0.95-0.95l7.85-7.88l2.87,2.86c1.46,1.45,1.4,3.09-0.01,4.51c-1.26,1.26-2.76,1.39-4.14,0.27
			l-1.39,5.41l-1.06-1.06l1.43-5.28l-1.25-1.25L623.78,43.71z M629.83,41.43c0.79,0.79,1.68,0.84,2.41,0.11l0.59-0.59
			c0.73-0.73,0.67-1.62-0.12-2.41l-1.9-1.89l-2.88,2.89L629.83,41.43z"/>
	</g>
</g>
<g>
	<path class="st16" d="M164.68,34.73l-5.29-4.13c-2.01-1.57-2.37-4.47-0.8-6.48l4.13-5.29c1.57-2.01,4.47-2.37,6.48-0.8l5.29,4.13
		c2.01,1.57,2.37,4.47,0.8,6.48l-4.13,5.29C169.59,35.94,166.69,36.3,164.68,34.73z"/>
	<g>
		<path class="st17" d="M167.82,20.01l2.45,1.91c2.14,1.67,2.01,4-0.23,6.88s-4.48,3.56-6.62,1.89l-2.45-1.91L167.82,20.01z
			 M164.09,29.74c1.39,1.09,2.93,0.63,4.3-1.13l1.06-1.36c1.37-1.76,1.45-3.36,0.06-4.45l-1.34-1.05l-5.42,6.93L164.09,29.74z"/>
	</g>
</g>
<g>
	<path class="st19" d="M519.47,40.35l-4.18-1.58c-1.59-0.6-2.39-2.38-1.79-3.97l1.58-4.18c0.6-1.59,2.38-2.39,3.97-1.79l4.18,1.58
		c1.59,0.6,2.39,2.38,1.79,3.97l-1.58,4.18C522.84,40.16,521.06,40.96,519.47,40.35z"/>
	<g>
		<path class="st17" d="M515.81,37.25l0.25-0.67l1.73,0.65l2.12-5.6l-1.73-0.65l0.25-0.67l4.29,1.63l-0.25,0.67l-1.73-0.65
			l-2.12,5.6l1.73,0.65l-0.25,0.67L515.81,37.25z"/>
	</g>
</g>
<g>
	<path class="st18" d="M457.81,27.57l-6.6,1.18c-2.51,0.45-4.91-1.22-5.36-3.73l-1.18-6.6c-0.45-2.51,1.22-4.91,3.73-5.36l6.6-1.18
		c2.51-0.45,4.91,1.22,5.36,3.73l1.18,6.6C461.99,24.73,460.32,27.13,457.81,27.57z"/>
	<g>
		<path class="st17" d="M451.8,26.2l-1.32,0.24l-1.95-10.95l3.99-0.71c2.02-0.36,3.33,0.62,3.69,2.6c0.31,1.76-0.44,3.06-2.15,3.54
			l3.64,4.24l-1.48,0.26l-3.5-4.2l-1.74,0.31L451.8,26.2z M453.41,19.94c1.1-0.2,1.65-0.89,1.47-1.91l-0.15-0.82
			c-0.18-1.02-0.94-1.48-2.04-1.29l-2.64,0.47l0.72,4.02L453.41,19.94z"/>
	</g>
</g>
<g>
	<path class="st16" d="M661.32,89.94l-6.4,2.02c-2.43,0.77-5.02-0.58-5.79-3.01l-2.02-6.4c-0.77-2.43,0.58-5.02,3.01-5.79l6.4-2.02
		c2.43-0.77,5.02,0.58,5.79,3.01l2.02,6.4C665.1,86.58,663.75,89.17,661.32,89.94z"/>
	<g>
		<path class="st17" d="M650.96,79.02l2.96-0.94c2.58-0.82,4.44,0.6,5.54,4.09c1.1,3.48,0.4,5.71-2.19,6.52l-2.96,0.94L650.96,79.02
			z M656.86,87.6c1.69-0.53,2.17-2.06,1.5-4.19l-0.52-1.64c-0.67-2.13-1.95-3.1-3.63-2.56l-1.63,0.51l2.65,8.39L656.86,87.6z"/>
	</g>
</g>
<g>
	<path class="st19" d="M516.45,72.02L512,71.71c-1.69-0.12-2.97-1.59-2.85-3.29l0.32-4.46c0.12-1.69,1.59-2.97,3.29-2.85l4.46,0.32
		c1.69,0.12,2.97,1.59,2.85,3.29l-0.32,4.46C519.62,70.87,518.15,72.15,516.45,72.02z"/>
	<g>
		<path class="st17" d="M512.05,70.1l0.05-0.71l1.84,0.13l0.43-5.97l-1.84-0.13l0.05-0.71l4.58,0.33l-0.05,0.71l-1.84-0.13
			l-0.43,5.97l1.84,0.13l-0.05,0.71L512.05,70.1z"/>
	</g>
</g>
<g>
	<path class="st18" d="M447.38,57.41l-6.59,1.26c-2.5,0.48-4.92-1.16-5.4-3.67l-1.26-6.59c-0.48-2.5,1.16-4.92,3.67-5.4l6.59-1.26
		c2.5-0.48,4.92,1.16,5.4,3.67l1.26,6.59C451.52,54.51,449.88,56.93,447.38,57.41z"/>
	<g>
		<path class="st17" d="M441.35,56.11l-1.32,0.25l-2.09-10.93l3.98-0.76c2.02-0.39,3.34,0.58,3.72,2.55
			c0.34,1.75-0.4,3.06-2.11,3.57l3.69,4.19l-1.47,0.28l-3.55-4.16l-1.74,0.33L441.35,56.11z M442.88,49.83
			c1.1-0.21,1.64-0.91,1.45-1.93l-0.16-0.81c-0.19-1.02-0.96-1.47-2.06-1.26l-2.63,0.5l0.77,4.01L442.88,49.83z"/>
	</g>
</g>
<g>
	<path class="st16" d="M628.04,34.5l-6.17-2.62c-2.35-1-3.44-3.71-2.44-6.05l2.62-6.17c1-2.35,3.71-3.44,6.05-2.44l6.17,2.62
		c2.35,1,3.44,3.71,2.44,6.05l-2.62,6.17C633.09,34.4,630.38,35.5,628.04,34.5z"/>
	<g>
		<path class="st17" d="M627.27,19.47l2.86,1.22c2.49,1.06,2.98,3.34,1.55,6.7s-3.41,4.6-5.9,3.54l-2.86-1.22L627.27,19.47z
			 M626.17,29.83c1.63,0.69,2.99-0.15,3.86-2.2l0.67-1.58c0.87-2.05,0.53-3.62-1.1-4.31l-1.57-0.67l-3.44,8.1L626.17,29.83z"/>
	</g>
</g>
<g>
	<path class="st19" d="M42.53,77.51l-3.46-2.83c-1.32-1.08-1.51-3.01-0.44-4.33l2.83-3.46c1.08-1.32,3.01-1.51,4.33-0.44l3.46,2.83
		c1.32,1.08,1.51,3.01,0.44,4.33l-2.83,3.46C45.78,78.39,43.84,78.58,42.53,77.51z"/>
	<g>
		<path class="st17" d="M40.04,73.4l0.45-0.55l1.43,1.17l3.79-4.64l-1.43-1.17l0.45-0.55l3.55,2.9l-0.45,0.55l-1.43-1.17l-3.79,4.64
			l1.43,1.17l-0.45,0.55L40.04,73.4z"/>
	</g>
</g>
<g>
	<path class="st18" d="M669.57,74.86l-5.72-3.51c-2.17-1.33-2.85-4.18-1.52-6.35l3.51-5.72c1.33-2.17,4.18-2.85,6.35-1.52l5.72,3.51
		c2.17,1.33,2.85,4.18,1.52,6.35l-3.51,5.72C674.59,75.51,671.75,76.19,669.57,74.86z"/>
	<g>
		<path class="st17" d="M666,69.84l-1.14-0.7l5.82-9.48l3.45,2.12c1.75,1.08,2.08,2.68,1.03,4.39c-0.93,1.52-2.36,1.99-3.96,1.22
			l-0.1,5.59l-1.28-0.78l0.17-5.47l-1.51-0.93L666,69.84z M671.35,66.23c0.95,0.58,1.83,0.43,2.37-0.45l0.43-0.71
			c0.54-0.88,0.28-1.74-0.67-2.32l-2.28-1.4l-2.13,3.48L671.35,66.23z"/>
	</g>
</g>
<g>
	<path class="st16" d="M611.81,37.79l-6.7,0.22c-2.55,0.09-4.68-1.91-4.77-4.46l-0.22-6.7c-0.09-2.55,1.91-4.68,4.46-4.77l6.7-0.22
		c2.55-0.09,4.68,1.91,4.77,4.46l0.22,6.7C616.36,35.57,614.36,37.7,611.81,37.79z"/>
	<g>
		<path class="st17" d="M604.77,24.48l3.11-0.1c2.71-0.09,4.11,1.78,4.23,5.42s-1.15,5.6-3.86,5.7l-3.11,0.1L604.77,24.48z
			 M608.15,34.34c1.77-0.06,2.65-1.4,2.57-3.63l-0.06-1.72c-0.07-2.23-1.04-3.51-2.81-3.45l-1.7,0.06l0.29,8.79L608.15,34.34z"/>
	</g>
</g>
<g>
	<path class="st19" d="M327.06,82.9l-4.43-0.62c-1.68-0.24-2.86-1.79-2.62-3.47l0.62-4.43c0.24-1.68,1.79-2.86,3.47-2.62l4.43,0.62
		c1.68,0.24,2.86,1.79,2.62,3.47l-0.62,4.43C330.3,81.96,328.74,83.14,327.06,82.9z"/>
	<g>
		<path class="st17" d="M322.8,80.68l0.1-0.7l1.83,0.26l0.83-5.93l-1.83-0.26l0.1-0.7l4.54,0.64l-0.1,0.7l-1.83-0.26l-0.83,5.93
			l1.83,0.26l-0.1,0.7L322.8,80.68z"/>
	</g>
</g>
<g>
	<path class="st18" d="M24.47,44.43l-5.99-3.01c-2.28-1.14-3.2-3.92-2.06-6.2l3.01-5.99c1.14-2.28,3.92-3.2,6.2-2.06l5.99,3.01
		c2.28,1.14,3.2,3.92,2.06,6.2l-3.01,5.99C29.52,44.66,26.75,45.58,24.47,44.43z"/>
	<g>
		<path class="st17" d="M20.48,39.74l-1.2-0.6l4.99-9.95l3.62,1.82c1.84,0.92,2.3,2.49,1.4,4.29c-0.8,1.6-2.18,2.19-3.84,1.55
			l0.38,5.57l-1.34-0.67l-0.29-5.46l-1.58-0.79L20.48,39.74z M25.51,35.68c1,0.5,1.86,0.27,2.32-0.65l0.37-0.74
			c0.46-0.93,0.13-1.75-0.87-2.25l-2.39-1.2l-1.83,3.65L25.51,35.68z"/>
	</g>
</g>
<g>
	<path class="st16" d="M289.6,36.15l-4.59-4.89c-1.75-1.86-1.66-4.78,0.2-6.53l4.89-4.59c1.86-1.75,4.78-1.66,6.53,0.2l4.59,4.89
		c1.75,1.86,1.66,4.78-0.2,6.53l-4.89,4.59C294.27,38.1,291.35,38.01,289.6,36.15z"/>
	<g>
		<path class="st17" d="M294.95,22.08l2.13,2.26c1.86,1.97,1.38,4.26-1.28,6.76s-4.97,2.83-6.83,0.86l-2.13-2.26L294.95,22.08z
			 M289.77,31.12c1.21,1.29,2.8,1.07,4.42-0.46l1.25-1.18c1.63-1.53,1.95-3.1,0.73-4.39l-1.17-1.24l-6.41,6.03L289.77,31.12z"/>
	</g>
</g>
<g>
	<path class="st19" d="M42.15,58.49l-4.29-1.26c-1.63-0.48-2.57-2.19-2.09-3.82l1.26-4.29c0.48-1.63,2.19-2.57,3.82-2.09l4.29,1.26
		c1.63,0.48,2.57,2.19,2.09,3.82l-1.26,4.29C45.49,58.03,43.78,58.97,42.15,58.49z"/>
	<g>
		<path class="st17" d="M38.25,55.68l0.2-0.68l1.77,0.52l1.68-5.75l-1.77-0.52l0.2-0.68l4.4,1.29l-0.2,0.68l-1.77-0.52l-1.68,5.75
			l1.77,0.52l-0.2,0.68L38.25,55.68z"/>
	</g>
</g>
<g>
	<path class="st18" d="M504.77,25.73l-5.48-3.87c-2.08-1.47-2.58-4.35-1.1-6.43l3.87-5.48c1.47-2.08,4.35-2.58,6.43-1.1l5.48,3.87
		c2.08,1.47,2.58,4.35,1.1,6.43l-3.87,5.48C509.73,26.71,506.85,27.2,504.77,25.73z"/>
	<g>
		<path class="st17" d="M501.53,20.49l-1.09-0.77l6.42-9.08l3.31,2.34c1.68,1.19,1.9,2.81,0.74,4.45c-1.03,1.46-2.49,1.83-4.03,0.95
			l-0.46,5.57l-1.22-0.87l0.53-5.44l-1.44-1.02L501.53,20.49z M507.11,17.23c0.91,0.64,1.8,0.55,2.4-0.3l0.48-0.68
			c0.6-0.85,0.39-1.71-0.52-2.36l-2.19-1.55l-2.36,3.33L507.11,17.23z"/>
	</g>
</g>
<g>
	<path class="st16" d="M328.09,84.27l-6.69-0.41c-2.54-0.15-4.48-2.34-4.33-4.89l0.41-6.69c0.15-2.54,2.34-4.48,4.89-4.33l6.69,0.41
		c2.54,0.15,4.48,2.34,4.33,4.89l-0.41,6.69C332.82,82.49,330.64,84.43,328.09,84.27z"/>
	<g>
		<path class="st17" d="M322.33,70.37l3.1,0.19c2.7,0.16,3.93,2.15,3.7,5.8c-0.22,3.64-1.67,5.47-4.38,5.31l-3.1-0.19L322.33,70.37z
			 M324.77,80.49c1.77,0.11,2.77-1.14,2.9-3.37l0.1-1.72c0.14-2.23-0.71-3.59-2.47-3.7l-1.7-0.1l-0.53,8.78L324.77,80.49z"/>
	</g>
</g>
<g>
	<path class="st19" d="M38.87,25.6l-4.47-0.12c-1.7-0.05-3.04-1.46-2.99-3.16l0.12-4.47c0.05-1.7,1.46-3.04,3.16-2.99l4.47,0.12
		c1.7,0.05,3.04,1.46,2.99,3.16l-0.12,4.47C41.98,24.3,40.57,25.64,38.87,25.6z"/>
	<g>
		<path class="st17" d="M34.39,23.87l0.02-0.71l1.85,0.05l0.16-5.99l-1.85-0.05l0.02-0.71l4.59,0.12l-0.02,0.71l-1.85-0.05
			l-0.16,5.99l1.85,0.05L38.97,24L34.39,23.87z"/>
	</g>
</g>
<g>
	<path class="st18" d="M131.25,83.54l-4.22-5.21c-1.6-1.98-1.3-4.89,0.68-6.49l5.21-4.22c1.98-1.6,4.89-1.3,6.49,0.68l4.22,5.21
		c1.6,1.98,1.3,4.89-0.68,6.49l-5.21,4.22C135.76,85.83,132.86,85.52,131.25,83.54z"/>
	<g>
		<path class="st17" d="M129.55,77.61l-0.84-1.04l8.65-7l2.55,3.15c1.29,1.6,1.07,3.22-0.5,4.48c-1.39,1.12-2.89,1.09-4.14-0.18
			l-1.96,5.23l-0.94-1.16l1.99-5.09l-1.11-1.38L129.55,77.61z M135.81,75.99c0.7,0.87,1.58,1.02,2.39,0.36l0.64-0.52
			c0.81-0.65,0.84-1.54,0.14-2.41l-1.68-2.08l-3.17,2.57L135.81,75.99z"/>
	</g>
</g>
<g>
	<path class="st16" d="M268.35,92.84l-6.34-2.18c-2.41-0.83-3.69-3.46-2.86-5.87l2.18-6.34c0.83-2.41,3.46-3.69,5.87-2.86l6.34,2.18
		c2.41,0.83,3.69,3.46,2.86,5.87l-2.18,6.34C273.39,92.39,270.76,93.67,268.35,92.84z"/>
	<g>
		<path class="st17" d="M266.53,77.9l2.94,1.01c2.56,0.88,3.21,3.13,2.02,6.58s-3.08,4.82-5.64,3.94l-2.94-1.01L266.53,77.9z
			 M266.17,88.31c1.67,0.58,2.97-0.36,3.7-2.47l0.56-1.63c0.73-2.11,0.28-3.65-1.39-4.22l-1.61-0.56l-2.87,8.32L266.17,88.31z"/>
	</g>
</g>
<g>
	<path class="st19" d="M649.24,22.91l-4.22-1.46c-1.61-0.55-2.46-2.31-1.9-3.91l1.46-4.22c0.55-1.61,2.3-2.46,3.91-1.9l4.22,1.46
		c1.61,0.55,2.46,2.31,1.9,3.91l-1.46,4.22C652.6,22.62,650.85,23.47,649.24,22.91z"/>
	<g>
		<path class="st17" d="M645.49,19.92l0.23-0.67l1.75,0.6l1.95-5.66l-1.75-0.6l0.23-0.67l4.34,1.5l-0.23,0.67l-1.75-0.6l-1.95,5.66
			l1.75,0.6l-0.23,0.67L645.49,19.92z"/>
	</g>
</g>
<g>
	<path class="st18" d="M77.58,29.35l-6.05-2.89c-2.3-1.1-3.28-3.85-2.18-6.15l2.89-6.05c1.1-2.3,3.85-3.28,6.15-2.18l6.05,2.89
		c2.3,1.1,3.28,3.85,2.18,6.15l-2.89,6.05C82.63,29.48,79.88,30.45,77.58,29.35z"/>
	<g>
		<path class="st17" d="M73.49,24.74l-1.21-0.58l4.79-10.04l3.65,1.74c1.86,0.89,2.35,2.44,1.48,4.26
			c-0.77,1.61-2.14,2.23-3.81,1.62l0.49,5.57l-1.35-0.65l-0.4-5.45l-1.6-0.76L73.49,24.74z M78.44,20.58
			c1.01,0.48,1.87,0.24,2.31-0.7l0.36-0.75c0.45-0.94,0.1-1.76-0.91-2.24l-2.42-1.15l-1.76,3.68L78.44,20.58z"/>
	</g>
</g>
<g>
	<path class="st16" d="M466.19,87.45l-6.23,2.48c-2.37,0.94-5.05-0.22-5.99-2.59l-2.48-6.23c-0.94-2.37,0.22-5.05,2.59-5.99
		l6.23-2.48c2.37-0.94,5.05,0.22,5.99,2.59l2.48,6.23C469.72,83.83,468.56,86.51,466.19,87.45z"/>
	<g>
		<path class="st17" d="M455.08,77.31l2.89-1.15c2.52-1,4.47,0.28,5.82,3.68c1.35,3.39,0.81,5.66-1.71,6.66l-2.89,1.15L455.08,77.31
			z M461.58,85.44c1.64-0.65,2.02-2.21,1.2-4.28l-0.64-1.6c-0.82-2.07-2.17-2.95-3.81-2.29l-1.59,0.63l3.25,8.18L461.58,85.44z"/>
	</g>
</g>
<g>
	<path class="st19" d="M353.55,89.79l-4.4-0.79c-1.67-0.3-2.78-1.9-2.48-3.57l0.79-4.4c0.3-1.67,1.9-2.78,3.57-2.48l4.4,0.79
		c1.67,0.3,2.78,1.9,2.48,3.57l-0.79,4.4C356.82,88.97,355.23,90.09,353.55,89.79z"/>
	<g>
		<path class="st17" d="M349.38,87.41l0.13-0.7l1.82,0.33l1.06-5.9l-1.82-0.33l0.13-0.7l4.52,0.81l-0.13,0.7l-1.82-0.33l-1.06,5.9
			l1.82,0.33l-0.13,0.7L349.38,87.41z"/>
	</g>
</g>
<g>
	<path class="st18" d="M291.29,82.69l-5.74-3.47c-2.18-1.32-2.88-4.16-1.57-6.34l3.47-5.74c1.32-2.18,4.16-2.88,6.34-1.57l5.74,3.47
		c2.18,1.32,2.88,4.16,1.57,6.34l-3.47,5.74C296.31,83.31,293.47,84.01,291.29,82.69z"/>
	<g>
		<path class="st17" d="M287.67,77.7l-1.15-0.69l5.75-9.53l3.47,2.09c1.76,1.06,2.1,2.66,1.06,4.38c-0.92,1.53-2.35,2.01-3.95,1.24
			l-0.06,5.59l-1.28-0.77l0.13-5.47l-1.51-0.91L287.67,77.7z M293,74.05c0.96,0.58,1.83,0.42,2.37-0.47l0.43-0.71
			c0.54-0.89,0.27-1.74-0.69-2.31l-2.29-1.38l-2.11,3.49L293,74.05z"/>
	</g>
</g>
<g>
	<path class="st16" d="M260.86,85.95l-6.25-2.43c-2.38-0.92-3.55-3.6-2.63-5.98l2.43-6.25c0.92-2.38,3.6-3.55,5.98-2.63l6.25,2.43
		c2.38,0.92,3.55,3.6,2.63,5.98l-2.43,6.25C265.92,85.7,263.24,86.88,260.86,85.95z"/>
	<g>
		<path class="st17" d="M259.62,70.95l2.9,1.13c2.53,0.98,3.08,3.25,1.76,6.65s-3.26,4.7-5.79,3.72l-2.9-1.13L259.62,70.95z
			 M258.85,81.34c1.65,0.64,2.98-0.24,3.79-2.32l0.62-1.6c0.81-2.08,0.42-3.63-1.23-4.27l-1.59-0.62l-3.19,8.2L258.85,81.34z"/>
	</g>
</g>
<g>
	<path class="st19" d="M43.12,39.4l-3.69-2.52c-1.4-0.96-1.76-2.87-0.8-4.28l2.52-3.69c0.96-1.4,2.87-1.76,4.28-0.8l3.69,2.52
		c1.4,0.96,1.76,2.87,0.8,4.28L47.4,38.6C46.44,40,44.53,40.36,43.12,39.4z"/>
	<g>
		<path class="st17" d="M40.29,35.52l0.4-0.59l1.53,1.04l3.38-4.95l-1.53-1.04l0.4-0.59l3.79,2.59l-0.4,0.59l-1.53-1.04l-3.38,4.95
			l1.53,1.04l-0.4,0.59L40.29,35.52z"/>
	</g>
</g>
<g>
	<path class="st18" d="M665.01,68.45l-3.75-5.56c-1.43-2.11-0.87-4.98,1.24-6.41l5.56-3.75c2.11-1.43,4.98-0.87,6.41,1.24l3.75,5.56
		c1.43,2.11,0.87,4.98-1.24,6.41l-5.56,3.75C669.31,71.12,666.44,70.56,665.01,68.45z"/>
	<g>
		<path class="st17" d="M663.83,62.4l-0.75-1.11l9.22-6.23l2.27,3.36c1.15,1.7,0.78,3.3-0.88,4.42c-1.48,1-2.97,0.84-4.11-0.53
			l-2.4,5.05l-0.84-1.24l2.42-4.9l-0.99-1.47L663.83,62.4z M670.21,61.33c0.62,0.92,1.49,1.15,2.35,0.57l0.69-0.46
			c0.86-0.58,0.97-1.46,0.35-2.39l-1.5-2.22l-3.38,2.28L670.21,61.33z"/>
	</g>
</g>
<g>
	<path class="st16" d="M60.77,74.62l-6.27-2.37c-2.38-0.9-3.59-3.57-2.68-5.95l2.37-6.27c0.9-2.38,3.57-3.59,5.95-2.68l6.27,2.37
		c2.38,0.9,3.59,3.57,2.68,5.95l-2.37,6.27C65.82,74.32,63.15,75.52,60.77,74.62z"/>
	<g>
		<path class="st17" d="M59.39,59.63l2.91,1.1c2.53,0.96,3.11,3.22,1.82,6.64c-1.29,3.41-3.22,4.73-5.76,3.77l-2.91-1.1L59.39,59.63
			z M58.71,70.02c1.65,0.63,2.98-0.27,3.77-2.36l0.61-1.61c0.79-2.09,0.39-3.64-1.27-4.26l-1.6-0.6l-3.11,8.23L58.71,70.02z"/>
	</g>
</g>
<g>
	<path class="st19" d="M154.08,99.74l-4.15,1.65c-1.58,0.63-3.37-0.14-4-1.72l-1.65-4.15c-0.63-1.58,0.14-3.37,1.72-4l4.15-1.65
		c1.58-0.63,3.37,0.14,4,1.72l1.65,4.15C156.43,97.32,155.66,99.11,154.08,99.74z"/>
	<g>
		<path class="st17" d="M149.28,99.92l-0.26-0.66l1.72-0.68l-2.22-5.56l-1.72,0.68l-0.26-0.66l4.26-1.7l0.26,0.66l-1.72,0.68
			l2.22,5.56l1.72-0.68l0.26,0.66L149.28,99.92z"/>
	</g>
</g>
<g>
	<path class="st18" d="M271.16,88.55l-4.77-4.71c-1.82-1.79-1.84-4.71-0.04-6.53l4.71-4.77c1.79-1.82,4.71-1.84,6.53-0.04l4.77,4.71
		c1.82,1.79,1.84,4.71,0.04,6.53l-4.71,4.77C275.9,90.32,272.97,90.34,271.16,88.55z"/>
	<g>
		<path class="st17" d="M268.81,82.86l-0.95-0.94l7.81-7.92l2.88,2.84c1.46,1.44,1.42,3.08,0.01,4.51
			c-1.25,1.27-2.75,1.41-4.13,0.29l-1.36,5.42L272,86l1.41-5.28l-1.26-1.24L268.81,82.86z M274.85,80.55
			c0.79,0.78,1.69,0.83,2.41,0.1l0.58-0.59c0.73-0.74,0.67-1.63-0.13-2.41l-1.91-1.88l-2.87,2.9L274.85,80.55z"/>
	</g>
</g>
<g>
	<path class="st16" d="M210.06,62.52l2.45,6.24c0.93,2.37-0.23,5.05-2.61,5.99l-6.24,2.45c-2.37,0.93-5.05-0.23-5.99-2.61
		l-2.45-6.24c-0.93-2.37,0.23-5.05,2.61-5.99l6.24-2.45C206.45,58.98,209.13,60.15,210.06,62.52z"/>
	<g>
		<path class="st17" d="M199.88,73.61l-1.14-2.89c-0.99-2.52,0.3-4.47,3.69-5.8c3.4-1.34,5.67-0.79,6.66,1.73l1.14,2.89
			L199.88,73.61z M208.03,67.13c-0.65-1.65-2.2-2.03-4.28-1.21l-1.6,0.63c-2.08,0.82-2.95,2.16-2.31,3.8l0.62,1.59l8.19-3.22
			L208.03,67.13z"/>
	</g>
</g>
<g>
	<path class="st19" d="M233.36,25.03l-4.45-0.42c-1.69-0.16-2.93-1.66-2.78-3.35l0.42-4.45c0.16-1.69,1.66-2.93,3.35-2.78l4.45,0.42
		c1.69,0.16,2.93,1.66,2.78,3.35l-0.42,4.45C236.55,23.94,235.05,25.18,233.36,25.03z"/>
	<g>
		<path class="st17" d="M229,23.01l0.07-0.71l1.84,0.17l0.56-5.96l-1.84-0.17l0.07-0.71l4.57,0.43l-0.07,0.71l-1.84-0.17l-0.56,5.96
			l1.84,0.17l-0.07,0.71L229,23.01z"/>
	</g>
</g>
<g>
	<path class="st18" d="M102.1,83.54l-6.67,0.68c-2.54,0.26-4.8-1.59-5.06-4.12l-0.68-6.67c-0.26-2.54,1.59-4.8,4.12-5.06l6.67-0.68
		c2.54-0.26,4.8,1.59,5.06,4.12l0.68,6.67C106.49,81.02,104.64,83.28,102.1,83.54z"/>
	<g>
		<path class="st17" d="M96.21,81.72l-1.33,0.14l-1.13-11.07l4.03-0.41c2.05-0.21,3.28,0.87,3.48,2.87
			c0.18,1.78-0.67,3.02-2.41,3.37l3.31,4.5l-1.49,0.15l-3.18-4.45L95.73,77L96.21,81.72z M98.28,75.6c1.11-0.11,1.72-0.77,1.61-1.8
			l-0.08-0.82c-0.11-1.03-0.83-1.55-1.94-1.44l-2.66,0.27l0.41,4.06L98.28,75.6z"/>
	</g>
</g>
<g>
	<path class="st16" d="M246.57,26.97l-6.55,1.43c-2.49,0.54-4.95-1.04-5.49-3.53l-1.43-6.55c-0.54-2.49,1.04-4.95,3.53-5.49
		l6.55-1.43c2.49-0.54,4.95,1.04,5.49,3.53l1.43,6.55C250.64,23.97,249.06,26.43,246.57,26.97z"/>
	<g>
		<path class="st17" d="M237.25,15.15l3.04-0.66c2.65-0.58,4.36,1.01,5.14,4.57s-0.12,5.72-2.77,6.3l-3.04,0.66L237.25,15.15z
			 M242.35,24.24c1.73-0.38,2.35-1.85,1.88-4.03l-0.37-1.68c-0.48-2.18-1.66-3.26-3.39-2.88L238.81,16l1.87,8.6L242.35,24.24z"/>
	</g>
</g>
<g>
	<path class="st19" d="M361.17,27.02l-4.21,1.49c-1.6,0.57-3.36-0.27-3.93-1.87l-1.49-4.21c-0.57-1.6,0.27-3.36,1.87-3.93l4.21-1.49
		c1.6-0.57,3.36,0.27,3.93,1.87l1.49,4.21C363.61,24.7,362.78,26.45,361.17,27.02z"/>
	<g>
		<path class="st17" d="M356.37,27.02l-0.24-0.67l1.74-0.62l-2-5.65l-1.74,0.62l-0.24-0.67l4.33-1.53l0.24,0.67l-1.74,0.62l2,5.65
			l1.74-0.62l0.24,0.67L356.37,27.02z"/>
	</g>
</g>
<g>
	<path class="st18" d="M609.88,37.08l-5.96-3.08c-2.27-1.17-3.15-3.96-1.98-6.22l3.08-5.96c1.17-2.27,3.96-3.15,6.22-1.98l5.96,3.08
		c2.26,1.17,3.15,3.96,1.98,6.22l-3.08,5.96C614.93,37.37,612.15,38.26,609.88,37.08z"/>
	<g>
		<path class="st17" d="M605.95,32.34l-1.19-0.61l5.11-9.88l3.6,1.86c1.83,0.94,2.27,2.52,1.35,4.3c-0.82,1.59-2.21,2.16-3.86,1.5
			l0.31,5.58l-1.33-0.69l-0.23-5.46l-1.57-0.81L605.95,32.34z M611.03,28.35c0.99,0.51,1.86,0.3,2.33-0.62l0.38-0.74
			c0.48-0.92,0.15-1.75-0.84-2.26l-2.38-1.23l-1.87,3.62L611.03,28.35z"/>
	</g>
</g>
<g>
	<g>
		<g>
			<path class="st38" d="M406.52,3.61c-0.5-0.5-1.04-0.9-1.64-1.28c-0.72-0.45-1.44-0.91-2.12-1.43c-0.73-0.57-1.48-1.14-2.37-1.45
				c-0.22-0.08-0.47-0.17-0.71-0.17c-0.31,0-0.62,0.2-0.88,0.35c-1.31,0.76-2.32,1.91-3.33,3.01c-0.51,0.55-1.01,1.12-1.49,1.69
				c-0.42,0.5-0.75,1.02-1.03,1.63c-0.36,0.8-0.66,1.66-0.85,2.52c-0.17,0.76-0.09,1.55,0.03,2.31c0.01,0.07,0.02,0.13,0.03,0.2
				c0.02-0.04,0.04-0.09,0.06-0.13c-0.23,0.13-0.47,0.29-0.64,0.5c-0.2,0.26-0.31,0.59-0.35,0.91c-0.11,0.65-0.18,1.32-0.25,1.98
				c-0.07,0.6-0.09,1.21-0.25,1.79c-0.08,0.29-0.21,0.58-0.27,0.89c-0.03,0.16-0.03,0.32-0.02,0.47c0.02,0.37,0.09,0.74,0.15,1.11
				c0.08,0.52,0.18,1.04,0.29,1.55c0,0.03,0.02,0.1,0.01,0.04c0.01,0.07,0.02,0.13,0.03,0.19c0.05,0.28,0.08,0.54,0.11,0.82
				c0.04,0.3,0.05,0.58,0.1,0.88c0.06,0.32,0.14,0.65,0.2,0.96c0.04,0.21,0.12,0.51,0.03,0.71c-0.07,0.16-0.29,0.21-0.44,0.26
				c-0.46,0.16-0.94,0.34-1.11,0.85c-0.14,0.45,0.04,0.94,0.27,1.32c0.33,0.55,0.77,1.02,1.24,1.45c2.04,1.88,4.66,2.98,7.39,3.35
				c1.53,0.21,3.11,0.2,4.63-0.05c1.07-0.18,2.13-0.38,3.16-0.75c1.28-0.46,2.48-1.14,3.47-2.08c1.8-1.7,2.75-4.05,3.13-6.45
				c0.19-1.23,0.23-2.47,0.17-3.71c-0.05-1.06-0.12-2.09-0.54-3.08c-0.46-1.09-0.66-2.25-1.05-3.36c-0.12-0.32-0.24-0.66-0.45-0.92
				c-0.25-0.35-0.63-0.78-1.09-0.82c-0.27-0.03-0.49,0.11-0.66,0.29c-0.04,0.04-0.07,0.09-0.12,0.13c-0.02,0.02-0.07,0.06-0.08,0.08
				c0-0.02-0.02,0.06,0,0.01c0-0.01,0.04,0.01,0.03,0.02l-0.03-0.08c-0.07-0.27-0.03-0.56-0.04-0.83c-0.01-0.4-0.03-0.8-0.11-1.19
				c-0.19-1.06-0.71-2.06-1.33-2.95C407.45,4.6,407,4.08,406.52,3.61c-0.13-0.13-0.31,0.09-0.18,0.2c0.77,0.78,1.42,1.64,1.93,2.61
				c0.33,0.63,0.58,1.28,0.66,1.99c0.04,0.37,0.06,0.74,0.06,1.11c0.01,0.23-0.02,0.49,0.06,0.71c0.06,0.16,0.2,0.28,0.38,0.19
				c0.17-0.09,0.25-0.3,0.41-0.41c0.42-0.3,0.93,0.29,1.16,0.6c0.19,0.26,0.31,0.56,0.41,0.86c0.21,0.6,0.38,1.22,0.54,1.84
				c0.13,0.5,0.28,0.99,0.49,1.47c0.16,0.38,0.3,0.76,0.38,1.17c0.12,0.61,0.15,1.22,0.18,1.84c0.03,0.72,0.05,1.45,0.01,2.17
				c-0.12,2.13-0.66,4.31-1.8,6.13c-0.76,1.21-1.8,2.22-3.02,2.94c-1.05,0.62-2.23,1.01-3.4,1.27c-1.42,0.31-2.86,0.49-4.32,0.44
				c-2.53-0.06-5.05-0.73-7.2-2.09c-0.59-0.38-1.15-0.8-1.67-1.28c-0.47-0.42-0.93-0.89-1.25-1.44c-0.22-0.38-0.42-0.89-0.14-1.28
				c0.27-0.39,0.78-0.4,1.17-0.6c0.43-0.23,0.33-0.76,0.26-1.17c-0.06-0.3-0.14-0.62-0.19-0.92c-0.05-0.3-0.07-0.58-0.1-0.88
				c-0.1-0.84-0.29-1.67-0.44-2.49c-0.06-0.39-0.13-0.77-0.16-1.16c-0.01-0.14-0.02-0.3,0.01-0.43c0.05-0.29,0.17-0.57,0.26-0.86
				c0.14-0.58,0.19-1.17,0.26-1.76c0.06-0.63,0.14-1.25,0.23-1.88c0.05-0.32,0.1-0.65,0.31-0.92c0.15-0.21,0.38-0.37,0.61-0.49
				c0.04-0.02,0.07-0.08,0.06-0.13c-0.13-0.64-0.22-1.31-0.16-1.96c0.03-0.35,0.12-0.68,0.22-1.01c0.12-0.42,0.27-0.86,0.43-1.27
				c0.26-0.68,0.57-1.37,1.03-1.94c0.4-0.51,0.84-1,1.27-1.48c0.54-0.59,1.09-1.19,1.64-1.76c0.46-0.46,0.92-0.92,1.47-1.3
				c0.32-0.22,0.64-0.45,1-0.61c0.11-0.05,0.23-0.1,0.35-0.1c0.09,0,0.19,0.04,0.28,0.06c0.75,0.19,1.45,0.63,2.07,1.09
				c0.75,0.57,1.5,1.13,2.3,1.63c0.54,0.34,1.07,0.66,1.55,1.08c0.14,0.13,0.3,0.27,0.43,0.41C406.47,3.95,406.64,3.74,406.52,3.61z
				"/>
		</g>
	</g>
	<g>
		<g>
			<path class="st38" d="M411.59,24.37c-0.89-0.5-1.82-0.94-2.74-1.37c-0.64-0.3-1.26-0.58-1.9-0.84c-0.55-0.22-1.13-0.45-1.71-0.59
				c-0.62-0.16-1.26-0.22-1.88-0.22c-0.75-0.01-1.49,0.07-2.24,0.22c-1.67,0.31-3.29,0.83-4.9,1.32c-1.66,0.5-3.31,1.04-4.92,1.68
				c-0.21,0.08-0.4,0.16-0.62,0.25c-0.16,0.07-0.07,0.33,0.09,0.26c1.62-0.69,3.3-1.24,4.97-1.76c0.72-0.22,1.44-0.44,2.17-0.65
				c0.88-0.25,1.74-0.51,2.63-0.7c1.4-0.31,2.9-0.48,4.32-0.18c0.53,0.1,1.04,0.3,1.55,0.5c0.64,0.25,1.26,0.52,1.88,0.8
				c1.02,0.45,2.02,0.94,3.01,1.47c0.06,0.03,0.12,0.06,0.17,0.09C411.62,24.7,411.74,24.45,411.59,24.37L411.59,24.37z"/>
		</g>
	</g>
	<g>
		<g>
			<path class="st38" d="M412.72,16c-0.35,0.03-0.7,0.09-1.04,0.16c-0.55,0.1-1.14,0.21-1.64,0.47c-0.51,0.27-0.72,0.9-0.85,1.43
				c-0.18,0.73-0.26,1.5-0.31,2.25c-0.08,0.88-0.21,1.76-0.47,2.6c-0.06,0.17,0.22,0.23,0.27,0.06c0.23-0.74,0.36-1.51,0.45-2.29
				c0.07-0.73,0.12-1.46,0.26-2.17c0.06-0.33,0.14-0.66,0.28-0.97c0.1-0.22,0.23-0.46,0.41-0.6s0.41-0.2,0.64-0.26
				c0.27-0.09,0.56-0.15,0.84-0.2c0.4-0.07,0.8-0.14,1.2-0.19C412.92,16.26,412.9,15.98,412.72,16L412.72,16z"/>
		</g>
	</g>
	<g>
		<g>
			<path class="st38" d="M407.68,24.3c-1.36-0.44-2.78-0.69-4.22-0.75c-0.37-0.01-0.72-0.02-1.08-0.02c-0.17,0-0.15,0.28,0.02,0.28
				c1.4-0.03,2.8,0.13,4.16,0.47c0.36,0.09,0.71,0.18,1.06,0.31C407.8,24.62,407.86,24.34,407.68,24.3L407.68,24.3z"/>
		</g>
	</g>
	<g>
		<g>
			<path class="st38" d="M406.79,25.67c-1.74-0.73-3.61-1.13-5.49-1.18c-0.51-0.01-1.02,0-1.53,0.04c-0.17,0.01-0.15,0.29,0.02,0.28
				c1.92-0.15,3.85,0.07,5.67,0.66c0.41,0.13,0.82,0.28,1.21,0.45C406.83,25.98,406.95,25.73,406.79,25.67L406.79,25.67z"/>
		</g>
	</g>
	<g>
		<g>
			<path class="st38" d="M408.16,27.32c-2.43-0.58-4.91-0.89-7.41-0.92c-0.66,0-1.32,0-1.99,0.03c-0.17,0.01-0.15,0.29,0.02,0.28
				c2.51-0.13,5.01,0.04,7.48,0.48c0.62,0.1,1.23,0.25,1.84,0.39C408.28,27.64,408.34,27.37,408.16,27.32L408.16,27.32z"/>
		</g>
	</g>
	<g>
		<g>
			<path class="st38" d="M400.98,25.65c-2.19-0.39-4.44-0.48-6.65-0.24c-0.69,0.08-1.37,0.2-2.06,0.34
				c-0.17,0.04-0.09,0.3,0.09,0.26c2.27-0.48,4.62-0.58,6.93-0.33c0.55,0.06,1.1,0.14,1.63,0.24
				C401.11,25.96,401.17,25.69,400.98,25.65L400.98,25.65z"/>
		</g>
	</g>
	<g>
		<g>
			<path class="st38" d="M405.28,28.97c-1.5-0.7-3.12-1.15-4.77-1.31c-0.42-0.05-0.84-0.07-1.26-0.07
				c-0.17-0.01-0.16,0.27,0.02,0.28c1.63,0.03,3.25,0.33,4.78,0.9c0.38,0.14,0.73,0.3,1.1,0.47
				C405.31,29.3,405.44,29.04,405.28,28.97L405.28,28.97z"/>
		</g>
	</g>
	<g>
		<g>
			<path class="st38" d="M398.59,28.6c-1.27-1.14-2.9-1.82-4.6-1.91c-0.34-0.03-0.68-0.01-1.01,0.01c-0.17,0.01-0.15,0.29,0.02,0.28
				c1.56-0.12,3.14,0.26,4.48,1.11c0.34,0.21,0.66,0.46,0.95,0.73C398.54,28.94,398.72,28.71,398.59,28.6L398.59,28.6z"/>
		</g>
	</g>
	<g>
		<g>
			<path class="st38" d="M392.33,15.61c0.54,2.13,0.58,4.37,0.13,6.52c-0.11,0.55-0.27,1.09-0.43,1.61
				c-0.06,0.17,0.22,0.23,0.27,0.06c0.71-2.18,0.92-4.51,0.58-6.77c-0.07-0.51-0.18-1.01-0.29-1.5
				C392.56,15.34,392.29,15.44,392.33,15.61L392.33,15.61z"/>
		</g>
	</g>
	<g>
		<g>
			<path class="st38" d="M392.27,15.48c-0.58,0.85-1.04,1.77-1.34,2.76c-0.06,0.17,0.22,0.23,0.27,0.06
				c0.29-0.93,0.73-1.82,1.28-2.63C392.58,15.53,392.37,15.33,392.27,15.48L392.27,15.48z"/>
		</g>
	</g>
	<g>
		<g>
			<path class="st38" d="M409.16,11.22c0.24,1.65,0.74,3.27,1.44,4.78c0.08,0.16,0.34,0.07,0.26-0.09c-0.7-1.49-1.17-3.07-1.42-4.7
				C409.41,11.02,409.13,11.03,409.16,11.22L409.16,11.22z"/>
		</g>
	</g>
	<g>
		<g>
			<path class="st39" d="M402.96,7.96c-0.57-0.1-1.14-0.16-1.71-0.2c-1.16-0.07-2.33-0.06-3.48,0.17c-0.53,0.11-1.06,0.26-1.57,0.47
				c-0.14,0.05-0.05,0.31,0.11,0.24l0,0c0.99-0.38,2.01-0.59,3.07-0.64c0.99-0.05,1.98,0,2.97,0.12c0.18,0.03,0.39,0.05,0.57,0.09
				c0.14,0.03,0.2-0.11,0.14-0.21c-0.03-0.07-0.1-0.13-0.16-0.16c-0.19-0.17-0.42-0.31-0.66-0.44c-0.44-0.27-0.88-0.54-1.34-0.77
				c-0.4-0.2-0.8-0.31-1.24-0.32c-0.56-0.02-1.12,0.11-1.64,0.32c-0.4,0.16-0.8,0.38-1.17,0.63c-0.15,0.11,0,0.34,0.15,0.23
				c0.72-0.48,1.56-0.86,2.45-0.89c0.43-0.02,0.85,0.08,1.23,0.26c0.41,0.19,0.78,0.42,1.16,0.65c0.27,0.16,0.55,0.32,0.8,0.51
				c0.06,0.04,0.11,0.09,0.15,0.13"/>
		</g>
	</g>
	<g>
		<g>
			<path class="st38" d="M405.45,4.84c-0.7-0.66-1.5-1.18-2.37-1.6c-0.77-0.35-1.57-0.63-2.41-0.74c-1.01-0.12-2.03,0.02-2.97,0.45
				c-0.74,0.33-1.41,0.81-1.98,1.37C395.34,4.7,395,5.1,394.7,5.54c-0.04,0.06-0.05,0.14,0.01,0.19c0.05,0.04,0.15,0.05,0.19-0.01
				c0.65-0.98,1.55-1.82,2.58-2.36c0.85-0.45,1.79-0.66,2.74-0.61c0.89,0.04,1.74,0.29,2.55,0.65c0.92,0.41,1.77,0.94,2.5,1.64
				C405.39,5.18,405.57,4.98,405.45,4.84L405.45,4.84z"/>
		</g>
	</g>
	<g>
		<g>
			<path class="st38" d="M401.55,12.33c0.09-0.1,0.22-0.55,0.14-0.97c-0.02-0.1-0.07-0.3-0.22-0.44c-0.14-0.13-0.32-0.11-0.48-0.05
				c-0.16,0.07-0.33,0.13-0.48,0.02c-0.14-0.1-0.27-0.22-0.42-0.31c-0.35-0.21-0.81-0.3-1.22-0.23c-0.16,0.03-0.34,0.1-0.46,0.22
				c-0.07,0.07-0.12,0.15-0.13,0.25c-0.02,0.11-0.04,0.19-0.12,0.28s-0.19,0.1-0.3,0.14c-0.1,0.04-0.19,0.1-0.26,0.18
				c-0.13,0.18-0.12,0.41-0.08,0.63c0.04,0.2,0.14,0.39,0.27,0.54c0.05,0.06,0.11,0.13,0.17,0.17c0.02,0.02,0.04,0.05,0.07,0.06
				c0.01,0.01,0.01,0.01,0.02,0.02l0.01,0.01c-0.03-0.03-0.04-0.07-0.04-0.12c-0.05,0.17,0.23,0.23,0.27,0.06
				c0.03-0.11-0.09-0.17-0.15-0.23c-0.12-0.11-0.22-0.23-0.28-0.38c-0.07-0.14-0.13-0.34-0.09-0.49c0.05-0.21,0.29-0.2,0.43-0.29
				c0.2-0.11,0.28-0.29,0.33-0.49c0.04-0.17,0.21-0.24,0.36-0.27c0.39-0.08,0.85,0.04,1.16,0.28c0.13,0.1,0.24,0.22,0.39,0.28
				c0.18,0.07,0.38,0.05,0.55-0.03c0.07-0.02,0.14-0.08,0.21-0.07c0.07,0.01,0.11,0.07,0.14,0.13c0.07,0.13,0.09,0.29,0.09,0.43
				c0,0.19-0.06,0.24-0.11,0.5c-0.03,0.14-0.11,0.29-0.05,0.33C401.37,12.54,401.48,12.42,401.55,12.33z"/>
		</g>
	</g>
	<g>
		<g>
			<path class="st40" d="M401.03,13.42c-0.45,0.84-0.46,1.83-0.29,2.75c0.02,0.12,0.22,0.11,0.19-0.01
				c-0.15-0.89-0.15-1.83,0.27-2.65C401.27,13.4,401.09,13.32,401.03,13.42L401.03,13.42z"/>
		</g>
	</g>
	<g>
		<g>
			<path class="st38" d="M410.66,12.58c0.39,0.59,0.44,1.35,0.13,1.99c-0.08,0.16,0.17,0.29,0.25,0.12
				c0.35-0.73,0.29-1.59-0.15-2.27C410.8,12.27,410.57,12.43,410.66,12.58L410.66,12.58z"/>
		</g>
	</g>
	<g>
		<g>
			<path class="st38" d="M392.25,11.62c0.23,1.14,0.28,2.3,0.13,3.45c-0.03,0.18,0.25,0.23,0.27,0.06c0.15-1.2,0.1-2.41-0.14-3.6
				c-0.01-0.08-0.11-0.11-0.18-0.09C392.26,11.47,392.24,11.54,392.25,11.62L392.25,11.62z"/>
		</g>
	</g>
	<g>
		<g>
			<path class="st38" d="M392.09,17.72c-0.06,0.24-0.16,0.47-0.31,0.67c-0.08,0.11-0.16,0.19-0.25,0.28
				c-0.08,0.08-0.14,0.11-0.21,0.16c-0.07,0.05-0.1,0.12-0.05,0.18c0.04,0.07,0.13,0.1,0.19,0.05c0.45-0.29,0.78-0.75,0.91-1.28
				C392.39,17.62,392.12,17.54,392.09,17.72L392.09,17.72z"/>
		</g>
	</g>
	<g>
		<g>
			<path class="st38" d="M392.32,19.33c0,0.01-0.01,0.02-0.01,0.03c-0.01,0.03,0.01-0.02,0,0c-0.01,0.02-0.02,0.04-0.03,0.06
				c-0.02,0.04-0.04,0.08-0.07,0.12c-0.03,0.05-0.06,0.08-0.09,0.13c-0.03,0.04-0.06,0.07-0.11,0.12c-0.04,0.04-0.08,0.07-0.12,0.11
				c-0.02,0.02-0.04,0.04-0.06,0.05c-0.01,0.01-0.02,0.01-0.03,0.02c0.02-0.02-0.01,0.01-0.01,0.01c-0.07,0.05-0.14,0.08-0.2,0.12
				c-0.07,0.04-0.1,0.13-0.06,0.18c0.04,0.07,0.12,0.09,0.19,0.06c0.38-0.18,0.68-0.5,0.85-0.89c0.03-0.07-0.02-0.15-0.1-0.18
				C392.41,19.22,392.35,19.25,392.32,19.33L392.32,19.33z"/>
		</g>
	</g>
	<g>
		<g>
			<path class="st38" d="M391.76,14c-0.15,0.59-0.18,1.22-0.06,1.81c0.01,0.08,0.07,0.13,0.14,0.13c0.07,0,0.14-0.08,0.13-0.14
				c-0.11-0.58-0.08-1.17,0.07-1.74C392.08,13.88,391.81,13.82,391.76,14L391.76,14z"/>
		</g>
	</g>
	<g>
		<g>
			<path class="st41" d="M409.92,19.33c0.94-0.51,1.85-1.09,2.71-1.77c0.13-0.1-0.01-0.34-0.13-0.23c-0.84,0.66-1.73,1.24-2.65,1.74
				C409.7,19.16,409.78,19.42,409.92,19.33L409.92,19.33z"/>
		</g>
	</g>
	<g>
		<g>
			<path class="st38" d="M409.73,20.74c0.74-0.22,1.46-0.5,2.18-0.8c0.16-0.07,0.07-0.33-0.09-0.26c-0.71,0.3-1.45,0.57-2.18,0.8
				C409.47,20.54,409.55,20.8,409.73,20.74L409.73,20.74z"/>
		</g>
	</g>
	<g>
		<g>
			<path class="st38" d="M409.73,22.24c0.71-0.26,1.45-0.5,2.19-0.7c0.17-0.05,0.09-0.31-0.09-0.26c-0.74,0.2-1.46,0.44-2.19,0.7
				C409.47,22.03,409.56,22.3,409.73,22.24L409.73,22.24z"/>
		</g>
	</g>
	<g>
		<g>
			<path class="st38" d="M418.67,0.12c-0.76,0.29-1.52,0.56-2.3,0.83c-0.73,0.25-1.47,0.48-2.21,0.74c-0.79,0.28-1.6,0.59-2.34,0.99
				c-0.68,0.37-1.24,0.87-1.67,1.53c-0.5,0.76-0.93,1.54-1.28,2.39c-0.08,0.16,0.17,0.29,0.25,0.12c0.31-0.71,0.67-1.41,1.08-2.07
				c0.21-0.34,0.43-0.67,0.71-0.95c0.26-0.26,0.56-0.48,0.87-0.67c0.34-0.2,0.7-0.36,1.06-0.51c0.39-0.17,0.81-0.33,1.21-0.48
				c0.73-0.27,1.48-0.5,2.23-0.75c0.83-0.28,1.66-0.57,2.48-0.89C418.92,0.32,418.83,0.06,418.67,0.12L418.67,0.12z"/>
		</g>
	</g>
	<g>
		<g>
			<path class="st42" d="M409.02,6.42c0.25-1.03,0.31-2.1,0.2-3.15c-0.1-0.86-0.33-1.71-0.6-2.53c-0.51-1.62-1.12-3.2-1.76-4.77
				c-0.49-1.2-1.01-2.37-1.54-3.55c-0.08-0.17-0.34-0.07-0.26,0.09c0.89,1.93,1.72,3.87,2.47,5.86c0.27,0.72,0.53,1.44,0.76,2.17
				c0.24,0.76,0.49,1.55,0.62,2.34c0.2,1.16,0.15,2.34-0.13,3.5C408.71,6.53,408.98,6.59,409.02,6.42L409.02,6.42z"/>
		</g>
	</g>
	<g>
		<g>
			<path class="st33" d="M392.53-6.77c0.52,2.68,0.99,5.37,1.38,8.07c0.12,0.74,0.22,1.5,0.32,2.24c0.02,0.18,0.3,0.16,0.28-0.02
				c-0.37-2.72-0.8-5.41-1.29-8.11c-0.14-0.73-0.27-1.47-0.41-2.2c-0.01-0.08-0.07-0.14-0.14-0.14
				C392.59-6.92,392.52-6.85,392.53-6.77L392.53-6.77z"/>
		</g>
	</g>
	<g>
		<g>
			<path class="st38" d="M393.9,4.07c-0.97-0.79-2.09-1.38-3.28-1.71c-1-0.26-2.04-0.32-3.05-0.54c-0.8-0.18-1.59-0.43-2.38-0.69
				c-1.09-0.36-2.18-0.73-3.25-1.12c-1.34-0.49-2.66-1.03-3.97-1.6c-0.16-0.08-0.29,0.17-0.12,0.25c2.22,0.98,4.5,1.8,6.79,2.59
				c0.85,0.29,1.68,0.56,2.56,0.78c0.94,0.23,1.89,0.3,2.84,0.49c1.37,0.29,2.62,0.88,3.7,1.77C393.86,4.4,394.05,4.19,393.9,4.07
				L393.9,4.07z"/>
		</g>
	</g>
	<g>
		<g>
			<path d="M402.21,17.33c1.35,0.43,2.8,0.39,4.14-0.07c0.26-0.09,0.14-0.51-0.12-0.42c-1.27,0.43-2.63,0.47-3.91,0.06
				C402.05,16.82,401.94,17.24,402.21,17.33L402.21,17.33z"/>
		</g>
	</g>
	<g>
		<g>
			<path d="M394.39,17.92c1.36,0.39,2.81,0.32,4.14-0.17c0.26-0.1,0.14-0.51-0.12-0.42c-1.26,0.46-2.61,0.54-3.91,0.16
				C394.23,17.42,394.12,17.84,394.39,17.92L394.39,17.92z"/>
		</g>
	</g>
	<path class="st45" d="M405.43,15.83c-0.04-0.06-0.44-0.66-1.14-0.69c-0.62-0.03-1.22,0.39-1.44,1.03"/>
	<g>
		<g>
			<path d="M405.94,15.17c-0.43,0.56-1.08,0.94-1.78,1c-0.68,0.06-1.39-0.18-1.9-0.62c-0.21-0.18-0.51,0.13-0.3,0.31
				c0.6,0.52,1.42,0.81,2.21,0.74c0.81-0.07,1.59-0.49,2.08-1.13C406.42,15.25,406.11,14.95,405.94,15.17L405.94,15.17z"/>
		</g>
	</g>
	<path class="st45" d="M397.72,16.4c-0.04-0.07-0.37-0.69-1.07-0.79c-0.61-0.08-1.25,0.27-1.53,0.89"/>
	<g>
		<g>
			<path d="M398.27,15.8c-0.5,0.54-1.23,0.85-1.96,0.81c-0.65-0.03-1.29-0.34-1.74-0.81c-0.19-0.2-0.49,0.11-0.3,0.31
				c0.53,0.55,1.28,0.9,2.04,0.93c0.84,0.04,1.69-0.33,2.27-0.95C398.78,15.9,398.46,15.6,398.27,15.8L398.27,15.8z"/>
		</g>
	</g>
</g>
<g>
	<defs>
		<circle id="SVGID_7_" cx="394.67" cy="84.4" r="21.43"/>
	</defs>
	<clipPath id="SVGID_4_">
		<use xlink:href="#SVGID_7_"  style="overflow:visible;"/>
	</clipPath>
	<g class="st64">
		<g>
			<g>
				<path class="st1" d="M384.66,94.8c0.53-0.14,1.09-0.06,1.52-0.45c0.38-0.35,0.54-0.97,0.63-1.45c0.33-1.76-0.13-3.47-0.17-5.23
					c-0.01-0.53,0.18-1.16-0.09-1.65c-0.36-0.66-1.32-0.93-1.61-1.65c-0.41-0.99,0.82-2.22,1.52-2.63c0.57-0.33,0.92-0.56,1.26-1.17
					c0.98-1.79,0.8-3.86,1.25-5.79c0.33-1.4,0.95-2.74,1.94-3.8c2.56-2.76,9.2-3.28,11.18,0.56c0.96,1.86,0.52,4.77,0.62,6.8
					c0.08,1.44,0.09,2.85,0,4.29c-0.01,0.19,0.26,0.25,0.36,0.1c0.26-0.07,0.53-0.13,0.79-0.2c0.06,0.16,0.13,0.32,0.19,0.48
					c0.05,0.27-0.02,0.61-0.05,0.88c-0.08,0.86-0.15,1.04-0.84,1.58c-0.46,0.37-0.74,0.62-0.94,1.19c-0.51,1.45-1.14,2.77-1.55,4.26
					c-0.37,1.35-0.84,2.66-0.93,4.06c-0.04,0.67,0.01,1.32,0.41,1.88c0.83,1.18,2.32,1.34,1.85,3.22c-0.06,0.24,0.31,0.34,0.37,0.1
					c0.22-0.89,0.14-1.76-0.56-2.41c-0.59-0.56-1.32-0.77-1.61-1.65c-0.2-0.6-0.09-1.36,0.01-1.97c0.26-1.63,0.74-3.4,1.35-4.93
					c0.18-0.45,0.43-0.87,0.62-1.32c0.28-0.65,0.35-1.32,0.85-1.82c0.74-0.73,1.17-0.71,1.31-1.81c0.08-0.66,0.3-1.63-0.33-2.1
					c-0.52-0.39-0.99-0.14-1.28,0.36c0.12,0.03,0.24,0.06,0.36,0.1c0.08-1.38,0.08-2.73,0.01-4.12c-0.11-2.01,0.03-4.09-0.33-6.08
					c-0.6-3.33-4.59-4.16-7.41-3.9c-3.38,0.31-5.82,2.62-6.69,5.84c-0.54,1.99-0.03,5.68-2.1,6.81c-0.66,0.36-1.08,0.41-1.46,1.12
					c-0.26,0.48-0.74,1.35-0.64,1.93c0.09,0.52,0.64,0.96,0.99,1.28c0.97,0.88,0.74,1.83,0.86,3.04c0.12,1.18,0.28,2.38,0.18,3.57
					c-0.04,0.55-0.1,1.27-0.45,1.73c-0.41,0.55-0.95,0.44-1.52,0.59C384.32,94.49,384.42,94.86,384.66,94.8L384.66,94.8z"/>
			</g>
		</g>
		<g>
			<g>
				<path class="st1" d="M384.36,94.49c-1.06,0.45-2.13,0.91-3.19,1.36c-0.92,0.39-2.14,1.21-3.14,1.08
					c-1.12-0.14-0.8-1.86-0.92-2.71c-0.12-0.86-0.81-1.46-0.98-2.29c-0.05-0.12-0.09-0.24-0.14-0.35c0-0.57,0.18-0.76,0.56-0.57
					c0.09-0.02,0.29,0.06,0.39,0.07c0.37,0.05,0.74,0.04,1.11-0.02c0.76-0.13,1.43-0.46,1.88-1.11c0.55-0.78,0.78-1.88,0.98-2.79
					c0.19-0.85,0.28-1.72-0.26-2.47c-0.61-0.85-2.14-1.23-1.5-2.54c0.53-1.08,0.85-2.06,1.03-3.25c0.28-1.95,0.7-3.88,1.46-5.71
					c1.02-2.48,2.7-4.27,4.74-5.96c1.55-1.28,3.23-2.64,5.23-3.09c2.26-0.51,5.02-0.38,7.24,0.19c1.63,0.42,3.32,1.11,4.52,2.32
					c1.38,1.39,2.29,3.26,3.1,5.01c1.01,2.19,1.96,4.42,2.51,6.77c0.62,2.67,0.96,5.99,0.06,8.63c-0.44,1.3-1.26,2.39-2.1,3.46
					c-0.18,0.23-0.75,0.74-0.63,1.08c0.08,0.25,0.24,0.21,0.46,0.19c0.21-0.02,0.43-0.24,0.62-0.33c1.1-0.55,1.97,0.04,2.09,1.24
					c0.11,1.1-0.39,1.43-0.79,2.31c-0.09,0.19-0.18,0.34-0.12,0.56c0.16,0.57,1.05,0.64,1.52,0.6c0.41-0.03,0.78-0.17,1.14-0.37
					c0.18-0.1,0.82-0.76,1.01-0.72c0.41,0.08,0.1,1.01,0.1,1.3c-0.01,0.59,0.08,1.14,0.26,1.69c0.17,0.51,0.55,1.02,0.41,1.59
					c-0.17,0.74-1,1.17-1.65,1.43c-0.88,0.35-1.72,0.26-2.64,0.08c-2.18-0.42-4.26-1.25-6.35-1.96c-0.23-0.08-0.33,0.29-0.1,0.37
					c2.14,0.73,4.27,1.57,6.5,1.99c1.4,0.26,2.81,0.17,3.94-0.81c0.53-0.46,0.8-1.05,0.66-1.75c-0.08-0.41-0.34-0.78-0.46-1.18
					c-0.24-0.82-0.15-1.56-0.11-2.39c0.08-1.76-1.56,0.04-2.28,0.26c-0.39,0.12-1.53,0.29-1.5-0.51c0.01-0.17,0.38-0.5,0.47-0.66
					c0.22-0.37,0.34-0.77,0.38-1.21c0.07-0.77-0.09-1.86-0.75-2.37c-0.45-0.35-0.95-0.28-1.44-0.08c-0.14,0.06-0.87,0.58-0.95,0.56
					c0.06,0.02,0.78-1.03,0.89-1.17c1.81-2.35,2.33-4.72,2.27-7.65c-0.06-2.75-0.7-5.41-1.7-7.97c-1.31-3.34-2.83-7.53-6.1-9.45
					c-2.15-1.26-4.71-1.74-7.17-1.72c-1.67,0.02-3.34,0.07-4.89,0.78c-2.29,1.05-4.49,2.92-6.2,4.74c-1.74,1.85-2.77,4.17-3.4,6.6
					c-0.23,0.86-0.4,1.73-0.54,2.61c-0.1,0.65-0.15,1.31-0.33,1.95c-0.2,0.75-0.63,1.37-0.9,2.09c-0.23,0.6-0.15,1.13,0.32,1.58
					c0.35,0.33,0.82,0.48,1.16,0.83c0.89,0.92,0.47,2.16,0.18,3.23c-0.25,0.9-0.5,1.93-1.35,2.44c-0.87,0.53-1.68,0.34-2.59,0.22
					c-0.61-0.08-0.87,0.03-0.85,0.71c0.04,1.17,1.1,2.11,1.22,3.27c0.07,0.65-0.08,2.01,0.48,2.53c0.85,0.78,2.64-0.25,3.48-0.62
					c1.27-0.56,2.56-1.09,3.84-1.64C384.78,94.72,384.58,94.39,384.36,94.49L384.36,94.49z"/>
			</g>
		</g>
		<g>
			<path class="st2" d="M376.47,106.71l0.25-2.23l-0.83-1.71c0.94-1.88,1.89-3.75,2.83-5.63c3.1-1.42,5.47-1.69,5.9-2.53
				c0,0-0.63,0.6-0.44,3.56c0.1,1.53,0.52,1.99,0.92,3.76c0.31,1.38,0.31,5.98,0.02,8.59"/>
			<g>
				<path class="st1" d="M376.66,106.71c0.05-0.42,0.09-0.84,0.14-1.26c0.04-0.33,0.16-0.74,0.08-1.06c-0.09-0.4-0.41-0.83-0.59-1.2
					c-0.11-0.22-0.21-0.37-0.17-0.55c0.04-0.2,0.32-0.55,0.42-0.76c0.14-0.28,0.28-0.56,0.42-0.84c0.54-1.07,1.01-2.21,1.63-3.24
					c0.6-0.99,2.14-1.29,3.2-1.65c0.89-0.3,2.45-0.55,2.98-1.44c0.11-0.19-0.15-0.39-0.3-0.23c-0.39,0.39-0.44,1.15-0.49,1.66
					c-0.17,1.72,0.17,3.21,0.65,4.83c0.43,1.43,0.48,2.87,0.5,4.35c0.02,1.74-0.03,3.48-0.22,5.21c-0.03,0.24,0.36,0.24,0.38,0
					c0.17-1.58,0.22-3.17,0.22-4.76c0-1.25,0.02-2.55-0.22-3.78c-0.15-0.77-0.43-1.5-0.65-2.25c-0.26-0.87-0.33-1.76-0.32-2.66
					c0-0.61-0.05-1.86,0.42-2.33c-0.1-0.08-0.2-0.15-0.3-0.23c-0.3,0.5-1.05,0.69-1.56,0.87c-0.87,0.31-1.75,0.58-2.61,0.91
					c-0.46,0.18-0.93,0.36-1.38,0.56c-0.47,0.21-0.55,0.59-0.77,1.04c-0.57,1.13-1.13,2.25-1.7,3.38c-0.25,0.5-0.83,1.17-0.65,1.73
					c0.17,0.51,0.54,0.95,0.71,1.46c0.06,0.18,0.03-0.05,0.01,0.22c-0.02,0.23-0.05,0.46-0.08,0.69c-0.05,0.45-0.1,0.89-0.15,1.34
					C376.25,106.96,376.63,106.96,376.66,106.71L376.66,106.71z"/>
			</g>
		</g>
		<g>
			<g>
				<path class="st1" d="M364.43,106.07c0.26-1.32,0.51-2.65,0.77-3.97c0.13-0.65,0.24-1.31,0.38-1.96
					c0.08-0.38,0.38-0.95,0.58-1.41c0.06-0.15,0.14-0.29,0.19-0.45c0.06-0.14-0.05,0-0.06,0.01c0.1-0.04,0.23-0.04,0.34-0.05
					c0.57-0.09,1.13-0.18,1.7-0.27c1.75-0.28,3.5-0.57,5.24-0.85c1.16-0.19,2.32-0.38,3.48-0.56c0.24-0.04,0.14-0.41-0.1-0.37
					c-2.81,0.45-5.61,0.91-8.42,1.36c-0.62,0.1-1.23,0.2-1.85,0.3c-0.28,0.05-0.49,0.02-0.66,0.25c-0.19,0.26-0.29,0.65-0.41,0.94
					c-0.12,0.27-0.28,0.55-0.37,0.84c-0.13,0.42-0.17,0.89-0.26,1.33c-0.31,1.59-0.62,3.18-0.93,4.76
					C364.01,106.21,364.38,106.32,364.43,106.07L364.43,106.07z"/>
			</g>
		</g>
		<g>
			<g>
				<path class="st1" d="M420.99,111.27c-0.12-2.3-0.24-4.61-0.35-6.91c-0.01-0.21,0.03-0.48-0.12-0.64
					c-0.18-0.19-0.54-0.31-0.76-0.44c-1.23-0.71-2.46-1.41-3.69-2.12c-0.93-0.53-1.85-1.06-2.78-1.59
					c-0.21-0.12-0.41,0.21-0.19,0.33c1.99,1.14,3.98,2.28,5.97,3.42c0.36,0.21,0.74,0.5,1.12,0.64c0.25,0.1-0.02,0.09,0.05-0.08
					c-0.03,0.07,0.01,0.23,0.02,0.31c0.06,1.26,0.13,2.52,0.19,3.78c0.06,1.1,0.11,2.2,0.17,3.29
					C420.62,111.51,421,111.51,420.99,111.27L420.99,111.27z"/>
			</g>
		</g>
		<g>
			<g>
				<path class="st1" d="M393.5,79.47c0.13,1.69-0.49,3.34-1.72,4.5c-0.18,0.17,0.09,0.44,0.27,0.27c1.3-1.23,1.97-2.99,1.83-4.77
					C393.86,79.23,393.48,79.23,393.5,79.47L393.5,79.47z"/>
			</g>
		</g>
		<g>
			<g>
				<path class="st1" d="M397.03,84.52c-0.43,0.32-0.9,0.57-1.4,0.76c-0.4,0.15-0.87,0.38-1.3,0.42c-0.32,0.03-0.62-0.18-0.88-0.34
					c-0.57-0.34-1.12-0.7-1.68-1.07c-0.21-0.14-0.4,0.2-0.19,0.33c0.59,0.39,1.18,0.77,1.78,1.13c0.29,0.17,0.61,0.35,0.97,0.33
					c0.46-0.03,0.94-0.26,1.36-0.41c0.55-0.2,1.06-0.46,1.53-0.81C397.42,84.71,397.23,84.37,397.03,84.52L397.03,84.52z"/>
			</g>
		</g>
		<g>
			<g>
				<path class="st1" d="M392.75,77.63c-0.55-0.51-1.19-0.76-1.95-0.76c-0.52,0-1.05,0.08-1.56,0.2c-0.3,0.08-0.68,0.15-0.93,0.34
					c-0.2,0.14-0.01,0.48,0.19,0.33c0.22-0.16,0.53-0.22,0.78-0.29c0.47-0.12,0.96-0.2,1.44-0.21c0.68-0.01,1.26,0.19,1.75,0.65
					C392.66,78.06,392.93,77.79,392.75,77.63L392.75,77.63z"/>
			</g>
		</g>
		<g>
			<g>
				<path class="st1" d="M396.93,78.22c0.67-0.26,1.38-0.44,2.1-0.49c0.84-0.05,1.55,0.28,2.07,0.94c0.15,0.19,0.42-0.08,0.27-0.27
					c-0.53-0.68-1.32-1.09-2.19-1.06c-0.8,0.02-1.61,0.22-2.35,0.51C396.6,77.94,396.7,78.31,396.93,78.22L396.93,78.22z"/>
			</g>
		</g>
		<g>
			<g>
				<path class="st1" d="M396.4,80.35c1.25-1.16,3.42-1.41,4.6,0c0.01-0.1,0.03-0.2,0.04-0.3c-1.45,0.9-3.19,0.69-4.67,0
					c-0.22-0.1-0.42,0.23-0.19,0.33c1.61,0.74,3.49,0.97,5.06,0c0.11-0.07,0.12-0.21,0.04-0.3c-0.7-0.84-1.79-1.16-2.85-1.05
					c-0.87,0.08-1.65,0.46-2.29,1.05C395.95,80.24,396.22,80.51,396.4,80.35z"/>
			</g>
		</g>
		<g>
			<g>
				<path class="st1" d="M392.77,79.99c-0.47-0.65-1.13-1.11-1.9-1.33c-0.91-0.25-1.87,0.01-2.53,0.68
					c-0.09,0.09-0.07,0.23,0.04,0.3c1.27,0.8,2.83,0.83,4.28,0.63c0.24-0.03,0.14-0.4-0.1-0.37c-1.35,0.19-2.8,0.16-3.98-0.59
					c0.01,0.1,0.03,0.2,0.04,0.3c0.58-0.6,1.4-0.8,2.2-0.57c0.66,0.19,1.23,0.58,1.63,1.14C392.58,80.38,392.92,80.19,392.77,79.99z
					"/>
			</g>
		</g>
		<g>
			<g>
				<path class="st1" d="M387.07,88.86c1.19,2.99,3.4,6.13,6.94,6.15c3.05,0.02,5.65-2.37,6.87-5c0.1-0.22-0.23-0.42-0.33-0.19
					c-1.16,2.49-3.58,4.79-6.48,4.81c-3.37,0.02-5.51-3.04-6.63-5.87C387.35,88.53,386.98,88.63,387.07,88.86L387.07,88.86z"/>
			</g>
		</g>
		<g>
			<g>
				<path class="st1" d="M390.03,87.63c-0.05,0.07,0.06,0.01,0.14,0c0.13-0.02,0.26-0.01,0.38-0.01c0.43-0.01,0.86,0,1.29,0.01
					c0.37,0.01,0.73,0.03,1.1,0.11c0.3,0.06,0.57,0.18,0.87,0.23c0.7,0.13,1.32-0.05,2-0.16c0.81-0.13,1.64,0.03,2.41,0.28
					c-0.04-0.09-0.08-0.19-0.11-0.28c-0.89,1.48-2.55,2.37-4.29,2.15c-0.88-0.11-1.72-0.45-2.46-0.93c-0.35-0.23-0.69-0.5-0.97-0.82
					c-0.12-0.13-0.42-0.43-0.34-0.63c0.09-0.23-0.28-0.33-0.37-0.1c-0.22,0.58,0.71,1.29,1.07,1.57c0.82,0.64,1.8,1.09,2.83,1.26
					c1.95,0.31,3.85-0.63,4.85-2.31c0.07-0.11,0-0.24-0.11-0.28c-0.79-0.26-1.63-0.41-2.46-0.3c-0.31,0.04-0.61,0.13-0.91,0.18
					c-0.49,0.08-0.96,0.04-1.42-0.1c-0.75-0.23-1.51-0.25-2.29-0.26c-0.37,0-1.27-0.16-1.54,0.2
					C389.55,87.64,389.88,87.83,390.03,87.63z"/>
			</g>
		</g>
		<g>
			<g>
				<path class="st1" d="M386.58,84.9c0.03-0.76,0.07-1.52,0.1-2.28c0.01-0.25-0.37-0.25-0.38,0c-0.03,0.76-0.07,1.52-0.1,2.28
					C386.18,85.15,386.56,85.15,386.58,84.9L386.58,84.9z"/>
			</g>
		</g>
		<g>
			<g>
				<path class="st1" d="M402.47,84.04c-0.05,0.38-0.1,0.75-0.16,1.13c-0.01,0.1,0.02,0.21,0.13,0.24c0.09,0.02,0.22-0.03,0.24-0.13
					c0.05-0.38,0.1-0.75,0.16-1.13c0.01-0.1-0.02-0.21-0.13-0.24C402.62,83.89,402.49,83.93,402.47,84.04L402.47,84.04z"/>
			</g>
		</g>
		<g>
			<g>
				<path class="st1" d="M378.56,93.77c1.24,0.06,2.46-0.31,3.37-1.18c1.04-1,1.83-2.27,2.41-3.59c0.1-0.22-0.23-0.42-0.33-0.19
					c-0.54,1.25-1.27,2.44-2.24,3.4c-0.86,0.86-2,1.23-3.2,1.17C378.31,93.37,378.31,93.75,378.56,93.77L378.56,93.77z"/>
			</g>
		</g>
		<g>
			<g>
				<path class="st1" d="M379.13,92.09c1.86-0.8,3.38-2.22,4.35-3.99c0.12-0.22-0.21-0.41-0.33-0.19c-0.94,1.72-2.41,3.07-4.21,3.85
					C378.71,91.86,378.91,92.19,379.13,92.09L379.13,92.09z"/>
			</g>
		</g>
		<g>
			<g>
				<path class="st1" d="M393.98,66.79c-4.87,1.79-8.1,6.31-8.43,11.46c-0.02,0.25,0.37,0.24,0.38,0c0.32-4.97,3.44-9.36,8.15-11.09
					C394.31,67.07,394.21,66.7,393.98,66.79L393.98,66.79z"/>
			</g>
		</g>
		<g>
			<g>
				<path class="st1" d="M391.61,65.76c-4.22,2.33-6.92,6.55-7.53,11.29c-0.03,0.24,0.35,0.24,0.38,0c0.6-4.61,3.25-8.7,7.35-10.96
					C392.02,65.97,391.82,65.64,391.61,65.76L391.61,65.76z"/>
			</g>
		</g>
		<g>
			<g>
				<path class="st1" d="M384.89,70.25c-2.36,2.94-3.56,6.65-3.34,10.43c0.01,0.24,0.4,0.25,0.38,0c-0.22-3.67,0.93-7.29,3.22-10.16
					C385.31,70.33,385.04,70.06,384.89,70.25L384.89,70.25z"/>
			</g>
		</g>
		<g>
			<g>
				<path class="st1" d="M384.83,78.73c-0.51,1.44-1.02,2.88-1.53,4.32c-0.08,0.23,0.29,0.33,0.37,0.1
					c0.51-1.44,1.02-2.88,1.53-4.32C385.28,78.6,384.91,78.5,384.83,78.73L384.83,78.73z"/>
			</g>
		</g>
		<g>
			<g>
				<path class="st1" d="M384.82,90.64c-1.34,2.11-3.54,3.55-6,3.97c-0.24,0.04-0.14,0.41,0.1,0.37c2.56-0.44,4.84-1.96,6.23-4.15
					C385.29,90.62,384.95,90.43,384.82,90.64L384.82,90.64z"/>
			</g>
		</g>
		<g>
			<g>
				<path class="st1" d="M382.01,82.24c-0.11,1.25-0.23,2.5-0.34,3.75c-0.02,0.24,0.36,0.24,0.38,0c0.11-1.25,0.23-2.5,0.34-3.75
					C382.42,81.99,382.04,81.99,382.01,82.24L382.01,82.24z"/>
			</g>
		</g>
		<g>
			<g>
				<path class="st1" d="M399.61,67.59c2.75,1.04,4.81,3.36,5.33,6.28c0.32,1.83,0.1,3.85-0.58,5.58c-0.09,0.23,0.28,0.33,0.37,0.1
					c0.75-1.9,0.95-4.14,0.51-6.13c-0.63-2.91-2.78-5.16-5.52-6.2C399.48,67.14,399.38,67.51,399.61,67.59L399.61,67.59z"/>
			</g>
		</g>
		<g>
			<g>
				<path class="st1" d="M401.19,67.19c2.72,1.82,4.66,4.6,5.4,7.8c0.06,0.24,0.42,0.14,0.37-0.1c-0.76-3.29-2.77-6.15-5.57-8.02
					C401.18,66.72,400.98,67.06,401.19,67.19L401.19,67.19z"/>
			</g>
		</g>
		<g>
			<g>
				<path class="st1" d="M406.09,77.77c-0.19,2.62-0.5,5.22-0.93,7.81c-0.04,0.24,0.33,0.34,0.37,0.1c0.44-2.62,0.76-5.26,0.95-7.91
					C406.49,77.52,406.11,77.52,406.09,77.77L406.09,77.77z"/>
			</g>
		</g>
		<g>
			<g>
				<path class="st1" d="M407.09,77.12c1.04,2.4,1.12,5.13,0.26,7.59c-0.08,0.23,0.29,0.33,0.37,0.1c0.9-2.57,0.78-5.39-0.3-7.89
					C407.33,76.7,407,76.9,407.09,77.12L407.09,77.12z"/>
			</g>
		</g>
		<g>
			<g>
				<path class="st1" d="M406.71,86.85c-0.53,1.56-1.85,2.72-3.48,3.02c-0.24,0.04-0.14,0.41,0.1,0.37c1.77-0.32,3.17-1.6,3.75-3.28
					C407.16,86.72,406.79,86.62,406.71,86.85L406.71,86.85z"/>
			</g>
		</g>
		<g>
			<g>
				<path class="st1" d="M402.18,91.71c-0.09,0.98,0.25,1.94,1.33,2.08c0.67,0.09,1.37-0.07,2.02-0.21
					c0.63-0.13,1.24-0.33,1.82-0.59c0.22-0.1,0.03-0.43-0.19-0.33c-0.5,0.22-1.02,0.39-1.55,0.51c-0.59,0.13-1.22,0.27-1.84,0.25
					c-0.37-0.01-0.76-0.11-0.98-0.43c-0.26-0.37-0.27-0.86-0.23-1.3C402.59,91.46,402.2,91.46,402.18,91.71L402.18,91.71z"/>
			</g>
		</g>
		<g>
			<g>
				<path class="st1" d="M401.52,95.22c0.46,0.91,1.34,1.65,2.32,1.91c1.58,0.42,3.21-0.38,4.04-1.74c0.13-0.21-0.2-0.4-0.33-0.19
					c-0.78,1.27-2.32,1.99-3.77,1.52c-0.82-0.26-1.54-0.92-1.93-1.69C401.74,94.81,401.41,95,401.52,95.22L401.52,95.22z"/>
			</g>
		</g>
		<g>
			<g>
				<path class="st1" d="M402.86,94.82c1.64-0.05,3.26-0.34,4.82-0.86c0.23-0.08,0.13-0.45-0.1-0.37c-1.52,0.51-3.11,0.8-4.72,0.85
					C402.62,94.44,402.62,94.82,402.86,94.82L402.86,94.82z"/>
			</g>
		</g>
		<g>
			<g>
				<path class="st1" d="M405.48,99.05c1.75-0.52,3.42-1.3,4.94-2.3c0.2-0.13,0.01-0.47-0.19-0.33c-1.5,0.99-3.13,1.75-4.85,2.26
					C405.14,98.75,405.24,99.12,405.48,99.05L405.48,99.05z"/>
			</g>
		</g>
		<g>
			<g>
				<path class="st1" d="M409.31,100.16c1.2-0.28,2.07-1.35,2.1-2.58c0.01-0.25-0.38-0.25-0.38,0c-0.03,1.06-0.79,1.97-1.82,2.21
					C408.97,99.84,409.07,100.21,409.31,100.16L409.31,100.16z"/>
			</g>
		</g>
		<g>
			<polyline class="st2" points="409.84,110.48 406.36,105.96 409.38,105.08 408.87,101.51 402.31,99.42 399.08,111.52 			"/>
			<g>
				<path class="st1" d="M410,110.39c-1.16-1.51-2.32-3.01-3.48-4.52c-0.04,0.09-0.08,0.19-0.11,0.28c1.01-0.29,2.01-0.59,3.02-0.88
					c0.11-0.03,0.15-0.13,0.13-0.24c-0.17-1.19-0.34-2.38-0.51-3.58c-0.01-0.07-0.08-0.12-0.13-0.13c-2.19-0.7-4.37-1.39-6.56-2.09
					c-0.1-0.03-0.21,0.04-0.24,0.13c-0.94,3.53-1.89,7.05-2.83,10.58c-0.13,0.5-0.27,1.01-0.4,1.51c-0.06,0.24,0.31,0.34,0.37,0.1
					c0.94-3.53,1.89-7.05,2.83-10.58c0.13-0.5,0.27-1.01,0.4-1.51c-0.08,0.04-0.16,0.09-0.24,0.13c1.38,0.44,2.75,0.88,4.13,1.31
					c0.73,0.23,1.46,0.46,2.19,0.69c0.05,0.02,0.15,0.07,0.2,0.06c0.06-0.01-0.04-0.13-0.08-0.06c-0.09,0.15,0.11,0.8,0.14,0.97
					c0.12,0.85,0.24,1.69,0.36,2.54c0.04-0.08,0.09-0.16,0.13-0.24c-1.01,0.29-2.01,0.59-3.02,0.88c-0.11,0.03-0.19,0.18-0.11,0.28
					c1.16,1.51,2.32,3.01,3.48,4.52C409.82,110.77,410.15,110.58,410,110.39L410,110.39z"/>
			</g>
		</g>
	</g>
	<circle class="st65" cx="394.67" cy="84.4" r="21.43"/>
</g>
<g>
	<g>
		<path d="M534.85,19.62l2.44-13.65l3.87,0.69c1.25,0.22,2.17,0.71,2.76,1.46s0.79,1.68,0.59,2.79c-0.11,0.62-0.34,1.14-0.68,1.56
			c-0.34,0.41-0.78,0.71-1.3,0.87c-0.52,0.16-1.12,0.18-1.79,0.05l0.05-0.28c0.72,0.12,1.33,0.37,1.8,0.75
			c0.48,0.38,0.82,0.87,1.01,1.46c0.2,0.59,0.23,1.25,0.1,1.99c-0.14,0.77-0.42,1.42-0.85,1.93c-0.43,0.52-0.97,0.87-1.62,1.07
			c-0.65,0.2-1.4,0.22-2.23,0.07L534.85,19.62z M536.77,18.4l2.32,0.41c0.79,0.14,1.44,0.04,1.97-0.29
			c0.53-0.34,0.86-0.87,0.99-1.59c0.13-0.75,0.01-1.4-0.36-1.95c-0.37-0.55-0.95-0.89-1.74-1.03l-2.32-0.41L536.77,18.4z
			 M537.9,12.08l2.21,0.39c0.72,0.13,1.33,0.04,1.82-0.27c0.49-0.31,0.79-0.8,0.91-1.46c0.12-0.66,0.01-1.22-0.34-1.68
			c-0.34-0.46-0.88-0.75-1.6-0.88l-2.23-0.4L537.9,12.08z"/>
		<path d="M545.92,21.6l0.27-1.53l3.65,0.65l1.29-7.22l-3.18-0.57l0.27-1.54l4.86,0.87l-1.56,8.75l3.46,0.62l-0.27,1.53L545.92,21.6
			z M552.39,10.23c-0.41-0.07-0.72-0.24-0.92-0.49s-0.27-0.56-0.2-0.92c0.07-0.37,0.24-0.65,0.51-0.83s0.62-0.23,1.03-0.15
			c0.41,0.07,0.72,0.24,0.91,0.5c0.2,0.26,0.26,0.58,0.2,0.95c-0.07,0.36-0.23,0.63-0.51,0.8C553.15,10.26,552.8,10.3,552.39,10.23z
			"/>
		<path d="M560.53,24.4c-1.02-0.18-1.79-0.67-2.29-1.47c-0.51-0.8-0.66-1.78-0.45-2.95l0.54-3.01c0.21-1.18,0.69-2.06,1.44-2.64
			c0.75-0.57,1.64-0.77,2.67-0.58c0.85,0.15,1.49,0.5,1.92,1.06c0.43,0.55,0.58,1.21,0.44,1.99l-0.27-0.45l0.38,0.07l0.38-2.34
			l0.53-2.99l1.68,0.3l-2.44,13.65l-1.68-0.3l0.35-1.96l-0.34-0.06l0.41-0.33c-0.14,0.79-0.51,1.36-1.1,1.72
			C562.1,24.45,561.38,24.55,560.53,24.4z M561.36,23.04c0.7,0.12,1.29,0,1.76-0.36c0.48-0.36,0.79-0.93,0.92-1.71l0.5-2.81
			c0.14-0.77,0.05-1.41-0.28-1.92c-0.32-0.51-0.83-0.83-1.53-0.95c-0.71-0.13-1.31-0.01-1.8,0.34s-0.8,0.92-0.94,1.72l-0.5,2.81
			c-0.14,0.8-0.05,1.45,0.29,1.94C560.12,22.61,560.65,22.92,561.36,23.04z"/>
		<path d="M572.36,26.51c-0.81-0.14-1.49-0.43-2.04-0.87c-0.55-0.43-0.93-0.97-1.16-1.63c-0.22-0.65-0.27-1.37-0.13-2.15l0.5-2.81
			c0.14-0.8,0.43-1.46,0.87-1.99c0.44-0.53,0.98-0.9,1.65-1.12c0.66-0.22,1.4-0.25,2.21-0.11s1.49,0.43,2.04,0.86
			c0.55,0.43,0.93,0.97,1.16,1.62c0.23,0.64,0.27,1.37,0.13,2.16l-0.32,1.82l-6.4-1.14l-0.18,0.99c-0.14,0.81-0.05,1.47,0.29,1.97
			c0.33,0.5,0.88,0.82,1.64,0.96c0.65,0.12,1.19,0.09,1.63-0.07c0.44-0.16,0.75-0.46,0.92-0.91l1.68,0.3
			c-0.27,0.84-0.81,1.45-1.63,1.82C574.39,26.62,573.44,26.71,572.36,26.51z M575.81,20.9l0.12-0.69c0.14-0.81,0.05-1.47-0.27-1.98
			c-0.33-0.51-0.88-0.83-1.65-0.97c-0.76-0.14-1.39-0.02-1.88,0.34c-0.49,0.36-0.81,0.95-0.95,1.76l-0.1,0.54l4.88,0.87L575.81,20.9
			z"/>
		<path d="M579.72,27.64l1.84-10.29l1.68,0.3l-0.35,1.96l0.36,0.06l-0.43,0.33c0.14-0.81,0.5-1.39,1.06-1.75s1.28-0.46,2.14-0.3
			c1.04,0.18,1.8,0.65,2.3,1.39c0.5,0.75,0.65,1.67,0.45,2.76l-1.24,6.92l-1.68-0.3l1.2-6.73c0.13-0.74,0.03-1.33-0.29-1.8
			c-0.32-0.46-0.82-0.75-1.49-0.88c-0.7-0.12-1.29-0.01-1.77,0.34s-0.79,0.93-0.93,1.72l-1.17,6.55L579.72,27.64z"/>
		<path d="M533.95,14.64l0.17-0.93l56.11,10.01l-0.17,0.94L533.95,14.64z"/>
		<path d="M522.83,86.96l2.44-13.65l1.68,0.3l-1.04,5.84l4.38,0.78l1.04-5.84l1.68,0.3l-2.44,13.65l-1.68-0.3l1.12-6.28l-4.38-0.78
			l-1.12,6.28L522.83,86.96z"/>
		<path d="M536.99,89.68c-1.09-0.19-1.89-0.62-2.42-1.29c-0.52-0.67-0.7-1.47-0.53-2.42c0.17-0.96,0.62-1.66,1.34-2.1
			c0.72-0.44,1.61-0.56,2.67-0.37l3.18,0.57l0.18-1.03c0.11-0.64,0.01-1.16-0.31-1.57c-0.32-0.41-0.83-0.68-1.53-0.8
			c-0.61-0.11-1.15-0.07-1.6,0.11c-0.46,0.18-0.75,0.49-0.9,0.91l-1.68-0.3c0.27-0.86,0.81-1.49,1.63-1.89
			c0.82-0.39,1.77-0.49,2.85-0.3c1.18,0.21,2.06,0.68,2.64,1.42c0.58,0.73,0.77,1.62,0.59,2.67l-1.26,7.07l-1.65-0.29l0.35-1.96
			l-0.28-0.05l0.33-0.23c-0.13,0.75-0.53,1.29-1.19,1.62C538.76,89.77,537.95,89.85,536.99,89.68z M537.64,88.43
			c0.8,0.14,1.49,0.06,2.07-0.25c0.58-0.31,0.93-0.77,1.04-1.4l0.26-1.46l-3.14-0.56c-0.56-0.1-1.03-0.02-1.41,0.23
			c-0.38,0.25-0.62,0.65-0.71,1.19c-0.1,0.57,0.01,1.06,0.35,1.46C536.43,88.04,536.94,88.3,537.64,88.43z"/>
		<path d="M545.61,91.03l1.84-10.29l1.65,0.29L548.74,83l0.39,0.07l-0.76,1.12c0.2-1.11,0.59-1.91,1.17-2.39
			c0.58-0.48,1.35-0.64,2.29-0.47c1.08,0.19,1.89,0.69,2.41,1.48c0.52,0.79,0.68,1.77,0.47,2.93l-0.11,0.62l-1.68-0.3l0.08-0.47
			c0.14-0.81,0.06-1.47-0.26-1.96c-0.32-0.5-0.84-0.82-1.56-0.95c-0.71-0.13-1.31-0.01-1.79,0.36c-0.48,0.36-0.8,0.95-0.94,1.74
			l-1.17,6.55L545.61,91.03z"/>
		<path d="M556.83,93.03l1.84-10.29l1.65,0.29L559.96,85l0.39,0.07l-0.76,1.12c0.2-1.11,0.59-1.91,1.17-2.39s1.35-0.64,2.29-0.47
			c1.08,0.19,1.89,0.69,2.41,1.48c0.52,0.79,0.68,1.77,0.47,2.93l-0.11,0.62l-1.68-0.3l0.08-0.47c0.14-0.81,0.06-1.47-0.26-1.96
			c-0.32-0.5-0.84-0.82-1.56-0.94c-0.71-0.13-1.31-0.01-1.79,0.36c-0.48,0.36-0.79,0.95-0.94,1.74l-1.17,6.55L556.83,93.03z"/>
		<path d="M567.57,94.95l0.27-1.53l3.65,0.65l1.29-7.22l-3.18-0.57l0.27-1.53l4.86,0.87l-1.56,8.75l3.46,0.62l-0.27,1.53
			L567.57,94.95z M574.04,83.58c-0.41-0.07-0.72-0.24-0.92-0.49s-0.27-0.56-0.2-0.92c0.07-0.37,0.24-0.65,0.51-0.83
			c0.28-0.18,0.62-0.23,1.03-0.15c0.41,0.07,0.72,0.24,0.91,0.5c0.2,0.26,0.26,0.58,0.2,0.95c-0.07,0.36-0.23,0.63-0.51,0.8
			C574.79,83.6,574.45,83.65,574.04,83.58z"/>
		<path d="M582.47,97.76c-0.7-0.12-1.29-0.34-1.77-0.65c-0.48-0.31-0.83-0.69-1.07-1.15c-0.23-0.45-0.33-0.96-0.3-1.52l1.68,0.3
			c0.01,0.38,0.16,0.7,0.45,0.97c0.29,0.27,0.71,0.46,1.26,0.55l0.79,0.14c0.66,0.12,1.18,0.07,1.55-0.14
			c0.37-0.21,0.6-0.54,0.68-0.99c0.08-0.44-0.01-0.81-0.25-1.12c-0.25-0.31-0.65-0.56-1.21-0.75l-1.34-0.47
			c-0.98-0.35-1.67-0.8-2.09-1.35c-0.41-0.54-0.54-1.25-0.38-2.12c0.17-0.92,0.58-1.58,1.26-1.98c0.68-0.4,1.6-0.5,2.77-0.29
			l0.71,0.13c0.99,0.18,1.74,0.55,2.25,1.12c0.52,0.57,0.77,1.26,0.75,2.07l-1.68-0.3c-0.02-0.34-0.16-0.63-0.42-0.88
			c-0.26-0.25-0.65-0.42-1.16-0.51l-0.71-0.13c-0.64-0.11-1.12-0.08-1.46,0.11c-0.33,0.18-0.54,0.51-0.63,0.99
			c-0.08,0.42-0.01,0.76,0.21,1c0.21,0.25,0.58,0.46,1.1,0.64l1.34,0.47c1.08,0.37,1.83,0.84,2.25,1.41s0.55,1.29,0.39,2.19
			c-0.17,0.95-0.6,1.64-1.31,2.07c-0.7,0.44-1.66,0.54-2.89,0.33L582.47,97.76z"/>
	</g>
</g>
</svg>
