<?xml version="1.0" encoding="utf-8"?>
<!-- Generator: Adobe Illustrator 24.1.0, SVG Export Plug-In . SVG Version: 6.00 Build 0)  -->
<svg version="1.1" id="Layer_1" xmlns="http://www.w3.org/2000/svg" xmlns:xlink="http://www.w3.org/1999/xlink" x="0px" y="0px"
	 viewBox="0 0 700 100" style="enable-background:new 0 0 700 100;" xml:space="preserve">
<style type="text/css">
	.st0{fill:#FC474E;}
	.st1{stroke:#000000;stroke-width:0.2374;stroke-miterlimit:10;}
	.st2{stroke:#000000;stroke-width:0.2459;stroke-miterlimit:10;}
	.st3{stroke:#000000;stroke-width:0.1669;stroke-miterlimit:10;}
	.st4{stroke:#000000;stroke-width:0.22;stroke-miterlimit:10;}
	.st5{stroke:#000000;stroke-width:0.2395;stroke-miterlimit:10;}
	.st6{stroke:#000000;stroke-width:0.2418;stroke-miterlimit:10;}
	.st7{stroke:#000000;stroke-width:0.2676;stroke-miterlimit:10;}
	.st8{stroke:#000000;stroke-width:0.2516;stroke-miterlimit:10;}
	.st9{fill:none;stroke:#000000;stroke-width:0.4917;stroke-miterlimit:10;}
	.st10{fill:#339AFF;}
	.st11{fill:#FFFFFF;}
	.st12{fill:#F16667;}
	.st13{fill:#C77BF6;}
	.st14{stroke:#000000;stroke-width:0.2702;stroke-miterlimit:10;}
	.st15{stroke:#000000;stroke-width:0.2799;stroke-miterlimit:10;}
	.st16{stroke:#000000;stroke-width:0.19;stroke-miterlimit:10;}
	.st17{stroke:#000000;stroke-width:0.2504;stroke-miterlimit:10;}
	.st18{stroke:#000000;stroke-width:0.2727;stroke-miterlimit:10;}
	.st19{stroke:#000000;stroke-width:0.2753;stroke-miterlimit:10;}
	.st20{stroke:#000000;stroke-width:0.3046;stroke-miterlimit:10;}
	.st21{stroke:#000000;stroke-width:0.2864;stroke-miterlimit:10;}
	.st22{fill:none;stroke:#000000;stroke-width:0.5597;stroke-miterlimit:10;}
	.st23{stroke:#000000;stroke-width:0.1874;stroke-miterlimit:10;}
	.st24{stroke:#000000;stroke-width:0.1941;stroke-miterlimit:10;}
	.st25{stroke:#000000;stroke-width:0.1318;stroke-miterlimit:10;}
	.st26{stroke:#000000;stroke-width:0.1737;stroke-miterlimit:10;}
	.st27{stroke:#000000;stroke-width:0.1891;stroke-miterlimit:10;}
	.st28{stroke:#000000;stroke-width:0.1909;stroke-miterlimit:10;}
	.st29{stroke:#000000;stroke-width:0.2113;stroke-miterlimit:10;}
	.st30{stroke:#000000;stroke-width:0.1987;stroke-miterlimit:10;}
	.st31{fill:none;stroke:#000000;stroke-width:0.3882;stroke-miterlimit:10;}
	.st32{fill:#231F20;}
	.st33{fill:#4773B7;}
	.st34{stroke:#000000;stroke-width:0.1856;stroke-miterlimit:10;}
	.st35{stroke:#000000;stroke-width:0.1922;stroke-miterlimit:10;}
	.st36{stroke:#000000;stroke-width:0.1305;stroke-miterlimit:10;}
	.st37{stroke:#000000;stroke-width:0.172;stroke-miterlimit:10;}
	.st38{stroke:#000000;stroke-width:0.1873;stroke-miterlimit:10;}
	.st39{stroke:#000000;stroke-width:0.2092;stroke-miterlimit:10;}
	.st40{stroke:#000000;stroke-width:0.1968;stroke-miterlimit:10;}
	.st41{fill:none;stroke:#000000;stroke-width:0.3845;stroke-miterlimit:10;}
	.st42{stroke:#000000;stroke-width:0.5379;stroke-miterlimit:10;}
	.st43{stroke:#000000;stroke-width:0.5571;stroke-miterlimit:10;}
	.st44{stroke:#000000;stroke-width:0.3781;stroke-miterlimit:10;}
	.st45{stroke:#000000;stroke-width:0.4985;stroke-miterlimit:10;}
	.st46{stroke:#000000;stroke-width:0.5427;stroke-miterlimit:10;}
	.st47{stroke:#000000;stroke-width:0.5479;stroke-miterlimit:10;}
	.st48{stroke:#000000;stroke-width:0.6063;stroke-miterlimit:10;}
	.st49{stroke:#000000;stroke-width:0.5701;stroke-miterlimit:10;}
	.st50{fill:none;stroke:#000000;stroke-width:1.1141;stroke-miterlimit:10;}
	.st51{stroke:#000000;stroke-width:0.4885;stroke-miterlimit:10;}
	.st52{stroke:#000000;stroke-width:0.506;stroke-miterlimit:10;}
	.st53{stroke:#000000;stroke-width:0.3435;stroke-miterlimit:10;}
	.st54{stroke:#000000;stroke-width:0.4528;stroke-miterlimit:10;}
	.st55{stroke:#000000;stroke-width:0.493;stroke-miterlimit:10;}
	.st56{stroke:#000000;stroke-width:0.4977;stroke-miterlimit:10;}
	.st57{stroke:#000000;stroke-width:0.5507;stroke-miterlimit:10;}
	.st58{stroke:#000000;stroke-width:0.5179;stroke-miterlimit:10;}
	.st59{fill:none;stroke:#000000;stroke-width:1.0119;stroke-miterlimit:10;}
</style>
<g>
	<path class="st0" d="M-2.18,100.26c0.86-0.59,2.64-1.96,2.65-2.31c0.01-0.33-0.14-0.46-0.62-1.57c-0.43-1.02-0.48-1.26-0.36-1.42
		c0.13-0.18,0.34-0.11,0.84-0.17c0.87-0.1,0.96-0.39,2.28-0.74c0.54-0.14,0.82-0.21,1.09-0.16c0.77,0.13,1.22,0.81,1.41,1.1
		c0.45,0.66,0.13,0.72,0.71,2.46c0.12,0.36,0.22,0.63,0.09,0.87c-0.16,0.28-0.5,0.3-1.1,0.44c-0.52,0.12-1.33,0.31-1.83,0.68
		c-0.32,0.23-1.12,2.18-1.32,3.08"/>
	<g>
		<g>
			<path class="st1" d="M-0.15,85.12c0.2,0.88,0.49,1.69,0.88,2.52c0.46,0.99,0.91,1.97,1.28,3.01c0.39,1.12,0.8,2.25,1.54,3.21
				c0.18,0.24,0.39,0.51,0.65,0.68c0.33,0.21,0.8,0.22,1.19,0.24c1.93,0.09,3.82-0.43,5.67-0.92c0.94-0.24,1.85-0.5,2.77-0.78
				c0.8-0.24,1.52-0.58,2.24-1.03c0.95-0.61,1.86-1.33,2.67-2.11c0.71-0.7,1.17-1.6,1.58-2.5c0.03-0.08,0.07-0.16,0.1-0.24
				c-0.05,0.03-0.11,0.07-0.15,0.1c0.34,0.02,0.71,0.02,1.04-0.1c0.4-0.14,0.74-0.42,1.01-0.73c0.57-0.62,1.11-1.29,1.65-1.95
				c0.49-0.6,0.94-1.23,1.51-1.75c0.29-0.26,0.63-0.48,0.91-0.77c0.14-0.15,0.25-0.32,0.35-0.5c0.23-0.42,0.42-0.85,0.61-1.29
				c0.28-0.62,0.52-1.24,0.76-1.87c0.02-0.03,0.06-0.12,0.01-0.05c0.03-0.08,0.07-0.16,0.1-0.23c0.14-0.33,0.29-0.64,0.45-0.96
				c0.16-0.34,0.35-0.66,0.51-1.01c0.16-0.39,0.3-0.79,0.45-1.17c0.1-0.25,0.23-0.63,0.46-0.78c0.18-0.12,0.46-0.02,0.65,0.02
				c0.6,0.15,1.25,0.29,1.78-0.15c0.47-0.39,0.61-1.04,0.63-1.61c0.03-0.81-0.12-1.63-0.33-2.42c-0.89-3.43-2.93-6.43-5.61-8.73
				c-1.49-1.28-3.2-2.37-5-3.17c-1.27-0.55-2.55-1.07-3.91-1.39c-1.69-0.39-3.45-0.5-5.16-0.18c-3.11,0.58-5.77,2.44-7.84,4.75
				c-1.05,1.19-1.97,2.49-2.76,3.87c-0.68,1.17-1.33,2.33-1.56,3.68c-0.26,1.48-0.85,2.87-1.21,4.34c-0.1,0.42-0.2,0.87-0.16,1.3
				c0.03,0.55,0.14,1.27,0.59,1.64c0.27,0.22,0.61,0.23,0.92,0.15c0.07-0.02,0.14-0.05,0.22-0.06c0.03-0.01,0.12-0.02,0.14-0.03
				c-0.01,0.02,0.07-0.05,0.01-0.01c-0.01,0.01-0.04-0.03-0.02-0.04l-0.02,0.11c-0.11,0.33-0.36,0.62-0.54,0.91
				C0.62,77.56,0.37,78,0.18,78.47c-0.52,1.27-0.67,2.71-0.62,4.09C-0.46,83.4-0.34,84.27-0.15,85.12c0.06,0.23,0.4,0.12,0.33-0.1
				c-0.29-1.37-0.38-2.75-0.26-4.14c0.08-0.91,0.27-1.78,0.67-2.59c0.21-0.43,0.45-0.83,0.7-1.24c0.15-0.25,0.36-0.52,0.43-0.8
				c0.05-0.21-0.02-0.44-0.28-0.46c-0.24-0.02-0.47,0.14-0.72,0.16c-0.66,0.03-0.8-0.97-0.83-1.45c-0.03-0.41,0.06-0.81,0.15-1.21
				c0.19-0.79,0.44-1.57,0.7-2.35c0.21-0.63,0.39-1.26,0.49-1.92C1.36,68.5,1.47,68,1.67,67.51c0.3-0.74,0.69-1.42,1.08-2.1
				c0.47-0.79,0.96-1.59,1.5-2.33c1.61-2.2,3.7-4.17,6.19-5.33c1.65-0.77,3.47-1.13,5.29-1.06c1.55,0.06,3.09,0.46,4.54,1
				c1.74,0.66,3.41,1.46,4.94,2.53c2.67,1.83,4.92,4.29,6.28,7.24c0.38,0.81,0.68,1.66,0.91,2.53c0.21,0.78,0.37,1.6,0.34,2.41
				c-0.03,0.56-0.16,1.25-0.74,1.47c-0.57,0.23-1.12-0.12-1.68-0.17c-0.62-0.05-0.89,0.59-1.09,1.08c-0.15,0.37-0.28,0.76-0.44,1.12
				c-0.15,0.35-0.33,0.67-0.51,1.01c-0.47,0.97-0.84,1.99-1.26,2.99c-0.2,0.46-0.4,0.92-0.63,1.36c-0.09,0.16-0.19,0.33-0.31,0.46
				c-0.25,0.28-0.58,0.49-0.88,0.75c-0.56,0.52-1.02,1.12-1.5,1.71c-0.51,0.63-1.02,1.25-1.56,1.86c-0.27,0.31-0.56,0.63-0.96,0.77
				c-0.31,0.12-0.67,0.14-1,0.1c-0.05,0-0.13,0.04-0.15,0.1c-0.3,0.77-0.68,1.57-1.19,2.22c-0.28,0.35-0.6,0.65-0.94,0.93
				c-0.42,0.37-0.89,0.73-1.34,1.07c-0.76,0.55-1.57,1.07-2.45,1.37c-0.78,0.27-1.6,0.49-2.39,0.71c-0.99,0.26-1.99,0.52-2.98,0.76
				c-0.82,0.18-1.63,0.35-2.48,0.38c-0.5,0.02-1,0.03-1.49-0.04c-0.15-0.03-0.32-0.05-0.45-0.14c-0.09-0.06-0.18-0.17-0.26-0.26
				c-0.68-0.73-1.12-1.68-1.46-2.6c-0.41-1.13-0.82-2.26-1.34-3.35C0.9,87.3,0.55,86.58,0.33,85.8c-0.07-0.23-0.13-0.5-0.18-0.73
				C0.14,84.79-0.19,84.89-0.15,85.12z"/>
		</g>
	</g>
	<g>
		<g>
			<path class="st1" d="M8.83,59.31c0.61,1.16,1.3,2.27,1.99,3.37c0.48,0.76,0.95,1.5,1.46,2.22c0.44,0.62,0.9,1.26,1.42,1.82
				c0.55,0.6,1.2,1.1,1.87,1.55c0.8,0.53,1.65,0.96,2.55,1.32c2,0.82,4.11,1.39,6.18,1.99c2.14,0.61,4.28,1.19,6.45,1.61
				c0.28,0.06,0.55,0.11,0.84,0.16c0.22,0.04,0.31-0.31,0.08-0.35c-2.22-0.38-4.4-0.96-6.56-1.56c-0.92-0.26-1.86-0.53-2.79-0.81
				c-1.12-0.34-2.22-0.66-3.31-1.07c-1.73-0.64-3.44-1.5-4.77-2.81c-0.5-0.47-0.91-1.04-1.31-1.61c-0.52-0.71-0.99-1.44-1.47-2.17
				c-0.78-1.2-1.52-2.41-2.21-3.66c-0.04-0.08-0.09-0.15-0.12-0.22C9.03,58.93,8.73,59.11,8.83,59.31L8.83,59.31z"/>
		</g>
	</g>
	<g>
		<g>
			<path class="st1" d="M1.8,67.51c0.4,0.21,0.81,0.38,1.22,0.56c0.66,0.27,1.37,0.57,2.09,0.63c0.74,0.06,1.4-0.47,1.91-0.95
				c0.71-0.66,1.32-1.43,1.9-2.19c0.69-0.89,1.45-1.74,2.32-2.47c0.18-0.14-0.08-0.39-0.25-0.25c-0.76,0.63-1.44,1.37-2.07,2.15
				c-0.58,0.73-1.14,1.49-1.79,2.15c-0.3,0.31-0.61,0.62-0.98,0.85c-0.26,0.16-0.57,0.33-0.86,0.35s-0.58-0.07-0.87-0.16
				c-0.35-0.1-0.71-0.22-1.05-0.37c-0.48-0.2-0.96-0.41-1.42-0.64C1.76,67.09,1.59,67.4,1.8,67.51L1.8,67.51z"/>
		</g>
	</g>
	<g>
		<g>
			<path class="st1" d="M12.97,62.09c1.15,1.42,2.51,2.68,4.01,3.74c0.38,0.27,0.76,0.52,1.15,0.77c0.19,0.12,0.36-0.19,0.17-0.31
				c-1.53-0.95-2.92-2.09-4.15-3.39c-0.33-0.35-0.63-0.69-0.93-1.06C13.07,61.67,12.81,61.92,12.97,62.09L12.97,62.09z"/>
		</g>
	</g>
	<g>
		<g>
			<path class="st1" d="M14.88,61.24c1.36,2,3.09,3.72,5.08,5.08c0.54,0.37,1.1,0.71,1.67,1.02c0.19,0.11,0.37-0.2,0.17-0.31
				c-2.16-1.18-4.08-2.75-5.63-4.64c-0.36-0.42-0.68-0.87-0.99-1.33C15.06,60.88,14.76,61.06,14.88,61.24L14.88,61.24z"/>
		</g>
	</g>
	<g>
		<g>
			<path class="st1" d="M14.56,58.52c2.2,2.31,4.66,4.37,7.32,6.13c0.71,0.47,1.42,0.92,2.16,1.35c0.19,0.11,0.37-0.2,0.17-0.31
				c-2.78-1.6-5.36-3.52-7.7-5.71c-0.6-0.54-1.15-1.12-1.7-1.69C14.65,58.09,14.4,58.35,14.56,58.52L14.56,58.52z"/>
		</g>
	</g>
	<g>
		<g>
			<path class="st1" d="M21.11,65.29c2.08,1.95,4.44,3.6,6.98,4.87c0.8,0.39,1.61,0.74,2.45,1.07c0.21,0.08,0.3-0.27,0.08-0.35
				c-2.77-1.06-5.37-2.58-7.68-4.46c-0.55-0.45-1.08-0.91-1.59-1.39C21.19,64.87,20.94,65.13,21.11,65.29L21.11,65.29z"/>
		</g>
	</g>
	<g>
		<g>
			<path class="st1" d="M18.8,58.74c1.12,1.79,2.55,3.4,4.21,4.72c0.41,0.34,0.86,0.66,1.3,0.95c0.18,0.13,0.35-0.18,0.17-0.31
				c-1.73-1.16-3.26-2.61-4.51-4.28c-0.31-0.41-0.58-0.83-0.86-1.27C18.99,58.37,18.67,58.56,18.8,58.74L18.8,58.74z"/>
		</g>
	</g>
	<g>
		<g>
			<path class="st1" d="M25.72,63.79c0.57,2.11,1.85,3.97,3.61,5.25c0.35,0.26,0.72,0.48,1.09,0.69c0.19,0.11,0.37-0.2,0.17-0.31
				c-1.76-0.95-3.19-2.45-4.03-4.3c-0.22-0.46-0.39-0.95-0.52-1.44C26.01,63.46,25.67,63.58,25.72,63.79L25.72,63.79z"/>
		</g>
	</g>
	<g>
		<g>
			<path class="st1" d="M23.42,82.09c0.91-2.66,2.42-5.1,4.39-7.1c0.5-0.51,1.04-0.98,1.58-1.43c0.18-0.14-0.08-0.39-0.25-0.25
				c-2.28,1.84-4.12,4.21-5.33,6.87c-0.27,0.59-0.51,1.21-0.73,1.82C23,82.22,23.34,82.3,23.42,82.09L23.42,82.09z"/>
		</g>
	</g>
	<g>
		<g>
			<path class="st1" d="M23.4,82.27c1.21-0.51,2.35-1.18,3.35-2.03c0.18-0.14-0.08-0.39-0.25-0.25c-0.97,0.8-2.05,1.45-3.2,1.93
				C23.1,82.01,23.18,82.36,23.4,82.27L23.4,82.27z"/>
		</g>
	</g>
	<g>
		<g>
			<path class="st1" d="M2.3,75.12c0.88-1.94,1.48-4.02,1.77-6.13c0.03-0.22-0.32-0.32-0.35-0.08c-0.29,2.08-0.88,4.11-1.74,6.04
				C1.89,75.16,2.21,75.33,2.3,75.12L2.3,75.12z"/>
		</g>
	</g>
	<g>
		<g>
			<path class="st2" d="M6.69,82.91c0.54,0.5,1.11,0.96,1.7,1.4c1.2,0.88,2.47,1.68,3.85,2.23c0.65,0.25,1.32,0.46,2.01,0.59
				c0.19,0.05,0.27-0.3,0.05-0.34l0,0c-1.32-0.27-2.57-0.77-3.74-1.45c-1.09-0.64-2.13-1.38-3.1-2.19
				c-0.18-0.16-0.38-0.33-0.56-0.49c-0.13-0.13-0.29-0.02-0.3,0.13c-0.01,0.09,0.02,0.21,0.05,0.28c0.09,0.32,0.24,0.63,0.41,0.93
				c0.29,0.6,0.57,1.19,0.91,1.76c0.29,0.49,0.64,0.89,1.1,1.2c0.59,0.41,1.28,0.66,1.98,0.79c0.55,0.11,1.13,0.15,1.69,0.14
				c0.23-0.01,0.23-0.36,0-0.35c-1.11,0.02-2.28-0.16-3.25-0.74c-0.48-0.28-0.86-0.68-1.14-1.13c-0.31-0.48-0.54-0.99-0.8-1.5
				c-0.18-0.35-0.37-0.73-0.51-1.1C7.02,82.98,7,82.9,6.98,82.82"/>
		</g>
	</g>
	<g>
		<g>
			<path class="st1" d="M1.86,84.54c0.29,1.19,0.79,2.31,1.43,3.36c0.58,0.91,1.25,1.77,2.07,2.46c1,0.83,2.19,1.39,3.5,1.58
				c1.02,0.16,2.07,0.11,3.08-0.1c0.67-0.14,1.31-0.33,1.94-0.6c0.09-0.03,0.15-0.11,0.12-0.21c-0.02-0.08-0.13-0.15-0.21-0.12
				c-1.37,0.6-2.92,0.88-4.41,0.74c-1.22-0.1-2.38-0.54-3.37-1.25c-0.93-0.66-1.67-1.52-2.28-2.47c-0.71-1.08-1.24-2.24-1.54-3.49
				C2.16,84.21,1.82,84.31,1.86,84.54L1.86,84.54z"/>
		</g>
	</g>
	<g>
		<g>
			<path class="st1" d="M11.25,79.2c-0.17,0.05-0.62,0.44-0.82,0.95c-0.05,0.11-0.14,0.37-0.07,0.62c0.07,0.23,0.26,0.34,0.48,0.38
				c0.22,0.04,0.44,0.09,0.53,0.31c0.08,0.2,0.13,0.42,0.23,0.62c0.23,0.47,0.66,0.89,1.15,1.09c0.19,0.08,0.43,0.13,0.65,0.08
				c0.13-0.03,0.23-0.08,0.31-0.18c0.1-0.1,0.17-0.18,0.32-0.22c0.14-0.03,0.27,0.02,0.42,0.06c0.14,0.03,0.27,0.02,0.4-0.02
				c0.27-0.1,0.41-0.36,0.53-0.62c0.09-0.24,0.12-0.51,0.09-0.77c-0.01-0.11-0.03-0.22-0.06-0.3c-0.01-0.03-0.01-0.08-0.03-0.12
				c0-0.02,0-0.02-0.01-0.03l0-0.02c0.01,0.05,0,0.11-0.05,0.16c0.17-0.15-0.09-0.4-0.25-0.25c-0.11,0.09-0.02,0.24,0,0.35
				c0.06,0.2,0.08,0.39,0.04,0.6c-0.03,0.2-0.1,0.45-0.25,0.59c-0.2,0.18-0.45,0.02-0.67,0.01c-0.29-0.02-0.5,0.12-0.7,0.3
				c-0.16,0.15-0.38,0.11-0.57,0.05c-0.48-0.18-0.89-0.63-1.05-1.1c-0.07-0.2-0.1-0.4-0.23-0.58c-0.14-0.2-0.37-0.32-0.61-0.35
				c-0.09-0.02-0.2-0.01-0.27-0.07c-0.07-0.05-0.07-0.15-0.07-0.23c0.02-0.19,0.11-0.37,0.2-0.52c0.13-0.21,0.23-0.21,0.47-0.46
				c0.13-0.13,0.31-0.23,0.28-0.32C11.58,79.11,11.38,79.17,11.25,79.2z"/>
		</g>
	</g>
	<g>
		<g>
			<path class="st3" d="M12.56,78.4c1.06-0.59,1.76-1.65,2.23-2.76c0.07-0.15-0.16-0.27-0.21-0.12c-0.45,1.06-1.11,2.07-2.13,2.66
				C12.29,78.25,12.42,78.46,12.56,78.4L12.56,78.4z"/>
		</g>
	</g>
	<g>
		<g>
			<path class="st1" d="M1.64,72.61c0-0.9,0.47-1.75,1.24-2.23c0.19-0.12,0.01-0.43-0.18-0.3c-0.88,0.54-1.42,1.51-1.42,2.54
				C1.27,72.84,1.63,72.83,1.64,72.61L1.64,72.61z"/>
		</g>
	</g>
	<g>
		<g>
			<path class="st1" d="M20.73,86.43c0.55-1.38,1.3-2.67,2.26-3.8c0.15-0.17-0.1-0.42-0.25-0.25c-1,1.19-1.79,2.52-2.35,3.97
				c-0.04,0.09,0.05,0.19,0.13,0.23C20.62,86.58,20.7,86.52,20.73,86.43L20.73,86.43z"/>
		</g>
	</g>
	<g>
		<g>
			<path class="st1" d="M25.14,79.99c0.23-0.22,0.5-0.39,0.8-0.5c0.16-0.06,0.3-0.1,0.46-0.12c0.14-0.03,0.22-0.03,0.34-0.03
				c0.11,0,0.19-0.07,0.18-0.16c0.01-0.1-0.08-0.2-0.17-0.19c-0.69,0-1.37,0.26-1.87,0.74C24.75,79.89,24.98,80.16,25.14,79.99
				L25.14,79.99z"/>
		</g>
	</g>
	<g>
		<g>
			<path class="st1" d="M26.02,78.1c0.01-0.01,0.02-0.01,0.03-0.02c0.03-0.02-0.02,0.01,0,0c0.02-0.01,0.05-0.03,0.07-0.04
				c0.05-0.03,0.1-0.06,0.16-0.08c0.07-0.03,0.12-0.05,0.19-0.08c0.06-0.02,0.12-0.04,0.2-0.05c0.07-0.01,0.14-0.02,0.21-0.03
				c0.03-0.01,0.07-0.01,0.1-0.01c0.02,0,0.03,0,0.04,0c-0.03,0.01,0.02,0,0.02,0c0.11,0,0.2,0.01,0.29,0.01
				c0.1,0.01,0.2-0.07,0.19-0.15c0.01-0.1-0.07-0.18-0.16-0.19c-0.53-0.08-1.07,0.07-1.53,0.36c-0.08,0.05-0.08,0.18-0.02,0.26
				C25.84,78.16,25.93,78.16,26.02,78.1L26.02,78.1z"/>
		</g>
	</g>
	<g>
		<g>
			<path class="st1" d="M22.91,84.21c0.57-0.52,1.04-1.18,1.32-1.89c0.04-0.09,0.02-0.19-0.07-0.23c-0.08-0.04-0.2-0.01-0.23,0.07
				c-0.29,0.7-0.73,1.31-1.28,1.82C22.49,84.11,22.74,84.37,22.91,84.21L22.91,84.21z"/>
		</g>
	</g>
	<g>
		<g>
			<path class="st4" d="M7.12,65.87c-1.36-0.11-2.74-0.11-4.14,0.01c-0.21,0.03-0.23,0.37-0.02,0.34c1.36-0.13,2.72-0.13,4.05-0.02
				C7.23,66.21,7.33,65.87,7.12,65.87L7.12,65.87z"/>
		</g>
	</g>
	<g>
		<g>
			<path class="st1" d="M8.3,64.49c-0.95-0.27-1.92-0.48-2.9-0.66c-0.22-0.04-0.31,0.31-0.08,0.35c0.97,0.18,1.95,0.4,2.9,0.66
				C8.44,64.89,8.54,64.55,8.3,64.49L8.3,64.49z"/>
		</g>
	</g>
	<g>
		<g>
			<path class="st1" d="M9.34,62.88c-0.95-0.22-1.9-0.47-2.84-0.77c-0.22-0.06-0.31,0.28-0.08,0.35c0.93,0.29,1.88,0.54,2.84,0.77
				C9.48,63.29,9.56,62.94,9.34,62.88L9.34,62.88z"/>
		</g>
	</g>
	<g>
		<g>
			<path class="st6" d="M7.66,105.98c1.3-3.24,2.67-6.45,4.12-9.62c0.39-0.88,0.8-1.76,1.21-2.63c0.1-0.21-0.21-0.38-0.31-0.17
				c-1.49,3.18-2.9,6.36-4.25,9.61c-0.36,0.88-0.73,1.76-1.08,2.65c-0.04,0.09-0.03,0.2,0.06,0.24
				C7.49,106.1,7.62,106.07,7.66,105.98L7.66,105.98z"/>
		</g>
	</g>
	<g>
		<g>
			<path class="st1" d="M13.72,93.38c0.49,1.52,1.28,2.94,2.34,4.12c0.89,0.98,1.97,1.76,2.9,2.7c0.74,0.75,1.4,1.57,2.07,2.39
				c0.92,1.15,1.83,2.3,2.71,3.47c1.1,1.46,2.14,2.95,3.15,4.47c0.12,0.19,0.43,0.01,0.3-0.18c-1.71-2.6-3.58-5.06-5.49-7.49
				c-0.71-0.9-1.42-1.77-2.21-2.61c-0.85-0.9-1.82-1.63-2.71-2.49c-1.27-1.26-2.2-2.76-2.74-4.47C14,93.06,13.65,93.16,13.72,93.38
				L13.72,93.38z"/>
		</g>
	</g>
	<g>
		<g>
			<path class="st7" d="M-5.78,97.04c2.33-0.88,4.69-1.68,7.09-2.38c0.67-0.19,1.34-0.38,2-0.56c0.24-0.06,0.14-0.46-0.11-0.38
				c-2.42,0.65-4.83,1.39-7.18,2.23c-0.65,0.23-1.28,0.45-1.91,0.71C-6.14,96.75-6.03,97.13-5.78,97.04L-5.78,97.04z"/>
		</g>
	</g>
	<g>
		<g>
			<path class="st8" d="M4.96,94.99c0.5,1.22,0.81,2.55,0.89,3.86c0.04,0.66,0,1.31,0.03,1.97c0.02,0.57,0.06,1.13,0.13,1.71
				c0.1,0.83,0.26,1.66,0.46,2.48c0.06,0.23,0.42,0.13,0.36-0.09c-0.31-1.29-0.51-2.59-0.56-3.92c-0.04-0.67,0.01-1.33-0.03-2
				c-0.03-0.73-0.13-1.45-0.3-2.17c-0.15-0.66-0.36-1.3-0.61-1.93C5.24,94.66,4.87,94.76,4.96,94.99L4.96,94.99z"/>
		</g>
	</g>
	<g>
		<g>
			<path class="st1" d="M-0.64,95.37c0.07,0.35,0.19,0.7,0.35,1.02c0.12,0.26,0.3,0.48,0.44,0.72c0.24,0.37,0.3,1-0.01,1.36
				c-0.27,0.31-0.71,0.34-1.05,0.5c-0.36,0.17-0.7,0.41-0.99,0.69c-0.55,0.5-1.01,1.08-1.45,1.69c-0.13,0.18,0.18,0.35,0.31,0.17
				c0.39-0.55,0.83-1.1,1.34-1.56c0.3-0.27,0.62-0.53,0.99-0.69c0.11-0.05,0.25-0.09,0.38-0.13c0.27-0.08,0.56-0.22,0.74-0.45
				c0.33-0.38,0.35-0.95,0.2-1.41c-0.1-0.32-0.34-0.58-0.5-0.87c-0.2-0.35-0.33-0.75-0.41-1.14C-0.34,95.05-0.67,95.15-0.64,95.37
				L-0.64,95.37z"/>
		</g>
	</g>
	<g>
		<g>
			<path class="st1" d="M5.62,98.28c-0.29,0.11-0.61,0.21-0.91,0.28c-0.29,0.06-0.61,0.08-0.9,0.15c-0.52,0.1-0.87,0.5-1.15,0.92
				c-0.61,0.91-1.04,1.97-1.27,3.04c-0.18,0.81-0.27,1.62-0.28,2.45c0,0.23,0.35,0.22,0.35,0c0.02-1.09,0.16-2.21,0.51-3.24
				c0.2-0.59,0.45-1.17,0.78-1.72C3,99.72,3.28,99.22,3.8,99.07c0.28-0.08,0.61-0.08,0.9-0.15c0.35-0.07,0.69-0.18,1.03-0.3
				C5.93,98.56,5.83,98.22,5.62,98.28L5.62,98.28z"/>
		</g>
	</g>
	<g>
		<g>
			<path class="st1" d="M0.62,98.68c0.7,0.03,1.33,0.44,1.65,1.06c0.1,0.21,0.41,0.03,0.3-0.18c-0.38-0.73-1.13-1.21-1.96-1.23
				C0.39,98.32,0.39,98.68,0.62,98.68L0.62,98.68z"/>
		</g>
	</g>
	<g>
		<g>
			<path d="M14,73.37c-1.15-1.4-2.74-2.36-4.49-2.8c-0.35-0.09-0.48,0.45-0.14,0.54c1.67,0.42,3.15,1.33,4.25,2.66
				C13.84,74.05,14.22,73.64,14,73.37L14,73.37z"/>
		</g>
	</g>
	<g>
		<g>
			<path d="M22.8,78.17c-1.19-1.37-2.8-2.29-4.56-2.69c-0.35-0.08-0.49,0.46-0.14,0.54c1.68,0.38,3.18,1.25,4.31,2.55
				C22.65,78.83,23.04,78.43,22.8,78.17L22.8,78.17z"/>
		</g>
	</g>
	<path class="st9" d="M9.51,72.75c0,0.1,0.02,1.01,0.75,1.53c0.65,0.46,1.58,0.43,2.27-0.1"/>
	<g>
		<g>
			<path d="M8.52,73.1c1.01-0.36,2.18-0.21,3.03,0.45c0.55,0.43,0.98,1.05,1.17,1.72c0.1,0.34,0.63,0.19,0.53-0.16
				c-0.23-0.81-0.75-1.55-1.42-2.04c-0.98-0.73-2.32-0.9-3.47-0.5C8.03,72.69,8.18,73.22,8.52,73.1L8.52,73.1z"/>
		</g>
	</g>
	<path class="st9" d="M18.19,77.5c-0.01,0.1-0.08,1,0.6,1.59c0.6,0.52,1.53,0.57,2.27,0.11"/>
	<g>
		<g>
			<path d="M17.19,77.75c1.03-0.26,2.17,0.01,2.95,0.73c0.52,0.48,0.88,1.15,1.02,1.85c0.07,0.35,0.6,0.19,0.53-0.16
				c-0.15-0.83-0.62-1.63-1.25-2.17c-0.93-0.8-2.22-1.08-3.4-0.78C16.69,77.31,16.84,77.84,17.19,77.75L17.19,77.75z"/>
		</g>
	</g>
</g>
<g>
	<path d="M85.14,59.69v-4.15l7.82-7.86c1.1-1.12,1.91-2.13,2.44-3.04c0.53-0.9,0.79-1.83,0.79-2.8c0-1.17-0.32-2.08-0.96-2.73
		c-0.64-0.65-1.51-0.98-2.61-0.98c-1.21,0-2.16,0.35-2.85,1.05c-0.69,0.7-1.03,1.66-1.03,2.9h-4.29c0.02-1.6,0.37-2.98,1.05-4.13
		c0.67-1.15,1.63-2.05,2.86-2.69c1.23-0.64,2.68-0.96,4.32-0.96c1.58,0,2.95,0.3,4.12,0.89c1.17,0.59,2.07,1.43,2.71,2.5
		s0.96,2.36,0.96,3.84c0,1.53-0.39,3.03-1.18,4.48s-2.05,3.01-3.79,4.68l-5.21,5.11h10.5v3.88H85.14z"/>
	<path d="M113.3,60.03c-1.62,0-3.03-0.31-4.22-0.93c-1.19-0.62-2.11-1.49-2.76-2.61c-0.65-1.12-0.98-2.44-0.98-3.95V41.78
		c0-1.51,0.33-2.82,0.98-3.95c0.65-1.12,1.57-1.99,2.76-2.61c1.19-0.62,2.6-0.93,4.22-0.93c1.65,0,3.06,0.31,4.24,0.93
		c1.18,0.62,2.09,1.49,2.74,2.61c0.65,1.12,0.98,2.44,0.98,3.95v10.77c0,1.51-0.33,2.83-0.98,3.95c-0.65,1.12-1.57,1.99-2.76,2.61
		C116.33,59.72,114.93,60.03,113.3,60.03z M113.3,56.33c1.19,0,2.14-0.34,2.85-1.03c0.71-0.69,1.06-1.6,1.06-2.75V41.78
		c0-1.14-0.35-2.06-1.06-2.74c-0.71-0.69-1.66-1.03-2.85-1.03c-1.19,0-2.14,0.34-2.85,1.03c-0.71,0.69-1.06,1.6-1.06,2.74v10.77
		c0,1.14,0.35,2.06,1.06,2.75C111.16,55.99,112.11,56.33,113.3,56.33z M113.3,49.4c-0.66,0-1.21-0.22-1.63-0.65
		c-0.42-0.43-0.63-1-0.63-1.68c0-0.69,0.21-1.24,0.62-1.65c0.41-0.41,0.96-0.62,1.65-0.62s1.23,0.21,1.65,0.62
		c0.41,0.41,0.62,0.96,0.62,1.65c0,0.69-0.21,1.25-0.62,1.68C114.54,49.18,113.99,49.4,113.3,49.4z"/>
	<path d="M126.3,59.69v-4.15l7.82-7.86c1.1-1.12,1.91-2.13,2.44-3.04c0.53-0.9,0.79-1.83,0.79-2.8c0-1.17-0.32-2.08-0.96-2.73
		c-0.64-0.65-1.51-0.98-2.61-0.98c-1.21,0-2.16,0.35-2.85,1.05c-0.69,0.7-1.03,1.66-1.03,2.9h-4.29c0.02-1.6,0.37-2.98,1.05-4.13
		c0.67-1.15,1.63-2.05,2.86-2.69c1.23-0.64,2.68-0.96,4.32-0.96c1.58,0,2.95,0.3,4.12,0.89c1.17,0.59,2.07,1.43,2.71,2.5
		s0.96,2.36,0.96,3.84c0,1.53-0.39,3.03-1.18,4.48s-2.05,3.01-3.79,4.68l-5.21,5.11h10.5v3.88H126.3z"/>
	<path d="M157.55,59.69v-4.97h-11.15v-6.21l9.64-13.86h4.8l-10.33,14.99v1.3h7.03v-5.66h4.29v14.41H157.55z"/>
	<path d="M187.98,59.69V34.65h8.34c1.67,0,3.13,0.32,4.37,0.96c1.25,0.64,2.21,1.54,2.9,2.69s1.03,2.51,1.03,4.06
		c0,1.53-0.35,2.88-1.05,4.05c-0.7,1.17-1.66,2.07-2.9,2.71c-1.23,0.64-2.69,0.96-4.36,0.96h-4.05v9.61H187.98z M192.27,46.21h4.05
		c1.19,0,2.14-0.35,2.86-1.05c0.72-0.7,1.08-1.63,1.08-2.8c0-1.19-0.36-2.13-1.08-2.81c-0.72-0.69-1.68-1.03-2.86-1.03h-4.05V46.21z
		"/>
	<path d="M209.15,59.69V40.82h4.05v3.6h1.06l-1.27,2.2c0-2.04,0.46-3.57,1.37-4.6c0.91-1.03,2.26-1.54,4.05-1.54
		c2.04,0,3.64,0.63,4.8,1.89c1.17,1.26,1.75,3,1.75,5.21v1.37h-4.49v-1.06c0-1.21-0.31-2.15-0.94-2.81
		c-0.63-0.66-1.49-0.99-2.59-0.99c-1.12,0-1.98,0.33-2.59,0.99c-0.61,0.66-0.91,1.6-0.91,2.81v11.8H209.15z"/>
	<path d="M236.83,60.03c-1.6,0-3-0.31-4.19-0.93c-1.19-0.62-2.11-1.48-2.76-2.59s-0.98-2.41-0.98-3.89v-4.73
		c0-1.49,0.33-2.78,0.98-3.89s1.57-1.97,2.76-2.59c1.19-0.62,2.58-0.93,4.19-0.93c1.58,0,2.96,0.31,4.13,0.93
		c1.18,0.62,2.09,1.48,2.74,2.59s0.98,2.41,0.98,3.89v3.4h-11.63v1.34c0,1.33,0.32,2.33,0.96,3c0.64,0.67,1.59,1.01,2.85,1.01
		c0.96,0,1.74-0.17,2.33-0.5c0.59-0.33,0.97-0.82,1.13-1.46h4.22c-0.32,1.62-1.18,2.92-2.59,3.89
		C240.55,59.55,238.84,60.03,236.83,60.03z M240.54,48.88v-1.03c0-1.3-0.31-2.3-0.93-3c-0.62-0.7-1.54-1.05-2.78-1.05
		s-2.17,0.35-2.81,1.06c-0.64,0.71-0.96,1.71-0.96,3.02v0.72l7.79-0.07L240.54,48.88z"/>
	<path d="M256.66,60c-1.44,0-2.7-0.23-3.77-0.69c-1.08-0.46-1.92-1.09-2.52-1.9c-0.61-0.81-0.93-1.77-0.98-2.86h4.29
		c0.05,0.59,0.34,1.08,0.88,1.44c0.54,0.37,1.24,0.55,2.11,0.55h1.51c1.05,0,1.84-0.21,2.37-0.62c0.53-0.41,0.79-0.97,0.79-1.68
		c0-0.66-0.24-1.18-0.7-1.56c-0.47-0.38-1.2-0.62-2.18-0.74l-2.33-0.34c-2.15-0.3-3.73-0.87-4.73-1.72
		c-1.01-0.85-1.51-2.11-1.51-3.81c0-1.76,0.59-3.13,1.78-4.1c1.19-0.97,2.94-1.46,5.25-1.46h1.3c2.1,0,3.79,0.47,5.04,1.41
		s1.93,2.2,2.02,3.77h-4.29c-0.07-0.5-0.35-0.92-0.84-1.24c-0.49-0.32-1.14-0.48-1.94-0.48h-1.3c-0.98,0-1.7,0.18-2.14,0.53
		s-0.67,0.88-0.67,1.56c0,0.64,0.19,1.12,0.58,1.42s1.02,0.53,1.89,0.67l2.44,0.34c2.24,0.32,3.89,0.92,4.96,1.8
		c1.06,0.88,1.6,2.18,1.6,3.89c0,1.83-0.62,3.25-1.87,4.27c-1.25,1.02-3.08,1.53-5.51,1.53H256.66z"/>
	<path d="M270.28,59.69v-3.91h6.59V44.7h-5.73v-3.88h9.85v14.96h5.83v3.91H270.28z M278.58,37.67c-0.87,0-1.56-0.22-2.06-0.67
		s-0.75-1.05-0.75-1.8c0-0.75,0.25-1.36,0.75-1.8c0.5-0.45,1.19-0.67,2.06-0.67s1.55,0.22,2.06,0.67c0.5,0.45,0.75,1.05,0.75,1.8
		c0,0.75-0.25,1.35-0.75,1.8C280.13,37.44,279.45,37.67,278.58,37.67z"/>
	<path d="M296.93,60.03c-1.88,0-3.39-0.65-4.54-1.96c-1.16-1.3-1.73-3.05-1.73-5.25v-5.11c0-2.22,0.57-3.98,1.71-5.28
		c1.14-1.3,2.66-1.96,4.56-1.96c1.55,0,2.79,0.44,3.71,1.32c0.91,0.88,1.37,2.09,1.37,3.62l-0.96-1h1l-0.14-4.49v-5.28h4.29v25.04
		h-4.19v-3.6h-0.96l0.96-1c0,1.53-0.46,2.74-1.37,3.62C299.72,59.59,298.49,60.03,296.93,60.03z M298.44,56.33
		c1.1,0,1.95-0.33,2.56-0.98c0.61-0.65,0.91-1.56,0.91-2.73v-4.73c0-1.17-0.3-2.08-0.91-2.73c-0.61-0.65-1.46-0.98-2.56-0.98
		s-1.96,0.32-2.57,0.96s-0.93,1.56-0.93,2.74v4.73c0,1.19,0.31,2.1,0.93,2.74C296.49,56.01,297.34,56.33,298.44,56.33z"/>
	<path d="M319.16,60.03c-1.6,0-3-0.31-4.19-0.93c-1.19-0.62-2.11-1.48-2.76-2.59c-0.65-1.11-0.98-2.41-0.98-3.89v-4.73
		c0-1.49,0.33-2.78,0.98-3.89c0.65-1.11,1.57-1.97,2.76-2.59c1.19-0.62,2.58-0.93,4.19-0.93c1.58,0,2.96,0.31,4.13,0.93
		c1.18,0.62,2.09,1.48,2.75,2.59c0.65,1.11,0.98,2.41,0.98,3.89v3.4h-11.63v1.34c0,1.33,0.32,2.33,0.96,3
		c0.64,0.67,1.59,1.01,2.85,1.01c0.96,0,1.74-0.17,2.33-0.5c0.59-0.33,0.97-0.82,1.13-1.46h4.22c-0.32,1.62-1.18,2.92-2.59,3.89
		C322.88,59.55,321.17,60.03,319.16,60.03z M322.87,48.88v-1.03c0-1.3-0.31-2.3-0.93-3c-0.62-0.7-1.54-1.05-2.78-1.05
		c-1.24,0-2.17,0.35-2.81,1.06c-0.64,0.71-0.96,1.71-0.96,3.02v0.72l7.79-0.07L322.87,48.88z"/>
	<path d="M332.06,59.69V40.82h4.18v3.6h1.17l-1.17,1c0-1.56,0.45-2.77,1.36-3.64s2.14-1.3,3.72-1.3c1.85,0,3.33,0.62,4.44,1.85
		c1.11,1.24,1.66,2.89,1.66,4.97v12.38h-4.29V47.75c0-1.14-0.3-2.02-0.89-2.64c-0.59-0.62-1.43-0.93-2.5-0.93
		c-1.05,0-1.88,0.32-2.49,0.96c-0.61,0.64-0.91,1.56-0.91,2.74v11.8H332.06z"/>
	<path d="M362.35,59.69c-1.81,0-3.22-0.5-4.24-1.51c-1.02-1.01-1.53-2.39-1.53-4.15V44.7h-5.11v-3.88h5.11v-5.32h4.32v5.32h7.24
		v3.88h-7.24v9.33c0,1.19,0.58,1.78,1.75,1.78h5.15v3.88H362.35z"/>
	<path d="M373.19,59.69v-3.91h6.59V44.7h-5.73v-3.88h9.85v14.96h5.83v3.91H373.19z M381.49,37.67c-0.87,0-1.56-0.22-2.06-0.67
		s-0.75-1.05-0.75-1.8c0-0.75,0.25-1.36,0.75-1.8c0.5-0.45,1.19-0.67,2.06-0.67c0.87,0,1.55,0.22,2.06,0.67
		c0.5,0.45,0.75,1.05,0.75,1.8c0,0.75-0.25,1.35-0.75,1.8S382.36,37.67,381.49,37.67z"/>
	<path d="M399.36,60.03c-1.94,0-3.48-0.51-4.6-1.54c-1.12-1.03-1.68-2.41-1.68-4.15c0-1.85,0.62-3.28,1.85-4.29
		c1.24-1.01,2.98-1.51,5.25-1.51h4.7v-1.61c0-0.91-0.3-1.63-0.89-2.14s-1.41-0.77-2.44-0.77c-0.94,0-1.72,0.21-2.33,0.62
		c-0.62,0.41-0.98,0.97-1.1,1.68h-4.19c0.21-1.78,1.01-3.2,2.4-4.25c1.39-1.05,3.18-1.58,5.35-1.58c2.31,0,4.13,0.58,5.47,1.73
		c1.34,1.16,2.01,2.72,2.01,4.68v12.8h-4.15V56.4h-0.69l0.69-0.93c0,1.4-0.51,2.5-1.54,3.33S401.08,60.03,399.36,60.03z
		 M400.77,56.81c1.21,0,2.2-0.31,2.97-0.93c0.77-0.62,1.15-1.42,1.15-2.4v-2.3h-4.63c-0.87,0-1.57,0.25-2.09,0.75
		s-0.79,1.17-0.79,1.99c0,0.89,0.3,1.6,0.91,2.11C398.89,56.55,399.72,56.81,400.77,56.81z"/>
	<path d="M424.92,59.69c-1.23,0-2.32-0.25-3.24-0.75c-0.93-0.5-1.65-1.22-2.18-2.14c-0.53-0.93-0.79-2-0.79-3.21V38.52h-6.04v-3.88
		H423v18.94c0,0.69,0.2,1.23,0.6,1.63c0.4,0.4,0.94,0.6,1.63,0.6h5.7v3.88H424.92z"/>
	<path d="M455.65,59.69V34.65h15.57v3.98h-11.35v6.69h10.46v3.98h-10.39v10.39H455.65z"/>
	<path d="M483.78,60c-1.6,0-2.99-0.3-4.17-0.91s-2.09-1.46-2.74-2.57c-0.65-1.11-0.98-2.42-0.98-3.93v-4.67
		c0-1.51,0.33-2.82,0.98-3.93c0.65-1.11,1.57-1.97,2.74-2.57c1.18-0.61,2.57-0.91,4.17-0.91c1.62,0,3.02,0.3,4.19,0.91
		c1.17,0.61,2.08,1.46,2.73,2.57c0.65,1.11,0.98,2.41,0.98,3.89v4.7c0,1.51-0.33,2.82-0.98,3.93c-0.65,1.11-1.56,1.97-2.73,2.57
		S485.41,60,483.78,60z M483.78,56.26c1.14,0,2.03-0.31,2.66-0.94c0.63-0.63,0.94-1.54,0.94-2.73v-4.67c0-1.21-0.31-2.13-0.94-2.74
		c-0.63-0.62-1.52-0.93-2.66-0.93c-1.12,0-2,0.31-2.64,0.93c-0.64,0.62-0.96,1.53-0.96,2.74v4.67c0,1.19,0.32,2.1,0.96,2.73
		C481.78,55.95,482.66,56.26,483.78,56.26z"/>
	<path d="M497.3,59.69V40.82h4.05v3.6h1.06l-1.27,2.2c0-2.04,0.46-3.57,1.37-4.6c0.92-1.03,2.26-1.54,4.05-1.54
		c2.04,0,3.64,0.63,4.8,1.89c1.17,1.26,1.75,3,1.75,5.21v1.37h-4.49v-1.06c0-1.21-0.31-2.15-0.94-2.81
		c-0.63-0.66-1.49-0.99-2.59-0.99c-1.12,0-1.98,0.33-2.59,0.99c-0.61,0.66-0.91,1.6-0.91,2.81v11.8H497.3z"/>
	<path d="M524.98,60.03c-1.6,0-3-0.31-4.19-0.93c-1.19-0.62-2.11-1.48-2.76-2.59c-0.65-1.11-0.98-2.41-0.98-3.89v-4.73
		c0-1.49,0.33-2.78,0.98-3.89c0.65-1.11,1.57-1.97,2.76-2.59c1.19-0.62,2.58-0.93,4.19-0.93c1.58,0,2.96,0.31,4.13,0.93
		c1.18,0.62,2.09,1.48,2.75,2.59c0.65,1.11,0.98,2.41,0.98,3.89v3.4h-11.63v1.34c0,1.33,0.32,2.33,0.96,3
		c0.64,0.67,1.59,1.01,2.85,1.01c0.96,0,1.74-0.17,2.33-0.5c0.59-0.33,0.97-0.82,1.13-1.46h4.22c-0.32,1.62-1.18,2.92-2.59,3.89
		C528.7,59.55,526.99,60.03,524.98,60.03z M528.69,48.88v-1.03c0-1.3-0.31-2.3-0.93-3c-0.62-0.7-1.54-1.05-2.78-1.05
		c-1.24,0-2.17,0.35-2.81,1.06c-0.64,0.71-0.96,1.71-0.96,3.02v0.72l7.79-0.07L528.69,48.88z"/>
	<path d="M545.63,60.03c-1.6,0-3-0.3-4.2-0.91c-1.2-0.61-2.13-1.46-2.8-2.57c-0.66-1.11-1-2.42-1-3.93v-4.73
		c0-1.53,0.33-2.85,1-3.95c0.66-1.1,1.59-1.95,2.8-2.56c1.2-0.61,2.6-0.91,4.2-0.91c2.38,0,4.28,0.61,5.69,1.84s2.16,2.89,2.23,4.99
		h-4.29c-0.07-0.98-0.42-1.74-1.05-2.28s-1.49-0.81-2.59-0.81c-1.14,0-2.05,0.31-2.71,0.94c-0.66,0.63-1,1.53-1,2.69v4.77
		c0,1.17,0.33,2.07,1,2.71c0.66,0.64,1.57,0.96,2.71,0.96c1.1,0,1.96-0.27,2.59-0.81s0.98-1.3,1.05-2.28h4.29
		c-0.07,2.1-0.81,3.77-2.23,4.99S548.01,60.03,545.63,60.03z"/>
	<path d="M564.02,60.03c-1.94,0-3.48-0.51-4.6-1.54c-1.12-1.03-1.68-2.41-1.68-4.15c0-1.85,0.62-3.28,1.85-4.29
		c1.24-1.01,2.98-1.51,5.25-1.51h4.7v-1.61c0-0.91-0.3-1.63-0.89-2.14s-1.41-0.77-2.44-0.77c-0.94,0-1.72,0.21-2.33,0.62
		c-0.62,0.41-0.98,0.97-1.1,1.68h-4.19c0.21-1.78,1.01-3.2,2.4-4.25c1.39-1.05,3.18-1.58,5.35-1.58c2.31,0,4.13,0.58,5.47,1.73
		c1.34,1.16,2.01,2.72,2.01,4.68v12.8h-4.15V56.4h-0.69l0.69-0.93c0,1.4-0.51,2.5-1.54,3.33S565.73,60.03,564.02,60.03z
		 M565.42,56.81c1.21,0,2.2-0.31,2.97-0.93c0.77-0.62,1.15-1.42,1.15-2.4v-2.3h-4.63c-0.87,0-1.57,0.25-2.09,0.75
		s-0.79,1.17-0.79,1.99c0,0.89,0.3,1.6,0.91,2.11C563.54,56.55,564.37,56.81,565.42,56.81z"/>
	<path d="M585.97,60c-1.44,0-2.7-0.23-3.77-0.69c-1.08-0.46-1.92-1.09-2.52-1.9c-0.61-0.81-0.93-1.77-0.98-2.86h4.29
		c0.04,0.59,0.34,1.08,0.87,1.44c0.54,0.37,1.24,0.55,2.11,0.55h1.51c1.05,0,1.84-0.21,2.37-0.62c0.53-0.41,0.79-0.97,0.79-1.68
		c0-0.66-0.23-1.18-0.7-1.56c-0.47-0.38-1.2-0.62-2.18-0.74l-2.33-0.34c-2.15-0.3-3.73-0.87-4.73-1.72
		c-1.01-0.85-1.51-2.11-1.51-3.81c0-1.76,0.59-3.13,1.78-4.1c1.19-0.97,2.94-1.46,5.25-1.46h1.3c2.1,0,3.79,0.47,5.04,1.41
		s1.93,2.2,2.02,3.77h-4.29c-0.07-0.5-0.35-0.92-0.84-1.24s-1.14-0.48-1.94-0.48h-1.3c-0.98,0-1.7,0.18-2.14,0.53
		s-0.67,0.88-0.67,1.56c0,0.64,0.19,1.12,0.58,1.42s1.02,0.53,1.89,0.67l2.44,0.34c2.24,0.32,3.89,0.92,4.96,1.8
		c1.06,0.88,1.6,2.18,1.6,3.89c0,1.83-0.62,3.25-1.87,4.27c-1.25,1.02-3.08,1.53-5.51,1.53H585.97z"/>
	<path d="M609.33,59.69c-1.81,0-3.22-0.5-4.24-1.51c-1.02-1.01-1.53-2.39-1.53-4.15V44.7h-5.11v-3.88h5.11v-5.32h4.32v5.32h7.24
		v3.88h-7.24v9.33c0,1.19,0.58,1.78,1.75,1.78h5.15v3.88H609.33z"/>
</g>
<g>
	<path class="st10" d="M51.77,96.63l-6.7-0.3c-2.55-0.11-4.52-2.27-4.41-4.82l0.3-6.7c0.11-2.55,2.27-4.52,4.82-4.41l6.7,0.3
		c2.55,0.11,4.52,2.27,4.41,4.82l-0.3,6.7C56.48,94.77,54.32,96.75,51.77,96.63z"/>
	<g>
		<path class="st11" d="M45.79,82.82l3.11,0.14c2.71,0.12,3.96,2.09,3.8,5.74c-0.16,3.65-1.58,5.5-4.29,5.38l-3.11-0.14L45.79,82.82
			z M48.39,92.91c1.77,0.08,2.75-1.19,2.85-3.42l0.08-1.72c0.1-2.23-0.77-3.58-2.53-3.65l-1.7-0.08l-0.39,8.79L48.39,92.91z"/>
	</g>
</g>
<g>
	<path class="st13" d="M134.51,21.01l-4.07,1.84c-1.55,0.7-3.37,0.01-4.07-1.53l-1.84-4.07c-0.7-1.55-0.01-3.37,1.53-4.07l4.07-1.84
		c1.55-0.7,3.37-0.01,4.07,1.53l1.84,4.07C136.74,18.49,136.05,20.31,134.51,21.01z"/>
	<g>
		<path class="st11" d="M129.72,21.41l-0.29-0.65l1.68-0.76l-2.47-5.46l-1.68,0.76l-0.29-0.65l4.18-1.89l0.29,0.65l-1.68,0.76
			l2.47,5.46l1.68-0.76l0.29,0.65L129.72,21.41z"/>
	</g>
</g>
<g>
	<path class="st12" d="M436.02,81.02l-5.22-4.21c-1.99-1.6-2.3-4.51-0.7-6.49l4.21-5.22c1.6-1.99,4.51-2.3,6.49-0.7l5.22,4.21
		c1.99,1.6,2.3,4.51,0.7,6.49l-4.21,5.22C440.91,82.3,438.01,82.62,436.02,81.02z"/>
	<g>
		<path class="st11" d="M433.11,75.58l-1.04-0.84l6.98-8.66l3.15,2.54c1.6,1.29,1.72,2.92,0.46,4.48c-1.12,1.39-2.6,1.67-4.09,0.7
			l-0.81,5.53l-1.17-0.94l0.87-5.4l-1.38-1.11L433.11,75.58z M438.89,72.68c0.87,0.7,1.76,0.66,2.41-0.15l0.52-0.65
			c0.65-0.81,0.5-1.69-0.37-2.39l-2.08-1.68L436.81,71L438.89,72.68z"/>
	</g>
</g>
<g>
	<path class="st10" d="M223.58,89.18l-6.55-1.43c-2.49-0.54-4.07-3-3.53-5.49l1.43-6.55c0.54-2.49,3-4.07,5.49-3.53l6.55,1.43
		c2.49,0.54,4.07,3,3.53,5.49l-1.43,6.55C228.53,88.14,226.07,89.72,223.58,89.18z"/>
	<g>
		<path class="st11" d="M220.02,74.55l3.04,0.66c2.65,0.58,3.55,2.73,2.77,6.3s-2.49,5.15-5.14,4.57l-3.04-0.66L220.02,74.55z
			 M220.88,84.93c1.73,0.38,2.91-0.7,3.39-2.88l0.37-1.68c0.48-2.18-0.15-3.65-1.88-4.03l-1.67-0.36l-1.87,8.6L220.88,84.93z"/>
	</g>
</g>
<g>
	<path class="st13" d="M642.13,41.37l-4.18-1.59c-1.59-0.6-2.39-2.38-1.78-3.97l1.59-4.18c0.6-1.59,2.38-2.39,3.97-1.78l4.18,1.59
		c1.59,0.6,2.39,2.38,1.78,3.97l-1.59,4.18C645.49,41.17,643.71,41.97,642.13,41.37z"/>
	<g>
		<path class="st11" d="M638.46,38.26l0.25-0.67l1.73,0.66l2.13-5.6L640.84,32l0.25-0.67l4.29,1.63l-0.25,0.67l-1.73-0.66l-2.13,5.6
			l1.73,0.66l-0.25,0.67L638.46,38.26z"/>
	</g>
</g>
<g>
	<path class="st12" d="M685.17,80.07l-6.47-1.78c-2.46-0.68-3.9-3.22-3.23-5.68l1.78-6.47c0.68-2.46,3.22-3.9,5.67-3.23l6.47,1.78
		c2.46,0.68,3.9,3.22,3.23,5.68l-1.78,6.47C690.17,79.3,687.63,80.75,685.17,80.07z"/>
	<g>
		<path class="st11" d="M680.34,76.25l-1.29-0.35L682,65.16l3.9,1.07c1.98,0.54,2.74,1.99,2.21,3.93c-0.47,1.72-1.71,2.57-3.47,2.27
			l1.46,5.39l-1.44-0.4l-1.35-5.3l-1.71-0.47L680.34,76.25z M684.48,71.29c1.08,0.3,1.88-0.1,2.15-1.09l0.22-0.8
			c0.27-1-0.21-1.75-1.29-2.04l-2.58-0.71l-1.08,3.93L684.48,71.29z"/>
	</g>
</g>
<g>
	<path class="st10" d="M600.27,75.85l-6.67-0.68c-2.54-0.26-4.38-2.52-4.12-5.06l0.68-6.67c0.26-2.54,2.52-4.38,5.06-4.12l6.67,0.68
		c2.54,0.26,4.38,2.52,4.12,5.06l-0.68,6.67C605.07,74.26,602.81,76.11,600.27,75.85z"/>
	<g>
		<path class="st11" d="M595.09,61.72l3.09,0.32c2.7,0.28,3.83,2.31,3.46,5.95s-1.9,5.4-4.59,5.12l-3.09-0.32L595.09,61.72z
			 M597.11,71.94c1.76,0.18,2.81-1.03,3.04-3.25l0.17-1.71c0.23-2.22-0.56-3.61-2.32-3.79l-1.7-0.17l-0.89,8.75L597.11,71.94z"/>
	</g>
</g>
<g>
	<path class="st13" d="M109.81,26.97l-3.06-3.25c-1.17-1.24-1.11-3.18,0.13-4.35l3.25-3.06c1.24-1.17,3.18-1.11,4.35,0.13l3.06,3.25
		c1.17,1.24,1.11,3.18-0.13,4.35l-3.25,3.06C112.92,28.26,110.98,28.21,109.81,26.97z"/>
	<g>
		<path class="st11" d="M107.87,22.57l0.52-0.49l1.27,1.34l4.36-4.11l-1.27-1.34l0.52-0.49l3.15,3.34l-0.52,0.49l-1.27-1.34
			l-4.36,4.11l1.27,1.34l-0.52,0.49L107.87,22.57z"/>
	</g>
</g>
<g>
	<path class="st12" d="M16.03,47.42l-6.52-1.55c-2.48-0.59-4.01-3.08-3.42-5.56l1.55-6.52c0.59-2.48,3.08-4.01,5.56-3.42l6.52,1.55
		c2.48,0.59,4.01,3.08,3.42,5.56L21.59,44C21,46.48,18.51,48.01,16.03,47.42z"/>
	<g>
		<path class="st11" d="M11.07,43.76l-1.3-0.31l2.58-10.82l3.94,0.94c2,0.48,2.81,1.9,2.34,3.85c-0.41,1.74-1.62,2.63-3.39,2.39
			l1.65,5.34l-1.46-0.35l-1.54-5.25l-1.72-0.41L11.07,43.76z M15.04,38.66c1.09,0.26,1.87-0.16,2.11-1.17l0.19-0.81
			c0.24-1.01-0.27-1.74-1.36-1.99l-2.61-0.62l-0.94,3.97L15.04,38.66z"/>
	</g>
</g>
<g>
	<path class="st10" d="M482.2,38.7l-4.51-4.97c-1.71-1.89-1.57-4.81,0.32-6.52l4.97-4.51c1.89-1.71,4.81-1.57,6.52,0.32l4.51,4.97
		c1.71,1.89,1.57,4.81-0.32,6.52l-4.97,4.51C486.84,40.73,483.92,40.58,482.2,38.7z"/>
	<g>
		<path class="st11" d="M487.8,24.72l2.09,2.3c1.82,2.01,1.3,4.28-1.4,6.74c-2.7,2.45-5.02,2.75-6.84,0.74l-2.09-2.3L487.8,24.72z
			 M482.46,33.67c1.19,1.31,2.78,1.12,4.43-0.38l1.27-1.16c1.65-1.5,2-3.06,0.81-4.37l-1.15-1.26l-6.52,5.91L482.46,33.67z"/>
	</g>
</g>
<g>
	<path class="st13" d="M251.48,79.51l-4.36-0.97c-1.66-0.37-2.7-2.01-2.33-3.67l0.97-4.36c0.37-1.66,2.01-2.7,3.67-2.33l4.36,0.97
		c1.66,0.37,2.7,2.01,2.33,3.67l-0.97,4.36C254.79,78.84,253.14,79.88,251.48,79.51z"/>
	<g>
		<path class="st11" d="M247.41,76.97l0.15-0.69l1.8,0.4l1.3-5.85l-1.8-0.4l0.15-0.69l4.48,1l-0.15,0.69l-1.8-0.4l-1.3,5.85l1.8,0.4
			l-0.15,0.69L247.41,76.97z"/>
	</g>
</g>
<g>
	<path class="st12" d="M626.1,49.42l-4.75-4.73c-1.81-1.8-1.81-4.72-0.01-6.53l4.73-4.75c1.8-1.81,4.72-1.81,6.53-0.01l4.75,4.73
		c1.81,1.8,1.81,4.72,0.01,6.53l-4.73,4.75C630.83,51.21,627.91,51.22,626.1,49.42z"/>
	<g>
		<path class="st11" d="M623.78,43.71l-0.95-0.95l7.85-7.88l2.87,2.86c1.46,1.45,1.4,3.09-0.01,4.51c-1.26,1.26-2.76,1.39-4.14,0.27
			l-1.39,5.41l-1.06-1.06l1.43-5.28l-1.25-1.25L623.78,43.71z M629.83,41.43c0.79,0.79,1.68,0.84,2.41,0.11l0.59-0.59
			c0.73-0.73,0.67-1.62-0.12-2.41l-1.9-1.89l-2.88,2.89L629.83,41.43z"/>
	</g>
</g>
<g>
	<path class="st10" d="M164.68,34.73l-5.29-4.13c-2.01-1.57-2.37-4.47-0.8-6.48l4.13-5.29c1.57-2.01,4.47-2.37,6.48-0.8l5.29,4.13
		c2.01,1.57,2.37,4.47,0.8,6.48l-4.13,5.29C169.59,35.94,166.69,36.3,164.68,34.73z"/>
	<g>
		<path class="st11" d="M167.82,20.01l2.45,1.91c2.14,1.67,2.01,4-0.23,6.88s-4.48,3.56-6.62,1.89l-2.45-1.91L167.82,20.01z
			 M164.09,29.74c1.39,1.09,2.93,0.63,4.3-1.13l1.06-1.36c1.37-1.76,1.45-3.36,0.06-4.45l-1.34-1.05l-5.42,6.93L164.09,29.74z"/>
	</g>
</g>
<g>
	<path class="st13" d="M519.47,40.35l-4.18-1.58c-1.59-0.6-2.39-2.38-1.79-3.97l1.58-4.18c0.6-1.59,2.38-2.39,3.97-1.79l4.18,1.58
		c1.59,0.6,2.39,2.38,1.79,3.97l-1.58,4.18C522.84,40.16,521.06,40.96,519.47,40.35z"/>
	<g>
		<path class="st11" d="M515.81,37.25l0.25-0.67l1.73,0.65l2.12-5.6l-1.73-0.65l0.25-0.67l4.29,1.63l-0.25,0.67l-1.73-0.65
			l-2.12,5.6l1.73,0.65l-0.25,0.67L515.81,37.25z"/>
	</g>
</g>
<g>
	<path class="st12" d="M457.81,27.57l-6.6,1.18c-2.51,0.45-4.91-1.22-5.36-3.73l-1.18-6.6c-0.45-2.51,1.22-4.91,3.73-5.36l6.6-1.18
		c2.51-0.45,4.91,1.22,5.36,3.73l1.18,6.6C461.99,24.73,460.32,27.13,457.81,27.57z"/>
	<g>
		<path class="st11" d="M451.8,26.2l-1.32,0.24l-1.95-10.95l3.99-0.71c2.02-0.36,3.33,0.62,3.69,2.6c0.31,1.76-0.44,3.06-2.15,3.54
			l3.64,4.24l-1.48,0.26l-3.5-4.2l-1.74,0.31L451.8,26.2z M453.41,19.94c1.1-0.2,1.65-0.89,1.47-1.91l-0.15-0.82
			c-0.18-1.02-0.94-1.48-2.04-1.29l-2.64,0.47l0.72,4.02L453.41,19.94z"/>
	</g>
</g>
<g>
	<path class="st10" d="M661.32,89.94l-6.4,2.02c-2.43,0.77-5.02-0.58-5.79-3.01l-2.02-6.4c-0.77-2.43,0.58-5.02,3.01-5.79l6.4-2.02
		c2.43-0.77,5.02,0.58,5.79,3.01l2.02,6.4C665.1,86.58,663.75,89.17,661.32,89.94z"/>
	<g>
		<path class="st11" d="M650.96,79.02l2.96-0.94c2.58-0.82,4.44,0.6,5.54,4.09c1.1,3.48,0.4,5.71-2.19,6.52l-2.96,0.94L650.96,79.02
			z M656.86,87.6c1.69-0.53,2.17-2.06,1.5-4.19l-0.52-1.64c-0.67-2.13-1.95-3.1-3.63-2.56l-1.63,0.51l2.65,8.39L656.86,87.6z"/>
	</g>
</g>
<g>
	<path class="st13" d="M516.45,72.02L512,71.71c-1.69-0.12-2.97-1.59-2.85-3.29l0.32-4.46c0.12-1.69,1.59-2.97,3.29-2.85l4.46,0.32
		c1.69,0.12,2.97,1.59,2.85,3.29l-0.32,4.46C519.62,70.87,518.15,72.15,516.45,72.02z"/>
	<g>
		<path class="st11" d="M512.05,70.1l0.05-0.71l1.84,0.13l0.43-5.97l-1.84-0.13l0.05-0.71l4.58,0.33l-0.05,0.71l-1.84-0.13
			l-0.43,5.97l1.84,0.13l-0.05,0.71L512.05,70.1z"/>
	</g>
</g>
<g>
	<path class="st12" d="M447.38,57.41l-6.59,1.26c-2.5,0.48-4.92-1.16-5.4-3.67l-1.26-6.59c-0.48-2.5,1.16-4.92,3.67-5.4l6.59-1.26
		c2.5-0.48,4.92,1.16,5.4,3.67l1.26,6.59C451.52,54.51,449.88,56.93,447.38,57.41z"/>
	<g>
		<path class="st11" d="M441.35,56.11l-1.32,0.25l-2.09-10.93l3.98-0.76c2.02-0.39,3.34,0.58,3.72,2.55
			c0.34,1.75-0.4,3.06-2.11,3.57l3.69,4.19l-1.47,0.28l-3.55-4.16l-1.74,0.33L441.35,56.11z M442.88,49.83
			c1.1-0.21,1.64-0.91,1.45-1.93l-0.16-0.81c-0.19-1.02-0.96-1.47-2.06-1.26l-2.63,0.5l0.77,4.01L442.88,49.83z"/>
	</g>
</g>
<g>
	<path class="st10" d="M628.04,34.5l-6.17-2.62c-2.35-1-3.44-3.71-2.44-6.05l2.62-6.17c1-2.35,3.71-3.44,6.05-2.44l6.17,2.62
		c2.35,1,3.44,3.71,2.44,6.05l-2.62,6.17C633.09,34.4,630.38,35.5,628.04,34.5z"/>
	<g>
		<path class="st11" d="M627.27,19.47l2.86,1.22c2.49,1.06,2.98,3.34,1.55,6.7s-3.41,4.6-5.9,3.54l-2.86-1.22L627.27,19.47z
			 M626.17,29.83c1.63,0.69,2.99-0.15,3.86-2.2l0.67-1.58c0.87-2.05,0.53-3.62-1.1-4.31l-1.57-0.67l-3.44,8.1L626.17,29.83z"/>
	</g>
</g>
<g>
	<path class="st13" d="M42.53,77.51l-3.46-2.83c-1.32-1.08-1.51-3.01-0.44-4.33l2.83-3.46c1.08-1.32,3.01-1.51,4.33-0.44l3.46,2.83
		c1.32,1.08,1.51,3.01,0.44,4.33l-2.83,3.46C45.78,78.39,43.84,78.58,42.53,77.51z"/>
	<g>
		<path class="st11" d="M40.04,73.4l0.45-0.55l1.43,1.17l3.79-4.64l-1.43-1.17l0.45-0.55l3.55,2.9l-0.45,0.55l-1.43-1.17l-3.79,4.64
			l1.43,1.17l-0.45,0.55L40.04,73.4z"/>
	</g>
</g>
<g>
	<path class="st12" d="M669.57,74.86l-5.72-3.51c-2.17-1.33-2.85-4.18-1.52-6.35l3.51-5.72c1.33-2.17,4.18-2.85,6.35-1.52l5.72,3.51
		c2.17,1.33,2.85,4.18,1.52,6.35l-3.51,5.72C674.59,75.51,671.75,76.19,669.57,74.86z"/>
	<g>
		<path class="st11" d="M666,69.84l-1.14-0.7l5.82-9.48l3.45,2.12c1.75,1.08,2.08,2.68,1.03,4.39c-0.93,1.52-2.36,1.99-3.96,1.22
			l-0.1,5.59l-1.28-0.78l0.17-5.47l-1.51-0.93L666,69.84z M671.35,66.23c0.95,0.58,1.83,0.43,2.37-0.45l0.43-0.71
			c0.54-0.88,0.28-1.74-0.67-2.32l-2.28-1.4l-2.13,3.48L671.35,66.23z"/>
	</g>
</g>
<g>
	<path class="st10" d="M611.81,37.79l-6.7,0.22c-2.55,0.09-4.68-1.91-4.77-4.46l-0.22-6.7c-0.09-2.55,1.91-4.68,4.46-4.77l6.7-0.22
		c2.55-0.09,4.68,1.91,4.77,4.46l0.22,6.7C616.36,35.57,614.36,37.7,611.81,37.79z"/>
	<g>
		<path class="st11" d="M604.77,24.48l3.11-0.1c2.71-0.09,4.11,1.78,4.23,5.42s-1.15,5.6-3.86,5.7l-3.11,0.1L604.77,24.48z
			 M608.15,34.34c1.77-0.06,2.65-1.4,2.57-3.63l-0.06-1.72c-0.07-2.23-1.04-3.51-2.81-3.45l-1.7,0.06l0.29,8.79L608.15,34.34z"/>
	</g>
</g>
<g>
	<path class="st13" d="M327.06,82.9l-4.43-0.62c-1.68-0.24-2.86-1.79-2.62-3.47l0.62-4.43c0.24-1.68,1.79-2.86,3.47-2.62l4.43,0.62
		c1.68,0.24,2.86,1.79,2.62,3.47l-0.62,4.43C330.3,81.96,328.74,83.14,327.06,82.9z"/>
	<g>
		<path class="st11" d="M322.8,80.68l0.1-0.7l1.83,0.26l0.83-5.93l-1.83-0.26l0.1-0.7l4.54,0.64l-0.1,0.7l-1.83-0.26l-0.83,5.93
			l1.83,0.26l-0.1,0.7L322.8,80.68z"/>
	</g>
</g>
<g>
	<path class="st12" d="M24.47,44.43l-5.99-3.01c-2.28-1.14-3.2-3.92-2.06-6.2l3.01-5.99c1.14-2.28,3.92-3.2,6.2-2.06l5.99,3.01
		c2.28,1.14,3.2,3.92,2.06,6.2l-3.01,5.99C29.52,44.66,26.75,45.58,24.47,44.43z"/>
	<g>
		<path class="st11" d="M20.48,39.74l-1.2-0.6l4.99-9.95l3.62,1.82c1.84,0.92,2.3,2.49,1.4,4.29c-0.8,1.6-2.18,2.19-3.84,1.55
			l0.38,5.57l-1.34-0.67l-0.29-5.46l-1.58-0.79L20.48,39.74z M25.51,35.68c1,0.5,1.86,0.27,2.32-0.65l0.37-0.74
			c0.46-0.93,0.13-1.75-0.87-2.25l-2.39-1.2l-1.83,3.65L25.51,35.68z"/>
	</g>
</g>
<g>
	<path class="st10" d="M289.6,36.15l-4.59-4.89c-1.75-1.86-1.66-4.78,0.2-6.53l4.89-4.59c1.86-1.75,4.78-1.66,6.53,0.2l4.59,4.89
		c1.75,1.86,1.66,4.78-0.2,6.53l-4.89,4.59C294.27,38.1,291.35,38.01,289.6,36.15z"/>
	<g>
		<path class="st11" d="M294.95,22.08l2.13,2.26c1.86,1.97,1.38,4.26-1.28,6.76s-4.97,2.83-6.83,0.86l-2.13-2.26L294.95,22.08z
			 M289.77,31.12c1.21,1.29,2.8,1.07,4.42-0.46l1.25-1.18c1.63-1.53,1.95-3.1,0.73-4.39l-1.17-1.24l-6.41,6.03L289.77,31.12z"/>
	</g>
</g>
<g>
	<path class="st13" d="M42.15,58.49l-4.29-1.26c-1.63-0.48-2.57-2.19-2.09-3.82l1.26-4.29c0.48-1.63,2.19-2.57,3.82-2.09l4.29,1.26
		c1.63,0.48,2.57,2.19,2.09,3.82l-1.26,4.29C45.49,58.03,43.78,58.97,42.15,58.49z"/>
	<g>
		<path class="st11" d="M38.25,55.68l0.2-0.68l1.77,0.52l1.68-5.75l-1.77-0.52l0.2-0.68l4.4,1.29l-0.2,0.68l-1.77-0.52l-1.68,5.75
			l1.77,0.52l-0.2,0.68L38.25,55.68z"/>
	</g>
</g>
<g>
	<path class="st12" d="M504.77,25.73l-5.48-3.87c-2.08-1.47-2.58-4.35-1.1-6.43l3.87-5.48c1.47-2.08,4.35-2.58,6.43-1.1l5.48,3.87
		c2.08,1.47,2.58,4.35,1.1,6.43l-3.87,5.48C509.73,26.71,506.85,27.2,504.77,25.73z"/>
	<g>
		<path class="st11" d="M501.53,20.49l-1.09-0.77l6.42-9.08l3.31,2.34c1.68,1.19,1.9,2.81,0.74,4.45c-1.03,1.46-2.49,1.83-4.03,0.95
			l-0.46,5.57l-1.22-0.87l0.53-5.44l-1.44-1.02L501.53,20.49z M507.11,17.23c0.91,0.64,1.8,0.55,2.4-0.3l0.48-0.68
			c0.6-0.85,0.39-1.71-0.52-2.36l-2.19-1.55l-2.36,3.33L507.11,17.23z"/>
	</g>
</g>
<g>
	<path class="st10" d="M328.09,84.27l-6.69-0.41c-2.54-0.15-4.48-2.34-4.33-4.89l0.41-6.69c0.15-2.54,2.34-4.48,4.89-4.33l6.69,0.41
		c2.54,0.15,4.48,2.34,4.33,4.89l-0.41,6.69C332.82,82.49,330.64,84.43,328.09,84.27z"/>
	<g>
		<path class="st11" d="M322.33,70.37l3.1,0.19c2.7,0.16,3.93,2.15,3.7,5.8c-0.22,3.64-1.67,5.47-4.38,5.31l-3.1-0.19L322.33,70.37z
			 M324.77,80.49c1.77,0.11,2.77-1.14,2.9-3.37l0.1-1.72c0.14-2.23-0.71-3.59-2.47-3.7l-1.7-0.1l-0.53,8.78L324.77,80.49z"/>
	</g>
</g>
<g>
	<path class="st13" d="M38.87,25.6l-4.47-0.12c-1.7-0.05-3.04-1.46-2.99-3.16l0.12-4.47c0.05-1.7,1.46-3.04,3.16-2.99l4.47,0.12
		c1.7,0.05,3.04,1.46,2.99,3.16l-0.12,4.47C41.98,24.3,40.57,25.64,38.87,25.6z"/>
	<g>
		<path class="st11" d="M34.39,23.87l0.02-0.71l1.85,0.05l0.16-5.99l-1.85-0.05l0.02-0.71l4.59,0.12l-0.02,0.71l-1.85-0.05
			l-0.16,5.99l1.85,0.05L38.97,24L34.39,23.87z"/>
	</g>
</g>
<g>
	<path class="st12" d="M131.25,83.54l-4.22-5.21c-1.6-1.98-1.3-4.89,0.68-6.49l5.21-4.22c1.98-1.6,4.89-1.3,6.49,0.68l4.22,5.21
		c1.6,1.98,1.3,4.89-0.68,6.49l-5.21,4.22C135.76,85.83,132.86,85.52,131.25,83.54z"/>
	<g>
		<path class="st11" d="M129.55,77.61l-0.84-1.04l8.65-7l2.55,3.15c1.29,1.6,1.07,3.22-0.5,4.48c-1.39,1.12-2.89,1.09-4.14-0.18
			l-1.96,5.23l-0.94-1.16l1.99-5.09l-1.11-1.38L129.55,77.61z M135.81,75.99c0.7,0.87,1.58,1.02,2.39,0.36l0.64-0.52
			c0.81-0.65,0.84-1.54,0.14-2.41l-1.68-2.08l-3.17,2.57L135.81,75.99z"/>
	</g>
</g>
<g>
	<path class="st10" d="M268.35,92.84l-6.34-2.18c-2.41-0.83-3.69-3.46-2.86-5.87l2.18-6.34c0.83-2.41,3.46-3.69,5.87-2.86l6.34,2.18
		c2.41,0.83,3.69,3.46,2.86,5.87l-2.18,6.34C273.39,92.39,270.76,93.67,268.35,92.84z"/>
	<g>
		<path class="st11" d="M266.53,77.9l2.94,1.01c2.56,0.88,3.21,3.13,2.02,6.58s-3.08,4.82-5.64,3.94l-2.94-1.01L266.53,77.9z
			 M266.17,88.31c1.67,0.58,2.97-0.36,3.7-2.47l0.56-1.63c0.73-2.11,0.28-3.65-1.39-4.22l-1.61-0.56l-2.87,8.32L266.17,88.31z"/>
	</g>
</g>
<g>
	<path class="st13" d="M670.84,16.13l-4.22-1.46c-1.61-0.55-2.46-2.31-1.9-3.91l1.46-4.22c0.55-1.61,2.31-2.46,3.91-1.9l4.22,1.46
		c1.61,0.55,2.46,2.31,1.9,3.91l-1.46,4.22C674.19,15.83,672.44,16.68,670.84,16.13z"/>
	<g>
		<path class="st11" d="M667.08,13.13l0.23-0.67l1.75,0.6l1.95-5.66l-1.75-0.6l0.23-0.67l4.34,1.5L673.6,8.3l-1.75-0.6l-1.95,5.66
			l1.75,0.6l-0.23,0.67L667.08,13.13z"/>
	</g>
</g>
<g>
	<path class="st12" d="M77.58,29.35l-6.05-2.89c-2.3-1.1-3.28-3.85-2.18-6.15l2.89-6.05c1.1-2.3,3.85-3.28,6.15-2.18l6.05,2.89
		c2.3,1.1,3.28,3.85,2.18,6.15l-2.89,6.05C82.63,29.48,79.88,30.45,77.58,29.35z"/>
	<g>
		<path class="st11" d="M73.49,24.74l-1.21-0.58l4.79-10.04l3.65,1.74c1.86,0.89,2.35,2.44,1.48,4.26
			c-0.77,1.61-2.14,2.23-3.81,1.62l0.49,5.57l-1.35-0.65l-0.4-5.45l-1.6-0.76L73.49,24.74z M78.44,20.58
			c1.01,0.48,1.87,0.24,2.31-0.7l0.36-0.75c0.45-0.94,0.1-1.76-0.91-2.24l-2.42-1.15l-1.76,3.68L78.44,20.58z"/>
	</g>
</g>
<g>
	<path class="st10" d="M466.19,87.45l-6.23,2.48c-2.37,0.94-5.05-0.22-5.99-2.59l-2.48-6.23c-0.94-2.37,0.22-5.05,2.59-5.99
		l6.23-2.48c2.37-0.94,5.05,0.22,5.99,2.59l2.48,6.23C469.72,83.83,468.56,86.51,466.19,87.45z"/>
	<g>
		<path class="st11" d="M455.08,77.31l2.89-1.15c2.52-1,4.47,0.28,5.82,3.68c1.35,3.39,0.81,5.66-1.71,6.66l-2.89,1.15L455.08,77.31
			z M461.58,85.44c1.64-0.65,2.02-2.21,1.2-4.28l-0.64-1.6c-0.82-2.07-2.17-2.95-3.81-2.29l-1.59,0.63l3.25,8.18L461.58,85.44z"/>
	</g>
</g>
<g>
	<path class="st13" d="M353.55,89.79l-4.4-0.79c-1.67-0.3-2.78-1.9-2.48-3.57l0.79-4.4c0.3-1.67,1.9-2.78,3.57-2.48l4.4,0.79
		c1.67,0.3,2.78,1.9,2.48,3.57l-0.79,4.4C356.82,88.97,355.23,90.09,353.55,89.79z"/>
	<g>
		<path class="st11" d="M349.38,87.41l0.13-0.7l1.82,0.33l1.06-5.9l-1.82-0.33l0.13-0.7l4.52,0.81l-0.13,0.7l-1.82-0.33l-1.06,5.9
			l1.82,0.33l-0.13,0.7L349.38,87.41z"/>
	</g>
</g>
<g>
	<path class="st12" d="M291.29,82.69l-5.74-3.47c-2.18-1.32-2.88-4.16-1.57-6.34l3.47-5.74c1.32-2.18,4.16-2.88,6.34-1.57l5.74,3.47
		c2.18,1.32,2.88,4.16,1.57,6.34l-3.47,5.74C296.31,83.31,293.47,84.01,291.29,82.69z"/>
	<g>
		<path class="st11" d="M287.67,77.7l-1.15-0.69l5.75-9.53l3.47,2.09c1.76,1.06,2.1,2.66,1.06,4.38c-0.92,1.53-2.35,2.01-3.95,1.24
			l-0.06,5.59l-1.28-0.77l0.13-5.47l-1.51-0.91L287.67,77.7z M293,74.05c0.96,0.58,1.83,0.42,2.37-0.47l0.43-0.71
			c0.54-0.89,0.27-1.74-0.69-2.31l-2.29-1.38l-2.11,3.49L293,74.05z"/>
	</g>
</g>
<g>
	<path class="st10" d="M260.86,85.95l-6.25-2.43c-2.38-0.92-3.55-3.6-2.63-5.98l2.43-6.25c0.92-2.38,3.6-3.55,5.98-2.63l6.25,2.43
		c2.38,0.92,3.55,3.6,2.63,5.98l-2.43,6.25C265.92,85.7,263.24,86.88,260.86,85.95z"/>
	<g>
		<path class="st11" d="M259.62,70.95l2.9,1.13c2.53,0.98,3.08,3.25,1.76,6.65s-3.26,4.7-5.79,3.72l-2.9-1.13L259.62,70.95z
			 M258.85,81.34c1.65,0.64,2.98-0.24,3.79-2.32l0.62-1.6c0.81-2.08,0.42-3.63-1.23-4.27l-1.59-0.62l-3.19,8.2L258.85,81.34z"/>
	</g>
</g>
<g>
	<path class="st13" d="M43.12,39.4l-3.69-2.52c-1.4-0.96-1.76-2.87-0.8-4.28l2.52-3.69c0.96-1.4,2.87-1.76,4.28-0.8l3.69,2.52
		c1.4,0.96,1.76,2.87,0.8,4.28L47.4,38.6C46.44,40,44.53,40.36,43.12,39.4z"/>
	<g>
		<path class="st11" d="M40.29,35.52l0.4-0.59l1.53,1.04l3.38-4.95l-1.53-1.04l0.4-0.59l3.79,2.59l-0.4,0.59l-1.53-1.04l-3.38,4.95
			l1.53,1.04l-0.4,0.59L40.29,35.52z"/>
	</g>
</g>
<g>
	<path class="st12" d="M665.01,68.45l-3.75-5.56c-1.43-2.11-0.87-4.98,1.24-6.41l5.56-3.75c2.11-1.43,4.98-0.87,6.41,1.24l3.75,5.56
		c1.43,2.11,0.87,4.98-1.24,6.41l-5.56,3.75C669.31,71.12,666.44,70.56,665.01,68.45z"/>
	<g>
		<path class="st11" d="M663.83,62.4l-0.75-1.11l9.22-6.23l2.27,3.36c1.15,1.7,0.78,3.3-0.88,4.42c-1.48,1-2.97,0.84-4.11-0.53
			l-2.4,5.05l-0.84-1.24l2.42-4.9l-0.99-1.47L663.83,62.4z M670.21,61.33c0.62,0.92,1.49,1.15,2.35,0.57l0.69-0.46
			c0.86-0.58,0.97-1.46,0.35-2.39l-1.5-2.22l-3.38,2.28L670.21,61.33z"/>
	</g>
</g>
<g>
	<path class="st10" d="M60.77,74.62l-6.27-2.37c-2.38-0.9-3.59-3.57-2.68-5.95l2.37-6.27c0.9-2.38,3.57-3.59,5.95-2.68l6.27,2.37
		c2.38,0.9,3.59,3.57,2.68,5.95l-2.37,6.27C65.82,74.32,63.15,75.52,60.77,74.62z"/>
	<g>
		<path class="st11" d="M59.39,59.63l2.91,1.1c2.53,0.96,3.11,3.22,1.82,6.64c-1.29,3.41-3.22,4.73-5.76,3.77l-2.91-1.1L59.39,59.63
			z M58.71,70.02c1.65,0.63,2.98-0.27,3.77-2.36l0.61-1.61c0.79-2.09,0.39-3.64-1.27-4.26l-1.6-0.6l-3.11,8.23L58.71,70.02z"/>
	</g>
</g>
<g>
	<path class="st13" d="M154.08,99.74l-4.15,1.65c-1.58,0.63-3.37-0.14-4-1.72l-1.65-4.15c-0.63-1.58,0.14-3.37,1.72-4l4.15-1.65
		c1.58-0.63,3.37,0.14,4,1.72l1.65,4.15C156.43,97.32,155.66,99.11,154.08,99.74z"/>
	<g>
		<path class="st11" d="M149.28,99.92l-0.26-0.66l1.72-0.68l-2.22-5.56l-1.72,0.68l-0.26-0.66l4.26-1.7l0.26,0.66l-1.72,0.68
			l2.22,5.56l1.72-0.68l0.26,0.66L149.28,99.92z"/>
	</g>
</g>
<g>
	<path class="st12" d="M271.16,88.55l-4.77-4.71c-1.82-1.79-1.84-4.71-0.04-6.53l4.71-4.77c1.79-1.82,4.71-1.84,6.53-0.04l4.77,4.71
		c1.82,1.79,1.84,4.71,0.04,6.53l-4.71,4.77C275.9,90.32,272.97,90.34,271.16,88.55z"/>
	<g>
		<path class="st11" d="M268.81,82.86l-0.95-0.94l7.81-7.92l2.88,2.84c1.46,1.44,1.42,3.08,0.01,4.51
			c-1.25,1.27-2.75,1.41-4.13,0.29l-1.36,5.42L272,86l1.41-5.28l-1.26-1.24L268.81,82.86z M274.85,80.55
			c0.79,0.78,1.69,0.83,2.41,0.1l0.58-0.59c0.73-0.74,0.67-1.63-0.13-2.41l-1.91-1.88l-2.87,2.9L274.85,80.55z"/>
	</g>
</g>
<g>
	<path class="st10" d="M210.06,62.52l2.45,6.24c0.93,2.37-0.23,5.05-2.61,5.99l-6.24,2.45c-2.37,0.93-5.05-0.23-5.99-2.61
		l-2.45-6.24c-0.93-2.37,0.23-5.05,2.61-5.99l6.24-2.45C206.45,58.98,209.13,60.15,210.06,62.52z"/>
	<g>
		<path class="st11" d="M199.88,73.61l-1.14-2.89c-0.99-2.52,0.3-4.47,3.69-5.8c3.4-1.34,5.67-0.79,6.66,1.73l1.14,2.89
			L199.88,73.61z M208.03,67.13c-0.65-1.65-2.2-2.03-4.28-1.21l-1.6,0.63c-2.08,0.82-2.95,2.16-2.31,3.8l0.62,1.59l8.19-3.22
			L208.03,67.13z"/>
	</g>
</g>
<g>
	<path class="st13" d="M233.36,25.03l-4.45-0.42c-1.69-0.16-2.93-1.66-2.78-3.35l0.42-4.45c0.16-1.69,1.66-2.93,3.35-2.78l4.45,0.42
		c1.69,0.16,2.93,1.66,2.78,3.35l-0.42,4.45C236.55,23.94,235.05,25.18,233.36,25.03z"/>
	<g>
		<path class="st11" d="M229,23.01l0.07-0.71l1.84,0.17l0.56-5.96l-1.84-0.17l0.07-0.71l4.57,0.43l-0.07,0.71l-1.84-0.17l-0.56,5.96
			l1.84,0.17l-0.07,0.71L229,23.01z"/>
	</g>
</g>
<g>
	<path class="st12" d="M102.1,83.54l-6.67,0.68c-2.54,0.26-4.8-1.59-5.06-4.12l-0.68-6.67c-0.26-2.54,1.59-4.8,4.12-5.06l6.67-0.68
		c2.54-0.26,4.8,1.59,5.06,4.12l0.68,6.67C106.49,81.02,104.64,83.28,102.1,83.54z"/>
	<g>
		<path class="st11" d="M96.21,81.72l-1.33,0.14l-1.13-11.07l4.03-0.41c2.05-0.21,3.28,0.87,3.48,2.87
			c0.18,1.78-0.67,3.02-2.41,3.37l3.31,4.5l-1.49,0.15l-3.18-4.45L95.73,77L96.21,81.72z M98.28,75.6c1.11-0.11,1.72-0.77,1.61-1.8
			l-0.08-0.82c-0.11-1.03-0.83-1.55-1.94-1.44l-2.66,0.27l0.41,4.06L98.28,75.6z"/>
	</g>
</g>
<g>
	<path class="st10" d="M246.57,26.97l-6.55,1.43c-2.49,0.54-4.95-1.04-5.49-3.53l-1.43-6.55c-0.54-2.49,1.04-4.95,3.53-5.49
		l6.55-1.43c2.49-0.54,4.95,1.04,5.49,3.53l1.43,6.55C250.64,23.97,249.06,26.43,246.57,26.97z"/>
	<g>
		<path class="st11" d="M237.25,15.15l3.04-0.66c2.65-0.58,4.36,1.01,5.14,4.57s-0.12,5.72-2.77,6.3l-3.04,0.66L237.25,15.15z
			 M242.35,24.24c1.73-0.38,2.35-1.85,1.88-4.03l-0.37-1.68c-0.48-2.18-1.66-3.26-3.39-2.88L238.81,16l1.87,8.6L242.35,24.24z"/>
	</g>
</g>
<g>
	<path class="st13" d="M361.17,27.02l-4.21,1.49c-1.6,0.57-3.36-0.27-3.93-1.87l-1.49-4.21c-0.57-1.6,0.27-3.36,1.87-3.93l4.21-1.49
		c1.6-0.57,3.36,0.27,3.93,1.87l1.49,4.21C363.61,24.7,362.78,26.45,361.17,27.02z"/>
	<g>
		<path class="st11" d="M356.37,27.02l-0.24-0.67l1.74-0.62l-2-5.65l-1.74,0.62l-0.24-0.67l4.33-1.53l0.24,0.67l-1.74,0.62l2,5.65
			l1.74-0.62l0.24,0.67L356.37,27.02z"/>
	</g>
</g>
<g>
	<path class="st12" d="M609.88,37.08l-5.96-3.08c-2.27-1.17-3.15-3.96-1.98-6.22l3.08-5.96c1.17-2.27,3.96-3.15,6.22-1.98l5.96,3.08
		c2.26,1.17,3.15,3.96,1.98,6.22l-3.08,5.96C614.93,37.37,612.15,38.26,609.88,37.08z"/>
	<g>
		<path class="st11" d="M605.95,32.34l-1.19-0.61l5.11-9.88l3.6,1.86c1.83,0.94,2.27,2.52,1.35,4.3c-0.82,1.59-2.21,2.16-3.86,1.5
			l0.31,5.58l-1.33-0.69l-0.23-5.46l-1.57-0.81L605.95,32.34z M611.03,28.35c0.99,0.51,1.86,0.3,2.33-0.62l0.38-0.74
			c0.48-0.92,0.15-1.75-0.84-2.26l-2.38-1.23l-1.87,3.62L611.03,28.35z"/>
	</g>
</g>
<g>
	<g>
		<g>
			<path class="st34" d="M406.52,3.61c-0.5-0.5-1.04-0.9-1.64-1.28c-0.72-0.45-1.44-0.91-2.12-1.43c-0.73-0.57-1.48-1.14-2.37-1.45
				c-0.22-0.08-0.47-0.17-0.71-0.17c-0.31,0-0.62,0.2-0.88,0.35c-1.31,0.76-2.32,1.91-3.33,3.01c-0.51,0.55-1.01,1.12-1.49,1.69
				c-0.42,0.5-0.75,1.02-1.03,1.63c-0.36,0.8-0.66,1.66-0.85,2.52c-0.17,0.76-0.09,1.55,0.03,2.31c0.01,0.07,0.02,0.13,0.03,0.2
				c0.02-0.04,0.04-0.09,0.06-0.13c-0.23,0.13-0.47,0.29-0.64,0.5c-0.2,0.26-0.31,0.59-0.35,0.91c-0.11,0.65-0.18,1.32-0.25,1.98
				c-0.07,0.6-0.09,1.21-0.25,1.79c-0.08,0.29-0.21,0.58-0.27,0.89c-0.03,0.16-0.03,0.32-0.02,0.47c0.02,0.37,0.09,0.74,0.15,1.11
				c0.08,0.52,0.18,1.04,0.29,1.55c0,0.03,0.02,0.1,0.01,0.04c0.01,0.07,0.02,0.13,0.03,0.19c0.05,0.28,0.08,0.54,0.11,0.82
				c0.04,0.3,0.05,0.58,0.1,0.88c0.06,0.32,0.14,0.65,0.2,0.96c0.04,0.21,0.12,0.51,0.03,0.71c-0.07,0.16-0.29,0.21-0.44,0.26
				c-0.46,0.16-0.94,0.34-1.11,0.85c-0.14,0.45,0.04,0.94,0.27,1.32c0.33,0.55,0.77,1.02,1.24,1.45c2.04,1.88,4.66,2.98,7.39,3.35
				c1.53,0.21,3.11,0.2,4.63-0.05c1.07-0.18,2.13-0.38,3.16-0.75c1.28-0.46,2.48-1.14,3.47-2.08c1.8-1.7,2.75-4.05,3.13-6.45
				c0.19-1.23,0.23-2.47,0.17-3.71c-0.05-1.06-0.12-2.09-0.54-3.08c-0.46-1.09-0.66-2.25-1.05-3.36c-0.12-0.32-0.24-0.66-0.45-0.92
				c-0.25-0.35-0.63-0.78-1.09-0.82c-0.27-0.03-0.49,0.11-0.66,0.29c-0.04,0.04-0.07,0.09-0.12,0.13c-0.02,0.02-0.07,0.06-0.08,0.08
				c0-0.02-0.02,0.06,0,0.01c0-0.01,0.04,0.01,0.03,0.02l-0.03-0.08c-0.07-0.27-0.03-0.56-0.04-0.83c-0.01-0.4-0.03-0.8-0.11-1.19
				c-0.19-1.06-0.71-2.06-1.33-2.95C407.45,4.6,407,4.08,406.52,3.61c-0.13-0.13-0.31,0.09-0.18,0.2c0.77,0.78,1.42,1.64,1.93,2.61
				c0.33,0.63,0.58,1.28,0.66,1.99c0.04,0.37,0.06,0.74,0.06,1.11c0.01,0.23-0.02,0.49,0.06,0.71c0.06,0.16,0.2,0.28,0.38,0.19
				c0.17-0.09,0.25-0.3,0.41-0.41c0.42-0.3,0.93,0.29,1.16,0.6c0.19,0.26,0.31,0.56,0.41,0.86c0.21,0.6,0.38,1.22,0.54,1.84
				c0.13,0.5,0.28,0.99,0.49,1.47c0.16,0.38,0.3,0.76,0.38,1.17c0.12,0.61,0.15,1.22,0.18,1.84c0.03,0.72,0.05,1.45,0.01,2.17
				c-0.12,2.13-0.66,4.31-1.8,6.13c-0.76,1.21-1.8,2.22-3.02,2.94c-1.05,0.62-2.23,1.01-3.4,1.27c-1.42,0.31-2.86,0.49-4.32,0.44
				c-2.53-0.06-5.05-0.73-7.2-2.09c-0.59-0.38-1.15-0.8-1.67-1.28c-0.47-0.42-0.93-0.89-1.25-1.44c-0.22-0.38-0.42-0.89-0.14-1.28
				c0.27-0.39,0.78-0.4,1.17-0.6c0.43-0.23,0.33-0.76,0.26-1.17c-0.06-0.3-0.14-0.62-0.19-0.92c-0.05-0.3-0.07-0.58-0.1-0.88
				c-0.1-0.84-0.29-1.67-0.44-2.49c-0.06-0.39-0.13-0.77-0.16-1.16c-0.01-0.14-0.02-0.3,0.01-0.43c0.05-0.29,0.17-0.57,0.26-0.86
				c0.14-0.58,0.19-1.17,0.26-1.76c0.06-0.63,0.14-1.25,0.23-1.88c0.05-0.32,0.1-0.65,0.31-0.92c0.15-0.21,0.38-0.37,0.61-0.49
				c0.04-0.02,0.07-0.08,0.06-0.13c-0.13-0.64-0.22-1.31-0.16-1.96c0.03-0.35,0.12-0.68,0.22-1.01c0.12-0.42,0.27-0.86,0.43-1.27
				c0.26-0.68,0.57-1.37,1.03-1.94c0.4-0.51,0.84-1,1.27-1.48c0.54-0.59,1.09-1.19,1.64-1.76c0.46-0.46,0.92-0.92,1.47-1.3
				c0.32-0.22,0.64-0.45,1-0.61c0.11-0.05,0.23-0.1,0.35-0.1c0.09,0,0.19,0.04,0.28,0.06c0.75,0.19,1.45,0.63,2.07,1.09
				c0.75,0.57,1.5,1.13,2.3,1.63c0.54,0.34,1.07,0.66,1.55,1.08c0.14,0.13,0.3,0.27,0.43,0.41C406.47,3.95,406.64,3.74,406.52,3.61z
				"/>
		</g>
	</g>
	<g>
		<g>
			<path class="st34" d="M411.59,24.37c-0.89-0.5-1.82-0.94-2.74-1.37c-0.64-0.3-1.26-0.58-1.9-0.84c-0.55-0.22-1.13-0.45-1.71-0.59
				c-0.62-0.16-1.26-0.22-1.88-0.22c-0.75-0.01-1.49,0.07-2.24,0.22c-1.67,0.31-3.29,0.83-4.9,1.32c-1.66,0.5-3.31,1.04-4.92,1.68
				c-0.21,0.08-0.4,0.16-0.62,0.25c-0.16,0.07-0.07,0.33,0.09,0.26c1.62-0.69,3.3-1.24,4.97-1.76c0.72-0.22,1.44-0.44,2.17-0.65
				c0.88-0.25,1.74-0.51,2.63-0.7c1.4-0.31,2.9-0.48,4.32-0.18c0.53,0.1,1.04,0.3,1.55,0.5c0.64,0.25,1.26,0.52,1.88,0.8
				c1.02,0.45,2.02,0.94,3.01,1.47c0.06,0.03,0.12,0.06,0.17,0.09C411.62,24.7,411.74,24.45,411.59,24.37L411.59,24.37z"/>
		</g>
	</g>
	<g>
		<g>
			<path class="st34" d="M412.72,16c-0.35,0.03-0.7,0.09-1.04,0.16c-0.55,0.1-1.14,0.21-1.64,0.47c-0.51,0.27-0.72,0.9-0.85,1.43
				c-0.18,0.73-0.26,1.5-0.31,2.25c-0.08,0.88-0.21,1.76-0.47,2.6c-0.06,0.17,0.22,0.23,0.27,0.06c0.23-0.74,0.36-1.51,0.45-2.29
				c0.07-0.73,0.12-1.46,0.26-2.17c0.06-0.33,0.14-0.66,0.28-0.97c0.1-0.22,0.23-0.46,0.41-0.6s0.41-0.2,0.64-0.26
				c0.27-0.09,0.56-0.15,0.84-0.2c0.4-0.07,0.8-0.14,1.2-0.19C412.92,16.26,412.9,15.98,412.72,16L412.72,16z"/>
		</g>
	</g>
	<g>
		<g>
			<path class="st34" d="M407.68,24.3c-1.36-0.44-2.78-0.69-4.22-0.75c-0.37-0.01-0.72-0.02-1.08-0.02c-0.17,0-0.15,0.28,0.02,0.28
				c1.4-0.03,2.8,0.13,4.16,0.47c0.36,0.09,0.71,0.18,1.06,0.31C407.8,24.62,407.86,24.34,407.68,24.3L407.68,24.3z"/>
		</g>
	</g>
	<g>
		<g>
			<path class="st34" d="M406.79,25.67c-1.74-0.73-3.61-1.13-5.49-1.18c-0.51-0.01-1.02,0-1.53,0.04c-0.17,0.01-0.15,0.29,0.02,0.28
				c1.92-0.15,3.85,0.07,5.67,0.66c0.41,0.13,0.82,0.28,1.21,0.45C406.83,25.98,406.95,25.73,406.79,25.67L406.79,25.67z"/>
		</g>
	</g>
	<g>
		<g>
			<path class="st34" d="M408.16,27.32c-2.43-0.58-4.91-0.89-7.41-0.92c-0.66,0-1.32,0-1.99,0.03c-0.17,0.01-0.15,0.29,0.02,0.28
				c2.51-0.13,5.01,0.04,7.48,0.48c0.62,0.1,1.23,0.25,1.84,0.39C408.28,27.64,408.34,27.37,408.16,27.32L408.16,27.32z"/>
		</g>
	</g>
	<g>
		<g>
			<path class="st34" d="M400.98,25.65c-2.19-0.39-4.44-0.48-6.65-0.24c-0.69,0.08-1.37,0.2-2.06,0.34
				c-0.17,0.04-0.09,0.3,0.09,0.26c2.27-0.48,4.62-0.58,6.93-0.33c0.55,0.06,1.1,0.14,1.63,0.24
				C401.11,25.96,401.17,25.69,400.98,25.65L400.98,25.65z"/>
		</g>
	</g>
	<g>
		<g>
			<path class="st34" d="M405.28,28.97c-1.5-0.7-3.12-1.15-4.77-1.31c-0.42-0.05-0.84-0.07-1.26-0.07
				c-0.17-0.01-0.16,0.27,0.02,0.28c1.63,0.03,3.25,0.33,4.78,0.9c0.38,0.14,0.73,0.3,1.1,0.47
				C405.31,29.3,405.44,29.04,405.28,28.97L405.28,28.97z"/>
		</g>
	</g>
	<g>
		<g>
			<path class="st34" d="M398.59,28.6c-1.27-1.14-2.9-1.82-4.6-1.91c-0.34-0.03-0.68-0.01-1.01,0.01c-0.17,0.01-0.15,0.29,0.02,0.28
				c1.56-0.12,3.14,0.26,4.48,1.11c0.34,0.21,0.66,0.46,0.95,0.73C398.54,28.94,398.72,28.71,398.59,28.6L398.59,28.6z"/>
		</g>
	</g>
	<g>
		<g>
			<path class="st34" d="M392.33,15.61c0.54,2.13,0.58,4.37,0.13,6.52c-0.11,0.55-0.27,1.09-0.43,1.61
				c-0.06,0.17,0.22,0.23,0.27,0.06c0.71-2.18,0.92-4.51,0.58-6.77c-0.07-0.51-0.18-1.01-0.29-1.5
				C392.56,15.34,392.29,15.44,392.33,15.61L392.33,15.61z"/>
		</g>
	</g>
	<g>
		<g>
			<path class="st34" d="M392.27,15.48c-0.58,0.85-1.04,1.77-1.34,2.76c-0.06,0.17,0.22,0.23,0.27,0.06
				c0.29-0.93,0.73-1.82,1.28-2.63C392.58,15.53,392.37,15.33,392.27,15.48L392.27,15.48z"/>
		</g>
	</g>
	<g>
		<g>
			<path class="st34" d="M409.16,11.22c0.24,1.65,0.74,3.27,1.44,4.78c0.08,0.16,0.34,0.07,0.26-0.09c-0.7-1.49-1.17-3.07-1.42-4.7
				C409.41,11.02,409.13,11.03,409.16,11.22L409.16,11.22z"/>
		</g>
	</g>
	<g>
		<g>
			<path class="st35" d="M402.96,7.96c-0.57-0.1-1.14-0.16-1.71-0.2c-1.16-0.07-2.33-0.06-3.48,0.17c-0.53,0.11-1.06,0.26-1.57,0.47
				c-0.14,0.05-0.05,0.31,0.11,0.24l0,0c0.99-0.38,2.01-0.59,3.07-0.64c0.99-0.05,1.98,0,2.97,0.12c0.18,0.03,0.39,0.05,0.57,0.09
				c0.14,0.03,0.2-0.11,0.14-0.21c-0.03-0.07-0.1-0.13-0.16-0.16c-0.19-0.17-0.42-0.31-0.66-0.44c-0.44-0.27-0.88-0.54-1.34-0.77
				c-0.4-0.2-0.8-0.31-1.24-0.32c-0.56-0.02-1.12,0.11-1.64,0.32c-0.4,0.16-0.8,0.38-1.17,0.63c-0.15,0.11,0,0.34,0.15,0.23
				c0.72-0.48,1.56-0.86,2.45-0.89c0.43-0.02,0.85,0.08,1.23,0.26c0.41,0.19,0.78,0.42,1.16,0.65c0.27,0.16,0.55,0.32,0.8,0.51
				c0.06,0.04,0.11,0.09,0.15,0.13"/>
		</g>
	</g>
	<g>
		<g>
			<path class="st34" d="M405.45,4.84c-0.7-0.66-1.5-1.18-2.37-1.6c-0.77-0.35-1.57-0.63-2.41-0.74c-1.01-0.12-2.03,0.02-2.97,0.45
				c-0.74,0.33-1.41,0.81-1.98,1.37C395.34,4.7,395,5.1,394.7,5.54c-0.04,0.06-0.05,0.14,0.01,0.19c0.05,0.04,0.15,0.05,0.19-0.01
				c0.65-0.98,1.55-1.82,2.58-2.36c0.85-0.45,1.79-0.66,2.74-0.61c0.89,0.04,1.74,0.29,2.55,0.65c0.92,0.41,1.77,0.94,2.5,1.64
				C405.39,5.18,405.57,4.98,405.45,4.84L405.45,4.84z"/>
		</g>
	</g>
	<g>
		<g>
			<path class="st34" d="M401.55,12.33c0.09-0.1,0.22-0.55,0.14-0.97c-0.02-0.1-0.07-0.3-0.22-0.44c-0.14-0.13-0.32-0.11-0.48-0.05
				c-0.16,0.07-0.33,0.13-0.48,0.02c-0.14-0.1-0.27-0.22-0.42-0.31c-0.35-0.21-0.81-0.3-1.22-0.23c-0.16,0.03-0.34,0.1-0.46,0.22
				c-0.07,0.07-0.12,0.15-0.13,0.25c-0.02,0.11-0.04,0.19-0.12,0.28s-0.19,0.1-0.3,0.14c-0.1,0.04-0.19,0.1-0.26,0.18
				c-0.13,0.18-0.12,0.41-0.08,0.63c0.04,0.2,0.14,0.39,0.27,0.54c0.05,0.06,0.11,0.13,0.17,0.17c0.02,0.02,0.04,0.05,0.07,0.06
				c0.01,0.01,0.01,0.01,0.02,0.02l0.01,0.01c-0.03-0.03-0.04-0.07-0.04-0.12c-0.05,0.17,0.23,0.23,0.27,0.06
				c0.03-0.11-0.09-0.17-0.15-0.23c-0.12-0.11-0.22-0.23-0.28-0.38c-0.07-0.14-0.13-0.34-0.09-0.49c0.05-0.21,0.29-0.2,0.43-0.29
				c0.2-0.11,0.28-0.29,0.33-0.49c0.04-0.17,0.21-0.24,0.36-0.27c0.39-0.08,0.85,0.04,1.16,0.28c0.13,0.1,0.24,0.22,0.39,0.28
				c0.18,0.07,0.38,0.05,0.55-0.03c0.07-0.02,0.14-0.08,0.21-0.07c0.07,0.01,0.11,0.07,0.14,0.13c0.07,0.13,0.09,0.29,0.09,0.43
				c0,0.19-0.06,0.24-0.11,0.5c-0.03,0.14-0.11,0.29-0.05,0.33C401.37,12.54,401.48,12.42,401.55,12.33z"/>
		</g>
	</g>
	<g>
		<g>
			<path class="st36" d="M401.03,13.42c-0.45,0.84-0.46,1.83-0.29,2.75c0.02,0.12,0.22,0.11,0.19-0.01
				c-0.15-0.89-0.15-1.83,0.27-2.65C401.27,13.4,401.09,13.32,401.03,13.42L401.03,13.42z"/>
		</g>
	</g>
	<g>
		<g>
			<path class="st34" d="M410.66,12.58c0.39,0.59,0.44,1.35,0.13,1.99c-0.08,0.16,0.17,0.29,0.25,0.12
				c0.35-0.73,0.29-1.59-0.15-2.27C410.8,12.27,410.57,12.43,410.66,12.58L410.66,12.58z"/>
		</g>
	</g>
	<g>
		<g>
			<path class="st34" d="M392.25,11.62c0.23,1.14,0.28,2.3,0.13,3.45c-0.03,0.18,0.25,0.23,0.27,0.06c0.15-1.2,0.1-2.41-0.14-3.6
				c-0.01-0.08-0.11-0.11-0.18-0.09C392.26,11.47,392.24,11.54,392.25,11.62L392.25,11.62z"/>
		</g>
	</g>
	<g>
		<g>
			<path class="st34" d="M392.09,17.72c-0.06,0.24-0.16,0.47-0.31,0.67c-0.08,0.11-0.16,0.19-0.25,0.28
				c-0.08,0.08-0.14,0.11-0.21,0.16c-0.07,0.05-0.1,0.12-0.05,0.18c0.04,0.07,0.13,0.1,0.19,0.05c0.45-0.29,0.78-0.75,0.91-1.28
				C392.39,17.62,392.12,17.54,392.09,17.72L392.09,17.72z"/>
		</g>
	</g>
	<g>
		<g>
			<path class="st34" d="M392.32,19.33c0,0.01-0.01,0.02-0.01,0.03c-0.01,0.03,0.01-0.02,0,0c-0.01,0.02-0.02,0.04-0.03,0.06
				c-0.02,0.04-0.04,0.08-0.07,0.12c-0.03,0.05-0.06,0.08-0.09,0.13c-0.03,0.04-0.06,0.07-0.11,0.12c-0.04,0.04-0.08,0.07-0.12,0.11
				c-0.02,0.02-0.04,0.04-0.06,0.05c-0.01,0.01-0.02,0.01-0.03,0.02c0.02-0.02-0.01,0.01-0.01,0.01c-0.07,0.05-0.14,0.08-0.2,0.12
				c-0.07,0.04-0.1,0.13-0.06,0.18c0.04,0.07,0.12,0.09,0.19,0.06c0.38-0.18,0.68-0.5,0.85-0.89c0.03-0.07-0.02-0.15-0.1-0.18
				C392.41,19.22,392.35,19.25,392.32,19.33L392.32,19.33z"/>
		</g>
	</g>
	<g>
		<g>
			<path class="st34" d="M391.76,14c-0.15,0.59-0.18,1.22-0.06,1.81c0.01,0.08,0.07,0.13,0.14,0.13c0.07,0,0.14-0.08,0.13-0.14
				c-0.11-0.58-0.08-1.17,0.07-1.74C392.08,13.88,391.81,13.82,391.76,14L391.76,14z"/>
		</g>
	</g>
	<g>
		<g>
			<path class="st37" d="M409.92,19.33c0.94-0.51,1.85-1.09,2.71-1.77c0.13-0.1-0.01-0.34-0.13-0.23c-0.84,0.66-1.73,1.24-2.65,1.74
				C409.7,19.16,409.78,19.42,409.92,19.33L409.92,19.33z"/>
		</g>
	</g>
	<g>
		<g>
			<path class="st34" d="M409.73,20.74c0.74-0.22,1.46-0.5,2.18-0.8c0.16-0.07,0.07-0.33-0.09-0.26c-0.71,0.3-1.45,0.57-2.18,0.8
				C409.47,20.54,409.55,20.8,409.73,20.74L409.73,20.74z"/>
		</g>
	</g>
	<g>
		<g>
			<path class="st34" d="M409.73,22.24c0.71-0.26,1.45-0.5,2.19-0.7c0.17-0.05,0.09-0.31-0.09-0.26c-0.74,0.2-1.46,0.44-2.19,0.7
				C409.47,22.03,409.56,22.3,409.73,22.24L409.73,22.24z"/>
		</g>
	</g>
	<g>
		<g>
			<path class="st34" d="M418.67,0.12c-0.76,0.29-1.52,0.56-2.3,0.83c-0.73,0.25-1.47,0.48-2.21,0.74c-0.79,0.28-1.6,0.59-2.34,0.99
				c-0.68,0.37-1.24,0.87-1.67,1.53c-0.5,0.76-0.93,1.54-1.28,2.39c-0.08,0.16,0.17,0.29,0.25,0.12c0.31-0.71,0.67-1.41,1.08-2.07
				c0.21-0.34,0.43-0.67,0.71-0.95c0.26-0.26,0.56-0.48,0.87-0.67c0.34-0.2,0.7-0.36,1.06-0.51c0.39-0.17,0.81-0.33,1.21-0.48
				c0.73-0.27,1.48-0.5,2.23-0.75c0.83-0.28,1.66-0.57,2.48-0.89C418.92,0.32,418.83,0.06,418.67,0.12L418.67,0.12z"/>
		</g>
	</g>
	<g>
		<g>
			<path class="st38" d="M409.02,6.42c0.25-1.03,0.31-2.1,0.2-3.15c-0.1-0.86-0.33-1.71-0.6-2.53c-0.51-1.62-1.12-3.2-1.76-4.77
				c-0.49-1.2-1.01-2.37-1.54-3.55c-0.08-0.17-0.34-0.07-0.26,0.09c0.89,1.93,1.72,3.87,2.47,5.86c0.27,0.72,0.53,1.44,0.76,2.17
				c0.24,0.76,0.49,1.55,0.62,2.34c0.2,1.16,0.15,2.34-0.13,3.5C408.71,6.53,408.98,6.59,409.02,6.42L409.02,6.42z"/>
		</g>
	</g>
	<g>
		<g>
			<path class="st27" d="M392.53-6.77c0.52,2.68,0.99,5.37,1.38,8.07c0.12,0.74,0.22,1.5,0.32,2.24c0.02,0.18,0.3,0.16,0.28-0.02
				c-0.37-2.72-0.8-5.41-1.29-8.11c-0.14-0.73-0.27-1.47-0.41-2.2c-0.01-0.08-0.07-0.14-0.14-0.14
				C392.59-6.92,392.52-6.85,392.53-6.77L392.53-6.77z"/>
		</g>
	</g>
	<g>
		<g>
			<path class="st34" d="M393.9,4.07c-0.97-0.79-2.09-1.38-3.28-1.71c-1-0.26-2.04-0.32-3.05-0.54c-0.8-0.18-1.59-0.43-2.38-0.69
				c-1.09-0.36-2.18-0.73-3.25-1.12c-1.34-0.49-2.66-1.03-3.97-1.6c-0.16-0.08-0.29,0.17-0.12,0.25c2.22,0.98,4.5,1.8,6.79,2.59
				c0.85,0.29,1.68,0.56,2.56,0.78c0.94,0.23,1.89,0.3,2.84,0.49c1.37,0.29,2.62,0.88,3.7,1.77C393.86,4.4,394.05,4.19,393.9,4.07
				L393.9,4.07z"/>
		</g>
	</g>
	<g>
		<g>
			<path d="M402.21,17.33c1.35,0.43,2.8,0.39,4.14-0.07c0.26-0.09,0.14-0.51-0.12-0.42c-1.27,0.43-2.63,0.47-3.91,0.06
				C402.05,16.82,401.94,17.24,402.21,17.33L402.21,17.33z"/>
		</g>
	</g>
	<g>
		<g>
			<path d="M394.39,17.92c1.36,0.39,2.81,0.32,4.14-0.17c0.26-0.1,0.14-0.51-0.12-0.42c-1.26,0.46-2.61,0.54-3.91,0.16
				C394.23,17.42,394.12,17.84,394.39,17.92L394.39,17.92z"/>
		</g>
	</g>
	<path class="st41" d="M405.43,15.83c-0.04-0.06-0.44-0.66-1.14-0.69c-0.62-0.03-1.22,0.39-1.44,1.03"/>
	<g>
		<g>
			<path d="M405.94,15.17c-0.43,0.56-1.08,0.94-1.78,1c-0.68,0.06-1.39-0.18-1.9-0.62c-0.21-0.18-0.51,0.13-0.3,0.31
				c0.6,0.52,1.42,0.81,2.21,0.74c0.81-0.07,1.59-0.49,2.08-1.13C406.42,15.25,406.11,14.95,405.94,15.17L405.94,15.17z"/>
		</g>
	</g>
	<path class="st41" d="M397.72,16.4c-0.04-0.07-0.37-0.69-1.07-0.79c-0.61-0.08-1.25,0.27-1.53,0.89"/>
	<g>
		<g>
			<path d="M398.27,15.8c-0.5,0.54-1.23,0.85-1.96,0.81c-0.65-0.03-1.29-0.34-1.74-0.81c-0.19-0.2-0.49,0.11-0.3,0.31
				c0.53,0.55,1.28,0.9,2.04,0.93c0.84,0.04,1.69-0.33,2.27-0.95C398.78,15.9,398.46,15.6,398.27,15.8L398.27,15.8z"/>
		</g>
	</g>
</g>
<g>
	<g>
		<g>
			<g>
				<path class="st32" d="M398.83,86.32c0.99-0.51,0.52-3.3,0.47-4.09c-0.15-2.27-0.35-4.52-0.78-6.76
					c-0.45-2.34-0.84-4.72-1.49-7.02c-0.4-1.43-1.02-2.51-2.11-3.55c-6.29-5.97-17.59-4.12-22.18,2.97
					c-3.97,6.13-1.05,13.08,1.01,19.29c0.28,0.84,0.98,3.6,2.3,2.26c-0.07,0.07,0.14-0.21,0.19-0.24c0.5-0.34,0.8-0.01,1.02,0.49
					c0.23,0.53,0.25,1.17,0.37,1.73c0.26,1.27,0.92,2.4,1.23,3.66c0.34,1.39,0.69,2.19,1.85,3.02c1.79,1.3,3.45,2.76,5.21,4.09
					c1.47,1.1,3.39,0.87,5.01,0.2c1.95-0.82,3.09-2.52,4.25-4.21c0.79-1.15,1.74-2.32,1.99-3.73c0.24-1.37,0-2.78,0.6-4.06
					c0.48-1.02,0.75-2.2,0.53-3.33c-0.03-0.15-0.06-0.3-0.11-0.44c-0.17-0.46-0.21-0.5-0.52-0.59c0.41,0.12,0.6,0.4,1.07,0.34
					c0.31-0.03,0.31-0.52,0-0.49c-0.52,0.06-0.76-0.41-1.22-0.4c-0.13,0.01-0.25,0.11-0.24,0.24c0.01,0.25,0.13,0.36,0.23,0.59
					c0.36,0.82,0.43,1.38,0.33,2.23c-0.11,0.95-0.64,1.65-0.85,2.55c-0.2,0.86-0.15,1.79-0.23,2.67c-0.15,1.59-0.99,2.71-1.86,3.99
					c-1.06,1.56-2.13,3.28-3.9,4.08c-1.63,0.74-3.51,0.97-4.96-0.2c-1.5-1.21-2.95-2.46-4.53-3.58c-1.3-0.92-1.76-1.53-2.15-3.11
					c-0.24-0.99-0.71-1.89-1.02-2.86c-0.33-1.05-0.34-2.21-0.81-3.22c-0.16-0.34-0.37-0.72-0.79-0.7c-0.77,0.04-0.87,1.69-1.81,0.66
					c-0.28-0.3-0.39-0.96-0.52-1.35c-0.2-0.6-0.4-1.21-0.6-1.82c-0.28-0.86-0.57-1.71-0.85-2.57c-0.42-1.27-0.65-2.58-1-3.86
					c-0.68-2.52-1.01-4.77-0.35-7.42c2.11-8.52,12.34-12.07,19.93-8.6c1.78,0.81,3.73,2.15,4.59,3.97c0.72,1.52,0.97,3.33,1.3,4.95
					c0.49,2.38,1,4.77,1.22,7.19c0.11,1.23,0.23,2.46,0.27,3.7c0.02,0.44,0.25,2.61-0.27,2.88
					C398.31,86.05,398.56,86.47,398.83,86.32z"/>
			</g>
		</g>
		<g>
			<g>
				<path class="st32" d="M375.36,81.68c-0.88-0.89-2.04-1.43-3.29-1.53c-0.31-0.02-0.31,0.46,0,0.49c1.12,0.09,2.16,0.59,2.95,1.38
					C375.24,82.25,375.58,81.91,375.36,81.68L375.36,81.68z"/>
			</g>
		</g>
		<g>
			<g>
				<path class="st32" d="M376.08,87.18c-0.54-1.45-0.71-3-0.52-4.54c0.04-0.31-0.45-0.31-0.49,0c-0.2,1.57-0.02,3.18,0.53,4.67
					C375.72,87.6,376.19,87.47,376.08,87.18L376.08,87.18z"/>
			</g>
		</g>
		<g>
			<g>
				<path class="st32" d="M397,84.27c0.05-1.45-0.06-2.9-0.34-4.32c-0.06-0.31-0.53-0.18-0.47,0.13c0.27,1.38,0.37,2.79,0.32,4.19
					C396.5,84.58,396.99,84.58,397,84.27L397,84.27z"/>
			</g>
		</g>
		<g>
			<g>
				<path class="st32" d="M385.1,97.98c2.67,0.71,5.52,0.24,7.83-1.27c0.26-0.17,0.02-0.59-0.25-0.42c-2.2,1.45-4.9,1.91-7.45,1.22
					C384.93,97.43,384.8,97.9,385.1,97.98L385.1,97.98z"/>
			</g>
		</g>
		<g>
			<g>
				<path class="st32" d="M383.66,78.53c-1.89-0.17-3.77,0.46-5.19,1.7c-0.24,0.21,0.11,0.55,0.34,0.34
					c1.33-1.16,3.09-1.71,4.85-1.55C383.97,79.04,383.97,78.56,383.66,78.53L383.66,78.53z"/>
			</g>
		</g>
		<g>
			<g>
				<path class="st32" d="M389.11,77.95c1.05-0.3,2.15-0.52,3.25-0.55c0.82-0.02,1.48,0.16,2.04,0.8c0.21,0.24,0.55-0.11,0.34-0.34
					c-0.59-0.68-1.35-0.95-2.23-0.94c-1.19,0.01-2.4,0.25-3.54,0.57C388.68,77.56,388.81,78.03,389.11,77.95L389.11,77.95z"/>
			</g>
		</g>
		<g>
			<g>
				<path class="st32" d="M375.76,81.01c-0.61-1.69-1.14-3.44-1.43-5.21c-0.22-1.38-0.25-2.79-0.44-4.18
					c-0.4-2.98,3.89-3.43,6.1-3.93c3.18-0.71,6.36-1.42,9.53-2.15c0.56-0.13,1.12-0.27,1.67-0.4c1.96-0.46,3.13,2.23,3.52,3.73
					c0.34,1.3,0.33,2.61,0.43,3.94c0.13,1.65,0.38,3.29,0.64,4.93c0.05,0.31,0.52,0.18,0.47-0.13c-0.28-1.77-0.55-3.55-0.66-5.35
					c-0.08-1.26-0.12-2.47-0.46-3.7c-0.4-1.41-1.14-2.99-2.49-3.73c-0.76-0.42-1.44-0.19-2.21,0c-3.35,0.81-6.73,1.53-10.09,2.28
					c-2.19,0.49-5.62,0.75-6.79,2.94c-0.35,0.65-0.18,1.33-0.09,2.02c0.12,0.91,0.16,1.82,0.25,2.73c0.21,2.17,0.83,4.29,1.57,6.33
					C375.4,81.43,375.87,81.3,375.76,81.01L375.76,81.01z"/>
			</g>
		</g>
		<g>
			<g>
				<path class="st32" d="M379.6,81.91c0.3-1.03,1.23-1.36,2.18-1.56c0.49-0.11,1-0.15,1.49-0.01c0.45,0.13,0.81,0.43,1.09,0.79
					c0.19,0.25,0.54-0.1,0.34-0.34c-0.32-0.41-0.76-0.75-1.27-0.91c-0.58-0.18-1.21-0.13-1.79,0c-1.13,0.24-2.17,0.71-2.52,1.9
					C379.04,82.08,379.51,82.21,379.6,81.91L379.6,81.91z"/>
			</g>
		</g>
		<g>
			<g>
				<path class="st32" d="M388.79,79.94c0.67-0.62,1.5-1.15,2.44-1.21c0.43-0.02,0.97,0.03,1.36,0.21c0.4,0.18,0.76,0.55,1.04,0.86
					c0.21,0.23,0.55-0.11,0.34-0.34c-0.32-0.35-0.72-0.74-1.16-0.95c-0.46-0.21-1.09-0.29-1.59-0.27c-1.07,0.06-2.02,0.64-2.78,1.35
					C388.22,79.81,388.56,80.15,388.79,79.94L388.79,79.94z"/>
			</g>
		</g>
		<g>
			<g>
				<path class="st32" d="M379.86,81.3c1.3,0.95,3.11,0.49,4.11-0.66c0.21-0.23-0.14-0.58-0.34-0.34c-0.87,1-2.39,1.42-3.53,0.59
					C379.85,80.69,379.61,81.11,379.86,81.3L379.86,81.3z"/>
			</g>
		</g>
		<g>
			<g>
				<path class="st32" d="M389.09,79.73c1.21,0.85,2.95,0.66,4.06-0.27c0.24-0.2-0.11-0.54-0.34-0.34c-0.95,0.8-2.45,0.91-3.48,0.2
					C389.08,79.13,388.83,79.56,389.09,79.73L389.09,79.73z"/>
			</g>
		</g>
		<g>
			<g>
				<path class="st32" d="M383.89,85.11c-0.41,0.69-0.04,1.54,0.75,1.71c0.4,0.09,0.73-0.13,1.14-0.01c0.35,0.1,0.69,0.24,1.04,0.35
					c0.59,0.18,1.24-0.01,1.76-0.31c0.38-0.21,0.64-0.57,1.01-0.78c0.23-0.13,0.46-0.21,0.7-0.31c0.84-0.35-0.04-1.4-0.38-1.81
					c-0.2-0.24-0.54,0.1-0.34,0.34c0.19,0.23,0.39,0.49,0.52,0.76c0.03,0.06,0.1,0.17,0.05,0.24c-0.02,0.03-0.19,0.07-0.24,0.09
					c-0.05,0.02-0.09,0.04-0.14,0.07c-0.38,0.18-0.68,0.37-0.99,0.66c-0.37,0.34-0.88,0.6-1.39,0.63c-0.51,0.03-1-0.26-1.48-0.4
					c-0.23-0.06-0.47-0.1-0.7-0.05c-0.17,0.03-0.3,0.1-0.47,0.06c-0.47-0.1-0.66-0.58-0.42-0.99
					C384.47,85.09,384.05,84.84,383.89,85.11L383.89,85.11z"/>
			</g>
		</g>
		<g>
			<g>
				<path class="st32" d="M392.06,88.26c-1.58,0.51-3.21,0.82-4.87,0.89c-0.85,0.04-1.71,0.01-2.56,0c-0.46-0.01-1.03-0.07-1.46,0.1
					c-1.05,0.43,0.5,1.45,0.97,1.7c1.32,0.72,2.83,0.87,4.27,0.46c1.08-0.3,2.22-0.88,3.02-1.68c0.22-0.22-0.12-0.57-0.34-0.34
					c-1.52,1.53-4.07,2.21-6.08,1.43c-0.35-0.14-0.69-0.31-1-0.52c-0.09-0.06-0.74-0.49-0.7-0.58c0.04-0.08,0.41-0.08,0.47-0.08
					c1.34-0.08,2.68,0.06,4.02-0.04c1.49-0.11,2.96-0.41,4.39-0.87C392.48,88.63,392.35,88.16,392.06,88.26L392.06,88.26z"/>
			</g>
		</g>
		<g>
			<g>
				<path class="st32" d="M374.57,82.79c-0.32,0.05-0.66,0.18-0.88,0.43c-0.2,0.22-0.29,0.5-0.3,0.79
					c-0.04,0.81,0.46,1.58,1.02,2.12c0.23,0.22,0.57-0.13,0.34-0.34c-0.46-0.44-0.88-1.05-0.88-1.71c0-0.12,0.02-0.22,0.06-0.33
					c0.01-0.04,0.03-0.08,0.06-0.12c0.01-0.02,0.03-0.05,0.05-0.07c-0.02,0.03-0.03,0.03,0,0c0.18-0.18,0.39-0.26,0.67-0.31
					c0.13-0.02,0.2-0.18,0.17-0.3C374.83,82.83,374.7,82.77,374.57,82.79L374.57,82.79z"/>
			</g>
		</g>
		<g>
			<g>
				<path class="st32" d="M397.47,80.02c0.29,0.49,0.54,1.04,0.49,1.62c-0.03,0.49-0.26,0.92-0.33,1.4
					c-0.02,0.13,0.03,0.26,0.17,0.3c0.12,0.03,0.28-0.04,0.3-0.17c0.04-0.23,0.12-0.45,0.19-0.67c0.09-0.29,0.15-0.6,0.17-0.9
					c0.03-0.64-0.25-1.27-0.56-1.82C397.73,79.5,397.31,79.75,397.47,80.02L397.47,80.02z"/>
			</g>
		</g>
		<g>
			<g>
				<path class="st32" d="M384.91,84.14c0.34-0.37,0.62-0.82,0.81-1.28c0.18-0.44,0.37-0.97,0.28-1.45c-0.02-0.13-0.18-0.2-0.3-0.17
					c-0.14,0.04-0.19,0.17-0.17,0.3c0,0.01,0,0.04,0,0.09c0,0.05,0,0.1-0.01,0.15c-0.01,0.1-0.04,0.21-0.06,0.31
					c-0.05,0.21-0.13,0.44-0.2,0.62c-0.16,0.39-0.42,0.78-0.7,1.09C384.36,84.02,384.7,84.37,384.91,84.14L384.91,84.14z"/>
			</g>
		</g>
		<g>
			<g>
				<path class="st32" d="M373.6,76.25c-0.69,0.01-1.38,0.1-2.05,0.27c-0.3,0.08-0.17,0.55,0.13,0.47c0.63-0.16,1.27-0.25,1.92-0.25
					C373.92,76.73,373.92,76.24,373.6,76.25L373.6,76.25z"/>
			</g>
		</g>
		<g>
			<g>
				<path class="st32" d="M373.42,74c-0.69-0.01-1.38,0.09-2.05,0.27c-0.3,0.08-0.17,0.55,0.13,0.47c0.63-0.17,1.27-0.26,1.92-0.25
					C373.73,74.48,373.73,74,373.42,74L373.42,74z"/>
			</g>
		</g>
		<g>
			<g>
				<path class="st32" d="M373.32,71.87c-0.58-0.16-1.21-0.14-1.77,0.07c-0.12,0.05-0.21,0.16-0.17,0.3
					c0.03,0.12,0.18,0.22,0.3,0.17c0.11-0.04,0.21-0.07,0.33-0.1c0.15-0.04,0.26-0.05,0.4-0.06c0.29-0.01,0.51,0.01,0.78,0.09
					c0.13,0.04,0.26-0.04,0.3-0.17C373.52,72.05,373.44,71.91,373.32,71.87L373.32,71.87z"/>
			</g>
		</g>
		<g>
			<g>
				<path class="st32" d="M381.31,65.98c-1.54-0.48-3.11-0.81-4.71-1c-0.31-0.04-0.31,0.45,0,0.49c1.55,0.19,3.09,0.52,4.58,0.98
					C381.48,66.54,381.61,66.07,381.31,65.98L381.31,65.98z"/>
			</g>
		</g>
		<g>
			<g>
				<path class="st32" d="M382.86,65.43c-0.69-1.2-1.89-2.04-3.25-2.3c-0.31-0.06-0.44,0.41-0.13,0.47
					c1.24,0.23,2.32,0.98,2.96,2.08C382.59,65.95,383.01,65.7,382.86,65.43L382.86,65.43z"/>
			</g>
		</g>
		<g>
			<g>
				<path class="st32" d="M384.08,65.19c-0.4-0.85-0.33-1.9,0.18-2.72c0.17-0.27-0.26-0.51-0.42-0.25c-0.6,0.97-0.66,2.18-0.18,3.21
					c0.06,0.12,0.23,0.15,0.33,0.09C384.11,65.45,384.14,65.31,384.08,65.19L384.08,65.19z"/>
			</g>
		</g>
		<g>
			<g>
				<path class="st32" d="M385.73,65.12c0.01-0.93,0.3-1.83,0.83-2.59c0.08-0.11,0.02-0.27-0.09-0.33
					c-0.12-0.07-0.26-0.02-0.33,0.09c-0.58,0.83-0.89,1.83-0.9,2.84C385.24,65.44,385.73,65.44,385.73,65.12L385.73,65.12z"/>
			</g>
		</g>
		<g>
			<g>
				<path class="st32" d="M377.62,66.99c-0.79-0.43-1.64-0.75-2.53-0.94c-0.31-0.06-0.44,0.4-0.13,0.47
					c0.84,0.18,1.65,0.48,2.41,0.89C377.65,67.56,377.9,67.14,377.62,66.99L377.62,66.99z"/>
			</g>
		</g>
		<g>
			<g>
				<path class="st32" d="M388,64.66c0.38-0.65,0.94-1.18,1.63-1.52c0.12-0.06,0.15-0.22,0.09-0.33c-0.07-0.12-0.22-0.15-0.33-0.09
					c-0.75,0.38-1.38,0.97-1.81,1.7c-0.07,0.11-0.03,0.27,0.09,0.33C387.78,64.82,387.93,64.78,388,64.66L388,64.66z"/>
			</g>
		</g>
		<g>
			<g>
				<path class="st32" d="M396.47,75.91c0.42-0.21,0.85-0.42,1.27-0.63c0.11-0.06,0.16-0.23,0.09-0.33
					c-0.08-0.12-0.21-0.15-0.33-0.09c-0.42,0.21-0.85,0.42-1.27,0.63c-0.11,0.06-0.16,0.23-0.09,0.33
					C396.21,75.94,396.35,75.97,396.47,75.91L396.47,75.91z"/>
			</g>
		</g>
		<g>
			<g>
				<path class="st32" d="M396.13,73.28c0.19-0.18,0.38-0.35,0.58-0.52c0.05-0.04,0.1-0.08,0.15-0.12c0.03-0.02,0.05-0.04,0.08-0.06
					c0.01-0.01,0.02-0.02,0.04-0.03c-0.02,0.02-0.01,0.01,0,0c0.1-0.08,0.2-0.15,0.31-0.23c0.1-0.07,0.16-0.22,0.09-0.33
					c-0.07-0.1-0.22-0.17-0.33-0.09c-0.44,0.31-0.86,0.66-1.25,1.04c-0.09,0.09-0.1,0.26,0,0.34
					C395.89,73.37,396.04,73.38,396.13,73.28L396.13,73.28z"/>
			</g>
		</g>
		<g>
			<g>
				<path class="st32" d="M395.65,69.84c0.37-0.22,0.72-0.47,1.05-0.74c0.1-0.08,0.09-0.26,0-0.34c-0.1-0.1-0.24-0.09-0.34,0
					c-0.04,0.03-0.07,0.06-0.11,0.09c-0.02,0.02-0.04,0.03-0.06,0.05c-0.01,0.01-0.02,0.02-0.03,0.02c-0.02,0.02-0.01,0.01,0,0
					c-0.08,0.07-0.17,0.13-0.26,0.19c-0.16,0.12-0.33,0.22-0.51,0.33c-0.11,0.06-0.16,0.22-0.09,0.33
					C395.39,69.86,395.54,69.91,395.65,69.84L395.65,69.84z"/>
			</g>
		</g>
		<g>
			<g>
				<path class="st32" d="M375.71,101.62c0.62-0.47,1.01-1.11,1.42-1.76c0.6-0.92,1.25-1.8,1.97-2.63c0.2-0.24-0.14-0.58-0.34-0.34
					c-0.7,0.81-1.35,1.66-1.93,2.55c-0.4,0.62-0.76,1.3-1.36,1.76C375.22,101.39,375.46,101.81,375.71,101.62L375.71,101.62z"/>
			</g>
		</g>
		<g>
			<g>
				<path class="st32" d="M386.06,112.69c-1.05-2.51-2.32-4.87-3.79-7.14c-1.5-2.32-2.56-4.74-2.91-7.5c-0.04-0.31-0.53-0.31-0.49,0
					c0.33,2.6,1.23,5.01,2.63,7.21c1.55,2.43,2.97,4.88,4.08,7.56C385.71,113.1,386.18,112.98,386.06,112.69L386.06,112.69z"/>
			</g>
		</g>
		<g>
			<g>
				<path class="st32" d="M397.27,94.36c2.37,2.45,5.33,3.66,8.66,4.07c3.51,0.43,6.95,1.21,10.34,2.2c0.3,0.09,0.43-0.38,0.13-0.47
					c-3.18-0.92-6.41-1.68-9.69-2.12c-1.43-0.19-2.83-0.35-4.2-0.83c-1.87-0.65-3.53-1.78-4.9-3.2
					C397.39,93.79,397.05,94.13,397.27,94.36L397.27,94.36z"/>
			</g>
		</g>
		<g>
			<g>
				<path class="st32" d="M395.13,111.03c0.39-2.61,0.81-5.24,1.51-7.79c0.45-1.63,0.75-3.28,1.18-4.91
					c0.36-1.35,0.38-2.47-0.32-3.72c-0.15-0.27-0.57-0.03-0.42,0.25c0.41,0.73,0.64,1.52,0.52,2.36c-0.11,0.72-0.37,1.43-0.53,2.15
					c-0.32,1.38-0.64,2.75-1,4.12c-0.64,2.44-1.05,4.94-1.41,7.43C394.61,111.21,395.08,111.34,395.13,111.03L395.13,111.03z"/>
			</g>
		</g>
		<g>
			<g>
				<path class="st32" d="M375.33,67.95c-0.5-0.24-1.04-0.37-1.59-0.38c-0.13,0-0.25,0.11-0.24,0.24c0.01,0.13,0.11,0.24,0.24,0.24
					c0.11,0,0.22,0.01,0.33,0.02c0.02,0,0.03,0,0.05,0.01c-0.02,0-0.02,0,0.01,0c0.03,0.01,0.07,0.01,0.1,0.02
					c0.06,0.01,0.13,0.02,0.19,0.04c0.13,0.03,0.26,0.07,0.38,0.11c0.05,0.02,0.1,0.04,0.15,0.06c-0.05-0.02,0.03,0.02,0.04,0.02
					c0.02,0.01,0.05,0.02,0.07,0.03c0.11,0.06,0.27,0.04,0.33-0.09C375.48,68.18,375.45,68.01,375.33,67.95L375.33,67.95z"/>
			</g>
		</g>
		<g>
			<g>
				<path class="st32" d="M390.21,64.61c0.06-0.11,0.13-0.22,0.21-0.32c0.01-0.02,0.02-0.03,0.04-0.05
					c-0.02,0.03-0.01,0.01,0.01-0.01c0.02-0.03,0.05-0.06,0.07-0.09c0.05-0.05,0.09-0.1,0.14-0.15c0.05-0.05,0.09-0.09,0.14-0.13
					c0.02-0.02,0.04-0.04,0.07-0.06c0.01-0.01,0.03-0.02,0.04-0.03c0.04-0.03-0.03,0.02,0,0c0.08-0.06,0.17-0.12,0.26-0.17
					c0.11-0.07,0.16-0.22,0.09-0.33c-0.07-0.11-0.22-0.16-0.33-0.09c-0.48,0.29-0.87,0.7-1.14,1.19c-0.06,0.11-0.03,0.27,0.09,0.33
					C389.99,64.76,390.15,64.73,390.21,64.61L390.21,64.61z"/>
			</g>
		</g>
		<g>
			<g>
				<path class="st32" d="M396.62,79.29c0.03-0.58,0.28-1.13,0.7-1.53c0.16-0.16,0.33-0.28,0.54-0.39c0.08-0.04,0.16-0.08,0.24-0.12
					c0.05-0.02-0.05,0.02,0,0c0.01-0.01,0.03-0.01,0.04-0.02c0.03-0.01,0.05-0.02,0.08-0.03c0.12-0.04,0.21-0.17,0.17-0.3
					c-0.03-0.12-0.18-0.21-0.3-0.17c-0.42,0.15-0.81,0.38-1.13,0.7c-0.5,0.49-0.78,1.15-0.82,1.85
					C396.12,79.6,396.61,79.6,396.62,79.29L396.62,79.29z"/>
			</g>
		</g>
		<g>
			<g>
				<path class="st32" d="M374.07,78.38c-0.66-0.2-1.35-0.31-2.04-0.34c-0.13-0.01-0.24,0.12-0.24,0.24c0,0.14,0.11,0.24,0.24,0.24
					c0.65,0.03,1.29,0.14,1.91,0.33C374.24,78.94,374.37,78.47,374.07,78.38L374.07,78.38z"/>
			</g>
		</g>
		<g>
			<g>
				<path class="st32" d="M395.66,71.48c0.42-0.21,0.85-0.42,1.27-0.63c0.11-0.06,0.16-0.23,0.09-0.33
					c-0.08-0.12-0.21-0.15-0.33-0.09c-0.42,0.21-0.85,0.42-1.27,0.63c-0.11,0.06-0.16,0.23-0.09,0.33
					C395.4,71.51,395.54,71.54,395.66,71.48L395.66,71.48z"/>
			</g>
		</g>
		<g>
			<g>
				<path class="st32" d="M394.3,66.5c0.39-0.19,0.77-0.38,1.16-0.57c0.11-0.06,0.16-0.23,0.09-0.33c-0.08-0.12-0.21-0.15-0.33-0.09
					c-0.39,0.19-0.77,0.38-1.16,0.57c-0.11,0.06-0.16,0.23-0.09,0.33C394.04,66.53,394.17,66.56,394.3,66.5L394.3,66.5z"/>
			</g>
		</g>
	</g>
</g>
<g>
	<g>
		<g>
			<path class="st33" d="M702.01,0.2c-0.82,0.59-1.76,1.19-2.84,1.75c-0.35,0.18-0.69,0.35-1.03,0.5c0.02,0.38,0.06,1.17,0.08,1.52
				c0,0.04,0,0.05,0,0.06c0.03,0.57,0.03,1.05,0.03,1.43c-0.48,0.1-0.96,0.19-1.44,0.29c-1.05-0.54-2.1-1.09-3.15-1.63
				c-0.21-0.58-0.43-1.16-0.64-1.75c0.89-0.23,1.78-0.45,2.67-0.68c0.25-0.98,0.5-1.97,0.76-2.95"/>
		</g>
		<g>
			<g>
				<path class="st32" d="M679.34,11.19c-0.98-0.19-2.06,1.75-2.5,2.37c-1.24,1.73-2.42,3.52-3.4,5.41
					c-1.55,2.96-4.03,6.33-3.52,9.85c1.22,8.35,11.42,13.51,18.91,9.92c2.36-1.13,4.67-3.29,5.66-5.77
					c1.21-3.03,2.58-5.93,3.63-9.04c0.16-0.49,0.5-1.34,0.07-1.8c-0.42-0.45-0.8,0.05-1.25-0.06c-0.98-0.24,0.53-2.46,0.8-3.16
					c0.4-1.05,0.7-2.12,1.15-3.16c0.51-1.17,0.32-2-0.02-3.19c-0.53-1.85-0.71-3.86-1.33-5.67c-0.5-1.47-2.01-2.31-3.42-2.71
					c-2-0.56-3.97,0.15-5.88,0.75c-1.16,0.36-2.32,0.67-3.22,1.53c-0.87,0.84-1.54,1.9-2.64,2.44c-0.91,0.45-1.8,1.17-2.27,2.1
					c-0.03,0.05-0.39,0.91-0.19,0.87c0.15-0.02-0.46-0.64-0.52-0.68c-0.24-0.15-0.47,0.23-0.22,0.38c0.38,0.24,0.31,0.73,0.65,0.98
					c0.1,0.08,0.24,0.01,0.3-0.08c0.11-0.15,0.09-0.26,0.14-0.44c0.21-0.75,0.47-1.29,1.03-1.85c0.62-0.62,1.36-0.81,2.03-1.32
					c0.7-0.54,1.23-1.32,1.85-1.95c0.98-0.99,2.3-1.3,3.59-1.7c1.62-0.5,3.31-1.09,5.01-0.68c1.48,0.36,3,1.2,3.41,2.75
					c0.45,1.67,0.69,3.4,1.16,5.07c0.41,1.44,0.58,2.2-0.08,3.61c-0.31,0.67-0.52,1.35-0.73,2.05c-0.31,1.05-0.9,1.93-1.3,2.94
					c-0.3,0.76-0.48,1.64,0.57,1.57c0.57-0.04,1.11-0.42,1.03,0.75c-0.02,0.34-0.25,0.75-0.36,1.06c-0.36,1-0.73,2-1.1,2.99
					c-0.42,1.15-0.9,2.22-1.41,3.34c-0.84,1.81-1.4,3.37-2.75,4.9c-5.81,6.56-16.26,4.14-20.44-3c-1.03-1.77-1.9-4.17-1.37-6.23
					c0.4-1.52,1.25-2.98,1.96-4.37c0.92-1.8,1.81-3.63,2.92-5.33c0.6-0.93,1.22-1.85,1.85-2.76c0.2-0.29,1.51-2.41,2.09-2.3
					C679.5,11.68,679.62,11.25,679.34,11.19z"/>
			</g>
		</g>
		<g>
			<g>
				<path class="st32" d="M693.49,27.87c0.12,1.14,0.63,2.2,1.47,2.98c0.21,0.2,0.53-0.12,0.32-0.32c-0.75-0.7-1.23-1.64-1.34-2.66
					c-0.01-0.12-0.09-0.22-0.22-0.22C693.6,27.65,693.48,27.75,693.49,27.87L693.49,27.87z"/>
			</g>
		</g>
		<g>
			<g>
				<path class="st32" d="M696.09,23.57c-0.44,1.33-1.19,2.52-2.19,3.5c-0.21,0.2,0.11,0.52,0.32,0.32c1.05-1.03,1.84-2.3,2.31-3.7
					C696.61,23.42,696.18,23.3,696.09,23.57L696.09,23.57z"/>
			</g>
		</g>
		<g>
			<g>
				<path class="st32" d="M679.47,13.68c-0.86,1.01-1.61,2.11-2.23,3.29c-0.13,0.25,0.25,0.48,0.38,0.22
					c0.6-1.14,1.32-2.22,2.16-3.19C679.98,13.78,679.66,13.47,679.47,13.68L679.47,13.68z"/>
			</g>
		</g>
		<g>
			<g>
				<path class="st32" d="M695.81,10.68c-1.52-2.06-3.83-3.34-6.38-3.57c-0.29-0.03-0.28,0.42,0,0.45c2.37,0.21,4.57,1.43,5.99,3.35
					C695.6,11.14,695.98,10.91,695.81,10.68L695.81,10.68z"/>
			</g>
		</g>
		<g>
			<g>
				<path class="st32" d="M685.73,25.41c1.25,1.2,2.95,1.84,4.68,1.76c0.29-0.01,0.29-0.46,0-0.45c-1.61,0.07-3.2-0.52-4.37-1.63
					C685.84,24.89,685.52,25.21,685.73,25.41L685.73,25.41z"/>
			</g>
		</g>
		<g>
			<g>
				<path class="st32" d="M681.48,22.72c-0.91-0.38-1.8-0.85-2.6-1.44c-0.26-0.19-0.52-0.41-0.7-0.68c-0.21-0.31-0.3-0.68-0.32-1.05
					c-0.01-0.29-0.46-0.29-0.45,0c0.02,0.43,0.12,0.87,0.35,1.23c0.19,0.31,0.47,0.55,0.75,0.77c0.86,0.66,1.84,1.17,2.84,1.58
					C681.63,23.26,681.74,22.83,681.48,22.72L681.48,22.72z"/>
			</g>
		</g>
		<g>
			<g>
				<path class="st32" d="M692.81,28.18c-0.98,2.9-2.43,5.56-4.18,8.06c-1,1.44-3.34,0.54-4.62-0.06c-0.61-0.28-1.2-0.6-1.8-0.89
					c-2.69-1.3-5.38-2.61-8.07-3.9c-0.47-0.23-1.01-0.41-1.46-0.68c-1.49-0.89-1.04-3.03-0.49-4.38c0.47-1.18,1.22-2.14,1.94-3.18
					c0.9-1.3,1.68-2.67,2.46-4.05c0.14-0.25-0.24-0.48-0.38-0.22c-0.79,1.41-1.6,2.81-2.52,4.14c-0.65,0.94-1.33,1.82-1.79,2.88
					c-0.55,1.27-0.95,2.85-0.4,4.2c0.31,0.78,0.94,0.98,1.62,1.3c2.95,1.38,5.86,2.82,8.79,4.24c1.77,0.86,4.26,2.5,6.26,1.62
					c0.63-0.28,0.9-0.87,1.24-1.43c0.43-0.72,0.92-1.4,1.38-2.1c1.08-1.67,1.83-3.55,2.47-5.42
					C693.33,28.02,692.9,27.91,692.81,28.18L692.81,28.18z"/>
			</g>
		</g>
		<g>
			<g>
				<path class="st32" d="M690.6,25.3c-0.78,0.56-1.61,0.31-2.41-0.08c-0.41-0.2-0.8-0.45-1.09-0.81c-0.28-0.35-0.38-0.79-0.38-1.23
					c0-0.29-0.44-0.29-0.45,0c0,0.51,0.12,1.03,0.43,1.44c0.32,0.44,0.78,0.74,1.26,0.98c0.47,0.23,0.96,0.45,1.49,0.48
					c0.49,0.03,0.97-0.12,1.37-0.4C691.06,25.52,690.83,25.14,690.6,25.3L690.6,25.3z"/>
			</g>
		</g>
		<g>
			<g>
				<path class="st32" d="M682.89,21.48c-0.85,0.06-1.77-0.02-2.49-0.54c-0.17-0.12-0.32-0.29-0.47-0.44
					c-0.14-0.15-0.29-0.31-0.37-0.49c-0.17-0.34-0.22-0.79-0.24-1.17c-0.02-0.28-0.46-0.29-0.45,0c0.03,0.45,0.1,0.95,0.29,1.36
					c0.19,0.41,0.59,0.79,0.94,1.07c0.39,0.3,0.92,0.5,1.4,0.61c0.44,0.1,0.94,0.09,1.39,0.05
					C683.18,21.91,683.18,21.46,682.89,21.48L682.89,21.48z"/>
			</g>
		</g>
		<g>
			<g>
				<path class="st32" d="M690.06,25.63c-0.39-1.46-1.96-2.14-3.37-1.89c-0.28,0.05-0.16,0.48,0.12,0.43
					c1.17-0.21,2.49,0.37,2.82,1.57C689.7,26.02,690.13,25.91,690.06,25.63L690.06,25.63z"/>
			</g>
		</g>
		<g>
			<g>
				<path class="st32" d="M682.55,21.49c-0.38-1.29-1.72-2.18-3.05-2.15c-0.29,0.01-0.29,0.45,0,0.45c1.13-0.03,2.29,0.71,2.62,1.82
					C682.2,21.88,682.63,21.76,682.55,21.49L682.55,21.49z"/>
			</g>
		</g>
		<g>
			<g>
				<path class="st32" d="M689.31,20.58c0.7-0.27,0.94-1.09,0.45-1.68c-0.11-0.13-0.23-0.2-0.38-0.27
					c-0.21-0.09-0.34-0.23-0.47-0.42c-0.17-0.26-0.33-0.52-0.5-0.78c-0.3-0.45-0.87-0.69-1.39-0.77c-0.38-0.06-0.75,0.02-1.13-0.02
					c-0.23-0.02-0.47-0.09-0.69-0.16c-0.86-0.28-0.85,0.92-0.83,1.46c0.01,0.29,0.45,0.29,0.45,0c0-0.2,0-0.41,0.02-0.61
					c0.01-0.11,0.01-0.27,0.07-0.37c0.07-0.12,0.14-0.05,0.26-0.02c0.18,0.05,0.37,0.1,0.55,0.13c0.32,0.06,0.63-0.01,0.95,0
					c0.31,0.01,0.64,0.09,0.92,0.23c0.15,0.08,0.27,0.17,0.39,0.29c0.1,0.09,0.02,0.02,0.03,0.03c0.25,0.37,0.45,0.81,0.77,1.13
					c0.24,0.25,0.63,0.28,0.77,0.62c0.14,0.33-0.04,0.66-0.34,0.77C688.93,20.25,689.04,20.68,689.31,20.58L689.31,20.58z"/>
			</g>
		</g>
		<g>
			<g>
				<path class="st32" d="M685.3,13.68c1.48,0.55,2.87,1.31,4.14,2.26c0.6,0.45,1.17,0.94,1.76,1.42c0.3,0.24,0.65,0.59,1.04,0.69
					c1.01,0.26,0.38-1.46,0.19-1.9c-0.55-1.22-1.53-2.14-2.76-2.65c-0.93-0.39-2.07-0.64-3.08-0.52c-0.28,0.03-0.28,0.48,0,0.45
					c0.72-0.08,1.49,0.04,2.17,0.23c1.25,0.34,2.34,1.07,3.01,2.19c0.17,0.3,0.32,0.61,0.43,0.94c0.04,0.13,0.27,0.71,0.18,0.81
					c-0.03,0.04-0.17-0.04-0.25-0.09c-0.43-0.26-0.8-0.62-1.19-0.94c-0.52-0.43-1.04-0.85-1.59-1.24c-1.21-0.86-2.54-1.55-3.93-2.07
					C685.15,13.15,685.04,13.58,685.3,13.68L685.3,13.68z"/>
			</g>
		</g>
		<g>
			<g>
				<path class="st32" d="M694.66,27.53c0.41,0.23,0.9,0.32,1.3,0.04c0.41-0.28,0.63-0.76,0.72-1.24c0.07-0.35,0.07-0.71,0.02-1.07
					c-0.02-0.12-0.09-0.22-0.22-0.22c-0.11,0-0.24,0.1-0.22,0.22c0.08,0.58,0.04,1.25-0.33,1.73c-0.11,0.14-0.26,0.26-0.42,0.3
					c-0.02,0-0.03,0.01-0.05,0.01c-0.05,0.01,0.05,0-0.01,0c-0.05,0-0.1,0-0.15,0c-0.13-0.01-0.3-0.08-0.43-0.15
					C694.64,27.01,694.41,27.39,694.66,27.53L694.66,27.53z"/>
			</g>
		</g>
		<g>
			<g>
				<path class="st32" d="M676.69,16.51c0.08-0.56,0.23-1.13,0.64-1.54c0.3-0.3,0.69-0.48,1-0.77c0.21-0.2-0.1-0.51-0.32-0.32
					c-0.12,0.11-0.28,0.21-0.44,0.32c-0.21,0.15-0.42,0.31-0.6,0.49c-0.44,0.45-0.62,1.08-0.71,1.69c-0.02,0.12,0.03,0.24,0.16,0.27
					C676.52,16.7,676.68,16.63,676.69,16.51L676.69,16.51z"/>
			</g>
		</g>
		<g>
			<g>
				<path class="st32" d="M688.01,20.7c-0.43,0.07-0.88,0.22-1.26,0.43c-0.21,0.11-0.4,0.25-0.59,0.39
					c-0.17,0.13-0.34,0.28-0.45,0.47c-0.14,0.25,0.25,0.48,0.38,0.22c0.08-0.14,0.22-0.27,0.37-0.38c0.17-0.13,0.34-0.24,0.53-0.34
					c0.34-0.18,0.75-0.31,1.14-0.38c0.12-0.02,0.18-0.17,0.16-0.27C688.25,20.72,688.13,20.68,688.01,20.7L688.01,20.7z"/>
			</g>
		</g>
		<g>
			<g>
				<path class="st32" d="M691.63,32.77c0.5,0.39,1.04,0.72,1.62,0.98c0.11,0.05,0.24,0.03,0.3-0.08c0.06-0.09,0.03-0.26-0.08-0.3
					c-0.54-0.24-1.08-0.56-1.53-0.91c-0.09-0.07-0.22-0.09-0.32,0C691.55,32.54,691.53,32.7,691.63,32.77L691.63,32.77z"/>
			</g>
		</g>
		<g>
			<g>
				<path class="st32" d="M690.48,34.49c0.49,0.4,1.03,0.73,1.62,0.98c0.11,0.05,0.24,0.03,0.3-0.08c0.05-0.09,0.03-0.26-0.08-0.3
					c-0.55-0.23-1.08-0.54-1.53-0.91c-0.09-0.08-0.22-0.09-0.32,0C690.4,34.26,690.39,34.42,690.48,34.49L690.48,34.49z"/>
			</g>
		</g>
		<g>
			<g>
				<path class="st32" d="M689.35,36.07c0.33,0.47,0.8,0.81,1.35,0.99c0.11,0.04,0.25-0.04,0.27-0.16c0.03-0.12-0.04-0.24-0.16-0.27
					c-0.05-0.02-0.09-0.03-0.14-0.05c-0.01,0-0.02-0.01-0.03-0.01c-0.05-0.02,0.03,0.01,0,0c-0.03-0.01-0.06-0.03-0.08-0.04
					c-0.13-0.06-0.25-0.13-0.36-0.21c-0.01-0.01-0.03-0.02-0.04-0.03c0.02,0.02-0.01-0.01-0.02-0.01c-0.03-0.02-0.06-0.05-0.08-0.07
					c-0.05-0.04-0.09-0.09-0.14-0.13c-0.04-0.04-0.08-0.09-0.12-0.13c-0.01-0.01-0.01-0.02-0.02-0.03c0,0-0.03-0.04-0.01-0.01
					c0.02,0.03-0.01-0.01-0.01-0.01c-0.01-0.01-0.02-0.02-0.02-0.03c-0.07-0.09-0.2-0.15-0.3-0.08
					C689.34,35.83,689.28,35.97,689.35,36.07L689.35,36.07z"/>
			</g>
		</g>
		<g>
			<g>
				<path class="st32" d="M680.26,35.74c0.83,1.22,1.77,2.36,2.8,3.41c0.2,0.2,0.52-0.11,0.32-0.32c-1.01-1.02-1.92-2.13-2.73-3.32
					C680.48,35.28,680.09,35.5,680.26,35.74L680.26,35.74z"/>
			</g>
		</g>
		<g>
			<g>
				<path class="st32" d="M678.86,35.24c-0.19,1.29,0.18,2.57,1.03,3.55c0.19,0.22,0.5-0.1,0.32-0.32c-0.74-0.85-1.08-2-0.92-3.12
					c0.02-0.12-0.03-0.24-0.16-0.27C679.03,35.05,678.88,35.12,678.86,35.24L678.86,35.24z"/>
			</g>
		</g>
		<g>
			<g>
				<path class="st32" d="M677.84,34.71c-0.11,0.44-0.31,0.84-0.62,1.17c-0.17,0.19-0.37,0.34-0.59,0.47
					c-0.09,0.05-0.18,0.1-0.27,0.14c-0.01,0-0.07,0.03-0.05,0.02c0.02-0.01-0.03,0.01-0.04,0.01c-0.03,0.01-0.07,0.03-0.1,0.04
					c-0.11,0.04-0.19,0.15-0.16,0.27c0.03,0.11,0.16,0.2,0.27,0.16c0.97-0.35,1.73-1.17,1.97-2.17
					C678.34,34.55,677.91,34.43,677.84,34.71L677.84,34.71z"/>
			</g>
		</g>
		<g>
			<g>
				<path class="st32" d="M676.64,33.83c-0.53,0.66-1.25,1.15-2.07,1.39c-0.27,0.08-0.16,0.51,0.12,0.43
					c0.89-0.26,1.68-0.79,2.27-1.51c0.08-0.09,0.09-0.22,0-0.32C676.87,33.75,676.71,33.74,676.64,33.83L676.64,33.83z"/>
			</g>
		</g>
		<g>
			<g>
				<path class="st32" d="M683.51,37.16c0.32,0.76,0.76,1.47,1.28,2.11c0.08,0.09,0.24,0.08,0.32,0c0.09-0.09,0.08-0.22,0-0.32
					c-0.5-0.61-0.91-1.29-1.21-2.02c-0.05-0.11-0.21-0.14-0.3-0.08C683.47,36.92,683.46,37.05,683.51,37.16L683.51,37.16z"/>
			</g>
		</g>
		<g>
			<g>
				<path class="st32" d="M674.75,32.88c-0.65,0.25-1.35,0.32-2.03,0.17c-0.12-0.02-0.24,0.03-0.27,0.16
					c-0.03,0.11,0.04,0.25,0.16,0.27c0.76,0.16,1.55,0.1,2.27-0.17c0.11-0.04,0.19-0.15,0.16-0.27
					C675,32.93,674.87,32.83,674.75,32.88L674.75,32.88z"/>
			</g>
		</g>
		<g>
			<g>
				<path class="st32" d="M675.1,20c-0.42-0.09-0.85-0.18-1.27-0.27c-0.11-0.02-0.25,0.03-0.27,0.16c-0.03,0.11,0.03,0.25,0.16,0.27
					c0.42,0.09,0.85,0.18,1.27,0.27c0.11,0.02,0.25-0.03,0.27-0.16C675.29,20.16,675.23,20.03,675.1,20L675.1,20z"/>
			</g>
		</g>
		<g>
			<g>
				<path class="st32" d="M673.84,22.07c-0.48,0.05-0.95,0.06-1.43,0.03c-0.12-0.01-0.23,0.11-0.22,0.22
					c0.01,0.13,0.1,0.22,0.22,0.22c0.48,0.03,0.96,0.02,1.43-0.03c0.12-0.01,0.23-0.09,0.22-0.22
					C674.06,22.18,673.96,22.06,673.84,22.07L673.84,22.07z"/>
			</g>
		</g>
		<g>
			<g>
				<path class="st32" d="M672.23,24.82c-0.39-0.06-0.79-0.08-1.18-0.07c-0.12,0-0.23,0.1-0.22,0.22c0.01,0.12,0.1,0.23,0.22,0.22
					c0.18,0,0.37,0,0.55,0.01c0.09,0.01,0.18,0.01,0.27,0.02c0.05,0,0.09,0.01,0.14,0.02c0.02,0,0.04,0,0.06,0.01c0.03,0,0.03,0,0,0
					c0.01,0,0.03,0,0.04,0.01c0.06,0.01,0.12,0.01,0.17-0.02c0.05-0.03,0.09-0.08,0.1-0.13C672.41,24.98,672.35,24.83,672.23,24.82
					L672.23,24.82z"/>
			</g>
		</g>
		<g>
			<g>
				<path class="st32" d="M704.58,13.41c-0.71-0.01-1.36,0.24-2.03,0.46c-0.95,0.32-1.92,0.57-2.9,0.75
					c-0.28,0.05-0.16,0.48,0.12,0.43c0.96-0.18,1.9-0.42,2.83-0.73c0.65-0.22,1.29-0.49,1.99-0.47
					C704.86,13.86,704.86,13.41,704.58,13.41L704.58,13.41z"/>
			</g>
		</g>
		<g>
			<g>
				<path class="st32" d="M703.49-0.39c-0.69,2.42-1.11,4.86-1.35,7.35c-0.25,2.49-0.89,4.8-2.2,6.95
					c-0.15,0.25,0.24,0.47,0.38,0.22c1.23-2.03,1.95-4.24,2.2-6.59c0.29-2.66,0.66-5.24,1.4-7.82
					C703.99-0.55,703.56-0.67,703.49-0.39L703.49-0.39z"/>
			</g>
		</g>
		<g>
			<g>
				<path class="st32" d="M685.02,6.35c-0.3-3.09-1.7-5.65-3.85-7.83c-2.28-2.32-4.32-4.84-6.19-7.5c-0.16-0.23-0.55-0.01-0.38,0.22
					c1.78,2.51,3.69,4.94,5.83,7.15c0.88,0.91,1.75,1.79,2.43,2.86c0.97,1.54,1.54,3.29,1.71,5.09
					C684.6,6.63,685.05,6.64,685.02,6.35L685.02,6.35z"/>
			</g>
		</g>
		<g>
			<g>
				<path class="st32" d="M696.03-4.38c-1.75,1.64-3.53,3.27-5.47,4.68c-1.23,0.9-2.38,1.9-3.6,2.81c-0.47,0.35-0.93,0.65-1.28,1.13
					c-0.38,0.52-0.58,1.12-0.68,1.75c-0.04,0.28,0.38,0.4,0.43,0.12c0.11-0.69,0.35-1.36,0.84-1.88c0.46-0.49,1.08-0.85,1.61-1.26
					c1.06-0.84,2.11-1.67,3.19-2.48c1.86-1.39,3.59-2.96,5.29-4.55C696.56-4.26,696.24-4.58,696.03-4.38L696.03-4.38z"/>
			</g>
		</g>
		<g>
			<g>
				<path class="st32" d="M702.14,4c-1.59,0.92-3.37,1.5-5.2,1.66c-0.28,0.02-0.29,0.47,0,0.45c1.91-0.17,3.76-0.75,5.43-1.72
					C702.62,4.24,702.39,3.86,702.14,4L702.14,4z"/>
			</g>
		</g>
		<g>
			<g>
				<path class="st32" d="M693.79,4.04c-0.75-1.29-1.14-2.79-1.11-4.27c0.01-0.29-0.44-0.29-0.45,0c-0.03,1.56,0.38,3.14,1.17,4.5
					C693.55,4.51,693.93,4.28,693.79,4.04L693.79,4.04z"/>
			</g>
		</g>
		<g>
			<g>
				<path class="st32" d="M698.6,5.34c-0.03-0.65-0.06-1.3-0.12-1.95c-0.02-0.18-0.03-0.36-0.07-0.53c-0.01-0.06-0.04-0.13,0-0.18
					c0.04-0.06,0.2-0.1,0.27-0.13c0.2-0.07,0.41-0.08,0.6-0.15c0.26-0.1,0.5-0.24,0.73-0.38c0.6-0.36,1.15-0.8,1.68-1.25
					c0.22-0.19-0.1-0.5-0.32-0.32c-0.5,0.42-1.01,0.83-1.57,1.17c-0.15,0.09-0.3,0.18-0.46,0.26c-0.05,0.03-0.1,0.05-0.16,0.08
					c-0.02,0.01-0.03,0.01-0.05,0.02c-0.04,0.02,0.04-0.01-0.01,0c-0.25,0.07-0.51,0.11-0.76,0.21c-0.2,0.08-0.38,0.21-0.42,0.43
					C697.92,2.81,698,3,698.02,3.18c0.09,0.71,0.1,1.44,0.14,2.16C698.17,5.63,698.62,5.63,698.6,5.34L698.6,5.34z"/>
			</g>
		</g>
		<g>
			<g>
				<path class="st32" d="M693.09,2.34c0.76-0.14,1.52-0.41,2.28-0.47c0.31-0.02,0.59-0.14,0.75-0.42c0.17-0.3,0.18-0.71,0.25-1.04
					c0.08-0.41,0.12-0.79,0.15-1.2c0.04-0.74,0.22-1.47,0.43-2.18c0.08-0.28-0.35-0.39-0.43-0.12c-0.2,0.68-0.36,1.38-0.43,2.09
					c-0.03,0.38-0.03,0.68-0.1,1.04c-0.06,0.34-0.12,0.68-0.2,1.02c-0.08,0.34-0.29,0.35-0.58,0.38c-0.75,0.09-1.49,0.33-2.24,0.48
					C692.69,1.96,692.81,2.39,693.09,2.34L693.09,2.34z"/>
			</g>
		</g>
		<g>
			<g>
				<path class="st32" d="M697.99,2.38c-0.63-0.17-1.24-0.48-1.73-0.89c-0.09-0.08-0.22-0.09-0.32,0c-0.08,0.08-0.09,0.24,0,0.32
					c0.56,0.47,1.22,0.82,1.92,1C698.15,2.89,698.27,2.46,697.99,2.38L697.99,2.38z"/>
			</g>
		</g>
		<g>
			<g>
				<path class="st32" d="M685.7,37.78c0.21,0.43,0.52,0.82,0.89,1.13c0.09,0.07,0.23,0.09,0.32,0c0.08-0.08,0.1-0.24,0-0.32
					c-0.17-0.14-0.33-0.3-0.47-0.48c0,0-0.03-0.03-0.02-0.02c0.01,0.02-0.02-0.02-0.02-0.03c-0.02-0.03-0.04-0.05-0.05-0.08
					c-0.04-0.05-0.07-0.1-0.1-0.16c-0.06-0.09-0.11-0.19-0.15-0.28c-0.05-0.11-0.21-0.14-0.3-0.08
					C685.67,37.55,685.64,37.67,685.7,37.78L685.7,37.78z"/>
			</g>
		</g>
		<g>
			<g>
				<path class="st32" d="M673.13,31.65c-0.43,0.18-0.86,0.24-1.32,0.18c-0.12-0.01-0.23,0.11-0.22,0.22
					c0.01,0.13,0.1,0.21,0.22,0.22c0.49,0.06,0.99,0,1.44-0.19c0.11-0.04,0.2-0.15,0.16-0.27C673.38,31.71,673.25,31.6,673.13,31.65
					L673.13,31.65z"/>
			</g>
		</g>
		<g>
			<g>
				<path class="st32" d="M676.9,17.47c-0.6,0.68-1.52,0.88-2.37,0.59c-0.27-0.09-0.39,0.34-0.12,0.43c0.99,0.33,2.1,0.08,2.8-0.7
					C677.41,17.57,677.09,17.26,676.9,17.47L676.9,17.47z"/>
			</g>
		</g>
		<g>
			<g>
				<path class="st32" d="M692.52,30.98c0.36,0.52,0.78,0.99,1.26,1.41c0.09,0.08,0.23,0.09,0.32,0c0.08-0.08,0.09-0.23,0-0.32
					c-0.23-0.2-0.44-0.41-0.64-0.63c-0.21-0.23-0.37-0.44-0.55-0.69c-0.07-0.1-0.2-0.15-0.3-0.08
					C692.51,30.74,692.45,30.88,692.52,30.98L692.52,30.98z"/>
			</g>
		</g>
		<g>
			<g>
				<path class="st32" d="M673.16,23.64c-0.42-0.09-0.85-0.18-1.27-0.27c-0.11-0.02-0.25,0.03-0.27,0.16
					c-0.03,0.11,0.03,0.25,0.16,0.27c0.42,0.09,0.85,0.18,1.27,0.27c0.11,0.02,0.25-0.03,0.27-0.16
					C673.34,23.8,673.28,23.66,673.16,23.64L673.16,23.64z"/>
			</g>
		</g>
		<g>
			<g>
				<path class="st32" d="M671.29,27.98c-0.39-0.08-0.77-0.17-1.16-0.25c-0.11-0.02-0.25,0.03-0.27,0.16
					c-0.03,0.11,0.03,0.25,0.16,0.27c0.39,0.08,0.77,0.17,1.16,0.25c0.11,0.02,0.25-0.03,0.27-0.16
					C671.47,28.15,671.41,28.01,671.29,27.98L671.29,27.98z"/>
			</g>
		</g>
	</g>
</g>
</svg>
