<?xml version="1.0" encoding="utf-8"?>
<!-- Generator: Adobe Illustrator 24.1.0, SVG Export Plug-In . SVG Version: 6.00 Build 0)  -->
<svg version="1.1" id="Layer_1" xmlns="http://www.w3.org/2000/svg" xmlns:xlink="http://www.w3.org/1999/xlink" x="0px" y="0px"
	 viewBox="0 0 800 418" style="enable-background:new 0 0 800 418;" xml:space="preserve">
<style type="text/css">
	.st0{fill:url(#SVGID_1_);}
	.st1{fill:url(#SVGID_2_);}
	.st2{fill:url(#SVGID_3_);}
	.st3{fill:url(#SVGID_4_);}
	.st4{fill:url(#SVGID_5_);}
	.st5{fill:url(#SVGID_6_);}
	.st6{fill:url(#SVGID_7_);}
	.st7{fill:url(#SVGID_8_);}
	.st8{fill:url(#SVGID_9_);}
	.st9{fill:url(#SVGID_10_);}
	.st10{fill:#590002;}
	.st11{fill:url(#SVGID_11_);stroke:#510002;stroke-width:0.8197;stroke-miterlimit:10;}
	.st12{fill:#FF38D3;stroke:#FF69DE;stroke-width:0.8197;stroke-miterlimit:10;}
	.st13{fill:#FFFFFF;}
	.st14{fill:#FF2E55;stroke:#FFFFFF;stroke-width:0.8197;stroke-miterlimit:10;}
	.st15{fill:#070041;}
	.st16{fill:url(#SVGID_12_);stroke:#9AEDFF;stroke-miterlimit:10;}
	.st17{fill:url(#SVGID_13_);}
	.st18{fill:#33A4FF;}
	.st19{fill:#54BCFF;}
	.st20{fill:#F6FCFF;}
	.st21{fill:url(#SVGID_14_);stroke:#9AEDFF;stroke-miterlimit:10;}
	.st22{fill:url(#SVGID_15_);}
	.st23{fill:url(#SVGID_16_);stroke:#510002;stroke-width:0.7008;stroke-miterlimit:10;}
	.st24{fill:#FF38D3;stroke:#FF69DE;stroke-width:0.7008;stroke-miterlimit:10;}
	.st25{fill:#FF2E55;stroke:#FFFFFF;stroke-width:0.7008;stroke-miterlimit:10;}
	.st26{fill:#FBFF64;stroke:#FFFE64;stroke-miterlimit:10;}
	.st27{fill:url(#SVGID_17_);stroke:#FFFE64;stroke-width:0.869;stroke-miterlimit:10;}
	.st28{fill:#FFB902;stroke:#FFFE64;stroke-miterlimit:10;}
	.st29{fill:#FFA741;stroke:#FFFE64;stroke-width:0.869;stroke-miterlimit:10;}
	.st30{fill:#FBFF64;stroke:#E0EC00;stroke-miterlimit:10;}
	.st31{fill:#FFFE3E;stroke:#FFFFFF;stroke-width:0.869;stroke-miterlimit:10;}
	.st32{fill:url(#SVGID_18_);stroke:#FFFE64;stroke-width:0.869;stroke-miterlimit:10;}
	.st33{fill:#1CFF0D;stroke:#1CFF0D;stroke-miterlimit:10;}
	.st34{fill:url(#SVGID_19_);stroke:#096F00;stroke-width:0.869;stroke-miterlimit:10;}
	.st35{fill:url(#SVGID_20_);stroke:#00C008;stroke-miterlimit:10;}
	.st36{fill:#096F00;stroke:#096F00;stroke-width:0.869;stroke-miterlimit:10;}
	.st37{fill:#096F00;stroke:#B3FF92;stroke-miterlimit:10;}
	.st38{fill:#096F00;stroke:#096F00;stroke-miterlimit:10;}
	.st39{fill:#00ECDC;stroke:#096F00;stroke-width:0.869;stroke-miterlimit:10;}
	.st40{fill:url(#SVGID_21_);stroke:#096F00;stroke-width:0.869;stroke-miterlimit:10;}
	.st41{fill:url(#SVGID_22_);stroke:#00C008;stroke-miterlimit:10;}
	.st42{fill:url(#SVGID_23_);stroke:#510002;stroke-width:0.8908;stroke-miterlimit:10;}
	.st43{fill:#FF38D3;stroke:#FF69DE;stroke-width:0.8908;stroke-miterlimit:10;}
	.st44{fill:#FF2E55;stroke:#FFFFFF;stroke-width:0.8908;stroke-miterlimit:10;}
	.st45{fill:url(#SVGID_24_);stroke:#9AEDFF;stroke-width:0.4792;stroke-miterlimit:10;}
	.st46{fill:url(#SVGID_25_);}
	.st47{fill:#FBFF64;stroke:#FFFE64;stroke-width:0.4688;stroke-miterlimit:10;}
	.st48{fill:url(#SVGID_26_);stroke:#FFFE64;stroke-width:0.4074;stroke-miterlimit:10;}
	.st49{fill:#FFB902;stroke:#FFFE64;stroke-width:0.4688;stroke-miterlimit:10;}
	.st50{fill:#FFA741;stroke:#FFFE64;stroke-width:0.4074;stroke-miterlimit:10;}
	.st51{fill:#FBFF64;stroke:#E0EC00;stroke-width:0.4688;stroke-miterlimit:10;}
	.st52{fill:#FFFE3E;stroke:#FFFFFF;stroke-width:0.4074;stroke-miterlimit:10;}
	.st53{fill:#1CFF0D;stroke:#1CFF0D;stroke-width:0.4087;stroke-miterlimit:10;}
	.st54{fill:url(#SVGID_27_);stroke:#096F00;stroke-width:0.3552;stroke-miterlimit:10;}
	.st55{fill:url(#SVGID_28_);stroke:#00C008;stroke-width:0.4087;stroke-miterlimit:10;}
	.st56{fill:#096F00;stroke:#096F00;stroke-width:0.3552;stroke-miterlimit:10;}
	.st57{fill:#096F00;stroke:#B3FF92;stroke-width:0.4087;stroke-miterlimit:10;}
	.st58{fill:#096F00;stroke:#096F00;stroke-width:0.4087;stroke-miterlimit:10;}
	.st59{fill:#00ECDC;stroke:#096F00;stroke-width:0.3552;stroke-miterlimit:10;}
	.st60{fill:url(#SVGID_29_);stroke:#510002;stroke-width:0.4569;stroke-miterlimit:10;}
	.st61{fill:#FF38D3;stroke:#FF69DE;stroke-width:0.4569;stroke-miterlimit:10;}
	.st62{fill:#FF2E55;stroke:#FFFFFF;stroke-width:0.4569;stroke-miterlimit:10;}
	.st63{fill:url(#SVGID_30_);stroke:#9AEDFF;stroke-width:0.4792;stroke-miterlimit:10;}
	.st64{fill:url(#SVGID_31_);}
	.st65{fill:url(#SVGID_32_);stroke:#FFFE64;stroke-width:0.4074;stroke-miterlimit:10;}
	.st66{fill:url(#SVGID_33_);stroke:#096F00;stroke-width:0.3552;stroke-miterlimit:10;}
	.st67{fill:url(#SVGID_34_);stroke:#00C008;stroke-width:0.4087;stroke-miterlimit:10;}
	.st68{fill:url(#SVGID_35_);stroke:#510002;stroke-width:0.4569;stroke-miterlimit:10;}
	.st69{fill:url(#SVGID_36_);stroke:#9AEDFF;stroke-width:0.4792;stroke-miterlimit:10;}
	.st70{fill:url(#SVGID_37_);}
	.st71{fill:url(#SVGID_38_);stroke:#FFFE64;stroke-width:0.4074;stroke-miterlimit:10;}
	.st72{fill:url(#SVGID_39_);stroke:#096F00;stroke-width:0.3552;stroke-miterlimit:10;}
	.st73{fill:url(#SVGID_40_);stroke:#00C008;stroke-width:0.4087;stroke-miterlimit:10;}
	.st74{fill:url(#SVGID_41_);stroke:#510002;stroke-width:0.4569;stroke-miterlimit:10;}
	.st75{fill:url(#SVGID_42_);stroke:#9AEDFF;stroke-width:0.4792;stroke-miterlimit:10;}
	.st76{fill:url(#SVGID_43_);}
	.st77{fill:url(#SVGID_44_);stroke:#FFFE64;stroke-width:0.4074;stroke-miterlimit:10;}
	.st78{fill:url(#SVGID_45_);stroke:#096F00;stroke-width:0.3552;stroke-miterlimit:10;}
	.st79{fill:url(#SVGID_46_);stroke:#00C008;stroke-width:0.4087;stroke-miterlimit:10;}
	.st80{fill:url(#SVGID_47_);stroke:#510002;stroke-width:0.4569;stroke-miterlimit:10;}
	.st81{fill:url(#SVGID_48_);stroke:#9AEDFF;stroke-width:1.6313;stroke-miterlimit:10;}
	.st82{fill:url(#SVGID_49_);}
	.st83{fill:#FBFF64;stroke:#FFFE64;stroke-width:1.5959;stroke-miterlimit:10;}
	.st84{fill:url(#SVGID_50_);stroke:#FFFE64;stroke-width:1.3868;stroke-miterlimit:10;}
	.st85{fill:#FFB902;stroke:#FFFE64;stroke-width:1.5959;stroke-miterlimit:10;}
	.st86{fill:#FFA741;stroke:#FFFE64;stroke-width:1.3868;stroke-miterlimit:10;}
	.st87{fill:#FBFF64;stroke:#E0EC00;stroke-width:1.5959;stroke-miterlimit:10;}
	.st88{fill:#FFFE3E;stroke:#FFFFFF;stroke-width:1.3868;stroke-miterlimit:10;}
	.st89{fill:#1CFF0D;stroke:#1CFF0D;stroke-width:1.3913;stroke-miterlimit:10;}
	.st90{fill:url(#SVGID_51_);stroke:#096F00;stroke-width:1.2091;stroke-miterlimit:10;}
	.st91{fill:url(#SVGID_52_);stroke:#00C008;stroke-width:1.3913;stroke-miterlimit:10;}
	.st92{fill:#096F00;stroke:#096F00;stroke-width:1.2091;stroke-miterlimit:10;}
	.st93{fill:#096F00;stroke:#B3FF92;stroke-width:1.3913;stroke-miterlimit:10;}
	.st94{fill:#096F00;stroke:#096F00;stroke-width:1.3913;stroke-miterlimit:10;}
	.st95{fill:#00ECDC;stroke:#096F00;stroke-width:1.2091;stroke-miterlimit:10;}
	.st96{fill:url(#SVGID_53_);stroke:#510002;stroke-width:1.5555;stroke-miterlimit:10;}
	.st97{fill:#FF38D3;stroke:#FF69DE;stroke-width:1.5555;stroke-miterlimit:10;}
	.st98{fill:#FF2E55;stroke:#FFFFFF;stroke-width:1.5555;stroke-miterlimit:10;}
	.st99{fill:url(#SVGID_54_);stroke:#9AEDFF;stroke-width:1.8478;stroke-miterlimit:10;}
	.st100{fill:url(#SVGID_55_);}
	.st101{fill:#FBFF64;stroke:#FFFE64;stroke-width:1.8076;stroke-miterlimit:10;}
	.st102{fill:url(#SVGID_56_);stroke:#FFFE64;stroke-width:1.5709;stroke-miterlimit:10;}
	.st103{fill:#FFB902;stroke:#FFFE64;stroke-width:1.8076;stroke-miterlimit:10;}
	.st104{fill:#FFA741;stroke:#FFFE64;stroke-width:1.5709;stroke-miterlimit:10;}
	.st105{fill:#FBFF64;stroke:#E0EC00;stroke-width:1.8076;stroke-miterlimit:10;}
	.st106{fill:#FFFE3E;stroke:#FFFFFF;stroke-width:1.5709;stroke-miterlimit:10;}
	.st107{fill:#1CFF0D;stroke:#1CFF0D;stroke-width:1.5759;stroke-miterlimit:10;}
	.st108{fill:url(#SVGID_57_);stroke:#096F00;stroke-width:1.3695;stroke-miterlimit:10;}
	.st109{fill:url(#SVGID_58_);stroke:#00C008;stroke-width:1.5759;stroke-miterlimit:10;}
	.st110{fill:#096F00;stroke:#096F00;stroke-width:1.3695;stroke-miterlimit:10;}
	.st111{fill:#096F00;stroke:#B3FF92;stroke-width:1.5759;stroke-miterlimit:10;}
	.st112{fill:#096F00;stroke:#096F00;stroke-width:1.5759;stroke-miterlimit:10;}
	.st113{fill:#00ECDC;stroke:#096F00;stroke-width:1.3695;stroke-miterlimit:10;}
	.st114{fill:url(#SVGID_59_);stroke:#510002;stroke-width:1.7619;stroke-miterlimit:10;}
	.st115{fill:#FF38D3;stroke:#FF69DE;stroke-width:1.7619;stroke-miterlimit:10;}
	.st116{fill:#FF2E55;stroke:#FFFFFF;stroke-width:1.7619;stroke-miterlimit:10;}
	.st117{font-family:'JetBrainsMono-Medium';}
	.st118{font-size:39.0496px;}
</style>
<g>
	<g>
		<linearGradient id="SVGID_1_" gradientUnits="userSpaceOnUse" x1="473.42" y1="176.8087" x2="817.4929" y2="176.8087">
			<stop  offset="0" style="stop-color:#6782FF"/>
			<stop  offset="0.3714" style="stop-color:#00E6F6"/>
			<stop  offset="0.7364" style="stop-color:#25DB00"/>
			<stop  offset="0.9974" style="stop-color:#D6FF92"/>
		</linearGradient>
		<path class="st0" d="M817.43,107.3c-15.9-1.34-31.79-2.67-47.69-4.01c-7.29-0.61-14.57-1.22-21.86-1.84
			c-7.64-0.64-15.37-1.73-22.69,1.19c-12.03,4.8-19.96,18.51-27.14,28.68c-7.84,11.11-14.97,22.74-21.25,34.81
			c-12.32,23.66-21.71,49.05-26.66,75.3c-2.54,13.45-4.06,27.15-4.27,40.85c-0.09,6.2,0.15,12.38,0.52,18.56
			c0.38,6.35,1.09,13.17-0.48,19.42c-2.77,11.07-13,15.59-23.11,18.43c-13.11,3.69-26.82,5.92-40.33,7.53
			c-15.19,1.8-30.49,2.64-45.79,2.47c-11.54-0.13-23.45-0.64-29.88-11.68c-6.49-11.13-9.52-25.25-10.6-37.99
			c-1.19-14.04-0.01-28.11,3.78-41.69c3.6-12.91,9.86-24.76,14.79-37.17c5.14-12.92,7.96-26.49,6.51-40.43
			c-3.22-30.96-21.44-57.38-29.53-87c-8.63-31.62-8.57-64.7-8.59-97.22c-0.01-11.58-18.01-11.6-18,0
			c0.02,30.5,0.21,61.28,6.62,91.24c3.06,14.3,7.98,27.83,13.7,41.26c5.31,12.45,11.11,24.76,14.84,37.82
			c3.61,12.66,4.6,25.43,1.02,38.2c-3.82,13.6-10.84,26.01-15.7,39.22c-10.03,27.27-10.49,58.4-1.48,86.02
			c4.22,12.93,10.4,26.19,23.33,32.36c12.44,5.94,27.23,5.28,40.68,4.99c15.47-0.33,30.88-1.74,46.18-3.98
			c13.83-2.02,28.36-4.16,41.43-9.34c11.99-4.75,22.2-12.56,26.56-25.12c4.53-13.04,1.64-27.4,1.53-40.85
			c-0.23-26.81,4.85-53.31,13.79-78.53c10.05-28.35,25.21-55.08,43.64-78.83c4.34-5.59,8.08-11.43,15.74-11.33
			c8.24,0.11,16.55,1.29,24.76,1.98c18.55,1.56,37.09,3.12,55.64,4.67c4.85,0.41,9-4.43,9-9
			C826.43,111.09,822.29,107.71,817.43,107.3L817.43,107.3z"/>
	</g>
</g>
<g>
	<g>
		<linearGradient id="SVGID_2_" gradientUnits="userSpaceOnUse" x1="-42.2256" y1="229.8967" x2="354.2697" y2="229.8967">
			<stop  offset="0.1837" style="stop-color:#00C803"/>
			<stop  offset="0.4672" style="stop-color:#807FFF"/>
			<stop  offset="1" style="stop-color:#3857FF"/>
		</linearGradient>
		<path class="st1" d="M-35.36,232.22c21.08-19.09,43.54-39.57,71.47-47.71c15.15-4.42,30.84-3.29,46.35-5.31
			c14.3-1.86,27.34-7.26,39.1-15.57c22.38-15.79,39.69-37.23,64.25-50.04c25.45-13.28,53.56-21.04,76.32-39.15
			c19.73-15.69,32.42-40.48,55.25-52.2c7.04-3.61,19.59-6.69,25.6,0.15c3.48,3.96,0.14,10.6-2.18,14.89
			c-4.03,7.48-8.34,14.83-12.52,22.23c-8.8,15.59-17.59,31.19-26.39,46.78c-8.07,14.31-16.57,28.5-22.36,43.94
			c-11.61,30.95-8.42,63.95,3.98,94.05c6.17,14.98,13.72,29.32,20.16,44.18c6.15,14.17,10.82,29.03,14.21,44.09
			c6.74,30.01,8.04,61.61,3.35,92.03c-1.21,7.88-2.82,15.69-4.75,23.43c-2.8,11.24,14.56,16.04,17.36,4.79
			c7.89-31.73,10.1-64.87,6.1-97.34c-2.05-16.64-5.41-33.07-10.48-49.06c-4.99-15.73-11.76-30.71-18.83-45.59
			c-6.89-14.49-13.79-29.04-17.62-44.7c-3.85-15.73-3.89-32.35-0.1-48.1c3.97-16.49,12.36-31.06,20.62-45.7
			c8.96-15.88,17.92-31.76,26.88-47.64c4.56-8.09,9.13-16.17,13.68-24.26c4.07-7.23,8.21-14.81,8.39-23.31
			c0.29-14.01-11.1-23.93-24.2-25.99c-28.37-4.47-49.7,19.08-66.62,38.28c-8.97,10.17-18.08,20.03-29.57,27.4
			c-12.44,7.97-26.12,13.69-39.67,19.47c-13.58,5.8-27.26,11.69-39.57,19.94c-11.99,8.03-22.47,18.01-33.16,27.64
			c-9.83,8.85-20.14,17.74-32.4,23.06c-14.64,6.36-30.67,4.98-46.19,6.57c-31.72,3.24-58.02,20.47-81.8,40.63
			c-5.91,5.01-11.67,10.19-17.41,15.39C-56.69,227.28-43.93,239.98-35.36,232.22L-35.36,232.22z"/>
	</g>
</g>
<g>
	<g>
		<linearGradient id="SVGID_3_" gradientUnits="userSpaceOnUse" x1="412.6998" y1="175.9153" x2="820.7592" y2="175.9153">
			<stop  offset="0.1837" style="stop-color:#00C803"/>
			<stop  offset="0.4672" style="stop-color:#807FFF"/>
			<stop  offset="1" style="stop-color:#FF3E62"/>
		</linearGradient>
		<path class="st2" d="M822.25,278.99c-11.25-2.25-22.87-1.82-34.08-4.22c-11.58-2.48-19.4-9.43-27.92-17.16
			c-16.02-14.53-36.6-26.16-58.92-24.94c-21,1.14-37.79,13.94-51.5,28.91c-14.48,15.81-27.11,32.94-43.41,47.04
			C590.78,322.14,571.9,333.57,551,336c-9.61,1.12-21.03,1.25-27.92-6.65c-5.57-6.37-7.15-15.54-6.99-23.75
			c0.21-10.72,4.08-20.97,7.3-31.07c3.59-11.24,6.69-22.8,5.95-34.71c-0.79-12.76-4.59-25.11-7.3-37.53
			c-2.76-12.67-4.8-25.53-4.22-38.54c0.94-21.13,10.44-42.19,30.53-51.25c18.46-8.32,41.22-6.71,59,2.57
			c8.69,4.54,16.64,10.92,22.25,19.03c3.07,4.45,5.76,9.64,6.15,15.12c0.41,5.64-2.47,10.07-4.44,15.12
			c-9.99,25.63,24.81,28.76,41.36,31.53c11.26,1.89,22.59,3.86,33.36,7.75c10.73,3.88,19.79,12.15,30.94,14.76
			c9.44,2.21,20.32-0.1,25.39-9.08c4.52-7.99,2.47-18.46-2.67-25.63c-6.27-8.73-16.68-12.65-26.37-16.28
			c-11.39-4.27-22.55-9.35-32.89-15.8c-4.1-2.56-7.9-5.46-10.39-9.7c-3.06-5.22-4-11.47-5.18-17.31
			c-2.14-10.64-5.47-20.85-10.53-30.48c-9.84-18.72-25.71-35.4-45.41-43.65c-22.26-9.32-43.42-2.78-64.18,7.08
			c-21.77,10.34-44.32,20.69-68.92,20.74c-12.1,0.03-22.44-2.92-30.72-12.1c-8.43-9.33-15.69-19.9-23.38-29.84
			c-8.13-10.52-16.26-21.04-24.39-31.56c-2-2.58-6.38-2.06-8.49,0c-2.56,2.5-1.97,5.94,0,8.49c8.33,10.78,16.66,21.57,25,32.35
			c7.79,10.08,15.1,21.03,23.89,30.27c16.65,17.5,42.86,16.27,64.64,11.01c11.71-2.83,22.96-7.24,33.93-12.17
			c10.77-4.84,21.17-10.68,32.46-14.26c10.85-3.44,21.69-3.89,32.53-0.17c10.41,3.57,19.55,10.37,27.13,18.22
			c7.69,7.96,13.92,17.32,18.37,27.45c4.47,10.19,5.68,20.92,8.66,31.52c3.06,10.88,9.4,18.55,18.92,24.47
			c10.29,6.4,21.41,11.54,32.71,15.87c8.82,3.38,21,6.57,24.77,16.35c3.91,10.11-4.72,15.01-13.74,12.09
			c-5.68-1.84-10.61-5.58-15.81-8.41c-5.18-2.82-10.71-5.08-16.31-6.9c-11.19-3.63-22.85-5.42-34.42-7.36
			c-5.11-0.86-10.22-1.73-15.29-2.81c-4.24-0.9-11.18-1.77-13.91-5.69c-2.57-3.68,1.38-9.27,2.83-12.69
			c2.25-5.29,3.02-10.67,2.18-16.37c-2.99-20.13-21.59-36.16-39.34-43.85c-18.86-8.18-41.11-9.57-60.49-2.24
			c-20.67,7.82-34.31,25.18-39.36,46.47c-5.72,24.09-0.28,48.69,5.33,72.25c2.98,12.49,5.27,24.68,2.55,37.45
			c-2.51,11.8-7.32,22.96-10.05,34.7c-3.95,17.02-2.54,38.71,12.22,50.39c16.25,12.86,42.18,7.11,59.61-0.24
			c19.6-8.26,36.45-22.03,51.11-37.24c14.5-15.04,26.22-33.01,42.47-46.31c7.86-6.44,17.29-11.4,27.5-12.55
			c10.71-1.21,21.7,1.47,31.28,6.21c19.86,9.81,32.35,30.46,54.77,35.28c11.23,2.42,22.83,1.97,34.08,4.22
			C826.6,292.07,829.83,280.51,822.25,278.99L822.25,278.99z"/>
	</g>
</g>
<g>
	<g>
		<linearGradient id="SVGID_4_" gradientUnits="userSpaceOnUse" x1="46.9147" y1="310.5002" x2="614.5411" y2="310.5002">
			<stop  offset="0.386" style="stop-color:#67BFFF"/>
			<stop  offset="0.7364" style="stop-color:#E4FF54"/>
			<stop  offset="0.9983" style="stop-color:#FF9DB2"/>
		</linearGradient>
		<path class="st3" d="M56.12,449.86c17.9-18.5,38.31-34.11,60.98-46.33c11.68-6.3,23.84-11.61,36.22-16.38
			c6.16-2.37,12.36-4.64,18.57-6.86c6.4-2.29,13.29-4.16,18.47-8.79c12.03-10.73,5.28-25.34-3.94-35.11
			c-2.94-3.11-7.27-7.08-8.75-9.53c0.2,0.33-1.69-3.27-1.07-1.98c0.6,1.23-0.91-2.3-0.11-0.38c-0.01-0.42-0.02-0.84-0.03-1.26
			c-0.28,1.15-0.26,1.01,0.07-0.41c0.46-2.3-0.46,0.35,0.65-1.54c1.7-2.88-1.22,1.01,1.13-1.51c0.87-0.94,1.84-1.86,2.86-2.63
			c-1.02,0.78,0.82-0.47,0.83-0.48c1.15-0.74,2.34-1.43,3.56-2.07c3.73-1.95,8.78-3.21,13.74-4.53
			c10.38-2.75,21.16-6.25,29.06-13.87c9.75-9.41,11.99-23.56,7.91-36.16c-3.76-11.61-12.32-20.96-15.92-32.5
			c-0.69-2.22-1.13-3.89-1.22-5.78c-0.12-2.55-0.07-3.25,1.09-5.03c0.48-0.74,1.47-1.53,2.23-1.97c2.92-1.69-1.53,0.26,1.75-0.74
			c1.23-0.37,2.52-0.68,3.79-0.87c-2.04,0.31,2.37-0.12,2.18-0.11c1.39-0.06,2.79-0.07,4.18-0.05c2.36,0.04,4.72,0.18,7.08,0.35
			c5.56,0.39,11.09,0.94,16.67,0.79c27.17-0.7,50.79-11.9,71.19-29.29c7.52-6.42,15.62-14.16,24.77-17.35
			c8.75-3.05,17.8-1.82,25.58,4.1c2.9,2.21,5.86,5.62,7.31,9.36c0.8,2.06,1.23,4.09,0.98,6.3c0.05-0.46-0.88,2.44-0.32,1.19
			c0-0.01-1.73,2.89-1.11,2.07c-2.98,3.98-6.58,5.94-10.66,8.79c-5.09,3.55-10.14,7.25-14.27,11.91
			c-8.35,9.41-14.15,21.02-16.04,33.49c-0.87,5.74-1.1,11.36-0.44,17.13c0.63,5.52,2.33,12.52,1.57,17.73
			c-0.64,4.38-3.55,5.9-7.23,8.18c-6.02,3.72-12.03,7.51-18.14,11.08c-4.4,2.57-5.53,2.51-9.96-0.29c-0.77-0.49-1.56-0.98-2.28-1.54
			c1.89,1.45-0.94-0.95-1.04-1.06c-0.83-0.8-1.6-1.64-2.36-2.5c-1.62-1.82,0.57,0.96-1-1.23c-10.78-15-16.07-35.15-34.47-43.04
			c-12.04-5.16-22.72-0.3-27.53,11.71c-3.18,7.94-3.75,17.45-2.83,25.92c1.52,14.02,7.99,26.32,14.41,38.64
			c6.7,12.84,13.4,25.69,20.1,38.53c6.21,11.91,13.17,30.83,30.42,24.89c6.29-2.16,11.55-7.75,16.43-12.13
			c4.1-3.69,8.11-7.56,12.52-10.87c9.69-7.27,19.49-9.01,31.4-9.09c12.79-0.08,25.87,0.35,37.93-4.57
			c10.9-4.44,19.3-12.41,27.25-20.87c6.74-7.17,12.92-14.69,22.1-18.03c20.84-7.6,45.08,7.28,61.99,19.04
			c8.72,6.07,17.58,13.37,22.25,23.14c5.36,11.21,3.91,24.78,6.65,36.71c5.35,23.25,20.16,43.13,36.57,59.88
			c8.12,8.29,16.81,15.98,25.56,23.58c4.89,4.25,12.16,4.81,16.97,0c4.34-4.34,4.91-12.7,0-16.97
			c-17.25-14.99-35.13-30.52-46.85-50.42c-5.68-9.65-9.4-19.93-10.55-31.19c-1.41-13.81-2.84-27.2-10.76-39.04
			c-7.36-11.01-17.57-19.41-28.39-26.87c-10.41-7.18-21.39-13.32-33.18-17.93c-12.45-4.86-25.86-7.02-39.12-4.9
			c-12.07,1.93-22.42,8.42-31.18,16.7c-7.48,7.07-14.41,16.52-22.39,21.82c-9.45,6.27-20.46,5.91-31.45,5.91
			c-13.6,0-26.85,0.97-39.11,7.41c-10.86,5.71-19.57,14.75-28.74,22.73c-0.41,0.36-3.61,2.6-3.6,3.05c0-0.26,6.04,2.28,6.47,1.92
			c-0.15,0.12-0.66-1.07-1.18-2.01c-0.96-1.73-1.83-3.51-2.74-5.25c-3.35-6.42-6.7-12.84-10.05-19.27
			c-6.82-13.07-13.98-26.02-20.4-39.3c-2.54-5.26-4.79-10.89-5.55-16.73c0.18,1.39,0.02-0.25,0.01-0.45
			c-0.08-1.06-0.13-2.12-0.15-3.18c-0.04-2.32,0.09-4.62,0.26-6.93c0.27-3.61-0.62,2.02,0.22-1.42c0.26-1.08,0.46-2.16,0.78-3.22
			c0.19-0.65,0.4-1.33,0.67-1.96c-0.14,0.37-0.28,0.74-0.42,1.1c0.72-1.16,0.57-1.08-0.44,0.24c2.32-1.22-2.21,1-2.17,0.99
			c0.01,0-4.28,0.91-2.63,0.25c0.49-0.2,2.86,1.31,0.73,0.21c1.27,0.66,2.52,1.37,3.67,2.24c-1.79-1.35,0.07,0.14,0.45,0.55
			c0.62,0.66,1.29,1.28,1.9,1.96c0.13,0.14,2.35,2.97,0.92,1.04c0.68,0.92,1.32,1.87,1.95,2.83c2.39,3.66,4.45,7.52,6.53,11.35
			c4.56,8.38,9.45,17.23,16.81,23.5c11.13,9.49,24.34,13.62,37.93,6.66c5.86-3,11.4-6.82,17.02-10.25
			c6.32-3.86,12.68-7.63,17.13-13.71c8.26-11.28,5.35-24.12,4.12-36.91c-1.04-10.88,1.38-21.35,8.15-30.27
			c6.32-8.32,15.69-12.24,23.56-19.51c10.19-9.41,14.01-23.46,9.19-36.62c-8.9-24.28-37.65-37.73-62.12-29.46
			c-23.3,7.87-37.44,29.93-59.92,39.39c-10.93,4.6-22.84,6.73-34.67,6.38c-11.03-0.32-21.79-2.18-32.76,0.12
			c-13.46,2.82-23.42,13.49-24.94,27.17c-1.39,12.58,4.35,24.57,10.61,35.08c2.94,4.93,6.07,9.92,7.62,15.49
			c1.26,4.52,0.52,8.3-1.35,10.35c-1.92,2.1-5.83,4.27-8.28,5.2c-4.87,1.84-9.92,3.07-14.94,4.4c-10.84,2.87-22.07,7.9-29.32,16.77
			c-8.09,9.9-9.59,23.14-2.77,34.25c2.87,4.67,6.79,8.55,10.6,12.43c1.57,1.6,3.24,3.2,4.61,4.98c-1.01-1.31,1.64,2.18,1.24,2.06
			c-1.62-0.47,0.36-5.18,1.15-4.9c-0.17-0.06-3.33,1.55-4.61,2.01c-2.96,1.06-5.92,2.11-8.87,3.18c-7.09,2.57-14.15,5.21-21.15,8.03
			c-25.96,10.46-50.18,23.42-72.32,40.61c-10.08,7.83-19.57,16.33-28.45,25.51C28.41,444,45.36,460.99,56.12,449.86L56.12,449.86z"
			/>
	</g>
</g>
<g id="_x33_IWjaK_29_">
	<g>
		<path class="st15" d="M175.1,219.98c0.59-0.04,1.12-0.05,1.64-0.11c6.86-0.74,13.72-1.5,20.58-2.24
			c7.31-0.79,14.63-1.56,21.95-2.35c1.43-0.16,2.9-0.24,4.25-0.67c1.17-0.37,2.27-1.09,3.26-1.84c2.26-1.72,4.74-2.54,7.57-2.26
			c3.76,0.37,7.26-0.64,10.7-1.97c1.04-0.4,2.08-0.9,3.16-1.08c2.09-0.35,4.14,0.89,4.87,2.88c1.52,4.13,2.02,8.41,1.45,12.78
			c-0.35,2.7-2.89,4.42-5.64,3.9c-2.98-0.56-5.98-0.98-9.01-0.6c-1.58,0.2-3.13,0.65-4.68,1.03c-2.25,0.56-4.39,0.25-6.5-0.65
			c-1.13-0.48-2.3-0.97-3.5-1.15c-1.2-0.18-2.46-0.06-3.68,0.08c-4.08,0.45-8.15,0.98-12.22,1.47c-8.65,1.03-17.3,2.05-25.95,3.08
			c-2.14,0.26-4.27,0.54-6.41,0.82c-0.18,0.02-0.36,0.06-0.54,0.1c0.02,1.4,0.1,2.77,0.06,4.14c-0.12,4.03-1,7.87-3.38,11.21
			c-3.3,4.62-7.88,6.45-13.45,5.83c-1.44-0.16-2.9-0.49-4.26-1.01c-3.75-1.42-7.3-1-10.7,0.93c-2.57,1.45-5.05,3.05-7.59,4.56
			c-3.85,2.28-7.97,3.77-12.47,4.12c-4.18,0.32-8.14-0.23-11.62-2.79c-3.02-2.21-5.1-5.16-6.72-8.47
			c-1.83-3.75-2.98-7.72-3.74-11.81c-1.11-6-1.32-12.01-0.34-18.04c0.6-3.67,1.69-7.17,3.79-10.3c2.52-3.77,6.1-5.85,10.51-6.76
			c5.86-1.21,11.45-0.21,16.99,1.71c2.65,0.92,5.35,1.77,8.08,2.39c2.94,0.67,5.72-0.06,8.25-1.71c2.41-1.57,5.01-2.7,7.89-2.98
			c4.69-0.46,8.65,1.13,11.84,4.59c2.65,2.87,4.13,6.34,4.99,10.1C174.73,217.89,174.9,218.91,175.1,219.98z M175.12,231.29
			c-0.35,0.04-0.62,0.07-0.89,0.1c-4.8,0.57-9.6,1.16-14.41,1.7c-0.67,0.08-1.03,0.32-1.35,0.91c-2.42,4.38-7.67,6.51-12.49,5.13
			c-4.85-1.39-8.17-5.98-7.93-10.96c0.21-4.51,3.07-8.38,7.31-9.89c4.16-1.48,8.87-0.25,11.83,3.13c0.33,0.37,0.63,0.49,1.12,0.43
			c4.28-0.48,8.57-0.92,12.85-1.38c0.88-0.09,1.76-0.2,2.73-0.31c-0.21-1.1-0.37-2.12-0.6-3.11c-0.74-3.18-1.96-6.15-4.05-8.7
			c-2.74-3.32-6.22-5.13-10.59-4.98c-2.87,0.1-5.47,1.1-7.84,2.66c-3.26,2.15-6.79,2.84-10.56,1.9c-2.39-0.6-4.74-1.39-7.07-2.21
			c-5.4-1.91-10.85-2.93-16.58-1.71c-4.28,0.91-7.66,3.03-9.97,6.78c-1.56,2.53-2.49,5.3-3.05,8.19
			c-1.05,5.43-1.03,10.88-0.26,16.34c0.61,4.28,1.66,8.44,3.37,12.43c1.06,2.47,2.4,4.78,4.16,6.84c3.6,4.2,8.22,5.64,13.61,5.19
			c4.51-0.38,8.6-1.92,12.43-4.23c2.33-1.41,4.63-2.88,6.99-4.23c3.9-2.22,7.96-2.68,12.21-0.99c0.97,0.38,2.02,0.6,3.06,0.76
			c6.04,0.96,11.19-1.6,13.96-6.97C175.18,240.11,175.52,235.81,175.12,231.29z M222.04,216.23c-21.22,2.27-42.39,4.53-63.63,6.8
			c1.57,2.87,1.88,5.78,1.02,8.89c21.23-2.54,42.37-5.06,63.53-7.59C222.65,221.6,222.35,218.99,222.04,216.23z M223.26,216.03
			c0.3,2.69,0.59,5.29,0.91,7.88c0.02,0.14,0.23,0.36,0.37,0.36c1.89,0.14,3.57,0.94,5.28,1.64c1.64,0.67,3.32,0.79,5.05,0.37
			c1.62-0.39,3.24-0.84,4.88-1.06c3.14-0.41,6.25,0.01,9.35,0.6c2.12,0.4,3.98-0.86,4.25-2.96c0.51-4.09,0.06-8.09-1.35-11.96
			c-0.71-1.93-2.78-2.78-4.68-1.99c-0.85,0.35-1.68,0.72-2.54,1.04c-3.51,1.31-7.08,2.14-10.88,1.76c-2.02-0.2-3.91,0.3-5.58,1.51
			C226.76,214.34,225.24,215.52,223.26,216.03z M139.32,229.66c0.6,5.32,5.42,9.2,10.71,8.61c5.31-0.59,9.18-5.41,8.62-10.72
			c-0.57-5.31-5.46-9.21-10.79-8.6C142.59,219.55,138.73,224.4,139.32,229.66z"/>
		
			<linearGradient id="SVGID_5_" gradientUnits="userSpaceOnUse" x1="277.5835" y1="262.0957" x2="348.1652" y2="262.0957" gradientTransform="matrix(0.6593 0.7519 -0.7519 0.6593 128.8792 -178.8177)">
			<stop  offset="0.1813" style="stop-color:#1B05FF"/>
			<stop  offset="0.9991" style="stop-color:#46BBFF"/>
		</linearGradient>
		<path style="fill:url(#SVGID_5_);stroke:#9AEDFF;stroke-width:1.6313;stroke-miterlimit:10;" d="M175.12,231.29
			c0.4,4.52,0.06,8.82-2,12.82c-2.77,5.37-7.92,7.93-13.96,6.97c-1.03-0.16-2.09-0.38-3.06-0.76c-4.25-1.69-8.31-1.23-12.21,0.99
			c-2.37,1.35-4.66,2.82-6.99,4.23c-3.84,2.31-7.93,3.85-12.43,4.23c-5.39,0.45-10.01-0.99-13.61-5.19
			c-1.76-2.05-3.1-4.36-4.16-6.84c-1.71-3.98-2.77-8.14-3.37-12.43c-0.77-5.46-0.79-10.91,0.26-16.34c0.56-2.9,1.49-5.66,3.05-8.19
			c2.31-3.76,5.69-5.87,9.97-6.78c5.73-1.22,11.18-0.2,16.58,1.71c2.33,0.83,4.68,1.62,7.07,2.21c3.77,0.94,7.29,0.25,10.56-1.9
			c2.37-1.56,4.97-2.56,7.84-2.66c4.37-0.16,7.86,1.65,10.59,4.98c2.1,2.55,3.31,5.52,4.05,8.7c0.23,1,0.39,2.01,0.6,3.11
			c-0.97,0.11-1.85,0.21-2.73,0.31c-4.29,0.46-8.57,0.91-12.85,1.38c-0.49,0.05-0.79-0.06-1.12-0.43
			c-2.96-3.38-7.67-4.61-11.83-3.13c-4.24,1.51-7.1,5.38-7.31,9.89c-0.24,4.98,3.08,9.56,7.93,10.96
			c4.82,1.39,10.07-0.75,12.49-5.13c0.33-0.59,0.69-0.84,1.35-0.91c4.81-0.54,9.61-1.13,14.41-1.7
			C174.5,231.36,174.77,231.33,175.12,231.29z"/>
		
			<radialGradient id="SVGID_6_" cx="343.3813" cy="219.1286" r="25.4765" gradientTransform="matrix(0.6593 0.7519 -0.7519 0.6593 128.8792 -178.8177)" gradientUnits="userSpaceOnUse">
			<stop  offset="0.1813" style="stop-color:#170054"/>
			<stop  offset="0.9991" style="stop-color:#005AF6"/>
		</radialGradient>
		<path class="st5" d="M222.04,216.23c0.31,2.75,0.61,5.37,0.92,8.1c-21.16,2.53-42.3,5.05-63.53,7.59
			c0.86-3.11,0.55-6.02-1.02-8.89C179.65,220.77,200.82,218.5,222.04,216.23z"/>
		<path class="st18" d="M223.26,216.03c1.98-0.5,3.5-1.69,5.06-2.82c1.67-1.21,3.56-1.71,5.58-1.51c3.79,0.38,7.37-0.45,10.88-1.76
			c0.86-0.32,1.69-0.7,2.54-1.04c1.9-0.78,3.97,0.06,4.68,1.99c1.41,3.87,1.87,7.87,1.35,11.96c-0.26,2.1-2.12,3.37-4.25,2.96
			c-3.09-0.59-6.21-1-9.35-0.6c-1.65,0.21-3.26,0.66-4.88,1.06c-1.73,0.42-3.41,0.3-5.05-0.37c-1.71-0.7-3.39-1.5-5.28-1.64
			c-0.14-0.01-0.35-0.23-0.37-0.36C223.85,221.31,223.56,218.72,223.26,216.03z"/>
		<path class="st15" d="M139.32,229.66c-0.59-5.26,3.27-10.11,8.53-10.71c5.33-0.61,10.22,3.29,10.79,8.6
			c0.57,5.31-3.3,10.12-8.62,10.72C144.74,238.86,139.92,234.98,139.32,229.66z M148.13,220.9c-4.26,0.47-7.33,4.23-6.87,8.43
			c0.48,4.41,4.2,7.46,8.52,6.99c4.32-0.47,7.37-4.25,6.91-8.54C156.23,223.48,152.43,220.43,148.13,220.9z"/>
		<path class="st19" d="M148.13,220.9c4.3-0.47,8.09,2.58,8.56,6.88c0.46,4.29-2.59,8.06-6.91,8.54c-4.32,0.47-8.04-2.58-8.52-6.99
			C140.81,225.14,143.88,221.37,148.13,220.9z M142.2,229.4c0.43,3.72,3.85,6.43,7.57,5.99c3.71-0.43,6.44-3.88,6-7.58
			c-0.44-3.72-3.87-6.42-7.58-5.99C144.47,222.25,141.77,225.67,142.2,229.4z"/>
		<path class="st20" d="M142.2,229.4c-0.43-3.73,2.27-7.14,5.99-7.58c3.71-0.43,7.14,2.27,7.58,5.99c0.44,3.69-2.29,7.14-6,7.58
			C146.05,235.83,142.63,233.12,142.2,229.4z"/>
	</g>
</g>
<g id="_x33_IWjaK_28_">
	<g>
		<path class="st83" d="M538.72,257.89c0.26-0.43,0.51-0.81,0.72-1.2c2.82-5.14,5.63-10.29,8.45-15.43
			c3.01-5.48,6.04-10.96,9.04-16.44c0.59-1.07,1.24-2.14,1.6-3.29c0.31-1,0.35-2.11,0.3-3.17c-0.1-2.41,0.54-4.54,2.11-6.38
			c2.09-2.44,3.08-5.37,3.84-8.42c0.23-0.92,0.38-1.89,0.78-2.73c0.78-1.63,2.64-2.45,4.38-1.99c3.62,0.95,6.84,2.69,9.61,5.21
			c1.71,1.56,1.67,4.16-0.03,5.83c-1.84,1.8-3.59,3.7-4.8,5.99c-0.63,1.2-1.07,2.5-1.56,3.77c-0.71,1.84-1.96,3.18-3.62,4.22
			c-0.89,0.55-1.8,1.13-2.51,1.88c-0.71,0.75-1.24,1.69-1.74,2.61c-1.67,3.06-3.28,6.15-4.93,9.23
			c-3.49,6.53-6.99,13.05-10.48,19.58c-0.86,1.61-1.7,3.24-2.55,4.87c-0.07,0.14-0.13,0.28-0.2,0.42c0.99,0.67,1.98,1.28,2.91,1.97
			c2.75,2.05,5,4.53,6.17,7.81c1.62,4.55,0.66,8.63-2.48,12.21c-0.81,0.93-1.76,1.79-2.77,2.48c-2.81,1.92-4.25,4.6-4.56,7.91
			c-0.24,2.5-0.33,5.01-0.52,7.51c-0.28,3.8-1.25,7.39-3.2,10.7c-1.81,3.07-4.12,5.56-7.6,6.75c-3.01,1.03-6.08,1.05-9.18,0.56
			c-3.51-0.55-6.83-1.68-10.06-3.14c-4.72-2.14-9.01-4.93-12.74-8.55c-2.27-2.2-4.18-4.67-5.34-7.65c-1.4-3.59-1.11-7.1,0.4-10.61
			c2.01-4.68,5.43-8.08,9.46-11.01c1.93-1.4,3.83-2.87,5.6-4.47c1.9-1.72,2.74-4.02,2.82-6.58c0.08-2.45,0.56-4.81,1.76-6.95
			c1.96-3.49,5-5.48,8.96-6.02c3.29-0.45,6.43,0.21,9.47,1.44C537.08,257.13,537.87,257.51,538.72,257.89z M546.61,263.38
			c-0.14,0.26-0.25,0.47-0.36,0.67c-1.94,3.63-3.87,7.26-5.83,10.87c-0.27,0.5-0.28,0.87-0.02,1.39c1.87,3.82,0.81,8.52-2.51,11.2
			c-3.33,2.7-8.14,2.78-11.5,0.2c-3.04-2.35-4.34-6.22-3.33-9.91c0.99-3.62,4.14-6.31,7.94-6.73c0.42-0.05,0.65-0.2,0.84-0.57
			c1.75-3.22,3.53-6.42,5.29-9.63c0.36-0.66,0.72-1.32,1.11-2.05c-0.87-0.39-1.66-0.77-2.46-1.1c-2.58-1.03-5.24-1.63-8.04-1.41
			c-3.65,0.29-6.6,1.84-8.63,4.96c-1.33,2.05-1.9,4.35-1.96,6.76c-0.09,3.32-1.32,6.12-3.81,8.29c-1.58,1.38-3.27,2.63-4.98,3.85
			c-3.96,2.83-7.32,6.13-9.26,10.72c-1.45,3.43-1.62,6.81-0.13,10.25c1.01,2.32,2.48,4.31,4.23,6.11c3.28,3.37,7.08,6.01,11.27,8.13
			c3.28,1.66,6.7,2.95,10.3,3.7c2.24,0.46,4.5,0.65,6.79,0.43c4.68-0.46,7.93-2.99,10.24-6.96c1.93-3.33,2.85-6.93,3.1-10.73
			c0.15-2.31,0.24-4.63,0.46-6.93c0.35-3.8,2.01-6.85,5.25-8.99c0.74-0.49,1.4-1.12,2.02-1.76c3.61-3.74,4.33-8.57,1.93-13.12
			C552.79,267.63,549.96,265.3,546.61,263.38z M558.95,223.35c-8.75,15.9-17.47,31.75-26.22,47.66c2.77,0.31,4.94,1.5,6.69,3.62
			c8.56-16.03,17.09-32,25.63-47.98C562.99,225.54,561.02,224.47,558.95,223.35z M559.4,222.39c2.03,1.1,3.97,2.16,5.93,3.2
			c0.11,0.06,0.36,0.01,0.43-0.08c1.02-1.25,2.39-2.03,3.72-2.89c1.26-0.82,2.16-1.93,2.71-3.34c0.51-1.32,0.99-2.67,1.64-3.92
			c1.24-2.39,3.05-4.35,4.96-6.23c1.31-1.28,1.34-3.19,0-4.4c-2.6-2.35-5.61-3.98-9-4.88c-1.69-0.45-3.29,0.59-3.67,2.29
			c-0.17,0.76-0.31,1.52-0.51,2.28c-0.79,3.08-1.96,5.98-4.07,8.44c-1.12,1.31-1.7,2.87-1.67,4.62
			C559.92,219.13,560.01,220.77,559.4,222.39z M528.05,287.54c4,2.17,9.05,0.7,11.21-3.28c2.17-3.99,0.7-9.04-3.28-11.22
			c-3.98-2.19-9.07-0.67-11.25,3.34C522.6,280.34,524.1,285.39,528.05,287.54z"/>
		
			<linearGradient id="SVGID_7_" gradientUnits="userSpaceOnUse" x1="167.3421" y1="205.9541" x2="216.5621" y2="205.9541" gradientTransform="matrix(0.7972 0.6038 -0.6038 0.7972 500.5224 8.6056)">
			<stop  offset="0" style="stop-color:#FFCB15"/>
			<stop  offset="1" style="stop-color:#F3FF12"/>
		</linearGradient>
		<path style="fill:url(#SVGID_7_);stroke:#FFFE64;stroke-width:1.3868;stroke-miterlimit:10;" d="M546.61,263.38
			c3.35,1.92,6.18,4.25,7.97,7.64c2.4,4.55,1.67,9.38-1.93,13.12c-0.62,0.64-1.28,1.27-2.02,1.76c-3.25,2.14-4.9,5.19-5.25,8.99
			c-0.21,2.3-0.3,4.62-0.46,6.93c-0.25,3.8-1.17,7.4-3.1,10.73c-2.31,3.97-5.56,6.5-10.24,6.96c-2.29,0.23-4.55,0.04-6.79-0.43
			c-3.61-0.74-7.02-2.03-10.3-3.7c-4.18-2.12-7.99-4.76-11.27-8.13c-1.75-1.8-3.22-3.79-4.23-6.11c-1.49-3.44-1.32-6.83,0.13-10.25
			c1.94-4.59,5.3-7.89,9.26-10.72c1.71-1.22,3.4-2.47,4.98-3.85c2.49-2.17,3.72-4.96,3.81-8.29c0.06-2.41,0.63-4.71,1.96-6.76
			c2.02-3.13,4.97-4.67,8.63-4.96c2.79-0.22,5.46,0.38,8.04,1.41c0.81,0.32,1.59,0.71,2.46,1.1c-0.39,0.73-0.75,1.39-1.11,2.05
			c-1.77,3.21-3.54,6.42-5.29,9.63c-0.2,0.37-0.43,0.52-0.84,0.57c-3.79,0.42-6.94,3.1-7.94,6.73c-1.01,3.69,0.29,7.57,3.33,9.91
			c3.35,2.59,8.16,2.5,11.5-0.2c3.31-2.69,4.38-7.39,2.51-11.2c-0.25-0.52-0.25-0.89,0.02-1.39c1.96-3.61,3.89-7.25,5.83-10.87
			C546.35,263.85,546.47,263.64,546.61,263.38z"/>
		<path class="st85" d="M558.95,223.35c2.07,1.12,4.04,2.19,6.1,3.3c-8.54,15.98-17.06,31.94-25.63,47.98
			c-1.75-2.12-3.93-3.31-6.69-3.62C541.48,255.1,550.2,239.24,558.95,223.35z"/>
		<path class="st86" d="M559.4,222.39c0.61-1.62,0.53-3.26,0.5-4.9c-0.03-1.75,0.54-3.31,1.67-4.62c2.11-2.46,3.28-5.35,4.07-8.44
			c0.19-0.75,0.34-1.52,0.51-2.28c0.38-1.7,1.97-2.74,3.67-2.29c3.39,0.9,6.4,2.53,9,4.88c1.34,1.21,1.31,3.12,0,4.4
			c-1.91,1.87-3.72,3.84-4.96,6.23c-0.65,1.25-1.13,2.6-1.64,3.92c-0.55,1.41-1.45,2.52-2.71,3.34c-1.32,0.85-2.7,1.63-3.72,2.89
			c-0.07,0.09-0.33,0.13-0.43,0.08C563.37,224.55,561.42,223.49,559.4,222.39z"/>
		<path class="st87" d="M528.05,287.54c-3.95-2.15-5.45-7.2-3.31-11.16c2.17-4.01,7.27-5.53,11.25-3.34
			c3.97,2.19,5.45,7.23,3.28,11.22C537.1,288.24,532.06,289.71,528.05,287.54z M526.24,277.13c-1.75,3.19-0.61,7.17,2.53,8.89
			c3.31,1.81,7.25,0.7,9.02-2.54c1.77-3.24,0.63-7.21-2.59-8.97C531.97,272.75,528,273.91,526.24,277.13z"/>
		<path class="st83" d="M526.24,277.13c1.76-3.23,5.74-4.39,8.96-2.62c3.22,1.76,4.36,5.73,2.59,8.97
			c-1.77,3.24-5.71,4.35-9.02,2.54C525.62,284.3,524.49,280.33,526.24,277.13z M529.27,285.4c2.8,1.51,6.36,0.44,7.86-2.36
			c1.5-2.8,0.43-6.38-2.36-7.87c-2.81-1.5-6.36-0.43-7.87,2.37C525.39,280.35,526.46,283.89,529.27,285.4z"/>
		<path class="st88" d="M529.27,285.4c-2.81-1.52-3.88-5.06-2.37-7.86c1.51-2.8,5.06-3.87,7.87-2.37c2.79,1.49,3.86,5.07,2.36,7.87
			C535.63,285.85,532.07,286.92,529.27,285.4z"/>
	</g>
</g>
<g id="_x33_IWjaK_27_">
	<g>
		<path class="st89" d="M707.72,343.22c0.41,0.17,0.76,0.33,1.13,0.47c4.8,1.75,9.61,3.5,14.41,5.26
			c5.12,1.87,10.24,3.76,15.36,5.63c1,0.36,2.01,0.79,3.05,0.95c0.9,0.13,1.87,0.02,2.77-0.15c2.07-0.4,3.99-0.14,5.77,0.98
			c2.38,1.48,5.03,1.95,7.76,2.2c0.82,0.08,1.68,0.08,2.46,0.32c1.51,0.45,2.46,1.95,2.29,3.51c-0.34,3.25-1.42,6.25-3.22,8.97
			c-1.12,1.68-3.37,1.99-5.03,0.74c-1.8-1.35-3.66-2.61-5.79-3.35c-1.11-0.39-2.29-0.6-3.45-0.85c-1.68-0.37-3-1.27-4.11-2.56
			c-0.59-0.69-1.21-1.4-1.95-1.91c-0.74-0.51-1.62-0.85-2.47-1.16c-2.86-1.04-5.74-2.02-8.6-3.03c-6.09-2.15-12.17-4.31-18.26-6.46
			c-1.51-0.53-3.02-1.04-4.53-1.56c-0.13-0.04-0.26-0.07-0.39-0.11c-0.44,0.94-0.84,1.88-1.32,2.77c-1.4,2.64-3.25,4.91-5.92,6.34
			c-3.71,1.99-7.35,1.71-10.85-0.54c-0.91-0.58-1.77-1.28-2.5-2.06c-2.03-2.17-4.52-3.05-7.42-2.89c-2.18,0.13-4.36,0.37-6.54,0.54
			c-3.31,0.25-6.54-0.11-9.64-1.35c-2.88-1.16-5.33-2.82-6.81-5.66c-1.28-2.46-1.7-5.1-1.69-7.84c0.01-3.09,0.55-6.11,1.38-9.08
			c1.23-4.35,3.06-8.42,5.69-12.1c1.6-2.25,3.48-4.21,5.89-5.6c2.91-1.68,5.97-1.89,9.2-1.05c4.3,1.12,7.68,3.61,10.73,6.71
			c1.46,1.48,2.97,2.93,4.59,4.24c1.74,1.41,3.82,1.84,6.04,1.57c2.12-0.26,4.22-0.15,6.22,0.6c3.27,1.23,5.38,3.59,6.37,6.93
			c0.82,2.78,0.67,5.57,0,8.35C708.16,341.71,707.93,342.44,707.72,343.22z M704.02,350.74c-0.25-0.09-0.43-0.16-0.62-0.22
			c-3.38-1.19-6.76-2.38-10.14-3.6c-0.47-0.17-0.79-0.12-1.2,0.16c-3.04,2.12-7.23,1.81-9.98-0.69c-2.76-2.52-3.47-6.65-1.68-9.88
			c1.62-2.93,4.79-4.56,8.1-4.18c3.25,0.38,5.98,2.74,6.84,5.96c0.09,0.35,0.26,0.53,0.6,0.65c3,1.09,6,2.2,9,3.3
			c0.62,0.23,1.24,0.45,1.91,0.69c0.22-0.8,0.45-1.53,0.62-2.27c0.55-2.36,0.72-4.73,0.16-7.11c-0.73-3.11-2.45-5.45-5.41-6.78
			c-1.94-0.87-4-1.06-6.08-0.8c-2.87,0.36-5.45-0.34-7.64-2.19c-1.4-1.18-2.7-2.48-3.98-3.79c-2.96-3.04-6.25-5.5-10.46-6.57
			c-3.14-0.8-6.09-0.5-8.85,1.24c-1.87,1.17-3.39,2.71-4.71,4.45c-2.48,3.27-4.25,6.89-5.53,10.78c-1,3.05-1.66,6.16-1.83,9.37
			c-0.1,1.99,0.03,3.97,0.53,5.91c1.01,3.97,3.62,6.45,7.34,7.91c3.12,1.23,6.34,1.54,9.65,1.26c2.01-0.17,4.02-0.4,6.03-0.52
			c3.32-0.2,6.17,0.83,8.44,3.35c0.52,0.57,1.15,1.06,1.78,1.51c3.7,2.62,7.96,2.61,11.56-0.06
			C701.17,356.63,702.8,353.88,704.02,350.74z M740.14,356.12c-14.85-5.45-29.66-10.88-44.52-16.34c0.1,2.42-0.65,4.45-2.24,6.24
			c14.94,5.27,29.82,10.53,44.72,15.78C738.79,359.89,739.45,358.05,740.14,356.12z M741.03,356.38c-0.68,1.89-1.34,3.71-1.98,5.53
			c-0.03,0.1,0.04,0.31,0.12,0.36c1.21,0.71,2.07,1.8,2.97,2.82c0.87,0.98,1.95,1.61,3.24,1.9c1.2,0.27,2.43,0.5,3.59,0.9
			c2.22,0.76,4.15,2.06,6.02,3.46c1.28,0.96,2.93,0.73,3.79-0.58c1.68-2.55,2.69-5.36,3.02-8.4c0.16-1.52-0.94-2.76-2.45-2.86
			c-0.68-0.04-1.35-0.07-2.03-0.14c-2.76-0.28-5.41-0.9-7.81-2.4c-1.28-0.8-2.7-1.08-4.2-0.83
			C743.91,356.41,742.5,356.69,741.03,356.38z M680.76,337.93c-1.35,3.73,0.59,7.89,4.3,9.23c3.72,1.35,7.88-0.59,9.24-4.3
			c1.36-3.72-0.61-7.91-4.36-9.25C686.25,332.28,682.09,334.24,680.76,337.93z"/>
		
			<linearGradient id="SVGID_8_" gradientUnits="userSpaceOnUse" x1="128.0753" y1="-1017.3758" x2="170.9865" y2="-1017.3758" gradientTransform="matrix(-0.4767 0.879 -0.879 -0.4767 -143.1038 -277.4127)">
			<stop  offset="0" style="stop-color:#23FF56"/>
			<stop  offset="1" style="stop-color:#099D00"/>
		</linearGradient>
		<path style="fill:url(#SVGID_8_);stroke:#096F00;stroke-width:1.2091;stroke-miterlimit:10;" d="M704.02,350.74
			c-1.22,3.14-2.85,5.89-5.53,7.87c-3.6,2.66-7.87,2.67-11.56,0.06c-0.63-0.45-1.26-0.94-1.78-1.51c-2.27-2.52-5.12-3.54-8.44-3.35
			c-2.01,0.12-4.02,0.35-6.03,0.52c-3.31,0.28-6.53-0.04-9.65-1.26c-3.73-1.47-6.33-3.94-7.34-7.91c-0.5-1.94-0.63-3.91-0.53-5.91
			c0.17-3.21,0.83-6.32,1.83-9.37c1.28-3.88,3.05-7.51,5.53-10.78c1.32-1.74,2.85-3.28,4.71-4.45c2.77-1.74,5.71-2.03,8.85-1.24
			c4.21,1.07,7.5,3.53,10.46,6.57c1.28,1.31,2.58,2.61,3.98,3.79c2.2,1.86,4.77,2.56,7.64,2.19c2.09-0.26,4.14-0.07,6.08,0.8
			c2.96,1.33,4.68,3.67,5.41,6.78c0.56,2.38,0.39,4.75-0.16,7.11c-0.17,0.74-0.4,1.46-0.62,2.27c-0.68-0.24-1.3-0.46-1.91-0.69
			c-3-1.1-5.99-2.21-9-3.3c-0.34-0.12-0.51-0.3-0.6-0.65c-0.86-3.21-3.59-5.58-6.84-5.96c-3.32-0.39-6.48,1.25-8.1,4.18
			c-1.79,3.23-1.09,7.37,1.68,9.88c2.75,2.5,6.94,2.81,9.98,0.69c0.41-0.29,0.73-0.33,1.2-0.16c3.37,1.22,6.76,2.4,10.14,3.6
			C703.59,350.59,703.77,350.66,704.02,350.74z"/>
		
			<radialGradient id="SVGID_9_" cx="142.5331" cy="-1055.437" r="17.5666" gradientTransform="matrix(-0.4767 0.879 -0.879 -0.4767 -143.1038 -277.4127)" gradientUnits="userSpaceOnUse">
			<stop  offset="0" style="stop-color:#70FF6F"/>
			<stop  offset="0.231" style="stop-color:#49D155"/>
			<stop  offset="0.4601" style="stop-color:#2AAB3F"/>
			<stop  offset="0.6712" style="stop-color:#139030"/>
			<stop  offset="0.8577" style="stop-color:#058026"/>
			<stop  offset="1" style="stop-color:#007A23"/>
		</radialGradient>
		<path style="fill:url(#SVGID_9_);stroke:#00C008;stroke-width:1.3913;stroke-miterlimit:10;" d="M740.14,356.12
			c-0.7,1.93-1.36,3.77-2.05,5.69c-14.89-5.26-29.77-10.51-44.72-15.78c1.59-1.79,2.34-3.82,2.24-6.24
			C710.48,345.24,725.29,350.67,740.14,356.12z"/>
		<path class="st92" d="M741.03,356.38c1.48,0.31,2.88,0.02,4.28-0.21c1.51-0.26,2.93,0.03,4.2,0.83c2.4,1.49,5.05,2.12,7.81,2.4
			c0.67,0.07,1.35,0.09,2.03,0.14c1.52,0.1,2.62,1.34,2.45,2.86c-0.33,3.04-1.34,5.85-3.02,8.4c-0.86,1.31-2.51,1.54-3.79,0.58
			c-1.86-1.4-3.8-2.7-6.02-3.46c-1.16-0.4-2.39-0.63-3.59-0.9c-1.29-0.29-2.37-0.92-3.24-1.9c-0.91-1.03-1.76-2.11-2.97-2.82
			c-0.09-0.05-0.16-0.26-0.12-0.36C739.69,360.09,740.34,358.27,741.03,356.38z"/>
		<path class="st93" d="M680.76,337.93c1.33-3.69,5.49-5.65,9.18-4.32c3.74,1.34,5.72,5.54,4.36,9.25c-1.36,3.71-5.52,5.65-9.24,4.3
			C681.35,345.82,679.41,341.66,680.76,337.93z M689.49,334.99c-2.98-1.08-6.26,0.41-7.33,3.35c-1.13,3.09,0.35,6.34,3.37,7.44
			c3.03,1.1,6.29-0.41,7.39-3.41C694.02,339.36,692.5,336.09,689.49,334.99z"/>
		<path class="st94" d="M689.49,334.99c3.01,1.09,4.53,4.37,3.43,7.38c-1.1,3-4.36,4.51-7.39,3.41c-3.03-1.1-4.5-4.35-3.37-7.44
			C683.23,335.41,686.51,333.91,689.49,334.99z M682.76,338.7c-0.93,2.61,0.45,5.54,3.07,6.46c2.61,0.93,5.55-0.47,6.47-3.07
			c0.92-2.62-0.47-5.54-3.08-6.47C686.61,334.69,683.7,336.08,682.76,338.7z"/>
		<path class="st95" d="M682.76,338.7c0.94-2.62,3.85-4.01,6.46-3.07c2.61,0.93,4,3.85,3.08,6.47c-0.92,2.6-3.86,4-6.47,3.07
			C683.21,344.23,681.82,341.31,682.76,338.7z"/>
	</g>
</g>
<g id="_x33_IWjaK_26_">
	<g>
		<path class="st10" d="M555.99,112.46c0.07-0.56,0.15-1.06,0.19-1.56c0.51-6.56,1.01-13.12,1.52-19.68
			c0.55-6.99,1.11-13.99,1.65-20.98c0.1-1.37,0.28-2.76,0.12-4.1c-0.15-1.16-0.62-2.32-1.15-3.38c-1.21-2.42-1.55-4.89-0.79-7.49
			c1.01-3.46,0.67-6.91,0.03-10.38c-0.19-1.05-0.48-2.11-0.46-3.15c0.04-2.02,1.57-3.72,3.56-4.06c4.14-0.7,8.24-0.41,12.23,0.88
			c2.47,0.8,3.63,3.48,2.66,5.97c-1.05,2.69-1.97,5.44-2.14,8.34c-0.09,1.51,0.06,3.05,0.14,4.57c0.13,2.21-0.54,4.16-1.75,5.98
			c-0.65,0.97-1.32,1.99-1.69,3.08c-0.38,1.09-0.49,2.3-0.58,3.47c-0.29,3.9-0.51,7.81-0.77,11.71c-0.55,8.29-1.12,16.57-1.67,24.86
			c-0.14,2.05-0.24,4.1-0.36,6.15c-0.01,0.17,0,0.34,0,0.52c1.32,0.22,2.62,0.39,3.89,0.67c3.76,0.82,7.2,2.32,9.91,5.14
			c3.75,3.9,4.66,8.52,3.1,13.63c-0.41,1.32-0.97,2.64-1.69,3.82c-1.99,3.26-2.22,6.67-1.01,10.19c0.91,2.66,1.97,5.27,2.94,7.91
			c1.46,4.01,2.13,8.14,1.67,12.41c-0.43,3.97-1.64,7.59-4.65,10.41c-2.6,2.44-5.73,3.88-9.12,4.81c-3.84,1.06-7.76,1.44-11.73,1.43
			c-5.81-0.01-11.49-0.88-16.97-2.85c-3.34-1.2-6.43-2.85-8.99-5.36c-3.09-3.03-4.41-6.75-4.49-11.03
			c-0.11-5.71,1.82-10.77,4.59-15.62c1.33-2.32,2.6-4.7,3.66-7.15c1.15-2.64,0.95-5.37-0.15-8.03c-1.05-2.54-1.65-5.17-1.41-7.92
			c0.4-4.48,2.58-7.91,6.38-10.29c3.16-1.98,6.67-2.76,10.35-2.9C553.97,112.43,554.95,112.46,555.99,112.46z M566.59,114.43
			c-0.02,0.34-0.04,0.59-0.06,0.85c-0.31,4.6-0.6,9.2-0.94,13.8c-0.05,0.64,0.12,1.02,0.62,1.43c3.68,3.04,4.76,8.33,2.61,12.61
			c-2.16,4.3-7.04,6.6-11.66,5.51c-4.19-0.99-7.31-4.35-7.98-8.59c-0.66-4.16,1.32-8.36,5.01-10.54c0.41-0.24,0.57-0.51,0.6-0.97
			c0.31-4.1,0.64-8.19,0.96-12.29c0.07-0.84,0.12-1.68,0.19-2.61c-1.07,0-2.05-0.03-3.02,0.01c-3.11,0.14-6.11,0.75-8.87,2.27
			c-3.6,1.98-5.9,4.93-6.53,9.05c-0.41,2.71,0.07,5.32,1.12,7.81c1.45,3.44,1.47,6.86-0.07,10.23c-0.98,2.14-2.13,4.2-3.31,6.24
			c-2.74,4.72-4.65,9.65-4.52,15.23c0.1,4.17,1.49,7.71,4.6,10.54c2.1,1.91,4.53,3.26,7.14,4.29c4.9,1.93,10.01,2.88,15.27,3.11
			c4.12,0.18,8.21-0.07,12.24-0.98c2.51-0.56,4.9-1.41,7.14-2.7c4.57-2.63,6.73-6.71,7.26-11.84c0.44-4.29-0.29-8.39-1.78-12.4
			c-0.91-2.43-1.88-4.84-2.73-7.29c-1.4-4.04-1.11-7.93,1.22-11.62c0.53-0.84,0.92-1.79,1.25-2.73c1.96-5.49,0.47-10.76-4.08-14.31
			C574.87,115.92,570.9,114.85,566.59,114.43z M560.72,67.81c-1.6,20.29-3.2,40.52-4.8,60.83c2.97-0.96,5.74-0.74,8.51,0.61
			c1.35-20.34,2.7-40.6,4.05-60.87C565.86,68.18,563.36,68,560.72,67.81z M560.74,66.63c2.58,0.19,5.06,0.37,7.54,0.54
			c0.13,0.01,0.37-0.15,0.41-0.28c0.46-1.75,1.51-3.18,2.47-4.66c0.92-1.42,1.32-2.97,1.23-4.67c-0.08-1.59-0.22-3.18-0.13-4.76
			c0.17-3.01,1.11-5.86,2.2-8.66c0.75-1.92-0.11-3.88-2.03-4.5c-3.74-1.2-7.57-1.48-11.45-0.83c-1.94,0.32-3.09,2.12-2.69,4.03
			c0.18,0.85,0.38,1.7,0.53,2.56c0.62,3.52,0.76,7.01-0.26,10.5c-0.54,1.86-0.41,3.72,0.43,5.5
			C559.77,63.05,560.62,64.69,560.74,66.63z M558.77,147.69c5.09,0.38,9.57-3.46,9.95-8.52c0.38-5.08-3.46-9.56-8.53-9.96
			c-5.08-0.4-9.59,3.5-9.96,8.6C549.88,142.85,553.74,147.32,558.77,147.69z"/>
		
			<radialGradient id="SVGID_10_" cx="804.2309" cy="-186.8237" r="34.318" fx="838.2336" fy="-182.1824" gradientTransform="matrix(0.8148 0.5797 -0.5797 0.8148 -204.1127 -165.1873)" gradientUnits="userSpaceOnUse">
			<stop  offset="0.0367" style="stop-color:#950004"/>
			<stop  offset="0.9991" style="stop-color:#FFB5B5"/>
		</radialGradient>
		<path style="fill:url(#SVGID_10_);stroke:#510002;stroke-width:1.5555;stroke-miterlimit:10;" d="M566.59,114.43
			c4.31,0.42,8.28,1.49,11.67,4.13c4.55,3.54,6.04,8.82,4.08,14.31c-0.34,0.94-0.72,1.89-1.25,2.73c-2.33,3.69-2.62,7.57-1.22,11.62
			c0.85,2.45,1.82,4.86,2.73,7.29c1.49,4,2.22,8.1,1.78,12.4c-0.52,5.13-2.69,9.21-7.26,11.84c-2.23,1.29-4.63,2.14-7.14,2.7
			c-4.03,0.9-8.12,1.16-12.24,0.98c-5.25-0.23-10.36-1.18-15.27-3.11c-2.62-1.03-5.05-2.39-7.14-4.29c-3.11-2.83-4.5-6.37-4.6-10.54
			c-0.14-5.59,1.77-10.52,4.52-15.23c1.18-2.04,2.34-4.1,3.31-6.24c1.54-3.36,1.52-6.79,0.07-10.23c-1.05-2.49-1.52-5.1-1.12-7.81
			c0.62-4.13,2.93-7.07,6.53-9.05c2.75-1.52,5.75-2.14,8.87-2.27c0.97-0.04,1.95-0.01,3.02-0.01c-0.07,0.93-0.12,1.77-0.19,2.61
			c-0.32,4.1-0.66,8.19-0.96,12.29c-0.03,0.47-0.2,0.73-0.6,0.97c-3.68,2.18-5.67,6.38-5.01,10.54c0.67,4.24,3.79,7.6,7.98,8.59
			c4.62,1.1,9.5-1.21,11.66-5.51c2.15-4.28,1.07-9.57-2.61-12.61c-0.5-0.41-0.66-0.79-0.62-1.43c0.34-4.6,0.63-9.2,0.94-13.8
			C566.55,115.02,566.57,114.76,566.59,114.43z"/>
		<path class="st10" d="M560.72,67.81c2.64,0.19,5.14,0.37,7.76,0.56c-1.35,20.28-2.7,40.53-4.05,60.87
			c-2.77-1.35-5.54-1.57-8.51-0.61C557.52,108.33,559.12,88.1,560.72,67.81z"/>
		<path class="st97" d="M560.74,66.63c-0.12-1.94-0.97-3.58-1.75-5.23c-0.84-1.78-0.98-3.64-0.43-5.5c1.02-3.49,0.88-6.99,0.26-10.5
			c-0.15-0.86-0.35-1.71-0.53-2.56c-0.4-1.92,0.75-3.71,2.69-4.03c3.88-0.64,7.71-0.37,11.45,0.83c1.92,0.62,2.78,2.58,2.03,4.5
			c-1.09,2.8-2.03,5.64-2.2,8.66c-0.09,1.58,0.05,3.18,0.13,4.76c0.09,1.7-0.32,3.25-1.23,4.67c-0.96,1.48-2.01,2.92-2.47,4.66
			c-0.03,0.12-0.27,0.29-0.41,0.28C565.8,67,563.32,66.82,560.74,66.63z"/>
		<path class="st10" d="M558.77,147.69c-5.03-0.37-8.9-4.84-8.54-9.88c0.37-5.11,4.88-9,9.96-8.6c5.07,0.4,8.91,4.88,8.53,9.96
			C568.35,144.23,563.87,148.06,558.77,147.69z M552.11,137.89c-0.31,4.07,2.68,7.61,6.69,7.92c4.22,0.32,7.73-2.63,8.05-6.76
			c0.31-4.13-2.68-7.66-6.79-7.98C555.95,130.76,552.42,133.78,552.11,137.89z"/>
		<path class="st13" d="M552.11,137.89c0.31-4.11,3.84-7.13,7.95-6.81c4.1,0.32,7.1,3.84,6.79,7.98c-0.31,4.13-3.83,7.08-8.05,6.76
			C554.79,145.5,551.8,141.96,552.11,137.89z M559.03,144.95c3.56,0.25,6.7-2.48,6.95-6.04c0.24-3.55-2.51-6.72-6.05-6.95
			c-3.56-0.24-6.7,2.5-6.95,6.05C552.74,141.56,555.46,144.69,559.03,144.95z"/>
		<path class="st98" d="M559.03,144.95c-3.57-0.25-6.3-3.38-6.05-6.94c0.25-3.56,3.39-6.29,6.95-6.05c3.54,0.24,6.29,3.4,6.05,6.95
			C565.73,142.47,562.59,145.2,559.03,144.95z"/>
	</g>
</g>
<g id="_x33_IWjaK_33_">
	<g>
		<path class="st15" d="M421.36,325.43c0.62-0.28,1.17-0.5,1.7-0.77c6.97-3.53,13.94-7.06,20.92-10.59
			c7.44-3.76,14.89-7.49,22.32-11.26c1.45-0.74,2.98-1.41,4.24-2.41c1.09-0.86,1.97-2.06,2.72-3.25c1.71-2.72,4.01-4.59,7.12-5.42
			c4.13-1.1,7.43-3.58,10.56-6.36c0.94-0.84,1.84-1.79,2.92-2.41c2.08-1.2,4.74-0.7,6.31,1.11c3.26,3.78,5.5,8.11,6.64,12.97
			c0.71,3-1.3,5.84-4.42,6.39c-3.38,0.59-6.73,1.35-9.79,2.96c-1.6,0.84-3.06,1.93-4.55,2.96c-2.17,1.49-4.55,2.02-7.15,1.91
			c-1.39-0.06-2.83-0.11-4.17,0.18c-1.34,0.29-2.64,0.92-3.87,1.55c-4.14,2.11-8.24,4.29-12.37,6.43
			c-8.76,4.54-17.52,9.08-26.27,13.62c-2.16,1.12-4.31,2.28-6.47,3.42c-0.18,0.1-0.35,0.21-0.53,0.32c0.58,1.48,1.21,2.9,1.71,4.37
			c1.48,4.33,2.08,8.74,0.89,13.23c-1.65,6.22-5.78,9.99-11.93,11.55c-1.59,0.4-3.28,0.64-4.92,0.64
			c-4.54-0.01-8.13,1.86-10.97,5.26c-2.14,2.57-4.14,5.25-6.23,7.86c-3.17,3.96-6.95,7.18-11.58,9.34
			c-4.3,2.01-8.72,3.01-13.43,1.69c-4.08-1.14-7.47-3.43-10.51-6.3c-3.44-3.25-6.25-6.99-8.68-11.03
			c-3.57-5.91-6.19-12.21-7.56-18.99c-0.84-4.13-1.07-8.28-0.1-12.43c1.17-5,4.13-8.64,8.44-11.36c5.73-3.63,12.05-4.79,18.69-4.97
			c3.18-0.08,6.37-0.26,9.52-0.69c3.39-0.46,6.04-2.35,8.06-5.1c1.93-2.63,4.23-4.87,7.17-6.31c4.79-2.36,9.62-2.26,14.38,0.14
			c3.96,1.99,6.91,5.07,9.32,8.72C420.13,323.36,420.71,324.37,421.36,325.43z M425.89,337.41c-0.36,0.18-0.63,0.32-0.9,0.46
			c-4.86,2.52-9.72,5.06-14.6,7.55c-0.68,0.35-0.96,0.75-1.07,1.51c-0.82,5.61-5.53,9.97-11.2,10.42
			c-5.69,0.46-11.04-3.08-12.78-8.45c-1.57-4.87-0.09-10.11,3.81-13.4c3.82-3.23,9.3-3.81,13.79-1.41c0.49,0.26,0.86,0.26,1.36,0.01
			c4.35-2.21,8.71-4.4,13.07-6.6c0.9-0.45,1.79-0.91,2.77-1.42c-0.66-1.09-1.23-2.1-1.88-3.06c-2.06-3.08-4.53-5.74-7.77-7.6
			c-4.23-2.43-8.64-2.96-13.22-1.05c-3,1.25-5.36,3.35-7.25,5.95c-2.6,3.59-6.06,5.72-10.43,6.23c-2.77,0.32-5.58,0.43-8.38,0.48
			c-6.48,0.12-12.67,1.22-18.25,4.8c-4.17,2.68-6.92,6.27-7.87,11.17c-0.64,3.31-0.52,6.61,0.04,9.9
			c1.06,6.17,3.25,11.94,6.25,17.42c2.35,4.3,5.13,8.29,8.54,11.83c2.12,2.2,4.46,4.11,7.14,5.58c5.49,3.02,10.97,2.7,16.5,0.07
			c4.63-2.2,8.35-5.47,11.49-9.45c1.91-2.42,3.75-4.9,5.72-7.27c3.25-3.91,7.37-6.02,12.55-5.92c1.18,0.02,2.38-0.17,3.55-0.41
			c6.78-1.39,11.22-6.16,12.01-12.96C429.48,346.74,428.12,342.05,425.89,337.41z M469.61,302.72
			c-21.59,10.88-43.12,21.72-64.73,32.61c2.81,2.42,4.3,5.37,4.62,9.02c21.49-11.16,42.89-22.28,64.31-33.4
			C472.4,308.17,471.04,305.51,469.61,302.72z M470.82,302.01c1.4,2.73,2.74,5.37,4.11,7.99c0.07,0.14,0.39,0.28,0.53,0.24
			c2.06-0.61,4.16-0.43,6.26-0.37c2,0.06,3.83-0.49,5.5-1.63c1.56-1.06,3.1-2.19,4.75-3.07c3.17-1.69,6.63-2.49,10.15-3.1
			c2.41-0.42,3.88-2.5,3.32-4.84c-1.09-4.54-3.17-8.6-6.21-12.14c-1.52-1.77-4.06-1.84-5.75-0.25c-0.76,0.71-1.49,1.44-2.27,2.12
			c-3.19,2.79-6.66,5.09-10.83,6.21c-2.22,0.59-4.03,1.88-5.31,3.83C473.86,298.82,472.72,300.69,470.82,302.01z M387.29,349.97
			c2.76,5.4,9.42,7.59,14.79,4.85c5.39-2.75,7.57-9.4,4.85-14.8c-2.72-5.4-9.46-7.58-14.87-4.81
			C386.73,337.95,384.57,344.63,387.29,349.97z"/>
		
			<linearGradient id="SVGID_11_" gradientUnits="userSpaceOnUse" x1="402.1087" y1="316.6544" x2="482.0566" y2="316.6544" gradientTransform="matrix(0.882 0.4713 -0.4713 0.882 145.1345 -137.624)">
			<stop  offset="0.1813" style="stop-color:#1B05FF"/>
			<stop  offset="0.9991" style="stop-color:#46BBFF"/>
		</linearGradient>
		<path style="fill:url(#SVGID_11_);stroke:#9AEDFF;stroke-width:1.8478;stroke-miterlimit:10;" d="M425.89,337.41
			c2.23,4.64,3.59,9.33,3,14.39c-0.79,6.8-5.23,11.57-12.01,12.96c-1.16,0.24-2.37,0.43-3.55,0.41c-5.18-0.09-9.3,2.01-12.55,5.92
			c-1.97,2.37-3.81,4.85-5.72,7.27c-3.14,3.98-6.86,7.25-11.49,9.45c-5.53,2.63-11.01,2.95-16.5-0.07
			c-2.68-1.48-5.02-3.39-7.14-5.58c-3.4-3.54-6.18-7.53-8.54-11.83c-3-5.48-5.19-11.25-6.25-17.42c-0.56-3.29-0.68-6.6-0.04-9.9
			c0.95-4.9,3.69-8.49,7.87-11.17c5.59-3.58,11.77-4.68,18.25-4.8c2.8-0.05,5.6-0.15,8.38-0.48c4.37-0.51,7.83-2.65,10.43-6.23
			c1.89-2.6,4.24-4.69,7.25-5.95c4.58-1.91,8.99-1.38,13.22,1.05c3.24,1.86,5.72,4.53,7.77,7.6c0.64,0.96,1.21,1.98,1.88,3.06
			c-0.98,0.5-1.87,0.96-2.77,1.42c-4.36,2.2-8.72,4.38-13.07,6.6c-0.49,0.25-0.86,0.25-1.36-0.01c-4.48-2.4-9.97-1.82-13.79,1.41
			c-3.89,3.3-5.38,8.53-3.81,13.4c1.74,5.37,7.08,8.9,12.78,8.45c5.67-0.45,10.38-4.81,11.2-10.42c0.11-0.76,0.39-1.16,1.07-1.51
			c4.88-2.49,9.73-5.03,14.6-7.55C425.26,337.73,425.53,337.59,425.89,337.41z"/>
		
			<radialGradient id="SVGID_12_" cx="476.6379" cy="267.9856" r="28.8573" gradientTransform="matrix(0.882 0.4713 -0.4713 0.882 145.1345 -137.624)" gradientUnits="userSpaceOnUse">
			<stop  offset="0.1813" style="stop-color:#170054"/>
			<stop  offset="0.9991" style="stop-color:#005AF6"/>
		</radialGradient>
		<path style="fill:url(#SVGID_12_);" d="M469.61,302.72c1.43,2.8,2.79,5.45,4.21,8.22c-21.42,11.13-42.82,22.24-64.31,33.4
			c-0.33-3.64-1.82-6.6-4.62-9.02C426.49,324.44,448.02,313.6,469.61,302.72z"/>
		<path class="st18" d="M470.82,302.01c1.89-1.32,3.04-3.19,4.24-5c1.29-1.95,3.09-3.23,5.31-3.83c4.17-1.12,7.63-3.42,10.83-6.21
			c0.78-0.68,1.52-1.41,2.27-2.12c1.7-1.59,4.23-1.52,5.75,0.25c3.04,3.54,5.12,7.6,6.21,12.14c0.56,2.33-0.91,4.41-3.32,4.84
			c-3.51,0.61-6.98,1.41-10.15,3.1c-1.66,0.88-3.2,2.01-4.75,3.07c-1.67,1.14-3.5,1.68-5.5,1.63c-2.1-0.06-4.2-0.24-6.26,0.37
			c-0.15,0.04-0.46-0.1-0.53-0.24C473.56,307.38,472.22,304.74,470.82,302.01z"/>
		<path class="st15" d="M387.29,349.97c-2.73-5.34-0.57-12.02,4.77-14.76c5.41-2.77,12.15-0.6,14.87,4.81
			c2.72,5.4,0.54,12.05-4.85,14.8C396.71,357.56,390.05,355.38,387.29,349.97z M393.14,337.17c-4.32,2.19-6.08,7.41-3.92,11.68
			c2.27,4.48,7.43,6.23,11.82,4.01c4.39-2.23,6.12-7.44,3.92-11.81C402.75,336.67,397.5,334.95,393.14,337.17z"/>
		<path class="st19" d="M393.14,337.17c4.37-2.22,9.61-0.5,11.82,3.88c2.2,4.36,0.47,9.58-3.92,11.81
			c-4.39,2.23-9.55,0.47-11.82-4.01C387.06,344.58,388.81,339.36,393.14,337.17z M390.24,348.54c1.94,3.77,6.65,5.28,10.42,3.33
			c3.76-1.94,5.28-6.69,3.33-10.43c-1.95-3.76-6.66-5.26-10.43-3.32C389.79,340.07,388.29,344.76,390.24,348.54z"/>
		<path class="st20" d="M390.24,348.54c-1.94-3.78-0.45-8.48,3.32-10.42c3.77-1.94,8.47-0.44,10.43,3.32
			c1.94,3.74,0.43,8.48-3.33,10.43C396.89,353.82,392.18,352.32,390.24,348.54z"/>
	</g>
</g>
<g id="_x33_IWjaK_32_">
	<g>
		<path class="st101" d="M157.07,299.34c-0.57,0.05-1.08,0.08-1.58,0.14c-6.58,0.88-13.17,1.78-19.75,2.66
			c-7.02,0.94-14.05,1.85-21.07,2.8c-1.37,0.18-2.79,0.3-4.08,0.75c-1.11,0.39-2.16,1.1-3.09,1.85c-2.13,1.71-4.5,2.56-7.23,2.36
			c-3.63-0.27-6.97,0.8-10.25,2.16c-0.99,0.41-1.98,0.92-3.02,1.12c-2.01,0.39-4.01-0.76-4.76-2.66c-1.57-3.94-2.15-8.05-1.71-12.27
			c0.27-2.61,2.67-4.32,5.33-3.89c2.88,0.47,5.78,0.79,8.69,0.36c1.52-0.23,3-0.7,4.48-1.11c2.15-0.59,4.22-0.35,6.28,0.47
			c1.1,0.44,2.24,0.88,3.4,1.02c1.16,0.14,2.37,0,3.54-0.16c3.91-0.54,7.82-1.14,11.73-1.71c8.3-1.2,16.6-2.39,24.9-3.6
			c2.05-0.3,4.1-0.63,6.15-0.94c0.17-0.03,0.34-0.07,0.52-0.11c-0.06-1.35-0.16-2.67-0.16-3.98c0.02-3.89,0.77-7.6,2.98-10.87
			c3.06-4.53,7.43-6.41,12.81-5.94c1.39,0.12,2.81,0.4,4.12,0.86c3.64,1.27,7.05,0.78,10.28-1.16c2.44-1.46,4.79-3.06,7.2-4.57
			c3.65-2.29,7.58-3.82,11.91-4.27c4.01-0.41,7.84,0.02,11.26,2.4c2.96,2.06,5.04,4.84,6.68,7.99c1.85,3.57,3.06,7.36,3.89,11.28
			c1.22,5.74,1.56,11.53,0.77,17.36c-0.48,3.55-1.45,6.95-3.39,10.01c-2.34,3.69-5.73,5.78-9.95,6.77
			c-5.62,1.31-11.02,0.48-16.4-1.24c-2.58-0.82-5.19-1.57-7.84-2.11c-2.85-0.58-5.51,0.19-7.9,1.84c-2.28,1.57-4.76,2.72-7.52,3.06
			c-4.51,0.56-8.35-0.88-11.51-4.13c-2.62-2.7-4.13-6-5.05-9.6C157.48,301.34,157.29,300.37,157.07,299.34z M156.78,288.46
			c0.34-0.05,0.59-0.08,0.85-0.12c4.61-0.67,9.22-1.35,13.83-1.99c0.64-0.09,0.98-0.33,1.28-0.91c2.22-4.27,7.23-6.46,11.9-5.24
			c4.7,1.22,8.01,5.56,7.9,10.35c-0.1,4.35-2.75,8.14-6.8,9.7c-3.97,1.53-8.53,0.46-11.46-2.72c-0.32-0.35-0.62-0.45-1.09-0.39
			c-4.11,0.56-8.23,1.1-12.34,1.64c-0.85,0.11-1.69,0.23-2.62,0.36c0.23,1.06,0.4,2.03,0.65,2.98c0.79,3.04,2.03,5.88,4.12,8.28
			c2.72,3.13,6.11,4.79,10.32,4.53c2.76-0.17,5.24-1.19,7.48-2.75c3.09-2.15,6.47-2.9,10.12-2.09c2.32,0.51,4.6,1.22,6.86,1.96
			c5.24,1.71,10.51,2.56,16,1.24c4.1-0.98,7.3-3.1,9.44-6.77c1.44-2.48,2.27-5.16,2.73-7.96c0.87-5.25,0.73-10.5-0.15-15.74
			c-0.69-4.11-1.81-8.09-3.55-11.88c-1.08-2.36-2.43-4.54-4.17-6.48c-3.56-3.96-8.05-5.23-13.23-4.66
			c-4.33,0.47-8.23,2.06-11.87,4.38c-2.21,1.41-4.38,2.88-6.63,4.24c-3.7,2.23-7.6,2.77-11.73,1.25c-0.94-0.35-1.96-0.53-2.96-0.66
			c-5.83-0.78-10.73,1.81-13.27,7.05C156.5,279.96,156.29,284.11,156.78,288.46z M111.98,304.09c20.37-2.7,40.69-5.4,61.08-8.1
			c-1.58-2.73-1.95-5.51-1.19-8.53c-20.37,2.96-40.66,5.91-60.97,8.85C111.26,298.94,111.61,301.45,111.98,304.09z M110.81,304.32
			c-0.36-2.59-0.7-5.08-1.06-7.56c-0.02-0.13-0.23-0.34-0.36-0.34c-1.82-0.09-3.46-0.82-5.13-1.45c-1.59-0.6-3.21-0.68-4.87-0.23
			c-1.55,0.42-3.1,0.89-4.68,1.14c-3.01,0.47-6.02,0.14-9.01-0.35c-2.05-0.34-3.81,0.93-4.01,2.96c-0.39,3.95,0.14,7.79,1.6,11.48
			c0.73,1.84,2.74,2.61,4.55,1.81c0.81-0.36,1.6-0.74,2.42-1.07c3.34-1.35,6.77-2.23,10.43-1.96c1.95,0.14,3.76-0.38,5.34-1.59
			C107.48,306.04,108.92,304.86,110.81,304.32z M191.28,289.15c-0.71-5.11-5.44-8.72-10.52-8.03c-5.1,0.7-8.71,5.43-8.03,10.53
			c0.68,5.1,5.48,8.73,10.6,8.01C188.37,298.96,191.97,294.2,191.28,289.15z"/>
		
			<linearGradient id="SVGID_13_" gradientUnits="userSpaceOnUse" x1="-18.4455" y1="264.1933" x2="37.306" y2="264.1933" gradientTransform="matrix(0.0134 -0.9999 0.9999 0.0134 -72.7428 293.2373)">
			<stop  offset="0" style="stop-color:#FFCB15"/>
			<stop  offset="1" style="stop-color:#F3FF12"/>
		</linearGradient>
		<path style="fill:url(#SVGID_13_);stroke:#FFFE64;stroke-width:1.5709;stroke-miterlimit:10;" d="M156.78,288.46
			c-0.49-4.35-0.28-8.49,1.61-12.39c2.54-5.24,7.43-7.83,13.27-7.05c1,0.13,2.02,0.31,2.96,0.66c4.13,1.52,8.03,0.98,11.73-1.25
			c2.24-1.35,4.42-2.83,6.63-4.24c3.64-2.32,7.54-3.9,11.87-4.38c5.17-0.57,9.66,0.71,13.23,4.66c1.74,1.93,3.09,4.12,4.17,6.48
			c1.75,3.79,2.86,7.77,3.55,11.88c0.88,5.24,1.03,10.48,0.15,15.74c-0.47,2.8-1.29,5.49-2.73,7.96c-2.13,3.67-5.34,5.79-9.44,6.77
			c-5.49,1.32-10.76,0.47-16-1.24c-2.26-0.74-4.54-1.44-6.86-1.96c-3.65-0.81-7.03-0.06-10.12,2.09c-2.24,1.56-4.72,2.58-7.48,2.75
			c-4.21,0.26-7.6-1.4-10.32-4.53c-2.08-2.4-3.32-5.23-4.12-8.28c-0.25-0.95-0.42-1.93-0.65-2.98c0.93-0.13,1.77-0.25,2.62-0.36
			c4.11-0.55,8.23-1.08,12.34-1.64c0.47-0.06,0.76,0.04,1.09,0.39c2.93,3.18,7.49,4.25,11.46,2.72c4.05-1.56,6.7-5.35,6.8-9.7
			c0.11-4.8-3.2-9.13-7.9-10.35c-4.68-1.22-9.68,0.97-11.9,5.24c-0.3,0.58-0.64,0.82-1.28,0.91c-4.61,0.64-9.22,1.32-13.83,1.99
			C157.37,288.37,157.12,288.41,156.78,288.46z"/>
		<path class="st103" d="M111.98,304.09c-0.37-2.64-0.72-5.15-1.08-7.78c20.31-2.95,40.6-5.9,60.97-8.85
			c-0.75,3.02-0.38,5.81,1.19,8.53C152.67,298.7,132.35,301.39,111.98,304.09z"/>
		<path class="st104" d="M110.81,304.32c-1.89,0.53-3.33,1.71-4.8,2.83c-1.58,1.2-3.39,1.73-5.34,1.59
			c-3.66-0.27-7.08,0.61-10.43,1.96c-0.82,0.33-1.61,0.71-2.42,1.07c-1.81,0.8-3.82,0.04-4.55-1.81c-1.46-3.69-1.99-7.53-1.6-11.48
			c0.2-2.03,1.96-3.29,4.01-2.96c2.99,0.49,6,0.82,9.01,0.35c1.58-0.25,3.13-0.72,4.68-1.14c1.66-0.45,3.28-0.37,4.87,0.23
			c1.67,0.63,3.3,1.36,5.13,1.45c0.13,0.01,0.34,0.21,0.36,0.34C110.11,299.25,110.45,301.74,110.81,304.32z"/>
		<path class="st105" d="M191.28,289.15c0.7,5.05-2.9,9.81-7.95,10.52c-5.12,0.72-9.92-2.92-10.6-8.01
			c-0.68-5.09,2.93-9.83,8.03-10.53C185.83,280.43,190.57,284.04,191.28,289.15z M183.01,297.8c4.09-0.55,6.95-4.26,6.41-8.28
			c-0.57-4.23-4.23-7.08-8.37-6.52c-4.15,0.56-6.99,4.27-6.44,8.39C175.15,295.51,178.88,298.36,183.01,297.8z"/>
		<path class="st101" d="M183.01,297.8c-4.13,0.56-7.85-2.29-8.41-6.42c-0.55-4.12,2.3-7.82,6.44-8.39c4.14-0.56,7.8,2.29,8.37,6.52
			C189.96,293.54,187.09,297.24,183.01,297.8z M188.51,289.47c-0.5-3.57-3.86-6.09-7.43-5.58c-3.56,0.51-6.1,3.89-5.59,7.44
			c0.52,3.57,3.88,6.09,7.45,5.58C186.5,296.41,189.02,293.05,188.51,289.47z"/>
		<path class="st106" d="M188.51,289.47c0.5,3.58-2.01,6.93-5.58,7.44c-3.57,0.51-6.93-2.02-7.45-5.58
			c-0.52-3.55,2.03-6.93,5.59-7.44C184.65,283.38,188.01,285.9,188.51,289.47z"/>
	</g>
</g>
<g id="_x33_IWjaK_31_">
	<g>
		<path class="st107" d="M352.36,221.18c0.16,0.47,0.28,0.9,0.44,1.31c2.1,5.4,4.21,10.79,6.3,16.19
			c2.23,5.76,4.45,11.52,6.69,17.28c0.44,1.12,0.83,2.3,1.47,3.3c0.56,0.86,1.38,1.6,2.2,2.24c1.89,1.46,3.09,3.29,3.48,5.64
			c0.52,3.13,2.1,5.74,3.93,8.25c0.55,0.76,1.19,1.49,1.57,2.33c0.74,1.62,0.18,3.55-1.28,4.58c-3.02,2.14-6.38,3.47-10.04,3.96
			c-2.27,0.31-4.21-1.38-4.39-3.72c-0.19-2.54-0.51-5.06-1.48-7.43c-0.5-1.24-1.21-2.4-1.86-3.57c-0.94-1.7-1.16-3.5-0.89-5.41
			c0.14-1.02,0.29-2.08,0.17-3.09c-0.12-1.01-0.49-2.01-0.87-2.97c-1.26-3.21-2.57-6.39-3.85-9.59c-2.72-6.79-5.43-13.58-8.15-20.36
			c-0.67-1.68-1.37-3.35-2.06-5.02c-0.06-0.14-0.13-0.27-0.2-0.42c-1.13,0.32-2.23,0.69-3.34,0.95c-3.3,0.78-6.6,0.91-9.83-0.3
			c-4.47-1.67-6.95-4.98-7.66-9.64c-0.18-1.2-0.23-2.46-0.11-3.67c0.33-3.35-0.78-6.13-3.09-8.47c-1.74-1.76-3.58-3.43-5.35-5.16
			c-2.69-2.63-4.8-5.64-6.06-9.21c-1.17-3.32-1.59-6.65-0.28-10.03c1.14-2.93,3.07-5.26,5.41-7.3c2.64-2.3,5.61-4.1,8.76-5.61
			c4.62-2.21,9.45-3.68,14.55-4.21c3.11-0.32,6.19-0.19,9.18,0.82c3.6,1.23,6.07,3.67,7.77,7.04c2.26,4.49,2.67,9.24,2.31,14.15
			c-0.17,2.35-0.27,4.72-0.18,7.07c0.1,2.53,1.29,4.63,3.18,6.32c1.8,1.61,3.28,3.47,4.14,5.75c1.39,3.7,0.97,7.26-1.14,10.6
			c-1.75,2.78-4.24,4.73-7.1,6.25C353.97,220.42,353.18,220.78,352.36,221.18z M343.19,223.65c-0.11-0.28-0.19-0.49-0.28-0.7
			c-1.51-3.77-3.03-7.53-4.52-11.31c-0.21-0.52-0.48-0.76-1.03-0.9c-4.08-1.01-6.95-4.8-6.88-9.01c0.07-4.23,3.07-7.92,7.15-8.82
			c3.71-0.81,7.46,0.66,9.61,3.77c2.11,3.05,2.14,7.14,0.05,10.27c-0.23,0.34-0.26,0.62-0.11,1c1.32,3.37,2.62,6.75,3.92,10.12
			c0.27,0.69,0.54,1.38,0.84,2.14c0.85-0.41,1.64-0.76,2.39-1.16c2.42-1.29,4.56-2.93,6.17-5.18c2.1-2.95,2.81-6.16,1.73-9.67
			c-0.71-2.31-2.08-4.2-3.86-5.78c-2.46-2.18-3.78-4.89-3.85-8.14c-0.04-2.07,0.09-4.15,0.25-6.21c0.38-4.79,0.01-9.43-2.23-13.81
			c-1.67-3.27-4.12-5.55-7.67-6.61c-2.39-0.71-4.84-0.86-7.31-0.68c-4.63,0.34-9.04,1.54-13.3,3.35c-3.34,1.43-6.48,3.19-9.34,5.44
			c-1.77,1.4-3.35,2.99-4.63,4.86c-2.62,3.83-2.78,7.9-1.24,12.16c1.29,3.57,3.43,6.55,6.14,9.16c1.65,1.58,3.34,3.12,4.95,4.75
			c2.65,2.68,3.91,5.87,3.46,9.68c-0.1,0.87-0.05,1.77,0.05,2.64c0.54,5.1,3.73,8.72,8.69,9.8
			C336.05,225.63,339.61,224.96,343.19,223.65z M365.63,258.41c-6.47-16.71-12.91-33.38-19.39-50.1c-1.99,1.9-4.27,2.78-6.99,2.76
			c6.68,16.66,13.34,33.25,20,49.85C361.41,260.08,363.46,259.27,365.63,258.41z M366.06,259.36c-2.12,0.83-4.16,1.63-6.19,2.45
			c-0.11,0.04-0.24,0.27-0.22,0.38c0.3,1.56,0.02,3.1-0.18,4.64c-0.19,1.47,0.08,2.86,0.8,4.17c0.67,1.23,1.39,2.44,1.92,3.73
			c1.02,2.46,1.36,5.07,1.55,7.71c0.14,1.81,1.57,3.04,3.33,2.8c3.43-0.48,6.57-1.72,9.4-3.71c1.41-0.99,1.65-2.86,0.6-4.23
			c-0.47-0.61-0.95-1.21-1.4-1.83c-1.83-2.56-3.28-5.28-3.8-8.43c-0.28-1.68-1.1-3.11-2.44-4.2
			C368.2,261.83,366.9,260.85,366.06,259.36z M336.71,194.28c-4.19,1.64-6.28,6.4-4.64,10.56c1.64,4.18,6.39,6.27,10.57,4.65
			c4.18-1.62,6.27-6.43,4.62-10.63C345.62,194.73,340.85,192.65,336.71,194.28z"/>
		
			<linearGradient id="SVGID_14_" gradientUnits="userSpaceOnUse" x1="42.3062" y1="-775.9345" x2="90.9117" y2="-775.9345" gradientTransform="matrix(-0.975 0.2221 -0.2221 -0.975 227.7642 -576.9374)">
			<stop  offset="0" style="stop-color:#23FF56"/>
			<stop  offset="1" style="stop-color:#099D00"/>
		</linearGradient>
		<path style="fill:url(#SVGID_14_);stroke:#096F00;stroke-width:1.3695;stroke-miterlimit:10;" d="M343.19,223.65
			c-3.58,1.31-7.14,1.98-10.83,1.17c-4.96-1.08-8.16-4.69-8.69-9.8c-0.09-0.87-0.15-1.78-0.05-2.64c0.44-3.81-0.81-7.01-3.46-9.68
			c-1.61-1.62-3.3-3.16-4.95-4.75c-2.71-2.61-4.85-5.59-6.14-9.16c-1.54-4.27-1.38-8.33,1.24-12.16c1.28-1.87,2.86-3.46,4.63-4.86
			c2.85-2.26,6-4.02,9.34-5.44c4.26-1.82,8.67-3.02,13.3-3.35c2.47-0.18,4.92-0.03,7.31,0.68c3.55,1.06,6,3.34,7.67,6.61
			c2.24,4.38,2.6,9.02,2.23,13.81c-0.16,2.07-0.29,4.15-0.25,6.21c0.06,3.26,1.39,5.97,3.85,8.14c1.78,1.58,3.16,3.47,3.86,5.78
			c1.08,3.51,0.37,6.73-1.73,9.67c-1.61,2.25-3.75,3.89-6.17,5.18c-0.76,0.41-1.54,0.75-2.39,1.16c-0.3-0.76-0.58-1.45-0.84-2.14
			c-1.31-3.37-2.6-6.75-3.92-10.12c-0.15-0.38-0.12-0.66,0.11-1c2.09-3.13,2.07-7.22-0.05-10.27c-2.15-3.11-5.91-4.58-9.61-3.77
			c-4.09,0.89-7.08,4.58-7.15,8.82c-0.07,4.21,2.8,8,6.88,9.01c0.55,0.14,0.83,0.37,1.03,0.9c1.49,3.78,3.01,7.54,4.52,11.31
			C343,223.17,343.08,223.38,343.19,223.65z"/>
		
			<radialGradient id="SVGID_15_" cx="58.6825" cy="-819.0464" r="19.8977" gradientTransform="matrix(-0.975 0.2221 -0.2221 -0.975 227.7642 -576.9374)" gradientUnits="userSpaceOnUse">
			<stop  offset="0" style="stop-color:#70FF6F"/>
			<stop  offset="0.231" style="stop-color:#49D155"/>
			<stop  offset="0.4601" style="stop-color:#2AAB3F"/>
			<stop  offset="0.6712" style="stop-color:#139030"/>
			<stop  offset="0.8577" style="stop-color:#058026"/>
			<stop  offset="1" style="stop-color:#007A23"/>
		</radialGradient>
		<path style="fill:url(#SVGID_15_);stroke:#00C008;stroke-width:1.5759;stroke-miterlimit:10;" d="M365.63,258.41
			c-2.17,0.85-4.22,1.66-6.37,2.51c-6.66-16.6-13.32-33.19-20-49.85c2.71,0.02,5-0.86,6.99-2.76
			C352.71,225.04,359.16,241.7,365.63,258.41z"/>
		<path class="st110" d="M366.06,259.36c0.84,1.49,2.13,2.47,3.39,3.49c1.34,1.09,2.16,2.51,2.44,4.2c0.52,3.16,1.97,5.88,3.8,8.43
			c0.45,0.62,0.93,1.22,1.4,1.83c1.05,1.37,0.82,3.23-0.6,4.23c-2.83,1.99-5.98,3.23-9.4,3.71c-1.76,0.24-3.19-0.99-3.33-2.8
			c-0.2-2.64-0.54-5.25-1.55-7.71c-0.53-1.29-1.25-2.5-1.92-3.73c-0.72-1.31-0.99-2.7-0.8-4.17c0.19-1.54,0.48-3.08,0.18-4.64
			c-0.02-0.11,0.11-0.33,0.22-0.38C361.91,260.99,363.95,260.19,366.06,259.36z"/>
		<path class="st111" d="M336.71,194.28c4.14-1.63,8.91,0.45,10.54,4.58c1.66,4.19-0.44,9.01-4.62,10.63
			c-4.18,1.62-8.93-0.47-10.57-4.65C330.43,200.68,332.52,195.93,336.71,194.28z M345.73,199.51c-1.31-3.35-5.03-5.02-8.33-3.73
			c-3.47,1.35-5.13,5.03-3.81,8.43c1.33,3.4,5.05,5.05,8.43,3.74C345.41,206.64,347.05,202.9,345.73,199.51z"/>
		<path class="st112" d="M345.73,199.51c1.32,3.38-0.33,7.12-3.71,8.44c-3.38,1.31-7.1-0.34-8.43-3.74
			c-1.33-3.4,0.34-7.08,3.81-8.43C340.7,194.5,344.43,196.17,345.73,199.51z M337.55,196.56c-2.92,1.16-4.37,4.52-3.21,7.44
			c1.16,2.91,4.55,4.38,7.45,3.21c2.92-1.17,4.36-4.54,3.2-7.45C343.84,196.84,340.48,195.39,337.55,196.56z"/>
		<path class="st113" d="M337.55,196.56c2.93-1.16,6.29,0.28,7.45,3.2c1.16,2.92-0.29,6.28-3.2,7.45c-2.9,1.16-6.29-0.3-7.45-3.21
			C333.18,201.08,334.63,197.71,337.55,196.56z"/>
	</g>
</g>
<g id="_x33_IWjaK_30_">
	<g>
		<path class="st10" d="M400.61,81.52c0.11-0.64,0.22-1.19,0.29-1.75c0.89-7.4,1.76-14.8,2.65-22.2c0.95-7.89,1.92-15.78,2.86-23.67
			c0.18-1.54,0.45-3.11,0.32-4.64c-0.11-1.32-0.59-2.65-1.14-3.88c-1.26-2.8-1.52-5.61-0.54-8.52c1.31-3.86,1.09-7.79,0.53-11.74
			c-0.17-1.19-0.45-2.41-0.37-3.59c0.14-2.29,1.95-4.14,4.22-4.42c4.72-0.6,9.34-0.08,13.8,1.58c2.76,1.02,3.95,4.11,2.73,6.88
			c-1.32,3-2.48,6.06-2.82,9.33c-0.18,1.71-0.08,3.45-0.05,5.18c0.04,2.51-0.8,4.68-2.26,6.69c-0.78,1.07-1.58,2.19-2.06,3.41
			c-0.48,1.22-0.66,2.58-0.81,3.9c-0.51,4.4-0.95,8.81-1.43,13.22c-1.02,9.35-2.05,18.7-3.07,28.05c-0.25,2.31-0.47,4.63-0.7,6.94
			c-0.02,0.19-0.02,0.39-0.03,0.59c1.48,0.32,2.94,0.57,4.37,0.95c4.22,1.11,8.04,2.97,10.98,6.28c4.06,4.59,4.88,9.86,2.86,15.57
			c-0.52,1.48-1.22,2.94-2.09,4.24c-2.4,3.6-2.82,7.44-1.62,11.49c0.91,3.05,1.99,6.06,2.95,9.1c1.47,4.61,2.03,9.31,1.3,14.13
			c-0.68,4.47-2.22,8.51-5.76,11.56c-3.06,2.64-6.67,4.12-10.55,5.01c-4.39,1.01-8.85,1.26-13.34,1.07
			c-6.58-0.29-12.96-1.54-19.07-4.03c-3.72-1.52-7.14-3.52-9.92-6.49c-3.35-3.57-4.67-7.84-4.56-12.7
			c0.15-6.47,2.56-12.1,5.93-17.46c1.61-2.57,3.16-5.2,4.48-7.92c1.42-2.93,1.33-6.04,0.21-9.1c-1.07-2.92-1.63-5.93-1.22-9.03
			c0.66-5.05,3.29-8.83,7.7-11.34c3.67-2.09,7.68-2.8,11.85-2.79C398.32,81.4,399.43,81.48,400.61,81.52z M412.51,84.25
			c-0.04,0.38-0.08,0.67-0.11,0.96c-0.57,5.19-1.12,10.39-1.72,15.58c-0.08,0.72,0.09,1.16,0.63,1.65
			c4.02,3.61,4.99,9.66,2.36,14.39c-2.65,4.76-8.28,7.14-13.46,5.68c-4.7-1.32-8.07-5.27-8.63-10.1c-0.55-4.74,1.89-9.4,6.16-11.69
			c0.47-0.25,0.66-0.55,0.73-1.07c0.54-4.62,1.11-9.24,1.67-13.86c0.11-0.95,0.22-1.9,0.34-2.95c-1.21-0.05-2.32-0.13-3.42-0.13
			c-3.53,0.01-6.95,0.56-10.14,2.15c-4.16,2.07-6.91,5.3-7.81,9.94c-0.59,3.05-0.18,6.02,0.89,8.9c1.47,3.96,1.34,7.84-0.56,11.57
			c-1.21,2.37-2.61,4.66-4.05,6.9c-3.33,5.21-5.72,10.7-5.83,17.03c-0.08,4.73,1.32,8.8,4.71,12.15c2.29,2.26,4.97,3.91,7.88,5.2
			c5.46,2.42,11.2,3.73,17.13,4.24c4.66,0.4,9.29,0.3,13.9-0.53c2.86-0.52,5.62-1.37,8.2-2.72c5.3-2.76,7.94-7.28,8.77-13.06
			c0.7-4.84,0.07-9.51-1.43-14.11c-0.91-2.8-1.9-5.57-2.75-8.38c-1.39-4.64-0.88-9.03,1.93-13.09c0.64-0.93,1.12-1.98,1.55-3.03
			c2.48-6.12,1.04-12.16-3.94-16.38C421.81,86.33,417.37,84.93,412.51,84.25z M408.07,31.22c-2.77,22.89-5.53,45.71-8.31,68.61
			c3.4-0.95,6.53-0.57,9.6,1.09c2.49-22.96,4.97-45.82,7.46-68.7C413.87,31.88,411.05,31.56,408.07,31.22z M408.15,29.88
			c2.91,0.33,5.71,0.66,8.51,0.96c0.15,0.02,0.43-0.16,0.47-0.3c0.6-1.96,1.86-3.53,3.01-5.16c1.1-1.56,1.64-3.3,1.61-5.22
			c-0.02-1.8-0.1-3.61,0.07-5.4c0.33-3.4,1.53-6.58,2.9-9.69c0.94-2.14,0.06-4.4-2.09-5.19c-4.18-1.53-8.5-2.03-12.92-1.48
			c-2.21,0.27-3.6,2.25-3.24,4.44c0.16,0.97,0.35,1.95,0.48,2.92c0.53,4.01,0.53,7.97-0.79,11.87c-0.7,2.08-0.64,4.19,0.23,6.24
			C407.22,25.79,408.1,27.68,408.15,29.88z M402.1,121.53c5.75,0.67,11-3.47,11.66-9.18c0.67-5.73-3.46-10.98-9.18-11.67
			c-5.73-0.69-11.02,3.51-11.67,9.27C392.25,115.63,396.42,120.87,402.1,121.53z"/>
		
			<radialGradient id="SVGID_16_" cx="708.976" cy="-255.6554" r="38.872" fx="747.4908" fy="-250.3982" gradientTransform="matrix(0.79 0.6131 -0.6131 0.79 -313.9584 -109.9258)" gradientUnits="userSpaceOnUse">
			<stop  offset="0.0367" style="stop-color:#950004"/>
			<stop  offset="0.9991" style="stop-color:#FFB5B5"/>
		</radialGradient>
		<path style="fill:url(#SVGID_16_);stroke:#510002;stroke-width:1.7619;stroke-miterlimit:10;" d="M412.51,84.25
			c4.86,0.68,9.3,2.08,13.01,5.22c4.98,4.22,6.42,10.27,3.94,16.38c-0.42,1.05-0.91,2.11-1.55,3.03c-2.81,4.06-3.32,8.45-1.93,13.09
			c0.84,2.82,1.83,5.59,2.75,8.38c1.5,4.6,2.13,9.28,1.43,14.11c-0.83,5.78-3.47,10.3-8.77,13.06c-2.59,1.35-5.34,2.2-8.2,2.72
			c-4.61,0.83-9.24,0.93-13.9,0.53c-5.94-0.51-11.67-1.82-17.13-4.24c-2.91-1.29-5.6-2.94-7.88-5.2c-3.39-3.35-4.79-7.42-4.71-12.15
			c0.11-6.33,2.5-11.82,5.83-17.03c1.43-2.25,2.84-4.53,4.05-6.9c1.9-3.74,2.04-7.62,0.56-11.57c-1.07-2.87-1.48-5.85-0.89-8.9
			c0.9-4.64,3.65-7.86,7.81-9.94c3.19-1.59,6.61-2.15,10.14-2.15c1.1,0,2.21,0.08,3.42,0.13c-0.12,1.05-0.22,2-0.34,2.95
			c-0.56,4.62-1.13,9.24-1.67,13.86c-0.06,0.52-0.26,0.82-0.73,1.07c-4.27,2.29-6.71,6.95-6.16,11.69c0.56,4.83,3.93,8.78,8.63,10.1
			c5.18,1.46,10.81-0.92,13.46-5.68c2.63-4.74,1.66-10.78-2.36-14.39c-0.54-0.49-0.71-0.93-0.63-1.65
			c0.6-5.19,1.15-10.38,1.72-15.58C412.43,84.92,412.47,84.63,412.51,84.25z"/>
		<path class="st10" d="M408.07,31.22c2.97,0.34,5.8,0.67,8.75,1c-2.48,22.88-4.96,45.74-7.46,68.7c-3.07-1.66-6.2-2.04-9.6-1.09
			C402.54,76.92,405.3,54.1,408.07,31.22z"/>
		<path class="st115" d="M408.15,29.88c-0.05-2.2-0.93-4.09-1.73-6.01c-0.87-2.05-0.93-4.16-0.23-6.24
			c1.32-3.9,1.32-7.86,0.79-11.87c-0.13-0.98-0.32-1.95-0.48-2.92c-0.36-2.19,1.03-4.16,3.24-4.44c4.42-0.55,8.74-0.05,12.92,1.48
			c2.15,0.79,3.03,3.05,2.09,5.19c-1.37,3.11-2.57,6.29-2.9,9.69c-0.18,1.78-0.09,3.6-0.07,5.4c0.02,1.92-0.51,3.66-1.61,5.22
			c-1.15,1.63-2.41,3.2-3.01,5.16c-0.04,0.14-0.32,0.31-0.47,0.3C413.86,30.54,411.06,30.22,408.15,29.88z"/>
		<path class="st10" d="M402.1,121.53c-5.68-0.66-9.84-5.9-9.2-11.58c0.66-5.76,5.95-9.96,11.67-9.27
			c5.72,0.69,9.85,5.94,9.18,11.67C413.09,118.06,407.84,122.19,402.1,121.53z M395.02,110.12c-0.54,4.59,2.68,8.74,7.2,9.28
			c4.76,0.57,8.88-2.61,9.43-7.27c0.55-4.66-2.68-8.79-7.3-9.35C399.7,102.23,395.57,105.49,395.02,110.12z"/>
		<path class="st13" d="M395.02,110.12c0.55-4.64,4.68-7.89,9.32-7.33c4.63,0.55,7.85,4.68,7.3,9.35c-0.55,4.66-4.67,7.83-9.43,7.27
			C397.69,118.86,394.48,114.72,395.02,110.12z M402.52,118.43c4.02,0.45,7.7-2.49,8.15-6.51c0.44-4.01-2.52-7.72-6.51-8.15
			c-4.02-0.44-7.7,2.51-8.15,6.52C395.55,114.31,398.49,117.98,402.52,118.43z"/>
		<path class="st116" d="M402.52,118.43c-4.03-0.45-6.97-4.12-6.52-8.14c0.45-4.01,4.13-6.96,8.15-6.52
			c3.99,0.43,6.96,4.14,6.51,8.15C410.22,115.94,406.54,118.89,402.52,118.43z"/>
	</g>
</g>
<text transform="matrix(1 0 0 1 3.8003 37.2493)"><tspan x="0" y="0" class="st117 st118">Billy Strings </tspan><tspan x="0" y="46.86" class="st117 st118">Setlist Forecast</tspan></text>
</svg>
