<?xml version="1.0" encoding="utf-8"?>
<!-- Generator: Adobe Illustrator 24.1.0, SVG Export Plug-In . SVG Version: 6.00 Build 0)  -->
<svg version="1.1" id="Layer_1" xmlns="http://www.w3.org/2000/svg" xmlns:xlink="http://www.w3.org/1999/xlink" x="0px" y="0px"
	 viewBox="0 0 600 200" style="enable-background:new 0 0 600 200;" xml:space="preserve">
<style type="text/css">
	.st0{fill:url(#SVGID_1_);}
	.st1{fill:url(#SVGID_2_);}
	.st2{fill:url(#SVGID_3_);}
	.st3{fill:url(#SVGID_4_);}
	.st4{fill:url(#SVGID_5_);}
	.st5{fill:url(#SVGID_6_);}
	.st6{fill:url(#SVGID_7_);}
	.st7{fill:url(#SVGID_8_);}
	.st8{font-family:'JetBrainsMono-Medium';}
	.st9{font-size:32.0765px;}
	.st10{fill:url(#SVGID_9_);}
	.st11{fill:url(#SVGID_10_);}
	.st12{fill:#590002;}
	.st13{fill:url(#SVGID_11_);stroke:#510002;stroke-width:0.8197;stroke-miterlimit:10;}
	.st14{fill:#FF38D3;stroke:#FF69DE;stroke-width:0.8197;stroke-miterlimit:10;}
	.st15{fill:#FFFFFF;}
	.st16{fill:#FF2E55;stroke:#FFFFFF;stroke-width:0.8197;stroke-miterlimit:10;}
	.st17{fill:#070041;}
	.st18{fill:url(#SVGID_12_);stroke:#9AEDFF;stroke-miterlimit:10;}
	.st19{fill:url(#SVGID_13_);}
	.st20{fill:#33A4FF;}
	.st21{fill:#54BCFF;}
	.st22{fill:#F6FCFF;}
	.st23{fill:url(#SVGID_14_);stroke:#9AEDFF;stroke-miterlimit:10;}
	.st24{fill:url(#SVGID_15_);}
	.st25{fill:url(#SVGID_16_);stroke:#510002;stroke-width:0.7008;stroke-miterlimit:10;}
	.st26{fill:#FF38D3;stroke:#FF69DE;stroke-width:0.7008;stroke-miterlimit:10;}
	.st27{fill:#FF2E55;stroke:#FFFFFF;stroke-width:0.7008;stroke-miterlimit:10;}
	.st28{fill:#FBFF64;stroke:#FFFE64;stroke-miterlimit:10;}
	.st29{fill:url(#SVGID_17_);stroke:#FFFE64;stroke-width:0.869;stroke-miterlimit:10;}
	.st30{fill:#FFB902;stroke:#FFFE64;stroke-miterlimit:10;}
	.st31{fill:#FFA741;stroke:#FFFE64;stroke-width:0.869;stroke-miterlimit:10;}
	.st32{fill:#FBFF64;stroke:#E0EC00;stroke-miterlimit:10;}
	.st33{fill:#FFFE3E;stroke:#FFFFFF;stroke-width:0.869;stroke-miterlimit:10;}
	.st34{fill:url(#SVGID_18_);stroke:#FFFE64;stroke-width:0.869;stroke-miterlimit:10;}
	.st35{fill:#1CFF0D;stroke:#1CFF0D;stroke-miterlimit:10;}
	.st36{fill:url(#SVGID_19_);stroke:#096F00;stroke-width:0.869;stroke-miterlimit:10;}
	.st37{fill:url(#SVGID_20_);stroke:#00C008;stroke-miterlimit:10;}
	.st38{fill:#096F00;stroke:#096F00;stroke-width:0.869;stroke-miterlimit:10;}
	.st39{fill:#096F00;stroke:#B3FF92;stroke-miterlimit:10;}
	.st40{fill:#096F00;stroke:#096F00;stroke-miterlimit:10;}
	.st41{fill:#00ECDC;stroke:#096F00;stroke-width:0.869;stroke-miterlimit:10;}
	.st42{fill:url(#SVGID_21_);stroke:#096F00;stroke-width:0.869;stroke-miterlimit:10;}
	.st43{fill:url(#SVGID_22_);stroke:#00C008;stroke-miterlimit:10;}
	.st44{fill:url(#SVGID_23_);stroke:#510002;stroke-width:0.8908;stroke-miterlimit:10;}
	.st45{fill:#FF38D3;stroke:#FF69DE;stroke-width:0.8908;stroke-miterlimit:10;}
	.st46{fill:#FF2E55;stroke:#FFFFFF;stroke-width:0.8908;stroke-miterlimit:10;}
	.st47{fill:url(#SVGID_24_);stroke:#9AEDFF;stroke-width:0.4792;stroke-miterlimit:10;}
	.st48{fill:url(#SVGID_25_);}
	.st49{fill:#FBFF64;stroke:#FFFE64;stroke-width:0.4688;stroke-miterlimit:10;}
	.st50{fill:url(#SVGID_26_);stroke:#FFFE64;stroke-width:0.4074;stroke-miterlimit:10;}
	.st51{fill:#FFB902;stroke:#FFFE64;stroke-width:0.4688;stroke-miterlimit:10;}
	.st52{fill:#FFA741;stroke:#FFFE64;stroke-width:0.4074;stroke-miterlimit:10;}
	.st53{fill:#FBFF64;stroke:#E0EC00;stroke-width:0.4688;stroke-miterlimit:10;}
	.st54{fill:#FFFE3E;stroke:#FFFFFF;stroke-width:0.4074;stroke-miterlimit:10;}
	.st55{fill:#1CFF0D;stroke:#1CFF0D;stroke-width:0.4087;stroke-miterlimit:10;}
	.st56{fill:url(#SVGID_27_);stroke:#096F00;stroke-width:0.3552;stroke-miterlimit:10;}
	.st57{fill:url(#SVGID_28_);stroke:#00C008;stroke-width:0.4087;stroke-miterlimit:10;}
	.st58{fill:#096F00;stroke:#096F00;stroke-width:0.3552;stroke-miterlimit:10;}
	.st59{fill:#096F00;stroke:#B3FF92;stroke-width:0.4087;stroke-miterlimit:10;}
	.st60{fill:#096F00;stroke:#096F00;stroke-width:0.4087;stroke-miterlimit:10;}
	.st61{fill:#00ECDC;stroke:#096F00;stroke-width:0.3552;stroke-miterlimit:10;}
	.st62{fill:url(#SVGID_29_);stroke:#510002;stroke-width:0.4569;stroke-miterlimit:10;}
	.st63{fill:#FF38D3;stroke:#FF69DE;stroke-width:0.4569;stroke-miterlimit:10;}
	.st64{fill:#FF2E55;stroke:#FFFFFF;stroke-width:0.4569;stroke-miterlimit:10;}
	.st65{fill:url(#SVGID_30_);stroke:#9AEDFF;stroke-width:0.4792;stroke-miterlimit:10;}
	.st66{fill:url(#SVGID_31_);}
	.st67{fill:url(#SVGID_32_);stroke:#FFFE64;stroke-width:0.4074;stroke-miterlimit:10;}
	.st68{fill:url(#SVGID_33_);stroke:#096F00;stroke-width:0.3552;stroke-miterlimit:10;}
	.st69{fill:url(#SVGID_34_);stroke:#00C008;stroke-width:0.4087;stroke-miterlimit:10;}
	.st70{fill:url(#SVGID_35_);stroke:#510002;stroke-width:0.4569;stroke-miterlimit:10;}
	.st71{fill:url(#SVGID_36_);stroke:#9AEDFF;stroke-width:0.4792;stroke-miterlimit:10;}
	.st72{fill:url(#SVGID_37_);}
	.st73{fill:url(#SVGID_38_);stroke:#FFFE64;stroke-width:0.4074;stroke-miterlimit:10;}
	.st74{fill:url(#SVGID_39_);stroke:#096F00;stroke-width:0.3552;stroke-miterlimit:10;}
	.st75{fill:url(#SVGID_40_);stroke:#00C008;stroke-width:0.4087;stroke-miterlimit:10;}
	.st76{fill:url(#SVGID_41_);stroke:#510002;stroke-width:0.4569;stroke-miterlimit:10;}
	.st77{fill:url(#SVGID_42_);stroke:#9AEDFF;stroke-width:0.4792;stroke-miterlimit:10;}
	.st78{fill:url(#SVGID_43_);}
	.st79{fill:url(#SVGID_44_);stroke:#FFFE64;stroke-width:0.4074;stroke-miterlimit:10;}
	.st80{fill:url(#SVGID_45_);stroke:#096F00;stroke-width:0.3552;stroke-miterlimit:10;}
	.st81{fill:url(#SVGID_46_);stroke:#00C008;stroke-width:0.4087;stroke-miterlimit:10;}
	.st82{fill:url(#SVGID_47_);stroke:#510002;stroke-width:0.4569;stroke-miterlimit:10;}
	.st83{fill:url(#SVGID_48_);stroke:#9AEDFF;stroke-width:1.6313;stroke-miterlimit:10;}
	.st84{fill:url(#SVGID_49_);}
	.st85{fill:#FBFF64;stroke:#FFFE64;stroke-width:1.5959;stroke-miterlimit:10;}
	.st86{fill:url(#SVGID_50_);stroke:#FFFE64;stroke-width:1.3868;stroke-miterlimit:10;}
	.st87{fill:#FFB902;stroke:#FFFE64;stroke-width:1.5959;stroke-miterlimit:10;}
	.st88{fill:#FFA741;stroke:#FFFE64;stroke-width:1.3868;stroke-miterlimit:10;}
	.st89{fill:#FBFF64;stroke:#E0EC00;stroke-width:1.5959;stroke-miterlimit:10;}
	.st90{fill:#FFFE3E;stroke:#FFFFFF;stroke-width:1.3868;stroke-miterlimit:10;}
	.st91{fill:#1CFF0D;stroke:#1CFF0D;stroke-width:1.3913;stroke-miterlimit:10;}
	.st92{fill:url(#SVGID_51_);stroke:#096F00;stroke-width:1.2091;stroke-miterlimit:10;}
	.st93{fill:url(#SVGID_52_);stroke:#00C008;stroke-width:1.3913;stroke-miterlimit:10;}
	.st94{fill:#096F00;stroke:#096F00;stroke-width:1.2091;stroke-miterlimit:10;}
	.st95{fill:#096F00;stroke:#B3FF92;stroke-width:1.3913;stroke-miterlimit:10;}
	.st96{fill:#096F00;stroke:#096F00;stroke-width:1.3913;stroke-miterlimit:10;}
	.st97{fill:#00ECDC;stroke:#096F00;stroke-width:1.2091;stroke-miterlimit:10;}
	.st98{fill:url(#SVGID_53_);stroke:#510002;stroke-width:1.5555;stroke-miterlimit:10;}
	.st99{fill:#FF38D3;stroke:#FF69DE;stroke-width:1.5555;stroke-miterlimit:10;}
	.st100{fill:#FF2E55;stroke:#FFFFFF;stroke-width:1.5555;stroke-miterlimit:10;}
	.st101{fill:url(#SVGID_54_);stroke:#9AEDFF;stroke-width:1.8478;stroke-miterlimit:10;}
	.st102{fill:url(#SVGID_55_);}
	.st103{fill:#FBFF64;stroke:#FFFE64;stroke-width:1.8076;stroke-miterlimit:10;}
	.st104{fill:url(#SVGID_56_);stroke:#FFFE64;stroke-width:1.5709;stroke-miterlimit:10;}
	.st105{fill:#FFB902;stroke:#FFFE64;stroke-width:1.8076;stroke-miterlimit:10;}
	.st106{fill:#FFA741;stroke:#FFFE64;stroke-width:1.5709;stroke-miterlimit:10;}
	.st107{fill:#FBFF64;stroke:#E0EC00;stroke-width:1.8076;stroke-miterlimit:10;}
	.st108{fill:#FFFE3E;stroke:#FFFFFF;stroke-width:1.5709;stroke-miterlimit:10;}
	.st109{fill:#1CFF0D;stroke:#1CFF0D;stroke-width:1.5759;stroke-miterlimit:10;}
	.st110{fill:url(#SVGID_57_);stroke:#096F00;stroke-width:1.3695;stroke-miterlimit:10;}
	.st111{fill:url(#SVGID_58_);stroke:#00C008;stroke-width:1.5759;stroke-miterlimit:10;}
	.st112{fill:#096F00;stroke:#096F00;stroke-width:1.3695;stroke-miterlimit:10;}
	.st113{fill:#096F00;stroke:#B3FF92;stroke-width:1.5759;stroke-miterlimit:10;}
	.st114{fill:#096F00;stroke:#096F00;stroke-width:1.5759;stroke-miterlimit:10;}
	.st115{fill:#00ECDC;stroke:#096F00;stroke-width:1.3695;stroke-miterlimit:10;}
	.st116{fill:url(#SVGID_59_);stroke:#510002;stroke-width:1.7619;stroke-miterlimit:10;}
	.st117{fill:#FF38D3;stroke:#FF69DE;stroke-width:1.7619;stroke-miterlimit:10;}
	.st118{fill:#FF2E55;stroke:#FFFFFF;stroke-width:1.7619;stroke-miterlimit:10;}
</style>
<g>
	<g>
		<linearGradient id="SVGID_1_" gradientUnits="userSpaceOnUse" x1="213.7231" y1="102.5495" x2="408.8705" y2="102.5495">
			<stop  offset="0" style="stop-color:#6782FF"/>
			<stop  offset="0.3714" style="stop-color:#00E6F6"/>
			<stop  offset="0.7364" style="stop-color:#25DB00"/>
			<stop  offset="0.9974" style="stop-color:#D6FF92"/>
		</linearGradient>
		<path class="st0" d="M405.54-13.62c-16.79,12.88-30.9,28.87-41.04,47.5c-5.05,9.28-8.92,19.07-12.08,29.15
			c-3.12,9.98-6.3,20.39-15.97,25.87c-8.61,4.88-19.13,5.33-28.78,5.13c-9.5-0.19-21.08-0.62-27.68-8.52
			c-3.34-3.99-5.38-9.09-7.64-13.73c-2.93-6.01-5.86-12.02-8.79-18.02c-0.14-0.29-0.28-0.57-0.42-0.86
			c-0.74-2.71-1.58-2.3-2.53,1.22c0.06,0.06,1.94-0.04,2.27-0.05c2.33-0.1,4.67-0.33,6.92-0.99c4.65-1.38,8.99-4.12,12.03-7.9
			c6.11-7.6,4.99-17.65-1.88-24.35c-7.58-7.38-19.45-10.74-28.9-14.92c-8.73-3.86-22.02-11.41-28.62,0.03
			c-2.46,4.27-3.15,9.93-3.94,14.7c-1.11,6.65-1.78,13.39-1.71,20.14c0.25,21.51,8.03,43.89,24.83,58.09
			c3.3,2.79,7.9,4.92,10.69,8.21c3.47,4.09,2.82,11.24,3.34,16.31c0.99,9.66,2.35,19.7,7.36,28.22c2.85,4.85,6.77,8.6,11.34,11.82
			c4.83,3.4,10.16,6.1,12.37,11.96c4.46,11.82-5.86,21.95-17.45,20.93c-11.93-1.05-22.52-7.41-34.83-5.43
			c-11.09,1.78-20.98,9.53-25.42,19.83c-3.03,7.02,7.31,13.13,10.36,6.06c3.98-9.22,12.59-15.08,22.78-14.27
			c10.83,0.85,20.75,6.75,31.85,5.81c20.95-1.78,33.12-26.04,20.51-43.48c-6.04-8.36-16.91-11.18-21.84-20.5
			c-4.52-8.55-4.83-18.9-5.73-28.32c-0.48-5.05-0.98-10.16-3.85-14.5c-2.97-4.5-7.66-6.91-11.81-10.13
			c-7.92-6.16-13.94-14.83-17.58-24.13c-4.22-10.78-5.46-22.38-4.72-33.88c0.4-6.25,1.32-12.59,2.96-18.64
			c0.75-2.78,0.87-3.35,3.88-2.41c2.84,0.89,5.57,2.37,8.3,3.58c5.88,2.6,11.78,5.15,17.63,7.79c3.69,1.67,8.38,3.47,10.9,6.83
			c2.49,3.32,1,6.7-2.06,9c-4.01,3.03-8.19,1.89-12.7,2.97c-4.04,0.97-7.11,3.79-7.54,8.04c-0.55,5.43,3.93,11.51,6.2,16.17
			c4.69,9.61,8.67,21.53,16.59,29.06c7.49,7.12,17.78,9.27,27.76,10c9.93,0.73,20.36,0.58,30.05-1.91
			c10.75-2.76,20.05-8.99,25.64-18.71c5.75-10,7.76-21.7,12.1-32.31c8.99-21.96,24.08-41.63,42.9-56.07
			C417.64-7.89,411.67-18.32,405.54-13.62L405.54-13.62z"/>
	</g>
</g>
<g>
	<g>
		<radialGradient id="SVGID_2_" cx="81.8471" cy="109.5092" r="95.5713" gradientUnits="userSpaceOnUse">
			<stop  offset="0.386" style="stop-color:#67BFFF"/>
			<stop  offset="0.7364" style="stop-color:#E4FF54"/>
			<stop  offset="0.9983" style="stop-color:#FF9DB2"/>
		</radialGradient>
		<path class="st1" d="M-14,131.35c8.19-9.36,21.34-10.55,32.89-12.58c15.17-2.66,29.45-7.91,43.48-14.14
			c12.62-5.6,27.66-10.45,34.43-23.44c3.47-6.65,5.83-13.97,8.55-20.94c2.57-6.58,4.59-14.26,8.84-20
			c9.04-12.2,26.07-4.59,38.41-7.48c3.31-0.77,6.25-2.37,9.1-4.16c2.53-1.59,5.13-3.74,8.2-2.31c5.73,2.67,6.64,10.85,5.74,16.27
			c-2.25,13.65-13.99,22.74-23.06,32.1c-9.74,10.05-17.97,22.25-20.75,36.18c-1.54,7.75-1.29,15.44,0.46,23.13
			c1.8,7.87,5.14,15.48,6.13,23.53c2.01,16.28-11.92,26.66-20.03,38.96c-4.26,6.47,6.12,12.48,10.36,6.06
			c7.73-11.72,19.41-21.21,21.49-35.85c2.29-16.09-7.83-30.23-7.53-46.05c0.29-15.49,9.57-28.65,20.08-39.23
			c10.2-10.27,21.68-20.69,24.41-35.63c2.34-12.81-2.96-31.25-18.65-32.01c-7.44-0.36-11.73,5.35-18.32,7.22
			c-7.43,2.1-15.87-0.54-23.54,0.37c-6.94,0.83-13.68,3.15-18.85,8.02c-5.56,5.24-8.19,12.62-10.9,19.57
			c-3.04,7.8-5.83,15.75-9.19,23.42c-3.3,7.54-8.11,11.01-15.4,14.48c-17.28,8.24-34.83,16.29-53.77,19.84
			c-14.6,2.74-30.66,4.28-41.08,16.18C-27.55,128.66-19.1,137.18-14,131.35L-14,131.35z"/>
	</g>
</g>
<text transform="matrix(1 0 0 1 3.8008 31.4791)"><tspan x="0" y="0" class="st8 st9">Billy Strings’ </tspan><tspan x="0" y="38.49" class="st8 st9">Setlist Forecast</tspan></text>
<g>
	<g>
		<linearGradient id="SVGID_3_" gradientUnits="userSpaceOnUse" x1="341.9288" y1="78.7778" x2="598.89" y2="78.7778">
			<stop  offset="0.1837" style="stop-color:#00C803"/>
			<stop  offset="0.4672" style="stop-color:#807FFF"/>
			<stop  offset="1" style="stop-color:#FF3E62"/>
		</linearGradient>
		<path class="st2" d="M340.47,5.66c10.42,3.29,13.38,15.84,12.93,25.49c-0.6,13.13-5.29,25.69-5.44,38.91
			c-0.27,22.75,8.96,47.87,26.28,63.18c7.84,6.93,20.64,10.26,28.23,0.97c3.54-4.33,3.73-10.17,2.46-15.4
			c-1.08-4.44-7.16-13.81-3.84-18.15c2.69-3.53,8.9-4.52,12.42-7.26c4.5-3.5,7.51-8.3,9.38-13.64c1.76-5.03,2.27-10.53,1.97-15.82
			c-0.33-5.69-2.24-12.55,0.46-17.93c3.23-6.46,8.26-2.62,12.79,0.25c5.4,3.42,11.39,6.51,16.36,10.53
			c2.21,1.79,4.11,3.34,1.96,5.78c-1.68,1.91-4.01,3.37-5.89,5.07c-5.03,4.57-9.51,9.99-13,15.81c-7.2,12.03-6.93,23.9-4.31,37.24
			c1.3,6.62,2.64,13.23,3.95,19.84c1.13,5.66,1.79,11.93,5.05,16.87c6.37,9.61,19.98,7.71,25.85-1.42
			c3.16-4.92,3.47-11.09,2.49-16.7c-0.48-2.77-1.46-5.33-2.21-8.02c-1.12-4-0.27-5.96,2.12-9.2c8.03-10.88,13.76-22.7,19.23-35.03
			c5.19-11.69,8.84-22.77,8.49-35.69c-0.14-5.21-0.95-11.29,1.21-16.19c2.54-5.76,9.48-6.53,14.76-4.37
			c11.98,4.91,19.48,20.69,22.89,32.28c1.84,6.25,3.5,12.41,8.49,16.95c5.17,4.7,12.39,8.12,18.68,10.99
			c11.8,5.37,26.23,7.69,37.34-0.62c6.11-4.57,0.14-14.99-6.06-10.36c-10.43,7.8-22.92,2.19-32.99-3.35
			c-5.79-3.19-10.44-5.48-12.56-12.07c-1.89-5.85-3.5-11.65-6.15-17.24c-4.77-10.08-12.19-20.94-22.29-26.29
			c-9.39-4.97-21.88-4.78-29.38,3.51c-7.37,8.14-5.97,19.57-5.89,29.67c0.1,13.1-5.96,24.97-11.38,36.59
			c-2.67,5.72-5.5,11.37-8.85,16.73c-3.15,5.04-8.08,9.73-9.76,15.56c-1.64,5.68,0.62,10.74,2.04,16.17
			c0.76,2.9,1.47,6.62,0.08,9.47c-0.8,1.62-3.09,3.97-5.13,3.05c-3.47-1.57-3.73-10.51-4.33-13.52c-1.5-7.53-3.06-15.06-4.5-22.6
			c-1.17-6.11-2.01-12.26-0.17-18.32c2-6.6,6.38-12.63,11.05-17.6c3.61-3.84,8.37-6.71,11.49-10.96c3.65-4.97,3.59-11.02,0.18-16.11
			c-2.93-4.37-7.65-7.15-12-9.91c-5.62-3.57-11.22-7.82-17.28-10.6c-10.87-4.99-21.42,1.36-24.64,12.41
			c-3.18,10.92,2.54,22.42-2.21,33.12c-4.59,10.35-18.76,9.43-22.01,20.98c-1.64,5.82,0.34,11.68,2.35,17.11
			c1.33,3.58,5.32,11.76-1.15,12.21c-5.86,0.4-11.16-6.79-14.3-10.81c-4.11-5.26-7.55-11.21-10.09-17.38
			c-4.89-11.88-6.77-25.01-5.22-37.77c1.74-14.35,7.01-28.37,4.01-42.95c-2.33-11.34-9.53-21.45-20.82-25.01
			C336.28-8.24,333.12,3.34,340.47,5.66L340.47,5.66z"/>
	</g>
</g>
<g>
	<g>
		<linearGradient id="SVGID_4_" gradientUnits="userSpaceOnUse" x1="307.5948" y1="160.8628" x2="481.6691" y2="160.8628">
			<stop  offset="0.1837" style="stop-color:#00C803"/>
			<stop  offset="0.4672" style="stop-color:#807FFF"/>
			<stop  offset="1" style="stop-color:#3857FF"/>
		</linearGradient>
		<path class="st3" d="M315.44,203.81c-1.35-7.88-3.56-19.49,3.58-25.47c3.12-2.62,7.46-3.44,11.15-4.94
			c3.76-1.53,7.24-3.46,10.48-5.9c6.57-4.93,11.78-11.15,16.61-17.74c4.84-6.61,8.82-14.4,14.82-20.06
			c6.69-6.31,15.78-5.88,24.35-5.21c9.48,0.74,18.62,1.22,28.08-0.15c8.17-1.18,17.72-5.91,25.67-1.93
			c6.67,3.33,10.99,10.73,13.71,17.38c4.07,9.95,6.11,20.69,8.11,31.21c2.13,11.24,4.57,22.81,2.11,34.2
			c-1.63,7.53,9.94,10.75,11.57,3.19c2.48-11.47,1.14-22.8-0.92-34.22c-2.02-11.17-4.04-22.46-7.71-33.23
			c-6.15-18.03-18.91-35.13-40.08-31.42c-5.33,0.93-10.49,2.6-15.88,3.28c-5.99,0.76-12.03,0.72-18.03,0.26
			c-9.66-0.73-19.68-2.13-28.98,1.44c-9.66,3.72-15.4,12.08-20.99,20.31c-5.4,7.96-10.9,16.3-18.53,22.34
			c-8.19,6.47-19.78,6.89-26.44,15.39c-7.82,9.98-6.25,22.79-4.25,34.45C305.17,214.6,316.73,211.38,315.44,203.81L315.44,203.81z"
			/>
	</g>
</g>
<g id="_x33_IWjaK_2_">
	<g>
		<path class="st12" d="M540.05,109.22c0.28-0.11,0.53-0.2,0.77-0.31c3.16-1.43,6.31-2.87,9.47-4.3c3.37-1.52,6.74-3.04,10.11-4.57
			c0.66-0.3,1.35-0.57,1.92-0.99c0.5-0.36,0.91-0.88,1.27-1.39c0.81-1.17,1.86-1.96,3.26-2.27c1.85-0.41,3.36-1.44,4.8-2.62
			c0.43-0.35,0.85-0.76,1.34-1.01c0.94-0.49,2.12-0.22,2.78,0.61c1.38,1.74,2.28,3.7,2.7,5.87c0.26,1.34-0.69,2.56-2.08,2.75
			c-1.51,0.2-3.01,0.47-4.39,1.13c-0.72,0.34-1.39,0.8-2.07,1.23c-0.99,0.62-2.06,0.81-3.21,0.71c-0.62-0.05-1.25-0.1-1.85,0
			c-0.6,0.1-1.19,0.36-1.75,0.61c-1.88,0.86-3.74,1.75-5.6,2.62c-3.97,1.85-7.94,3.69-11.9,5.54c-0.98,0.46-1.95,0.93-2.93,1.4
			c-0.08,0.04-0.16,0.09-0.24,0.13c0.23,0.67,0.48,1.31,0.68,1.97c0.57,1.95,0.76,3.92,0.14,5.88c-0.85,2.72-2.75,4.32-5.51,4.89
			c-0.71,0.15-1.46,0.22-2.19,0.19c-2.01-0.09-3.64,0.67-4.96,2.12c-1,1.1-1.93,2.25-2.91,3.37c-1.48,1.69-3.22,3.05-5.31,3.92
			c-1.94,0.81-3.92,1.17-5.99,0.49c-1.79-0.58-3.25-1.66-4.54-2.99c-1.46-1.5-2.64-3.22-3.64-5.05c-1.47-2.69-2.51-5.53-2.99-8.56
			c-0.29-1.85-0.32-3.69,0.19-5.51c0.61-2.19,2-3.75,3.95-4.88c2.61-1.5,5.43-1.9,8.38-1.85c1.41,0.02,2.83,0.01,4.23-0.13
			c1.51-0.14,2.72-0.92,3.67-2.11c0.9-1.13,1.97-2.08,3.3-2.66c2.17-0.95,4.31-0.82,6.37,0.33c1.72,0.96,2.97,2.38,3.97,4.04
			C539.54,108.28,539.78,108.74,540.05,109.22z M541.83,114.62c-0.16,0.07-0.28,0.13-0.41,0.19c-2.2,1.03-4.4,2.06-6.61,3.07
			c-0.31,0.14-0.44,0.31-0.5,0.65c-0.47,2.47-2.64,4.31-5.16,4.41c-2.53,0.09-4.84-1.57-5.5-3.99c-0.61-2.19,0.15-4.48,1.94-5.87
			c1.75-1.36,4.2-1.51,6.14-0.36c0.21,0.13,0.38,0.13,0.6,0.03c1.97-0.9,3.95-1.78,5.92-2.68c0.41-0.18,0.81-0.37,1.25-0.57
			c-0.27-0.49-0.51-0.95-0.77-1.39c-0.85-1.4-1.9-2.63-3.3-3.52c-1.83-1.16-3.77-1.48-5.84-0.71c-1.35,0.5-2.44,1.38-3.33,2.5
			c-1.22,1.54-2.8,2.42-4.74,2.56c-1.24,0.09-2.48,0.08-3.72,0.05c-2.88-0.07-5.64,0.3-8.18,1.78c-1.9,1.11-3.18,2.65-3.7,4.8
			c-0.35,1.45-0.36,2.92-0.17,4.39c0.35,2.76,1.21,5.35,2.44,7.84c0.96,1.95,2.12,3.77,3.56,5.4c0.9,1.01,1.9,1.91,3.06,2.61
			c2.38,1.44,4.81,1.4,7.31,0.34c2.09-0.89,3.8-2.26,5.27-3.97c0.89-1.04,1.76-2.1,2.68-3.11c1.51-1.67,3.38-2.53,5.67-2.39
			c0.52,0.03,1.06-0.03,1.58-0.11c3.03-0.49,5.09-2.52,5.57-5.52C543.24,118.82,542.73,116.72,541.83,114.62z M561.87,100.07
			c-9.78,4.41-19.52,8.81-29.31,13.23c1.2,1.13,1.8,2.46,1.88,4.08c9.74-4.54,19.43-9.06,29.14-13.59
			C563,102.54,562.45,101.34,561.87,100.07z M562.42,99.78c0.57,1.24,1.11,2.43,1.67,3.62c0.03,0.06,0.17,0.13,0.23,0.12
			c0.92-0.23,1.85-0.11,2.78-0.05c0.89,0.06,1.71-0.14,2.47-0.62c0.71-0.44,1.41-0.91,2.17-1.27c1.44-0.69,2.99-0.98,4.56-1.18
			c1.08-0.14,1.77-1.04,1.56-2.08c-0.4-2.03-1.24-3.87-2.52-5.5c-0.64-0.81-1.76-0.89-2.55-0.22c-0.35,0.3-0.69,0.61-1.05,0.9
			c-1.47,1.18-3.05,2.13-4.92,2.55c-1,0.22-1.82,0.76-2.43,1.6C563.82,98.43,563.28,99.23,562.42,99.78z M524.48,119.45
			c1.12,2.45,4.03,3.54,6.46,2.43c2.44-1.12,3.54-4.02,2.43-6.47c-1.1-2.45-4.05-3.54-6.5-2.41
			C524.46,114.11,523.38,117.03,524.48,119.45z"/>
		
			<radialGradient id="SVGID_5_" cx="514.1959" cy="108.421" r="18.0854" fx="532.1152" fy="110.8669" gradientTransform="matrix(-0.1154 0.9933 -0.9933 -0.1154 691.1866 -378.182)" gradientUnits="userSpaceOnUse">
			<stop  offset="0.0367" style="stop-color:#950004"/>
			<stop  offset="0.9991" style="stop-color:#FFB5B5"/>
		</radialGradient>
		<path style="fill:url(#SVGID_5_);stroke:#510002;stroke-width:0.8197;stroke-miterlimit:10;" d="M541.83,114.62
			c0.9,2.1,1.41,4.2,1.06,6.44c-0.48,3-2.54,5.03-5.57,5.52c-0.52,0.08-1.06,0.15-1.58,0.11c-2.29-0.14-4.16,0.72-5.67,2.39
			c-0.92,1.01-1.78,2.08-2.68,3.11c-1.47,1.71-3.18,3.08-5.27,3.97c-2.5,1.06-4.94,1.1-7.31-0.34c-1.16-0.7-2.16-1.6-3.06-2.61
			c-1.44-1.63-2.6-3.45-3.56-5.4c-1.23-2.49-2.09-5.08-2.44-7.84c-0.19-1.47-0.18-2.94,0.17-4.39c0.51-2.16,1.8-3.69,3.7-4.8
			c2.54-1.48,5.31-1.85,8.18-1.78c1.24,0.03,2.49,0.04,3.72-0.05c1.94-0.14,3.52-1.02,4.74-2.56c0.89-1.12,1.97-2,3.33-2.5
			c2.06-0.76,4.01-0.44,5.84,0.71c1.4,0.89,2.45,2.11,3.3,3.52c0.27,0.44,0.5,0.9,0.77,1.39c-0.44,0.2-0.85,0.39-1.25,0.57
			c-1.97,0.89-3.95,1.78-5.92,2.68c-0.22,0.1-0.39,0.1-0.6-0.03c-1.94-1.15-4.38-1-6.14,0.36c-1.79,1.39-2.55,3.68-1.94,5.87
			c0.67,2.41,2.97,4.08,5.5,3.99c2.52-0.09,4.69-1.94,5.16-4.41c0.06-0.33,0.2-0.51,0.5-0.65c2.21-1.01,4.41-2.04,6.61-3.07
			C541.54,114.75,541.67,114.69,541.83,114.62z"/>
		<path class="st12" d="M561.87,100.07c0.58,1.27,1.13,2.47,1.71,3.73c-9.71,4.53-19.4,9.05-29.14,13.59
			c-0.08-1.62-0.68-2.96-1.88-4.08C542.34,108.88,552.09,104.48,561.87,100.07z"/>
		<path class="st14" d="M562.42,99.78c0.86-0.55,1.41-1.36,1.97-2.14c0.61-0.84,1.43-1.37,2.43-1.6c1.87-0.42,3.45-1.37,4.92-2.55
			c0.36-0.29,0.7-0.6,1.05-0.9c0.78-0.67,1.9-0.59,2.55,0.22c1.28,1.63,2.13,3.47,2.52,5.5c0.2,1.04-0.49,1.94-1.56,2.08
			c-1.57,0.21-3.12,0.49-4.56,1.18c-0.75,0.36-1.45,0.83-2.17,1.27c-0.76,0.47-1.58,0.68-2.47,0.62c-0.93-0.07-1.86-0.19-2.78,0.05
			c-0.07,0.02-0.2-0.05-0.23-0.12C563.53,102.21,562.98,101.02,562.42,99.78z"/>
		<path class="st12" d="M524.48,119.45c-1.11-2.42-0.02-5.34,2.39-6.45c2.45-1.13,5.4-0.03,6.5,2.41c1.1,2.44,0.01,5.35-2.43,6.47
			C528.51,123,525.6,121.9,524.48,119.45z M527.32,113.89c-1.96,0.89-2.83,3.17-1.96,5.1c0.92,2.03,3.18,2.9,5.16,2
			c1.99-0.9,2.85-3.18,1.96-5.16C531.58,113.85,529.29,112.99,527.32,113.89z"/>
		<path class="st15" d="M527.32,113.89c1.98-0.9,4.27-0.04,5.16,1.94c0.89,1.98,0.03,4.25-1.96,5.16c-1.99,0.9-4.24,0.03-5.16-2
			C524.48,117.06,525.36,114.78,527.32,113.89z M525.82,118.88c0.79,1.71,2.85,2.47,4.55,1.67c1.7-0.79,2.47-2.86,1.68-4.56
			c-0.79-1.7-2.85-2.46-4.56-1.67C525.78,115.11,525.03,117.16,525.82,118.88z"/>
		<path class="st16" d="M525.82,118.88c-0.79-1.71-0.04-3.77,1.67-4.55c1.71-0.79,3.76-0.03,4.56,1.67
			c0.79,1.69,0.03,3.77-1.68,4.56C528.66,121.34,526.6,120.58,525.82,118.88z"/>
	</g>
</g>
<g id="_x33_IWjaK_3_">
	<g>
		<path class="st17" d="M59.96,123.89c0.22-0.29,0.43-0.54,0.61-0.8c2.43-3.46,4.85-6.93,7.28-10.39c2.59-3.69,5.2-7.37,7.78-11.07
			c0.51-0.72,1.06-1.43,1.41-2.23c0.3-0.69,0.42-1.49,0.47-2.25c0.12-1.74,0.74-3.21,2.02-4.4c1.69-1.58,2.64-3.6,3.42-5.73
			c0.24-0.64,0.42-1.32,0.78-1.9c0.69-1.11,2.08-1.55,3.3-1.08c2.52,0.97,4.69,2.47,6.48,4.5c1.1,1.25,0.87,3.12-0.48,4.18
			c-1.46,1.15-2.87,2.36-3.92,3.91c-0.55,0.81-0.97,1.7-1.42,2.57c-0.65,1.26-1.66,2.12-2.93,2.73c-0.68,0.33-1.38,0.67-1.95,1.15
			c-0.57,0.48-1.02,1.11-1.45,1.73c-1.44,2.06-2.84,4.15-4.26,6.22c-3.02,4.4-6.05,8.8-9.07,13.2c-0.75,1.09-1.48,2.19-2.21,3.28
			c-0.06,0.09-0.11,0.19-0.17,0.29c0.65,0.56,1.32,1.07,1.93,1.65c1.81,1.69,3.22,3.64,3.8,6.09c0.8,3.39-0.21,6.24-2.75,8.56
			c-0.66,0.6-1.4,1.14-2.18,1.56c-2.17,1.15-3.41,2.96-3.9,5.31c-0.37,1.77-0.63,3.56-0.97,5.34c-0.5,2.7-1.48,5.2-3.14,7.41
			c-1.54,2.05-3.39,3.66-5.98,4.23c-2.24,0.5-4.44,0.27-6.62-0.33c-2.47-0.67-4.76-1.74-6.96-3.05c-3.21-1.91-6.07-4.25-8.45-7.14
			c-1.45-1.76-2.62-3.68-3.22-5.91c-0.72-2.69-0.23-5.18,1.13-7.58c1.81-3.19,4.53-5.36,7.66-7.14c1.5-0.85,2.98-1.75,4.37-2.76
			c1.5-1.08,2.29-2.66,2.55-4.49c0.25-1.75,0.78-3.4,1.81-4.84c1.69-2.35,4.02-3.53,6.9-3.6c2.4-0.06,4.59,0.66,6.67,1.78
			C58.84,123.22,59.38,123.55,59.96,123.89z M65.17,128.45c-0.12,0.18-0.22,0.31-0.31,0.45c-1.68,2.44-3.35,4.89-5.04,7.33
			c-0.23,0.34-0.27,0.6-0.13,0.99c1.04,2.88-0.1,6.17-2.69,7.83c-2.6,1.67-6.06,1.35-8.25-0.77c-1.99-1.92-2.62-4.8-1.6-7.37
			c1-2.52,3.47-4.19,6.22-4.19c0.3,0,0.48-0.1,0.65-0.34c1.51-2.17,3.04-4.32,4.56-6.48c0.31-0.44,0.62-0.89,0.96-1.38
			c-0.59-0.35-1.12-0.69-1.68-0.98c-1.77-0.94-3.63-1.59-5.65-1.65c-2.64-0.08-4.88,0.79-6.58,2.87c-1.11,1.36-1.71,2.96-1.94,4.69
			c-0.33,2.37-1.43,4.28-3.39,5.64c-1.24,0.86-2.56,1.63-3.88,2.37c-3.06,1.71-5.73,3.81-7.49,6.95c-1.31,2.34-1.7,4.75-0.91,7.34
			c0.54,1.74,1.44,3.29,2.55,4.72c2.08,2.68,4.6,4.87,7.43,6.72c2.22,1.45,4.56,2.65,7.09,3.47c1.57,0.51,3.18,0.82,4.83,0.84
			c3.39,0.04,5.92-1.51,7.89-4.17c1.65-2.23,2.59-4.74,3.07-7.44c0.29-1.64,0.54-3.3,0.88-4.93c0.55-2.69,1.98-4.75,4.48-6.03
			c0.57-0.29,1.09-0.69,1.59-1.1c2.88-2.39,3.78-5.8,2.43-9.25C69.27,131.99,67.42,130.1,65.17,128.45z M77.2,100.74
			c-7.53,10.7-15.04,21.37-22.58,32.08c1.96,0.44,3.42,1.47,4.51,3.13c7.41-10.81,14.79-21.57,22.18-32.35
			C79.92,102.63,78.59,101.71,77.2,100.74z M77.6,100.1c1.36,0.95,2.68,1.86,4,2.77c0.07,0.05,0.26,0.04,0.32-0.02
			c0.83-0.82,1.88-1.27,2.89-1.77c0.97-0.48,1.7-1.21,2.21-2.18c0.47-0.9,0.92-1.83,1.49-2.68c1.08-1.61,2.53-2.88,4.05-4.07
			c1.04-0.82,1.21-2.18,0.35-3.15c-1.68-1.89-3.71-3.3-6.06-4.21c-1.18-0.46-2.4,0.16-2.81,1.35c-0.18,0.53-0.35,1.07-0.54,1.59
			c-0.81,2.15-1.88,4.13-3.58,5.72c-0.91,0.85-1.44,1.92-1.56,3.18C78.23,97.8,78.16,98.98,77.6,100.1z M49.96,144.29
			c2.7,1.88,6.43,1.22,8.3-1.46c1.87-2.69,1.22-6.42-1.46-8.3c-2.68-1.88-6.45-1.2-8.33,1.5C46.62,138.7,47.29,142.44,49.96,144.29z
			"/>
		<linearGradient id="SVGID_6_" gradientUnits="userSpaceOnUse" x1="27.6274" y1="144.6825" x2="70.8944" y2="144.6825">
			<stop  offset="0.1813" style="stop-color:#1B05FF"/>
			<stop  offset="0.9991" style="stop-color:#46BBFF"/>
		</linearGradient>
		<path style="fill:url(#SVGID_6_);stroke:#9AEDFF;stroke-miterlimit:10;" d="M65.17,128.45c2.25,1.64,4.09,3.54,5.1,6.11
			c1.36,3.45,0.45,6.86-2.43,9.25c-0.49,0.41-1.02,0.81-1.59,1.1c-2.5,1.28-3.93,3.33-4.48,6.03c-0.33,1.63-0.58,3.29-0.88,4.93
			c-0.48,2.7-1.43,5.21-3.07,7.44c-1.97,2.67-4.5,4.22-7.89,4.17c-1.66-0.02-3.26-0.34-4.83-0.84c-2.53-0.82-4.87-2.02-7.09-3.47
			c-2.83-1.85-5.35-4.04-7.43-6.72c-1.11-1.43-2.01-2.97-2.55-4.72c-0.8-2.58-0.4-5,0.91-7.34c1.75-3.14,4.43-5.24,7.49-6.95
			c1.32-0.74,2.64-1.5,3.88-2.37c1.95-1.36,3.06-3.26,3.39-5.64c0.24-1.72,0.83-3.32,1.94-4.69c1.7-2.08,3.94-2.95,6.58-2.87
			c2.02,0.06,3.88,0.7,5.65,1.65c0.55,0.3,1.08,0.63,1.68,0.98c-0.34,0.49-0.65,0.94-0.96,1.38c-1.52,2.16-3.05,4.32-4.56,6.48
			c-0.17,0.25-0.35,0.34-0.65,0.34c-2.75,0-5.22,1.67-6.22,4.19c-1.02,2.57-0.39,5.45,1.6,7.37c2.2,2.12,5.65,2.44,8.25,0.77
			c2.59-1.66,3.73-4.95,2.69-7.83c-0.14-0.39-0.11-0.65,0.13-0.99c1.69-2.43,3.36-4.88,5.04-7.33
			C64.96,128.77,65.05,128.63,65.17,128.45z"/>
		<radialGradient id="SVGID_7_" cx="67.9619" cy="118.3434" r="15.6173" gradientUnits="userSpaceOnUse">
			<stop  offset="0.1813" style="stop-color:#170054"/>
			<stop  offset="0.9991" style="stop-color:#005AF6"/>
		</radialGradient>
		<path class="st6" d="M77.2,100.74c1.4,0.97,2.72,1.89,4.11,2.85c-7.39,10.77-14.77,21.54-22.18,32.35
			c-1.09-1.66-2.55-2.69-4.51-3.13C62.16,122.11,69.67,111.44,77.2,100.74z"/>
		<path class="st20" d="M77.6,100.1c0.57-1.11,0.64-2.3,0.75-3.47c0.12-1.26,0.65-2.33,1.56-3.18c1.71-1.6,2.77-3.58,3.58-5.72
			c0.2-0.52,0.36-1.06,0.54-1.59c0.41-1.19,1.63-1.81,2.81-1.35c2.36,0.91,4.38,2.32,6.06,4.21c0.86,0.97,0.69,2.34-0.35,3.15
			c-1.52,1.19-2.97,2.45-4.05,4.07c-0.57,0.85-1.01,1.77-1.49,2.68c-0.51,0.97-1.24,1.69-2.21,2.18c-1.02,0.51-2.06,0.96-2.89,1.77
			c-0.06,0.06-0.25,0.07-0.32,0.02C80.27,101.96,78.96,101.04,77.6,100.1z"/>
		<path class="st17" d="M49.96,144.29c-2.66-1.85-3.34-5.59-1.49-8.26c1.88-2.7,5.65-3.38,8.33-1.5c2.67,1.88,3.33,5.61,1.46,8.3
			C56.39,145.51,52.65,146.17,49.96,144.29z M49.48,136.69c-1.5,2.15-1.01,5.09,1.11,6.57c2.23,1.56,5.14,1.08,6.66-1.1
			c1.53-2.18,1.02-5.11-1.14-6.63C53.94,134,51,134.52,49.48,136.69z"/>
		<path class="st21" d="M49.48,136.69c1.52-2.17,4.46-2.69,6.63-1.16c2.16,1.52,2.67,4.45,1.14,6.63c-1.53,2.18-4.44,2.66-6.66,1.1
			C48.47,141.78,47.98,138.84,49.48,136.69z M51,142.86c1.89,1.31,4.52,0.82,5.82-1.07c1.3-1.89,0.81-4.54-1.07-5.83
			c-1.89-1.3-4.52-0.81-5.83,1.07C48.62,138.93,49.11,141.55,51,142.86z"/>
		<path class="st22" d="M51,142.86c-1.89-1.31-2.38-3.93-1.07-5.82c1.3-1.89,3.93-2.37,5.83-1.07c1.88,1.29,2.37,3.94,1.07,5.83
			C55.52,143.68,52.89,144.17,51,142.86z"/>
	</g>
</g>
<g id="_x33_IWjaK_1_">
	<g>
		<path class="st17" d="M292.73,122.2c-0.1-0.35-0.17-0.67-0.28-0.97c-1.33-4.01-2.67-8.03-4-12.04c-1.42-4.28-2.82-8.57-4.24-12.85
			c-0.28-0.84-0.52-1.71-0.95-2.46c-0.37-0.65-0.95-1.22-1.52-1.72c-1.32-1.13-2.13-2.51-2.33-4.25c-0.26-2.3-1.32-4.27-2.56-6.16
			c-0.37-0.57-0.81-1.13-1.06-1.76c-0.48-1.21,0-2.6,1.1-3.29c2.28-1.45,4.78-2.29,7.47-2.52c1.66-0.14,3.02,1.16,3.06,2.88
			c0.05,1.86,0.19,3.71,0.8,5.48c0.32,0.92,0.79,1.79,1.22,2.67c0.62,1.28,0.72,2.6,0.45,3.98c-0.14,0.74-0.29,1.51-0.24,2.25
			c0.05,0.74,0.28,1.48,0.52,2.2c0.8,2.38,1.64,4.76,2.45,7.13c1.73,5.05,3.46,10.1,5.19,15.15c0.43,1.25,0.88,2.49,1.32,3.74
			c0.04,0.1,0.08,0.2,0.13,0.31c0.84-0.19,1.65-0.42,2.47-0.57c2.43-0.45,4.85-0.42,7.15,0.58c3.2,1.38,4.88,3.89,5.23,7.31
			c0.09,0.88,0.08,1.8-0.05,2.68c-0.37,2.43,0.34,4.5,1.94,6.29c1.2,1.35,2.48,2.63,3.71,3.96c1.87,2.01,3.29,4.29,4.08,6.94
			c0.73,2.46,0.91,4.91-0.17,7.33c-0.94,2.09-2.43,3.72-4.21,5.12c-2.01,1.58-4.24,2.78-6.6,3.77c-3.45,1.44-7.03,2.34-10.77,2.53
			c-2.28,0.12-4.52-0.09-6.66-0.94c-2.58-1.03-4.29-2.9-5.41-5.42c-1.48-3.36-1.6-6.84-1.16-10.4c0.21-1.71,0.37-3.43,0.39-5.15
			c0.02-1.85-0.77-3.42-2.09-4.72c-1.25-1.24-2.27-2.66-2.81-4.34c-0.88-2.75-0.44-5.33,1.22-7.69c1.38-1.96,3.27-3.29,5.41-4.29
			C291.52,122.69,292.11,122.47,292.73,122.2z M299.5,120.74c0.07,0.21,0.12,0.36,0.17,0.52c0.96,2.8,1.93,5.61,2.88,8.42
			c0.13,0.39,0.32,0.57,0.72,0.69c2.94,0.88,4.89,3.76,4.68,6.83c-0.21,3.08-2.53,5.66-5.54,6.16c-2.73,0.45-5.42-0.76-6.87-3.11
			c-1.43-2.3-1.29-5.28,0.35-7.49c0.18-0.24,0.21-0.44,0.11-0.73c-0.84-2.51-1.66-5.02-2.49-7.53c-0.17-0.52-0.35-1.03-0.54-1.6
			c-0.63,0.27-1.22,0.49-1.79,0.76c-1.81,0.85-3.44,1.97-4.69,3.55c-1.64,2.07-2.27,4.39-1.62,6.99c0.43,1.71,1.36,3.14,2.6,4.35
			c1.71,1.68,2.58,3.7,2.5,6.08c-0.05,1.51-0.22,3.02-0.41,4.52c-0.45,3.48-0.36,6.88,1.11,10.15c1.1,2.45,2.8,4.2,5.35,5.1
			c1.72,0.61,3.5,0.81,5.3,0.77c3.39-0.07,6.65-0.79,9.82-1.95c2.49-0.92,4.85-2.08,7.01-3.62c1.35-0.96,2.56-2.06,3.56-3.38
			c2.05-2.7,2.32-5.65,1.36-8.83c-0.81-2.65-2.26-4.9-4.14-6.91c-1.14-1.22-2.32-2.4-3.43-3.64c-1.83-2.05-2.63-4.43-2.17-7.19
			c0.11-0.63,0.1-1.29,0.06-1.93c-0.2-3.74-2.4-6.5-5.98-7.47C304.78,119.56,302.16,119.91,299.5,120.74z M284.43,94.56
			c4.1,12.43,8.18,24.82,12.28,37.25c1.52-1.31,3.22-1.87,5.2-1.75c-4.26-12.4-8.5-24.74-12.74-37.09
			C287.57,93.5,286.04,94.02,284.43,94.56z M284.15,93.85c1.57-0.53,3.09-1.04,4.6-1.56c0.08-0.03,0.18-0.18,0.17-0.27
			c-0.16-1.15,0.1-2.26,0.3-3.38c0.19-1.07,0.04-2.09-0.43-3.07c-0.44-0.92-0.92-1.83-1.26-2.79c-0.65-1.83-0.8-3.75-0.85-5.68
			c-0.03-1.32-1.03-2.27-2.32-2.16c-2.52,0.22-4.86,1.01-6.99,2.35c-1.07,0.67-1.31,2.02-0.59,3.06c0.32,0.46,0.65,0.91,0.95,1.39
			c1.24,1.93,2.19,3.97,2.46,6.29c0.14,1.24,0.68,2.31,1.62,3.15C282.68,91.98,283.59,92.74,284.15,93.85z M303.14,142.4
			c3.11-1.04,4.81-4.43,3.78-7.53c-1.04-3.11-4.43-4.81-7.53-3.78c-3.11,1.03-4.81,4.46-3.76,7.58
			C296.66,141.74,300.07,143.43,303.14,142.4z"/>
		
			<linearGradient id="SVGID_8_" gradientUnits="userSpaceOnUse" x1="257.1517" y1="36.9155" x2="300.4188" y2="36.9155" gradientTransform="matrix(0.5963 -0.8027 0.8027 0.5963 107.1535 344.963)">
			<stop  offset="0.1813" style="stop-color:#1B05FF"/>
			<stop  offset="0.9991" style="stop-color:#46BBFF"/>
		</linearGradient>
		<path style="fill:url(#SVGID_8_);stroke:#9AEDFF;stroke-miterlimit:10;" d="M299.5,120.74c2.66-0.82,5.28-1.18,7.94-0.45
			c3.58,0.97,5.77,3.73,5.98,7.47c0.03,0.64,0.04,1.3-0.06,1.93c-0.46,2.76,0.33,5.14,2.17,7.19c1.11,1.24,2.29,2.43,3.43,3.64
			c1.88,2,3.33,4.25,4.14,6.91c0.97,3.17,0.7,6.13-1.36,8.83c-1,1.32-2.21,2.42-3.56,3.38c-2.17,1.54-4.52,2.71-7.01,3.62
			c-3.17,1.17-6.44,1.88-9.82,1.95c-1.81,0.04-3.59-0.16-5.3-0.77c-2.55-0.9-4.25-2.66-5.35-5.1c-1.47-3.28-1.56-6.67-1.11-10.15
			c0.19-1.5,0.37-3.01,0.41-4.52c0.08-2.38-0.79-4.4-2.5-6.08c-1.24-1.22-2.17-2.65-2.6-4.35c-0.66-2.6-0.02-4.92,1.62-6.99
			c1.25-1.58,2.88-2.7,4.69-3.55c0.57-0.27,1.15-0.49,1.79-0.76c0.19,0.57,0.37,1.08,0.54,1.6c0.83,2.51,1.65,5.02,2.49,7.53
			c0.1,0.28,0.07,0.48-0.11,0.73c-1.64,2.21-1.77,5.19-0.35,7.49c1.45,2.35,4.14,3.56,6.87,3.11c3.01-0.5,5.33-3.08,5.54-6.16
			c0.21-3.07-1.75-5.94-4.68-6.83c-0.4-0.12-0.59-0.3-0.72-0.69c-0.94-2.81-1.91-5.61-2.88-8.42
			C299.62,121.1,299.57,120.94,299.5,120.74z"/>
		
			<radialGradient id="SVGID_9_" cx="297.4863" cy="10.5764" r="15.6173" gradientTransform="matrix(0.5963 -0.8027 0.8027 0.5963 107.1535 344.963)" gradientUnits="userSpaceOnUse">
			<stop  offset="0.1813" style="stop-color:#170054"/>
			<stop  offset="0.9991" style="stop-color:#005AF6"/>
		</radialGradient>
		<path class="st10" d="M284.43,94.56c1.61-0.54,3.14-1.06,4.74-1.59c4.24,12.36,8.48,24.7,12.74,37.09
			c-1.98-0.11-3.68,0.45-5.2,1.75C292.61,119.38,288.53,106.99,284.43,94.56z"/>
		<path class="st20" d="M284.15,93.85c-0.56-1.12-1.46-1.88-2.34-2.67c-0.94-0.85-1.48-1.91-1.62-3.15
			c-0.26-2.32-1.22-4.36-2.46-6.29c-0.3-0.47-0.63-0.92-0.95-1.39c-0.71-1.04-0.48-2.39,0.59-3.06c2.14-1.35,4.48-2.13,6.99-2.35
			c1.29-0.11,2.29,0.84,2.32,2.16c0.05,1.93,0.2,3.85,0.85,5.68c0.34,0.96,0.82,1.87,1.26,2.79c0.48,0.98,0.62,2.01,0.43,3.07
			c-0.2,1.12-0.46,2.23-0.3,3.38c0.01,0.08-0.09,0.24-0.17,0.27C287.24,92.82,285.72,93.32,284.15,93.85z"/>
		<path class="st17" d="M303.14,142.4c-3.08,1.03-6.48-0.66-7.52-3.73c-1.05-3.12,0.65-6.55,3.76-7.58
			c3.11-1.03,6.49,0.67,7.53,3.78C307.96,137.96,306.26,141.35,303.14,142.4z M296.76,138.25c0.83,2.49,3.48,3.84,5.94,3.03
			c2.58-0.86,3.93-3.48,3.09-6.01c-0.84-2.53-3.5-3.87-6.01-3.04C297.26,133.06,295.92,135.73,296.76,138.25z"/>
		<path class="st21" d="M296.76,138.25c-0.84-2.51,0.5-5.18,3.02-6.02c2.51-0.83,5.16,0.51,6.01,3.04c0.84,2.53-0.51,5.15-3.09,6.01
			C300.24,142.09,297.58,140.74,296.76,138.25z M302.61,140.71c2.17-0.74,3.36-3.14,2.62-5.31c-0.74-2.17-3.16-3.36-5.31-2.62
			c-2.17,0.75-3.35,3.15-2.61,5.32C298.04,140.27,300.43,141.45,302.61,140.71z"/>
		<path class="st22" d="M302.61,140.71c-2.18,0.74-4.57-0.44-5.31-2.61c-0.74-2.17,0.44-4.57,2.61-5.32
			c2.16-0.74,4.57,0.45,5.31,2.62C305.97,137.57,304.79,139.97,302.61,140.71z"/>
	</g>
</g>
<g id="_x33_IWjaK_4_">
	<g>
		<path class="st12" d="M374.9,57.78c0.12-0.22,0.24-0.42,0.34-0.62c1.32-2.65,2.63-5.31,3.95-7.96c1.41-2.83,2.82-5.66,4.23-8.49
			c0.27-0.55,0.58-1.11,0.74-1.69c0.13-0.51,0.13-1.07,0.09-1.61c-0.1-1.22,0.18-2.3,0.93-3.26c1.01-1.27,1.45-2.77,1.76-4.33
			c0.1-0.47,0.15-0.96,0.34-1.4c0.36-0.84,1.28-1.29,2.17-1.09c1.85,0.41,3.51,1.22,4.96,2.43c0.9,0.75,0.93,2.07,0.11,2.94
			c-0.89,0.95-1.74,1.94-2.3,3.12c-0.29,0.62-0.49,1.28-0.71,1.93c-0.32,0.94-0.93,1.65-1.74,2.2c-0.44,0.3-0.88,0.61-1.23,1
			c-0.34,0.39-0.59,0.88-0.82,1.35c-0.78,1.58-1.53,3.17-2.3,4.76c-1.63,3.37-3.26,6.73-4.89,10.1c-0.4,0.83-0.79,1.67-1.19,2.51
			c-0.03,0.07-0.06,0.14-0.09,0.22c0.51,0.32,1.03,0.61,1.51,0.94c1.43,0.98,2.62,2.18,3.27,3.82c0.91,2.26,0.51,4.35-1.01,6.22
			c-0.39,0.48-0.85,0.94-1.35,1.31c-1.38,1.03-2.05,2.41-2.14,4.09c-0.07,1.27-0.06,2.53-0.11,3.8c-0.07,1.92-0.48,3.76-1.4,5.47
			c-0.85,1.59-1.97,2.89-3.7,3.56c-1.5,0.58-3.05,0.65-4.62,0.47c-1.78-0.21-3.48-0.71-5.14-1.38c-2.43-0.99-4.65-2.3-6.61-4.05
			c-1.19-1.07-2.2-2.27-2.85-3.75c-0.78-1.79-0.7-3.56-0.02-5.37c0.92-2.4,2.57-4.19,4.55-5.75c0.95-0.75,1.88-1.53,2.74-2.37
			c0.92-0.91,1.3-2.08,1.29-3.38c-0.01-1.24,0.18-2.44,0.75-3.55c0.92-1.8,2.41-2.87,4.4-3.22c1.65-0.29,3.25-0.03,4.81,0.53
			C374.06,57.43,374.47,57.61,374.9,57.78z M379,60.4c-0.07,0.14-0.12,0.24-0.17,0.34c-0.9,1.87-1.8,3.74-2.72,5.61
			c-0.13,0.26-0.12,0.45,0.02,0.7c1.02,1.89,0.58,4.28-1.04,5.71c-1.63,1.43-4.05,1.57-5.8,0.33c-1.58-1.12-2.32-3.05-1.89-4.94
			c0.43-1.85,1.96-3.27,3.87-3.56c0.21-0.03,0.32-0.12,0.41-0.3c0.82-1.66,1.65-3.31,2.48-4.97c0.17-0.34,0.34-0.68,0.52-1.06
			c-0.45-0.18-0.85-0.36-1.27-0.5c-1.32-0.47-2.68-0.72-4.09-0.55c-1.84,0.22-3.3,1.06-4.25,2.68c-0.63,1.06-0.87,2.23-0.85,3.45
			c0.02,1.68-0.54,3.12-1.75,4.26c-0.77,0.73-1.6,1.4-2.44,2.05c-1.94,1.51-3.57,3.25-4.46,5.6c-0.66,1.76-0.68,3.47,0.15,5.18
			c0.56,1.15,1.34,2.13,2.26,3c1.72,1.64,3.7,2.89,5.85,3.87c1.69,0.77,3.44,1.35,5.28,1.66c1.14,0.19,2.29,0.24,3.44,0.08
			c2.35-0.33,3.94-1.67,5.03-3.72c0.91-1.72,1.3-3.56,1.35-5.48c0.03-1.17,0.03-2.34,0.09-3.51c0.1-1.93,0.87-3.5,2.47-4.65
			c0.36-0.26,0.68-0.59,0.98-0.93c1.74-1.96,2.01-4.42,0.71-6.66C382.21,62.41,380.73,61.3,379,60.4z M384.41,39.93
			c-4.09,8.21-8.17,16.39-12.27,24.6c1.4,0.1,2.52,0.66,3.45,1.69c4-8.27,7.98-16.5,11.96-24.75
			C386.5,40.95,385.48,40.45,384.41,39.93z M384.62,39.44c1.05,0.51,2.05,1.01,3.06,1.5c0.05,0.03,0.18,0,0.22-0.05
			c0.49-0.65,1.17-1.07,1.82-1.53c0.62-0.44,1.05-1.02,1.3-1.74c0.23-0.68,0.44-1.37,0.75-2.01c0.58-1.23,1.45-2.26,2.38-3.24
			c0.64-0.68,0.61-1.64-0.09-2.22c-1.36-1.13-2.91-1.89-4.64-2.28c-0.86-0.19-1.65,0.36-1.8,1.23c-0.07,0.39-0.13,0.78-0.21,1.16
			c-0.34,1.57-0.87,3.06-1.88,4.34c-0.54,0.69-0.8,1.48-0.75,2.37C384.82,37.78,384.89,38.61,384.62,39.44z M370.13,72.97
			c2.06,1.02,4.58,0.17,5.59-1.88c1.01-2.06,0.17-4.58-1.88-5.6c-2.05-1.02-4.6-0.15-5.61,1.92
			C367.22,69.45,368.09,71.97,370.13,72.97z"/>
		
			<radialGradient id="SVGID_10_" cx="472.6947" cy="279.2296" r="15.4612" fx="488.0139" fy="281.3206" gradientTransform="matrix(0.5386 0.8426 -0.8426 0.5386 350.9303 -475.1131)" gradientUnits="userSpaceOnUse">
			<stop  offset="0.0367" style="stop-color:#950004"/>
			<stop  offset="0.9991" style="stop-color:#FFB5B5"/>
		</radialGradient>
		<path style="fill:url(#SVGID_10_);stroke:#510002;stroke-width:0.7008;stroke-miterlimit:10;" d="M379,60.4
			c1.73,0.9,3.21,2.02,4.18,3.69c1.3,2.25,1.04,4.7-0.71,6.66c-0.3,0.34-0.62,0.67-0.98,0.93c-1.59,1.15-2.37,2.72-2.47,4.65
			c-0.06,1.17-0.06,2.34-0.09,3.51c-0.05,1.92-0.44,3.76-1.35,5.48c-1.08,2.05-2.68,3.39-5.03,3.72c-1.15,0.16-2.3,0.11-3.44-0.08
			c-1.84-0.3-3.59-0.88-5.28-1.66c-2.16-0.98-4.13-2.24-5.85-3.87c-0.92-0.87-1.7-1.85-2.26-3c-0.82-1.71-0.81-3.42-0.15-5.18
			c0.88-2.36,2.51-4.09,4.46-5.6c0.84-0.65,1.67-1.32,2.44-2.05c1.21-1.15,1.78-2.58,1.75-4.26c-0.02-1.22,0.22-2.39,0.85-3.45
			c0.96-1.62,2.42-2.46,4.25-2.68c1.41-0.17,2.76,0.08,4.09,0.55c0.41,0.15,0.82,0.32,1.27,0.5c-0.18,0.38-0.35,0.72-0.52,1.06
			c-0.83,1.66-1.66,3.31-2.48,4.97c-0.09,0.19-0.21,0.27-0.41,0.3c-1.91,0.29-3.44,1.71-3.87,3.56c-0.43,1.89,0.3,3.81,1.89,4.94
			c1.75,1.24,4.17,1.1,5.8-0.33c1.62-1.42,2.06-3.82,1.04-5.71c-0.14-0.25-0.14-0.44-0.02-0.7c0.92-1.86,1.82-3.74,2.72-5.61
			C378.88,60.64,378.93,60.53,379,60.4z"/>
		<path class="st12" d="M384.41,39.93c1.07,0.52,2.08,1.02,3.15,1.54c-3.98,8.24-7.96,16.48-11.96,24.75
			c-0.93-1.03-2.05-1.59-3.45-1.69C376.24,56.32,380.32,48.14,384.41,39.93z"/>
		<path class="st26" d="M384.62,39.44c0.28-0.83,0.2-1.66,0.15-2.48c-0.05-0.88,0.21-1.68,0.75-2.37c1.01-1.29,1.54-2.77,1.88-4.34
			c0.08-0.38,0.14-0.77,0.21-1.16c0.16-0.87,0.94-1.42,1.8-1.23c1.73,0.38,3.28,1.15,4.64,2.28c0.7,0.58,0.73,1.55,0.09,2.22
			c-0.93,0.98-1.8,2.01-2.38,3.24c-0.3,0.65-0.52,1.34-0.75,2.01c-0.25,0.72-0.68,1.3-1.3,1.74c-0.65,0.46-1.33,0.88-1.82,1.53
			c-0.03,0.05-0.16,0.07-0.22,0.05C386.67,40.45,385.66,39.95,384.62,39.44z"/>
		<path class="st12" d="M370.13,72.97c-2.04-1-2.9-3.52-1.9-5.57c1.01-2.07,3.56-2.94,5.61-1.92c2.05,1.02,2.9,3.54,1.88,5.6
			C374.71,73.14,372.19,73.99,370.13,72.97z M369,67.76c-0.82,1.65-0.16,3.63,1.46,4.44c1.71,0.85,3.67,0.21,4.5-1.47
			c0.83-1.67,0.17-3.65-1.49-4.48C371.8,65.42,369.82,66.09,369,67.76z"/>
		<path class="st15" d="M369,67.76c0.82-1.66,2.81-2.33,4.47-1.5c1.66,0.82,2.32,2.8,1.49,4.48c-0.83,1.67-2.79,2.31-4.5,1.47
			C368.83,71.39,368.18,69.4,369,67.76z M370.7,71.87c1.44,0.71,3.22,0.09,3.92-1.35c0.7-1.44,0.09-3.23-1.35-3.92
			c-1.45-0.7-3.22-0.09-3.92,1.36C368.64,69.4,369.25,71.16,370.7,71.87z"/>
		<path class="st27" d="M370.7,71.87c-1.45-0.71-2.06-2.47-1.36-3.92c0.7-1.44,2.48-2.06,3.92-1.36c1.44,0.7,2.05,2.48,1.35,3.92
			C373.91,71.96,372.14,72.58,370.7,71.87z"/>
	</g>
</g>
<g id="_x33_IWjaK_5_">
	<g>
		<path class="st28" d="M164.39,104.33c-0.22-0.23-0.41-0.44-0.61-0.63c-2.68-2.52-5.36-5.03-8.04-7.55
			c-2.85-2.69-5.7-5.38-8.56-8.06c-0.56-0.52-1.1-1.09-1.75-1.49c-0.56-0.34-1.23-0.54-1.87-0.68c-1.48-0.32-2.67-1.04-3.54-2.28
			c-1.15-1.65-2.77-2.71-4.51-3.65c-0.52-0.28-1.09-0.53-1.53-0.9c-0.87-0.73-1.07-1.98-0.52-2.97c1.15-2.05,2.7-3.73,4.67-5.02
			c1.21-0.79,2.79-0.36,3.53,0.93c0.81,1.4,1.68,2.76,2.88,3.85c0.63,0.57,1.35,1.04,2.04,1.54c1.01,0.72,1.62,1.69,1.99,2.86
			c0.2,0.62,0.41,1.27,0.75,1.82c0.34,0.55,0.83,1.02,1.31,1.46c1.6,1.49,3.22,2.96,4.83,4.44c3.41,3.14,6.82,6.29,10.24,9.43
			c0.84,0.78,1.7,1.54,2.55,2.31c0.07,0.06,0.15,0.12,0.23,0.19c0.56-0.49,1.09-1,1.66-1.46c1.67-1.35,3.53-2.32,5.71-2.52
			c3.01-0.27,5.34,0.95,7.02,3.42c0.43,0.64,0.81,1.35,1.07,2.07c0.72,2.01,2.13,3.3,4.09,4.01c1.48,0.53,2.99,0.99,4.47,1.49
			c2.26,0.77,4.29,1.92,5.99,3.62c1.58,1.58,2.73,3.37,2.9,5.67c0.15,1.99-0.32,3.85-1.1,5.66c-0.88,2.04-2.09,3.88-3.48,5.61
			c-2.04,2.53-4.4,4.69-7.18,6.39c-1.69,1.03-3.49,1.8-5.48,2.04c-2.4,0.28-4.48-0.44-6.38-1.91c-2.52-1.95-4.05-4.56-5.19-7.47
			c-0.55-1.39-1.14-2.78-1.83-4.1c-0.75-1.42-2.01-2.3-3.55-2.75c-1.47-0.43-2.83-1.09-3.94-2.16c-1.81-1.74-2.54-3.89-2.25-6.38
			c0.24-2.07,1.13-3.87,2.36-5.52C163.67,105.21,164.03,104.79,164.39,104.33z M168.96,100.41c0.14,0.13,0.24,0.23,0.35,0.32
			c1.9,1.75,3.8,3.48,5.68,5.24c0.26,0.24,0.49,0.3,0.84,0.23c2.61-0.54,5.29,0.85,6.4,3.28c1.12,2.44,0.41,5.38-1.68,7
			c-1.9,1.48-4.45,1.66-6.54,0.47c-2.04-1.17-3.18-3.5-2.84-5.87c0.04-0.26-0.02-0.42-0.21-0.6c-1.68-1.57-3.34-3.15-5.01-4.72
			c-0.34-0.32-0.69-0.64-1.07-1c-0.37,0.47-0.73,0.88-1.05,1.32c-1.03,1.4-1.81,2.92-2.11,4.66c-0.4,2.26,0.08,4.3,1.66,6.01
			c1.04,1.13,2.34,1.83,3.79,2.25c2,0.57,3.5,1.76,4.43,3.61c0.59,1.17,1.08,2.4,1.56,3.63c1.1,2.85,2.57,5.4,5.05,7.3
			c1.85,1.42,3.88,2.05,6.2,1.69c1.56-0.25,3.01-0.83,4.37-1.61c2.56-1.46,4.76-3.35,6.7-5.56c1.52-1.73,2.84-3.6,3.86-5.67
			c0.63-1.29,1.1-2.63,1.32-4.05c0.45-2.91-0.57-5.28-2.62-7.3c-1.72-1.69-3.76-2.81-6.02-3.56c-1.38-0.46-2.77-0.87-4.13-1.36
			c-2.25-0.81-3.84-2.29-4.63-4.6c-0.18-0.53-0.46-1.03-0.75-1.5c-1.7-2.77-4.52-3.97-7.66-3.23
			C172.51,97.32,170.65,98.68,168.96,100.41z M146.61,86.64c8.27,7.8,16.52,15.58,24.8,23.38c0.62-1.63,1.69-2.76,3.24-3.49
			c-8.38-7.71-16.73-15.39-25.09-23.07C148.57,84.54,147.61,85.56,146.61,86.64z M146.1,86.22c0.98-1.06,1.93-2.07,2.87-3.1
			c0.05-0.06,0.06-0.22,0.02-0.27c-0.6-0.81-0.86-1.77-1.17-2.71c-0.3-0.89-0.83-1.62-1.6-2.17c-0.72-0.52-1.46-1.02-2.12-1.61
			c-1.25-1.13-2.16-2.53-3-3.99c-0.57-1-1.73-1.31-2.67-0.69c-1.83,1.21-3.29,2.78-4.37,4.69c-0.54,0.96-0.16,2.09,0.81,2.58
			c0.43,0.22,0.88,0.43,1.3,0.66c1.75,0.96,3.32,2.13,4.48,3.79c0.62,0.89,1.48,1.48,2.54,1.74C144.2,85.39,145.21,85.6,146.1,86.22
			z M180.71,115.45c1.95-2.09,1.84-5.38-0.23-7.32c-2.08-1.94-5.37-1.84-7.32,0.23c-1.95,2.07-1.83,5.4,0.26,7.35
			C175.48,117.63,178.78,117.52,180.71,115.45z"/>
		
			<linearGradient id="SVGID_11_" gradientUnits="userSpaceOnUse" x1="181.9855" y1="123.3328" x2="212.8276" y2="123.3328" gradientTransform="matrix(0.7841 -0.6207 0.6207 0.7841 -49.7543 140.7623)">
			<stop  offset="0" style="stop-color:#FFCB15"/>
			<stop  offset="1" style="stop-color:#F3FF12"/>
		</linearGradient>
		<path style="fill:url(#SVGID_11_);stroke:#FFFE64;stroke-width:0.869;stroke-miterlimit:10;" d="M168.96,100.41
			c1.69-1.73,3.55-3.08,5.88-3.64c3.13-0.74,5.95,0.46,7.66,3.23c0.29,0.48,0.57,0.98,0.75,1.5c0.79,2.3,2.38,3.79,4.63,4.6
			c1.36,0.49,2.76,0.91,4.13,1.36c2.27,0.75,4.31,1.87,6.02,3.56c2.05,2.02,3.07,4.39,2.62,7.3c-0.22,1.42-0.69,2.76-1.32,4.05
			c-1.02,2.07-2.34,3.94-3.86,5.67c-1.94,2.21-4.14,4.1-6.7,5.56c-1.37,0.78-2.81,1.36-4.37,1.61c-2.32,0.37-4.35-0.27-6.2-1.69
			c-2.48-1.9-3.96-4.45-5.05-7.3c-0.47-1.23-0.97-2.45-1.56-3.63c-0.93-1.85-2.43-3.04-4.43-3.61c-1.45-0.42-2.76-1.12-3.79-2.25
			c-1.58-1.72-2.05-3.75-1.66-6.01c0.3-1.73,1.08-3.25,2.11-4.66c0.32-0.44,0.68-0.85,1.05-1.32c0.38,0.35,0.73,0.67,1.07,1
			c1.67,1.57,3.34,3.15,5.01,4.72c0.19,0.18,0.25,0.34,0.21,0.6c-0.34,2.37,0.79,4.7,2.84,5.87c2.08,1.19,4.64,1.01,6.54-0.47
			c2.09-1.63,2.8-4.56,1.68-7c-1.11-2.43-3.79-3.82-6.4-3.28c-0.35,0.07-0.58,0.01-0.84-0.23c-1.88-1.76-3.79-3.5-5.68-5.24
			C169.2,100.63,169.1,100.54,168.96,100.41z"/>
		<path class="st30" d="M146.61,86.64c1.01-1.08,1.96-2.11,2.96-3.18c8.36,7.69,16.7,15.36,25.09,23.07
			c-1.56,0.73-2.63,1.86-3.24,3.49C163.13,102.22,154.88,94.44,146.61,86.64z"/>
		<path class="st31" d="M146.1,86.22c-0.89-0.63-1.9-0.83-2.89-1.07c-1.07-0.26-1.92-0.85-2.54-1.74c-1.16-1.66-2.73-2.83-4.48-3.79
			c-0.43-0.24-0.87-0.44-1.3-0.66c-0.97-0.5-1.35-1.63-0.81-2.58c1.08-1.91,2.54-3.48,4.37-4.69c0.94-0.62,2.1-0.31,2.67,0.69
			c0.83,1.45,1.74,2.86,3,3.99c0.66,0.59,1.4,1.09,2.12,1.61c0.77,0.55,1.3,1.28,1.6,2.17c0.31,0.94,0.57,1.89,1.17,2.71
			c0.04,0.06,0.03,0.22-0.02,0.27C148.03,84.15,147.08,85.16,146.1,86.22z"/>
		<path class="st32" d="M180.71,115.45c-1.92,2.06-5.22,2.18-7.29,0.26c-2.09-1.95-2.21-5.28-0.26-7.35
			c1.95-2.07,5.24-2.17,7.32-0.23C182.55,110.07,182.65,113.37,180.71,115.45z M174.11,114.92c1.66,1.56,4.25,1.5,5.79-0.14
			c1.62-1.72,1.56-4.29-0.12-5.87c-1.69-1.58-4.27-1.51-5.85,0.16C172.35,110.76,172.43,113.35,174.11,114.92z"/>
		<path class="st28" d="M174.11,114.92c-1.68-1.57-1.76-4.17-0.18-5.85c1.57-1.67,4.16-1.75,5.85-0.16
			c1.69,1.58,1.74,4.15,0.12,5.87C178.36,116.42,175.77,116.48,174.11,114.92z M179.6,114.38c1.36-1.46,1.27-3.79-0.2-5.14
			c-1.46-1.35-3.8-1.26-5.14,0.2c-1.35,1.47-1.26,3.79,0.2,5.14C175.93,115.94,178.24,115.85,179.6,114.38z"/>
		<path class="st33" d="M179.6,114.38c-1.36,1.47-3.68,1.56-5.14,0.2c-1.46-1.35-1.55-3.68-0.2-5.14c1.34-1.46,3.68-1.55,5.14-0.2
			C180.87,110.59,180.96,112.92,179.6,114.38z"/>
	</g>
</g>
<g id="_x33_IWjaK_6_">
	<g>
		<path class="st28" d="M443.7,142.2c0.24-0.21,0.45-0.39,0.65-0.59c2.62-2.58,5.23-5.16,7.85-7.74c2.79-2.75,5.6-5.49,8.39-8.24
			c0.54-0.54,1.13-1.06,1.55-1.69c0.36-0.54,0.59-1.21,0.75-1.85c0.38-1.46,1.14-2.63,2.41-3.45c1.69-1.09,2.82-2.67,3.82-4.36
			c0.3-0.51,0.57-1.06,0.96-1.5c0.76-0.84,2.02-0.99,2.99-0.41c2,1.22,3.62,2.84,4.83,4.86c0.75,1.24,0.26,2.8-1.07,3.49
			c-1.43,0.75-2.82,1.57-3.96,2.73c-0.59,0.6-1.09,1.31-1.62,1.98c-0.76,0.98-1.75,1.56-2.93,1.88c-0.63,0.17-1.28,0.36-1.84,0.68
			c-0.56,0.32-1.05,0.79-1.51,1.25c-1.55,1.54-3.08,3.1-4.62,4.65c-3.27,3.29-6.55,6.58-9.82,9.87c-0.81,0.81-1.61,1.64-2.41,2.46
			c-0.07,0.07-0.13,0.14-0.19,0.22c0.47,0.58,0.96,1.12,1.39,1.71c1.28,1.73,2.19,3.62,2.3,5.8c0.15,3.02-1.16,5.3-3.69,6.88
			c-0.66,0.41-1.38,0.76-2.11,0.99c-2.03,0.65-3.38,2-4.16,3.93c-0.59,1.46-1.1,2.95-1.66,4.41c-0.85,2.23-2.08,4.21-3.85,5.84
			c-1.64,1.52-3.47,2.6-5.78,2.68c-1.99,0.07-3.84-0.47-5.61-1.32c-2-0.96-3.8-2.24-5.47-3.7c-2.45-2.14-4.52-4.58-6.11-7.42
			c-0.97-1.73-1.67-3.56-1.82-5.55c-0.19-2.41,0.61-4.46,2.15-6.3c2.05-2.45,4.71-3.87,7.66-4.9c1.41-0.49,2.82-1.03,4.17-1.67
			c1.45-0.69,2.37-1.92,2.88-3.44c0.49-1.46,1.2-2.79,2.31-3.86c1.81-1.74,3.98-2.39,6.46-2c2.06,0.32,3.82,1.28,5.43,2.57
			C442.85,141.45,443.26,141.82,443.7,142.2z M447.45,146.91c-0.13,0.13-0.24,0.23-0.34,0.34c-1.82,1.83-3.63,3.66-5.46,5.47
			c-0.25,0.25-0.32,0.47-0.26,0.83c0.44,2.63-1.05,5.26-3.52,6.27c-2.49,1.02-5.39,0.2-6.93-1.95c-1.4-1.96-1.49-4.51-0.22-6.55
			c1.25-2,3.62-3.04,5.97-2.61c0.26,0.05,0.42-0.01,0.61-0.19c1.63-1.62,3.27-3.22,4.91-4.83c0.34-0.33,0.67-0.66,1.04-1.03
			c-0.45-0.39-0.85-0.76-1.28-1.1c-1.36-1.08-2.85-1.92-4.57-2.29c-2.24-0.48-4.29-0.09-6.07,1.42c-1.17,0.99-1.92,2.27-2.39,3.7
			c-0.65,1.98-1.9,3.43-3.78,4.29c-1.2,0.54-2.44,0.99-3.68,1.41c-2.89,0.98-5.5,2.36-7.49,4.77c-1.49,1.8-2.2,3.8-1.92,6.13
			c0.19,1.57,0.71,3.04,1.44,4.43c1.36,2.61,3.17,4.88,5.3,6.91c1.67,1.59,3.49,2.98,5.52,4.07c1.26,0.68,2.59,1.2,4,1.48
			c2.89,0.57,5.3-0.36,7.4-2.33c1.76-1.65,2.96-3.64,3.79-5.88c0.51-1.36,0.98-2.73,1.52-4.08c0.89-2.22,2.44-3.75,4.77-4.45
			c0.53-0.16,1.04-0.42,1.53-0.69c2.84-1.59,4.14-4.37,3.52-7.53C450.39,150.58,449.11,148.67,447.45,146.91z M462.06,125.11
			c-8.11,7.97-16.2,15.91-24.32,23.88c1.6,0.68,2.69,1.79,3.36,3.38c8.03-8.08,16.02-16.12,24.02-24.18
			C464.09,127.15,463.1,126.16,462.06,125.11z M462.5,124.62c1.02,1.02,2,2.01,2.98,2.99c0.05,0.05,0.21,0.07,0.27,0.03
			c0.84-0.57,1.8-0.79,2.75-1.06c0.91-0.26,1.65-0.77,2.23-1.52c0.55-0.7,1.07-1.42,1.69-2.06c1.18-1.21,2.62-2.06,4.1-2.84
			c1.02-0.53,1.38-1.68,0.79-2.64c-1.14-1.88-2.65-3.4-4.52-4.55c-0.93-0.57-2.08-0.24-2.61,0.71c-0.24,0.43-0.46,0.86-0.71,1.28
			c-1.03,1.71-2.25,3.23-3.96,4.33c-0.91,0.58-1.53,1.42-1.83,2.48C463.41,122.76,463.16,123.75,462.5,124.62z M431.96,158.07
			c2.01,2.03,5.31,2.05,7.32,0.05c2.02-2,2.05-5.3,0.05-7.33c-1.99-2.03-5.32-2.04-7.35-0.02
			C429.98,152.77,429.97,156.07,431.96,158.07z"/>
		
			<linearGradient id="SVGID_12_" gradientUnits="userSpaceOnUse" x1="435.8546" y1="12.947" x2="466.6967" y2="12.947" gradientTransform="matrix(0.5899 0.8074 -0.8074 0.5899 176.6581 -213.0571)">
			<stop  offset="0" style="stop-color:#FFCB15"/>
			<stop  offset="1" style="stop-color:#F3FF12"/>
		</linearGradient>
		<path style="fill:url(#SVGID_12_);stroke:#FFFE64;stroke-width:0.869;stroke-miterlimit:10;" d="M447.45,146.91
			c1.66,1.76,2.94,3.66,3.41,6.02c0.62,3.16-0.69,5.93-3.52,7.53c-0.49,0.27-1,0.53-1.53,0.69c-2.33,0.7-3.88,2.23-4.77,4.45
			c-0.54,1.34-1.01,2.72-1.52,4.08c-0.84,2.23-2.04,4.23-3.79,5.88c-2.1,1.97-4.51,2.9-7.4,2.33c-1.41-0.28-2.74-0.8-4-1.48
			c-2.03-1.1-3.85-2.49-5.52-4.07c-2.13-2.03-3.94-4.29-5.3-6.91c-0.72-1.39-1.25-2.86-1.44-4.43c-0.28-2.33,0.44-4.33,1.92-6.13
			c1.99-2.41,4.6-3.78,7.49-4.77c1.24-0.42,2.49-0.87,3.68-1.41c1.88-0.85,3.13-2.31,3.78-4.29c0.47-1.44,1.23-2.71,2.39-3.7
			c1.78-1.51,3.83-1.91,6.07-1.42c1.72,0.37,3.21,1.21,4.57,2.29c0.43,0.34,0.83,0.71,1.28,1.1c-0.37,0.37-0.7,0.7-1.04,1.03
			c-1.64,1.61-3.28,3.21-4.91,4.83c-0.19,0.18-0.35,0.24-0.61,0.19c-2.35-0.43-4.73,0.61-5.97,2.61c-1.27,2.03-1.19,4.59,0.22,6.55
			c1.55,2.16,4.45,2.97,6.93,1.95c2.47-1.02,3.96-3.64,3.52-6.27c-0.06-0.35,0.01-0.58,0.26-0.83c1.83-1.82,3.64-3.65,5.46-5.47
			C447.21,147.15,447.31,147.05,447.45,146.91z"/>
		<path class="st30" d="M462.06,125.11c1.04,1.05,2.03,2.04,3.06,3.08c-8,8.05-16,16.1-24.02,24.18c-0.67-1.59-1.76-2.7-3.36-3.38
			C445.86,141.02,453.95,133.08,462.06,125.11z"/>
		<path class="st31" d="M462.5,124.62c0.66-0.86,0.9-1.86,1.18-2.85c0.3-1.06,0.92-1.89,1.83-2.48c1.71-1.1,2.93-2.62,3.96-4.33
			c0.25-0.42,0.48-0.85,0.71-1.28c0.53-0.95,1.68-1.29,2.61-0.71c1.87,1.15,3.38,2.67,4.52,4.55c0.58,0.96,0.23,2.11-0.79,2.64
			c-1.49,0.78-2.92,1.63-4.1,2.84c-0.62,0.63-1.14,1.36-1.69,2.06c-0.58,0.75-1.33,1.25-2.23,1.52c-0.95,0.27-1.91,0.49-2.75,1.06
			c-0.06,0.04-0.22,0.02-0.27-0.03C464.5,126.63,463.52,125.64,462.5,124.62z"/>
		<path class="st32" d="M431.96,158.07c-1.99-2-1.98-5.3,0.02-7.29c2.03-2.02,5.36-2.01,7.35,0.02c1.99,2.03,1.97,5.32-0.05,7.33
			C437.26,160.12,433.97,160.1,431.96,158.07z M432.74,151.5c-1.62,1.6-1.66,4.19-0.08,5.79c1.66,1.68,4.22,1.73,5.87,0.1
			c1.65-1.63,1.68-4.21,0.06-5.85C436.97,149.9,434.38,149.88,432.74,151.5z"/>
		<path class="st28" d="M432.74,151.5c1.64-1.62,4.23-1.6,5.85,0.04c1.61,1.64,1.58,4.22-0.06,5.85c-1.65,1.63-4.21,1.58-5.87-0.1
			C431.08,155.69,431.12,153.1,432.74,151.5z M433.07,157.01c1.41,1.41,3.73,1.41,5.14,0c1.41-1.41,1.41-3.75,0-5.15
			c-1.41-1.41-3.74-1.4-5.15,0.01C431.66,153.28,431.66,155.59,433.07,157.01z"/>
		<path class="st33" d="M433.07,157.01c-1.41-1.42-1.42-3.73-0.01-5.14c1.41-1.41,3.73-1.41,5.15-0.01c1.41,1.4,1.41,3.74,0,5.15
			C436.81,158.42,434.48,158.42,433.07,157.01z"/>
	</g>
</g>
<g id="_x33_IWjaK_7_">
	<g>
		<path class="st35" d="M498.74,137c-0.03-0.32-0.05-0.6-0.09-0.87c-0.54-3.64-1.08-7.27-1.62-10.91
			c-0.57-3.88-1.13-7.76-1.71-11.63c-0.11-0.76-0.19-1.54-0.45-2.25c-0.22-0.61-0.63-1.19-1.05-1.7c-0.96-1.17-1.45-2.47-1.36-3.98
			c0.12-2.01-0.49-3.85-1.27-5.66c-0.23-0.55-0.52-1.09-0.64-1.66c-0.23-1.11,0.39-2.22,1.43-2.65c2.17-0.9,4.43-1.25,6.77-1.04
			c1.45,0.13,2.41,1.45,2.19,2.92c-0.24,1.6-0.4,3.2-0.13,4.81c0.14,0.84,0.41,1.65,0.64,2.47c0.34,1.19,0.22,2.33-0.21,3.47
			c-0.23,0.61-0.47,1.25-0.54,1.89c-0.07,0.64,0.02,1.31,0.12,1.96c0.33,2.16,0.69,4.32,1.03,6.47c0.73,4.58,1.45,9.17,2.17,13.75
			c0.18,1.13,0.38,2.26,0.57,3.39c0.02,0.09,0.04,0.19,0.06,0.29c0.75-0.04,1.47-0.11,2.2-0.12c2.15-0.02,4.21,0.37,6.04,1.57
			c2.53,1.66,3.6,4.06,3.38,7.04c-0.06,0.77-0.2,1.56-0.45,2.29c-0.68,2.02-0.38,3.91,0.72,5.68c0.83,1.34,1.73,2.63,2.58,3.95
			c1.3,2,2.17,4.17,2.45,6.55c0.26,2.22,0.05,4.34-1.24,6.25c-1.11,1.65-2.64,2.82-4.37,3.75c-1.96,1.05-4.05,1.75-6.21,2.24
			c-3.17,0.71-6.37,0.95-9.6,0.55c-1.97-0.24-3.85-0.75-5.56-1.8c-2.06-1.27-3.24-3.13-3.82-5.45c-0.77-3.1-0.35-6.09,0.56-9.08
			c0.44-1.43,0.83-2.88,1.11-4.35c0.3-1.58-0.15-3.05-1.08-4.36c-0.89-1.25-1.54-2.61-1.75-4.14c-0.34-2.49,0.42-4.63,2.2-6.4
			c1.47-1.47,3.29-2.33,5.28-2.86C497.63,137.24,498.17,137.13,498.74,137z M504.76,136.76c0.03,0.19,0.05,0.33,0.07,0.47
			c0.4,2.54,0.81,5.09,1.2,7.64c0.05,0.35,0.19,0.54,0.51,0.7c2.38,1.2,3.63,3.95,2.99,6.54c-0.64,2.61-3.01,4.47-5.67,4.45
			c-2.41-0.02-4.52-1.46-5.42-3.69c-0.88-2.18-0.32-4.72,1.42-6.36c0.19-0.18,0.25-0.35,0.21-0.6c-0.34-2.27-0.67-4.54-1-6.81
			c-0.07-0.47-0.14-0.93-0.22-1.45c-0.58,0.13-1.12,0.24-1.65,0.38c-1.68,0.46-3.24,1.17-4.55,2.34c-1.71,1.53-2.6,3.42-2.43,5.74
			c0.11,1.53,0.7,2.89,1.58,4.12c1.21,1.69,1.65,3.56,1.23,5.58c-0.27,1.29-0.64,2.55-1.03,3.81c-0.91,2.91-1.34,5.83-0.57,8.86
			c0.57,2.26,1.77,4.02,3.82,5.17c1.38,0.78,2.87,1.22,4.42,1.45c2.91,0.44,5.81,0.32,8.7-0.2c2.27-0.41,4.46-1.06,6.54-2.05
			c1.29-0.62,2.5-1.38,3.55-2.36c2.16-2,2.83-4.49,2.48-7.35c-0.29-2.39-1.2-4.54-2.51-6.53c-0.8-1.21-1.63-2.4-2.39-3.63
			c-1.26-2.03-1.59-4.18-0.78-6.48c0.18-0.52,0.28-1.09,0.34-1.64c0.39-3.23-1.08-5.92-4-7.29
			C509.45,136.55,507.16,136.46,504.76,136.76z M495.77,112.1c1.65,11.25,3.29,22.47,4.93,33.73c1.5-0.89,3.04-1.12,4.71-0.72
			c-1.79-11.25-3.57-22.45-5.35-33.66C498.62,111.66,497.23,111.87,495.77,112.1z M495.64,111.45c1.43-0.22,2.8-0.42,4.18-0.64
			c0.07-0.01,0.18-0.13,0.19-0.2c0.03-1.01,0.43-1.92,0.76-2.85c0.32-0.89,0.35-1.78,0.09-2.69c-0.24-0.85-0.52-1.71-0.66-2.58
			c-0.28-1.66-0.12-3.33,0.12-4.99c0.17-1.14-0.54-2.1-1.66-2.2c-2.19-0.19-4.31,0.14-6.34,0.97c-1.01,0.42-1.42,1.54-0.96,2.53
			c0.2,0.44,0.42,0.88,0.61,1.33c0.77,1.84,1.28,3.73,1.16,5.75c-0.06,1.08,0.24,2.08,0.92,2.94
			C494.67,109.62,495.33,110.41,495.64,111.45z M504.63,155.85c2.82-0.43,4.79-3.07,4.36-5.88c-0.43-2.81-3.07-4.78-5.88-4.36
			c-2.81,0.41-4.79,3.1-4.35,5.92C499.18,154.32,501.84,156.27,504.63,155.85z"/>
		<linearGradient id="SVGID_13_" gradientUnits="userSpaceOnUse" x1="490.205" y1="155.9888" x2="521.0471" y2="155.9888">
			<stop  offset="0" style="stop-color:#23FF56"/>
			<stop  offset="1" style="stop-color:#099D00"/>
		</linearGradient>
		<path style="fill:url(#SVGID_13_);stroke:#096F00;stroke-width:0.869;stroke-miterlimit:10;" d="M504.76,136.76
			c2.4-0.31,4.69-0.22,6.87,0.8c2.92,1.37,4.39,4.05,4,7.29c-0.07,0.55-0.16,1.12-0.34,1.64c-0.81,2.3-0.48,4.45,0.78,6.48
			c0.77,1.23,1.6,2.42,2.39,3.63c1.31,1.99,2.21,4.14,2.51,6.53c0.35,2.86-0.32,5.35-2.48,7.35c-1.06,0.98-2.26,1.74-3.55,2.36
			c-2.08,0.99-4.28,1.64-6.54,2.05c-2.89,0.52-5.79,0.65-8.7,0.2c-1.55-0.24-3.04-0.68-4.42-1.45c-2.05-1.15-3.24-2.91-3.82-5.17
			c-0.77-3.03-0.34-5.95,0.57-8.86c0.39-1.26,0.76-2.52,1.03-3.81c0.42-2.02-0.02-3.89-1.23-5.58c-0.88-1.23-1.46-2.59-1.58-4.12
			c-0.17-2.33,0.72-4.22,2.43-5.74c1.31-1.17,2.87-1.88,4.55-2.34c0.53-0.14,1.06-0.25,1.65-0.38c0.08,0.51,0.15,0.98,0.22,1.45
			c0.33,2.27,0.66,4.54,1,6.81c0.04,0.26-0.02,0.42-0.21,0.6c-1.74,1.64-2.3,4.18-1.42,6.36c0.89,2.23,3.01,3.67,5.42,3.69
			c2.65,0.02,5.03-1.84,5.67-4.45c0.64-2.6-0.61-5.35-2.99-6.54c-0.32-0.16-0.46-0.35-0.51-0.7c-0.39-2.55-0.8-5.09-1.2-7.64
			C504.81,137.09,504.78,136.95,504.76,136.76z"/>
		<radialGradient id="SVGID_14_" cx="500.5964" cy="128.6325" r="12.6259" gradientUnits="userSpaceOnUse">
			<stop  offset="0" style="stop-color:#70FF6F"/>
			<stop  offset="0.231" style="stop-color:#49D155"/>
			<stop  offset="0.4601" style="stop-color:#2AAB3F"/>
			<stop  offset="0.6712" style="stop-color:#139030"/>
			<stop  offset="0.8577" style="stop-color:#058026"/>
			<stop  offset="1" style="stop-color:#007A23"/>
		</radialGradient>
		<path style="fill:url(#SVGID_14_);stroke:#00C008;stroke-miterlimit:10;" d="M495.77,112.1c1.46-0.22,2.85-0.43,4.3-0.66
			c1.78,11.21,3.56,22.41,5.35,33.66c-1.68-0.39-3.21-0.17-4.71,0.72C499.06,134.57,497.42,123.35,495.77,112.1z"/>
		<path class="st38" d="M495.64,111.45c-0.31-1.04-0.97-1.83-1.6-2.63c-0.68-0.86-0.98-1.86-0.92-2.94
			c0.12-2.03-0.39-3.91-1.16-5.75c-0.19-0.45-0.41-0.89-0.61-1.33c-0.46-0.99-0.05-2.11,0.96-2.53c2.03-0.83,4.15-1.16,6.34-0.97
			c1.12,0.1,1.84,1.06,1.66,2.2c-0.25,1.66-0.41,3.32-0.12,4.99c0.15,0.87,0.42,1.72,0.66,2.58c0.26,0.91,0.23,1.81-0.09,2.69
			c-0.34,0.93-0.73,1.84-0.76,2.85c0,0.07-0.11,0.19-0.19,0.2C498.44,111.03,497.06,111.23,495.64,111.45z"/>
		<path class="st39" d="M504.63,155.85c-2.79,0.42-5.45-1.53-5.88-4.32c-0.43-2.83,1.54-5.51,4.35-5.92
			c2.81-0.41,5.46,1.55,5.88,4.36C509.41,152.77,507.45,155.42,504.63,155.85z M499.78,151.34c0.34,2.26,2.41,3.81,4.63,3.48
			c2.34-0.35,3.89-2.39,3.54-4.68c-0.34-2.29-2.41-3.84-4.69-3.5C500.99,146.98,499.44,149.06,499.78,151.34z"/>
		<path class="st40" d="M499.78,151.34c-0.34-2.28,1.21-4.36,3.49-4.7c2.27-0.34,4.34,1.21,4.69,3.5c0.34,2.29-1.21,4.33-3.54,4.68
			C502.19,155.15,500.12,153.59,499.78,151.34z M504.43,154.32c1.97-0.3,3.34-2.18,3.03-4.15c-0.31-1.97-2.2-3.35-4.16-3.04
			c-1.97,0.31-3.34,2.19-3.03,4.16C500.58,153.26,502.45,154.63,504.43,154.32z"/>
		<path class="st41" d="M504.43,154.32c-1.98,0.31-3.85-1.06-4.16-3.03c-0.31-1.97,1.06-3.85,3.03-4.16
			c1.96-0.31,3.85,1.07,4.16,3.04C507.77,152.14,506.4,154.02,504.43,154.32z"/>
	</g>
</g>
<g id="_x33_IWjaK_8_">
	<g>
		<path class="st35" d="M117.94,144.06c0.19,0.26,0.35,0.49,0.52,0.7c2.31,2.86,4.63,5.71,6.94,8.57c2.46,3.05,4.92,6.1,7.38,9.15
			c0.48,0.59,0.94,1.23,1.53,1.71c0.5,0.41,1.14,0.7,1.76,0.93c1.42,0.52,2.51,1.39,3.2,2.74c0.92,1.79,2.38,3.06,3.97,4.23
			c0.48,0.35,1,0.67,1.4,1.1c0.76,0.84,0.79,2.11,0.11,3.01c-1.41,1.87-3.18,3.33-5.3,4.34c-1.31,0.62-2.81-0.02-3.37-1.4
			c-0.61-1.5-1.29-2.96-2.33-4.21c-0.54-0.65-1.19-1.22-1.81-1.8c-0.9-0.85-1.38-1.89-1.58-3.1c-0.11-0.65-0.23-1.31-0.49-1.9
			c-0.27-0.59-0.68-1.12-1.1-1.63c-1.38-1.7-2.79-3.37-4.18-5.05c-2.96-3.58-5.91-7.16-8.86-10.73c-0.73-0.88-1.48-1.76-2.21-2.63
			c-0.06-0.07-0.13-0.14-0.2-0.21c-0.62,0.41-1.21,0.84-1.84,1.22c-1.84,1.11-3.81,1.82-6,1.72c-3.02-0.14-5.16-1.67-6.49-4.34
			c-0.34-0.69-0.62-1.44-0.78-2.2c-0.45-2.09-1.66-3.56-3.5-4.52c-1.39-0.73-2.82-1.38-4.23-2.08c-2.13-1.07-3.99-2.48-5.44-4.4
			c-1.35-1.78-2.24-3.71-2.1-6.01c0.12-1.99,0.84-3.77,1.86-5.45c1.15-1.9,2.6-3.56,4.21-5.08c2.37-2.23,5-4.05,7.98-5.36
			c1.82-0.79,3.7-1.31,5.7-1.27c2.42,0.04,4.38,1.05,6.06,2.76c2.24,2.28,3.4,5.07,4.13,8.1c0.35,1.45,0.75,2.9,1.26,4.31
			c0.55,1.51,1.68,2.55,3.14,3.2c1.4,0.63,2.66,1.47,3.61,2.67c1.56,1.97,1.99,4.2,1.36,6.62c-0.52,2.02-1.65,3.68-3.09,5.15
			C118.77,143.29,118.36,143.66,117.94,144.06z M112.88,147.33c-0.12-0.15-0.21-0.26-0.3-0.37c-1.64-1.99-3.29-3.97-4.92-5.96
			c-0.23-0.28-0.44-0.37-0.8-0.34c-2.66,0.18-5.13-1.56-5.9-4.12c-0.77-2.57,0.32-5.38,2.62-6.71c2.08-1.21,4.64-1.04,6.54,0.42
			c1.86,1.44,2.67,3.9,2.01,6.2c-0.07,0.25-0.03,0.42,0.13,0.63c1.45,1.78,2.89,3.57,4.33,5.36c0.3,0.37,0.6,0.73,0.92,1.13
			c0.43-0.41,0.84-0.78,1.22-1.17c1.21-1.25,2.19-2.65,2.73-4.32c0.7-2.19,0.51-4.27-0.83-6.18c-0.87-1.26-2.07-2.13-3.45-2.74
			c-1.91-0.84-3.23-2.22-3.9-4.18c-0.42-1.24-0.75-2.52-1.05-3.8c-0.7-2.97-1.81-5.7-4.01-7.92c-1.64-1.65-3.57-2.56-5.91-2.51
			c-1.58,0.03-3.09,0.41-4.55,1c-2.73,1.1-5.17,2.68-7.39,4.6c-1.74,1.51-3.3,3.18-4.59,5.09c-0.8,1.19-1.45,2.46-1.86,3.84
			c-0.84,2.82-0.16,5.31,1.6,7.59c1.47,1.91,3.34,3.3,5.48,4.35c1.3,0.64,2.62,1.24,3.91,1.91c2.12,1.11,3.5,2.79,3.96,5.18
			c0.11,0.54,0.31,1.08,0.54,1.59c1.31,2.98,3.94,4.55,7.15,4.24C108.95,149.9,110.97,148.81,112.88,147.33z M133.16,164
			c-7.14-8.85-14.25-17.68-21.4-26.54c-0.83,1.53-2.05,2.51-3.69,3.02c7.26,8.78,14.49,17.52,21.72,26.27
			C130.93,165.82,132.01,164.94,133.16,164z M133.6,164.49c-1.12,0.91-2.2,1.79-3.27,2.68c-0.06,0.05-0.09,0.21-0.06,0.27
			c0.48,0.89,0.61,1.87,0.79,2.84c0.17,0.93,0.6,1.71,1.29,2.37c0.64,0.61,1.31,1.21,1.88,1.88c1.09,1.29,1.8,2.8,2.43,4.36
			c0.43,1.07,1.53,1.53,2.55,1.05c1.98-0.95,3.64-2.31,4.97-4.06c0.66-0.87,0.44-2.05-0.46-2.67c-0.4-0.28-0.81-0.54-1.2-0.84
			c-1.6-1.19-3-2.56-3.92-4.36c-0.49-0.96-1.26-1.67-2.29-2.07C135.37,165.57,134.4,165.23,133.6,164.49z M103.29,130.83
			c-2.21,1.8-2.56,5.08-0.77,7.28c1.8,2.21,5.07,2.55,7.28,0.77c2.21-1.79,2.55-5.1,0.74-7.31
			C108.76,129.38,105.47,129.05,103.29,130.83z"/>
		
			<linearGradient id="SVGID_15_" gradientUnits="userSpaceOnUse" x1="105.1767" y1="167.7793" x2="136.0188" y2="167.7793" gradientTransform="matrix(-0.8611 0.5084 -0.5084 -0.8611 291.509 214.3772)">
			<stop  offset="0" style="stop-color:#23FF56"/>
			<stop  offset="1" style="stop-color:#099D00"/>
		</linearGradient>
		<path style="fill:url(#SVGID_15_);stroke:#096F00;stroke-width:0.869;stroke-miterlimit:10;" d="M112.88,147.33
			c-1.91,1.48-3.93,2.57-6.32,2.8c-3.21,0.31-5.84-1.26-7.15-4.24c-0.22-0.51-0.43-1.04-0.54-1.59c-0.47-2.39-1.85-4.08-3.96-5.18
			c-1.29-0.67-2.61-1.27-3.91-1.91c-2.14-1.05-4.01-2.44-5.48-4.35c-1.76-2.28-2.45-4.77-1.6-7.59c0.41-1.38,1.06-2.65,1.86-3.84
			c1.29-1.92,2.85-3.59,4.59-5.09c2.22-1.92,4.66-3.5,7.39-4.6c1.46-0.59,2.97-0.97,4.55-1c2.35-0.05,4.27,0.86,5.91,2.51
			c2.2,2.21,3.32,4.95,4.01,7.92c0.3,1.28,0.63,2.56,1.05,3.8c0.67,1.96,1.99,3.34,3.9,4.18c1.38,0.61,2.58,1.49,3.45,2.74
			c1.33,1.91,1.53,3.99,0.83,6.18c-0.54,1.67-1.52,3.08-2.73,4.32c-0.38,0.39-0.79,0.75-1.22,1.17c-0.33-0.4-0.63-0.77-0.92-1.13
			c-1.44-1.79-2.88-3.58-4.33-5.36c-0.16-0.2-0.2-0.37-0.13-0.63c0.66-2.3-0.15-4.76-2.01-6.2c-1.9-1.46-4.46-1.63-6.54-0.42
			c-2.3,1.33-3.39,4.14-2.62,6.71c0.77,2.56,3.24,4.3,5.9,4.12c0.36-0.02,0.57,0.07,0.8,0.34c1.63,2,3.28,3.98,4.92,5.96
			C112.67,147.07,112.76,147.18,112.88,147.33z"/>
		
			<radialGradient id="SVGID_16_" cx="115.568" cy="140.4231" r="12.6259" gradientTransform="matrix(-0.8611 0.5084 -0.5084 -0.8611 291.509 214.3772)" gradientUnits="userSpaceOnUse">
			<stop  offset="0" style="stop-color:#70FF6F"/>
			<stop  offset="0.231" style="stop-color:#49D155"/>
			<stop  offset="0.4601" style="stop-color:#2AAB3F"/>
			<stop  offset="0.6712" style="stop-color:#139030"/>
			<stop  offset="0.8577" style="stop-color:#058026"/>
			<stop  offset="1" style="stop-color:#007A23"/>
		</radialGradient>
		<path style="fill:url(#SVGID_16_);stroke:#00C008;stroke-miterlimit:10;" d="M133.16,164c-1.14,0.93-2.23,1.82-3.37,2.75
			c-7.24-8.75-14.46-17.49-21.72-26.27c1.64-0.51,2.85-1.49,3.69-3.02C118.9,146.33,126.02,155.15,133.16,164z"/>
		<path class="st38" d="M133.6,164.49c0.8,0.74,1.77,1.08,2.72,1.45c1.02,0.4,1.79,1.1,2.29,2.07c0.93,1.81,2.33,3.17,3.92,4.36
			c0.39,0.29,0.8,0.56,1.2,0.84c0.9,0.62,1.12,1.8,0.46,2.67c-1.33,1.75-2.99,3.11-4.97,4.06c-1.02,0.49-2.12,0.02-2.55-1.05
			c-0.63-1.55-1.34-3.07-2.43-4.36c-0.57-0.68-1.24-1.27-1.88-1.88c-0.69-0.65-1.12-1.44-1.29-2.37c-0.18-0.97-0.31-1.95-0.79-2.84
			c-0.03-0.06,0-0.22,0.06-0.27C131.41,166.28,132.49,165.4,133.6,164.49z"/>
		<path class="st39" d="M103.29,130.83c2.19-1.78,5.47-1.45,7.26,0.73c1.81,2.21,1.48,5.53-0.74,7.31
			c-2.21,1.78-5.49,1.44-7.28-0.77C100.73,135.91,101.08,132.63,103.29,130.83z M109.75,132.25c-1.44-1.77-4.01-2.06-5.76-0.65
			c-1.84,1.49-2.13,4.03-0.67,5.83c1.46,1.8,4.03,2.08,5.82,0.63C110.93,136.62,111.21,134.04,109.75,132.25z"/>
		<path class="st40" d="M109.75,132.25c1.45,1.79,1.18,4.37-0.61,5.82c-1.79,1.45-4.36,1.17-5.82-0.63
			c-1.46-1.8-1.16-4.34,0.67-5.83C105.74,130.19,108.32,130.48,109.75,132.25z M104.24,132.04c-1.54,1.26-1.77,3.58-0.5,5.12
			c1.27,1.54,3.6,1.76,5.12,0.5c1.54-1.27,1.76-3.58,0.5-5.12C108.09,131,105.78,130.77,104.24,132.04z"/>
		<path class="st41" d="M104.24,132.04c1.55-1.27,3.85-1.04,5.12,0.5c1.26,1.54,1.04,3.85-0.5,5.12c-1.53,1.26-3.86,1.03-5.12-0.5
			C102.47,135.62,102.69,133.31,104.24,132.04z"/>
	</g>
</g>
<g id="_x33_IWjaK_9_">
	<g>
		<path class="st12" d="M199.6,160.19c0.32-0.05,0.61-0.08,0.89-0.13c3.7-0.71,7.4-1.42,11.1-2.13c3.95-0.75,7.89-1.49,11.84-2.25
			c0.77-0.15,1.57-0.26,2.28-0.55c0.62-0.25,1.19-0.69,1.69-1.15c1.15-1.03,2.47-1.59,4.02-1.57c2.06,0.04,3.92-0.67,5.74-1.54
			c0.55-0.26,1.09-0.58,1.67-0.73c1.12-0.28,2.29,0.3,2.78,1.35c1.01,2.18,1.47,4.49,1.35,6.89c-0.07,1.49-1.38,2.53-2.9,2.37
			c-1.65-0.17-3.3-0.27-4.93,0.07c-0.85,0.18-1.68,0.49-2.5,0.77c-1.2,0.4-2.38,0.33-3.57-0.07c-0.64-0.21-1.3-0.43-1.96-0.47
			c-0.66-0.04-1.34,0.08-2,0.2c-2.2,0.43-4.39,0.89-6.59,1.34c-4.66,0.94-9.32,1.88-13.99,2.82c-1.15,0.23-2.3,0.48-3.45,0.73
			c-0.1,0.02-0.19,0.05-0.29,0.08c0.07,0.76,0.18,1.5,0.21,2.25c0.11,2.2-0.2,4.33-1.34,6.25c-1.59,2.66-4,3.86-7.06,3.77
			c-0.79-0.02-1.6-0.14-2.36-0.36c-2.1-0.61-4.02-0.22-5.78,0.98c-1.33,0.9-2.61,1.88-3.93,2.82c-2,1.41-4.17,2.4-6.61,2.79
			c-2.26,0.36-4.44,0.23-6.45-1c-1.74-1.07-3.01-2.58-4.03-4.32c-1.16-1.96-1.97-4.07-2.56-6.26c-0.87-3.21-1.25-6.48-0.98-9.81
			c0.16-2.03,0.6-3.98,1.61-5.77c1.21-2.16,3.06-3.45,5.42-4.14c3.14-0.92,6.22-0.62,9.32,0.18c1.48,0.38,2.99,0.73,4.5,0.94
			c1.63,0.24,3.11-0.28,4.41-1.29c1.24-0.96,2.61-1.69,4.16-1.97c2.53-0.46,4.76,0.23,6.65,1.97c1.57,1.45,2.53,3.27,3.16,5.28
			C199.31,159.07,199.44,159.61,199.6,160.19z M200.11,166.34c-0.19,0.04-0.33,0.06-0.48,0.09c-2.59,0.52-5.18,1.05-7.77,1.56
			c-0.36,0.07-0.55,0.22-0.7,0.56c-1.12,2.49-3.89,3.88-6.57,3.34c-2.7-0.54-4.71-2.89-4.8-5.61c-0.08-2.47,1.3-4.7,3.54-5.71
			c2.2-0.99,4.82-0.53,6.58,1.18c0.19,0.19,0.37,0.24,0.63,0.19c2.31-0.45,4.62-0.88,6.94-1.32c0.48-0.09,0.95-0.19,1.47-0.29
			c-0.16-0.59-0.29-1.14-0.46-1.67c-0.54-1.7-1.34-3.26-2.59-4.56c-1.64-1.69-3.61-2.52-5.99-2.24c-1.56,0.18-2.93,0.84-4.15,1.79
			c-1.68,1.32-3.57,1.85-5.66,1.5c-1.33-0.22-2.64-0.54-3.95-0.89c-3.02-0.8-6.03-1.12-9.1-0.2c-2.29,0.69-4.04,1.99-5.13,4.13
			c-0.74,1.45-1.12,2.99-1.3,4.59c-0.33,3-0.08,5.97,0.58,8.9c0.52,2.31,1.28,4.52,2.39,6.61c0.69,1.3,1.52,2.5,2.57,3.54
			c2.14,2.13,4.72,2.71,7.64,2.22c2.44-0.4,4.59-1.42,6.58-2.85c1.21-0.87,2.39-1.77,3.62-2.61c2.02-1.38,4.22-1.81,6.6-1.08
			c0.54,0.17,1.13,0.24,1.7,0.28c3.33,0.26,6.02-1.36,7.29-4.41C200.53,171.14,200.52,168.79,200.11,166.34z M224.98,156.07
			c-11.45,2.17-22.87,4.34-34.33,6.51c0.98,1.49,1.28,3.06,0.95,4.79c11.44-2.32,22.84-4.63,34.24-6.94
			C225.55,158.97,225.27,157.56,224.98,156.07z M225.63,155.91c0.28,1.45,0.56,2.85,0.84,4.25c0.02,0.08,0.14,0.18,0.22,0.18
			c1.04-0.01,1.98,0.35,2.95,0.66c0.92,0.29,1.84,0.28,2.76-0.02c0.86-0.29,1.72-0.6,2.61-0.79c1.69-0.36,3.4-0.27,5.11-0.09
			c1.17,0.13,2.13-0.65,2.18-1.8c0.1-2.25-0.32-4.41-1.27-6.45c-0.47-1.02-1.64-1.39-2.63-0.88c-0.44,0.23-0.88,0.47-1.33,0.68
			c-1.85,0.87-3.76,1.48-5.84,1.44c-1.11-0.02-2.12,0.34-2.97,1.07C227.46,154.83,226.69,155.55,225.63,155.91z M180.55,167.04
			c0.56,2.87,3.36,4.77,6.21,4.21c2.86-0.56,4.76-3.35,4.22-6.21c-0.54-2.87-3.38-4.77-6.25-4.2
			C181.89,161.39,180,164.2,180.55,167.04z"/>
		
			<radialGradient id="SVGID_17_" cx="503.9862" cy="469.357" r="19.6527" fx="523.4584" fy="472.0149" gradientTransform="matrix(-0.3448 0.9387 -0.9387 -0.3448 794.4057 -143.6373)" gradientUnits="userSpaceOnUse">
			<stop  offset="0.0367" style="stop-color:#950004"/>
			<stop  offset="0.9991" style="stop-color:#FFB5B5"/>
		</radialGradient>
		<path style="fill:url(#SVGID_17_);stroke:#510002;stroke-width:0.8908;stroke-miterlimit:10;" d="M200.11,166.34
			c0.42,2.44,0.43,4.8-0.52,7.07c-1.27,3.05-3.96,4.67-7.29,4.41c-0.57-0.04-1.15-0.11-1.7-0.28c-2.39-0.73-4.58-0.3-6.6,1.08
			c-1.23,0.84-2.41,1.74-3.62,2.61c-1.99,1.43-4.14,2.45-6.58,2.85c-2.91,0.48-5.49-0.1-7.64-2.22c-1.05-1.04-1.88-2.24-2.57-3.54
			c-1.11-2.09-1.87-4.31-2.39-6.61c-0.66-2.94-0.91-5.9-0.58-8.9c0.18-1.6,0.56-3.15,1.3-4.59c1.09-2.15,2.84-3.45,5.13-4.13
			c3.07-0.92,6.08-0.61,9.1,0.2c1.3,0.35,2.62,0.67,3.95,0.89c2.09,0.34,3.98-0.19,5.66-1.5c1.22-0.96,2.59-1.61,4.15-1.79
			c2.37-0.28,4.35,0.55,5.99,2.24c1.25,1.29,2.05,2.86,2.59,4.56c0.17,0.53,0.3,1.08,0.46,1.67c-0.52,0.1-1,0.2-1.47,0.29
			c-2.31,0.44-4.62,0.87-6.94,1.32c-0.26,0.05-0.43,0-0.63-0.19c-1.76-1.71-4.38-2.17-6.58-1.18c-2.24,1.01-3.63,3.24-3.54,5.71
			c0.09,2.72,2.1,5.07,4.8,5.61c2.69,0.54,5.45-0.85,6.57-3.34c0.15-0.34,0.34-0.49,0.7-0.56c2.59-0.51,5.18-1.04,7.77-1.56
			C199.77,166.41,199.92,166.38,200.11,166.34z"/>
		<path class="st12" d="M224.98,156.07c0.29,1.49,0.57,2.9,0.86,4.37c-11.41,2.31-22.8,4.62-34.24,6.94
			c0.33-1.73,0.03-3.3-0.95-4.79C202.11,160.41,213.53,158.25,224.98,156.07z"/>
		<path class="st45" d="M225.63,155.91c1.05-0.36,1.83-1.07,2.63-1.76c0.86-0.73,1.86-1.09,2.97-1.07c2.08,0.04,3.99-0.57,5.84-1.44
			c0.45-0.21,0.89-0.45,1.33-0.68c1-0.51,2.16-0.14,2.63,0.88c0.94,2.05,1.36,4.2,1.27,6.45c-0.05,1.15-1.01,1.93-2.18,1.8
			c-1.71-0.18-3.42-0.27-5.11,0.09c-0.89,0.19-1.75,0.51-2.61,0.79c-0.92,0.31-1.84,0.31-2.76,0.02c-0.96-0.31-1.91-0.67-2.95-0.66
			c-0.07,0-0.2-0.11-0.22-0.18C226.19,158.76,225.92,157.36,225.63,155.91z"/>
		<path class="st12" d="M180.55,167.04c-0.55-2.84,1.33-5.65,4.17-6.2c2.88-0.57,5.71,1.34,6.25,4.2c0.54,2.86-1.35,5.66-4.22,6.21
			C183.91,171.8,181.11,169.91,180.55,167.04z M184.96,161.88c-2.3,0.44-3.8,2.63-3.37,4.89c0.46,2.38,2.62,3.88,4.95,3.43
			c2.33-0.45,3.83-2.64,3.38-4.95C189.48,162.93,187.28,161.43,184.96,161.88z"/>
		<path class="st15" d="M184.96,161.88c2.32-0.45,4.52,1.05,4.96,3.37c0.44,2.31-1.05,4.5-3.38,4.95c-2.33,0.45-4.49-1.05-4.95-3.43
			C181.16,164.51,182.67,162.32,184.96,161.88z M182.11,166.77c0.4,2,2.38,3.33,4.38,2.93c2-0.4,3.33-2.4,2.93-4.39
			c-0.41-2-2.39-3.32-4.39-2.93C183.03,162.78,181.71,164.75,182.11,166.77z"/>
		<path class="st46" d="M182.11,166.77c-0.4-2.01,0.92-3.99,2.92-4.39c2-0.4,3.99,0.92,4.39,2.93c0.4,1.99-0.93,3.99-2.93,4.39
			C184.49,170.1,182.5,168.77,182.11,166.77z"/>
	</g>
</g>
</svg>
