<?xml version="1.0" encoding="utf-8"?>
<!-- Generator: Adobe Illustrator 24.1.0, SVG Export Plug-In . SVG Version: 6.00 Build 0)  -->
<svg version="1.1" id="Layer_1" xmlns="http://www.w3.org/2000/svg" xmlns:xlink="http://www.w3.org/1999/xlink" x="0px" y="0px"
	 viewBox="0 0 700 100" style="enable-background:new 0 0 700 100;" xml:space="preserve">
<style type="text/css">
	.st0{stroke:#000000;stroke-miterlimit:10;}
	.st1{fill:url(#SVGID_1_);}
	.st2{fill:url(#SVGID_2_);}
	.st3{fill:url(#SVGID_3_);}
	.st4{fill:url(#SVGID_4_);}
	.st5{fill:url(#SVGID_5_);}
	.st6{fill:url(#SVGID_6_);}
	.st7{fill:url(#SVGID_7_);}
	.st8{fill:url(#SVGID_8_);}
	.st9{fill:#FFFFFF;}
	.st10{fill:url(#SVGID_9_);}
	.st11{fill:url(#SVGID_10_);}
	.st12{fill:#070041;}
	.st13{fill:url(#SVGID_11_);stroke:#9AEDFF;stroke-miterlimit:10;}
	.st14{fill:url(#SVGID_12_);}
	.st15{fill:#33A4FF;}
	.st16{fill:#54BCFF;}
	.st17{fill:#F6FCFF;}
	.st18{fill:url(#SVGID_13_);stroke:#9AEDFF;stroke-width:0.5922;stroke-miterlimit:10;}
	.st19{fill:url(#SVGID_14_);}
	.st20{fill:url(#SVGID_15_);stroke:#9AEDFF;stroke-width:1.1233;stroke-miterlimit:10;}
	.st21{fill:url(#SVGID_16_);}
</style>
<rect x="-220.97" y="-379.94" class="st0" width="1387.62" height="1211.16"/>
<g>
	<g>
		<linearGradient id="SVGID_1_" gradientUnits="userSpaceOnUse" x1="313.3786" y1="51.1639" x2="680.2706" y2="51.1639">
			<stop  offset="0.386" style="stop-color:#67BFFF"/>
			<stop  offset="0.7364" style="stop-color:#E4FF54"/>
			<stop  offset="0.9983" style="stop-color:#FF9DB2"/>
		</linearGradient>
		<path class="st1" d="M310.08,6.23c-2.74,9.24,2.79,17.94,10.25,23.09c9.15,6.32,20.02,7.87,26.43,17.82
			c5.11,7.95,8,17.13,13.96,24.56c6.52,8.13,16.08,12.46,26.28,13.75c10.14,1.29,19.56-0.36,27.11-7.56
			c6.19-5.9,10.46-15,18.71-18.38c4.68-1.92,9.96-1.92,14.75-3.46c4.55-1.46,8.3-3.93,11.26-7.68c4.83-6.12,6.62-16.27,13.56-20.43
			c4.68-2.81,11.54-2.99,16.81-3.73c6.89-0.97,13.82-1.68,20.76-2.25c12.78-1.05,25.59-1.57,38.41-2.02
			c12.8-0.44,25.64-1.03,38.44-0.52c5.86,0.23,12.16,0.32,17.69,2.5c4.64,1.83,10,6.61,8.41,12.21c-1.33,4.66-7.09,7-11.09,8.79
			c-5.15,2.3-10.36,4.49-15.48,6.87c-10.41,4.83-20.64,10.14-30.2,16.51c-4.6,3.06-9.04,6.37-13.27,9.92
			c-3.49,2.93-8.38,6.7-7.58,11.89c0.78,5.03,5.75,6.04,9.94,6.97c6.26,1.4,12.62,2.4,19.01,3.06c12.71,1.32,27.48,2.33,39.6-2.52
			c10.75-4.31,16.56-14.04,24.61-21.71c8.81-8.4,22.03-9.37,32.2-15.81c9.81-6.2,17.78-14.94,23.19-25.2
			c2.7-5.12-5.07-9.67-7.77-4.54c-4.83,9.16-11.77,16.92-20.61,22.37c-8.76,5.4-19.5,6.52-27.93,12.36
			c-7.95,5.51-12.84,14.01-20.22,20.11c-8.98,7.41-21.62,7.08-32.64,6.67c-5.93-0.22-11.85-0.76-17.71-1.69
			c-3.13-0.5-6.24-1.1-9.33-1.79c-0.76-0.17-3.17-1.03-3.7-0.87c-0.14,1.9,0.15,2.27,0.87,1.1c0.54-0.68,1.15-1.28,1.84-1.81
			c8.09-7.46,17.67-13.46,27.28-18.75c9.58-5.27,19.55-9.79,29.58-14.14c7.94-3.44,17.04-7.82,18.48-17.37
			c1.39-9.24-5.46-17.32-13.55-20.7c-10.12-4.23-22.39-3.67-33.14-3.63c-24.28,0.1-48.81,1.01-72.97,3.42
			c-5.5,0.55-10.98,1.22-16.45,2.01c-5.51,0.79-11.5,1.27-16.57,3.75c-7.74,3.78-10.73,11.67-14.59,18.78
			c-1.94,3.56-4.06,6.82-7.88,8.55c-4.91,2.21-10.56,2.12-15.64,3.84c-8.46,2.88-13.54,9.56-19.06,16.16
			c-2.94,3.51-6.08,7.13-10.43,8.87c-5.53,2.21-12.53,1.51-18.18,0.1c-11.93-2.98-17.78-11.38-22.93-21.82
			c-4.56-9.24-9.28-18.14-18.45-23.56c-7.58-4.48-27.05-9.26-23.35-21.72C320.41,3.06,311.73,0.68,310.08,6.23L310.08,6.23z"/>
	</g>
</g>
<g>
	<g>
		<linearGradient id="SVGID_2_" gradientUnits="userSpaceOnUse" x1="31.5479" y1="65.0441" x2="378.2046" y2="65.0441">
			<stop  offset="0" style="stop-color:#6782FF"/>
			<stop  offset="0.3714" style="stop-color:#00E6F6"/>
			<stop  offset="0.7364" style="stop-color:#25DB00"/>
			<stop  offset="0.9974" style="stop-color:#D6FF92"/>
		</linearGradient>
		<path class="st2" d="M36.5,106.13c0.49-4.13-1.78-11.83,1.65-14.87c1.69-1.5,4.66-1.81,6.79-2.37c2.93-0.77,5.85-1.56,8.74-2.44
			c9.72-2.95,19.39-6.92,27.1-13.71c8.09-7.13,10.93-16.88,16.12-25.93c5.88-10.24,16.19-13.25,27.45-12.95
			c2.76,0.07,12.49-0.35,13.33,3.41c0.99,4.44-8.38,9.55-11.16,11.89c-6.92,5.83-13.28,14.15-9.86,23.65
			c1.53,4.26,4.68,7.51,7.91,10.55c3.62,3.42,6.53,6.72,8.94,11.1c4.29,7.8,7.29,16.73,14.42,22.52c7.55,6.13,17.46,6.46,26.16,2.65
			c9.81-4.3,16.39-12.73,21.04-22.12c5.35-10.81,9.36-21.97,15.76-32.28c6.2-10,12.74-21.51,21.71-29.3
			c4.46-3.87,9.87-6.51,15.05-9.25c2.9-1.53,5.79-3.06,8.69-4.6c2.08-1.1,7.58-5.33,9.67-4.3c3.68,1.81-6.28,9.84-7.79,11.71
			c-2.69,3.33-4.25,7.22-3.95,11.55c0.58,8.42,7.14,14.7,10.9,21.79c2.28,4.31,2.15,7.76,1.06,12.42c-1.1,4.75-2.03,9.83,1.17,13.99
			c7.85,10.21,20.34-0.24,26.71-6.32c4.85-4.63,9.53-8.27,16.07-10.16c6.23-1.8,12.73-2.42,19.01-4.01
			c22.6-5.74,42.07-21.6,52.59-42.35c2.61-5.15-5.15-9.72-7.77-4.54c-9.9,19.54-28.01,33.98-49.47,38.74
			c-10.94,2.43-21.77,3.42-30.86,10.65c-4.37,3.47-7.97,8.17-12.65,11.23c-1.48,0.97-4.69,2.96-6.4,1.49
			c-1.78-1.53,0.44-6.8,0.82-8.58c2.07-9.58-1.94-16.6-7.09-24.35c-1.97-2.97-4.7-6.47-5.1-10.15c-0.58-5.32,5.01-8.42,8.08-11.86
			c2.96-3.32,5.26-7.46,4.55-12.04c-0.69-4.46-3.99-8.5-8.65-8.99c-5.21-0.55-11.04,4-15.44,6.33c-5.96,3.15-12.1,6.1-17.85,9.64
			c-9.88,6.06-16.32,14.99-22.72,24.42c-7.1,10.45-13.61,21-18.58,32.65c-4.3,10.09-8.47,21.73-18,28.11
			c-9.01,6.03-19.23,5.23-25.39-4.09c-5.05-7.65-7.65-16.6-13.79-23.57c-3.07-3.49-7.46-6.18-9.72-10.31
			c-2.92-5.34,1.12-10.13,4.91-13.67c6.3-5.88,18.5-11.99,15.72-22.61c-2.54-9.67-15.51-10.01-23.53-10.04
			c-11.61-0.03-23.3,3.3-30.63,12.82c-6.98,9.07-8.92,20.96-17.79,28.71c-9.26,8.1-21.75,11.07-33.32,14.21
			c-5.23,1.42-10.16,3.47-12.43,8.75c-2.3,5.34-0.51,11.22-1.17,16.79C26.82,111.87,35.82,111.82,36.5,106.13L36.5,106.13z"/>
	</g>
</g>
<g>
	<path class="st9" d="M6.53,29.95V6.53h6.9c2.22,0,3.97,0.54,5.23,1.6c1.26,1.07,1.89,2.54,1.89,4.43c0,1.07-0.23,1.99-0.69,2.78
		c-0.46,0.78-1.1,1.38-1.91,1.81c-0.81,0.43-1.76,0.64-2.85,0.64v-0.32c1.18-0.02,2.21,0.2,3.11,0.66c0.9,0.46,1.6,1.14,2.12,2.04
		s0.77,1.97,0.77,3.21c0,1.33-0.29,2.49-0.88,3.48c-0.59,1-1.42,1.76-2.5,2.29c-1.08,0.53-2.36,0.8-3.83,0.8H6.53z M9.9,16.35h3.5
		c1.15,0,2.06-0.31,2.73-0.93c0.66-0.62,0.99-1.45,0.99-2.5s-0.33-1.88-0.99-2.49c-0.66-0.61-1.56-0.91-2.69-0.91H9.9V16.35z
		 M9.9,26.96h3.69c1.24,0,2.22-0.33,2.95-0.99c0.73-0.66,1.09-1.58,1.09-2.76c0-1.2-0.36-2.16-1.09-2.89
		c-0.73-0.73-1.71-1.09-2.95-1.09H9.9V26.96z"/>
	<path class="st9" d="M25.64,29.95V26.8h6.19V15.45h-5.39v-3.14h8.76v14.5h5.68v3.14H25.64z M33.18,9.26c-0.75,0-1.35-0.2-1.8-0.59
		c-0.45-0.39-0.67-0.92-0.67-1.59c0-0.68,0.22-1.22,0.67-1.62s1.05-0.59,1.8-0.59c0.75,0,1.35,0.2,1.8,0.59
		c0.45,0.4,0.67,0.94,0.67,1.62c0,0.66-0.22,1.19-0.67,1.59C34.53,9.06,33.93,9.26,33.18,9.26z"/>
	<path class="st9" d="M54.45,29.95c-1.09,0-2.04-0.22-2.86-0.66s-1.45-1.06-1.91-1.88C49.23,26.6,49,25.66,49,24.59V9.68h-5.77V6.53
		h9.24v18.06c0,0.68,0.19,1.22,0.58,1.62c0.38,0.4,0.91,0.59,1.57,0.59h5.45v3.14H54.45z"/>
	<path class="st9" d="M73.69,29.95c-1.09,0-2.04-0.22-2.86-0.66s-1.45-1.06-1.91-1.88c-0.46-0.81-0.69-1.75-0.69-2.82V9.68h-5.77
		V6.53h9.24v18.06c0,0.68,0.19,1.22,0.58,1.62c0.38,0.4,0.91,0.59,1.57,0.59h5.45v3.14H73.69z"/>
	<path class="st9" d="M86.3,35.72l2.53-6.8l-6.58-16.62h3.82l3.69,9.94c0.15,0.43,0.3,0.94,0.45,1.54c0.15,0.6,0.28,1.09,0.38,1.47
		c0.08-0.38,0.2-0.88,0.35-1.47s0.3-1.11,0.45-1.54l3.46-9.94h3.69l-8.6,23.42H86.3z"/>
	<path class="st9" d="M128.99,30.27c-1.58,0-2.94-0.26-4.07-0.79c-1.13-0.52-2.01-1.27-2.63-2.25c-0.62-0.97-0.93-2.13-0.93-3.48
		h3.43c0,1.07,0.37,1.91,1.12,2.52c0.75,0.61,1.79,0.91,3.11,0.91c1.24,0,2.21-0.3,2.92-0.9c0.71-0.6,1.06-1.42,1.06-2.47
		c0-0.88-0.24-1.64-0.72-2.28s-1.17-1.08-2.07-1.31l-2.95-0.87c-1.71-0.49-3.03-1.33-3.96-2.52c-0.93-1.19-1.4-2.6-1.4-4.25
		c0-1.28,0.29-2.41,0.87-3.37c0.58-0.96,1.4-1.71,2.47-2.25c1.07-0.53,2.33-0.8,3.79-0.8c2.14,0,3.85,0.58,5.15,1.73
		c1.29,1.15,1.95,2.71,1.97,4.65h-3.46c0-1.03-0.33-1.83-0.98-2.42c-0.65-0.59-1.57-0.88-2.74-0.88c-1.13,0-2.02,0.27-2.66,0.82
		c-0.64,0.54-0.96,1.31-0.96,2.29c0,0.88,0.24,1.64,0.72,2.28s1.17,1.09,2.07,1.35l2.98,0.9c1.71,0.47,3.03,1.3,3.95,2.5
		c0.92,1.2,1.38,2.63,1.38,4.3c0,1.3-0.31,2.45-0.93,3.45s-1.49,1.76-2.6,2.31C131.79,30,130.49,30.27,128.99,30.27z"/>
	<path class="st9" d="M150.07,29.95c-1.6,0-2.86-0.44-3.75-1.32c-0.9-0.88-1.35-2.09-1.35-3.66v-9.53h-4.88v-3.14h4.88V7.33h3.46
		v4.97h6.9v3.14h-6.9v9.53c0,1.22,0.59,1.83,1.76,1.83h4.81v3.14H150.07z"/>
	<path class="st9" d="M161.04,29.95V12.31h3.34v3.37h0.83l-1.06,2.08c0-1.9,0.42-3.34,1.25-4.31c0.83-0.97,2.07-1.46,3.72-1.46
		c1.88,0,3.37,0.58,4.47,1.75c1.1,1.17,1.65,2.76,1.65,4.8v1.19h-3.56v-0.9c0-1.26-0.32-2.23-0.95-2.9s-1.51-1.01-2.65-1.01
		c-1.13,0-2.02,0.34-2.65,1.03c-0.63,0.68-0.95,1.65-0.95,2.89v11.13H161.04z"/>
	<path class="st9" d="M179.61,29.95V26.8h6.19V15.45h-5.39v-3.14h8.76v14.5h5.68v3.14H179.61z M187.15,9.26
		c-0.75,0-1.35-0.2-1.8-0.59c-0.45-0.39-0.67-0.92-0.67-1.59c0-0.68,0.22-1.22,0.67-1.62s1.05-0.59,1.8-0.59
		c0.75,0,1.35,0.2,1.8,0.59s0.67,0.94,0.67,1.62c0,0.66-0.22,1.19-0.67,1.59C188.49,9.06,187.9,9.26,187.15,9.26z"/>
	<path class="st9" d="M198.95,29.95V12.31h3.43v3.37h0.83l-0.83,0.8c0-1.41,0.42-2.51,1.25-3.3c0.83-0.79,1.99-1.19,3.46-1.19
		c1.75,0,3.15,0.56,4.2,1.68c1.05,1.12,1.57,2.64,1.57,4.54v11.74h-3.46V18.59c0-1.15-0.31-2.04-0.93-2.66
		c-0.62-0.62-1.46-0.93-2.53-0.93c-1.09,0-1.95,0.33-2.58,0.98c-0.63,0.65-0.95,1.6-0.95,2.84v11.13H198.95z"/>
	<path class="st9" d="M220.51,35.72v-2.98h5.42c0.9,0,1.57-0.21,2-0.64c0.44-0.43,0.66-1.06,0.66-1.89v-1.76l0.06-3.27h-0.74
		l0.71-0.64c0,1.35-0.42,2.41-1.27,3.18c-0.85,0.77-1.98,1.15-3.42,1.15c-1.82,0-3.25-0.6-4.3-1.8s-1.57-2.81-1.57-4.84v-3.59
		c0-2.03,0.52-3.65,1.57-4.84c1.05-1.2,2.48-1.8,4.3-1.8c1.43,0,2.57,0.39,3.42,1.17c0.84,0.78,1.27,1.84,1.27,3.19l-0.71-0.67h0.71
		l-0.03-3.37h3.43v17.96c0,1.69-0.54,3.02-1.6,3.99c-1.07,0.97-2.56,1.46-4.46,1.46H220.51z M225.06,25.87
		c1.09,0,1.95-0.34,2.58-1.01s0.95-1.61,0.95-2.81v-3.24c0-1.2-0.32-2.13-0.95-2.81c-0.63-0.67-1.49-1.01-2.58-1.01
		c-1.13,0-2,0.33-2.61,0.98c-0.61,0.65-0.91,1.6-0.91,2.84v3.24c0,1.22,0.3,2.16,0.91,2.82C223.06,25.54,223.93,25.87,225.06,25.87z
		"/>
	<path class="st9" d="M243.76,30.24c-1.26,0-2.37-0.2-3.32-0.61c-0.95-0.41-1.7-0.97-2.25-1.68c-0.54-0.72-0.86-1.57-0.95-2.55h3.46
		c0.09,0.58,0.4,1.04,0.93,1.4c0.53,0.35,1.24,0.53,2.12,0.53h1.38c1.05,0,1.84-0.21,2.37-0.64c0.53-0.43,0.8-1,0.8-1.7
		c0-0.68-0.24-1.22-0.72-1.62c-0.48-0.4-1.19-0.66-2.13-0.79l-2.28-0.35c-1.88-0.3-3.27-0.84-4.15-1.62
		c-0.89-0.78-1.33-1.94-1.33-3.48c0-1.62,0.53-2.88,1.59-3.77c1.06-0.89,2.62-1.33,4.7-1.33h1.22c1.84,0,3.31,0.42,4.41,1.27
		c1.1,0.85,1.73,1.97,1.88,3.38h-3.46c-0.08-0.51-0.37-0.93-0.85-1.25c-0.48-0.32-1.14-0.48-1.97-0.48h-1.22
		c-1.01,0-1.74,0.19-2.2,0.56c-0.46,0.37-0.69,0.92-0.69,1.65c0,0.64,0.2,1.12,0.61,1.44c0.41,0.32,1.04,0.55,1.89,0.67l2.34,0.38
		c1.99,0.28,3.45,0.83,4.38,1.65c0.93,0.82,1.4,2.02,1.4,3.58c0,1.69-0.55,3-1.65,3.95c-1.1,0.94-2.74,1.41-4.92,1.41H243.76z"/>
	<path class="st9" d="M258.9,15.03l2.57-9.98h4.62l-4.17,9.98H258.9z"/>
	<path class="st9" d="M13.52,68.76c-1.58,0-2.94-0.26-4.07-0.79c-1.13-0.52-2.01-1.27-2.63-2.25c-0.62-0.97-0.93-2.13-0.93-3.48
		h3.43c0,1.07,0.37,1.91,1.12,2.52s1.79,0.91,3.11,0.91c1.24,0,2.21-0.3,2.92-0.9c0.71-0.6,1.06-1.42,1.06-2.47
		c0-0.88-0.24-1.64-0.72-2.28c-0.48-0.64-1.17-1.08-2.07-1.31l-2.95-0.87c-1.71-0.49-3.03-1.33-3.96-2.52
		c-0.93-1.19-1.4-2.6-1.4-4.25c0-1.28,0.29-2.41,0.87-3.37c0.58-0.96,1.4-1.71,2.47-2.25c1.07-0.53,2.33-0.8,3.79-0.8
		c2.14,0,3.85,0.58,5.15,1.73c1.29,1.15,1.95,2.71,1.97,4.65h-3.46c0-1.03-0.33-1.83-0.98-2.42c-0.65-0.59-1.57-0.88-2.74-0.88
		c-1.13,0-2.02,0.27-2.66,0.82c-0.64,0.54-0.96,1.31-0.96,2.29c0,0.88,0.24,1.64,0.72,2.28s1.17,1.09,2.07,1.35l2.98,0.9
		c1.71,0.47,3.03,1.3,3.95,2.5c0.92,1.2,1.38,2.63,1.38,4.3c0,1.3-0.31,2.45-0.93,3.45s-1.49,1.76-2.6,2.31
		C16.32,68.49,15.02,68.76,13.52,68.76z"/>
	<path class="st9" d="M32.67,68.76c-1.43,0-2.69-0.28-3.77-0.85c-1.08-0.57-1.91-1.36-2.49-2.39c-0.58-1.03-0.87-2.22-0.87-3.59
		v-4.62c0-1.39,0.29-2.59,0.87-3.61c0.58-1.02,1.41-1.81,2.49-2.37c1.08-0.57,2.34-0.85,3.77-0.85c1.45,0,2.72,0.28,3.79,0.85
		c1.07,0.57,1.89,1.36,2.47,2.37c0.58,1.02,0.87,2.22,0.87,3.61v3.14H28.88v1.48c0,1.3,0.33,2.3,0.98,2.98
		c0.65,0.68,1.6,1.03,2.84,1.03c1.01,0,1.82-0.18,2.44-0.53c0.62-0.35,1-0.87,1.15-1.56h3.43c-0.26,1.5-1.03,2.69-2.31,3.58
		C36.13,68.32,34.55,68.76,32.67,68.76z M36.46,58.37v-1.09c0-1.28-0.32-2.28-0.96-2.98c-0.64-0.71-1.58-1.06-2.82-1.06
		c-1.22,0-2.15,0.35-2.81,1.06c-0.65,0.71-0.98,1.71-0.98,3.01v0.8l7.83-0.03L36.46,58.37z"/>
	<path class="st9" d="M53.84,68.44c-1.6,0-2.86-0.44-3.75-1.32c-0.9-0.88-1.35-2.09-1.35-3.66v-9.53h-4.88V50.8h4.88v-4.97h3.46
		v4.97h6.9v3.14h-6.9v9.53c0,1.22,0.59,1.83,1.76,1.83h4.81v3.14H53.84z"/>
	<path class="st9" d="M73.69,68.44c-1.09,0-2.04-0.22-2.86-0.66s-1.45-1.06-1.91-1.88c-0.46-0.81-0.69-1.75-0.69-2.82V48.17h-5.77
		v-3.14h9.24v18.06c0,0.68,0.19,1.22,0.58,1.62c0.38,0.4,0.91,0.59,1.57,0.59h5.45v3.14H73.69z"/>
	<path class="st9" d="M83.38,68.44V65.3h6.19V53.94h-5.39V50.8h8.76v14.5h5.68v3.14H83.38z M90.92,47.75c-0.75,0-1.35-0.2-1.8-0.59
		c-0.45-0.39-0.67-0.92-0.67-1.59c0-0.68,0.22-1.22,0.67-1.62s1.05-0.59,1.8-0.59c0.75,0,1.35,0.2,1.8,0.59s0.67,0.94,0.67,1.62
		c0,0.66-0.22,1.19-0.67,1.59C92.27,47.55,91.67,47.75,90.92,47.75z"/>
	<path class="st9" d="M109.04,68.73c-1.26,0-2.37-0.2-3.32-0.61c-0.95-0.41-1.7-0.97-2.25-1.68c-0.54-0.72-0.86-1.57-0.95-2.55h3.46
		c0.09,0.58,0.4,1.04,0.93,1.4c0.53,0.35,1.24,0.53,2.12,0.53h1.38c1.05,0,1.84-0.21,2.37-0.64c0.53-0.43,0.8-1,0.8-1.7
		c0-0.68-0.24-1.22-0.72-1.62c-0.48-0.4-1.19-0.66-2.13-0.79l-2.28-0.35c-1.88-0.3-3.27-0.84-4.15-1.62
		c-0.89-0.78-1.33-1.94-1.33-3.48c0-1.62,0.53-2.88,1.59-3.77c1.06-0.89,2.62-1.33,4.7-1.33h1.22c1.84,0,3.31,0.42,4.41,1.27
		c1.1,0.85,1.73,1.97,1.88,3.38h-3.46c-0.08-0.51-0.37-0.93-0.85-1.25c-0.48-0.32-1.14-0.48-1.97-0.48h-1.22
		c-1.01,0-1.74,0.19-2.2,0.56c-0.46,0.37-0.69,0.92-0.69,1.65c0,0.64,0.2,1.12,0.61,1.44c0.41,0.32,1.04,0.55,1.89,0.67l2.34,0.38
		c1.99,0.28,3.45,0.83,4.38,1.65c0.93,0.82,1.4,2.02,1.4,3.58c0,1.69-0.55,3-1.65,3.95c-1.1,0.94-2.74,1.41-4.92,1.41H109.04z"/>
	<path class="st9" d="M130.82,68.44c-1.6,0-2.86-0.44-3.75-1.32c-0.9-0.88-1.35-2.09-1.35-3.66v-9.53h-4.88V50.8h4.88v-4.97h3.46
		v4.97h6.9v3.14h-6.9v9.53c0,1.22,0.59,1.83,1.76,1.83h4.81v3.14H130.82z"/>
	<path class="st9" d="M160.59,68.44V44.99h14.15v3.21h-10.78v6.99h9.94v3.21h-9.88v10.04H160.59z"/>
	<path class="st9" d="M186.63,68.73c-1.45,0-2.72-0.28-3.79-0.83c-1.07-0.56-1.89-1.35-2.47-2.37s-0.87-2.23-0.87-3.62v-4.55
		c0-1.41,0.29-2.62,0.87-3.64s1.4-1.8,2.47-2.36c1.07-0.56,2.33-0.83,3.79-0.83s2.72,0.28,3.79,0.83c1.07,0.56,1.89,1.34,2.47,2.36
		s0.87,2.23,0.87,3.64v4.55c0,1.39-0.29,2.6-0.87,3.62s-1.4,1.82-2.47,2.37C189.35,68.45,188.09,68.73,186.63,68.73z M186.63,65.68
		c1.18,0,2.08-0.33,2.73-0.98c0.64-0.65,0.96-1.59,0.96-2.81v-4.55c0-1.24-0.32-2.18-0.96-2.82s-1.55-0.96-2.73-0.96
		c-1.16,0-2.06,0.32-2.71,0.96s-0.98,1.58-0.98,2.82v4.55c0,1.22,0.33,2.16,0.98,2.81C184.58,65.36,185.48,65.68,186.63,65.68z"/>
	<path class="st9" d="M199.53,68.44V50.8h3.34v3.37h0.83l-1.06,2.08c0-1.9,0.42-3.34,1.25-4.31c0.83-0.97,2.07-1.46,3.72-1.46
		c1.88,0,3.37,0.58,4.47,1.75c1.1,1.17,1.65,2.76,1.65,4.8v1.19h-3.56v-0.9c0-1.26-0.32-2.23-0.95-2.9s-1.51-1.01-2.65-1.01
		c-1.13,0-2.02,0.34-2.65,1.03c-0.63,0.68-0.95,1.65-0.95,2.89v11.13H199.53z"/>
	<path class="st9" d="M225.12,68.76c-1.43,0-2.69-0.28-3.77-0.85s-1.91-1.36-2.49-2.39S218,63.3,218,61.93v-4.62
		c0-1.39,0.29-2.59,0.87-3.61s1.41-1.81,2.49-2.37c1.08-0.57,2.34-0.85,3.77-0.85c1.45,0,2.72,0.28,3.79,0.85
		c1.07,0.57,1.89,1.36,2.47,2.37s0.87,2.22,0.87,3.61v3.14h-10.91v1.48c0,1.3,0.33,2.3,0.98,2.98s1.6,1.03,2.84,1.03
		c1,0,1.82-0.18,2.44-0.53s1-0.87,1.16-1.56h3.43c-0.26,1.5-1.03,2.69-2.31,3.58C228.59,68.32,227.01,68.76,225.12,68.76z
		 M228.91,58.37v-1.09c0-1.28-0.32-2.28-0.96-2.98c-0.64-0.71-1.58-1.06-2.82-1.06c-1.22,0-2.15,0.35-2.81,1.06
		c-0.65,0.71-0.98,1.71-0.98,3.01v0.8l7.83-0.03L228.91,58.37z"/>
	<path class="st9" d="M244.5,68.76c-1.45,0-2.73-0.27-3.83-0.82c-1.1-0.55-1.95-1.34-2.53-2.37c-0.59-1.04-0.88-2.25-0.88-3.64
		v-4.62c0-1.41,0.29-2.63,0.88-3.66s1.43-1.81,2.53-2.36c1.1-0.55,2.38-0.82,3.83-0.82c2.12,0,3.82,0.56,5.1,1.67
		c1.28,1.11,1.96,2.63,2.02,4.55h-3.46c-0.06-1-0.42-1.79-1.06-2.34c-0.64-0.56-1.51-0.83-2.6-0.83c-1.18,0-2.11,0.33-2.79,0.98
		c-0.68,0.65-1.03,1.58-1.03,2.77v4.65c0,1.2,0.34,2.13,1.03,2.79c0.68,0.66,1.61,0.99,2.79,0.99c1.09,0,1.96-0.28,2.6-0.83
		c0.64-0.56,0.99-1.34,1.06-2.34h3.46c-0.06,1.92-0.74,3.44-2.02,4.55C248.32,68.21,246.62,68.76,244.5,68.76z"/>
	<path class="st9" d="M261.85,68.76c-1.84,0-3.29-0.48-4.35-1.43s-1.59-2.25-1.59-3.9c0-1.67,0.56-2.98,1.68-3.93
		c1.12-0.95,2.67-1.43,4.64-1.43h4.91v-1.64c0-0.96-0.3-1.71-0.9-2.25c-0.6-0.53-1.44-0.8-2.53-0.8c-0.96,0-1.76,0.21-2.41,0.63
		s-1.02,0.97-1.12,1.65h-3.4c0.19-1.58,0.92-2.84,2.2-3.79c1.27-0.94,2.88-1.41,4.83-1.41c2.1,0,3.75,0.53,4.97,1.59
		s1.83,2.5,1.83,4.31v12.06h-3.37V65.2h-0.58l0.58-0.64c0,1.28-0.49,2.3-1.48,3.06C264.78,68.38,263.48,68.76,261.85,68.76z
		 M262.88,66.1c1.24,0,2.26-0.32,3.06-0.95c0.8-0.63,1.2-1.44,1.2-2.42v-2.31h-4.84c-0.9,0-1.61,0.25-2.13,0.74
		c-0.52,0.49-0.79,1.17-0.79,2.02c0,0.9,0.31,1.61,0.93,2.13C260.93,65.84,261.79,66.1,262.88,66.1z"/>
	<path class="st9" d="M282.25,68.73c-1.26,0-2.37-0.2-3.32-0.61c-0.95-0.41-1.7-0.97-2.25-1.68c-0.54-0.72-0.86-1.57-0.95-2.55h3.46
		c0.09,0.58,0.4,1.04,0.93,1.4c0.53,0.35,1.24,0.53,2.12,0.53h1.38c1.05,0,1.84-0.21,2.37-0.64c0.53-0.43,0.8-1,0.8-1.7
		c0-0.68-0.24-1.22-0.72-1.62c-0.48-0.4-1.19-0.66-2.13-0.79l-2.28-0.35c-1.88-0.3-3.27-0.84-4.15-1.62
		c-0.89-0.78-1.33-1.94-1.33-3.48c0-1.62,0.53-2.88,1.59-3.77c1.06-0.89,2.62-1.33,4.7-1.33h1.22c1.84,0,3.31,0.42,4.41,1.27
		c1.1,0.85,1.73,1.97,1.88,3.38h-3.46c-0.08-0.51-0.37-0.93-0.85-1.25c-0.48-0.32-1.14-0.48-1.97-0.48h-1.22
		c-1.01,0-1.74,0.19-2.2,0.56c-0.46,0.37-0.69,0.92-0.69,1.65c0,0.64,0.2,1.12,0.61,1.44c0.41,0.32,1.04,0.55,1.89,0.67l2.34,0.38
		c1.99,0.28,3.45,0.83,4.38,1.65c0.93,0.82,1.4,2.02,1.4,3.58c0,1.69-0.55,3-1.65,3.95c-1.1,0.94-2.74,1.41-4.92,1.41H282.25z"/>
	<path class="st9" d="M304.03,68.44c-1.6,0-2.86-0.44-3.75-1.32c-0.9-0.88-1.35-2.09-1.35-3.66v-9.53h-4.88V50.8h4.88v-4.97h3.46
		v4.97h6.9v3.14h-6.9v9.53c0,1.22,0.59,1.83,1.76,1.83h4.81v3.14H304.03z"/>
</g>
<g id="_x33_IWjaK_17_">
	<g>
		<path class="st12" d="M676.32,62.76c0.1-0.19,0.19-0.36,0.26-0.54c1.01-2.29,2.01-4.59,3.02-6.88c1.08-2.44,2.16-4.89,3.23-7.33
			c0.21-0.48,0.45-0.96,0.56-1.46c0.09-0.43,0.07-0.91,0.01-1.36c-0.13-1.02,0.06-1.95,0.66-2.79c0.8-1.12,1.11-2.4,1.32-3.72
			c0.06-0.4,0.09-0.82,0.23-1.19c0.27-0.72,1.03-1.14,1.79-1.01c1.58,0.27,3.01,0.89,4.28,1.86c0.79,0.6,0.87,1.71,0.21,2.48
			c-0.72,0.84-1.39,1.71-1.82,2.73c-0.22,0.53-0.36,1.1-0.52,1.66c-0.23,0.81-0.72,1.43-1.38,1.93c-0.36,0.27-0.72,0.55-1,0.89
			c-0.27,0.34-0.46,0.76-0.64,1.17c-0.6,1.36-1.17,2.74-1.75,4.11c-1.24,2.91-2.49,5.81-3.73,8.72c-0.31,0.72-0.6,1.44-0.9,2.16
			c-0.03,0.06-0.04,0.12-0.07,0.19c0.45,0.25,0.89,0.47,1.31,0.73c1.25,0.77,2.3,1.74,2.92,3.09c0.86,1.87,0.6,3.65-0.6,5.29
			c-0.31,0.42-0.68,0.82-1.09,1.16c-1.12,0.92-1.63,2.12-1.64,3.54c-0.01,1.07,0.05,2.14,0.06,3.21c0.02,1.63-0.26,3.19-0.96,4.67
			c-0.66,1.37-1.55,2.52-2.98,3.15c-1.24,0.55-2.55,0.67-3.88,0.58c-1.51-0.1-2.97-0.46-4.39-0.96c-2.09-0.74-4.02-1.76-5.74-3.16
			c-1.05-0.85-1.95-1.83-2.56-3.06c-0.73-1.48-0.74-2.98-0.23-4.53c0.68-2.07,2.01-3.64,3.62-5.04c0.77-0.67,1.52-1.36,2.22-2.11
			c0.74-0.8,1.02-1.81,0.96-2.9c-0.06-1.04,0.06-2.07,0.49-3.02c0.71-1.56,1.92-2.52,3.59-2.89c1.38-0.31,2.74-0.15,4.08,0.26
			C675.6,62.5,675.95,62.64,676.32,62.76z M679.88,64.81c-0.05,0.12-0.09,0.21-0.13,0.3c-0.69,1.61-1.37,3.23-2.07,4.84
			c-0.1,0.22-0.09,0.38,0.04,0.59c0.94,1.55,0.66,3.59-0.65,4.86c-1.32,1.27-3.36,1.49-4.88,0.51c-1.38-0.88-2.08-2.48-1.79-4.09
			c0.29-1.58,1.53-2.84,3.13-3.16c0.18-0.04,0.27-0.11,0.34-0.27c0.63-1.43,1.26-2.86,1.89-4.3c0.13-0.29,0.26-0.59,0.4-0.91
			c-0.39-0.13-0.73-0.27-1.09-0.38c-1.14-0.34-2.29-0.5-3.47-0.3c-1.54,0.26-2.74,1.03-3.48,2.43c-0.49,0.92-0.65,1.92-0.58,2.95
			c0.09,1.42-0.34,2.65-1.31,3.67c-0.62,0.65-1.29,1.24-1.98,1.82c-1.58,1.35-2.89,2.88-3.54,4.91c-0.49,1.51-0.44,2.96,0.33,4.37
			c0.51,0.95,1.22,1.74,2.03,2.44c1.52,1.31,3.24,2.29,5.1,3.04c1.46,0.58,2.96,1.01,4.52,1.19c0.97,0.11,1.94,0.11,2.9-0.07
			c1.97-0.37,3.26-1.57,4.1-3.34c0.7-1.49,0.95-3.05,0.92-4.68c-0.02-0.99-0.07-1.98-0.06-2.96c0.01-1.63,0.6-2.99,1.9-4.02
			c0.3-0.23,0.55-0.53,0.79-0.82c1.4-1.73,1.52-3.81,0.33-5.65C682.67,66.38,681.38,65.5,679.88,64.81z M683.64,47.32
			c-3.13,7.09-6.25,14.16-9.38,21.25c1.19,0.03,2.16,0.46,2.98,1.29c3.05-7.14,6.08-14.25,9.11-21.36
			C685.44,48.1,684.56,47.72,683.64,47.32z M683.79,46.89c0.9,0.39,1.77,0.77,2.64,1.14c0.05,0.02,0.15-0.01,0.18-0.05
			c0.39-0.57,0.94-0.95,1.47-1.37c0.51-0.39,0.85-0.9,1.03-1.52c0.17-0.58,0.32-1.17,0.55-1.73c0.44-1.06,1.14-1.97,1.88-2.83
			c0.51-0.6,0.45-1.41-0.16-1.87c-1.19-0.9-2.54-1.48-4.01-1.74c-0.74-0.13-1.38,0.37-1.47,1.11c-0.04,0.33-0.08,0.66-0.13,0.99
			c-0.22,1.34-0.61,2.62-1.42,3.74c-0.43,0.6-0.61,1.28-0.54,2.03C683.9,45.49,683.99,46.18,683.79,46.89z M672.89,75.78
			c1.78,0.78,3.88-0.04,4.65-1.81c0.77-1.78-0.04-3.87-1.81-4.65c-1.77-0.78-3.89,0.05-4.66,1.84
			C670.3,72.92,671.13,75.01,672.89,75.78z"/>
		
			<linearGradient id="SVGID_3_" gradientUnits="userSpaceOnUse" x1="699.6483" y1="143.2822" x2="725.2718" y2="143.2822" gradientTransform="matrix(0.9805 -0.1965 0.1965 0.9805 -54.1958 75.595)">
			<stop  offset="0.1813" style="stop-color:#1B05FF"/>
			<stop  offset="0.9991" style="stop-color:#46BBFF"/>
		</linearGradient>
		<path style="fill:url(#SVGID_3_);stroke:#9AEDFF;stroke-width:0.5922;stroke-miterlimit:10;" d="M679.88,64.81
			c1.5,0.69,2.79,1.58,3.67,2.95c1.19,1.85,1.06,3.93-0.33,5.65c-0.24,0.3-0.5,0.59-0.79,0.82c-1.3,1.03-1.89,2.39-1.9,4.02
			c0,0.99,0.04,1.98,0.06,2.96c0.03,1.63-0.22,3.19-0.92,4.68c-0.83,1.78-2.12,2.97-4.1,3.34c-0.96,0.18-1.93,0.18-2.9,0.07
			c-1.56-0.18-3.06-0.6-4.52-1.19c-1.86-0.75-3.58-1.73-5.1-3.04c-0.81-0.7-1.51-1.49-2.03-2.44c-0.76-1.41-0.82-2.85-0.33-4.37
			c0.65-2.02,1.96-3.56,3.54-4.91c0.68-0.58,1.36-1.18,1.98-1.82c0.98-1.02,1.4-2.25,1.31-3.67c-0.06-1.03,0.09-2.03,0.58-2.95
			c0.74-1.4,1.94-2.17,3.48-2.43c1.18-0.2,2.34-0.04,3.47,0.3c0.36,0.11,0.7,0.24,1.09,0.38c-0.14,0.32-0.27,0.62-0.4,0.91
			c-0.63,1.43-1.27,2.86-1.89,4.3c-0.07,0.16-0.16,0.24-0.34,0.27c-1.6,0.32-2.84,1.58-3.13,3.16c-0.29,1.61,0.41,3.21,1.79,4.09
			c1.52,0.98,3.57,0.76,4.88-0.51c1.31-1.27,1.59-3.31,0.65-4.86c-0.13-0.21-0.14-0.37-0.04-0.59c0.7-1.61,1.38-3.23,2.07-4.84
			C679.79,65.01,679.83,64.92,679.88,64.81z"/>
		
			<radialGradient id="SVGID_4_" cx="723.5351" cy="127.6838" r="9.2488" gradientTransform="matrix(0.9805 -0.1965 0.1965 0.9805 -54.1958 75.595)" gradientUnits="userSpaceOnUse">
			<stop  offset="0.1813" style="stop-color:#170054"/>
			<stop  offset="0.9991" style="stop-color:#005AF6"/>
		</radialGradient>
		<path class="st4" d="M683.64,47.32c0.92,0.4,1.8,0.78,2.72,1.18c-3.04,7.12-6.07,14.22-9.11,21.36c-0.82-0.83-1.79-1.26-2.98-1.29
			C677.39,61.48,680.51,54.41,683.64,47.32z"/>
		<path class="st15" d="M683.79,46.89c0.2-0.71,0.1-1.41,0.03-2.1c-0.08-0.74,0.11-1.43,0.54-2.03c0.8-1.13,1.19-2.4,1.42-3.74
			c0.05-0.33,0.09-0.66,0.13-0.99c0.1-0.74,0.74-1.24,1.47-1.11c1.47,0.26,2.82,0.84,4.01,1.74c0.61,0.46,0.67,1.28,0.16,1.87
			c-0.74,0.87-1.44,1.77-1.88,2.83c-0.23,0.56-0.38,1.15-0.55,1.73c-0.18,0.62-0.52,1.13-1.03,1.52c-0.53,0.41-1.09,0.8-1.47,1.37
			c-0.03,0.04-0.13,0.07-0.18,0.05C685.56,47.67,684.7,47.29,683.79,46.89z"/>
		<path class="st12" d="M672.89,75.78c-1.76-0.77-2.59-2.86-1.83-4.62c0.77-1.79,2.89-2.62,4.66-1.84c1.77,0.78,2.59,2.87,1.81,4.65
			C676.76,75.74,674.67,76.55,672.89,75.78z M671.73,71.42c-0.62,1.42,0.01,3.07,1.41,3.69c1.47,0.65,3.11,0.03,3.74-1.42
			c0.63-1.45,0-3.09-1.44-3.72C674,69.34,672.36,69.98,671.73,71.42z"/>
		<path class="st16" d="M671.73,71.42c0.63-1.44,2.28-2.08,3.71-1.45c1.43,0.63,2.07,2.27,1.44,3.72c-0.63,1.44-2.27,2.06-3.74,1.42
			C671.73,74.49,671.1,72.84,671.73,71.42z M673.33,74.82c1.25,0.54,2.72-0.05,3.26-1.3c0.53-1.25-0.06-2.73-1.3-3.26
			c-1.25-0.53-2.72,0.05-3.26,1.3C671.49,72.82,672.07,74.28,673.33,74.82z"/>
		<path class="st17" d="M673.33,74.82c-1.25-0.54-1.84-2.01-1.3-3.25c0.54-1.25,2.01-1.83,3.26-1.3c1.24,0.53,1.83,2.01,1.3,3.26
			C676.05,74.77,674.57,75.36,673.33,74.82z"/>
	</g>
</g>
</svg>
