<?xml version="1.0" encoding="utf-8"?>
<!-- Generator: Adobe Illustrator 24.1.0, SVG Export Plug-In . SVG Version: 6.00 Build 0)  -->
<svg version="1.1" id="Layer_1" xmlns="http://www.w3.org/2000/svg" xmlns:xlink="http://www.w3.org/1999/xlink" x="0px" y="0px"
	 viewBox="0 0 800 418" style="enable-background:new 0 0 800 418;" xml:space="preserve">
<style type="text/css">
	.st0{fill:url(#SVGID_1_);}
	.st1{fill:url(#SVGID_2_);}
	.st2{fill:url(#SVGID_3_);}
	.st3{fill:url(#SVGID_4_);}
	.st4{fill:url(#SVGID_5_);}
	.st5{fill:url(#SVGID_6_);}
	.st6{fill:url(#SVGID_7_);}
	.st7{fill:url(#SVGID_8_);}
	.st8{fill:url(#SVGID_9_);}
	.st9{fill:url(#SVGID_10_);}
	.st10{fill:#070041;}
	.st11{fill:url(#SVGID_11_);stroke:#9AEDFF;stroke-miterlimit:10;}
	.st12{fill:url(#SVGID_12_);}
	.st13{fill:#33A4FF;}
	.st14{fill:#54BCFF;}
	.st15{fill:#F6FCFF;}
	.st16{fill:url(#SVGID_13_);stroke:#9AEDFF;stroke-width:0.5922;stroke-miterlimit:10;}
	.st17{fill:url(#SVGID_14_);}
	.st18{fill:url(#SVGID_15_);stroke:#9AEDFF;stroke-width:1.2661;stroke-miterlimit:10;}
	.st19{fill:url(#SVGID_16_);}
</style>
<g>
	<g>
		<linearGradient id="SVGID_1_" gradientUnits="userSpaceOnUse" x1="473.42" y1="176.8087" x2="817.4929" y2="176.8087">
			<stop  offset="0" style="stop-color:#6782FF"/>
			<stop  offset="0.3714" style="stop-color:#00E6F6"/>
			<stop  offset="0.7364" style="stop-color:#25DB00"/>
			<stop  offset="0.9974" style="stop-color:#D6FF92"/>
		</linearGradient>
		<path class="st0" d="M817.43,107.3c-15.9-1.34-31.79-2.67-47.69-4.01c-7.29-0.61-14.57-1.22-21.86-1.84
			c-7.64-0.64-15.37-1.73-22.69,1.19c-12.03,4.8-19.96,18.51-27.14,28.68c-7.84,11.11-14.97,22.74-21.25,34.81
			c-12.32,23.66-21.71,49.05-26.66,75.3c-2.54,13.45-4.06,27.15-4.27,40.85c-0.09,6.2,0.15,12.38,0.52,18.56
			c0.38,6.35,1.09,13.17-0.48,19.42c-2.77,11.07-13,15.59-23.11,18.43c-13.11,3.69-26.82,5.92-40.33,7.53
			c-15.19,1.8-30.49,2.64-45.79,2.47c-11.54-0.13-23.45-0.64-29.88-11.68c-6.49-11.13-9.52-25.25-10.6-37.99
			c-1.19-14.04-0.01-28.11,3.78-41.69c3.6-12.91,9.86-24.76,14.79-37.17c5.14-12.92,7.96-26.49,6.51-40.43
			c-3.22-30.96-21.44-57.38-29.53-87c-8.63-31.62-8.57-64.7-8.59-97.22c-0.01-11.58-18.01-11.6-18,0
			c0.02,30.5,0.21,61.28,6.62,91.24c3.06,14.3,7.98,27.83,13.7,41.26c5.31,12.45,11.11,24.76,14.84,37.82
			c3.61,12.66,4.6,25.43,1.02,38.2c-3.82,13.6-10.84,26.01-15.7,39.22c-10.03,27.27-10.49,58.4-1.48,86.02
			c4.22,12.93,10.4,26.19,23.33,32.36c12.44,5.94,27.23,5.28,40.68,4.99c15.47-0.33,30.88-1.74,46.18-3.98
			c13.83-2.02,28.36-4.16,41.43-9.34c11.99-4.75,22.2-12.56,26.56-25.12c4.53-13.04,1.64-27.4,1.53-40.85
			c-0.23-26.81,4.85-53.31,13.79-78.53c10.05-28.35,25.21-55.08,43.64-78.83c4.34-5.59,8.08-11.43,15.74-11.33
			c8.24,0.11,16.55,1.29,24.76,1.98c18.55,1.56,37.09,3.12,55.64,4.67c4.85,0.41,9-4.43,9-9
			C826.43,111.09,822.29,107.71,817.43,107.3L817.43,107.3z"/>
	</g>
</g>
<g>
	<g>
		<linearGradient id="SVGID_2_" gradientUnits="userSpaceOnUse" x1="-42.2256" y1="229.8967" x2="354.2697" y2="229.8967">
			<stop  offset="0.1837" style="stop-color:#00C803"/>
			<stop  offset="0.4672" style="stop-color:#807FFF"/>
			<stop  offset="1" style="stop-color:#3857FF"/>
		</linearGradient>
		<path class="st1" d="M-35.36,232.22c21.08-19.09,43.54-39.57,71.47-47.71c15.15-4.42,30.84-3.29,46.35-5.31
			c14.3-1.86,27.34-7.26,39.1-15.57c22.38-15.79,39.69-37.23,64.25-50.04c25.45-13.28,53.56-21.04,76.32-39.15
			c19.73-15.69,32.42-40.48,55.25-52.2c7.04-3.61,19.59-6.69,25.6,0.15c3.48,3.96,0.14,10.6-2.18,14.89
			c-4.03,7.48-8.34,14.83-12.52,22.23c-8.8,15.59-17.59,31.19-26.39,46.78c-8.07,14.31-16.57,28.5-22.36,43.94
			c-11.61,30.95-8.42,63.95,3.98,94.05c6.17,14.98,13.72,29.32,20.16,44.18c6.15,14.17,10.82,29.03,14.21,44.09
			c6.74,30.01,8.04,61.61,3.35,92.03c-1.21,7.88-2.82,15.69-4.75,23.43c-2.8,11.24,14.56,16.04,17.36,4.79
			c7.89-31.73,10.1-64.87,6.1-97.34c-2.05-16.64-5.41-33.07-10.48-49.06c-4.99-15.73-11.76-30.71-18.83-45.59
			c-6.89-14.49-13.79-29.04-17.62-44.7c-3.85-15.73-3.89-32.35-0.1-48.1c3.97-16.49,12.36-31.06,20.62-45.7
			c8.96-15.88,17.92-31.76,26.88-47.64c4.56-8.09,9.13-16.17,13.68-24.26c4.07-7.23,8.21-14.81,8.39-23.31
			c0.29-14.01-11.1-23.93-24.2-25.99c-28.37-4.47-49.7,19.08-66.62,38.28c-8.97,10.17-18.08,20.03-29.57,27.4
			c-12.44,7.97-26.12,13.69-39.67,19.47c-13.58,5.8-27.26,11.69-39.57,19.94c-11.99,8.03-22.47,18.01-33.16,27.64
			c-9.83,8.85-20.14,17.74-32.4,23.06c-14.64,6.36-30.67,4.98-46.19,6.57c-31.72,3.24-58.02,20.47-81.8,40.63
			c-5.91,5.01-11.67,10.19-17.41,15.39C-56.69,227.28-43.93,239.98-35.36,232.22L-35.36,232.22z"/>
	</g>
</g>
<g>
	<g>
		<linearGradient id="SVGID_3_" gradientUnits="userSpaceOnUse" x1="412.502" y1="175.8865" x2="820.8113" y2="175.8865">
			<stop  offset="0.1837" style="stop-color:#00C803"/>
			<stop  offset="0.4672" style="stop-color:#807FFF"/>
			<stop  offset="1" style="stop-color:#FF3E62"/>
		</linearGradient>
		<path class="st2" d="M823.05,276.1c-11.25-2.25-22.88-1.82-34.08-4.22c-11.08-2.37-18.43-8.98-26.6-16.38
			c-16.59-15.04-37.94-27.08-61.04-25.82c-21.83,1.19-39.34,14.19-53.62,29.79c-14.48,15.81-27.11,32.94-43.41,47.04
			C589.27,319.49,571.06,330.56,551,333c-8.69,1.05-19.58,1.53-25.8-5.77c-4.97-5.84-6.25-14.19-6.11-21.63
			c0.2-10.44,4.05-20.44,7.2-30.27c3.67-11.47,6.81-23.35,6.06-35.51c-0.8-13.04-4.64-25.63-7.41-38.33
			c-2.71-12.42-4.69-24.99-4.12-37.75c0.89-20.05,9.88-40.17,29.04-48.66c17.52-7.76,39.14-6.22,55.97,2.57
			c8.22,4.29,15.86,10.27,21.17,17.95c2.78,4.01,5.31,8.66,5.74,13.61c0.46,5.27-2.49,9.61-4.33,14.32
			c-4.44,11.31,0.21,22.56,11.15,27.7c9.95,4.67,21.57,5.72,32.3,7.52c11.26,1.89,22.59,3.86,33.36,7.75
			c10.75,3.88,19.74,12.14,30.94,14.76c10.8,2.53,22.95-0.31,28.78-10.46c5.07-8.84,3.07-20.66-2.67-28.66
			c-6.79-9.46-17.65-13.72-28.16-17.66c-11.15-4.18-22.05-9.18-32.17-15.5c-3.67-2.29-7.09-4.83-9.31-8.62
			c-2.92-4.97-3.76-11.02-4.88-16.6c-2.19-10.89-5.65-21.34-10.83-31.2c-10.21-19.43-26.76-36.54-47.21-45.03
			c-10.61-4.41-21.82-5.89-33.2-4.24c-11.74,1.7-22.65,6.57-33.29,11.62c-21.28,10.1-43.36,20.28-67.4,20.33
			c-11.35,0.02-20.83-2.62-28.6-11.22c-8.43-9.33-15.69-19.9-23.38-29.84c-8.13-10.52-16.26-21.04-24.39-31.56
			c-2.97-3.85-9.6-3.13-12.73,0c-3.8,3.8-2.98,8.87,0,12.73c8.33,10.78,16.66,21.57,25,32.35c7.79,10.08,15.1,21.03,23.89,30.27
			c17.43,18.32,44.73,17.3,67.56,11.78c11.96-2.89,23.44-7.44,34.64-12.47c10.53-4.73,20.7-10.46,31.74-13.96
			c10.39-3.29,20.56-3.73,30.93-0.17c9.91,3.41,18.59,9.98,25.81,17.45c7.5,7.77,13.6,16.93,17.9,26.85
			c4.32,9.95,5.46,20.47,8.36,30.8c3.27,11.64,10.12,19.93,20.3,26.26c10.51,6.54,21.89,11.75,33.43,16.17
			c7.7,2.95,19.21,5.77,22.68,14.25c0.96,2.36,1.67,6.03-0.45,7.96c-2.45,2.22-6.81,1.35-9.59,0.44c-5.41-1.79-10.12-5.41-15.1-8.11
			c-5.41-2.94-11.18-5.3-17.03-7.2c-11.19-3.63-22.85-5.42-34.42-7.36c-5.11-0.86-10.22-1.73-15.29-2.81
			c-2.8-0.59-11.26-1.52-12.59-4.91c-0.89-2.28,2.66-7.56,3.45-9.41c2.52-5.94,3.31-11.93,2.33-18.32
			c-3.21-20.83-22.26-37.64-40.72-45.65c-19.58-8.49-42.63-10.17-62.8-2.54c-21.66,8.2-36.14,26.19-41.45,48.57
			c-5.85,24.64-0.41,49.74,5.33,73.85c2.84,11.94,5.15,23.63,2.55,35.85c-2.51,11.8-7.32,22.96-10.05,34.7
			c-4.19,18.06-2.55,40.85,12.99,53.31c17.14,13.74,43.92,8.32,62.53,0.53c20.11-8.41,37.4-22.42,52.43-38.01
			c14.49-15.03,26.18-33.09,42.47-46.31c16.28-13.21,36.34-15.16,55.14-5.88c20.15,9.95,32.68,30.68,55.48,35.59
			c11.23,2.42,22.83,1.97,34.08,4.22C829.57,295.72,834.42,278.37,823.05,276.1L823.05,276.1z"/>
	</g>
</g>
<g>
	<g>
		<linearGradient id="SVGID_4_" gradientUnits="userSpaceOnUse" x1="46.9147" y1="310.5002" x2="614.5411" y2="310.5002">
			<stop  offset="0.386" style="stop-color:#67BFFF"/>
			<stop  offset="0.7364" style="stop-color:#E4FF54"/>
			<stop  offset="0.9983" style="stop-color:#FF9DB2"/>
		</linearGradient>
		<path class="st3" d="M56.12,449.86c17.9-18.5,38.31-34.11,60.98-46.33c11.68-6.3,23.84-11.61,36.22-16.38
			c6.16-2.37,12.36-4.64,18.57-6.86c6.4-2.29,13.29-4.16,18.47-8.79c12.03-10.73,5.28-25.34-3.94-35.11
			c-2.94-3.11-7.27-7.08-8.75-9.53c0.2,0.33-1.69-3.27-1.07-1.98c0.6,1.23-0.91-2.3-0.11-0.38c-0.01-0.42-0.02-0.84-0.03-1.26
			c-0.28,1.15-0.26,1.01,0.07-0.41c0.46-2.3-0.46,0.35,0.65-1.54c1.7-2.88-1.22,1.01,1.13-1.51c0.87-0.94,1.84-1.86,2.86-2.63
			c-1.02,0.78,0.82-0.47,0.83-0.48c1.15-0.74,2.34-1.43,3.56-2.07c3.73-1.95,8.78-3.21,13.74-4.53
			c10.38-2.75,21.16-6.25,29.06-13.87c9.75-9.41,11.99-23.56,7.91-36.16c-3.76-11.61-12.32-20.96-15.92-32.5
			c-0.69-2.22-1.13-3.89-1.22-5.78c-0.12-2.55-0.07-3.25,1.09-5.03c0.48-0.74,1.47-1.53,2.23-1.97c2.92-1.69-1.53,0.26,1.75-0.74
			c1.23-0.37,2.52-0.68,3.79-0.87c-2.04,0.31,2.37-0.12,2.18-0.11c1.39-0.06,2.79-0.07,4.18-0.05c2.36,0.04,4.72,0.18,7.08,0.35
			c5.56,0.39,11.09,0.94,16.67,0.79c27.17-0.7,50.79-11.9,71.19-29.29c7.52-6.42,15.62-14.16,24.77-17.35
			c8.75-3.05,17.8-1.82,25.58,4.1c2.9,2.21,5.86,5.62,7.31,9.36c0.8,2.06,1.23,4.09,0.98,6.3c0.05-0.46-0.88,2.44-0.32,1.19
			c0-0.01-1.73,2.89-1.11,2.07c-2.98,3.98-6.58,5.94-10.66,8.79c-5.09,3.55-10.14,7.25-14.27,11.91
			c-8.35,9.41-14.15,21.02-16.04,33.49c-0.87,5.74-1.1,11.36-0.44,17.13c0.63,5.52,2.33,12.52,1.57,17.73
			c-0.64,4.38-3.55,5.9-7.23,8.18c-6.02,3.72-12.03,7.51-18.14,11.08c-4.4,2.57-5.53,2.51-9.96-0.29c-0.77-0.49-1.56-0.98-2.28-1.54
			c1.89,1.45-0.94-0.95-1.04-1.06c-0.83-0.8-1.6-1.64-2.36-2.5c-1.62-1.82,0.57,0.96-1-1.23c-10.78-15-16.07-35.15-34.47-43.04
			c-12.04-5.16-22.72-0.3-27.53,11.71c-3.18,7.94-3.75,17.45-2.83,25.92c1.52,14.02,7.99,26.32,14.41,38.64
			c6.7,12.84,13.4,25.69,20.1,38.53c6.21,11.91,13.17,30.83,30.42,24.89c6.29-2.16,11.55-7.75,16.43-12.13
			c4.1-3.69,8.11-7.56,12.52-10.87c9.69-7.27,19.49-9.01,31.4-9.09c12.79-0.08,25.87,0.35,37.93-4.57
			c10.9-4.44,19.3-12.41,27.25-20.87c6.74-7.17,12.92-14.69,22.1-18.03c20.84-7.6,45.08,7.28,61.99,19.04
			c8.72,6.07,17.58,13.37,22.25,23.14c5.36,11.21,3.91,24.78,6.65,36.71c5.35,23.25,20.16,43.13,36.57,59.88
			c8.12,8.29,16.81,15.98,25.56,23.58c4.89,4.25,12.16,4.81,16.97,0c4.34-4.34,4.91-12.7,0-16.97
			c-17.25-14.99-35.13-30.52-46.85-50.42c-5.68-9.65-9.4-19.93-10.55-31.19c-1.41-13.81-2.84-27.2-10.76-39.04
			c-7.36-11.01-17.57-19.41-28.39-26.87c-10.41-7.18-21.39-13.32-33.18-17.93c-12.45-4.86-25.86-7.02-39.12-4.9
			c-12.07,1.93-22.42,8.42-31.18,16.7c-7.48,7.07-14.41,16.52-22.39,21.82c-9.45,6.27-20.46,5.91-31.45,5.91
			c-13.6,0-26.85,0.97-39.11,7.41c-10.86,5.71-19.57,14.75-28.74,22.73c-0.41,0.36-3.61,2.6-3.6,3.05c0-0.26,6.04,2.28,6.47,1.92
			c-0.15,0.12-0.66-1.07-1.18-2.01c-0.96-1.73-1.83-3.51-2.74-5.25c-3.35-6.42-6.7-12.84-10.05-19.27
			c-6.82-13.07-13.98-26.02-20.4-39.3c-2.54-5.26-4.79-10.89-5.55-16.73c0.18,1.39,0.02-0.25,0.01-0.45
			c-0.08-1.06-0.13-2.12-0.15-3.18c-0.04-2.32,0.09-4.62,0.26-6.93c0.27-3.61-0.62,2.02,0.22-1.42c0.26-1.08,0.46-2.16,0.78-3.22
			c0.19-0.65,0.4-1.33,0.67-1.96c-0.14,0.37-0.28,0.74-0.42,1.1c0.72-1.16,0.57-1.08-0.44,0.24c2.32-1.22-2.21,1-2.17,0.99
			c0.01,0-4.28,0.91-2.63,0.25c0.49-0.2,2.86,1.31,0.73,0.21c1.27,0.66,2.52,1.37,3.67,2.24c-1.79-1.35,0.07,0.14,0.45,0.55
			c0.62,0.66,1.29,1.28,1.9,1.96c0.13,0.14,2.35,2.97,0.92,1.04c0.68,0.92,1.32,1.87,1.95,2.83c2.39,3.66,4.45,7.52,6.53,11.35
			c4.56,8.38,9.45,17.23,16.81,23.5c11.13,9.49,24.34,13.62,37.93,6.66c5.86-3,11.4-6.82,17.02-10.25
			c6.32-3.86,12.68-7.63,17.13-13.71c8.26-11.28,5.35-24.12,4.12-36.91c-1.04-10.88,1.38-21.35,8.15-30.27
			c6.32-8.32,15.69-12.24,23.56-19.51c10.19-9.41,14.01-23.46,9.19-36.62c-8.9-24.28-37.65-37.73-62.12-29.46
			c-23.3,7.87-37.44,29.93-59.92,39.39c-10.93,4.6-22.84,6.73-34.67,6.38c-11.03-0.32-21.79-2.18-32.76,0.12
			c-13.46,2.82-23.42,13.49-24.94,27.17c-1.39,12.58,4.35,24.57,10.61,35.08c2.94,4.93,6.07,9.92,7.62,15.49
			c1.26,4.52,0.52,8.3-1.35,10.35c-1.92,2.1-5.83,4.27-8.28,5.2c-4.87,1.84-9.92,3.07-14.94,4.4c-10.84,2.87-22.07,7.9-29.32,16.77
			c-8.09,9.9-9.59,23.14-2.77,34.25c2.87,4.67,6.79,8.55,10.6,12.43c1.57,1.6,3.24,3.2,4.61,4.98c-1.01-1.31,1.64,2.18,1.24,2.06
			c-1.62-0.47,0.36-5.18,1.15-4.9c-0.17-0.06-3.33,1.55-4.61,2.01c-2.96,1.06-5.92,2.11-8.87,3.18c-7.09,2.57-14.15,5.21-21.15,8.03
			c-25.96,10.46-50.18,23.42-72.32,40.61c-10.08,7.83-19.57,16.33-28.45,25.51C28.41,444,45.36,460.99,56.12,449.86L56.12,449.86z"
			/>
	</g>
</g>
<g id="_x33_IWjaK_29_">
	<g>
		<path class="st10" d="M732.14,48.01c0.41-0.22,0.77-0.4,1.12-0.62c4.57-2.78,9.14-5.57,13.72-8.35c4.88-2.96,9.77-5.92,14.64-8.89
			c0.95-0.58,1.96-1.13,2.77-1.87c0.7-0.65,1.24-1.51,1.68-2.37c1.02-1.95,2.49-3.35,4.57-4.08c2.76-0.98,4.89-2.84,6.87-4.91
			c0.6-0.62,1.16-1.32,1.86-1.8c1.36-0.93,3.2-0.73,4.37,0.42c2.43,2.4,4.19,5.24,5.23,8.5c0.64,2.01-0.57,4.06-2.68,4.6
			c-2.28,0.59-4.52,1.29-6.53,2.55c-1.05,0.66-1.99,1.49-2.95,2.27c-1.4,1.13-3,1.62-4.78,1.69c-0.95,0.03-1.94,0.08-2.84,0.35
			c-0.9,0.27-1.75,0.77-2.56,1.27c-2.72,1.66-5.4,3.37-8.1,5.06c-5.74,3.57-11.48,7.14-17.22,10.71c-1.42,0.88-2.82,1.79-4.23,2.69
			c-0.12,0.08-0.23,0.16-0.35,0.25c0.48,0.98,0.98,1.92,1.4,2.89c1.24,2.88,1.89,5.86,1.32,8.99c-0.79,4.34-3.41,7.13-7.53,8.53
			c-1.07,0.36-2.2,0.61-3.32,0.7c-3.1,0.24-5.46,1.71-7.21,4.18c-1.32,1.87-2.54,3.81-3.83,5.7c-1.95,2.87-4.36,5.28-7.41,7
			c-2.83,1.6-5.79,2.52-9.09,1.87c-2.85-0.56-5.29-1.94-7.51-3.74c-2.52-2.03-4.64-4.44-6.52-7.07c-2.76-3.85-4.88-8.01-6.18-12.57
			c-0.79-2.78-1.18-5.6-0.73-8.48c0.53-3.48,2.36-6.12,5.15-8.21c3.72-2.79,7.98-3.92,12.5-4.39c2.17-0.23,4.34-0.52,6.47-0.98
			c2.29-0.5,4-1.93,5.23-3.92c1.18-1.9,2.63-3.55,4.56-4.7c3.15-1.87,6.45-2.06,9.83-0.68c2.81,1.15,4.99,3.1,6.84,5.46
			C731.2,46.67,731.65,47.33,732.14,48.01z M735.88,55.95c-0.23,0.14-0.41,0.25-0.59,0.36c-3.19,1.98-6.37,3.98-9.57,5.94
			c-0.44,0.27-0.62,0.56-0.65,1.09c-0.26,3.87-3.24,7.1-7.09,7.72c-3.87,0.62-7.71-1.51-9.18-5.09c-1.34-3.24-0.6-6.9,1.88-9.36
			c2.44-2.41,6.15-3.1,9.34-1.7c0.35,0.15,0.6,0.13,0.93-0.07c2.85-1.75,5.72-3.47,8.58-5.21c0.59-0.36,1.17-0.72,1.82-1.12
			c-0.51-0.71-0.96-1.37-1.45-1.99c-1.57-1.99-3.4-3.68-5.72-4.78c-3.02-1.43-6.06-1.56-9.08-0.01c-1.98,1.02-3.48,2.57-4.63,4.45
			c-1.58,2.59-3.84,4.23-6.79,4.82c-1.88,0.37-3.79,0.59-5.7,0.78c-4.42,0.43-8.59,1.51-12.21,4.26c-2.71,2.05-4.39,4.65-4.77,8.05
			c-0.26,2.29,0,4.54,0.56,6.76c1.05,4.16,2.86,7.98,5.21,11.57c1.84,2.81,3.95,5.39,6.47,7.62c1.56,1.39,3.26,2.57,5.18,3.43
			c3.91,1.77,7.64,1.25,11.27-0.84c3.04-1.75,5.41-4.18,7.34-7.07c1.18-1.76,2.3-3.55,3.52-5.27c2.01-2.85,4.71-4.51,8.25-4.72
			c0.81-0.05,1.62-0.24,2.4-0.47c4.56-1.31,7.33-4.81,7.51-9.5C738.83,62.13,737.65,59,735.88,55.95z M763.89,29.91
			c-14.16,8.59-28.29,17.15-42.47,25.75c2.05,1.5,3.22,3.44,3.64,5.91c14.08-8.78,28.1-17.52,42.14-26.27
			C766.09,33.49,765.02,31.75,763.89,29.91z M764.68,29.36c1.1,1.79,2.16,3.52,3.23,5.24c0.06,0.09,0.28,0.17,0.38,0.14
			c1.37-0.53,2.82-0.52,4.25-0.59c1.37-0.07,2.59-0.54,3.67-1.4c1.01-0.81,2-1.66,3.08-2.35c2.07-1.32,4.4-2.05,6.76-2.66
			c1.62-0.42,2.51-1.92,2.01-3.48c-0.99-3.04-2.62-5.71-4.89-7.96c-1.13-1.13-2.87-1.04-3.94,0.14c-0.48,0.52-0.94,1.06-1.44,1.57
			c-2.03,2.08-4.27,3.84-7.06,4.82c-1.49,0.53-2.65,1.5-3.43,2.9C766.58,27.02,765.9,28.36,764.68,29.36z M710.19,66.6
			c2.17,3.54,6.84,4.68,10.36,2.52c3.54-2.17,4.67-6.83,2.52-10.37c-2.15-3.54-6.87-4.67-10.42-2.49
			C709.16,58.42,708.05,63.1,710.19,66.6z"/>
		
			<linearGradient id="SVGID_5_" gradientUnits="userSpaceOnUse" x1="762.0898" y1="-106.863" x2="816.8682" y2="-106.863" gradientTransform="matrix(0.9162 0.4008 -0.4008 0.9162 -56.9399 -151.7996)">
			<stop  offset="0.1813" style="stop-color:#1B05FF"/>
			<stop  offset="0.9991" style="stop-color:#46BBFF"/>
		</linearGradient>
		<path style="fill:url(#SVGID_5_);stroke:#9AEDFF;stroke-width:1.2661;stroke-miterlimit:10;" d="M735.88,55.95
			c1.77,3.05,2.95,6.18,2.82,9.67c-0.18,4.69-2.95,8.18-7.51,9.5c-0.78,0.23-1.59,0.42-2.4,0.47c-3.54,0.21-6.25,1.87-8.25,4.72
			c-1.22,1.73-2.34,3.52-3.52,5.27c-1.93,2.89-4.3,5.32-7.34,7.07c-3.64,2.09-7.36,2.6-11.27,0.84c-1.91-0.86-3.61-2.04-5.18-3.43
			c-2.52-2.23-4.63-4.81-6.47-7.62c-2.34-3.58-4.15-7.41-5.21-11.57c-0.56-2.22-0.82-4.47-0.56-6.76c0.39-3.4,2.07-6,4.77-8.05
			c3.62-2.75,7.79-3.83,12.21-4.26c1.91-0.19,3.82-0.41,5.7-0.78c2.95-0.58,5.21-2.23,6.79-4.82c1.15-1.88,2.65-3.43,4.63-4.45
			c3.02-1.55,6.06-1.43,9.08,0.01c2.31,1.1,4.15,2.79,5.72,4.78c0.49,0.62,0.94,1.28,1.45,1.99c-0.64,0.4-1.23,0.76-1.82,1.12
			c-2.86,1.73-5.72,3.46-8.58,5.21c-0.32,0.2-0.58,0.22-0.93,0.07c-3.19-1.4-6.91-0.71-9.34,1.7c-2.48,2.46-3.22,6.12-1.88,9.36
			c1.47,3.57,5.32,5.7,9.18,5.09c3.85-0.61,6.83-3.85,7.09-7.72c0.03-0.52,0.21-0.81,0.65-1.09c3.2-1.96,6.38-3.96,9.57-5.94
			C735.47,56.21,735.65,56.1,735.88,55.95z"/>
		
			<radialGradient id="SVGID_6_" cx="813.1555" cy="-140.2097" r="19.7723" gradientTransform="matrix(0.9162 0.4008 -0.4008 0.9162 -56.9399 -151.7996)" gradientUnits="userSpaceOnUse">
			<stop  offset="0.1813" style="stop-color:#170054"/>
			<stop  offset="0.9991" style="stop-color:#005AF6"/>
		</radialGradient>
		<path class="st5" d="M763.89,29.91c1.13,1.83,2.2,3.57,3.32,5.39c-14.04,8.75-28.06,17.49-42.14,26.27
			c-0.42-2.47-1.59-4.41-3.64-5.91C735.6,47.07,749.73,38.5,763.89,29.91z"/>
		<path class="st13" d="M764.68,29.36c1.22-1,1.9-2.34,2.63-3.64c0.78-1.4,1.94-2.37,3.43-2.9c2.79-0.99,5.03-2.74,7.06-4.82
			c0.5-0.51,0.96-1.05,1.44-1.57c1.07-1.18,2.81-1.27,3.94-0.14c2.27,2.25,3.91,4.92,4.89,7.96c0.51,1.56-0.38,3.06-2.01,3.48
			c-2.37,0.61-4.69,1.34-6.76,2.66c-1.09,0.69-2.08,1.54-3.08,2.35c-1.08,0.87-2.3,1.34-3.67,1.4c-1.44,0.07-2.88,0.06-4.25,0.59
			c-0.1,0.04-0.32-0.04-0.38-0.14C766.84,32.88,765.78,31.16,764.68,29.36z"/>
		<path class="st10" d="M710.19,66.6c-2.15-3.5-1.03-8.18,2.47-10.34c3.55-2.18,8.27-1.06,10.42,2.49c2.15,3.54,1.01,8.2-2.52,10.37
			C717.03,71.28,712.37,70.15,710.19,66.6z M713.5,57.55c-2.84,1.73-3.75,5.39-2.05,8.19c1.79,2.94,5.41,3.86,8.29,2.1
			c2.88-1.76,3.78-5.41,2.04-8.27C720.04,56.69,716.36,55.8,713.5,57.55z"/>
		<path class="st14" d="M713.5,57.55c2.86-1.75,6.54-0.85,8.28,2.02c1.74,2.86,0.84,6.52-2.04,8.27c-2.88,1.76-6.5,0.84-8.29-2.1
			C709.75,62.94,710.66,59.28,713.5,57.55z M712.13,65.47c1.53,2.47,4.82,3.25,7.29,1.72c2.46-1.53,3.25-4.85,1.72-7.3
			c-1.54-2.47-4.83-3.24-7.3-1.71C711.37,59.7,710.6,62.99,712.13,65.47z"/>
		<path class="st15" d="M712.13,65.47c-1.53-2.48-0.76-5.77,1.71-7.3c2.47-1.53,5.77-0.75,7.3,1.71c1.53,2.45,0.75,5.77-1.72,7.3
			C716.95,68.72,713.66,67.94,712.13,65.47z"/>
	</g>
</g>
<g>
	<path d="M7.12,37.25V8.74h8.4c2.71,0,4.83,0.65,6.37,1.95c1.54,1.3,2.3,3.1,2.3,5.39c0,1.3-0.28,2.43-0.84,3.38
		c-0.56,0.95-1.33,1.69-2.32,2.21c-0.99,0.52-2.15,0.78-3.48,0.78v-0.39c1.43-0.03,2.69,0.24,3.79,0.8s1.95,1.39,2.58,2.48
		c0.62,1.09,0.94,2.4,0.94,3.91c0,1.61-0.36,3.03-1.07,4.24c-0.72,1.21-1.73,2.14-3.05,2.79c-1.31,0.65-2.87,0.98-4.67,0.98H7.12z
		 M11.22,20.69h4.26c1.41,0,2.51-0.38,3.32-1.13c0.81-0.75,1.21-1.77,1.21-3.05s-0.4-2.28-1.21-3.03c-0.81-0.74-1.9-1.11-3.28-1.11
		h-4.3V20.69z M11.22,33.62h4.49c1.51,0,2.71-0.4,3.59-1.21c0.88-0.81,1.33-1.93,1.33-3.36c0-1.46-0.44-2.63-1.33-3.51
		c-0.89-0.88-2.08-1.33-3.59-1.33h-4.49V33.62z"/>
	<path d="M30.39,37.25v-3.83h7.54V19.6h-6.56v-3.83h10.66v17.65h6.91v3.83H30.39z M39.57,12.06c-0.91,0-1.64-0.24-2.19-0.72
		s-0.82-1.13-0.82-1.93c0-0.83,0.27-1.49,0.82-1.97c0.55-0.48,1.28-0.72,2.19-0.72c0.91,0,1.64,0.24,2.19,0.72
		c0.55,0.48,0.82,1.14,0.82,1.97c0,0.81-0.27,1.45-0.82,1.93C41.21,11.82,40.48,12.06,39.57,12.06z"/>
	<path d="M65.46,37.25c-1.33,0-2.49-0.27-3.48-0.8c-0.99-0.53-1.76-1.29-2.32-2.28c-0.56-0.99-0.84-2.13-0.84-3.44V12.57h-7.03V8.74
		h11.25v21.98c0,0.83,0.23,1.49,0.7,1.97s1.11,0.72,1.91,0.72h6.64v3.83H65.46z"/>
	<path d="M88.89,37.25c-1.33,0-2.49-0.27-3.48-0.8c-0.99-0.53-1.76-1.29-2.32-2.28c-0.56-0.99-0.84-2.13-0.84-3.44V12.57h-7.03V8.74
		h11.25v21.98c0,0.83,0.23,1.49,0.7,1.97s1.11,0.72,1.91,0.72h6.64v3.83H88.89z"/>
	<path d="M104.23,44.28l3.08-8.28l-8-20.23h4.65l4.49,12.11c0.18,0.52,0.36,1.15,0.55,1.88s0.34,1.33,0.47,1.8
		c0.1-0.47,0.25-1.07,0.43-1.8c0.18-0.73,0.36-1.35,0.55-1.88l4.22-12.11h4.49l-10.47,28.51H104.23z"/>
	<path d="M156.21,37.64c-1.93,0-3.58-0.32-4.96-0.96s-2.45-1.55-3.2-2.73c-0.76-1.18-1.13-2.6-1.13-4.24h4.18
		c0,1.3,0.46,2.32,1.37,3.07c0.91,0.74,2.17,1.11,3.79,1.11c1.51,0,2.69-0.36,3.55-1.09c0.86-0.73,1.29-1.73,1.29-3.01
		c0-1.07-0.29-1.99-0.88-2.77c-0.59-0.78-1.43-1.31-2.52-1.6l-3.59-1.05c-2.08-0.6-3.69-1.62-4.82-3.07
		c-1.13-1.44-1.7-3.17-1.7-5.17c0-1.56,0.35-2.93,1.05-4.1c0.7-1.17,1.7-2.08,3.01-2.73c1.3-0.65,2.84-0.98,4.61-0.98
		c2.6,0,4.69,0.7,6.27,2.11c1.57,1.41,2.38,3.29,2.4,5.66h-4.22c0-1.25-0.4-2.23-1.19-2.95c-0.79-0.72-1.91-1.07-3.34-1.07
		c-1.38,0-2.46,0.33-3.24,1c-0.78,0.66-1.17,1.59-1.17,2.79c0,1.07,0.29,1.99,0.88,2.77c0.59,0.78,1.43,1.33,2.52,1.64l3.63,1.09
		c2.08,0.57,3.68,1.59,4.8,3.05c1.12,1.46,1.68,3.2,1.68,5.23c0,1.59-0.38,2.99-1.13,4.2c-0.76,1.21-1.81,2.15-3.16,2.81
		C159.62,37.31,158.03,37.64,156.21,37.64z"/>
	<path d="M181.86,37.25c-1.95,0-3.48-0.53-4.57-1.6c-1.09-1.07-1.64-2.55-1.64-4.45V19.6h-5.94v-3.83h5.94V9.72h4.22v6.05h8.4v3.83
		h-8.4v11.6c0,1.48,0.72,2.23,2.15,2.23h5.86v3.83H181.86z"/>
	<path d="M195.22,37.25V15.77h4.06v4.1h1.02l-1.29,2.54c0-2.32,0.51-4.07,1.52-5.25c1.02-1.18,2.52-1.78,4.53-1.78
		c2.29,0,4.11,0.71,5.45,2.13c1.34,1.42,2.01,3.36,2.01,5.84v1.44h-4.33V23.7c0-1.54-0.38-2.71-1.15-3.53
		c-0.77-0.82-1.84-1.23-3.22-1.23s-2.45,0.42-3.22,1.25c-0.77,0.83-1.15,2-1.15,3.51v13.55H195.22z"/>
	<path d="M217.83,37.25v-3.83h7.54V19.6h-6.56v-3.83h10.66v17.65h6.91v3.83H217.83z M227,12.06c-0.91,0-1.64-0.24-2.19-0.72
		S224,10.21,224,9.41c0-0.83,0.27-1.49,0.82-1.97c0.55-0.48,1.28-0.72,2.19-0.72c0.91,0,1.64,0.24,2.19,0.72
		c0.55,0.48,0.82,1.14,0.82,1.97c0,0.81-0.27,1.45-0.82,1.93C228.65,11.82,227.92,12.06,227,12.06z"/>
	<path d="M241.37,37.25V15.77h4.18v4.1h1.02l-1.02,0.98c0-1.72,0.51-3.06,1.52-4.02s2.42-1.45,4.22-1.45c2.13,0,3.84,0.68,5.12,2.05
		c1.28,1.37,1.91,3.21,1.91,5.53v14.29h-4.22V23.43c0-1.41-0.38-2.49-1.13-3.24c-0.76-0.75-1.78-1.13-3.09-1.13
		c-1.33,0-2.38,0.4-3.14,1.19c-0.77,0.79-1.15,1.95-1.15,3.46v13.55H241.37z"/>
	<path d="M267.62,44.28v-3.63h6.6c1.09,0,1.91-0.26,2.44-0.78c0.53-0.52,0.8-1.29,0.8-2.3v-2.15l0.08-3.98h-0.9l0.86-0.78
		c0,1.64-0.51,2.93-1.54,3.87s-2.42,1.41-4.16,1.41c-2.21,0-3.96-0.73-5.23-2.19c-1.28-1.46-1.91-3.42-1.91-5.9v-4.37
		c0-2.47,0.64-4.44,1.91-5.9s3.02-2.19,5.23-2.19c1.74,0,3.13,0.48,4.16,1.43c1.03,0.95,1.54,2.25,1.54,3.89l-0.86-0.82h0.86
		l-0.04-4.1h4.18v21.87c0,2.06-0.65,3.68-1.95,4.86s-3.11,1.78-5.43,1.78H267.62z M273.16,32.29c1.33,0,2.38-0.41,3.14-1.23
		c0.77-0.82,1.15-1.96,1.15-3.42V23.7c0-1.46-0.38-2.6-1.15-3.42c-0.77-0.82-1.82-1.23-3.14-1.23c-1.38,0-2.44,0.4-3.18,1.19
		s-1.11,1.95-1.11,3.46v3.94c0,1.48,0.37,2.63,1.11,3.44C270.72,31.89,271.78,32.29,273.16,32.29z"/>
	<path d="M295.93,37.6c-1.54,0-2.88-0.25-4.04-0.74c-1.16-0.49-2.07-1.18-2.73-2.05c-0.66-0.87-1.05-1.91-1.15-3.1h4.22
		c0.1,0.7,0.48,1.27,1.13,1.7s1.51,0.64,2.58,0.64h1.68c1.28,0,2.24-0.26,2.89-0.78c0.65-0.52,0.98-1.21,0.98-2.07
		c0-0.83-0.29-1.49-0.88-1.97s-1.45-0.8-2.6-0.96l-2.77-0.43c-2.29-0.36-3.98-1.02-5.06-1.97s-1.62-2.36-1.62-4.24
		c0-1.98,0.64-3.51,1.93-4.59c1.29-1.08,3.2-1.62,5.72-1.62h1.48c2.24,0,4.03,0.51,5.37,1.54s2.1,2.4,2.28,4.12h-4.22
		c-0.1-0.62-0.45-1.13-1.04-1.52s-1.39-0.59-2.4-0.59h-1.48c-1.22,0-2.12,0.23-2.67,0.68c-0.56,0.46-0.84,1.13-0.84,2.01
		c0,0.78,0.25,1.37,0.74,1.76c0.49,0.39,1.26,0.66,2.3,0.82l2.85,0.47c2.42,0.34,4.2,1.01,5.33,2.01c1.13,1,1.7,2.45,1.7,4.35
		c0,2.06-0.67,3.66-2.01,4.8c-1.34,1.15-3.34,1.72-5.99,1.72H295.93z"/>
	<path d="M314.36,19.09l3.12-12.14h5.62l-5.08,12.14H314.36z"/>
	<path d="M15.63,84.5c-1.93,0-3.58-0.32-4.96-0.96s-2.45-1.55-3.2-2.73c-0.76-1.18-1.13-2.6-1.13-4.24h4.18
		c0,1.3,0.46,2.32,1.37,3.07c0.91,0.74,2.17,1.11,3.79,1.11c1.51,0,2.69-0.36,3.55-1.09c0.86-0.73,1.29-1.73,1.29-3.01
		c0-1.07-0.29-1.99-0.88-2.77c-0.59-0.78-1.43-1.31-2.52-1.6l-3.59-1.05c-2.08-0.6-3.69-1.62-4.82-3.07C7.57,66.71,7,64.99,7,62.98
		c0-1.56,0.35-2.93,1.05-4.1c0.7-1.17,1.7-2.08,3.01-2.73c1.3-0.65,2.84-0.98,4.61-0.98c2.6,0,4.69,0.7,6.27,2.11
		c1.57,1.41,2.38,3.29,2.4,5.66h-4.22c0-1.25-0.4-2.23-1.19-2.95c-0.79-0.72-1.91-1.07-3.34-1.07c-1.38,0-2.46,0.33-3.24,1
		c-0.78,0.66-1.17,1.59-1.17,2.79c0,1.07,0.29,1.99,0.88,2.77c0.59,0.78,1.43,1.33,2.52,1.64l3.63,1.09
		c2.08,0.57,3.68,1.59,4.8,3.05c1.12,1.46,1.68,3.2,1.68,5.23c0,1.59-0.38,2.99-1.13,4.2c-0.76,1.21-1.81,2.15-3.16,2.81
		C19.04,84.17,17.45,84.5,15.63,84.5z"/>
	<path d="M38.94,84.5c-1.74,0-3.27-0.35-4.59-1.04c-1.31-0.69-2.32-1.66-3.03-2.91c-0.7-1.25-1.05-2.71-1.05-4.37v-5.62
		c0-1.69,0.35-3.16,1.05-4.39c0.7-1.24,1.71-2.2,3.03-2.89c1.31-0.69,2.84-1.04,4.59-1.04c1.77,0,3.31,0.35,4.61,1.04
		c1.3,0.69,2.3,1.65,3.01,2.89c0.7,1.24,1.05,2.7,1.05,4.39v3.83H34.34v1.8c0,1.59,0.4,2.8,1.19,3.63c0.79,0.83,1.95,1.25,3.46,1.25
		c1.22,0,2.21-0.21,2.97-0.64c0.75-0.43,1.22-1.06,1.41-1.89h4.18c-0.31,1.82-1.25,3.27-2.81,4.35
		C43.16,83.96,41.23,84.5,38.94,84.5z M43.55,71.85v-1.33c0-1.56-0.39-2.77-1.17-3.63c-0.78-0.86-1.93-1.29-3.44-1.29
		c-1.48,0-2.62,0.43-3.42,1.29c-0.79,0.86-1.19,2.08-1.19,3.67v0.98l9.53-0.04L43.55,71.85z"/>
	<path d="M64.72,84.11c-1.95,0-3.48-0.53-4.57-1.6c-1.09-1.07-1.64-2.55-1.64-4.45v-11.6h-5.94v-3.83h5.94v-6.05h4.22v6.05h8.4v3.83
		h-8.4v11.6c0,1.48,0.72,2.23,2.15,2.23h5.86v3.83H64.72z"/>
	<path d="M88.89,84.11c-1.33,0-2.49-0.27-3.48-0.8c-0.99-0.53-1.76-1.29-2.32-2.28c-0.56-0.99-0.84-2.13-0.84-3.44V59.43h-7.03V55.6
		h11.25v21.98c0,0.83,0.23,1.49,0.7,1.97s1.11,0.72,1.91,0.72h6.64v3.83H88.89z"/>
	<path d="M100.68,84.11v-3.83h7.54V66.46h-6.56v-3.83h10.66v17.65h6.91v3.83H100.68z M109.86,58.92c-0.91,0-1.64-0.24-2.19-0.72
		s-0.82-1.13-0.82-1.93c0-0.83,0.27-1.49,0.82-1.97c0.55-0.48,1.28-0.72,2.19-0.72c0.91,0,1.64,0.24,2.19,0.72
		c0.55,0.48,0.82,1.14,0.82,1.97c0,0.81-0.27,1.45-0.82,1.93C111.5,58.68,110.77,58.92,109.86,58.92z"/>
	<path d="M131.92,84.46c-1.54,0-2.88-0.25-4.04-0.74c-1.16-0.49-2.07-1.18-2.73-2.05c-0.66-0.87-1.05-1.91-1.15-3.1h4.22
		c0.1,0.7,0.48,1.27,1.13,1.7c0.65,0.43,1.51,0.64,2.58,0.64h1.68c1.28,0,2.24-0.26,2.89-0.78c0.65-0.52,0.98-1.21,0.98-2.07
		c0-0.83-0.29-1.49-0.88-1.97c-0.59-0.48-1.45-0.8-2.6-0.96l-2.77-0.43c-2.29-0.36-3.98-1.02-5.06-1.97
		c-1.08-0.95-1.62-2.36-1.62-4.24c0-1.98,0.64-3.51,1.93-4.59s3.2-1.62,5.72-1.62h1.48c2.24,0,4.03,0.51,5.37,1.54
		c1.34,1.03,2.1,2.4,2.28,4.12h-4.22c-0.1-0.62-0.45-1.13-1.03-1.52c-0.59-0.39-1.39-0.59-2.4-0.59h-1.48
		c-1.22,0-2.12,0.23-2.67,0.68c-0.56,0.46-0.84,1.13-0.84,2.01c0,0.78,0.25,1.37,0.74,1.76c0.49,0.39,1.26,0.66,2.3,0.82l2.85,0.47
		c2.42,0.34,4.2,1.01,5.33,2.01s1.7,2.45,1.7,4.35c0,2.06-0.67,3.66-2.01,4.8c-1.34,1.15-3.34,1.72-5.99,1.72H131.92z"/>
	<path d="M158.43,84.11c-1.95,0-3.48-0.53-4.57-1.6c-1.09-1.07-1.64-2.55-1.64-4.45v-11.6h-5.94v-3.83h5.94v-6.05h4.22v6.05h8.4
		v3.83h-8.4v11.6c0,1.48,0.72,2.23,2.15,2.23h5.86v3.83H158.43z"/>
	<path d="M194.67,84.11V55.56h17.22v3.9h-13.12v8.51h12.11v3.91h-12.03v12.22H194.67z"/>
	<path d="M226.38,84.46c-1.77,0-3.31-0.34-4.61-1.02s-2.3-1.64-3.01-2.89c-0.7-1.25-1.05-2.72-1.05-4.41V70.6
		c0-1.72,0.35-3.2,1.05-4.43c0.7-1.24,1.71-2.19,3.01-2.87c1.3-0.68,2.84-1.02,4.61-1.02c1.77,0,3.31,0.34,4.61,1.02
		c1.3,0.68,2.3,1.63,3.01,2.87c0.7,1.24,1.05,2.71,1.05,4.43v5.54c0,1.69-0.35,3.16-1.05,4.41c-0.7,1.25-1.71,2.21-3.01,2.89
		C229.69,84.12,228.15,84.46,226.38,84.46z M226.38,80.75c1.43,0,2.54-0.4,3.32-1.19c0.78-0.79,1.17-1.93,1.17-3.42V70.6
		c0-1.51-0.39-2.66-1.17-3.44c-0.78-0.78-1.89-1.17-3.32-1.17c-1.41,0-2.51,0.39-3.3,1.17c-0.79,0.78-1.19,1.93-1.19,3.44v5.54
		c0,1.48,0.4,2.62,1.19,3.42C223.87,80.35,224.97,80.75,226.38,80.75z"/>
	<path d="M242.08,84.11V62.63h4.06v4.1h1.02l-1.29,2.54c0-2.32,0.51-4.07,1.52-5.25c1.02-1.18,2.52-1.78,4.53-1.78
		c2.29,0,4.11,0.71,5.45,2.13c1.34,1.42,2.01,3.36,2.01,5.84v1.44h-4.34v-1.09c0-1.54-0.38-2.71-1.15-3.53
		c-0.77-0.82-1.84-1.23-3.22-1.23c-1.38,0-2.45,0.42-3.22,1.25c-0.77,0.83-1.15,2-1.15,3.51v13.55H242.08z"/>
	<path d="M273.24,84.5c-1.74,0-3.27-0.35-4.59-1.04c-1.32-0.69-2.32-1.66-3.03-2.91c-0.7-1.25-1.05-2.71-1.05-4.37v-5.62
		c0-1.69,0.35-3.16,1.05-4.39c0.7-1.24,1.71-2.2,3.03-2.89c1.31-0.69,2.84-1.04,4.59-1.04c1.77,0,3.31,0.35,4.61,1.04
		c1.3,0.69,2.3,1.65,3.01,2.89c0.7,1.24,1.05,2.7,1.05,4.39v3.83h-13.28v1.8c0,1.59,0.4,2.8,1.19,3.63
		c0.79,0.83,1.95,1.25,3.46,1.25c1.22,0,2.21-0.21,2.97-0.64s1.22-1.06,1.41-1.89h4.18c-0.31,1.82-1.25,3.27-2.81,4.35
		C277.46,83.96,275.53,84.5,273.24,84.5z M277.85,71.85v-1.33c0-1.56-0.39-2.77-1.17-3.63s-1.93-1.29-3.44-1.29
		c-1.48,0-2.62,0.43-3.42,1.29s-1.19,2.08-1.19,3.67v0.98l9.53-0.04L277.85,71.85z"/>
	<path d="M296.82,84.5c-1.77,0-3.33-0.33-4.67-1c-1.34-0.66-2.37-1.63-3.08-2.89c-0.72-1.26-1.07-2.74-1.07-4.43v-5.62
		c0-1.72,0.36-3.2,1.07-4.45c0.71-1.25,1.74-2.21,3.08-2.87c1.34-0.66,2.9-1,4.67-1c2.58,0,4.65,0.68,6.21,2.03
		c1.56,1.35,2.38,3.2,2.46,5.54h-4.22c-0.08-1.22-0.51-2.17-1.29-2.85s-1.83-1.02-3.16-1.02c-1.43,0-2.56,0.4-3.4,1.19
		s-1.25,1.92-1.25,3.38v5.66c0,1.46,0.42,2.59,1.25,3.4s1.97,1.21,3.4,1.21c1.33,0,2.38-0.34,3.16-1.02
		c0.78-0.68,1.21-1.63,1.29-2.85h4.22c-0.08,2.34-0.9,4.19-2.46,5.55C301.47,83.82,299.4,84.5,296.82,84.5z"/>
	<path d="M317.95,84.5c-2.24,0-4-0.58-5.29-1.74c-1.29-1.16-1.93-2.74-1.93-4.74c0-2.03,0.68-3.62,2.05-4.78
		c1.37-1.16,3.25-1.74,5.64-1.74h5.97V69.5c0-1.17-0.37-2.08-1.09-2.73c-0.73-0.65-1.76-0.98-3.08-0.98c-1.17,0-2.15,0.25-2.93,0.76
		s-1.24,1.18-1.37,2.01h-4.14c0.23-1.93,1.13-3.46,2.67-4.61s3.51-1.72,5.88-1.72c2.55,0,4.57,0.64,6.05,1.93
		c1.48,1.29,2.23,3.04,2.23,5.25v14.68h-4.1v-3.94h-0.7l0.7-0.78c0,1.56-0.6,2.8-1.8,3.73C321.52,84.04,319.93,84.5,317.95,84.5z
		 M319.2,81.26c1.51,0,2.75-0.38,3.73-1.15c0.98-0.77,1.46-1.75,1.46-2.95v-2.81h-5.9c-1.09,0-1.96,0.3-2.6,0.9
		c-0.64,0.6-0.96,1.42-0.96,2.46c0,1.09,0.38,1.96,1.13,2.6C316.83,80.94,317.87,81.26,319.2,81.26z"/>
	<path d="M342.78,84.46c-1.54,0-2.88-0.25-4.04-0.74c-1.16-0.49-2.07-1.18-2.73-2.05c-0.66-0.87-1.05-1.91-1.15-3.1h4.22
		c0.1,0.7,0.48,1.27,1.13,1.7s1.51,0.64,2.58,0.64h1.68c1.28,0,2.24-0.26,2.89-0.78c0.65-0.52,0.98-1.21,0.98-2.07
		c0-0.83-0.29-1.49-0.88-1.97s-1.45-0.8-2.6-0.96l-2.77-0.43c-2.29-0.36-3.98-1.02-5.06-1.97s-1.62-2.36-1.62-4.24
		c0-1.98,0.64-3.51,1.93-4.59c1.29-1.08,3.2-1.62,5.72-1.62h1.48c2.24,0,4.03,0.51,5.37,1.54s2.1,2.4,2.28,4.12h-4.22
		c-0.1-0.62-0.45-1.13-1.04-1.52s-1.39-0.59-2.4-0.59h-1.48c-1.22,0-2.12,0.23-2.67,0.68c-0.56,0.46-0.84,1.13-0.84,2.01
		c0,0.78,0.25,1.37,0.74,1.76c0.49,0.39,1.26,0.66,2.3,0.82l2.85,0.47c2.42,0.34,4.2,1.01,5.33,2.01c1.13,1,1.7,2.45,1.7,4.35
		c0,2.06-0.67,3.66-2.01,4.8c-1.34,1.15-3.34,1.72-5.99,1.72H342.78z"/>
	<path d="M369.3,84.11c-1.95,0-3.48-0.53-4.57-1.6c-1.09-1.07-1.64-2.55-1.64-4.45v-11.6h-5.94v-3.83h5.94v-6.05h4.22v6.05h8.4v3.83
		h-8.4v11.6c0,1.48,0.72,2.23,2.15,2.23h5.86v3.83H369.3z"/>
</g>
</svg>
