<?xml version="1.0" encoding="utf-8"?>
<!-- Generator: Adobe Illustrator 24.1.0, SVG Export Plug-In . SVG Version: 6.00 Build 0)  -->
<svg version="1.1" id="Layer_1" xmlns="http://www.w3.org/2000/svg" xmlns:xlink="http://www.w3.org/1999/xlink" x="0px" y="0px"
	 viewBox="0 0 600 200" style="enable-background:new 0 0 600 200;" xml:space="preserve">
<style type="text/css">
	.st0{fill:url(#SVGID_1_);}
	.st1{fill:url(#SVGID_2_);}
	.st2{fill:url(#SVGID_3_);}
	.st3{fill:url(#SVGID_4_);}
	.st4{fill:url(#SVGID_5_);}
	.st5{fill:url(#SVGID_6_);}
	.st6{fill:url(#SVGID_7_);}
	.st7{fill:url(#SVGID_8_);}
	.st8{fill:url(#SVGID_9_);}
	.st9{fill:url(#SVGID_10_);}
	.st10{fill:#070041;}
	.st11{fill:url(#SVGID_11_);stroke:#9AEDFF;stroke-miterlimit:10;}
	.st12{fill:url(#SVGID_12_);}
	.st13{fill:#33A4FF;}
	.st14{fill:#54BCFF;}
	.st15{fill:#F6FCFF;}
	.st16{fill:url(#SVGID_13_);stroke:#9AEDFF;stroke-width:0.5922;stroke-miterlimit:10;}
	.st17{fill:url(#SVGID_14_);}
	.st18{fill:url(#SVGID_15_);stroke:#9AEDFF;stroke-width:1.2661;stroke-miterlimit:10;}
	.st19{fill:url(#SVGID_16_);}
</style>
<g>
	<g>
		<linearGradient id="SVGID_1_" gradientUnits="userSpaceOnUse" x1="213.7231" y1="102.5495" x2="408.8705" y2="102.5495">
			<stop  offset="0" style="stop-color:#6782FF"/>
			<stop  offset="0.3714" style="stop-color:#00E6F6"/>
			<stop  offset="0.7364" style="stop-color:#25DB00"/>
			<stop  offset="0.9974" style="stop-color:#D6FF92"/>
		</linearGradient>
		<path class="st0" d="M405.54-13.62c-16.79,12.88-30.9,28.87-41.04,47.5c-5.05,9.28-8.92,19.07-12.08,29.15
			c-3.12,9.98-6.3,20.39-15.97,25.87c-8.61,4.88-19.13,5.33-28.78,5.13c-9.5-0.19-21.08-0.62-27.68-8.52
			c-3.34-3.99-5.38-9.09-7.64-13.73c-2.93-6.01-5.86-12.02-8.79-18.02c-0.14-0.29-0.28-0.57-0.42-0.86
			c-0.74-2.71-1.58-2.3-2.53,1.22c0.06,0.06,1.94-0.04,2.27-0.05c2.33-0.1,4.67-0.33,6.92-0.99c4.65-1.38,8.99-4.12,12.03-7.9
			c6.11-7.6,4.99-17.65-1.88-24.35c-7.58-7.38-19.45-10.74-28.9-14.92c-8.73-3.86-22.02-11.41-28.62,0.03
			c-2.46,4.27-3.15,9.93-3.94,14.7c-1.11,6.65-1.78,13.39-1.71,20.14c0.25,21.51,8.03,43.89,24.83,58.09
			c3.3,2.79,7.9,4.92,10.69,8.21c3.47,4.09,2.82,11.24,3.34,16.31c0.99,9.66,2.35,19.7,7.36,28.22c2.85,4.85,6.77,8.6,11.34,11.82
			c4.83,3.4,10.16,6.1,12.37,11.96c4.46,11.82-5.86,21.95-17.45,20.93c-11.93-1.05-22.52-7.41-34.83-5.43
			c-11.09,1.78-20.98,9.53-25.42,19.83c-3.03,7.02,7.31,13.13,10.36,6.06c3.98-9.22,12.59-15.08,22.78-14.27
			c10.83,0.85,20.75,6.75,31.85,5.81c20.95-1.78,33.12-26.04,20.51-43.48c-6.04-8.36-16.91-11.18-21.84-20.5
			c-4.52-8.55-4.83-18.9-5.73-28.32c-0.48-5.05-0.98-10.16-3.85-14.5c-2.97-4.5-7.66-6.91-11.81-10.13
			c-7.92-6.16-13.94-14.83-17.58-24.13c-4.22-10.78-5.46-22.38-4.72-33.88c0.4-6.25,1.32-12.59,2.96-18.64
			c0.75-2.78,0.87-3.35,3.88-2.41c2.84,0.89,5.57,2.37,8.3,3.58c5.88,2.6,11.78,5.15,17.63,7.79c3.69,1.67,8.38,3.47,10.9,6.83
			c2.49,3.32,1,6.7-2.06,9c-4.01,3.03-8.19,1.89-12.7,2.97c-4.04,0.97-7.11,3.79-7.54,8.04c-0.55,5.43,3.93,11.51,6.2,16.17
			c4.69,9.61,8.67,21.53,16.59,29.06c7.49,7.12,17.78,9.27,27.76,10c9.93,0.73,20.36,0.58,30.05-1.91
			c10.75-2.76,20.05-8.99,25.64-18.71c5.75-10,7.76-21.7,12.1-32.31c8.99-21.96,24.08-41.63,42.9-56.07
			C417.64-7.89,411.67-18.32,405.54-13.62L405.54-13.62z"/>
	</g>
</g>
<g>
	<g>
		<radialGradient id="SVGID_2_" cx="81.8471" cy="109.5092" r="95.5713" gradientUnits="userSpaceOnUse">
			<stop  offset="0.386" style="stop-color:#67BFFF"/>
			<stop  offset="0.7364" style="stop-color:#E4FF54"/>
			<stop  offset="0.9983" style="stop-color:#FF9DB2"/>
		</radialGradient>
		<path class="st1" d="M-14,131.35c8.19-9.36,21.34-10.55,32.89-12.58c15.17-2.66,29.45-7.91,43.48-14.14
			c12.62-5.6,27.66-10.45,34.43-23.44c3.47-6.65,5.83-13.97,8.55-20.94c2.57-6.58,4.59-14.26,8.84-20
			c9.04-12.2,26.07-4.59,38.41-7.48c3.31-0.77,6.25-2.37,9.1-4.16c2.53-1.59,5.13-3.74,8.2-2.31c5.73,2.67,6.64,10.85,5.74,16.27
			c-2.25,13.65-13.99,22.74-23.06,32.1c-9.74,10.05-17.97,22.25-20.75,36.18c-1.54,7.75-1.29,15.44,0.46,23.13
			c1.8,7.87,5.14,15.48,6.13,23.53c2.01,16.28-11.92,26.66-20.03,38.96c-4.26,6.47,6.12,12.48,10.36,6.06
			c7.73-11.72,19.41-21.21,21.49-35.85c2.29-16.09-7.83-30.23-7.53-46.05c0.29-15.49,9.57-28.65,20.08-39.23
			c10.2-10.27,21.68-20.69,24.41-35.63c2.34-12.81-2.96-31.25-18.65-32.01c-7.44-0.36-11.73,5.35-18.32,7.22
			c-7.43,2.1-15.87-0.54-23.54,0.37c-6.94,0.83-13.68,3.15-18.85,8.02c-5.56,5.24-8.19,12.62-10.9,19.57
			c-3.04,7.8-5.83,15.75-9.19,23.42c-3.3,7.54-8.11,11.01-15.4,14.48c-17.28,8.24-34.83,16.29-53.77,19.84
			c-14.6,2.74-30.66,4.28-41.08,16.18C-27.55,128.66-19.1,137.18-14,131.35L-14,131.35z"/>
	</g>
</g>
<g>
	<path d="M6.53,31.48V8.06h6.9c2.22,0,3.97,0.54,5.23,1.6c1.26,1.07,1.89,2.54,1.89,4.43c0,1.07-0.23,1.99-0.69,2.78
		c-0.46,0.78-1.1,1.38-1.91,1.81c-0.81,0.43-1.76,0.64-2.85,0.64V19c1.18-0.02,2.21,0.2,3.11,0.66c0.9,0.46,1.6,1.14,2.12,2.04
		s0.77,1.97,0.77,3.21c0,1.33-0.29,2.49-0.88,3.48c-0.59,1-1.42,1.76-2.5,2.29c-1.08,0.53-2.36,0.8-3.83,0.8H6.53z M9.9,17.88h3.5
		c1.15,0,2.06-0.31,2.73-0.93c0.66-0.62,0.99-1.45,0.99-2.5s-0.33-1.88-0.99-2.49c-0.66-0.61-1.56-0.91-2.69-0.91H9.9V17.88z
		 M9.9,28.5h3.69c1.24,0,2.22-0.33,2.95-0.99c0.73-0.66,1.09-1.58,1.09-2.76c0-1.2-0.36-2.16-1.09-2.89
		c-0.73-0.73-1.71-1.09-2.95-1.09H9.9V28.5z"/>
	<path d="M25.64,31.48v-3.14h6.19V16.98h-5.39v-3.14h8.76v14.5h5.68v3.14H25.64z M33.18,10.79c-0.75,0-1.35-0.2-1.8-0.59
		c-0.45-0.39-0.67-0.92-0.67-1.59c0-0.68,0.22-1.22,0.67-1.62s1.05-0.59,1.8-0.59c0.75,0,1.35,0.2,1.8,0.59
		c0.45,0.4,0.67,0.94,0.67,1.62c0,0.66-0.22,1.19-0.67,1.59C34.53,10.59,33.93,10.79,33.18,10.79z"/>
	<path d="M54.45,31.48c-1.09,0-2.04-0.22-2.86-0.66s-1.45-1.06-1.91-1.88C49.23,28.13,49,27.19,49,26.12V11.21h-5.77V8.06h9.24
		v18.06c0,0.68,0.19,1.22,0.58,1.62c0.38,0.4,0.91,0.59,1.57,0.59h5.45v3.14H54.45z"/>
	<path d="M73.69,31.48c-1.09,0-2.04-0.22-2.86-0.66s-1.45-1.06-1.91-1.88c-0.46-0.81-0.69-1.75-0.69-2.82V11.21h-5.77V8.06h9.24
		v18.06c0,0.68,0.19,1.22,0.58,1.62c0.38,0.4,0.91,0.59,1.57,0.59h5.45v3.14H73.69z"/>
	<path d="M86.3,37.25l2.53-6.8l-6.58-16.62h3.82l3.69,9.94c0.15,0.43,0.3,0.94,0.45,1.54c0.15,0.6,0.28,1.09,0.38,1.47
		c0.08-0.38,0.2-0.88,0.35-1.47s0.3-1.11,0.45-1.54l3.46-9.94h3.69l-8.6,23.42H86.3z"/>
	<path d="M128.99,31.8c-1.58,0-2.94-0.26-4.07-0.79c-1.13-0.52-2.01-1.27-2.63-2.25c-0.62-0.97-0.93-2.13-0.93-3.48h3.43
		c0,1.07,0.37,1.91,1.12,2.52c0.75,0.61,1.79,0.91,3.11,0.91c1.24,0,2.21-0.3,2.92-0.9c0.71-0.6,1.06-1.42,1.06-2.47
		c0-0.88-0.24-1.64-0.72-2.28s-1.17-1.08-2.07-1.31l-2.95-0.87c-1.71-0.49-3.03-1.33-3.96-2.52c-0.93-1.19-1.4-2.6-1.4-4.25
		c0-1.28,0.29-2.41,0.87-3.37c0.58-0.96,1.4-1.71,2.47-2.25c1.07-0.53,2.33-0.8,3.79-0.8c2.14,0,3.85,0.58,5.15,1.73
		c1.29,1.15,1.95,2.71,1.97,4.65h-3.46c0-1.03-0.33-1.83-0.98-2.42c-0.65-0.59-1.57-0.88-2.74-0.88c-1.13,0-2.02,0.27-2.66,0.82
		c-0.64,0.54-0.96,1.31-0.96,2.29c0,0.88,0.24,1.64,0.72,2.28s1.17,1.09,2.07,1.35l2.98,0.9c1.71,0.47,3.03,1.3,3.95,2.5
		c0.92,1.2,1.38,2.63,1.38,4.3c0,1.3-0.31,2.45-0.93,3.45s-1.49,1.76-2.6,2.31C131.79,31.53,130.49,31.8,128.99,31.8z"/>
	<path d="M150.07,31.48c-1.6,0-2.86-0.44-3.75-1.32c-0.9-0.88-1.35-2.09-1.35-3.66v-9.53h-4.88v-3.14h4.88V8.87h3.46v4.97h6.9v3.14
		h-6.9v9.53c0,1.22,0.59,1.83,1.76,1.83h4.81v3.14H150.07z"/>
	<path d="M161.04,31.48V13.84h3.34v3.37h0.83l-1.06,2.08c0-1.9,0.42-3.34,1.25-4.31c0.83-0.97,2.07-1.46,3.72-1.46
		c1.88,0,3.37,0.58,4.47,1.75c1.1,1.17,1.65,2.76,1.65,4.8v1.19h-3.56v-0.9c0-1.26-0.32-2.23-0.95-2.9s-1.51-1.01-2.65-1.01
		c-1.13,0-2.02,0.34-2.65,1.03c-0.63,0.68-0.95,1.65-0.95,2.89v11.13H161.04z"/>
	<path d="M179.61,31.48v-3.14h6.19V16.98h-5.39v-3.14h8.76v14.5h5.68v3.14H179.61z M187.15,10.79c-0.75,0-1.35-0.2-1.8-0.59
		c-0.45-0.39-0.67-0.92-0.67-1.59c0-0.68,0.22-1.22,0.67-1.62s1.05-0.59,1.8-0.59c0.75,0,1.35,0.2,1.8,0.59s0.67,0.94,0.67,1.62
		c0,0.66-0.22,1.19-0.67,1.59C188.49,10.59,187.9,10.79,187.15,10.79z"/>
	<path d="M198.95,31.48V13.84h3.43v3.37h0.83l-0.83,0.8c0-1.41,0.42-2.51,1.25-3.3c0.83-0.79,1.99-1.19,3.46-1.19
		c1.75,0,3.15,0.56,4.2,1.68c1.05,1.12,1.57,2.64,1.57,4.54v11.74h-3.46V20.12c0-1.15-0.31-2.04-0.93-2.66
		c-0.62-0.62-1.46-0.93-2.53-0.93c-1.09,0-1.95,0.33-2.58,0.98c-0.63,0.65-0.95,1.6-0.95,2.84v11.13H198.95z"/>
	<path d="M220.51,37.25v-2.98h5.42c0.9,0,1.57-0.21,2-0.64c0.44-0.43,0.66-1.06,0.66-1.89v-1.76l0.06-3.27h-0.74l0.71-0.64
		c0,1.35-0.42,2.41-1.27,3.18c-0.85,0.77-1.98,1.15-3.42,1.15c-1.82,0-3.25-0.6-4.3-1.8s-1.57-2.81-1.57-4.84v-3.59
		c0-2.03,0.52-3.65,1.57-4.84c1.05-1.2,2.48-1.8,4.3-1.8c1.43,0,2.57,0.39,3.42,1.17c0.84,0.78,1.27,1.84,1.27,3.19l-0.71-0.67h0.71
		l-0.03-3.37h3.43V31.8c0,1.69-0.54,3.02-1.6,3.99c-1.07,0.97-2.56,1.46-4.46,1.46H220.51z M225.06,27.41
		c1.09,0,1.95-0.34,2.58-1.01s0.95-1.61,0.95-2.81v-3.24c0-1.2-0.32-2.13-0.95-2.81c-0.63-0.67-1.49-1.01-2.58-1.01
		c-1.13,0-2,0.33-2.61,0.98c-0.61,0.65-0.91,1.6-0.91,2.84v3.24c0,1.22,0.3,2.16,0.91,2.82C223.06,27.07,223.93,27.41,225.06,27.41z
		"/>
	<path d="M243.76,31.77c-1.26,0-2.37-0.2-3.32-0.61c-0.95-0.41-1.7-0.97-2.25-1.68c-0.54-0.72-0.86-1.57-0.95-2.55h3.46
		c0.09,0.58,0.4,1.04,0.93,1.4c0.53,0.35,1.24,0.53,2.12,0.53h1.38c1.05,0,1.84-0.21,2.37-0.64c0.53-0.43,0.8-1,0.8-1.7
		c0-0.68-0.24-1.22-0.72-1.62c-0.48-0.4-1.19-0.66-2.13-0.79l-2.28-0.35c-1.88-0.3-3.27-0.84-4.15-1.62
		c-0.89-0.78-1.33-1.94-1.33-3.48c0-1.62,0.53-2.88,1.59-3.77c1.06-0.89,2.62-1.33,4.7-1.33h1.22c1.84,0,3.31,0.42,4.41,1.27
		c1.1,0.85,1.73,1.97,1.88,3.38h-3.46c-0.08-0.51-0.37-0.93-0.85-1.25c-0.48-0.32-1.14-0.48-1.97-0.48h-1.22
		c-1.01,0-1.74,0.19-2.2,0.56c-0.46,0.37-0.69,0.92-0.69,1.65c0,0.64,0.2,1.12,0.61,1.44c0.41,0.32,1.04,0.55,1.89,0.67l2.34,0.38
		c1.99,0.28,3.45,0.83,4.38,1.65c0.93,0.82,1.4,2.02,1.4,3.58c0,1.69-0.55,3-1.65,3.95c-1.1,0.94-2.74,1.41-4.92,1.41H243.76z"/>
	<path d="M258.9,16.56l2.57-9.98h4.62l-4.17,9.98H258.9z"/>
	<path d="M13.52,70.29c-1.58,0-2.94-0.26-4.07-0.79c-1.13-0.52-2.01-1.27-2.63-2.25c-0.62-0.97-0.93-2.13-0.93-3.48h3.43
		c0,1.07,0.37,1.91,1.12,2.52s1.79,0.91,3.11,0.91c1.24,0,2.21-0.3,2.92-0.9c0.71-0.6,1.06-1.42,1.06-2.47
		c0-0.88-0.24-1.64-0.72-2.28c-0.48-0.64-1.17-1.08-2.07-1.31l-2.95-0.87c-1.71-0.49-3.03-1.33-3.96-2.52
		c-0.93-1.19-1.4-2.6-1.4-4.25c0-1.28,0.29-2.41,0.87-3.37c0.58-0.96,1.4-1.71,2.47-2.25c1.07-0.53,2.33-0.8,3.79-0.8
		c2.14,0,3.85,0.58,5.15,1.73c1.29,1.15,1.95,2.71,1.97,4.65h-3.46c0-1.03-0.33-1.83-0.98-2.42c-0.65-0.59-1.57-0.88-2.74-0.88
		c-1.13,0-2.02,0.27-2.66,0.82c-0.64,0.54-0.96,1.31-0.96,2.29c0,0.88,0.24,1.64,0.72,2.28s1.17,1.09,2.07,1.35l2.98,0.9
		c1.71,0.47,3.03,1.3,3.95,2.5c0.92,1.2,1.38,2.63,1.38,4.3c0,1.3-0.31,2.45-0.93,3.45s-1.49,1.76-2.6,2.31
		C16.32,70.02,15.02,70.29,13.52,70.29z"/>
	<path d="M32.67,70.29c-1.43,0-2.69-0.28-3.77-0.85c-1.08-0.57-1.91-1.36-2.49-2.39c-0.58-1.03-0.87-2.22-0.87-3.59v-4.62
		c0-1.39,0.29-2.59,0.87-3.61c0.58-1.02,1.41-1.81,2.49-2.37c1.08-0.57,2.34-0.85,3.77-0.85c1.45,0,2.72,0.28,3.79,0.85
		c1.07,0.57,1.89,1.36,2.47,2.37c0.58,1.02,0.87,2.22,0.87,3.61v3.14H28.88v1.48c0,1.3,0.33,2.3,0.98,2.98
		c0.65,0.68,1.6,1.03,2.84,1.03c1.01,0,1.82-0.18,2.44-0.53c0.62-0.35,1-0.87,1.15-1.56h3.43c-0.26,1.5-1.03,2.69-2.31,3.58
		C36.13,69.85,34.55,70.29,32.67,70.29z M36.46,59.9v-1.09c0-1.28-0.32-2.28-0.96-2.98c-0.64-0.71-1.58-1.06-2.82-1.06
		c-1.22,0-2.15,0.35-2.81,1.06c-0.65,0.71-0.98,1.71-0.98,3.01v0.8l7.83-0.03L36.46,59.9z"/>
	<path d="M53.84,69.97c-1.6,0-2.86-0.44-3.75-1.32c-0.9-0.88-1.35-2.09-1.35-3.66v-9.53h-4.88v-3.14h4.88v-4.97h3.46v4.97h6.9v3.14
		h-6.9V65c0,1.22,0.59,1.83,1.76,1.83h4.81v3.14H53.84z"/>
	<path d="M73.69,69.97c-1.09,0-2.04-0.22-2.86-0.66s-1.45-1.06-1.91-1.88c-0.46-0.81-0.69-1.75-0.69-2.82V49.7h-5.77v-3.14h9.24
		v18.06c0,0.68,0.19,1.22,0.58,1.62c0.38,0.4,0.91,0.59,1.57,0.59h5.45v3.14H73.69z"/>
	<path d="M83.38,69.97v-3.14h6.19V55.47h-5.39v-3.14h8.76v14.5h5.68v3.14H83.38z M90.92,49.28c-0.75,0-1.35-0.2-1.8-0.59
		c-0.45-0.39-0.67-0.92-0.67-1.59c0-0.68,0.22-1.22,0.67-1.62s1.05-0.59,1.8-0.59c0.75,0,1.35,0.2,1.8,0.59s0.67,0.94,0.67,1.62
		c0,0.66-0.22,1.19-0.67,1.59C92.27,49.08,91.67,49.28,90.92,49.28z"/>
	<path d="M109.04,70.26c-1.26,0-2.37-0.2-3.32-0.61c-0.95-0.41-1.7-0.97-2.25-1.68c-0.54-0.72-0.86-1.57-0.95-2.55h3.46
		c0.09,0.58,0.4,1.04,0.93,1.4c0.53,0.35,1.24,0.53,2.12,0.53h1.38c1.05,0,1.84-0.21,2.37-0.64c0.53-0.43,0.8-1,0.8-1.7
		c0-0.68-0.24-1.22-0.72-1.62c-0.48-0.4-1.19-0.66-2.13-0.79l-2.28-0.35c-1.88-0.3-3.27-0.84-4.15-1.62
		c-0.89-0.78-1.33-1.94-1.33-3.48c0-1.62,0.53-2.88,1.59-3.77c1.06-0.89,2.62-1.33,4.7-1.33h1.22c1.84,0,3.31,0.42,4.41,1.27
		c1.1,0.85,1.73,1.97,1.88,3.38h-3.46c-0.08-0.51-0.37-0.93-0.85-1.25c-0.48-0.32-1.14-0.48-1.97-0.48h-1.22
		c-1.01,0-1.74,0.19-2.2,0.56c-0.46,0.37-0.69,0.92-0.69,1.65c0,0.64,0.2,1.12,0.61,1.44c0.41,0.32,1.04,0.55,1.89,0.67l2.34,0.38
		c1.99,0.28,3.45,0.83,4.38,1.65c0.93,0.82,1.4,2.02,1.4,3.58c0,1.69-0.55,3-1.65,3.95c-1.1,0.94-2.74,1.41-4.92,1.41H109.04z"/>
	<path d="M130.82,69.97c-1.6,0-2.86-0.44-3.75-1.32c-0.9-0.88-1.35-2.09-1.35-3.66v-9.53h-4.88v-3.14h4.88v-4.97h3.46v4.97h6.9v3.14
		h-6.9V65c0,1.22,0.59,1.83,1.76,1.83h4.81v3.14H130.82z"/>
	<path d="M160.59,69.97V46.52h14.15v3.21h-10.78v6.99h9.94v3.21h-9.88v10.04H160.59z"/>
	<path d="M186.63,70.26c-1.45,0-2.72-0.28-3.79-0.83c-1.07-0.56-1.89-1.35-2.47-2.37s-0.87-2.23-0.87-3.62v-4.55
		c0-1.41,0.29-2.62,0.87-3.64s1.4-1.8,2.47-2.36c1.07-0.56,2.33-0.83,3.79-0.83s2.72,0.28,3.79,0.83c1.07,0.56,1.89,1.34,2.47,2.36
		s0.87,2.23,0.87,3.64v4.55c0,1.39-0.29,2.6-0.87,3.62s-1.4,1.82-2.47,2.37C189.35,69.98,188.09,70.26,186.63,70.26z M186.63,67.21
		c1.18,0,2.08-0.33,2.73-0.98c0.64-0.65,0.96-1.59,0.96-2.81v-4.55c0-1.24-0.32-2.18-0.96-2.82s-1.55-0.96-2.73-0.96
		c-1.16,0-2.06,0.32-2.71,0.96s-0.98,1.58-0.98,2.82v4.55c0,1.22,0.33,2.16,0.98,2.81C184.58,66.89,185.48,67.21,186.63,67.21z"/>
	<path d="M199.53,69.97V52.33h3.34v3.37h0.83l-1.06,2.08c0-1.9,0.42-3.34,1.25-4.31c0.83-0.97,2.07-1.46,3.72-1.46
		c1.88,0,3.37,0.58,4.47,1.75c1.1,1.17,1.65,2.76,1.65,4.8v1.19h-3.56v-0.9c0-1.26-0.32-2.23-0.95-2.9s-1.51-1.01-2.65-1.01
		c-1.13,0-2.02,0.34-2.65,1.03c-0.63,0.68-0.95,1.65-0.95,2.89v11.13H199.53z"/>
	<path d="M225.12,70.29c-1.43,0-2.69-0.28-3.77-0.85s-1.91-1.36-2.49-2.39S218,64.83,218,63.46v-4.62c0-1.39,0.29-2.59,0.87-3.61
		s1.41-1.81,2.49-2.37c1.08-0.57,2.34-0.85,3.77-0.85c1.45,0,2.72,0.28,3.79,0.85c1.07,0.57,1.89,1.36,2.47,2.37
		s0.87,2.22,0.87,3.61v3.14h-10.91v1.48c0,1.3,0.33,2.3,0.98,2.98s1.6,1.03,2.84,1.03c1,0,1.82-0.18,2.44-0.53s1-0.87,1.16-1.56
		h3.43c-0.26,1.5-1.03,2.69-2.31,3.58C228.59,69.85,227.01,70.29,225.12,70.29z M228.91,59.9v-1.09c0-1.28-0.32-2.28-0.96-2.98
		c-0.64-0.71-1.58-1.06-2.82-1.06c-1.22,0-2.15,0.35-2.81,1.06c-0.65,0.71-0.98,1.71-0.98,3.01v0.8l7.83-0.03L228.91,59.9z"/>
	<path d="M244.5,70.29c-1.45,0-2.73-0.27-3.83-0.82c-1.1-0.55-1.95-1.34-2.53-2.37c-0.59-1.04-0.88-2.25-0.88-3.64v-4.62
		c0-1.41,0.29-2.63,0.88-3.66s1.43-1.81,2.53-2.36c1.1-0.55,2.38-0.82,3.83-0.82c2.12,0,3.82,0.56,5.1,1.67
		c1.28,1.11,1.96,2.63,2.02,4.55h-3.46c-0.06-1-0.42-1.79-1.06-2.34c-0.64-0.56-1.51-0.83-2.6-0.83c-1.18,0-2.11,0.33-2.79,0.98
		c-0.68,0.65-1.03,1.58-1.03,2.77v4.65c0,1.2,0.34,2.13,1.03,2.79c0.68,0.66,1.61,0.99,2.79,0.99c1.09,0,1.96-0.28,2.6-0.83
		c0.64-0.56,0.99-1.34,1.06-2.34h3.46c-0.06,1.92-0.74,3.44-2.02,4.55C248.32,69.74,246.62,70.29,244.5,70.29z"/>
	<path d="M261.85,70.29c-1.84,0-3.29-0.48-4.35-1.43s-1.59-2.25-1.59-3.9c0-1.67,0.56-2.98,1.68-3.93c1.12-0.95,2.67-1.43,4.64-1.43
		h4.91v-1.64c0-0.96-0.3-1.71-0.9-2.25c-0.6-0.53-1.44-0.8-2.53-0.8c-0.96,0-1.76,0.21-2.41,0.63s-1.02,0.97-1.12,1.65h-3.4
		c0.19-1.58,0.92-2.84,2.2-3.79c1.27-0.94,2.88-1.41,4.83-1.41c2.1,0,3.75,0.53,4.97,1.59s1.83,2.5,1.83,4.31v12.06h-3.37v-3.24
		h-0.58l0.58-0.64c0,1.28-0.49,2.3-1.48,3.06C264.78,69.91,263.48,70.29,261.85,70.29z M262.88,67.63c1.24,0,2.26-0.32,3.06-0.95
		c0.8-0.63,1.2-1.44,1.2-2.42v-2.31h-4.84c-0.9,0-1.61,0.25-2.13,0.74c-0.52,0.49-0.79,1.17-0.79,2.02c0,0.9,0.31,1.61,0.93,2.13
		C260.93,67.37,261.79,67.63,262.88,67.63z"/>
	<path d="M282.25,70.26c-1.26,0-2.37-0.2-3.32-0.61c-0.95-0.41-1.7-0.97-2.25-1.68c-0.54-0.72-0.86-1.57-0.95-2.55h3.46
		c0.09,0.58,0.4,1.04,0.93,1.4c0.53,0.35,1.24,0.53,2.12,0.53h1.38c1.05,0,1.84-0.21,2.37-0.64c0.53-0.43,0.8-1,0.8-1.7
		c0-0.68-0.24-1.22-0.72-1.62c-0.48-0.4-1.19-0.66-2.13-0.79l-2.28-0.35c-1.88-0.3-3.27-0.84-4.15-1.62
		c-0.89-0.78-1.33-1.94-1.33-3.48c0-1.62,0.53-2.88,1.59-3.77c1.06-0.89,2.62-1.33,4.7-1.33h1.22c1.84,0,3.31,0.42,4.41,1.27
		c1.1,0.85,1.73,1.97,1.88,3.38h-3.46c-0.08-0.51-0.37-0.93-0.85-1.25c-0.48-0.32-1.14-0.48-1.97-0.48h-1.22
		c-1.01,0-1.74,0.19-2.2,0.56c-0.46,0.37-0.69,0.92-0.69,1.65c0,0.64,0.2,1.12,0.61,1.44c0.41,0.32,1.04,0.55,1.89,0.67l2.34,0.38
		c1.99,0.28,3.45,0.83,4.38,1.65c0.93,0.82,1.4,2.02,1.4,3.58c0,1.69-0.55,3-1.65,3.95c-1.1,0.94-2.74,1.41-4.92,1.41H282.25z"/>
	<path d="M304.03,69.97c-1.6,0-2.86-0.44-3.75-1.32c-0.9-0.88-1.35-2.09-1.35-3.66v-9.53h-4.88v-3.14h4.88v-4.97h3.46v4.97h6.9v3.14
		h-6.9V65c0,1.22,0.59,1.83,1.76,1.83h4.81v3.14H304.03z"/>
</g>
<g>
	<g>
		<linearGradient id="SVGID_3_" gradientUnits="userSpaceOnUse" x1="341.9288" y1="78.7778" x2="598.89" y2="78.7778">
			<stop  offset="0.1837" style="stop-color:#00C803"/>
			<stop  offset="0.4672" style="stop-color:#807FFF"/>
			<stop  offset="1" style="stop-color:#FF3E62"/>
		</linearGradient>
		<path class="st2" d="M340.47,5.66c10.42,3.29,13.38,15.84,12.93,25.49c-0.6,13.13-5.29,25.69-5.44,38.91
			c-0.27,22.75,8.96,47.87,26.28,63.18c7.84,6.93,20.64,10.26,28.23,0.97c3.54-4.33,3.73-10.17,2.46-15.4
			c-1.08-4.44-7.16-13.81-3.84-18.15c2.69-3.53,8.9-4.52,12.42-7.26c4.5-3.5,7.51-8.3,9.38-13.64c1.76-5.03,2.27-10.53,1.97-15.82
			c-0.33-5.69-2.24-12.55,0.46-17.93c3.23-6.46,8.26-2.62,12.79,0.25c5.4,3.42,11.39,6.51,16.36,10.53
			c2.21,1.79,4.11,3.34,1.96,5.78c-1.68,1.91-4.01,3.37-5.89,5.07c-5.03,4.57-9.51,9.99-13,15.81c-7.2,12.03-6.93,23.9-4.31,37.24
			c1.3,6.62,2.64,13.23,3.95,19.84c1.13,5.66,1.79,11.93,5.05,16.87c6.37,9.61,19.98,7.71,25.85-1.42
			c3.16-4.92,3.47-11.09,2.49-16.7c-0.48-2.77-1.46-5.33-2.21-8.02c-1.12-4-0.27-5.96,2.12-9.2c8.03-10.88,13.76-22.7,19.23-35.03
			c5.19-11.69,8.84-22.77,8.49-35.69c-0.14-5.21-0.95-11.29,1.21-16.19c2.54-5.76,9.48-6.53,14.76-4.37
			c11.98,4.91,19.48,20.69,22.89,32.28c1.84,6.25,3.5,12.41,8.49,16.95c5.17,4.7,12.39,8.12,18.68,10.99
			c11.8,5.37,26.23,7.69,37.34-0.62c6.11-4.57,0.14-14.99-6.06-10.36c-10.43,7.8-22.92,2.19-32.99-3.35
			c-5.79-3.19-10.44-5.48-12.56-12.07c-1.89-5.85-3.5-11.65-6.15-17.24c-4.77-10.08-12.19-20.94-22.29-26.29
			c-9.39-4.97-21.88-4.78-29.38,3.51c-7.37,8.14-5.97,19.57-5.89,29.67c0.1,13.1-5.96,24.97-11.38,36.59
			c-2.67,5.72-5.5,11.37-8.85,16.73c-3.15,5.04-8.08,9.73-9.76,15.56c-1.64,5.68,0.62,10.74,2.04,16.17
			c0.76,2.9,1.47,6.62,0.08,9.47c-0.8,1.62-3.09,3.97-5.13,3.05c-3.47-1.57-3.73-10.51-4.33-13.52c-1.5-7.53-3.06-15.06-4.5-22.6
			c-1.17-6.11-2.01-12.26-0.17-18.32c2-6.6,6.38-12.63,11.05-17.6c3.61-3.84,8.37-6.71,11.49-10.96c3.65-4.97,3.59-11.02,0.18-16.11
			c-2.93-4.37-7.65-7.15-12-9.91c-5.62-3.57-11.22-7.82-17.28-10.6c-10.87-4.99-21.42,1.36-24.64,12.41
			c-3.18,10.92,2.54,22.42-2.21,33.12c-4.59,10.35-18.76,9.43-22.01,20.98c-1.64,5.82,0.34,11.68,2.35,17.11
			c1.33,3.58,5.32,11.76-1.15,12.21c-5.86,0.4-11.16-6.79-14.3-10.81c-4.11-5.26-7.55-11.21-10.09-17.38
			c-4.89-11.88-6.77-25.01-5.22-37.77c1.74-14.35,7.01-28.37,4.01-42.95c-2.33-11.34-9.53-21.45-20.82-25.01
			C336.28-8.24,333.12,3.34,340.47,5.66L340.47,5.66z"/>
	</g>
</g>
<g>
	<g>
		<linearGradient id="SVGID_4_" gradientUnits="userSpaceOnUse" x1="307.5948" y1="160.8628" x2="481.6691" y2="160.8628">
			<stop  offset="0.1837" style="stop-color:#00C803"/>
			<stop  offset="0.4672" style="stop-color:#807FFF"/>
			<stop  offset="1" style="stop-color:#3857FF"/>
		</linearGradient>
		<path class="st3" d="M315.44,203.81c-1.35-7.88-3.56-19.49,3.58-25.47c3.12-2.62,7.46-3.44,11.15-4.94
			c3.76-1.53,7.24-3.46,10.48-5.9c6.57-4.93,11.78-11.15,16.61-17.74c4.84-6.61,8.82-14.4,14.82-20.06
			c6.69-6.31,15.78-5.88,24.35-5.21c9.48,0.74,18.62,1.22,28.08-0.15c8.17-1.18,17.72-5.91,25.67-1.93
			c6.67,3.33,10.99,10.73,13.71,17.38c4.07,9.95,6.11,20.69,8.11,31.21c2.13,11.24,4.57,22.81,2.11,34.2
			c-1.63,7.53,9.94,10.75,11.57,3.19c2.48-11.47,1.14-22.8-0.92-34.22c-2.02-11.17-4.04-22.46-7.71-33.23
			c-6.15-18.03-18.91-35.13-40.08-31.42c-5.33,0.93-10.49,2.6-15.88,3.28c-5.99,0.76-12.03,0.72-18.03,0.26
			c-9.66-0.73-19.68-2.13-28.98,1.44c-9.66,3.72-15.4,12.08-20.99,20.31c-5.4,7.96-10.9,16.3-18.53,22.34
			c-8.19,6.47-19.78,6.89-26.44,15.39c-7.82,9.98-6.25,22.79-4.25,34.45C305.17,214.6,316.73,211.38,315.44,203.81L315.44,203.81z"
			/>
	</g>
</g>
<g id="_x33_IWjaK_3_">
	<g>
		<path class="st10" d="M44.94,152.71c0.22-0.29,0.43-0.54,0.61-0.8c2.43-3.46,4.85-6.93,7.28-10.39c2.59-3.69,5.2-7.37,7.78-11.07
			c0.51-0.72,1.06-1.43,1.41-2.23c0.3-0.69,0.42-1.49,0.47-2.25c0.12-1.74,0.74-3.21,2.02-4.4c1.69-1.58,2.64-3.6,3.42-5.73
			c0.24-0.64,0.42-1.32,0.78-1.9c0.69-1.11,2.08-1.55,3.3-1.08c2.52,0.97,4.69,2.47,6.48,4.5c1.1,1.25,0.87,3.12-0.48,4.18
			c-1.46,1.15-2.87,2.36-3.92,3.91c-0.55,0.81-0.97,1.7-1.42,2.57c-0.65,1.26-1.66,2.12-2.93,2.73c-0.68,0.33-1.38,0.67-1.95,1.15
			c-0.57,0.48-1.02,1.11-1.45,1.73c-1.44,2.06-2.84,4.15-4.26,6.22c-3.02,4.4-6.05,8.8-9.07,13.2c-0.75,1.09-1.48,2.19-2.21,3.28
			c-0.06,0.09-0.11,0.19-0.17,0.29c0.65,0.56,1.32,1.07,1.93,1.65c1.81,1.69,3.22,3.64,3.8,6.09c0.8,3.39-0.21,6.24-2.75,8.56
			c-0.66,0.6-1.4,1.14-2.18,1.56c-2.17,1.15-3.41,2.96-3.9,5.31c-0.37,1.77-0.63,3.56-0.97,5.34c-0.5,2.7-1.48,5.2-3.14,7.41
			c-1.54,2.05-3.39,3.66-5.98,4.23c-2.24,0.5-4.44,0.27-6.62-0.33c-2.47-0.67-4.76-1.74-6.96-3.05c-3.21-1.91-6.07-4.25-8.45-7.14
			c-1.45-1.76-2.62-3.68-3.22-5.91c-0.72-2.69-0.23-5.18,1.13-7.58c1.81-3.19,4.53-5.36,7.66-7.14c1.5-0.85,2.98-1.75,4.37-2.76
			c1.5-1.08,2.29-2.66,2.55-4.49c0.25-1.75,0.78-3.4,1.81-4.84c1.69-2.35,4.02-3.53,6.9-3.6c2.4-0.06,4.59,0.66,6.67,1.78
			C43.83,152.03,44.37,152.37,44.94,152.71z M50.16,157.27c-0.12,0.18-0.22,0.31-0.31,0.45c-1.68,2.44-3.35,4.89-5.04,7.33
			c-0.23,0.34-0.27,0.6-0.13,0.99c1.04,2.88-0.1,6.17-2.69,7.83c-2.6,1.67-6.06,1.35-8.25-0.77c-1.99-1.92-2.62-4.8-1.6-7.37
			c1-2.52,3.47-4.19,6.22-4.19c0.3,0,0.48-0.1,0.65-0.34c1.51-2.17,3.04-4.32,4.56-6.48c0.31-0.44,0.62-0.89,0.96-1.38
			c-0.59-0.35-1.12-0.69-1.68-0.98c-1.77-0.94-3.63-1.59-5.65-1.65c-2.64-0.08-4.88,0.79-6.58,2.87c-1.11,1.36-1.71,2.96-1.94,4.69
			c-0.33,2.37-1.43,4.28-3.39,5.64c-1.24,0.86-2.56,1.63-3.88,2.37c-3.06,1.71-5.73,3.81-7.49,6.95c-1.31,2.34-1.7,4.75-0.91,7.34
			c0.54,1.74,1.44,3.29,2.55,4.72c2.08,2.68,4.6,4.87,7.43,6.72c2.22,1.45,4.56,2.65,7.09,3.47c1.57,0.51,3.18,0.82,4.83,0.84
			c3.39,0.04,5.92-1.51,7.89-4.17c1.65-2.23,2.59-4.74,3.07-7.44c0.29-1.64,0.54-3.3,0.88-4.93c0.55-2.69,1.98-4.75,4.48-6.03
			c0.57-0.29,1.09-0.69,1.59-1.1c2.88-2.39,3.78-5.8,2.43-9.25C54.26,160.81,52.41,158.91,50.16,157.27z M62.19,129.56
			c-7.53,10.7-15.04,21.37-22.58,32.08c1.96,0.44,3.42,1.47,4.51,3.13c7.41-10.81,14.79-21.57,22.18-32.35
			C64.91,131.45,63.58,130.53,62.19,129.56z M62.58,128.91c1.36,0.95,2.68,1.86,4,2.77c0.07,0.05,0.26,0.04,0.32-0.02
			c0.83-0.82,1.88-1.27,2.89-1.77c0.97-0.48,1.7-1.21,2.21-2.18c0.47-0.9,0.92-1.83,1.49-2.68c1.08-1.61,2.53-2.88,4.05-4.07
			c1.04-0.82,1.21-2.18,0.35-3.15c-1.68-1.89-3.71-3.3-6.06-4.21c-1.18-0.46-2.4,0.16-2.81,1.35c-0.18,0.53-0.35,1.07-0.54,1.59
			c-0.81,2.15-1.88,4.13-3.58,5.72c-0.91,0.85-1.44,1.92-1.56,3.18C63.22,126.62,63.15,127.8,62.58,128.91z M34.95,173.11
			c2.7,1.88,6.43,1.22,8.3-1.46c1.87-2.69,1.22-6.42-1.46-8.3c-2.68-1.88-6.45-1.2-8.33,1.5C31.61,167.52,32.28,171.26,34.95,173.11
			z"/>
		<linearGradient id="SVGID_5_" gradientUnits="userSpaceOnUse" x1="12.6159" y1="173.4986" x2="55.883" y2="173.4986">
			<stop  offset="0.1813" style="stop-color:#1B05FF"/>
			<stop  offset="0.9991" style="stop-color:#46BBFF"/>
		</linearGradient>
		<path style="fill:url(#SVGID_5_);stroke:#9AEDFF;stroke-miterlimit:10;" d="M50.16,157.27c2.25,1.64,4.09,3.54,5.1,6.11
			c1.36,3.45,0.45,6.86-2.43,9.25c-0.49,0.41-1.02,0.81-1.59,1.1c-2.5,1.28-3.93,3.33-4.48,6.03c-0.33,1.63-0.58,3.29-0.88,4.93
			c-0.48,2.7-1.43,5.21-3.07,7.44c-1.97,2.67-4.5,4.22-7.89,4.17c-1.66-0.02-3.26-0.34-4.83-0.84c-2.53-0.82-4.87-2.02-7.09-3.47
			c-2.83-1.85-5.35-4.04-7.43-6.72c-1.11-1.43-2.01-2.97-2.55-4.72c-0.8-2.58-0.4-5,0.91-7.34c1.75-3.14,4.43-5.24,7.49-6.95
			c1.32-0.74,2.64-1.5,3.88-2.37c1.95-1.36,3.06-3.26,3.39-5.64c0.24-1.72,0.83-3.32,1.94-4.69c1.7-2.08,3.94-2.95,6.58-2.87
			c2.02,0.06,3.88,0.7,5.65,1.65c0.55,0.3,1.08,0.63,1.68,0.98c-0.34,0.49-0.65,0.94-0.96,1.38c-1.52,2.16-3.05,4.32-4.56,6.48
			c-0.17,0.25-0.35,0.34-0.65,0.34c-2.75,0-5.22,1.67-6.22,4.19c-1.02,2.57-0.39,5.45,1.6,7.37c2.2,2.12,5.65,2.44,8.25,0.77
			c2.59-1.66,3.73-4.95,2.69-7.83c-0.14-0.39-0.11-0.65,0.13-0.99c1.69-2.43,3.36-4.88,5.04-7.33
			C49.94,157.58,50.04,157.45,50.16,157.27z"/>
		<radialGradient id="SVGID_6_" cx="52.9504" cy="147.1595" r="15.6173" gradientUnits="userSpaceOnUse">
			<stop  offset="0.1813" style="stop-color:#170054"/>
			<stop  offset="0.9991" style="stop-color:#005AF6"/>
		</radialGradient>
		<path class="st5" d="M62.19,129.56c1.4,0.97,2.72,1.89,4.11,2.85c-7.39,10.77-14.77,21.54-22.18,32.35
			c-1.09-1.66-2.55-2.69-4.51-3.13C47.15,150.93,54.66,140.26,62.19,129.56z"/>
		<path class="st13" d="M62.58,128.91c0.57-1.11,0.64-2.3,0.75-3.47c0.12-1.26,0.65-2.33,1.56-3.18c1.71-1.6,2.77-3.58,3.58-5.72
			c0.2-0.52,0.36-1.06,0.54-1.59c0.41-1.19,1.63-1.81,2.81-1.35c2.36,0.91,4.38,2.32,6.06,4.21c0.86,0.97,0.69,2.34-0.35,3.15
			c-1.52,1.19-2.97,2.45-4.05,4.07c-0.57,0.85-1.01,1.77-1.49,2.68c-0.51,0.97-1.24,1.69-2.21,2.18c-1.02,0.51-2.06,0.96-2.89,1.77
			c-0.06,0.06-0.25,0.07-0.32,0.02C65.26,130.78,63.95,129.86,62.58,128.91z"/>
		<path class="st10" d="M34.95,173.11c-2.66-1.85-3.34-5.59-1.49-8.26c1.88-2.7,5.65-3.38,8.33-1.5c2.67,1.88,3.33,5.61,1.46,8.3
			C41.38,174.33,37.64,174.99,34.95,173.11z M34.47,165.51c-1.5,2.15-1.01,5.09,1.11,6.57c2.23,1.56,5.14,1.08,6.66-1.1
			c1.53-2.18,1.02-5.11-1.14-6.63C38.93,162.82,35.99,163.34,34.47,165.51z"/>
		<path class="st14" d="M34.47,165.51c1.52-2.17,4.46-2.69,6.63-1.16c2.16,1.52,2.67,4.45,1.14,6.63c-1.53,2.18-4.44,2.66-6.66,1.1
			C33.46,170.6,32.96,167.66,34.47,165.51z M35.99,171.68c1.89,1.31,4.52,0.82,5.82-1.07c1.3-1.89,0.81-4.54-1.07-5.83
			c-1.89-1.3-4.52-0.81-5.83,1.07C33.61,167.74,34.09,170.37,35.99,171.68z"/>
		<path class="st15" d="M35.99,171.68c-1.89-1.31-2.38-3.93-1.07-5.82c1.3-1.89,3.93-2.37,5.83-1.07c1.88,1.29,2.37,3.94,1.07,5.83
			C40.51,172.5,37.87,172.98,35.99,171.68z"/>
	</g>
</g>
</svg>
