<?xml version="1.0" encoding="utf-8"?>
<!-- Generator: Adobe Illustrator 24.1.0, SVG Export Plug-In . SVG Version: 6.00 Build 0)  -->
<svg version="1.1" id="Layer_1" xmlns="http://www.w3.org/2000/svg" xmlns:xlink="http://www.w3.org/1999/xlink" x="0px" y="0px"
	 width="80.3px" height="56.01px" viewBox="0 0 80.3 56.01" style="enable-background:new 0 0 80.3 56.01;" xml:space="preserve">
<path style="fill:#FF6666;" d="M17.1,25.5H8.4c-4.64,0-8.4-3.76-8.4-8.4V8.4C0,3.76,3.76,0,8.4,0h8.71c4.64,0,8.4,3.76,8.4,8.4v8.71
	C25.5,21.74,21.74,25.5,17.1,25.5z"/>
<path style="fill:#339AFF;" d="M17.1,56.01H8.4c-4.64,0-8.4-3.76-8.4-8.4v-8.71c0-4.64,3.76-8.4,8.4-8.4h8.71
	c4.64,0,8.4,3.76,8.4,8.4v8.71C25.5,52.26,21.74,56.01,17.1,56.01z"/>
<path style="fill:#339AFF;" d="M69.95,56.01H38.42c-5.71,0-10.34-4.63-10.34-10.34v-4.82c0-5.71,4.63-10.34,10.34-10.34h31.53
	c5.71,0,10.34,4.63,10.34,10.34v4.82C80.3,51.38,75.67,56.01,69.95,56.01z"/>
<path style="fill:#FF6666;" d="M69.95,25.5H38.42c-5.71,0-10.34-4.63-10.34-10.34v-4.82C28.08,4.63,32.71,0,38.42,0h31.53
	C75.67,0,80.3,4.63,80.3,10.34v4.82C80.3,20.87,75.67,25.5,69.95,25.5z"/>
<g>
	<path style="fill:#FFFFFF;" d="M41.93,20.25c-0.93,0-1.75-0.18-2.45-0.53s-1.24-0.85-1.62-1.5c-0.38-0.65-0.57-1.41-0.57-2.29V9.57
		c0-0.89,0.19-1.66,0.57-2.3c0.38-0.64,0.92-1.14,1.62-1.49c0.7-0.35,1.52-0.53,2.45-0.53c0.95,0,1.76,0.18,2.45,0.53
		c0.69,0.35,1.22,0.85,1.61,1.49c0.39,0.64,0.58,1.41,0.58,2.3h-2.52c0-0.69-0.18-1.22-0.55-1.58c-0.37-0.36-0.89-0.54-1.57-0.54
		s-1.21,0.18-1.58,0.54s-0.56,0.88-0.56,1.56v6.38c0,0.68,0.19,1.21,0.56,1.58c0.37,0.37,0.9,0.56,1.58,0.56s1.2-0.19,1.57-0.56
		c0.37-0.37,0.55-0.9,0.55-1.58v-1.48h-2.48v-2.16h5v3.64c0,0.88-0.19,1.64-0.58,2.29c-0.39,0.65-0.92,1.15-1.61,1.5
		C43.69,20.07,42.87,20.25,41.93,20.25z"/>
	<path style="fill:#FFFFFF;" d="M53.85,20.25c-0.93,0-1.74-0.18-2.43-0.53c-0.69-0.35-1.21-0.85-1.58-1.5
		c-0.37-0.65-0.55-1.41-0.55-2.29V9.57c0-0.88,0.18-1.64,0.55-2.29c0.37-0.65,0.89-1.15,1.58-1.5c0.69-0.35,1.5-0.53,2.43-0.53
		c0.95,0,1.76,0.18,2.44,0.53c0.68,0.35,1.2,0.85,1.57,1.5c0.37,0.65,0.55,1.4,0.55,2.27v6.38c0,0.88-0.18,1.64-0.55,2.29
		c-0.37,0.65-0.89,1.15-1.57,1.5C55.61,20.07,54.79,20.25,53.85,20.25z M53.85,18.05c0.68,0,1.19-0.18,1.54-0.55
		s0.52-0.89,0.52-1.57V9.57c0-0.69-0.17-1.22-0.52-1.58s-0.86-0.54-1.54-0.54s-1.19,0.18-1.54,0.54s-0.52,0.89-0.52,1.58v6.36
		c0,0.68,0.18,1.2,0.53,1.57S53.18,18.05,53.85,18.05z"/>
	<path style="fill:#FFFFFF;" d="M61.39,20.05V5.45h4.86c0.97,0,1.82,0.19,2.55,0.56c0.73,0.37,1.29,0.9,1.69,1.57
		c0.4,0.67,0.6,1.46,0.6,2.37c0,0.89-0.2,1.68-0.61,2.36c-0.41,0.68-0.97,1.21-1.69,1.58c-0.72,0.37-1.57,0.56-2.54,0.56h-2.36v5.6
		H61.39z M63.89,12.19h2.36c0.69,0,1.25-0.2,1.67-0.61c0.42-0.41,0.63-0.95,0.63-1.63c0-0.69-0.21-1.24-0.63-1.64
		c-0.42-0.4-0.98-0.6-1.67-0.6h-2.36V12.19z"/>
</g>
<g>
	<path style="fill:#FFFFFF;" d="M37.5,50.57v-14.6h4.34c0.99,0,1.84,0.19,2.57,0.56c0.73,0.37,1.29,0.9,1.69,1.58
		c0.4,0.68,0.6,1.49,0.6,2.42v5.46c0,0.92-0.2,1.72-0.6,2.41c-0.4,0.69-0.96,1.22-1.69,1.6c-0.73,0.38-1.58,0.57-2.57,0.57H37.5z
		 M40,48.27h1.84c0.72,0,1.29-0.2,1.72-0.61c0.43-0.41,0.64-0.96,0.64-1.67v-5.46c0-0.69-0.21-1.24-0.64-1.65s-1-0.61-1.72-0.61H40
		V48.27z"/>
	<path style="fill:#FFFFFF;" d="M49.76,50.57v-14.6h8.76v2.18h-6.3v3.8h5.6v2.16h-5.6v4.28h6.3v2.18H49.76z"/>
	<path style="fill:#FFFFFF;" d="M61.12,50.57v-14.6h2.96l1.42,4.64c0.15,0.47,0.27,0.89,0.36,1.28c0.09,0.39,0.15,0.67,0.18,0.84
		c0.03-0.17,0.09-0.45,0.18-0.84c0.09-0.39,0.21-0.81,0.34-1.28l1.36-4.64h2.96v14.6h-2.34v-4.54c0-0.67,0.02-1.39,0.06-2.18
		c0.04-0.79,0.09-1.57,0.14-2.36c0.05-0.79,0.12-1.53,0.19-2.24s0.14-1.33,0.19-1.86l-1.96,6.9h-2.28l-2.02-6.9
		c0.07,0.51,0.13,1.1,0.2,1.79c0.07,0.69,0.13,1.42,0.19,2.2c0.06,0.78,0.11,1.57,0.15,2.37c0.04,0.8,0.06,1.56,0.06,2.28v4.54
		H61.12z"/>
</g>
<g>
	<path style="fill:#FFFFFF;" d="M8.14,20.05V5.45h4.62c0.97,0,1.82,0.18,2.53,0.54s1.27,0.86,1.67,1.51c0.4,0.65,0.6,1.41,0.6,2.29
		c0,0.96-0.24,1.81-0.73,2.54c-0.49,0.73-1.14,1.25-1.97,1.56l2.9,6.16h-2.8l-2.54-5.8h-1.78v5.8H8.14z M10.64,12.05h2.12
		c0.71,0,1.26-0.19,1.66-0.58c0.4-0.39,0.6-0.92,0.6-1.6c0-0.69-0.2-1.24-0.6-1.63c-0.4-0.39-0.95-0.59-1.66-0.59h-2.12V12.05z"/>
</g>
<g>
	<path style="fill:#FFFFFF;" d="M9.14,50.57v-14.6h4.34c0.99,0,1.84,0.19,2.57,0.56c0.73,0.37,1.29,0.9,1.69,1.58
		c0.4,0.68,0.6,1.49,0.6,2.42v5.46c0,0.92-0.2,1.72-0.6,2.41c-0.4,0.69-0.96,1.22-1.69,1.6c-0.73,0.38-1.58,0.57-2.57,0.57H9.14z
		 M11.64,48.27h1.84c0.72,0,1.29-0.2,1.72-0.61c0.43-0.41,0.64-0.96,0.64-1.67v-5.46c0-0.69-0.21-1.24-0.64-1.65s-1-0.61-1.72-0.61
		h-1.84V48.27z"/>
</g>
</svg>
