<?xml version="1.0" encoding="utf-8"?>
<!-- Generator: Adobe Illustrator 24.1.0, SVG Export Plug-In . SVG Version: 6.00 Build 0)  -->
<svg version="1.1" id="Layer_1" xmlns="http://www.w3.org/2000/svg" xmlns:xlink="http://www.w3.org/1999/xlink" x="0px" y="0px"
	 width="52.22px" height="25.5px" viewBox="0 0 52.22 25.5" style="enable-background:new 0 0 52.22 25.5;" xml:space="preserve">
<path style="fill:#339AFF;" d="M41.88,25.5H10.34C4.63,25.5,0,20.87,0,15.16v-4.82C0,4.63,4.63,0,10.34,0h31.53
	c5.71,0,10.34,4.63,10.34,10.34v4.82C52.22,20.87,47.59,25.5,41.88,25.5z"/>
<g>
	<path style="fill:#FFFFFF;" d="M9.42,20.05V5.45h4.34c0.99,0,1.84,0.19,2.57,0.56c0.73,0.37,1.29,0.9,1.69,1.58
		c0.4,0.68,0.6,1.49,0.6,2.42v5.46c0,0.92-0.2,1.72-0.6,2.41c-0.4,0.69-0.96,1.22-1.69,1.6c-0.73,0.38-1.58,0.57-2.57,0.57H9.42z
		 M11.92,17.75h1.84c0.72,0,1.29-0.2,1.72-0.61c0.43-0.41,0.64-0.96,0.64-1.67v-5.46c0-0.69-0.21-1.24-0.64-1.65s-1-0.61-1.72-0.61
		h-1.84V17.75z"/>
	<path style="fill:#FFFFFF;" d="M21.68,20.05V5.45h8.76v2.18h-6.3v3.8h5.6v2.16h-5.6v4.28h6.3v2.18H21.68z"/>
	<path style="fill:#FFFFFF;" d="M33.04,20.05V5.45H36l1.42,4.64c0.15,0.47,0.27,0.89,0.36,1.28c0.09,0.39,0.15,0.67,0.18,0.84
		c0.03-0.17,0.09-0.45,0.18-0.84c0.09-0.39,0.21-0.81,0.34-1.28l1.36-4.64h2.96v14.6h-2.34v-4.54c0-0.67,0.02-1.39,0.06-2.18
		c0.04-0.79,0.09-1.57,0.14-2.36c0.05-0.79,0.12-1.53,0.19-2.24s0.14-1.33,0.19-1.86l-1.96,6.9H36.8l-2.02-6.9
		c0.07,0.51,0.13,1.1,0.2,1.79c0.07,0.69,0.13,1.42,0.19,2.2c0.06,0.78,0.11,1.57,0.15,2.37c0.04,0.8,0.06,1.56,0.06,2.28v4.54
		H33.04z"/>
</g>
</svg>
