<?xml version="1.0" encoding="utf-8"?>
<!-- Generator: Adobe Illustrator 24.1.0, SVG Export Plug-In . SVG Version: 6.00 Build 0)  -->
<svg version="1.1" id="Layer_1" xmlns="http://www.w3.org/2000/svg" xmlns:xlink="http://www.w3.org/1999/xlink" x="0px" y="0px"
	 viewBox="0 0 200 200" style="enable-background:new 0 0 200 200;" xml:space="preserve">
<style type="text/css">
	.st0{fill:#339AFF;}
	.st1{fill:#FFFFFF;}
</style>
<path class="st0" d="M142.08,200H57.92C25.93,200,0,174.07,0,142.08V57.92C0,25.93,25.93,0,57.92,0h84.15
	C174.07,0,200,25.93,200,57.92v84.15C200,174.07,174.07,200,142.08,200z"/>
<g>
	<path class="st1" d="M59.4,30.2h39c34,0,50.8,24,50.8,69.8s-16.8,69.8-50.8,69.8h-39V30.2z M97.6,155.2c22.2,0,33.8-16.4,33.8-44.4
		V89.2c0-28-11.6-44.4-33.8-44.4H76.2v110.4H97.6z"/>
</g>
</svg>
