<?xml version="1.0" encoding="utf-8"?>
<!-- Generator: Adobe Illustrator 24.1.0, SVG Export Plug-In . SVG Version: 6.00 Build 0)  -->
<svg version="1.1" id="Layer_1" xmlns="http://www.w3.org/2000/svg" xmlns:xlink="http://www.w3.org/1999/xlink" x="0px" y="0px"
	 width="25.5px" height="25.5px" viewBox="0 0 25.5 25.5" style="enable-background:new 0 0 25.5 25.5;" xml:space="preserve">
<path style="fill:#339AFF;" d="M17.1,25.5H8.4c-4.64,0-8.4-3.76-8.4-8.4V8.4C0,3.76,3.76,0,8.4,0h8.71c4.64,0,8.4,3.76,8.4,8.4v8.71
	C25.5,21.74,21.74,25.5,17.1,25.5z"/>
<g>
	<path style="fill:#FFFFFF;" d="M9.14,20.05V5.45h4.34c0.99,0,1.84,0.19,2.57,0.56c0.73,0.37,1.29,0.9,1.69,1.58
		c0.4,0.68,0.6,1.49,0.6,2.42v5.46c0,0.92-0.2,1.72-0.6,2.41c-0.4,0.69-0.96,1.22-1.69,1.6c-0.73,0.38-1.58,0.57-2.57,0.57H9.14z
		 M11.64,17.75h1.84c0.72,0,1.29-0.2,1.72-0.61c0.43-0.41,0.64-0.96,0.64-1.67v-5.46c0-0.69-0.21-1.24-0.64-1.65s-1-0.61-1.72-0.61
		h-1.84V17.75z"/>
</g>
</svg>
