<?xml version="1.0" encoding="utf-8"?>
<!-- Generator: Adobe Illustrator 24.1.0, SVG Export Plug-In . SVG Version: 6.00 Build 0)  -->
<svg version="1.1" id="Layer_1" xmlns="http://www.w3.org/2000/svg" xmlns:xlink="http://www.w3.org/1999/xlink" x="0px" y="0px"
	 viewBox="0 0 700 100" style="enable-background:new 0 0 700 100;" xml:space="preserve">
<style type="text/css">
	.st0{opacity:0.35;fill:url(#SVGID_1_);}
	.st1{opacity:0.4;fill:url(#SVGID_2_);}
	.st2{opacity:0.4;fill:url(#SVGID_3_);}
	.st3{opacity:0.35;fill:url(#SVGID_4_);}
	.st4{opacity:0.4;fill:url(#SVGID_5_);}
	.st5{opacity:0.4;fill:url(#SVGID_6_);}
</style>
<linearGradient id="SVGID_1_" gradientUnits="userSpaceOnUse" x1="-45.4236" y1="42.3204" x2="396.4398" y2="42.3204">
	<stop  offset="0" style="stop-color:#4846FF"/>
	<stop  offset="0.1854" style="stop-color:#7498FF;stop-opacity:0.9"/>
	<stop  offset="1" style="stop-color:#7AC7FF"/>
</linearGradient>
<path class="st0" d="M394.82,105.51c8.27,13.32-17.07,5.81-32.75,5.5l-370.86-7.38c-20.24,0-36.64-8.19-36.64-18.29V7.66
	c0-10.1,3.13-36.43,23.37-36.43c0,0,73.83,21.63,94.77,28.76c8.22,2.8,19.98,3.54,26.72,4.07c18.99,1.48,65.86,4.07,82.33,9.35
	c11.03,3.54,48.02,26.55,65.65,32.94C272.6,55.47,324.15,58.96,350,65.99C364.42,69.91,379.82,81.35,394.82,105.51z"/>
<g>
	<path d="M33.1,42.32v-22.7h13.35v2.55H35.83v7.55h9.81v2.55H35.9v10.06H33.1z"/>
	<path d="M58.1,42.57c-1.37,0-2.55-0.26-3.54-0.78c-0.99-0.52-1.77-1.27-2.31-2.25c-0.55-0.98-0.82-2.15-0.82-3.49v-4.53
		c0-1.37,0.27-2.54,0.82-3.51c0.55-0.97,1.32-1.72,2.31-2.24c0.99-0.52,2.17-0.78,3.54-0.78c1.37,0,2.55,0.26,3.54,0.78
		s1.76,1.26,2.31,2.24c0.55,0.97,0.82,2.13,0.82,3.48v4.57c0,1.35-0.27,2.51-0.82,3.49s-1.32,1.73-2.31,2.25
		C60.65,42.31,59.47,42.57,58.1,42.57z M58.1,40.08c1.22,0,2.17-0.34,2.86-1.02c0.68-0.68,1.02-1.69,1.02-3.01v-4.53
		c0-1.33-0.34-2.33-1.02-3.01c-0.68-0.68-1.64-1.02-2.86-1.02c-1.2,0-2.15,0.34-2.84,1.02s-1.04,1.69-1.04,3.01v4.53
		c0,1.33,0.35,2.33,1.04,3.01C55.95,39.74,56.9,40.08,58.1,40.08z"/>
	<path d="M70.86,42.32V25.24h2.73v3.26h0.65l-0.9,2.02c0-1.84,0.4-3.23,1.2-4.18c0.8-0.94,1.98-1.41,3.56-1.41
		c1.8,0,3.23,0.56,4.3,1.69c1.07,1.13,1.6,2.66,1.6,4.58v1.02h-2.79v-0.78c0-1.35-0.33-2.38-0.98-3.09
		c-0.65-0.71-1.58-1.07-2.78-1.07c-1.18,0-2.11,0.36-2.78,1.09c-0.67,0.72-1.01,1.75-1.01,3.07v10.87H70.86z"/>
	<path d="M95.37,42.63c-1.35,0-2.52-0.27-3.52-0.81c-1-0.54-1.78-1.3-2.33-2.28c-0.55-0.98-0.82-2.13-0.82-3.43v-4.66
		c0-1.32,0.27-2.47,0.82-3.45c0.55-0.97,1.32-1.73,2.33-2.27c1-0.54,2.18-0.81,3.52-0.81c1.35,0,2.52,0.27,3.52,0.81
		c1,0.54,1.78,1.29,2.33,2.27c0.55,0.97,0.82,2.12,0.82,3.45v3.01H91.42v1.65c0,1.35,0.34,2.38,1.02,3.09
		c0.68,0.71,1.66,1.07,2.92,1.07c1.08,0,1.95-0.19,2.61-0.57c0.66-0.38,1.07-0.96,1.21-1.72h2.8c-0.19,1.43-0.89,2.56-2.1,3.4
		C98.68,42.21,97.17,42.63,95.37,42.63z M99.31,32.6v-1.15c0-1.35-0.34-2.38-1.01-3.11c-0.67-0.72-1.65-1.09-2.94-1.09
		c-1.26,0-2.24,0.36-2.92,1.09c-0.68,0.73-1.02,1.76-1.02,3.11v0.9h8.11L99.31,32.6z"/>
	<path d="M114.13,42.63c-1.37,0-2.56-0.26-3.59-0.78s-1.82-1.27-2.38-2.25c-0.56-0.98-0.84-2.15-0.84-3.49v-4.66
		c0-1.37,0.28-2.54,0.84-3.51c0.56-0.97,1.35-1.72,2.38-2.24s2.22-0.78,3.59-0.78c1.97,0,3.55,0.53,4.75,1.58
		c1.2,1.06,1.83,2.5,1.89,4.32h-2.8c-0.06-1.1-0.43-1.94-1.1-2.53c-0.67-0.59-1.59-0.88-2.75-0.88c-1.22,0-2.19,0.35-2.92,1.04
		c-0.73,0.69-1.09,1.68-1.09,2.97v4.69c0,1.28,0.36,2.28,1.09,2.98c0.72,0.7,1.7,1.06,2.92,1.06c1.16,0,2.08-0.3,2.75-0.9
		c0.67-0.6,1.04-1.44,1.1-2.52h2.8c-0.06,1.82-0.69,3.26-1.89,4.32C117.68,42.1,116.09,42.63,114.13,42.63z"/>
	<path d="M131.14,42.63c-1.8,0-3.22-0.46-4.25-1.38s-1.55-2.17-1.55-3.74c0-1.59,0.52-2.85,1.55-3.76s2.43-1.37,4.19-1.37h5.28
		v-1.71c0-1.06-0.32-1.87-0.95-2.44c-0.63-0.57-1.53-0.85-2.69-0.85c-1.01,0-1.86,0.21-2.55,0.64c-0.68,0.42-1.08,1-1.18,1.72h-2.8
		c0.19-1.47,0.88-2.64,2.08-3.51c1.2-0.87,2.7-1.3,4.5-1.3c1.97,0,3.52,0.51,4.66,1.52c1.14,1.01,1.71,2.39,1.71,4.13v11.74h-2.73
		v-3.26h-0.47l0.47-0.47c0,1.24-0.48,2.23-1.44,2.95C134.02,42.27,132.74,42.63,131.14,42.63z M131.83,40.43
		c1.33,0,2.41-0.33,3.26-0.99c0.85-0.66,1.27-1.51,1.27-2.55v-2.42h-5.22c-0.93,0-1.67,0.26-2.21,0.78
		c-0.54,0.52-0.81,1.22-0.81,2.11c0,0.95,0.33,1.7,0.98,2.25C129.76,40.15,130.67,40.43,131.83,40.43z"/>
	<path d="M150.74,42.57c-1.16,0-2.17-0.18-3.03-0.54c-0.86-0.36-1.54-0.88-2.05-1.54c-0.51-0.66-0.81-1.45-0.92-2.36h2.8
		c0.12,0.6,0.46,1.08,1.01,1.43c0.55,0.35,1.28,0.53,2.19,0.53h1.3c1.1,0,1.92-0.22,2.45-0.67c0.54-0.45,0.81-1.04,0.81-1.79
		c0-0.72-0.24-1.3-0.73-1.72c-0.49-0.42-1.21-0.71-2.16-0.85l-2.3-0.37c-1.68-0.29-2.92-0.81-3.74-1.57
		c-0.82-0.76-1.23-1.86-1.23-3.31c0-1.53,0.49-2.72,1.46-3.56c0.97-0.84,2.43-1.26,4.38-1.26h1.18c1.64,0,2.95,0.38,3.94,1.15
		c0.99,0.77,1.59,1.8,1.8,3.11h-2.79c-0.12-0.54-0.43-0.97-0.93-1.29s-1.17-0.48-2.02-0.48h-1.18c-1.06,0-1.83,0.2-2.31,0.59
		c-0.49,0.39-0.73,0.98-0.73,1.77c0,0.7,0.21,1.22,0.62,1.55c0.41,0.33,1.07,0.57,1.96,0.71l2.3,0.37c1.84,0.29,3.18,0.83,4.02,1.61
		c0.84,0.79,1.26,1.93,1.26,3.42c0,1.57-0.5,2.81-1.51,3.71c-1,0.9-2.52,1.35-4.55,1.35H150.74z"/>
	<path d="M171.77,42.32c-1.47,0-2.61-0.39-3.43-1.18s-1.23-1.89-1.23-3.32V27.79h-4.81v-2.55h4.81v-4.81h2.79v4.81h6.83v2.55h-6.83
		v10.03c0,1.3,0.62,1.96,1.86,1.96h4.66v2.55H171.77z"/>
	<path d="M88.91,79.59V56.92h5.87c1.47,0,2.74,0.28,3.8,0.84c1.07,0.56,1.89,1.35,2.48,2.36c0.59,1.01,0.89,2.22,0.89,3.6v9.04
		c0,1.39-0.29,2.59-0.89,3.62c-0.59,1.03-1.42,1.82-2.48,2.38c-1.07,0.56-2.33,0.84-3.8,0.84H88.91z M91.7,77.1h3.07
		c1.37,0,2.44-0.38,3.21-1.15c0.78-0.77,1.16-1.83,1.16-3.2v-9.04c0-1.35-0.39-2.4-1.16-3.17c-0.78-0.77-1.85-1.15-3.21-1.15H91.7
		V77.1z"/>
	<path d="M112.51,79.9c-1.8,0-3.22-0.46-4.25-1.38s-1.55-2.17-1.55-3.74c0-1.59,0.52-2.85,1.55-3.76s2.43-1.37,4.19-1.37h5.28v-1.71
		c0-1.06-0.32-1.87-0.95-2.44c-0.63-0.57-1.53-0.85-2.69-0.85c-1.01,0-1.86,0.21-2.55,0.64c-0.68,0.42-1.08,1-1.18,1.72h-2.8
		c0.19-1.47,0.88-2.64,2.08-3.51c1.2-0.87,2.7-1.3,4.5-1.3c1.97,0,3.52,0.51,4.66,1.52c1.14,1.01,1.71,2.39,1.71,4.13v11.74h-2.73
		v-3.26h-0.47l0.47-0.47c0,1.24-0.48,2.23-1.44,2.95C115.38,79.54,114.1,79.9,112.51,79.9z M113.19,77.69
		c1.33,0,2.41-0.33,3.26-0.99c0.85-0.66,1.27-1.51,1.27-2.55v-2.42h-5.22c-0.93,0-1.67,0.26-2.21,0.78
		c-0.54,0.52-0.81,1.22-0.81,2.11c0,0.95,0.33,1.7,0.98,2.25C111.13,77.42,112.03,77.69,113.19,77.69z"/>
	<path d="M134.5,79.59c-1.47,0-2.61-0.39-3.43-1.18s-1.23-1.89-1.23-3.32V65.05h-4.81v-2.55h4.81v-4.81h2.79v4.81h6.83v2.55h-6.83
		v10.03c0,1.3,0.62,1.96,1.86,1.96h4.66v2.55H134.5z"/>
	<path d="M149.78,79.9c-1.8,0-3.22-0.46-4.25-1.38s-1.55-2.17-1.55-3.74c0-1.59,0.52-2.85,1.55-3.76s2.43-1.37,4.19-1.37H155v-1.71
		c0-1.06-0.32-1.87-0.95-2.44c-0.63-0.57-1.53-0.85-2.69-0.85c-1.01,0-1.86,0.21-2.55,0.64c-0.68,0.42-1.08,1-1.18,1.72h-2.8
		c0.19-1.47,0.88-2.64,2.08-3.51c1.2-0.87,2.7-1.3,4.5-1.3c1.97,0,3.52,0.51,4.66,1.52c1.14,1.01,1.71,2.39,1.71,4.13v11.74h-2.73
		v-3.26h-0.47l0.47-0.47c0,1.24-0.48,2.23-1.44,2.95C152.65,79.54,151.37,79.9,149.78,79.9z M150.46,77.69
		c1.33,0,2.41-0.33,3.26-0.99c0.85-0.66,1.27-1.51,1.27-2.55v-2.42h-5.22c-0.93,0-1.67,0.26-2.21,0.78
		c-0.54,0.52-0.81,1.22-0.81,2.11c0,0.95,0.33,1.7,0.98,2.25C148.4,77.42,149.3,77.69,150.46,77.69z"/>
	<path d="M170.9,79.9c-1.41,0-2.54-0.38-3.38-1.13c-0.85-0.75-1.27-1.79-1.27-3.09l0.56,0.65h-0.56v3.26h-2.79V56.92h2.79v4.97
		l-0.06,3.88h0.62l-0.56,0.65c0-1.28,0.43-2.31,1.29-3.07c0.86-0.77,1.98-1.15,3.37-1.15c1.72,0,3.1,0.57,4.13,1.71
		c1.04,1.14,1.55,2.69,1.55,4.66v5c0,1.95-0.52,3.49-1.55,4.63C173.99,79.33,172.61,79.9,170.9,79.9z M169.96,77.48
		c1.18,0,2.11-0.35,2.8-1.06c0.68-0.7,1.02-1.72,1.02-3.04v-4.66c0-1.32-0.34-2.34-1.02-3.04c-0.68-0.7-1.62-1.06-2.8-1.06
		c-1.14,0-2.04,0.36-2.72,1.09c-0.67,0.72-1.01,1.73-1.01,3.01v4.66c0,1.28,0.34,2.29,1.01,3.01
		C167.92,77.11,168.83,77.48,169.96,77.48z"/>
	<path d="M187.05,79.9c-1.8,0-3.22-0.46-4.25-1.38s-1.55-2.17-1.55-3.74c0-1.59,0.52-2.85,1.55-3.76s2.43-1.37,4.19-1.37h5.28v-1.71
		c0-1.06-0.32-1.87-0.95-2.44c-0.63-0.57-1.53-0.85-2.69-0.85c-1.01,0-1.86,0.21-2.55,0.64c-0.68,0.42-1.08,1-1.18,1.72h-2.8
		c0.19-1.47,0.88-2.64,2.08-3.51c1.2-0.87,2.7-1.3,4.5-1.3c1.97,0,3.52,0.51,4.66,1.52c1.14,1.01,1.71,2.39,1.71,4.13v11.74h-2.73
		v-3.26h-0.47l0.47-0.47c0,1.24-0.48,2.23-1.44,2.95C189.92,79.54,188.64,79.9,187.05,79.9z M187.73,77.69
		c1.33,0,2.41-0.33,3.26-0.99c0.85-0.66,1.27-1.51,1.27-2.55v-2.42h-5.22c-0.93,0-1.67,0.26-2.21,0.78
		c-0.54,0.52-0.81,1.22-0.81,2.11c0,0.95,0.33,1.7,0.98,2.25C185.66,77.42,186.57,77.69,187.73,77.69z"/>
	<path d="M206.64,79.84c-1.16,0-2.17-0.18-3.03-0.54c-0.86-0.36-1.54-0.88-2.05-1.54c-0.51-0.66-0.81-1.45-0.92-2.36h2.8
		c0.12,0.6,0.46,1.08,1.01,1.43c0.55,0.35,1.28,0.53,2.19,0.53h1.3c1.1,0,1.92-0.22,2.45-0.67c0.54-0.45,0.81-1.04,0.81-1.79
		c0-0.72-0.24-1.3-0.73-1.72c-0.49-0.42-1.21-0.71-2.16-0.85l-2.3-0.37c-1.68-0.29-2.92-0.81-3.74-1.57
		c-0.82-0.76-1.23-1.86-1.23-3.31c0-1.53,0.49-2.72,1.46-3.56c0.97-0.84,2.43-1.26,4.38-1.26h1.18c1.64,0,2.95,0.38,3.94,1.15
		c0.99,0.77,1.59,1.8,1.8,3.11h-2.79c-0.12-0.54-0.43-0.97-0.93-1.29s-1.17-0.48-2.02-0.48h-1.18c-1.06,0-1.83,0.2-2.31,0.59
		c-0.49,0.39-0.73,0.98-0.73,1.77c0,0.7,0.21,1.22,0.62,1.55c0.41,0.33,1.07,0.57,1.96,0.71l2.3,0.37c1.84,0.29,3.18,0.83,4.02,1.61
		c0.84,0.79,1.26,1.93,1.26,3.42c0,1.57-0.5,2.81-1.51,3.71c-1,0.9-2.52,1.35-4.55,1.35H206.64z"/>
	<path d="M225.8,79.9c-1.35,0-2.52-0.27-3.52-0.81c-1-0.54-1.78-1.3-2.33-2.28c-0.55-0.98-0.82-2.13-0.82-3.43v-4.66
		c0-1.32,0.27-2.47,0.82-3.45c0.55-0.97,1.32-1.73,2.33-2.27c1-0.54,2.18-0.81,3.52-0.81c1.35,0,2.52,0.27,3.52,0.81
		c1,0.54,1.78,1.29,2.33,2.27c0.55,0.97,0.82,2.12,0.82,3.45v3.01h-10.62v1.65c0,1.35,0.34,2.38,1.02,3.09
		c0.68,0.71,1.66,1.07,2.92,1.07c1.08,0,1.95-0.19,2.61-0.57c0.66-0.38,1.07-0.96,1.21-1.72h2.8c-0.19,1.43-0.89,2.56-2.1,3.4
		C229.11,79.48,227.6,79.9,225.8,79.9z M229.75,69.87v-1.15c0-1.35-0.34-2.38-1.01-3.11c-0.67-0.72-1.65-1.09-2.94-1.09
		c-1.26,0-2.24,0.36-2.92,1.09c-0.68,0.73-1.02,1.76-1.02,3.11v0.9h8.11L229.75,69.87z"/>
</g>
<linearGradient id="SVGID_2_" gradientUnits="userSpaceOnUse" x1="243.2817" y1="52.8951" x2="827.0344" y2="52.8951">
	<stop  offset="0" style="stop-color:#FFDBDC"/>
	<stop  offset="0.5088" style="stop-color:#FF7C7C"/>
	<stop  offset="1" style="stop-color:#FF3838"/>
</linearGradient>
<path style="opacity:0.35;fill:url(#SVGID_2_);" d="M243.49,119.88c-1.77-7.51,8.3-20.71,15.94-27.44
	c10.84-9.57,23.28-11.83,31.87-13.28c64.42-10.89,72.6-11.51,72.6-11.51c76.09-5.76,77.89-3.87,93.84-8.85
	c26.63-8.31,23.23-14.07,54.89-23.9c14.05-4.37,38.66-12.01,70.82-12.39c34.33-0.41,43.67,7.86,57.55-0.89
	c18.23-11.5,11.9-31.97,27.44-41.61c22.95-14.24,63.96,13.56,77.91,23.02c34.7,23.52,91.83,77.11,78.79,106.24
	c-12.49,27.9-78.92,10.1-204.51,6.2C412.87,109,249.87,147.01,243.49,119.88z"/>
</svg>
