<?xml version="1.0" encoding="utf-8"?>
<!-- Generator: Adobe Illustrator 24.1.0, SVG Export Plug-In . SVG Version: 6.00 Build 0)  -->
<svg version="1.1" id="Layer_1" xmlns="http://www.w3.org/2000/svg" xmlns:xlink="http://www.w3.org/1999/xlink" x="0px" y="0px"
	 viewBox="0 0 600 200" style="enable-background:new 0 0 600 200;" xml:space="preserve">
<style type="text/css">
	.st0{opacity:0.35;fill:url(#SVGID_1_);}
	.st1{opacity:0.4;fill:url(#SVGID_2_);}
	.st2{opacity:0.4;fill:url(#SVGID_3_);}
	.st3{opacity:0.35;fill:url(#SVGID_4_);}
	.st4{opacity:0.4;fill:url(#SVGID_5_);}
	.st5{opacity:0.4;fill:url(#SVGID_6_);}
</style>
<linearGradient id="SVGID_1_" gradientUnits="userSpaceOnUse" x1="-34.103" y1="101.0335" x2="385.1192" y2="101.0335">
	<stop  offset="0" style="stop-color:#4846FF"/>
	<stop  offset="0.1442" style="stop-color:#7498FF;stop-opacity:0.9"/>
	<stop  offset="1" style="stop-color:#7AC7FF"/>
</linearGradient>
<path style="opacity:0.4;fill:url(#SVGID_1_);" d="M385.12,223.53L-2.4,208.07c-17.51,0-31.7-14.19-31.7-31.7V41.69
	c0-17.51,2.71-63.15,20.22-63.15c0,0,63.8,19.08,81.92,31.45c7.11,4.86,15.86,20.95,23.2,25.46c14.44,8.87,51.06,8.92,65.32,18.08
	c9.54,6.13,19.34,29.11,29.19,34.75c13.99,8.01,49.1,3.69,63.59,10.77C290.7,119.29,385.12,223.53,385.12,223.53z"/>
<g>
	<path d="M18.68,82.33v-21.8H31.5v2.45H21.3v7.25h9.43v2.45h-9.37v9.66H18.68z"/>
	<path d="M42.69,82.57c-1.31,0-2.45-0.25-3.4-0.75s-1.7-1.22-2.22-2.16c-0.53-0.94-0.79-2.06-0.79-3.36v-4.35
		c0-1.31,0.26-2.44,0.79-3.37s1.27-1.65,2.22-2.15s2.09-0.75,3.4-0.75c1.31,0,2.45,0.25,3.4,0.75c0.95,0.5,1.7,1.21,2.22,2.15
		s0.79,2.05,0.79,3.34v4.38c0,1.29-0.26,2.41-0.79,3.36c-0.53,0.95-1.27,1.67-2.22,2.16C45.14,82.32,44,82.57,42.69,82.57z
		 M42.69,80.18c1.17,0,2.09-0.33,2.74-0.98c0.66-0.66,0.98-1.62,0.98-2.89v-4.35c0-1.27-0.33-2.24-0.98-2.89
		c-0.66-0.66-1.57-0.98-2.74-0.98c-1.15,0-2.06,0.33-2.73,0.98c-0.67,0.66-1,1.62-1,2.89v4.35c0,1.27,0.33,2.24,1,2.89
		C40.63,79.85,41.54,80.18,42.69,80.18z"/>
	<path d="M54.95,82.33v-16.4h2.62v3.13h0.63L57.33,71c0-1.77,0.38-3.11,1.15-4.01c0.77-0.9,1.9-1.36,3.42-1.36
		c1.73,0,3.11,0.54,4.13,1.63c1.02,1.08,1.54,2.55,1.54,4.4v0.98h-2.68v-0.75c0-1.29-0.31-2.28-0.94-2.97
		c-0.63-0.69-1.52-1.03-2.67-1.03c-1.13,0-2.02,0.35-2.67,1.04c-0.65,0.7-0.97,1.68-0.97,2.95v10.44H54.95z"/>
	<path d="M78.48,82.63c-1.29,0-2.42-0.26-3.39-0.78c-0.96-0.52-1.71-1.25-2.24-2.19c-0.53-0.94-0.79-2.04-0.79-3.3v-4.47
		c0-1.27,0.26-2.38,0.79-3.31s1.27-1.66,2.24-2.18c0.96-0.52,2.09-0.78,3.39-0.78c1.29,0,2.42,0.26,3.39,0.78
		c0.96,0.52,1.71,1.24,2.24,2.18s0.79,2.04,0.79,3.31v2.89h-10.2v1.58c0,1.29,0.33,2.28,0.98,2.97c0.66,0.69,1.59,1.03,2.8,1.03
		c1.03,0,1.87-0.18,2.51-0.55c0.64-0.37,1.02-0.92,1.16-1.66h2.68c-0.18,1.37-0.85,2.46-2.01,3.27
		C81.66,82.22,80.21,82.63,78.48,82.63z M82.27,72.99v-1.1c0-1.29-0.32-2.29-0.97-2.98c-0.65-0.7-1.59-1.04-2.82-1.04
		c-1.21,0-2.15,0.35-2.8,1.04c-0.66,0.7-0.98,1.69-0.98,2.98v0.87h7.78L82.27,72.99z"/>
	<path d="M96.5,82.63c-1.31,0-2.46-0.25-3.44-0.75c-0.98-0.5-1.75-1.22-2.28-2.16c-0.54-0.94-0.81-2.06-0.81-3.36v-4.47
		c0-1.31,0.27-2.44,0.81-3.37c0.54-0.93,1.3-1.65,2.28-2.15c0.98-0.5,2.13-0.75,3.44-0.75c1.89,0,3.41,0.51,4.56,1.52
		c1.15,1.01,1.76,2.4,1.82,4.15h-2.68c-0.06-1.05-0.41-1.86-1.06-2.43c-0.65-0.57-1.53-0.85-2.64-0.85c-1.17,0-2.11,0.33-2.8,1
		c-0.7,0.67-1.04,1.62-1.04,2.85v4.5c0,1.23,0.35,2.19,1.04,2.86c0.7,0.68,1.63,1.01,2.8,1.01c1.11,0,1.99-0.29,2.64-0.87
		c0.65-0.58,1-1.38,1.06-2.42h2.68c-0.06,1.75-0.67,3.13-1.82,4.15C99.91,82.12,98.38,82.63,96.5,82.63z"/>
	<path d="M112.84,82.63c-1.73,0-3.09-0.44-4.09-1.33c-0.99-0.88-1.49-2.08-1.49-3.59c0-1.53,0.5-2.73,1.49-3.61
		c0.99-0.88,2.34-1.31,4.03-1.31h5.07v-1.64c0-1.01-0.3-1.79-0.91-2.34s-1.47-0.82-2.58-0.82c-0.97,0-1.79,0.2-2.45,0.61
		c-0.66,0.41-1.03,0.96-1.13,1.66h-2.68c0.18-1.41,0.84-2.54,2-3.37c1.15-0.83,2.59-1.25,4.32-1.25c1.89,0,3.38,0.49,4.47,1.46
		c1.09,0.97,1.64,2.3,1.64,3.97v11.27h-2.62V79.2h-0.45l0.45-0.45c0,1.19-0.46,2.14-1.39,2.83
		C115.6,82.28,114.37,82.63,112.84,82.63z M113.5,80.51c1.27,0,2.32-0.32,3.13-0.95c0.81-0.64,1.22-1.45,1.22-2.45v-2.33h-5.01
		c-0.9,0-1.6,0.25-2.12,0.75c-0.52,0.5-0.78,1.17-0.78,2.03c0,0.92,0.31,1.64,0.94,2.16C111.51,80.25,112.38,80.51,113.5,80.51z"/>
	<path d="M131.66,82.57c-1.11,0-2.08-0.17-2.91-0.52c-0.83-0.35-1.48-0.84-1.97-1.48c-0.49-0.64-0.78-1.39-0.88-2.27h2.68
		c0.12,0.58,0.44,1.03,0.97,1.37c0.53,0.34,1.23,0.51,2.1,0.51h1.25c1.05,0,1.84-0.21,2.36-0.64c0.52-0.43,0.78-1,0.78-1.71
		c0-0.7-0.23-1.25-0.7-1.66c-0.47-0.41-1.16-0.68-2.07-0.82l-2.21-0.36c-1.61-0.28-2.81-0.78-3.59-1.51
		c-0.79-0.73-1.18-1.78-1.18-3.18c0-1.47,0.47-2.61,1.4-3.42c0.93-0.8,2.34-1.21,4.21-1.21h1.13c1.57,0,2.83,0.37,3.79,1.1
		c0.96,0.74,1.53,1.73,1.73,2.98h-2.68c-0.12-0.52-0.42-0.93-0.89-1.24c-0.48-0.31-1.12-0.46-1.94-0.46h-1.13
		c-1.01,0-1.75,0.19-2.22,0.57c-0.47,0.38-0.7,0.94-0.7,1.7c0,0.68,0.2,1.17,0.6,1.49c0.4,0.32,1.02,0.55,1.88,0.69l2.21,0.36
		c1.77,0.28,3.06,0.8,3.86,1.55c0.81,0.76,1.21,1.85,1.21,3.28c0,1.51-0.48,2.7-1.45,3.56c-0.96,0.86-2.42,1.3-4.37,1.3H131.66z"/>
	<path d="M151.85,82.33c-1.41,0-2.51-0.38-3.3-1.13c-0.79-0.75-1.18-1.82-1.18-3.19v-9.63h-4.62v-2.45h4.62V61.3h2.68v4.62h6.56
		v2.45h-6.56V78c0,1.25,0.6,1.88,1.79,1.88h4.47v2.45H151.85z"/>
	<path d="M108.07,118.12V96.35h5.64c1.41,0,2.63,0.27,3.65,0.81c1.02,0.54,1.82,1.29,2.38,2.27c0.57,0.97,0.85,2.13,0.85,3.46v8.68
		c0,1.33-0.28,2.49-0.85,3.47c-0.57,0.98-1.36,1.75-2.38,2.28c-1.03,0.54-2.24,0.81-3.65,0.81H108.07z M110.75,115.74h2.95
		c1.31,0,2.34-0.37,3.09-1.1c0.74-0.74,1.12-1.76,1.12-3.07v-8.68c0-1.29-0.37-2.31-1.12-3.04c-0.75-0.74-1.78-1.1-3.09-1.1h-2.95
		V115.74z"/>
	<path d="M130.74,118.42c-1.73,0-3.09-0.44-4.09-1.33c-0.99-0.88-1.49-2.08-1.49-3.59c0-1.53,0.5-2.73,1.49-3.61
		s2.34-1.31,4.03-1.31h5.07v-1.64c0-1.01-0.3-1.79-0.91-2.34s-1.47-0.82-2.58-0.82c-0.97,0-1.79,0.2-2.45,0.61
		c-0.66,0.41-1.03,0.96-1.13,1.66H126c0.18-1.41,0.85-2.54,2-3.37c1.15-0.83,2.59-1.25,4.32-1.25c1.89,0,3.38,0.49,4.47,1.46
		c1.09,0.97,1.64,2.3,1.64,3.97v11.27h-2.62v-3.13h-0.45l0.45-0.45c0,1.19-0.46,2.14-1.39,2.83
		C133.5,118.07,132.27,118.42,130.74,118.42z M131.39,116.3c1.27,0,2.32-0.32,3.13-0.95c0.81-0.64,1.22-1.45,1.22-2.45v-2.33h-5.01
		c-0.9,0-1.6,0.25-2.12,0.75c-0.52,0.5-0.78,1.17-0.78,2.03c0,0.92,0.31,1.64,0.94,2.16C129.41,116.04,130.28,116.3,131.39,116.3z"
		/>
	<path d="M151.85,118.12c-1.41,0-2.51-0.38-3.3-1.13c-0.79-0.75-1.18-1.82-1.18-3.19v-9.63h-4.62v-2.45h4.62v-4.62h2.68v4.62h6.56
		v2.45h-6.56v9.63c0,1.25,0.6,1.88,1.79,1.88h4.47v2.45H151.85z"/>
	<path d="M166.53,118.42c-1.73,0-3.09-0.44-4.09-1.33c-0.99-0.88-1.49-2.08-1.49-3.59c0-1.53,0.5-2.73,1.49-3.61
		s2.34-1.31,4.03-1.31h5.07v-1.64c0-1.01-0.3-1.79-0.91-2.34s-1.47-0.82-2.58-0.82c-0.97,0-1.79,0.2-2.45,0.61
		c-0.66,0.41-1.03,0.96-1.13,1.66h-2.68c0.18-1.41,0.85-2.54,2-3.37c1.15-0.83,2.59-1.25,4.32-1.25c1.89,0,3.38,0.49,4.47,1.46
		c1.09,0.97,1.64,2.3,1.64,3.97v11.27h-2.62v-3.13h-0.45l0.45-0.45c0,1.19-0.46,2.14-1.39,2.83
		C169.29,118.07,168.06,118.42,166.53,118.42z M167.19,116.3c1.27,0,2.32-0.32,3.13-0.95c0.81-0.64,1.22-1.45,1.22-2.45v-2.33h-5.01
		c-0.9,0-1.6,0.25-2.12,0.75c-0.52,0.5-0.78,1.17-0.78,2.03c0,0.92,0.31,1.64,0.94,2.16C165.2,116.04,166.07,116.3,167.19,116.3z"/>
	<path d="M186.81,118.42c-1.35,0-2.44-0.36-3.25-1.09s-1.22-1.72-1.22-2.97l0.54,0.63h-0.54v3.13h-2.68V96.35h2.68v4.77l-0.06,3.73
		h0.6l-0.54,0.63c0-1.23,0.41-2.22,1.24-2.95c0.83-0.74,1.9-1.1,3.24-1.1c1.65,0,2.97,0.55,3.97,1.64s1.49,2.58,1.49,4.47v4.8
		c0,1.87-0.5,3.35-1.49,4.44S188.46,118.42,186.81,118.42z M185.92,116.09c1.13,0,2.03-0.34,2.68-1.01s0.98-1.65,0.98-2.92v-4.47
		c0-1.27-0.33-2.25-0.98-2.92s-1.55-1.01-2.68-1.01c-1.09,0-1.96,0.35-2.61,1.04c-0.65,0.7-0.97,1.66-0.97,2.89v4.47
		c0,1.23,0.32,2.2,0.97,2.89C183.95,115.75,184.82,116.09,185.92,116.09z"/>
	<path d="M202.32,118.42c-1.73,0-3.09-0.44-4.09-1.33c-0.99-0.88-1.49-2.08-1.49-3.59c0-1.53,0.5-2.73,1.49-3.61
		s2.34-1.31,4.03-1.31h5.07v-1.64c0-1.01-0.3-1.79-0.91-2.34s-1.47-0.82-2.58-0.82c-0.97,0-1.79,0.2-2.45,0.61
		c-0.66,0.41-1.03,0.96-1.13,1.66h-2.68c0.18-1.41,0.85-2.54,2-3.37c1.15-0.83,2.59-1.25,4.32-1.25c1.89,0,3.38,0.49,4.47,1.46
		c1.09,0.97,1.64,2.3,1.64,3.97v11.27h-2.62v-3.13h-0.45l0.45-0.45c0,1.19-0.46,2.14-1.39,2.83
		C205.08,118.07,203.85,118.42,202.32,118.42z M202.98,116.3c1.27,0,2.32-0.32,3.13-0.95c0.81-0.64,1.22-1.45,1.22-2.45v-2.33h-5.01
		c-0.9,0-1.6,0.25-2.12,0.75c-0.52,0.5-0.78,1.17-0.78,2.03c0,0.92,0.31,1.64,0.94,2.16C200.99,116.04,201.86,116.3,202.98,116.3z"
		/>
	<path d="M221.14,118.36c-1.11,0-2.08-0.17-2.91-0.52c-0.83-0.35-1.48-0.84-1.97-1.48c-0.49-0.64-0.78-1.39-0.88-2.27h2.68
		c0.12,0.58,0.44,1.03,0.97,1.37c0.53,0.34,1.23,0.51,2.1,0.51h1.25c1.05,0,1.84-0.21,2.36-0.64c0.52-0.43,0.78-1,0.78-1.71
		c0-0.7-0.23-1.25-0.7-1.66c-0.47-0.41-1.16-0.68-2.07-0.82l-2.21-0.36c-1.61-0.28-2.81-0.78-3.59-1.51
		c-0.79-0.73-1.18-1.78-1.18-3.18c0-1.47,0.47-2.61,1.4-3.42c0.93-0.8,2.34-1.21,4.21-1.21h1.13c1.57,0,2.83,0.37,3.79,1.1
		c0.96,0.74,1.53,1.73,1.73,2.98h-2.68c-0.12-0.52-0.42-0.93-0.89-1.24c-0.48-0.31-1.12-0.46-1.94-0.46h-1.13
		c-1.01,0-1.75,0.19-2.22,0.57c-0.47,0.38-0.7,0.94-0.7,1.7c0,0.68,0.2,1.17,0.6,1.49c0.4,0.32,1.02,0.55,1.88,0.69l2.21,0.36
		c1.77,0.28,3.06,0.8,3.86,1.55c0.81,0.76,1.21,1.85,1.21,3.28c0,1.51-0.48,2.7-1.45,3.56c-0.96,0.86-2.42,1.3-4.37,1.3H221.14z"/>
	<path d="M239.54,118.42c-1.29,0-2.42-0.26-3.39-0.78c-0.96-0.52-1.71-1.25-2.24-2.19c-0.53-0.94-0.79-2.04-0.79-3.3v-4.47
		c0-1.27,0.26-2.38,0.79-3.31c0.53-0.93,1.27-1.66,2.24-2.18c0.96-0.52,2.09-0.78,3.39-0.78c1.29,0,2.42,0.26,3.38,0.78
		c0.96,0.52,1.71,1.24,2.24,2.18c0.53,0.93,0.79,2.04,0.79,3.31v2.89h-10.2v1.58c0,1.29,0.33,2.28,0.98,2.97
		c0.66,0.69,1.59,1.03,2.8,1.03c1.03,0,1.87-0.18,2.5-0.55c0.64-0.37,1.02-0.92,1.16-1.66h2.68c-0.18,1.37-0.85,2.46-2.01,3.27
		C242.72,118.02,241.27,118.42,239.54,118.42z M243.33,108.79v-1.1c0-1.29-0.32-2.29-0.97-2.98s-1.59-1.04-2.82-1.04
		c-1.21,0-2.15,0.35-2.8,1.04s-0.98,1.69-0.98,2.98v0.87h7.78L243.33,108.79z"/>
</g>
<linearGradient id="SVGID_2_" gradientUnits="userSpaceOnUse" x1="217.287" y1="93.6611" x2="848.8514" y2="93.6611">
	<stop  offset="0" style="stop-color:#FFFFFF"/>
	<stop  offset="0.5088" style="stop-color:#FF7C7C"/>
	<stop  offset="1" style="stop-color:#FF3838"/>
</linearGradient>
<path class="st1" d="M217.29,218.87c0,0,92.23-34.31,120.02-51.44c19.08-11.76,51.6-33.19,68.96-47.37
	c15.61-12.74,48.35,2.12,67.17-5.07c38.19-14.59,47.51-72.68,88.32-75.05c23.42-1.36,56.64-81.98,77.01-70.33
	c20.93,11.96,127.87,137.72,140.7,158.12c13.79,21.92,57.78,54.07,68.58,77.6c3.8,8.28-7.13,9.73-7.13,9.73L217.29,218.87z"/>
</svg>
