<?xml version="1.0" encoding="utf-8"?>
<!-- Generator: Adobe Illustrator 24.1.0, SVG Export Plug-In . SVG Version: 6.00 Build 0)  -->
<svg version="1.1" id="Layer_1" xmlns="http://www.w3.org/2000/svg" xmlns:xlink="http://www.w3.org/1999/xlink" x="0px" y="0px"
	 viewBox="0 0 800 418" style="enable-background:new 0 0 800 418;" xml:space="preserve">
<style type="text/css">
	.st0{opacity:0.35;fill:url(#SVGID_1_);}
	.st1{opacity:0.4;fill:url(#SVGID_2_);}
	.st2{opacity:0.4;fill:url(#SVGID_3_);}
	.st3{opacity:0.35;fill:url(#SVGID_4_);}
	.st4{opacity:0.4;fill:url(#SVGID_5_);}
	.st5{opacity:0.4;fill:url(#SVGID_6_);}
</style>
<linearGradient id="SVGID_1_" gradientUnits="userSpaceOnUse" x1="107.1293" y1="305.2397" x2="1209.9279" y2="305.2397">
	<stop  offset="0" style="stop-color:#FFFFFF"/>
	<stop  offset="0.5088" style="stop-color:#FF7C7C"/>
	<stop  offset="1" style="stop-color:#FF3838"/>
</linearGradient>
<path style="opacity:0.4;fill:url(#SVGID_1_);" d="M107.2,430.76c-4.09-56.26,159.38-59.29,207.41-88.89
	c32.97-20.33,88.51-75.31,118.52-99.8c26.97-22.02,82.87-65.55,115.4-77.97c66-25.21,57.83-178.06,128.36-182.16
	c40.48-2.35,123.49-2.06,158.7,18.06c36.17,20.67,220.97,237.99,243.15,273.25c23.83,37.87,99.85,93.45,118.52,134.11
	c6.57,14.31,19.16,50.7,8.61,62.38C1021.65,673.71,127.14,704.87,107.2,430.76z"/>
<linearGradient id="SVGID_2_" gradientUnits="userSpaceOnUse" x1="-72.9324" y1="281.208" x2="559.9583" y2="281.208">
	<stop  offset="0" style="stop-color:#4846FF"/>
	<stop  offset="0.1442" style="stop-color:#7498FF;stop-opacity:0.9"/>
	<stop  offset="1" style="stop-color:#7AC7FF"/>
</linearGradient>
<path class="st1" d="M559.96,441.04l-619.71,45.63c-26.11,0-5.38-89.83-5.38-115.94V169.92c0-26.11,4.04-94.17,30.15-94.17
	c0,0,95.13,28.45,122.14,46.9c10.6,7.24,23.65,31.24,34.59,37.97c21.53,13.23,76.14,13.31,97.39,26.96
	c14.23,9.14,28.84,43.41,43.52,51.81c20.86,11.95,73.22,5.5,94.82,16.06C419.17,285.62,559.96,441.04,559.96,441.04z"/>
<g>
	<path d="M13.57,230.51V198H32.7v3.65H17.49v10.81h14.05v3.65H17.57v14.41H13.57z"/>
	<path d="M49.37,230.86c-1.96,0-3.65-0.37-5.07-1.11c-1.42-0.74-2.53-1.82-3.31-3.22c-0.79-1.41-1.18-3.08-1.18-5v-6.49
		c0-1.96,0.39-3.63,1.18-5.03c0.79-1.39,1.89-2.46,3.31-3.2c1.42-0.74,3.11-1.11,5.07-1.11c1.96,0,3.65,0.37,5.07,1.11
		s2.53,1.81,3.31,3.2c0.79,1.39,1.18,3.05,1.18,4.98v6.54c0,1.93-0.39,3.59-1.18,5c-0.79,1.41-1.89,2.48-3.31,3.22
		S51.33,230.86,49.37,230.86z M49.37,227.3c1.75,0,3.11-0.49,4.09-1.47s1.47-2.42,1.47-4.31v-6.49c0-1.9-0.49-3.34-1.47-4.31
		s-2.34-1.47-4.09-1.47c-1.72,0-3.08,0.49-4.07,1.47c-0.99,0.98-1.49,2.42-1.49,4.31v6.49c0,1.9,0.5,3.33,1.49,4.31
		C46.3,226.81,47.65,227.3,49.37,227.3z"/>
	<path d="M67.65,230.51v-24.46h3.91v4.67h0.93l-1.29,2.89c0-2.64,0.57-4.63,1.71-5.98c1.14-1.35,2.84-2.02,5.09-2.02
		c2.58,0,4.63,0.81,6.16,2.42c1.53,1.62,2.29,3.8,2.29,6.56v1.47h-4v-1.11c0-1.93-0.47-3.4-1.4-4.43c-0.93-1.02-2.26-1.53-3.98-1.53
		c-1.69,0-3.02,0.52-3.98,1.56c-0.96,1.04-1.45,2.51-1.45,4.4v15.57H67.65z"/>
	<path d="M102.74,230.95c-1.93,0-3.61-0.39-5.05-1.16c-1.44-0.77-2.55-1.86-3.34-3.27c-0.79-1.41-1.18-3.05-1.18-4.91v-6.67
		c0-1.9,0.39-3.54,1.18-4.94c0.79-1.39,1.9-2.48,3.34-3.25c1.44-0.77,3.12-1.16,5.05-1.16c1.93,0,3.61,0.39,5.05,1.16
		c1.44,0.77,2.55,1.85,3.34,3.25c0.79,1.39,1.18,3.04,1.18,4.94v4.31H97.09v2.36c0,1.93,0.49,3.4,1.47,4.42
		c0.98,1.02,2.37,1.53,4.18,1.53c1.54,0,2.79-0.27,3.74-0.82c0.95-0.55,1.53-1.37,1.73-2.47h4c-0.27,2.05-1.27,3.67-3,4.87
		S105.32,230.95,102.74,230.95z M108.39,216.59v-1.65c0-1.93-0.48-3.41-1.45-4.45c-0.96-1.04-2.36-1.56-4.2-1.56
		c-1.81,0-3.2,0.52-4.18,1.56s-1.47,2.52-1.47,4.45v1.29h11.61L108.39,216.59z"/>
	<path d="M129.6,230.95c-1.96,0-3.67-0.37-5.14-1.11c-1.47-0.74-2.6-1.82-3.4-3.22c-0.8-1.41-1.2-3.08-1.2-5v-6.67
		c0-1.96,0.4-3.63,1.2-5.03c0.8-1.39,1.93-2.46,3.4-3.2s3.18-1.11,5.14-1.11c2.82,0,5.08,0.76,6.8,2.27
		c1.72,1.51,2.62,3.57,2.71,6.18h-4c-0.09-1.57-0.62-2.78-1.58-3.62c-0.96-0.84-2.28-1.27-3.94-1.27c-1.75,0-3.14,0.5-4.18,1.49
		c-1.04,0.99-1.56,2.41-1.56,4.25v6.72c0,1.84,0.52,3.26,1.56,4.27c1.04,1.01,2.43,1.51,4.18,1.51c1.66,0,2.97-0.43,3.94-1.29
		c0.96-0.86,1.49-2.06,1.58-3.6h4c-0.09,2.61-0.99,4.67-2.71,6.18C134.69,230.19,132.42,230.95,129.6,230.95z"/>
	<path d="M153.97,230.95c-2.58,0-4.61-0.66-6.09-1.98c-1.48-1.32-2.22-3.11-2.22-5.36c0-2.28,0.74-4.08,2.22-5.38
		c1.48-1.3,3.48-1.96,6-1.96h7.56v-2.45c0-1.51-0.45-2.67-1.36-3.49c-0.9-0.82-2.19-1.22-3.85-1.22c-1.45,0-2.67,0.3-3.65,0.91
		c-0.98,0.61-1.54,1.43-1.69,2.47h-4c0.27-2.1,1.26-3.78,2.98-5.03c1.72-1.25,3.87-1.87,6.45-1.87c2.82,0,5.04,0.73,6.67,2.18
		c1.63,1.45,2.45,3.42,2.45,5.92v16.81h-3.91v-4.67h-0.67l0.67-0.67c0,1.78-0.69,3.19-2.07,4.22
		C158.09,230.43,156.26,230.95,153.97,230.95z M154.95,227.79c1.9,0,3.45-0.47,4.67-1.42c1.22-0.95,1.82-2.16,1.82-3.65v-3.47h-7.47
		c-1.33,0-2.39,0.37-3.16,1.11c-0.77,0.74-1.16,1.75-1.16,3.02c0,1.36,0.47,2.44,1.4,3.22C151.99,227.4,153.29,227.79,154.95,227.79
		z"/>
	<path d="M182.04,230.86c-1.66,0-3.11-0.26-4.34-0.78c-1.23-0.52-2.21-1.25-2.94-2.2c-0.73-0.95-1.16-2.08-1.31-3.38h4
		c0.18,0.86,0.66,1.54,1.45,2.05c0.79,0.5,1.83,0.76,3.14,0.76h1.87c1.57,0,2.74-0.32,3.51-0.96c0.77-0.64,1.16-1.49,1.16-2.56
		c0-1.04-0.35-1.86-1.04-2.47c-0.7-0.61-1.73-1.02-3.09-1.22l-3.29-0.53c-2.4-0.42-4.19-1.16-5.36-2.25
		c-1.17-1.08-1.76-2.66-1.76-4.74c0-2.19,0.7-3.89,2.09-5.09c1.39-1.2,3.48-1.8,6.27-1.8h1.69c2.34,0,4.23,0.55,5.65,1.65
		c1.42,1.1,2.28,2.58,2.58,4.45h-4c-0.18-0.77-0.62-1.39-1.33-1.85c-0.71-0.46-1.68-0.69-2.89-0.69h-1.69
		c-1.51,0-2.62,0.28-3.31,0.85c-0.7,0.56-1.04,1.41-1.04,2.54c0,1.01,0.3,1.75,0.89,2.22c0.59,0.47,1.53,0.82,2.8,1.02l3.29,0.53
		c2.64,0.42,4.56,1.19,5.76,2.31s1.8,2.76,1.8,4.89c0,2.25-0.72,4.03-2.16,5.31c-1.44,1.29-3.61,1.93-6.52,1.93H182.04z"/>
	<path d="M212.14,230.51c-2.11,0-3.74-0.56-4.92-1.69c-1.17-1.13-1.76-2.71-1.76-4.76v-14.37h-6.89v-3.65h6.89v-6.89h4v6.89h9.78
		v3.65h-9.78v14.37c0,1.87,0.89,2.8,2.67,2.8h6.67v3.65H212.14z"/>
	<path d="M146.86,283.87v-32.47h8.41c2.1,0,3.92,0.4,5.45,1.2c1.53,0.8,2.71,1.93,3.56,3.38c0.85,1.45,1.27,3.17,1.27,5.16v12.94
		c0,1.99-0.42,3.71-1.27,5.18c-0.84,1.47-2.03,2.6-3.56,3.4c-1.53,0.8-3.34,1.2-5.45,1.2H146.86z M150.86,280.32h4.4
		c1.96,0,3.49-0.55,4.6-1.65s1.67-2.62,1.67-4.58v-12.94c0-1.93-0.56-3.44-1.67-4.54c-1.11-1.1-2.65-1.65-4.6-1.65h-4.4V280.32z"/>
	<path d="M180.66,284.32c-2.58,0-4.61-0.66-6.09-1.98c-1.48-1.32-2.22-3.11-2.22-5.36c0-2.28,0.74-4.08,2.22-5.38
		c1.48-1.3,3.48-1.96,6-1.96h7.56v-2.45c0-1.51-0.45-2.67-1.36-3.49c-0.9-0.82-2.19-1.22-3.85-1.22c-1.45,0-2.67,0.3-3.65,0.91
		c-0.98,0.61-1.54,1.43-1.69,2.47h-4c0.27-2.1,1.26-3.78,2.98-5.03c1.72-1.25,3.87-1.87,6.45-1.87c2.82,0,5.04,0.73,6.67,2.18
		c1.63,1.45,2.45,3.42,2.45,5.92v16.81h-3.91v-4.67h-0.67l0.67-0.67c0,1.78-0.69,3.19-2.07,4.22
		C184.77,283.8,182.94,284.32,180.66,284.32z M181.64,281.16c1.9,0,3.45-0.47,4.67-1.42c1.22-0.95,1.82-2.16,1.82-3.65v-3.47h-7.47
		c-1.33,0-2.39,0.37-3.16,1.11c-0.77,0.74-1.16,1.75-1.16,3.02c0,1.36,0.47,2.44,1.4,3.22
		C178.68,280.77,179.98,281.16,181.64,281.16z"/>
	<path d="M212.15,283.87c-2.11,0-3.74-0.56-4.92-1.69c-1.17-1.13-1.76-2.71-1.76-4.76v-14.37h-6.89v-3.65h6.89v-6.89h4v6.89h9.78
		v3.65h-9.78v14.37c0,1.87,0.89,2.8,2.67,2.8h6.67v3.65H212.15z"/>
	<path d="M234.03,284.32c-2.58,0-4.61-0.66-6.09-1.98s-2.22-3.11-2.22-5.36c0-2.28,0.74-4.08,2.22-5.38s3.48-1.96,6-1.96h7.56v-2.45
		c0-1.51-0.45-2.67-1.36-3.49c-0.9-0.82-2.19-1.22-3.85-1.22c-1.45,0-2.67,0.3-3.65,0.91c-0.98,0.61-1.54,1.43-1.69,2.47h-4
		c0.27-2.1,1.26-3.78,2.98-5.03c1.72-1.25,3.87-1.87,6.45-1.87c2.82,0,5.04,0.73,6.67,2.18c1.63,1.45,2.45,3.42,2.45,5.92v16.81
		h-3.91v-4.67h-0.67l0.67-0.67c0,1.78-0.69,3.19-2.07,4.22C238.14,283.8,236.31,284.32,234.03,284.32z M235,281.16
		c1.9,0,3.45-0.47,4.67-1.42s1.82-2.16,1.82-3.65v-3.47h-7.47c-1.33,0-2.39,0.37-3.16,1.11c-0.77,0.74-1.16,1.75-1.16,3.02
		c0,1.36,0.47,2.44,1.4,3.22C232.05,280.77,233.34,281.16,235,281.16z"/>
	<path d="M264.27,284.32c-2.02,0-3.63-0.54-4.85-1.62c-1.22-1.08-1.82-2.56-1.82-4.42l0.8,0.93h-0.8v4.67h-4v-32.47h4v7.12
		l-0.09,5.56h0.89l-0.8,0.93c0-1.84,0.62-3.31,1.85-4.4c1.23-1.1,2.84-1.65,4.83-1.65c2.46,0,4.43,0.82,5.92,2.45
		c1.48,1.63,2.22,3.85,2.22,6.67v7.16c0,2.79-0.74,5-2.22,6.63C268.7,283.5,266.73,284.32,264.27,284.32z M262.93,280.85
		c1.69,0,3.02-0.5,4-1.51s1.47-2.46,1.47-4.36v-6.67c0-1.9-0.49-3.35-1.47-4.36s-2.31-1.51-4-1.51c-1.63,0-2.93,0.52-3.89,1.56
		c-0.96,1.04-1.45,2.48-1.45,4.31v6.67c0,1.84,0.48,3.28,1.45,4.31C260,280.33,261.3,280.85,262.93,280.85z"/>
	<path d="M287.39,284.32c-2.58,0-4.61-0.66-6.09-1.98s-2.22-3.11-2.22-5.36c0-2.28,0.74-4.08,2.22-5.38s3.48-1.96,6-1.96h7.56v-2.45
		c0-1.51-0.45-2.67-1.36-3.49c-0.9-0.82-2.19-1.22-3.85-1.22c-1.45,0-2.67,0.3-3.65,0.91c-0.98,0.61-1.54,1.43-1.69,2.47h-4
		c0.27-2.1,1.26-3.78,2.98-5.03c1.72-1.25,3.87-1.87,6.45-1.87c2.82,0,5.04,0.73,6.67,2.18c1.63,1.45,2.45,3.42,2.45,5.92v16.81
		h-3.91v-4.67h-0.67l0.67-0.67c0,1.78-0.69,3.19-2.07,4.22C291.51,283.8,289.68,284.32,287.39,284.32z M288.37,281.16
		c1.9,0,3.45-0.47,4.67-1.42s1.82-2.16,1.82-3.65v-3.47h-7.47c-1.33,0-2.39,0.37-3.16,1.11c-0.77,0.74-1.16,1.75-1.16,3.02
		c0,1.36,0.47,2.44,1.4,3.22C285.41,280.77,286.71,281.16,288.37,281.16z"/>
	<path d="M315.46,284.23c-1.66,0-3.11-0.26-4.34-0.78c-1.23-0.52-2.21-1.25-2.94-2.2c-0.73-0.95-1.16-2.08-1.31-3.38h4
		c0.18,0.86,0.66,1.54,1.45,2.05c0.79,0.5,1.83,0.76,3.14,0.76h1.87c1.57,0,2.74-0.32,3.51-0.96c0.77-0.64,1.16-1.49,1.16-2.56
		c0-1.04-0.35-1.86-1.05-2.47s-1.73-1.02-3.09-1.22l-3.29-0.53c-2.4-0.42-4.19-1.16-5.36-2.25c-1.17-1.08-1.76-2.66-1.76-4.74
		c0-2.19,0.7-3.89,2.09-5.09c1.39-1.2,3.48-1.8,6.27-1.8h1.69c2.34,0,4.22,0.55,5.65,1.65c1.42,1.1,2.28,2.58,2.58,4.45h-4
		c-0.18-0.77-0.62-1.39-1.33-1.85c-0.71-0.46-1.67-0.69-2.89-0.69h-1.69c-1.51,0-2.62,0.28-3.31,0.85c-0.7,0.56-1.05,1.41-1.05,2.54
		c0,1.01,0.3,1.75,0.89,2.22s1.53,0.82,2.8,1.02l3.29,0.53c2.64,0.42,4.56,1.19,5.76,2.31s1.8,2.76,1.8,4.89
		c0,2.25-0.72,4.03-2.16,5.31c-1.44,1.29-3.61,1.93-6.52,1.93H315.46z"/>
	<path d="M342.89,284.32c-1.93,0-3.61-0.39-5.05-1.16s-2.55-1.86-3.33-3.27c-0.79-1.41-1.18-3.05-1.18-4.91v-6.67
		c0-1.9,0.39-3.54,1.18-4.94c0.79-1.39,1.9-2.48,3.33-3.25c1.44-0.77,3.12-1.16,5.05-1.16s3.61,0.39,5.05,1.16
		c1.44,0.77,2.55,1.85,3.34,3.25c0.79,1.39,1.18,3.04,1.18,4.94v4.31h-15.21v2.36c0,1.93,0.49,3.4,1.47,4.42
		c0.98,1.02,2.37,1.53,4.18,1.53c1.54,0,2.79-0.27,3.74-0.82c0.95-0.55,1.53-1.37,1.73-2.47h4c-0.27,2.05-1.27,3.67-3,4.87
		C347.63,283.72,345.47,284.32,342.89,284.32z M348.54,269.95v-1.65c0-1.93-0.48-3.41-1.45-4.45c-0.96-1.04-2.37-1.56-4.2-1.56
		c-1.81,0-3.2,0.52-4.18,1.56c-0.98,1.04-1.47,2.52-1.47,4.45v1.29h11.61L348.54,269.95z"/>
</g>
</svg>
