<?xml version="1.0" encoding="utf-8"?>
<!-- Generator: Adobe Illustrator 24.1.0, SVG Export Plug-In . SVG Version: 6.00 Build 0)  -->
<svg version="1.1" id="Layer_1" xmlns="http://www.w3.org/2000/svg" xmlns:xlink="http://www.w3.org/1999/xlink" x="0px" y="0px"
	 width="52.22px" height="25.5px" viewBox="0 0 52.22 25.5" style="enable-background:new 0 0 52.22 25.5;" xml:space="preserve">
<path style="fill:#FF6666;" d="M41.88,25.5H10.34C4.63,25.5,0,20.87,0,15.16v-4.82C0,4.63,4.63,0,10.34,0h31.53
	c5.71,0,10.34,4.63,10.34,10.34v4.82C52.22,20.87,47.59,25.5,41.88,25.5z"/>
<g>
	<path style="fill:#FFFFFF;" d="M13.85,20.25c-0.93,0-1.75-0.18-2.45-0.53s-1.24-0.85-1.62-1.5c-0.38-0.65-0.57-1.41-0.57-2.29V9.57
		c0-0.89,0.19-1.66,0.57-2.3c0.38-0.64,0.92-1.14,1.62-1.49c0.7-0.35,1.52-0.53,2.45-0.53c0.95,0,1.76,0.18,2.45,0.53
		c0.69,0.35,1.22,0.85,1.61,1.49c0.39,0.64,0.58,1.41,0.58,2.3h-2.52c0-0.69-0.18-1.22-0.55-1.58c-0.37-0.36-0.89-0.54-1.57-0.54
		s-1.21,0.18-1.58,0.54s-0.56,0.88-0.56,1.56v6.38c0,0.68,0.19,1.21,0.56,1.58c0.37,0.37,0.9,0.56,1.58,0.56s1.2-0.19,1.57-0.56
		c0.37-0.37,0.55-0.9,0.55-1.58v-1.48h-2.48v-2.16h5v3.64c0,0.88-0.19,1.64-0.58,2.29c-0.39,0.65-0.92,1.15-1.61,1.5
		C15.61,20.07,14.79,20.25,13.85,20.25z"/>
	<path style="fill:#FFFFFF;" d="M25.77,20.25c-0.93,0-1.74-0.18-2.43-0.53c-0.69-0.35-1.21-0.85-1.58-1.5
		c-0.37-0.65-0.55-1.41-0.55-2.29V9.57c0-0.88,0.18-1.64,0.55-2.29c0.37-0.65,0.89-1.15,1.58-1.5c0.69-0.35,1.5-0.53,2.43-0.53
		c0.95,0,1.76,0.18,2.44,0.53c0.68,0.35,1.2,0.85,1.57,1.5c0.37,0.65,0.55,1.4,0.55,2.27v6.38c0,0.88-0.18,1.64-0.55,2.29
		c-0.37,0.65-0.89,1.15-1.57,1.5C27.53,20.07,26.71,20.25,25.77,20.25z M25.77,18.05c0.68,0,1.19-0.18,1.54-0.55
		s0.52-0.89,0.52-1.57V9.57c0-0.69-0.17-1.22-0.52-1.58s-0.86-0.54-1.54-0.54s-1.19,0.18-1.54,0.54s-0.52,0.89-0.52,1.58v6.36
		c0,0.68,0.18,1.2,0.53,1.57S25.1,18.05,25.77,18.05z"/>
	<path style="fill:#FFFFFF;" d="M33.31,20.05V5.45h4.86c0.97,0,1.82,0.19,2.55,0.56c0.73,0.37,1.29,0.9,1.69,1.57
		c0.4,0.67,0.6,1.46,0.6,2.37c0,0.89-0.2,1.68-0.61,2.36c-0.41,0.68-0.97,1.21-1.69,1.58c-0.72,0.37-1.57,0.56-2.54,0.56h-2.36v5.6
		H33.31z M35.81,12.19h2.36c0.69,0,1.25-0.2,1.67-0.61c0.42-0.41,0.63-0.95,0.63-1.63c0-0.69-0.21-1.24-0.63-1.64
		c-0.42-0.4-0.98-0.6-1.67-0.6h-2.36V12.19z"/>
</g>
</svg>
