<?xml version="1.0" encoding="utf-8"?>
<!-- Generator: Adobe Illustrator 24.1.0, SVG Export Plug-In . SVG Version: 6.00 Build 0)  -->
<svg version="1.1" id="Layer_1" xmlns="http://www.w3.org/2000/svg" xmlns:xlink="http://www.w3.org/1999/xlink" x="0px" y="0px"
	 viewBox="0 0 25.5 25.5" enable-background="new 0 0 25.5 25.5" xml:space="preserve">
<path fill="#31DE70" d="M17.1,25.5H8.4c-4.64,0-8.4-3.76-8.4-8.4V8.4C0,3.76,3.76,0,8.4,0h8.71c4.64,0,8.4,3.76,8.4,8.4v8.71
	C25.5,21.74,21.74,25.5,17.1,25.5z"/>
<path fill="#FFFFFF" d="M12.75,20.25c-0.93,0-1.75-0.18-2.45-0.53s-1.24-0.85-1.62-1.5c-0.38-0.65-0.57-1.41-0.57-2.29V9.57
	c0-0.89,0.19-1.66,0.57-2.3C9.06,6.63,9.6,6.13,10.3,5.78c0.7-0.35,1.52-0.53,2.45-0.53c0.95,0,1.76,0.18,2.45,0.53
	c0.69,0.35,1.22,0.85,1.61,1.49c0.39,0.64,0.58,1.41,0.58,2.3h-2.52c0-0.69-0.18-1.22-0.55-1.58c-0.37-0.36-0.89-0.54-1.57-0.54
	s-1.21,0.18-1.58,0.54s-0.56,0.88-0.56,1.56v6.38c0,0.68,0.19,1.21,0.56,1.58c0.37,0.37,0.9,0.56,1.58,0.56s1.2-0.19,1.57-0.56
	c0.37-0.37,0.55-0.9,0.55-1.58v-1.48h-2.48v-2.16h5v3.64c0,0.88-0.19,1.64-0.58,2.29c-0.39,0.65-0.92,1.15-1.61,1.5
	C14.51,20.07,13.69,20.25,12.75,20.25z"/>
</svg>
