<?xml version="1.0" encoding="utf-8"?>
<!-- Generator: Adobe Illustrator 24.1.0, SVG Export Plug-In . SVG Version: 6.00 Build 0)  -->
<svg version="1.1" id="Layer_1" xmlns="http://www.w3.org/2000/svg" xmlns:xlink="http://www.w3.org/1999/xlink" x="0px" y="0px"
	 viewBox="0 0 52.22 25.5" enable-background="new 0 0 52.22 25.5" xml:space="preserve">
<path fill="#31DE70" d="M41.88,25.5H10.34C4.63,25.5,0,20.87,0,15.16v-4.82C0,4.63,4.63,0,10.34,0h31.53
	c5.71,0,10.34,4.63,10.34,10.34v4.82C52.22,20.87,47.59,25.5,41.88,25.5z"/>
<g>
	<path fill="#FFFFFF" d="M14.19,20.25c-0.93,0-1.75-0.18-2.45-0.53s-1.24-0.85-1.62-1.5c-0.38-0.65-0.57-1.41-0.57-2.29V9.57
		c0-0.89,0.19-1.66,0.57-2.3c0.38-0.64,0.92-1.14,1.62-1.49c0.7-0.35,1.52-0.53,2.45-0.53c0.95,0,1.76,0.18,2.45,0.53
		c0.69,0.35,1.22,0.85,1.61,1.49c0.39,0.64,0.58,1.41,0.58,2.3h-2.52c0-0.69-0.18-1.22-0.55-1.58c-0.37-0.36-0.89-0.54-1.57-0.54
		s-1.21,0.18-1.58,0.54s-0.56,0.88-0.56,1.56v6.38c0,0.68,0.19,1.21,0.56,1.58c0.37,0.37,0.9,0.56,1.58,0.56s1.2-0.19,1.57-0.56
		c0.37-0.37,0.55-0.9,0.55-1.58v-1.48h-2.48v-2.16h5v3.64c0,0.88-0.19,1.64-0.58,2.29c-0.39,0.65-0.92,1.15-1.61,1.5
		C15.95,20.07,15.13,20.25,14.19,20.25z"/>
	<path fill="#FFFFFF" d="M21.63,20.05V5.45h4.62c0.97,0,1.82,0.18,2.53,0.54s1.27,0.86,1.67,1.51c0.4,0.65,0.6,1.41,0.6,2.29
		c0,0.96-0.24,1.81-0.73,2.54c-0.49,0.73-1.14,1.25-1.97,1.56l2.9,6.16h-2.8l-2.54-5.8h-1.78v5.8H21.63z M24.13,12.05h2.12
		c0.71,0,1.26-0.19,1.66-0.58c0.4-0.39,0.6-0.92,0.6-1.6c0-0.69-0.2-1.24-0.6-1.63c-0.4-0.39-0.95-0.59-1.66-0.59h-2.12V12.05z"/>
	<path fill="#FFFFFF" d="M33.55,20.05V5.45h3.06l4.06,11.8c-0.04-0.43-0.08-0.93-0.13-1.51s-0.08-1.17-0.11-1.78
		c-0.03-0.61-0.04-1.14-0.04-1.59V5.45h2.28v14.6h-3.06l-4.02-11.8c0.03,0.39,0.06,0.85,0.1,1.4s0.07,1.11,0.1,1.68
		c0.03,0.57,0.04,1.1,0.04,1.58v7.14H33.55z"/>
</g>
</svg>
