<?xml version="1.0" encoding="utf-8"?>
<!-- Generator: Adobe Illustrator 24.1.0, SVG Export Plug-In . SVG Version: 6.00 Build 0)  -->
<svg version="1.1" id="Layer_1" xmlns="http://www.w3.org/2000/svg" xmlns:xlink="http://www.w3.org/1999/xlink" x="0px" y="0px"
	 viewBox="0 0 52.22 25.5" enable-background="new 0 0 52.22 25.5" xml:space="preserve">
<path fill="#FFD447" d="M41.88,25.5H10.34C4.63,25.5,0,20.87,0,15.16v-4.82C0,4.63,4.63,0,10.34,0h31.53
	c5.71,0,10.34,4.63,10.34,10.34v4.82C52.22,20.87,47.59,25.5,41.88,25.5z"/>
<g>
	<path fill="#FFFFFF" d="M9.66,20.05v-2.2h2.94V7.65H9.66v-2.2h8.4v2.2h-2.94v10.2h2.94v2.2H9.66z"/>
	<path fill="#FFFFFF" d="M21.3,20.05V5.45h3.06l4.06,11.8c-0.04-0.43-0.08-0.93-0.13-1.51s-0.08-1.17-0.11-1.78
		c-0.03-0.61-0.04-1.14-0.04-1.59V5.45h2.28v14.6h-3.06l-4.02-11.8c0.03,0.39,0.06,0.85,0.1,1.4s0.07,1.11,0.1,1.68
		c0.03,0.57,0.04,1.1,0.04,1.58v7.14H21.3z"/>
	<path fill="#FFFFFF" d="M33.36,20.05V5.45h4.34c0.99,0,1.84,0.19,2.57,0.56c0.73,0.37,1.29,0.9,1.69,1.58
		c0.4,0.68,0.6,1.49,0.6,2.42v5.46c0,0.92-0.2,1.72-0.6,2.41c-0.4,0.69-0.96,1.22-1.69,1.6c-0.73,0.38-1.58,0.57-2.57,0.57H33.36z
		 M35.86,17.75h1.84c0.72,0,1.29-0.2,1.72-0.61c0.43-0.41,0.64-0.96,0.64-1.67v-5.46c0-0.69-0.21-1.24-0.64-1.65s-1-0.61-1.72-0.61
		h-1.84V17.75z"/>
</g>
</svg>
