<?xml version="1.0" encoding="utf-8"?>
<!-- Generator: Adobe Illustrator 24.1.0, SVG Export Plug-In . SVG Version: 6.00 Build 0)  -->
<svg version="1.1" id="Layer_1" xmlns="http://www.w3.org/2000/svg" xmlns:xlink="http://www.w3.org/1999/xlink" x="0px" y="0px"
	 viewBox="0 0 52.22 25.5" enable-background="new 0 0 52.22 25.5" xml:space="preserve">
<path fill="#FFD347" d="M41.88,25.5H10.34C4.63,25.5,0,20.87,0,15.16v-4.82C0,4.63,4.63,0,10.34,0h31.53
	c5.71,0,10.34,4.63,10.34,10.34v4.82C52.22,20.87,47.59,25.5,41.88,25.5z"/>
<path fill="#FFFFFF" d="M9.5,20.12V5.38h2.52v12.4h6.26v2.34H9.5z"/>
<path fill="#FFFFFF" d="M21.35,20.12V17.9h2.97V7.6h-2.97V5.38h8.48V7.6h-2.97v10.3h2.97v2.22H21.35z"/>
<path fill="#FFFFFF" d="M33.21,20.12V5.38h4.52c1.43,0,2.56,0.34,3.39,1.02c0.83,0.68,1.25,1.61,1.25,2.78
	c0,0.66-0.15,1.23-0.44,1.72c-0.3,0.48-0.7,0.86-1.2,1.13s-1.09,0.4-1.75,0.4v-0.08c0.71-0.01,1.35,0.12,1.91,0.39
	c0.56,0.28,1,0.68,1.33,1.22c0.33,0.54,0.49,1.19,0.49,1.96c0,0.85-0.2,1.59-0.58,2.22c-0.39,0.63-0.94,1.12-1.65,1.46
	s-1.55,0.52-2.53,0.52H33.21z M35.67,11.46h2.02c0.67,0,1.2-0.18,1.58-0.54c0.38-0.36,0.58-0.84,0.58-1.46S39.66,8.35,39.28,8
	s-0.91-0.53-1.58-0.53h-2.02V11.46z M35.67,18.02h2.12c0.74,0,1.32-0.2,1.75-0.6c0.42-0.4,0.64-0.94,0.64-1.63
	c0-0.69-0.21-1.24-0.64-1.67s-1.01-0.64-1.75-0.64h-2.12V18.02z"/>
</svg>
