<?xml version="1.0" encoding="utf-8"?>
<!-- Generator: Adobe Illustrator 24.1.0, SVG Export Plug-In . SVG Version: 6.00 Build 0)  -->
<svg version="1.1" id="Layer_1" xmlns="http://www.w3.org/2000/svg" xmlns:xlink="http://www.w3.org/1999/xlink" x="0px" y="0px"
	 viewBox="0 0 1920 1080" style="enable-background:new 0 0 1920 1080;" xml:space="preserve">
<style type="text/css">
	.st0{fill:url(#SVGID_1_);}
	.st1{fill:url(#SVGID_2_);}
	.st2{fill:url(#SVGID_3_);}
	.st3{fill:url(#SVGID_4_);}
</style>
<g>
	<g>
		<linearGradient id="SVGID_1_" gradientUnits="userSpaceOnUse" x1="1104.6602" y1="358.0297" x2="2249.9326" y2="358.0297">
			<stop  offset="0" style="stop-color:#6782FF"/>
			<stop  offset="0.3714" style="stop-color:#00E6F6"/>
			<stop  offset="0.7364" style="stop-color:#25DB00"/>
			<stop  offset="0.9974" style="stop-color:#D6FF92"/>
		</linearGradient>
		<path class="st0" d="M2249.72,127.09c-52.26-4.39-104.52-8.78-156.78-13.17c-25.93-2.18-51.86-4.36-77.79-6.54
			c-27.79-2.33-54.92-5.24-80.77,7.84c-20.61,10.43-35.07,29.61-48.9,47.41c-15.01,19.31-29.56,38.95-43.32,59.18
			c-25.07,36.84-47.75,75.32-67.7,115.17c-40.62,81.17-70.86,168.02-85.26,257.77c-7.31,45.55-11.27,91.6-10.48,137.75
			c0.38,22.24,2.59,44.39,3,66.63c0.1,5.47,0.07,10.94-0.18,16.41c-0.12,2.7-0.3,5.41-0.54,8.1c-0.11,1.22-0.51,2.84-0.41,4.02
			c-0.23-2.78,0.88-5.74,0.1-1.01c-0.81,4.91-1.88,9.78-3.3,14.56c-0.76,2.54-1.66,5.02-2.56,7.52c-1.8,5.02,0.24-1.22,0.69-1.65
			c-0.95,0.88-2.07,4.22-2.7,5.39c-1.15,2.12-2.4,4.19-3.72,6.21c-0.66,1.01-4.85,6.71-1.66,2.55c3.25-4.24-1.88,2.06-2.59,2.84
			c-1.72,1.88-3.51,3.69-5.37,5.43c-1.66,1.55-3.4,2.99-5.12,4.47c-1.98,1.72-3.16,0.92,2.03-1.53c-0.9,0.43-2,1.46-2.77,2.01
			c-4,2.82-8.18,5.38-12.47,7.74c-3.84,2.11-7.77,4.06-11.77,5.86c-1.03,0.47-2.23,0.88-3.24,1.42c6.49-3.52,4.15-1.73,2.23-0.99
			c-2.78,1.07-5.55,2.14-8.35,3.13c-9,3.18-18.19,5.83-27.44,8.18c-23.02,5.84-46.43,10.35-69.82,14.42
			c-12.64,2.2-25.32,4.19-38.03,5.98c-1.45,0.2-3.2,0.66-4.62,0.64c0.89,0.01,6.71-0.87,1.03-0.14c-3.09,0.39-6.17,0.79-9.26,1.17
			c-6.18,0.76-12.36,1.46-18.55,2.12c-50.17,5.34-100.84,7.75-151.3,6.36c-4.94-0.14-9.89-0.34-14.82-0.67
			c-2.64-0.18-5.28-0.38-7.91-0.64c-1.31-0.13-2.63-0.29-3.94-0.41c-6.99-0.67,7.04,1.18,0.13,0.03c-4.83-0.8-9.64-1.67-14.39-2.86
			c-1.54-0.38-15.25-5.41-15.63-5c0.25-0.26,6.82,3.26,1.88,0.73c-1.14-0.58-2.3-1.11-3.44-1.7c-2.28-1.18-4.5-2.46-6.67-3.83
			c-1.09-0.69-2.14-1.43-3.22-2.14c-2.11-1.39-2.09-2.97,1.4,1.18c-1.59-1.89-3.99-3.38-5.77-5.11c-1.84-1.78-3.61-3.64-5.29-5.56
			c0.2,0.23-2.52-2.89-2.48-2.93c0.12-0.12,3.81,5.24,1.16,1.49c-3.17-4.5-6.14-9.09-8.81-13.91c-2.53-4.56-4.82-9.24-6.95-14
			c-3.07-6.86,1.55,4.05-0.42-0.94c-1.22-3.08-2.43-6.16-3.58-9.27c-3.98-10.76-7.5-21.69-10.54-32.75
			c-3.14-11.4-5.78-22.94-7.92-34.58c-0.97-5.29-1.81-10.6-2.61-15.92c-0.82-5.45,0.19,0.78,0.2,1.57c-0.01-1.36-0.36-2.9-0.52-4.27
			c-0.42-3.56-0.79-7.13-1.12-10.7c-2.13-23.21-2.32-46.59-0.56-69.83c0.4-5.36,0.91-10.72,1.52-16.06
			c0.16-1.42,0.34-2.85,0.51-4.27c0.64-5.48-0.02,0.8-0.22,1.57c0.9-3.39,1.06-7.16,1.64-10.63c1.89-11.31,4.25-22.55,7.09-33.66
			c2.83-11.12,6.14-22.11,9.91-32.94c1.87-5.36,3.85-10.67,5.92-15.95c1.03-2.63,2.09-5.26,3.16-7.88c0.54-1.31,1.08-2.62,1.62-3.93
			c2.15-5.24-1.63,3.75-0.13,0.3c9.91-22.86,20.31-45.52,29.68-68.61c17.86-44.02,28.14-90.48,23.04-138.14
			c-4.98-46.56-19.79-90.27-37.75-133.27c-9.51-22.76-19.52-45.3-29.21-67.98c-0.55-1.29-1.1-2.58-1.64-3.86
			c-2.09-4.91,0.31,0.62,0.57,1.36c-0.95-2.61-2.16-5.16-3.21-7.73c-2.25-5.46-4.46-10.95-6.6-16.45
			c-4.25-10.91-8.26-21.91-11.9-33.03c-7.48-22.86-13.52-46.19-18.36-69.75c-2.46-11.96-4.61-23.98-6.49-36.05
			c-0.4-2.56-0.79-5.13-1.16-7.69c-0.21-1.47-0.43-2.93-0.63-4.4c-0.15-1.08-0.83-5.92-0.22-1.53c0.61,4.39-0.05-0.45-0.19-1.53
			c-0.19-1.47-0.37-2.94-0.56-4.42c-0.41-3.32-0.8-6.63-1.18-9.95c-5.44-48.2-7.29-96.72-7.95-145.2
			c-0.32-23.87-0.36-47.75-0.37-71.62c-0.01-15.67-13.77-30.68-29.96-29.96c-16.22,0.73-29.97,13.16-29.96,29.96
			c0.06,100.08,0.74,200.98,21.13,299.4c10.04,48.46,26.41,94.34,45.73,139.79c4.52,10.64,9.15,21.24,13.76,31.85
			c2.24,5.14,4.47,10.29,6.69,15.44c1.11,2.57,2.2,5.15,3.3,7.73c0.62,1.46,2.38,5.17-0.57-1.36c0.72,1.59,1.35,3.22,2.02,4.83
			c8.61,20.71,16.7,41.68,23.19,63.17c3.32,11.01,6.21,22.15,8.5,33.41c1,4.93,1.89,9.88,2.64,14.85c1.16,7.66-0.63-5.71,0.26,1.98
			c0.34,2.99,0.64,5.98,0.88,8.98c0.88,11.05,1.03,22.16,0.34,33.23c-0.17,2.71-0.39,5.42-0.66,8.13c-0.14,1.36-0.31,2.72-0.45,4.08
			c-0.41,4.15,0.95-5.94,0.24-1.76c-0.99,5.89-1.99,11.75-3.33,17.58c-2.59,11.27-5.96,22.34-9.8,33.24
			c-1.87,5.31-3.86,10.57-5.93,15.81c-1.04,2.63-2.1,5.24-3.17,7.85c-0.54,1.31-1.09,2.61-1.63,3.92c-1.44,3.48,2.38-5.51,0.12-0.32
			c-10.09,23.18-20.65,46.17-30.06,69.63c-36.47,91-41.1,194.67-13.33,288.71c13.47,45.61,34.19,96.55,80.07,118.04
			c45.37,21.25,98.88,18.27,147.78,16.73c53.22-1.67,106.28-7.05,158.84-15.49c45.71-7.34,92.53-15.41,135.08-34.34
			c18.82-8.38,37.22-20.47,50.65-36.25c17.33-20.37,26.71-43.89,30.26-70.25c3.11-23.16,1.55-46.26,0.16-69.49
			c-1.34-22.42-1.71-44.87-0.98-67.32c0.73-22.37,2.5-44.71,5.26-66.92c0.17-1.35,0.34-2.69,0.51-4.04
			c0.67-5.34-0.14,1.23-0.26,1.92c0.46-2.67,0.75-5.38,1.15-8.05c0.85-5.7,1.76-11.39,2.73-17.08c1.89-11.04,4.01-22.03,6.37-32.98
			c9.44-43.94,22.56-87.06,38.79-128.96c1.85-4.78,3.74-9.54,5.67-14.29c1.03-2.53,2.09-5.05,3.13-7.58
			c1.56-3.8-2.25,5.26-0.63,1.49c0.67-1.57,1.34-3.15,2.02-4.71c4.48-10.37,9.14-20.65,13.99-30.85
			c9.71-20.43,20.14-40.51,31.24-60.21c22.21-39.4,47.09-77.28,74.3-113.41c1.44-1.91,2.89-3.82,4.34-5.72
			c0.83-1.08,1.63-2.2,2.5-3.25c-4.51,5.52-1.89,2.45-0.92,1.2c3.71-4.73,7.41-9.47,11.22-14.11c3.26-3.96,6.61-7.86,10.19-11.53
			c1.56-1.6,3.16-3.15,4.81-4.65c0.94-0.85,1.93-1.64,2.87-2.49c2.69-2.45-5.3,3.59-0.82,0.68c2.1-1.37,4.18-2.74,6.41-3.91
			c0.01,0,3.26-1.35,3.38-1.64c-0.98,2.24-5.81,2-1.6,0.92c1.97-0.5,6.41-2.59,8.35-1.94c-2.67-0.9-5.29,0.49-1.56,0.35
			c2.17-0.08,4.31-0.22,6.48-0.23c12.11-0.06,24.25,1.44,36.31,2.46c52.66,4.42,105.32,8.85,157.98,13.27
			c25.53,2.15,51.06,4.29,76.59,6.44c15.66,1.32,30.64-14.72,29.96-29.96C2278.9,139.7,2266.5,128.5,2249.72,127.09L2249.72,127.09z
			"/>
	</g>
</g>
<g>
	<g>
		<linearGradient id="SVGID_2_" gradientUnits="userSpaceOnUse" x1="-611.7054" y1="535.186" x2="708.0591" y2="535.186">
			<stop  offset="0.1837" style="stop-color:#00C803"/>
			<stop  offset="0.4672" style="stop-color:#807FFF"/>
			<stop  offset="1" style="stop-color:#3857FF"/>
		</linearGradient>
		<path class="st1" d="M-588.85,542.89c18.33-16.61,36.73-33.15,55.57-49.19c9.62-8.19,19.35-16.25,29.23-24.12
			c2.23-1.77,4.48-3.52,6.71-5.29c2.66-2.11-0.97,0.74-1.24,0.95c1.29-0.99,2.58-1.98,3.87-2.96c5.16-3.92,10.37-7.79,15.64-11.58
			c19.85-14.3,40.46-27.6,62.02-39.18c10.49-5.63,21.22-10.7,32.09-15.55c4.01-1.79-4.69,1.85-0.6,0.26
			c1.1-0.43,2.19-0.89,3.29-1.33c2.93-1.17,5.88-2.3,8.85-3.39c5.93-2.18,11.92-4.21,17.96-6.07c11.39-3.5,22.97-6.38,34.68-8.58
			c2.76-0.52,5.52-0.99,8.29-1.44c0.94-0.15,6.29-0.97,2.64-0.44c-3.44,0.5,1.07-0.13,1.46-0.18c7.28-0.85,14.57-1.53,21.87-2.06
			c27.85-2.01,55.85-2.11,83.59-5.49c28.8-3.51,55.51-10.07,82.12-21.62c20.16-8.75,39.04-20.05,56.87-32.85
			c37.93-27.22,71.46-59.6,106.25-90.57c8.61-7.67,17.32-15.23,26.21-22.57c4-3.3,8.06-6.51,12.11-9.74
			c3.3-2.63-4.18,3.14-0.81,0.62c1.18-0.88,2.35-1.78,3.53-2.67c2.36-1.76,4.73-3.5,7.12-5.22c19.29-13.84,39.82-25.86,60.94-36.68
			c86.44-44.32,181.7-70.76,257.32-134.2c33.35-27.98,60.74-62.12,89.82-94.3c14.33-15.86,29.12-31.38,45.3-45.37
			c3.45-2.99,7.14-6.93,11.12-9.18c-6.9,3.9,0.48-0.3,2.12-1.49c2.21-1.6,4.44-3.16,6.7-4.68c8.47-5.7,17.32-10.84,26.54-15.23
			c2.29-1.09,9.6-2.85,2.25-1.15c2.26-0.52,4.6-1.82,6.77-2.62c4.84-1.76,9.75-3.33,14.77-4.5c2.09-0.48,4.19-0.83,6.29-1.26
			c2.95-0.6,2.66,1.02-2.47,0.28c0.98,0.14,2.81-0.3,3.7-0.38c4.64-0.4,9.31-0.52,13.96-0.35c2.17,0.08,4.32,0.29,6.49,0.42
			c5.12,0.3-1.89-0.17-2.46-0.41c0.92,0.38,2.72,0.43,3.62,0.6c4.73,0.87,9.41,2.07,13.94,3.66c0.82,0.29,1.65,0.7,2.49,0.92
			c3.64,0.96-5.48-2.96-2.32-0.97c1.68,1.06,3.63,1.77,5.37,2.76c1.42,0.81,4.17,3.36,5.71,3.65c-0.06-0.01-4.8-4.2-2.75-2.13
			c0.96,0.98,2.11,1.8,3.1,2.76c1.38,1.33,2.54,2.94,3.94,4.23c2.67,2.44-3.35-5.33-1.7-2.11c0.5,0.97,1.22,1.86,1.78,2.81
			c0.42,0.72,0.78,1.49,1.22,2.19c2.45,3.96-0.91-1.77-0.92-2.52c0.03,1.93,1.54,4.72,2.1,6.67c1.68,5.86,0.49,0.46,0.17-0.4
			c0.43,1.18,0.23,3.98,0.23,5.04c0,1.23-0.22,2.55-0.13,3.78c0.3,4.36,1.16-4.73,0.16-0.44c-0.68,2.92-1.21,5.84-2.05,8.72
			c-0.48,1.66-1.02,3.31-1.59,4.94c-0.24,0.68-2.82,7.3-1.35,3.75c1.3-3.12-0.44,0.91-0.61,1.26c-0.76,1.6-1.51,3.2-2.3,4.78
			c-1.57,3.16-3.22,6.29-4.91,9.39c-3.34,6.13-6.82,12.19-10.26,18.28c-7.4,13.11-14.79,26.22-22.19,39.33
			c-28.87,51.17-57.74,102.34-86.61,153.51c-28.72,50.91-59.33,101.2-81.16,155.58c-20.6,51.33-30.02,107.81-27.67,163.06
			c2.36,55.43,16.91,108.56,38.08,159.58c21.02,50.66,46.54,99.24,68.23,149.59c0.69,1.6,1.37,3.19,2.05,4.79
			c-0.17-0.41-1.78-4.34-0.5-1.14c1.14,2.83,2.32,5.64,3.46,8.47c2.6,6.47,5.12,12.97,7.56,19.5c4.57,12.25,8.86,24.6,12.86,37.04
			c8.13,25.3,15.08,50.99,20.83,76.94c2.92,13.19,5.53,26.45,7.84,39.76c1.04,6.01,2.02,12.03,2.93,18.07
			c0.52,3.45,1.02,6.9,1.5,10.35c0.07,0.49,0.63,4.83,0.17,1.2c-0.53-4.16,0.37,3.02,0.47,3.8c3.27,26.38,5.33,52.92,6.18,79.49
			c0.85,26.57,0.48,53.18-1.1,79.71c-0.78,13.05-1.85,26.08-3.23,39.08c-0.69,6.5-1.51,12.98-2.28,19.47
			c-0.42,3.54,0.16-1.08,0.21-1.48c-0.24,1.73-0.48,3.45-0.72,5.18c-0.55,3.88-1.14,7.76-1.74,11.63
			c-3.99,25.4-9.16,50.6-15.42,75.54c-3.81,15.18,4.9,33.2,20.92,36.85c15.53,3.54,32.77-4.66,36.85-20.92
			c26.62-106.1,33.7-217.29,20.08-325.85c-6.96-55.48-18.27-110.2-35.31-163.5c-16.88-52.8-39.84-103.05-63.61-153.03
			c-5.99-12.59-11.97-25.18-17.77-37.85c-2.53-5.53-5.04-11.08-7.49-16.65c-1.4-3.18-2.78-6.36-4.16-9.55
			c-0.17-0.39-1.86-4.38-0.52-1.21c1.52,3.61-1.22-2.94-1.49-3.62c-10.18-24.76-19.13-50.08-25.52-76.1
			c-1.55-6.32-2.95-12.67-4.18-19.06c-0.59-3.04-1.14-6.1-1.65-9.15c-0.29-1.75-0.54-3.5-0.84-5.25c-0.98-5.82,0.21,2.4-0.21-1.25
			c-1.57-13.66-2.67-27.31-2.86-41.06c-0.19-13.73,0.37-27.47,1.69-41.13c0.3-3.09,0.65-6.17,1-9.25c0.68-5.89,0.15-1.11-0.03,0.06
			c0.26-1.75,0.51-3.51,0.79-5.26c1.1-7,2.4-13.97,3.9-20.89c2.81-12.98,6.32-25.82,10.52-38.42c2.28-6.85,4.78-13.64,7.44-20.35
			c0.51-1.27,1.05-2.53,1.54-3.81c1.7-4.43-1.75,3.93,0.16-0.42c1.65-3.76,3.3-7.52,5.01-11.25c11.66-25.34,25.29-49.71,38.98-74
			c29.53-52.37,59.09-104.73,88.63-157.09c14.55-25.8,29.11-51.59,43.66-77.39c14.25-25.25,31.78-51.41,36.11-80.61
			c4.13-27.81-3.23-57.19-25.28-76.03c-19.08-16.3-41.89-23.83-66.6-26.18c-47.19-4.48-91.81,19.11-127.86,47.24
			c-34.26,26.73-62.01,60.43-90.76,92.72c-14.66,16.46-29.63,32.7-45.91,47.58c-3.95,3.61-7.97,7.14-12.08,10.56
			c-2.1,1.75-4.27,3.43-6.38,5.18c-3.34,2.76,3.99-2.95,0.51-0.38c-1.57,1.16-3.11,2.34-4.68,3.5c-9.72,7.13-19.8,13.77-30.12,20
			C283.43,23.4,238.53,41.7,194.22,60.68c-44.69,19.13-89.45,39.12-129.47,67.03c-39.36,27.45-73.91,60.75-109.59,92.63
			c-8.27,7.39-16.62,14.7-25.14,21.81c-4.22,3.52-8.49,7-12.81,10.41c-5.91,4.67,2.56-1.87-1.72,1.35
			c-2.61,1.97-5.23,3.93-7.88,5.85c-18.14,13.16-37.24,24.44-57.65,33.7c-3.81,1.73,5.11-1.99,1.19-0.52
			c-1.01,0.38-2.01,0.8-3.01,1.19c-2.7,1.04-5.41,2.04-8.14,2.98c-5.69,1.96-11.46,3.69-17.29,5.17
			c-6.62,1.69-13.32,3.05-20.06,4.18c-1.82,0.3-10.08,1.44-4.2,0.7c-4.07,0.51-8.15,0.95-12.23,1.33
			c-27.83,2.62-55.84,2.63-83.67,5.22c-54.27,5.06-105.17,21.61-152.96,47.76c-45.49,24.89-86.79,57.07-126.14,90.64
			c-18.51,15.79-36.61,32.07-54.64,48.4c-11.65,10.55-11.52,31.79,0,42.37C-618.77,554.31-601.27,554.15-588.85,542.89
			L-588.85,542.89z"/>
	</g>
</g>
<g>
	<g>
		<linearGradient id="SVGID_3_" gradientUnits="userSpaceOnUse" x1="901.8898" y1="354.8779" x2="2260.9783" y2="354.8779">
			<stop  offset="0.1837" style="stop-color:#00C803"/>
			<stop  offset="0.4672" style="stop-color:#807FFF"/>
			<stop  offset="1" style="stop-color:#FF3E62"/>
		</linearGradient>
		<path class="st2" d="M2268.42,688.95c-21.01-4.36-42.44-6.32-63.8-8.05c-9.36-0.76-18.72-1.5-28.06-2.52
			c-2.28-0.25-4.7-0.35-6.95-0.82c6.72,1.38,2.6,0.38,1.05,0.13c-5.33-0.85-10.65-1.71-15.93-2.84c-9.04-1.93-17.76-4.62-26.44-7.77
			c-7.24-2.63,5.52,2.94-1.35-0.63c-2.04-1.06-4.13-2-6.15-3.09c-4.67-2.49-9.19-5.26-13.57-8.23c-1.88-1.27-3.73-2.58-5.56-3.91
			c-1.13-0.82-7.47-4.76-1.16-0.83c-3.1-1.94-6.02-4.89-8.79-7.26c-7.55-6.46-14.83-13.22-22.16-19.93
			c-57.1-52.24-131.15-95.21-211.41-88.45c-37.93,3.19-73.87,16.44-105.2,38.05c-29.06,20.04-54.21,44.74-77.49,71.14
			c-22.99,26.07-44.36,53.52-67.62,79.36c-23.98,26.64-49.47,52.01-77.08,74.9c-3.36,2.79-6.75,5.54-10.17,8.24
			c-1.12,0.89-6.76,5.71-0.81,0.66c-1.64,1.4-3.47,2.64-5.2,3.93c-7.5,5.59-15.16,10.98-22.98,16.13
			c-14.24,9.37-29.01,17.95-44.32,25.44c-3.79,1.85-7.61,3.64-11.46,5.36c-1.49,0.66-7.79,4-0.57,0.31
			c-1.84,0.94-3.92,1.61-5.84,2.36c-7.79,3.07-15.71,5.84-23.72,8.27c-8.01,2.43-16.12,4.52-24.31,6.25
			c-4.11,0.86-8.23,1.64-12.38,2.31c-1.98,0.32-4.23,0.94-6.24,0.95c8.84-0.04-0.51-0.02-2.52,0.19c-7.78,0.78-15.6,1.21-23.42,1.29
			c-4.85,0.05-9.7-0.04-14.54-0.35c-2.22-0.14-5.12,0.02-7.25-0.63c7.56,2.29-2.34-0.47-3.97-0.82c-4.74-1-9.28-2.45-13.87-3.95
			c-7.25-2.37,4.19,2.49-1.12-0.54c-1.53-0.87-3.13-1.61-4.66-2.5c-1.51-0.87-2.98-1.79-4.43-2.75c-2.45-1.63-4.39-4.85,0.51,0.64
			c-2.59-2.9-6.06-5.18-8.77-8.04c-1.17-1.23-2.25-2.54-3.39-3.79c-1.57-1.72-1.7-3.74,1.5,2.08c-1.62-2.94-3.98-5.6-5.73-8.49
			c-1.78-2.96-3.42-6.01-4.91-9.13c-1.2-2.51-1.55-6.72,0.19,0.76c-0.51-2.21-1.74-4.45-2.48-6.61c-2.35-6.8-4.14-13.79-5.45-20.87
			c-0.33-1.8-0.61-3.6-0.91-5.4c-1.1-6.58,0.68,7.35,0.13,0.68c-0.31-3.68-0.67-7.34-0.84-11.04c-0.34-7.38-0.23-14.79,0.29-22.16
			c0.25-3.62,1.02-7.33,1.08-10.95c-0.14,8.64-0.42,3.18-0.02,0.77c0.39-2.37,0.83-4.72,1.3-7.07c3.85-19.1,9.66-37.74,15.62-56.26
			c12.7-39.48,25.89-79.43,26.11-121.39c0.23-44.95-13.21-88.8-23.01-132.26c-4.67-20.69-8.9-41.5-12.01-62.49
			c-0.14-0.95-1.55-9.65-0.38-2.51c-0.43-2.6-0.66-5.25-0.95-7.87c-0.59-5.24-1.1-10.49-1.51-15.75
			c-0.89-11.38-1.35-22.8-1.24-34.22c0.09-8.95,0.5-17.91,1.34-26.82c0.2-2.09,0.45-4.18,0.66-6.27c0.74-7.33-1.14,6.89,0.04-0.38
			c0.78-4.86,1.57-9.71,2.55-14.54c1.68-8.27,3.76-16.45,6.24-24.51c1.24-4.02,2.58-8.01,4.02-11.96c0.72-1.97,1.51-3.92,2.24-5.88
			c1.24-3.05,1.03-2.6-0.62,1.35c0.55-1.28,1.11-2.56,1.68-3.83c3.14-6.96,6.64-13.77,10.52-20.35c2.1-3.57,4.32-7.08,6.65-10.51
			c1.16-1.71,2.35-3.41,3.57-5.08c0.81-1.12,1.63-2.22,2.47-3.32c-2.58,3.33-2.86,3.73-0.84,1.19c5.44-6.29,10.91-12.43,17.06-18.05
			c1.54-1.4,3.1-2.78,4.69-4.12c1.21-1.02,5.62-5.86,0.76-0.78c2.98-3.12,7.62-5.51,11.21-7.81c7.71-4.93,15.8-9.02,24.05-12.94
			c6.97-3.32-5.99,2.16,1.26-0.53c2.14-0.8,4.26-1.65,6.42-2.42c5.03-1.8,10.12-3.42,15.26-4.86c8.81-2.47,17.78-4.42,26.81-5.88
			c1.3-0.21,2.69-0.32,3.97-0.61c-8.37,1.88-2.03,0.28,0,0.05c4.65-0.52,9.32-0.9,14-1.16c8.02-0.44,16.07-0.48,24.1-0.15
			c4.02,0.17,8.03,0.43,12.03,0.78c2,0.18,4,0.38,6,0.6c1.33,0.15,2.66,0.31,3.99,0.48c-4.64-0.64-5.3-0.72-1.99-0.24
			c15.9,2.67,31.49,6.26,46.73,11.59c3.79,1.32,7.51,2.79,11.26,4.23c6.57,2.53-6.17-2.84,0.23,0.09c1.82,0.83,3.65,1.63,5.47,2.49
			c7.24,3.4,14.31,7.14,21.18,11.22c6.87,4.08,13.4,8.61,19.92,13.23c5.69,4.03-5.15-4.25,0.26,0.16c1.54,1.26,3.1,2.5,4.63,3.78
			c3.56,2.98,7.03,6.08,10.39,9.28c5.78,5.49,11.27,11.3,16.41,17.4c1.29,1.53,2.54,3.09,3.8,4.64c1.65,2.02,2.95,1.72-1.01-1.31
			c3.53,2.7,6.41,8.99,8.74,12.74c2.38,3.84,4.61,7.79,6.64,11.82c0.94,1.87,2.38,4.09,2.9,6.12c-1.85-7.26-0.21-0.35,0.34,1.18
			c1.51,4.18,2.79,8.45,3.78,12.78c0.39,1.7,1.53,4.75,1.25,6.47c-0.54-4.36-0.64-4.84-0.29-1.46c0.12,1.44,0.2,2.89,0.24,4.34
			c0.06,2.17,0.04,4.34-0.08,6.51c-0.05,0.72-0.1,1.44-0.15,2.16c-0.35,3.38-0.27,2.88,0.23-1.49c0.81,1.77-2.14,8.83-2.74,10.59
			c-0.46,1.35-2.93,8.45-0.17,0.98c-0.76,2.06-1.81,4.06-2.73,6.05c-2.93,6.37-5.84,12.72-8.5,19.21
			c-8.52,20.83-9.76,45.3,3.08,64.81c21.68,32.94,63.51,39.72,99.41,46.28c37.81,6.91,76.02,11.9,113.37,21.14
			c9.03,2.23,18.01,4.71,26.87,7.54c4.42,1.41,8.81,2.89,13.17,4.48c2.18,0.79,4.35,1.61,6.51,2.45c1.4,0.54,11.04,3.86,3.57,1.39
			c17.79,5.89,33.93,18.02,50.11,27.17c19.16,10.83,38.88,18.71,60.88,20.8c22.21,2.11,44.77-4.68,61.8-19.02
			c31.81-26.79,30.5-76.05,9.79-109.09c-21.94-35-61.09-50.31-98.06-64.09c-8.57-3.19-17.07-6.52-25.55-9.93
			c-7.79-3.14,5.59,2.49-2.1-0.88c-2.3-1.01-4.61-2-6.9-3.02c-5.36-2.38-10.68-4.83-15.97-7.36c-17.86-8.53-35.41-17.81-52.36-28.05
			c-3.82-2.31-7.61-4.68-11.3-7.19c-1.84-1.25-3.64-2.57-5.46-3.85c-6.11-4.32,4.58,4.25-0.92-0.8c-3.27-3-6.6-5.85-9.62-9.11
			c-1.45-1.56-3.17-3.23-4.33-5.03c4.37,6.77-0.83-1.69-1.61-2.97c-2.05-3.37-5.16-7.72-6.02-11.6c1.63,7.28,0.41,0.81-0.23-0.96
			c-0.5-1.38-0.97-2.76-1.43-4.15c-3.02-9.16-5.17-18.58-7.13-28.01c-3.78-18.23-7.17-36.45-12.75-54.25
			c-5.87-18.72-13.38-37.03-22.06-54.61c-34.5-69.85-93.04-129.92-165.78-159.21c-37.75-15.2-78.61-17.8-118.37-9.93
			c-40.67,8.05-78.44,27.17-115.54,44.98c-8.92,4.28-17.86,8.52-26.86,12.62c-4.56,2.07-9.13,4.11-13.72,6.11
			c-2.29,1-4.58,2.04-6.9,2.97c6.74-2.72-3.24,1.32-4.41,1.8c-18.53,7.55-37.36,14.37-56.55,20.05
			c-19.52,5.78-40.17,11.54-60.5,13.43c6.51-0.6,1.99-0.25,0.61-0.11c-2.46,0.26-4.91,0.57-7.38,0.81
			c-4.93,0.49-9.86,0.87-14.81,1.13c-10.51,0.56-21.06,0.64-31.56,0.07c-4.32-0.23-9.68,0.07-13.84-1.17
			c7.37,2.19,0.56,0.07-1.2-0.23c-2.28-0.38-4.55-0.8-6.81-1.28c-4.5-0.94-8.97-2.07-13.36-3.42c-1.46-0.45-2.91-0.92-4.36-1.42
			c-1.44-0.5-2.88-1.02-4.3-1.56c-3.11-1.24-2.84-1.11,0.83,0.38c-4.04-0.86-8.66-4.26-12.15-6.39c-1.97-1.2-3.84-2.56-5.79-3.79
			c-6.44-4.07,4.48,4.09-1.26-0.9c-7.6-6.61-14.65-13.58-21.23-21.22c-27.61-32.08-52.36-66.95-78.23-100.43
			c-25.74-33.31-51.47-66.62-77.21-99.92c-4.34-5.62-14.47-8.77-21.18-8.77c-7.35,0-16.12,3.26-21.18,8.77
			c-5.24,5.71-9.13,13.2-8.77,21.18c0.38,8.49,3.63,14.53,8.77,21.18c26.83,34.73,53.66,69.45,80.5,104.18
			c13.69,17.72,27.38,35.43,41.07,53.15c12.09,15.64,23.76,31.77,36.94,46.52c13.88,15.55,30.45,29.45,49.5,38.17
			c20.57,9.42,41.58,14.05,64.05,16.19c41.45,3.94,84.33-2.24,124.42-12.77c41.19-10.82,80.81-27.23,119.35-45.18
			c18.51-8.62,36.75-17.8,55.37-26.16c3.71-1.67,7.43-3.33,11.19-4.9c-6.76,2.82,0.83-0.29,1.85-0.7c2.26-0.9,4.52-1.79,6.79-2.65
			c9.77-3.71,19.7-7.03,29.81-9.71c4.63-1.22,9.29-2.32,13.99-3.25c2.35-0.46,4.71-0.83,7.06-1.27c7.91-1.49-6.51,0.48,1.51-0.22
			c9.74-0.86,19.4-1.36,29.18-0.74c1.84,0.12,3.68,0.26,5.51,0.44c2.19,0.21,8.39-0.48,0.79,0.01c4-0.26,9.1,1.56,12.99,2.45
			c9.33,2.12,18.49,4.98,27.41,8.46c1.61,0.63,8.31,2.26,1.04,0.38c2.02,0.52,4.19,1.88,6.06,2.78c4.03,1.92,7.99,3.96,11.9,6.11
			c7.85,4.32,15.45,9.08,22.79,14.21c1.84,1.29,3.66,2.59,5.47,3.93c1.13,0.83,7.41,4.87,1.07,0.76c3.68,2.39,7.04,5.7,10.35,8.57
			c7.29,6.33,14.26,13.03,20.92,20.02c6.14,6.44,12.02,13.14,17.61,20.06c0.85,1.05,5.73,6.86,0.82,0.93
			c1.18,1.42,2.24,2.96,3.34,4.45c2.86,3.88,5.64,7.82,8.34,11.82c10.35,15.39,19.42,31.64,27.08,48.53
			c0.91,2.01,1.94,4.04,2.69,6.11c-2.7-7.39-0.15-0.25,0.38,1.07c1.64,4.14,3.2,8.31,4.68,12.5c2.95,8.4,5.56,16.92,7.81,25.53
			c4.71,18.02,7.33,36.49,11.91,54.54c5.28,20.78,13.68,40.24,27.01,57.12c12.6,15.96,29.68,27.91,47.03,38.25
			c36.24,21.58,74.78,39.02,114.26,53.75c7.56,2.82,15.09,5.68,22.58,8.66c7,2.78-5.89-2.77,0.91,0.41c1.98,0.93,3.98,1.8,5.95,2.74
			c4.56,2.19,9.04,4.54,13.38,7.14c3.51,2.1,7.78,4.3,10.72,7.17c-5.56-5.43-0.54-0.26,0.6,0.76c1.62,1.44,3.2,2.93,4.71,4.48
			c0.46,0.48,3.17,4.09,3.69,4.1c-0.8-1.05-1.6-2.1-2.4-3.15c0.74,1,1.45,2.01,2.14,3.05c1.03,1.56,2,3.16,2.92,4.79
			c0.61,1.09,1.19,2.2,1.74,3.32c1.36,2.91,1.11,2.24-0.72-2.03c-0.38,1.98,2.39,6.78,2.93,8.84c0.47,1.79,0.79,3.6,1.19,5.41
			c1.4,6.39-0.18-7.21-0.2-0.72c0,1.8,0.15,3.59,0.09,5.4c-0.03,0.59-0.05,1.19-0.08,1.78c-0.29,3.26-0.12,2.37,0.49-2.69
			c-0.66,1.39-0.69,3.61-1.11,5.13c-0.31,1.12-0.65,2.23-1.04,3.32c2-4.45,2.32-5.24,0.98-2.36c-0.87,1.51-1.75,3.02-2.62,4.53
			c-3,5.21,4.89-4.47,0.25-0.52c-0.43,0.43-0.86,0.86-1.28,1.29c-2.42,2.13-1.89,1.81,1.59-0.94c0.14,0.33-4.52,2.83-4.88,3.07
			c-5.32,3.59,6.33-1.7,0.14,0.08c-1.86,0.54-3.67,1.18-5.57,1.62c-0.63,0.14-1.27,0.27-1.9,0.41c-3.27,0.57-2.56,0.5,2.15-0.2
			c-1.78-0.19-4.12,0.31-5.93,0.33c-1.99,0.03-3.99-0.03-5.98-0.17c-0.66-0.05-1.33-0.11-1.99-0.16c-3.33-0.37-2.66-0.28,2.01,0.27
			c-0.01,0.15-10.62-2.56-11.57-2.87c-2.15-0.7-4.78-1.34-6.76-2.46c6.36,3.59-0.44-0.29-1.6-0.85c-5.05-2.43-9.96-5.13-14.82-7.92
			c-16.53-9.49-32.59-19.34-50.15-26.89c-36.97-15.9-75.66-24.86-115.18-31.77c-19.38-3.39-38.82-6.42-58.18-9.92
			c-17.09-3.09-34.71-5.9-51.21-11.46c-0.72-0.24-4.73-2.21-5.32-1.93c1.23,0.53,2.46,1.05,3.68,1.58c-1.14-0.5-2.27-1.02-3.39-1.57
			c-2.08-1.02-7.35-5.56-9.42-5.54c1.08,0.85,2.16,1.69,3.24,2.54c-0.9-0.74-1.78-1.51-2.63-2.31c-1.06-1.01-2.3-3.05-3.52-3.79
			c0.88,1.11,1.76,2.21,2.65,3.32c-0.64-0.95-1.23-1.93-1.77-2.93c-1.39-2.83-1.08-2.03,0.93,2.39c-0.39-1.12-0.72-2.27-0.99-3.43
			c0.13,1.26,0.25,2.53,0.38,3.79c-0.14-1.37-0.2-2.75-0.18-4.13c-0.7-6.52-1.9,6.15-0.11-0.21c0.96-3.42,1.93-6.73,3.06-10.11
			c2.34-6.99-2.83,5.86,0.36-0.88c0.95-2,1.85-4.02,2.78-6.03c2.94-6.35,5.85-12.75,8.36-19.28c15.38-39.94,1.01-85.22-22.89-118.61
			c-21.3-29.76-48.46-54.62-80.11-73.08c-62.56-36.47-138.97-47.62-209.35-30.82c-39.03,9.31-76.55,28.27-104.95,56.93
			c-26.65,26.89-45.08,61.13-56.17,97.13c-25.3,82.12-8.72,169.02,10.66,250.46c4.88,20.52,10.07,41.01,13.32,61.87
			c0.16,1.03,1.89,9.51,0.38,2.44c0.54,2.51,0.6,5.27,0.83,7.82c0.47,5.22,0.79,10.46,0.9,15.7c0.21,9.85-0.05,20.01-1.63,29.75
			c1.26-7.79-0.13,0.27-0.35,1.56c-0.4,2.37-0.84,4.74-1.31,7.1c-0.93,4.73-1.99,9.44-3.14,14.12c-2.5,10.2-5.46,20.29-8.57,30.32
			c-5.79,18.63-12.18,37.07-17.53,55.83c-10.18,35.68-14.57,71.28-9.21,108.1c4.59,31.55,18.42,64.35,42.99,85.56
			c32.28,27.86,74.41,33.3,115.64,29.52c38.51-3.53,74.7-13.96,109.85-29.88c66.05-29.92,122.85-79.2,171.87-131.87
			c23.82-25.59,45.54-52.93,68.26-79.48c10.98-12.83,22.23-25.45,34.11-37.45c5.87-5.93,11.89-11.71,18.11-17.26
			c3.08-2.75,6.21-5.45,9.39-8.09c1.58-1.31,3.19-2.59,4.78-3.89c2.55-2,2.14-1.7-1.21,0.91c1.08-0.82,2.17-1.64,3.27-2.45
			c6.53-4.82,13.29-9.34,20.28-13.47c2.9-1.71,5.83-3.36,8.81-4.93c2.97-1.57,9.36-6.28,12.72-6.15c-1.15,0.48-2.29,0.96-3.44,1.43
			c1.25-0.52,2.5-1.02,3.76-1.51c1.89-0.73,3.8-1.44,5.72-2.11c3.86-1.35,7.77-2.56,11.71-3.64c4.14-1.13,8.32-2.1,12.53-2.91
			c1.92-0.37,4.58-1.26,6.54-1.12c-4.32,0.55-4.79,0.62-1.41,0.22c1.46-0.16,2.92-0.3,4.38-0.43c8.37-0.71,16.79-0.79,25.18-0.3
			c3.72,0.21,8.46-0.06,12.01,1.08c-7.4-2.37-1.33-0.16,0.74,0.18c2.9,0.48,5.79,1.03,8.66,1.63c8.68,1.83,17.25,4.21,25.65,7.05
			c4.24,1.43,8.4,3.06,12.58,4.65c7.15,2.71-5.84-2.74,1.12,0.46c2.73,1.25,5.47,2.47,8.17,3.77c16.27,7.84,31.76,17.3,46.33,27.98
			c1.81,1.33,3.64,2.65,5.4,4.05c-5.99-4.76-0.03,0.05,0.98,0.88c3.5,2.84,6.92,5.76,10.31,8.73c7.47,6.56,14.72,13.35,22.07,20.03
			c14.75,13.39,30.13,26.63,47.29,36.88c17.96,10.72,38.19,17.85,58.69,21.8c19.44,3.74,39.24,5.48,58.95,7.08
			c9.39,0.76,18.77,1.51,28.13,2.53c2.3,0.25,4.72,0.37,6.99,0.82c-7.84-1.56-0.11,0.01,1.31,0.23c4.62,0.72,9.2,1.57,13.78,2.52
			c15.3,3.18,33.1-4.46,36.85-20.92C2292.76,710.82,2284.83,692.36,2268.42,688.95L2268.42,688.95z"/>
	</g>
</g>
<g>
	<g>
		<linearGradient id="SVGID_4_" gradientUnits="userSpaceOnUse" x1="-314.9949" y1="803.6375" x2="1574.3922" y2="803.6375">
			<stop  offset="0.386" style="stop-color:#67BFFF"/>
			<stop  offset="0.7364" style="stop-color:#E4FF54"/>
			<stop  offset="0.9983" style="stop-color:#FF9DB2"/>
		</linearGradient>
		<path class="st3" d="M-284.35,1267.35c15.09-15.64,30.7-30.76,46.91-45.24c7.29-6.51,14.7-12.9,22.21-19.16
			c4.17-3.48,8.38-6.92,12.62-10.31c1.7-1.36,3.4-2.71,5.1-4.06c2.49-1.97,7.71-5.94,2.21-1.76c33.75-25.66,69.17-49,106.28-69.51
			c20.04-11.08,40.55-21.31,61.37-30.84c9.69-4.43,19.45-8.72,29.26-12.88c-7.14,3.03,0.14-0.04,1.93-0.78
			c2.74-1.13,5.48-2.25,8.22-3.37c5.49-2.23,10.99-4.42,16.51-6.59c22.07-8.67,44.31-16.88,66.62-24.9
			c19.61-7.05,41.61-12.54,58.81-24.66c29.1-20.52,38.59-54.07,23.17-86.64c-8.36-17.65-22.71-32.3-36.34-46.03
			c-5.85-5.9-11.75-11.76-17.13-18.1c-5.22-6.14,1.24,0.36,0.7,1.11c0.04-0.05-3.06-4.44-2.86-4.12c-1.13-1.74-2.06-3.6-3.18-5.33
			c-5.15-7.99,1.28,6.49-0.44-0.63c-0.37-1.55-0.88-3.33-1.37-4.81c-2.17-6.55,0.89,2.12,0.2,3.15c0.51-0.76-0.14-6.13-0.19-7.21
			c-0.18-4.62,2.57-1.17-0.65,3.68c0.52-0.78,0.72-3.38,1.02-4.47c1.68-6.13,3.68-3.23-0.88,0.97c0.99-0.91,5.83-8.58,5.83-10
			c0.01,4.06-5.68,6.26-1.05,1.57c1.42-1.44,2.74-2.99,4.18-4.41c1.17-1.16,2.39-2.28,3.62-3.37c0.97-0.87,5.86-6.52,1.8-1.67
			c-3.85,4.6,0.75-0.43,2.17-1.39c1.43-0.97,2.89-1.91,4.36-2.82c4.09-2.55,8.32-4.88,12.64-7.03c1.98-0.98,3.98-1.89,5.98-2.84
			c6.96-3.32-2.25,0.94-2.25,0.93c0.14-1.02,11.15-4.06,12.28-4.42c8.07-2.59,16.33-4.55,24.53-6.7
			c35.97-9.44,74.56-21.3,101.14-48.81c16.8-17.39,26.8-38.87,30-62.71c3.61-26.85-3.53-52.38-14.06-76.85
			c-8.34-19.39-19.54-37-30-55.27c-2.22-3.88-4.37-7.82-6.39-11.81c-1.14-2.24-2.24-4.51-3.31-6.79c-0.21-0.46-0.43-0.91-0.64-1.37
			c-1.81-4.08-1.67-3.67,0.42,1.22c-2.24-1.72-3.82-10.23-4.6-12.69c-1.63-5.15-2.84-10.35-3.96-15.62
			c-1.71-8.03,0.15,2.09,0.21,2.15c-0.89-0.76-0.45-7.19-0.46-8.38c-0.01-1.84,0.11-3.67,0.16-5.51c0.21-8.06-0.03,2.66-0.43,2.51
			c-0.4-0.14,1.84-7.32,1.97-7.88c1.15-4.96,2.26,0.02-1,1.94c0.38-0.22,2.27-4.07,2.64-4.89c3.14-6.98-5.63,4.84,0.93-1.5
			c1.45-1.41,2.93-2.87,4.34-4.31c3.72-3.8,0.6,2.17-2.44,1.79c0.37,0.05,10.06-5.46,10.33-5.87c-0.53,0.78-9.27,3.16-2.85,1.36
			c1.95-0.55,3.86-1.25,5.83-1.78c1.99-0.54,4-1.01,6.02-1.43c3.14-0.64,10.3-0.51-0.63-0.17c17.51-0.55,34.45-1.05,51.99,0.25
			c19.02,1.41,37.93,3.08,57.02,2.32c46.9-1.86,91.89-13.02,134.7-31.94c39.08-17.28,72.21-43.11,104.42-70.79
			c6.64-5.71,13.26-11.43,19.99-17.03c3.71-3.09,7.47-6.12,11.25-9.14c5.63-4.5-0.49,0.19-1.25,0.96c1.93-1.97,4.67-3.48,6.93-5.09
			c7.68-5.49,15.63-10.62,23.93-15.13c3.29-1.79,6.69-3.36,10.03-5.04c8.56-4.3-8.3,2.68,0.81-0.31c2.68-0.88,5.3-1.91,8-2.74
			c4.07-1.25,8.19-2.32,12.35-3.18c3.17-0.65,8.63-0.24-1.18-0.12c1.77-0.02,3.65-0.4,5.43-0.54c4.53-0.34,9.09-0.43,13.63-0.27
			c1.82,0.07,3.64,0.17,5.45,0.31c10.02,0.79,0.73-0.92,0.22-0.1c0.73-1.18,25.31,5.35,26.33,7.2c-0.13-0.23-8.93-4.17-1.98-0.83
			c1.65,0.79,3.3,1.56,4.92,2.39c4.87,2.48,9.59,5.27,14.11,8.34c1.27,0.86,3.14,2.67,4.46,3.16c-6.72-2.51-3.88-3.08-0.64-0.27
			c3.1,2.68,6.06,5.5,8.88,8.47c1.56,1.65,2.97,3.45,4.54,5.09c3.99,4.15-5.44-8.01-0.37-0.54c2.79,4.11,5.49,8.24,7.81,12.64
			c0.46,0.91,0.92,1.81,1.38,2.72c1.87,4.06,1.75,3.67-0.37-1.16c0.87,1.08,1.66,4.68,1.99,5.74c0.6,1.92,1.14,3.87,1.61,5.83
			c0.22,0.98,0.43,1.96,0.65,2.94c0.79,4.51,0.74,3.94-0.14-1.72c0.96,1.19,1.05,10.75,0.05,11.88c0.22-1.58,0.45-3.15,0.67-4.73
			c-0.34,1.96-0.78,3.9-1.31,5.82c-0.29,0.96-0.58,1.92-0.87,2.87c-1.51,4.1-1.15,3.37,1.07-2.18c0.57,0.4-5.38,9.24-5.87,10.06
			c-2.81,4.69,6.67-7.08,0.67-0.94c-1.21,1.24-2.33,2.59-3.53,3.85c-3.07,3.18-6.35,6.16-9.72,9c-1.3,1.09-3.07,2.19-4.18,3.4
			c6.55-7.19,1.84-1.46-0.62,0.32c-16.93,12.3-34.71,23.47-50.36,37.47c-31.45,28.14-54.37,67.94-64,108.95
			c-4.77,20.29-7.11,41.74-5.57,62.57c0.9,12.11,2.76,24.16,4.45,36.18c0.9,6.37-1.2-10.01,0,0.02c0.24,2.02,0.5,4.04,0.72,6.07
			c0.65,5.97,1.15,11.97,1.24,17.97c0.03,2.19,1.18,10.29-0.38,11.65c0.25-1.64,0.5-3.29,0.75-4.93c-0.29,1.87-0.64,3.73-1.07,5.57
			c-0.43,1.84-1,3.62-1.5,5.44c-2.1,7.76,0.87-1.65,0.88-1.65c0.19,0.87-3.59,7.12-4.37,7.53c0.33-0.17,6.4-6.58,0.55-1.03
			c-1.63,1.55-4.29,5.53-6.59,6.22c1.1-0.82,2.21-1.65,3.31-2.47c-1.22,0.92-2.47,1.81-3.73,2.67c-2.1,1.46-4.23,2.86-6.39,4.24
			c-4.14,2.64-8.35,5.17-12.54,7.73c-11.07,6.76-22.13,13.52-33.2,20.28c-8.93,5.45-17.74,11.21-26.95,16.19
			c-1.16,0.63-4.2,2.68-5.75,2.93c8.9-1.43-0.21-0.4-2.39,0.4c-6.39,2.33,1.5-0.77,1.23,0.03c-1.59,0.09-3.18,0.07-4.76-0.06
			c-3.05-0.21-2.11-0.1,2.82,0.31c-1.3,0.68-6.12-1.86-7.58-2.3c-5.49-1.66,7.49,4.7-0.71-0.62c-4.07-2.64-8.42-4.85-12.48-7.54
			c-1.52-1.01-3.22-2.68-4.88-3.38c0.54,0.23,7.66,6.46,3,2.24c-3.22-2.91-6.44-5.74-9.45-8.89c-2.01-2.1-3.95-4.28-5.82-6.5
			c-2.11-2.51-4.89-8.28,0.75,1.19c-0.73-1.22-1.82-2.44-2.64-3.58c-4.39-6.1-8.44-12.46-12.29-18.91
			c-7.65-12.81-14.52-26.06-21.74-39.11c-16.19-29.25-34.98-57.09-63.05-76.13c-14.43-9.79-33.68-17.85-51.39-17.16
			c-22.2,0.87-41.37,14.36-52.01,33.52c-15.45,27.85-18.58,63.94-15.83,95.21c4.26,48.46,26.3,90.67,48.43,133.1
			c22.59,43.31,45.17,86.62,67.76,129.92c11.19,21.45,20.73,45.82,36.66,64.28c8.35,9.68,19.56,16.58,32.06,19.26
			c20.81,4.46,38.46-3.32,54.49-15.71c16.54-12.78,31.8-27.06,47.35-41c6.75-6.05,13.56-12.04,20.57-17.79
			c0.27-0.22,7.92-6.5,2.99-2.49c-4.9,3.98,2.78-2.06,3.1-2.29c4-2.92,8.08-5.73,12.25-8.39c4.16-2.65,8.41-5.15,12.77-7.47
			c2.18-1.16,4.38-2.26,6.61-3.32c2.93-1.39,6.51-5.05,0-0.12c3.28-2.48,9.37-3.36,13.25-4.46c5.66-1.61,11.35-2.7,17.1-3.87
			c7.43-1.5,0.21-0.22-1.14,0.02c2.61-0.46,5.33-0.61,7.97-0.85c4.81-0.44,9.64-0.75,14.47-0.96c10.82-0.48,21.66-0.48,32.49-0.47
			c45.94,0.06,92.28-1.42,133.62-23.92c33.03-17.98,58.16-46.73,83.7-73.6c6.2-6.52,12.48-12.97,19.05-19.13
			c2.6-2.44,5.25-4.85,7.95-7.19c2.02-1.75,4.09-3.42,6.14-5.14c6.05-5.06-6.74,4.5,0.38-0.2c6.82-4.5,13.49-8.96,20.83-12.59
			c0.41-0.2,9.53-3.96,3.53-1.72c-6.03,2.25,3.24-1.06,3.63-1.19c4.67-1.59,9.42-2.93,14.23-4.03c2.39-0.54,4.79-1.02,7.21-1.44
			c0.48-0.08,0.96-0.17,1.45-0.25c4.5-0.69,3.87-0.6-1.89,0.25c2.44,1.35,11.94-0.82,14.68-0.86c3.95-0.05,7.9,0.03,11.84,0.24
			c2.98,0.16,5.95,0.49,8.92,0.69c8.47,0.58-7.8-1.57,1.31,0.14c19.52,3.66,37.9,9.19,56.51,16.07c9.63,3.56-5.16-2.39,0.71,0.23
			c2.42,1.08,4.86,2.13,7.27,3.23c4.35,1.99,8.66,4.06,12.94,6.2c9.97,4.98,19.75,10.34,29.35,15.99
			c16.65,9.79,32.85,20.42,48.55,31.67c4.02,2.88,8.21,5.71,12.01,8.87c-7.82-6.51,2.91,2.45,4.76,3.98
			c7.97,6.63,15.66,13.61,22.88,21.04c2.72,2.8,5.38,5.67,7.96,8.6c1.93,2.19,3.76,4.45,5.64,6.69c4,4.77-1.32-0.67-0.92-1.19
			c-0.19,0.24,14.04,22.37,15.15,24.59c0.23,0.47,4.49,9.04,1.63,3.14c-2.84-5.83,1.02,2.78,1.22,3.36
			c1.67,4.65,3.08,9.39,4.29,14.18c1.25,4.93,2.27,9.91,3.14,14.92c0.01,0.05,1.74,11.05,0.82,4.77c-0.79-5.35,0.8,7.07,0.92,8.22
			c2.5,23.26,4.22,46.7,9.14,69.62c17.09,79.63,68.03,147.63,124.11,204.55c26.57,26.97,54.95,52.08,83.52,76.89
			c15.76,13.69,41.2,16.66,56.49,0c13.79-15.02,16.85-41.86,0-56.49c-29.7-25.8-59.19-51.91-86.67-80.1
			c-13.5-13.85-26.5-28.19-38.69-43.21c-1.55-1.91-3.05-3.85-4.6-5.76c-3.87-4.77,5.73,7.7-0.03-0.06
			c-2.62-3.53-5.23-7.05-7.77-10.63c-5.88-8.3-11.47-16.8-16.7-25.52c-4.45-7.42-8.63-15-12.5-22.73
			c-2.15-4.29-4.13-8.64-6.14-12.99c-3.04-6.57,0.11,0.71,0.64,1.62c-1.61-2.81-2.53-6.33-3.66-9.37
			c-6.44-17.34-13.09-37.08-14.22-55.68c0.53,8.71,0.18,1.02-0.08-1.23c-0.32-2.83-0.62-5.66-0.91-8.5c-0.52-5.1-1-10.21-1.52-15.31
			c-1.45-14.26-3.06-28.58-5.72-42.66c-4.07-21.52-12.09-42.66-23.28-61.5c-22.5-37.89-56.35-66.7-91.81-91.97
			c-35.55-25.34-73.24-46.93-113.74-63.32c-41.65-16.85-86.28-24.89-130.98-18.56c-42.08,5.96-77.99,28.02-108.33,56.98
			c-13.06,12.47-25.08,25.96-37.54,39.01c-5.89,6.16-11.87,12.23-18.1,18.04c-2.92,2.72-5.9,5.39-8.95,7.97
			c-1.69,1.43-3.42,2.8-5.12,4.2c-2.32,1.84-1.38,1.1,2.85-2.22c-1.41,1.05-2.84,2.07-4.29,3.07c-6.55,4.54-13.43,8.41-20.57,11.93
			c-7.78,3.83,5.54-1.59-0.29,0.07c-2.53,0.72-4.99,1.77-7.51,2.54c-5.03,1.54-10.15,2.79-15.32,3.82c-3.03,0.6-6.27,1.4-9.36,1.6
			c1.31-0.08,8.77-0.91,1.15-0.27c-5.32,0.45-10.63,0.9-15.97,1.15c-10.79,0.51-21.6,0.52-32.4,0.51
			c-46.74-0.06-92.45,1.95-134.96,23.56c-37.52,19.07-67.31,50.32-98.74,77.61c-3.42,2.97-6.92,5.84-10.37,8.78
			c-7.34,6.24,4.96-2.71-0.42,0.4c-2.55,1.48-8.09,3.39-0.22,1.03c5.27-1.58,12.71-0.58,17.69,2.43c1.37,1.09,2.75,2.19,4.12,3.28
			c-2.29-2.48-2.39-2.42-0.3,0.18c0.5,0.66,1,1.33,1.49,1.99c-1.02-1.46-1.97-2.96-2.86-4.5c-1.52-2.59-2.87-5.28-4.26-7.93
			c-11.61-22.19-23.17-44.42-34.75-66.63c-22.34-42.84-44.97-85.55-67-128.55c-4.62-9.01-9-18.12-13.2-27.34
			c-4.63-10.13,2.59,7.6-1.15-2.86c-0.75-2.1-1.59-4.17-2.35-6.27c-2.07-5.76-3.9-11.61-5.44-17.53
			c-1.12-4.33-3.47-10.15-3.14-14.68c-0.66,8.78-0.01-0.72-0.19-3.31c-0.49-6.92-0.57-13.87-0.33-20.79
			c0.13-3.69,0.35-7.37,0.69-11.05c0.13-1.48,0.31-2.94,0.45-4.42c0.79-8.3-1.85,10.01-0.2,1.91c1.37-6.74,3.65-13.2,5.16-19.85
			c-2.21,9.74-3.47,7.26-1.84,4.46c0.71-1.22,1.44-2.55,2.06-3.82c3.43-6.97-7.07,7.11-0.91,1.23c4.63-4.41-9.08,5.57-3.46,2.86
			c0.44-0.21-10.83,3.88-5.65,2.5c-11.67,3.1-9.74,0.81-6.34,0.86c6.08,0.08-11.2-3.4-3.26-0.25c1.62,0.64,3.4,1.14,5.06,1.66
			c5.95,1.87-3.33-1.28-3.75-1.63c2.38,1.97,6.34,3.21,9.01,4.88c1.15,0.72,2.25,1.52,3.39,2.25c6.52,4.1-7.35-6.48-1.62-1.29
			c2.54,2.3,5.12,4.53,7.52,6.98c2.43,2.48,4.75,5.08,6.97,7.76c6.68,8.03-4.13-6.24,0.9,1.21c4.32,6.4,8.58,12.79,12.51,19.45
			c15.01,25.47,27.34,52.51,45.29,76.15c28.27,37.22,71.3,69.5,120.53,61.65c24.44-3.89,46.04-19.99,66.71-32.62
			c20.77-12.68,42.44-24.49,61.21-40.11c18.46-15.36,30.68-37.43,34.21-61.12c3.81-25.6-0.01-49.52-3.34-74.98
			c0.16,1.22,1.06,8.97,0.24,1.55c-0.27-2.5-0.58-4.99-0.82-7.48c-0.42-4.38-0.72-8.77-0.83-13.17c-0.11-4.84-0.01-9.69,0.3-14.52
			c0.12-1.93,0.35-3.86,0.47-5.79c0.5-8.37-1.51,8.25,0.35-2.33c1.59-9.07,3.87-18.02,6.85-26.73c0.63-1.83,1.36-3.64,1.96-5.48
			c2.99-9.05-2.74,5.58-0.16,0.12c2.28-4.83,4.53-9.65,7.11-14.33c2.34-4.24,4.87-8.39,7.55-12.42c1.07-1.61,2.21-3.18,3.3-4.79
			c5.35-7.87-4.01,4.57-0.1-0.02c6.64-7.78,13.39-15.24,21.15-21.94c1.01-0.87,4.01-2.77,4.47-3.72c-1.28,0.98-2.56,1.95-3.84,2.93
			c1.08-0.82,2.17-1.64,3.26-2.44c3.31-2.44,6.67-4.82,10.04-7.17c7.52-5.25,15.12-10.4,22.46-15.9
			c18.02-13.49,35.73-28.43,46.36-48.77c12.66-24.26,15.28-50.68,9.42-77.3c-19.63-89.19-126.6-138.78-209.86-111.28
			c-40.63,13.42-73.58,40.03-105.6,67.49c-7.39,6.34-14.74,12.72-22.22,18.95c-3.35,2.79-6.72,5.55-10.13,8.27
			c-0.38,0.3-0.76,0.6-1.13,0.9c-3.44,2.7-3.03,2.39,1.24-0.94c-1.01,0-6.4,4.74-7.2,5.31c-8.23,5.89-16.76,11.36-25.53,16.4
			c-9.29,5.34-19.64,11.98-29.93,15.12c8.16-2.48-2.27,0.9-5.24,2.03c-4.98,1.89-10.01,3.66-15.07,5.3
			c-10.13,3.29-20.44,6.05-30.85,8.3c-5.21,1.12-10.44,2.12-15.7,2.97c-2.04,0.33-4.24,0.8-6.32,0.97
			c10.49-0.85-0.29-0.06-2.07,0.12c-10.6,1.07-21.25,1.61-31.9,1.58c-38.58-0.12-75.9-7.21-114.38-0.26
			c-20.89,3.77-41.1,13.82-56.38,28.6c-18.69,18.09-27.81,42.12-29.96,67.6c-3.8,45.18,21.47,86.08,43.01,123.49
			c4.94,8.59,9.51,17.32,13.75,26.28c4.47,9.44-1.55-5.13,0.38,0.94c0.8,2.54,1.87,5,2.68,7.54c1.15,3.58,4.98,11.65,3.87,15.15
			c-0.17-1.52-0.35-3.03-0.52-4.55c0.23,2.01,0.4,4.03,0.48,6.06c0.09,2.02-0.02,4.03,0.03,6.04c0.23,9.51,1.74-5.78,0.28-0.1
			c-0.62,2.43-1.31,5-1.8,7.45c-1.34,6.79,0.52-2.03,0.94-1.35c0.35,0.57-2.36,4.7-2.77,5.43c-0.99,1.74-2.12,3.38-3.17,5.08
			c-4.17,6.77,6.1-6.13,0.36-0.68c-1.89,1.8-7.92,6.06-8.59,8.12c0.24-0.75,8.03-5.51,2.35-1.93c-1.36,0.86-2.67,1.81-4.04,2.67
			c-3.47,2.19-7.07,4.17-10.74,6.01c-1.87,0.94-3.79,1.76-5.67,2.68c-3.32,1.61,8.69-3.41,0.14-0.12
			c-15.74,6.06-32.1,10.26-48.4,14.5c-36.82,9.57-75.44,25.84-100.19,56c-14.9,18.16-24.7,39.51-24.64,63.43
			c0.06,25.55,11.03,47.47,26.54,67c10.38,13.07,22.89,24.09,34.05,36.44c0.49,0.54,5.39,5.42,5.16,5.97
			c-0.04,0.1-5.72-8.22-1.47-1.89c1.25,1.86,2.54,3.67,3.7,5.59c1.26,2.09,4.03,8.46,0.62,0.14c1.13,2.77,0.22,6.33,0.09-1.74
			c0.25-1.75,0.49-3.5,0.74-5.25c2.7-5.47,3.32-6.87,1.86-4.18c-2.84,4.45,7.13-7.31,1.31-1.68c-5.67,5.49,7.57-4.2,0.35-0.36
			c-1.49,0.79-2.91,1.69-4.41,2.46c-0.76,0.37-1.53,0.75-2.29,1.12c-3.93,1.77-3.09,1.43,2.52-1.03c-1.63-0.92-11.24,4.06-13.04,4.7
			c-11.73,4.17-23.44,8.37-35.14,12.64c-21.15,7.73-42.23,15.68-63.11,24.1c-44.54,17.96-88.43,37.58-130.27,61.23
			c-39.45,22.3-76.7,47.91-112.42,75.76c-32.58,25.4-63.29,53.05-91.97,82.79c-14.52,15.05-16.09,41.71,0,56.49
			C-325.13,1281.77-299.85,1283.42-284.35,1267.35L-284.35,1267.35z"/>
	</g>
</g>
</svg>
