<?xml version="1.0" encoding="utf-8"?>
<!-- Generator: Adobe Illustrator 24.1.0, SVG Export Plug-In . SVG Version: 6.00 Build 0)  -->
<svg version="1.1" id="Layer_1" xmlns="http://www.w3.org/2000/svg" xmlns:xlink="http://www.w3.org/1999/xlink" x="0px" y="0px"
	 viewBox="0 0 25.5 25.5" enable-background="new 0 0 25.5 25.5" xml:space="preserve">
<path fill="#231F20" d="M17.1,25.5H8.4c-4.64,0-8.4-3.76-8.4-8.4V8.4C0,3.76,3.76,0,8.4,0h8.71c4.64,0,8.4,3.76,8.4,8.4v8.71
	C25.5,21.74,21.74,25.5,17.1,25.5z"/>
<g>
	<path fill="#FFFFFF" d="M10.36,15.66l-0.04-4h1.58c0.67,0,1.2-0.18,1.6-0.54c0.4-0.36,0.6-0.83,0.6-1.42c0-0.6-0.2-1.08-0.6-1.43
		c-0.4-0.35-0.94-0.53-1.62-0.53H8.9V5.4h2.86c0.99,0,1.84,0.18,2.56,0.53C15.04,6.28,15.6,6.78,16,7.42s0.6,1.4,0.6,2.28
		c0,0.81-0.17,1.53-0.51,2.14c-0.34,0.61-0.81,1.1-1.41,1.46c-0.6,0.36-1.3,0.55-2.1,0.56v1.8H10.36z M11.18,20.1
		c-0.41,0-0.75-0.12-1-0.37c-0.25-0.25-0.38-0.56-0.38-0.95c0-0.39,0.13-0.7,0.38-0.95c0.25-0.25,0.59-0.37,1-0.37h0.6
		c0.41,0,0.74,0.12,0.99,0.36c0.25,0.24,0.37,0.56,0.37,0.96c0,0.39-0.13,0.7-0.38,0.95c-0.25,0.25-0.59,0.37-1,0.37H11.18z"/>
</g>
</svg>
