<?xml version="1.0" encoding="utf-8"?>
<!-- Generator: Adobe Illustrator 24.1.0, SVG Export Plug-In . SVG Version: 6.00 Build 0)  -->
<svg version="1.1" id="Layer_1" xmlns="http://www.w3.org/2000/svg" xmlns:xlink="http://www.w3.org/1999/xlink" x="0px" y="0px"
	 viewBox="0 0 52.22 25.5" enable-background="new 0 0 52.22 25.5" xml:space="preserve">
<path fill="#231F20" d="M41.88,25.5H10.34C4.63,25.5,0,20.87,0,15.16v-4.82C0,4.63,4.63,0,10.34,0h31.53
	c5.71,0,10.34,4.63,10.34,10.34v4.82C52.22,20.87,47.59,25.5,41.88,25.5z"/>
<g>
	<path fill="#FFFFFF" d="M14.16,20.25c-0.93,0-1.74-0.18-2.43-0.53c-0.69-0.35-1.21-0.85-1.58-1.5c-0.37-0.65-0.55-1.41-0.55-2.29
		V9.57c0-0.88,0.18-1.64,0.55-2.29c0.37-0.65,0.89-1.15,1.58-1.5c0.69-0.35,1.5-0.53,2.43-0.53c0.95,0,1.76,0.18,2.44,0.53
		c0.68,0.35,1.2,0.85,1.57,1.5c0.37,0.65,0.55,1.4,0.55,2.27v6.38c0,0.88-0.18,1.64-0.55,2.29c-0.37,0.65-0.89,1.15-1.57,1.5
		C15.92,20.07,15.1,20.25,14.16,20.25z M14.16,18.05c0.68,0,1.19-0.18,1.54-0.55s0.52-0.89,0.52-1.57V9.57
		c0-0.69-0.17-1.22-0.52-1.58s-0.86-0.54-1.54-0.54s-1.19,0.18-1.54,0.54S12.1,8.87,12.1,9.57v6.36c0,0.68,0.18,1.2,0.53,1.57
		S13.49,18.05,14.16,18.05z"/>
	<path fill="#FFFFFF" d="M24.9,20.05V7.77h-3.82V5.45h10.16v2.32h-3.82v12.28H24.9z"/>
	<path fill="#FFFFFF" d="M33.7,20.05V5.45h2.5v5.86h3.92V5.45h2.5v14.6h-2.5v-6.42H36.2v6.42H33.7z"/>
</g>
</svg>
