<?xml version="1.0" encoding="utf-8"?>
<!-- Generator: Adobe Illustrator 24.1.0, SVG Export Plug-In . SVG Version: 6.00 Build 0)  -->
<svg version="1.1" id="Layer_1" xmlns="http://www.w3.org/2000/svg" xmlns:xlink="http://www.w3.org/1999/xlink" x="0px" y="0px"
	 viewBox="0 0 200 200" style="enable-background:new 0 0 200 200;" xml:space="preserve">
<style type="text/css">
	.st0{fill:#F26767;}
	.st1{fill:#FFFFFF;}
</style>
<path class="st0" d="M142.08,200H57.92C25.93,200,0,174.07,0,142.08V57.92C0,25.93,25.93,0,57.92,0h84.15
	C174.07,0,200,25.93,200,57.92v84.15C200,174.07,174.07,200,142.08,200z"/>
<g>
	<path class="st1" d="M70.9,169.8H54.1V30.2h50.8c25.8,0,39.8,15,39.8,40.2c0,22.4-12.2,36.8-34.4,39l35.6,60.4h-18.8l-34-59.6H70.9
		V169.8z M104.5,96c14,0,22.4-7.4,22.4-20.4V65.2c0-13-8.4-20.4-22.4-20.4H70.9V96H104.5z"/>
</g>
</svg>
