<?xml version="1.0" encoding="utf-8"?>
<!-- Generator: Adobe Illustrator 24.1.0, SVG Export Plug-In . SVG Version: 6.00 Build 0)  -->
<svg version="1.1" id="Layer_1" xmlns="http://www.w3.org/2000/svg" xmlns:xlink="http://www.w3.org/1999/xlink" x="0px" y="0px"
	 width="25.5px" height="25.5px" viewBox="0 0 25.5 25.5" style="enable-background:new 0 0 25.5 25.5;" xml:space="preserve">
<path style="fill:#FF6666;" d="M17.1,25.5H8.4c-4.64,0-8.4-3.76-8.4-8.4V8.4C0,3.76,3.76,0,8.4,0h8.71c4.64,0,8.4,3.76,8.4,8.4v8.71
	C25.5,21.74,21.74,25.5,17.1,25.5z"/>
<g>
	<path style="fill:#FFFFFF;" d="M8.14,20.05V5.45h4.62c0.97,0,1.82,0.18,2.53,0.54s1.27,0.86,1.67,1.51c0.4,0.65,0.6,1.41,0.6,2.29
		c0,0.96-0.24,1.81-0.73,2.54c-0.49,0.73-1.14,1.25-1.97,1.56l2.9,6.16h-2.8l-2.54-5.8h-1.78v5.8H8.14z M10.64,12.05h2.12
		c0.71,0,1.26-0.19,1.66-0.58c0.4-0.39,0.6-0.92,0.6-1.6c0-0.69-0.2-1.24-0.6-1.63c-0.4-0.39-0.95-0.59-1.66-0.59h-2.12V12.05z"/>
</g>
</svg>
