<?xml version="1.0" encoding="utf-8"?>
<!-- Generator: Adobe Illustrator 24.1.0, SVG Export Plug-In . SVG Version: 6.00 Build 0)  -->
<svg version="1.1" id="Layer_1" xmlns="http://www.w3.org/2000/svg" xmlns:xlink="http://www.w3.org/1999/xlink" x="0px" y="0px"
	 viewBox="0 0 225.97 101.14" style="enable-background:new 0 0 225.97 101.14;" xml:space="preserve">
<style type="text/css">
	.st0{fill:#FFFFFF;stroke:#231F20;stroke-width:6.7233;stroke-miterlimit:10;}
	.st1{fill:#FF6666;}
	.st2{fill:#FFFFFF;}
	.st3{fill:none;stroke:#231F20;stroke-width:8.068;stroke-miterlimit:10;}
	.st4{fill:#231F20;stroke:#231F20;stroke-width:9.4127;stroke-miterlimit:10;}
	.st5{fill:none;stroke:#231F20;stroke-width:1.0085;stroke-miterlimit:10;}
	.st6{fill:#FF6060;}
	.st7{fill:#339AFF;}
</style>
<path class="st0" d="M161.03,97.1H26.79c-12.57,0-22.75-10.19-22.75-22.75V31.99c0-12.57,10.19-22.75,22.75-22.75h134.24
	c12.57,0,22.75,10.19,22.75,22.75v42.36C183.78,86.92,173.6,97.1,161.03,97.1z"/>
<g>
	<path class="st1" d="M109.66,101.1h-31.5c-5.7,0-10.33-4.62-10.33-10.33v-4.81c0-5.7,4.62-10.33,10.33-10.33h31.49
		c5.7,0,10.33,4.62,10.33,10.33v4.81C119.99,96.47,115.36,101.1,109.66,101.1z"/>
	<g>
		<path class="st2" d="M81.67,95.85c-0.93,0-1.75-0.18-2.45-0.53c-0.7-0.35-1.24-0.85-1.62-1.5c-0.38-0.65-0.57-1.41-0.57-2.29
			v-6.35c0-0.89,0.19-1.66,0.57-2.3c0.38-0.64,0.92-1.14,1.62-1.49c0.7-0.35,1.52-0.53,2.45-0.53c0.95,0,1.76,0.18,2.45,0.53
			c0.69,0.35,1.22,0.85,1.61,1.49c0.39,0.64,0.58,1.41,0.58,2.3h-2.52c0-0.69-0.18-1.22-0.55-1.58c-0.37-0.36-0.89-0.54-1.57-0.54
			s-1.21,0.18-1.58,0.54c-0.37,0.36-0.56,0.88-0.56,1.56v6.37c0,0.68,0.19,1.21,0.56,1.58c0.37,0.37,0.9,0.56,1.58,0.56
			s1.2-0.19,1.57-0.56c0.37-0.37,0.55-0.9,0.55-1.58v-1.48h-2.48v-2.16h4.99v3.63c0,0.88-0.19,1.64-0.58,2.29
			c-0.39,0.65-0.92,1.15-1.61,1.5C83.43,95.67,82.61,95.85,81.67,95.85z"/>
		<path class="st2" d="M93.57,95.85c-0.93,0-1.74-0.18-2.43-0.53c-0.69-0.35-1.21-0.85-1.58-1.5c-0.37-0.65-0.55-1.41-0.55-2.29
			v-6.35c0-0.88,0.18-1.64,0.55-2.29c0.37-0.65,0.89-1.15,1.58-1.5c0.69-0.35,1.5-0.53,2.43-0.53c0.95,0,1.76,0.18,2.44,0.53
			c0.68,0.35,1.2,0.85,1.57,1.5c0.37,0.65,0.55,1.4,0.55,2.27v6.37c0,0.88-0.18,1.64-0.55,2.29c-0.37,0.65-0.89,1.15-1.57,1.5
			C95.33,95.67,94.51,95.85,93.57,95.85z M93.57,93.66c0.68,0,1.19-0.18,1.54-0.55c0.35-0.37,0.52-0.89,0.52-1.57v-6.35
			c0-0.69-0.17-1.22-0.52-1.58c-0.35-0.36-0.86-0.54-1.54-0.54s-1.19,0.18-1.54,0.54c-0.35,0.36-0.52,0.89-0.52,1.58v6.35
			c0,0.68,0.18,1.2,0.53,1.57C92.4,93.48,92.91,93.66,93.57,93.66z"/>
		<path class="st2" d="M101.1,95.66V81.08h4.85c0.97,0,1.82,0.19,2.55,0.56c0.73,0.37,1.29,0.9,1.69,1.57
			c0.4,0.67,0.6,1.46,0.6,2.37c0,0.89-0.2,1.68-0.61,2.36c-0.41,0.68-0.97,1.21-1.69,1.58c-0.72,0.37-1.57,0.56-2.54,0.56h-2.36
			v5.59H101.1z M103.6,87.81h2.36c0.69,0,1.25-0.2,1.67-0.61c0.42-0.41,0.63-0.95,0.63-1.63c0-0.69-0.21-1.24-0.63-1.64
			s-0.98-0.6-1.67-0.6h-2.36V87.81z"/>
	</g>
</g>
<path class="st3" d="M183.78,63.96h8.15c11.54,0,20.9-9.36,20.9-20.9V13.14"/>
<circle class="st4" cx="212.83" cy="13.14" r="8.43"/>
<rect x="65.02" y="10.13" class="st5" width="57.77" height="85.72"/>
<g>
	<path class="st6" d="M97.69,40.69H89c-4.63,0-8.39-3.75-8.39-8.39v-8.69c0-4.63,3.75-8.39,8.39-8.39h8.7
		c4.63,0,8.39,3.75,8.39,8.39v8.7C106.08,36.93,102.32,40.69,97.69,40.69z"/>
	<g>
		<path class="st2" d="M88.74,35.25V20.67h4.61c0.97,0,1.82,0.18,2.53,0.54c0.71,0.36,1.27,0.86,1.67,1.51
			c0.4,0.65,0.6,1.41,0.6,2.29c0,0.96-0.24,1.81-0.73,2.54s-1.14,1.25-1.97,1.56l2.9,6.15h-2.8l-2.54-5.79h-1.78v5.79H88.74z
			 M91.24,27.26h2.12c0.71,0,1.26-0.19,1.66-0.58c0.4-0.39,0.6-0.92,0.6-1.6c0-0.69-0.2-1.24-0.6-1.63
			c-0.4-0.39-0.95-0.59-1.66-0.59h-2.12V27.26z"/>
	</g>
</g>
<g>
	<path class="st7" d="M52.44,35.6h-31.5c-5.7,0-10.33-4.62-10.33-10.33v-4.81c0-5.7,4.62-10.33,10.33-10.33h31.49
		c5.7,0,10.33,4.62,10.33,10.33v4.81C62.76,30.97,58.14,35.6,52.44,35.6z"/>
	<g>
		<path class="st2" d="M20.02,30.15V15.57h4.33c0.99,0,1.84,0.19,2.57,0.56c0.73,0.37,1.29,0.9,1.69,1.58
			c0.4,0.68,0.6,1.49,0.6,2.42v5.45c0,0.92-0.2,1.72-0.6,2.41c-0.4,0.69-0.96,1.22-1.69,1.6c-0.73,0.38-1.58,0.57-2.57,0.57
			L20.02,30.15z M22.52,27.86h1.84c0.72,0,1.29-0.2,1.72-0.61c0.43-0.41,0.64-0.96,0.64-1.67v-5.45c0-0.69-0.21-1.24-0.64-1.65
			c-0.43-0.41-1-0.61-1.72-0.61h-1.84V27.86z"/>
		<path class="st2" d="M32.26,30.15V15.57h8.75v2.18h-6.29v3.79h5.59v2.16h-5.59v4.27h6.29v2.18L32.26,30.15z"/>
		<path class="st2" d="M43.61,30.15V15.57h2.96l1.42,4.63c0.15,0.47,0.27,0.89,0.36,1.28c0.09,0.39,0.15,0.67,0.18,0.84
			c0.03-0.17,0.09-0.45,0.18-0.84c0.09-0.39,0.21-0.81,0.34-1.28l1.36-4.63h2.96v14.58h-2.34v-4.53c0-0.67,0.02-1.39,0.06-2.18
			c0.04-0.79,0.09-1.57,0.14-2.36c0.05-0.79,0.12-1.53,0.19-2.24c0.07-0.71,0.14-1.33,0.19-1.86l-1.96,6.89h-2.28l-2.02-6.89
			c0.07,0.51,0.13,1.1,0.2,1.79c0.07,0.69,0.13,1.42,0.19,2.2c0.06,0.78,0.11,1.57,0.15,2.37c0.04,0.8,0.06,1.56,0.06,2.28v4.53
			L43.61,30.15z"/>
	</g>
</g>
<g>
	<path class="st7" d="M96.71,70.89h-8.69c-4.63,0-8.39-3.75-8.39-8.39v-8.69c0-4.63,3.75-8.39,8.39-8.39h8.7
		c4.63,0,8.39,3.75,8.39,8.39v8.7C105.1,67.14,101.34,70.89,96.71,70.89z"/>
	<g>
		<path class="st2" d="M88.76,65.45V50.87h4.33c0.99,0,1.84,0.19,2.57,0.56c0.73,0.37,1.29,0.9,1.69,1.58
			c0.4,0.68,0.6,1.49,0.6,2.42v5.45c0,0.92-0.2,1.72-0.6,2.41c-0.4,0.69-0.96,1.22-1.69,1.6c-0.73,0.38-1.58,0.57-2.57,0.57
			L88.76,65.45z M91.25,63.15h1.84c0.72,0,1.29-0.2,1.72-0.61s0.64-0.96,0.64-1.67v-5.45c0-0.69-0.21-1.24-0.64-1.65
			s-1-0.61-1.72-0.61h-1.84V63.15z"/>
	</g>
</g>
<g>
	<path class="st6" d="M39.59,64.53H30.9c-4.63,0-8.39-3.75-8.39-8.39v-8.69c0-4.63,3.75-8.39,8.39-8.39h8.7
		c4.63,0,8.39,3.75,8.39,8.39v8.7C47.98,60.78,44.23,64.53,39.59,64.53z"/>
	<g>
		<path class="st2" d="M30.65,59.09V44.51h4.61c0.97,0,1.82,0.18,2.53,0.54c0.71,0.36,1.27,0.86,1.67,1.51
			c0.4,0.65,0.6,1.41,0.6,2.29c0,0.96-0.24,1.81-0.73,2.54c-0.49,0.73-1.14,1.25-1.97,1.56l2.9,6.15h-2.8l-2.54-5.79h-1.78v5.79
			H30.65z M33.14,51.1h2.12c0.71,0,1.26-0.19,1.66-0.58c0.4-0.39,0.6-0.92,0.6-1.6c0-0.69-0.2-1.24-0.6-1.63s-0.95-0.59-1.66-0.59
			h-2.12V51.1z"/>
	</g>
</g>
<g>
	<path class="st7" d="M39.59,93.81H30.9c-4.63,0-8.39-3.75-8.39-8.39v-8.69c0-4.63,3.75-8.39,8.39-8.39h8.7
		c4.63,0,8.39,3.75,8.39,8.39v8.7C47.98,90.05,44.23,93.81,39.59,93.81z"/>
	<g>
		<path class="st2" d="M31.64,88.37V73.79h4.33c0.99,0,1.84,0.19,2.57,0.56c0.73,0.37,1.29,0.9,1.69,1.58
			c0.4,0.68,0.6,1.49,0.6,2.42v5.45c0,0.92-0.2,1.72-0.6,2.41s-0.96,1.22-1.69,1.6c-0.73,0.38-1.58,0.57-2.57,0.57H31.64z
			 M34.14,86.07h1.84c0.72,0,1.29-0.2,1.72-0.61c0.43-0.41,0.64-0.96,0.64-1.67v-5.45c0-0.69-0.21-1.24-0.64-1.65
			c-0.43-0.41-1-0.61-1.72-0.61h-1.84V86.07z"/>
	</g>
</g>
<g>
	<path class="st1" d="M166.39,71.82h-31.5c-5.7,0-10.33-4.62-10.33-10.33v-4.81c0-5.7,4.62-10.33,10.33-10.33h31.49
		c5.7,0,10.33,4.62,10.33,10.33v4.81C176.71,67.2,172.09,71.82,166.39,71.82z"/>
	<g>
		<path class="st2" d="M138.4,66.58c-0.93,0-1.75-0.18-2.45-0.53c-0.7-0.35-1.24-0.85-1.62-1.5c-0.38-0.65-0.57-1.41-0.57-2.29
			v-6.35c0-0.89,0.19-1.66,0.57-2.3c0.38-0.64,0.92-1.14,1.62-1.49c0.7-0.35,1.52-0.53,2.45-0.53c0.95,0,1.76,0.18,2.45,0.53
			s1.22,0.85,1.61,1.49c0.39,0.64,0.58,1.41,0.58,2.3h-2.52c0-0.69-0.18-1.22-0.55-1.58s-0.89-0.54-1.57-0.54
			c-0.68,0-1.21,0.18-1.58,0.54c-0.37,0.36-0.56,0.88-0.56,1.56v6.37c0,0.68,0.19,1.21,0.56,1.58s0.9,0.56,1.58,0.56
			c0.68,0,1.2-0.19,1.57-0.56c0.37-0.37,0.55-0.9,0.55-1.58v-1.48h-2.48v-2.16h4.99v3.63c0,0.88-0.19,1.64-0.58,2.29
			c-0.39,0.65-0.92,1.15-1.61,1.5C140.15,66.4,139.34,66.58,138.4,66.58z"/>
		<path class="st2" d="M150.3,66.58c-0.93,0-1.74-0.18-2.43-0.53c-0.69-0.35-1.21-0.85-1.58-1.5c-0.37-0.65-0.55-1.41-0.55-2.29
			v-6.35c0-0.88,0.18-1.64,0.55-2.29c0.37-0.65,0.89-1.15,1.58-1.5c0.69-0.35,1.5-0.53,2.43-0.53c0.95,0,1.76,0.18,2.44,0.53
			c0.68,0.35,1.2,0.85,1.57,1.5c0.37,0.65,0.55,1.4,0.55,2.27v6.37c0,0.88-0.18,1.64-0.55,2.29c-0.37,0.65-0.89,1.15-1.57,1.5
			C152.06,66.4,151.24,66.58,150.3,66.58z M150.3,64.38c0.68,0,1.19-0.18,1.54-0.55s0.52-0.89,0.52-1.57v-6.35
			c0-0.69-0.17-1.22-0.52-1.58s-0.86-0.54-1.54-0.54s-1.19,0.18-1.54,0.54c-0.35,0.36-0.52,0.89-0.52,1.58v6.35
			c0,0.68,0.18,1.2,0.53,1.57S149.63,64.38,150.3,64.38z"/>
		<path class="st2" d="M157.83,66.38V51.8h4.85c0.97,0,1.82,0.19,2.55,0.56c0.73,0.37,1.29,0.9,1.69,1.57
			c0.4,0.67,0.6,1.46,0.6,2.37c0,0.89-0.2,1.68-0.61,2.36c-0.41,0.68-0.97,1.21-1.69,1.58c-0.72,0.37-1.57,0.56-2.54,0.56h-2.36
			v5.59H157.83z M160.33,58.53h2.36c0.69,0,1.25-0.2,1.67-0.61c0.42-0.41,0.63-0.95,0.63-1.63c0-0.69-0.21-1.24-0.63-1.64
			s-0.98-0.6-1.67-0.6h-2.36V58.53z"/>
	</g>
</g>
<g>
	<path class="st6" d="M154.25,101.1h-8.69c-4.63,0-8.39-3.75-8.39-8.39v-8.69c0-4.63,3.75-8.39,8.39-8.39h8.7
		c4.63,0,8.39,3.75,8.39,8.39v8.7C162.64,97.34,158.89,101.1,154.25,101.1z"/>
	<g>
		<path class="st2" d="M145.31,95.66V81.08h4.61c0.97,0,1.82,0.18,2.53,0.54c0.71,0.36,1.27,0.86,1.67,1.51
			c0.4,0.65,0.6,1.41,0.6,2.29c0,0.96-0.24,1.81-0.73,2.54c-0.49,0.73-1.14,1.25-1.97,1.56l2.9,6.15h-2.8l-2.54-5.79h-1.78v5.79
			H145.31z M147.8,87.67h2.12c0.71,0,1.26-0.19,1.66-0.58s0.6-0.92,0.6-1.6c0-0.69-0.2-1.24-0.6-1.63s-0.95-0.59-1.66-0.59h-2.12
			V87.67z"/>
	</g>
</g>
<g>
	<path class="st7" d="M166.39,40.69h-31.5c-5.7,0-10.33-4.62-10.33-10.33v-4.81c0-5.7,4.62-10.33,10.33-10.33h31.49
		c5.7,0,10.33,4.62,10.33,10.33v4.81C176.71,36.07,172.09,40.69,166.39,40.69z"/>
	<g>
		<path class="st2" d="M133.97,35.25V20.67h4.33c0.99,0,1.84,0.19,2.57,0.56s1.29,0.9,1.69,1.58s0.6,1.49,0.6,2.42v5.45
			c0,0.92-0.2,1.72-0.6,2.41c-0.4,0.69-0.96,1.22-1.69,1.6c-0.73,0.38-1.58,0.57-2.57,0.57L133.97,35.25z M136.47,32.95h1.84
			c0.72,0,1.29-0.2,1.72-0.61c0.43-0.41,0.64-0.96,0.64-1.67v-5.45c0-0.69-0.21-1.24-0.64-1.65c-0.43-0.41-1-0.61-1.72-0.61h-1.84
			V32.95z"/>
		<path class="st2" d="M146.22,35.25V20.67h8.75v2.18h-6.29v3.79h5.59v2.16h-5.59v4.27h6.29v2.18L146.22,35.25z"/>
		<path class="st2" d="M157.56,35.25V20.67h2.96l1.42,4.63c0.15,0.47,0.27,0.89,0.36,1.28c0.09,0.39,0.15,0.67,0.18,0.84
			c0.03-0.17,0.09-0.45,0.18-0.84c0.09-0.39,0.21-0.81,0.34-1.28l1.36-4.63h2.96v14.58h-2.34v-4.53c0-0.67,0.02-1.39,0.06-2.18
			c0.04-0.79,0.09-1.57,0.14-2.36c0.05-0.79,0.12-1.53,0.19-2.24c0.07-0.71,0.14-1.33,0.19-1.86l-1.96,6.89h-2.28l-2.02-6.89
			c0.07,0.51,0.13,1.1,0.2,1.79c0.07,0.69,0.13,1.42,0.19,2.2c0.06,0.78,0.11,1.57,0.15,2.37s0.06,1.56,0.06,2.28v4.53L157.56,35.25
			z"/>
	</g>
</g>
<path class="st3" d="M161.03,97.1H26.79c-12.57,0-22.75-10.19-22.75-22.75V31.99c0-12.57,10.19-22.75,22.75-22.75h134.24
	c12.57,0,22.75,10.19,22.75,22.75v42.36C183.78,86.92,173.6,97.1,161.03,97.1z"/>
</svg>
