<?xml version="1.0" encoding="utf-8"?>
<!-- Generator: Adobe Illustrator 24.1.0, SVG Export Plug-In . SVG Version: 6.00 Build 0)  -->
<svg version="1.1" id="Layer_1" xmlns="http://www.w3.org/2000/svg" xmlns:xlink="http://www.w3.org/1999/xlink" x="0px"
     y="0px"
     viewBox="0 0 180 305" enable-background="new 0 0 180 3052" xml:space="preserve">
    <g>
	<polygon id="smoothie-fill" fill="none" points="158.84,113.38 150.15,198.17 29.85,198.17 21.16,113.38 	"/>
    <path d="M101.82,236.2c-0.06,4.92-3.13,9.49-7.83,11.13c-4.67,1.64-9.94,0.2-13.11-3.61c-3.16-3.8-3.56-9.35-1.03-13.58
			c2.54-4.26,7.67-6.55,12.53-5.52C97.87,225.77,101.75,230.62,101.82,236.2c0.02,1.61,2.52,1.61,2.5,0
			c-0.08-5.98-3.75-11.31-9.36-13.43c-5.57-2.11-12.17-0.33-15.96,4.27c-3.81,4.63-4.41,11.31-1.31,16.49
			c3.08,5.16,9.14,7.82,15.03,6.74c6.72-1.24,11.51-7.32,11.6-14.06C104.34,234.59,101.84,234.59,101.82,236.2z"/>

    <path d="M150,198.12c-3.99,0-7.98,0-11.98,0c-9.53,0-19.07,0-28.6,0c-11.58,0-23.16,0-34.74,0c-9.97,0-19.93,0-29.9,0
			c-3.29,0-6.58,0-9.87,0c-1.51,0-3.2-0.21-4.7,0c-0.07,0.01-0.14,0-0.21,0c0.62,0.62,1.25,1.25,1.88,1.88
			c-0.67-6.49-1.33-12.97-2-19.46c-1.6-15.57-3.19-31.14-4.79-46.71c-1.92-18.72-3.84-37.44-5.76-56.17
			c-1.67-16.26-3.33-32.51-5-48.77c-0.55-5.32-1.09-10.65-1.64-15.97c-0.25-2.49-0.28-5.13-0.78-7.59C11.89,5.23,11.89,5.11,11.88,5
			c-1.25,0-2.5,0-3.75,0c0.6,5.86,1.2,11.72,1.8,17.57c1.46,14.26,2.92,28.52,4.39,42.78c1.81,17.69,3.63,35.38,5.44,53.07
			c1.66,16.15,3.31,32.3,4.97,48.45c0.99,9.61,1.97,19.23,2.96,28.84c0.19,1.84,0.52,3.69,0.08,5.51
			c-0.96,3.96-1.98,7.91-2.97,11.86c-4.07,16.3-8.15,32.59-12.22,48.89c-1.7,6.8-3.4,13.6-5.1,20.4c-0.93,3.72-2.74,8.28-1.64,12.11
			c1.27,4.46,5.35,7.32,9.91,7.39c0.81,0.01,1.63,0,2.44,0c4.28,0,8.55,0,12.83,0c15.31,0,30.62,0,45.93,0c17.44,0,34.88,0,52.32,0
			c10.96,0,21.92,0,32.89,0c0.73,0,1.45,0.01,2.18,0c5.15-0.1,9.54-3.83,10.15-9.01c0.21-1.83-0.21-3.52-0.64-5.25
			c-0.49-1.96-0.98-3.93-1.47-5.89c-3.88-15.53-7.77-31.06-11.65-46.59c-2.83-11.33-5.77-22.65-8.5-34.01
			c-0.44-1.83-0.06-3.8,0.13-5.64c0.39-3.81,0.78-7.61,1.17-11.42c1.4-13.66,2.8-27.31,4.2-40.97c1.8-17.57,3.6-35.15,5.41-52.72
			c1.69-16.48,3.38-32.96,5.07-49.44c1.08-10.5,2.15-21.01,3.23-31.51c0.15-1.47,0.3-2.94,0.45-4.41c0.25-2.4-3.51-2.38-3.75,0
			c-0.59,5.8-1.19,11.6-1.78,17.4c-1.45,14.14-2.9,28.27-4.35,42.41c-1.79,17.49-3.59,34.97-5.38,52.46
			c-1.66,16.16-3.32,32.32-4.97,48.48c-1.01,9.84-2.02,19.68-3.03,29.52c-0.23,2.29-0.57,4.42-0.05,6.72
			c0.79,3.45,1.72,6.87,2.58,10.31c4,15.99,8,31.99,12,47.98c1.77,7.07,3.54,14.15,5.31,21.22c0.75,3.01,1.72,6.05,2.27,9.11
			c0.73,4.06-2.53,7.46-6.49,7.52c-0.86,0.01-1.71,0-2.57,0c-4.28,0-8.56,0-12.84,0c-15.35,0-30.69,0-46.04,0
			c-17.26,0-34.52,0-51.78,0c-10.99,0-21.99,0-32.98,0c-0.77,0-1.53,0.01-2.3,0c-4.16-0.07-7.27-3.79-6.33-7.92
			c0.72-3.13,1.56-6.23,2.34-9.34c3.95-15.79,7.9-31.58,11.84-47.37c2.63-10.51,5.5-20.99,7.89-31.56c0.53-2.35,0.15-4.61-0.09-6.96
			c-0.4-3.91-0.8-7.83-1.2-11.74c-1.41-13.74-2.82-27.48-4.23-41.22c-1.8-17.51-3.59-35.01-5.39-52.52
			c-1.67-16.31-3.34-32.61-5.02-48.92c-1.07-10.42-2.14-20.84-3.21-31.25c-0.15-1.44-0.3-2.88-0.44-4.32c-0.24-2.38-4-2.4-3.75,0
			c0.67,6.49,1.33,12.97,2,19.46c1.6,15.57,3.19,31.14,4.79,46.71c1.92,18.72,3.84,37.44,5.76,56.17c1.67,16.26,3.33,32.51,5,48.77
			c0.81,7.85,1.55,15.71,2.42,23.56c0.01,0.11,0.02,0.22,0.03,0.33c0.1,1.01,0.78,1.88,1.88,1.88c3.99,0,7.98,0,11.98,0
			c9.53,0,19.07,0,28.6,0c11.58,0,23.16,0,34.74,0c9.97,0,19.93,0,29.9,0c4.84,0,9.73,0.21,14.57,0c0.07,0,0.14,0,0.21,0
			C152.41,201.88,152.42,198.12,150,198.12L150,198.12z"/>
    <path d="M111.44,276.91c0,0.08-0.01,0.15-0.01,0.22c-0.01,0.21,0-0.09,0.02-0.11c-0.05,0.09-0.05,0.25-0.08,0.35
			c-0.02,0.06-0.06,0.14-0.07,0.2c0-0.03,0.14-0.28,0.04-0.1c-0.07,0.12-0.14,0.24-0.22,0.36c-0.13,0.2,0.17-0.16,0.04-0.06
			c-0.04,0.04-0.08,0.09-0.12,0.13c-0.03,0.03-0.07,0.07-0.1,0.1c-0.1,0.09-0.23,0.11,0.04-0.02c-0.1,0.05-0.19,0.14-0.29,0.19
			c-0.04,0.02-0.08,0.04-0.12,0.07c-0.2,0.12,0.29-0.09,0,0c-0.12,0.03-0.23,0.07-0.35,0.1c-0.15,0.03-0.16-0.04,0.08,0
			c-0.06-0.01-0.13,0.01-0.19,0.01c-0.13,0.01-0.25,0-0.37-0.01c-0.17-0.01,0.33,0.06,0.08,0.01c-0.07-0.02-0.14-0.03-0.21-0.05
			c-0.07-0.02-0.14-0.04-0.2-0.07c-0.13-0.04-0.03-0.08,0.1,0.04c-0.08-0.07-0.22-0.11-0.31-0.17c-0.05-0.03-0.1-0.07-0.15-0.1
			c-0.14-0.08,0.24,0.21,0.06,0.04c-0.08-0.08-0.2-0.24-0.29-0.3c0.14,0.09,0.14,0.2,0.07,0.09c-0.04-0.06-0.08-0.12-0.12-0.18
			c-0.02-0.04-0.05-0.08-0.07-0.12c-0.07-0.13-0.03-0.23,0.01,0.04c-0.02-0.11-0.08-0.23-0.11-0.34c-0.01-0.05-0.02-0.09-0.03-0.14
			c-0.05-0.24,0.02,0.32,0,0c-0.01-0.11-0.01-0.23,0-0.34c0.01-0.12,0.08-0.29-0.01,0.04c0.01-0.05,0.02-0.1,0.03-0.14
			c0.03-0.12,0.07-0.23,0.1-0.34c0.08-0.25-0.14,0.26-0.01,0.04c0.03-0.06,0.07-0.13,0.1-0.19c0.03-0.05,0.06-0.1,0.1-0.15
			c0.09-0.14,0.13-0.05-0.05,0.06c0.08-0.05,0.17-0.19,0.24-0.25c0.03-0.03,0.21-0.16,0.03-0.04c-0.19,0.12,0.01-0.01,0.04-0.03
			c0.1-0.07,0.29-0.12,0.37-0.21c-0.02,0.02-0.3,0.11-0.1,0.04c0.07-0.02,0.14-0.05,0.2-0.07c0.07-0.02,0.41-0.08,0.19-0.05
			c-0.23,0.03,0.02,0,0.05,0c0.06,0,0.13,0,0.19,0c0.06,0,0.12,0.01,0.19,0.01c0.26,0.01-0.27-0.06-0.04,0
			c0.14,0.03,0.28,0.07,0.42,0.12c0.23,0.07-0.2-0.12-0.07-0.03c0.07,0.05,0.15,0.08,0.22,0.12c0.04,0.02,0.08,0.05,0.12,0.08
			c0.04,0.03,0.08,0.05,0.11,0.08c-0.16-0.13-0.19-0.15-0.09-0.06c0.08,0.08,0.17,0.16,0.25,0.25c0.18,0.18-0.16-0.25-0.02-0.03
			c0.04,0.06,0.08,0.12,0.12,0.18c0.04,0.06,0.07,0.12,0.1,0.19c0.11,0.2-0.09-0.27-0.01-0.04c0.04,0.14,0.08,0.27,0.12,0.42
			c0.03,0.12-0.04,0.11-0.01-0.11C111.41,276.7,111.44,276.82,111.44,276.91c0.01,0.65,0.57,1.28,1.25,1.25
			c0.67-0.03,1.26-0.55,1.25-1.25c-0.02-1.69-1.07-3.13-2.64-3.72c-1.46-0.55-3.28-0.07-4.27,1.14c-1.07,1.29-1.29,3.12-0.42,4.59
			c0.88,1.47,2.55,2.14,4.2,1.84c1.82-0.33,3.1-2.05,3.13-3.85c0.01-0.65-0.58-1.28-1.25-1.25
			C112.01,275.69,111.45,276.21,111.44,276.91z"/>
    <path d="M71.44,276.91c0,0.08-0.01,0.15-0.01,0.22c-0.01,0.21,0-0.09,0.02-0.11c-0.05,0.09-0.05,0.25-0.08,0.35
			c-0.02,0.06-0.06,0.14-0.07,0.2c0-0.03,0.14-0.28,0.04-0.1c-0.07,0.12-0.14,0.24-0.22,0.36c-0.13,0.2,0.17-0.16,0.04-0.06
			c-0.04,0.04-0.08,0.09-0.12,0.13c-0.03,0.03-0.07,0.07-0.1,0.1c-0.1,0.09-0.23,0.11,0.04-0.02c-0.1,0.05-0.19,0.14-0.29,0.19
			c-0.04,0.02-0.08,0.04-0.12,0.07c-0.2,0.12,0.29-0.09,0,0c-0.12,0.03-0.23,0.07-0.35,0.1c-0.15,0.03-0.16-0.04,0.08,0
			c-0.06-0.01-0.13,0.01-0.19,0.01c-0.13,0.01-0.25,0-0.37-0.01c-0.17-0.01,0.33,0.06,0.08,0.01c-0.07-0.02-0.14-0.03-0.21-0.05
			c-0.07-0.02-0.14-0.04-0.2-0.07c-0.13-0.04-0.03-0.08,0.1,0.04c-0.08-0.07-0.22-0.11-0.31-0.17c-0.05-0.03-0.1-0.07-0.15-0.1
			c-0.14-0.08,0.24,0.21,0.06,0.04c-0.08-0.08-0.2-0.24-0.29-0.3c0.14,0.09,0.14,0.2,0.07,0.09c-0.04-0.06-0.08-0.12-0.12-0.18
			c-0.02-0.04-0.05-0.08-0.07-0.12c-0.07-0.13-0.03-0.23,0.01,0.04c-0.02-0.11-0.08-0.23-0.11-0.34c-0.01-0.05-0.02-0.09-0.03-0.14
			c-0.05-0.24,0.02,0.32,0,0c-0.01-0.11-0.01-0.23,0-0.34c0.01-0.12,0.08-0.29-0.01,0.04c0.01-0.05,0.02-0.1,0.03-0.14
			c0.03-0.12,0.07-0.23,0.1-0.34c0.08-0.25-0.14,0.26-0.01,0.04c0.03-0.06,0.07-0.13,0.1-0.19c0.03-0.05,0.06-0.1,0.1-0.15
			c0.09-0.14,0.13-0.05-0.05,0.06c0.08-0.05,0.17-0.19,0.24-0.25c0.03-0.03,0.21-0.16,0.03-0.04c-0.19,0.12,0.01-0.01,0.04-0.03
			c0.1-0.07,0.29-0.12,0.37-0.21c-0.02,0.02-0.3,0.11-0.1,0.04c0.07-0.02,0.14-0.05,0.2-0.07c0.07-0.02,0.41-0.08,0.19-0.05
			c-0.23,0.03,0.02,0,0.05,0c0.06,0,0.13,0,0.19,0c0.06,0,0.12,0.01,0.19,0.01c0.26,0.01-0.27-0.06-0.04,0
			c0.14,0.03,0.28,0.07,0.42,0.12c0.23,0.07-0.2-0.12-0.07-0.03c0.07,0.05,0.15,0.08,0.22,0.12c0.04,0.02,0.08,0.05,0.12,0.08
			c0.04,0.03,0.08,0.05,0.11,0.08c-0.16-0.13-0.19-0.15-0.09-0.06c0.08,0.08,0.17,0.16,0.25,0.25c0.18,0.18-0.16-0.25-0.02-0.03
			c0.04,0.06,0.08,0.12,0.12,0.18c0.04,0.06,0.07,0.12,0.1,0.19c0.11,0.2-0.09-0.27-0.01-0.04c0.04,0.14,0.08,0.27,0.12,0.42
			c0.03,0.12-0.04,0.11-0.01-0.11C71.41,276.7,71.44,276.82,71.44,276.91c0.01,0.65,0.57,1.28,1.25,1.25
			c0.67-0.03,1.26-0.55,1.25-1.25c-0.02-1.69-1.07-3.13-2.64-3.72c-1.46-0.55-3.28-0.07-4.27,1.14c-1.07,1.29-1.29,3.12-0.42,4.59
			c0.88,1.47,2.55,2.14,4.2,1.84c1.82-0.33,3.1-2.05,3.13-3.85c0.01-0.65-0.58-1.28-1.25-1.25
			C72.01,275.69,71.45,276.21,71.44,276.91z"/>
    <path d="M131.44,276.91c0,0.08-0.01,0.15-0.01,0.22c-0.01,0.21,0-0.09,0.02-0.11c-0.05,0.09-0.05,0.25-0.08,0.35
			c-0.02,0.06-0.06,0.14-0.07,0.2c0-0.03,0.14-0.28,0.04-0.1c-0.07,0.12-0.14,0.24-0.22,0.36c-0.13,0.2,0.17-0.16,0.04-0.06
			c-0.04,0.04-0.08,0.09-0.12,0.13c-0.03,0.03-0.07,0.07-0.1,0.1c-0.1,0.09-0.23,0.11,0.04-0.02c-0.1,0.05-0.19,0.14-0.29,0.19
			c-0.04,0.02-0.08,0.04-0.12,0.07c-0.2,0.12,0.29-0.09,0,0c-0.12,0.03-0.23,0.07-0.35,0.1c-0.15,0.03-0.16-0.04,0.08,0
			c-0.06-0.01-0.13,0.01-0.19,0.01c-0.13,0.01-0.25,0-0.37-0.01c-0.17-0.01,0.33,0.06,0.08,0.01c-0.07-0.02-0.14-0.03-0.21-0.05
			c-0.07-0.02-0.14-0.04-0.2-0.07c-0.13-0.04-0.03-0.08,0.1,0.04c-0.08-0.07-0.22-0.11-0.31-0.17c-0.05-0.03-0.1-0.07-0.15-0.1
			c-0.14-0.08,0.24,0.21,0.06,0.04c-0.08-0.08-0.2-0.24-0.29-0.3c0.14,0.09,0.14,0.2,0.07,0.09c-0.04-0.06-0.08-0.12-0.12-0.18
			c-0.02-0.04-0.05-0.08-0.07-0.12c-0.07-0.13-0.03-0.23,0.01,0.04c-0.02-0.11-0.08-0.23-0.11-0.34c-0.01-0.05-0.02-0.09-0.03-0.14
			c-0.05-0.24,0.02,0.32,0,0c-0.01-0.11-0.01-0.23,0-0.34c0.01-0.12,0.08-0.29-0.01,0.04c0.01-0.05,0.02-0.1,0.03-0.14
			c0.03-0.12,0.07-0.23,0.1-0.34c0.08-0.25-0.14,0.26-0.01,0.04c0.03-0.06,0.07-0.13,0.1-0.19c0.03-0.05,0.06-0.1,0.1-0.15
			c0.09-0.14,0.13-0.05-0.05,0.06c0.08-0.05,0.17-0.19,0.24-0.25c0.03-0.03,0.21-0.16,0.03-0.04c-0.19,0.12,0.01-0.01,0.04-0.03
			c0.1-0.07,0.29-0.12,0.37-0.21c-0.02,0.02-0.3,0.11-0.1,0.04c0.07-0.02,0.14-0.05,0.2-0.07c0.07-0.02,0.41-0.08,0.19-0.05
			c-0.23,0.03,0.02,0,0.05,0c0.06,0,0.13,0,0.19,0c0.06,0,0.12,0.01,0.19,0.01c0.26,0.01-0.27-0.06-0.04,0
			c0.14,0.03,0.28,0.07,0.42,0.12c0.23,0.07-0.2-0.12-0.07-0.03c0.07,0.05,0.15,0.08,0.22,0.12c0.04,0.02,0.08,0.05,0.12,0.08
			c0.04,0.03,0.08,0.05,0.11,0.08c-0.16-0.13-0.19-0.15-0.09-0.06c0.08,0.08,0.17,0.16,0.25,0.25c0.18,0.18-0.16-0.25-0.02-0.03
			c0.04,0.06,0.08,0.12,0.12,0.18c0.04,0.06,0.07,0.12,0.1,0.19c0.11,0.2-0.09-0.27-0.01-0.04c0.04,0.14,0.08,0.27,0.12,0.42
			c0.03,0.12-0.04,0.11-0.01-0.11C131.41,276.7,131.44,276.82,131.44,276.91c0.01,0.65,0.57,1.28,1.25,1.25
			c0.67-0.03,1.26-0.55,1.25-1.25c-0.02-1.69-1.07-3.13-2.64-3.72c-1.46-0.55-3.28-0.07-4.27,1.14c-1.07,1.29-1.29,3.12-0.42,4.59
			c0.88,1.47,2.55,2.14,4.2,1.84c1.82-0.33,3.1-2.05,3.13-3.85c0.01-0.65-0.58-1.28-1.25-1.25
			C132.01,275.69,131.45,276.21,131.44,276.91z"/>
    <path d="M51.44,276.91c0,0.08-0.01,0.15-0.01,0.22c-0.01,0.21,0-0.09,0.02-0.11c-0.05,0.09-0.05,0.25-0.08,0.35
			c-0.02,0.06-0.06,0.14-0.07,0.2c0-0.03,0.14-0.28,0.04-0.1c-0.07,0.12-0.14,0.24-0.22,0.36c-0.13,0.2,0.17-0.16,0.04-0.06
			c-0.04,0.04-0.08,0.09-0.12,0.13c-0.03,0.03-0.07,0.07-0.1,0.1c-0.1,0.09-0.23,0.11,0.04-0.02c-0.1,0.05-0.19,0.14-0.29,0.19
			c-0.04,0.02-0.08,0.04-0.12,0.07c-0.2,0.12,0.29-0.09,0,0c-0.12,0.03-0.23,0.07-0.35,0.1c-0.15,0.03-0.16-0.04,0.08,0
			c-0.06-0.01-0.13,0.01-0.19,0.01c-0.13,0.01-0.25,0-0.37-0.01c-0.17-0.01,0.33,0.06,0.08,0.01c-0.07-0.02-0.14-0.03-0.21-0.05
			c-0.07-0.02-0.14-0.04-0.2-0.07c-0.13-0.04-0.03-0.08,0.1,0.04c-0.08-0.07-0.22-0.11-0.31-0.17c-0.05-0.03-0.1-0.07-0.15-0.1
			c-0.14-0.08,0.24,0.21,0.06,0.04c-0.08-0.08-0.2-0.24-0.29-0.3c0.14,0.09,0.14,0.2,0.07,0.09c-0.04-0.06-0.08-0.12-0.12-0.18
			c-0.02-0.04-0.05-0.08-0.07-0.12c-0.07-0.13-0.03-0.23,0.01,0.04c-0.02-0.11-0.08-0.23-0.11-0.34c-0.01-0.05-0.02-0.09-0.03-0.14
			c-0.05-0.24,0.02,0.32,0,0c-0.01-0.11-0.01-0.23,0-0.34c0.01-0.12,0.08-0.29-0.01,0.04c0.01-0.05,0.02-0.1,0.03-0.14
			c0.03-0.12,0.07-0.23,0.1-0.34c0.08-0.25-0.14,0.26-0.01,0.04c0.03-0.06,0.07-0.13,0.1-0.19c0.03-0.05,0.06-0.1,0.1-0.15
			c0.09-0.14,0.13-0.05-0.05,0.06c0.08-0.05,0.17-0.19,0.24-0.25c0.03-0.03,0.21-0.16,0.03-0.04c-0.19,0.12,0.01-0.01,0.04-0.03
			c0.1-0.07,0.29-0.12,0.37-0.21c-0.02,0.02-0.3,0.11-0.1,0.04c0.07-0.02,0.14-0.05,0.2-0.07c0.07-0.02,0.41-0.08,0.19-0.05
			c-0.23,0.03,0.02,0,0.05,0c0.06,0,0.13,0,0.19,0c0.06,0,0.12,0.01,0.19,0.01c0.26,0.01-0.27-0.06-0.04,0
			c0.14,0.03,0.28,0.07,0.42,0.12c0.23,0.07-0.2-0.12-0.07-0.03c0.07,0.05,0.15,0.08,0.22,0.12c0.04,0.02,0.08,0.05,0.12,0.08
			c0.04,0.03,0.08,0.05,0.11,0.08c-0.16-0.13-0.19-0.15-0.09-0.06c0.08,0.08,0.17,0.16,0.25,0.25c0.18,0.18-0.16-0.25-0.02-0.03
			c0.04,0.06,0.08,0.12,0.12,0.18c0.04,0.06,0.07,0.12,0.1,0.19c0.11,0.2-0.09-0.27-0.01-0.04c0.04,0.14,0.08,0.27,0.12,0.42
			c0.03,0.12-0.04,0.11-0.01-0.11C51.41,276.7,51.44,276.82,51.44,276.91c0.01,0.65,0.57,1.28,1.25,1.25
			c0.67-0.03,1.26-0.55,1.25-1.25c-0.02-1.69-1.07-3.13-2.64-3.72c-1.46-0.55-3.28-0.07-4.27,1.14c-1.07,1.29-1.29,3.12-0.42,4.59
			c0.88,1.47,2.55,2.14,4.2,1.84c1.82-0.33,3.1-2.05,3.13-3.85c0.01-0.65-0.58-1.28-1.25-1.25
			C52.01,275.69,51.45,276.21,51.44,276.91z"/>
	</g>
</svg>
