<?xml version="1.0" encoding="utf-8"?>
<!-- Generator: Adobe Illustrator 24.1.0, SVG Export Plug-In . SVG Version: 6.00 Build 0)  -->
<svg version="1.1" id="Layer_1" xmlns="http://www.w3.org/2000/svg" xmlns:xlink="http://www.w3.org/1999/xlink" x="0px" y="0px"
	 viewBox="0 0 92.23 26.65" enable-background="new 0 0 92.23 26.65" xml:space="preserve">
<rect x="-45.75" y="-61.91" fill="#D62D30" width="142.16" height="197.71"/>
<g>
	<path fill="#FFFFFF" d="M6.91,20.02c-1.13,0-2.1-0.19-2.93-0.57c-0.82-0.38-1.46-0.92-1.91-1.62c-0.45-0.7-0.67-1.52-0.67-2.47
		h2.65c0,0.72,0.26,1.28,0.78,1.69c0.52,0.41,1.23,0.62,2.13,0.62c0.84,0,1.5-0.2,1.99-0.61s0.73-0.96,0.73-1.68
		c0-0.59-0.17-1.11-0.5-1.54c-0.33-0.43-0.82-0.73-1.44-0.88l-2.01-0.57c-1.27-0.35-2.24-0.96-2.93-1.82
		C2.1,9.7,1.76,8.67,1.76,7.48c0-0.95,0.21-1.76,0.63-2.45C2.81,4.35,3.4,3.81,4.17,3.42c0.77-0.39,1.68-0.58,2.73-0.58
		c1.59,0,2.84,0.42,3.77,1.25c0.93,0.83,1.4,1.94,1.42,3.33H9.42c0-0.69-0.22-1.23-0.66-1.62c-0.44-0.4-1.07-0.59-1.88-0.59
		c-0.78,0-1.38,0.19-1.82,0.56S4.42,6.64,4.42,7.3c0,0.61,0.16,1.13,0.49,1.56c0.33,0.43,0.8,0.73,1.41,0.92l2.08,0.59
		c1.27,0.34,2.24,0.93,2.92,1.78c0.68,0.85,1.02,1.9,1.02,3.13c0,0.95-0.23,1.77-0.67,2.48c-0.45,0.71-1.08,1.26-1.89,1.66
		S8.01,20.02,6.91,20.02z"/>
	<path fill="#FFFFFF" d="M19.95,19.99c-1.05,0-1.96-0.2-2.73-0.59s-1.37-0.96-1.8-1.7c-0.43-0.74-0.64-1.61-0.64-2.62v-3.16
		c0-1.01,0.21-1.88,0.64-2.62c0.43-0.74,1.03-1.31,1.8-1.7C17.98,7.2,18.9,7,19.95,7c1.07,0,1.98,0.2,2.75,0.59
		c0.76,0.4,1.36,0.96,1.79,1.7c0.43,0.74,0.64,1.61,0.64,2.6v3.18c0,1.01-0.21,1.88-0.64,2.62c-0.43,0.74-1.02,1.31-1.79,1.7
		S21.01,19.99,19.95,19.99z M19.95,17.66c0.79,0,1.41-0.22,1.85-0.66s0.66-1.08,0.66-1.92v-3.16c0-0.85-0.22-1.5-0.66-1.93
		s-1.06-0.65-1.85-0.65c-0.78,0-1.39,0.22-1.84,0.65c-0.45,0.43-0.67,1.08-0.67,1.93v3.16c0,0.84,0.22,1.48,0.67,1.92
		C18.56,17.44,19.17,17.66,19.95,17.66z"/>
	<path fill="#FFFFFF" d="M34.91,19.79c-0.81,0-1.51-0.16-2.12-0.49c-0.6-0.33-1.07-0.79-1.41-1.38c-0.34-0.59-0.5-1.29-0.5-2.08
		V5.49h-4.07v-2.4h6.75v12.74c0,0.47,0.13,0.85,0.4,1.13s0.63,0.42,1.09,0.42h3.87v2.4H34.91z"/>
	<path fill="#FFFFFF" d="M41.04,19.79v-2.42h4.42V9.61h-3.84v-2.4h6.41v10.16H52v2.42H41.04z M46.51,5.06
		c-0.56,0-1.01-0.14-1.33-0.42c-0.32-0.28-0.48-0.67-0.48-1.16c0-0.5,0.16-0.9,0.48-1.19C45.5,2,45.94,1.85,46.51,1.85
		c0.56,0,1.01,0.15,1.33,0.43c0.32,0.29,0.48,0.69,0.48,1.19c0,0.49-0.16,0.87-0.48,1.16C47.51,4.91,47.07,5.06,46.51,5.06z"/>
	<path fill="#FFFFFF" d="M58.22,20.02c-1.27,0-2.28-0.43-3.04-1.29c-0.76-0.86-1.14-2.02-1.14-3.49v-3.48
		c0-1.46,0.38-2.63,1.14-3.49c0.76-0.86,1.78-1.29,3.04-1.29c1.04,0,1.86,0.29,2.47,0.87c0.61,0.58,0.92,1.37,0.92,2.38l-0.57-0.62
		h0.59l-0.07-2.95V3.09h2.68v16.7H61.6v-2.4h-0.57l0.57-0.62c0,1.01-0.31,1.8-0.92,2.38C60.08,19.73,59.26,20.02,58.22,20.02z
		 M59.16,17.71c0.75,0,1.33-0.23,1.76-0.69c0.43-0.46,0.64-1.09,0.64-1.9v-3.25c0-0.81-0.21-1.44-0.64-1.9s-1.01-0.69-1.76-0.69
		c-0.78,0-1.38,0.23-1.82,0.67c-0.43,0.45-0.65,1.09-0.65,1.91v3.25c0,0.82,0.22,1.46,0.65,1.91
		C57.77,17.48,58.38,17.71,59.16,17.71z"/>
	<path fill="#FFFFFF" d="M80.34,19.79V3.09h5.26c1.08,0,2.02,0.2,2.83,0.61c0.8,0.4,1.42,0.98,1.86,1.72s0.66,1.61,0.66,2.6
		c0,1.11-0.28,2.09-0.85,2.92s-1.33,1.41-2.29,1.75l3.36,7.11h-3l-3-6.75h-2.2v6.75H80.34z M82.99,10.68h2.61
		c0.81,0,1.45-0.23,1.93-0.7c0.48-0.46,0.72-1.1,0.72-1.91c0-0.81-0.24-1.45-0.72-1.92s-1.12-0.71-1.93-0.71h-2.61V10.68z"/>
</g>
</svg>
