<?xml version="1.0" encoding="utf-8"?>
<!-- Generator: Adobe Illustrator 24.1.0, SVG Export Plug-In . SVG Version: 6.00 Build 0)  -->
<svg version="1.1" id="Layer_1" xmlns="http://www.w3.org/2000/svg" xmlns:xlink="http://www.w3.org/1999/xlink" x="0px" y="0px"
	 viewBox="0 0 181.79 307.2" enable-background="new 0 0 181.79 307.2" xml:space="preserve">
<g>
	<polygon fill="none" points="136.18,150.72 130.46,206.49 51.33,206.49 45.61,150.72 	"/>
</g>
<g>
	<g>
		<path d="M130.56,206.61c-9,0-17.99,0-26.99,0c-14.23,0-28.47,0-42.7,0c-3.27,0-6.55,0-9.82,0c0.62,0.62,1.25,1.25,1.88,1.88
			c-0.44-4.32-0.89-8.64-1.33-12.96c-1.05-10.29-2.11-20.57-3.16-30.86c-1.28-12.47-2.56-24.95-3.84-37.42
			c-1.11-10.78-2.21-21.56-3.32-32.34c-0.36-3.54-0.73-7.08-1.09-10.62c-0.17-1.66-0.19-3.42-0.52-5.06
			c-0.01-0.07-0.02-0.15-0.02-0.23c-1.25,0-2.5,0-3.75,0c0.4,3.88,0.8,7.76,1.19,11.63c0.97,9.44,1.94,18.89,2.91,28.33
			c1.21,11.77,2.41,23.53,3.62,35.3c1.1,10.71,2.2,21.43,3.3,32.14c0.66,6.41,1.32,12.83,1.97,19.24c0.12,1.17,0.34,2.36,0.06,3.51
			c-0.62,2.67-1.33,5.33-2,7.99c-2.7,10.82-5.41,21.63-8.11,32.45c-1.13,4.52-2.26,9.03-3.39,13.55c-0.66,2.63-1.86,5.73-1.01,8.41
			c1,3.15,3.88,5.13,7.13,5.2c0.54,0.01,1.07,0,1.61,0c2.83,0,5.66,0,8.49,0c10.21,0,20.42,0,30.64,0c11.57,0,23.14,0,34.7,0
			c7.26,0,14.53,0,21.79,0c0.48,0,0.96,0.01,1.44,0c3.57-0.08,6.74-2.57,7.31-6.17c0.4-2.54-0.72-5.43-1.33-7.87
			c-2.57-10.29-5.14-20.58-7.72-30.87c-1.9-7.59-3.95-15.16-5.7-22.78c-0.27-1.16-0.02-2.43,0.1-3.6c0.26-2.52,0.52-5.04,0.78-7.57
			c0.93-9.05,1.86-18.1,2.78-27.14c1.19-11.65,2.39-23.3,3.58-34.95c1.12-10.96,2.25-21.93,3.37-32.89
			c0.72-6.99,1.43-13.99,2.15-20.98c0.1-0.98,0.2-1.97,0.3-2.95c0.1-1.01-0.94-1.88-1.88-1.88c-1.1,0-1.77,0.86-1.88,1.88
			c-0.39,3.83-0.79,7.66-1.18,11.49c-0.96,9.34-1.92,18.68-2.87,28.02c-1.19,11.64-2.39,23.27-3.58,34.91
			c-1.1,10.71-2.2,21.43-3.3,32.14c-0.67,6.56-1.35,13.12-2.02,19.68c-0.17,1.61-0.4,3.09-0.02,4.72c0.51,2.24,1.11,4.46,1.67,6.68
			c2.64,10.56,5.28,21.12,7.92,31.67c1.68,6.73,3.63,13.45,5.06,20.24c0.5,2.39-1.26,4.42-3.65,4.46c-0.57,0.01-1.15,0-1.72,0
			c-2.83,0-5.67,0-8.5,0c-10.16,0-20.32,0-30.48,0c-11.5,0-22.99,0-34.49,0c-7.29,0-14.58,0-21.87,0c-0.51,0-1.03,0.01-1.54,0
			c-2.38-0.05-4.1-2.11-3.6-4.47c0.46-2.17,1.08-4.31,1.62-6.46c2.62-10.48,5.24-20.97,7.86-31.45c1.72-6.89,3.65-13.76,5.18-20.7
			c0.37-1.67,0.12-3.22-0.05-4.88c-0.27-2.64-0.54-5.27-0.81-7.91c-0.93-9.09-1.87-18.19-2.8-27.28
			c-1.19-11.59-2.38-23.18-3.57-34.78c-1.11-10.85-2.23-21.7-3.34-32.55c-0.71-6.89-1.41-13.78-2.12-20.67
			c-0.1-0.96-0.2-1.91-0.29-2.87c-0.1-1.01-0.79-1.88-1.88-1.88c-0.93,0-1.98,0.86-1.88,1.88c0.44,4.32,0.89,8.64,1.33,12.96
			c1.05,10.29,2.11,20.57,3.16,30.86c1.28,12.47,2.56,24.95,3.84,37.42c1.11,10.78,2.21,21.56,3.32,32.34
			c0.54,5.23,1.03,10.46,1.61,15.68c0.01,0.08,0.02,0.15,0.02,0.23c0.1,1.01,0.78,1.88,1.88,1.88c9,0,17.99,0,26.99,0
			c14.23,0,28.47,0,42.7,0c3.27,0,6.55,0,9.82,0C132.98,210.36,132.98,206.61,130.56,206.61L130.56,206.61z"/>
	</g>
</g>
</svg>
