<?xml version="1.0" encoding="utf-8"?>
<!-- Generator: Adobe Illustrator 24.0.1, SVG Export Plug-In . SVG Version: 6.00 Build 0)  -->
<svg version="1.1" id="Layer_1" xmlns="http://www.w3.org/2000/svg" xmlns:xlink="http://www.w3.org/1999/xlink" x="0px" y="0px"
	 viewBox="0 0 500 444.34" style="enable-background:new 0 0 500 444.34;" xml:space="preserve">
<style type="text/css">
	.st0{fill:none;stroke:#0077FF;stroke-width:3.4549;stroke-miterlimit:10;}
	.st1{fill:none;stroke:#0077FF;stroke-width:0.3455;stroke-miterlimit:10;}
	.st2{fill:#0077FF;stroke:#0077FF;stroke-width:0.3455;stroke-miterlimit:10;}
	.st3{stroke:#0077FF;stroke-width:3.4549;stroke-miterlimit:10;}
	.st4{fill:none;stroke:#FF4535;stroke-width:3.4549;stroke-miterlimit:10;}
	.st5{fill:none;stroke:#FF4535;stroke-width:0.3455;stroke-miterlimit:10;}
	.st6{fill:#FF4535;stroke:#FF4535;stroke-width:0.3455;stroke-miterlimit:10;}
	.st7{stroke:#FF4535;stroke-width:3.4549;stroke-miterlimit:10;}
	.st8{fill:none;stroke:#FF2D49;stroke-width:3.4549;stroke-miterlimit:10;}
	.st9{fill:none;stroke:#FF2D49;stroke-width:0.3455;stroke-miterlimit:10;}
	.st10{fill:#FF2D49;stroke:#FF2D49;stroke-width:0.3455;stroke-miterlimit:10;}
	.st11{stroke:#FF2D49;stroke-width:3.4549;stroke-miterlimit:10;}
	.st12{fill:none;stroke:#002E66;stroke-width:3.4549;stroke-miterlimit:10;}
	.st13{fill:none;stroke:#002E66;stroke-width:0.3455;stroke-miterlimit:10;}
	.st14{fill:#002E66;stroke:#002E66;stroke-width:0.3455;stroke-miterlimit:10;}
	.st15{stroke:#002E66;stroke-width:3.4549;stroke-miterlimit:10;}
	.st16{fill:#80CCFF;}
	.st17{fill:#FFFFFF;}
	.st18{fill:#BDDBFF;}
	.st19{fill:#FFB2A7;}
	.st20{fill:#FF8378;}
	.st21{fill:#FF624F;}
	.st22{fill:#D34639;}
	.st23{fill:#FF6A6E;}
	.st24{fill:#36AEFF;}
	.st25{fill:#FF999C;}
</style>
<g>
	<g>
		<line class="st0" x1="181.32" y1="229.44" x2="176.65" y2="257.74"/>
		<line class="st0" x1="284.1" y1="246.39" x2="279.43" y2="274.68"/>
		<line class="st0" x1="188.15" y1="237.92" x2="184.66" y2="259.06"/>
		<line class="st0" x1="195.31" y1="239.1" x2="191.82" y2="260.24"/>
		<line class="st0" x1="202.81" y1="240.34" x2="199.32" y2="261.48"/>
		<line class="st0" x1="209.97" y1="241.52" x2="206.48" y2="262.66"/>
		<line class="st0" x1="217.12" y1="242.7" x2="213.64" y2="263.84"/>
		<line class="st0" x1="224.28" y1="243.88" x2="220.8" y2="265.02"/>
		<line class="st0" x1="231.61" y1="245.09" x2="228.13" y2="266.22"/>
		<line class="st0" x1="239.11" y1="246.32" x2="235.63" y2="267.46"/>
		<line class="st0" x1="245.93" y1="247.45" x2="242.45" y2="268.58"/>
		<line class="st0" x1="253.43" y1="248.68" x2="249.95" y2="269.82"/>
		<line class="st0" x1="260.42" y1="249.84" x2="256.93" y2="270.97"/>
		<line class="st0" x1="267.58" y1="251.02" x2="264.09" y2="272.15"/>
		<line class="st0" x1="275.08" y1="252.25" x2="271.59" y2="273.39"/>
		<line class="st0" x1="178.02" y1="228.2" x2="287.45" y2="246.24"/>
		<line class="st0" x1="188.73" y1="214.21" x2="282.14" y2="229.6"/>
		<line class="st0" x1="193.94" y1="205.96" x2="279.85" y2="220.12"/>
		<line class="st0" x1="192.48" y1="214.83" x2="189.95" y2="230.17"/>
		<line class="st0" x1="278.78" y1="228.7" x2="276.25" y2="244.04"/>
		<line class="st0" x1="198.5" y1="206.72" x2="197.04" y2="215.58"/>
		<line class="st0" x1="275.47" y1="219.05" x2="274.01" y2="227.92"/>
		<line class="st0" x1="235.48" y1="155.74" x2="256.62" y2="159.22"/>
		<line class="st0" x1="236.82" y1="171.01" x2="239.23" y2="156.35"/>
		<line class="st0" x1="243.64" y1="172.14" x2="246.05" y2="157.48"/>
		<line class="st0" x1="250.45" y1="173.26" x2="252.87" y2="158.6"/>
		<line class="st0" x1="228.58" y1="170.01" x2="258.58" y2="174.95"/>
		<line class="st0" x1="228.82" y1="179.15" x2="230.34" y2="169.95"/>
		<line class="st0" x1="255.41" y1="183.53" x2="256.93" y2="174.33"/>
		<path class="st0" d="M202.86,207.08c3.18-19.3,20.41-31.65,39.71-28.47c19.3,3.18,31.65,20.41,28.47,39.71"/>
		<path class="st0" d="M209.91,208.95c3.13-19.02,17.66-32.46,32.44-30.02s24.22,19.83,21.09,38.84"/>
		<path class="st0" d="M218.32,211.03c3.13-19.02,13.92-33.07,24.08-31.4s15.87,18.45,12.73,37.46"/>
		<path class="st0" d="M227.01,211.41c3.13-19.02,9.76-31.66,15.22-30.76c5.46,0.9,7.68,15,4.55,34.01"/>
		<line class="st0" x1="236.89" y1="213.04" x2="242.51" y2="178.95"/>
		<path class="st0" d="M252.3,157.81c0.56-3.39-1.74-6.59-5.12-7.15c-3.39-0.56-6.59,1.74-7.15,5.12"/>
		<path class="st2" d="M249.73,151.26c0.18-1.07-0.93-1.79-0.93-1.79s-0.17-0.12-0.17-0.13c-0.07-0.09,1.08-2.44,1.5-3.69
			c0.18-0.54,0.37-0.31,0.59-0.29c0.22,0.02,0.27-0.28,0.3-1.18c0,0,0.14-0.28,0.14-0.44c0.01-0.17-0.19-0.34-0.27-0.36
			c0,0,0.29-0.4,0.33-0.6c0.13-0.72-0.36-1.25-0.4-2.23c-0.02-0.44-0.24-2.34-1.15-2.06c0,0-0.18-0.3-0.01-0.48
			c0,0,0.3-0.21,0.33-0.66c0.04-0.44-0.48-0.89-0.48-0.89l0.07-0.44c0,0,0.46-0.03,0.35-0.12c-0.11-0.09-0.11-0.16-0.11-0.16
			s0.4-0.09,0.31-0.16c-0.09-0.07-0.3-0.1-0.3-0.1s-0.22-0.29-0.35-0.08c0,0-0.32-0.18-0.44-0.18c-0.12,0-0.05,0.2-0.05,0.2
			s-0.33-0.19-0.36-0.13c-0.03,0.06,0.3,0.5,0.3,0.5s-0.76-0.09-0.83,0.28c0,0,0.08,0.14,0.41-0.04c0,0-0.89,0.81-0.82,0.89
			c0.08,0.08,0.25,0.04,0.25,0.04s-0.46,0.49-0.33,0.64c0,0-0.38,0.8-0.25,0.89c0.09,0.07,0.25-0.07,0.35-0.14
			c0.29-0.21,0.4-0.02-0.13,0.33c-0.15,0.1-0.56,0.38-0.78,1.07c-0.22,0.69-0.3,0.66-0.4,0.76c-0.11,0.11-0.91,0.64-0.99,2.01
			c-0.01,0.24,0.19,0.32,0.37,0.3l0.05,1.05l-0.06,0.93c0,0-0.62,0.88-0.58,0.95c0.04,0.08,0.32,0.16,0.32,0.16
			s-0.21,0.71-0.12,0.73c0.08,0.01,0.37,0.16,0.39,0.08c0.01-0.08,0.15-1.01,0.15-1.01l0.26,3.29l-0.14,0.04c0,0-1.3,0.28-1.49,1.38
			c0,0,0.69,0.1,2.47,0.39C248.83,151.11,249.73,151.26,249.73,151.26"/>
		<line class="st3" x1="197.56" y1="230.72" x2="198.97" y2="222.2"/>
		<line class="st3" x1="205.4" y1="232.01" x2="206.81" y2="223.49"/>
		<line class="st3" x1="213.24" y1="233.31" x2="214.65" y2="224.78"/>
		<line class="st3" x1="221.09" y1="234.6" x2="222.49" y2="226.08"/>
		<line class="st3" x1="228.93" y1="235.89" x2="230.33" y2="227.37"/>
		<line class="st3" x1="236.77" y1="237.18" x2="238.17" y2="228.66"/>
		<line class="st3" x1="244.61" y1="238.48" x2="246.01" y2="229.95"/>
		<line class="st3" x1="252.45" y1="239.77" x2="253.85" y2="231.25"/>
		<line class="st3" x1="260.63" y1="241.12" x2="262.03" y2="232.59"/>
		<line class="st3" x1="268.47" y1="242.41" x2="269.87" y2="233.89"/>
	</g>
	<g>
		<line class="st4" x1="30.29" y1="126.05" x2="35.42" y2="154.26"/>
		<line class="st4" x1="132.77" y1="107.4" x2="137.9" y2="135.62"/>
		<line class="st4" x1="39.57" y1="131.74" x2="43.41" y2="152.81"/>
		<line class="st4" x1="46.71" y1="130.44" x2="50.55" y2="151.51"/>
		<line class="st4" x1="54.19" y1="129.08" x2="58.02" y2="150.15"/>
		<line class="st4" x1="61.33" y1="127.78" x2="65.16" y2="148.85"/>
		<line class="st4" x1="68.46" y1="126.48" x2="72.3" y2="147.55"/>
		<line class="st4" x1="75.6" y1="125.18" x2="79.44" y2="146.26"/>
		<line class="st4" x1="82.91" y1="123.85" x2="86.75" y2="144.93"/>
		<line class="st4" x1="90.39" y1="122.49" x2="94.22" y2="143.56"/>
		<line class="st4" x1="97.19" y1="121.25" x2="101.02" y2="142.33"/>
		<line class="st4" x1="104.67" y1="119.89" x2="108.5" y2="140.97"/>
		<line class="st4" x1="111.63" y1="118.62" x2="115.47" y2="139.7"/>
		<line class="st4" x1="118.77" y1="117.33" x2="122.61" y2="138.4"/>
		<line class="st4" x1="126.25" y1="115.97" x2="130.08" y2="137.04"/>
		<line class="st4" x1="26.76" y1="125.99" x2="135.87" y2="106.14"/>
		<line class="st4" x1="32.14" y1="109.21" x2="125.27" y2="92.26"/>
		<line class="st4" x1="34.27" y1="99.69" x2="119.93" y2="84.11"/>
		<line class="st4" x1="35.88" y1="108.53" x2="38.66" y2="123.83"/>
		<line class="st4" x1="121.81" y1="92.54" x2="124.6" y2="107.84"/>
		<line class="st4" x1="38.82" y1="98.86" x2="40.43" y2="107.7"/>
		<line class="st4" x1="115.45" y1="84.57" x2="117.05" y2="93.41"/>
		<line class="st4" x1="56.48" y1="38.41" x2="77.55" y2="34.58"/>
		<line class="st4" x1="62.88" y1="52.35" x2="60.22" y2="37.73"/>
		<line class="st4" x1="69.68" y1="51.11" x2="67.02" y2="36.49"/>
		<line class="st4" x1="76.47" y1="49.87" x2="73.81" y2="35.26"/>
		<line class="st4" x1="54.78" y1="54.17" x2="84.69" y2="48.73"/>
		<line class="st4" x1="58.09" y1="62.7" x2="56.42" y2="53.52"/>
		<line class="st4" x1="84.6" y1="57.88" x2="82.93" y2="48.7"/>
		<path class="st4" d="M43.04,97.74c-3.5-19.24,8.56-36.67,27.81-40.18c19.24-3.5,36.67,8.56,40.18,27.81"/>
		<path class="st4" d="M50.31,97.13c-3.45-18.96,5.7-36.5,20.44-39.19s29.48,10.52,32.93,29.48"/>
		<path class="st4" d="M58.93,96.26C55.48,77.3,60.9,60.43,71.04,58.59c10.14-1.84,21.15,12.03,24.6,30.99"/>
		<path class="st4" d="M67.24,93.69c-3.45-18.96-1.46-33.09,3.98-34.09c5.44-0.99,12.28,11.54,15.73,30.5"/>
		<line class="st4" x1="77.1" y1="91.9" x2="70.91" y2="57.91"/>
		<path class="st4" d="M73.01,34.7c-0.61-3.38-3.85-5.62-7.23-5.01c-3.38,0.61-5.62,3.85-5.01,7.23"/>
		<path class="st6" d="M68.39,29.4c-0.19-1.07-1.48-1.37-1.48-1.37s-0.2-0.06-0.21-0.06c-0.1-0.07,0.2-2.67,0.17-3.98
			c-0.01-0.57,0.24-0.42,0.46-0.48c0.22-0.06,0.16-0.36-0.12-1.21c0,0,0.03-0.31-0.01-0.47c-0.05-0.16-0.29-0.26-0.38-0.25
			c0,0,0.14-0.48,0.1-0.68c-0.12-0.72-0.76-1.06-1.12-1.97c-0.16-0.41-1.01-2.12-1.78-1.56c0,0-0.27-0.23-0.17-0.45
			c0,0,0.21-0.3,0.09-0.73c-0.11-0.43-0.75-0.68-0.75-0.68l-0.08-0.44c0,0,0.42-0.18,0.29-0.23c-0.13-0.05-0.16-0.11-0.16-0.11
			s0.34-0.22,0.23-0.25c-0.11-0.03-0.31,0-0.31,0s-0.3-0.2-0.36,0.05c0,0-0.36-0.06-0.47-0.02c-0.12,0.04,0.02,0.2,0.02,0.2
			s-0.37-0.07-0.38,0c0,0.07,0.45,0.37,0.45,0.37s-0.75,0.17-0.68,0.54c0,0,0.12,0.1,0.37-0.17c0,0-0.57,1.06-0.48,1.11
			c0.1,0.05,0.25-0.05,0.25-0.05s-0.27,0.62-0.1,0.71c0,0-0.09,0.88,0.06,0.93c0.11,0.04,0.21-0.15,0.28-0.25
			c0.21-0.3,0.37-0.16-0.01,0.35c-0.1,0.14-0.41,0.54-0.38,1.27c0.03,0.72-0.06,0.72-0.12,0.85c-0.06,0.14-0.64,0.91-0.26,2.22
			c0.07,0.23,0.29,0.24,0.45,0.16l0.4,0.97l0.26,0.9c0,0-0.29,1.04-0.23,1.09c0.06,0.06,0.36,0.04,0.36,0.04s0.05,0.74,0.13,0.72
			c0.08-0.01,0.41,0.03,0.39-0.06c-0.02-0.08-0.2-1-0.2-1l1.36,3.01l-0.11,0.08c0,0-1.13,0.71-0.93,1.8c0,0,0.68-0.14,2.46-0.46
			C67.49,29.56,68.39,29.4,68.39,29.4"/>
		<line class="st7" x1="46.01" y1="121.79" x2="44.47" y2="113.29"/>
		<line class="st7" x1="53.83" y1="120.36" x2="52.29" y2="111.87"/>
		<line class="st7" x1="61.65" y1="118.94" x2="60.1" y2="110.44"/>
		<line class="st7" x1="69.47" y1="117.52" x2="67.92" y2="109.02"/>
		<line class="st7" x1="77.29" y1="116.1" x2="75.74" y2="107.6"/>
		<line class="st7" x1="85.1" y1="114.67" x2="83.56" y2="106.18"/>
		<line class="st7" x1="92.92" y1="113.25" x2="91.38" y2="104.75"/>
		<line class="st7" x1="100.74" y1="111.83" x2="99.19" y2="103.33"/>
		<line class="st7" x1="108.9" y1="110.34" x2="107.35" y2="101.85"/>
		<line class="st7" x1="116.72" y1="108.92" x2="115.17" y2="100.42"/>
	</g>
	<g>
		<line class="st8" x1="63.91" y1="339.77" x2="55.16" y2="367.08"/>
		<line class="st8" x1="163.11" y1="371.54" x2="154.36" y2="398.85"/>
		<line class="st8" x1="69.43" y1="349.15" x2="62.89" y2="369.55"/>
		<line class="st8" x1="76.33" y1="351.37" x2="69.8" y2="371.77"/>
		<line class="st8" x1="83.57" y1="353.69" x2="77.04" y2="374.09"/>
		<line class="st8" x1="90.48" y1="355.9" x2="83.95" y2="376.3"/>
		<line class="st8" x1="97.39" y1="358.11" x2="90.86" y2="378.51"/>
		<line class="st8" x1="104.3" y1="360.32" x2="97.77" y2="380.72"/>
		<line class="st8" x1="111.38" y1="362.59" x2="104.84" y2="382.99"/>
		<line class="st8" x1="118.62" y1="364.91" x2="112.08" y2="385.31"/>
		<line class="st8" x1="125.2" y1="367.02" x2="118.66" y2="387.42"/>
		<line class="st8" x1="132.43" y1="369.33" x2="125.9" y2="389.73"/>
		<line class="st8" x1="139.18" y1="371.49" x2="132.65" y2="391.89"/>
		<line class="st8" x1="146.09" y1="373.71" x2="139.56" y2="394.11"/>
		<line class="st8" x1="153.33" y1="376.03" x2="146.79" y2="396.43"/>
		<line class="st8" x1="60.83" y1="338.06" x2="166.45" y2="371.88"/>
		<line class="st8" x1="73.46" y1="325.78" x2="163.62" y2="354.65"/>
		<line class="st8" x1="79.82" y1="318.38" x2="162.74" y2="344.94"/>
		<line class="st8" x1="77.08" y1="326.94" x2="72.34" y2="341.75"/>
		<line class="st8" x1="160.43" y1="353.27" x2="155.69" y2="368.08"/>
		<line class="st8" x1="84.23" y1="319.79" x2="81.49" y2="328.35"/>
		<line class="st8" x1="158.57" y1="343.24" x2="155.83" y2="351.79"/>
		<line class="st8" x1="128.26" y1="274.76" x2="148.66" y2="281.3"/>
		<line class="st8" x1="127.35" y1="290.07" x2="131.88" y2="275.92"/>
		<line class="st8" x1="133.93" y1="292.18" x2="138.46" y2="278.03"/>
		<line class="st8" x1="140.51" y1="294.28" x2="145.04" y2="280.14"/>
		<line class="st8" x1="119.34" y1="287.87" x2="148.3" y2="297.14"/>
		<line class="st8" x1="118.25" y1="296.95" x2="121.09" y2="288.07"/>
		<line class="st8" x1="143.91" y1="305.17" x2="146.76" y2="296.29"/>
		<path class="st8" d="M88.48,320.79c5.97-18.63,24.81-28.33,43.44-22.37c18.63,5.97,28.33,24.81,22.37,43.44"/>
		<path class="st8" d="M95.18,323.67c5.88-18.35,22.21-29.53,36.47-24.96c14.26,4.57,21.06,23.15,15.19,41.5"/>
		<path class="st8" d="M103.2,326.96c5.88-18.35,18.6-30.68,28.41-27.54c9.81,3.14,13,20.57,7.12,38.92"/>
		<path class="st8" d="M111.74,328.61c5.88-18.35,14.28-29.89,19.55-28.2s5.41,15.96-0.47,34.31"/>
		<line class="st8" x1="121.28" y1="331.66" x2="131.82" y2="298.76"/>
		<path class="st8" d="M144.59,279.27c1.05-3.27-0.75-6.77-4.03-7.82c-3.27-1.05-6.77,0.75-7.82,4.03"/>
		<path class="st10" d="M143,272.41c0.33-1.04-0.66-1.91-0.66-1.91s-0.15-0.15-0.15-0.15c-0.06-0.1,1.43-2.26,2.02-3.43
			c0.26-0.51,0.41-0.25,0.63-0.2c0.22,0.05,0.31-0.24,0.47-1.12c0,0,0.18-0.26,0.21-0.42c0.04-0.16-0.14-0.37-0.22-0.39
			c0,0,0.35-0.35,0.41-0.55c0.23-0.69-0.17-1.29-0.07-2.27c0.05-0.44,0.11-2.35-0.84-2.21c0,0-0.13-0.33,0.06-0.48
			c0,0,0.32-0.17,0.43-0.6c0.1-0.43-0.34-0.95-0.34-0.95l0.14-0.42c0,0,0.46,0.04,0.36-0.06c-0.09-0.1-0.09-0.17-0.09-0.17
			s0.41-0.03,0.32-0.11c-0.08-0.08-0.28-0.14-0.28-0.14s-0.17-0.32-0.34-0.13c0,0-0.29-0.22-0.41-0.24
			c-0.12-0.02-0.08,0.19-0.08,0.19s-0.3-0.24-0.34-0.18c-0.04,0.06,0.22,0.54,0.22,0.54s-0.74-0.2-0.86,0.16
			c0,0,0.06,0.15,0.41,0.02c0,0-1,0.67-0.94,0.76c0.06,0.09,0.24,0.08,0.24,0.08s-0.53,0.42-0.42,0.58c0,0-0.49,0.74-0.38,0.85
			c0.08,0.08,0.26-0.03,0.37-0.09c0.32-0.16,0.4,0.04-0.17,0.31c-0.16,0.08-0.61,0.29-0.93,0.94c-0.32,0.65-0.39,0.61-0.51,0.7
			c-0.12,0.09-1,0.5-1.27,1.84c-0.05,0.23,0.14,0.35,0.32,0.35l-0.1,1.05l-0.2,0.91c0,0-0.74,0.78-0.71,0.86
			c0.03,0.08,0.3,0.2,0.3,0.2s-0.31,0.67-0.22,0.7c0.08,0.03,0.34,0.22,0.37,0.13c0.03-0.08,0.29-0.98,0.29-0.98l-0.22,3.29
			l-0.14,0.02c0,0-1.33,0.09-1.67,1.15c0,0,0.66,0.2,2.39,0.75C142.14,272.14,143,272.41,143,272.41"/>
		<line class="st11" x1="79.79" y1="343.41" x2="82.43" y2="335.18"/>
		<line class="st11" x1="87.36" y1="345.83" x2="89.99" y2="337.6"/>
		<line class="st11" x1="94.93" y1="348.25" x2="97.56" y2="340.03"/>
		<line class="st11" x1="102.5" y1="350.68" x2="105.13" y2="342.45"/>
		<line class="st11" x1="110.06" y1="353.1" x2="112.7" y2="344.87"/>
		<line class="st11" x1="117.63" y1="355.52" x2="120.26" y2="347.3"/>
		<line class="st11" x1="125.2" y1="357.95" x2="127.83" y2="349.72"/>
		<line class="st11" x1="132.77" y1="360.37" x2="135.4" y2="352.15"/>
		<line class="st11" x1="140.66" y1="362.9" x2="143.3" y2="354.67"/>
		<line class="st11" x1="148.23" y1="365.32" x2="150.86" y2="357.1"/>
	</g>
	<g>
		<line class="st12" x1="381.1" y1="178.66" x2="386.46" y2="206.83"/>
		<line class="st12" x1="483.42" y1="159.17" x2="488.79" y2="187.33"/>
		<line class="st12" x1="390.43" y1="184.27" x2="394.44" y2="205.31"/>
		<line class="st12" x1="397.56" y1="182.91" x2="401.57" y2="203.95"/>
		<line class="st12" x1="405.02" y1="181.49" x2="409.03" y2="202.53"/>
		<line class="st12" x1="412.15" y1="180.13" x2="416.16" y2="201.17"/>
		<line class="st12" x1="419.28" y1="178.77" x2="423.29" y2="199.82"/>
		<line class="st12" x1="426.4" y1="177.42" x2="430.41" y2="198.46"/>
		<line class="st12" x1="433.7" y1="176.02" x2="437.71" y2="197.07"/>
		<line class="st12" x1="441.17" y1="174.6" x2="445.18" y2="195.64"/>
		<line class="st12" x1="447.96" y1="173.31" x2="451.96" y2="194.35"/>
		<line class="st12" x1="455.42" y1="171.89" x2="459.43" y2="192.93"/>
		<line class="st12" x1="462.38" y1="170.56" x2="466.39" y2="191.6"/>
		<line class="st12" x1="469.51" y1="169.2" x2="473.52" y2="190.24"/>
		<line class="st12" x1="476.97" y1="167.78" x2="480.98" y2="188.82"/>
		<line class="st12" x1="377.57" y1="178.63" x2="486.52" y2="157.87"/>
		<line class="st12" x1="382.81" y1="161.81" x2="475.8" y2="144.09"/>
		<line class="st12" x1="384.86" y1="152.27" x2="470.39" y2="135.97"/>
		<line class="st12" x1="386.54" y1="161.09" x2="389.45" y2="176.37"/>
		<line class="st12" x1="472.34" y1="144.39" x2="475.25" y2="159.67"/>
		<line class="st12" x1="389.4" y1="151.4" x2="391.08" y2="160.23"/>
		<line class="st12" x1="465.91" y1="136.48" x2="467.59" y2="145.3"/>
		<line class="st12" x1="406.56" y1="90.81" x2="427.6" y2="86.8"/>
		<line class="st12" x1="413.07" y1="104.69" x2="410.29" y2="90.1"/>
		<line class="st12" x1="419.86" y1="103.4" x2="417.08" y2="88.8"/>
		<line class="st12" x1="426.65" y1="102.1" x2="423.87" y2="87.51"/>
		<line class="st12" x1="404.99" y1="106.58" x2="434.86" y2="100.89"/>
		<line class="st12" x1="408.37" y1="115.08" x2="406.63" y2="105.92"/>
		<line class="st12" x1="434.84" y1="110.04" x2="433.1" y2="100.87"/>
		<path class="st12" d="M393.62,150.25c-3.66-19.21,8.26-36.74,27.47-40.41c19.21-3.66,36.74,8.26,40.41,27.47"/>
		<path class="st12" d="M400.88,149.57c-3.61-18.93,5.4-36.55,20.11-39.35c14.71-2.8,29.57,10.27,33.17,29.2"/>
		<path class="st12" d="M409.49,148.63c-3.61-18.93,1.67-35.84,11.8-37.77c10.12-1.93,21.25,11.85,24.86,30.79"/>
		<path class="st12" d="M417.78,146c-3.61-18.93-1.74-33.08,3.7-34.12c5.44-1.04,12.38,11.44,15.99,30.37"/>
		<line class="st12" x1="427.62" y1="144.12" x2="421.16" y2="110.18"/>
		<path class="st12" d="M423.06,86.96c-0.64-3.37-3.9-5.59-7.27-4.94c-3.37,0.64-5.59,3.9-4.94,7.27"/>
		<path class="st14" d="M418.39,81.7c-0.2-1.07-1.49-1.36-1.49-1.36s-0.2-0.06-0.21-0.06c-0.1-0.06,0.17-2.67,0.14-3.98
			c-0.02-0.57,0.24-0.42,0.46-0.48c0.22-0.06,0.16-0.36-0.13-1.21c0,0,0.03-0.31-0.02-0.47c-0.05-0.16-0.3-0.26-0.38-0.24
			c0,0,0.13-0.48,0.1-0.68c-0.12-0.72-0.77-1.05-1.14-1.96c-0.17-0.41-1.03-2.11-1.79-1.54c0,0-0.27-0.23-0.17-0.45
			c0,0,0.21-0.3,0.09-0.73c-0.12-0.43-0.75-0.67-0.75-0.67l-0.08-0.44c0,0,0.42-0.19,0.29-0.23c-0.13-0.05-0.16-0.11-0.16-0.11
			s0.34-0.22,0.23-0.25c-0.11-0.03-0.31,0.01-0.31,0.01s-0.3-0.2-0.36,0.05c0,0-0.36-0.06-0.47-0.01c-0.12,0.04,0.02,0.2,0.02,0.2
			s-0.37-0.07-0.38,0c0,0.07,0.45,0.37,0.45,0.37s-0.75,0.18-0.68,0.55c0,0,0.12,0.1,0.37-0.18c0,0-0.56,1.07-0.47,1.12
			c0.1,0.05,0.25-0.05,0.25-0.05s-0.27,0.62-0.09,0.71c0,0-0.08,0.88,0.07,0.93c0.11,0.03,0.21-0.15,0.28-0.25
			c0.2-0.3,0.37-0.16,0,0.35c-0.1,0.14-0.4,0.55-0.37,1.27c0.03,0.72-0.05,0.72-0.11,0.86c-0.06,0.14-0.64,0.92-0.24,2.23
			c0.07,0.23,0.29,0.24,0.45,0.16l0.41,0.97l0.26,0.9c0,0-0.28,1.04-0.22,1.1c0.06,0.06,0.36,0.04,0.36,0.04s0.05,0.74,0.14,0.72
			c0.08-0.02,0.41,0.03,0.39-0.06c-0.02-0.08-0.21-1-0.21-1l1.38,3l-0.11,0.09c0,0-1.13,0.71-0.92,1.81c0,0,0.68-0.14,2.46-0.48
			C417.5,81.87,418.39,81.7,418.39,81.7"/>
		<line class="st15" x1="396.79" y1="174.27" x2="395.17" y2="165.78"/>
		<line class="st15" x1="404.59" y1="172.78" x2="402.98" y2="164.29"/>
		<line class="st15" x1="412.4" y1="171.29" x2="410.78" y2="162.81"/>
		<line class="st15" x1="420.21" y1="169.8" x2="418.59" y2="161.32"/>
		<line class="st15" x1="428.01" y1="168.32" x2="426.39" y2="159.83"/>
		<line class="st15" x1="435.82" y1="166.83" x2="434.2" y2="158.34"/>
		<line class="st15" x1="443.62" y1="165.34" x2="442.01" y2="156.86"/>
		<line class="st15" x1="451.43" y1="163.85" x2="449.81" y2="155.37"/>
		<line class="st15" x1="459.57" y1="162.3" x2="457.96" y2="153.82"/>
		<line class="st15" x1="467.38" y1="160.81" x2="465.76" y2="152.33"/>
	</g>
	<g>
		<path d="M16.27,227.08l2.21-3.1c0.49-0.7,1.39-0.62,1.83-0.2c0.25,0.18,4.24,3.71,7.68,4.04c2.75,0.26,4.99-1.34,5.2-3.62
			c0.26-2.7-1.84-4.77-6.12-6.99c-4.79-2.48-9.46-6.13-8.87-12.38c0.45-4.71,4.46-9.83,12.87-9.04c5.4,0.51,9.27,3.66,10.25,4.55
			c0.5,0.37,0.57,1.28,0.15,1.78l-2.3,2.83c-0.48,0.6-1.32,0.94-1.91,0.46c-0.4-0.3-4.17-3.33-7.08-3.61
			c-3.02-0.29-4.85,1.57-5.01,3.27c-0.24,2.49,1.56,4.37,5.69,6.52c4.94,2.55,10.58,6.18,9.93,13.01
			c-0.52,5.45-5.7,10.04-13.17,9.33c-6.67-0.63-10.29-4.12-11.26-5.23C15.96,228.17,15.72,227.89,16.27,227.08z"/>
		<path d="M55.95,214.17c5.45,0.52,9.51,5.07,8.97,10.78c-0.04,0.37-0.15,1.05-0.24,1.42c-0.1,0.52-0.62,0.85-1.09,0.8l-13.55-1.28
			c-0.05,2.19,1.58,4.8,4.65,5.09c1.64,0.16,3.24-0.34,4.25-0.93c0.56-0.27,1.05-0.33,1.38,0.13l1.93,2.69
			c0.34,0.41,0.39,1-0.18,1.37c-1.9,1.48-4.72,2.49-8.16,2.17c-6.35-0.6-10.38-6.06-9.8-12.14
			C44.67,218.28,49.65,213.58,55.95,214.17z M58.86,222.99c0.03-1.97-1.51-3.78-3.53-3.97c-2.12-0.2-4.01,1.22-4.47,3.21
			L58.86,222.99z"/>
		<path d="M70.15,217.06c0.06-0.58,0.57-0.96,1.1-0.91l2.01,0.19c0.48,0.05,0.72,0.33,0.84,0.72l0.56,2.03
			c0.87-0.77,3.68-2.8,7.76-2.42c6.72,0.64,8.95,5.92,8.43,11.43l-0.96,10.16c-0.05,0.53-0.57,0.96-1.1,0.91l-4.34-0.41
			c-0.58-0.05-0.96-0.57-0.91-1.1l0.99-10.48c0.26-2.75-1-4.64-3.55-4.88c-2.75-0.26-4.63,1.48-5.29,2.86l-1.1,11.65
			c-0.07,0.74-0.41,0.98-1.42,0.88l-3.92-0.37c-0.53-0.05-0.96-0.57-0.91-1.1L70.15,217.06z"/>
		<path d="M103.92,227.09c2.12,0.2,3.81,0.95,3.81,0.95c0.31-2.7-0.45-3.73-2.41-3.91c-1.96-0.18-4.75-0.02-6,0.23
			c-0.76,0.14-1.09-0.37-1.13-1.07l-0.22-2.8c-0.08-0.81,0.37-1.14,0.87-1.25c0.44-0.12,3.91-0.65,7.3-0.33
			c6.62,0.63,7.83,4.21,7.28,9.98l-1.09,11.49c-0.05,0.53-0.57,0.96-1.1,0.91l-1.91-0.18c-0.37-0.04-0.62-0.22-0.83-0.83l-0.5-1.49
			c-1.32,1-3.43,2.4-6.71,2.09c-4.24-0.4-6.89-3.43-6.46-7.93C95.18,229.2,98.52,226.58,103.92,227.09z M103.14,236.53
			c1.69,0.16,3.47-1.11,3.85-1.72l0.28-2.91c0,0-1.37-0.77-2.91-0.92c-2.06-0.19-3.55,0.84-3.71,2.53
			C100.49,235.1,101.5,236.37,103.14,236.53z"/>
		<path d="M120.91,226.46l-1.8-0.17c-0.53-0.05-0.91-0.57-0.86-1.1l0.33-3.55c0.06-0.58,0.52-0.97,1.05-0.92l1.8,0.17l0.56-5.88
			c0.05-0.53,0.57-0.96,1.1-0.91l4.35,0.36c0.53,0.05,0.91,0.57,0.86,1.1l-0.56,5.93l4.66,0.44c0.58,0.05,0.97,0.52,0.91,1.1
			l-0.33,3.55c-0.05,0.53-0.52,0.97-1.1,0.91l-4.66-0.44l-0.8,8.47c-0.14,1.48,0.63,1.77,1.48,1.85c0.9,0.08,2.05-0.18,2.65-0.34
			c0.6-0.16,1,0.15,1.11,0.69l0.74,3.44c0.16,0.55-0.15,1.05-0.7,1.22c-0.28,0.13-3.84,1.03-6.43,0.78
			c-4.08-0.39-5.64-3.1-5.23-7.39L120.91,226.46z"/>
		<path d="M147.85,222.86c5.45,0.52,9.51,5.07,8.97,10.78c-0.04,0.37-0.15,1.05-0.24,1.42c-0.1,0.52-0.61,0.85-1.09,0.8l-13.55-1.28
			c-0.05,2.19,1.58,4.8,4.65,5.09c1.64,0.16,3.24-0.33,4.25-0.93c0.56-0.27,1.05-0.33,1.38,0.13l1.94,2.69
			c0.34,0.41,0.39,1-0.18,1.37c-1.9,1.48-4.72,2.49-8.16,2.17c-6.35-0.6-10.38-6.06-9.8-12.14
			C136.57,226.98,141.55,222.27,147.85,222.86z M150.76,231.68c0.03-1.97-1.51-3.78-3.52-3.97c-2.12-0.2-4.01,1.22-4.47,3.21
			L150.76,231.68z"/>
	</g>
	<g>
		<path d="M129.21,64.7c4-3.92,11.69-12.02,15.79-16.42c1.88-1.87,3.17-3.85,3.37-5.67c0.25-2.42-1.31-5.08-5.18-5.49
			c-2.58-0.27-4.97,1.32-6.35,2.54c-0.48,0.38-1.07,0.32-1.45-0.15l-2.31-2.85c-0.29-0.36-0.33-1.01,0.09-1.4
			c0,0,4.74-4.82,11.13-4.15c7.68,0.81,11.46,6.15,10.85,11.95c-0.37,3.49-2.1,5.53-4.51,8.32c-2.65,3.03-7.27,7.65-10.49,10.95
			l11.6,1.22c0.54,0.06,0.97,0.59,0.91,1.13l-0.39,3.71c-0.06,0.54-0.59,0.97-1.13,0.91l-21.16-2.23c-0.59-0.06-0.97-0.59-0.91-1.13
			L129.21,64.7z"/>
		<path d="M160.32,51.79c1.24-11.76,6.92-18.28,15.51-17.37c8.59,0.9,12.79,8.46,11.55,20.22c-1.24,11.76-6.92,18.28-15.51,17.37
			C163.28,71.11,159.09,63.55,160.32,51.79z M180.36,53.9c0.84-7.95-1.05-12.71-5.19-13.14c-4.13-0.44-6.97,3.83-7.81,11.78
			c-0.84,8,1.05,12.71,5.19,13.14C176.68,66.11,179.51,61.9,180.36,53.9z"/>
		<path d="M190.38,71.14c4-3.92,11.69-12.02,15.79-16.42c1.88-1.87,3.17-3.85,3.37-5.67c0.25-2.42-1.31-5.08-5.18-5.49
			c-2.58-0.27-4.97,1.32-6.35,2.54c-0.48,0.38-1.07,0.32-1.45-0.15l-2.31-2.85c-0.29-0.36-0.33-1.01,0.09-1.4
			c0,0,4.74-4.82,11.13-4.15c7.68,0.81,11.46,6.15,10.85,11.95c-0.37,3.49-2.1,5.53-4.51,8.32c-2.65,3.03-7.27,7.65-10.49,10.95
			l11.6,1.22c0.54,0.06,0.97,0.59,0.91,1.13l-0.39,3.71c-0.06,0.54-0.59,0.97-1.13,0.91l-21.16-2.23c-0.59-0.06-0.97-0.59-0.91-1.13
			L190.38,71.14z"/>
		<path d="M221.49,58.24c1.24-11.76,6.92-18.28,15.51-17.37c8.59,0.9,12.79,8.46,11.55,20.22c-1.24,11.76-6.92,18.28-15.51,17.37
			C224.45,77.55,220.25,70,221.49,58.24z M241.52,60.34c0.84-7.95-1.05-12.71-5.19-13.14s-6.97,3.83-7.81,11.78
			c-0.84,8,1.05,12.71,5.19,13.14S240.68,68.35,241.52,60.34z"/>
	</g>
	<g>
		<path d="M177.59,291.89c-0.11-0.52,0.21-1.08,0.78-1.2l21.17-4.51c0.57-0.12,1.09,0.26,1.2,0.78l0.91,4.27
			c0.11,0.52-0.21,1.08-0.78,1.2l-15.39,3.28l2.09,9.78l12.85-2.74c0.52-0.11,1.09,0.26,1.2,0.78l0.91,4.26
			c0.11,0.52-0.26,1.09-0.78,1.2l-12.85,2.74l2.81,13.16c0.11,0.52-0.26,1.09-0.78,1.2l-4.79,1.02c-0.57,0.12-1.09-0.26-1.2-0.78
			L177.59,291.89z"/>
		<path d="M215.55,298.53c5.88-1.25,11.73,2.72,12.98,8.6c1.28,5.98-2.44,11.99-8.32,13.25s-11.73-2.72-13-8.7
			C205.95,305.8,209.67,299.79,215.55,298.53z M219.01,314.76c2.76-0.59,4.48-3.46,3.85-6.42c-0.62-2.91-3.36-4.78-6.11-4.19
			c-2.81,0.6-4.49,3.41-3.87,6.32C213.51,313.43,216.2,315.36,219.01,314.76z"/>
		<path d="M231.16,296.78c-0.12-0.57,0.26-1.09,0.78-1.2l1.98-0.42c0.47-0.1,0.84,0.09,1.08,0.48l1.16,1.87
			c0.5-1.2,1.96-3.79,5.19-4.48c2.44-0.52,4.79-0.21,4.45,1.23l-1.2,3.79c-0.16,0.52-0.64,0.84-1.1,0.72
			c-0.17-0.02-1-0.11-1.57,0.01c-2.08,0.44-3.03,2.11-3.24,2.92l2.68,12.58c0.16,0.73-0.26,1.09-0.98,1.24l-4,0.85
			c-0.52,0.11-1.09-0.26-1.2-0.78L231.16,296.78z"/>
		<path d="M257.46,289.59c5.36-1.14,10.59,1.98,11.79,7.6c0.08,0.36,0.17,1.05,0.2,1.43c0.06,0.53-0.33,0.99-0.8,1.09l-13.31,2.84
			c0.61,2.1,2.94,4.1,5.96,3.46c1.61-0.34,2.99-1.29,3.78-2.17c0.45-0.42,0.9-0.63,1.35-0.29l2.65,1.99
			c0.44,0.29,0.67,0.84,0.24,1.36c-1.37,1.98-3.76,3.79-7.14,4.51c-6.24,1.33-11.71-2.67-12.99-8.65
			C247.93,296.9,251.27,290.91,257.46,289.59z M262.88,297.14c-0.57-1.89-2.58-3.15-4.55-2.73c-2.08,0.44-3.46,2.37-3.3,4.4
			L262.88,297.14z"/>
		<path d="M281.02,284.57c3.22-0.69,6,0.08,8.48,2.05c0.46,0.39,0.49,1.04,0.05,1.51l-1.9,2.8c-0.38,0.52-0.9,0.36-1.33,0.12
			c-1.03-0.76-2.49-1.21-3.94-0.9c-2.81,0.6-4.58,3.48-3.96,6.39c0.63,2.96,3.37,4.83,6.17,4.23c2.24-0.48,2.99-1.78,3.74-2.86
			c0.29-0.44,0.78-0.66,1.27-0.43l2.65,1.45c0.61,0.3,0.93,0.78,0.67,1.38c-1.18,3.13-3.59,5.33-7.29,6.12
			c-5.88,1.25-12.02-2.33-13.35-8.57C270.97,291.72,275.2,285.81,281.02,284.57z"/>
		<path d="M302.27,288.57c2.08-0.44,3.92-0.24,3.92-0.24c-0.51-2.66-1.55-3.42-3.47-3.01c-1.92,0.41-4.54,1.4-5.66,2.02
			c-0.68,0.36-1.15-0.03-1.4-0.68l-1.04-2.61c-0.32-0.75,0.02-1.2,0.45-1.46c0.38-0.25,3.53-1.79,6.86-2.5
			c6.5-1.39,8.73,1.67,9.94,7.34l2.41,11.29c0.11,0.52-0.26,1.09-0.78,1.2l-1.87,0.4c-0.37,0.08-0.66-0.02-1.04-0.54l-0.92-1.27
			c-0.96,1.35-2.55,3.32-5.78,4.01c-4.16,0.89-7.6-1.21-8.54-5.63C294.56,293.21,296.96,289.71,302.27,288.57z M304.34,297.81
			c1.67-0.35,2.98-2.1,3.16-2.79l-0.61-2.86c0,0-1.54-0.32-3.04,0c-2.03,0.43-3.14,1.86-2.78,3.53
			C301.4,297.24,302.73,298.15,304.34,297.81z"/>
		<path d="M318.79,296.2l0.81-3.11c0.1-0.56,0.59-0.78,1.12-0.62c0,0,2.61,0.75,5,0.24c1.04-0.22,1.68-0.79,1.49-1.68
			c-0.2-0.94-1.05-1.35-4.04-1.86c-4.34-0.71-6.66-2.44-7.34-5.61c-0.68-3.17,1.03-6.64,6.34-7.77c3.07-0.65,5.49-0.25,6.74,0.25
			c0.53,0.21,0.92,0.73,0.77,1.3l-0.73,2.93c-0.16,0.52-0.72,0.7-1.17,0.63c0,0-2.57-0.59-4.55-0.17c-1.25,0.27-1.66,0.9-1.51,1.57
			c0.2,0.94,1.2,1.05,3.29,1.42c4.34,0.71,7.72,1.78,8.58,5.84c0.73,3.43-1.66,6.99-6.92,8.11c-3.43,0.73-6.06,0.15-7.33-0.45
			C318.97,297.03,318.67,296.66,318.79,296.2z"/>
		<path d="M337.22,278.84l-1.77,0.38c-0.52,0.11-1.04-0.27-1.15-0.79l-0.74-3.49c-0.12-0.57,0.21-1.08,0.72-1.19l1.77-0.38
			l-1.23-5.77c-0.11-0.52,0.26-1.09,0.78-1.2l4.25-0.96c0.52-0.11,1.04,0.27,1.15,0.79l1.24,5.82l4.58-0.98
			c0.57-0.12,1.08,0.2,1.2,0.78l0.74,3.49c0.11,0.52-0.21,1.08-0.78,1.2l-4.58,0.98l1.77,8.32c0.31,1.46,1.13,1.5,1.97,1.32
			c0.88-0.19,1.9-0.79,2.43-1.12c0.53-0.33,1-0.16,1.27,0.33l1.74,3.05c0.32,0.48,0.17,1.05-0.31,1.37
			c-0.23,0.21-3.35,2.13-5.9,2.67c-4,0.85-6.3-1.27-7.2-5.48L337.22,278.84z"/>
	</g>
	<path id="CO_2_" class="st16" d="M447.86,218.53l-25.06,1.74l-55.18,3.2l1.03,15.39l1,35.33l0.27,9.6l23.74-1.24l26.2-1.3
		l24.12-1.93l9.87-1.23L447.86,218.53z	">
<title>Colorado</title>
	</path>
	<g>
		<path class="st17" d="M400.1,243.84c1.79-0.3,3.19,0.05,4.57,0.93c0.18,0.12,0.22,0.33,0.1,0.49l-0.89,1.3
			c-0.1,0.16-0.28,0.19-0.44,0.07c-0.86-0.53-1.92-0.76-2.91-0.59c-2.27,0.38-3.64,2.56-3.27,4.8c0.37,2.22,2.39,3.82,4.67,3.43
			c1.07-0.18,1.9-0.74,2.55-1.47c0.12-0.15,0.32-0.16,0.44-0.07l1.29,0.95c0.16,0.1,0.17,0.34,0.06,0.48
			c-1.01,1.37-2.45,2.18-4.03,2.45c-3.55,0.6-6.88-1.75-7.48-5.3C394.17,247.77,396.55,244.43,400.1,243.84z"/>
		<path class="st17" d="M412.17,241.81c3.55-0.6,6.87,1.79,7.47,5.34s-1.77,6.85-5.32,7.45c-3.55,0.6-6.85-1.75-7.44-5.3
			S408.62,242.41,412.17,241.81z M413.93,252.29c2.24-0.38,3.78-2.51,3.4-4.75c-0.38-2.24-2.54-3.79-4.77-3.42
			c-2.24,0.38-3.75,2.55-3.38,4.78C409.55,251.14,411.69,252.66,413.93,252.29z"/>
	</g>
	<path id="ME_2_" class="st18" d="M179.07,137.31l1.31,0.35v-2.27l0.7-4.8l2.27-4.1l1.31-3.49l-1.66-2.1v-5.24l0.7-0.87l0.7-2.36
		l-0.17-1.31l-0.17-4.19l1.57-4.19l2.53-7.77l1.83-3.67h1.14l1.14,0.17v0.96l1.14,2.01l2.36,0.52l0.7-0.7v-0.87l3.49-2.53l1.57-1.57
		l1.31,0.17l5.24,2.1l1.66,0.87l7.95,26.11h5.24l0.7,1.66l0.17,4.19l2.53,2.01h0.7l0.17-0.44l-0.44-0.96l2.45-0.44l1.66,1.83
		l2.01,3.23v1.66l-1.83,4.1l-1.66,0.52l-2.97,2.71l-4.19,4.8h-1.14c-0.52,0-0.87-1.83-0.87-1.83l-1.57,0.17l-0.87,1.31l-2.1,1.31
		l-0.87,1.31l1.4,1.31l-0.44,0.52l-0.44,2.36l-1.66-0.17v-1.4l-0.26-1.14l-1.31,0.26l-1.57-2.79l-1.83,1.14l1.14,1.31l0.26,0.96
		l-0.7,1.14l0.26,2.71l0.17,1.4l-1.4,2.27l-2.53,0.44l-0.26,2.53l-4.63,2.71l-1.14,0.44l-1.4-1.31l-2.71,3.14l0.87,2.79l-1.31,1.14
		l-0.17,3.84l-0.96,5.5l-1.92-0.79l-0.44-2.71l-3.49-0.96l-0.17-2.18l-10.22-32.66L179.07,137.31z M210.95,150.93l1.31-1.31
		l1.22,0.96l0.52,2.1l-1.48,0.79L210.95,150.93z M216.8,145.78l1.57,1.66c0,0,1.14,0.09,1.14-0.17s0.17-1.75,0.17-1.75l0.79-0.7
		l-0.7-1.57l-1.75,0.61L216.8,145.78z	">
<title>Maine</title>
	</path>
	<g>
		<path class="st17" d="M192.77,125.19c-0.01-0.15,0.08-0.29,0.27-0.32l0.28-0.05c0.14-0.02,0.26,0.03,0.33,0.13l5.31,7.73
			c0.04-0.01,0.04-0.01,0.05-0.01l2.5-9.04c0.04-0.12,0.11-0.2,0.27-0.23l0.28-0.05c0.2-0.03,0.32,0.07,0.37,0.21l4.1,11.58
			c0.09,0.24-0.02,0.42-0.25,0.46l-1.62,0.27c-0.16,0.03-0.32-0.09-0.38-0.21l-2.18-6.55c-0.02,0-0.05,0.01-0.05,0.01l-1.94,7.5
			c-0.02,0.11-0.11,0.22-0.27,0.25l-0.32,0.05c-0.16,0.03-0.26-0.05-0.33-0.14l-4.31-6.45c0,0-0.04,0.01-0.05,0.01l0.1,6.9
			c0,0.13-0.12,0.29-0.27,0.32l-1.6,0.27c-0.23,0.04-0.4-0.1-0.41-0.35L192.77,125.19z"/>
		<path class="st17" d="M207.01,123.05c-0.03-0.18,0.09-0.36,0.28-0.39l7.23-1.21c0.2-0.03,0.36,0.1,0.39,0.28l0.24,1.46
			c0.03,0.18-0.08,0.36-0.28,0.39l-5.25,0.88l0.49,2.91l4.39-0.74c0.18-0.03,0.36,0.1,0.39,0.28l0.25,1.47
			c0.03,0.19-0.1,0.36-0.28,0.39l-4.39,0.74l0.52,3.11l5.25-0.88c0.2-0.03,0.36,0.1,0.39,0.28l0.24,1.46
			c0.03,0.18-0.08,0.36-0.28,0.39l-7.23,1.21c-0.2,0.03-0.36-0.1-0.39-0.28L207.01,123.05z"/>
	</g>
	<path id="AZ_2_" class="st19" d="M18.29,304.5l-0.15,0.75l0.25,0.5l9.45,5.35l6.05,3.8l7.35,4.3l8.4,5l6.15,1.2l12.7,1.35l3-19.8
		l3.5-26.55l2.2-15.5l-12.3-1.8l-30.35-5.5l-0.1,0.55l-1.3,8.25l-1.05,1.9l-1.4-0.1l-0.6-1.3l-1.3-0.2l-0.6-0.55l-0.55,0.05
		l-1.05,0.85l-0.15,3.4l-0.15,0.75l-0.25,6.25l-0.75,1.2l-0.2,1.65l1.4,2.5l0.55,2.75l0.35,0.55l0.55,0.45l-0.2,1.2l-0.85,0.6
		l-1.7,0.8l-0.8,0.9l-0.8,1.8l-0.25,2.45l-1.5,1.45l-0.95,0.45l-0.05,2.9l-0.3,0.8l0.25,0.4l1.95,0.2l-0.45,1.5l-0.85,1.2l-1.85,0.2
		L18.29,304.5z	">
<title>Arizona</title>
	</path>
	<g>
		<path class="st17" d="M39.36,297.99l3.52-12.88c0.03-0.12,0.11-0.22,0.27-0.25l0.18-0.03c0.18-0.03,0.26,0.05,0.33,0.15
			l7.47,11.03c0.15,0.21,0.04,0.47-0.22,0.51l-1.54,0.26c-0.27,0.04-0.41-0.04-0.58-0.27l-1.19-1.77l-5.31,0.89l-0.55,2.06
			c-0.04,0.19-0.17,0.39-0.46,0.44l-1.54,0.26C39.48,298.44,39.29,298.24,39.36,297.99z M46.4,292.92l-2.43-3.61l-0.05,0.01
			l-1.08,4.2L46.4,292.92z"/>
		<path class="st17" d="M51.54,295.74l3.69-10.44l-0.01-0.07l-4.44,0.75c-0.18,0.03-0.36-0.1-0.39-0.28l-0.25-1.47
			c-0.03-0.18,0.1-0.36,0.28-0.39l7.42-1.25c0.18-0.03,0.36,0.1,0.39,0.28l0.04,0.23l-3.6,10.55l0.01,0.04l4.53-0.76
			c0.2-0.03,0.36,0.1,0.39,0.28l0.25,1.47c0.03,0.18-0.08,0.36-0.28,0.39l-7.58,1.27c-0.18,0.03-0.36-0.1-0.39-0.28L51.54,295.74z"
			/>
	</g>
	<path id="IA_2_" class="st20" d="M328.63,312.54l1.94,1.12l0.35,0.45l-0.9,2.53l0.98,2.82l2.69,2.46l2.58,0.57l1.82-0.23l1,1.13
		l0.6,1.69l2.03,0.25l0.87,0.62l0.67,1.06l3.42,1.67l0.8,1.25l0.06,2.29l-0.55,2.98l0.02,1.84l-1.24,1.54l-1.08,0.66l-3.9,2.14
		l-0.26,3.75l0.93,1.15l1.53,0.76l0.52,2.55l-1.13,1.36l-0.17,1.42l0.46,1.73l-0.95,0.55l-0.98,1.32l-0.04,1.31l0.62,1.15
		l-0.76,0.96l-2.2-1.51l-1.56-1.75l-5.94,2.12l-7.23,2.29l-35.9,10.01l-1.99-2.79l-1.57-4.74l-1.83-2.76l-1.5-3.61l-2.32-2.25
		l-1.61-3.12l-3.46-5.1l-1.87-3.82l-1.39-1.11l-1.51-1.84l0.53-3.05l-0.28-4.61l-2.4-1.08l-0.68-1.67l0.06-1.86l1.26-0.55
		l44.75-11.79l15.43-4.45L328.63,312.54z	">
<title>Iowa</title>
	</path>
	<g>
		<path class="st17" d="M295.84,336.29c-0.04-0.18,0.09-0.37,0.27-0.41l1.69-0.35c0.18-0.04,0.38,0.09,0.41,0.26l2.43,11.75
			c0.04,0.18-0.09,0.37-0.27,0.41l-1.69,0.35c-0.18,0.04-0.38-0.09-0.41-0.27L295.84,336.29z"/>
		<path class="st17" d="M302.27,347.08l3.17-13.13c0.03-0.12,0.11-0.23,0.27-0.26l0.18-0.04c0.18-0.04,0.27,0.04,0.35,0.13
			l8.06,10.78c0.16,0.21,0.06,0.47-0.21,0.53l-1.58,0.33c-0.27,0.06-0.42-0.02-0.6-0.25l-1.29-1.73l-5.42,1.13l-0.49,2.1
			c-0.04,0.19-0.16,0.4-0.45,0.46l-1.58,0.33C302.4,347.53,302.21,347.33,302.27,347.08z M309.32,341.66l-2.62-3.53l-0.05,0.01
			l-0.97,4.28L309.32,341.66z"/>
	</g>
	<path id="TX_2_" class="st21" d="M291.23,52.9l15.74-0.26l12.42-0.61l-1.57-41.45l23-1.6l0.4,9.88l0.44,7.62l0.18,0.83l2.05,1.51
		l0.89,0.37l0.76-0.09l0.15-0.53l0.34,0.35l1.02-0.03l0.43-0.31l-0.01-0.08l0.44,0.16l0.01,1.58l1.93,0.08l1.05,0.26l1.8,0.09
		l1.18,0.63l1.09-0.93l1.16,0.12l1.07,1.2l0.34,0l0.1,0.88l1.44,0.3l0.95-1l0.65,0.14l0.89-0.06l0.35,0.85l2.28,0.59l0.94-0.32
		l0.61-1.77l0.04,0l0.55,0.75l1.98,0.16l1.49,0.38l1.39,0.27l0.95-0.62l0.18-1l1.51-0.17l0.93,0.32l1.17-0.99l0.17-0.02l0.28,0.56
		l1.98-0.23l0.71-0.85l0.57,0.11l0.82,0.8l1.48,0.64l1.48,0.26l1.12,0.47l1.23,0.71l1.25-0.65l0.92,0.24l1.25,8.38l0.75,3.96
		l0.45,1.7l1.3,1.73l0.59,1.85l2.05,2.28l0.27,1.29l0.29,0.31l0.07,3.27l-0.99,2.16l0.67,1.03l-0.1,1.03l0.01,3.07l-0.4,1.32
		l0.33,1.75l-2.28,0.94l-3.95,2.37l-0.33,0.85l-1,0.92l-0.81,0.73l-0.51,0.4l-2.14,2.5l-1.04,1.01l-2.08,1.6l-2.28,1.28l-2.49,1.73
		l-0.69,0.72l-2.27,1.79l-1.4,0.42l-1.38,2.5l-1.67,0.32l-0.33,0.85l1.06,0.69l-0.37,2.39l-0.33,1.96l-0.28,1.69l-0.12,1.93
		l0.45,0.97l1.09,2.86l0.71,2.52l0.89,1.05l-0.35,0.68l-1.21,0.95l-2.58-1.37l-2.37-0.2l-0.52,0.27l-1.37-0.1l-1.92-1.1l-2.24-0.21
		l-3.36-1.07l-1.07-1.54l-0.86-2.67l-1.44-0.65l-0.36-0.94l0.22-0.28l-0.04-1.44l-0.58-0.19l-0.3-0.39l0.34-1.91l-0.78-0.89
		l-1.41-0.39l-1.64-1.69l-1.83-2.6l-1.89-0.89l-0.01-0.81l-2.82-4.92l-0.54-1.73l-0.85-0.71l-0.16-0.62l-2.78-1.94l-1.24-1.18
		L335,73.57l-1.19-0.76l-2.91-0.14l-3.14,0.1l-1.41-0.82l-1.81,0.97l-1.44,0.8l-0.81,1.46l-0.24,1.6l-1.56,2.78l-0.89,1.12
		l-1.14-0.3l-0.81-0.38l-0.83-0.16l-1.75-0.78l-0.03-0.25l-0.85-0.71l-2.29-0.63l-3.49-2.93l-1.19-1.87l-0.39-3.41l-1.66-2.58
		l-0.34-1.11l-0.72-0.34l-0.56-0.83l-2.2-0.64l-0.62-0.61l-3.37-2.98l-0.7-1.28l-2.09-0.74l-0.84-1.78l-1.23-1.1l-0.74-0.13
		L291.23,52.9z M371.39,104.15l-0.59-2.96l-1.48-2.9l-0.59-2.92l0.24-3.52l1.06-3.06l1.21-2.44l1.17-1.67l0.26,0.06l-1.7,3.01
		l-1.54,2.95l-0.52,2.87l0.12,2.2l0.67,2.52l1.44,2.9l0.46,2.16l0.16,0.62L371.39,104.15z	">
<title>Texas</title>
	</path>
	<g>
		<path class="st17" d="M344.76,55.9l-2.72,0.46c-0.2,0.03-0.37-0.1-0.39-0.28l-0.25-1.46c-0.03-0.18,0.09-0.36,0.28-0.39l7.76-1.3
			c0.2-0.03,0.36,0.1,0.39,0.28l0.24,1.46c0.03,0.18-0.08,0.36-0.28,0.39l-2.72,0.46l1.67,9.96c0.03,0.18-0.1,0.36-0.28,0.39
			l-1.65,0.28c-0.18,0.03-0.36-0.1-0.39-0.28L344.76,55.9z"/>
		<path class="st17" d="M355.25,58.18l-4.48-4.96c-0.18-0.21-0.08-0.5,0.22-0.55l2.06-0.35c0.14-0.02,0.25,0.05,0.31,0.11l2.9,3.38
			l0.02,0l1.68-4.15c0.02-0.08,0.12-0.18,0.26-0.21l2.06-0.35c0.3-0.05,0.49,0.19,0.38,0.45l-2.64,6.16l4.68,5.26
			c0.18,0.22,0.08,0.5-0.22,0.55l-1.92,0.32c-0.14,0.02-0.28-0.04-0.33-0.11l-3.22-3.64l-0.05,0.01l-1.82,4.49
			c-0.04,0.08-0.13,0.19-0.28,0.21l-1.92,0.32c-0.32,0.05-0.51-0.19-0.4-0.44L355.25,58.18z"/>
	</g>
	<path id="AL_2_" class="st22" d="M413.61,368.29l0.4,0.13l0.86-1.79l0.99-2.91l1.52,0.4l2.05,3.97v0.66l-1.79,1.26l1.79,0.2
		l3.44-1.65l-0.2-5.03l-1.65-1.19l-1.32-1.32l0.26-2.65l6.95-0.99l17-1.92l4.43-0.4l3.71,0.07l-0.33-1.46l-0.99-0.53l-0.6-0.73
		l0.66-1.72l-0.26-3.44l-1.06-2.98l0.53-3.37l1.12-3.18l-0.13-1.12l-1.19-0.46l-0.33-2.38l-1.79-2.25l-1.32-4.3l-0.93-4.43
		l-1.19-3.31l-2.51-10.59l-2.32-5.23l-0.53-3.71l0.07-1.46l-5.96,0.53l-15.48,1.46l-8.07,0.53l-0.13,4.23l0.13,11.05l-0.46,20.51
		l-0.2,9.33l1.85,12.44l1.06,9.73L413.61,368.29z	">
<title>Alabama</title>
	</path>
	<g>
		<path class="st17" d="M418.11,336.22l4.81-10.41c0.05-0.09,0.12-0.17,0.26-0.17h0.15c0.16,0,0.22,0.08,0.26,0.17l4.76,10.41
			c0.09,0.2-0.03,0.4-0.26,0.4h-1.35c-0.23,0-0.34-0.09-0.45-0.31l-0.76-1.67h-4.63l-0.76,1.67c-0.06,0.16-0.2,0.31-0.45,0.31h-1.35
			C418.15,336.62,418.02,336.42,418.11,336.22z M424.8,332.92l-1.55-3.4h-0.05l-1.52,3.4H424.8z"/>
		<path class="st17" d="M429.78,326.08c0-0.15,0.12-0.29,0.29-0.29h1.42c0.16,0,0.29,0.14,0.29,0.29v8.68h3.95
			c0.17,0,0.29,0.14,0.29,0.29v1.27c0,0.15-0.12,0.29-0.29,0.29h-5.66c-0.17,0-0.29-0.14-0.29-0.29V326.08z"/>
	</g>
	<path id="NC_2_" class="st23" d="M101.25,198.76l-8.2-8.52l-2.22-1.25l-13.2-1.78l-0.62-2.64l-1.7-2.27l-12.95-3.03l-5.88-0.82
		l-8,1.58l-5.78,0.69l-5.25-0.41l-10.6-1.66l0.92-3.13l1.57-0.65l2.22,0.01l1.32-2.78l3.51-1.13l3.31-0.36l4.22-1.93l3.86-0.87
		l1.19-2.32l3.93-2.09l0.33,0.91l1.88,0.67l2.58-2.28l1.39,0.04l1.94,0.76l2.2-2.71l2.41-1.34l0.75-1.28l0.79-2.67l3.37,0.98
		l30.77,3.56l46.76,2.29l0.56,4.1l1.44,5.74l1.36,2.34l-0.01,1.89l-1.89-0.34l0.49,0.63l-1.09,3.17l-2.27,0.47l-0.89,1.49
		l-1.59,1.97l-3.17,0.47l-1.79-0.72l-1.11-0.46l-0.97-1.33l-0.04,1.06l-0.2,0.77l1.46,0.39l0.35,1.16l-2.75,4.46l3.23,0.86
		l0.13,1.35l2.24-1.3l1.1-0.12l-2.2,2.38l-3.37,3.06l-1-0.27l-0.74-0.61l-2.2-0.09l-4.49,0.78l-6.09,2.75l-3.58,2.92l-2.79,4.61
		l-0.88,1.74l-3.72-0.58l-4.23,0.11L101.25,198.76z M144.55,188.68l2.51-1.39l2.99-1.35l1.28-0.15l0.56-1.5l0.79-4.82l-0.68-2.08
		l-0.07-1.58l0.58-0.01l0.95,4.78l-0.59,3.47l-0.85,2.58l-2.92,0.46l-2.65,1.27l-1.09,0.7L144.55,188.68z	">
<title>North Carolina</title>
	</path>
	<g>
		<path class="st17" d="M88.85,170.45c0-0.18,0.16-0.32,0.34-0.32h0.45l7.49,7.96h0.02v-7.44c0-0.18,0.14-0.34,0.34-0.34h1.66
			c0.18,0,0.34,0.16,0.34,0.34v12.12c0,0.18-0.16,0.32-0.34,0.32h-0.43l-7.53-8.26h-0.02v7.74c0,0.18-0.14,0.34-0.34,0.34H89.2
			c-0.18,0-0.34-0.16-0.34-0.34V170.45z"/>
		<path class="st17" d="M108.35,170.13c1.82,0,3.13,0.58,4.36,1.67c0.16,0.14,0.16,0.36,0.02,0.5l-1.1,1.13
			c-0.13,0.14-0.31,0.14-0.45,0c-0.76-0.67-1.76-1.06-2.77-1.06c-2.3,0-4.02,1.93-4.02,4.2c0,2.25,1.73,4.16,4.03,4.16
			c1.08,0,2-0.41,2.75-1.03c0.14-0.13,0.34-0.11,0.45,0l1.12,1.15c0.14,0.13,0.11,0.36-0.02,0.49c-1.22,1.19-2.77,1.75-4.38,1.75
			c-3.6,0-6.5-2.86-6.5-6.46C101.85,173.03,104.75,170.13,108.35,170.13z"/>
	</g>
	<path id="MI_2_" class="st24" d="M289.51,164.64l13.36-1.33l0.14,0.77l6.93-1.05l8.4-1.19l0.07-0.42l0.14-1.05l1.47-2.59l1.4-1.19
		l-0.14-3.57l1.12-1.12l0.77-0.21l0.14-2.52l1.05-2.1l0.77,0.42l0.14,0.42l0.56,0.14l1.33-0.7l-0.28-6.37l-2.24-5.74l-1.61-6.37
		l-1.68-2.24l-1.82-1.26l-1.12,0.77l-2.73,1.26l-1.33,3.5l-1.89,2.59l-0.77,0.42l-1.05-0.42c0,0-1.82-1.05-1.68-1.47
		c0.14-0.42,0.35-3.5,0.35-3.5l2.38-0.91l0.56-2.38l0.42-1.82l1.68-1.12l-0.21-7l-1.12-1.61l-0.91-0.56l-0.56-1.47l0.56-0.56
		l1.12,0.21l0.14-1.12l-1.82-1.54l-0.91-1.82h-1.82l-3.15-1.05l-3.85-2.38h-1.89l-0.42,0.42l-0.7-0.35l-2.17-1.61l-2.03,1.26
		l-2.03,1.61l0.21,2.52l0.7,0.21l1.47,0.35l0.35,0.56l-1.82,0.56l-1.82,0.21l-1.05,1.26l-0.21,1.47l0.21,1.12l0.21,3.85l-2.52,1.47
		l-0.42-0.14v-2.94l0.91-1.68l0.42-1.68l-0.56-0.56l-1.33,0.56l-0.7,2.94l-1.89,0.77l-1.26,1.33l-0.14,0.7l0.42,0.56l-0.42,1.82
		l-1.61,0.35v0.77l0.56,1.68l-0.77,4.27l-1.12,2.8l0.42,3.29l0.35,0.77l-0.56,1.68l-0.21,0.56l-0.21,1.89l2.52,4.2l2.03,4.55
		l1.05,3.36l-0.56,3.29l-0.7,4.2l-1.68,3.64l-0.21,1.89l-2.24,2.17L289.51,164.64z M266.21,113.99l-0.91-0.77l-1.26-7.28l-2.59-0.91
		l-1.19-1.61l-8.81-1.96l-1.96-0.77l-5.67-1.54l-5.46-0.7l-2.73-3.71l0.49-0.35l1.89-0.56l2.52-1.61v-0.7l0.42-0.42l4.2-0.7
		l1.68-1.33l3.08-1.47l0.14-0.91l1.33-2.03l1.26-0.56l0.91-1.26l1.61-1.61l3.08-1.68l3.29-0.35l0.77,0.77l-0.21,0.7l-2.59,0.7
		l-1.05,2.17l-1.61,0.56l-0.35,1.68l-1.68,2.24l-0.21,1.82l0.56,0.35l0.7-0.77l2.52-2.03l0.91,0.91h1.61l2.24,0.7l1.05,0.77
		l1.05,2.17l1.89,1.89l2.73-0.14l1.05-0.7l1.12,0.91l1.12,0.35l0.91-0.56h0.77l1.12-0.7l2.8-2.52l2.38-0.77l4.62-0.21l3.15-1.33
		l1.82-0.91l1.05,0.14v3.99l0.35,0.21l2.03,0.56l1.33-0.35l4.27-1.12l0.77-0.77l1.05,0.35v4.9l2.24,2.17l0.91,0.42l0.91,0.7
		l-0.91,0.21l-0.56-0.21l-2.59-0.35l-1.47,0.42l-1.61-0.14l-2.24,1.05h-1.26l-4.06-0.91l-3.64,0.14l-1.33,1.82l-4.9,0.42l-1.68,0.56
		l-0.77,2.17l-0.91,0.77l-0.35-0.14l-1.05-1.12l-3.15,1.68h-0.42l-0.77-1.12l-0.56,0.14l-1.33,3.08l-0.7,2.8l-2.24,4.83
		L266.21,113.99z M245.5,74.46l1.26-1.47l1.54-0.56l3.78-2.73l1.61-0.42l0.35,0.35l-3.57,3.57l-2.31,1.33l-1.47,0.63L245.5,74.46z
		 M305.81,96.92l0.42,1.75l2.24,0.14l0.91-0.84c0,0-0.07-1.05-0.28-1.12c-0.21-0.14-1.12-1.33-1.12-1.33l-1.54,0.14l-1.12,0.14
		l-0.21,0.77L305.81,96.92z	">
<title>Michigan</title>
	</path>
	<g>
		<path class="st17" d="M294.18,139.76c0.02-0.14,0.13-0.27,0.32-0.27h0.29c0.14,0,0.25,0.07,0.31,0.18l3.96,8.5
			c0.04,0,0.04,0,0.05,0l3.96-8.5c0.05-0.11,0.14-0.18,0.31-0.18h0.29c0.2,0,0.31,0.13,0.32,0.27l2.12,12.1
			c0.05,0.25-0.09,0.41-0.32,0.41h-1.64c-0.16,0-0.31-0.14-0.34-0.27l-1.06-6.82c-0.02,0-0.05,0-0.05,0l-3.15,7.08
			c-0.04,0.11-0.14,0.2-0.31,0.2h-0.32c-0.16,0-0.25-0.09-0.31-0.2l-3.19-7.08c0,0-0.04,0-0.05,0l-1.04,6.82
			c-0.02,0.13-0.16,0.27-0.32,0.27h-1.62c-0.23,0-0.38-0.16-0.34-0.41L294.18,139.76z"/>
		<path class="st17" d="M308.58,140.01c0-0.18,0.16-0.34,0.34-0.34h1.67c0.18,0,0.34,0.16,0.34,0.34v11.92
			c0,0.18-0.16,0.34-0.34,0.34h-1.67c-0.18,0-0.34-0.16-0.34-0.34V140.01z"/>
	</g>
	<path id="GA_2_" class="st25" d="M347.51,240.21l-3.19-0.4l-0.8,0.91l0.91,2.67l-0.17,2.22l-1.25-0.34l-0.11-1.71h-2.96l-3.01,0.4
		l-18.37,1.08l-4.38-0.17l-0.8-0.68l-1.42-2.45l-0.46-1.88l-0.91-0.51l-0.28-0.28l0.51-1.25l-0.23-3.13l-0.91-2.56l0.46-2.79
		l0.97-2.73l-0.11-1.42l-1.08-0.4l-0.23-1.82l-1.59-1.99l-1.08-3.53l-0.85-3.98l-0.97-2.73l-2.16-9.1l-1.99-4.55l-0.46-3.01
		l0.06-1.31l1.88-0.17l7.74-0.91l10.58-1.14l3.58-0.63l0.28,0.8l-1.25,0.51l-0.51,1.25l0.23,1.14l0.8,0.91l2.45,1.54l1.82-0.06
		l1.82,2.67l0.34,0.91l1.31,1.59l0.28,0.97l2.67,1.02l1.71,1.25l1.31,1.71l1.31,0.74l1.14,1.02l0.8,1.54l1.19,1.08l2.33,1.02
		l1.54,3.41l0.97,2.9l1.59,0.4l1.19,1.08l1.14,3.24l1.65,0.91l0.97-0.46l0.23,0.68l-1.88,3.53l0.28,1.48l-0.85,2.39l-1.31,5.69
		l0.46,3.58L347.51,240.21z	">
<title>Georgia</title>
	</path>
	<g>
		<path class="st17" d="M319.94,214.12c1.6-0.27,3.23,0.1,4.61,0.93c0.17,0.12,0.22,0.33,0.1,0.49l-0.91,1.34
			c-0.12,0.17-0.28,0.19-0.46,0.08c-0.88-0.55-1.88-0.74-2.85-0.58c-2.22,0.37-3.66,2.57-3.29,4.79c0.37,2.2,2.44,3.77,4.68,3.4
			c1-0.17,1.71-0.6,2.04-0.8l-0.25-1.51l-1.42,0.24c-0.2,0.03-0.36-0.09-0.39-0.26l-0.24-1.4c-0.03-0.19,0.08-0.36,0.28-0.39
			l3.41-0.57c0.18-0.03,0.35,0.11,0.38,0.28l0.76,4.55c0.02,0.14-0.03,0.24-0.09,0.31c0,0-1.64,1.46-4.21,1.89
			c-3.53,0.59-6.85-1.74-7.44-5.29C314.05,218.04,316.41,214.71,319.94,214.12z"/>
		<path class="st17" d="M327.52,225.33l3.52-12.88c0.03-0.12,0.11-0.22,0.27-0.25l0.18-0.03c0.18-0.03,0.26,0.05,0.33,0.15
			l7.47,11.03c0.15,0.21,0.04,0.47-0.22,0.51l-1.54,0.26c-0.27,0.04-0.41-0.04-0.58-0.27l-1.19-1.77l-5.31,0.89l-0.55,2.06
			c-0.04,0.19-0.17,0.39-0.46,0.44l-1.55,0.26C327.63,225.79,327.45,225.58,327.52,225.33z M334.55,220.26l-2.43-3.61l-0.05,0.01
			l-1.08,4.2L334.55,220.26z"/>
	</g>
</g>
<g>
	<path d="M145.34,430.26c1.58-1.92,4.61-5.86,6.22-7.99c0.74-0.91,1.22-1.85,1.22-2.66c0-1.08-0.82-2.18-2.54-2.18
		c-1.15,0-2.14,0.82-2.69,1.42c-0.19,0.19-0.46,0.19-0.65,0l-1.15-1.15c-0.14-0.14-0.19-0.43-0.02-0.62c0,0,1.87-2.35,4.73-2.35
		c3.43,0,5.35,2.18,5.35,4.78c0,1.56-0.67,2.54-1.61,3.89c-1.03,1.46-2.86,3.72-4.13,5.33h5.18c0.24,0,0.46,0.22,0.46,0.46v1.66
		c0,0.24-0.22,0.46-0.46,0.46h-9.46c-0.26,0-0.46-0.22-0.46-0.46V430.26z"/>
	<path d="M158.49,423.1c0-5.26,2.21-8.4,6.05-8.4c3.84,0,6.05,3.14,6.05,8.4c0,5.26-2.21,8.4-6.05,8.4
		C160.7,431.5,158.49,428.36,158.49,423.1z M167.44,423.1c0-3.55-1.06-5.57-2.9-5.57c-1.85,0-2.9,2.02-2.9,5.57
		c0,3.58,1.06,5.57,2.9,5.57C166.39,428.67,167.44,426.68,167.44,423.1z"/>
	<path d="M172.67,430.26c1.58-1.92,4.61-5.86,6.22-7.99c0.74-0.91,1.22-1.85,1.22-2.66c0-1.08-0.82-2.18-2.54-2.18
		c-1.15,0-2.14,0.82-2.69,1.42c-0.19,0.19-0.46,0.19-0.65,0l-1.15-1.15c-0.14-0.14-0.19-0.43-0.02-0.62c0,0,1.87-2.35,4.73-2.35
		c3.43,0,5.35,2.18,5.35,4.78c0,1.56-0.67,2.54-1.61,3.89c-1.03,1.46-2.86,3.72-4.13,5.33h5.18c0.24,0,0.46,0.22,0.46,0.46v1.66
		c0,0.24-0.22,0.46-0.46,0.46h-9.46c-0.26,0-0.46-0.22-0.46-0.46V430.26z"/>
	<path d="M185.83,423.1c0-5.26,2.21-8.4,6.05-8.4c3.84,0,6.05,3.14,6.05,8.4c0,5.26-2.21,8.4-6.05,8.4
		C188.03,431.5,185.83,428.36,185.83,423.1z M194.78,423.1c0-3.55-1.06-5.57-2.9-5.57c-1.85,0-2.9,2.02-2.9,5.57
		c0,3.58,1.06,5.57,2.9,5.57C193.72,428.67,194.78,426.68,194.78,423.1z"/>
	<path d="M205.89,428.91l0.86-1.49c0.19-0.34,0.6-0.34,0.82-0.17c0.12,0.07,2.06,1.49,3.62,1.49c1.25,0,2.18-0.82,2.18-1.85
		c0-1.22-1.03-2.06-3.05-2.88c-2.26-0.91-4.51-2.35-4.51-5.18c0-2.14,1.58-4.61,5.4-4.61c2.45,0,4.32,1.25,4.8,1.61
		c0.24,0.14,0.31,0.55,0.14,0.79l-0.91,1.37c-0.19,0.29-0.55,0.48-0.84,0.29c-0.19-0.12-2.02-1.32-3.34-1.32
		c-1.37,0-2.11,0.91-2.11,1.68c0,1.13,0.89,1.9,2.83,2.69c2.33,0.94,5.02,2.33,5.02,5.42c0,2.47-2.14,4.75-5.52,4.75
		c-3.02,0-4.8-1.42-5.28-1.87C205.79,429.42,205.67,429.3,205.89,428.91z"/>
	<path d="M223.17,421.42c2.47,0,4.49,1.87,4.49,4.46c0,0.17-0.02,0.48-0.05,0.65c-0.02,0.24-0.24,0.41-0.46,0.41h-6.14
		c0.07,0.98,0.91,2.09,2.3,2.09c0.74,0,1.44-0.29,1.87-0.6c0.24-0.14,0.46-0.19,0.62,0l0.98,1.13c0.17,0.17,0.22,0.43-0.02,0.62
		c-0.79,0.74-2.02,1.32-3.58,1.32c-2.88,0-4.92-2.28-4.92-5.04C218.27,423.75,220.31,421.42,223.17,421.42z M224.85,425.26
		c-0.07-0.89-0.84-1.63-1.75-1.63c-0.96,0-1.75,0.72-1.87,1.63H224.85z"/>
	<path d="M229.67,422.12c0-0.26,0.22-0.46,0.46-0.46h0.91c0.22,0,0.34,0.12,0.41,0.29l0.34,0.89c0.36-0.38,1.54-1.42,3.38-1.42
		c3.05,0,4.27,2.28,4.27,4.78v4.61c0,0.24-0.22,0.46-0.46,0.46h-1.97c-0.26,0-0.46-0.22-0.46-0.46v-4.75c0-1.25-0.65-2.04-1.8-2.04
		c-1.25,0-2.02,0.86-2.26,1.51v5.28c0,0.34-0.14,0.46-0.6,0.46h-1.78c-0.24,0-0.46-0.22-0.46-0.46V422.12z"/>
	<path d="M245.27,425.19c0.96,0,1.75,0.26,1.75,0.26c0.02-1.22-0.36-1.66-1.25-1.66c-0.89,0-2.14,0.19-2.69,0.36
		c-0.34,0.1-0.5-0.12-0.55-0.43l-0.22-1.25c-0.07-0.36,0.12-0.53,0.34-0.6c0.19-0.07,1.73-0.46,3.26-0.46c3,0,3.7,1.56,3.7,4.18
		v5.21c0,0.24-0.22,0.46-0.46,0.46h-0.86c-0.17,0-0.29-0.07-0.41-0.34l-0.29-0.65c-0.55,0.5-1.44,1.22-2.93,1.22
		c-1.92,0-3.24-1.25-3.24-3.29C241.43,426.51,242.82,425.19,245.27,425.19z M245.32,429.46c0.77,0,1.51-0.65,1.66-0.94v-1.32
		c0,0-0.65-0.29-1.34-0.29c-0.94,0-1.56,0.53-1.56,1.3C244.07,428.94,244.58,429.46,245.32,429.46z"/>
	<path d="M252.88,424.18h-0.82c-0.24,0-0.43-0.22-0.43-0.46v-1.61c0-0.26,0.19-0.46,0.43-0.46h0.82V419c0-0.24,0.22-0.46,0.46-0.46
		l1.97-0.02c0.24,0,0.43,0.22,0.43,0.46v2.69h2.11c0.26,0,0.46,0.19,0.46,0.46v1.61c0,0.24-0.19,0.46-0.46,0.46h-2.11v3.84
		c0,0.67,0.36,0.77,0.74,0.77c0.41,0,0.91-0.17,1.18-0.26c0.26-0.1,0.46,0.02,0.53,0.26l0.48,1.51c0.1,0.24-0.02,0.48-0.26,0.58
		c-0.12,0.07-1.68,0.62-2.86,0.62c-1.85,0-2.66-1.15-2.66-3.1V424.18z"/>
	<path d="M264.83,421.42c2.47,0,4.49,1.87,4.49,4.46c0,0.17-0.02,0.48-0.05,0.65c-0.02,0.24-0.24,0.41-0.46,0.41h-6.14
		c0.07,0.98,0.91,2.09,2.3,2.09c0.74,0,1.44-0.29,1.87-0.6c0.24-0.14,0.46-0.19,0.62,0l0.98,1.13c0.17,0.17,0.22,0.43-0.02,0.62
		c-0.79,0.74-2.02,1.32-3.58,1.32c-2.88,0-4.92-2.28-4.92-5.04C259.94,423.75,261.98,421.42,264.83,421.42z M266.51,425.26
		c-0.07-0.89-0.84-1.63-1.75-1.63c-0.96,0-1.75,0.72-1.87,1.63H266.51z"/>
	<path d="M277.38,414.92c0-0.24,0.19-0.46,0.46-0.46h9.77c0.26,0,0.46,0.22,0.46,0.46v1.97c0,0.24-0.19,0.46-0.46,0.46h-7.1v4.51
		h5.93c0.24,0,0.46,0.22,0.46,0.46v1.97c0,0.24-0.22,0.46-0.46,0.46h-5.93v6.07c0,0.24-0.22,0.46-0.46,0.46h-2.21
		c-0.26,0-0.46-0.22-0.46-0.46V414.92z"/>
	<path d="M293.51,421.42c2.71,0,4.92,2.3,4.92,5.02c0,2.76-2.21,5.06-4.92,5.06s-4.92-2.3-4.92-5.06
		C288.59,423.73,290.8,421.42,293.51,421.42z M293.51,428.91c1.27,0,2.3-1.1,2.3-2.47c0-1.34-1.03-2.42-2.3-2.42
		c-1.3,0-2.3,1.08-2.3,2.42C291.21,427.81,292.22,428.91,293.51,428.91z"/>
	<path d="M300.57,422.12c0-0.26,0.22-0.46,0.46-0.46h0.91c0.22,0,0.36,0.12,0.43,0.31l0.34,0.94c0.34-0.48,1.22-1.49,2.71-1.49
		c1.13,0,2.14,0.36,1.85,0.96l-0.89,1.56c-0.12,0.22-0.36,0.31-0.55,0.22c-0.07-0.02-0.43-0.14-0.7-0.14c-0.96,0-1.54,0.65-1.7,0.98
		v5.81c0,0.34-0.22,0.46-0.55,0.46h-1.85c-0.24,0-0.46-0.22-0.46-0.46V422.12z"/>
	<path d="M312.86,421.42c2.47,0,4.49,1.87,4.49,4.46c0,0.17-0.02,0.48-0.05,0.65c-0.02,0.24-0.24,0.41-0.46,0.41h-6.14
		c0.07,0.98,0.91,2.09,2.3,2.09c0.74,0,1.44-0.29,1.87-0.6c0.24-0.14,0.46-0.19,0.62,0l0.98,1.13c0.17,0.17,0.22,0.43-0.02,0.62
		c-0.79,0.74-2.02,1.32-3.58,1.32c-2.88,0-4.92-2.28-4.92-5.04C307.96,423.75,310,421.42,312.86,421.42z M314.54,425.26
		c-0.07-0.89-0.84-1.63-1.75-1.63c-0.96,0-1.75,0.72-1.87,1.63H314.54z"/>
	<path d="M323.73,421.42c1.49,0,2.64,0.6,3.55,1.7c0.17,0.22,0.12,0.5-0.12,0.67l-1.1,1.06c-0.22,0.19-0.43,0.07-0.6-0.07
		c-0.38-0.43-0.98-0.77-1.66-0.77c-1.3,0-2.35,1.1-2.35,2.45c0,1.37,1.03,2.45,2.33,2.45c1.03,0,1.49-0.5,1.92-0.91
		c0.17-0.17,0.41-0.22,0.6-0.07l1.03,0.89c0.24,0.19,0.34,0.43,0.17,0.67c-0.82,1.27-2.09,2.02-3.79,2.02
		c-2.71,0-5.09-2.16-5.09-5.04C318.62,423.63,321.04,421.42,323.73,421.42z"/>
	<path d="M332.73,425.19c0.96,0,1.75,0.26,1.75,0.26c0.02-1.22-0.36-1.66-1.25-1.66c-0.89,0-2.14,0.19-2.69,0.36
		c-0.34,0.1-0.5-0.12-0.55-0.43l-0.22-1.25c-0.07-0.36,0.12-0.53,0.34-0.6c0.19-0.07,1.73-0.46,3.26-0.46c3,0,3.7,1.56,3.7,4.18
		v5.21c0,0.24-0.22,0.46-0.46,0.46h-0.86c-0.17,0-0.29-0.07-0.41-0.34l-0.29-0.65c-0.55,0.5-1.44,1.22-2.93,1.22
		c-1.92,0-3.24-1.25-3.24-3.29C328.89,426.51,330.28,425.19,332.73,425.19z M332.78,429.46c0.77,0,1.51-0.65,1.66-0.94v-1.32
		c0,0-0.65-0.29-1.34-0.29c-0.94,0-1.56,0.53-1.56,1.3C331.53,428.94,332.03,429.46,332.78,429.46z"/>
	<path d="M339.3,430.11l0.65-1.3c0.1-0.24,0.34-0.29,0.55-0.17c0,0,1.08,0.58,2.18,0.58c0.48,0,0.82-0.19,0.82-0.6
		c0-0.43-0.34-0.7-1.61-1.2c-1.85-0.72-2.71-1.71-2.71-3.17s1.08-2.83,3.53-2.83c1.42,0,2.45,0.41,2.95,0.74
		c0.22,0.14,0.34,0.41,0.22,0.65l-0.6,1.22c-0.12,0.22-0.38,0.24-0.58,0.17c0,0-1.08-0.5-1.99-0.5c-0.58,0-0.82,0.24-0.82,0.55
		c0,0.43,0.43,0.58,1.32,0.94c1.85,0.72,3.24,1.51,3.24,3.38c0,1.58-1.39,2.93-3.82,2.93c-1.58,0-2.69-0.5-3.19-0.89
		C339.3,430.5,339.21,430.3,339.3,430.11z"/>
	<path d="M349.07,424.18h-0.82c-0.24,0-0.43-0.22-0.43-0.46v-1.61c0-0.26,0.19-0.46,0.43-0.46h0.82V419c0-0.24,0.22-0.46,0.46-0.46
		l1.97-0.02c0.24,0,0.43,0.22,0.43,0.46v2.69h2.11c0.26,0,0.46,0.19,0.46,0.46v1.61c0,0.24-0.19,0.46-0.46,0.46h-2.11v3.84
		c0,0.67,0.36,0.77,0.74,0.77c0.41,0,0.91-0.17,1.18-0.26c0.26-0.1,0.46,0.02,0.53,0.26l0.48,1.51c0.1,0.24-0.02,0.48-0.26,0.58
		c-0.12,0.07-1.68,0.62-2.86,0.62c-1.85,0-2.66-1.15-2.66-3.1V424.18z"/>
</g>
</svg>
