<?xml version="1.0" encoding="utf-8"?>
<!-- Generator: Adobe Illustrator 24.0.1, SVG Export Plug-In . SVG Version: 6.00 Build 0)  -->
<svg version="1.1" id="Layer_1" xmlns="http://www.w3.org/2000/svg" xmlns:xlink="http://www.w3.org/1999/xlink" x="0px" y="0px"
	 viewBox="0 0 1000 400" style="enable-background:new 0 0 1000 400;" xml:space="preserve">
<style type="text/css">
	.st0{fill:none;stroke:#0077FF;stroke-width:3.4549;stroke-miterlimit:10;}
	.st1{fill:none;stroke:#0077FF;stroke-width:0.3455;stroke-miterlimit:10;}
	.st2{fill:#0077FF;stroke:#0077FF;stroke-width:0.3455;stroke-miterlimit:10;}
	.st3{stroke:#0077FF;stroke-width:3.4549;stroke-miterlimit:10;}
	.st4{fill:none;stroke:#FF4535;stroke-width:3.4549;stroke-miterlimit:10;}
	.st5{fill:none;stroke:#FF4535;stroke-width:0.3455;stroke-miterlimit:10;}
	.st6{fill:#FF4535;stroke:#FF4535;stroke-width:0.3455;stroke-miterlimit:10;}
	.st7{stroke:#FF4535;stroke-width:3.4549;stroke-miterlimit:10;}
	.st8{fill:none;stroke:#FF2D49;stroke-width:3.4549;stroke-miterlimit:10;}
	.st9{fill:none;stroke:#FF2D49;stroke-width:0.3455;stroke-miterlimit:10;}
	.st10{fill:#FF2D49;stroke:#FF2D49;stroke-width:0.3455;stroke-miterlimit:10;}
	.st11{stroke:#FF2D49;stroke-width:3.4549;stroke-miterlimit:10;}
	.st12{fill:none;stroke:#002E66;stroke-width:3.4549;stroke-miterlimit:10;}
	.st13{fill:none;stroke:#002E66;stroke-width:0.3455;stroke-miterlimit:10;}
	.st14{fill:#002E66;stroke:#002E66;stroke-width:0.3455;stroke-miterlimit:10;}
	.st15{stroke:#002E66;stroke-width:3.4549;stroke-miterlimit:10;}
	.st16{fill:#80CCFF;}
	.st17{fill:#FFFFFF;}
	.st18{fill:#BDDBFF;}
	.st19{fill:#FFB2A7;}
	.st20{fill:#FF8378;}
	.st21{fill:#FF624F;}
	.st22{fill:#D34639;}
	.st23{fill:#FF6A6E;}
	.st24{fill:#36AEFF;}
	.st25{fill:#FF999C;}
</style>
<g>
	<g>
		<line class="st0" x1="170.16" y1="225.53" x2="165.49" y2="253.82"/>
		<line class="st0" x1="272.94" y1="242.47" x2="268.27" y2="270.76"/>
		<line class="st0" x1="176.99" y1="234.01" x2="173.51" y2="255.14"/>
		<line class="st0" x1="184.15" y1="235.19" x2="180.66" y2="256.32"/>
		<line class="st0" x1="191.65" y1="236.42" x2="188.16" y2="257.56"/>
		<line class="st0" x1="198.81" y1="237.6" x2="195.32" y2="258.74"/>
		<line class="st0" x1="205.97" y1="238.78" x2="202.48" y2="259.92"/>
		<line class="st0" x1="213.12" y1="239.96" x2="209.64" y2="261.1"/>
		<line class="st0" x1="220.45" y1="241.17" x2="216.97" y2="262.31"/>
		<line class="st0" x1="227.95" y1="242.41" x2="224.47" y2="263.54"/>
		<line class="st0" x1="234.77" y1="243.53" x2="231.29" y2="264.67"/>
		<line class="st0" x1="242.27" y1="244.77" x2="238.79" y2="265.9"/>
		<line class="st0" x1="249.26" y1="245.92" x2="245.78" y2="267.06"/>
		<line class="st0" x1="256.42" y1="247.1" x2="252.93" y2="268.24"/>
		<line class="st0" x1="263.92" y1="248.34" x2="260.43" y2="269.47"/>
		<line class="st0" x1="166.86" y1="224.29" x2="276.29" y2="242.32"/>
		<line class="st0" x1="177.57" y1="210.29" x2="270.98" y2="225.69"/>
		<line class="st0" x1="182.78" y1="202.05" x2="268.69" y2="216.21"/>
		<line class="st0" x1="181.32" y1="210.91" x2="178.79" y2="226.25"/>
		<line class="st0" x1="267.62" y1="224.79" x2="265.1" y2="240.13"/>
		<line class="st0" x1="187.34" y1="202.8" x2="185.88" y2="211.66"/>
		<line class="st0" x1="264.31" y1="215.14" x2="262.85" y2="224"/>
		<line class="st0" x1="224.33" y1="151.82" x2="245.46" y2="155.3"/>
		<line class="st0" x1="225.66" y1="167.1" x2="228.08" y2="152.44"/>
		<line class="st0" x1="232.48" y1="168.22" x2="234.89" y2="153.56"/>
		<line class="st0" x1="239.3" y1="169.34" x2="241.71" y2="154.69"/>
		<line class="st0" x1="217.42" y1="166.09" x2="247.42" y2="171.03"/>
		<line class="st0" x1="217.67" y1="175.23" x2="219.18" y2="166.03"/>
		<line class="st0" x1="244.26" y1="179.62" x2="245.77" y2="170.41"/>
		<path class="st0" d="M191.7,203.17c3.18-19.3,20.41-31.65,39.71-28.47c19.3,3.18,31.65,20.41,28.47,39.71"/>
		<path class="st0" d="M198.75,205.03c3.13-19.02,17.66-32.46,32.44-30.02c14.78,2.44,24.22,19.83,21.09,38.84"/>
		<path class="st0" d="M207.16,207.12c3.13-19.02,13.92-33.07,24.08-31.4s15.87,18.45,12.73,37.46"/>
		<path class="st0" d="M215.85,207.5c3.13-19.02,9.76-31.66,15.22-30.76c5.46,0.9,7.68,15,4.55,34.01"/>
		<line class="st0" x1="225.74" y1="209.13" x2="231.35" y2="175.04"/>
		<path class="st0" d="M241.14,153.89c0.56-3.39-1.74-6.59-5.12-7.15c-3.39-0.56-6.59,1.74-7.15,5.12"/>
		<path class="st2" d="M238.57,147.34c0.18-1.07-0.93-1.79-0.93-1.79s-0.17-0.12-0.17-0.13c-0.07-0.09,1.08-2.44,1.5-3.69
			c0.18-0.54,0.37-0.31,0.59-0.29c0.22,0.02,0.27-0.28,0.3-1.18c0,0,0.14-0.28,0.14-0.44c0.01-0.17-0.19-0.34-0.27-0.36
			c0,0,0.29-0.4,0.33-0.6c0.13-0.72-0.36-1.25-0.4-2.23c-0.02-0.44-0.24-2.34-1.15-2.06c0,0-0.18-0.3-0.01-0.48
			c0,0,0.3-0.21,0.33-0.66c0.04-0.44-0.48-0.89-0.48-0.89l0.07-0.44c0,0,0.46-0.03,0.35-0.12c-0.11-0.09-0.11-0.16-0.11-0.16
			s0.4-0.09,0.31-0.16c-0.09-0.07-0.3-0.1-0.3-0.1s-0.22-0.29-0.35-0.08c0,0-0.32-0.18-0.44-0.18c-0.12,0-0.05,0.2-0.05,0.2
			s-0.33-0.19-0.36-0.13c-0.03,0.06,0.3,0.5,0.3,0.5s-0.76-0.09-0.83,0.28c0,0,0.08,0.14,0.41-0.04c0,0-0.89,0.81-0.82,0.89
			c0.08,0.08,0.25,0.04,0.25,0.04s-0.46,0.49-0.33,0.64c0,0-0.38,0.8-0.25,0.89c0.09,0.07,0.25-0.07,0.35-0.14
			c0.29-0.21,0.4-0.02-0.13,0.33c-0.15,0.1-0.56,0.38-0.78,1.07c-0.22,0.69-0.3,0.66-0.4,0.76c-0.11,0.11-0.91,0.64-0.99,2.01
			c-0.01,0.24,0.19,0.32,0.37,0.3l0.05,1.05l-0.06,0.93c0,0-0.62,0.88-0.58,0.95c0.04,0.08,0.32,0.16,0.32,0.16
			s-0.21,0.71-0.12,0.73c0.08,0.01,0.37,0.16,0.39,0.08c0.01-0.08,0.15-1.01,0.15-1.01l0.26,3.29l-0.14,0.04c0,0-1.3,0.28-1.49,1.38
			c0,0,0.69,0.1,2.47,0.39C237.68,147.2,238.57,147.34,238.57,147.34"/>
		<line class="st3" x1="186.41" y1="226.81" x2="187.81" y2="218.28"/>
		<line class="st3" x1="194.25" y1="228.1" x2="195.65" y2="219.58"/>
		<line class="st3" x1="202.09" y1="229.39" x2="203.49" y2="220.87"/>
		<line class="st3" x1="209.93" y1="230.68" x2="211.33" y2="222.16"/>
		<line class="st3" x1="217.77" y1="231.98" x2="219.17" y2="223.45"/>
		<line class="st3" x1="225.61" y1="233.27" x2="227.01" y2="224.75"/>
		<line class="st3" x1="233.45" y1="234.56" x2="234.85" y2="226.04"/>
		<line class="st3" x1="241.29" y1="235.85" x2="242.69" y2="227.33"/>
		<line class="st3" x1="249.47" y1="237.2" x2="250.88" y2="228.68"/>
		<line class="st3" x1="257.31" y1="238.49" x2="258.72" y2="229.97"/>
	</g>
	<g>
		<line class="st4" x1="19.13" y1="122.14" x2="24.26" y2="150.35"/>
		<line class="st4" x1="121.61" y1="103.49" x2="126.74" y2="131.7"/>
		<line class="st4" x1="28.41" y1="127.82" x2="32.25" y2="148.9"/>
		<line class="st4" x1="35.55" y1="126.52" x2="39.39" y2="147.6"/>
		<line class="st4" x1="43.03" y1="125.16" x2="46.86" y2="146.24"/>
		<line class="st4" x1="50.17" y1="123.86" x2="54" y2="144.94"/>
		<line class="st4" x1="57.31" y1="122.56" x2="61.14" y2="143.64"/>
		<line class="st4" x1="64.44" y1="121.26" x2="68.28" y2="142.34"/>
		<line class="st4" x1="71.75" y1="119.94" x2="75.59" y2="141.01"/>
		<line class="st4" x1="79.23" y1="118.57" x2="83.07" y2="139.65"/>
		<line class="st4" x1="86.03" y1="117.34" x2="89.86" y2="138.41"/>
		<line class="st4" x1="93.51" y1="115.98" x2="97.34" y2="137.05"/>
		<line class="st4" x1="100.48" y1="114.71" x2="104.31" y2="135.78"/>
		<line class="st4" x1="107.61" y1="113.41" x2="111.45" y2="134.48"/>
		<line class="st4" x1="115.09" y1="112.05" x2="118.93" y2="133.12"/>
		<line class="st4" x1="15.6" y1="122.07" x2="124.72" y2="102.22"/>
		<line class="st4" x1="20.98" y1="105.29" x2="114.11" y2="88.35"/>
		<line class="st4" x1="23.11" y1="95.78" x2="108.77" y2="80.19"/>
		<line class="st4" x1="24.72" y1="104.61" x2="27.5" y2="119.91"/>
		<line class="st4" x1="110.65" y1="88.63" x2="113.44" y2="103.92"/>
		<line class="st4" x1="27.66" y1="94.95" x2="29.27" y2="103.79"/>
		<line class="st4" x1="104.29" y1="80.65" x2="105.9" y2="89.49"/>
		<line class="st4" x1="45.32" y1="34.49" x2="66.39" y2="30.66"/>
		<line class="st4" x1="51.72" y1="48.43" x2="49.06" y2="33.81"/>
		<line class="st4" x1="58.52" y1="47.19" x2="55.86" y2="32.58"/>
		<line class="st4" x1="65.32" y1="45.96" x2="62.66" y2="31.34"/>
		<line class="st4" x1="43.62" y1="50.26" x2="73.53" y2="44.81"/>
		<line class="st4" x1="46.93" y1="58.78" x2="45.26" y2="49.61"/>
		<line class="st4" x1="73.44" y1="53.96" x2="71.77" y2="44.78"/>
		<path class="st4" d="M31.89,93.83c-3.5-19.24,8.56-36.67,27.81-40.18c19.24-3.5,36.67,8.56,40.18,27.81"/>
		<path class="st4" d="M39.15,93.21c-3.45-18.96,5.7-36.5,20.44-39.19S89.06,64.54,92.51,83.5"/>
		<path class="st4" d="M47.77,92.34c-3.45-18.96,1.97-35.83,12.11-37.67c10.14-1.84,21.15,12.03,24.6,30.99"/>
		<path class="st4" d="M56.08,89.78c-3.45-18.96-1.46-33.09,3.98-34.09c5.44-0.99,12.28,11.54,15.73,30.5"/>
		<line class="st4" x1="65.94" y1="87.98" x2="59.75" y2="53.99"/>
		<path class="st4" d="M61.85,30.78c-0.61-3.38-3.85-5.62-7.23-5.01c-3.38,0.61-5.62,3.85-5.01,7.23"/>
		<path class="st6" d="M57.23,25.48c-0.19-1.07-1.48-1.37-1.48-1.37s-0.2-0.06-0.21-0.06c-0.1-0.07,0.2-2.67,0.17-3.98
			c-0.01-0.57,0.24-0.42,0.46-0.48c0.22-0.06,0.16-0.36-0.12-1.21c0,0,0.03-0.31-0.01-0.47c-0.05-0.16-0.29-0.26-0.38-0.25
			c0,0,0.14-0.48,0.1-0.68c-0.12-0.72-0.76-1.06-1.12-1.97c-0.16-0.41-1.01-2.12-1.78-1.56c0,0-0.27-0.23-0.17-0.45
			c0,0,0.21-0.3,0.09-0.73c-0.11-0.43-0.75-0.68-0.75-0.68l-0.08-0.44c0,0,0.42-0.18,0.29-0.23c-0.13-0.05-0.16-0.11-0.16-0.11
			s0.34-0.22,0.23-0.25c-0.11-0.03-0.31,0-0.31,0s-0.3-0.2-0.36,0.05c0,0-0.36-0.06-0.47-0.02c-0.12,0.04,0.02,0.2,0.02,0.2
			s-0.37-0.07-0.38,0c0,0.07,0.45,0.37,0.45,0.37s-0.75,0.17-0.68,0.54c0,0,0.12,0.1,0.37-0.17c0,0-0.57,1.06-0.48,1.11
			c0.1,0.05,0.25-0.05,0.25-0.05s-0.27,0.62-0.1,0.71c0,0-0.09,0.88,0.06,0.93c0.11,0.04,0.21-0.15,0.28-0.25
			c0.21-0.3,0.37-0.16-0.01,0.35c-0.1,0.14-0.41,0.54-0.38,1.27c0.03,0.72-0.06,0.72-0.12,0.85c-0.06,0.14-0.64,0.91-0.26,2.22
			c0.07,0.23,0.29,0.24,0.45,0.16l0.4,0.97l0.26,0.9c0,0-0.29,1.04-0.23,1.09c0.06,0.06,0.36,0.04,0.36,0.04s0.05,0.74,0.13,0.72
			c0.08-0.01,0.41,0.03,0.39-0.06c-0.02-0.08-0.2-1-0.2-1l1.36,3.01l-0.11,0.08c0,0-1.13,0.71-0.93,1.8c0,0,0.68-0.14,2.46-0.46
			C56.33,25.65,57.23,25.48,57.23,25.48"/>
		<line class="st7" x1="34.86" y1="117.87" x2="33.31" y2="109.37"/>
		<line class="st7" x1="42.67" y1="116.45" x2="41.13" y2="107.95"/>
		<line class="st7" x1="50.49" y1="115.02" x2="48.95" y2="106.53"/>
		<line class="st7" x1="58.31" y1="113.6" x2="56.76" y2="105.1"/>
		<line class="st7" x1="66.13" y1="112.18" x2="64.58" y2="103.68"/>
		<line class="st7" x1="73.95" y1="110.76" x2="72.4" y2="102.26"/>
		<line class="st7" x1="81.76" y1="109.33" x2="80.22" y2="100.84"/>
		<line class="st7" x1="89.58" y1="107.91" x2="88.04" y2="99.41"/>
		<line class="st7" x1="97.74" y1="106.43" x2="96.19" y2="97.93"/>
		<line class="st7" x1="105.56" y1="105" x2="104.01" y2="96.51"/>
	</g>
	<g>
		<line class="st8" x1="52.75" y1="335.85" x2="44" y2="363.16"/>
		<line class="st8" x1="151.95" y1="367.62" x2="143.2" y2="394.93"/>
		<line class="st8" x1="58.27" y1="345.24" x2="51.73" y2="365.64"/>
		<line class="st8" x1="65.18" y1="347.45" x2="58.64" y2="367.85"/>
		<line class="st8" x1="72.42" y1="349.77" x2="65.88" y2="370.17"/>
		<line class="st8" x1="79.32" y1="351.98" x2="72.79" y2="372.38"/>
		<line class="st8" x1="86.23" y1="354.2" x2="79.7" y2="374.6"/>
		<line class="st8" x1="93.14" y1="356.41" x2="86.61" y2="376.81"/>
		<line class="st8" x1="100.22" y1="358.67" x2="93.68" y2="379.07"/>
		<line class="st8" x1="107.46" y1="360.99" x2="100.92" y2="381.39"/>
		<line class="st8" x1="114.04" y1="363.1" x2="107.5" y2="383.5"/>
		<line class="st8" x1="121.28" y1="365.42" x2="114.74" y2="385.82"/>
		<line class="st8" x1="128.02" y1="367.58" x2="121.49" y2="387.98"/>
		<line class="st8" x1="134.93" y1="369.79" x2="128.4" y2="390.19"/>
		<line class="st8" x1="142.17" y1="372.11" x2="135.64" y2="392.51"/>
		<line class="st8" x1="49.67" y1="334.14" x2="155.29" y2="367.97"/>
		<line class="st8" x1="62.31" y1="321.86" x2="152.46" y2="350.74"/>
		<line class="st8" x1="68.67" y1="314.47" x2="151.58" y2="341.02"/>
		<line class="st8" x1="65.93" y1="323.02" x2="61.18" y2="337.83"/>
		<line class="st8" x1="149.28" y1="349.35" x2="144.53" y2="364.16"/>
		<line class="st8" x1="73.07" y1="315.88" x2="70.33" y2="324.43"/>
		<line class="st8" x1="147.41" y1="339.32" x2="144.67" y2="347.88"/>
		<line class="st8" x1="117.1" y1="270.85" x2="137.5" y2="277.38"/>
		<line class="st8" x1="116.19" y1="286.15" x2="120.72" y2="272.01"/>
		<line class="st8" x1="122.77" y1="288.26" x2="127.3" y2="274.11"/>
		<line class="st8" x1="129.35" y1="290.37" x2="133.88" y2="276.22"/>
		<line class="st8" x1="108.19" y1="283.95" x2="137.14" y2="293.23"/>
		<line class="st8" x1="107.09" y1="293.04" x2="109.94" y2="284.15"/>
		<line class="st8" x1="132.76" y1="301.25" x2="135.6" y2="292.37"/>
		<path class="st8" d="M77.33,316.88c5.97-18.63,24.81-28.33,43.44-22.37c18.63,5.97,28.33,24.81,22.37,43.44"/>
		<path class="st8" d="M84.02,319.75c5.88-18.35,22.21-29.53,36.47-24.96c14.26,4.57,21.06,23.15,15.19,41.5"/>
		<path class="st8" d="M92.04,323.04c5.88-18.35,18.6-30.68,28.41-27.54c9.81,3.14,13,20.57,7.12,38.92"/>
		<path class="st8" d="M100.58,324.69c5.88-18.35,14.28-29.89,19.55-28.2c5.27,1.69,5.41,15.96-0.47,34.31"/>
		<line class="st8" x1="110.12" y1="327.75" x2="120.66" y2="294.84"/>
		<path class="st8" d="M133.43,275.35c1.05-3.27-0.75-6.77-4.03-7.82c-3.27-1.05-6.77,0.75-7.82,4.03"/>
		<path class="st10" d="M131.85,268.5c0.33-1.04-0.66-1.91-0.66-1.91s-0.15-0.15-0.15-0.15c-0.06-0.1,1.43-2.26,2.02-3.43
			c0.26-0.51,0.41-0.25,0.63-0.2c0.22,0.05,0.31-0.24,0.47-1.12c0,0,0.18-0.26,0.21-0.42c0.04-0.16-0.14-0.37-0.22-0.39
			c0,0,0.35-0.35,0.41-0.55c0.23-0.69-0.17-1.29-0.07-2.27c0.05-0.44,0.11-2.35-0.84-2.21c0,0-0.13-0.33,0.06-0.48
			c0,0,0.32-0.17,0.43-0.6c0.1-0.43-0.34-0.95-0.34-0.95l0.14-0.42c0,0,0.46,0.04,0.36-0.06c-0.09-0.1-0.09-0.17-0.09-0.17
			s0.41-0.03,0.32-0.11c-0.08-0.08-0.28-0.14-0.28-0.14s-0.17-0.32-0.34-0.13c0,0-0.29-0.22-0.41-0.24
			c-0.12-0.02-0.08,0.19-0.08,0.19s-0.3-0.24-0.34-0.18c-0.04,0.06,0.22,0.54,0.22,0.54s-0.74-0.2-0.86,0.16
			c0,0,0.06,0.15,0.41,0.02c0,0-1,0.67-0.94,0.76c0.06,0.09,0.24,0.08,0.24,0.08s-0.53,0.42-0.42,0.58c0,0-0.49,0.74-0.38,0.85
			c0.08,0.08,0.26-0.03,0.37-0.09c0.32-0.16,0.4,0.04-0.17,0.31c-0.16,0.08-0.61,0.29-0.93,0.94c-0.32,0.65-0.39,0.61-0.51,0.7
			c-0.12,0.09-1,0.5-1.27,1.84c-0.05,0.23,0.14,0.35,0.32,0.35l-0.1,1.05l-0.2,0.91c0,0-0.74,0.78-0.71,0.86
			c0.03,0.08,0.3,0.2,0.3,0.2s-0.31,0.67-0.22,0.7c0.08,0.03,0.34,0.22,0.37,0.13c0.03-0.08,0.29-0.98,0.29-0.98l-0.22,3.29
			l-0.14,0.02c0,0-1.33,0.09-1.67,1.15c0,0,0.66,0.2,2.39,0.75C130.98,268.22,131.85,268.5,131.85,268.5"/>
		<line class="st11" x1="68.63" y1="339.49" x2="71.27" y2="331.26"/>
		<line class="st11" x1="76.2" y1="341.91" x2="78.84" y2="333.69"/>
		<line class="st11" x1="83.77" y1="344.34" x2="86.4" y2="336.11"/>
		<line class="st11" x1="91.34" y1="346.76" x2="93.97" y2="338.53"/>
		<line class="st11" x1="98.9" y1="349.18" x2="101.54" y2="340.96"/>
		<line class="st11" x1="106.47" y1="351.61" x2="109.11" y2="343.38"/>
		<line class="st11" x1="114.04" y1="354.03" x2="116.67" y2="345.81"/>
		<line class="st11" x1="121.61" y1="356.45" x2="124.24" y2="348.23"/>
		<line class="st11" x1="129.5" y1="358.98" x2="132.14" y2="350.76"/>
		<line class="st11" x1="137.07" y1="361.41" x2="139.71" y2="353.18"/>
	</g>
	<g>
		<line class="st12" x1="369.94" y1="174.75" x2="375.3" y2="202.92"/>
		<line class="st12" x1="472.26" y1="155.25" x2="477.63" y2="183.42"/>
		<line class="st12" x1="379.27" y1="180.35" x2="383.28" y2="201.4"/>
		<line class="st12" x1="386.4" y1="179" x2="390.41" y2="200.04"/>
		<line class="st12" x1="393.86" y1="177.57" x2="397.87" y2="198.62"/>
		<line class="st12" x1="400.99" y1="176.22" x2="405" y2="197.26"/>
		<line class="st12" x1="408.12" y1="174.86" x2="412.13" y2="195.9"/>
		<line class="st12" x1="415.25" y1="173.5" x2="419.26" y2="194.54"/>
		<line class="st12" x1="422.54" y1="172.11" x2="426.55" y2="193.15"/>
		<line class="st12" x1="430.01" y1="170.69" x2="434.02" y2="191.73"/>
		<line class="st12" x1="436.8" y1="169.39" x2="440.81" y2="190.43"/>
		<line class="st12" x1="444.26" y1="167.97" x2="448.27" y2="189.01"/>
		<line class="st12" x1="451.22" y1="166.64" x2="455.23" y2="187.69"/>
		<line class="st12" x1="458.35" y1="165.29" x2="462.36" y2="186.33"/>
		<line class="st12" x1="465.81" y1="163.86" x2="469.82" y2="184.91"/>
		<line class="st12" x1="366.41" y1="174.71" x2="475.36" y2="153.96"/>
		<line class="st12" x1="371.65" y1="157.89" x2="464.64" y2="140.17"/>
		<line class="st12" x1="373.7" y1="148.35" x2="459.23" y2="132.06"/>
		<line class="st12" x1="375.38" y1="157.18" x2="378.29" y2="172.45"/>
		<line class="st12" x1="461.18" y1="140.48" x2="464.09" y2="155.75"/>
		<line class="st12" x1="378.24" y1="147.49" x2="379.92" y2="156.31"/>
		<line class="st12" x1="454.75" y1="132.56" x2="456.43" y2="141.38"/>
		<line class="st12" x1="395.4" y1="86.89" x2="416.44" y2="82.88"/>
		<line class="st12" x1="401.92" y1="100.77" x2="399.14" y2="86.18"/>
		<line class="st12" x1="408.7" y1="99.48" x2="405.92" y2="84.89"/>
		<line class="st12" x1="415.49" y1="98.19" x2="412.71" y2="83.59"/>
		<line class="st12" x1="393.84" y1="102.66" x2="423.7" y2="96.97"/>
		<line class="st12" x1="397.21" y1="111.17" x2="395.47" y2="102"/>
		<line class="st12" x1="423.69" y1="106.12" x2="421.94" y2="96.96"/>
		<path class="st12" d="M382.46,146.33c-3.66-19.21,8.26-36.74,27.47-40.41c19.21-3.66,36.74,8.26,40.41,27.47"/>
		<path class="st12" d="M389.72,145.65c-3.61-18.93,5.4-36.55,20.11-39.35s29.57,10.27,33.17,29.2"/>
		<path class="st12" d="M398.33,144.72c-3.61-18.93,1.67-35.84,11.8-37.77c10.12-1.93,21.25,11.85,24.86,30.79"/>
		<path class="st12" d="M406.62,142.08c-3.61-18.93-1.74-33.08,3.7-34.12c5.44-1.04,12.38,11.44,15.99,30.37"/>
		<line class="st12" x1="416.46" y1="140.21" x2="410" y2="106.27"/>
		<path class="st12" d="M411.9,83.04c-0.64-3.37-3.9-5.59-7.27-4.94c-3.37,0.64-5.59,3.9-4.94,7.27"/>
		<path class="st14" d="M407.23,77.78c-0.2-1.07-1.49-1.36-1.49-1.36s-0.2-0.06-0.21-0.06c-0.1-0.06,0.17-2.67,0.14-3.98
			c-0.02-0.57,0.24-0.42,0.46-0.48c0.22-0.06,0.16-0.36-0.13-1.21c0,0,0.03-0.31-0.02-0.47c-0.05-0.16-0.3-0.26-0.38-0.24
			c0,0,0.13-0.48,0.1-0.68c-0.12-0.72-0.77-1.05-1.14-1.96c-0.17-0.41-1.03-2.11-1.79-1.54c0,0-0.27-0.23-0.17-0.45
			c0,0,0.21-0.3,0.09-0.73c-0.12-0.43-0.75-0.67-0.75-0.67l-0.08-0.44c0,0,0.42-0.19,0.29-0.23c-0.13-0.05-0.16-0.11-0.16-0.11
			s0.34-0.22,0.23-0.25c-0.11-0.03-0.31,0.01-0.31,0.01s-0.3-0.2-0.36,0.05c0,0-0.36-0.06-0.47-0.01c-0.12,0.04,0.02,0.2,0.02,0.2
			s-0.37-0.07-0.38,0c0,0.07,0.45,0.37,0.45,0.37s-0.75,0.18-0.68,0.55c0,0,0.12,0.1,0.37-0.18c0,0-0.56,1.07-0.47,1.12
			c0.1,0.05,0.25-0.05,0.25-0.05s-0.27,0.62-0.09,0.71c0,0-0.08,0.88,0.07,0.93c0.11,0.03,0.21-0.15,0.28-0.25
			c0.2-0.3,0.37-0.16,0,0.35c-0.1,0.14-0.4,0.55-0.37,1.27c0.03,0.72-0.05,0.72-0.11,0.86c-0.06,0.14-0.64,0.92-0.24,2.23
			c0.07,0.23,0.29,0.24,0.45,0.16l0.41,0.97l0.26,0.9c0,0-0.28,1.04-0.22,1.1c0.06,0.06,0.36,0.04,0.36,0.04s0.05,0.74,0.14,0.72
			c0.08-0.02,0.41,0.03,0.39-0.06c-0.02-0.08-0.21-1-0.21-1l1.38,3l-0.11,0.09c0,0-1.13,0.71-0.92,1.81c0,0,0.68-0.14,2.46-0.48
			C406.34,77.95,407.23,77.78,407.23,77.78"/>
		<line class="st15" x1="385.63" y1="170.35" x2="384.01" y2="161.86"/>
		<line class="st15" x1="393.44" y1="168.86" x2="391.82" y2="160.38"/>
		<line class="st15" x1="401.24" y1="167.37" x2="399.62" y2="158.89"/>
		<line class="st15" x1="409.05" y1="165.89" x2="407.43" y2="157.4"/>
		<line class="st15" x1="416.85" y1="164.4" x2="415.24" y2="155.92"/>
		<line class="st15" x1="424.66" y1="162.91" x2="423.04" y2="154.43"/>
		<line class="st15" x1="432.47" y1="161.43" x2="430.85" y2="152.94"/>
		<line class="st15" x1="440.27" y1="159.94" x2="438.65" y2="151.45"/>
		<line class="st15" x1="448.42" y1="158.39" x2="446.8" y2="149.9"/>
		<line class="st15" x1="456.22" y1="156.9" x2="454.61" y2="148.41"/>
	</g>
	<g>
		<path d="M5.11,223.17l2.22-3.1c0.49-0.7,1.39-0.62,1.83-0.2c0.25,0.18,4.24,3.71,7.68,4.04c2.75,0.26,4.99-1.34,5.2-3.62
			c0.26-2.7-1.84-4.77-6.12-6.99c-4.79-2.48-9.46-6.13-8.87-12.38c0.45-4.71,4.46-9.83,12.87-9.04c5.4,0.51,9.27,3.66,10.25,4.55
			c0.5,0.37,0.57,1.28,0.15,1.78l-2.3,2.83c-0.48,0.6-1.32,0.94-1.91,0.46c-0.4-0.3-4.17-3.33-7.08-3.61
			c-3.02-0.29-4.85,1.57-5.01,3.27c-0.24,2.49,1.56,4.37,5.69,6.52c4.94,2.55,10.58,6.18,9.93,13.01
			c-0.52,5.45-5.7,10.04-13.17,9.33c-6.67-0.63-10.29-4.12-11.26-5.23C4.8,224.26,4.56,223.97,5.11,223.17z"/>
		<path d="M44.79,210.25c5.45,0.52,9.51,5.07,8.97,10.78c-0.04,0.37-0.15,1.05-0.24,1.42c-0.1,0.52-0.62,0.85-1.09,0.8l-13.55-1.28
			c-0.05,2.19,1.58,4.8,4.65,5.09c1.64,0.16,3.24-0.34,4.25-0.93c0.56-0.27,1.05-0.33,1.38,0.13l1.93,2.69
			c0.34,0.41,0.39,1-0.18,1.37c-1.9,1.48-4.72,2.49-8.16,2.17c-6.35-0.6-10.38-6.06-9.8-12.14
			C33.51,214.37,38.49,209.66,44.79,210.25z M47.7,219.08c0.03-1.97-1.51-3.78-3.52-3.97c-2.12-0.2-4.01,1.22-4.47,3.21L47.7,219.08
			z"/>
		<path d="M58.99,213.15c0.06-0.58,0.57-0.96,1.1-0.91l2.01,0.19c0.48,0.05,0.72,0.33,0.84,0.72l0.56,2.03
			c0.87-0.77,3.68-2.8,7.76-2.42c6.72,0.64,8.95,5.92,8.43,11.43l-0.96,10.16c-0.05,0.53-0.57,0.96-1.1,0.91l-4.34-0.41
			c-0.58-0.05-0.96-0.57-0.91-1.1l0.99-10.48c0.26-2.75-1-4.64-3.55-4.88c-2.75-0.26-4.63,1.48-5.29,2.86l-1.1,11.65
			c-0.07,0.74-0.41,0.98-1.42,0.88l-3.92-0.37c-0.53-0.05-0.96-0.57-0.91-1.1L58.99,213.15z"/>
		<path d="M92.76,223.18c2.12,0.2,3.81,0.95,3.81,0.95c0.31-2.7-0.45-3.73-2.41-3.91c-1.96-0.18-4.75-0.02-6,0.23
			c-0.76,0.14-1.09-0.37-1.13-1.07l-0.22-2.8c-0.08-0.81,0.37-1.14,0.87-1.25c0.44-0.12,3.91-0.65,7.3-0.33
			c6.62,0.63,7.83,4.21,7.28,9.98l-1.09,11.49c-0.05,0.53-0.57,0.96-1.1,0.91l-1.91-0.18c-0.37-0.04-0.62-0.22-0.83-0.83l-0.5-1.49
			c-1.32,1-3.43,2.4-6.71,2.09c-4.24-0.4-6.89-3.43-6.46-7.93C84.02,225.29,87.36,222.67,92.76,223.18z M91.98,232.61
			c1.69,0.16,3.47-1.11,3.85-1.72l0.28-2.91c0,0-1.37-0.77-2.91-0.92c-2.06-0.19-3.55,0.84-3.71,2.53
			C89.34,231.19,90.34,232.46,91.98,232.61z"/>
		<path d="M109.76,222.54l-1.8-0.17c-0.53-0.05-0.91-0.57-0.86-1.1l0.34-3.55c0.06-0.58,0.52-0.97,1.05-0.92l1.8,0.17l0.56-5.88
			c0.05-0.53,0.57-0.96,1.1-0.91l4.35,0.36c0.53,0.05,0.91,0.57,0.86,1.1l-0.56,5.93l4.66,0.44c0.58,0.05,0.97,0.52,0.91,1.1
			l-0.34,3.55c-0.05,0.53-0.52,0.97-1.1,0.91l-4.66-0.44l-0.8,8.47c-0.14,1.48,0.63,1.77,1.48,1.85c0.9,0.08,2.05-0.18,2.65-0.34
			c0.6-0.16,1,0.15,1.11,0.69l0.74,3.44c0.16,0.55-0.15,1.05-0.7,1.22c-0.28,0.13-3.84,1.03-6.43,0.78
			c-4.08-0.39-5.64-3.1-5.23-7.39L109.76,222.54z"/>
		<path d="M136.69,218.95c5.45,0.52,9.51,5.07,8.97,10.78c-0.04,0.37-0.15,1.05-0.24,1.42c-0.1,0.52-0.61,0.85-1.09,0.8l-13.55-1.28
			c-0.05,2.19,1.58,4.8,4.65,5.09c1.64,0.16,3.24-0.33,4.25-0.93c0.56-0.27,1.05-0.33,1.38,0.13l1.94,2.69
			c0.34,0.41,0.39,1-0.18,1.37c-1.9,1.48-4.72,2.49-8.16,2.17c-6.35-0.6-10.38-6.06-9.8-12.14
			C125.41,223.06,130.4,218.35,136.69,218.95z M139.6,227.77c0.03-1.97-1.51-3.78-3.52-3.97c-2.12-0.2-4.02,1.22-4.47,3.21
			L139.6,227.77z"/>
	</g>
	<g>
		<path d="M118.05,60.78c4-3.92,11.69-12.02,15.79-16.42c1.88-1.87,3.17-3.85,3.37-5.67c0.25-2.42-1.31-5.08-5.18-5.49
			c-2.58-0.27-4.97,1.32-6.35,2.54c-0.48,0.38-1.07,0.32-1.45-0.15l-2.31-2.85c-0.29-0.36-0.33-1.01,0.09-1.4
			c0,0,4.74-4.82,11.13-4.15c7.68,0.81,11.46,6.15,10.85,11.95c-0.37,3.49-2.1,5.53-4.51,8.32c-2.65,3.03-7.27,7.65-10.49,10.95
			l11.6,1.22c0.54,0.06,0.97,0.59,0.91,1.13l-0.39,3.71c-0.06,0.54-0.59,0.97-1.13,0.91l-21.16-2.23c-0.59-0.06-0.97-0.59-0.91-1.13
			L118.05,60.78z"/>
		<path d="M149.17,47.88c1.24-11.76,6.92-18.28,15.51-17.37c8.59,0.9,12.79,8.46,11.55,20.22c-1.24,11.76-6.92,18.28-15.51,17.37
			C152.13,67.19,147.93,59.64,149.17,47.88z M169.2,49.99c0.84-7.95-1.05-12.71-5.19-13.14c-4.13-0.44-6.97,3.83-7.81,11.78
			c-0.84,8,1.05,12.71,5.19,13.14C165.52,62.2,168.35,57.99,169.2,49.99z"/>
		<path d="M179.22,67.22c4-3.92,11.69-12.02,15.79-16.42c1.88-1.87,3.17-3.85,3.37-5.67c0.25-2.42-1.31-5.08-5.18-5.49
			c-2.58-0.27-4.97,1.32-6.35,2.54c-0.48,0.38-1.07,0.32-1.45-0.15l-2.31-2.85c-0.29-0.36-0.33-1.01,0.09-1.4
			c0,0,4.74-4.82,11.13-4.15c7.68,0.81,11.46,6.15,10.85,11.95c-0.37,3.49-2.1,5.53-4.51,8.32c-2.65,3.03-7.27,7.65-10.49,10.95
			l11.6,1.22c0.54,0.06,0.97,0.59,0.91,1.13l-0.39,3.71c-0.06,0.54-0.59,0.97-1.13,0.91L180,69.59c-0.59-0.06-0.97-0.59-0.91-1.13
			L179.22,67.22z"/>
		<path d="M210.33,54.32c1.24-11.76,6.92-18.28,15.51-17.37c8.59,0.9,12.79,8.46,11.55,20.22c-1.24,11.76-6.92,18.28-15.51,17.37
			C213.29,73.64,209.09,66.08,210.33,54.32z M230.36,56.43c0.84-7.95-1.05-12.71-5.19-13.14s-6.97,3.83-7.81,11.78
			c-0.84,8,1.05,12.71,5.19,13.14S229.52,64.43,230.36,56.43z"/>
	</g>
	<g>
		<path d="M166.43,287.98c-0.11-0.52,0.21-1.08,0.78-1.2l21.17-4.51c0.57-0.12,1.09,0.26,1.2,0.78l0.91,4.27
			c0.11,0.52-0.21,1.08-0.78,1.2l-15.39,3.28l2.09,9.78l12.85-2.74c0.52-0.11,1.09,0.26,1.2,0.78l0.91,4.26
			c0.11,0.52-0.26,1.09-0.78,1.2l-12.85,2.74l2.81,13.16c0.11,0.52-0.26,1.09-0.78,1.2l-4.79,1.02c-0.57,0.12-1.09-0.26-1.2-0.78
			L166.43,287.98z"/>
		<path d="M204.39,294.62c5.88-1.25,11.73,2.72,12.98,8.6c1.28,5.98-2.44,11.99-8.32,13.25s-11.73-2.72-13-8.7
			C194.79,301.88,198.51,295.87,204.39,294.62z M207.85,310.84c2.76-0.59,4.48-3.46,3.85-6.42c-0.62-2.91-3.36-4.78-6.11-4.19
			c-2.81,0.6-4.49,3.41-3.87,6.32C202.35,309.52,205.04,311.44,207.85,310.84z"/>
		<path d="M220,292.86c-0.12-0.57,0.26-1.09,0.78-1.2l1.98-0.42c0.47-0.1,0.84,0.09,1.08,0.48l1.16,1.87
			c0.5-1.2,1.96-3.79,5.19-4.48c2.44-0.52,4.79-0.21,4.45,1.23l-1.2,3.79c-0.16,0.52-0.64,0.84-1.1,0.72
			c-0.17-0.02-1-0.11-1.57,0.01c-2.08,0.44-3.03,2.11-3.24,2.92l2.68,12.58c0.16,0.73-0.26,1.09-0.98,1.24l-4,0.85
			c-0.52,0.11-1.09-0.26-1.2-0.78L220,292.86z"/>
		<path d="M246.3,285.68c5.36-1.14,10.59,1.98,11.79,7.6c0.08,0.36,0.17,1.05,0.2,1.43c0.06,0.53-0.33,0.99-0.8,1.09l-13.31,2.84
			c0.61,2.1,2.94,4.1,5.96,3.46c1.61-0.34,2.99-1.29,3.78-2.17c0.45-0.42,0.9-0.63,1.35-0.29l2.65,1.99
			c0.44,0.29,0.67,0.84,0.24,1.36c-1.37,1.98-3.76,3.79-7.14,4.51c-6.24,1.33-11.71-2.67-12.99-8.65
			C236.77,292.98,240.12,287,246.3,285.68z M251.72,293.22c-0.57-1.89-2.58-3.15-4.55-2.73c-2.08,0.44-3.46,2.37-3.3,4.4
			L251.72,293.22z"/>
		<path d="M269.86,280.65c3.22-0.69,6,0.08,8.48,2.05c0.46,0.39,0.49,1.04,0.05,1.51l-1.9,2.8c-0.38,0.52-0.9,0.36-1.33,0.12
			c-1.03-0.76-2.49-1.21-3.94-0.9c-2.81,0.6-4.58,3.48-3.96,6.39c0.63,2.96,3.37,4.83,6.17,4.23c2.24-0.48,2.99-1.78,3.74-2.86
			c0.29-0.44,0.78-0.66,1.27-0.43l2.65,1.45c0.61,0.3,0.93,0.78,0.67,1.38c-1.18,3.13-3.59,5.33-7.29,6.12
			c-5.88,1.25-12.02-2.33-13.35-8.57C259.81,287.8,264.04,281.89,269.86,280.65z"/>
		<path d="M291.11,284.66c2.08-0.44,3.92-0.24,3.92-0.24c-0.51-2.66-1.55-3.42-3.47-3.01c-1.92,0.41-4.54,1.4-5.66,2.02
			c-0.68,0.36-1.15-0.03-1.4-0.68l-1.04-2.61c-0.32-0.75,0.02-1.2,0.45-1.46c0.38-0.25,3.53-1.79,6.86-2.5
			c6.5-1.39,8.73,1.67,9.94,7.34l2.41,11.29c0.11,0.52-0.26,1.09-0.78,1.2l-1.87,0.4c-0.37,0.08-0.66-0.02-1.04-0.54l-0.92-1.27
			c-0.96,1.35-2.55,3.32-5.78,4.01c-4.16,0.89-7.6-1.21-8.54-5.63C283.4,289.29,285.8,285.79,291.11,284.66z M293.19,293.89
			c1.67-0.35,2.98-2.1,3.16-2.79l-0.61-2.86c0,0-1.54-0.32-3.04,0c-2.03,0.43-3.14,1.86-2.78,3.53
			C290.24,293.33,291.57,294.24,293.19,293.89z"/>
		<path d="M307.63,292.28l0.81-3.11c0.1-0.56,0.59-0.78,1.12-0.62c0,0,2.61,0.75,5,0.24c1.04-0.22,1.68-0.79,1.49-1.68
			c-0.2-0.94-1.05-1.35-4.04-1.86c-4.34-0.71-6.66-2.44-7.34-5.61c-0.68-3.17,1.03-6.64,6.34-7.77c3.07-0.65,5.49-0.25,6.74,0.25
			c0.53,0.21,0.92,0.73,0.77,1.3l-0.73,2.93c-0.16,0.52-0.72,0.7-1.17,0.63c0,0-2.57-0.59-4.55-0.17c-1.25,0.27-1.66,0.9-1.51,1.57
			c0.2,0.94,1.2,1.05,3.29,1.42c4.34,0.71,7.72,1.78,8.58,5.84c0.73,3.43-1.66,6.99-6.92,8.11c-3.43,0.73-6.06,0.15-7.33-0.45
			C307.81,293.11,307.51,292.74,307.63,292.28z"/>
		<path d="M326.06,274.92l-1.77,0.38c-0.52,0.11-1.04-0.27-1.15-0.79l-0.74-3.49c-0.12-0.57,0.21-1.08,0.72-1.19l1.77-0.38
			l-1.23-5.77c-0.11-0.52,0.26-1.09,0.78-1.2l4.25-0.96c0.52-0.11,1.04,0.27,1.15,0.79l1.24,5.82l4.58-0.98
			c0.57-0.12,1.08,0.2,1.2,0.78l0.74,3.49c0.11,0.52-0.21,1.08-0.78,1.2l-4.58,0.98l1.77,8.32c0.31,1.46,1.13,1.5,1.97,1.32
			c0.88-0.19,1.9-0.79,2.43-1.12c0.53-0.33,1-0.16,1.27,0.33l1.74,3.05c0.32,0.48,0.17,1.05-0.31,1.37
			c-0.23,0.21-3.35,2.13-5.9,2.67c-4,0.85-6.3-1.27-7.2-5.48L326.06,274.92z"/>
	</g>
	<path id="CO_1_" class="st16" d="M436.7,214.61l-25.06,1.74l-55.18,3.2l1.03,15.39l1,35.33l0.27,9.6l23.74-1.24l26.2-1.3
		l24.12-1.93l9.87-1.23L436.7,214.61z	">
<title>Colorado</title>
	</path>
	<g>
		<path class="st17" d="M388.94,239.92c1.79-0.3,3.19,0.05,4.57,0.93c0.18,0.12,0.22,0.33,0.1,0.49l-0.89,1.3
			c-0.1,0.16-0.28,0.19-0.44,0.07c-0.86-0.53-1.92-0.76-2.91-0.59c-2.27,0.38-3.64,2.56-3.27,4.8c0.37,2.22,2.39,3.82,4.67,3.43
			c1.07-0.18,1.9-0.74,2.55-1.47c0.12-0.15,0.32-0.16,0.44-0.07l1.29,0.95c0.16,0.1,0.17,0.34,0.06,0.48
			c-1.01,1.37-2.45,2.18-4.03,2.45c-3.55,0.6-6.88-1.75-7.48-5.3C383.01,243.86,385.39,240.52,388.94,239.92z"/>
		<path class="st17" d="M401.01,237.89c3.55-0.6,6.87,1.79,7.47,5.34s-1.77,6.85-5.32,7.45c-3.55,0.6-6.85-1.75-7.44-5.3
			S397.46,238.49,401.01,237.89z M402.77,248.37c2.24-0.38,3.78-2.51,3.4-4.75c-0.38-2.24-2.54-3.79-4.77-3.42
			c-2.24,0.38-3.75,2.55-3.38,4.78C398.39,247.22,400.53,248.75,402.77,248.37z"/>
	</g>
	<path id="ME_1_" class="st18" d="M167.91,133.39l1.31,0.35v-2.27l0.7-4.8l2.27-4.1l1.31-3.49l-1.66-2.1v-5.24l0.7-0.87l0.7-2.36
		l-0.17-1.31l-0.17-4.19l1.57-4.19l2.53-7.77l1.83-3.67h1.14l1.14,0.17v0.96l1.14,2.01l2.36,0.52l0.7-0.7v-0.87l3.49-2.53l1.57-1.57
		l1.31,0.17l5.24,2.1l1.66,0.87l7.95,26.11h5.24l0.7,1.66l0.17,4.19l2.53,2.01h0.7l0.17-0.44l-0.44-0.96l2.45-0.44l1.66,1.83
		l2.01,3.23v1.66l-1.83,4.1l-1.66,0.52l-2.97,2.71l-4.19,4.8h-1.14c-0.52,0-0.87-1.83-0.87-1.83l-1.57,0.17l-0.87,1.31l-2.1,1.31
		l-0.87,1.31l1.4,1.31l-0.44,0.52l-0.44,2.36l-1.66-0.17v-1.4l-0.26-1.14l-1.31,0.26l-1.57-2.79l-1.83,1.14l1.14,1.31l0.26,0.96
		l-0.7,1.14l0.26,2.71l0.17,1.4l-1.4,2.27l-2.53,0.44l-0.26,2.53l-4.63,2.71l-1.14,0.44l-1.4-1.31l-2.71,3.14l0.87,2.79l-1.31,1.14
		l-0.17,3.84l-0.96,5.5l-1.92-0.79l-0.44-2.71l-3.49-0.96l-0.17-2.18l-10.22-32.66L167.91,133.39z M199.79,147.02l1.31-1.31
		l1.22,0.96l0.52,2.1l-1.48,0.79L199.79,147.02z M205.64,141.86l1.57,1.66c0,0,1.14,0.09,1.14-0.17c0-0.26,0.17-1.75,0.17-1.75
		l0.79-0.7l-0.7-1.57l-1.75,0.61L205.64,141.86z	">
<title>Maine</title>
	</path>
	<g>
		<path class="st17" d="M181.61,121.27c-0.01-0.15,0.08-0.29,0.27-0.32l0.28-0.05c0.14-0.02,0.26,0.03,0.33,0.13l5.31,7.73
			c0.04-0.01,0.04-0.01,0.05-0.01l2.5-9.04c0.04-0.12,0.11-0.2,0.27-0.23l0.28-0.05c0.2-0.03,0.32,0.07,0.37,0.21l4.1,11.58
			c0.09,0.24-0.02,0.42-0.25,0.46l-1.62,0.27c-0.16,0.03-0.32-0.09-0.38-0.21l-2.18-6.55c-0.02,0-0.05,0.01-0.05,0.01l-1.94,7.5
			c-0.02,0.11-0.11,0.22-0.27,0.24l-0.32,0.05c-0.16,0.03-0.26-0.05-0.33-0.14l-4.31-6.45c0,0-0.04,0.01-0.05,0.01l0.1,6.9
			c0,0.13-0.12,0.29-0.27,0.32l-1.6,0.27c-0.23,0.04-0.4-0.1-0.41-0.35L181.61,121.27z"/>
		<path class="st17" d="M195.86,119.14c-0.03-0.18,0.09-0.36,0.28-0.39l7.23-1.21c0.2-0.03,0.36,0.1,0.39,0.28l0.24,1.46
			c0.03,0.18-0.08,0.36-0.28,0.39l-5.25,0.88l0.49,2.91l4.39-0.74c0.18-0.03,0.36,0.1,0.39,0.28l0.25,1.47
			c0.03,0.2-0.1,0.36-0.28,0.39l-4.39,0.74l0.52,3.11l5.25-0.88c0.2-0.03,0.36,0.1,0.39,0.28l0.24,1.46
			c0.03,0.18-0.08,0.36-0.28,0.39l-7.23,1.21c-0.2,0.03-0.36-0.1-0.39-0.28L195.86,119.14z"/>
	</g>
	<path id="AZ_1_" class="st19" d="M7.14,300.59l-0.15,0.75l0.25,0.5l9.45,5.35l6.05,3.8l7.35,4.3l8.4,5l6.15,1.2l12.7,1.35l3-19.8
		l3.5-26.55l2.2-15.5l-12.3-1.8l-30.35-5.5l-0.1,0.55l-1.3,8.25l-1.05,1.9l-1.4-0.1l-0.6-1.3l-1.3-0.2l-0.6-0.55l-0.55,0.05
		l-1.05,0.85l-0.15,3.4l-0.15,0.75l-0.25,6.25l-0.75,1.2l-0.2,1.65l1.4,2.5l0.55,2.75l0.35,0.55l0.55,0.45l-0.2,1.2l-0.85,0.6
		l-1.7,0.8l-0.8,0.9l-0.8,1.8l-0.25,2.45l-1.5,1.45l-0.95,0.45l-0.05,2.9l-0.3,0.8l0.25,0.4l1.95,0.2l-0.45,1.5l-0.85,1.2l-1.85,0.2
		L7.14,300.59z	">
<title>Arizona</title>
	</path>
	<g>
		<path class="st17" d="M28.2,294.07l3.52-12.88c0.03-0.12,0.11-0.22,0.27-0.25l0.18-0.03c0.18-0.03,0.26,0.05,0.33,0.15l7.47,11.03
			c0.15,0.21,0.04,0.47-0.22,0.51l-1.54,0.26c-0.27,0.04-0.41-0.04-0.58-0.27l-1.19-1.77l-5.31,0.89l-0.55,2.06
			c-0.04,0.19-0.17,0.39-0.46,0.44l-1.54,0.26C28.32,294.53,28.14,294.32,28.2,294.07z M35.24,289l-2.43-3.61l-0.05,0.01l-1.08,4.2
			L35.24,289z"/>
		<path class="st17" d="M40.38,291.83l3.69-10.44l-0.01-0.07l-4.44,0.75c-0.18,0.03-0.36-0.1-0.39-0.28l-0.25-1.47
			c-0.03-0.18,0.1-0.36,0.28-0.39l7.42-1.25c0.18-0.03,0.36,0.1,0.39,0.28l0.04,0.23l-3.6,10.55l0.01,0.04l4.53-0.76
			c0.2-0.03,0.36,0.1,0.39,0.28l0.25,1.47c0.03,0.18-0.08,0.36-0.28,0.39l-7.58,1.27c-0.18,0.03-0.36-0.1-0.39-0.28L40.38,291.83z"
			/>
	</g>
	<path id="IA_1_" class="st20" d="M317.47,308.62l1.94,1.12l0.35,0.45l-0.9,2.53l0.98,2.82l2.69,2.46l2.58,0.57l1.82-0.23l1,1.13
		l0.6,1.69l2.03,0.25l0.87,0.62l0.67,1.06l3.42,1.67l0.8,1.25l0.06,2.29l-0.55,2.98l0.02,1.84l-1.24,1.54l-1.08,0.66l-3.9,2.14
		l-0.26,3.75l0.93,1.15l1.53,0.76l0.52,2.55l-1.13,1.36l-0.17,1.42l0.46,1.73l-0.95,0.55l-0.98,1.32l-0.04,1.31l0.62,1.15
		l-0.76,0.96l-2.2-1.51l-1.56-1.75l-5.94,2.12l-7.23,2.29l-35.9,10.01l-1.99-2.79l-1.57-4.74l-1.83-2.76l-1.5-3.61l-2.32-2.25
		l-1.61-3.12l-3.46-5.1l-1.87-3.82l-1.39-1.11l-1.51-1.84l0.53-3.05l-0.28-4.61l-2.4-1.08l-0.68-1.67l0.06-1.86l1.26-0.55
		l44.75-11.79l15.43-4.45L317.47,308.62z	">
<title>Iowa</title>
	</path>
	<g>
		<path class="st17" d="M284.68,332.37c-0.04-0.18,0.09-0.37,0.27-0.41l1.69-0.35c0.18-0.04,0.38,0.09,0.41,0.27l2.43,11.75
			c0.04,0.18-0.09,0.37-0.27,0.41l-1.69,0.35c-0.18,0.04-0.38-0.09-0.41-0.27L284.68,332.37z"/>
		<path class="st17" d="M291.11,343.16l3.17-13.12c0.03-0.12,0.11-0.23,0.27-0.26l0.18-0.04c0.18-0.04,0.27,0.04,0.35,0.13
			l8.06,10.78c0.16,0.21,0.06,0.47-0.21,0.53l-1.58,0.33c-0.27,0.06-0.42-0.02-0.6-0.24l-1.29-1.73l-5.42,1.13l-0.49,2.1
			c-0.04,0.19-0.16,0.4-0.45,0.46l-1.58,0.33C291.24,343.61,291.05,343.41,291.11,343.16z M298.16,337.74l-2.62-3.53l-0.05,0.01
			l-0.97,4.28L298.16,337.74z"/>
	</g>
	<path id="TX_1_" class="st21" d="M280.07,48.98l15.74-0.26l12.42-0.61l-1.57-41.45l23-1.6l0.4,9.88l0.44,7.62l0.18,0.83l2.05,1.51
		l0.89,0.37l0.76-0.09l0.15-0.53l0.34,0.35l1.02-0.03l0.43-0.31l-0.01-0.08l0.44,0.16l0.01,1.58l1.93,0.08l1.05,0.26l1.8,0.09
		l1.18,0.63l1.09-0.93l1.16,0.12l1.07,1.2l0.34,0l0.1,0.88l1.44,0.3l0.95-1l0.65,0.14l0.89-0.06l0.35,0.85l2.28,0.59l0.94-0.32
		l0.61-1.77l0.04,0l0.55,0.75l1.98,0.16l1.49,0.38l1.39,0.27l0.95-0.62l0.18-1l1.51-0.17l0.93,0.32l1.17-0.99l0.17-0.02l0.28,0.56
		l1.98-0.23l0.71-0.85l0.57,0.11l0.82,0.8l1.48,0.64l1.48,0.26l1.12,0.47l1.23,0.71l1.25-0.65l0.92,0.24l1.25,8.38l0.75,3.96
		l0.45,1.7l1.3,1.73l0.59,1.85l2.05,2.28l0.27,1.29l0.29,0.31l0.07,3.27l-0.99,2.16l0.67,1.03l-0.1,1.03l0.01,3.07l-0.4,1.32
		l0.33,1.75l-2.28,0.94l-3.95,2.37l-0.33,0.85l-1,0.92l-0.81,0.73l-0.51,0.4l-2.14,2.5l-1.04,1.01l-2.08,1.6l-2.28,1.28l-2.49,1.73
		l-0.69,0.72l-2.27,1.79l-1.4,0.42l-1.38,2.5l-1.67,0.32l-0.33,0.85l1.06,0.69l-0.37,2.39l-0.33,1.96l-0.28,1.69l-0.12,1.93
		l0.45,0.97l1.09,2.86l0.71,2.52l0.89,1.05l-0.35,0.68l-1.21,0.95l-2.58-1.37l-2.37-0.2l-0.52,0.27l-1.37-0.1l-1.92-1.1l-2.24-0.21
		l-3.36-1.07l-1.07-1.54L342,94.3l-1.44-0.65l-0.36-0.94l0.22-0.28l-0.04-1.44l-0.58-0.19l-0.3-0.39l0.34-1.91l-0.78-0.89
		l-1.41-0.39l-1.64-1.69l-1.83-2.6l-1.89-0.89l-0.01-0.81l-2.82-4.92l-0.54-1.73l-0.85-0.71l-0.16-0.62l-2.78-1.94l-1.24-1.18
		l-0.05-0.46l-1.19-0.76l-2.91-0.14l-3.14,0.1l-1.41-0.82l-1.81,0.97l-1.44,0.8l-0.81,1.46l-0.24,1.6l-1.56,2.78l-0.89,1.12
		l-1.14-0.3l-0.81-0.38l-0.83-0.16l-1.75-0.78l-0.03-0.25l-0.85-0.71l-2.29-0.63l-3.49-2.93l-1.19-1.87l-0.39-3.41L294,62.78
		l-0.34-1.11l-0.72-0.34l-0.56-0.83l-2.2-0.64l-0.62-0.61l-3.37-2.98l-0.7-1.28l-2.09-0.74l-0.84-1.78l-1.23-1.1l-0.74-0.13
		L280.07,48.98z M360.23,100.23l-0.59-2.96l-1.48-2.9l-0.59-2.92l0.24-3.52l1.06-3.06l1.21-2.44l1.17-1.67l0.26,0.06l-1.7,3.01
		l-1.54,2.95l-0.52,2.87l0.12,2.2l0.67,2.52l1.44,2.9l0.46,2.16l0.16,0.62L360.23,100.23z	">
<title>Texas</title>
	</path>
	<g>
		<path class="st17" d="M333.6,51.99l-2.72,0.46c-0.2,0.03-0.37-0.1-0.39-0.28l-0.25-1.46c-0.03-0.18,0.09-0.36,0.28-0.39l7.76-1.3
			c0.2-0.03,0.36,0.1,0.39,0.28l0.24,1.46c0.03,0.18-0.08,0.36-0.28,0.39l-2.72,0.46l1.67,9.96c0.03,0.18-0.1,0.36-0.28,0.39
			l-1.65,0.28c-0.18,0.03-0.36-0.1-0.39-0.28L333.6,51.99z"/>
		<path class="st17" d="M344.09,54.26l-4.48-4.96c-0.18-0.21-0.08-0.5,0.22-0.55l2.06-0.35c0.14-0.02,0.25,0.05,0.31,0.11l2.9,3.38
			l0.02,0l1.68-4.15c0.02-0.08,0.12-0.18,0.26-0.21l2.06-0.35c0.3-0.05,0.49,0.19,0.38,0.45l-2.64,6.16l4.68,5.26
			c0.18,0.22,0.08,0.5-0.22,0.55l-1.92,0.32c-0.14,0.02-0.28-0.04-0.33-0.11l-3.22-3.64l-0.05,0.01l-1.82,4.49
			c-0.04,0.08-0.13,0.19-0.28,0.21l-1.92,0.32c-0.32,0.05-0.51-0.19-0.4-0.44L344.09,54.26z"/>
	</g>
	<path id="AL_1_" class="st22" d="M402.45,364.37l0.4,0.13l0.86-1.79l0.99-2.91l1.52,0.4l2.05,3.97v0.66l-1.79,1.26l1.79,0.2
		l3.44-1.65l-0.2-5.03l-1.65-1.19l-1.32-1.32l0.26-2.65l6.95-0.99l17-1.92l4.43-0.4l3.71,0.07l-0.33-1.46l-0.99-0.53l-0.6-0.73
		l0.66-1.72l-0.26-3.44l-1.06-2.98l0.53-3.37l1.12-3.18l-0.13-1.12l-1.19-0.46l-0.33-2.38l-1.79-2.25l-1.32-4.3l-0.93-4.43
		l-1.19-3.31l-2.51-10.59l-2.32-5.23l-0.53-3.71l0.07-1.46l-5.96,0.53l-15.48,1.46l-8.07,0.53l-0.13,4.23l0.13,11.05l-0.46,20.51
		l-0.2,9.33l1.85,12.44l1.06,9.73L402.45,364.37z	">
<title>Alabama</title>
	</path>
	<g>
		<path class="st17" d="M406.96,332.3l4.81-10.41c0.05-0.09,0.12-0.17,0.26-0.17h0.15c0.16,0,0.22,0.08,0.26,0.17l4.76,10.41
			c0.09,0.2-0.03,0.4-0.26,0.4h-1.35c-0.23,0-0.34-0.09-0.45-0.31l-0.76-1.67h-4.63l-0.76,1.67c-0.06,0.16-0.2,0.31-0.45,0.31h-1.35
			C406.99,332.7,406.86,332.5,406.96,332.3z M413.64,329.01l-1.55-3.4h-0.05l-1.52,3.4H413.64z"/>
		<path class="st17" d="M418.62,322.17c0-0.15,0.12-0.29,0.29-0.29h1.42c0.16,0,0.29,0.14,0.29,0.29v8.68h3.95
			c0.17,0,0.29,0.14,0.29,0.29v1.27c0,0.15-0.12,0.29-0.29,0.29h-5.66c-0.17,0-0.29-0.14-0.29-0.29V322.17z"/>
	</g>
	<path id="NC_1_" class="st23" d="M90.09,194.84l-8.2-8.52l-2.22-1.25l-13.2-1.78l-0.62-2.64l-1.7-2.27l-12.95-3.03l-5.88-0.82
		l-8,1.58l-5.78,0.69l-5.25-0.41l-10.6-1.66l0.92-3.13l1.57-0.65l2.22,0.01l1.32-2.78l3.51-1.13l3.31-0.36l4.22-1.93l3.86-0.87
		l1.19-2.32l3.93-2.09l0.33,0.91l1.88,0.67l2.58-2.28l1.39,0.04l1.94,0.76l2.2-2.71l2.41-1.34l0.75-1.28l0.79-2.67l3.37,0.98
		l30.77,3.56l46.76,2.29l0.56,4.1l1.44,5.74l1.36,2.34l-0.01,1.89l-1.89-0.34l0.49,0.63l-1.09,3.17l-2.27,0.47l-0.89,1.49
		l-1.59,1.97l-3.17,0.47l-1.79-0.72l-1.11-0.46l-0.97-1.33l-0.04,1.06l-0.2,0.77l1.46,0.39l0.35,1.16l-2.75,4.46l3.23,0.86
		l0.13,1.35l2.24-1.3l1.1-0.12l-2.2,2.38l-3.37,3.06l-1-0.27l-0.74-0.61l-2.2-0.09l-4.49,0.78l-6.09,2.75l-3.58,2.92l-2.79,4.61
		l-0.88,1.74l-3.72-0.58l-4.23,0.11L90.09,194.84z M133.39,184.76l2.51-1.39l2.99-1.35l1.28-0.15l0.56-1.5l0.79-4.82l-0.68-2.08
		l-0.07-1.58l0.58-0.01l0.95,4.78l-0.59,3.47l-0.85,2.58l-2.92,0.46l-2.65,1.27l-1.09,0.7L133.39,184.76z	">
<title>North Carolina</title>
	</path>
	<g>
		<path class="st17" d="M77.7,166.54c0-0.18,0.16-0.32,0.34-0.32h0.45l7.49,7.96H86v-7.44c0-0.18,0.14-0.34,0.34-0.34H88
			c0.18,0,0.34,0.16,0.34,0.34v12.12c0,0.18-0.16,0.32-0.34,0.32h-0.43l-7.53-8.26h-0.02v7.74c0,0.18-0.14,0.34-0.34,0.34h-1.64
			c-0.18,0-0.34-0.16-0.34-0.34V166.54z"/>
		<path class="st17" d="M97.19,166.21c1.82,0,3.13,0.58,4.36,1.67c0.16,0.14,0.16,0.36,0.02,0.5l-1.1,1.13
			c-0.13,0.14-0.31,0.14-0.45,0c-0.76-0.67-1.76-1.06-2.77-1.06c-2.3,0-4.02,1.93-4.02,4.2c0,2.25,1.73,4.16,4.03,4.16
			c1.08,0,2-0.41,2.75-1.03c0.14-0.13,0.34-0.11,0.45,0l1.12,1.15c0.14,0.13,0.11,0.36-0.02,0.49c-1.22,1.19-2.77,1.75-4.38,1.75
			c-3.6,0-6.5-2.86-6.5-6.46C90.69,169.11,93.59,166.21,97.19,166.21z"/>
	</g>
	<path id="MI_1_" class="st24" d="M278.35,160.73l13.36-1.33l0.14,0.77l6.93-1.05l8.4-1.19l0.07-0.42l0.14-1.05l1.47-2.59l1.4-1.19
		l-0.14-3.57l1.12-1.12l0.77-0.21l0.14-2.52l1.05-2.1l0.77,0.42l0.14,0.42l0.56,0.14l1.33-0.7l-0.28-6.37l-2.24-5.74l-1.61-6.37
		l-1.68-2.24l-1.82-1.26l-1.12,0.77l-2.73,1.26l-1.33,3.5l-1.89,2.59l-0.77,0.42l-1.05-0.42c0,0-1.82-1.05-1.68-1.47
		c0.14-0.42,0.35-3.5,0.35-3.5l2.38-0.91l0.56-2.38l0.42-1.82l1.68-1.12l-0.21-7l-1.12-1.61l-0.91-0.56l-0.56-1.47l0.56-0.56
		l1.12,0.21l0.14-1.12l-1.82-1.54l-0.91-1.82h-1.82l-3.15-1.05l-3.85-2.38h-1.89l-0.42,0.42l-0.7-0.35l-2.17-1.61l-2.03,1.26
		l-2.03,1.61l0.21,2.52l0.7,0.21l1.47,0.35l0.35,0.56l-1.82,0.56l-1.82,0.21l-1.05,1.26l-0.21,1.47l0.21,1.12l0.21,3.85l-2.52,1.47
		l-0.42-0.14v-2.94l0.91-1.68l0.42-1.68l-0.56-0.56l-1.33,0.56l-0.7,2.94l-1.89,0.77l-1.26,1.33l-0.14,0.7l0.42,0.56l-0.42,1.82
		l-1.61,0.35v0.77l0.56,1.68l-0.77,4.27l-1.12,2.8l0.42,3.29l0.35,0.77l-0.56,1.68l-0.21,0.56l-0.21,1.89l2.52,4.2l2.03,4.55
		l1.05,3.36l-0.56,3.29l-0.7,4.2l-1.68,3.64l-0.21,1.89l-2.24,2.17L278.35,160.73z M255.05,110.08l-0.91-0.77l-1.26-7.28l-2.59-0.91
		l-1.19-1.61l-8.81-1.96l-1.96-0.77l-5.67-1.54l-5.46-0.7l-2.73-3.71l0.49-0.35l1.89-0.56l2.52-1.61v-0.7l0.42-0.42l4.2-0.7
		l1.68-1.33l3.08-1.47l0.14-0.91l1.33-2.03l1.26-0.56l0.91-1.26l1.61-1.61l3.08-1.68l3.29-0.35l0.77,0.77l-0.21,0.7l-2.59,0.7
		l-1.05,2.17l-1.61,0.56l-0.35,1.68l-1.68,2.24l-0.21,1.82l0.56,0.35l0.7-0.77l2.52-2.03l0.91,0.91h1.61l2.24,0.7l1.05,0.77
		l1.05,2.17l1.89,1.89l2.73-0.14l1.05-0.7l1.12,0.91l1.12,0.35l0.91-0.56h0.77l1.12-0.7l2.8-2.52l2.38-0.77l4.62-0.21l3.15-1.33
		l1.82-0.91l1.05,0.14v3.99l0.35,0.21l2.03,0.56l1.33-0.35l4.27-1.12l0.77-0.77l1.05,0.35v4.9l2.24,2.17l0.91,0.42l0.91,0.7
		l-0.91,0.21l-0.56-0.21l-2.59-0.35l-1.47,0.42l-1.61-0.14l-2.24,1.05h-1.26l-4.06-0.91l-3.64,0.14l-1.33,1.82l-4.9,0.42l-1.68,0.56
		l-0.77,2.17l-0.91,0.77l-0.35-0.14l-1.05-1.12l-3.15,1.68h-0.42l-0.77-1.12l-0.56,0.14l-1.33,3.08l-0.7,2.8l-2.24,4.83
		L255.05,110.08z M234.35,70.55l1.26-1.47l1.54-0.56l3.78-2.73l1.61-0.42l0.35,0.35l-3.57,3.57L237,70.62l-1.47,0.63L234.35,70.55z
		 M294.65,93.01l0.42,1.75l2.24,0.14l0.91-0.84c0,0-0.07-1.05-0.28-1.12c-0.21-0.14-1.12-1.33-1.12-1.33l-1.54,0.14l-1.12,0.14
		l-0.21,0.77L294.65,93.01z	">
<title>Michigan</title>
	</path>
	<g>
		<path class="st17" d="M283.02,135.84c0.02-0.14,0.13-0.27,0.32-0.27h0.29c0.14,0,0.25,0.07,0.31,0.18l3.96,8.5
			c0.04,0,0.04,0,0.05,0l3.96-8.5c0.05-0.11,0.14-0.18,0.31-0.18h0.29c0.2,0,0.31,0.13,0.32,0.27l2.12,12.1
			c0.05,0.25-0.09,0.41-0.32,0.41H293c-0.16,0-0.31-0.14-0.34-0.27l-1.06-6.82c-0.02,0-0.05,0-0.05,0l-3.15,7.08
			c-0.04,0.11-0.14,0.2-0.31,0.2h-0.32c-0.16,0-0.25-0.09-0.31-0.2l-3.19-7.08c0,0-0.04,0-0.05,0l-1.04,6.82
			c-0.02,0.13-0.16,0.27-0.32,0.27h-1.62c-0.23,0-0.38-0.16-0.34-0.41L283.02,135.84z"/>
		<path class="st17" d="M297.42,136.09c0-0.18,0.16-0.34,0.34-0.34h1.67c0.18,0,0.34,0.16,0.34,0.34v11.92
			c0,0.18-0.16,0.34-0.34,0.34h-1.67c-0.18,0-0.34-0.16-0.34-0.34V136.09z"/>
	</g>
	<path id="GA_1_" class="st25" d="M336.35,236.29l-3.19-0.4l-0.8,0.91l0.91,2.67l-0.17,2.22l-1.25-0.34l-0.11-1.71h-2.96l-3.01,0.4
		l-18.37,1.08l-4.38-0.17l-0.8-0.68l-1.42-2.45l-0.46-1.88l-0.91-0.51l-0.28-0.28l0.51-1.25l-0.23-3.13l-0.91-2.56l0.46-2.79
		l0.97-2.73l-0.11-1.42l-1.08-0.4l-0.23-1.82l-1.59-1.99l-1.08-3.53l-0.85-3.98l-0.97-2.73l-2.16-9.1l-1.99-4.55l-0.46-3.01
		l0.06-1.31l1.88-0.17l7.74-0.91l10.58-1.14l3.58-0.63l0.28,0.8l-1.25,0.51l-0.51,1.25l0.23,1.14l0.8,0.91l2.45,1.54l1.82-0.06
		l1.82,2.67l0.34,0.91l1.31,1.59l0.28,0.97l2.67,1.02l1.71,1.25l1.31,1.71l1.31,0.74l1.14,1.02l0.8,1.54l1.19,1.08l2.33,1.02
		l1.54,3.41l0.97,2.9l1.59,0.4l1.19,1.08l1.14,3.24l1.65,0.91l0.97-0.46l0.23,0.68l-1.88,3.53l0.28,1.48l-0.85,2.39l-1.31,5.69
		l0.46,3.58L336.35,236.29z	">
<title>Georgia</title>
	</path>
	<g>
		<path class="st17" d="M308.78,210.2c1.6-0.27,3.23,0.1,4.61,0.93c0.17,0.12,0.22,0.33,0.1,0.49l-0.91,1.34
			c-0.12,0.17-0.28,0.19-0.46,0.08c-0.88-0.55-1.88-0.74-2.85-0.58c-2.22,0.37-3.66,2.57-3.29,4.79c0.37,2.2,2.44,3.77,4.68,3.4
			c1-0.17,1.71-0.6,2.04-0.8l-0.25-1.51l-1.42,0.24c-0.2,0.03-0.36-0.09-0.39-0.26l-0.24-1.4c-0.03-0.19,0.08-0.36,0.28-0.39
			l3.41-0.57c0.18-0.03,0.35,0.11,0.38,0.28l0.76,4.55c0.02,0.14-0.03,0.24-0.09,0.31c0,0-1.64,1.46-4.21,1.89
			c-3.53,0.59-6.85-1.74-7.44-5.29C302.89,214.13,305.25,210.79,308.78,210.2z"/>
		<path class="st17" d="M316.36,221.42l3.52-12.88c0.03-0.12,0.11-0.22,0.27-0.25l0.18-0.03c0.18-0.03,0.26,0.05,0.33,0.15
			l7.47,11.03c0.15,0.21,0.04,0.47-0.22,0.51l-1.54,0.26c-0.27,0.04-0.41-0.04-0.58-0.27l-1.19-1.77l-5.31,0.89l-0.55,2.06
			c-0.04,0.19-0.17,0.39-0.46,0.44l-1.55,0.26C316.47,221.87,316.29,221.66,316.36,221.42z M323.39,216.35l-2.43-3.61l-0.05,0.01
			l-1.08,4.2L323.39,216.35z"/>
	</g>
</g>
<g>
	<path d="M551.12,63.79c2.38-2.88,6.91-8.78,9.32-11.99c1.12-1.37,1.84-2.77,1.84-4c0-1.62-1.22-3.28-3.82-3.28
		c-1.73,0-3.2,1.22-4.03,2.12c-0.29,0.29-0.68,0.29-0.97,0l-1.73-1.73c-0.22-0.22-0.29-0.65-0.04-0.94c0,0,2.81-3.53,7.09-3.53
		c5.15,0,8.03,3.28,8.03,7.16c0,2.34-1.01,3.82-2.41,5.83c-1.55,2.2-4.28,5.58-6.19,7.99h7.77c0.36,0,0.68,0.32,0.68,0.68v2.48
		c0,0.36-0.32,0.68-0.68,0.68H551.8c-0.4,0-0.68-0.32-0.68-0.68V63.79z"/>
	<path d="M570.84,53.06c0-7.88,3.31-12.6,9.07-12.6s9.07,4.72,9.07,12.6s-3.31,12.6-9.07,12.6S570.84,60.94,570.84,53.06z
		 M584.27,53.06c0-5.33-1.58-8.35-4.36-8.35s-4.36,3.02-4.36,8.35c0,5.36,1.58,8.35,4.36,8.35S584.27,58.42,584.27,53.06z"/>
	<path d="M592.12,63.79c2.38-2.88,6.91-8.78,9.32-11.99c1.12-1.37,1.84-2.77,1.84-4c0-1.62-1.22-3.28-3.82-3.28
		c-1.73,0-3.2,1.22-4.03,2.12c-0.29,0.29-0.68,0.29-0.97,0l-1.73-1.73c-0.22-0.22-0.29-0.65-0.04-0.94c0,0,2.81-3.53,7.09-3.53
		c5.15,0,8.03,3.28,8.03,7.16c0,2.34-1.01,3.82-2.41,5.83c-1.55,2.2-4.28,5.58-6.19,7.99h7.77c0.36,0,0.68,0.32,0.68,0.68v2.48
		c0,0.36-0.32,0.68-0.68,0.68H592.8c-0.4,0-0.68-0.32-0.68-0.68V63.79z"/>
	<path d="M611.85,53.06c0-7.88,3.31-12.6,9.07-12.6s9.07,4.72,9.07,12.6s-3.31,12.6-9.07,12.6S611.85,60.94,611.85,53.06z
		 M625.27,53.06c0-5.33-1.58-8.35-4.36-8.35s-4.36,3.02-4.36,8.35c0,5.36,1.58,8.35,4.36,8.35S625.27,58.42,625.27,53.06z"/>
	<path d="M641.94,61.77l1.3-2.23c0.29-0.5,0.9-0.5,1.22-0.25c0.18,0.11,3.1,2.23,5.44,2.23c1.87,0,3.28-1.22,3.28-2.77
		c0-1.84-1.55-3.1-4.57-4.32c-3.38-1.37-6.77-3.53-6.77-7.77c0-3.2,2.38-6.91,8.1-6.91c3.67,0,6.48,1.87,7.2,2.41
		c0.36,0.22,0.47,0.83,0.22,1.19l-1.37,2.05c-0.29,0.43-0.83,0.72-1.26,0.43c-0.29-0.18-3.02-1.98-5-1.98
		c-2.05,0-3.17,1.37-3.17,2.52c0,1.69,1.33,2.84,4.25,4.03c3.49,1.4,7.52,3.49,7.52,8.13c0,3.71-3.2,7.13-8.28,7.13
		c-4.54,0-7.2-2.12-7.92-2.81C641.8,62.53,641.62,62.35,641.94,61.77z"/>
	<path d="M667.86,50.54c3.71,0,6.73,2.81,6.73,6.7c0,0.25-0.04,0.72-0.07,0.97c-0.04,0.36-0.36,0.61-0.68,0.61h-9.21
		c0.11,1.48,1.37,3.13,3.46,3.13c1.12,0,2.16-0.43,2.81-0.9c0.36-0.22,0.68-0.29,0.94,0l1.48,1.69c0.25,0.25,0.32,0.65-0.04,0.94
		c-1.19,1.12-3.02,1.98-5.36,1.98c-4.32,0-7.38-3.42-7.38-7.56C660.52,54.03,663.58,50.54,667.86,50.54z M670.38,56.3
		c-0.11-1.33-1.26-2.45-2.63-2.45c-1.44,0-2.63,1.08-2.81,2.45H670.38z"/>
	<path d="M677.62,51.59c0-0.4,0.32-0.68,0.68-0.68h1.37c0.32,0,0.5,0.18,0.61,0.43l0.5,1.33c0.54-0.58,2.3-2.12,5.08-2.12
		c4.57,0,6.41,3.42,6.41,7.16v6.91c0,0.36-0.32,0.68-0.68,0.68h-2.95c-0.4,0-0.68-0.32-0.68-0.68v-7.13c0-1.87-0.97-3.06-2.7-3.06
		c-1.87,0-3.02,1.3-3.38,2.27v7.92c0,0.5-0.22,0.68-0.9,0.68h-2.66c-0.36,0-0.68-0.32-0.68-0.68V51.59z"/>
	<path d="M701.02,56.19c1.44,0,2.63,0.4,2.63,0.4c0.04-1.84-0.54-2.48-1.87-2.48c-1.33,0-3.2,0.29-4.03,0.54
		c-0.5,0.14-0.76-0.18-0.83-0.65l-0.32-1.87c-0.11-0.54,0.18-0.79,0.5-0.9c0.29-0.11,2.59-0.68,4.9-0.68c4.5,0,5.54,2.34,5.54,6.26
		v7.81c0,0.36-0.32,0.68-0.68,0.68h-1.3c-0.25,0-0.43-0.11-0.61-0.5l-0.43-0.97c-0.83,0.76-2.16,1.84-4.39,1.84
		c-2.88,0-4.86-1.87-4.86-4.93C695.26,58.17,697.35,56.19,701.02,56.19z M701.09,62.6c1.15,0,2.27-0.97,2.48-1.4v-1.98
		c0,0-0.97-0.43-2.02-0.43c-1.4,0-2.34,0.79-2.34,1.94C699.22,61.81,699.97,62.6,701.09,62.6z"/>
	<path d="M712.43,54.68h-1.22c-0.36,0-0.65-0.32-0.65-0.68v-2.41c0-0.4,0.29-0.68,0.65-0.68h1.22v-4c0-0.36,0.32-0.68,0.68-0.68
		l2.95-0.04c0.36,0,0.65,0.32,0.65,0.68v4.03h3.17c0.4,0,0.68,0.29,0.68,0.68V54c0,0.36-0.29,0.68-0.68,0.68h-3.17v5.76
		c0,1.01,0.54,1.15,1.12,1.15c0.61,0,1.37-0.25,1.76-0.4s0.68,0.04,0.79,0.4l0.72,2.27c0.14,0.36-0.04,0.72-0.4,0.86
		c-0.18,0.11-2.52,0.94-4.28,0.94c-2.77,0-4-1.73-4-4.64V54.68z"/>
	<path d="M730.36,50.54c3.71,0,6.73,2.81,6.73,6.7c0,0.25-0.04,0.72-0.07,0.97c-0.04,0.36-0.36,0.61-0.68,0.61h-9.21
		c0.11,1.48,1.37,3.13,3.46,3.13c1.12,0,2.16-0.43,2.81-0.9c0.36-0.22,0.68-0.29,0.94,0l1.48,1.69c0.25,0.25,0.32,0.65-0.04,0.94
		c-1.19,1.12-3.02,1.98-5.36,1.98c-4.32,0-7.38-3.42-7.38-7.56C723.01,54.03,726.07,50.54,730.36,50.54z M732.88,56.3
		c-0.11-1.33-1.26-2.45-2.63-2.45c-1.44,0-2.63,1.08-2.81,2.45H732.88z"/>
	<path d="M749.18,40.79c0-0.36,0.29-0.68,0.68-0.68h14.65c0.4,0,0.68,0.32,0.68,0.68v2.95c0,0.36-0.29,0.68-0.68,0.68h-10.65v6.77
		h8.89c0.36,0,0.68,0.32,0.68,0.68v2.95c0,0.36-0.32,0.68-0.68,0.68h-8.89v9.11c0,0.36-0.32,0.68-0.68,0.68h-3.31
		c-0.4,0-0.68-0.32-0.68-0.68V40.79z"/>
	<path d="M773.37,50.54c4.07,0,7.38,3.46,7.38,7.52c0,4.14-3.31,7.6-7.38,7.6S766,62.2,766,58.06C766,54,769.31,50.54,773.37,50.54z
		 M773.37,61.77c1.91,0,3.46-1.66,3.46-3.71c0-2.02-1.55-3.64-3.46-3.64c-1.94,0-3.46,1.62-3.46,3.64
		C769.92,60.12,771.43,61.77,773.37,61.77z"/>
	<path d="M783.96,51.59c0-0.4,0.32-0.68,0.68-0.68h1.37c0.32,0,0.54,0.18,0.65,0.47l0.5,1.4c0.5-0.72,1.84-2.23,4.07-2.23
		c1.69,0,3.2,0.54,2.77,1.44l-1.33,2.34c-0.18,0.32-0.54,0.47-0.83,0.32c-0.11-0.04-0.65-0.22-1.04-0.22c-1.44,0-2.3,0.97-2.56,1.48
		v8.71c0,0.5-0.32,0.68-0.83,0.68h-2.77c-0.36,0-0.68-0.32-0.68-0.68V51.59z"/>
	<path d="M802.39,50.54c3.71,0,6.73,2.81,6.73,6.7c0,0.25-0.04,0.72-0.07,0.97c-0.04,0.36-0.36,0.61-0.68,0.61h-9.21
		c0.11,1.48,1.37,3.13,3.46,3.13c1.12,0,2.16-0.43,2.81-0.9c0.36-0.22,0.68-0.29,0.94,0l1.48,1.69c0.25,0.25,0.32,0.65-0.04,0.94
		c-1.19,1.12-3.02,1.98-5.36,1.98c-4.32,0-7.38-3.42-7.38-7.56C795.05,54.03,798.11,50.54,802.39,50.54z M804.91,56.3
		c-0.11-1.33-1.26-2.45-2.63-2.45c-1.44,0-2.63,1.08-2.81,2.45H804.91z"/>
	<path d="M818.7,50.54c2.23,0,3.96,0.9,5.33,2.56c0.25,0.32,0.18,0.76-0.18,1.01l-1.66,1.58c-0.32,0.29-0.65,0.11-0.9-0.11
		c-0.58-0.65-1.48-1.15-2.48-1.15c-1.94,0-3.53,1.66-3.53,3.67c0,2.05,1.55,3.67,3.49,3.67c1.55,0,2.23-0.76,2.88-1.37
		c0.25-0.25,0.61-0.32,0.9-0.11l1.55,1.33c0.36,0.29,0.5,0.65,0.25,1.01c-1.22,1.91-3.13,3.02-5.69,3.02
		c-4.07,0-7.63-3.24-7.63-7.56C811.03,53.85,814.67,50.54,818.7,50.54z"/>
	<path d="M832.2,56.19c1.44,0,2.63,0.4,2.63,0.4c0.04-1.84-0.54-2.48-1.87-2.48c-1.33,0-3.2,0.29-4.03,0.54
		c-0.5,0.14-0.76-0.18-0.83-0.65l-0.32-1.87c-0.11-0.54,0.18-0.79,0.5-0.9c0.29-0.11,2.59-0.68,4.9-0.68c4.5,0,5.54,2.34,5.54,6.26
		v7.81c0,0.36-0.32,0.68-0.68,0.68h-1.3c-0.25,0-0.43-0.11-0.61-0.5l-0.43-0.97c-0.83,0.76-2.16,1.84-4.39,1.84
		c-2.88,0-4.86-1.87-4.86-4.93C826.44,58.17,828.53,56.19,832.2,56.19z M832.27,62.6c1.15,0,2.27-0.97,2.48-1.4v-1.98
		c0,0-0.97-0.43-2.02-0.43c-1.4,0-2.34,0.79-2.34,1.94C830.4,61.81,831.15,62.6,832.27,62.6z"/>
	<path d="M842.06,63.57l0.97-1.94c0.14-0.36,0.5-0.43,0.83-0.25c0,0,1.62,0.86,3.28,0.86c0.72,0,1.22-0.29,1.22-0.9
		c0-0.65-0.5-1.04-2.41-1.8c-2.77-1.08-4.07-2.56-4.07-4.75s1.62-4.25,5.29-4.25c2.12,0,3.67,0.61,4.43,1.12
		c0.32,0.22,0.5,0.61,0.32,0.97l-0.9,1.83c-0.18,0.32-0.58,0.36-0.86,0.25c0,0-1.62-0.76-2.99-0.76c-0.86,0-1.22,0.36-1.22,0.83
		c0,0.65,0.65,0.86,1.98,1.4c2.77,1.08,4.86,2.27,4.86,5.08c0,2.38-2.09,4.39-5.72,4.39c-2.38,0-4.03-0.76-4.79-1.33
		C842.06,64.15,841.92,63.86,842.06,63.57z"/>
	<path d="M856.71,54.68h-1.22c-0.36,0-0.65-0.32-0.65-0.68v-2.41c0-0.4,0.29-0.68,0.65-0.68h1.22v-4c0-0.36,0.32-0.68,0.68-0.68
		l2.95-0.04c0.36,0,0.65,0.32,0.65,0.68v4.03h3.17c0.4,0,0.68,0.29,0.68,0.68V54c0,0.36-0.29,0.68-0.68,0.68H861v5.76
		c0,1.01,0.54,1.15,1.12,1.15c0.61,0,1.37-0.25,1.76-0.4c0.4-0.14,0.68,0.04,0.79,0.4l0.72,2.27c0.14,0.36-0.04,0.72-0.4,0.86
		c-0.18,0.11-2.52,0.94-4.28,0.94c-2.77,0-4-1.73-4-4.64V54.68z"/>
	<path d="M550.67,117.93c-0.07-0.25,0.07-0.43,0.32-0.43h0.76c0.14,0,0.29,0.13,0.32,0.25l2.5,9.33h0.07l3.01-9.56
		c0.04-0.11,0.14-0.2,0.31-0.2h0.32c0.14,0,0.27,0.09,0.31,0.2l3.06,9.56h0.07l2.45-9.33c0.04-0.13,0.18-0.25,0.32-0.25h0.76
		c0.25,0,0.4,0.18,0.32,0.43l-3.4,12.1c-0.04,0.14-0.18,0.25-0.32,0.25h-0.29c-0.13,0-0.25-0.09-0.31-0.2l-3.11-9.74h-0.09
		l-3.06,9.74c-0.05,0.11-0.18,0.2-0.31,0.2h-0.29c-0.14,0-0.29-0.11-0.32-0.25L550.67,117.93z"/>
	<path d="M566.99,118.72c0-0.49,0.38-0.86,0.85-0.86c0.49,0,0.86,0.38,0.86,0.86c0,0.47-0.38,0.85-0.86,0.85
		C567.37,119.57,566.99,119.19,566.99,118.72z M567.24,123.24c0-0.18,0.16-0.34,0.34-0.34h0.56c0.18,0,0.34,0.16,0.34,0.34v6.52
		c0,0.18-0.16,0.34-0.34,0.34h-0.56c-0.18,0-0.34-0.16-0.34-0.34V123.24z"/>
	<path d="M571.06,117.84c0-0.18,0.16-0.34,0.34-0.34h0.56c0.18,0,0.34,0.16,0.34,0.34v11.92c0,0.18-0.16,0.34-0.34,0.34h-0.56
		c-0.18,0-0.34-0.16-0.34-0.34V117.84z"/>
	<path d="M574.89,117.84c0-0.18,0.16-0.34,0.34-0.34h0.56c0.18,0,0.34,0.16,0.34,0.34v11.92c0,0.18-0.16,0.34-0.34,0.34h-0.56
		c-0.18,0-0.34-0.16-0.34-0.34V117.84z"/>
	<path d="M583.17,123.98h-0.92c-0.2,0-0.34-0.16-0.34-0.34v-0.4c0-0.2,0.14-0.34,0.34-0.34h0.92v-2c0-0.18,0.16-0.34,0.34-0.34
		l0.58-0.04c0.18,0,0.32,0.16,0.32,0.34v2.03h2.09c0.2,0,0.34,0.14,0.34,0.34v0.4c0,0.18-0.14,0.34-0.34,0.34h-2.09v4.21
		c0,0.72,0.18,0.86,0.59,0.86c0.45,0,1.08-0.27,1.31-0.4c0.27-0.14,0.34-0.04,0.43,0.11l0.27,0.45c0.13,0.22,0.07,0.32-0.13,0.45
		c-0.25,0.16-1.22,0.61-2.07,0.61c-1.44,0-1.66-0.86-1.66-1.98V123.98z"/>
	<path d="M588.88,117.84c0-0.18,0.16-0.34,0.34-0.34h0.56c0.18,0,0.34,0.16,0.34,0.34v5.83c0,0,0.95-0.95,2.41-0.95
		c1.78,0,2.79,1.13,2.79,3.24v3.8c0,0.18-0.16,0.34-0.34,0.34h-0.58c-0.18,0-0.34-0.16-0.34-0.34v-3.8c0-1.37-0.61-2.03-1.62-2.03
		c-1.37,0-2.32,1.01-2.32,1.01v4.83c0,0.18-0.16,0.34-0.34,0.34h-0.56c-0.18,0-0.34-0.16-0.34-0.34V117.84z"/>
	<path d="M600.8,122.72c1.89,0,3.26,1.4,3.26,3.29c0,0.13-0.02,0.36-0.04,0.49c-0.02,0.18-0.16,0.31-0.32,0.31h-5.19
		c0.07,1.21,1.13,2.34,2.41,2.34c0.76,0,1.37-0.29,1.78-0.54c0.25-0.14,0.36-0.23,0.5-0.04c0.11,0.14,0.2,0.27,0.31,0.41
		c0.13,0.16,0.2,0.27-0.07,0.47c-0.43,0.34-1.4,0.83-2.65,0.83c-2.18,0-3.53-1.71-3.53-3.78
		C597.27,124.46,598.62,122.72,600.8,122.72z M602.81,125.8c-0.05-1.04-0.92-1.98-2.02-1.98c-1.21,0-2.14,0.86-2.27,1.98H602.81z"/>
	<path d="M610.57,117.84c0-0.18,0.14-0.34,0.34-0.34h4.66c2.16,0,3.92,1.69,3.92,3.83c0,1.66-1.1,3.04-2.66,3.67l2.47,4.57
		c0.13,0.23,0,0.52-0.31,0.52h-0.92c-0.16,0-0.25-0.09-0.29-0.16l-2.39-4.77h-3.44v4.59c0,0.18-0.16,0.34-0.34,0.34h-0.7
		c-0.2,0-0.34-0.16-0.34-0.34V117.84z M615.48,123.98c1.39,0,2.59-1.15,2.59-2.63c0-1.37-1.21-2.54-2.59-2.54h-3.49v5.17H615.48z"/>
	<path d="M624.38,122.72c1.89,0,3.26,1.4,3.26,3.29c0,0.13-0.02,0.36-0.04,0.49c-0.02,0.18-0.16,0.31-0.32,0.31h-5.19
		c0.07,1.21,1.13,2.34,2.41,2.34c0.76,0,1.37-0.29,1.78-0.54c0.25-0.14,0.36-0.23,0.5-0.04c0.11,0.14,0.2,0.27,0.31,0.41
		c0.13,0.16,0.2,0.27-0.07,0.47c-0.43,0.34-1.4,0.83-2.65,0.83c-2.18,0-3.53-1.71-3.53-3.78
		C620.85,124.46,622.2,122.72,624.38,122.72z M626.39,125.8c-0.05-1.04-0.92-1.98-2.02-1.98c-1.21,0-2.14,0.86-2.27,1.98H626.39z"/>
	<path d="M630.85,135.16c0,0.18-0.16,0.34-0.34,0.34h-0.56c-0.18,0-0.34-0.16-0.34-0.34v-11.92c0-0.18,0.16-0.34,0.34-0.34h0.38
		c0.16,0,0.22,0.05,0.29,0.23l0.13,0.34c0,0,0.79-0.76,2.09-0.76c1.96,0,3.4,1.73,3.4,3.8c0,2.11-1.48,3.76-3.46,3.76
		c-1.19,0-1.93-0.59-1.93-0.59V135.16z M632.62,129.07c1.39,0,2.36-1.13,2.36-2.57c0-1.41-0.83-2.65-2.27-2.65
		c-1.17,0-1.84,0.88-1.84,0.88v3.71C630.87,128.44,631.63,129.07,632.62,129.07z"/>
	<path d="M638.18,123.24c0-0.18,0.16-0.34,0.34-0.34h0.58c0.18,0,0.34,0.16,0.34,0.34v3.8c0,1.37,0.61,2.03,1.62,2.03
		c1.37,0,2.14-1.03,2.14-1.03c0-0.4,0-0.81,0-4.81c0-0.18,0.16-0.34,0.34-0.34h0.56c0.18,0,0.34,0.16,0.34,0.34v6.52
		c0,0.18-0.16,0.34-0.34,0.34h-0.34c-0.2,0-0.27-0.13-0.32-0.31l-0.13-0.47c0,0-0.85,0.95-2.34,0.95c-2.09,0-2.79-1.35-2.79-3.26
		V123.24z"/>
	<path d="M647.02,117.84c0-0.18,0.16-0.34,0.34-0.34h0.56c0.18,0,0.34,0.16,0.34,0.34v5.35c0,0,0.74-0.47,1.93-0.47
		c2.16,0,3.46,1.66,3.46,3.76c0,2.07-1.44,3.8-3.28,3.8c-1.35,0-2.21-0.95-2.21-0.95l-0.11,0.49c-0.04,0.16-0.14,0.29-0.31,0.29
		h-0.38c-0.18,0-0.34-0.16-0.34-0.34V117.84z M650.24,129.15c1.31,0,2.14-1.24,2.14-2.65c0-1.44-0.79-2.58-2.36-2.58
		c-0.99,0-1.75,0.43-1.75,0.43v3.6C648.28,127.96,648.94,129.15,650.24,129.15z"/>
	<path d="M655.69,117.84c0-0.18,0.16-0.34,0.34-0.34h0.56c0.18,0,0.34,0.16,0.34,0.34v11.92c0,0.18-0.16,0.34-0.34,0.34h-0.56
		c-0.18,0-0.34-0.16-0.34-0.34V117.84z"/>
	<path d="M659.26,118.72c0-0.49,0.38-0.86,0.85-0.86c0.49,0,0.86,0.38,0.86,0.86c0,0.47-0.38,0.85-0.86,0.85
		C659.64,119.57,659.26,119.19,659.26,118.72z M659.51,123.24c0-0.18,0.16-0.34,0.34-0.34h0.56c0.18,0,0.34,0.16,0.34,0.34v6.52
		c0,0.18-0.16,0.34-0.34,0.34h-0.56c-0.18,0-0.34-0.16-0.34-0.34V123.24z"/>
	<path d="M666.48,122.72c1.08,0,1.93,0.43,2.57,1.26c0.13,0.16,0.09,0.38-0.07,0.5l-0.34,0.29c-0.27,0.25-0.36,0.07-0.52-0.07
		c-0.36-0.41-0.95-0.76-1.66-0.76c-1.35,0-2.39,1.12-2.39,2.56c0,1.44,1.03,2.59,2.38,2.59c1.08,0,1.49-0.54,1.91-0.94
		c0.22-0.22,0.34-0.18,0.54-0.04l0.2,0.14c0.18,0.13,0.23,0.32,0.13,0.5c-0.54,0.86-1.53,1.51-2.75,1.51c-2,0-3.69-1.6-3.69-3.76
		C662.77,124.39,664.51,122.72,666.48,122.72z"/>
	<path d="M673.6,125.53c0.77,0,1.53,0.23,1.53,0.23c0.02-1.33-0.14-1.95-1.17-1.95c-0.99,0-1.84,0.27-2.16,0.4
		c-0.18,0.07-0.29-0.02-0.34-0.18l-0.14-0.45c-0.07-0.22,0.04-0.32,0.2-0.4c0.11-0.05,1.15-0.47,2.5-0.47
		c1.84,0,2.29,0.94,2.29,3.04v4c0,0.18-0.16,0.34-0.34,0.34h-0.34c-0.2,0-0.25-0.11-0.31-0.27l-0.14-0.49
		c-0.38,0.38-1.12,0.94-2.23,0.94c-1.26,0-2.21-0.92-2.21-2.36C670.72,126.55,671.75,125.53,673.6,125.53z M673.14,129.2
		c0.9,0,1.67-0.56,1.98-1.01v-1.42c-0.22-0.13-0.72-0.29-1.51-0.29c-1.01,0-1.73,0.5-1.73,1.44
		C671.88,128.64,672.36,129.2,673.14,129.2z"/>
	<path d="M678.81,123.24c0-0.18,0.16-0.34,0.34-0.34h0.34c0.16,0,0.25,0.07,0.29,0.22l0.16,0.56c0,0,1.03-0.95,2.52-0.95
		c2.09,0,2.79,1.37,2.79,3.24v3.8c0,0.18-0.16,0.34-0.34,0.34h-0.58c-0.18,0-0.34-0.16-0.34-0.34v-3.8c0-1.37-0.61-2.03-1.62-2.03
		c-1.35,0-2.32,1.03-2.32,1.03v4.81c0,0.18-0.16,0.34-0.34,0.34h-0.56c-0.18,0-0.34-0.16-0.34-0.34V123.24z"/>
	<path d="M687.28,129.09c0.07-0.11,0.2-0.36,0.25-0.45c0.09-0.14,0.29-0.18,0.49-0.05c0,0,0.77,0.63,1.69,0.63
		c0.74,0,1.17-0.38,1.17-0.86c0-0.63-0.54-0.92-1.58-1.44c-0.95-0.47-2.05-1.1-2.05-2.32c0-0.76,0.61-1.87,2.29-1.87
		c0.94,0,1.66,0.32,2,0.56c0.16,0.11,0.22,0.36,0.11,0.56l-0.14,0.29c-0.11,0.2-0.36,0.25-0.52,0.16c0,0-0.77-0.43-1.44-0.43
		c-0.81,0-1.03,0.41-1.03,0.72c0,0.59,0.59,0.86,1.33,1.22c1.24,0.59,2.36,1.15,2.36,2.45c0,1.04-1.01,2.03-2.48,2.03
		c-1.21,0-1.94-0.5-2.34-0.81C687.28,129.4,687.23,129.22,687.28,129.09z"/>
	<path d="M698.14,117.84c0-0.18,0.16-0.34,0.34-0.34h0.56c0.18,0,0.34,0.16,0.34,0.34v5.83c0,0,0.95-0.95,2.41-0.95
		c1.78,0,2.79,1.13,2.79,3.24v3.8c0,0.18-0.16,0.34-0.34,0.34h-0.58c-0.18,0-0.34-0.16-0.34-0.34v-3.8c0-1.37-0.61-2.03-1.62-2.03
		c-1.37,0-2.32,1.01-2.32,1.01v4.83c0,0.18-0.16,0.34-0.34,0.34h-0.56c-0.18,0-0.34-0.16-0.34-0.34V117.84z"/>
	<path d="M710.11,122.72c2,0,3.58,1.73,3.58,3.76c0,2.07-1.58,3.8-3.58,3.8s-3.58-1.73-3.58-3.8
		C706.52,124.45,708.11,122.72,710.11,122.72z M710.11,129.11c1.31,0,2.34-1.17,2.34-2.63c0-1.42-1.03-2.58-2.34-2.58
		s-2.34,1.15-2.34,2.58C707.77,127.94,708.79,129.11,710.11,129.11z"/>
	<path d="M715.74,117.84c0-0.18,0.16-0.34,0.34-0.34h0.56c0.18,0,0.34,0.16,0.34,0.34v11.92c0,0.18-0.16,0.34-0.34,0.34h-0.56
		c-0.18,0-0.34-0.16-0.34-0.34V117.84z"/>
	<path d="M722.49,122.72c1.19,0,1.93,0.47,1.93,0.47v-5.35c0-0.18,0.16-0.34,0.34-0.34h0.56c0.18,0,0.34,0.16,0.34,0.34v11.92
		c0,0.18-0.16,0.34-0.34,0.34h-0.38c-0.16,0-0.27-0.13-0.31-0.29l-0.11-0.49c0,0-0.86,0.95-2.21,0.95c-1.84,0-3.28-1.73-3.28-3.8
		C719.03,124.37,720.33,122.72,722.49,122.72z M722.44,129.15c1.3,0,1.96-1.19,1.96-1.19v-3.6c0,0-0.76-0.43-1.75-0.43
		c-1.57,0-2.36,1.13-2.36,2.58C720.29,127.9,721.12,129.15,722.44,129.15z"/>
	<path d="M735.29,122.72c2,0,3.58,1.73,3.58,3.76c0,2.07-1.58,3.8-3.58,3.8s-3.58-1.73-3.58-3.8
		C731.71,124.45,733.29,122.72,735.29,122.72z M735.29,129.11c1.31,0,2.34-1.17,2.34-2.63c0-1.42-1.03-2.58-2.34-2.58
		s-2.34,1.15-2.34,2.58C732.95,127.94,733.97,129.11,735.29,129.11z"/>
	<path d="M740.9,123.24c0-0.18,0.16-0.34,0.34-0.34h0.34c0.16,0,0.25,0.07,0.29,0.22l0.16,0.56c0,0,1.03-0.95,2.52-0.95
		c2.09,0,2.79,1.37,2.79,3.24v3.8c0,0.18-0.16,0.34-0.34,0.34h-0.58c-0.18,0-0.34-0.16-0.34-0.34v-3.8c0-1.37-0.61-2.03-1.62-2.03
		c-1.35,0-2.32,1.03-2.32,1.03v4.81c0,0.18-0.16,0.34-0.34,0.34h-0.56c-0.18,0-0.34-0.16-0.34-0.34V123.24z"/>
	<path d="M750.28,123.98h-0.92c-0.2,0-0.34-0.16-0.34-0.34v-0.4c0-0.2,0.14-0.34,0.34-0.34h0.92v-2c0-0.18,0.16-0.34,0.34-0.34
		l0.58-0.04c0.18,0,0.32,0.16,0.32,0.34v2.03h2.09c0.2,0,0.34,0.14,0.34,0.34v0.4c0,0.18-0.14,0.34-0.34,0.34h-2.09v4.21
		c0,0.72,0.18,0.86,0.59,0.86c0.45,0,1.08-0.27,1.31-0.4c0.27-0.14,0.34-0.04,0.43,0.11l0.27,0.45c0.13,0.22,0.07,0.32-0.13,0.45
		c-0.25,0.16-1.22,0.61-2.07,0.61c-1.44,0-1.66-0.86-1.66-1.98V123.98z"/>
	<path d="M759.03,122.72c2,0,3.58,1.73,3.58,3.76c0,2.07-1.58,3.8-3.58,3.8s-3.58-1.73-3.58-3.8
		C755.45,124.45,757.03,122.72,759.03,122.72z M759.03,129.11c1.31,0,2.34-1.17,2.34-2.63c0-1.42-1.03-2.58-2.34-2.58
		s-2.34,1.15-2.34,2.58C756.69,127.94,757.72,129.11,759.03,129.11z"/>
	<path d="M769.11,123.98h-0.92c-0.2,0-0.34-0.16-0.34-0.34v-0.4c0-0.2,0.14-0.34,0.34-0.34h0.92v-2c0-0.18,0.16-0.34,0.34-0.34
		l0.58-0.04c0.18,0,0.32,0.16,0.32,0.34v2.03h2.09c0.2,0,0.34,0.14,0.34,0.34v0.4c0,0.18-0.14,0.34-0.34,0.34h-2.09v4.21
		c0,0.72,0.18,0.86,0.59,0.86c0.45,0,1.08-0.27,1.31-0.4c0.27-0.14,0.34-0.04,0.43,0.11l0.27,0.45c0.13,0.22,0.07,0.32-0.13,0.45
		c-0.25,0.16-1.22,0.61-2.07,0.61c-1.44,0-1.66-0.86-1.66-1.98V123.98z"/>
	<path d="M774.81,117.84c0-0.18,0.16-0.34,0.34-0.34h0.56c0.18,0,0.34,0.16,0.34,0.34v5.83c0,0,0.95-0.95,2.41-0.95
		c1.78,0,2.79,1.13,2.79,3.24v3.8c0,0.18-0.16,0.34-0.34,0.34h-0.58c-0.18,0-0.34-0.16-0.34-0.34v-3.8c0-1.37-0.61-2.03-1.62-2.03
		c-1.37,0-2.32,1.01-2.32,1.01v4.83c0,0.18-0.16,0.34-0.34,0.34h-0.56c-0.18,0-0.34-0.16-0.34-0.34V117.84z"/>
	<path d="M786.73,122.72c1.89,0,3.26,1.4,3.26,3.29c0,0.13-0.02,0.36-0.04,0.49c-0.02,0.18-0.16,0.31-0.32,0.31h-5.19
		c0.07,1.21,1.13,2.34,2.41,2.34c0.76,0,1.37-0.29,1.78-0.54c0.25-0.14,0.36-0.23,0.5-0.04c0.11,0.14,0.2,0.27,0.31,0.41
		c0.13,0.16,0.2,0.27-0.07,0.47c-0.43,0.34-1.4,0.83-2.65,0.83c-2.18,0-3.53-1.71-3.53-3.78
		C783.2,124.46,784.55,122.72,786.73,122.72z M788.75,125.8c-0.05-1.04-0.92-1.98-2.02-1.98c-1.21,0-2.14,0.86-2.27,1.98H788.75z"/>
	<path d="M791.7,118.72c0-0.49,0.38-0.86,0.85-0.86c0.49,0,0.86,0.38,0.86,0.86c0,0.47-0.38,0.85-0.86,0.85
		C792.08,119.57,791.7,119.19,791.7,118.72z M791.95,123.24c0-0.18,0.16-0.34,0.34-0.34h0.56c0.18,0,0.34,0.16,0.34,0.34v6.52
		c0,0.18-0.16,0.34-0.34,0.34h-0.56c-0.18,0-0.34-0.16-0.34-0.34V123.24z"/>
	<path d="M795.75,123.24c0-0.18,0.16-0.34,0.34-0.34h0.34c0.14,0,0.27,0.09,0.31,0.25l0.14,0.52c0,0,0.67-0.95,2.16-0.95
		c0.54,0,1.44,0.09,1.26,0.59l-0.22,0.61c-0.09,0.23-0.25,0.23-0.43,0.16c-0.16-0.07-0.43-0.14-0.7-0.14
		c-1.37,0-1.96,1.01-1.96,1.01v4.81c0,0.18-0.16,0.34-0.34,0.34h-0.56c-0.18,0-0.34-0.16-0.34-0.34V123.24z"/>
	<path d="M805.75,123.24c0-0.18,0.16-0.34,0.34-0.34h0.34c0.16,0,0.25,0.07,0.29,0.22l0.16,0.56c0,0,0.85-0.95,2.34-0.95
		c1.06,0,1.84,0.41,2.3,1.17c0.09-0.07,1.24-1.17,2.68-1.17c2.09,0,2.79,1.37,2.79,3.24v3.8c0,0.18-0.16,0.34-0.34,0.34h-0.58
		c-0.18,0-0.34-0.16-0.34-0.34v-3.8c0-1.35-0.58-2.03-1.62-2.03c-1.17,0-1.94,0.77-2.2,1.01c0.05,0.31,0.09,0.65,0.09,1.03v3.8
		c0,0.18-0.16,0.34-0.34,0.34h-0.58c-0.18,0-0.34-0.16-0.34-0.34v-3.8c0-1.37-0.61-2.03-1.71-2.03c-1.28,0-2.05,1.03-2.05,1.03v4.81
		c0,0.18-0.16,0.34-0.34,0.34h-0.56c-0.18,0-0.34-0.16-0.34-0.34V123.24z"/>
	<path d="M821.83,125.53c0.77,0,1.53,0.23,1.53,0.23c0.02-1.33-0.14-1.95-1.17-1.95c-0.99,0-1.84,0.27-2.16,0.4
		c-0.18,0.07-0.29-0.02-0.34-0.18l-0.14-0.45c-0.07-0.22,0.04-0.32,0.2-0.4c0.11-0.05,1.15-0.47,2.5-0.47
		c1.84,0,2.29,0.94,2.29,3.04v4c0,0.18-0.16,0.34-0.34,0.34h-0.34c-0.2,0-0.25-0.11-0.31-0.27l-0.14-0.49
		c-0.38,0.38-1.12,0.94-2.23,0.94c-1.26,0-2.21-0.92-2.21-2.36C818.95,126.55,819.98,125.53,821.83,125.53z M821.36,129.2
		c0.9,0,1.67-0.56,1.98-1.01v-1.42c-0.22-0.13-0.72-0.29-1.51-0.29c-1.01,0-1.73,0.5-1.73,1.44
		C820.1,128.64,820.59,129.2,821.36,129.2z"/>
	<path d="M827.05,123.24c0-0.2,0.16-0.34,0.34-0.34h0.56c0.18,0,0.34,0.14,0.34,0.34v9.38c0,2.09-1.21,3.06-2.75,3.06
		c-0.99,0-1.66-0.43-1.98-0.74c-0.13-0.11-0.14-0.29-0.07-0.41l0.29-0.47c0.11-0.18,0.29-0.16,0.47-0.02
		c0.23,0.18,0.86,0.52,1.31,0.52c0.83,0,1.49-0.56,1.49-1.95V123.24z M826.81,118.72c0-0.49,0.38-0.86,0.85-0.86
		c0.49,0,0.86,0.38,0.86,0.86c0,0.47-0.38,0.85-0.86,0.85C827.19,119.57,826.81,119.19,826.81,118.72z"/>
	<path d="M833.93,122.72c2,0,3.58,1.73,3.58,3.76c0,2.07-1.58,3.8-3.58,3.8s-3.58-1.73-3.58-3.8
		C830.34,124.45,831.93,122.72,833.93,122.72z M833.93,129.11c1.31,0,2.34-1.17,2.34-2.63c0-1.42-1.03-2.58-2.34-2.58
		s-2.34,1.15-2.34,2.58C831.58,127.94,832.61,129.11,833.93,129.11z"/>
	<path d="M839.54,123.24c0-0.18,0.16-0.34,0.34-0.34h0.34c0.14,0,0.27,0.09,0.31,0.25l0.14,0.52c0,0,0.67-0.95,2.16-0.95
		c0.54,0,1.44,0.09,1.26,0.59l-0.22,0.61c-0.09,0.23-0.25,0.23-0.43,0.16c-0.16-0.07-0.43-0.14-0.7-0.14
		c-1.37,0-1.96,1.01-1.96,1.01v4.81c0,0.18-0.16,0.34-0.34,0.34h-0.56c-0.18,0-0.34-0.16-0.34-0.34V123.24z"/>
	<path d="M845.3,118.72c0-0.49,0.38-0.86,0.85-0.86c0.49,0,0.86,0.38,0.86,0.86c0,0.47-0.38,0.85-0.86,0.85
		C845.68,119.57,845.3,119.19,845.3,118.72z M845.55,123.24c0-0.18,0.16-0.34,0.34-0.34h0.56c0.18,0,0.34,0.16,0.34,0.34v6.52
		c0,0.18-0.16,0.34-0.34,0.34h-0.56c-0.18,0-0.34-0.16-0.34-0.34V123.24z"/>
	<path d="M849.82,123.98h-0.92c-0.2,0-0.34-0.16-0.34-0.34v-0.4c0-0.2,0.14-0.34,0.34-0.34h0.92v-2c0-0.18,0.16-0.34,0.34-0.34
		l0.58-0.04c0.18,0,0.32,0.16,0.32,0.34v2.03h2.09c0.2,0,0.34,0.14,0.34,0.34v0.4c0,0.18-0.14,0.34-0.34,0.34h-2.09v4.21
		c0,0.72,0.18,0.86,0.59,0.86c0.45,0,1.08-0.27,1.31-0.4c0.27-0.14,0.34-0.04,0.43,0.11l0.27,0.45c0.13,0.22,0.07,0.32-0.13,0.45
		c-0.25,0.16-1.22,0.61-2.07,0.61c-1.44,0-1.66-0.86-1.66-1.98V123.98z"/>
	<path d="M854.48,123.29c-0.11-0.23,0-0.4,0.27-0.4h0.79c0.14,0,0.25,0.09,0.31,0.2l2.66,5.51h0.02l2.52-5.51
		c0.05-0.11,0.18-0.2,0.31-0.2h0.68c0.27,0,0.4,0.18,0.27,0.41l-5.53,11.97c-0.05,0.11-0.18,0.22-0.31,0.22h-0.67
		c-0.27,0-0.41-0.2-0.29-0.45l2.3-4.97L854.48,123.29z"/>
	<path d="M864.36,128.23c0.58,0,1.19,0.32,1.19,1.62c0,1.49-0.94,2.79-1.51,3.33c-0.18,0.16-0.32,0.14-0.43,0.04l-0.25-0.25
		c-0.09-0.09-0.07-0.27,0.11-0.43s1.12-0.95,1.12-2.27c-0.07,0.02-0.14,0.02-0.22,0.02c-0.56,0-1.03-0.47-1.03-1.03
		C863.34,128.68,863.8,128.23,864.36,128.23z"/>
	<path d="M874.87,122.72c2,0,3.58,1.73,3.58,3.76c0,2.07-1.58,3.8-3.58,3.8c-2,0-3.58-1.73-3.58-3.8
		C871.29,124.45,872.88,122.72,874.87,122.72z M874.87,129.11c1.31,0,2.34-1.17,2.34-2.63c0-1.42-1.03-2.58-2.34-2.58
		s-2.34,1.15-2.34,2.58C872.53,127.94,873.56,129.11,874.87,129.11z"/>
	<path d="M880.49,123.24c0-0.18,0.16-0.34,0.34-0.34h0.34c0.14,0,0.27,0.09,0.31,0.25l0.14,0.52c0,0,0.67-0.95,2.16-0.95
		c0.54,0,1.44,0.09,1.26,0.59l-0.22,0.61c-0.09,0.23-0.25,0.23-0.43,0.16c-0.16-0.07-0.43-0.14-0.7-0.14
		c-1.37,0-1.96,1.01-1.96,1.01v4.81c0,0.18-0.16,0.34-0.34,0.34h-0.56c-0.18,0-0.34-0.16-0.34-0.34V123.24z"/>
	<path d="M889.81,123.31c-0.07-0.25,0-0.41,0.27-0.41h0.56c0.16,0,0.29,0.09,0.32,0.2l1.31,4.75h0.02l2.03-4.95
		c0.04-0.09,0.14-0.18,0.31-0.18h0.09c0.16,0,0.27,0.09,0.31,0.18l2.02,4.97h0.02l1.3-4.77c0.04-0.11,0.16-0.2,0.31-0.2h0.56
		c0.27,0,0.34,0.16,0.27,0.41l-1.96,6.79c-0.04,0.11-0.16,0.18-0.31,0.18h-0.09c-0.16,0-0.27-0.09-0.31-0.18l-2.2-5.4l-2.12,5.4
		c-0.04,0.09-0.14,0.18-0.31,0.18h-0.09c-0.16,0-0.27-0.07-0.31-0.18L889.81,123.31z"/>
	<path d="M901.12,118.72c0-0.49,0.38-0.86,0.85-0.86c0.49,0,0.86,0.38,0.86,0.86c0,0.47-0.38,0.85-0.86,0.85
		C901.5,119.57,901.12,119.19,901.12,118.72z M901.37,123.24c0-0.18,0.16-0.34,0.34-0.34h0.56c0.18,0,0.34,0.16,0.34,0.34v6.52
		c0,0.18-0.16,0.34-0.34,0.34h-0.56c-0.18,0-0.34-0.16-0.34-0.34V123.24z"/>
	<path d="M905.18,117.84c0-0.18,0.16-0.34,0.34-0.34h0.56c0.18,0,0.34,0.16,0.34,0.34v11.92c0,0.18-0.16,0.34-0.34,0.34h-0.56
		c-0.18,0-0.34-0.16-0.34-0.34V117.84z"/>
	<path d="M909.02,117.84c0-0.18,0.16-0.34,0.34-0.34h0.56c0.18,0,0.34,0.16,0.34,0.34v11.92c0,0.18-0.16,0.34-0.34,0.34h-0.56
		c-0.18,0-0.34-0.16-0.34-0.34V117.84z"/>
	<path d="M551.75,145.58h-0.92c-0.2,0-0.34-0.16-0.34-0.34v-0.4c0-0.2,0.14-0.34,0.34-0.34h0.92v-2c0-0.18,0.16-0.34,0.34-0.34
		l0.58-0.04c0.18,0,0.32,0.16,0.32,0.34v2.03h2.09c0.2,0,0.34,0.14,0.34,0.34v0.4c0,0.18-0.14,0.34-0.34,0.34h-2.09v4.21
		c0,0.72,0.18,0.86,0.59,0.86c0.45,0,1.08-0.27,1.31-0.4c0.27-0.14,0.34-0.04,0.43,0.11l0.27,0.45c0.13,0.22,0.07,0.32-0.13,0.45
		c-0.25,0.16-1.22,0.61-2.07,0.61c-1.44,0-1.66-0.86-1.66-1.98V145.58z"/>
	<path d="M557.45,139.44c0-0.18,0.16-0.34,0.34-0.34h0.56c0.18,0,0.34,0.16,0.34,0.34v5.83c0,0,0.95-0.95,2.41-0.95
		c1.78,0,2.79,1.13,2.79,3.24v3.8c0,0.18-0.16,0.34-0.34,0.34h-0.58c-0.18,0-0.34-0.16-0.34-0.34v-3.8c0-1.37-0.61-2.03-1.62-2.03
		c-1.37,0-2.32,1.01-2.32,1.01v4.83c0,0.18-0.16,0.34-0.34,0.34h-0.56c-0.18,0-0.34-0.16-0.34-0.34V139.44z"/>
	<path d="M569.37,144.32c1.89,0,3.26,1.4,3.26,3.29c0,0.13-0.02,0.36-0.04,0.49c-0.02,0.18-0.16,0.31-0.32,0.31h-5.19
		c0.07,1.21,1.13,2.34,2.41,2.34c0.76,0,1.37-0.29,1.78-0.54c0.25-0.14,0.36-0.23,0.5-0.04c0.11,0.14,0.2,0.27,0.31,0.41
		c0.13,0.16,0.2,0.27-0.07,0.47c-0.43,0.34-1.4,0.83-2.65,0.83c-2.18,0-3.53-1.71-3.53-3.78
		C565.84,146.06,567.19,144.32,569.37,144.32z M571.39,147.4c-0.05-1.04-0.92-1.98-2.02-1.98c-1.21,0-2.14,0.86-2.27,1.98H571.39z"
		/>
	<path d="M579.14,139.44c0-0.18,0.14-0.34,0.32-0.34h4.03c3.48,0,6.32,2.83,6.32,6.28c0,3.49-2.84,6.32-6.32,6.32h-4.03
		c-0.18,0-0.32-0.16-0.32-0.34V139.44z M583.21,150.46c2.95,0,5.1-2.11,5.1-5.08c0-2.95-2.14-5.06-5.1-5.06h-2.7v10.14H583.21z"/>
	<path d="M594.84,144.32c1.89,0,3.26,1.4,3.26,3.29c0,0.13-0.02,0.36-0.04,0.49c-0.02,0.18-0.16,0.31-0.32,0.31h-5.19
		c0.07,1.21,1.13,2.34,2.41,2.34c0.76,0,1.37-0.29,1.78-0.54c0.25-0.14,0.36-0.23,0.5-0.04c0.11,0.14,0.2,0.27,0.31,0.41
		c0.13,0.16,0.2,0.27-0.07,0.47c-0.43,0.34-1.4,0.83-2.65,0.83c-2.18,0-3.53-1.71-3.53-3.78
		C591.31,146.06,592.66,144.32,594.84,144.32z M596.85,147.4c-0.05-1.04-0.92-1.98-2.02-1.98c-1.21,0-2.14,0.86-2.27,1.98H596.85z"
		/>
	<path d="M600.06,144.84c0-0.18,0.16-0.34,0.34-0.34h0.34c0.16,0,0.25,0.07,0.29,0.22l0.16,0.56c0,0,0.85-0.95,2.34-0.95
		c1.06,0,1.84,0.41,2.3,1.17c0.09-0.07,1.24-1.17,2.68-1.17c2.09,0,2.79,1.37,2.79,3.24v3.8c0,0.18-0.16,0.34-0.34,0.34h-0.58
		c-0.18,0-0.34-0.16-0.34-0.34v-3.8c0-1.35-0.58-2.03-1.62-2.03c-1.17,0-1.94,0.77-2.2,1.01c0.05,0.31,0.09,0.65,0.09,1.03v3.8
		c0,0.18-0.16,0.34-0.34,0.34h-0.58c-0.18,0-0.34-0.16-0.34-0.34v-3.8c0-1.37-0.61-2.03-1.71-2.03c-1.28,0-2.05,1.03-2.05,1.03v4.81
		c0,0.18-0.16,0.34-0.34,0.34h-0.56c-0.18,0-0.34-0.16-0.34-0.34V144.84z"/>
	<path d="M616.83,144.32c2,0,3.58,1.73,3.58,3.76c0,2.07-1.58,3.8-3.58,3.8s-3.58-1.73-3.58-3.8
		C613.25,146.05,614.83,144.32,616.83,144.32z M616.83,150.71c1.31,0,2.34-1.17,2.34-2.63c0-1.42-1.03-2.57-2.34-2.57
		s-2.34,1.15-2.34,2.57C614.49,149.54,615.52,150.71,616.83,150.71z"/>
	<path d="M625.62,144.32c1.08,0,1.93,0.43,2.57,1.26c0.13,0.16,0.09,0.38-0.07,0.5l-0.34,0.29c-0.27,0.25-0.36,0.07-0.52-0.07
		c-0.36-0.41-0.95-0.76-1.66-0.76c-1.35,0-2.39,1.12-2.39,2.56c0,1.44,1.03,2.59,2.38,2.59c1.08,0,1.49-0.54,1.91-0.94
		c0.22-0.22,0.34-0.18,0.54-0.04l0.2,0.14c0.18,0.13,0.23,0.32,0.13,0.5c-0.54,0.86-1.53,1.51-2.75,1.51c-2,0-3.69-1.6-3.69-3.76
		C621.91,145.99,623.65,144.32,625.62,144.32z"/>
	<path d="M630.39,144.84c0-0.18,0.16-0.34,0.34-0.34h0.34c0.14,0,0.27,0.09,0.31,0.25l0.14,0.52c0,0,0.67-0.95,2.16-0.95
		c0.54,0,1.44,0.09,1.26,0.59l-0.22,0.61c-0.09,0.23-0.25,0.23-0.43,0.16c-0.16-0.07-0.43-0.14-0.7-0.14
		c-1.37,0-1.96,1.01-1.96,1.01v4.81c0,0.18-0.16,0.34-0.34,0.34h-0.56c-0.18,0-0.34-0.16-0.34-0.34V144.84z"/>
	<path d="M638.76,147.13c0.77,0,1.53,0.23,1.53,0.23c0.02-1.33-0.14-1.95-1.17-1.95c-0.99,0-1.84,0.27-2.16,0.4
		c-0.18,0.07-0.29-0.02-0.34-0.18l-0.14-0.45c-0.07-0.22,0.04-0.32,0.2-0.4c0.11-0.05,1.15-0.47,2.5-0.47
		c1.84,0,2.29,0.94,2.29,3.04v4c0,0.18-0.16,0.34-0.34,0.34h-0.34c-0.2,0-0.25-0.11-0.31-0.27l-0.14-0.49
		c-0.38,0.38-1.12,0.94-2.23,0.94c-1.26,0-2.21-0.92-2.21-2.36C635.88,148.15,636.9,147.13,638.76,147.13z M638.29,150.8
		c0.9,0,1.67-0.56,1.98-1.01v-1.42c-0.22-0.13-0.72-0.29-1.51-0.29c-1.01,0-1.73,0.5-1.73,1.44
		C637.03,150.24,637.51,150.8,638.29,150.8z"/>
	<path d="M644.43,145.58h-0.92c-0.2,0-0.34-0.16-0.34-0.34v-0.4c0-0.2,0.14-0.34,0.34-0.34h0.92v-2c0-0.18,0.16-0.34,0.34-0.34
		l0.58-0.04c0.18,0,0.32,0.16,0.32,0.34v2.03h2.09c0.2,0,0.34,0.14,0.34,0.34v0.4c0,0.18-0.14,0.34-0.34,0.34h-2.09v4.21
		c0,0.72,0.18,0.86,0.59,0.86c0.45,0,1.08-0.27,1.31-0.4c0.27-0.14,0.34-0.04,0.43,0.11l0.27,0.45c0.13,0.22,0.07,0.32-0.13,0.45
		c-0.25,0.16-1.22,0.61-2.07,0.61c-1.44,0-1.66-0.86-1.66-1.98V145.58z"/>
	<path d="M649.68,150.69c0.07-0.11,0.2-0.36,0.25-0.45c0.09-0.14,0.29-0.18,0.49-0.05c0,0,0.77,0.63,1.69,0.63
		c0.74,0,1.17-0.38,1.17-0.86c0-0.63-0.54-0.92-1.58-1.44c-0.95-0.47-2.05-1.1-2.05-2.32c0-0.76,0.61-1.87,2.29-1.87
		c0.94,0,1.66,0.32,2,0.56c0.16,0.11,0.22,0.36,0.11,0.56l-0.14,0.29c-0.11,0.2-0.36,0.25-0.52,0.16c0,0-0.77-0.43-1.44-0.43
		c-0.81,0-1.03,0.41-1.03,0.72c0,0.59,0.59,0.86,1.33,1.22c1.24,0.59,2.36,1.15,2.36,2.45c0,1.04-1.01,2.03-2.48,2.03
		c-1.21,0-1.94-0.5-2.34-0.81C649.68,151,649.63,150.82,649.68,150.69z"/>
	<path d="M659.83,144.91c-0.07-0.25,0-0.41,0.27-0.41h0.56c0.16,0,0.29,0.09,0.32,0.2l1.31,4.75h0.02l2.03-4.95
		c0.04-0.09,0.14-0.18,0.31-0.18h0.09c0.16,0,0.27,0.09,0.31,0.18l2.02,4.97h0.02l1.3-4.77c0.04-0.11,0.16-0.2,0.31-0.2h0.56
		c0.27,0,0.34,0.16,0.27,0.41l-1.96,6.79c-0.04,0.11-0.16,0.18-0.31,0.18h-0.09c-0.16,0-0.27-0.09-0.31-0.18l-2.2-5.4l-2.12,5.4
		c-0.04,0.09-0.14,0.18-0.31,0.18h-0.09c-0.16,0-0.27-0.07-0.31-0.18L659.83,144.91z"/>
	<path d="M671.14,140.32c0-0.49,0.38-0.87,0.85-0.87c0.49,0,0.86,0.38,0.86,0.87c0,0.47-0.38,0.85-0.86,0.85
		C671.52,141.17,671.14,140.79,671.14,140.32z M671.39,144.84c0-0.18,0.16-0.34,0.34-0.34h0.56c0.18,0,0.34,0.16,0.34,0.34v6.52
		c0,0.18-0.16,0.34-0.34,0.34h-0.56c-0.18,0-0.34-0.16-0.34-0.34V144.84z"/>
	<path d="M675.19,144.84c0-0.18,0.16-0.34,0.34-0.34h0.34c0.16,0,0.25,0.07,0.29,0.22l0.16,0.56c0,0,1.03-0.95,2.52-0.95
		c2.09,0,2.79,1.37,2.79,3.24v3.8c0,0.18-0.16,0.34-0.34,0.34h-0.58c-0.18,0-0.34-0.16-0.34-0.34v-3.8c0-1.37-0.61-2.03-1.62-2.03
		c-1.35,0-2.32,1.03-2.32,1.03v4.81c0,0.18-0.16,0.34-0.34,0.34h-0.56c-0.18,0-0.34-0.16-0.34-0.34V144.84z"/>
	<path d="M688.11,139.44c0-0.18,0.16-0.34,0.34-0.34h0.56c0.18,0,0.34,0.16,0.34,0.34v5.35c0,0,0.74-0.47,1.93-0.47
		c2.16,0,3.46,1.66,3.46,3.76c0,2.07-1.44,3.8-3.28,3.8c-1.35,0-2.21-0.95-2.21-0.95l-0.11,0.49c-0.04,0.16-0.14,0.29-0.31,0.29
		h-0.38c-0.18,0-0.34-0.16-0.34-0.34V139.44z M691.33,150.75c1.31,0,2.14-1.24,2.14-2.65c0-1.44-0.79-2.57-2.36-2.57
		c-0.99,0-1.75,0.43-1.75,0.43v3.6C689.37,149.56,690.04,150.75,691.33,150.75z"/>
	<path d="M699.13,147.13c0.77,0,1.53,0.23,1.53,0.23c0.02-1.33-0.14-1.95-1.17-1.95c-0.99,0-1.84,0.27-2.16,0.4
		c-0.18,0.07-0.29-0.02-0.34-0.18l-0.14-0.45c-0.07-0.22,0.04-0.32,0.2-0.4c0.11-0.05,1.15-0.47,2.5-0.47
		c1.84,0,2.29,0.94,2.29,3.04v4c0,0.18-0.16,0.34-0.34,0.34h-0.34c-0.2,0-0.25-0.11-0.31-0.27l-0.14-0.49
		c-0.38,0.38-1.12,0.94-2.23,0.94c-1.26,0-2.21-0.92-2.21-2.36C696.25,148.15,697.27,147.13,699.13,147.13z M698.66,150.8
		c0.9,0,1.67-0.56,1.98-1.01v-1.42c-0.22-0.13-0.72-0.29-1.51-0.29c-1.01,0-1.73,0.5-1.73,1.44
		C697.4,150.24,697.88,150.8,698.66,150.8z"/>
	<path d="M707.5,144.32c1.08,0,1.93,0.43,2.57,1.26c0.13,0.16,0.09,0.38-0.07,0.5l-0.34,0.29c-0.27,0.25-0.36,0.07-0.52-0.07
		c-0.36-0.41-0.95-0.76-1.66-0.76c-1.35,0-2.39,1.12-2.39,2.56c0,1.44,1.03,2.59,2.38,2.59c1.08,0,1.49-0.54,1.91-0.94
		c0.22-0.22,0.34-0.18,0.54-0.04l0.2,0.14c0.18,0.13,0.23,0.32,0.13,0.5c-0.54,0.86-1.53,1.51-2.75,1.51c-2,0-3.69-1.6-3.69-3.76
		C703.79,145.99,705.54,144.32,707.5,144.32z"/>
	<path d="M712.28,139.44c0-0.18,0.16-0.34,0.34-0.34h0.56c0.18,0,0.34,0.16,0.34,0.34v7.8l3.06-2.52c0.14-0.13,0.29-0.22,0.43-0.22
		h0.97c0.31,0,0.29,0.34,0.16,0.45l-3.42,2.74l3.98,3.57c0.14,0.13,0.13,0.45-0.18,0.45h-0.99c-0.16,0-0.29-0.09-0.36-0.14
		l-3.66-3.47v3.28c0,0.18-0.16,0.34-0.34,0.34h-0.56c-0.18,0-0.34-0.16-0.34-0.34V139.44z"/>
	<path d="M724.79,145.58h-0.92c-0.2,0-0.34-0.16-0.34-0.34v-0.4c0-0.2,0.14-0.34,0.34-0.34h0.92v-2c0-0.18,0.16-0.34,0.34-0.34
		l0.58-0.04c0.18,0,0.32,0.16,0.32,0.34v2.03h2.09c0.2,0,0.34,0.14,0.34,0.34v0.4c0,0.18-0.14,0.34-0.34,0.34h-2.09v4.21
		c0,0.72,0.18,0.86,0.59,0.86c0.45,0,1.08-0.27,1.31-0.4c0.27-0.14,0.34-0.04,0.43,0.11l0.27,0.45c0.13,0.22,0.07,0.32-0.13,0.45
		c-0.25,0.16-1.22,0.61-2.07,0.61c-1.44,0-1.66-0.86-1.66-1.98V145.58z"/>
	<path d="M730.5,139.44c0-0.18,0.16-0.34,0.34-0.34h0.56c0.18,0,0.34,0.16,0.34,0.34v5.83c0,0,0.95-0.95,2.41-0.95
		c1.78,0,2.79,1.13,2.79,3.24v3.8c0,0.18-0.16,0.34-0.34,0.34h-0.58c-0.18,0-0.34-0.16-0.34-0.34v-3.8c0-1.37-0.61-2.03-1.62-2.03
		c-1.37,0-2.32,1.01-2.32,1.01v4.83c0,0.18-0.16,0.34-0.34,0.34h-0.56c-0.18,0-0.34-0.16-0.34-0.34V139.44z"/>
	<path d="M742.42,144.32c1.89,0,3.26,1.4,3.26,3.29c0,0.13-0.02,0.36-0.04,0.49c-0.02,0.18-0.16,0.31-0.32,0.31h-5.19
		c0.07,1.21,1.13,2.34,2.41,2.34c0.76,0,1.37-0.29,1.78-0.54c0.25-0.14,0.36-0.23,0.5-0.04c0.11,0.14,0.2,0.27,0.31,0.41
		c0.13,0.16,0.2,0.27-0.07,0.47c-0.43,0.34-1.4,0.83-2.65,0.83c-2.18,0-3.53-1.71-3.53-3.78
		C738.89,146.06,740.24,144.32,742.42,144.32z M744.43,147.4c-0.05-1.04-0.92-1.98-2.02-1.98c-1.21,0-2.14,0.86-2.27,1.98H744.43z"
		/>
	<path d="M751.63,144.84c0-0.18,0.16-0.34,0.34-0.34h0.34c0.16,0,0.25,0.07,0.29,0.22l0.16,0.56c0,0,0.85-0.95,2.34-0.95
		c1.06,0,1.84,0.41,2.3,1.17c0.09-0.07,1.24-1.17,2.68-1.17c2.09,0,2.79,1.37,2.79,3.24v3.8c0,0.18-0.16,0.34-0.34,0.34h-0.58
		c-0.18,0-0.34-0.16-0.34-0.34v-3.8c0-1.35-0.58-2.03-1.62-2.03c-1.17,0-1.94,0.77-2.2,1.01c0.05,0.31,0.09,0.65,0.09,1.03v3.8
		c0,0.18-0.16,0.34-0.34,0.34h-0.58c-0.18,0-0.34-0.16-0.34-0.34v-3.8c0-1.37-0.61-2.03-1.71-2.03c-1.28,0-2.05,1.03-2.05,1.03v4.81
		c0,0.18-0.16,0.34-0.34,0.34h-0.56c-0.18,0-0.34-0.16-0.34-0.34V144.84z"/>
	<path d="M767.71,147.13c0.77,0,1.53,0.23,1.53,0.23c0.02-1.33-0.14-1.95-1.17-1.95c-0.99,0-1.84,0.27-2.16,0.4
		c-0.18,0.07-0.29-0.02-0.34-0.18l-0.14-0.45c-0.07-0.22,0.04-0.32,0.2-0.4c0.11-0.05,1.15-0.47,2.5-0.47
		c1.84,0,2.29,0.94,2.29,3.04v4c0,0.18-0.16,0.34-0.34,0.34h-0.34c-0.2,0-0.25-0.11-0.31-0.27l-0.14-0.49
		c-0.38,0.38-1.12,0.94-2.23,0.94c-1.26,0-2.21-0.92-2.21-2.36C764.82,148.15,765.85,147.13,767.71,147.13z M767.24,150.8
		c0.9,0,1.67-0.56,1.98-1.01v-1.42c-0.22-0.13-0.72-0.29-1.51-0.29c-1.01,0-1.73,0.5-1.73,1.44
		C765.98,150.24,766.46,150.8,767.24,150.8z"/>
	<path d="M772.92,144.84c0-0.2,0.16-0.34,0.34-0.34h0.56c0.18,0,0.34,0.14,0.34,0.34v9.38c0,2.09-1.21,3.06-2.75,3.06
		c-0.99,0-1.66-0.43-1.98-0.74c-0.13-0.11-0.14-0.29-0.07-0.41l0.29-0.47c0.11-0.18,0.29-0.16,0.47-0.02
		c0.23,0.18,0.86,0.52,1.31,0.52c0.83,0,1.49-0.56,1.49-1.94V144.84z M772.69,140.32c0-0.49,0.38-0.87,0.85-0.87
		c0.49,0,0.86,0.38,0.86,0.87c0,0.47-0.38,0.85-0.86,0.85C773.07,141.17,772.69,140.79,772.69,140.32z"/>
	<path d="M779.8,144.32c2,0,3.58,1.73,3.58,3.76c0,2.07-1.58,3.8-3.58,3.8s-3.58-1.73-3.58-3.8
		C776.22,146.05,777.8,144.32,779.8,144.32z M779.8,150.71c1.31,0,2.34-1.17,2.34-2.63c0-1.42-1.03-2.57-2.34-2.57
		s-2.34,1.15-2.34,2.57C777.46,149.54,778.49,150.71,779.8,150.71z"/>
	<path d="M785.42,144.84c0-0.18,0.16-0.34,0.34-0.34h0.34c0.14,0,0.27,0.09,0.31,0.25l0.14,0.52c0,0,0.67-0.95,2.16-0.95
		c0.54,0,1.44,0.09,1.26,0.59l-0.22,0.61c-0.09,0.23-0.25,0.23-0.43,0.16c-0.16-0.07-0.43-0.14-0.7-0.14
		c-1.37,0-1.96,1.01-1.96,1.01v4.81c0,0.18-0.16,0.34-0.34,0.34h-0.56c-0.18,0-0.34-0.16-0.34-0.34V144.84z"/>
	<path d="M791.18,140.32c0-0.49,0.38-0.87,0.85-0.87c0.49,0,0.86,0.38,0.86,0.87c0,0.47-0.38,0.85-0.86,0.85
		C791.55,141.17,791.18,140.79,791.18,140.32z M791.43,144.84c0-0.18,0.16-0.34,0.34-0.34h0.56c0.18,0,0.34,0.16,0.34,0.34v6.52
		c0,0.18-0.16,0.34-0.34,0.34h-0.56c-0.18,0-0.34-0.16-0.34-0.34V144.84z"/>
	<path d="M795.69,145.58h-0.92c-0.2,0-0.34-0.16-0.34-0.34v-0.4c0-0.2,0.14-0.34,0.34-0.34h0.92v-2c0-0.18,0.16-0.34,0.34-0.34
		l0.58-0.04c0.18,0,0.32,0.16,0.32,0.34v2.03h2.09c0.2,0,0.34,0.14,0.34,0.34v0.4c0,0.18-0.14,0.34-0.34,0.34h-2.09v4.21
		c0,0.72,0.18,0.86,0.59,0.86c0.45,0,1.08-0.27,1.31-0.4c0.27-0.14,0.34-0.04,0.43,0.11l0.27,0.45c0.13,0.22,0.07,0.32-0.13,0.45
		c-0.25,0.16-1.22,0.61-2.07,0.61c-1.44,0-1.66-0.86-1.66-1.98V145.58z"/>
	<path d="M800.36,144.89c-0.11-0.23,0-0.4,0.27-0.4h0.79c0.14,0,0.25,0.09,0.31,0.2l2.66,5.51h0.02l2.52-5.51
		c0.05-0.11,0.18-0.2,0.31-0.2h0.68c0.27,0,0.4,0.18,0.27,0.41l-5.53,11.97c-0.05,0.11-0.18,0.22-0.31,0.22h-0.67
		c-0.27,0-0.41-0.2-0.29-0.45l2.3-4.97L800.36,144.89z"/>
	<path d="M811.5,146.46v-0.76c0-2.23,2.7-2.05,2.7-4.09c0-0.85-0.61-1.58-1.78-1.58c-1.46,0-2.12,0.85-2.48,1.22
		c-0.16,0.16-0.31,0.16-0.47,0.02l-0.34-0.31c-0.14-0.13-0.11-0.32,0-0.47c0,0,1.03-1.58,3.29-1.58c1.87,0,3.13,1.1,3.13,2.75
		c0,2.36-2.84,2.56-2.84,4.03v0.74c0,0.25-0.2,0.36-0.38,0.36h-0.49C811.66,146.8,811.5,146.66,811.5,146.46z M812.06,149.83
		c0.58,0,1.03,0.45,1.03,1.03c0,0.56-0.45,1.03-1.03,1.03c-0.56,0-1.03-0.47-1.03-1.03C811.03,150.28,811.5,149.83,812.06,149.83z"
		/>
</g>
</svg>
