<?xml version="1.0" encoding="utf-8"?>
<!-- Generator: Adobe Illustrator 24.1.0, SVG Export Plug-In . SVG Version: 6.00 Build 0)  -->
<svg version="1.1" id="Layer_1" xmlns="http://www.w3.org/2000/svg" xmlns:xlink="http://www.w3.org/1999/xlink" x="0px" y="0px"
	 viewBox="0 0 800 800" style="enable-background:new 0 0 800 800;" xml:space="preserve">
<style type="text/css">
	.st0{fill:#4372B8;}
	.st1{fill:#F16062;}
	.st2{fill:#FFFFFF;}
</style>
<g id="D1ErTO.tif">
	<g>
		<path class="st0" d="M30.81,96.94c121.95,0,243.91,0,365.86,0c0.06,0.81,0.16,1.62,0.16,2.42c0.01,9.85-0.01,19.71,0.01,29.56
			c0.01,4.15,0.08,8.29,0.12,12.44c-0.07,0.5-0.2,1.01-0.2,1.51c-0.01,13.83-0.01,27.67,0,41.5c0,0.5,0.13,1.01,0.2,1.51
			c-0.04,9.25-0.11,18.5-0.12,27.75c-0.01,5.55,0.08,11.1,0.12,16.64c-0.07,0.5-0.2,1.01-0.2,1.51c-0.01,13.83-0.01,27.67,0,41.5
			c0,0.5,0.13,1.01,0.2,1.51c-0.04,9.25-0.11,18.5-0.12,27.75c-0.01,5.55,0.08,11.1,0.12,16.64c-0.07,0.5-0.2,1.01-0.2,1.51
			c-0.01,13.83-0.01,27.67,0,41.5c0,0.5,0.13,1.01,0.2,1.51c-0.04,0.59-0.12,1.17-0.12,1.76c0,14.2,0,28.39,0.01,42.59
			c-0.81,0.02-1.63,0.07-2.44,0.07c-120.31,0-240.63,0-360.94,0.06c-2.27,0-2.72-0.57-2.71-2.76
			C30.81,302.61,30.81,199.77,30.81,96.94z M226.06,165.81c-1.47-4.59-2.76-8.79-4.19-12.95c-0.38-1.11-0.25-1.66,0.73-2.34
			c2.98-2.06,5.89-4.22,8.79-6.38c0.58-0.43,1.42-0.68,1.72-1.67c-4.33,0-8.47-0.07-12.61,0.04c-1.52,0.04-2.19-0.41-2.63-1.89
			c-1.21-4.08-2.62-8.1-4.08-12.51c-1.37,4.19-2.77,7.92-3.77,11.76c-0.56,2.15-1.56,2.75-3.68,2.66
			c-3.93-0.17-7.87-0.05-12.44-0.05c3.9,2.84,7.19,5.34,10.59,7.67c1.31,0.9,1.69,1.65,1.12,3.23c-1.42,3.92-2.6,7.93-4.05,12.44
			c3.73-2.7,7.07-4.98,10.24-7.48c1.44-1.14,2.38-1.29,3.9-0.08C218.92,160.82,222.35,163.13,226.06,165.81z M278.18,193.2
			c4.43,1.55,8.3,3,12.22,4.25c1.61,0.51,2.13,1.24,2.06,2.98c-0.17,4.1-0.06,8.21-0.06,12.6c2.73-3.56,5.38-6.89,7.88-10.34
			c0.8-1.11,1.47-1.26,2.7-0.8c4.04,1.52,8.12,2.91,12.66,4.53c-2.6-3.8-4.79-7.23-7.24-10.45c-1.24-1.63-1.05-2.66,0.18-4.14
			c2.55-3.08,4.88-6.34,7.53-9.84c-0.75,0.17-1.03,0.23-1.3,0.31c-2.62,0.76-5.23,1.53-7.85,2.29c-5.26,1.54-5.26,1.55-8.4-3
			c-1.72-2.48-3.44-4.96-5.15-7.44c-0.23,0.06-0.47,0.13-0.7,0.19c0,4.14-0.09,8.29,0.04,12.43c0.06,1.76-0.62,2.34-2.21,2.76
			C286.55,190.57,282.63,191.86,278.18,193.2z M135.23,213.06c0-4.45,0.11-8.59-0.05-12.71c-0.07-1.76,0.59-2.44,2.12-2.94
			c3.91-1.27,7.77-2.68,12.11-4.2c-2.9-0.9-5.33-1.66-7.77-2.4c-2.19-0.66-5.11-0.66-6.37-2.12c-1.37-1.57-0.38-4.52-0.46-6.86
			c-0.08-2.51-0.02-5.02-0.02-7.52c-0.23-0.01-0.47-0.02-0.7-0.03c-2.38,3.46-4.83,6.87-7.11,10.39c-0.8,1.23-1.54,1.42-2.89,0.99
			c-4.03-1.29-8.11-2.44-12.69-3.79c2.93,3.84,5.47,7.27,8.14,10.61c0.82,1.03,0.92,1.72,0.12,2.83c-2.54,3.52-4.95,7.13-7.69,11.11
			c4.45-1.58,8.48-2.92,12.45-4.45c1.41-0.54,2.17-0.36,3.07,0.9C129.92,206.28,132.55,209.56,135.23,213.06z M102.29,258.26
			c0.14,0.04,0.29,0.09,0.43,0.13c2.56-2.76,5.25-5.41,7.63-8.32c1.55-1.9,2.89-2.04,4.99-0.93c3.38,1.8,6.94,3.29,10.95,5.15
			c-2.36-4.23-4.34-7.93-6.47-11.53c-0.76-1.29-0.71-2.11,0.37-3.21c2.99-3.06,5.85-6.25,9.05-9.71c-4.58,0.91-8.69,1.7-12.79,2.58
			c-1.47,0.31-2.43,0.16-3.14-1.41c-1.04-2.27-2.35-4.43-3.63-6.59c-0.86-1.45-1.4-3.11-2.75-4.44c-0.49,3.95-1.14,7.68-1.35,11.44
			c-0.14,2.5-1,3.54-3.54,3.86c-3.77,0.47-7.49,1.42-11.76,2.27c4.44,2.06,8.3,3.9,12.2,5.63c1.12,0.5,1.51,1.05,1.33,2.33
			C103.22,249.75,102.78,254.01,102.29,258.26z M262.15,325.58c3.39,2,6.3,3.7,9.21,5.42c3.86,2.28,3.83,2.27,2.81,6.74
			c-0.73,3.22-1.39,6.46-2.21,10.31c3.69-3.26,6.87-6.01,9.96-8.85c1.06-0.97,1.86-0.98,3.06-0.23c3.59,2.22,7.27,4.3,11.37,6.7
			c-1.93-4.42-3.6-8.33-5.37-12.19c-0.54-1.17-0.49-1.91,0.56-2.79c3.25-2.76,6.4-5.63,10.1-8.92c-3.4,0.34-6.16,0.57-8.9,0.91
			c-6.09,0.76-6.09,0.78-8.51-4.82c-0.55-1.28-1.09-2.58-1.69-3.84c-0.68-1.42-1.01-3.03-2.17-4.34c-0.97,4.41-1.95,8.64-2.82,12.9
			c-0.23,1.13-0.62,1.57-1.83,1.66C271.39,324.58,267.05,325.08,262.15,325.58z M147.14,309.23c-1.86,4.24-3.61,7.97-5.11,11.8
			c-0.68,1.73-1.43,2.28-3.38,1.99c-3.97-0.6-8.01-0.8-12.63-1.22c3.53,3.15,6.52,5.98,9.7,8.58c1.39,1.14,1.39,2.05,0.71,3.52
			c-1.73,3.71-3.29,7.49-5.15,11.77c3.96-2.33,7.45-4.23,10.77-6.4c1.77-1.16,2.87-0.92,4.34,0.51c2.87,2.79,5.97,5.34,9.32,8.3
			c-1.03-4.7-1.85-8.89-2.89-13.02c-0.37-1.45-0.01-2.13,1.22-2.79c2.4-1.3,4.75-2.69,7.07-4.13c1.29-0.8,2.82-1.31,3.95-2.61
			c-4.39-0.45-8.58-1.01-12.78-1.24c-1.68-0.09-2.04-0.89-2.31-2.19C149.07,317.97,148.15,313.84,147.14,309.23z M337.33,237.53
			c-3.81-0.76-7.21-1.4-10.6-2.11c-4.39-0.93-4.33-0.96-4.8-5.45c-0.34-3.29-0.84-6.56-1.33-10.39c-2.31,4.18-4.38,7.75-6.26,11.41
			c-0.75,1.45-1.63,1.78-3.14,1.45c-4.1-0.9-8.22-1.67-12.85-2.6c3.13,3.36,5.86,6.43,8.76,9.34c1.28,1.28,1.52,2.26,0.53,3.88
			c-2.13,3.49-4.01,7.13-6.29,11.22c4.25-1.96,8.03-3.55,11.66-5.45c1.67-0.87,2.54-0.58,3.7,0.74c2.71,3.09,5.6,6.04,8.74,9.38
			c-0.59-4.7-1.09-8.86-1.66-13.02c-0.19-1.41,0.09-2.22,1.57-2.85C329.29,241.43,333.1,239.52,337.33,237.53z M329.94,296.47
			c-3.62-2.91-6.91-5.61-10.27-8.22c-1.04-0.81-1.25-1.52-0.74-2.76c1.6-3.93,3.06-7.92,4.83-12.52c-4.1,2.69-7.66,4.99-11.18,7.37
			c-1.05,0.71-1.74,0.84-2.84-0.1c-3.31-2.82-6.77-5.45-10.51-8.42c1.21,4.48,2.24,8.54,3.43,12.55c0.45,1.5,0.29,2.36-1.14,3.23
			c-3.56,2.17-7,4.54-11.01,7.18c4.51,0.2,8.39,0.5,12.27,0.5c2.21,0,3.22,0.76,3.7,2.97c0.83,3.84,2.02,7.61,3.16,11.82
			c1.68-4.37,3.26-8.26,4.65-12.22c0.5-1.43,1.15-1.85,2.66-1.83C321.14,296.09,325.31,296.76,329.94,296.47z M145.13,164.27
			c4.56,0.7,8.46,1.57,12.4,1.79c2.48,0.14,2.81,1.4,3.09,3.26c0.59,3.87,1.28,7.72,2.03,12.21c2.08-4.23,3.98-7.81,5.61-11.51
			c0.82-1.88,1.91-2.17,3.75-1.84c3.89,0.7,7.81,1.19,11.74,1.77c0.02-0.33,0.06-0.43,0.03-0.46c-2.32-2.28-4.65-4.56-6.98-6.84
			c-3.24-3.18-3.23-3.17-1.18-7.34c1.46-2.97,2.9-5.95,4.42-9.08c-0.42,0.03-0.51,0.01-0.57,0.05c-2.62,1.35-5.24,2.7-7.86,4.06
			c-4.79,2.5-4.79,2.5-8.66-1.25c-2.18-2.11-4.36-4.22-6.98-6.77c0.83,4.83,1.49,8.98,2.29,13.11c0.25,1.29,0.04,1.97-1.21,2.59
			C153.22,159.93,149.47,161.98,145.13,164.27z M243.58,373.33c0.38-4.86,0.79-9.04,0.98-13.22c0.07-1.47,0.57-1.97,1.96-2.27
			c4.17-0.92,8.29-2.03,12.81-3.16c-0.64-0.28-0.84-0.37-1.04-0.45c-2.86-1.17-5.73-2.33-8.59-3.49c-4.52-1.84-4.47-1.83-3.95-6.82
			c0.33-3.17,0.45-6.35,0.71-10.11c-3.09,3.67-5.79,6.8-8.39,10.01c-0.97,1.19-1.8,1.52-3.32,0.84c-3.8-1.7-7.71-3.17-12.1-4.94
			c2.33,3.75,4.19,7.1,6.41,10.19c1.45,2,1.24,3.32-0.37,5.04c-2.63,2.82-5.02,5.86-7.81,9.16c4.75-1.14,8.99-2.05,13.17-3.21
			c1.31-0.36,1.81-0.01,2.43,1.01C238.69,365.55,240.98,369.15,243.58,373.33z M137.09,294.76c-4.07-2.67-7.65-5.09-11.3-7.39
			c-1.05-0.66-1.34-1.25-0.97-2.48c1.22-4.16,2.29-8.36,3.57-13.08c-3.12,2.5-5.81,4.66-8.52,6.8c-3.38,2.66-3.39,2.64-6.94,0.31
			c-2.83-1.86-5.68-3.7-9.02-5.88c1.45,3.86,2.65,7.09,3.87,10.31c1.45,3.86,1.44,3.84-1.69,6.34c-2.72,2.17-5.4,4.37-7.9,6.39
			c4.13,0,8.27,0.1,12.4-0.05c1.65-0.06,2.34,0.51,2.85,1.98c1.14,3.34,2.41,6.64,3.71,9.93c0.2,0.5,0.06,1.39,1.02,1.46
			c1.1-4.01,2.29-7.96,3.25-11.96c0.36-1.52,1.04-2.02,2.52-2.06C128.13,295.24,132.32,294.99,137.09,294.76z M271.53,142.86
			c-0.22-0.14-0.45-0.28-0.67-0.43c-2.8,2.95-5.66,5.83-8.35,8.87c-1.22,1.38-2.19,1.45-3.75,0.56c-3.53-2.01-7.19-3.81-11.36-5.99
			c1.95,3.98,3.45,7.41,5.28,10.65c1.19,2.11,1.19,3.44-0.79,5.15c-2.86,2.47-5.33,5.39-8.15,8.32c4.1-0.61,7.99-1.11,11.84-1.79
			c1.8-0.32,2.93-0.12,3.77,1.8c1.64,3.76,3.59,7.38,5.6,11.45c0.83-4.74,1.66-9.01,2.28-13.32c0.2-1.43,0.77-1.76,2.09-1.92
			c4.22-0.53,8.41-1.22,12.66-1.87c-0.34-0.81-1.07-0.91-1.62-1.2c-3.25-1.74-6.5-3.48-9.79-5.15c-1.02-0.52-1.5-0.92-1.22-2.3
			C270.22,151.46,270.83,147.15,271.53,142.86z M183.97,372.61c0.15,0.03,0.3,0.06,0.45,0.08c2.15-3.43,4.41-6.79,6.39-10.31
			c0.91-1.61,1.82-1.83,3.47-1.38c3.96,1.1,7.98,2.01,12.49,3.13c-3.07-3.65-5.76-6.96-8.59-10.14c-0.94-1.06-1.09-1.76-0.28-2.99
			c2.34-3.55,4.52-7.2,7.08-11.32c-4.17,1.69-7.88,3.04-11.44,4.71c-1.93,0.9-3.1,0.79-4.35-1.04c-1.33-1.94-2.99-3.66-4.55-5.44
			c-1.08-1.23-1.97-2.66-3.44-3.75c0.29,4.35,0.45,8.49,0.89,12.6c0.19,1.73-0.32,2.46-1.88,3.05c-3.86,1.45-7.65,3.08-11.99,4.84
			c4.64,1.16,8.69,2.26,12.79,3.15c1.4,0.3,1.96,0.83,2.04,2.27C183.28,364.26,183.65,368.44,183.97,372.61z"/>
		<path class="st1" d="M769.2,497.05c-245.16,0-490.32,0-735.48,0c-2.92,0-2.92,0-2.92-2.89c0-13.11,0.04-26.23-0.05-39.34
			c-0.01-1.88,0.48-2.27,2.3-2.27c78.39,0.05,156.77,0.04,235.16,0.04c167,0,333.99,0,500.99,0
			C769.2,467.42,769.2,482.24,769.2,497.05z"/>
		<path class="st1" d="M769.2,585.97c-245.16,0-490.32,0-735.48,0c-2.92,0-2.92,0-2.92-2.89c0-13.11,0.04-26.23-0.05-39.34
			c-0.01-1.88,0.48-2.27,2.3-2.27c78.39,0.05,156.77,0.04,235.16,0.04c167,0,333.99,0,500.99,0
			C769.2,556.33,769.2,571.15,769.2,585.97z"/>
		<path class="st1" d="M769.2,674.89c-245.16,0-490.32,0-735.48,0c-2.92,0-2.92,0-2.92-2.89c0-13.11,0.04-26.23-0.05-39.34
			c-0.01-1.88,0.48-2.27,2.3-2.27c78.98,0.05,157.96,0.04,236.94,0.04c166.4,0,332.81,0,499.21,0
			C769.2,645.25,769.2,660.07,769.2,674.89z"/>
		<path class="st1" d="M396.97,141.36c-0.04-4.15-0.12-8.29-0.12-12.44c-0.02-9.85,0-19.71-0.01-29.56c0-0.81-0.1-1.62-0.16-2.42
			c123.51,0,247.02,0,370.53-0.04c1.67,0,2.05,0.37,2.04,2.04c-0.08,14.15-0.04,28.3-0.04,42.46c-123.19,0-246.38,0-369.57,0
			C398.74,141.39,397.86,141.37,396.97,141.36z"/>
		<path class="st2" d="M396.97,141.36c0.89,0.01,1.78,0.03,2.67,0.03c123.19,0,246.38,0,369.57,0c0,14.82,0,29.64,0,44.46
			c-123.19,0-246.38,0-369.57,0c-0.89,0-1.78,0.02-2.67,0.03c-0.07-0.5-0.2-1.01-0.2-1.51c-0.01-13.83-0.01-27.67,0-41.5
			C396.77,142.37,396.9,141.86,396.97,141.36z"/>
		<path class="st1" d="M396.97,185.88c0.89-0.01,1.78-0.03,2.67-0.03c123.19,0,246.38,0,369.57,0c0,14.82,0,29.64,0,44.46
			c-123.19,0-246.38,0-369.57,0c-0.89,0-1.78-0.02-2.67-0.03c-0.04-5.55-0.13-11.1-0.12-16.64
			C396.86,204.38,396.92,195.13,396.97,185.88z"/>
		<path class="st2" d="M396.97,230.27c0.89,0.01,1.78,0.03,2.67,0.03c123.19,0,246.38,0,369.57,0c0,14.82,0,29.64,0,44.46
			c-123.19,0-246.38,0-369.57,0c-0.89,0-1.78,0.02-2.67,0.03c-0.07-0.5-0.2-1.01-0.2-1.51c-0.01-13.83-0.01-27.67,0-41.5
			C396.77,231.28,396.9,230.78,396.97,230.27z"/>
		<path class="st1" d="M396.97,274.8c0.89-0.01,1.78-0.03,2.67-0.03c123.19,0,246.38,0,369.57,0c0,14.82,0,29.64,0,44.46
			c-123.19,0-246.38,0-369.57,0c-0.89,0-1.78-0.02-2.67-0.03c-0.04-5.55-0.13-11.1-0.12-16.64
			C396.86,293.3,396.92,284.05,396.97,274.8z"/>
		<path class="st2" d="M396.97,319.19c0.89,0.01,1.78,0.03,2.67,0.03c123.19,0,246.38,0,369.57,0c0,14.82,0,29.64,0,44.46
			c-123.19,0-246.38,0-369.57,0c-0.89,0-1.78,0.02-2.67,0.03c-0.07-0.5-0.2-1.01-0.2-1.51c-0.01-13.83-0.01-27.67,0-41.5
			C396.77,320.2,396.9,319.69,396.97,319.19z"/>
		<path class="st1" d="M396.97,363.72c0.89-0.01,1.78-0.03,2.67-0.03c123.19,0,246.38,0,369.57,0c0,14.82,0,29.64,0,44.46
			c-123.16,0-246.31,0-369.47,0c-0.96,0-1.92-0.05-2.88-0.07c0-14.2-0.01-28.39-0.01-42.59
			C396.84,364.89,396.92,364.3,396.97,363.72z"/>
		<path class="st2" d="M226.06,165.81c-3.71-2.68-7.14-4.99-10.36-7.56c-1.52-1.21-2.46-1.06-3.9,0.08
			c-3.17,2.5-6.51,4.78-10.24,7.48c1.45-4.51,2.63-8.52,4.05-12.44c0.57-1.58,0.19-2.34-1.12-3.23c-3.4-2.33-6.68-4.82-10.59-7.67
			c4.57,0,8.52-0.12,12.44,0.05c2.12,0.09,3.11-0.5,3.68-2.66c1.01-3.84,2.4-7.57,3.77-11.76c1.45,4.41,2.86,8.43,4.08,12.51
			c0.44,1.48,1.11,1.93,2.63,1.89c4.14-0.11,8.28-0.04,12.61-0.04c-0.31,0.99-1.14,1.24-1.72,1.67c-2.9,2.16-5.81,4.33-8.79,6.38
			c-0.98,0.67-1.11,1.22-0.73,2.34C223.3,157.02,224.59,161.22,226.06,165.81z"/>
		<path class="st2" d="M278.18,193.2c4.45-1.34,8.37-2.63,12.36-3.68c1.59-0.42,2.27-1,2.21-2.76c-0.14-4.14-0.04-8.29-0.04-12.43
			c0.23-0.06,0.47-0.13,0.7-0.19c1.72,2.48,3.44,4.96,5.15,7.44c3.14,4.54,3.14,4.54,8.4,3c2.62-0.77,5.23-1.53,7.85-2.29
			c0.27-0.08,0.55-0.13,1.3-0.31c-2.65,3.5-4.98,6.76-7.53,9.84c-1.23,1.49-1.42,2.52-0.18,4.14c2.45,3.22,4.64,6.65,7.24,10.45
			c-4.54-1.61-8.63-3.01-12.66-4.53c-1.23-0.46-1.9-0.31-2.7,0.8c-2.5,3.44-5.14,6.77-7.88,10.34c0-4.39-0.12-8.5,0.06-12.6
			c0.07-1.74-0.45-2.47-2.06-2.98C286.47,196.2,282.61,194.75,278.18,193.2z"/>
		<path class="st2" d="M135.23,213.06c-2.69-3.51-5.31-6.79-7.76-10.2c-0.9-1.26-1.66-1.44-3.07-0.9
			c-3.96,1.53-7.99,2.87-12.45,4.45c2.74-3.98,5.15-7.6,7.69-11.11c0.8-1.11,0.7-1.8-0.12-2.83c-2.66-3.33-5.2-6.77-8.14-10.61
			c4.58,1.36,8.66,2.5,12.69,3.79c1.34,0.43,2.08,0.25,2.89-0.99c2.29-3.52,4.73-6.93,7.11-10.39c0.23,0.01,0.47,0.02,0.7,0.03
			c0,2.51-0.06,5.02,0.02,7.52c0.08,2.34-0.91,5.29,0.46,6.86c1.26,1.45,4.19,1.46,6.37,2.12c2.44,0.74,4.87,1.5,7.77,2.4
			c-4.33,1.51-8.2,2.92-12.11,4.2c-1.53,0.5-2.19,1.18-2.12,2.94C135.35,204.48,135.23,208.62,135.23,213.06z"/>
		<path class="st2" d="M102.29,258.26c0.49-4.25,0.93-8.51,1.51-12.75c0.18-1.27-0.21-1.83-1.33-2.33c-3.9-1.73-7.76-3.57-12.2-5.63
			c4.27-0.85,7.99-1.8,11.76-2.27c2.54-0.32,3.4-1.36,3.54-3.86c0.21-3.75,0.86-7.48,1.35-11.44c1.35,1.33,1.9,2.99,2.75,4.44
			c1.28,2.16,2.59,4.31,3.63,6.59c0.72,1.57,1.67,1.72,3.14,1.41c4.1-0.88,8.21-1.66,12.79-2.58c-3.21,3.46-6.06,6.66-9.05,9.71
			c-1.08,1.1-1.13,1.92-0.37,3.21c2.13,3.61,4.11,7.3,6.47,11.53c-4.01-1.87-7.57-3.35-10.95-5.15c-2.09-1.12-3.43-0.97-4.99,0.93
			c-2.38,2.91-5.07,5.56-7.63,8.32C102.58,258.35,102.43,258.31,102.29,258.26z"/>
		<path class="st2" d="M262.15,325.58c4.9-0.5,9.23-1,13.58-1.35c1.21-0.1,1.6-0.54,1.83-1.66c0.87-4.26,1.85-8.5,2.82-12.9
			c1.16,1.31,1.49,2.92,2.17,4.34c0.6,1.26,1.14,2.55,1.69,3.84c2.42,5.6,2.41,5.58,8.51,4.82c2.74-0.34,5.5-0.56,8.9-0.91
			c-3.7,3.29-6.85,6.16-10.1,8.92c-1.04,0.89-1.09,1.62-0.56,2.79c1.77,3.86,3.43,7.77,5.37,12.19c-4.11-2.41-7.78-4.48-11.37-6.7
			c-1.2-0.74-2-0.74-3.06,0.23c-3.09,2.85-6.28,5.59-9.96,8.85c0.82-3.85,1.48-7.09,2.21-10.31c1.02-4.47,1.04-4.47-2.81-6.74
			C268.45,329.29,265.54,327.58,262.15,325.58z"/>
		<path class="st2" d="M147.14,309.23c1.01,4.61,1.93,8.74,2.81,12.88c0.28,1.3,0.63,2.1,2.31,2.19c4.2,0.23,8.39,0.79,12.78,1.24
			c-1.13,1.31-2.66,1.81-3.95,2.61c-2.32,1.44-4.67,2.83-7.07,4.13c-1.22,0.66-1.58,1.34-1.22,2.79c1.05,4.13,1.87,8.32,2.89,13.02
			c-3.35-2.96-6.45-5.51-9.32-8.3c-1.47-1.43-2.56-1.67-4.34-0.51c-3.32,2.17-6.81,4.07-10.77,6.4c1.86-4.28,3.42-8.06,5.15-11.77
			c0.69-1.47,0.68-2.39-0.71-3.52c-3.18-2.6-6.16-5.43-9.7-8.58c4.62,0.42,8.65,0.62,12.63,1.22c1.95,0.29,2.7-0.26,3.38-1.99
			C143.54,317.21,145.29,313.48,147.14,309.23z"/>
		<path class="st2" d="M337.33,237.53c-4.23,1.99-8.04,3.89-11.96,5.55c-1.48,0.63-1.77,1.44-1.57,2.85
			c0.57,4.16,1.07,8.32,1.66,13.02c-3.14-3.35-6.02-6.29-8.74-9.38c-1.16-1.32-2.04-1.61-3.7-0.74c-3.62,1.9-7.41,3.49-11.66,5.45
			c2.27-4.1,4.16-7.73,6.29-11.22c0.99-1.63,0.75-2.6-0.53-3.88c-2.9-2.91-5.63-5.98-8.76-9.34c4.63,0.93,8.75,1.7,12.85,2.6
			c1.52,0.33,2.4,0,3.14-1.45c1.89-3.66,3.95-7.23,6.26-11.41c0.5,3.83,0.99,7.1,1.33,10.39c0.46,4.49,0.41,4.52,4.8,5.45
			C330.12,236.14,333.52,236.78,337.33,237.53z"/>
		<path class="st2" d="M329.94,296.47c-4.63,0.29-8.8-0.38-12.99-0.44c-1.51-0.02-2.16,0.39-2.66,1.83
			c-1.38,3.96-2.97,7.84-4.65,12.22c-1.15-4.21-2.33-7.98-3.16-11.82c-0.48-2.21-1.49-2.97-3.7-2.97c-3.88,0-7.77-0.3-12.27-0.5
			c4.01-2.64,7.45-5.01,11.01-7.18c1.43-0.87,1.59-1.73,1.14-3.23c-1.2-4.01-2.22-8.07-3.43-12.55c3.74,2.97,7.21,5.61,10.51,8.42
			c1.1,0.94,1.8,0.81,2.84,0.1c3.51-2.37,7.07-4.67,11.18-7.37c-1.76,4.6-3.23,8.59-4.83,12.52c-0.51,1.24-0.3,1.95,0.74,2.76
			C323.04,290.86,326.32,293.56,329.94,296.47z"/>
		<path class="st2" d="M145.13,164.27c4.35-2.29,8.09-4.34,11.91-6.24c1.25-0.62,1.46-1.3,1.21-2.59c-0.8-4.13-1.46-8.28-2.29-13.11
			c2.63,2.55,4.8,4.66,6.98,6.77c3.88,3.75,3.88,3.75,8.66,1.25c2.61-1.36,5.24-2.71,7.86-4.06c0.06-0.03,0.15-0.01,0.57-0.05
			c-1.52,3.13-2.96,6.11-4.42,9.08c-2.05,4.17-2.06,4.16,1.18,7.34c2.33,2.28,4.66,4.56,6.98,6.84c0.03,0.03,0,0.13-0.03,0.46
			c-3.93-0.58-7.85-1.07-11.74-1.77c-1.84-0.33-2.93-0.04-3.75,1.84c-1.62,3.7-3.52,7.27-5.61,11.51
			c-0.76-4.49-1.45-8.35-2.03-12.21c-0.28-1.87-0.61-3.12-3.09-3.26C153.59,165.84,149.68,164.97,145.13,164.27z"/>
		<path class="st2" d="M243.58,373.33c-2.6-4.17-4.88-7.78-7.09-11.43c-0.61-1.02-1.12-1.37-2.43-1.01
			c-4.18,1.16-8.43,2.07-13.17,3.21c2.79-3.3,5.18-6.34,7.81-9.16c1.61-1.72,1.82-3.04,0.37-5.04c-2.23-3.09-4.08-6.44-6.41-10.19
			c4.39,1.77,8.29,3.24,12.1,4.94c1.52,0.68,2.35,0.35,3.32-0.84c2.6-3.21,5.3-6.34,8.39-10.01c-0.26,3.76-0.39,6.94-0.71,10.11
			c-0.51,4.99-0.57,4.98,3.95,6.82c2.86,1.16,5.73,2.33,8.59,3.49c0.2,0.08,0.4,0.17,1.04,0.45c-4.52,1.13-8.65,2.23-12.81,3.16
			c-1.39,0.31-1.89,0.8-1.96,2.27C244.36,364.29,243.95,368.47,243.58,373.33z"/>
		<path class="st2" d="M137.09,294.76c-4.77,0.23-8.96,0.48-13.16,0.6c-1.49,0.04-2.16,0.54-2.52,2.06
			c-0.96,4.01-2.14,7.96-3.25,11.96c-0.96-0.08-0.82-0.97-1.02-1.46c-1.3-3.29-2.57-6.59-3.71-9.93c-0.5-1.47-1.2-2.04-2.85-1.98
			c-4.13,0.16-8.26,0.05-12.4,0.05c2.49-2.02,5.18-4.22,7.9-6.39c3.13-2.5,3.14-2.48,1.69-6.34c-1.21-3.22-2.42-6.45-3.87-10.31
			c3.34,2.18,6.19,4.02,9.02,5.88c3.56,2.34,3.56,2.36,6.94-0.31c2.71-2.13,5.39-4.3,8.52-6.8c-1.27,4.72-2.35,8.92-3.57,13.08
			c-0.36,1.24-0.08,1.82,0.97,2.48C129.44,289.67,133.02,292.09,137.09,294.76z"/>
		<path class="st2" d="M271.53,142.86c-0.71,4.29-1.31,8.6-2.18,12.85c-0.28,1.37,0.2,1.78,1.22,2.3c3.29,1.67,6.54,3.41,9.79,5.15
			c0.56,0.3,1.28,0.39,1.62,1.2c-4.26,0.64-8.45,1.34-12.66,1.87c-1.32,0.16-1.88,0.49-2.09,1.92c-0.61,4.3-1.45,8.57-2.28,13.32
			c-2.01-4.07-3.97-7.69-5.6-11.45c-0.84-1.92-1.97-2.12-3.77-1.8c-3.85,0.68-7.73,1.18-11.84,1.79c2.82-2.92,5.29-5.85,8.15-8.32
			c1.99-1.71,1.98-3.05,0.79-5.15c-1.83-3.25-3.33-6.68-5.28-10.65c4.18,2.18,7.83,3.98,11.36,5.99c1.56,0.89,2.53,0.82,3.75-0.56
			c2.69-3.04,5.56-5.92,8.35-8.87C271.09,142.58,271.31,142.72,271.53,142.86z"/>
		<path class="st2" d="M183.97,372.61c-0.32-4.18-0.69-8.35-0.92-12.53c-0.08-1.44-0.64-1.96-2.04-2.27
			c-4.1-0.89-8.15-1.99-12.79-3.15c4.33-1.76,8.13-3.39,11.99-4.84c1.56-0.59,2.07-1.32,1.88-3.05c-0.45-4.11-0.6-8.25-0.89-12.6
			c1.47,1.09,2.36,2.52,3.44,3.75c1.56,1.78,3.22,3.49,4.55,5.44c1.25,1.82,2.42,1.94,4.35,1.04c3.56-1.66,7.27-3.01,11.44-4.71
			c-2.56,4.12-4.74,7.77-7.08,11.32c-0.81,1.23-0.67,1.92,0.28,2.99c2.83,3.18,5.52,6.49,8.59,10.14
			c-4.51-1.12-8.52-2.03-12.49-3.13c-1.64-0.45-2.56-0.24-3.47,1.38c-1.98,3.52-4.24,6.88-6.39,10.31
			C184.27,372.67,184.12,372.64,183.97,372.61z"/>
	</g>
</g>
<g>
	<path d="M66.67,8.07c15.25,0,25.73,9.44,25.73,23.31c0,8.63-3.91,15.54-17.15,29.99l-19.57,21.3v0.98h38.04v9.21H41.17v-7.02
		l28.09-31.25c10.53-11.8,13.07-16.23,13.07-22.79c0-8.92-6.27-14.79-15.94-14.79c-9.55,0-15.89,6.39-15.89,16.17v0.35h-9.78v-0.35
		C40.71,18.55,51.53,8.07,66.67,8.07z"/>
	<path d="M112.09,51.35c0-27.97,9.96-43.4,28.03-43.4c18.02,0,28.03,15.43,28.03,43.4s-10.01,43.4-28.03,43.4
		C122.04,94.75,112.09,79.33,112.09,51.35z M122.56,60.5l33.5-27.97c-2.71-10.3-8.12-15.6-15.94-15.6
		c-11.74,0-17.96,11.86-17.96,34.42C122.16,54.63,122.33,57.68,122.56,60.5z M158.02,51.35c0-3.34-0.12-6.39-0.4-9.27l-33.38,28.2
		c2.71,10.19,8.06,15.48,15.89,15.48C151.86,85.77,158.02,73.86,158.02,51.35z"/>
	<path d="M212.41,8.07c15.25,0,25.73,9.44,25.73,23.31c0,8.63-3.91,15.54-17.15,29.99l-19.57,21.3v0.98h38.04v9.21h-52.55v-7.02
		L215,54.58c10.53-11.8,13.07-16.23,13.07-22.79c0-8.92-6.27-14.79-15.94-14.79c-9.55,0-15.89,6.39-15.89,16.17v0.35h-9.78v-0.35
		C186.46,18.55,197.28,8.07,212.41,8.07z"/>
	<path d="M257.83,51.35c0-27.97,9.96-43.4,28.03-43.4c18.02,0,28.03,15.43,28.03,43.4s-10.01,43.4-28.03,43.4
		C267.79,94.75,257.83,79.33,257.83,51.35z M268.31,60.5l33.5-27.97c-2.71-10.3-8.12-15.6-15.94-15.6
		c-11.74,0-17.96,11.86-17.96,34.42C267.91,54.63,268.08,57.68,268.31,60.5z M303.76,51.35c0-3.34-0.12-6.39-0.4-9.27l-33.38,28.2
		c2.71,10.19,8.06,15.48,15.88,15.48C297.61,85.77,303.76,73.86,303.76,51.35z"/>
</g>
<g>
	<path d="M175.66,768.27h-49.04v-83.05h49.04v9.32h-38.85v26.94h36.72v8.92h-36.72v28.55h38.85V768.27z"/>
	<path d="M250.84,768.27H201.4v-83.05h10.07v73.61h39.37V768.27z"/>
	<path d="M321.41,768.27h-49.04v-83.05h49.04v9.32h-38.85v26.94h36.72v8.92h-36.72v28.55h38.85V768.27z"/>
	<path d="M388.7,743.06h10.25c0,16.06-11.63,26.94-28.61,26.94c-19.51,0-30.85-13.18-30.85-35.86v-14.79
		c0-22.68,11.34-35.86,30.85-35.86c17.5,0,28.32,10.65,28.66,28.38h-10.3c-0.34-11.22-7.77-18.76-18.42-18.76
		c-13.41,0-20.43,9.04-20.43,26.25v14.79c0,17.21,7.02,26.25,20.49,26.25C381.39,760.39,388.41,753.77,388.7,743.06z"/>
	<path d="M436.25,768.27v-73.73h-25.09v-9.32h60.32v9.32h-25.09v73.73H436.25z"/>
	<path d="M492.32,768.27v-9.04h16.81v-64.98h-16.81v-9.04h43.74v9.04h-16.81v64.98h16.81v9.04H492.32z"/>
	<path d="M587.06,770c-18.88,0-30.45-13.58-30.45-36.55v-13.41c0-22.96,11.57-36.55,30.45-36.55c18.88,0,30.45,13.58,30.45,36.55
		v13.41C617.51,756.41,605.94,770,587.06,770z M607.26,733.39V720.1c0-17.33-7.6-26.99-20.2-26.99c-12.6,0-20.2,9.67-20.2,26.99
		v13.29c0,17.32,7.6,26.99,20.2,26.99C599.67,760.39,607.26,750.72,607.26,733.39z"/>
	<path d="M632.31,768.27v-83.05h9.73l35.57,64.64h0.81v-64.64h9.15v83.05h-9.61l-35.68-64.81h-0.81v64.81H632.31z"/>
	<path d="M714.27,746.17c1.04,9.09,8.35,14.62,19.4,14.62s18.3-5.75,18.3-14.68c0-7.19-4.83-11.51-16.06-14.27l-7.14-1.78
		c-15.42-3.91-22.39-11.22-22.39-23.25c0-14.16,10.65-23.31,27.22-23.31c15.66,0,26.42,9.04,27.11,22.85h-9.9
		c-1.04-8.58-7.37-13.64-17.15-13.64c-10.65,0-17.04,5.07-17.04,13.53c0,7.19,4.6,11.34,15.42,14.04l7.25,1.84
		c16.12,3.97,22.91,10.99,22.91,23.48c0,14.91-11.22,24.4-28.6,24.4c-17.15,0-28.38-9.09-29.24-23.83H714.27z"/>
</g>
</svg>
