<?xml version="1.0" encoding="utf-8"?>
<!-- Generator: Adobe Illustrator 24.0.1, SVG Export Plug-In . SVG Version: 6.00 Build 0)  -->
<svg version="1.1" id="Layer_1" xmlns="http://www.w3.org/2000/svg" xmlns:xlink="http://www.w3.org/1999/xlink" x="0px" y="0px"
	 viewBox="0 0 776.49 551.3" enable-background="new 0 0 776.49 551.3" xml:space="preserve">
<g>
	<path d="M27.53,77.68c4.99-6.04,14.5-18.43,19.56-25.15c2.34-2.87,3.85-5.82,3.85-8.38c0-3.4-2.57-6.87-8.01-6.87
		c-3.63,0-6.72,2.57-8.46,4.46c-0.6,0.6-1.44,0.6-2.04,0l-3.63-3.63c-0.45-0.45-0.6-1.36-0.08-1.96c0,0,5.89-7.4,14.88-7.4
		c10.8,0,16.84,6.87,16.84,15.03c0,4.91-2.11,8.01-5.06,12.24c-3.25,4.61-8.99,11.71-12.99,16.77h16.31c0.76,0,1.44,0.68,1.44,1.44
		v5.21c0,0.76-0.68,1.44-1.44,1.44H28.96c-0.83,0-1.44-0.68-1.44-1.44V77.68z"/>
	<path d="M68.92,55.17c0-16.54,6.95-26.44,19.03-26.44s19.03,9.89,19.03,26.44c0,16.54-6.95,26.44-19.03,26.44
		S68.92,71.71,68.92,55.17z M97.09,55.17c0-11.18-3.32-17.52-9.14-17.52s-9.14,6.34-9.14,17.52c0,11.25,3.32,17.52,9.14,17.52
		S97.09,66.42,97.09,55.17z"/>
	<path d="M113.55,77.68c4.99-6.04,14.5-18.43,19.56-25.15c2.34-2.87,3.85-5.82,3.85-8.38c0-3.4-2.57-6.87-8.01-6.87
		c-3.63,0-6.72,2.57-8.46,4.46c-0.6,0.6-1.44,0.6-2.04,0l-3.63-3.63c-0.45-0.45-0.6-1.36-0.08-1.96c0,0,5.89-7.4,14.88-7.4
		c10.8,0,16.84,6.87,16.84,15.03c0,4.91-2.11,8.01-5.06,12.24c-3.25,4.61-8.99,11.71-12.99,16.77h16.31c0.76,0,1.44,0.68,1.44,1.44
		v5.21c0,0.76-0.68,1.44-1.44,1.44h-29.76c-0.83,0-1.44-0.68-1.44-1.44V77.68z"/>
	<path d="M154.94,55.17c0-16.54,6.95-26.44,19.03-26.44s19.03,9.89,19.03,26.44c0,16.54-6.95,26.44-19.03,26.44
		S154.94,71.71,154.94,55.17z M183.11,55.17c0-11.18-3.32-17.52-9.14-17.52s-9.14,6.34-9.14,17.52c0,11.25,3.32,17.52,9.14,17.52
		S183.11,66.42,183.11,55.17z"/>
	<path d="M218.08,73.45l2.72-4.68c0.6-1.06,1.89-1.06,2.57-0.53c0.38,0.23,6.5,4.68,11.41,4.68c3.93,0,6.87-2.57,6.87-5.82
		c0-3.85-3.25-6.5-9.59-9.06c-7.1-2.87-14.2-7.4-14.2-16.31c0-6.72,4.99-14.5,16.99-14.5c7.7,0,13.6,3.93,15.11,5.06
		c0.76,0.45,0.98,1.74,0.45,2.49l-2.87,4.31c-0.6,0.91-1.74,1.51-2.64,0.91c-0.6-0.38-6.34-4.15-10.5-4.15
		c-4.31,0-6.65,2.87-6.65,5.29c0,3.55,2.79,5.97,8.91,8.46c7.33,2.95,15.79,7.33,15.79,17.07c0,7.78-6.72,14.96-17.37,14.96
		c-9.52,0-15.11-4.46-16.62-5.89C217.78,75.03,217.4,74.65,218.08,73.45z"/>
	<path d="M272.46,49.88c7.78,0,14.12,5.89,14.12,14.05c0,0.53-0.08,1.51-0.15,2.04c-0.08,0.75-0.76,1.28-1.44,1.28h-19.34
		c0.23,3.1,2.87,6.57,7.25,6.57c2.34,0,4.53-0.91,5.89-1.89c0.75-0.45,1.44-0.6,1.96,0l3.1,3.55c0.53,0.53,0.68,1.36-0.08,1.96
		c-2.49,2.34-6.34,4.15-11.25,4.15c-9.06,0-15.48-7.18-15.48-15.86C257.05,57.21,263.47,49.88,272.46,49.88z M277.75,61.96
		c-0.23-2.79-2.64-5.14-5.51-5.14c-3.02,0-5.51,2.27-5.89,5.14H277.75z"/>
	<path d="M292.92,52.07c0-0.83,0.68-1.44,1.44-1.44h2.87c0.68,0,1.06,0.38,1.28,0.91l1.06,2.79c1.13-1.21,4.83-4.46,10.65-4.46
		c9.59,0,13.44,7.18,13.44,15.03v14.5c0,0.76-0.68,1.44-1.44,1.44h-6.19c-0.83,0-1.44-0.68-1.44-1.44V64.46
		c0-3.93-2.04-6.42-5.67-6.42c-3.93,0-6.34,2.72-7.1,4.76v16.62c0,1.06-0.45,1.44-1.89,1.44h-5.59c-0.76,0-1.44-0.68-1.44-1.44
		V52.07z"/>
	<path d="M342.02,61.74c3.02,0,5.51,0.83,5.51,0.83c0.08-3.85-1.13-5.21-3.93-5.21c-2.79,0-6.72,0.6-8.46,1.13
		c-1.06,0.3-1.59-0.38-1.74-1.36l-0.68-3.93c-0.23-1.13,0.38-1.66,1.06-1.89c0.6-0.23,5.44-1.44,10.27-1.44
		c9.44,0,11.63,4.91,11.63,13.14v16.39c0,0.76-0.68,1.44-1.44,1.44h-2.72c-0.53,0-0.91-0.23-1.28-1.06l-0.91-2.04
		c-1.74,1.59-4.53,3.85-9.21,3.85c-6.04,0-10.2-3.93-10.2-10.35C329.93,65.89,334.31,61.74,342.02,61.74z M342.17,75.18
		c2.42,0,4.76-2.04,5.21-2.95v-4.15c0,0-2.04-0.91-4.23-0.91c-2.95,0-4.91,1.66-4.91,4.08C338.24,73.52,339.83,75.18,342.17,75.18z"
		/>
	<path d="M365.96,58.57h-2.57c-0.76,0-1.36-0.68-1.36-1.44v-5.06c0-0.83,0.6-1.44,1.36-1.44h2.57v-8.38c0-0.76,0.68-1.44,1.44-1.44
		l6.19-0.08c0.76,0,1.36,0.68,1.36,1.44v8.46h6.65c0.83,0,1.44,0.6,1.44,1.44v5.06c0,0.76-0.6,1.44-1.44,1.44h-6.65v12.08
		c0,2.11,1.13,2.42,2.34,2.42c1.28,0,2.87-0.53,3.7-0.83c0.83-0.3,1.44,0.08,1.66,0.83l1.51,4.76c0.3,0.75-0.08,1.51-0.83,1.81
		c-0.38,0.23-5.29,1.96-8.99,1.96c-5.82,0-8.38-3.63-8.38-9.74V58.57z"/>
	<path d="M403.57,49.88c7.78,0,14.12,5.89,14.12,14.05c0,0.53-0.08,1.51-0.15,2.04c-0.08,0.75-0.76,1.28-1.44,1.28h-19.34
		c0.23,3.1,2.87,6.57,7.25,6.57c2.34,0,4.53-0.91,5.89-1.89c0.75-0.45,1.44-0.6,1.96,0l3.1,3.55c0.53,0.53,0.68,1.36-0.08,1.96
		c-2.49,2.34-6.34,4.15-11.25,4.15c-9.06,0-15.48-7.18-15.48-15.86C388.16,57.21,394.58,49.88,403.57,49.88z M408.86,61.96
		c-0.23-2.79-2.64-5.14-5.51-5.14c-3.02,0-5.51,2.27-5.89,5.14H408.86z"/>
	<path d="M32.06,120.04c0-0.76,0.6-1.44,1.44-1.44h30.74c0.83,0,1.44,0.68,1.44,1.44v6.19c0,0.76-0.6,1.44-1.44,1.44H41.88v14.2
		h18.66c0.76,0,1.44,0.68,1.44,1.44v6.19c0,0.76-0.68,1.44-1.44,1.44H41.88v19.11c0,0.76-0.68,1.44-1.44,1.44H33.5
		c-0.83,0-1.44-0.68-1.44-1.44V120.04z"/>
	<path d="M82.81,140.51c8.54,0,15.48,7.25,15.48,15.79c0,8.69-6.95,15.94-15.48,15.94s-15.48-7.25-15.48-15.94
		C67.33,147.76,74.28,140.51,82.81,140.51z M82.81,164.08c4,0,7.25-3.47,7.25-7.78c0-4.23-3.25-7.63-7.25-7.63
		c-4.08,0-7.25,3.4-7.25,7.63C75.56,160.6,78.74,164.08,82.81,164.08z"/>
	<path d="M105.02,142.7c0-0.83,0.68-1.44,1.44-1.44h2.87c0.68,0,1.13,0.38,1.36,0.98l1.06,2.95c1.06-1.51,3.85-4.68,8.54-4.68
		c3.55,0,6.72,1.13,5.82,3.02l-2.79,4.91c-0.38,0.68-1.13,0.98-1.74,0.68c-0.23-0.08-1.36-0.45-2.19-0.45
		c-3.02,0-4.83,2.04-5.36,3.1v18.28c0,1.06-0.68,1.44-1.74,1.44h-5.82c-0.76,0-1.44-0.68-1.44-1.44V142.7z"/>
	<path d="M143.69,140.51c7.78,0,14.12,5.89,14.12,14.05c0,0.53-0.08,1.51-0.15,2.04c-0.08,0.75-0.76,1.28-1.44,1.28h-19.34
		c0.23,3.1,2.87,6.57,7.25,6.57c2.34,0,4.53-0.91,5.89-1.89c0.76-0.45,1.44-0.6,1.96,0l3.1,3.55c0.53,0.53,0.68,1.36-0.08,1.96
		c-2.49,2.34-6.34,4.15-11.25,4.15c-9.06,0-15.48-7.18-15.48-15.86C128.28,147.84,134.7,140.51,143.69,140.51z M148.98,152.6
		c-0.23-2.79-2.64-5.14-5.51-5.14c-3.02,0-5.51,2.27-5.89,5.14H148.98z"/>
	<path d="M177.9,140.51c4.68,0,8.31,1.89,11.18,5.36c0.53,0.68,0.38,1.59-0.38,2.11l-3.47,3.32c-0.68,0.6-1.36,0.23-1.89-0.23
		c-1.21-1.36-3.1-2.42-5.21-2.42c-4.08,0-7.4,3.47-7.4,7.7c0,4.31,3.25,7.7,7.33,7.7c3.25,0,4.68-1.59,6.04-2.87
		c0.53-0.53,1.28-0.68,1.89-0.23l3.25,2.79c0.75,0.6,1.06,1.36,0.53,2.11c-2.57,4-6.57,6.34-11.93,6.34
		c-8.54,0-16.01-6.8-16.01-15.86C161.81,147.46,169.44,140.51,177.9,140.51z"/>
	<path d="M206.22,152.37c3.02,0,5.51,0.83,5.51,0.83c0.08-3.85-1.13-5.21-3.93-5.21c-2.79,0-6.72,0.6-8.46,1.13
		c-1.06,0.3-1.59-0.38-1.74-1.36l-0.68-3.93c-0.23-1.13,0.38-1.66,1.06-1.89c0.6-0.23,5.44-1.44,10.27-1.44
		c9.44,0,11.63,4.91,11.63,13.14v16.39c0,0.76-0.68,1.44-1.44,1.44h-2.72c-0.53,0-0.91-0.23-1.28-1.06l-0.91-2.04
		c-1.74,1.59-4.53,3.85-9.21,3.85c-6.04,0-10.2-3.93-10.2-10.35C194.14,156.52,198.52,152.37,206.22,152.37z M206.37,165.81
		c2.42,0,4.76-2.04,5.21-2.95v-4.15c0,0-2.04-0.91-4.23-0.91c-2.95,0-4.91,1.66-4.91,4.08
		C202.45,164.15,204.03,165.81,206.37,165.81z"/>
	<path d="M226.91,167.85l2.04-4.08c0.3-0.76,1.06-0.91,1.74-0.53c0,0,3.4,1.81,6.87,1.81c1.51,0,2.57-0.6,2.57-1.89
		c0-1.36-1.06-2.19-5.06-3.78c-5.82-2.27-8.53-5.36-8.53-9.97s3.4-8.91,11.1-8.91c4.46,0,7.7,1.28,9.29,2.34
		c0.68,0.45,1.06,1.28,0.68,2.04l-1.89,3.85c-0.38,0.68-1.21,0.76-1.81,0.53c0,0-3.4-1.59-6.27-1.59c-1.81,0-2.57,0.76-2.57,1.74
		c0,1.36,1.36,1.81,4.15,2.95c5.82,2.27,10.2,4.76,10.2,10.65c0,4.98-4.38,9.21-12.01,9.21c-4.99,0-8.46-1.59-10.05-2.79
		C226.91,169.06,226.61,168.46,226.91,167.85z"/>
	<path d="M257.65,149.2h-2.57c-0.76,0-1.36-0.68-1.36-1.44v-5.06c0-0.83,0.6-1.44,1.36-1.44h2.57v-8.38c0-0.76,0.68-1.44,1.44-1.44
		l6.19-0.08c0.76,0,1.36,0.68,1.36,1.44v8.46h6.65c0.83,0,1.44,0.6,1.44,1.44v5.06c0,0.76-0.6,1.44-1.44,1.44h-6.65v12.08
		c0,2.11,1.13,2.42,2.34,2.42c1.28,0,2.87-0.53,3.7-0.83c0.83-0.3,1.44,0.08,1.66,0.83l1.51,4.76c0.3,0.76-0.08,1.51-0.83,1.81
		c-0.38,0.23-5.29,1.96-8.99,1.96c-5.82,0-8.38-3.63-8.38-9.74V149.2z"/>
</g>
<g id="Artwork_1_1_">
	<g>
		<defs>
			<rect id="SVGID_1_" x="227.74" y="123.47" width="321" height="384"/>
		</defs>
		<clipPath id="SVGID_2_">
			<use xlink:href="#SVGID_1_"  overflow="visible"/>
		</clipPath>
		<g clip-path="url(#SVGID_2_)">
			<defs>
				<rect id="SVGID_3_" x="227.74" y="123.47" width="321" height="384"/>
			</defs>
			<clipPath id="SVGID_4_">
				<use xlink:href="#SVGID_3_"  overflow="visible"/>
			</clipPath>
			
				<line clip-path="url(#SVGID_4_)" fill="none" stroke="#000000" stroke-width="10" stroke-miterlimit="10" x1="237.74" y1="424.47" x2="237.74" y2="507.47"/>
			
				<line clip-path="url(#SVGID_4_)" fill="none" stroke="#000000" stroke-width="10" stroke-miterlimit="10" x1="539.24" y1="424.47" x2="539.24" y2="507.47"/>
			
				<line clip-path="url(#SVGID_4_)" fill="none" stroke="#000000" stroke-width="10" stroke-miterlimit="10" x1="261.24" y1="445.47" x2="261.24" y2="507.47"/>
			
				<line clip-path="url(#SVGID_4_)" fill="none" stroke="#000000" stroke-width="10" stroke-miterlimit="10" x1="282.24" y1="445.47" x2="282.24" y2="507.47"/>
			
				<line clip-path="url(#SVGID_4_)" fill="none" stroke="#000000" stroke-width="10" stroke-miterlimit="10" x1="304.24" y1="445.47" x2="304.24" y2="507.47"/>
			
				<line clip-path="url(#SVGID_4_)" fill="none" stroke="#000000" stroke-width="10" stroke-miterlimit="10" x1="325.24" y1="445.47" x2="325.24" y2="507.47"/>
			
				<line clip-path="url(#SVGID_4_)" fill="none" stroke="#000000" stroke-width="10" stroke-miterlimit="10" x1="346.24" y1="445.47" x2="346.24" y2="507.47"/>
			
				<line clip-path="url(#SVGID_4_)" fill="none" stroke="#000000" stroke-width="10" stroke-miterlimit="10" x1="367.24" y1="445.47" x2="367.24" y2="507.47"/>
			
				<line clip-path="url(#SVGID_4_)" fill="none" stroke="#000000" stroke-width="10" stroke-miterlimit="10" x1="388.74" y1="445.47" x2="388.74" y2="507.47"/>
			
				<line clip-path="url(#SVGID_4_)" fill="none" stroke="#000000" stroke-width="10" stroke-miterlimit="10" x1="410.74" y1="445.47" x2="410.74" y2="507.47"/>
			
				<line clip-path="url(#SVGID_4_)" fill="none" stroke="#000000" stroke-width="10" stroke-miterlimit="10" x1="430.74" y1="445.47" x2="430.74" y2="507.47"/>
			
				<line clip-path="url(#SVGID_4_)" fill="none" stroke="#000000" stroke-width="10" stroke-miterlimit="10" x1="452.74" y1="445.47" x2="452.74" y2="507.47"/>
			
				<line clip-path="url(#SVGID_4_)" fill="none" stroke="#000000" stroke-width="10" stroke-miterlimit="10" x1="473.24" y1="445.47" x2="473.24" y2="507.47"/>
			
				<line clip-path="url(#SVGID_4_)" fill="none" stroke="#000000" stroke-width="10" stroke-miterlimit="10" x1="494.24" y1="445.47" x2="494.24" y2="507.47"/>
			
				<line clip-path="url(#SVGID_4_)" fill="none" stroke="#000000" stroke-width="10" stroke-miterlimit="10" x1="516.24" y1="445.47" x2="516.24" y2="507.47"/>
			
				<line clip-path="url(#SVGID_4_)" fill="none" stroke="#000000" stroke-width="10" stroke-miterlimit="10" x1="227.74" y1="422.47" x2="548.74" y2="422.47"/>
		</g>
		
			<line clip-path="url(#SVGID_2_)" fill="none" stroke="#000000" stroke-width="10" stroke-miterlimit="10" x1="251.74" y1="377.47" x2="525.74" y2="377.47"/>
		
			<line clip-path="url(#SVGID_2_)" fill="none" stroke="#000000" stroke-width="10" stroke-miterlimit="10" x1="262.74" y1="351.47" x2="514.74" y2="351.47"/>
		
			<line clip-path="url(#SVGID_2_)" fill="none" stroke="#000000" stroke-width="10" stroke-miterlimit="10" x1="262.74" y1="377.47" x2="262.74" y2="422.47"/>
		
			<line clip-path="url(#SVGID_2_)" fill="none" stroke="#000000" stroke-width="10" stroke-miterlimit="10" x1="515.74" y1="376.47" x2="515.74" y2="421.47"/>
		
			<line clip-path="url(#SVGID_2_)" fill="none" stroke="#000000" stroke-width="10" stroke-miterlimit="10" x1="276.13" y1="351.47" x2="276.13" y2="377.47"/>
		
			<line clip-path="url(#SVGID_2_)" fill="none" stroke="#000000" stroke-width="10" stroke-miterlimit="10" x1="501.74" y1="350.47" x2="501.74" y2="376.47"/>
		
			<line clip-path="url(#SVGID_2_)" fill="none" stroke="#000000" stroke-width="10" stroke-miterlimit="10" x1="357.74" y1="188.47" x2="419.74" y2="188.47"/>
		
			<line clip-path="url(#SVGID_2_)" fill="none" stroke="#000000" stroke-width="10" stroke-miterlimit="10" x1="368.74" y1="231.47" x2="368.74" y2="188.47"/>
		
			<line clip-path="url(#SVGID_2_)" fill="none" stroke="#000000" stroke-width="10" stroke-miterlimit="10" x1="388.74" y1="231.47" x2="388.74" y2="188.47"/>
		
			<line clip-path="url(#SVGID_2_)" fill="none" stroke="#000000" stroke-width="10" stroke-miterlimit="10" x1="408.74" y1="231.47" x2="408.74" y2="188.47"/>
		
			<line clip-path="url(#SVGID_2_)" fill="none" stroke="#000000" stroke-width="10" stroke-miterlimit="10" x1="344.74" y1="232.47" x2="432.74" y2="232.47"/>
		
			<line clip-path="url(#SVGID_2_)" fill="none" stroke="#000000" stroke-width="10" stroke-miterlimit="10" x1="349.74" y1="258.47" x2="349.74" y2="231.47"/>
		
			<line clip-path="url(#SVGID_2_)" fill="none" stroke="#000000" stroke-width="10" stroke-miterlimit="10" x1="427.74" y1="258.47" x2="427.74" y2="231.47"/>
		<g clip-path="url(#SVGID_2_)">
			<defs>
				<rect id="SVGID_5_" x="227.74" y="123.47" width="321" height="384"/>
			</defs>
			<clipPath id="SVGID_6_">
				<use xlink:href="#SVGID_5_"  overflow="visible"/>
			</clipPath>
			<path clip-path="url(#SVGID_6_)" fill="none" stroke="#000000" stroke-width="10" stroke-miterlimit="10" d="M288.74,350.47
				c0-56.61,43.39-100,100-100s100,43.39,100,100"/>
			<path clip-path="url(#SVGID_6_)" fill="none" stroke="#000000" stroke-width="10" stroke-miterlimit="10" d="M309.74,352.47
				c0-55.78,35.15-101,78.5-101s78.5,45.22,78.5,101"/>
			<path clip-path="url(#SVGID_6_)" fill="none" stroke="#000000" stroke-width="10" stroke-miterlimit="10" d="M334.74,354.47
				c0-55.78,24.18-101,54-101s54,45.22,54,101"/>
			<path clip-path="url(#SVGID_6_)" fill="none" stroke="#000000" stroke-width="10" stroke-miterlimit="10" d="M359.74,351.47
				c0-55.78,12.98-95,29-95s29,39.22,29,95"/>
			
				<line clip-path="url(#SVGID_6_)" fill="none" stroke="#000000" stroke-width="10" stroke-miterlimit="10" x1="388.74" y1="351.47" x2="388.74" y2="251.47"/>
			<path clip-path="url(#SVGID_6_)" fill="none" stroke="#000000" stroke-width="10" stroke-miterlimit="10" d="M406.74,186.47
				c0-9.94-8.06-18-18-18s-18,8.06-18,18"/>
			<path clip-path="url(#SVGID_6_)" d="M396.32,168.98c0-3.15-3.5-4.68-3.5-4.68s-0.54-0.28-0.56-0.29
				c-0.24-0.24,1.94-7.49,2.54-11.25c0.26-1.62,0.91-1.06,1.55-1.11c0.65-0.04,0.65-0.94,0.3-3.51c0,0,0.26-0.87,0.21-1.33
				c-0.05-0.49-0.7-0.9-0.95-0.9c0,0,0.64-1.28,0.65-1.88c0.04-2.12-1.61-3.41-2.18-6.18c-0.25-1.25-1.78-6.56-4.26-5.36
				c0,0-0.65-0.79-0.25-1.38c0,0,0.75-0.74,0.64-2.03c-0.1-1.29-1.78-2.33-1.78-2.33v-1.28c0,0,1.29-0.3,0.94-0.49
				c-0.35-0.2-0.4-0.4-0.4-0.4s1.09-0.45,0.8-0.59c-0.3-0.15-0.89-0.15-0.89-0.15s-0.75-0.74-1.04-0.05c0,0-0.99-0.35-1.34-0.3
				c-0.35,0.05-0.05,0.59-0.05,0.59s-1.03-0.4-1.08-0.2c-0.05,0.2,1.08,1.28,1.08,1.28s-2.22,0.1-2.22,1.19c0,0,0.29,0.35,1.14-0.3
				c0,0-2.17,2.73-1.93,2.93c0.26,0.19,0.74,0,0.74,0s-1.09,1.63-0.64,1.97c0,0-0.7,2.47-0.3,2.67c0.3,0.16,0.68-0.32,0.94-0.56
				c0.74-0.74,1.14-0.25-0.2,1.01c-0.37,0.35-1.43,1.34-1.73,3.42c-0.3,2.08-0.55,2.03-0.79,2.37c-0.25,0.35-2.3,2.26-1.88,6.2
				c0.08,0.68,0.7,0.84,1.18,0.69l0.65,2.98l0.27,2.69c0,0-1.36,2.81-1.21,3c0.15,0.2,0.99,0.3,0.99,0.3s-0.25,2.13,0,2.13
				c0.24,0,1.14,0.29,1.14,0.04c0-0.24-0.05-2.96-0.05-2.96l2.3,9.27l-0.37,0.18c0,0-3.59,1.42-3.59,4.65c0,0,2.01-0.04,7.25-0.04
				C393.7,168.98,396.32,168.98,396.32,168.98"/>
			
				<line clip-path="url(#SVGID_6_)" fill="none" stroke="#000000" stroke-width="10" stroke-miterlimit="10" x1="284.74" y1="420.47" x2="284.74" y2="395.47"/>
			
				<line clip-path="url(#SVGID_6_)" fill="none" stroke="#000000" stroke-width="10" stroke-miterlimit="10" x1="307.74" y1="420.47" x2="307.74" y2="395.47"/>
			
				<line clip-path="url(#SVGID_6_)" fill="none" stroke="#000000" stroke-width="10" stroke-miterlimit="10" x1="330.74" y1="420.47" x2="330.74" y2="395.47"/>
			
				<line clip-path="url(#SVGID_6_)" fill="none" stroke="#000000" stroke-width="10" stroke-miterlimit="10" x1="353.74" y1="420.47" x2="353.74" y2="395.47"/>
			
				<line clip-path="url(#SVGID_6_)" fill="none" stroke="#000000" stroke-width="10" stroke-miterlimit="10" x1="376.74" y1="420.47" x2="376.74" y2="395.47"/>
			
				<line clip-path="url(#SVGID_6_)" fill="none" stroke="#000000" stroke-width="10" stroke-miterlimit="10" x1="399.74" y1="420.47" x2="399.74" y2="395.47"/>
			
				<line clip-path="url(#SVGID_6_)" fill="none" stroke="#000000" stroke-width="10" stroke-miterlimit="10" x1="422.74" y1="420.47" x2="422.74" y2="395.47"/>
			
				<line clip-path="url(#SVGID_6_)" fill="none" stroke="#000000" stroke-width="10" stroke-miterlimit="10" x1="445.74" y1="420.47" x2="445.74" y2="395.47"/>
			
				<line clip-path="url(#SVGID_6_)" fill="none" stroke="#000000" stroke-width="10" stroke-miterlimit="10" x1="469.74" y1="420.47" x2="469.74" y2="395.47"/>
			
				<line clip-path="url(#SVGID_6_)" fill="none" stroke="#000000" stroke-width="10" stroke-miterlimit="10" x1="492.74" y1="420.47" x2="492.74" y2="395.47"/>
		</g>
	</g>
</g>
<g>
	<path fill="#FF5E59" d="M623.64,293.17c5.5,0,10.02,2,13.91,5.32c0.46,0.46,0.52,1.14,0.06,1.6c-0.86,0.92-1.72,1.77-2.58,2.69
		c-0.46,0.52-0.92,0.46-1.49-0.06c-2.69-2.35-6.24-3.89-9.73-3.89c-8.13,0-14.37,6.87-14.37,14.88c0,7.96,6.24,14.82,14.37,14.82
		c4.75,0,8.01-1.72,8.59-1.95v-6.41h-5.61c-0.63,0-1.09-0.46-1.09-1.03v-3.32c0-0.63,0.46-1.09,1.09-1.09h10.42
		c0.57,0,1.03,0.52,1.03,1.09c0,4.58,0.06,9.27,0.06,13.85c0,0.29-0.23,0.74-0.46,0.92c0,0-5.9,3.78-14.2,3.78
		c-11.39,0-20.6-9.1-20.6-20.55S612.25,293.17,623.64,293.17z"/>
	<path fill="#FF5E59" d="M664.9,293.17c11.45,0,20.6,9.21,20.6,20.66s-9.16,20.55-20.6,20.55s-20.55-9.1-20.55-20.55
		S653.46,293.17,664.9,293.17z M664.9,328.65c8.18,0,14.88-6.64,14.88-14.82c0-8.13-6.7-14.94-14.88-14.94
		c-8.13,0-14.82,6.81-14.82,14.94C650.08,322.01,656.78,328.65,664.9,328.65z"/>
	<path fill="#FF5E59" d="M693.69,294.83c0-0.57,0.46-1.09,1.09-1.09h13.05c7.04,0,12.82,5.72,12.82,12.65
		c0,7.1-5.78,12.88-12.76,12.88h-8.3v13.45c0,0.57-0.52,1.09-1.09,1.09h-3.72c-0.63,0-1.09-0.51-1.09-1.09V294.83z M707.48,313.66
		c3.95,0,7.27-3.21,7.27-7.33c0-3.89-3.32-6.87-7.27-6.87h-7.9v14.2H707.48z"/>
</g>
<g>
	<path fill="#0077FF" d="M47.47,294.83c0-0.57,0.46-1.09,1.03-1.09h13.16c11.05,0,20.09,8.99,20.09,19.97
		c0,11.1-9.04,20.09-20.09,20.09H48.5c-0.57,0-1.03-0.51-1.03-1.09V294.83z M60.86,328.37c8.41,0,14.54-6.18,14.54-14.65
		c0-8.41-6.12-14.54-14.54-14.54h-7.56v29.19H60.86z"/>
	<path fill="#0077FF" d="M89.99,294.83c0-0.57,0.46-1.09,1.09-1.09h22.89c0.63,0,1.09,0.51,1.09,1.09v3.21
		c0,0.57-0.46,1.09-1.09,1.09H95.89v11.68h15.28c0.57,0,1.09,0.52,1.09,1.09v3.21c0,0.63-0.51,1.09-1.09,1.09H95.89v12.31h18.09
		c0.63,0,1.09,0.52,1.09,1.09v3.15c0,0.57-0.46,1.09-1.09,1.09H91.08c-0.63,0-1.09-0.51-1.09-1.09V294.83z"/>
	<path fill="#0077FF" d="M128.05,294.03c0.12-0.46,0.57-0.86,1.03-0.86H130c0.34,0,0.86,0.29,0.97,0.63l11.96,29.25h0.23
		l11.91-29.25c0.11-0.34,0.57-0.63,0.97-0.63h0.92c0.46,0,0.92,0.4,1.03,0.86l7.04,38.46c0.17,0.8-0.23,1.32-1.03,1.32h-3.72
		c-0.51,0-0.97-0.4-1.09-0.8l-4.24-25.58c-0.06,0-0.17,0-0.17,0l-10.3,26.33c-0.11,0.34-0.46,0.63-0.97,0.63h-1.03
		c-0.46,0-0.86-0.29-0.97-0.63l-10.36-26.33c-0.06,0-0.17,0-0.23,0L126.79,333c-0.06,0.4-0.57,0.8-1.03,0.8h-3.72
		c-0.8,0-1.2-0.51-1.09-1.32L128.05,294.03z"/>
</g>
</svg>
