<?xml version="1.0" encoding="utf-8"?>
<!-- Generator: Adobe Illustrator 24.0.1, SVG Export Plug-In . SVG Version: 6.00 Build 0)  -->
<svg version="1.1" id="Layer_1" xmlns="http://www.w3.org/2000/svg" xmlns:xlink="http://www.w3.org/1999/xlink" x="0px" y="0px"
	 viewBox="0 0 1002.64 572.95" style="enable-background:new 0 0 1002.64 572.95;" xml:space="preserve">
<style type="text/css">
	.st0{clip-path:url(#SVGID_2_);}
	.st1{clip-path:url(#SVGID_4_);fill:#F2F2F2;}
	.st2{clip-path:url(#SVGID_4_);fill:none;stroke:#000000;stroke-width:6.8079;stroke-miterlimit:10;}
	.st3{clip-path:url(#SVGID_4_);fill:#FFFFFF;}
	.st4{clip-path:url(#SVGID_4_);fill:none;stroke:#000000;stroke-width:1.6979;stroke-miterlimit:10;}
	.st5{clip-path:url(#SVGID_4_);fill:none;stroke:#000000;stroke-width:5.9508;stroke-miterlimit:10;}
	.st6{clip-path:url(#SVGID_4_);fill:#004B15;}
	.st7{clip-path:url(#SVGID_4_);fill:none;stroke:#000000;stroke-width:6.8079;stroke-linecap:round;stroke-miterlimit:10;}
	.st8{clip-path:url(#SVGID_4_);fill:#C1272D;}
	.st9{clip-path:url(#SVGID_4_);}
	.st10{clip-path:url(#SVGID_4_);fill:#092096;}
	.st11{fill:#0077FF;}
	.st12{fill:#FF4D4D;}
</style>
<g>
	<path d="M12.17,62.89c5.14-6.23,14.94-18.99,20.16-25.92c2.41-2.96,3.97-5.99,3.97-8.64c0-3.5-2.65-7.08-8.25-7.08
		c-3.74,0-6.93,2.65-8.72,4.59c-0.62,0.62-1.48,0.62-2.1,0l-3.74-3.74c-0.47-0.47-0.62-1.4-0.08-2.02c0,0,6.07-7.63,15.33-7.63
		c11.13,0,17.36,7.08,17.36,15.49c0,5.06-2.18,8.25-5.22,12.61c-3.35,4.75-9.26,12.06-13.39,17.28h16.81c0.78,0,1.48,0.7,1.48,1.48
		v5.37c0,0.78-0.7,1.48-1.48,1.48H13.65c-0.86,0-1.48-0.7-1.48-1.48V62.89z"/>
	<path d="M54.83,39.7c0-17.05,7.16-27.24,19.61-27.24s19.61,10.2,19.61,27.24S86.9,66.94,74.44,66.94S54.83,56.74,54.83,39.7z
		 M83.86,39.7c0-11.52-3.42-18.06-9.42-18.06s-9.42,6.54-9.42,18.06c0,11.6,3.42,18.06,9.42,18.06S83.86,51.3,83.86,39.7z"/>
	<path d="M100.83,62.89c5.14-6.23,14.94-18.99,20.16-25.92c2.41-2.96,3.97-5.99,3.97-8.64c0-3.5-2.65-7.08-8.25-7.08
		c-3.74,0-6.93,2.65-8.72,4.59c-0.62,0.62-1.48,0.62-2.1,0l-3.74-3.74c-0.47-0.47-0.62-1.4-0.08-2.02c0,0,6.07-7.63,15.33-7.63
		c11.13,0,17.36,7.08,17.36,15.49c0,5.06-2.18,8.25-5.22,12.61c-3.35,4.75-9.26,12.06-13.39,17.28h16.81c0.78,0,1.48,0.7,1.48,1.48
		v5.37c0,0.78-0.7,1.48-1.48,1.48h-30.67c-0.86,0-1.48-0.7-1.48-1.48V62.89z"/>
	<path d="M143.48,39.7c0-17.05,7.16-27.24,19.61-27.24s19.61,10.2,19.61,27.24s-7.16,27.24-19.61,27.24S143.48,56.74,143.48,39.7z
		 M172.52,39.7c0-11.52-3.42-18.06-9.42-18.06s-9.42,6.54-9.42,18.06c0,11.6,3.42,18.06,9.42,18.06S172.52,51.3,172.52,39.7z"/>
	<path d="M211.75,13.16c0-0.78,0.62-1.48,1.48-1.48h18.29c9.57,0,17.44,7.78,17.44,17.2c0,9.65-7.86,17.51-17.36,17.51h-9.73v18.29
		c0,0.78-0.7,1.48-1.48,1.48h-7.16c-0.86,0-1.48-0.7-1.48-1.48V13.16z M230.89,36.9c4.36,0,8.02-3.5,8.02-8.09
		c0-4.28-3.66-7.55-8.02-7.55h-9.03V36.9H230.89z"/>
	<path d="M253.31,36.51c0-0.86,0.7-1.48,1.48-1.48h2.96c0.7,0,1.17,0.39,1.4,1.01l1.09,3.04c1.09-1.56,3.97-4.83,8.79-4.83
		c3.66,0,6.93,1.17,5.99,3.11l-2.88,5.06c-0.39,0.7-1.17,1.01-1.79,0.7c-0.23-0.08-1.4-0.47-2.26-0.47c-3.11,0-4.98,2.1-5.53,3.19
		v18.84c0,1.09-0.7,1.48-1.79,1.48h-5.99c-0.78,0-1.48-0.7-1.48-1.48V36.51z"/>
	<path d="M293.17,34.25c8.02,0,14.56,6.07,14.56,14.48c0,0.54-0.08,1.56-0.16,2.1c-0.08,0.78-0.78,1.32-1.48,1.32h-19.93
		c0.23,3.19,2.96,6.77,7.47,6.77c2.41,0,4.67-0.93,6.07-1.95c0.78-0.47,1.48-0.62,2.02,0l3.19,3.66c0.54,0.54,0.7,1.4-0.08,2.02
		c-2.57,2.41-6.54,4.28-11.6,4.28c-9.34,0-15.96-7.39-15.96-16.35C277.29,41.8,283.9,34.25,293.17,34.25z M298.61,46.7
		c-0.23-2.88-2.72-5.29-5.68-5.29c-3.11,0-5.68,2.33-6.07,5.29H298.61z"/>
	<path d="M312.55,62.43l2.1-4.2c0.31-0.78,1.09-0.93,1.79-0.54c0,0,3.5,1.87,7.08,1.87c1.56,0,2.65-0.62,2.65-1.95
		c0-1.4-1.09-2.26-5.22-3.89c-5.99-2.33-8.8-5.53-8.8-10.27c0-4.75,3.5-9.18,11.44-9.18c4.59,0,7.94,1.32,9.57,2.41
		c0.7,0.47,1.09,1.32,0.7,2.1l-1.95,3.97c-0.39,0.7-1.25,0.78-1.87,0.54c0,0-3.5-1.63-6.46-1.63c-1.87,0-2.65,0.78-2.65,1.79
		c0,1.4,1.4,1.87,4.28,3.04c5.99,2.33,10.51,4.9,10.51,10.97c0,5.14-4.51,9.5-12.38,9.5c-5.14,0-8.72-1.63-10.35-2.88
		C312.55,63.67,312.24,63.05,312.55,62.43z"/>
	<path d="M341.89,18.6c0-2.96,2.33-5.37,5.29-5.37c3.04,0,5.45,2.41,5.45,5.37c0,2.96-2.41,5.37-5.45,5.37
		C344.23,23.98,341.89,21.56,341.89,18.6z M342.59,36.51c0-0.86,0.7-1.48,1.48-1.48h6.46c0.78,0,1.48,0.62,1.48,1.48v28.18
		c0,0.78-0.7,1.48-1.48,1.48h-6.46c-0.78,0-1.48-0.7-1.48-1.48V36.51z"/>
	<path d="M374.43,34.25c3.11,0,5.53,0.86,6.93,1.4V13.16c0-0.78,0.7-1.48,1.48-1.48h6.62c0.78,0,1.48,0.7,1.48,1.48v51.53
		c0,0.78-0.7,1.48-1.48,1.48h-3.04c-0.7,0-1.25-0.62-1.48-1.48l-0.78-2.41c0,0-3.66,4.67-10.2,4.67c-8.48,0-14.94-7.39-14.94-16.35
		C359.02,41.49,365.17,34.25,374.43,34.25z M375.13,58.53c4.13,0,5.99-3.19,6.54-5.06v-9.03c0,0-2.18-1.79-6.07-1.79
		c-4.36,0-7.55,3.58-7.55,7.94S371,58.53,375.13,58.53z"/>
	<path d="M413.81,34.25c8.02,0,14.56,6.07,14.56,14.48c0,0.54-0.08,1.56-0.16,2.1c-0.08,0.78-0.78,1.32-1.48,1.32h-19.93
		c0.23,3.19,2.96,6.77,7.47,6.77c2.41,0,4.67-0.93,6.07-1.95c0.78-0.47,1.48-0.62,2.02,0l3.19,3.66c0.54,0.54,0.7,1.4-0.08,2.02
		c-2.57,2.41-6.54,4.28-11.6,4.28c-9.34,0-15.96-7.39-15.96-16.35C397.94,41.8,404.55,34.25,413.81,34.25z M419.26,46.7
		c-0.23-2.88-2.72-5.29-5.68-5.29c-3.11,0-5.68,2.33-6.07,5.29H419.26z"/>
	<path d="M434.91,36.51c0-0.86,0.7-1.48,1.48-1.48h2.96c0.7,0,1.09,0.39,1.32,0.93l1.09,2.88c1.17-1.25,4.98-4.59,10.97-4.59
		c9.88,0,13.85,7.39,13.85,15.49v14.94c0,0.78-0.7,1.48-1.48,1.48h-6.38c-0.86,0-1.48-0.7-1.48-1.48V49.27
		c0-4.05-2.1-6.62-5.84-6.62c-4.05,0-6.54,2.8-7.32,4.9v17.12c0,1.09-0.47,1.48-1.95,1.48h-5.76c-0.78,0-1.48-0.7-1.48-1.48V36.51z"
		/>
	<path d="M476.71,43.2h-2.65c-0.78,0-1.4-0.7-1.4-1.48v-5.21c0-0.86,0.62-1.48,1.4-1.48h2.65v-8.64c0-0.78,0.7-1.48,1.48-1.48
		l6.38-0.08c0.78,0,1.4,0.7,1.4,1.48v8.72h6.85c0.86,0,1.48,0.62,1.48,1.48v5.21c0,0.78-0.62,1.48-1.48,1.48h-6.85v12.45
		c0,2.18,1.17,2.49,2.41,2.49c1.32,0,2.96-0.54,3.81-0.86c0.86-0.31,1.48,0.08,1.71,0.86l1.56,4.9c0.31,0.78-0.08,1.56-0.86,1.87
		c-0.39,0.23-5.45,2.02-9.26,2.02c-5.99,0-8.64-3.74-8.64-10.04V43.2z"/>
	<path d="M501.23,18.6c0-2.96,2.33-5.37,5.29-5.37c3.04,0,5.45,2.41,5.45,5.37c0,2.96-2.41,5.37-5.45,5.37
		C503.56,23.98,501.23,21.56,501.23,18.6z M501.93,36.51c0-0.86,0.7-1.48,1.48-1.48h6.46c0.78,0,1.48,0.62,1.48,1.48v28.18
		c0,0.78-0.7,1.48-1.48,1.48h-6.46c-0.78,0-1.48-0.7-1.48-1.48V36.51z"/>
	<path d="M530.88,46.47c3.11,0,5.68,0.86,5.68,0.86c0.08-3.97-1.17-5.37-4.05-5.37s-6.93,0.62-8.72,1.17
		c-1.09,0.31-1.63-0.39-1.79-1.4l-0.7-4.05c-0.23-1.17,0.39-1.71,1.09-1.95c0.62-0.23,5.6-1.48,10.58-1.48
		c9.73,0,11.99,5.06,11.99,13.54v16.89c0,0.78-0.7,1.48-1.48,1.48h-2.8c-0.54,0-0.93-0.23-1.32-1.09l-0.93-2.1
		c-1.79,1.63-4.67,3.97-9.5,3.97c-6.23,0-10.51-4.05-10.51-10.66C518.43,50.75,522.94,46.47,530.88,46.47z M531.04,60.32
		c2.49,0,4.9-2.1,5.37-3.04v-4.28c0,0-2.1-0.93-4.36-0.93c-3.04,0-5.06,1.71-5.06,4.2C526.99,58.61,528.62,60.32,531.04,60.32z"/>
	<path d="M553.92,13.16c0-0.78,0.7-1.48,1.48-1.48h6.54c0.78,0,1.48,0.7,1.48,1.48v51.53c0,0.78-0.7,1.48-1.48,1.48h-6.54
		c-0.78,0-1.48-0.7-1.48-1.48V13.16z"/>
	<path d="M16.84,106.56c0-0.78,0.62-1.48,1.48-1.48H50c0.86,0,1.48,0.7,1.48,1.48v6.38c0,0.78-0.62,1.48-1.48,1.48H26.96v14.63
		h19.23c0.78,0,1.48,0.7,1.48,1.48v6.38c0,0.78-0.7,1.48-1.48,1.48H26.96v19.69c0,0.78-0.7,1.48-1.48,1.48h-7.16
		c-0.86,0-1.48-0.7-1.48-1.48V106.56z"/>
	<path d="M69.15,127.66c8.8,0,15.96,7.47,15.96,16.27c0,8.95-7.16,16.42-15.96,16.42s-15.96-7.47-15.96-16.42
		C53.19,135.13,60.35,127.66,69.15,127.66z M69.15,151.94c4.13,0,7.47-3.58,7.47-8.02c0-4.36-3.35-7.86-7.47-7.86
		c-4.2,0-7.47,3.5-7.47,7.86C61.68,148.36,64.95,151.94,69.15,151.94z"/>
	<path d="M92.03,129.91c0-0.86,0.7-1.48,1.48-1.48h2.96c0.7,0,1.17,0.39,1.4,1.01l1.09,3.04c1.09-1.56,3.97-4.83,8.79-4.83
		c3.66,0,6.93,1.17,5.99,3.11l-2.88,5.06c-0.39,0.7-1.17,1.01-1.79,0.7c-0.23-0.08-1.4-0.47-2.26-0.47c-3.11,0-4.98,2.1-5.53,3.19
		v18.84c0,1.09-0.7,1.48-1.79,1.48h-5.99c-0.78,0-1.48-0.7-1.48-1.48V129.91z"/>
	<path d="M131.89,127.66c8.02,0,14.56,6.07,14.56,14.48c0,0.54-0.08,1.56-0.16,2.1c-0.08,0.78-0.78,1.32-1.48,1.32h-19.93
		c0.23,3.19,2.96,6.77,7.47,6.77c2.41,0,4.67-0.93,6.07-1.95c0.78-0.47,1.48-0.62,2.02,0l3.19,3.66c0.54,0.54,0.7,1.4-0.08,2.02
		c-2.57,2.41-6.54,4.28-11.6,4.28c-9.34,0-15.96-7.39-15.96-16.35C116.01,135.21,122.62,127.66,131.89,127.66z M137.34,140.11
		c-0.23-2.88-2.72-5.29-5.68-5.29c-3.11,0-5.68,2.33-6.07,5.29H137.34z"/>
	<path d="M167.15,127.66c4.83,0,8.56,1.95,11.52,5.53c0.54,0.7,0.39,1.63-0.39,2.18l-3.58,3.42c-0.7,0.62-1.4,0.23-1.95-0.23
		c-1.25-1.4-3.19-2.49-5.37-2.49c-4.2,0-7.63,3.58-7.63,7.94c0,4.44,3.35,7.94,7.55,7.94c3.35,0,4.83-1.63,6.23-2.96
		c0.54-0.54,1.32-0.7,1.95-0.23l3.35,2.88c0.78,0.62,1.09,1.4,0.54,2.18c-2.65,4.12-6.77,6.54-12.3,6.54c-8.8,0-16.5-7-16.5-16.35
		C150.57,134.82,158.43,127.66,167.15,127.66z"/>
	<path d="M196.34,139.88c3.11,0,5.68,0.86,5.68,0.86c0.08-3.97-1.17-5.37-4.05-5.37s-6.93,0.62-8.72,1.17
		c-1.09,0.31-1.63-0.39-1.79-1.4l-0.7-4.05c-0.23-1.17,0.39-1.71,1.09-1.95c0.62-0.23,5.6-1.48,10.59-1.48
		c9.73,0,11.99,5.06,11.99,13.54v16.89c0,0.78-0.7,1.48-1.48,1.48h-2.8c-0.54,0-0.93-0.23-1.32-1.09l-0.93-2.1
		c-1.79,1.63-4.67,3.97-9.5,3.97c-6.23,0-10.51-4.05-10.51-10.66C183.88,144.16,188.4,139.88,196.34,139.88z M196.49,153.73
		c2.49,0,4.9-2.1,5.37-3.04v-4.28c0,0-2.1-0.93-4.36-0.93c-3.04,0-5.06,1.71-5.06,4.2C192.44,152.02,194.08,153.73,196.49,153.73z"
		/>
	<path d="M217.66,155.83l2.1-4.2c0.31-0.78,1.09-0.93,1.79-0.54c0,0,3.5,1.87,7.08,1.87c1.56,0,2.65-0.62,2.65-1.95
		c0-1.4-1.09-2.26-5.22-3.89c-5.99-2.33-8.8-5.53-8.8-10.27c0-4.75,3.5-9.18,11.44-9.18c4.59,0,7.94,1.32,9.57,2.41
		c0.7,0.47,1.09,1.32,0.7,2.1l-1.95,3.97c-0.39,0.7-1.25,0.78-1.87,0.54c0,0-3.5-1.63-6.46-1.63c-1.87,0-2.65,0.78-2.65,1.79
		c0,1.4,1.4,1.87,4.28,3.04c5.99,2.33,10.51,4.9,10.51,10.97c0,5.14-4.51,9.5-12.38,9.5c-5.14,0-8.72-1.63-10.35-2.88
		C217.66,157.08,217.35,156.46,217.66,155.83z"/>
	<path d="M249.34,136.61h-2.65c-0.78,0-1.4-0.7-1.4-1.48v-5.21c0-0.86,0.62-1.48,1.4-1.48h2.65v-8.64c0-0.78,0.7-1.48,1.48-1.48
		l6.38-0.08c0.78,0,1.4,0.7,1.4,1.48v8.72h6.85c0.86,0,1.48,0.62,1.48,1.48v5.21c0,0.78-0.62,1.48-1.48,1.48h-6.85v12.45
		c0,2.18,1.17,2.49,2.41,2.49c1.32,0,2.96-0.54,3.81-0.86c0.86-0.31,1.48,0.08,1.71,0.86l1.56,4.9c0.31,0.78-0.08,1.56-0.86,1.87
		c-0.39,0.23-5.45,2.02-9.26,2.02c-5.99,0-8.64-3.74-8.64-10.04V136.61z"/>
</g>
<g id="Vector_Smart_Object_1_">
	<g>
		<defs>
			<rect id="SVGID_1_" x="0" y="168.72" width="513.43" height="404.24"/>
		</defs>
		<clipPath id="SVGID_2_">
			<use xlink:href="#SVGID_1_"  style="overflow:visible;"/>
		</clipPath>
		<g class="st0">
			<defs>
				<rect id="SVGID_3_" x="0" y="168.73" width="513.44" height="404.22"/>
			</defs>
			<clipPath id="SVGID_4_">
				<use xlink:href="#SVGID_3_"  style="overflow:visible;"/>
			</clipPath>
			<path class="st1" d="M485.39,569.55H29.91c-5.63-0.02-10.19-4.58-10.2-10.2V346.86c0.02-5.63,4.58-10.19,10.2-10.2h455.48
				c5.63,0.02,10.19,4.58,10.2,10.2v212.48C495.58,564.97,491.02,569.53,485.39,569.55"/>
			<path class="st2" d="M29.91,336.67h455.51c5.64,0,10.22,4.58,10.22,10.2v212.48c0,5.64-4.58,10.2-10.22,10.2H29.91
				c-5.64,0-10.2-4.56-10.2-10.2V346.87C19.71,341.24,24.27,336.67,29.91,336.67z"/>
			<path class="st2" d="M6.83,545.5h499.77c1.89,0,3.43,1.54,3.43,3.43v17.21c0,1.89-1.54,3.43-3.43,3.43H6.83
				c-1.89,0-3.43-1.54-3.43-3.43v-17.21C3.41,547.04,4.94,545.5,6.83,545.5z"/>
			<rect x="27.51" y="403.79" class="st3" width="16.32" height="48.21"/>
			<rect x="27.51" y="403.79" class="st4" width="16.32" height="48.21"/>
			<path class="st5" d="M68.02,402.12h12.31c2.09,0,3.77,1.68,3.77,3.77v40.91c0,2.09-1.68,3.77-3.77,3.77H68.02
				c-2.09,0-3.77-1.68-3.77-3.77v-40.91C64.25,403.8,65.93,402.12,68.02,402.12z"/>
			<path class="st5" d="M29.51,402.12h12.31c2.09,0,3.77,1.68,3.77,3.77v40.91c0,2.09-1.68,3.77-3.77,3.77H29.51
				c-2.09,0-3.77-1.68-3.77-3.77v-40.91C25.74,403.8,27.42,402.12,29.51,402.12z"/>
			<path class="st5" d="M106.54,402.12h12.31c2.09,0,3.77,1.68,3.77,3.77v40.91c0,2.09-1.68,3.77-3.77,3.77h-12.31
				c-2.09,0-3.77-1.68-3.77-3.77v-40.91C102.77,403.8,104.46,402.12,106.54,402.12z"/>
			<path class="st5" d="M145.03,402.12h12.31c2.09,0,3.77,1.68,3.77,3.77v40.91c0,2.09-1.68,3.77-3.77,3.77h-12.31
				c-2.07,0-3.77-1.68-3.77-3.77v-40.91C141.26,403.8,142.96,402.12,145.03,402.12z"/>
			<path class="st5" d="M191.79,402.12h12.31c2.09,0,3.77,1.68,3.77,3.77v40.91c0,2.09-1.68,3.77-3.77,3.77h-12.31
				c-2.09,0-3.77-1.68-3.77-3.77v-40.91C188.03,403.8,189.71,402.12,191.79,402.12z"/>
			<path class="st5" d="M248.23,402.12h12.31c2.09,0,3.78,1.68,3.78,3.77v40.91c0,2.09-1.7,3.77-3.78,3.77h-12.31
				c-2.07,0-3.77-1.68-3.77-3.77v-40.91C244.46,403.8,246.16,402.12,248.23,402.12z"/>
			<path class="st5" d="M301.95,402.12h12.31c2.09,0,3.77,1.68,3.77,3.77v40.91c0,2.09-1.68,3.77-3.77,3.77h-12.31
				c-2.09,0-3.77-1.68-3.77-3.77v-40.91C298.18,403.8,299.86,402.12,301.95,402.12z"/>
			<path class="st5" d="M355.37,402.12h12.31c2.09,0,3.77,1.68,3.77,3.77v40.91c0,2.09-1.68,3.77-3.77,3.77h-12.31
				c-2.09,0-3.77-1.68-3.77-3.77v-40.91C351.61,403.8,353.29,402.12,355.37,402.12z"/>
			<path class="st5" d="M394.61,402.12h12.31c2.09,0,3.77,1.68,3.77,3.77v40.91c0,2.09-1.68,3.77-3.77,3.77h-12.31
				c-2.09,0-3.77-1.68-3.77-3.77v-40.91C390.84,403.8,392.52,402.12,394.61,402.12z"/>
			<path class="st5" d="M431.24,402.12h12.31c2.09,0,3.78,1.68,3.78,3.77v40.91c0,2.09-1.7,3.77-3.78,3.77h-12.31
				c-2.07,0-3.77-1.68-3.77-3.77v-40.91C427.47,403.8,429.17,402.12,431.24,402.12z"/>
			<path class="st5" d="M470.05,402.12h12.31c2.09,0,3.78,1.68,3.78,3.77v40.91c0,2.09-1.7,3.77-3.78,3.77h-12.31
				c-2.07,0-3.77-1.68-3.77-3.77v-40.91C466.29,403.8,467.98,402.12,470.05,402.12z"/>
			<path class="st5" d="M29.51,481.16h12.31c2.09,0,3.77,1.68,3.77,3.77v40.91c0,2.09-1.68,3.77-3.77,3.77H29.51
				c-2.09,0-3.77-1.68-3.77-3.77v-40.91C25.74,482.84,27.42,481.16,29.51,481.16z"/>
			<path class="st5" d="M68.05,481.16h12.31c2.09,0,3.77,1.68,3.77,3.77v40.91c0,2.09-1.68,3.77-3.77,3.77H68.05
				c-2.09,0-3.77-1.68-3.77-3.77v-40.91C64.28,482.84,65.96,481.16,68.05,481.16z"/>
			<path class="st5" d="M106.58,481.16h12.31c2.09,0,3.78,1.68,3.78,3.77v40.91c0,2.09-1.7,3.77-3.78,3.77h-12.31
				c-2.07,0-3.77-1.68-3.77-3.77v-40.91C102.81,482.84,104.51,481.16,106.58,481.16z"/>
			<path class="st5" d="M145.03,481.16h12.31c2.09,0,3.77,1.68,3.77,3.77v40.91c0,2.09-1.68,3.77-3.77,3.77h-12.31
				c-2.07,0-3.77-1.68-3.77-3.77v-40.91C141.26,482.84,142.96,481.16,145.03,481.16z"/>
			<path class="st5" d="M193.28,481.16h12.31c2.09,0,3.77,1.68,3.77,3.77v40.91c0,2.09-1.68,3.77-3.77,3.77h-12.31
				c-2.09,0-3.77-1.68-3.77-3.77v-40.91C189.51,482.84,191.19,481.16,193.28,481.16z"/>
			<path class="st5" d="M241.54,481.16h23.79c2.09,0,3.77,1.68,3.77,3.77v54.8c0,2.09-1.68,3.77-3.77,3.77h-23.79
				c-2.09,0-3.77-1.68-3.77-3.77v-54.8C237.77,482.84,239.45,481.16,241.54,481.16z"/>
			<path class="st5" d="M301.95,481.16h12.31c2.09,0,3.77,1.68,3.77,3.77v40.91c0,2.09-1.68,3.77-3.77,3.77h-12.31
				c-2.09,0-3.77-1.68-3.77-3.77v-40.91C298.18,482.84,299.86,481.16,301.95,481.16z"/>
			<path class="st5" d="M355.37,482.61h12.31c2.09,0,3.77,1.68,3.77,3.77v40.91c0,2.09-1.68,3.77-3.77,3.77h-12.31
				c-2.09,0-3.77-1.68-3.77-3.77v-40.91C351.61,484.29,353.29,482.61,355.37,482.61z"/>
			<path class="st5" d="M394.61,482.61h12.31c2.09,0,3.77,1.68,3.77,3.77v40.91c0,2.09-1.68,3.77-3.77,3.77h-12.31
				c-2.09,0-3.77-1.68-3.77-3.77v-40.91C390.84,484.29,392.52,482.61,394.61,482.61z"/>
			<path class="st5" d="M431.24,482.61h12.31c2.09,0,3.78,1.68,3.78,3.77v40.91c0,2.09-1.7,3.77-3.78,3.77h-12.31
				c-2.07,0-3.77-1.68-3.77-3.77v-40.91C427.47,484.29,429.17,482.61,431.24,482.61z"/>
			<path class="st5" d="M470.05,482.61h12.31c2.09,0,3.78,1.68,3.78,3.77v40.91c0,2.09-1.7,3.77-3.78,3.77h-12.31
				c-2.07,0-3.77-1.68-3.77-3.77v-40.91C466.29,484.29,467.98,482.61,470.05,482.61z"/>
			<path class="st6" d="M29.91,521.42h39.78c5.64,0.02,10.19,4.58,10.2,10.2v27.72c-0.02,5.63-4.56,10.19-10.2,10.2H29.91
				c-5.63-0.02-10.19-4.58-10.2-10.2v-27.72C19.73,526,24.29,521.44,29.91,521.42"/>
			<path class="st6" d="M114.08,521.42h39.78c5.64,0.02,10.19,4.58,10.2,10.2v27.72c-0.02,5.63-4.56,10.19-10.2,10.2h-39.78
				c-5.63-0.02-10.19-4.58-10.2-10.2v-27.72C103.9,526,108.46,521.44,114.08,521.42"/>
			<path class="st6" d="M357.55,521.42h39.73c5.63,0.02,10.17,4.58,10.19,10.2v27.72c-0.02,5.63-4.56,10.19-10.19,10.2h-39.73
				c-5.63-0.02-10.19-4.58-10.2-10.2v-27.72C347.36,526,351.92,521.44,357.55,521.42"/>
			<path class="st6" d="M441.72,521.42h39.78c5.64,0.02,10.19,4.58,10.2,10.2v27.72c-0.02,5.63-4.56,10.19-10.2,10.2h-39.78
				c-5.63-0.02-10.19-4.58-10.2-10.2v-27.72C431.53,526,436.1,521.44,441.72,521.42"/>
			<rect x="168.19" y="386.7" class="st2" width="15.82" height="156.81"/>
			<rect x="322.06" y="386.7" class="st2" width="15.82" height="156.81"/>
			<rect x="219.36" y="386.7" class="st5" width="16.19" height="156.81"/>
			<path class="st1" d="M499.39,386.68H15.55c-2.72-0.02-4.93-2.23-4.93-4.95v-9.28c0-2.72,2.22-4.93,4.93-4.95h483.85
				c2.72,0.02,4.93,2.23,4.93,4.95v9.28C504.33,384.45,502.11,386.67,499.39,386.68"/>
			<path class="st2" d="M15.55,367.45H499.4c2.73,0,4.95,2.22,4.95,4.95v9.35c0,2.73-2.22,4.95-4.95,4.95H15.55
				c-2.73,0-4.95-2.22-4.95-4.95v-9.35C10.6,369.66,12.82,367.45,15.55,367.45z"/>
			<rect x="273.22" y="386.7" class="st5" width="16.19" height="156.81"/>
			<path class="st2" d="M207.4,557.53h96.67c2.22,0,4.03,1.81,4.03,4.04v3.95c0,2.23-1.81,4.04-4.03,4.04H207.4
				c-2.23,0-4.04-1.81-4.04-4.04v-3.95C203.36,559.34,205.17,557.53,207.4,557.53z"/>
			<rect x="219.36" y="546.56" class="st2" width="70.07" height="10.96"/>
			<rect x="168.19" y="336.66" class="st2" width="169.7" height="28.41"/>
			<rect x="161.11" y="308.62" class="st1" width="183.7" height="28.04"/>
			<rect x="161.11" y="308.62" class="st2" width="183.7" height="28.04"/>
			<polygon class="st1" points="252.84,251.88 169.15,305.86 336.52,305.86 			"/>
			<polygon class="st7" points="252.84,251.88 169.15,305.86 336.52,305.86 			"/>
			<rect x="278.59" y="178.63" class="st8" width="25.76" height="9.43"/>
			<rect x="273.63" y="198.1" class="st8" width="29.9" height="7.41"/>
			<path class="st9" d="M253.11,256.12L253.11,256.12c-2.47,0-4.48-2.01-4.48-4.48v-78.43c0-2.49,2.01-4.5,4.48-4.5
				c2.47,0,4.48,2.01,4.48,4.5v78.43C257.58,254.09,255.59,256.1,253.11,256.12"/>
			<rect x="255.5" y="179.44" class="st10" width="23.08" height="26.07"/>
			<path class="st2" d="M257.58,177.11h43.34c2.47,0,4.5,2.01,4.5,4.48v35.14c0,2.47-2.02,4.5-4.5,4.5h-43.34
				c-2.47,0-4.48-2.02-4.48-4.5v-35.14C253.1,179.11,255.11,177.11,257.58,177.11z"/>
		</g>
	</g>
</g>
<g>
	<path class="st11" d="M795.03,197.91c-0.1-0.32,0.07-0.69,0.42-0.8l7.2-2.21c3.89-1.19,7.48,0.52,8.51,3.9
		c0.76,2.47-0.53,4.8-1.78,6.14c1.92,0.19,4.72,1.05,5.62,4.01c1.1,3.6-1.06,7.11-5.11,8.35l-7.56,2.32c-0.35,0.11-0.7-0.1-0.8-0.42
		L795.03,197.91z M805.46,204.74c2.06-0.63,2.85-2.53,2.26-4.46c-0.6-1.96-2.27-2.93-4.33-2.3l-4.34,1.33l2.07,6.75L805.46,204.74z
		 M808.97,214.35c1.96-0.6,3.01-2.58,2.4-4.57c-0.6-1.96-2.9-2.8-4.99-2.16l-4.4,1.35l2.11,6.88L808.97,214.35z"/>
	<path class="st11" d="M813.76,194.28c-0.33-1.06,0.22-2.14,1.25-2.46c1.06-0.33,2.15,0.26,2.48,1.32c0.32,1.03-0.26,2.12-1.33,2.45
		C815.13,195.9,814.07,195.31,813.76,194.28z M816.48,201.89c-0.1-0.32,0.1-0.7,0.42-0.8l1.83-0.56c0.32-0.1,0.7,0.1,0.8,0.42
		l3.57,11.64c0.1,0.32-0.1,0.7-0.42,0.8l-1.83,0.56c-0.32,0.1-0.7-0.1-0.8-0.42L816.48,201.89z"/>
	<path class="st11" d="M828.83,197.08c1.64-0.5,2.98-0.25,3.3-0.24l-2.89-9.42c-0.1-0.32,0.1-0.7,0.42-0.8l1.87-0.57
		c0.32-0.1,0.7,0.1,0.8,0.42l6.52,21.29c0.1,0.32-0.1,0.7-0.42,0.8l-0.96,0.3c-0.29,0.09-0.55-0.08-0.75-0.37l-0.54-0.85
		c0,0-0.99,2.27-3.53,3.05c-3.41,1.04-6.95-1.21-8.08-4.91C823.41,202.01,825.26,198.17,828.83,197.08z M832.18,207.8
		c1.96-0.6,2.41-2.46,2.46-2.87l-1.61-5.24c0,0-1.36-0.43-3.03,0.09c-2.15,0.66-3.12,2.89-2.45,5.08
		C828.21,207.01,830.13,208.43,832.18,207.8z"/>
	<path class="st11" d="M844.68,192.22c3.34-1.02,6.68,0.69,7.74,4.14c0.07,0.23,0.17,0.65,0.2,0.89c0.07,0.33-0.12,0.64-0.41,0.73
		l-8.75,2.68c0.63,1.71,2.66,2.95,4.75,2.31c1.16-0.35,2.06-1.19,2.58-1.81c0.32-0.34,0.5-0.54,0.86-0.3l1.28,0.95
		c0.3,0.19,0.48,0.42,0.19,0.86c-0.69,1.09-2.11,2.41-4.27,3.07c-3.89,1.19-7.4-1.07-8.53-4.77
		C839.21,197.31,840.82,193.4,844.68,192.22z M849.24,196.66c-0.57-1.51-2.26-2.44-3.83-1.95c-1.74,0.53-2.7,2.2-2.4,3.87
		L849.24,196.66z"/>
	<path class="st11" d="M853.97,190.39c-0.1-0.32,0.1-0.7,0.42-0.8l0.93-0.29c0.26-0.08,0.5,0.02,0.63,0.23l0.72,0.97
		c0.15-0.33,1.38-2.39,3.95-3.18c3.92-1.2,6.22,1.12,7.24,4.46l1.98,6.46c0.1,0.32-0.1,0.7-0.42,0.8l-1.83,0.56
		c-0.35,0.11-0.7-0.1-0.8-0.42l-2.02-6.59c-0.63-2.06-1.97-2.88-3.64-2.37c-2.03,0.62-2.96,2.52-2.98,3.02l2.4,7.85
		c0.13,0.42,0,0.67-0.55,0.84l-1.67,0.51c-0.32,0.1-0.7-0.1-0.8-0.42L853.97,190.39z"/>
</g>
<g>
	<path class="st11" d="M777.32,336.24c-0.06-0.33,0.15-0.68,0.52-0.74l7.42-1.31c4.01-0.71,7.36,1.43,7.97,4.91
		c0.45,2.55-1.11,4.7-2.51,5.87c1.88,0.42,4.56,1.62,5.09,4.67c0.66,3.71-1.92,6.93-6.09,7.67l-7.78,1.38
		c-0.37,0.06-0.68-0.19-0.74-0.52L777.32,336.24z M786.84,344.29c2.12-0.37,3.14-2.16,2.79-4.15c-0.36-2.02-1.89-3.18-4.01-2.81
		l-4.47,0.79l1.23,6.96L786.84,344.29z M789.15,354.26c2.02-0.36,3.3-2.19,2.94-4.24c-0.36-2.02-2.54-3.14-4.69-2.76l-4.54,0.8
		l1.25,7.09L789.15,354.26z"/>
	<path class="st11" d="M796.37,332.87c-0.06-0.33,0.19-0.68,0.52-0.74l1.89-0.33c0.33-0.06,0.68,0.19,0.74,0.52l3.88,21.92
		c0.06,0.33-0.19,0.68-0.52,0.74l-1.89,0.33c-0.33,0.06-0.68-0.19-0.74-0.52L796.37,332.87z"/>
	<path class="st11" d="M811.1,339.52c3.71-0.66,7.25,2,7.91,5.74c0.67,3.81-1.75,7.51-5.45,8.17c-3.71,0.66-7.25-2-7.92-5.81
		C804.97,343.88,807.39,340.18,811.1,339.52z M813.06,350.58c2.09-0.37,3.42-2.52,3.01-4.8c-0.39-2.22-2.37-3.75-4.46-3.38
		c-2.09,0.37-3.42,2.48-3.03,4.7C808.99,349.39,810.97,350.95,813.06,350.58z"/>
	<path class="st11" d="M826.8,336.75c3.71-0.66,7.25,2,7.91,5.74c0.67,3.81-1.75,7.51-5.46,8.17s-7.25-2-7.92-5.8
		C820.67,341.11,823.09,337.4,826.8,336.75z M828.76,347.81c2.09-0.37,3.41-2.52,3.01-4.8c-0.39-2.22-2.37-3.75-4.46-3.38
		c-2.09,0.37-3.42,2.48-3.03,4.7C824.69,346.61,826.67,348.18,828.76,347.81z"/>
	<path class="st11" d="M836.98,335.94c-0.06-0.33,0.19-0.68,0.52-0.74l0.93-0.16c0.3-0.05,0.49,0.08,0.63,0.3l0.56,1.06
		c0.25-0.35,1.49-2.18,4.04-2.63c1.92-0.34,3.45,0.18,4.65,1.36c0.3-0.43,1.91-2.52,4.43-2.97c4.04-0.71,5.97,1.88,6.58,5.33
		l1.18,6.66c0.06,0.33-0.15,0.68-0.52,0.74l-1.85,0.33c-0.36,0.06-0.68-0.19-0.74-0.52l-1.2-6.79c-0.37-2.09-1.54-3.11-3.33-2.79
		c-2.02,0.36-2.93,1.99-3.12,2.23c0.12,0.29,0.26,0.91,0.38,1.57l1.21,6.86c0.06,0.33-0.19,0.68-0.52,0.74l-1.75,0.31
		c-0.37,0.06-0.68-0.19-0.74-0.52l-1.2-6.79c-0.38-2.12-1.54-3.11-3.39-2.78c-1.99,0.35-2.84,2.11-2.93,2.57l1.43,8.08
		c0.06,0.33-0.19,0.68-0.52,0.74l-1.85,0.33c-0.33,0.06-0.68-0.19-0.74-0.52L836.98,335.94z"/>
	<path class="st11" d="M860.76,321.49c-0.06-0.33,0.19-0.68,0.52-0.74l1.92-0.34c0.33-0.06,0.68,0.19,0.74,0.52l1.71,9.7
		c0.28-0.15,1.36-0.99,3.05-1.29c3.68-0.65,7.07,1.93,7.75,5.8c0.67,3.81-1.45,7.43-4.96,8.05c-2.62,0.46-4.53-1.11-4.53-1.11
		l-0.09,1.01c-0.04,0.35-0.2,0.62-0.5,0.67l-0.99,0.18c-0.33,0.06-0.68-0.19-0.74-0.52L860.76,321.49z M870.59,340.41
		c2.12-0.37,3.18-2.51,2.78-4.73c-0.4-2.25-2.28-3.8-4.5-3.41c-1.72,0.3-2.75,1.27-2.75,1.27l0.96,5.43
		C867.32,339.32,868.57,340.77,870.59,340.41z"/>
	<path class="st11" d="M884.24,326.59c3.44-0.61,6.55,1.51,7.18,5.05c0.04,0.23,0.08,0.67,0.09,0.91c0.03,0.34-0.2,0.62-0.5,0.67
		l-9.01,1.59c0.42,1.77,2.28,3.25,4.43,2.87c1.19-0.21,2.19-0.93,2.78-1.48c0.36-0.3,0.57-0.48,0.89-0.19l1.15,1.09
		c0.28,0.22,0.42,0.47,0.08,0.87c-0.81,1-2.39,2.13-4.61,2.52c-4.01,0.71-7.21-1.97-7.89-5.78
		C878.18,330.98,880.26,327.3,884.24,326.59z M888.22,331.56c-0.38-1.57-1.95-2.7-3.57-2.41c-1.79,0.32-2.95,1.85-2.86,3.54
		L888.22,331.56z"/>
	<path class="st11" d="M893.68,325.91c-0.06-0.33,0.19-0.68,0.52-0.74l0.96-0.17c0.23-0.04,0.53,0.11,0.65,0.36l0.56,1.06
		c0.17-0.37,1.12-2.18,3.54-2.61c1.26-0.22,2.84-0.16,2.63,0.8l-0.51,1.76c-0.1,0.39-0.42,0.52-0.74,0.44
		c-0.22-0.06-0.74-0.11-1.17-0.03c-1.92,0.34-2.6,1.9-2.69,2.15l1.49,8.41c0.1,0.56-0.25,0.69-0.78,0.79l-1.59,0.28
		c-0.33,0.06-0.68-0.19-0.74-0.52L893.68,325.91z"/>
	<path class="st11" d="M906.93,331.87c0,0-1.24-1.04-1.59-3.03c-0.54-3.08,1.29-6.2,4.67-6.8l5.79-1.02
		c0.37-0.06,0.68,0.15,0.74,0.52l0.15,0.83c0.04,0.23-0.04,0.55-0.26,0.63l-1.73,0.82c0,0,1.61,0.81,2.05,3.29
		c0.5,2.81-1.23,5.78-4.68,6.39c-1.69,0.3-2.71-0.07-2.97-0.02c-0.23,0.04-1.26,0.8-1.07,1.86c0.13,0.76,0.84,1.25,1.83,1.08
		l4.5-0.8c2.88-0.51,5.48,0.64,5.98,3.52c0.51,2.91-1.68,5.97-6.08,6.74c-4.67,0.83-6.98-1.23-7.36-3.38
		c-0.35-1.99,1.11-3.2,1.4-3.46l-0.02-0.1c-0.73-0.07-2.64-0.66-3.04-2.88C904.79,333.51,906.93,331.87,906.93,331.87z
		 M913.89,327.4c-0.32-1.79-1.67-2.85-3.32-2.56c-1.69,0.3-2.69,1.77-2.38,3.56c0.32,1.79,1.76,2.83,3.45,2.53
		C913.3,330.64,914.21,329.19,913.89,327.4z M913.74,343.17c2.02-0.36,3.59-1.69,3.31-3.28c-0.09-0.53-0.66-1.83-2.82-1.45
		c-0.96,0.17-1.95,0.35-2.9,0.58c-0.19,0.1-1.72,0.92-1.45,2.41C910.12,342.78,911.72,343.53,913.74,343.17z"/>
</g>
<g>
	<path class="st11" d="M892.87,152.61c0-0.34,0.27-0.64,0.64-0.64h7.53c4.07,0,7,2.69,7,6.22c0,2.59-1.92,4.44-3.5,5.35
		c1.78,0.74,4.2,2.39,4.2,5.48c0,3.77-3.09,6.49-7.33,6.49h-7.9c-0.37,0-0.64-0.3-0.64-0.64V152.61z M901.38,172.42
		c2.05,0,3.63-1.58,3.63-3.67c0-2.05-1.95-3.53-4.14-3.53h-4.61v7.2H901.38z M900.84,162.2c2.15,0,3.46-1.58,3.46-3.6
		c0-2.05-1.31-3.46-3.46-3.46h-4.54v7.06H900.84z"/>
	<path class="st11" d="M918.2,161.73c3.77,0,6.79,3.23,6.79,7.03c0,3.87-3.03,7.1-6.79,7.1s-6.79-3.23-6.79-7.1
		C911.4,164.96,914.43,161.73,918.2,161.73z M918.2,172.96c2.12,0,3.8-1.88,3.8-4.2c0-2.25-1.68-4.1-3.8-4.1
		c-2.12,0-3.8,1.85-3.8,4.1C914.4,171.08,916.08,172.96,918.2,172.96z"/>
	<path class="st11" d="M934.14,161.73c3.77,0,6.79,3.23,6.79,7.03c0,3.87-3.03,7.1-6.79,7.1s-6.79-3.23-6.79-7.1
		C927.35,164.96,930.38,161.73,934.14,161.73z M934.14,172.96c2.12,0,3.8-1.88,3.8-4.2c0-2.25-1.68-4.1-3.8-4.1
		c-2.12,0-3.8,1.85-3.8,4.1C930.34,171.08,932.02,172.96,934.14,172.96z"/>
	<path class="st11" d="M944.3,152.61c0-0.34,0.3-0.64,0.64-0.64h1.95c0.34,0,0.64,0.3,0.64,0.64v14.56l5.25-4.71
		c0.24-0.2,0.5-0.4,0.84-0.4h2.35c0.57,0,0.67,0.64,0.37,0.91l-5.58,5.08l6.59,6.59c0.3,0.3,0.2,0.87-0.37,0.87h-2.76
		c-0.24,0-0.5-0.13-0.6-0.27l-6.09-6.26v5.89c0,0.34-0.3,0.64-0.64,0.64h-1.95c-0.34,0-0.64-0.3-0.64-0.64V152.61z"/>
	<path class="st11" d="M965.52,161.73c3.5,0,6.19,2.62,6.19,6.22c0,0.24-0.03,0.67-0.07,0.91c-0.03,0.34-0.3,0.57-0.61,0.57h-9.15
		c0.1,1.82,1.68,3.6,3.87,3.6c1.21,0,2.32-0.54,2.99-0.98c0.4-0.24,0.64-0.37,0.91-0.03l0.94,1.28c0.24,0.27,0.34,0.54-0.07,0.87
		c-0.97,0.84-2.72,1.68-4.98,1.68c-4.07,0-6.76-3.19-6.76-7.06C958.8,164.99,961.49,161.73,965.52,161.73z M968.59,167.31
		c-0.1-1.61-1.45-2.99-3.09-2.99c-1.82,0-3.23,1.31-3.43,2.99H968.59z"/>
	<path class="st11" d="M974.94,162.7c0-0.34,0.3-0.64,0.64-0.64h0.97c0.24,0,0.5,0.2,0.57,0.47l0.37,1.14
		c0.24-0.34,1.48-1.95,3.93-1.95c1.28,0,2.83,0.34,2.46,1.24l-0.81,1.65c-0.17,0.37-0.5,0.44-0.81,0.3c-0.2-0.1-0.71-0.24-1.14-0.24
		c-1.95,0-2.89,1.41-3.03,1.65v8.54c0,0.57-0.37,0.64-0.91,0.64h-1.61c-0.34,0-0.64-0.3-0.64-0.64V162.7z"/>
</g>
<g>
	<path class="st11" d="M777.74,501.81c0.07-0.33,0.4-0.57,0.76-0.49l7.36,1.6c3.98,0.87,6.26,4.12,5.51,7.57
		c-0.55,2.53-2.82,3.93-4.56,4.48c1.58,1.1,3.6,3.23,2.94,6.25c-0.8,3.68-4.41,5.68-8.55,4.78l-7.72-1.68
		c-0.36-0.08-0.56-0.43-0.49-0.76L777.74,501.81z M781.84,522.98c2,0.44,3.89-0.77,4.33-2.81c0.44-2-1.15-3.87-3.29-4.33l-4.5-0.98
		l-1.53,7.03L781.84,522.98z M783.49,512.87c2.1,0.46,3.72-0.81,4.15-2.78c0.44-2-0.54-3.66-2.65-4.12l-4.44-0.97l-1.5,6.9
		L783.49,512.87z"/>
	<path class="st11" d="M794.29,515.74c0.07-0.33,0.43-0.56,0.76-0.49l1.87,0.41c0.33,0.07,0.56,0.43,0.49,0.76l-1.47,6.74
		c-0.47,2.14,0.3,3.51,1.98,3.87c1.94,0.42,3.5-0.89,3.73-1.46l1.71-7.85c0.11-0.53,0.4-0.57,0.86-0.47l1.71,0.37
		c0.33,0.07,0.56,0.43,0.49,0.76l-2.59,11.89c-0.07,0.33-0.43,0.56-0.76,0.49l-0.92-0.2c-0.33-0.07-0.44-0.34-0.48-0.65l-0.12-1.02
		c-0.35,0.2-2.07,1.44-4.73,0.86c-3.94-0.86-4.71-3.95-3.97-7.37L794.29,515.74z"/>
	<path class="st11" d="M811.09,521.61l-1.38-0.3c-0.36-0.08-0.56-0.43-0.49-0.76l0.32-1.48c0.08-0.36,0.4-0.57,0.76-0.49l1.38,0.3
		l0.8-3.65c0.07-0.33,0.43-0.56,0.76-0.49l1.88,0.38c0.33,0.07,0.53,0.42,0.46,0.75l-0.8,3.68l3.35,0.73
		c0.36,0.08,0.57,0.4,0.49,0.76l-0.32,1.48c-0.07,0.33-0.4,0.57-0.76,0.49l-3.35-0.73l-1.42,6.51c-0.24,1.12,0.14,1.41,0.77,1.54
		c0.69,0.15,1.7-0.04,2.13-0.15c0.47-0.1,0.62,0.14,0.69,0.46l0.28,1.57c0.08,0.4-0.1,0.63-0.47,0.72
		c-0.37,0.12-2.48,0.49-4.06,0.15c-2.6-0.57-3.01-2.31-2.5-4.64L811.09,521.61z"/>
	<path class="st11" d="M822.46,524.09l-1.38-0.3c-0.36-0.08-0.56-0.43-0.49-0.76l0.32-1.48c0.08-0.36,0.4-0.57,0.76-0.49l1.38,0.3
		l0.8-3.65c0.07-0.33,0.43-0.56,0.76-0.49l1.88,0.38c0.33,0.07,0.53,0.42,0.46,0.75l-0.8,3.68l3.35,0.73
		c0.36,0.08,0.57,0.4,0.49,0.76l-0.32,1.48c-0.07,0.33-0.4,0.57-0.76,0.49l-3.35-0.73l-1.42,6.51c-0.24,1.12,0.14,1.41,0.77,1.54
		c0.69,0.15,1.7-0.04,2.13-0.15c0.47-0.1,0.62,0.14,0.69,0.46l0.28,1.57c0.09,0.4-0.1,0.63-0.47,0.72
		c-0.37,0.12-2.48,0.49-4.06,0.15c-2.59-0.57-3.01-2.31-2.5-4.64L822.46,524.09z"/>
	<path class="st11" d="M833.43,524.28c0.07-0.33,0.43-0.56,0.76-0.49l1.87,0.41c0.33,0.07,0.56,0.43,0.49,0.76l-2.59,11.89
		c-0.07,0.33-0.43,0.56-0.76,0.49l-1.87-0.41c-0.33-0.07-0.56-0.43-0.49-0.76L833.43,524.28z M834.79,516.31
		c0.24-1.08,1.25-1.76,2.3-1.53c1.08,0.24,1.75,1.28,1.52,2.36c-0.23,1.05-1.27,1.72-2.35,1.48
		C835.2,518.4,834.56,517.36,834.79,516.31z"/>
	<path class="st11" d="M840.11,534.1c0,0-0.75-1.44-0.32-3.41c0.67-3.06,3.55-5.25,6.91-4.52l5.75,1.25
		c0.36,0.08,0.57,0.4,0.49,0.76l-0.18,0.82c-0.05,0.23-0.25,0.5-0.48,0.48l-1.91,0.1c0,0,1.18,1.36,0.65,3.82
		c-0.61,2.79-3.33,4.88-6.75,4.14c-1.68-0.37-2.48-1.09-2.74-1.15c-0.23-0.05-1.47,0.27-1.7,1.32c-0.16,0.76,0.3,1.48,1.28,1.69
		l4.47,0.97c2.86,0.62,4.82,2.67,4.2,5.53c-0.63,2.89-3.82,4.88-8.19,3.93c-4.63-1.01-5.99-3.78-5.52-5.92
		c0.43-1.97,2.24-2.54,2.61-2.67l0.02-0.1c-0.65-0.35-2.2-1.61-1.72-3.82C837.51,534.8,840.11,534.1,840.11,534.1z M842.12,547.13
		c2,0.44,3.97-0.2,4.31-1.78c0.12-0.53,0.08-1.94-2.06-2.41c-0.95-0.21-1.94-0.42-2.91-0.57c-0.21,0.02-1.94,0.2-2.26,1.68
		C838.92,545.4,840.11,546.7,842.12,547.13z M848.25,532.6c0.39-1.77-0.46-3.27-2.1-3.62c-1.68-0.37-3.16,0.62-3.55,2.39
		s0.56,3.29,2.23,3.65C846.47,535.38,847.86,534.37,848.25,532.6z"/>
	<path class="st11" d="M855.95,529.18c0.07-0.33,0.43-0.56,0.76-0.49l1.87,0.41c0.33,0.07,0.56,0.43,0.49,0.76l-2.59,11.89
		c-0.07,0.33-0.43,0.56-0.76,0.49l-1.87-0.41c-0.33-0.07-0.56-0.43-0.49-0.76L855.95,529.18z M857.3,521.22
		c0.24-1.08,1.24-1.76,2.3-1.53c1.08,0.24,1.75,1.28,1.51,2.36c-0.23,1.05-1.27,1.72-2.35,1.48
		C857.71,523.3,857.08,522.27,857.3,521.22z"/>
	<path class="st11" d="M869.17,531.07c3.42,0.75,5.49,3.88,4.72,7.4c-0.05,0.23-0.18,0.65-0.26,0.87c-0.11,0.32-0.42,0.49-0.71,0.43
		l-8.94-1.95c-0.29,1.8,0.88,3.87,3.01,4.34c1.18,0.26,2.38-0.03,3.13-0.31c0.44-0.14,0.7-0.23,0.89,0.16l0.65,1.45
		c0.17,0.31,0.21,0.6-0.25,0.84c-1.13,0.61-3.02,1.06-5.22,0.58c-3.98-0.87-5.92-4.56-5.1-8.34
		C861.9,532.82,865.22,530.21,869.17,531.07z M870.97,537.18c0.25-1.6-0.78-3.23-2.38-3.58c-1.77-0.39-3.43,0.59-3.99,2.19
		L870.97,537.18z"/>
	<path class="st11" d="M877.44,542.23c0,0-0.75-1.44-0.32-3.41c0.67-3.06,3.55-5.25,6.91-4.52l5.75,1.25
		c0.36,0.08,0.57,0.4,0.49,0.76l-0.18,0.82c-0.05,0.23-0.25,0.5-0.48,0.48l-1.91,0.1c0,0,1.18,1.36,0.65,3.82
		c-0.61,2.79-3.33,4.88-6.75,4.14c-1.68-0.37-2.48-1.09-2.74-1.15c-0.23-0.05-1.47,0.26-1.7,1.32c-0.16,0.76,0.3,1.48,1.28,1.69
		l4.47,0.97c2.86,0.62,4.82,2.67,4.2,5.53c-0.63,2.89-3.82,4.88-8.19,3.93c-4.63-1.01-5.99-3.78-5.52-5.92
		c0.43-1.97,2.24-2.54,2.61-2.67l0.02-0.1c-0.65-0.35-2.2-1.61-1.72-3.82C874.84,542.94,877.44,542.23,877.44,542.23z
		 M879.45,555.27c2,0.44,3.97-0.2,4.31-1.78c0.12-0.53,0.08-1.94-2.06-2.41c-0.95-0.21-1.94-0.42-2.91-0.56
		c-0.21,0.02-1.94,0.2-2.26,1.68C876.25,553.54,877.45,554.83,879.45,555.27z M885.58,540.74c0.39-1.77-0.46-3.27-2.1-3.62
		c-1.68-0.37-3.16,0.62-3.55,2.39c-0.39,1.77,0.56,3.29,2.23,3.65C883.8,543.52,885.19,542.51,885.58,540.74z"/>
</g>
<g>
	<path class="st11" d="M747.58,223.42c0.14-0.41,0.57-0.66,1.02-0.51l1.85,0.61c0.42,0.14,0.65,0.6,0.51,1.02l-2.92,8.85l12.08-6.32
		c0.18-0.12,0.46-0.2,0.71-0.12l2.39,0.79c0.58,0.19,0.67,0.97,0.07,1.3l-12.33,6.34l6.21,13.99c0.15,0.4-0.25,1.09-0.92,0.86
		l-2.55-0.84c-0.32-0.11-0.47-0.3-0.5-0.41l-5.83-13.55l-3.28,9.93c-0.14,0.42-0.6,0.65-1.02,0.51l-1.85-0.61
		c-0.45-0.15-0.65-0.6-0.51-1.02L747.58,223.42z"/>
	<path class="st11" d="M766.38,229.46c0.11-0.32,0.49-0.51,0.81-0.41l1.82,0.6c0.32,0.11,0.51,0.49,0.41,0.81l-6.99,21.14
		c-0.11,0.32-0.49,0.51-0.81,0.41l-1.82-0.6c-0.32-0.11-0.51-0.49-0.41-0.81L766.38,229.46z"/>
	<path class="st11" d="M776.19,242.3c3.58,1.18,5.44,5.2,4.24,8.81c-1.21,3.67-5.1,5.79-8.68,4.61s-5.44-5.2-4.22-8.87
		C768.73,243.24,772.62,241.12,776.19,242.3z M772.67,252.97c2.01,0.66,4.2-0.6,4.93-2.8c0.71-2.14-0.31-4.42-2.32-5.09
		s-4.19,0.56-4.9,2.7C769.65,249.99,770.66,252.3,772.67,252.97z"/>
	<path class="st11" d="M788.7,236.84c0.11-0.32,0.49-0.51,0.81-0.41l1.85,0.61c0.32,0.11,0.51,0.49,0.41,0.81l-3.09,9.36
		c0.32,0,1.67-0.23,3.3,0.31c3.54,1.17,5.31,5.05,4.07,8.79c-1.21,3.67-4.8,5.85-8.19,4.73c-2.52-0.83-3.46-3.13-3.46-3.13
		l-0.56,0.84c-0.2,0.29-0.47,0.45-0.75,0.35l-0.96-0.32c-0.32-0.11-0.51-0.49-0.41-0.81L788.7,236.84z M788.38,258.16
		c2.04,0.68,3.99-0.7,4.69-2.84c0.72-2.17-0.2-4.42-2.34-5.13c-1.66-0.55-3.02-0.18-3.02-0.18l-1.73,5.24
		C786.02,255.65,786.43,257.52,788.38,258.16z"/>
	<path class="st11" d="M800.99,251.53c0.11-0.32,0.49-0.51,0.81-0.41l1.82,0.6c0.32,0.11,0.51,0.49,0.41,0.81l-2.16,6.55
		c-0.69,2.08-0.07,3.52,1.56,4.06c1.88,0.62,3.57-0.52,3.86-1.06l2.52-7.63c0.17-0.51,0.46-0.52,0.9-0.37l1.66,0.55
		c0.32,0.11,0.51,0.49,0.41,0.81l-3.82,11.56c-0.11,0.32-0.49,0.51-0.81,0.41l-0.89-0.3c-0.32-0.11-0.4-0.38-0.41-0.7l-0.01-1.03
		c-0.37,0.16-2.21,1.22-4.79,0.36c-3.83-1.27-4.28-4.42-3.18-7.75L800.99,251.53z"/>
	<path class="st11" d="M822.98,257.77c1.95,0.64,3.18,1.94,3.88,3.8c0.13,0.36-0.06,0.72-0.42,0.85l-1.37,0.61
		c-0.5,0.23-0.64-0.1-0.82-0.41c-0.36-0.83-1.1-1.71-2.15-2.06c-2.08-0.69-4.28,0.53-5,2.7c-0.73,2.2,0.29,4.49,2.36,5.17
		c1.63,0.54,2.58-0.07,3.46-0.49c0.38-0.19,0.67-0.1,0.88,0.22l0.63,0.99c0.23,0.36,0.26,0.72-0.07,0.97
		c-1.56,1.29-3.63,1.77-5.84,1.05c-3.58-1.18-5.74-5.05-4.47-8.88C815.29,258.52,819.44,256.6,822.98,257.77z"/>
	<path class="st11" d="M833.95,251.8c0.11-0.32,0.49-0.51,0.81-0.41l1.85,0.61c0.32,0.11,0.51,0.49,0.41,0.81l-3.31,10.03
		c0.39-0.12,2.24-0.78,4.29-0.11c3.61,1.19,4.48,4.35,3.33,7.83l-2.12,6.42c-0.11,0.32-0.49,0.51-0.81,0.41l-1.79-0.59
		c-0.35-0.12-0.51-0.49-0.41-0.81l2.14-6.48c0.69-2.08,0.01-3.57-1.65-4.12c-1.95-0.64-3.78,0.38-4.12,0.87l-2.54,7.7
		c-0.12,0.35-0.42,0.53-0.84,0.4l-1.82-0.6c-0.32-0.11-0.51-0.49-0.41-0.81L833.95,251.8z"/>
	<path class="st11" d="M849.84,272.21c1.34,0.44,2.4,1.22,2.4,1.22c0.7-2,0.58-2.93-1.05-3.46c-1.47-0.49-3.03-0.58-3.77-0.61
		c-0.42-0.03-0.55-0.36-0.53-0.74l0.13-1.27c0.04-0.45,0.34-0.6,0.66-0.6c0.26-0.02,2.29-0.06,4.65,0.72
		c4.09,1.35,3.65,3.97,2.59,7.16l-2.25,6.8c-0.11,0.32-0.49,0.51-0.81,0.41l-0.89-0.3c-0.29-0.09-0.37-0.27-0.4-0.63l-0.03-0.97
		c-0.92,0.44-2.49,0.98-4.47,0.33c-2.39-0.79-3.58-2.99-2.7-5.64C844.14,272.31,846.59,271.14,849.84,272.21z M847.43,278.22
		c1.28,0.42,2.81-0.14,3.4-0.65l0.68-2.04c-0.15-0.19-0.92-0.87-2.07-1.25c-1.53-0.51-2.85-0.06-3.28,1.25
		C845.78,276.68,846.25,277.83,847.43,278.22z"/>
	<path class="st11" d="M860.52,271.21c0.11-0.32,0.49-0.51,0.81-0.41l0.93,0.31c0.22,0.07,0.42,0.35,0.39,0.63l-0.01,1.2
		c0.33-0.25,2.02-1.39,4.35-0.62c1.21,0.4,2.58,1.21,1.94,1.95l-1.28,1.31c-0.28,0.3-0.62,0.26-0.86,0.03
		c-0.16-0.16-0.6-0.44-1.01-0.58c-1.85-0.61-3.19,0.43-3.39,0.61l-2.68,8.11c-0.18,0.54-0.55,0.49-1.06,0.32l-1.53-0.51
		c-0.32-0.11-0.51-0.49-0.41-0.81L860.52,271.21z"/>
</g>
<g>
	<path class="st11" d="M822.57,407.76c0.27-0.46,0.5-0.98,0.77-1.44c0.27-0.46,0.73-0.63,1.12-0.35c0.21,0.15,2.96,2.11,5.54,1.92
		c2.31-0.17,3.69-1.69,3.56-3.4c-0.15-2.01-1.99-3.16-5.41-4.29c-3.53-1.19-6.34-2.77-6.63-6.66c-0.19-2.62,1.56-6.35,6.89-6.75
		c3.35-0.25,6,1.31,6.35,1.52c0.28,0.15,0.58,0.6,0.29,1.13c-0.24,0.42-0.51,0.91-0.74,1.34c-0.24,0.46-0.66,0.69-1.15,0.42
		c-0.24-0.12-2.71-1.49-4.65-1.34c-2.82,0.21-3.66,2.06-3.57,3.3c0.14,1.91,1.7,2.98,4.57,3.91c4.01,1.29,7.46,2.89,7.76,6.98
		c0.26,3.49-2.65,6.57-7.01,6.89c-4.09,0.3-6.83-1.66-7.41-2.12C822.53,408.57,822.28,408.35,822.57,407.76z"/>
	<path class="st11" d="M844.87,400.99c1.41-0.1,2.68,0.21,2.68,0.21c-0.12-2.12-0.59-2.92-2.3-2.8c-1.54,0.11-3.02,0.63-3.71,0.88
		c-0.39,0.13-0.65-0.12-0.78-0.48l-0.36-1.22c-0.13-0.43,0.08-0.68,0.38-0.8c0.23-0.12,2.09-0.93,4.57-1.11
		c4.29-0.32,4.89,2.27,5.14,5.62l0.53,7.14c0.02,0.34-0.26,0.66-0.59,0.68l-0.94,0.07c-0.3,0.02-0.45-0.1-0.61-0.43l-0.4-0.88
		c-0.69,0.76-1.92,1.86-4,2.01c-2.51,0.19-4.45-1.39-4.66-4.18C839.64,403.26,841.45,401.24,844.87,400.99z M844.94,407.46
		c1.34-0.1,2.54-1.2,2.89-1.9l-0.16-2.15c-0.21-0.12-1.18-0.45-2.39-0.36c-1.61,0.12-2.66,1.04-2.55,2.41
		C842.83,406.67,843.7,407.55,844.94,407.46z"/>
	<path class="st11" d="M854.35,395.97c-0.02-0.34,0.26-0.66,0.59-0.68l0.97-0.07c0.27-0.02,0.48,0.13,0.57,0.36l0.49,1.11
		c0.21-0.29,1.87-2.03,4.56-2.22c4.09-0.3,5.81,2.47,6.07,5.96l0.5,6.74c0.02,0.34-0.25,0.66-0.59,0.68l-1.91,0.14
		c-0.37,0.03-0.66-0.25-0.68-0.59l-0.51-6.88c-0.16-2.15-1.28-3.24-3.03-3.12c-2.11,0.16-3.44,1.81-3.58,2.29l0.6,8.18
		c0.03,0.44-0.15,0.65-0.72,0.69l-1.74,0.13c-0.33,0.02-0.66-0.25-0.68-0.59L854.35,395.97z"/>
	<path class="st11" d="M876.95,393.33c1.71-0.13,2.96,0.42,3.27,0.5L879.5,384c-0.02-0.34,0.25-0.66,0.59-0.68l1.95-0.14
		c0.34-0.02,0.66,0.25,0.68,0.59l1.64,22.2c0.02,0.34-0.25,0.66-0.59,0.68l-1.01,0.07c-0.3,0.02-0.52-0.2-0.65-0.53l-0.34-0.95
		c0,0-1.47,2-4.12,2.19c-3.56,0.26-6.51-2.72-6.79-6.58C870.58,396.94,873.23,393.6,876.95,393.33z M877.85,404.53
		c2.05-0.15,2.9-1.87,3.04-2.25l-0.4-5.47c0,0-1.23-0.72-2.98-0.59c-2.25,0.17-3.69,2.13-3.52,4.41
		C874.15,402.88,875.7,404.69,877.85,404.53z"/>
	<path class="st11" d="M893.49,392.11c3.49-0.26,6.36,2.16,6.63,5.75c0.02,0.24,0.02,0.67,0,0.91c-0.01,0.34-0.26,0.59-0.56,0.61
		l-9.12,0.67c0.23,1.8,1.94,3.46,4.12,3.3c1.21-0.09,2.27-0.71,2.91-1.19c0.39-0.26,0.61-0.42,0.9-0.1l1.03,1.21
		c0.25,0.25,0.38,0.51,0,0.88c-0.91,0.91-2.59,1.88-4.84,2.04c-4.06,0.3-6.98-2.69-7.26-6.55
		C887.02,395.86,889.47,392.41,893.49,392.11z M896.95,397.46c-0.22-1.6-1.66-2.88-3.31-2.76c-1.81,0.13-3.12,1.55-3.2,3.24
		L896.95,397.46z"/>
	<path class="st11" d="M902.96,392.39c-0.02-0.34,0.25-0.66,0.59-0.68l0.97-0.07c0.24-0.02,0.52,0.16,0.61,0.43l0.45,1.11
		c0.21-0.35,1.33-2.05,3.78-2.23c1.27-0.09,2.84,0.13,2.54,1.06l-0.68,1.7c-0.14,0.38-0.47,0.47-0.78,0.36
		c-0.21-0.09-0.72-0.18-1.16-0.15c-1.95,0.14-2.78,1.62-2.9,1.87l0.63,8.52c0.04,0.57-0.32,0.66-0.86,0.7l-1.61,0.12
		c-0.33,0.02-0.66-0.25-0.68-0.59L902.96,392.39z"/>
	<path class="st11" d="M914.24,402.66l0.61-1.36c0.11-0.28,0.48-0.41,0.83-0.23c0,0,1.54,0.76,3.18,0.64
		c1.01-0.07,1.61-0.52,1.56-1.26c-0.07-0.91-0.84-1.29-2.74-1.99c-2.15-0.75-3.98-1.9-4.15-4.11c-0.12-1.68,1.1-3.79,4.32-4.03
		c1.88-0.14,3.33,0.36,4.03,0.75c0.32,0.18,0.52,0.6,0.34,0.95l-0.52,1.19c-0.15,0.31-0.57,0.45-0.85,0.33c0,0-1.53-0.6-2.8-0.5
		c-1.14,0.08-1.47,0.61-1.44,1.12c0.06,0.87,0.93,1.18,2.28,1.65c2.53,0.89,4.62,1.78,4.8,4.3c0.15,2.08-1.69,4.07-4.67,4.29
		c-2.25,0.17-3.78-0.53-4.53-1.05C914.28,403.23,914.12,402.94,914.24,402.66z"/>
</g>
<g>
	<path class="st11" d="M897.98,263.58c0.4-0.35,0.79-0.77,1.19-1.12c0.4-0.35,0.89-0.36,1.17,0.02c0.16,0.21,2.12,2.94,4.63,3.59
		c2.25,0.58,4.03-0.42,4.46-2.08c0.5-1.95-0.87-3.63-3.75-5.79c-2.96-2.26-5.12-4.65-4.15-8.43c0.65-2.54,3.5-5.52,8.68-4.19
		c3.26,0.84,5.26,3.16,5.53,3.47c0.22,0.23,0.36,0.75-0.09,1.16c-0.36,0.32-0.77,0.71-1.13,1.03c-0.37,0.36-0.84,0.44-1.22,0.03
		c-0.19-0.19-2.09-2.27-3.98-2.76c-2.74-0.7-4.12,0.78-4.43,1.98c-0.48,1.86,0.66,3.37,3.08,5.17c3.38,2.5,6.15,5.12,5.12,9.1
		c-0.87,3.39-4.61,5.38-8.85,4.29c-3.97-1.02-5.94-3.75-6.34-4.37C897.68,264.34,897.51,264.05,897.98,263.58z"/>
	<path class="st11" d="M918.03,261.24l-1.37-0.35c-0.36-0.09-0.54-0.45-0.46-0.78l0.38-1.46c0.09-0.36,0.42-0.55,0.78-0.46
		l1.37,0.35l0.93-3.62c0.08-0.33,0.45-0.54,0.78-0.46l1.87,0.45c0.33,0.08,0.51,0.44,0.43,0.77l-0.94,3.65l3.32,0.85
		c0.36,0.09,0.55,0.42,0.46,0.78l-0.38,1.47c-0.08,0.33-0.42,0.55-0.78,0.46l-3.32-0.85l-1.66,6.45c-0.28,1.11,0.09,1.41,0.71,1.57
		c0.68,0.18,1.7,0.02,2.14-0.07c0.47-0.09,0.62,0.16,0.67,0.49l0.22,1.58c0.07,0.4-0.13,0.63-0.5,0.71c-0.38,0.11-2.5,0.4-4.06,0
		c-2.57-0.66-2.92-2.42-2.32-4.73L918.03,261.24z"/>
	<path class="st11" d="M934.8,262.33c3.39,0.87,5.34,4.08,4.44,7.57c-0.06,0.23-0.2,0.64-0.29,0.86c-0.12,0.32-0.44,0.48-0.73,0.4
		l-8.86-2.28c-0.35,1.78,0.73,3.9,2.85,4.45c1.17,0.3,2.38,0.06,3.14-0.2c0.45-0.13,0.71-0.2,0.89,0.19l0.59,1.47
		c0.16,0.32,0.19,0.6-0.28,0.83c-1.15,0.57-3.06,0.95-5.24,0.39c-3.94-1.01-5.75-4.78-4.79-8.52
		C927.47,263.81,930.89,261.32,934.8,262.33z M936.37,268.5c0.3-1.59-0.65-3.26-2.25-3.67c-1.76-0.45-3.45,0.47-4.07,2.04
		L936.37,268.5z"/>
	<path class="st11" d="M941.86,265.4c-0.09-0.47,0.28-0.83,0.77-0.7l2.15,0.55c0.2,0.05,0.41,0.28,0.46,0.5l1.81,9.7l0.03,0.01
		l6.14-7.66c0.21-0.26,0.48-0.26,0.78-0.18l1.86,0.48c0.52,0.13,0.67,0.62,0.33,0.99l-15.51,19c-0.15,0.17-0.39,0.32-0.65,0.25
		l-1.95-0.5c-0.49-0.13-0.67-0.62-0.33-1.02l6.77-8.22L941.86,265.4z"/>
	<path class="st11" d="M964.57,269.99c3.39,0.87,5.34,4.08,4.44,7.57c-0.06,0.23-0.2,0.64-0.29,0.86c-0.12,0.32-0.44,0.48-0.73,0.4
		l-8.86-2.28c-0.35,1.78,0.73,3.9,2.85,4.45c1.17,0.3,2.38,0.06,3.14-0.2c0.45-0.13,0.71-0.2,0.89,0.19l0.59,1.47
		c0.16,0.32,0.19,0.6-0.28,0.83c-1.15,0.57-3.06,0.95-5.24,0.39c-3.94-1.01-5.75-4.78-4.79-8.52
		C957.25,271.47,960.67,268.98,964.57,269.99z M966.15,276.16c0.3-1.59-0.65-3.26-2.25-3.67c-1.76-0.45-3.45,0.47-4.07,2.04
		L966.15,276.16z"/>
	<path class="st11" d="M973.45,273.28c0.08-0.33,0.45-0.54,0.78-0.46l0.94,0.24c0.23,0.06,0.44,0.32,0.44,0.6l0.07,1.2
		c0.31-0.27,1.92-1.52,4.3-0.91c1.24,0.32,2.65,1.03,2.07,1.82l-1.19,1.39c-0.26,0.32-0.6,0.3-0.86,0.09
		c-0.17-0.15-0.62-0.4-1.05-0.51c-1.89-0.49-3.15,0.65-3.34,0.84l-2.13,8.27c-0.14,0.55-0.52,0.53-1.04,0.39l-1.56-0.4
		c-0.33-0.08-0.54-0.45-0.46-0.78L973.45,273.28z"/>
</g>
<g>
	<path class="st11" d="M902.64,444.67c-0.2-0.45,0.02-0.82,0.49-0.88l2.23-0.32c0.27-0.04,0.57,0.16,0.67,0.38l6.2,14.71l0.13-0.02
		l3.19-16.49c0.04-0.21,0.25-0.41,0.51-0.45l0.6-0.09c0.27-0.04,0.52,0.1,0.62,0.29l7.73,14.94l0.13-0.02l1.79-15.85
		c0.03-0.24,0.27-0.51,0.53-0.55l2.23-0.32c0.47-0.07,0.78,0.23,0.71,0.71l-3.11,23.27c-0.03,0.28-0.27,0.51-0.53,0.55l-0.53,0.08
		c-0.23,0.03-0.52-0.09-0.62-0.28l-8.21-15.72l-0.17,0.02l-3.41,17.37c-0.04,0.21-0.28,0.41-0.51,0.45l-0.53,0.08
		c-0.27,0.04-0.56-0.12-0.67-0.38L902.64,444.67z"/>
	<path class="st11" d="M937.91,454.02c1.4-0.2,2.69,0.03,2.69,0.03c-0.26-2.1-0.78-2.88-2.48-2.64c-1.53,0.22-2.97,0.83-3.64,1.13
		c-0.38,0.16-0.66-0.08-0.81-0.43l-0.44-1.19c-0.16-0.42,0.04-0.69,0.32-0.83c0.22-0.13,2.02-1.07,4.49-1.42
		c4.26-0.61,5.03,1.94,5.5,5.26l1.01,7.09c0.05,0.33-0.21,0.68-0.54,0.72l-0.93,0.13c-0.3,0.04-0.45-0.07-0.63-0.39l-0.46-0.85
		c-0.63,0.8-1.79,1.99-3.85,2.28c-2.5,0.35-4.54-1.09-4.93-3.85C932.85,456.65,934.51,454.51,937.91,454.02z M938.42,460.47
		c1.33-0.19,2.45-1.37,2.76-2.09l-0.3-2.13c-0.22-0.1-1.21-0.37-2.41-0.2c-1.6,0.23-2.58,1.22-2.38,2.58
		C936.25,459.83,937.18,460.65,938.42,460.47z"/>
	<path class="st11" d="M947.03,448.38c-0.05-0.33,0.21-0.67,0.54-0.72l0.97-0.14c0.23-0.03,0.53,0.13,0.63,0.39l0.53,1.08
		c0.19-0.37,1.19-2.14,3.62-2.48c1.27-0.18,2.84-0.06,2.61,0.89l-0.57,1.74c-0.12,0.39-0.44,0.5-0.76,0.41
		c-0.21-0.07-0.73-0.13-1.17-0.07c-1.93,0.27-2.67,1.81-2.76,2.06l1.2,8.46c0.08,0.57-0.28,0.69-0.81,0.76l-1.6,0.23
		c-0.33,0.05-0.68-0.21-0.72-0.54L947.03,448.38z"/>
	<path class="st11" d="M958.22,446.79c-0.05-0.33,0.21-0.67,0.54-0.72l0.97-0.14c0.23-0.03,0.53,0.13,0.63,0.39l0.53,1.08
		c0.19-0.37,1.19-2.14,3.62-2.48c1.27-0.18,2.84-0.06,2.61,0.89l-0.57,1.74c-0.12,0.39-0.44,0.5-0.76,0.41
		c-0.21-0.07-0.73-0.13-1.17-0.07c-1.93,0.27-2.67,1.81-2.76,2.06l1.2,8.46c0.08,0.57-0.28,0.69-0.81,0.76l-1.6,0.23
		c-0.33,0.05-0.68-0.21-0.72-0.54L958.22,446.79z"/>
	<path class="st11" d="M974.86,443.44c3.46-0.49,6.5,1.73,7,5.29c0.03,0.23,0.06,0.67,0.06,0.91c0.01,0.34-0.22,0.61-0.52,0.65
		l-9.06,1.29c0.36,1.78,2.17,3.33,4.34,3.02c1.2-0.17,2.22-0.86,2.83-1.39c0.37-0.29,0.58-0.46,0.89-0.16l1.11,1.13
		c0.27,0.23,0.41,0.48,0.06,0.88c-0.85,0.97-2.46,2.05-4.69,2.36c-4.03,0.57-7.14-2.21-7.69-6.04
		C968.66,447.62,970.87,444.01,974.86,443.44z M978.68,448.54c-0.33-1.58-1.85-2.76-3.48-2.53c-1.8,0.26-3.01,1.75-2.98,3.45
		L978.68,448.54z"/>
	<path class="st11" d="M984.32,443.08c-0.05-0.33,0.21-0.67,0.54-0.72l0.97-0.14c0.27-0.04,0.49,0.1,0.59,0.32l0.56,1.08
		c0.2-0.3,1.73-2.15,4.4-2.53c4.06-0.58,5.97,2.07,6.46,5.54l0.95,6.69c0.05,0.33-0.21,0.68-0.54,0.72l-1.9,0.27
		c-0.37,0.05-0.68-0.21-0.72-0.54l-0.97-6.83c-0.3-2.13-1.5-3.15-3.23-2.9c-2.1,0.3-3.31,2.03-3.41,2.52l1.15,8.12
		c0.06,0.43-0.11,0.66-0.68,0.74l-1.73,0.25c-0.33,0.05-0.67-0.21-0.72-0.54L984.32,443.08z"/>
</g>
<g>
	<path class="st11" d="M919.64,506.61l-4.1-13.09c-0.12-0.5,0.29-0.93,0.81-0.77l2.37,0.75c0.26,0.08,0.37,0.29,0.42,0.45l3.2,10.02
		l8.4-6.33c0.14-0.1,0.38-0.2,0.6-0.13l2.4,0.76c0.51,0.16,0.61,0.76,0.22,1.09l-10.99,8.26l-3.25,10.22
		c-0.1,0.32-0.48,0.52-0.8,0.42l-2.12-0.67c-0.35-0.11-0.52-0.48-0.42-0.8L919.64,506.61z"/>
	<path class="st11" d="M932.89,513.79c1.35,0.43,2.41,1.19,2.41,1.19c0.67-2.01,0.54-2.93-1.09-3.45c-1.47-0.47-3.04-0.54-3.77-0.56
		c-0.41-0.03-0.56-0.35-0.54-0.74l0.12-1.27c0.04-0.45,0.33-0.6,0.65-0.6c0.25-0.02,2.28-0.08,4.66,0.67
		c4.1,1.3,3.69,3.93,2.67,7.13l-2.17,6.83c-0.1,0.32-0.48,0.52-0.8,0.42l-0.9-0.29c-0.29-0.09-0.38-0.26-0.4-0.62l-0.04-0.97
		c-0.92,0.45-2.48,1.01-4.46,0.38c-2.4-0.76-3.62-2.95-2.77-5.61C927.19,513.95,929.62,512.75,932.89,513.79z M930.55,519.82
		c1.28,0.41,2.81-0.17,3.39-0.69l0.65-2.05c-0.15-0.19-0.93-0.86-2.08-1.23c-1.54-0.49-2.85-0.02-3.27,1.29
		C928.88,518.3,929.36,519.44,930.55,519.82z"/>
	<path class="st11" d="M943.56,512.66c0.1-0.32,0.48-0.52,0.8-0.42l0.93,0.3c0.26,0.08,0.4,0.3,0.39,0.55l0.04,1.21
		c0.31-0.18,2.49-1.18,5.06-0.37c3.91,1.24,4.48,4.46,3.42,7.79l-2.05,6.44c-0.1,0.32-0.48,0.52-0.8,0.42l-1.83-0.58
		c-0.35-0.11-0.52-0.48-0.42-0.8l2.09-6.57c0.65-2.05,0.02-3.49-1.65-4.02c-2.02-0.64-3.87,0.39-4.17,0.79l-2.49,7.82
		c-0.13,0.42-0.39,0.55-0.93,0.37l-1.67-0.53c-0.32-0.1-0.52-0.48-0.42-0.8L943.56,512.66z"/>
	<path class="st11" d="M958.36,525.94c0,0-0.62-1.5,0-3.42c0.95-2.98,4.03-4.9,7.3-3.86l5.61,1.78c0.35,0.11,0.53,0.45,0.42,0.8
		l-0.25,0.8c-0.07,0.22-0.29,0.47-0.53,0.43l-1.92-0.08c0,0,1.05,1.46,0.29,3.87c-0.87,2.72-3.78,4.55-7.11,3.49
		c-1.63-0.52-2.37-1.32-2.62-1.4c-0.22-0.07-1.49,0.13-1.81,1.15c-0.23,0.74,0.16,1.5,1.12,1.8l4.36,1.39
		c2.79,0.89,4.55,3.11,3.67,5.89c-0.9,2.82-4.26,4.51-8.52,3.15c-4.52-1.44-5.61-4.33-4.95-6.41c0.61-1.92,2.47-2.32,2.85-2.41
		l0.03-0.1c-0.61-0.41-2.04-1.81-1.35-3.96C955.7,526.4,958.36,525.94,958.36,525.94z M959.15,539.11c1.95,0.62,3.97,0.17,4.46-1.37
		c0.16-0.51,0.26-1.93-1.82-2.59c-0.93-0.3-1.89-0.6-2.84-0.83c-0.21,0-1.95,0.02-2.41,1.46
		C956.12,537.09,957.19,538.49,959.15,539.11z M966.6,525.21c0.55-1.73-0.15-3.29-1.75-3.8c-1.64-0.52-3.21,0.32-3.76,2.05
		c-0.55,1.73,0.25,3.33,1.88,3.85C964.57,527.81,966.05,526.94,966.6,525.21z"/>
</g>
<g>
	<path class="st12" d="M531.27,344.77h-14.68c-1.06,0-1.82-0.86-1.82-1.82v-7.87c0-0.96,0.77-1.82,1.82-1.82h41.93
		c1.06,0,1.82,0.86,1.82,1.82v7.87c0,0.96-0.77,1.82-1.82,1.82h-14.68v53.83c0,0.96-0.86,1.82-1.82,1.82h-8.92
		c-0.96,0-1.82-0.86-1.82-1.82V344.77z"/>
	<path class="st12" d="M561.68,363.86c0-1.06,0.86-1.82,1.82-1.82h3.65c0.86,0,1.44,0.48,1.73,1.25l1.34,3.74
		c1.34-1.92,4.89-5.95,10.84-5.95c4.51,0,8.54,1.44,7.39,3.84l-3.55,6.24c-0.48,0.86-1.44,1.25-2.21,0.86
		c-0.29-0.1-1.73-0.58-2.78-0.58c-3.84,0-6.14,2.59-6.81,3.93v23.22c0,1.34-0.86,1.82-2.21,1.82h-7.39c-0.96,0-1.82-0.86-1.82-1.82
		V363.86z"/>
	<path class="st12" d="M593.73,363.86c0-1.06,0.86-1.82,1.82-1.82h7.87c0.96,0,1.82,0.77,1.82,1.82v18.9c0,5.08,2.59,8.25,7,8.25
		c4.03,0,7.1-3.74,7.68-7.2v-19.96c0-1.44,0.58-1.82,2.11-1.82h7.29c0.96,0,1.82,0.77,1.82,1.82v34.73c0,0.96-0.86,1.82-1.82,1.82
		h-3.55c-0.96,0-1.54-0.67-1.82-1.44l-1.15-3.17c-1.73,1.54-5.28,5.56-12.86,5.56c-11.9,0-16.22-9.11-16.22-18.9V363.86z"/>
	<path class="st12" d="M642.66,363.86c0-1.06,0.86-1.82,1.82-1.82h3.55c0.86,0,1.44,0.48,1.63,1.06l1.34,3.65
		c1.63-1.82,6.04-5.66,12.86-5.66c5.47,0,9.31,2.11,12.47,5.95c1.63-1.73,6.62-5.95,13.53-5.95c12.28,0,16.79,9.11,16.79,19.19
		v18.33c0,0.96-0.77,1.82-1.82,1.82h-7.77c-1.06,0-1.82-0.86-1.82-1.82v-19c0-4.99-2.4-8.16-7.2-8.16c-5.56,0-8.06,4.03-8.06,4.03
		s0.1,1.92,0.1,3.65v19.48c0,0.96-0.86,1.82-1.82,1.82h-7.2c-1.06,0-1.82-0.86-1.82-1.82v-19c0-4.99-2.21-8.16-7.1-8.16
		c-4.8,0-7.1,3.45-8.06,6.04v21.11c0,0.96-0.86,1.82-1.82,1.82h-7.77c-0.96,0-1.82-0.86-1.82-1.82V363.86z"/>
	<path class="st12" d="M729.21,427.38c0,1.15-0.58,1.82-2.3,1.82h-7.68c-0.96,0-1.82-0.86-1.82-1.82v-63.52
		c0-1.06,0.86-1.82,1.82-1.82h3.74c0.67,0,1.34,0.38,1.63,1.15l1.25,3.17c1.44-1.92,6.14-5.28,12.38-5.28
		c10.55,0,18.52,9.11,18.52,20.15c0,11.32-8.63,20.15-19,20.15c-3.74,0-7.2-1.34-8.54-2.11V427.38z M736.21,391.02
		c5.37,0,9.31-4.41,9.31-9.79s-3.65-9.79-8.92-9.79c-4.89,0-7.29,3.84-7.87,5.85v11.51C728.73,388.81,731.41,391.02,736.21,391.02z"
		/>
</g>
<g>
</g>
<g>
</g>
<g>
</g>
<g>
</g>
<g>
</g>
<g>
</g>
<g>
</g>
<g>
</g>
<g>
</g>
<g>
</g>
<g>
</g>
</svg>
