<?xml version="1.0" encoding="utf-8"?>
<!-- Generator: Adobe Illustrator 24.1.0, SVG Export Plug-In . SVG Version: 6.00 Build 0)  -->
<svg version="1.1" id="Layer_1" xmlns="http://www.w3.org/2000/svg" xmlns:xlink="http://www.w3.org/1999/xlink" x="0px" y="0px"
	 viewBox="0 0 860 445" style="enable-background:new 0 0 860 445;" xml:space="preserve">
<style type="text/css">
	.st0{fill:#FF6060;}
	.st1{fill:#B722FF;}
	.st2{fill:#FF8D32;}
	.st3{fill:#00C181;}
	.st4{fill:#FFE130;}
	.st5{fill:#0077FF;}
	.st6{fill:#FF2EF0;}
	.st7{font-family:'SFMono-Regular';}
	.st8{font-size:8px;}
</style>
<a xlink:href="Alabama" >
	<circle class="st0" cx="441.8" cy="332" r="16.4"/>
</a>
<a xlink:href="Alaska" >
	<circle class="st1" cx="88.9" cy="19" r="9.5"/>
</a>
<a xlink:href="Arizona" >
	<circle class="st1" cx="213.2" cy="282" r="18.2"/>
</a>
<a xlink:href="Arkansas" >
	<circle class="st2" cx="358.3" cy="290" r="13.4"/>
</a>
<a xlink:href="California" >
	<circle class="st3" cx="147.7" cy="237" r="40.6"/>
</a>
<a xlink:href="Colorado" >
	<circle class="st4" cx="262.5" cy="249" r="16.4"/>
</a>
<a xlink:href="Connecticut" >
	<circle class="st0" cx="605.9" cy="128" r="14.5"/>
</a>
<a xlink:href="Delaware" >
	<circle class="st5" cx="578.4" cy="183" r="9.5"/>
</a>
<a xlink:href="Florida" >
	<circle class="st6" cx="508.2" cy="380" r="29.5"/>
</a>
<a xlink:href="Georgia" >
	<circle class="st3" cx="470.3" cy="298" r="21.9"/>
</a>
<a xlink:href="Hawaii" >
	<circle class="st4" cx="133.5" cy="372" r="11"/>
</a>
<a xlink:href="Idaho" >
	<circle class="st0" cx="228.4" cy="173" r="11"/>
</a>
<a xlink:href="Illinois" >
	<circle class="st1" cx="390.6" cy="207" r="24.5"/>
</a>
<a xlink:href="Indiana" >
	<circle class="st2" cx="441.8" cy="207" r="18.2"/>
</a>
<a xlink:href="Iowa" >
	<circle class="st4" cx="340.3" cy="195" r="13.4"/>
</a>
<a xlink:href="Kansas" >
	<circle class="st2" cx="302.4" cy="248" r="13.4"/>
</a>
<a xlink:href="Kentucky" >
	<circle class="st1" cx="439.9" cy="251" r="15.5"/>
</a>
<a xlink:href="Louisiana" >
	<circle class="st2" cx="359.3" cy="335" r="15.5"/>
</a>
<a xlink:href="Maine" >
	<circle class="st5" cx="645.8" cy="26" r="11"/>
</a>
<a xlink:href="Maryland" >
	<circle class="st5" cx="529.1" cy="185" r="17.3"/>
</a>
<a xlink:href="Massachusetts" >
	<circle class="st0" cx="625.9" cy="89" r="18.2"/>
</a>
<a xlink:href="Michigan" >
	<circle class="st3" cx="446.6" cy="149" r="21.9"/>
</a>
<a xlink:href="Minnesota" >
	<circle class="st6" cx="338.4" cy="142" r="17.3"/>
</a>
<a xlink:href="Mississippi" >
	<circle class="st5" cx="403.9" cy="324" r="13.4"/>
</a>
<a xlink:href="Missouri" >
	<circle class="st3" cx="362.1" cy="251" r="17.3"/>
</a>
<a xlink:href="Montana" >
	<circle class="st4" cx="245.4" cy="131" r="9.5"/>
</a>
<a xlink:href="Nebraska" >
	
		<ellipse transform="matrix(0.1602 -0.9871 0.9871 0.1602 41.2511 466.4849)" class="st3" cx="294.8" cy="209" rx="12.2" ry="12.2"/>
</a>
<a xlink:href="Nevada" >
	<circle class="st6" cx="208.4" cy="220" r="13.4"/>
</a>
<a xlink:href="New Hampshire" >
	<circle class="st0" cx="630.6" cy="54" r="11"/>
</a>
<a xlink:href="New Jersey" >
	<circle class="st4" cx="572.7" cy="147" r="20.5"/>
</a>
<a xlink:href="New Mexico" >
	<circle class="st4" cx="254" cy="303" r="12.2"/>
</a>
<a xlink:href="New York" >
	<ellipse transform="matrix(0.1666 -0.986 0.986 0.1666 395.0912 629.4404)" class="st3" cx="569.9" cy="81" rx="29.5" ry="29.5"/>
</a>
<a xlink:href="North Carolina" >
	<circle class="st1" cx="523.4" cy="278" r="21.2"/>
</a>
<a xlink:href="North Dakota" >
	<circle class="st5" cx="293.8" cy="136" r="9.5"/>
</a>
<a xlink:href="Ohio" >
	<circle class="st3" cx="485.5" cy="191" r="23.2"/>
</a>
<a xlink:href="Oklahoma" >
	<circle class="st1" cx="306.2" cy="294" r="14.5"/>
</a>
<a xlink:href="Oregon" >
	<circle class="st1" cx="167.6" cy="176" r="14.5"/>
</a>
<a xlink:href="Pennsylvania" >
	<circle class="st4" cx="522.5" cy="132" r="24.5"/>
</a>
<a xlink:href="Rhode island" >
	<circle class="st5" cx="637.3" cy="126" r="11"/>
</a>
<a xlink:href="South Carolina" >
	<circle class="st5" cx="512" cy="322" r="16.4"/>
</a>
<a xlink:href="South Dakota" >
	<circle class="st5" cx="293.8" cy="167" r="9.5"/>
</a>
<a xlink:href="Tennessee" >
	<circle class="st1" cx="409.6" cy="284" r="18.2"/>
</a>
<a xlink:href="Texas" >
	<circle class="st6" cx="307.1" cy="355" r="33.8"/>
</a>
<a xlink:href="Utah" >
	<circle class="st2" cx="243.5" cy="218" r="13.4"/>
</a>
<a xlink:href="Vermont" >
	<circle class="st5" cx="605" cy="47" r="9.5"/>
</a>
<a xlink:href="Virginia" >
	<circle class="st2" cx="531.9" cy="229" r="19.7"/>
</a>
<a xlink:href="Washington" >
	<circle class="st3" cx="196.1" cy="131" r="19"/>
</a>
<a xlink:href="West Virginia" >
	<circle class="st2" cx="477.9" cy="242" r="12.2"/>
</a>
<a xlink:href="Wisconsin" >
	<circle class="st3" cx="390.6" cy="146" r="17.3"/>
</a>
<a xlink:href="Wyoming" >
	<circle class="st0" cx="253" cy="177" r="9.5"/>
</a>
<a xlink:href="District of Columbia" >
	<ellipse transform="matrix(0.3827 -0.9239 0.9239 0.3827 166.4706 635.1407)" class="st5" cx="558.5" cy="193" rx="9.5" ry="9.5"/>
</a>
<a xlink:href="Puerto Rico" >
	<circle class="st3" cx="647.7" cy="380" r="16.4"/>
</a>
<a xlink:href="Alabama" >
	<text transform="matrix(1 0 0 1 436.8752 335)" class="st7 st8">AL</text>
</a>
<a xlink:href="Alaska" >
	<text transform="matrix(1 0 0 1 83.9521 22)" class="st7 st8">AK</text>
</a>
<a xlink:href="Arizona" >
	<text transform="matrix(1 0 0 1 208.2342 285)" class="st7 st8">AZ</text>
</a>
<a xlink:href="Arkansas" >
	<text transform="matrix(1 0 0 1 353.388 293)" class="st7 st8">AR</text>
</a>
<a xlink:href="California" >
	<text transform="matrix(1 0 0 1 142.7726 240)" class="st7 st8">CA</text>
</a>
<a xlink:href="Colorado" >
	<text transform="matrix(1 0 0 1 257.5675 252)" class="st7 st8">CO</text>
</a>
<a xlink:href="Connecticut" >
	<text transform="matrix(1 0 0 1 601.0034 131)" class="st7 st8">CT</text>
</a>
<a xlink:href="Delaware" >
	<text transform="matrix(1 0 0 1 573.4906 186)" class="st7 st8">DE</text>
</a>
<a xlink:href="Florida" >
	<text transform="matrix(1 0 0 1 503.2855 383)" class="st7 st8">FL</text>
</a>
<a xlink:href="Georgia" >
	<text transform="matrix(1 0 0 1 465.3367 301)" class="st7 st8">GA</text>
</a>
<a xlink:href="Hawaii" >
	<text transform="matrix(1 0 0 1 128.5419 375)" class="st7 st8">HI</text>
</a>
<a xlink:href="Idaho" >
	<text transform="matrix(1 0 0 1 223.4137 176)" class="st7 st8">ID</text>
</a>
<a xlink:href="Illinois" >
	<text transform="matrix(1 0 0 1 385.6444 210)" class="st7 st8">IL</text>
</a>
<a xlink:href="Indiana" >
	<text transform="matrix(1 0 0 1 436.8752 210)" class="st7 st8">IN</text>
</a>
<a xlink:href="Iowa" >
	<text transform="matrix(1 0 0 1 335.3624 198)" class="st7 st8">IA</text>
</a>
<a xlink:href="Kansas" >
	<text transform="matrix(1 0 0 1 297.4137 251)" class="st7 st8">KS</text>
</a>
<a xlink:href="Kentucky" >
	<text transform="matrix(1 0 0 1 434.9778 254)" class="st7 st8">KY</text>
</a>
<a xlink:href="Louisiana" >
	<text transform="matrix(1 0 0 1 354.3367 338)" class="st7 st8">LA</text>
</a>
<a xlink:href="Maine" >
	<text transform="matrix(1 0 0 1 640.8495 29)" class="st7 st8">ME</text>
</a>
<a xlink:href="Maryland" >
	<text transform="matrix(1 0 0 1 524.1572 188)" class="st7 st8">MD</text>
</a>
<a xlink:href="Massachusetts" >
	<text transform="matrix(1 0 0 1 620.9265 92)" class="st7 st8">MA</text>
</a>
<a xlink:href="Michigan" >
	<text transform="matrix(1 0 0 1 441.6188 152)" class="st7 st8">MI</text>
</a>
<a xlink:href="Minnesota" >
	<text transform="matrix(1 0 0 1 333.4649 145)" class="st7 st8">MN</text>
</a>
<a xlink:href="Mississippi" >
	<text transform="matrix(1 0 0 1 398.9265 327)" class="st7 st8">MS</text>
</a>
<a xlink:href="Missouri" >
	<text transform="matrix(1 0 0 1 357.1829 254)" class="st7 st8">MO</text>
</a>
<a xlink:href="Montana" >
	<text transform="matrix(1 0 0 1 240.4906 134)" class="st7 st8">MT</text>
</a>
<a xlink:href="Nebraska" >
	<text transform="matrix(1 0 0 1 289.8239 212)" class="st7 st8">NE</text>
</a>
<a xlink:href="Nevada" >
	<text transform="matrix(1 0 0 1 203.4906 223)" class="st7 st8">NV</text>
</a>
<a xlink:href="New Hampshire" >
	<text transform="matrix(1 0 0 1 625.67 57)" class="st7 st8">NH</text>
</a>
<a xlink:href="New Jersey" >
	<text transform="matrix(1 0 0 1 567.7983 150)" class="st7 st8">NJ</text>
</a>
<a xlink:href="New Mexico" >
	<text transform="matrix(1 0 0 1 249.0291 306)" class="st7 st8">NM</text>
</a>
<a xlink:href="New York" >
	<text transform="matrix(1 0 0 1 564.9521 84)" class="st7 st8">NY</text>
</a>
<a xlink:href="North Carolina" >
	<text transform="matrix(1 0 0 1 518.465 281)" class="st7 st8">NC</text>
</a>
<a xlink:href="North Dakota" >
	<text transform="matrix(1 0 0 1 288.8752 139)" class="st7 st8">ND</text>
</a>
<a xlink:href="Ohio" >
	<text transform="matrix(1 0 0 1 480.5162 194)" class="st7 st8">OH</text>
</a>
<a xlink:href="Oklahoma" >
	<text transform="matrix(1 0 0 1 301.2085 297)" class="st7 st8">OK</text>
</a>
<a xlink:href="Oregon" >
	<text transform="matrix(1 0 0 1 162.6957 179)" class="st7 st8">OR</text>
</a>
<a xlink:href="Pennsylvania" >
	<text transform="matrix(1 0 0 1 517.5162 135)" class="st7 st8">PA</text>
</a>
<a xlink:href="Rhode island" >
	<text transform="matrix(1 0 0 1 632.3111 129)" class="st7 st8">RI</text>
</a>
<a xlink:href="South Carolina" >
	<text transform="matrix(1 0 0 1 507.0803 325)" class="st7 st8">SC</text>
</a>
<a xlink:href="South Dakota" >
	<text transform="matrix(1 0 0 1 288.8752 170)" class="st7 st8">SD</text>
</a>
<a xlink:href="Tennessee" >
	<text transform="matrix(1 0 0 1 404.6188 287)" class="st7 st8">TN</text>
</a>
<a xlink:href="Texas" >
	<text transform="matrix(1 0 0 1 302.1573 358)" class="st7 st8">TX</text>
</a>
<a xlink:href="Utah" >
	<text transform="matrix(1 0 0 1 238.5932 221)" class="st7 st8">UT</text>
</a>
<a xlink:href="Vermont" >
	<text transform="matrix(1 0 0 1 600.0547 50)" class="st7 st8">VT</text>
</a>
<a xlink:href="Virginia" >
	<text transform="matrix(1 0 0 1 527.0034 232)" class="st7 st8">VA</text>
</a>
<a xlink:href="Washington" >
	<text transform="matrix(1 0 0 1 191.1573 134)" class="st7 st8">WA</text>
</a>
<a xlink:href="West Virginia" >
	<text transform="matrix(1 0 0 1 472.9265 245)" class="st7 st8">WV</text>
</a>
<a xlink:href="Wisconsin" >
	<text transform="matrix(1 0 0 1 385.6444 149)" class="st7 st8">WI</text>
</a>
<a xlink:href="Wyoming" >
	<text transform="matrix(1 0 0 1 248.0803 180)" class="st7 st8">WY</text>
</a>
<a xlink:href="District of Columbia" >
	<text transform="matrix(1 0 0 1 553.5675 196)" class="st7 st8">DC</text>
</a>
<a xlink:href="Puerto Rico" >
	<text transform="matrix(1 0 0 1 642.747 383)" class="st7 st8">PR</text>
</a>
</svg>
