<?xml version="1.0" encoding="utf-8"?>
<!-- Generator: Adobe Illustrator 24.1.0, SVG Export Plug-In . SVG Version: 6.00 Build 0)  -->
<svg version="1.1" id="Layer_1" xmlns="http://www.w3.org/2000/svg" xmlns:xlink="http://www.w3.org/1999/xlink" x="0px" y="0px"
	 viewBox="0 0 460 460.87" style="enable-background:new 0 0 460 460.87;" xml:space="preserve">
<style type="text/css">
	.st0{clip-path:url(#SVGID_2_);}
	.st1{fill:#231F20;}
	.st2{fill:#1E61FF;}
	.st3{clip-path:url(#SVGID_2_);fill:none;}
</style>
<g>
	<defs>
		<circle id="SVGID_1_" cx="230" cy="230.44" r="230"/>
	</defs>
	<clipPath id="SVGID_2_">
		<use xlink:href="#SVGID_1_"  style="overflow:visible;"/>
	</clipPath>
	<g class="st0">
		<g>
			<g>
				<path class="st1" d="M133.46,351.17c1.16-0.62,3.12-0.85,4.57-1.12c2.07-0.39,4.15-0.81,6.11-1.6c3.7-1.5,5.82-4.38,7.41-7.93
					c3.77-8.39,3.43-18.52,2.66-27.47c-0.92-10.65-3.24-21.15-5.26-31.63c-0.81-4.22-1.66-8.37-1.73-12.67
					c-0.07-4,0.47-9.39-1.98-12.83c-2.84-4-7.87-6.32-11.64-9.31c-2.07-1.64-4.1-3.37-5.94-5.26c-0.96-0.98-1.58-1.64-2.12-2.51
					c-0.12-0.19-0.23-0.39-0.33-0.59c-0.14-0.28,0.04,0.23-0.11-0.29c-0.06-0.2-0.11-0.39-0.16-0.59c-0.09-0.37-0.04,0.01-0.06-0.49
					c-0.06-1.33,0.15-2.59,0.44-3.88c1.13-5.07,2.89-10.11,4.71-14.96c0.8-2.13,1.85-4.25,3.62-5.73c2.05-1.71,4.47-1.73,6.86-2.61
					c4.17-1.54,7.16-5.08,9.33-8.83c5.39-9.33,7.43-20.71,8.26-31.31c0.93-11.93,0.01-23.95,1.61-35.84
					c0.76-5.65,1.99-11.25,3.68-16.69c6.01-19.34,18.4-36.3,36.72-45.54c8.62-4.34,18.03-6.76,27.55-8.12
					c8.98-1.28,18.1-2.23,27.15-1.13c8.24,1,16.46,3.76,23.81,7.61c8.24,4.32,15.56,10.52,19.91,18.85
					c1.8,3.44,2.67,7.28,3.48,11.05c1.11,5.19,2.15,10.41,2.95,15.65c1.55,10.18,2.23,20.48,3.54,30.69
					c1.26,9.83,2.92,19.6,4.15,29.43c0.87,6.93,1.17,13.85,1.4,20.83c0.08,2.39,0.16,4.77,0.24,7.16c0.08,2.32,3.33,2.78,4.03,0.55
					c0.62-2,2.09-4.01,4.35-4.18c1.73-0.13,3.25,1.01,4.38,2.21c1.5,1.6,1.91,3.89,2.08,6.45c0.32,4.86,0.29,9.84,0.06,14.7
					c-0.16,3.27-0.66,5.52-3.26,7.69c-1.39,1.17-3.08,1.96-4.58,2.97c-1.96,1.32-3.61,2.9-5.01,4.8c-1.79,2.44-2.72,5.07-3.3,8.01
					c-0.89,4.54-1.92,9.04-3.37,13.44c-1.28,3.89-2.99,7.63-4.32,11.5c-1.34,3.89-2.21,7.82-2.93,11.87
					c-1.62,9.09-3.19,18.19-4.89,27.27c-0.93,4.95-2.08,9.92-2.62,14.93c-0.22,2.03-0.23,4.07-0.27,6.11
					c-0.1,4.59-0.21,9.2,0.45,13.76c1.22,8.42,6.44,14.88,13.64,19.14c3.31,1.96,6.94,3.56,9.81,6.18c3.61,3.29,5.49,7.95,5.72,12.8
					c0.11,2.34-0.11,4.67-0.56,6.97c-0.51,2.58,3.45,3.68,3.96,1.09c1.03-5.21,1.11-10.69-0.82-15.71
					c-1.67-4.33-4.53-7.74-8.34-10.35c-3.37-2.32-7.17-3.95-10.52-6.32c-3.44-2.44-6.26-5.87-7.71-9.85
					c-1.41-3.86-1.58-7.99-1.59-12.07c-0.01-3.47-0.02-6.98,0.23-10.44c0.05-0.73,0.13-1.46,0.22-2.19c0,0.01-0.04,0.24,0.02-0.16
					c0.03-0.2,0.06-0.39,0.09-0.59c0.08-0.5,0.16-0.99,0.25-1.49c0.5-2.88,1.07-5.75,1.61-8.62c1.8-9.54,3.47-19.09,5.16-28.65
					c0.74-4.2,1.59-8.29,2.96-12.33c1.4-4.12,3.22-8.08,4.55-12.22c1.45-4.5,2.42-9.09,3.37-13.71c0.67-3.29,2.05-6.01,4.63-8.36
					c3.08-2.8,7.04-4.01,9.42-7.63c1.87-2.85,2.05-6.08,2.14-9.4c0.13-5.01,0.31-10.18-0.3-15.16c-0.34-2.81-1.13-5.26-3.09-7.35
					c-2.97-3.17-7.6-4.61-11.46-2.06c-2.08,1.38-3.4,3.5-4.13,5.85c1.34,0.18,2.69,0.36,4.03,0.55c-0.18-5.53-0.28-11.07-0.58-16.59
					c-0.47-8.64-1.83-17.2-3.1-25.75c-1.69-11.42-3.1-22.87-4.28-34.35c-1-9.79-2.54-19.44-4.66-29.05
					c-0.86-3.92-1.92-7.79-3.81-11.35c-2.38-4.47-5.63-8.5-9.38-11.9c-5.94-5.37-13.03-9.2-20.48-12.03
					c-9.87-3.75-20.17-5.31-30.71-4.7c-8.17,0.48-16.52,1.55-24.5,3.4c-10.83,2.52-21.22,7.01-30.07,13.8
					c-8.5,6.51-15.38,14.9-20.45,24.31c-7.41,13.77-10.96,29.22-11.64,44.77c-0.54,12.26,0.17,24.58-2.26,36.69
					c-0.99,4.94-2.34,9.95-4.41,14.56c-1.74,3.86-4.12,8.22-8.08,10.17c-2.12,1.04-4.55,1.07-6.69,2.17
					c-2.27,1.17-4.1,3.06-5.38,5.25c-1.29,2.21-2.09,4.68-2.9,7.1c-0.95,2.83-1.92,5.65-2.76,8.51c-0.89,3.06-1.91,6.47-1.33,9.69
					c0.42,2.3,1.96,4.12,3.53,5.77c3.71,3.91,8.15,7.28,12.63,10.25c1.71,1.13,3.98,2.52,4.98,4.37c0.9,1.69,0.87,4.01,0.94,5.87
					c0.09,2.33,0.04,4.66,0.17,6.99c0.11,2.04,0.5,4.06,0.86,6.07c0.91,5.12,1.97,10.22,2.94,15.33
					c2.05,10.77,3.82,21.57,3.44,32.57c-0.14,4.15-0.61,8.34-2.09,12.25c-1.2,3.16-2.87,6.04-6.2,7.2c-3.46,1.2-7.5,1.05-10.75,2.79
					C129.06,348.87,131.13,352.42,133.46,351.17L133.46,351.17z"/>
			</g>
		</g>
		<g>
			<g>
				<path class="st1" d="M129.75,348.17c-11.15,6-22.3,12.01-33.45,18.01c-9.8,5.27-19.52,11.84-30.55,14.11
					c-2.5,0.51-6.1,1.05-7.91-1.2c-1.2-1.5-1.72-3.57-2.2-5.38c-0.79-3-1.35-6.07-1.93-9.12c-0.56-2.96-1.1-5.91-1.41-8.91
					c-0.18-1.71-0.39-3.38-0.88-5.03c-1.49-5-4.48-8.74-7.33-13c-1.95-2.92-3.63-6.03-5.23-9.16c-1.34-2.62-3.12-5.74-3.2-8.76
					c-0.05-1.86,0.79-1.92,2.41-1.78c2.58,0.22,5.11,0.81,7.7,1c10.91,0.8,23.33-2.81,30.07-11.85c3.65-4.89,5.43-10.9,6.68-16.8
					c1.42-6.69,2.68-13.52,3.42-20.33c0.62-5.72,0.51-11.58-1.85-16.92c-2.31-5.24-6.44-9.14-11.38-11.9
					c-3.79-2.12-8.84-3.63-11.36-7.42c-3.05-4.59-0.71-9.39,1.2-13.89c2.84-6.7,5.07-13.54,6.08-20.76
					c0.92-6.56,0.97-13.18,1.37-19.78c1.39-22.83,5.25-45.88,13.56-67.25c4.86-12.5,11.63-24.14,20.08-34.55
					c8.51-10.48,18.27-19.91,27.93-29.31c13.68-13.3,29.23-26.4,47.88-31.85c5.68-1.66,11.53-2.53,17.38-3.36
					c5.81-0.82,11.62-1.63,17.46-2.18c13.76-1.28,27.57-1.04,41.21,1.23c17.11,2.85,35.65,8.48,49.05,19.47
					c15.04,12.33,26.12,29.55,35.96,46.07c13.01,21.83,25.42,44.44,34.1,68.38c4.8,13.23,8.42,26.87,10.68,40.76
					c1.25,7.71,1.99,15.49,2.57,23.28c0.55,7.29,0.84,14.62,0.27,21.92c-1.17,14.83-6.66,28.5-14.22,41.18
					c-2.77,4.65-5.8,9.13-8.73,13.67c-1.52,2.35-4.02,5.45-4.06,8.41c-0.05,3.62,3.68,3.54,6.04,2.22
					c3.81-2.12,7.05-5.12,10.98-7.06c4.23-2.09,8.52-2.31,11.99,1.21c3.69,3.74,5.54,9.19,6.4,14.26c0.99,5.84,0.5,12.16-2.25,17.47
					c-2.01,3.87-7.18,8.78-4.83,13.51c2.36,4.77,9.52,5.35,14.15,5.02c5.36-0.38,10.32-2.48,14.62-5.64
					c3.46-2.54,6.29-5.79,9.68-8.38c0.47-0.36,0.96-0.69,1.49-0.95c0.34-0.17,0.51-0.16,0.57-0.14c0.1,0.03,0.11-0.02,0.19,0.29
					c0.2,0.73,0.21,1.46,0.22,2.22c0.04,6.1-0.35,12,0.67,18.07c0.97,5.73,3.01,11.09,5.75,16.2c1.71,3.18,3.97,6.52,4.1,10.25
					c0.16,4.89-2.68,9.14-6.12,12.35c-3.42,3.19-7.55,5.57-11.75,7.56c-2.76,1.31-5.47,2.43-8.53,2.91
					c-8.96,1.41-18.55-0.05-27.42-1.44c-11.25-1.77-22.39-4.24-33.46-6.89c-8.95-2.14-17.85-4.46-26.79-6.6
					c-2.57-0.62-3.66,3.34-1.09,3.96c20.77,4.98,41.41,10.73,62.58,13.84c9.1,1.34,18.78,2.64,27.92,0.98
					c3.18-0.58,6.12-1.91,9.03-3.29c4.39-2.09,8.63-4.65,12.23-7.95c3.79-3.47,6.77-7.97,7.39-13.15c0.49-4.11-0.91-7.8-2.8-11.37
					c-2.44-4.62-4.85-9.09-6.18-14.2c-1.68-6.48-1.66-12.98-1.46-19.61c0.1-3.07,0.09-7.44-3.76-8.15c-3.31-0.6-6.23,2.6-8.4,4.62
					c-3.53,3.29-7.12,6.57-11.57,8.58c-4.59,2.07-11.66,3.13-16.22,0.4c-2.22-1.33-1.52-3.01-0.39-4.88
					c1.61-2.69,3.44-5.19,4.67-8.1c2.34-5.49,2.72-11.61,1.88-17.47c-1.29-9.03-6.9-22.51-18.15-21.13
					c-4.9,0.6-9.19,3.47-13.13,6.25c-1.54,1.08-3.07,2.35-4.78,3.16c-0.04,0.02-0.44,0.11-0.47,0.18c-0.2,0.47-0.16-0.26,0.01,0
					c0.05,0.07,0.66,0.25,0.78,0.36c0.31,0.28,0.16,0.62,0.3,0.73c-0.15-0.12,0-0.17,0.01-0.21c1.29-2.98,3.29-6.05,5.19-8.94
					c3.32-5.05,6.6-10.12,9.53-15.41c7.34-13.28,11.9-27.56,12.51-42.78c0.3-7.48-0.21-14.96-0.85-22.41
					c-0.66-7.77-1.54-15.51-2.91-23.2c-4.78-26.93-14.94-52.37-27.62-76.5c-11.67-22.21-24.06-44.71-40.33-63.93
					c-4.44-5.25-9.25-10.26-14.68-14.5c-5.25-4.1-11.11-7.27-17.19-9.97c-24.3-10.78-51.6-13.33-77.83-10.5
					c-5.92,0.64-11.83,1.48-17.72,2.34c-5.55,0.81-11.05,1.78-16.41,3.45c-6.81,2.12-13.25,5.25-19.29,9.02
					c-11.21,6.98-21.16,15.82-30.57,25.03c-9.75,9.54-19.59,19.1-28.02,29.86c-17.36,22.19-26.11,49.07-30.37,76.66
					c-1.42,9.16-2.38,18.41-2.87,27.67c-0.36,6.72-0.41,13.49-1.63,20.13c-1.34,7.3-4.19,13.91-6.9,20.76
					c-1.82,4.59-2.29,9.55,0.55,13.88c2.71,4.13,7.33,5.99,11.54,8.19c5.08,2.66,9.45,6.3,11.48,11.85
					c2.1,5.76,1.4,12.13,0.49,18.06c-1.06,6.9-2.12,13.96-4.07,20.68c-1.74,5.99-4.69,11.65-10.02,15.17
					c-4.54,3-10.08,4.59-15.48,5.06c-2.93,0.25-5.88,0.14-8.79-0.27c-2.12-0.3-4.34-0.9-6.49-0.72c-5.73,0.48-5.28,6.82-3.79,10.86
					c2.32,6.31,5.89,12.38,9.82,17.81c2.62,3.62,4.96,7.42,5.57,11.94c0.79,5.81,1.64,11.56,2.89,17.3
					c0.83,3.83,1.75,8.61,4.98,11.21c2.93,2.35,7.05,2.04,10.52,1.38c8.08-1.55,15.84-5.61,22.93-9.64
					c9.95-5.65,20.11-10.94,30.18-16.37c4.08-2.2,8.16-4.39,12.25-6.59C134.15,350.46,132.08,346.92,129.75,348.17L129.75,348.17z"
					/>
			</g>
		</g>
		<g>
			<path class="st2" d="M57.13,486.61l0.48-24.03l-10.58-17.5c8.27-20.97,16.54-41.94,24.81-62.9
				c31.79-18.15,56.78-23.38,60.58-32.78c0,0-6.18,7.01-1.2,38.44c2.56,16.21,7.44,20.77,13.47,39.29
				c4.69,14.42,9.15,63.56,8.56,91.83"/>
			<g>
				<path class="st1" d="M59.18,486.61c0.13-6.55,0.26-13.1,0.39-19.65c0.04-1.81,0.51-4.18-0.43-5.81
					c-1.71-2.96-3.54-5.86-5.31-8.78c-1.68-2.77-3.36-5.55-5.03-8.32c0.07,0.53,0.14,1.05,0.21,1.58
					c6.44-16.34,12.89-32.69,19.33-49.03c1.82-4.63,3.65-9.25,5.47-13.88c-0.31,0.41-0.63,0.82-0.94,1.23
					c10.87-6.19,22.18-11.5,33.64-16.53c4.26-1.87,8.55-3.71,12.76-5.7c3.14-1.49,6.3-3.05,9.16-5.05c2.53-1.77,4.77-3.83,5.97-6.73
					c0.79-1.9-2.14-3.48-3.43-2c-0.81,0.92-1.29,2.1-1.71,3.23c-1.14,3.04-1.56,6.38-1.82,9.59c-0.5,6.36-0.08,12.78,0.64,19.1
					c0.86,7.59,2.06,15.15,4.66,22.36c2.25,6.22,5.16,12.17,7.49,18.36c1.9,5.05,3.46,10.06,4.49,15.35
					c2.37,12.23,3.6,24.7,4.63,37.1c1.15,13.78,1.93,27.63,1.89,41.47c0,1.48-0.02,2.96-0.05,4.44c-0.05,2.64,4.05,2.64,4.1,0
					c0.27-13.37-0.4-26.77-1.38-40.09c-0.97-13.11-2.23-26.25-4.38-39.22c-0.7-4.23-1.45-8.51-2.72-12.62
					c-2.15-6.96-5.07-13.63-7.91-20.32c-2.52-5.95-4.46-12.02-5.54-18.39c-1.26-7.42-2.08-14.99-2.03-22.53
					c0.02-2.39,0.14-4.78,0.42-7.16c0.02-0.13,0.03-0.27,0.05-0.4c0,0.04-0.04,0.3-0.01,0.06c0.03-0.22,0.06-0.43,0.1-0.65
					c0.07-0.43,0.14-0.86,0.22-1.28c0.14-0.72,0.3-1.45,0.49-2.16c0.15-0.54,0.31-1.08,0.49-1.61c0.07-0.21,0.16-0.41,0.23-0.62
					c0.21-0.56-0.22,0.42,0.08-0.17c0.2-0.41,0.5-0.81,0.68-1.22c0.14-0.31-0.38,0.47-0.21,0.27c-1.14-0.67-2.29-1.33-3.43-2
					c0.24-0.57-0.14,0.26-0.22,0.39c-0.14,0.26-0.31,0.49-0.47,0.74c-0.3,0.48,0.15-0.12-0.24,0.31c-0.25,0.28-0.5,0.57-0.76,0.83
					c-0.45,0.46-0.94,0.88-1.44,1.28c-0.47,0.39,0.32-0.24-0.18,0.14c-0.15,0.12-0.31,0.23-0.47,0.34c-0.33,0.24-0.66,0.46-1,0.69
					c-3.28,2.17-6.88,3.86-10.45,5.5c-10.75,4.94-21.68,9.43-32.25,14.77c-3.38,1.71-6.72,3.48-10.03,5.33
					c-0.77,0.43-1.68,0.81-2.36,1.38c-0.72,0.6-0.95,1.6-1.28,2.45c-0.73,1.85-1.46,3.7-2.19,5.55c-2.86,7.25-5.72,14.49-8.57,21.74
					c-2.86,7.25-5.72,14.49-8.57,21.74c-1.46,3.7-2.92,7.4-4.38,11.1c-0.42,1.08-0.87,1.96-0.29,3.05c0.15,0.28,0.33,0.55,0.5,0.83
					c3.34,5.53,6.69,11.06,10.03,16.59c-0.09-0.35-0.19-0.69-0.28-1.04c-0.14,7.01-0.28,14.02-0.42,21.04c-0.02,1-0.04,2-0.06,2.99
					C55.03,489.25,59.13,489.25,59.18,486.61L59.18,486.61z"/>
			</g>
		</g>
		<g>
			<g>
				<path class="st1" d="M-72.15,491.1c0.37-3.64,0.74-7.27,1.11-10.91c0.8-7.86,1.6-15.71,2.4-23.57
					c0.78-7.65,1.56-15.29,2.33-22.94c0.24-2.32,0.47-4.64,0.71-6.96c0.05-0.53,0.12-1.07,0.16-1.6c0.01-0.06,0.05-0.19,0.03-0.25
					c0.04,0.13-0.22,0.7-0.04,0.43c0.08-0.11,0.1-0.3,0.14-0.43c2.12-6.36,4.24-12.72,6.36-19.08c0.06-0.19,0.13-0.39,0.19-0.58
					c-0.48,0.48-0.96,0.96-1.43,1.43c3.77-0.97,7.55-1.94,11.32-2.91c9.02-2.32,18.04-4.63,27.07-6.95
					c10.95-2.81,21.9-5.62,32.85-8.43c9.43-2.42,18.85-4.84,28.28-7.26c4.57-1.17,9.23-2.17,13.75-3.53
					c0.06-0.02,0.13-0.03,0.2-0.05c2.56-0.66,1.47-4.61-1.09-3.96c-2.98,0.76-5.95,1.53-8.93,2.29c-7.35,1.89-14.7,3.77-22.04,5.66
					c-9.43,2.42-18.87,4.84-28.3,7.26c-9.24,2.37-18.47,4.74-27.71,7.11c-6.77,1.74-13.54,3.47-20.31,5.21
					c-1.71,0.44-3.43,0.88-5.14,1.32c-0.32,0.08-0.66,0.15-0.98,0.25c-1.2,0.39-1.47,1.38-1.81,2.42c-1.35,4.05-2.7,8.11-4.05,12.16
					c-0.63,1.89-1.26,3.78-1.89,5.68c-0.23,0.68-0.46,1.31-0.55,2.02c-0.61,5.37-1.09,10.76-1.64,16.13
					c-0.98,9.68-1.97,19.37-2.95,29.05c-0.68,6.64-1.35,13.28-2.03,19.93c-0.03,0.34-0.07,0.69-0.1,1.03
					c-0.11,1.1,1.02,2.05,2.05,2.05C-72.99,493.15-72.26,492.21-72.15,491.1L-72.15,491.1z"/>
			</g>
		</g>
		<g>
			<g>
				<path class="st1" d="M537.29,491.68c-1.41-9.87-2.82-19.74-4.23-29.62c-2.05-14.36-4.1-28.71-6.15-43.07
					c-0.24-1.67-0.48-3.33-0.71-5c-0.14-0.97-0.33-1.71-1.31-2.23c-3.06-1.62-6.35-2.91-9.5-4.36
					c-13.72-6.29-27.43-12.58-41.15-18.87c-9.98-4.58-19.96-9.15-29.95-13.73c-0.16-0.07-0.32-0.14-0.47-0.22
					c-1.01-0.46-2.21-0.29-2.81,0.74c-0.52,0.88-0.28,2.34,0.74,2.81c2.7,1.24,5.41,2.48,8.11,3.72c6.45,2.96,12.91,5.92,19.36,8.88
					c7.84,3.6,15.69,7.19,23.53,10.79c6.75,3.1,13.5,6.19,20.26,9.29c2.24,1.03,4.48,2.05,6.72,3.08c1.03,0.47,2.11,1.14,3.19,1.46
					c0.05,0.01,0.1,0.04,0.14,0.06c-0.31-0.41-0.63-0.82-0.94-1.23c1.26,8.84,2.53,17.68,3.79,26.52c2.01,14.1,4.03,28.2,6.04,42.3
					c0.46,3.25,0.93,6.5,1.39,9.75c0.16,1.1,1.55,1.7,2.52,1.43C537.04,493.88,537.45,492.78,537.29,491.68L537.29,491.68z"/>
			</g>
		</g>
		<g>
			<g>
				<path class="st1" d="M212.76,179.28c2.39,13.95-0.34,28.85-7.86,41.07c-1.79,2.91-3.83,5.66-6.1,8.22
					c-1.74,1.97,1.15,4.88,2.9,2.9c10.66-12.04,16.46-27.76,15.99-43.86c-0.09-3.16-0.43-6.31-0.97-9.42
					c-0.19-1.09-1.53-1.71-2.52-1.43C213.03,177.07,212.57,178.18,212.76,179.28L212.76,179.28z"/>
			</g>
		</g>
		<g>
			<g>
				<path class="st1" d="M255.09,229.68c-6.9,6.17-15.27,10.17-23.77,13.67c-1.25,0.52-2.52,0.98-3.85,1.28
					c-0.12,0.03-0.24,0.05-0.36,0.06c0.08-0.01,0.42-0.04,0.04-0.01c-0.25,0.01-0.51,0.03-0.76,0.03c-0.26,0-0.52-0.01-0.78-0.02
					c-0.13-0.01-0.26-0.02-0.39-0.03c-0.62-0.06,0.4,0.08-0.23-0.03c-3.31-0.61-6.39-2.4-9.36-3.89c-5.57-2.79-11.1-5.65-16.6-8.58
					c-2.33-1.24-4.41,2.3-2.07,3.54c5.14,2.73,10.31,5.41,15.51,8.03c3.47,1.75,7.1,3.92,10.94,4.76c2.75,0.6,5.33,0.25,7.93-0.74
					c4.44-1.69,8.8-3.77,13.05-5.88c4.93-2.45,9.48-5.6,13.59-9.27C259.97,230.82,257.06,227.92,255.09,229.68L255.09,229.68z"/>
			</g>
		</g>
		<g>
			<g>
				<path class="st1" d="M202.62,159.72c0.58,0.45-0.29-0.23-0.45-0.36c-0.43-0.34-0.86-0.67-1.3-0.99
					c-0.89-0.65-1.82-1.24-2.8-1.75c-3.08-1.63-6.43-2.52-9.88-2.9c-8.48-0.94-17.47,1.36-25.34,4.4c-2.64,1.02-5.77,2.07-7.91,4.01
					c-1.96,1.78,0.95,4.67,2.9,2.9c0.36-0.33-0.27,0.16,0.03-0.03c0.15-0.1,0.29-0.2,0.45-0.29c0.42-0.26,0.85-0.49,1.28-0.72
					c1.16-0.6,2.35-1.13,3.56-1.61c3.59-1.44,7.3-2.59,11.07-3.44c6.93-1.57,14.75-2.27,21.32,1.01c1.05,0.53,2.06,1.14,3.01,1.82
					c0.21,0.15,0.41,0.3,0.62,0.45c0.24,0.18-0.21-0.17,0.18,0.14c0.39,0.31,0.78,0.61,1.17,0.91c0.88,0.68,2.3,0.13,2.81-0.74
					C203.98,161.47,203.5,160.4,202.62,159.72L202.62,159.72z"/>
			</g>
		</g>
		<g>
			<g>
				<path class="st1" d="M248.48,162.1c5.06-2.57,10.57-4.64,16.07-6.02c3.39-0.85,6.96-1.53,10.46-1.55
					c3.75-0.01,7.46,0.94,10.76,2.71c2.73,1.47,5.11,3.4,7.22,5.66c1.81,1.93,4.7-0.97,2.9-2.9c-4.81-5.15-11.15-8.68-18.21-9.44
					c-4.1-0.44-8.21,0.31-12.22,1.11c-3.4,0.68-6.71,1.78-9.95,2.99c-3.09,1.15-6.18,2.4-9.12,3.89
					C244.05,159.75,246.13,163.29,248.48,162.1L248.48,162.1z"/>
			</g>
		</g>
		<g>
			<g>
				<path class="st1" d="M244.49,185.58c4.49-5.04,10.18-9.17,16.69-11.15c6.25-1.9,13.12-2.45,19.5-0.89
					c4.93,1.21,9.35,3.71,12.93,7.31c0.14-1.07,0.28-2.15,0.42-3.22c-6.46,4.92-14.1,7.92-22.19,8.68
					c-6.74,0.63-13.52-0.08-20.08-1.69c-2.77-0.68-5.49-1.51-8.17-2.47c-2.49-0.89-3.56,3.07-1.09,3.96
					c12.8,4.57,27.25,6.42,40.36,2.06c4.77-1.59,9.24-3.95,13.24-7c1.03-0.79,1.44-2.19,0.42-3.22
					c-11.41-11.47-30.27-11.92-43.91-4.23c-4.14,2.33-7.86,5.42-11.01,8.96C239.83,184.65,242.73,187.56,244.49,185.58z"/>
			</g>
		</g>
		<g>
			<g>
				<path class="st1" d="M205.21,184.87c-9.44-10.85-26.29-16.56-39.54-9.28c-3.1,1.71-5.88,4.06-8.11,6.81
					c-0.78,0.96-0.87,2.56,0.42,3.22c7.33,3.77,15.39,5.59,23.61,5.52c7.6-0.06,15.33-1.09,22.71-2.85
					c2.57-0.61,1.48-4.57-1.09-3.96c-6.92,1.65-14.1,2.6-21.22,2.7c-7.63,0.11-15.14-1.46-21.94-4.96c0.14,1.07,0.28,2.15,0.42,3.22
					c4.23-5.24,10.4-8.68,17.2-8.89c6.64-0.21,13.4,2.13,18.77,5.96c2.17,1.54,4.12,3.39,5.87,5.4
					C204.04,189.77,206.94,186.85,205.21,184.87z"/>
			</g>
		</g>
		<g>
			<g>
				<path class="st1" d="M153.27,285.79c6.58,13.24,15.24,24.94,25.18,35.82c4.88,5.34,10.19,10.27,16.43,13.99
					c7.08,4.22,15.06,7.02,23.2,8.26c12.26,1.87,24.5,0.27,35.82-4.92c11.99-5.5,22.77-14.01,31.07-24.23
					c6.9-8.49,12.28-18.09,16.19-28.3c0.3-0.78,0.59-1.57,0.87-2.36c0.89-2.49-3.07-3.56-3.96-1.09c-3.17,8.88-7.61,17.5-13.27,25.3
					c-7.56,10.4-17.39,18.83-28.67,24.98c-10.08,5.5-21.37,8.05-32.81,7.14c-7.51-0.6-14.99-2.58-21.78-5.86
					c-6.46-3.11-12.06-7.4-17.07-12.5c-9.55-9.73-17.99-20.54-24.6-32.47c-1.06-1.92-2.08-3.86-3.05-5.83
					C155.64,281.35,152.1,283.43,153.27,285.79L153.27,285.79z"/>
			</g>
		</g>
		<g>
			<g>
				<path class="st1" d="M183.46,269.67c0.08-0.19-0.23,0.35-0.32,0.29c0.02,0.01,0.27-0.15,0.31-0.16
					c-0.38,0.11-0.24,0.08,0.03,0.01c0.78-0.21,1.55-0.39,2.35-0.52c2.68-0.43,5.65-0.64,8.47-0.88c6.69-0.55,13.46-1.29,20.17-0.61
					c2.57,0.26,5.02,0.94,7.55,1.38c3.75,0.65,7.53,0.61,11.28,0.02c5.23-0.83,10.06-3.11,15.28-4.01
					c7.55-1.31,15.38-0.45,22.78,1.27c-0.41-1-0.82-2.01-1.23-3.01c-5.74,11.98-16.2,21.62-29.03,25.43
					c-15.76,4.68-33.3,0.21-46.79-8.61c-3.08-2.01-6.05-4.3-8.49-7.06c-0.75-0.85-1.33-1.63-1.95-2.8
					c-0.27-0.52-0.01,0.18-0.14-0.35c-0.06-0.22-0.12-0.43-0.17-0.64c0.11,0.48,0.03,0.12,0.03-0.16c0-0.21-0.14,0.49,0.06-0.07
					c0.88-2.49-3.08-3.57-3.96-1.09c-0.74,2.09,0.49,4.43,1.68,6.08c1.92,2.66,4.37,4.85,6.96,6.85c7.2,5.56,15.72,9.64,24.54,11.86
					c7.88,1.98,16.12,2.6,24.15,1.18c9.65-1.71,18.63-6.47,25.65-13.28c4.5-4.37,8.29-9.59,11-15.25c0.54-1.14,0.16-2.69-1.23-3.01
					c-7.21-1.67-14.73-2.56-22.12-1.67c-2.56,0.31-5.09,0.78-7.57,1.51c-2.68,0.79-5.29,1.78-8.01,2.41
					c-3.61,0.83-7.38,1.1-11.05,0.58c-2.84-0.4-5.58-1.2-8.44-1.54c-6.83-0.8-13.72-0.08-20.54,0.48c-3.4,0.28-6.83,0.52-10.2,1.09
					c-1.52,0.26-3.89,0.63-4.61,2.23c-0.45,1.01-0.29,2.21,0.74,2.81C181.53,270.92,183.01,270.69,183.46,269.67z"/>
			</g>
		</g>
		<g>
			<g>
				<path class="st1" d="M144,243.87c-0.39-8.16-0.78-16.32-1.17-24.48c-0.13-2.63-4.23-2.64-4.1,0c0.39,8.16,0.78,16.32,1.17,24.48
					C140.02,246.5,144.12,246.52,144,243.87L144,243.87z"/>
			</g>
		</g>
		<g>
			<g>
				<path class="st1" d="M313.03,219.39c-0.19,4.08-0.39,8.16-0.58,12.24c-0.05,1.07,0.98,2.1,2.05,2.05c1.16-0.05,2-0.9,2.05-2.05
					c0.19-4.08,0.39-8.16,0.58-12.24c0.05-1.07-0.98-2.1-2.05-2.05C313.93,217.39,313.09,218.24,313.03,219.39L313.03,219.39z"/>
			</g>
		</g>
		<g>
			<g>
				<path class="st1" d="M66.74,346.2c10.9-0.45,21.82-3.88,30.22-11.03c3.95-3.36,7.18-7.56,10.17-11.76
					c2.87-4.03,5.48-8.25,7.82-12.61c3.69-6.87,6.71-14.09,9.15-21.49c0.83-2.51-3.13-3.59-3.96-1.09
					c-3.66,11.11-8.74,21.74-15.35,31.4c-2.83,4.13-5.89,8.18-9.56,11.6c-0.51,0.47-1.03,0.93-1.56,1.37
					c-0.23,0.19-0.46,0.37-0.69,0.55c0.67-0.53-0.39,0.29-0.25,0.19c-0.43,0.32-0.86,0.63-1.3,0.93c-2.71,1.86-5.64,3.44-8.71,4.62
					c-5.11,1.96-10.52,2.99-15.98,3.22C64.11,342.2,64.1,346.31,66.74,346.2L66.74,346.2z"/>
			</g>
		</g>
		<g>
			<g>
				<path class="st1" d="M71.28,327.85c15.88-8.6,29.07-21.62,37.98-37.32c1.74-3.07,3.32-6.24,4.73-9.47
					c0.44-1.01,0.3-2.2-0.74-2.81c-0.87-0.51-2.36-0.28-2.81,0.74c-6.31,14.47-15.99,27.38-28.5,37.07c-4,3.1-8.28,5.84-12.73,8.25
					C66.88,325.56,68.95,329.1,71.28,327.85L71.28,327.85z"/>
			</g>
		</g>
		<g>
			<g>
				<path class="st1" d="M205.21,43.04c-21.09,9.92-39.55,25.09-53.11,44.08c-13.52,18.94-21.61,41.29-24.46,64.32
					c-0.9,7.26-1.26,14.59-1.06,21.91c0.07,2.64,4.18,2.65,4.1,0c-0.44-15.8,1.74-31.66,6.44-46.75
					c7.64-24.53,22.35-46.41,42.3-62.62c8.51-6.92,17.93-12.72,27.85-17.38c1-0.47,1.26-1.91,0.74-2.81
					C207.41,42.75,206.21,42.57,205.21,43.04L205.21,43.04z"/>
			</g>
		</g>
		<g>
			<g>
				<path class="st1" d="M179.34,34.15c-18.74,12.57-34.75,29.03-46.47,48.35c-10.62,17.49-17.64,37.1-20.99,57.27
					c-1.22,7.36-1.99,14.8-2.27,22.26c-0.1,2.64,4.01,2.64,4.1,0c0.56-14.99,3.1-29.89,7.64-44.2C128.24,96.1,139.9,76,155.6,59.45
					c7.77-8.19,16.44-15.47,25.81-21.76C183.59,36.23,181.54,32.67,179.34,34.15L179.34,34.15z"/>
			</g>
		</g>
		<g>
			<g>
				<path class="st1" d="M111.51,89.05c-7.29,10.94-13.25,22.75-17.73,35.11c-6.27,17.29-9.5,35.68-9.54,54.07
					c-0.02,8.57,0.68,17.12,2,25.58c0.17,1.1,1.54,1.7,2.52,1.43c1.17-0.32,1.6-1.42,1.43-2.52c-2.52-16.23-2.51-32.92,0.15-49.14
					c2.61-15.93,7.68-31.44,14.98-45.83c2.91-5.73,6.16-11.28,9.72-16.62C116.52,88.91,112.97,86.86,111.51,89.05L111.51,89.05z"/>
			</g>
		</g>
		<g>
			<g>
				<path class="st1" d="M119.38,179.26c-4.04,15.9-8.08,31.8-12.13,47.69c-0.65,2.56,3.31,3.65,3.96,1.09
					c4.04-15.9,8.08-31.8,12.13-47.69C123.99,177.79,120.04,176.7,119.38,179.26L119.38,179.26z"/>
			</g>
		</g>
		<g>
			<g>
				<path class="st1" d="M130.91,306.5c-10.01,19.43-26.58,34.97-46.64,43.7c-4.39,1.91-8.94,3.45-13.57,4.67
					c-2.55,0.67-1.47,4.63,1.09,3.96c22.24-5.86,41.96-19.52,55.33-38.23c2.73-3.82,5.18-7.84,7.33-12.02
					C135.66,306.22,132.12,304.15,130.91,306.5L130.91,306.5z"/>
			</g>
		</g>
		<g>
			<g>
				<path class="st1" d="M92.63,219.42c0,13.47,0,26.95,0,40.42c0,2.64,4.1,2.64,4.1,0c0-13.47,0-26.95,0-40.42
					C96.74,216.78,92.63,216.78,92.63,219.42L92.63,219.42z"/>
			</g>
		</g>
		<g>
			<g>
				<path class="st1" d="M266.32,45.98c9.83,2.7,19.23,6.86,27.74,12.5c11.66,7.72,21.37,18.25,28,30.57
					c5.63,10.46,8.98,22.11,10.28,33.9c1.06,9.66,0.87,19.45-0.36,29.08c-0.09,0.72-0.21,1.56-0.36,2.51
					c-0.13,0.87-0.28,1.74-0.43,2.61c-0.27,1.53-0.56,3.05-0.89,4.57c-0.4,1.88-0.85,3.75-1.38,5.6c-0.06,0.21-0.12,0.41-0.18,0.62
					c-0.76,2.54,3.2,3.62,3.96,1.09c1.36-4.54,2.25-9.25,2.95-13.93c1.42-9.55,1.88-19.24,1.1-28.86c-0.98-12.2-3.9-24.21-9.15-35.3
					c-6.19-13.06-15.66-24.37-27.22-33.02c-9.08-6.79-19.44-11.84-30.27-15.13c-0.9-0.27-1.8-0.53-2.7-0.78
					C264.86,41.32,263.78,45.28,266.32,45.98L266.32,45.98z"/>
			</g>
		</g>
		<g>
			<g>
				<path class="st1" d="M282.81,40.12c9.79,5.29,18.95,11.69,27.21,19.14c11.87,10.71,21.78,23.45,29.2,37.6
					c3.58,6.82,6.55,13.93,8.93,21.25c0.81,2.5,4.78,1.43,3.96-1.09c-4.78-14.71-11.91-28.65-21.24-41.01
					c-8.83-11.71-19.44-21.94-31.42-30.4c-4.67-3.3-9.54-6.31-14.58-9.03C282.56,35.32,280.48,38.86,282.81,40.12L282.81,40.12z"/>
			</g>
		</g>
		<g>
			<g>
				<path class="st1" d="M345.65,148.28c0.44,21.99,0.05,43.99-1.17,65.95c-0.35,6.31-0.77,12.62-1.26,18.93
					c-0.2,2.63,3.9,2.62,4.1,0c1.72-22.25,2.59-44.57,2.6-66.89c0-6-0.06-11.99-0.18-17.99
					C349.71,145.65,345.6,145.64,345.65,148.28L345.65,148.28z"/>
			</g>
		</g>
		<g>
			<g>
				<path class="st1" d="M355.63,140.43c11.03,20.07,15.6,43.3,13.04,66.06c-0.56,4.99-1.5,9.94-2.74,14.81
					c-0.65,2.56,3.31,3.65,3.96,1.09c5.85-23.04,4.48-47.72-4.13-69.89c-1.88-4.85-4.08-9.58-6.58-14.14
					C357.91,136.04,354.36,138.11,355.63,140.43L355.63,140.43z"/>
			</g>
		</g>
		<g>
			<g>
				<path class="st1" d="M361.09,244.74c-3.12,12.87-11.09,24.33-22.64,31c-3.61,2.09-7.47,3.66-11.49,4.75
					c-2.54,0.69-1.46,4.65,1.09,3.96c8.43-2.3,16.25-6.66,22.5-12.77c5.39-5.27,9.47-11.71,12.23-18.7
					c0.92-2.33,1.67-4.71,2.26-7.14C365.67,243.27,361.71,242.17,361.09,244.74L361.09,244.74z"/>
			</g>
		</g>
		<g>
			<g>
				<path class="st1" d="M317.36,301.07c-0.08,7.11,1.82,15.55,8.58,19.23c4.51,2.46,9.81,2.22,14.72,1.4
					c5.97-0.99,11.97-2.73,17.69-4.69c5.34-1.83,10.51-4.14,15.44-6.89c2.31-1.29,0.24-4.83-2.07-3.54
					c-8.83,4.94-18.44,8.12-28.28,10.39c-4.44,1.02-9.4,1.96-13.84,0.48c-1.29-0.43-2.53-1.12-3.54-2.05
					c-0.28-0.25-0.54-0.52-0.79-0.8c-0.16-0.17-0.31-0.35-0.45-0.54c-0.21-0.26,0.29,0.4-0.05-0.07c-0.11-0.15-0.22-0.31-0.33-0.47
					c-2.44-3.64-3.04-8.14-2.99-12.46C321.5,298.42,317.39,298.42,317.36,301.07L317.36,301.07z"/>
			</g>
		</g>
		<g>
			<g>
				<path class="st1" d="M313.6,339.29c3.97,6.37,10.09,11.82,16.81,15.1c11.72,5.72,25.7,4.66,36.63-2.39
					c6.35-4.1,11.47-9.95,14.77-16.75c1.15-2.37-2.39-4.45-3.54-2.07c-5.25,10.84-15.51,19.06-27.62,20.61
					c-10.66,1.36-20.9-2.82-28.4-10.31c-0.75-0.75-1.47-1.52-2.16-2.32c-0.29-0.33-0.57-0.67-0.85-1.02
					c-0.13-0.16-0.25-0.32-0.38-0.47c-0.22-0.28,0.16,0.21-0.12-0.16c-0.56-0.74-1.1-1.5-1.59-2.29
					C315.75,334.98,312.2,337.04,313.6,339.29L313.6,339.29z"/>
			</g>
		</g>
		<g>
			<g>
				<path class="st1" d="M327.5,333.84c17.67-2.11,34.88-6.83,51.15-14.02c1.01-0.45,1.25-1.93,0.74-2.81
					c-0.61-1.04-1.79-1.19-2.81-0.74c-15.56,6.88-32.19,11.44-49.08,13.46c-1.1,0.13-2.05,0.85-2.05,2.05
					C325.45,332.79,326.39,333.97,327.5,333.84L327.5,333.84z"/>
			</g>
		</g>
		<g>
			<g>
				<path class="st1" d="M359.57,376.61c14.75-5.87,28.79-13.42,41.73-22.62c3.16-2.25,6.26-4.59,9.29-7.01
					c0.87-0.69,0.72-2.18,0-2.9c-0.86-0.86-2.03-0.69-2.9,0c-11.42,9.1-23.88,16.91-37.04,23.23c-3.99,1.92-8.05,3.7-12.17,5.34
					c-1.03,0.41-1.75,1.37-1.43,2.52C357.31,376.15,358.53,377.02,359.57,376.61L359.57,376.61z"/>
			</g>
		</g>
		<g>
			<g>
				<path class="st1" d="M401.6,384.69c12.46-4.09,20.95-16.29,20.1-29.46c-0.17-2.62-4.27-2.64-4.1,0
					c0.4,6.25-1.45,12.66-5.47,17.52c-1.94,2.34-4.26,4.31-6.89,5.84c-1.76,1.02-2.95,1.56-4.74,2.15
					C398.02,381.55,399.08,385.52,401.6,384.69L401.6,384.69z"/>
			</g>
		</g>
		<g>
			<polyline class="st2" points="417.45,494.47 375.92,449.57 407.35,437.22 398.44,399.5 326.28,383.58 303.47,515.98 			"/>
			<g>
				<path class="st1" d="M418.9,493.02c-4.67-5.05-9.34-10.09-14-15.14c-7.47-8.08-14.94-16.15-22.41-24.23
					c-1.71-1.84-3.41-3.69-5.12-5.53c-0.3,1.14-0.6,2.29-0.91,3.43c9.16-3.6,18.32-7.2,27.48-10.8c1.32-0.52,2.63-1.03,3.95-1.55
					c1.06-0.42,1.71-1.35,1.43-2.52c-2.6-11.03-5.21-22.07-7.81-33.1c-0.36-1.54-0.73-3.09-1.09-4.63
					c-0.16-0.66-0.76-1.29-1.43-1.43c-8.15-1.8-16.3-3.59-24.45-5.39c-12.93-2.85-25.87-5.71-38.81-8.56
					c-2.97-0.66-5.94-1.31-8.91-1.97c-1-0.22-2.33,0.3-2.52,1.43c-0.76,4.41-1.52,8.83-2.28,13.24
					c-1.81,10.51-3.62,21.02-5.43,31.53c-2.2,12.79-4.41,25.58-6.61,38.37c-1.89,10.98-3.78,21.97-5.68,32.95
					c-0.92,5.36-1.9,10.72-2.77,16.09c-0.01,0.08-0.03,0.15-0.04,0.23c-0.19,1.09,0.29,2.21,1.43,2.52
					c0.99,0.27,2.33-0.34,2.52-1.43c0.76-4.41,1.52-8.83,2.28-13.24c1.81-10.51,3.62-21.02,5.43-31.53
					c2.2-12.79,4.41-25.58,6.61-38.37c1.89-10.98,3.78-21.97,5.68-32.95c0.63-3.64,1.26-7.29,1.88-10.93
					c0.29-1.69,0.76-3.44,0.89-5.16c0.01-0.08,0.03-0.15,0.04-0.23c-0.84,0.48-1.68,0.96-2.52,1.43c8.15,1.8,16.3,3.59,24.45,5.39
					c12.93,2.85,25.87,5.71,38.81,8.56c2.97,0.66,5.94,1.31,8.91,1.97c-0.48-0.48-0.96-0.96-1.43-1.43
					c2.6,11.03,5.21,22.07,7.81,33.1c0.36,1.54,0.73,3.09,1.09,4.63c0.48-0.84,0.96-1.68,1.43-2.52c-9.16,3.6-18.32,7.2-27.48,10.8
					c-1.32,0.52-2.63,1.03-3.95,1.55c-1.44,0.56-2.03,2.22-0.91,3.43c4.67,5.05,9.34,10.09,14,15.14
					c7.47,8.08,14.94,16.15,22.41,24.23c1.71,1.84,3.41,3.69,5.12,5.53C417.8,497.86,420.69,494.96,418.9,493.02L418.9,493.02z"/>
			</g>
		</g>
	</g>
	<circle class="st3" cx="230" cy="230.44" r="230"/>
</g>
</svg>
