<?xml version="1.0" encoding="utf-8"?>
<!-- Generator: Adobe Illustrator 24.1.0, SVG Export Plug-In . SVG Version: 6.00 Build 0)  -->
<svg version="1.1" id="Layer_1" xmlns="http://www.w3.org/2000/svg" xmlns:xlink="http://www.w3.org/1999/xlink" x="0px" y="0px"
	 viewBox="0 0 3091.87 720" style="enable-background:new 0 0 3091.87 720;" xml:space="preserve">
<style type="text/css">
	.st0{fill:#FFFFFF;}
	.st1{fill:#C7C8CA;}
	.st2{fill:#D3524E;}
	.st3{fill:#395C94;}
	.st4{fill:#E6E7E8;}
</style>
<g>
	<g>
		<polygon class="st0" points="408,319.54 467.71,285.37 467.71,193.53 328.34,273.29 268.76,238.69 268.76,330.75 327.73,365.47 
			408,319.55 		"/>
		<polygon class="st0" points="467.71,285.37 408,319.55 407.33,412.34 327.73,365.47 327.73,365.47 268.41,330.56 188.66,376.11 
			327.29,458.14 327.29,458.14 326.98,526.25 406.84,480.46 487.24,526.47 487.4,366.42 547.24,332.09 		"/>
	</g>
	<polygon class="st1" points="467.71,193.53 467.71,285.37 327.73,365.47 327.73,273.64 	"/>
	<polygon class="st2" points="487.24,526.47 406.84,480.46 408,319.55 487.4,365.18 	"/>
	<polygon class="st3" points="188.66,376.11 268.41,330.56 407.34,412.34 327.3,458.14 	"/>
	<polygon class="st4" points="268.76,238.69 268.76,330.75 327.73,365.47 408,319.55 	"/>
	<polygon class="st3" points="326.98,526.25 406.84,480.46 407.34,412.34 327.73,365.47 	"/>
	<polygon class="st2" points="547.24,332.09 467.71,285.37 408,319.55 407.34,412.34 	"/>
</g>
<g>
	<path d="M674.57,256.49v153.33c0,35-25.21,57.24-61.1,57.24c-31.44,0-53.09-17.2-59.32-46.86l23.73-5.04
		c3.86,16.61,13.05,29.96,36.18,29.96c22.54,0,35.59-12.75,35.59-39.74V278.14h-74.74v-21.65H674.57z"/>
	<path d="M839.46,369.49h-80.67v94.02h-24.91V256.49h24.91v91.35h80.67v-91.35h24.91v207.02h-24.91V369.49z"/>
	<path d="M967.88,362.08l-29.66,35v66.44h-24.91V256.49h24.91v107.96h0.89l27.29-34.4l61.1-73.55h29.96l-72.66,87.2l74.74,119.82
		h-29.06L967.88,362.08z"/>
	<path d="M1270.69,463.51V256.49h130.5v21.65h-105.58v69.7h96.69v21.65h-96.69v94.02H1270.69z"/>
	<path d="M1438.56,360c0-67.62,21.95-107.07,72.37-107.07c50.42,0,72.37,39.45,72.37,107.07c0,67.62-21.95,107.07-72.37,107.07
		C1460.51,467.07,1438.56,427.62,1438.56,360z M1556.9,376.91V343.1c0-41.52-13.05-68.51-45.97-68.51s-45.97,26.99-45.97,68.51
		v33.81c0,41.52,13.05,68.51,45.97,68.51S1556.9,418.43,1556.9,376.91z"/>
	<path d="M1651.5,463.51h-24.91V256.49h75.33c38.26,0,59.02,22.24,59.02,59.61c0,33.22-18.09,54.57-51.01,57.83l52.79,89.57h-27.88
		l-50.42-88.38h-32.92V463.51z M1701.33,354.07c20.76,0,33.22-10.97,33.22-30.25v-15.42c0-19.28-12.46-30.25-33.22-30.25h-49.83
		v75.93H1701.33z"/>
	<path d="M1804.54,463.51V256.49h127.53v21.65h-102.62v69.7h99.06v21.65h-99.06v72.37h102.62v21.65H1804.54z"/>
	<path d="M1976.56,360c0-68.81,24.62-107.07,75.04-107.07c37.96,0,53.68,22.84,63.77,45.38l-21.35,9.79
		c-7.42-18.39-17.2-33.51-42.41-33.51c-32.92,0-48.64,26.99-48.64,68.51v33.81c0,41.52,15.72,68.51,48.64,68.51
		c25.21,0,35-15.13,42.41-33.51l21.35,9.79c-10.08,22.54-25.8,45.38-63.77,45.38C2001.18,467.07,1976.56,428.81,1976.56,360z"/>
	<path d="M2276.4,463.51l-17.5-59.02h-72.66l-17.5,59.02h-25.8l63.47-207.02h32.92l63.47,207.02H2276.4z M2223.91,282.89h-2.67
		l-29.06,99.95h60.8L2223.91,282.89z"/>
	<path d="M2325.04,430.59l18.09-14.83c16.01,20.17,32.92,29.96,57.83,29.96c29.96,0,46.27-14.53,46.27-39.45
		c0-20.17-10.38-30.84-38.56-35.59l-23.13-3.86c-40.63-6.82-53.38-30.25-53.38-56.35c0-37.96,26.99-57.54,69.1-57.54
		c32.92,0,55.46,11.86,69.4,31.73l-17.5,15.13c-11.57-15.13-26.4-25.51-52.2-25.51c-27.88,0-43.6,12.16-43.6,35.59
		c0,18.39,9.49,30.25,38.85,35.29l22.24,3.86c40.63,7.12,53.98,29.66,53.98,56.65c0,38.26-26.4,61.39-72.37,61.39
		C2363.01,467.07,2340.46,451.94,2325.04,430.59z"/>
	<path d="M2591.08,278.14v185.37h-24.91V278.14h-69.1v-21.65h163.12v21.65H2591.08z"/>
	<path d="M2680.94,430.59l18.09-14.83c16.01,20.17,32.92,29.96,57.83,29.96c29.96,0,46.27-14.53,46.27-39.45
		c0-20.17-10.38-30.84-38.56-35.59l-23.13-3.86c-40.63-6.82-53.38-30.25-53.38-56.35c0-37.96,26.99-57.54,69.1-57.54
		c32.92,0,55.46,11.86,69.4,31.73l-17.5,15.13c-11.57-15.13-26.4-25.51-52.2-25.51c-27.88,0-43.6,12.16-43.6,35.59
		c0,18.39,9.49,30.25,38.85,35.29l22.24,3.86c40.63,7.12,53.98,29.66,53.98,56.65c0,38.26-26.4,61.39-72.37,61.39
		C2718.9,467.07,2696.36,451.94,2680.94,430.59z"/>
</g>
</svg>
