<?xml version="1.0" encoding="utf-8"?>
<!-- Generator: Adobe Illustrator 24.1.0, SVG Export Plug-In . SVG Version: 6.00 Build 0)  -->
<svg version="1.1" id="Layer_1" xmlns="http://www.w3.org/2000/svg" xmlns:xlink="http://www.w3.org/1999/xlink" x="0px" y="0px"
	 viewBox="0 0 720 720" style="enable-background:new 0 0 720 720;" xml:space="preserve">
<style type="text/css">
	.st0{fill:#FFFFFF;}
	.st1{fill:#C7C8CA;}
	.st2{fill:#D3524E;}
	.st3{fill:#395C94;}
	.st4{fill:#E6E7E8;}
</style>
<g>
	<g>
		<polygon class="st0" points="422.77,296.58 516.38,243.02 516.38,99.05 297.91,224.07 204.51,169.83 204.51,314.15 296.94,368.58 
			422.78,296.58 		"/>
		<polygon class="st0" points="516.38,243.02 422.78,296.58 421.73,442.05 296.94,368.58 296.94,368.58 203.96,313.84 78.95,385.26 
			296.26,513.84 296.26,513.84 295.77,620.61 420.96,548.82 547,620.95 547.24,370.06 641.05,316.25 		"/>
	</g>
	<polygon class="st1" points="516.38,99.05 516.38,243.02 296.94,368.58 296.94,224.62 	"/>
	<polygon class="st2" points="547,620.95 420.96,548.82 422.78,296.58 547.24,368.12 	"/>
	<polygon class="st3" points="78.95,385.25 203.96,313.84 421.74,442.05 296.26,513.84 	"/>
	<polygon class="st4" points="204.51,169.83 204.51,314.15 296.94,368.58 422.78,296.58 	"/>
	<polygon class="st3" points="295.77,620.61 420.96,548.82 421.74,442.05 296.94,368.58 	"/>
	<polygon class="st2" points="641.05,316.25 516.38,243.02 422.78,296.58 421.74,442.05 	"/>
</g>
</svg>
