<?xml version="1.0" encoding="utf-8"?>
<!-- Generator: Adobe Illustrator 24.1.0, SVG Export Plug-In . SVG Version: 6.00 Build 0)  -->
<svg version="1.1" id="Layer_1" xmlns="http://www.w3.org/2000/svg" xmlns:xlink="http://www.w3.org/1999/xlink" x="0px" y="0px"
	 viewBox="0 0 720 720" style="enable-background:new 0 0 720 720;" xml:space="preserve">
<style type="text/css">
	.st0{fill:#FFFFFF;}
	.st1{fill:#C7C8CA;}
	.st2{fill:#D3524E;}
	.st3{fill:#395C94;}
	.st4{fill:#E6E7E8;}
</style>
<g>
	<polygon class="st0" points="414.42,287.1 508.03,233.54 508.03,89.57 289.56,214.6 196.16,160.36 196.16,304.68 288.59,359.1 
		414.43,287.11 	"/>
	<polygon class="st0" points="508.03,233.54 414.43,287.11 413.38,432.57 288.59,359.1 288.59,359.11 195.61,304.37 70.6,375.78 
		287.92,504.36 287.92,504.36 287.42,611.14 412.62,539.35 538.65,611.47 538.89,360.59 632.7,306.78 	"/>
</g>
<polygon class="st1" points="508.03,89.57 508.03,233.54 288.59,359.1 288.59,215.15 "/>
<polygon class="st2" points="538.65,611.47 412.62,539.35 414.43,287.11 538.9,358.64 "/>
<polygon class="st3" points="70.6,375.78 195.61,304.37 413.39,432.58 287.92,504.36 "/>
<polygon class="st4" points="196.16,160.36 196.16,304.68 288.59,359.1 414.43,287.11 "/>
<polygon class="st3" points="287.42,611.14 412.62,539.35 413.39,432.58 288.59,359.1 "/>
<polygon class="st2" points="632.7,306.78 508.03,233.54 414.43,287.11 413.39,432.58 "/>
</svg>
