<svg id="Layer_1" data-name="Layer 1" xmlns="http://www.w3.org/2000/svg" viewBox="0 0 443 443"><defs><style>.cls-1{fill:#fff;}.cls-2{fill:#231f20;}</style></defs><circle class="cls-1" cx="221.5" cy="221.5" r="209"/><path d="M221.5,25a196.5,196.5,0,0,1,139,335.45A196.5,196.5,0,0,1,82.55,82.55,195.24,195.24,0,0,1,221.5,25m0-25C99.17,0,0,99.17,0,221.5S99.17,443,221.5,443,443,343.83,443,221.5,343.83,0,221.5,0Z"/><path class="cls-2" d="M178.15,197.63h86.9c17.54,0,27.34,9.39,27.34,23.67,0,14.48-9.8,24.07-27.34,24.07h-86.9c-17.74,0-27.54-9.59-27.54-23.87C150.61,207,160.61,197.63,178.15,197.63Z"/></svg>