<?xml version="1.0" encoding="utf-8"?>
<!-- Generator: Adobe Illustrator 24.1.0, SVG Export Plug-In . SVG Version: 6.00 Build 0)  -->
<svg version="1.1" id="Layer_1" xmlns="http://www.w3.org/2000/svg" xmlns:xlink="http://www.w3.org/1999/xlink" x="0px" y="0px"
	 viewBox="0 0 400 400" style="enable-background:new 0 0 400 400;" xml:space="preserve">
<style type="text/css">
	.st0{fill:#FFFFFF;}
	.st1{fill:#F16062;}
	.st2{fill:#5F68B0;}
</style>
<g>
	<g>
		<circle class="st0" cx="99.88" cy="200" r="35.87"/>
		<path d="M99.88,164.35c19.66,0,35.65,15.99,35.65,35.65s-15.99,35.65-35.65,35.65S64.23,219.66,64.23,200
			S80.22,164.35,99.88,164.35 M99.88,163.91c-19.93,0-36.09,16.16-36.09,36.09s16.16,36.09,36.09,36.09
			c19.93,0,36.09-16.16,36.09-36.09S119.81,163.91,99.88,163.91L99.88,163.91z"/>
	</g>
	<g>
		
			<ellipse transform="matrix(0.7071 -0.7071 0.7071 0.7071 -86.471 191.2407)" class="st0" cx="187.61" cy="200" rx="35.87" ry="35.87"/>
		<path d="M187.61,164.35c19.66,0,35.65,15.99,35.65,35.65s-15.99,35.65-35.65,35.65s-35.65-15.99-35.65-35.65
			S167.95,164.35,187.61,164.35 M187.61,163.91c-19.93,0-36.09,16.16-36.09,36.09s16.16,36.09,36.09,36.09S223.7,219.93,223.7,200
			S207.54,163.91,187.61,163.91L187.61,163.91z"/>
	</g>
	<g>
		<path class="st0" d="M275.34,235.87c-19.78,0-35.87-16.09-35.87-35.87s16.09-35.87,35.87-35.87c19.78,0,35.87,16.09,35.87,35.87
			S295.12,235.87,275.34,235.87z"/>
		<path d="M275.34,164.35C295,164.35,311,180.34,311,200s-15.99,35.65-35.65,35.65s-35.65-15.99-35.65-35.65
			S255.68,164.35,275.34,164.35 M275.34,163.91c-19.93,0-36.09,16.16-36.09,36.09s16.16,36.09,36.09,36.09s36.09-16.16,36.09-36.09
			S295.27,163.91,275.34,163.91L275.34,163.91z"/>
	</g>
	<g>
		<circle class="st1" cx="99.88" cy="104.49" r="35.87"/>
		<path d="M99.88,68.83c19.66,0,35.65,15.99,35.65,35.65s-15.99,35.65-35.65,35.65s-35.65-15.99-35.65-35.65
			S80.22,68.83,99.88,68.83 M99.88,68.4c-19.93,0-36.09,16.16-36.09,36.09c0,19.93,16.16,36.09,36.09,36.09
			c19.93,0,36.09-16.16,36.09-36.09C135.97,84.56,119.81,68.4,99.88,68.4L99.88,68.4z"/>
	</g>
	<g>
		
			<ellipse transform="matrix(0.9239 -0.3827 0.3827 0.9239 -25.705 79.7501)" class="st1" cx="187.61" cy="104.49" rx="35.87" ry="35.87"/>
		<path d="M187.61,68.83c19.66,0,35.65,15.99,35.65,35.65s-15.99,35.65-35.65,35.65s-35.65-15.99-35.65-35.65
			S167.95,68.83,187.61,68.83 M187.61,68.4c-19.93,0-36.09,16.16-36.09,36.09c0,19.93,16.16,36.09,36.09,36.09
			s36.09-16.16,36.09-36.09C223.7,84.56,207.54,68.4,187.61,68.4L187.61,68.4z"/>
	</g>
	<g>
		<path class="st1" d="M275.34,140.36c-19.78,0-35.87-16.09-35.87-35.87s16.09-35.87,35.87-35.87c19.78,0,35.87,16.09,35.87,35.87
			S295.12,140.36,275.34,140.36z"/>
		<path d="M275.34,68.83C295,68.83,311,84.83,311,104.49s-15.99,35.65-35.65,35.65s-35.65-15.99-35.65-35.65
			S255.68,68.83,275.34,68.83 M275.34,68.4c-19.93,0-36.09,16.16-36.09,36.09c0,19.93,16.16,36.09,36.09,36.09
			s36.09-16.16,36.09-36.09C311.43,84.56,295.27,68.4,275.34,68.4L275.34,68.4z"/>
	</g>
	<g>
		<path class="st2" d="M99.88,331.38c-19.78,0-35.87-16.09-35.87-35.87c0-19.78,16.09-35.87,35.87-35.87s35.87,16.09,35.87,35.87
			C135.75,315.29,119.66,331.38,99.88,331.38z"/>
		<path d="M99.88,259.86c19.66,0,35.65,15.99,35.65,35.65s-15.99,35.65-35.65,35.65s-35.65-15.99-35.65-35.65
			S80.22,259.86,99.88,259.86 M99.88,259.42c-19.93,0-36.09,16.16-36.09,36.09c0,19.93,16.16,36.09,36.09,36.09
			c19.93,0,36.09-16.16,36.09-36.09C135.97,275.58,119.81,259.42,99.88,259.42L99.88,259.42z"/>
	</g>
	<g>
		<path class="st0" d="M187.61,331.38c-19.78,0-35.87-16.09-35.87-35.87c0-19.78,16.09-35.87,35.87-35.87s35.87,16.09,35.87,35.87
			C223.48,315.29,207.39,331.38,187.61,331.38z"/>
		<path d="M187.61,259.86c19.66,0,35.65,15.99,35.65,35.65s-15.99,35.65-35.65,35.65s-35.65-15.99-35.65-35.65
			S167.95,259.86,187.61,259.86 M187.61,259.42c-19.93,0-36.09,16.16-36.09,36.09c0,19.93,16.16,36.09,36.09,36.09
			s36.09-16.16,36.09-36.09C223.7,275.58,207.54,259.42,187.61,259.42L187.61,259.42z"/>
	</g>
	<g>
		<path class="st0" d="M275.34,331.38c-19.78,0-35.87-16.09-35.87-35.87c0-19.78,16.09-35.87,35.87-35.87
			c19.78,0,35.87,16.09,35.87,35.87C311.21,315.29,295.12,331.38,275.34,331.38z"/>
		<path d="M275.34,259.86c19.66,0,35.65,15.99,35.65,35.65s-15.99,35.65-35.65,35.65s-35.65-15.99-35.65-35.65
			S255.68,259.86,275.34,259.86 M275.34,259.42c-19.93,0-36.09,16.16-36.09,36.09c0,19.93,16.16,36.09,36.09,36.09
			s36.09-16.16,36.09-36.09C311.43,275.58,295.27,259.42,275.34,259.42L275.34,259.42z"/>
	</g>
	<g>
		<circle class="st0" cx="363.08" cy="200" r="35.87"/>
		<path d="M363.08,164.35c19.66,0,35.65,15.99,35.65,35.65s-15.99,35.65-35.65,35.65s-35.65-15.99-35.65-35.65
			S343.42,164.35,363.08,164.35 M363.08,163.91c-19.93,0-36.09,16.16-36.09,36.09s16.16,36.09,36.09,36.09s36.09-16.16,36.09-36.09
			S383.01,163.91,363.08,163.91L363.08,163.91z"/>
	</g>
	<g>
		<path d="M1.97,221.31v-42.63h13.12c7.74,0,12.38,3.93,12.38,10.52c0,4.76-2.95,8.6-7.21,9.39v0.38c5.76,0.65,9.39,4.76,9.39,10.55
			c0,7.44-5.35,11.79-14.54,11.79H1.97z M6.02,197.47h7.33c6.56,0,10.04-2.66,10.04-7.62c0-4.82-3.31-7.59-9.07-7.59h-8.3V197.47z
			 M14.56,217.74c7.12,0,10.96-2.95,10.96-8.42c0-5.47-3.84-8.33-11.17-8.33H6.02v16.75H14.56z"/>
	</g>
	<g>
		<path d="M5.82,112.92c0.56,5.11,4.61,8.27,10.58,8.27c6.09,0,10.07-3.31,10.07-8.36c0-4.08-2.69-6.62-8.77-8.18l-3.34-0.86
			c-8.01-2.1-11.52-5.73-11.52-11.85c0-6.94,5.35-11.46,13.56-11.46c7.74,0,13.06,4.46,13.47,11.32h-4.05
			c-0.59-4.82-4.08-7.62-9.42-7.62c-5.91,0-9.42,2.9-9.42,7.77c0,3.99,2.54,6.35,8.45,7.89l3.46,0.92
			c8.3,2.16,11.73,5.7,11.73,12.08c0,7.27-5.64,12.05-14.21,12.05c-8.48,0-14.12-4.61-14.62-11.97H5.82z"/>
	</g>
	<g>
		<path d="M16.17,317.92c-9.48,0-15.33-6.91-15.33-18.67v-7.06c0-11.76,5.85-18.67,15.33-18.67s15.33,6.91,15.33,18.67v7.06
			C31.5,311.01,25.65,317.92,16.17,317.92z M27.46,299.25v-7.06c0-9.45-4.31-14.92-11.29-14.92s-11.29,5.47-11.29,14.92v7.06
			c0,9.45,4.31,14.92,11.29,14.92S27.46,308.7,27.46,299.25z"/>
	</g>
</g>
<g>
</g>
<g>
</g>
<g>
</g>
<g>
</g>
<g>
</g>
<g>
</g>
<g>
</g>
<g>
</g>
<g>
</g>
<g>
</g>
<g>
</g>
<g>
</g>
<g>
</g>
<g>
</g>
<g>
</g>
</svg>
