<?xml version="1.0" encoding="utf-8"?>
<!-- Generator: Adobe Illustrator 24.0.1, SVG Export Plug-In . SVG Version: 6.00 Build 0)  -->
<svg version="1.1" id="Layer_1" xmlns="http://www.w3.org/2000/svg" xmlns:xlink="http://www.w3.org/1999/xlink" x="0px" y="0px"
	 viewBox="0 0 697.93 59.53" style="enable-background:new 0 0 697.93 59.53;" xml:space="preserve">
<style type="text/css">
	.st0{fill:none;stroke:#B21F24;stroke-width:1.2667;stroke-miterlimit:10;}
	.st1{fill:none;stroke:#B21F24;stroke-width:2.5333;stroke-miterlimit:10;}
	.st2{fill:#F3DD0A;stroke:#F3DD0A;stroke-width:2.6212;stroke-miterlimit:10;}
	.st3{fill:#B22025;stroke:#FFFFFF;stroke-width:1.2667;stroke-miterlimit:10;}
	.st4{fill:#FFFFFF;}
	.st5{fill:#B21F24;}
	.st6{fill:#93D8F2;}
	.st7{fill:none;stroke:#B22126;stroke-width:0.7413;stroke-miterlimit:10;}
</style>
<line class="st0" x1="97.53" y1="22.8" x2="697.93" y2="22.8"/>
<line class="st1" x1="97.53" y1="1.27" x2="697.93" y2="1.27"/>
<line class="st1" x1="97.53" y1="58.27" x2="697.93" y2="58.27"/>
<rect x="1.27" y="1.27" class="st2" width="86.5" height="57.67"/>
<line class="st0" x1="97.53" y1="7.6" x2="697.93" y2="7.6"/>
<line class="st0" x1="97.53" y1="12.67" x2="697.93" y2="12.67"/>
<line class="st0" x1="97.53" y1="17.73" x2="697.93" y2="17.73"/>
<line class="st0" x1="97.53" y1="22.8" x2="697.93" y2="22.8"/>
<line class="st0" x1="97.53" y1="27.87" x2="697.93" y2="27.87"/>
<line class="st0" x1="97.53" y1="32.93" x2="697.93" y2="32.93"/>
<line class="st0" x1="97.53" y1="38" x2="697.93" y2="38"/>
<line class="st0" x1="97.53" y1="43.07" x2="697.93" y2="43.07"/>
<line class="st0" x1="97.53" y1="48.13" x2="697.93" y2="48.13"/>
<line class="st0" x1="97.53" y1="53.2" x2="697.93" y2="53.2"/>
<g>
	<path class="st3" d="M126.95,16.66c0-0.36,0.33-0.65,0.69-0.65h0.91l15.12,16.07h0.04V17.06c0-0.36,0.29-0.69,0.69-0.69h3.34
		c0.36,0,0.69,0.33,0.69,0.69v24.46c0,0.36-0.33,0.65-0.69,0.65h-0.87L131.67,25.5h-0.04v15.63c0,0.36-0.29,0.69-0.69,0.69h-3.31
		c-0.36,0-0.69-0.33-0.69-0.69V16.66z"/>
	<path class="st3" d="M157.54,17.06c0-0.36,0.29-0.69,0.69-0.69h14.79c0.4,0,0.69,0.33,0.69,0.69v2.98c0,0.36-0.29,0.69-0.69,0.69
		h-10.76v5.96h8.98c0.36,0,0.69,0.33,0.69,0.69v3.02c0,0.4-0.33,0.69-0.69,0.69h-8.98v6.36h10.76c0.4,0,0.69,0.33,0.69,0.69v2.98
		c0,0.36-0.29,0.69-0.69,0.69h-14.79c-0.4,0-0.69-0.33-0.69-0.69V17.06z"/>
	<path class="st3" d="M179.17,17.24c-0.15-0.51,0.15-0.87,0.65-0.87h3.34c0.29,0,0.58,0.25,0.65,0.51l3.78,14.5h0.15l5.78-14.97
		c0.07-0.22,0.25-0.4,0.62-0.4h0.65c0.36,0,0.55,0.18,0.62,0.4l5.82,14.97h0.15l3.71-14.5c0.07-0.25,0.36-0.51,0.65-0.51h3.34
		c0.51,0,0.8,0.36,0.65,0.87l-6.87,24.42c-0.07,0.29-0.36,0.51-0.65,0.51h-0.58c-0.33,0-0.55-0.18-0.62-0.4l-6.51-16.47h-0.18
		l-6.43,16.47c-0.11,0.22-0.25,0.4-0.62,0.4h-0.58c-0.29,0-0.58-0.22-0.65-0.51L179.17,17.24z"/>
	<path class="st3" d="M229.79,16.55c0.04-0.29,0.25-0.55,0.65-0.55h0.58c0.29,0,0.51,0.15,0.62,0.36l8,17.16c0.07,0,0.07,0,0.11,0
		l8-17.16c0.11-0.22,0.29-0.36,0.62-0.36h0.58c0.4,0,0.62,0.25,0.65,0.55l4.29,24.42c0.11,0.51-0.18,0.84-0.65,0.84h-3.31
		c-0.33,0-0.62-0.29-0.69-0.55l-2.14-13.77c-0.04,0-0.11,0-0.11,0l-6.36,14.28c-0.07,0.22-0.29,0.4-0.62,0.4h-0.65
		c-0.33,0-0.51-0.18-0.62-0.4l-6.43-14.28c0,0-0.07,0-0.11,0l-2.11,13.77c-0.04,0.25-0.33,0.55-0.65,0.55h-3.27
		c-0.47,0-0.76-0.33-0.69-0.84L229.79,16.55z"/>
	<path class="st3" d="M261.36,17.06c0-0.36,0.29-0.69,0.69-0.69h14.79c0.4,0,0.69,0.33,0.69,0.69v2.98c0,0.36-0.29,0.69-0.69,0.69
		h-10.76v5.96h8.98c0.36,0,0.69,0.33,0.69,0.69v3.02c0,0.4-0.33,0.69-0.69,0.69h-8.98v6.36h10.76c0.4,0,0.69,0.33,0.69,0.69v2.98
		c0,0.36-0.29,0.69-0.69,0.69h-14.79c-0.4,0-0.69-0.33-0.69-0.69V17.06z"/>
	<path class="st3" d="M290.58,28.77l-7.27-11.38c-0.29-0.47,0-1.02,0.62-1.02h4.22c0.29,0,0.47,0.18,0.58,0.33l4.65,7.71h0.04
		l4.73-7.71c0.07-0.15,0.29-0.33,0.58-0.33h4.22c0.62,0,0.91,0.54,0.62,1.02l-7.31,11.38l7.56,12.03c0.29,0.51,0,1.02-0.62,1.02
		h-3.93c-0.29,0-0.54-0.18-0.62-0.33l-5.2-8.32h-0.11l-5.12,8.32c-0.11,0.15-0.33,0.33-0.62,0.33h-3.92c-0.65,0-0.95-0.55-0.65-1.02
		L290.58,28.77z"/>
	<path class="st3" d="M310.71,17.06c0-0.36,0.33-0.69,0.69-0.69h3.38c0.36,0,0.69,0.33,0.69,0.69v24.06c0,0.36-0.33,0.69-0.69,0.69
		h-3.38c-0.36,0-0.69-0.33-0.69-0.69V17.06z"/>
	<path class="st3" d="M335.86,16.01c3.67,0,6.32,1.16,8.8,3.38c0.33,0.29,0.33,0.73,0.04,1.02l-2.22,2.29
		c-0.25,0.29-0.62,0.29-0.91,0c-1.53-1.34-3.56-2.14-5.6-2.14c-4.65,0-8.1,3.89-8.1,8.47c0,4.54,3.49,8.4,8.14,8.4
		c2.18,0,4.03-0.84,5.56-2.07c0.29-0.25,0.69-0.22,0.91,0l2.25,2.33c0.29,0.25,0.22,0.73-0.04,0.98c-2.47,2.4-5.6,3.53-8.83,3.53
		c-7.27,0-13.12-5.78-13.12-13.05C322.74,21.86,328.59,16.01,335.86,16.01z"/>
	<path class="st3" d="M363.08,16.01c7.27,0,13.08,5.85,13.08,13.12c0,7.27-5.82,13.05-13.08,13.05c-7.27,0-13.05-5.78-13.05-13.05
		C350.03,21.86,355.81,16.01,363.08,16.01z M363.08,37.45c4.58,0,8.36-3.74,8.36-8.32s-3.78-8.4-8.36-8.4
		c-4.58,0-8.32,3.82-8.32,8.4S358.5,37.45,363.08,37.45z"/>
</g>
<g>
	<polygon class="st4" points="405.57,29.68 429.21,17.57 452.86,29.68 429.21,41.8 	"/>
	<g>
		<path class="st5" d="M405.57,33.15c6.92-3.54,13.83-7.09,20.75-10.63c0.64-0.33,1.29-0.66,1.93-0.99
			c0.23-0.12,0.66-0.46,0.92-0.47c0.49-0.03,1.4,0.67,1.84,0.9c4.04,2.07,8.08,4.14,12.13,6.21c3.24,1.66,6.48,3.32,9.73,4.98
			c0-2.31,0-4.62,0-6.93c-6.92,3.54-13.83,7.09-20.75,10.63c-0.64,0.33-1.29,0.66-1.93,0.99c-0.23,0.12-0.66,0.46-0.92,0.47
			c-0.49,0.03-1.4-0.67-1.84-0.9c-4.04-2.07-8.08-4.14-12.13-6.21c-3.24-1.66-6.48-3.32-9.73-4.98c0.19,0.1-0.03,3.13-0.03,3.46
			c0,0.82,0,1.63,0.01,2.45C405.54,32.26,405.48,33.1,405.57,33.15c6.92,3.54,13.83,7.09,20.75,10.63c0.64,0.33,1.29,0.66,1.93,0.99
			c0.23,0.12,0.66,0.46,0.92,0.47c0.49,0.03,1.4-0.67,1.84-0.9c4.04-2.07,8.08-4.14,12.13-6.21c3.24-1.66,6.48-3.32,9.73-4.98
			c0.27-0.14,0.03-3.1,0.03-3.46c0-0.82,0-1.63-0.01-2.45c0-0.13,0.06-0.97-0.02-1.01c-6.92-3.54-13.83-7.09-20.75-10.63
			c-0.64-0.33-1.29-0.66-1.93-0.99c-0.23-0.12-0.66-0.46-0.92-0.47c-0.49-0.03-1.4,0.67-1.84,0.9c-4.04,2.07-8.08,4.14-12.13,6.21
			c-3.24,1.66-6.48,3.32-9.73,4.98c-0.27,0.14-0.03,3.1-0.03,3.46c0,0.82,0,1.63,0.01,2.45C405.54,32.25,405.61,33.12,405.57,33.15z
			"/>
	</g>
</g>
<g>
	<polygon class="st4" points="422.62,29.68 429.21,26.86 435.8,29.68 429.21,32.51 	"/>
	<g>
		<path class="st6" d="M422.62,31.27c1.93-0.83,3.85-1.65,5.78-2.48c0.21-0.09,0.57-0.34,0.8-0.34c0.15,0,0.38,0.15,0.52,0.21
			c1.13,0.48,2.26,0.97,3.38,1.45c0.9,0.39,1.8,0.77,2.7,1.16c0-1.06,0-2.11,0-3.17c-1.93,0.83-3.85,1.65-5.78,2.48
			c-0.21,0.09-0.57,0.34-0.8,0.34c-0.15,0-0.38-0.15-0.52-0.21c-1.13-0.48-2.26-0.97-3.38-1.45c-0.9-0.39-1.8-0.77-2.7-1.16
			c0.07,0.03-0.02,1.44-0.02,1.58C422.6,29.84,422.49,31.21,422.62,31.27c1.93,0.83,3.85,1.65,5.78,2.48
			c0.21,0.09,0.57,0.34,0.8,0.34c0.15,0,0.38-0.15,0.52-0.21c1.13-0.48,2.26-0.97,3.38-1.45c0.9-0.39,1.8-0.77,2.7-1.16
			c0.1-0.04,0.08-3.13,0-3.17c-1.93-0.83-3.85-1.65-5.78-2.48c-0.21-0.09-0.57-0.34-0.8-0.34c-0.15,0-0.38,0.15-0.52,0.21
			c-1.13,0.48-2.26,0.97-3.38,1.45c-0.9,0.39-1.8,0.77-2.7,1.16c-0.11,0.05-0.02,1.43-0.02,1.58
			C422.6,29.83,422.72,31.23,422.62,31.27z"/>
	</g>
</g>
<g>
	<polygon class="st4" points="479.04,29.25 502.69,17.13 526.33,29.25 502.69,41.36 	"/>
	<g>
		<path class="st5" d="M479.04,32.71c6.92-3.54,13.83-7.09,20.75-10.63c0.64-0.33,1.29-0.66,1.93-0.99
			c0.23-0.12,0.66-0.46,0.92-0.47c0.49-0.03,1.4,0.67,1.84,0.9c4.04,2.07,8.08,4.14,12.13,6.21c3.24,1.66,6.48,3.32,9.73,4.98
			c0-2.31,0-4.62,0-6.93c-6.92,3.54-13.83,7.09-20.75,10.63c-0.64,0.33-1.29,0.66-1.93,0.99c-0.23,0.12-0.66,0.46-0.92,0.47
			c-0.49,0.03-1.4-0.67-1.84-0.9c-4.04-2.07-8.08-4.14-12.13-6.21c-3.24-1.66-6.48-3.32-9.73-4.98c0.19,0.1-0.03,3.13-0.03,3.46
			c0,0.82,0,1.63,0.01,2.45C479.02,31.82,478.96,32.67,479.04,32.71c6.92,3.54,13.83,7.09,20.75,10.63
			c0.64,0.33,1.29,0.66,1.93,0.99c0.23,0.12,0.66,0.46,0.92,0.47c0.49,0.03,1.4-0.67,1.84-0.9c4.04-2.07,8.08-4.14,12.13-6.21
			c3.24-1.66,6.48-3.32,9.73-4.98c0.27-0.14,0.03-3.1,0.03-3.46c0-0.82,0-1.63-0.01-2.45c0-0.13,0.06-0.97-0.02-1.01
			c-6.92-3.54-13.83-7.09-20.75-10.63c-0.64-0.33-1.29-0.66-1.93-0.99c-0.23-0.12-0.66-0.46-0.92-0.47c-0.49-0.03-1.4,0.67-1.84,0.9
			c-4.04,2.07-8.08,4.14-12.13,6.21c-3.24,1.66-6.48,3.32-9.73,4.98c-0.27,0.14-0.03,3.1-0.03,3.46c0,0.82,0,1.63,0.01,2.45
			C479.02,31.81,479.09,32.68,479.04,32.71z"/>
	</g>
</g>
<g>
	<polygon class="st4" points="496.1,29.25 502.69,26.42 509.28,29.25 502.69,32.07 	"/>
	<g>
		<path class="st6" d="M496.1,30.83c1.93-0.83,3.85-1.65,5.78-2.48c0.21-0.09,0.57-0.34,0.8-0.34c0.15,0,0.38,0.15,0.52,0.21
			c1.13,0.48,2.26,0.97,3.38,1.45c0.9,0.39,1.8,0.77,2.7,1.16c0-1.06,0-2.11,0-3.17c-1.93,0.83-3.85,1.65-5.78,2.48
			c-0.21,0.09-0.57,0.34-0.8,0.34c-0.15,0-0.38-0.15-0.52-0.21c-1.13-0.48-2.26-0.97-3.38-1.45c-0.9-0.39-1.8-0.77-2.7-1.16
			c0.07,0.03-0.02,1.44-0.02,1.58C496.08,29.4,495.97,30.77,496.1,30.83c1.93,0.83,3.85,1.65,5.78,2.48
			c0.21,0.09,0.57,0.34,0.8,0.34c0.15,0,0.38-0.15,0.52-0.21c1.13-0.48,2.26-0.97,3.38-1.45c0.9-0.39,1.8-0.77,2.7-1.16
			c0.1-0.04,0.08-3.13,0-3.17c-1.93-0.83-3.85-1.65-5.78-2.48c-0.21-0.09-0.57-0.34-0.8-0.34c-0.15,0-0.38,0.15-0.52,0.21
			c-1.13,0.48-2.26,0.97-3.38,1.45c-0.9,0.39-1.8,0.77-2.7,1.16c-0.11,0.05-0.02,1.43-0.02,1.58
			C496.08,29.39,496.19,30.79,496.1,30.83z"/>
	</g>
</g>
<g>
	<polygon class="st4" points="561.26,29.28 584.9,17.16 608.54,29.28 584.9,41.4 	"/>
	<g>
		<path class="st5" d="M561.26,32.74c6.92-3.54,13.83-7.09,20.75-10.63c0.64-0.33,1.29-0.66,1.93-0.99
			c0.23-0.12,0.66-0.46,0.92-0.47c0.49-0.03,1.4,0.67,1.84,0.9c4.04,2.07,8.08,4.14,12.13,6.21c3.24,1.66,6.48,3.32,9.73,4.98
			c0-2.31,0-4.62,0-6.93c-6.92,3.54-13.83,7.09-20.75,10.63c-0.64,0.33-1.29,0.66-1.93,0.99c-0.23,0.12-0.66,0.46-0.92,0.47
			c-0.49,0.03-1.4-0.67-1.84-0.9c-4.04-2.07-8.08-4.14-12.13-6.21c-3.24-1.66-6.48-3.32-9.73-4.98c0.19,0.1-0.03,3.13-0.03,3.46
			c0,0.82,0,1.63,0.01,2.45C561.23,31.86,561.17,32.7,561.26,32.74c6.92,3.54,13.83,7.09,20.75,10.63c0.64,0.33,1.29,0.66,1.93,0.99
			c0.23,0.12,0.66,0.46,0.92,0.47c0.49,0.03,1.4-0.67,1.84-0.9c4.04-2.07,8.08-4.14,12.13-6.21c3.24-1.66,6.48-3.32,9.73-4.98
			c0.27-0.14,0.03-3.1,0.03-3.46c0-0.82,0-1.63-0.01-2.45c0-0.13,0.06-0.97-0.02-1.01c-6.92-3.54-13.83-7.09-20.75-10.63
			c-0.64-0.33-1.29-0.66-1.93-0.99c-0.23-0.12-0.66-0.46-0.92-0.47c-0.49-0.03-1.4,0.67-1.84,0.9c-4.04,2.07-8.08,4.14-12.13,6.21
			c-3.24,1.66-6.48,3.32-9.73,4.98c-0.27,0.14-0.03,3.1-0.03,3.46c0,0.82,0,1.63,0.01,2.45C561.23,31.84,561.3,32.72,561.26,32.74z"
			/>
	</g>
</g>
<g>
	<polygon class="st4" points="578.31,29.28 584.9,26.45 591.49,29.28 584.9,32.1 	"/>
	<g>
		<path class="st6" d="M578.31,30.86c1.93-0.83,3.85-1.65,5.78-2.48c0.21-0.09,0.57-0.34,0.8-0.34c0.15,0,0.38,0.15,0.52,0.21
			c1.13,0.48,2.26,0.97,3.38,1.45c0.9,0.39,1.8,0.77,2.7,1.16c0-1.06,0-2.11,0-3.17c-1.93,0.83-3.85,1.65-5.78,2.48
			c-0.21,0.09-0.57,0.34-0.8,0.34c-0.15,0-0.38-0.15-0.52-0.21c-1.13-0.48-2.26-0.97-3.38-1.45c-0.9-0.39-1.8-0.77-2.7-1.16
			c0.07,0.03-0.02,1.44-0.02,1.58C578.29,29.44,578.18,30.81,578.31,30.86c1.93,0.83,3.85,1.65,5.78,2.48
			c0.21,0.09,0.57,0.34,0.8,0.34c0.15,0,0.38-0.15,0.52-0.21c1.13-0.48,2.26-0.97,3.38-1.45c0.9-0.39,1.8-0.77,2.7-1.16
			c0.1-0.04,0.08-3.13,0-3.17c-1.93-0.83-3.85-1.65-5.78-2.48c-0.21-0.09-0.57-0.34-0.8-0.34c-0.15,0-0.38,0.15-0.52,0.21
			c-1.13,0.48-2.26,0.97-3.38,1.45c-0.9,0.39-1.8,0.77-2.7,1.16c-0.11,0.05-0.02,1.43-0.02,1.58
			C578.29,29.43,578.41,30.82,578.31,30.86z"/>
	</g>
</g>
<g>
	<polygon class="st4" points="638.7,29.56 662.35,17.45 685.99,29.56 662.35,41.68 	"/>
	<g>
		<path class="st5" d="M638.7,33.03c6.92-3.54,13.83-7.09,20.75-10.63c0.64-0.33,1.29-0.66,1.93-0.99c0.23-0.12,0.66-0.46,0.92-0.47
			c0.49-0.03,1.4,0.67,1.84,0.9c4.04,2.07,8.08,4.14,12.13,6.21c3.24,1.66,6.48,3.32,9.73,4.98c0-2.31,0-4.62,0-6.93
			c-6.92,3.54-13.83,7.09-20.75,10.63c-0.64,0.33-1.29,0.66-1.93,0.99c-0.23,0.12-0.66,0.46-0.92,0.47c-0.49,0.03-1.4-0.67-1.84-0.9
			c-4.04-2.07-8.08-4.14-12.13-6.21c-3.24-1.66-6.48-3.32-9.73-4.98c0.19,0.1-0.03,3.13-0.03,3.46c0,0.82,0,1.63,0.01,2.45
			C638.68,32.14,638.62,32.98,638.7,33.03c6.92,3.54,13.83,7.09,20.75,10.63c0.64,0.33,1.29,0.66,1.93,0.99
			c0.23,0.12,0.66,0.46,0.92,0.47c0.49,0.03,1.4-0.67,1.84-0.9c4.04-2.07,8.08-4.14,12.13-6.21c3.24-1.66,6.48-3.32,9.73-4.98
			c0.27-0.14,0.03-3.1,0.03-3.46c0-0.82,0-1.63-0.01-2.45c0-0.13,0.06-0.97-0.02-1.01c-6.92-3.54-13.83-7.09-20.75-10.63
			c-0.64-0.33-1.29-0.66-1.93-0.99c-0.23-0.12-0.66-0.46-0.92-0.47c-0.49-0.03-1.4,0.67-1.84,0.9c-4.04,2.07-8.08,4.14-12.13,6.21
			c-3.24,1.66-6.48,3.32-9.73,4.98c-0.27,0.14-0.03,3.1-0.03,3.46c0,0.82,0,1.63,0.01,2.45C638.68,32.13,638.75,33,638.7,33.03z"/>
	</g>
</g>
<g>
	<polygon class="st4" points="655.76,29.56 662.35,26.74 668.94,29.56 662.35,32.39 	"/>
	<g>
		<path class="st6" d="M655.76,31.15c1.93-0.83,3.85-1.65,5.78-2.48c0.21-0.09,0.57-0.34,0.8-0.34c0.15,0,0.38,0.15,0.52,0.21
			c1.13,0.48,2.26,0.97,3.38,1.45c0.9,0.39,1.8,0.77,2.7,1.16c0-1.06,0-2.11,0-3.17c-1.93,0.83-3.85,1.65-5.78,2.48
			c-0.21,0.09-0.57,0.34-0.8,0.34c-0.15,0-0.38-0.15-0.52-0.21c-1.13-0.48-2.26-0.97-3.38-1.45c-0.9-0.39-1.8-0.77-2.7-1.16
			c0.07,0.03-0.02,1.44-0.02,1.58C655.74,29.72,655.63,31.09,655.76,31.15c1.93,0.83,3.85,1.65,5.78,2.48
			c0.21,0.09,0.57,0.34,0.8,0.34c0.15,0,0.38-0.15,0.52-0.21c1.13-0.48,2.26-0.97,3.38-1.45c0.9-0.39,1.8-0.77,2.7-1.16
			c0.1-0.04,0.08-3.13,0-3.17c-1.93-0.83-3.85-1.65-5.78-2.48c-0.21-0.09-0.57-0.34-0.8-0.34c-0.15,0-0.38,0.15-0.52,0.21
			c-1.13,0.48-2.26,0.97-3.38,1.45c-0.9,0.39-1.8,0.77-2.7,1.16c-0.11,0.05-0.02,1.43-0.02,1.58
			C655.74,29.71,655.85,31.11,655.76,31.15z"/>
	</g>
</g>
<g>
	<circle class="st7" cx="43.08" cy="29.14" r="5.74"/>
	<line class="st7" x1="41.39" y1="23.65" x2="41.39" y2="12.09"/>
	<line class="st7" x1="42.42" y1="23.22" x2="42.42" y2="11.66"/>
	<line class="st7" x1="43.53" y1="23.22" x2="43.53" y2="11.66"/>
	<line class="st7" x1="44.64" y1="23.59" x2="44.64" y2="12.03"/>
	<line class="st7" x1="48.49" y1="27.49" x2="60.05" y2="27.49"/>
	<line class="st7" x1="48.92" y1="28.53" x2="60.48" y2="28.53"/>
	<line class="st7" x1="48.92" y1="29.64" x2="60.48" y2="29.64"/>
	<line class="st7" x1="48.55" y1="30.75" x2="60.11" y2="30.75"/>
	<line class="st7" x1="44.62" y1="34.62" x2="44.62" y2="46.18"/>
	<line class="st7" x1="43.59" y1="35.05" x2="43.59" y2="46.61"/>
	<line class="st7" x1="42.48" y1="35.05" x2="42.48" y2="46.61"/>
	<line class="st7" x1="41.37" y1="34.68" x2="41.37" y2="46.24"/>
	<line class="st7" x1="37.64" y1="30.84" x2="26.08" y2="30.84"/>
	<line class="st7" x1="37.21" y1="29.81" x2="25.65" y2="29.81"/>
	<line class="st7" x1="37.21" y1="28.7" x2="25.65" y2="28.7"/>
	<line class="st7" x1="37.58" y1="27.59" x2="26.02" y2="27.59"/>
</g>
</svg>
