<svg id="Layer_1" data-name="Layer 1" xmlns="http://www.w3.org/2000/svg" viewBox="0 0 443 443"><defs><style>.cls-1{fill:#fff;}.cls-2{fill:#231f20;}</style></defs><circle class="cls-1" cx="221.5" cy="221.5" r="209"/><path d="M221.5,25a196.5,196.5,0,0,1,139,335.45A196.5,196.5,0,0,1,82.55,82.55,195.24,195.24,0,0,1,221.5,25m0-25C99.17,0,0,99.17,0,221.5S99.17,443,221.5,443,443,343.83,443,221.5,343.83,0,221.5,0Z"/><path class="cls-2" d="M221,323.05c-12.26,0-20.67-8.42-20.67-21.59V240.53h-56c-13.18,0-21.6-8.05-21.6-20.31,0-12.08,8.42-20.31,21.6-20.31h56V141.54c0-13,8.23-21.59,20.67-21.59,12.26,0,20.68,8.6,20.68,21.59v58.37h56.72c13.36,0,21.78,8.05,21.78,20.31s-8.42,20.31-21.78,20.31H241.72v60.93C241.72,314.63,233.3,323.05,221,323.05Z"/></svg>