<?xml version="1.0" encoding="utf-8"?>
<!-- Generator: Adobe Illustrator 24.1.0, SVG Export Plug-In . SVG Version: 6.00 Build 0)  -->
<svg version="1.1" id="Layer_1" xmlns="http://www.w3.org/2000/svg" xmlns:xlink="http://www.w3.org/1999/xlink" x="0px" y="0px"
	 viewBox="0 0 500 499.88" style="enable-background:new 0 0 500 499.88;" xml:space="preserve">
<style type="text/css">
	.st0{fill:#FDFDFD;}
	.st1{fill:#4672B7;}
	.st2{fill:#FEFEFE;}
	.st3{fill:#010101;}
	.st4{fill:#020202;}
	.st5{fill:#4C4C4C;}
	.st6{fill:#B1B1B1;}
	.st7{fill:#7F7F7F;}
	.st8{fill:#DEDEDE;}
	.st9{fill:#C3C3C3;}
	.st10{fill:#FFFFFF;}
	.st11{fill:#FEC4C6;}
	.st12{fill:#FEE4E5;}
	.st13{fill:#FEDFE0;}
	.st14{fill:#FC474E;}
	.st15{fill:#CBD8D8;}
	.st16{fill:#668787;}
	.st17{fill:#AAB6B6;}
	.st18{fill:#5C6565;}
	.st19{fill:#C5D1D1;}
	.st20{fill:#8C9393;}
	.st21{fill:#CCDDDD;}
	.st22{clip-path:url(#SVGID_2_);}
	.st23{clip-path:url(#SVGID_4_);fill:#F1F1F1;}
	.st24{clip-path:url(#SVGID_4_);fill:none;stroke:#000000;stroke-width:1.9146;stroke-miterlimit:10;}
	.st25{clip-path:url(#SVGID_4_);fill:#FFFFFF;}
	.st26{clip-path:url(#SVGID_4_);fill:none;stroke:#000000;stroke-width:0.4775;stroke-miterlimit:10;}
	.st27{clip-path:url(#SVGID_4_);fill:none;stroke:#000000;stroke-width:1.6736;stroke-miterlimit:10;}
	.st28{clip-path:url(#SVGID_4_);fill:#1D491C;}
	.st29{clip-path:url(#SVGID_4_);fill:none;stroke:#000000;stroke-width:1.9146;stroke-linecap:round;stroke-miterlimit:10;}
	.st30{clip-path:url(#SVGID_4_);fill:#B13634;}
	.st31{clip-path:url(#SVGID_4_);}
	.st32{clip-path:url(#SVGID_4_);fill:#0A258F;}
	.st33{fill:#FF3A3E;}
	.st34{fill:#0077FF;}
	.st35{clip-path:url(#SVGID_6_);}
	.st36{clip-path:url(#SVGID_8_);fill:#F1F1F1;}
	.st37{clip-path:url(#SVGID_8_);fill:none;stroke:#000000;stroke-width:1.9146;stroke-miterlimit:10;}
	.st38{clip-path:url(#SVGID_8_);fill:#FFFFFF;}
	.st39{clip-path:url(#SVGID_8_);fill:none;stroke:#000000;stroke-width:0.4775;stroke-miterlimit:10;}
	.st40{clip-path:url(#SVGID_8_);fill:none;stroke:#000000;stroke-width:1.6736;stroke-miterlimit:10;}
	.st41{clip-path:url(#SVGID_8_);fill:#1D491C;}
	.st42{clip-path:url(#SVGID_8_);fill:none;stroke:#000000;stroke-width:1.9146;stroke-linecap:round;stroke-miterlimit:10;}
	.st43{clip-path:url(#SVGID_8_);fill:#B13634;}
	.st44{clip-path:url(#SVGID_8_);}
	.st45{clip-path:url(#SVGID_8_);fill:#0A258F;}
	.st46{clip-path:url(#SVGID_10_);}
	.st47{clip-path:url(#SVGID_12_);fill:#F1F1F1;}
	.st48{clip-path:url(#SVGID_12_);fill:none;stroke:#000000;stroke-width:1.9146;stroke-miterlimit:10;}
	.st49{clip-path:url(#SVGID_12_);fill:#FFFFFF;}
	.st50{clip-path:url(#SVGID_12_);fill:none;stroke:#000000;stroke-width:0.4775;stroke-miterlimit:10;}
	.st51{clip-path:url(#SVGID_12_);fill:none;stroke:#000000;stroke-width:1.6736;stroke-miterlimit:10;}
	.st52{clip-path:url(#SVGID_12_);fill:#1D491C;}
	.st53{clip-path:url(#SVGID_12_);fill:none;stroke:#000000;stroke-width:1.9146;stroke-linecap:round;stroke-miterlimit:10;}
	.st54{clip-path:url(#SVGID_12_);fill:#B13634;}
	.st55{clip-path:url(#SVGID_12_);}
	.st56{clip-path:url(#SVGID_12_);fill:#0A258F;}
	.st57{clip-path:url(#SVGID_14_);}
	.st58{clip-path:url(#SVGID_16_);fill:#F1F1F1;}
	.st59{clip-path:url(#SVGID_16_);fill:none;stroke:#000000;stroke-width:1.2949;stroke-miterlimit:10;}
	.st60{clip-path:url(#SVGID_16_);fill:#FFFFFF;}
	.st61{clip-path:url(#SVGID_16_);fill:none;stroke:#000000;stroke-width:0.323;stroke-miterlimit:10;}
	.st62{clip-path:url(#SVGID_16_);fill:none;stroke:#000000;stroke-width:1.1319;stroke-miterlimit:10;}
	.st63{clip-path:url(#SVGID_16_);fill:#1D491C;}
	.st64{clip-path:url(#SVGID_16_);fill:none;stroke:#000000;stroke-width:1.2949;stroke-linecap:round;stroke-miterlimit:10;}
	.st65{clip-path:url(#SVGID_16_);fill:#B13634;}
	.st66{clip-path:url(#SVGID_16_);}
	.st67{clip-path:url(#SVGID_16_);fill:#0A258F;}
</style>
<g>
	<path d="M57.87,458.43c2.38-2.88,6.91-8.78,9.32-11.99c1.12-1.37,1.84-2.77,1.84-4c0-1.62-1.22-3.28-3.82-3.28
		c-1.73,0-3.2,1.22-4.03,2.12c-0.29,0.29-0.68,0.29-0.97,0l-1.73-1.73c-0.22-0.22-0.29-0.65-0.04-0.94c0,0,2.81-3.53,7.09-3.53
		c5.15,0,8.03,3.28,8.03,7.16c0,2.34-1.01,3.82-2.41,5.83c-1.55,2.2-4.28,5.58-6.19,7.99h7.78c0.36,0,0.68,0.32,0.68,0.68v2.48
		c0,0.36-0.32,0.68-0.68,0.68H58.55c-0.4,0-0.68-0.32-0.68-0.68V458.43z"/>
	<path d="M77.6,447.7c0-7.88,3.31-12.6,9.07-12.6c5.76,0,9.07,4.72,9.07,12.6s-3.31,12.6-9.07,12.6
		C80.91,460.3,77.6,455.58,77.6,447.7z M91.02,447.7c0-5.33-1.58-8.35-4.36-8.35s-4.36,3.02-4.36,8.35c0,5.36,1.58,8.35,4.36,8.35
		S91.02,453.06,91.02,447.7z"/>
	<path d="M98.87,458.43c2.38-2.88,6.91-8.78,9.32-11.99c1.12-1.37,1.84-2.77,1.84-4c0-1.62-1.22-3.28-3.82-3.28
		c-1.73,0-3.2,1.22-4.03,2.12c-0.29,0.29-0.68,0.29-0.97,0l-1.73-1.73c-0.22-0.22-0.29-0.65-0.04-0.94c0,0,2.81-3.53,7.09-3.53
		c5.15,0,8.03,3.28,8.03,7.16c0,2.34-1.01,3.82-2.41,5.83c-1.55,2.2-4.28,5.58-6.19,7.99h7.78c0.36,0,0.68,0.32,0.68,0.68v2.48
		c0,0.36-0.32,0.68-0.68,0.68H99.56c-0.4,0-0.68-0.32-0.68-0.68V458.43z"/>
	<path d="M118.6,447.7c0-7.88,3.31-12.6,9.07-12.6c5.76,0,9.07,4.72,9.07,12.6s-3.31,12.6-9.07,12.6
		C121.91,460.3,118.6,455.58,118.6,447.7z M132.03,447.7c0-5.33-1.58-8.35-4.36-8.35s-4.36,3.02-4.36,8.35
		c0,5.36,1.58,8.35,4.36,8.35S132.03,453.06,132.03,447.7z"/>
	<path d="M150.17,435.42c0-0.36,0.29-0.68,0.68-0.68h8.46c4.43,0,8.06,3.6,8.06,7.96c0,4.46-3.64,8.1-8.03,8.1h-4.5v8.46
		c0,0.36-0.32,0.68-0.68,0.68h-3.31c-0.4,0-0.68-0.32-0.68-0.68V435.42z M159.03,446.4c2.02,0,3.71-1.62,3.71-3.74
		c0-1.98-1.69-3.49-3.71-3.49h-4.18v7.24H159.03z"/>
	<path d="M169.4,446.22c0-0.4,0.32-0.68,0.68-0.68h1.37c0.32,0,0.54,0.18,0.65,0.47l0.5,1.4c0.5-0.72,1.84-2.23,4.07-2.23
		c1.69,0,3.2,0.54,2.77,1.44l-1.33,2.34c-0.18,0.32-0.54,0.47-0.83,0.32c-0.11-0.04-0.65-0.22-1.04-0.22c-1.44,0-2.3,0.97-2.56,1.48
		v8.71c0,0.5-0.32,0.68-0.83,0.68h-2.77c-0.36,0-0.68-0.32-0.68-0.68V446.22z"/>
	<path d="M187.83,445.18c3.71,0,6.73,2.81,6.73,6.7c0,0.25-0.04,0.72-0.07,0.97c-0.04,0.36-0.36,0.61-0.68,0.61h-9.21
		c0.11,1.48,1.37,3.13,3.46,3.13c1.12,0,2.16-0.43,2.81-0.9c0.36-0.22,0.68-0.29,0.94,0l1.48,1.69c0.25,0.25,0.32,0.65-0.04,0.94
		c-1.19,1.12-3.02,1.98-5.36,1.98c-4.32,0-7.38-3.42-7.38-7.56C180.49,448.67,183.55,445.18,187.83,445.18z M190.35,450.94
		c-0.11-1.33-1.26-2.45-2.63-2.45c-1.44,0-2.63,1.08-2.81,2.45H190.35z"/>
	<path d="M196.79,458.21l0.97-1.94c0.14-0.36,0.5-0.43,0.83-0.25c0,0,1.62,0.86,3.28,0.86c0.72,0,1.22-0.29,1.22-0.9
		c0-0.65-0.5-1.04-2.41-1.8c-2.77-1.08-4.07-2.56-4.07-4.75s1.62-4.25,5.29-4.25c2.12,0,3.67,0.61,4.43,1.12
		c0.32,0.22,0.5,0.61,0.32,0.97l-0.9,1.83c-0.18,0.32-0.58,0.36-0.86,0.25c0,0-1.62-0.76-2.99-0.76c-0.86,0-1.22,0.36-1.22,0.83
		c0,0.65,0.65,0.86,1.98,1.4c2.77,1.08,4.86,2.27,4.86,5.08c0,2.38-2.09,4.39-5.72,4.39c-2.38,0-4.03-0.76-4.79-1.33
		C196.79,458.79,196.65,458.5,196.79,458.21z"/>
	<path d="M210.36,437.94c0-1.37,1.08-2.48,2.45-2.48c1.4,0,2.52,1.12,2.52,2.48s-1.12,2.48-2.52,2.48
		C211.44,440.43,210.36,439.31,210.36,437.94z M210.69,446.22c0-0.4,0.32-0.68,0.68-0.68h2.99c0.36,0,0.68,0.29,0.68,0.68v13.03
		c0,0.36-0.32,0.68-0.68,0.68h-2.99c-0.36,0-0.68-0.32-0.68-0.68V446.22z"/>
	<path d="M225.41,445.18c1.44,0,2.56,0.4,3.2,0.65v-10.4c0-0.36,0.32-0.68,0.68-0.68h3.06c0.36,0,0.68,0.32,0.68,0.68v23.83
		c0,0.36-0.32,0.68-0.68,0.68h-1.4c-0.32,0-0.58-0.29-0.68-0.68l-0.36-1.12c0,0-1.69,2.16-4.72,2.16c-3.92,0-6.91-3.42-6.91-7.56
		C218.28,448.53,221.13,445.18,225.41,445.18z M225.74,456.41c1.91,0,2.77-1.48,3.02-2.34v-4.18c0,0-1.01-0.83-2.81-0.83
		c-2.02,0-3.49,1.66-3.49,3.67S223.83,456.41,225.74,456.41z"/>
	<path d="M243.63,445.18c3.71,0,6.73,2.81,6.73,6.7c0,0.25-0.04,0.72-0.07,0.97c-0.04,0.36-0.36,0.61-0.68,0.61h-9.21
		c0.11,1.48,1.37,3.13,3.46,3.13c1.12,0,2.16-0.43,2.81-0.9c0.36-0.22,0.68-0.29,0.94,0l1.48,1.69c0.25,0.25,0.32,0.65-0.04,0.94
		c-1.19,1.12-3.02,1.98-5.36,1.98c-4.32,0-7.38-3.42-7.38-7.56C236.28,448.67,239.34,445.18,243.63,445.18z M246.15,450.94
		c-0.11-1.33-1.26-2.45-2.63-2.45c-1.44,0-2.63,1.08-2.81,2.45H246.15z"/>
	<path d="M253.38,446.22c0-0.4,0.32-0.68,0.68-0.68h1.37c0.32,0,0.5,0.18,0.61,0.43l0.5,1.33c0.54-0.58,2.3-2.12,5.08-2.12
		c4.57,0,6.41,3.42,6.41,7.16v6.91c0,0.36-0.32,0.68-0.68,0.68h-2.95c-0.4,0-0.68-0.32-0.68-0.68v-7.13c0-1.87-0.97-3.06-2.7-3.06
		c-1.87,0-3.02,1.3-3.38,2.27v7.92c0,0.5-0.22,0.68-0.9,0.68h-2.66c-0.36,0-0.68-0.32-0.68-0.68V446.22z"/>
	<path d="M272.72,449.32h-1.22c-0.36,0-0.65-0.32-0.65-0.68v-2.41c0-0.4,0.29-0.68,0.65-0.68h1.22v-4c0-0.36,0.32-0.68,0.68-0.68
		l2.95-0.04c0.36,0,0.65,0.32,0.65,0.68v4.03h3.17c0.4,0,0.68,0.29,0.68,0.68v2.41c0,0.36-0.29,0.68-0.68,0.68H277v5.76
		c0,1.01,0.54,1.15,1.12,1.15c0.61,0,1.37-0.25,1.76-0.4c0.4-0.14,0.68,0.04,0.79,0.4l0.72,2.27c0.14,0.36-0.04,0.72-0.4,0.86
		c-0.18,0.11-2.52,0.94-4.28,0.94c-2.77,0-4-1.73-4-4.64V449.32z"/>
	<path d="M284.06,437.94c0-1.37,1.08-2.48,2.45-2.48c1.4,0,2.52,1.12,2.52,2.48s-1.12,2.48-2.52,2.48
		C285.14,440.43,284.06,439.31,284.06,437.94z M284.38,446.22c0-0.4,0.32-0.68,0.68-0.68h2.99c0.36,0,0.68,0.29,0.68,0.68v13.03
		c0,0.36-0.32,0.68-0.68,0.68h-2.99c-0.36,0-0.68-0.32-0.68-0.68V446.22z"/>
	<path d="M297.77,450.83c1.44,0,2.63,0.4,2.63,0.4c0.04-1.84-0.54-2.48-1.87-2.48c-1.33,0-3.2,0.29-4.03,0.54
		c-0.5,0.14-0.76-0.18-0.83-0.65l-0.32-1.87c-0.11-0.54,0.18-0.79,0.5-0.9c0.29-0.11,2.59-0.68,4.9-0.68c4.5,0,5.54,2.34,5.54,6.26
		v7.81c0,0.36-0.32,0.68-0.68,0.68h-1.3c-0.25,0-0.43-0.11-0.61-0.5l-0.43-0.97c-0.83,0.76-2.16,1.84-4.39,1.84
		c-2.88,0-4.86-1.87-4.86-4.93C292.01,452.81,294.1,450.83,297.77,450.83z M297.84,457.24c1.15,0,2.27-0.97,2.48-1.4v-1.98
		c0,0-0.97-0.43-2.02-0.43c-1.4,0-2.34,0.79-2.34,1.94C295.97,456.45,296.73,457.24,297.84,457.24z"/>
	<path d="M308.43,435.42c0-0.36,0.32-0.68,0.68-0.68h3.02c0.36,0,0.68,0.32,0.68,0.68v23.83c0,0.36-0.32,0.68-0.68,0.68h-3.02
		c-0.36,0-0.68-0.32-0.68-0.68V435.42z"/>
	<path d="M326.21,435.42c0-0.36,0.29-0.68,0.68-0.68h14.65c0.4,0,0.68,0.32,0.68,0.68v2.95c0,0.36-0.29,0.68-0.68,0.68h-10.66v6.77
		h8.89c0.36,0,0.68,0.32,0.68,0.68v2.95c0,0.36-0.32,0.68-0.68,0.68h-8.89v9.11c0,0.36-0.32,0.68-0.68,0.68h-3.31
		c-0.4,0-0.68-0.32-0.68-0.68V435.42z"/>
	<path d="M350.4,445.18c4.07,0,7.38,3.46,7.38,7.52c0,4.14-3.31,7.6-7.38,7.6s-7.38-3.46-7.38-7.6
		C343.02,448.63,346.33,445.18,350.4,445.18z M350.4,456.41c1.91,0,3.46-1.66,3.46-3.71c0-2.02-1.55-3.64-3.46-3.64
		c-1.94,0-3.46,1.62-3.46,3.64C346.95,454.75,348.46,456.41,350.4,456.41z"/>
	<path d="M360.99,446.22c0-0.4,0.32-0.68,0.68-0.68h1.37c0.32,0,0.54,0.18,0.65,0.47l0.5,1.4c0.5-0.72,1.84-2.23,4.07-2.23
		c1.69,0,3.2,0.54,2.77,1.44l-1.33,2.34c-0.18,0.32-0.54,0.47-0.83,0.32c-0.11-0.04-0.65-0.22-1.04-0.22c-1.44,0-2.3,0.97-2.56,1.48
		v8.71c0,0.5-0.32,0.68-0.83,0.68h-2.77c-0.36,0-0.68-0.32-0.68-0.68V446.22z"/>
	<path d="M379.42,445.18c3.71,0,6.73,2.81,6.73,6.7c0,0.25-0.04,0.72-0.07,0.97c-0.04,0.36-0.36,0.61-0.68,0.61h-9.21
		c0.11,1.48,1.37,3.13,3.46,3.13c1.12,0,2.16-0.43,2.81-0.9c0.36-0.22,0.68-0.29,0.94,0l1.48,1.69c0.25,0.25,0.32,0.65-0.04,0.94
		c-1.19,1.12-3.02,1.98-5.36,1.98c-4.32,0-7.38-3.42-7.38-7.56C372.07,448.67,375.13,445.18,379.42,445.18z M381.94,450.94
		c-0.11-1.33-1.26-2.45-2.63-2.45c-1.44,0-2.63,1.08-2.81,2.45H381.94z"/>
	<path d="M395.73,445.18c2.23,0,3.96,0.9,5.33,2.56c0.25,0.32,0.18,0.76-0.18,1.01l-1.66,1.58c-0.32,0.29-0.65,0.11-0.9-0.11
		c-0.58-0.65-1.48-1.15-2.48-1.15c-1.94,0-3.53,1.66-3.53,3.67c0,2.05,1.55,3.67,3.49,3.67c1.55,0,2.23-0.76,2.88-1.37
		c0.25-0.25,0.61-0.32,0.9-0.11l1.55,1.33c0.36,0.29,0.5,0.65,0.25,1.01c-1.22,1.91-3.13,3.02-5.69,3.02
		c-4.07,0-7.63-3.24-7.63-7.56C388.06,448.49,391.69,445.18,395.73,445.18z"/>
	<path d="M409.23,450.83c1.44,0,2.63,0.4,2.63,0.4c0.04-1.84-0.54-2.48-1.87-2.48s-3.2,0.29-4.03,0.54
		c-0.5,0.14-0.76-0.18-0.83-0.65l-0.32-1.87c-0.11-0.54,0.18-0.79,0.5-0.9c0.29-0.11,2.59-0.68,4.9-0.68c4.5,0,5.54,2.34,5.54,6.26
		v7.81c0,0.36-0.32,0.68-0.68,0.68h-1.3c-0.25,0-0.43-0.11-0.61-0.5l-0.43-0.97c-0.83,0.76-2.16,1.84-4.39,1.84
		c-2.88,0-4.86-1.87-4.86-4.93C403.47,452.81,405.55,450.83,409.23,450.83z M409.3,457.24c1.15,0,2.27-0.97,2.48-1.4v-1.98
		c0,0-0.97-0.43-2.02-0.43c-1.4,0-2.34,0.79-2.34,1.94C407.43,456.45,408.18,457.24,409.3,457.24z"/>
	<path d="M419.09,458.21l0.97-1.94c0.14-0.36,0.5-0.43,0.83-0.25c0,0,1.62,0.86,3.28,0.86c0.72,0,1.22-0.29,1.22-0.9
		c0-0.65-0.5-1.04-2.41-1.8c-2.77-1.08-4.07-2.56-4.07-4.75s1.62-4.25,5.29-4.25c2.12,0,3.67,0.61,4.43,1.12
		c0.32,0.22,0.5,0.61,0.32,0.97l-0.9,1.83c-0.18,0.32-0.58,0.36-0.86,0.25c0,0-1.62-0.76-2.99-0.76c-0.86,0-1.22,0.36-1.22,0.83
		c0,0.65,0.65,0.86,1.98,1.4c2.77,1.08,4.86,2.27,4.86,5.08c0,2.38-2.09,4.39-5.72,4.39c-2.38,0-4.03-0.76-4.79-1.33
		C419.09,458.79,418.95,458.5,419.09,458.21z"/>
	<path d="M433.74,449.32h-1.22c-0.36,0-0.65-0.32-0.65-0.68v-2.41c0-0.4,0.29-0.68,0.65-0.68h1.22v-4c0-0.36,0.32-0.68,0.68-0.68
		l2.95-0.04c0.36,0,0.65,0.32,0.65,0.68v4.03h3.17c0.4,0,0.68,0.29,0.68,0.68v2.41c0,0.36-0.29,0.68-0.68,0.68h-3.17v5.76
		c0,1.01,0.54,1.15,1.12,1.15c0.61,0,1.37-0.25,1.76-0.4c0.4-0.14,0.68,0.04,0.79,0.4l0.72,2.27c0.14,0.36-0.04,0.72-0.4,0.86
		c-0.18,0.11-2.52,0.94-4.28,0.94c-2.77,0-4-1.73-4-4.64V449.32z"/>
</g>
<g>
	<path class="st0" d="M362.03,249.85c-0.33,0.35-0.65,0.72-0.99,1.06c-2.72,2.73-5.45,5.46-8.18,8.18c-0.19,0.19-0.4,0.35-0.6,0.53
		c0-3.1,0.01-6.2-0.01-9.29c0-0.4,0.08-0.49,0.48-0.48C355.83,249.86,358.93,249.85,362.03,249.85z"/>
	<path d="M409.42,262.52c0.87,0.34,1.8,0.15,2.69,0.22c1.97,0.14,3.9,0.44,5.82,0.9c3.06,0.73,5.97,1.85,8.65,3.52
		c0.7,0.44,1.39,0.89,2.09,1.34c0.62,0.65,1.3,1.26,1.97,1.84c1.23,1.04,2.18,2.29,3.03,3.61c0.44,0.68,0.73,1.48,0.95,2.26
		c0.52,1.84,0.93,3.71,1.42,5.56c0.09,0.34-0.1,0.74,0.24,1.02c0.1,0.23-0.06,0.5,0.11,0.72l0.01,0.01
		c0.15,0.23-0.04,0.51,0.13,0.74c0.24,1.36,0.48,2.72,0.73,4.08c0.18,0.22-0.03,0.51,0.15,0.73c0.01,0.05,0.03,0.1,0.04,0.14
		c0.1,0.23-0.06,0.5,0.11,0.72l0.01,0.01c0.15,0.23-0.04,0.51,0.13,0.74c0.01,0.05,0.03,0.1,0.04,0.14c0.1,0.23-0.06,0.5,0.11,0.72
		l0.01,0.01c0.15,0.23-0.04,0.51,0.13,0.74c0.01,0.05,0.03,0.1,0.04,0.14c0.1,0.23-0.06,0.5,0.11,0.72l0.01,0.01
		c0.15,0.23-0.04,0.51,0.13,0.74c0.01,0.05,0.03,0.1,0.04,0.14c0.09,0.23-0.05,0.5,0.11,0.73c0.13,1.47,0.36,2.94,0.48,4.41
		c0.09,1.1,0.16,2.19,0.24,3.29c0.14,1.9,0.3,3.8,0.33,5.71c0.04,2.09,0.16,4.2-0.4,6.24c-0.3,1.09-1.03,1.39-2.18,1.05
		c-0.33,0.51,0.18,0.89,0.24,1.33c0.31,2.15,0.01,4.23-0.77,6.21c-0.37,0.95-0.99,1.79-1.18,2.84c-0.27,1.44-0.31,2.9-0.43,4.35
		c-0.02,0.19-0.14,0.37-0.06,0.6c0.07,0.24-0.27,0.73,0.4,0.41c0.2-0.1,0.39,0.16,0.53,0.32c1.75,2.06,3.97,3.53,6.22,4.94
		c1.45,0.91,3.05,1.49,4.66,2.04c1.78,0.6,3.61,0.97,5.45,1.25c1.21,0.19,2.43,0.36,3.66,0.52c-0.35,0.97-0.94,1.15-1.91,0.98
		c-2.16-0.37-4.36-0.55-6.46-1.2c-1.59-0.49-3.2-0.95-4.67-1.75c-0.64-0.35-1.27-0.71-1.89-1.08c-0.98-0.58-1.92-1.19-2.8-1.91
		c-0.62-0.51-1.19-1.12-1.97-1.5c0.06,0.81,0.38,1.53,0.51,2.3c0.21,1.27,0.02,2.46-0.34,3.62c-0.76,2.44-1.23,4.95-1.89,7.42
		c-0.45,1.69-0.87,3.38-1.36,5.06c-0.63,2.2-1.15,4.42-1.57,6.67c-0.07,0.37-0.24,0.69-0.68,0.79c-0.24,0.05-0.54,0.21-0.68,0.05
		c-0.14-0.17-0.08-0.56-0.02-0.74c0.41-1.13,0.5-2.33,0.83-3.48c0.06-0.2,0.1-0.4-0.22-0.38c-0.47,0.02-0.69-0.28-0.93-0.63
		c-0.74-1.09-1.77-1.91-2.68-2.84c-0.26-0.27-0.42-0.14-0.63,0.1c-0.93,1.11-1.9,2.19-2.83,3.3c-0.16,0.19-0.31,0.35-0.49,0.51
		c-0.46,0.42-0.56,0.88-0.2,1.46c0.49,0.82,0.94,1.66,1.33,2.53c0.29,0.63,0.93,1.03,1.06,1.78c-0.41-0.03-0.75,0.3-1.17,0.17
		c-0.42-0.11-0.61-0.45-0.8-0.79c-0.62-1.07-1.18-2.17-1.7-3.28c-0.19-0.4-0.43-0.53-0.84-0.52c-1.15,0.01-2.26,0.24-3.34,0.59
		c-0.27,0.09-0.44,0.27-0.59,0.51c-0.9,1.4-1.91,2.74-2.31,4.41c-0.04,0.17-0.16,0.29-0.31,0.39c-0.41,0-0.82,0-1.28,0
		c0.52-1.58,0.93-3.18,2.07-4.47c0.31-0.35,0.74-0.69-0.01-1.32c-0.85-0.72-1.59-1.65-2.32-2.54c-0.36-0.44-0.74-0.86-1.13-1.31
		c-1.15,1.14-1.91,2.52-2.72,3.88c-0.63,1.05-1.24,2.11-1.56,3.3c-0.02,0.07-0.07,0.15-0.12,0.17c-0.68,0.26-0.51,0.65-0.2,1.1
		c0.18,0.26,0.5,0.67,0.18,0.87c-0.27,0.16-0.76,0-1.1-0.21c-0.18-0.11-0.36-0.28-0.44-0.47c-0.84-1.86-1.95-3.56-2.99-5.3
		c-0.82-1.38-1.72-2.72-2.52-4.11c-0.83-1.43-1.44-2.97-2.01-4.53c-0.36-0.99-0.62-1.99-0.93-2.99c-0.37-1.21-0.55-2.45-0.76-3.69
		c-0.09-0.54-0.25-1.06-0.24-1.63c0.01-0.5,0.21-0.69,0.68-0.72c0.53-0.03,0.52,0.42,0.55,0.7c0.07,0.85,0.24,1.67,0.39,2.5
		c0.43,2.37,1.12,4.65,2.06,6.88c1,2.39,2.33,4.58,3.72,6.75c0.87,1.37,1.67,2.78,2.55,4.25c0.76-1.95,1.78-3.74,2.94-5.45
		c1.17-1.72,2.46-3.35,3.97-4.76c-2.99-1.51-5.19-4.06-7.76-6.12c-1.54-1.23-3.14-2.36-4.73-3.51c-1.19-0.85-2.26-1.81-3.16-2.96
		c-0.26-0.33-0.36-0.75-0.52-1.11c-0.36-0.82-0.43-1.75-0.66-2.63c-0.29-1.09-0.51-2.22-0.96-3.25c-0.81-1.85-1.34-3.76-1.67-5.75
		c-0.23-1.41-0.52-2.82-1.14-4.13c-0.31-0.64-0.45-0.63-0.86-0.06c-0.3,0.42-0.58,0.88-0.95,1.23c-1.35,1.28-2.49,0.81-3.28-0.6
		c-0.57-1-0.83-2.14-1.21-3.23c-0.8-2.28-1.45-4.6-2.23-6.88c-0.8-2.32-1.42-4.69-1.88-7.11c-0.26-1.4-0.61-2.8-1-4.16
		c-0.33-1.13-0.71-2.26-0.97-3.39c-0.37-1.61-0.32-3.29-0.31-4.94c0.01-2.03,0.2-4.03,0.64-6.01c0.58-2.56,1.49-4.99,2.75-7.3
		c0.77-1.41,1.68-2.73,2.67-3.97c1.1-1.36,2.35-2.58,3.68-3.73c1.12-0.96,2.32-1.8,3.54-2.6c0.79-0.52,1.66-0.94,2.5-1.39
		c1.4-0.75,2.85-1.36,4.36-1.84c1.65-0.52,3.32-0.91,5.04-1.19c1.43-0.23,2.86-0.3,4.3-0.33
		C409.16,262.67,409.29,262.58,409.42,262.52z"/>
	<path class="st1" d="M414.08,362.77c0.48-1.44,1.2-2.75,1.93-4.09c0.95-1.74,2.45-1.67,3.93-1.97c0.21-0.04,0.44,0.02,0.65-0.02
		c0.58-0.11,0.8,0.11,1.06,0.68c0.67,1.42,1.29,2.88,2.31,4.1c-0.97,0.35-1.99,0.41-2.99,0.61
		C418.71,362.53,416.39,362.64,414.08,362.77z"/>
	<path d="M379.66,350.87c-0.37-0.08-0.6-0.41-0.88-0.63c-0.23-0.18,0.13-0.31,0.26-0.37c1.28-0.6,2.56-1.2,3.86-1.76
		c1.44-0.62,2.82-1.43,4.35-1.79c2.35-0.56,3.19-2.59,4.42-4.25c0.85-1.14,1.57-2.38,2.49-3.46c0.49-0.58,0.93-1.24,1.58-1.7
		c0.34-0.25,0.6-0.32,0.92-0.03c0.34,0.31,0.18,0.64-0.02,0.9c-0.43,0.53-0.93,1-1.37,1.52c-1.43,1.71-2.76,3.51-3.92,5.4
		c-0.91,1.48-2.2,2.3-3.8,2.8c-1.56,0.48-3.02,1.2-4.49,1.91c-1.04,0.5-2.14,0.9-3.17,1.43
		C379.83,350.86,379.75,350.85,379.66,350.87z"/>
	<path class="st0" d="M438.43,294.75c-0.24-0.21-0.08-0.49-0.11-0.73C438.51,294.24,438.41,294.5,438.43,294.75z"/>
	<path class="st0" d="M438.29,293.87c-0.25-0.21-0.05-0.5-0.13-0.74C438.38,293.35,438.26,293.63,438.29,293.87z"/>
	<path class="st0" d="M437.99,292.27c-0.25-0.21-0.05-0.5-0.13-0.74C438.09,291.75,437.96,292.02,437.99,292.27z"/>
	<path class="st0" d="M437.85,291.53c-0.26-0.2-0.07-0.48-0.11-0.72C437.93,291.03,437.82,291.29,437.85,291.53z"/>
	<path class="st0" d="M437.7,290.67c-0.25-0.21-0.05-0.5-0.13-0.74C437.8,290.14,437.67,290.42,437.7,290.67z"/>
	<path class="st0" d="M437.56,289.93c-0.26-0.2-0.07-0.48-0.11-0.72C437.64,289.43,437.53,289.69,437.56,289.93z"/>
	<path class="st0" d="M437.41,289.06c-0.26-0.2-0.04-0.5-0.15-0.73C437.52,288.53,437.38,288.82,437.41,289.06z"/>
	<path class="st0" d="M436.54,284.25c-0.25-0.21-0.05-0.5-0.13-0.74C436.63,283.73,436.51,284.01,436.54,284.25z"/>
	<path class="st0" d="M436.4,283.51c-0.26-0.2-0.07-0.48-0.11-0.72C436.47,283.01,436.36,283.27,436.4,283.51z"/>
	<path class="st0" d="M438.15,293.13c-0.26-0.2-0.07-0.48-0.11-0.72C438.22,292.63,438.11,292.89,438.15,293.13z"/>
	<path class="st2" d="M386.05,313.27c0.26,0.28,0.51,0.57,0.78,0.85c0.29,0.3,0.6,0.59,1.02,0.19c0.4-0.38,0.18-0.76-0.11-1.04
		c-0.51-0.52-0.96-1.08-1.26-1.74c-0.44-1-0.56-2.03,0.1-2.71c0.43-0.43,1.08-0.35,1.57-0.66c0.13-0.03,0.2,0.05,0.27,0.15
		c0.14,0.25,0.09,0.51,0.09,0.78c-0.05,2.41,0.18,4.78,0.97,7.08c0.03,0.09,0.07,0.18,0.11,0.27c0.1,0.28,0.21,0.6,0.59,0.5
		c0.41-0.11,0.26-0.44,0.2-0.72c-0.17-0.75-0.43-1.48-0.59-2.24c-0.45-2.08-0.53-4.17-0.32-6.28c0.01-0.1,0.02-0.19,0.03-0.29
		c0.01-0.29,0.07-0.65-0.3-0.72c-0.4-0.08-0.44,0.28-0.51,0.56c-0.04,0.17-0.07,0.33-0.19,0.46c-0.06,0.06-0.13,0.06-0.2,0.01
		c-0.16-0.44-0.43-0.63-0.93-0.52c-1.29,0.29-2.08,0.71-2.51,2.76c-0.39-1.18-0.79-2.27-1.1-3.38c-0.3-1.07-0.51-2.17-0.73-3.26
		c-0.06-0.29-0.06-0.43,0.41-0.34c1.8,0.35,3.31,1.18,4.62,2.44c0.22,0.21,0.42,0.45,0.78,0.47c0.28,0.02,0.46-0.08,0.6-0.3
		c0.14-0.23,0.06-0.41-0.1-0.58c-1.33-1.55-3.04-2.5-4.97-3.07c-0.48-0.14-0.97-0.37-1.5-0.31c-0.14,0.01-0.24-0.08-0.27-0.27
		c-0.22-1.05-0.59-2.07-0.72-3.15c1.32-0.06,2.59,0.2,3.86,0.51c0.37,0.09,0.91,0.43,1.08-0.1c0.18-0.58-0.47-0.61-0.86-0.73
		c-0.96-0.28-1.94-0.4-2.93-0.53c-0.46-0.06-0.92-0.05-1.29,0.3c-0.45-0.76-0.56-1.61-0.7-2.45c0.08-0.13,0.19-0.23,0.35-0.25
		c0.78-0.01,1.55-0.18,2.3-0.36c0.84-0.2,1.74,0.04,2.56-0.43c0.31-0.18,0.14,0.32,0.31,0.43c0.11,1.41,0.54,2.76,0.9,4.12
		c0.46,1.74,1.06,3.44,1.58,5.16c0.12,0.39,0.4,0.51,0.69,0.42c0.31-0.1,0.59-0.35,0.46-0.77c-0.37-1.18-0.74-2.36-1.11-3.54
		c-0.56-1.78-0.99-3.59-1.36-5.42c-0.51-2.49-0.64-5.02-0.79-7.54c-0.09-1.41-0.31-2.79-0.43-4.19c-0.1-1.12,0.33-2,1.11-2.7
		c1.16-1.05,2.53-1.75,3.97-2.34c2.45-0.99,5.07-1.26,7.61-1.84c2.05-0.47,4.11-0.91,6.17-1.34c1.77-0.37,3.55-0.69,5.32-1.05
		c2.3-0.47,4.6-0.97,6.9-1.46c1.55-0.33,3.11-0.68,4.66-1c0.53-0.11,1.02-0.4,1.58-0.4c0.83,0.01,1.59,0.3,2.19,0.84
		c1.17,1.04,2.16,2.21,2.85,3.65c1.47,3.1,1.91,6.38,1.95,9.77c0.03,2.34,0.26,4.69,0.59,7.02c0.24,1.68,0.45,3.36,0.65,5.04
		c0.05,0.44,0.24,0.8,0.68,0.76c0.51-0.04,0.62-0.51,0.56-0.93c-0.15-1.09-0.34-2.18-0.52-3.27c-0.03-0.14,0.05-0.19,0.16-0.21
		c0.63,0.19,1.17-0.1,1.7-0.37c0.69-0.34,1.37-0.71,2.09-1c0.25,0.94,0.38,1.9,0.52,2.86c0.04,0.26-0.14,0.27-0.33,0.36
		c-1.57,0.69-2.94,1.6-3.65,3.26c-0.26,0.62-0.42,1.26-0.49,1.92c-0.04,0.37,0.14,0.74,0.51,0.77c0.33,0.03,0.62-0.11,0.7-0.61
		c0.27-1.84,0.9-3.22,3.47-4.19c0.36,2.6,0.47,5.2,0.65,7.8c0.19,2.64,0.32,5.26,0.17,7.9c-0.04,0.64-0.06,1.29-0.33,1.92
		c-0.22,0.52-0.37,0.49-0.78,0.23c-0.4-0.25-0.76-0.55-1.22-0.71c-0.45-0.15-0.73,0.04-0.94,0.31c-0.19,0.25-0.23,0.61-0.03,0.92
		c1.85,2.95,1.26,5.85-0.19,8.72c-0.62,1.23-0.86,2.54-0.96,3.9c-0.12,1.69-0.18,3.39-0.5,5.06c-0.2,1.06-0.61,2.08-1.21,2.97
		c-1.8,2.67-3.58,5.37-5.62,7.86c-1.18,1.44-2.43,2.83-4.09,3.75c-1.8,0.99-3.74,1.61-5.8,1.74c-1.81,0.11-3.58-0.1-5.03-1.3
		c-1.59-1.3-3.13-2.67-4.67-4.03c-1.85-1.63-3.93-2.96-5.87-4.48c-0.69-0.54-1.42-1.04-2.04-1.66c-0.83-0.84-1.22-1.92-1.45-3.04
		c-0.42-2.07-1.01-4.06-1.87-6c-0.63-1.41-0.84-2.95-1.12-4.47c-0.27-1.46-0.51-2.94-1.22-4.28c-0.7-1.31-1.83-1.4-2.73-0.22
		c-0.29,0.38-0.57,0.77-0.89,1.12c-0.61,0.65-0.98,0.57-1.42-0.21c-0.47-0.84-0.81-1.74-1.07-2.65c-0.41-1.44-0.92-2.85-1.33-4.29
		C385.93,313.2,385.99,313.2,386.05,313.27z"/>
	<path class="st2" d="M389.74,277.11c0.33-0.49,0.2-0.81-0.32-1.06c-1.04-0.51-2.13-0.81-3.39-0.78c0.71-1,1.47-1.84,2.35-2.65
		c0.07,0.55,0.47,0.71,0.91,0.81c1.6,0.35,3.09,1.02,4.54,1.75c0.39,0.2,0.67,0.1,0.84-0.18c0.16-0.26,0.18-0.61-0.2-0.81
		c-0.55-0.28-1.07-0.63-1.65-0.85c-1.28-0.49-2.55-1.04-4.1-1.26c1.08-0.76,1.88-1.6,2.83-2.29c1.31-0.96,2.67-1.83,4.11-2.57
		c0.9-0.46,1.77-1.04,2.81-1.17c-0.39,0.95-0.39,1.03,0.68,1.29c2.33,0.58,4.01,1.99,5.27,3.96c0.17,0.27,0.34,0.63,0.72,0.42
		c0.45-0.24,0.16-0.61,0-0.88c-1.29-2.04-3.02-3.52-5.37-4.21c-0.46-0.14-0.96-0.18-1.31-0.57c0.98-0.68,2.15-0.9,3.26-1.22
		c2.03-0.58,4.13-0.86,6.22-0.98c1.82-0.1,3.66-0.04,5.48,0.2c2.01,0.26,4.01,0.6,5.95,1.22c0.14,0.3-0.04,0.46-0.27,0.57
		c-1.33,0.61-2.34,1.6-3.21,2.74c-0.24,0.31-0.75,0.72-0.24,1.1c0.49,0.36,0.69-0.23,0.91-0.54c0.77-1.09,1.72-1.95,2.93-2.52
		c0.42-0.2,0.46-0.45,0.2-0.79c-0.12-0.16-0.35-0.29-0.2-0.56c0.94,0.34,1.87,0.69,2.81,1.02c0.17,0.06,0.31,0.1,0.37,0.28
		c-0.78,0.63-1.62,1.19-2.24,2.01c-0.37,0.49-0.48,0.93-0.04,1.41c0.03,0.07,0.02,0.13-0.01,0.19c-0.91,0.38-1.89,0.45-2.83,0.67
		c-1.8,0.43-3.63,0.75-5.44,1.13c-2.06,0.43-4.12,0.86-6.18,1.3c-2.1,0.45-4.2,0.92-6.31,1.36c-1.44,0.3-2.89,0.56-4.34,0.83
		c-1.8,0.34-3.54,0.84-5.18,1.66c-0.1,0.05-0.23,0.05-0.35,0.07c-0.04-0.03-0.05-0.06-0.03-0.08
		C389.71,277.13,389.72,277.11,389.74,277.11z"/>
	<path class="st2" d="M434.32,333.44c0.98,1.85,1.26,3.71,0.66,5.69c-0.47,1.56-0.89,3.14-1.24,4.74c-0.57,2.6-1.27,5.16-2.03,7.71
		c-0.25,0.86-0.45,1.73-0.69,2.7c-2.01-2.9-4.59-4.93-7.76-6.38c2.64-1.79,4.53-4.17,6.22-6.71
		C431.17,338.69,433.24,336.41,434.32,333.44z"/>
	<path class="st1" d="M420.88,355.51c-1.47,0.09-2.79,0.18-4.03,0.74c-0.45,0.2-0.84,0.25-1.21-0.18c-1-1.17-2.01-2.33-3.05-3.46
		c-0.4-0.43-0.41-0.73,0.04-1.12c0.53-0.45,1.01-0.96,1.52-1.43c0.14-0.12,0.28-0.18,0.51-0.16c1.71,0.17,3.38-0.03,5.03-0.56
		c0.67-0.22,1.36-0.39,2-0.7c0.14-0.07,0.4-0.02,0.55,0.07c1.03,0.56,2.11,1,3.08,1.67c0.32,0.23,0.26,0.28,0.06,0.51
		c-1.29,1.5-2.57,3.01-3.86,4.52C421.3,355.68,420.99,355.41,420.88,355.51z"/>
	<path class="st2" d="M389.29,277.4c-0.28,0.57-0.92,0.66-1.38,0.94c-2.09,1.29-3.02,3.06-2.6,5.48c0.08,0.48,0.01,0.46-0.41,0.35
		c-1.04-0.28-2.09-0.13-3.13,0.07c0.07-1.73,2.47-6.85,3.85-8.36c0.21,0.46,0.53,0.65,1.06,0.65c0.88,0,1.71,0.29,2.48,0.74
		C389.21,277.3,389.26,277.34,389.29,277.4z"/>
	<path class="st2" d="M380.84,294.3c0.05-1.19-0.15-2.37-0.04-3.56c0.03-0.29,0.03-0.34,0.31-0.37c1.48-0.15,2.92-0.5,4.43-0.47
		c0.45,0.01,0.38,0.14,0.39,0.39c0.02,0.97,0.12,1.92,0.35,2.86c0.13,0.48,0.01,0.59-0.53,0.54c-1.48-0.15-2.93,0.12-4.35,0.54
		C381.21,294.28,381.04,294.4,380.84,294.3z"/>
	<path class="st2" d="M432.62,292.83c-0.14-1.28-0.3-2.56-0.43-3.84c-0.04-0.38-0.08-0.82,0.55-0.76c0.27,0.03,0.5-0.17,0.6-0.34
		c0.47-0.74,1.34-0.99,1.88-1.63c0.16-0.19,0.36-0.3,0.44,0.14c0.32,1.65,0.68,3.29,0.87,4.96c-1.29,0.14-2.31,0.94-3.48,1.41
		c-0.09,0.04-0.17,0.09-0.26,0.12C432.72,292.91,432.66,292.89,432.62,292.83z"/>
	<path class="st2" d="M420.35,270.22c0-0.03,0-0.06,0-0.08c0.58-0.66,1.05-1.42,1.74-1.98c0.44-0.36,0.89-0.73,1.18-1.24
		c0.43-0.08,0.7,0.24,1.04,0.4c1.94,0.93,3.7,2.1,5.22,3.62c0.33,0.33,0.72,0.61,1.08,0.92c-0.43,0.52-1.1,0.52-1.53,0.91
		c-0.24,0.22-0.27-0.04-0.36-0.14c-0.58-0.62-1.12-1.29-1.76-1.85c-1.47-1.3-3.15-1.52-4.99-0.87
		C421.45,270.07,420.92,270.27,420.35,270.22z"/>
	<path class="st2" d="M380.83,289.32c0.1-1.16,0.23-2.25,0.44-3.33c0.04-0.23,0.12-0.44,0.36-0.49c1.03-0.21,2.06-0.44,3.12-0.13
		c0.14,0.04,0.27,0.11,0.41,0.04c0.35-0.15,0.46,0.11,0.45,0.34c-0.05,0.9,0.17,1.77,0.16,2.66c0,0.43-0.12,0.34-0.38,0.33
		C383.86,288.68,382.36,288.83,380.83,289.32z"/>
	<path class="st2" d="M433.89,277.97c0.05,0.22-0.12,0.29-0.23,0.42c-0.49,0.58-1.22,0.82-1.8,1.28c-0.37,0.3-0.37-0.22-0.41-0.35
		c-0.17-0.54-0.26-1.1-0.4-1.65c-0.31-1.23-0.82-2.39-1.37-3.52c-0.13-0.27-0.11-0.34,0.15-0.54c0.39-0.3,0.91-0.28,1.27-0.65
		c0.21-0.22,0.4,0.05,0.53,0.2c0.74,0.89,1.31,1.88,1.68,2.98C433.52,276.74,433.7,277.36,433.89,277.97z"/>
	<path class="st0" d="M432.17,287.32c-0.28-0.96-0.09-1.85-0.22-2.72c-0.04-0.3,0.52-0.49,0.86-0.63c0.63-0.27,1.26-0.53,1.82-0.92
		c0.23-0.16,0.36-0.09,0.41,0.14c0.11,0.54,0.2,1.08,0.3,1.61c0.02,0.1,0.03,0.17-0.09,0.22
		C434.02,285.47,433.14,286.36,432.17,287.32z"/>
	<path class="st3" d="M419.47,265.3c0.6,0.95,0.61,0.95-0.48,1.74c-1.02,0.75-2,1.54-2.59,2.7c-0.21,0.4-0.63,0.4-0.93,0.22
		c-0.28-0.17-0.38-0.49-0.13-0.86c0.63-0.93,1.24-1.86,2.21-2.49c0.51-0.33,0.95-0.79,1.57-0.96c0.16-0.04,0.33-0.13,0.23-0.36
		C419.39,265.3,419.43,265.3,419.47,265.3z"/>
	<path class="st4" d="M380.84,294.3c1.71-0.9,3.53-0.88,5.4-0.78c0-0.04,0.02-0.21,0.03-0.37c0.15,0.47,0.27,0.95,0.25,1.46
		c-0.21-0.08-0.05-0.32-0.22-0.44c-0.24,0.47-0.64,0.45-1.12,0.47c-1.12,0.05-2.25,0.14-3.33,0.49c-0.2,0.07-0.37-0.05-0.56-0.06
		c-0.38,0.06-0.31-0.3-0.45-0.47C380.84,294.49,380.84,294.4,380.84,294.3z"/>
	<path class="st3" d="M381.71,297.65c0.1-0.75,0.75-0.55,1.12-0.51c1.24,0.13,2.48,0.35,3.69,0.69c0.39,0.11,0.62,0.44,0.56,0.83
		c-0.06,0.4-0.39,0.46-0.78,0.37c-0.87-0.2-1.73-0.41-2.61-0.55c-0.61-0.1-1.25,0-1.83-0.27
		C381.88,298.01,381.8,297.83,381.71,297.65z"/>
	<path class="st0" d="M434.21,279.58c0.33,0.52,0.25,1.06,0.42,1.56c0.15,0.43,0.21,0.81-0.5,0.9c-0.48,0.06-0.94,0.43-1.39,0.68
		c-0.67,0.37-0.85,0.3-0.88-0.45c-0.01-0.21-0.05-0.42-0.08-0.63c-0.05-0.34-0.01-0.63,0.45-0.83
		C432.93,280.5,433.54,280,434.21,279.58z"/>
	<path class="st4" d="M423.27,266.92c-0.02,0.34-0.11,0.56-0.43,0.81c-0.64,0.51-1.35,0.99-1.73,1.78
		c-0.15,0.31-0.47,0.46-0.76,0.63c-0.58-0.35-0.69-0.83-0.28-1.35c0.7-0.91,1.41-1.82,2.58-2.19
		C422.89,266.63,423.12,266.7,423.27,266.92z"/>
	<path class="st4" d="M432.74,292.84c0.28-0.46,0.83-0.44,1.23-0.68c0.61-0.36,1.3-0.58,1.92-0.92c0.3-0.17,0.42,0.11,0.64,0.13
		c0.11,0.2,0.19,0.41,0.14,0.65c-0.28,0.54-0.89,0.57-1.35,0.8c-0.49,0.26-0.99,0.53-1.52,0.74c-0.4,0.16-0.65,0.19-0.94-0.09
		C432.75,293.27,432.69,293.07,432.74,292.84z"/>
	<path class="st5" d="M432.74,292.84c0.09,0.2,0.19,0.4,0.13,0.63c-0.05,0.04-0.1,0.08-0.15,0.12c-0.25-0.22-0.05-0.51-0.1-0.76
		C432.66,292.84,432.7,292.84,432.74,292.84z"/>
	<path class="st6" d="M386.05,313.27c-0.07-0.01-0.13-0.02-0.2-0.02c-0.17-0.16-0.26-0.34-0.14-0.57
		C385.9,312.83,385.98,313.05,386.05,313.27z"/>
	<path class="st7" d="M380.84,294.59c0.15,0.16,0.3,0.31,0.45,0.47c-0.09,0.05-0.19,0.1-0.28,0.14
		C380.87,295.02,380.81,294.82,380.84,294.59z"/>
	<path class="st8" d="M389.29,277.4c-0.05-0.04-0.09-0.08-0.14-0.12c0.24,0.09,0.37-0.17,0.59-0.16c0.02,0.04,0.02,0.08,0,0.13
		C389.65,277.48,389.43,277.34,389.29,277.4z"/>
	<path class="st9" d="M388.29,307.71c0.03-0.02,0.07-0.02,0.1,0c0.21,0.24,0.24,0.46-0.08,0.63c-0.05-0.06-0.1-0.12-0.16-0.17
		C388.2,308.01,388.24,307.86,388.29,307.71z"/>
	<path d="M405.77,322.05c2.34,2.14,4.98,3.19,8.01,2.98c2.08-0.15,4-0.85,5.81-1.96c0.78-0.48,1.5-1.02,2.24-1.53
		c0.25-0.17,0.48-0.41,0.79-0.03c0.29,0.37,0.31,0.72-0.03,1.02c-0.41,0.36-0.84,0.71-1.31,1c-2.68,1.69-5.51,2.89-8.78,2.7
		c-3.01-0.18-5.63-1.26-7.72-3.47c-0.47-0.5-0.41-1.44,0.42-1.73c0.96-0.33,1.93-0.33,2.9-0.27c2.22,0.12,4.45,0.17,6.67,0.08
		c1.7-0.07,3.4-0.27,5.07-0.61c1.27-0.26,2.55-0.52,3.77-0.96c0.46-0.17,0.9-0.18,1.04,0.38c0.13,0.5-0.27,0.68-0.67,0.8
		c-2.6,0.78-5.25,1.28-7.94,1.53c-1.74,0.16-3.5,0.14-5.26,0.11C409.15,322.02,407.52,321.83,405.77,322.05z"/>
	<path d="M404.33,301.07c1.95-0.01,3.31,0.86,4.49,2.11c0.34,0.36,0.28,0.78-0.11,1.07c-0.37,0.28-0.61-0.02-0.81-0.31
		c-0.4-0.56-0.73-0.6-1.32-0.12c-1.44,1.17-3.11,1.83-5.02,1.66c-0.88-0.08-1.74-0.27-2.49-0.76c-0.33-0.21-0.5-0.21-0.6,0.2
		c-0.05,0.2-0.23,0.38-0.25,0.58c-0.05,0.48-0.45,0.54-0.72,0.47c-0.36-0.09-0.6-0.45-0.44-0.86c0.44-1.1,1.02-2.07,2.1-2.7
		C400.81,301.47,402.61,301.16,404.33,301.07z"/>
	<path d="M428.53,301.22c0.02,0.31-0.16,0.43-0.33,0.49c-0.18,0.06-0.37,0.29-0.59,0.07c-0.07-0.07-0.15-0.12-0.21-0.2
		c-0.43-0.64-0.73-0.63-1.46-0.17c-2.37,1.49-4.92,1.67-7.45,0.3c-0.4-0.22-0.72-0.34-1.03,0.09c-0.2,0.29-0.42,0.26-0.68,0.08
		c-0.3-0.2-0.33-0.47-0.24-0.78c0.05-0.2,0.2-0.32,0.35-0.45c1.69-1.43,3.6-2.42,5.84-2.48c2.22-0.06,4.13,0.74,5.54,2.53
		C428.39,300.87,428.46,301.09,428.53,301.22z"/>
	<path d="M414.52,317.03c-1.4,0.02-2.27-0.46-3.19-0.75c-0.64-0.2-1.24-0.32-1.95-0.15c-1.1,0.26-1.92-0.41-2.59-1.19
		c-0.45-0.52-0.33-1.8,0.08-2.52c0.23-0.41,0.55-0.4,0.85-0.29c0.31,0.12,0.36,0.42,0.23,0.74c-0.05,0.11-0.06,0.23-0.11,0.34
		c-0.37,0.96,0.31,1.85,1.32,1.66c1.37-0.25,2.6,0.2,3.81,0.7c1.41,0.59,2.65,0.15,3.7-0.67c0.93-0.73,1.85-1.44,2.94-1.89
		c0.35-0.15,0.29-0.27,0.22-0.52c-0.19-0.62-0.73-1.01-1.03-1.55c-0.22-0.39-0.23-0.72,0.12-0.92c0.31-0.19,0.64-0.16,0.91,0.24
		c0.46,0.67,0.94,1.32,1.3,2.05c0.4,0.82,0,1.5-1.28,1.97c-0.88,0.32-1.55,0.88-2.25,1.47
		C416.62,316.58,415.42,316.98,414.52,317.03z"/>
	<path d="M415.11,340.26c-2.38-0.05-4.16-0.27-5.91-0.75c-0.42-0.12-0.59-0.31-0.5-0.69c0.09-0.39,0.34-0.59,0.8-0.47
		c1.61,0.42,3.25,0.68,4.93,0.71c2.65,0.04,5.19-0.5,7.62-1.49c0.9-0.37,1.81-0.79,2.62-1.38c0.29-0.21,0.72-0.49,1.07-0.07
		c0.18,0.21,0.3,0.53,0,0.78c-0.29,0.24-0.59,0.49-0.92,0.67c-1.77,0.94-3.59,1.75-5.55,2.18
		C417.71,340.07,416.14,340.31,415.11,340.26z"/>
	<path class="st3" d="M424.47,295.41c0.83-0.12,1.82-0.06,2.78,0.22c1.1,0.31,1.97,1.01,2.77,1.8c0.27,0.27,0.21,0.63-0.01,0.84
		c-0.19,0.18-0.5,0.4-0.81,0.04c-1.47-1.72-3.42-1.84-5.47-1.65c-1.89,0.18-3.76,0.49-5.6,1.01c-0.38,0.11-0.59-0.17-0.71-0.54
		c-0.14-0.44,0.18-0.57,0.45-0.64c1-0.27,2.01-0.56,3.03-0.71C422.04,295.62,423.16,295.42,424.47,295.41z"/>
	<path class="st3" d="M405.14,299.72c-1.92-0.05-3.74,0.36-5.49,1.16c-1.05,0.48-1.98,1.11-2.92,1.77c-0.27,0.19-0.6,0.57-0.99,0.13
		c-0.26-0.29-0.4-0.57,0-0.89c1.52-1.21,3.16-2.16,5.03-2.75c1.61-0.5,3.26-0.69,4.93-0.73c0.35-0.01,0.7,0.1,1.05,0.12
		c0.44,0.03,0.53,0.31,0.47,0.65c-0.06,0.34-0.2,0.61-0.66,0.55C406.09,299.67,405.61,299.72,405.14,299.72z"/>
	<path class="st3" d="M388.31,308.34c0.23-0.18,0.1-0.41,0.08-0.63c0.16-0.25-0.01-0.55,0.15-0.82c0.18-0.31,0.33-0.61,0.74-0.47
		c0.34,0.12,0.5,0.36,0.43,0.78c-0.22,1.45-0.23,2.91-0.12,4.36c0.12,1.64,0.51,3.24,1.01,4.8c0.13,0.41,0.07,0.69-0.26,0.8
		c-0.35,0.12-0.71,0.11-0.88-0.43c-0.85-2.6-1.3-5.24-1.09-7.98C388.39,308.61,388.33,308.48,388.31,308.34z"/>
	<path class="st3" d="M434.48,305.84c0.13,2.13,0.19,3.67,0.07,5.21c-0.03,0.35-0.15,0.54-0.45,0.56c-0.29,0.02-0.6,0.03-0.7-0.41
		c-0.13-0.59,0.02-1.17,0.02-1.75c0.01-2.42-0.24-4.82-0.57-7.21c-0.05-0.39,0.09-0.64,0.37-0.69c0.29-0.05,0.62-0.05,0.74,0.45
		C434.29,303.47,434.38,304.95,434.48,305.84z"/>
	<path class="st3" d="M437.69,305.31c0.01,1.25-0.51,2.37-0.84,3.54c-0.12,0.43-0.46,0.37-0.76,0.32c-0.36-0.06-0.38-0.29-0.35-0.64
		c0.07-0.76,0.39-1.44,0.57-2.16c0.33-1.33,0.1-2.53-0.62-3.67c-0.09-0.14-0.14-0.31-0.18-0.47c-0.06-0.3-0.25-0.61,0.24-0.8
		c0.42-0.17,0.62-0.03,0.82,0.29C437.25,302.82,437.68,304,437.69,305.31z"/>
	<path class="st3" d="M411.63,305.51c-0.17,1.92-1.17,3.49-2.37,4.96c-0.29,0.35-0.66,0.17-0.9-0.02c-0.36-0.27-0.09-0.61,0.08-0.86
		c0.44-0.63,0.95-1.2,1.29-1.92c0.37-0.8,0.66-1.61,0.72-2.48c0.03-0.45,0.06-0.9,0.58-0.94c0.66-0.06,0.56,0.55,0.66,0.95
		C411.72,305.28,411.66,305.38,411.63,305.51z"/>
	<path class="st3" d="M392.38,269.93c1.85,0.25,3.62,0.58,5.37,1c1.44,0.34,2.86,0.73,4.27,1.19c0.46,0.15,0.7,0.42,0.6,0.78
		c-0.11,0.37-0.49,0.55-0.94,0.4c-2.73-0.92-5.53-1.57-8.38-2.02c-0.35-0.05-0.7-0.08-1.04-0.16c-0.38-0.09-0.52-0.31-0.48-0.74
		C391.82,269.89,392.21,270.04,392.38,269.93z"/>
	<path class="st3" d="M398.44,266.07c1.98,0.47,3.82,1.23,5.27,2.71c0.67,0.68,1.29,1.4,1.73,2.27c0.21,0.41,0.18,0.69-0.19,0.89
		c-0.38,0.2-0.69,0.04-0.9-0.33c-0.8-1.41-1.86-2.56-3.32-3.34c-0.72-0.39-1.48-0.62-2.24-0.84c-0.38-0.11-0.72-0.19-0.83-0.66
		c-0.11-0.47,0.43-0.42,0.5-0.73C398.47,266.05,398.44,266.07,398.44,266.07z"/>
	<path class="st3" d="M406.4,268.64c-0.06-1.41,0.29-2.72,0.93-3.96c0.24-0.46,0.61-0.69,1.02-0.46c0.38,0.21,0.26,0.64,0.06,1.02
		c-0.87,1.67-1.09,3.4-0.41,5.2c0.08,0.22,0.18,0.48,0.14,0.68c-0.06,0.28-0.36,0.36-0.63,0.42c-0.28,0.06-0.37-0.13-0.48-0.33
		C406.58,270.42,406.49,269.53,406.4,268.64z"/>
	<path class="st3" d="M410.35,270.45c0.08-2.2,0.79-4.03,1.85-5.75c0.26-0.41,0.66-0.37,0.94-0.21c0.29,0.17,0.39,0.47,0.11,0.89
		c-0.99,1.49-1.6,3.14-1.69,4.94c-0.02,0.48-0.13,0.89-0.64,0.91C410.33,271.24,410.38,270.7,410.35,270.45z"/>
	<path class="st0" d="M406.25,302.58c-2.74,2.17-4.92,2.02-6.65,1C401.68,302.43,403.8,301.96,406.25,302.58z"/>
	<path class="st0" d="M425.77,300.11c-1.29,0.89-2.63,1.36-4.15,1.28c-0.78-0.04-1.5-0.27-2.21-0.55c-0.12-0.05-0.3-0.14-0.25-0.3
		c0.02-0.09,0.16-0.17,0.26-0.22c1.82-0.92,3.71-1.21,5.7-0.57C425.35,299.83,425.51,299.96,425.77,300.11z"/>
</g>
<g>
	<path class="st10" d="M456.98,140.03c0.02-0.14,0.13-0.27,0.32-0.27h0.29c0.14,0,0.25,0.07,0.31,0.18l3.96,8.5
		c0.04,0,0.04,0,0.05,0l3.96-8.5c0.05-0.11,0.14-0.18,0.31-0.18h0.29c0.2,0,0.31,0.13,0.32,0.27l2.12,12.1
		c0.05,0.25-0.09,0.41-0.32,0.41h-1.64c-0.16,0-0.31-0.14-0.34-0.27l-1.06-6.82c-0.02,0-0.05,0-0.05,0l-3.15,7.08
		c-0.04,0.11-0.14,0.2-0.31,0.2h-0.32c-0.16,0-0.25-0.09-0.31-0.2l-3.19-7.08c0,0-0.04,0-0.05,0l-1.04,6.82
		c-0.02,0.13-0.16,0.27-0.32,0.27h-1.62c-0.23,0-0.38-0.16-0.34-0.41L456.98,140.03z"/>
	<path class="st10" d="M471.38,140.28c0-0.18,0.16-0.34,0.34-0.34h1.67c0.18,0,0.34,0.16,0.34,0.34v11.92
		c0,0.18-0.16,0.34-0.34,0.34h-1.67c-0.18,0-0.34-0.16-0.34-0.34V140.28z"/>
</g>
<g>
	<path d="M19.96,123.26c4.4-5.33,12.8-16.27,17.27-22.2c2.07-2.53,3.4-5.13,3.4-7.4c0-3-2.27-6.07-7.07-6.07
		c-3.2,0-5.93,2.27-7.47,3.93c-0.53,0.53-1.27,0.53-1.8,0l-3.2-3.2c-0.4-0.4-0.53-1.2-0.07-1.73c0,0,5.2-6.54,13.14-6.54
		c9.54,0,14.87,6.07,14.87,13.27c0,4.33-1.87,7.07-4.47,10.8c-2.87,4.07-7.93,10.34-11.47,14.8h14.4c0.67,0,1.27,0.6,1.27,1.27v4.6
		c0,0.67-0.6,1.27-1.27,1.27H21.23c-0.73,0-1.27-0.6-1.27-1.27V123.26z"/>
	<path d="M56.5,103.38c0-14.6,6.13-23.34,16.8-23.34s16.8,8.74,16.8,23.34c0,14.6-6.13,23.34-16.8,23.34S56.5,117.99,56.5,103.38z
		 M81.37,103.38c0-9.87-2.93-15.47-8.07-15.47s-8.07,5.6-8.07,15.47c0,9.94,2.93,15.47,8.07,15.47S81.37,113.32,81.37,103.38z"/>
	<path d="M95.92,123.26c4.4-5.33,12.8-16.27,17.27-22.2c2.07-2.53,3.4-5.13,3.4-7.4c0-3-2.27-6.07-7.07-6.07
		c-3.2,0-5.93,2.27-7.47,3.93c-0.53,0.53-1.27,0.53-1.8,0l-3.2-3.2c-0.4-0.4-0.53-1.2-0.07-1.73c0,0,5.2-6.54,13.14-6.54
		c9.54,0,14.87,6.07,14.87,13.27c0,4.33-1.87,7.07-4.47,10.8c-2.87,4.07-7.93,10.34-11.47,14.8h14.4c0.67,0,1.27,0.6,1.27,1.27v4.6
		c0,0.67-0.6,1.27-1.27,1.27H97.18c-0.73,0-1.27-0.6-1.27-1.27V123.26z"/>
	<path d="M132.46,103.38c0-14.6,6.13-23.34,16.8-23.34s16.8,8.74,16.8,23.34c0,14.6-6.13,23.34-16.8,23.34
		S132.46,117.99,132.46,103.38z M157.33,103.38c0-9.87-2.93-15.47-8.07-15.47s-8.07,5.6-8.07,15.47c0,9.94,2.93,15.47,8.07,15.47
		S157.33,113.32,157.33,103.38z"/>
	<path d="M23.96,160.67c0-0.67,0.53-1.27,1.27-1.27H40.9c8.2,0,14.94,6.67,14.94,14.74c0,8.27-6.73,15-14.87,15h-8.33v15.67
		c0,0.67-0.6,1.27-1.27,1.27h-6.13c-0.73,0-1.27-0.6-1.27-1.27V160.67z M40.36,181.01c3.73,0,6.87-3,6.87-6.93
		c0-3.67-3.13-6.47-6.87-6.47h-7.74v13.4H40.36z"/>
	<path d="M59.57,180.68c0-0.73,0.6-1.27,1.27-1.27h2.53c0.6,0,1,0.33,1.2,0.87l0.93,2.6c0.93-1.33,3.4-4.13,7.54-4.13
		c3.13,0,5.93,1,5.13,2.67l-2.47,4.33c-0.33,0.6-1,0.87-1.53,0.6c-0.2-0.07-1.2-0.4-1.93-0.4c-2.67,0-4.27,1.8-4.73,2.73v16.14
		c0,0.93-0.6,1.27-1.53,1.27h-5.13c-0.67,0-1.27-0.6-1.27-1.27V180.68z"/>
	<path d="M93.71,178.74c6.87,0,12.47,5.2,12.47,12.4c0,0.47-0.07,1.33-0.13,1.8c-0.07,0.67-0.67,1.13-1.27,1.13H87.71
		c0.2,2.73,2.53,5.8,6.4,5.8c2.07,0,4-0.8,5.2-1.67c0.67-0.4,1.27-0.53,1.73,0l2.73,3.13c0.47,0.47,0.6,1.2-0.07,1.73
		c-2.2,2.07-5.6,3.67-9.94,3.67c-8,0-13.67-6.33-13.67-14C80.11,185.21,85.78,178.74,93.71,178.74z M98.38,189.41
		c-0.2-2.47-2.33-4.53-4.87-4.53c-2.67,0-4.87,2-5.2,4.53H98.38z"/>
	<path d="M110.32,202.88l1.8-3.6c0.27-0.67,0.93-0.8,1.53-0.47c0,0,3,1.6,6.07,1.6c1.33,0,2.27-0.53,2.27-1.67
		c0-1.2-0.93-1.93-4.47-3.33c-5.13-2-7.54-4.73-7.54-8.8s3-7.87,9.8-7.87c3.93,0,6.8,1.13,8.2,2.07c0.6,0.4,0.93,1.13,0.6,1.8
		l-1.67,3.4c-0.33,0.6-1.07,0.67-1.6,0.47c0,0-3-1.4-5.53-1.4c-1.6,0-2.27,0.67-2.27,1.53c0,1.2,1.2,1.6,3.67,2.6
		c5.13,2,9,4.2,9,9.4c0,4.4-3.87,8.14-10.6,8.14c-4.4,0-7.47-1.4-8.87-2.47C110.32,203.95,110.05,203.42,110.32,202.88z"/>
	<path d="M135.46,165.34c0-2.53,2-4.6,4.53-4.6c2.6,0,4.67,2.07,4.67,4.6s-2.07,4.6-4.67,4.6
		C137.46,169.94,135.46,167.87,135.46,165.34z M136.06,180.68c0-0.73,0.6-1.27,1.27-1.27h5.54c0.67,0,1.27,0.53,1.27,1.27v24.14
		c0,0.67-0.6,1.27-1.27,1.27h-5.54c-0.67,0-1.27-0.6-1.27-1.27V180.68z"/>
	<path d="M163.34,178.74c2.67,0,4.73,0.73,5.93,1.2v-19.27c0-0.67,0.6-1.27,1.27-1.27h5.67c0.67,0,1.27,0.6,1.27,1.27v44.14
		c0,0.67-0.6,1.27-1.27,1.27h-2.6c-0.6,0-1.07-0.53-1.27-1.27l-0.67-2.07c0,0-3.13,4-8.74,4c-7.27,0-12.8-6.33-12.8-14
		C150.13,184.94,155.4,178.74,163.34,178.74z M163.94,199.55c3.53,0,5.13-2.73,5.6-4.33v-7.73c0,0-1.87-1.53-5.2-1.53
		c-3.73,0-6.47,3.07-6.47,6.8S160.4,199.55,163.94,199.55z"/>
	<path d="M197.08,178.74c6.87,0,12.47,5.2,12.47,12.4c0,0.47-0.07,1.33-0.13,1.8c-0.07,0.67-0.67,1.13-1.27,1.13h-17.07
		c0.2,2.73,2.53,5.8,6.4,5.8c2.07,0,4-0.8,5.2-1.67c0.67-0.4,1.27-0.53,1.73,0l2.73,3.13c0.47,0.47,0.6,1.2-0.07,1.73
		c-2.2,2.07-5.6,3.67-9.94,3.67c-8,0-13.67-6.33-13.67-14C183.48,185.21,189.14,178.74,197.08,178.74z M201.75,189.41
		c-0.2-2.47-2.33-4.53-4.87-4.53c-2.67,0-4.87,2-5.2,4.53H201.75z"/>
	<path d="M215.15,180.68c0-0.73,0.6-1.27,1.27-1.27h2.53c0.6,0,0.93,0.33,1.13,0.8l0.93,2.47c1-1.07,4.27-3.93,9.4-3.93
		c8.47,0,11.87,6.33,11.87,13.27v12.8c0,0.67-0.6,1.27-1.27,1.27h-5.47c-0.73,0-1.27-0.6-1.27-1.27v-13.2c0-3.47-1.8-5.67-5-5.67
		c-3.47,0-5.6,2.4-6.27,4.2v14.67c0,0.93-0.4,1.27-1.67,1.27h-4.93c-0.67,0-1.27-0.6-1.27-1.27V180.68z"/>
	<path d="M250.96,186.41h-2.27c-0.67,0-1.2-0.6-1.2-1.27v-4.47c0-0.73,0.53-1.27,1.2-1.27h2.27v-7.4c0-0.67,0.6-1.27,1.27-1.27
		l5.47-0.07c0.67,0,1.2,0.6,1.2,1.27v7.47h5.87c0.73,0,1.27,0.53,1.27,1.27v4.47c0,0.67-0.53,1.27-1.27,1.27h-5.87v10.67
		c0,1.87,1,2.13,2.07,2.13c1.13,0,2.53-0.47,3.27-0.73s1.27,0.07,1.47,0.73l1.33,4.2c0.27,0.67-0.07,1.33-0.73,1.6
		c-0.33,0.2-4.67,1.73-7.93,1.73c-5.13,0-7.4-3.2-7.4-8.6V186.41z"/>
	<path d="M271.97,165.34c0-2.53,2-4.6,4.53-4.6c2.6,0,4.67,2.07,4.67,4.6s-2.07,4.6-4.67,4.6
		C273.97,169.94,271.97,167.87,271.97,165.34z M272.57,180.68c0-0.73,0.6-1.27,1.27-1.27h5.54c0.67,0,1.27,0.53,1.27,1.27v24.14
		c0,0.67-0.6,1.27-1.27,1.27h-5.54c-0.67,0-1.27-0.6-1.27-1.27V180.68z"/>
	<path d="M297.38,189.21c2.67,0,4.87,0.73,4.87,0.73c0.07-3.4-1-4.6-3.47-4.6c-2.47,0-5.93,0.53-7.47,1
		c-0.93,0.27-1.4-0.33-1.53-1.2l-0.6-3.47c-0.2-1,0.33-1.47,0.93-1.67c0.53-0.2,4.8-1.27,9.07-1.27c8.33,0,10.27,4.33,10.27,11.6
		v14.47c0,0.67-0.6,1.27-1.27,1.27h-2.4c-0.47,0-0.8-0.2-1.13-0.93l-0.8-1.8c-1.53,1.4-4,3.4-8.13,3.4c-5.33,0-9-3.47-9-9.14
		C286.71,192.88,290.58,189.21,297.38,189.21z M297.51,201.08c2.13,0,4.2-1.8,4.6-2.6v-3.67c0,0-1.8-0.8-3.73-0.8
		c-2.6,0-4.33,1.47-4.33,3.6C294.04,199.61,295.44,201.08,297.51,201.08z"/>
	<path d="M317.12,160.67c0-0.67,0.6-1.27,1.27-1.27h5.6c0.67,0,1.27,0.6,1.27,1.27v44.14c0,0.67-0.6,1.27-1.27,1.27h-5.6
		c-0.67,0-1.27-0.6-1.27-1.27V160.67z"/>
	<path d="M23.96,240.7c0-0.67,0.53-1.27,1.27-1.27h27.14c0.73,0,1.27,0.6,1.27,1.27v5.47c0,0.67-0.53,1.27-1.27,1.27H32.63v10.94
		H49.1c0.67,0,1.27,0.6,1.27,1.27v5.54c0,0.73-0.6,1.27-1.27,1.27H32.63v11.67h19.74c0.73,0,1.27,0.6,1.27,1.27v5.47
		c0,0.67-0.53,1.27-1.27,1.27H25.23c-0.73,0-1.27-0.6-1.27-1.27V240.7z"/>
	<path d="M60.17,240.7c0-0.67,0.6-1.27,1.27-1.27h5.6c0.67,0,1.27,0.6,1.27,1.27v44.14c0,0.67-0.6,1.27-1.27,1.27h-5.6
		c-0.67,0-1.27-0.6-1.27-1.27V240.7z"/>
	<path d="M87.91,258.77c6.87,0,12.47,5.2,12.47,12.4c0,0.47-0.07,1.33-0.13,1.8c-0.07,0.67-0.67,1.13-1.27,1.13H81.91
		c0.2,2.73,2.53,5.8,6.4,5.8c2.07,0,4-0.8,5.2-1.67c0.67-0.4,1.27-0.53,1.73,0l2.73,3.13c0.47,0.47,0.6,1.2-0.07,1.73
		c-2.2,2.07-5.6,3.67-9.94,3.67c-8,0-13.67-6.33-13.67-14C74.31,265.24,79.98,258.77,87.91,258.77z M92.58,269.44
		c-0.2-2.47-2.33-4.53-4.87-4.53c-2.67,0-4.87,2-5.2,4.53H92.58z"/>
	<path d="M118.12,258.77c4.13,0,7.33,1.67,9.87,4.73c0.47,0.6,0.33,1.4-0.33,1.87l-3.07,2.93c-0.6,0.53-1.2,0.2-1.67-0.2
		c-1.07-1.2-2.73-2.13-4.6-2.13c-3.6,0-6.54,3.07-6.54,6.8c0,3.8,2.87,6.8,6.47,6.8c2.87,0,4.13-1.4,5.33-2.53
		c0.47-0.47,1.13-0.6,1.67-0.2l2.87,2.47c0.67,0.53,0.93,1.2,0.47,1.87c-2.27,3.53-5.8,5.6-10.54,5.6c-7.54,0-14.14-6-14.14-14
		C103.92,264.9,110.65,258.77,118.12,258.77z"/>
	<path d="M135.79,266.44h-2.27c-0.67,0-1.2-0.6-1.2-1.27v-4.47c0-0.73,0.53-1.27,1.2-1.27h2.27v-7.4c0-0.67,0.6-1.27,1.27-1.27
		l5.47-0.07c0.67,0,1.2,0.6,1.2,1.27v7.47h5.87c0.73,0,1.27,0.53,1.27,1.27v4.47c0,0.67-0.53,1.27-1.27,1.27h-5.87v10.67
		c0,1.87,1,2.13,2.07,2.13c1.13,0,2.53-0.47,3.27-0.73s1.27,0.07,1.47,0.73l1.33,4.2c0.27,0.67-0.07,1.33-0.73,1.6
		c-0.33,0.2-4.67,1.73-7.93,1.73c-5.13,0-7.4-3.2-7.4-8.6V266.44z"/>
	<path d="M156.8,245.37c0-2.53,2-4.6,4.53-4.6c2.6,0,4.67,2.07,4.67,4.6s-2.07,4.6-4.67,4.6C158.8,249.97,156.8,247.9,156.8,245.37z
		 M157.4,260.7c0-0.73,0.6-1.27,1.27-1.27h5.54c0.67,0,1.27,0.53,1.27,1.27v24.14c0,0.67-0.6,1.27-1.27,1.27h-5.54
		c-0.67,0-1.27-0.6-1.27-1.27V260.7z"/>
	<path d="M185.07,258.77c7.54,0,13.67,6.4,13.67,13.94c0,7.67-6.13,14.07-13.67,14.07s-13.67-6.4-13.67-14.07
		C171.4,265.17,177.54,258.77,185.07,258.77z M185.07,279.57c3.53,0,6.4-3.07,6.4-6.87c0-3.73-2.87-6.73-6.4-6.73
		c-3.6,0-6.4,3-6.4,6.73C178.67,276.51,181.47,279.57,185.07,279.57z"/>
	<path d="M204.68,260.7c0-0.73,0.6-1.27,1.27-1.27h2.53c0.6,0,0.93,0.33,1.13,0.8l0.93,2.47c1-1.07,4.27-3.93,9.4-3.93
		c8.47,0,11.87,6.33,11.87,13.27v12.8c0,0.67-0.6,1.27-1.27,1.27h-5.47c-0.73,0-1.27-0.6-1.27-1.27v-13.2c0-3.47-1.8-5.67-5-5.67
		c-3.47,0-5.6,2.4-6.27,4.2v14.67c0,0.93-0.4,1.27-1.67,1.27h-4.93c-0.67,0-1.27-0.6-1.27-1.27V260.7z"/>
</g>
<g>
	<path class="st2" d="M297.36,340.02c-16.61,2.16-33.21,4.32-49.82,6.48c-4.47-34.42-8.95-68.84-13.42-103.27
		c34.06-4.43,68.13-8.85,102.21-13.28c4.47,34.42,8.95,68.84,13.42,103.27c-16.22,2.11-32.45,4.22-48.68,6.33
		c-0.03-0.04-0.03-0.08,0-0.12c0.24-0.24,0.56-0.2,0.86-0.25c0.19-0.03,0.38-0.05,0.57-0.07c0.29-0.04,0.56-0.16,0.85-0.19
		c0.24-0.02,0.3-0.16,0.23-0.37c-0.34-1.13-0.41-2.3-0.58-3.45c-0.03-0.19-0.02-0.38-0.03-0.57c-0.04-1.03,0.41-1.83,1.16-2.5
		c0.43-0.38,0.82-0.8,1.16-1.26c0.23-0.32,0.47-0.63,0.72-0.93c0.22-0.26,0.32-0.26,0.54,0c0.45,0.52,0.86,1.07,1.26,1.63
		c1.13,1.57,2.34,3.07,3.69,4.46c0.4,0.41,0.41,0.42,0.95,0.18c0.7-0.3,0.58-0.28,0.17-0.69c-1.88-1.87-3.37-4.06-5-6.14
		c-1.02-1.3-2.21-2.45-3.47-3.52c-0.94-0.8-1.96-1.49-2.98-2.18c-0.34-0.23-0.35-0.35-0.02-0.6c0.79-0.6,1.57-1.21,2.29-1.89
		c1.2-1.12,2.31-2.33,3.36-3.58c1.46-1.74,2.86-3.53,4.29-5.3c0.09-0.11,0.17-0.25,0.33-0.22c0.19,0.04,0.17,0.23,0.2,0.37
		c0.31,1.54,0.64,3.08,0.96,4.62c0.28,1.35,0.58,2.7,0.87,4.06c0.24,1.13,0.5,2.25,0.76,3.38c0.33,1.42,0.66,2.84,0.99,4.26
		c0.4,1.69,0.81,3.38,1.22,5.07c0.1,0.41,0.15,0.43,0.54,0.22c0.56-0.3,0.55-0.29,0.4-0.92c-0.47-1.97-0.95-3.95-1.42-5.92
		c-0.4-1.69-0.79-3.39-1.17-5.08c-0.3-1.34-0.57-2.68-0.86-4.02c-0.29-1.38-0.59-2.75-0.89-4.13c-0.16-0.74-0.27-1.5-0.46-2.24
		c-0.04-0.18-0.1-0.34-0.25-0.46c-0.21-0.16-0.18-0.33-0.05-0.53c0.48-0.74,0.5-0.73,1.22-0.23c1.71,1.19,3.53,2.15,5.48,2.89
		c2.46,0.94,5.02,1.36,7.63,1.52c3.04,0.19,6.04,0.63,8.98,1.42c0.45,0.12,0.98-0.25,1.03-0.72c0.02-0.21-0.16-0.21-0.28-0.24
		c-0.8-0.2-1.61-0.38-2.41-0.56c-2.61-0.59-5.27-0.8-7.93-1.01c-3.72-0.29-7.22-1.3-10.43-3.22c-0.61-0.36-1.21-0.74-1.79-1.17
		c-0.25-0.18-0.28-0.36-0.12-0.61c0.22-0.34,0.43-0.69,0.64-1.04c1.13-1.89,1.82-3.96,2.43-6.07c0.38-1.32,0.68-2.66,0.88-4.02
		c0.16-1.05,0.18-2.1,0.04-3.15c-0.13-0.99-0.26-1.99-0.46-2.97c-0.06-0.29,0.01-0.52,0.26-0.7c1.28-0.92,1.77-2.24,1.91-3.74
		c0.24-2.49,0.33-4.99,0.41-7.49c0.05-1.36,0.15-2.72,0.58-4.02c0.48-1.45,0.28-2.88-0.02-4.32c-0.46-2.19-1.06-4.34-1.62-6.5
		c-0.29-1.12-0.47-2.26-0.63-3.41c-0.13-0.98-0.45-1.93-0.7-2.88c-0.17-0.64-0.39-1.26-0.45-1.93c-0.06-0.65,0.08-0.94,0.69-1.2
		c0.59-0.26,1.2-0.49,1.77-0.81c1.54-0.87,2.1-2.35,1.52-4.03c-0.48-1.4-1.39-2.5-2.39-3.54c-1.32-1.37-2.83-2.51-4.38-3.59
		c-2.05-1.43-4.26-2.58-6.57-3.52c-3.63-1.48-7.4-2.35-11.3-2.72c-1.91-0.18-3.83-0.22-5.75-0.17c-1.93,0.06-3.86,0.25-5.75,0.6
		c-3.38,0.62-6.71,1.44-9.91,2.71c-3.41,1.35-6.52,3.21-9.16,5.78c-2.6,2.54-4.55,5.52-5.93,8.87c-1.47,3.6-2.27,7.35-2.55,11.21
		c-0.15,2.03-0.12,4.06-0.03,6.09c0.11,2.38,0.46,4.73,0.8,7.07c0.22,1.53,0.68,3.03,1.38,4.42c1.02,2.04,1.73,4.2,2.48,6.35
		c0.54,1.55,1.06,3.11,1.88,4.53c0.65,1.14,1.52,2.1,2.71,2.72c1.12,0.59,2.08,0.42,2.94-0.48c0.11-0.12,0.21-0.35,0.42-0.25
		c0.18,0.08,0.16,0.31,0.16,0.48c0.02,0.85,0.08,1.7,0.18,2.54c0.21,1.74,0.71,3.4,1.43,5c0.05,0.1,0.1,0.2,0.13,0.32
		c0.03,0.12-0.02,0.22-0.15,0.19c-0.59-0.1-0.77,0.31-0.93,0.75c-0.69,1.94-1.6,3.79-2.51,5.63c-1.25,2.51-3.21,4.25-5.65,5.53
		c-3,1.57-6.1,2.9-9.26,4.12c-0.6,0.23-0.58,0.23-0.18,0.73c0.22,0.27,0.43,0.32,0.76,0.18c2.42-0.97,4.84-1.94,7.18-3.07
		c1.58-0.76,3.14-1.57,4.53-2.66c1.64-1.28,2.83-2.9,3.76-4.73c0.34-0.67,0.68-1.34,1.01-2.01c0.07-0.13,0.12-0.28,0.25-0.37
		c0.14-0.01,0.16,0.1,0.2,0.19c0.08,0.53,0.02,1.06,0.03,1.6c0.04,1.64,0.24,3.27,0.58,4.87c0.6,2.86,1.71,5.55,2.81,8.25
		c1.58,3.9,3.37,7.7,5.22,11.48c0.46,0.95,0.95,1.88,1.42,2.83c0.12,0.25,0.3,0.4,0.58,0.44c0.29,0.04,0.57,0.12,0.84,0.18
		c0.06-0.08,0.02-0.14-0.01-0.19c-1.42-2.8-2.84-5.6-4.15-8.45c-1.8-3.9-3.52-7.83-4.91-11.9c-0.71-2.08-1.14-4.22-1.31-6.4
		c-0.14-1.83-0.03-3.65,0.29-5.46c0.02-0.14-0.01-0.36,0.17-0.38c0.19-0.03,0.26,0.17,0.35,0.31c0.89,1.47,1.91,2.85,3,4.17
		c2.27,2.73,5.05,4.84,8.2,6.47c2.3,1.2,4.51,2.55,6.65,4.01c1.36,0.93,2.78,1.78,4.33,2.38c0.02,0.01,0.05,0.02,0.07,0.03
		c0.5,0.22,0.52,0.27,0.19,0.7c-0.73,0.96-1.47,1.92-2.21,2.87c-1.64,2.1-3.2,4.27-4.74,6.44c-1.23,1.74-2.42,3.51-3.6,5.29
		c-0.04,0.06-0.08,0.13-0.12,0.19c-0.14,0.2-0.11,0.32,0.15,0.34c0.05,0-0.01,0,0.04,0.01c0.96,0.18,0.96,0.18,1.5-0.63
		c1.35-2.03,2.71-4.05,4.16-6.01c0.08-0.11,0.15-0.24,0.22-0.35c0.25-0.38,0.37-0.4,0.73-0.14c0.32,0.23,0.63,0.48,0.95,0.7
		c0.71,0.49,1.54,0.71,2.32,1.05c0.55,0.24,1,0.6,1.32,1.11c0.35,0.54,0.42,1.11,0.12,1.7c-0.19,0.38-0.41,0.73-0.67,1.06
		c-0.4,0.51-0.64,1.1-0.84,1.7c-0.13,0.38-0.11,0.39,0.31,0.38c0.29-0.01,0.58-0.07,0.87-0.1c0.39,0.02,0.78-0.04,1.17-0.09
		c0.2-0.02,0.4-0.06,0.59,0.06C297.36,339.94,297.37,339.98,297.36,340.02z"/>
	<path class="st11" d="M300.68,339.59c-0.98,0.13-1.97,0.26-2.95,0.38c-0.03-0.05-0.02-0.09,0.02-0.13c0.14-0.1,0.31-0.11,0.47-0.13
		c0.66-0.09,1.33-0.18,1.99-0.26c0.14-0.02,0.28-0.04,0.41,0.02C300.68,339.5,300.7,339.54,300.68,339.59z"/>
	<path class="st12" d="M297.72,339.9c0,0.02,0.01,0.05,0.01,0.07c-0.13,0.02-0.25,0.03-0.38,0.05c0-0.03-0.01-0.05-0.01-0.08
		C297.46,339.82,297.59,339.8,297.72,339.9z"/>
	<path class="st13" d="M300.68,339.59c0-0.02-0.01-0.05-0.01-0.07c0.11-0.13,0.23-0.14,0.37-0.06c0,0.03,0.01,0.05,0.01,0.08
		C300.93,339.56,300.81,339.57,300.68,339.59z"/>
	<path d="M295.53,340.03c-0.45,0.09-0.9,0.08-1.38,0.09c0.21-0.79,0.49-1.52,0.95-2.18c0.19-0.27,0.39-0.53,0.57-0.81
		c0.47-0.75,0.43-1.42-0.12-2.11c-0.3-0.38-0.66-0.67-1.11-0.85c-0.17-0.06-0.33-0.14-0.5-0.19c-1.12-0.36-2.1-0.95-2.99-1.7
		c-0.04-0.03-0.06-0.08-0.09-0.11c-0.17,0.08-0.21,0.21-0.29,0.31c-1.64,2.28-3.24,4.59-4.77,6.94c-0.14,0.22-0.29,0.31-0.55,0.25
		c-0.38-0.08-0.77-0.13-1.22-0.2c3.5-5.39,7.25-10.55,11.17-15.5c0.03-0.09,0.02-0.1-0.01-0.11c-1.71-0.64-3.29-1.54-4.79-2.57
		c-2.3-1.58-4.7-2.98-7.15-4.29c-3.08-1.64-5.75-3.78-7.94-6.49c-1.05-1.3-2.06-2.64-2.9-4.1c-0.03-0.05-0.04-0.12-0.15-0.15
		c-0.03,0.19-0.07,0.38-0.1,0.57c-0.43,2.71-0.39,5.41,0.12,8.11c0.35,1.81,0.91,3.56,1.55,5.29c2.16,5.8,4.81,11.37,7.58,16.89
		c0.3,0.59,0.6,1.18,0.9,1.76c0.04,0.08,0.1,0.15,0.08,0.28c-0.48-0.07-0.96-0.19-1.43-0.3c-0.17-0.04-0.18-0.2-0.24-0.32
		c-0.72-1.44-1.45-2.87-2.15-4.32c-1.87-3.86-3.64-7.76-5.21-11.75c-0.64-1.62-1.25-3.24-1.72-4.92c-0.54-1.91-0.88-3.86-0.96-5.85
		c-0.03-0.75-0.01-1.5-0.02-2.25c0.02-0.09,0-0.18-0.02-0.27c-0.02-0.01,0.03-0.05-0.02-0.05c-0.02,0.03-0.04,0.06-0.07,0.09
		c-0.51,1.06-1.04,2.12-1.61,3.15c-1.18,2.15-2.84,3.82-4.93,5.07c-1.81,1.09-3.72,1.97-5.65,2.8c-1.58,0.69-3.19,1.32-4.78,1.97
		c-0.2,0.08-0.32,0.08-0.45-0.1c-0.2-0.26-0.42-0.5-0.63-0.74c0.03-0.11,0.11-0.12,0.18-0.15c2.3-0.93,4.63-1.82,6.87-2.89
		c1.44-0.69,2.89-1.36,4.24-2.23c1.62-1.04,2.94-2.36,3.89-4.05c1.14-2.06,2.12-4.19,2.93-6.4c0.01-0.04,0.02-0.07,0.04-0.11
		c0.21-0.56,0.43-0.67,1.05-0.49c-0.12-0.27-0.23-0.52-0.34-0.77c-0.9-1.98-1.32-4.07-1.44-6.24c-0.02-0.33-0.03-0.66-0.05-0.99
		c-0.01-0.16-0.04-0.31-0.07-0.53c-0.14,0.15-0.23,0.26-0.33,0.37c-0.79,0.85-1.73,1.05-2.8,0.61c-0.51-0.21-0.95-0.53-1.36-0.9
		c-1.09-0.98-1.84-2.18-2.39-3.53c-0.61-1.48-1.13-2.99-1.65-4.5c-0.57-1.67-1.19-3.32-1.98-4.9c-0.58-1.17-0.96-2.4-1.22-3.67
		c-0.54-2.59-0.8-5.22-0.96-7.86c-0.16-2.65-0.1-5.3,0.21-7.94c0.44-3.69,1.36-7.25,2.93-10.63c2.58-5.52,6.63-9.6,12.07-12.32
		c1.98-0.99,4.05-1.75,6.18-2.36c1.98-0.56,3.97-1.06,6-1.43c1.4-0.25,2.81-0.43,4.23-0.54c1.71-0.13,3.42-0.17,5.14-0.1
		c7.12,0.29,13.76,2.13,19.77,6.03c1.68,1.09,3.26,2.3,4.69,3.71c0.91,0.89,1.73,1.86,2.33,3c0.37,0.7,0.61,1.45,0.58,2.26
		c-0.04,0.99-0.46,1.78-1.24,2.38c-0.58,0.45-1.24,0.73-1.91,1.01c-0.2,0.08-0.4,0.16-0.59,0.25c-0.35,0.16-0.49,0.45-0.47,0.83
		c0.02,0.47,0.14,0.93,0.28,1.38c0.55,1.76,0.93,3.56,1.2,5.38c0.17,1.15,0.48,2.26,0.79,3.37c0.33,1.19,0.62,2.38,0.9,3.58
		c0.18,0.8,0.36,1.61,0.49,2.43c0.15,0.93,0.16,1.85-0.13,2.75c-0.54,1.7-0.65,3.46-0.7,5.22c-0.07,2.31-0.18,4.61-0.41,6.91
		c-0.15,1.49-0.75,2.73-2.01,3.61c-0.19,0.13-0.22,0.26-0.17,0.47c0.21,0.94,0.37,1.89,0.49,2.85c0.19,1.55,0.06,3.09-0.25,4.61
		c-0.47,2.27-1.11,4.48-1.99,6.62c-0.47,1.14-1.06,2.22-1.74,3.25c-0.07,0.1-0.16,0.2-0.19,0.32c1.03,0.74,2.1,1.42,3.22,2
		c2.67,1.37,5.51,2.18,8.49,2.48c1.8,0.18,3.62,0.28,5.42,0.51c2.05,0.26,4.06,0.74,6.07,1.23c0.02,0.01,0.04,0.02,0.08,0.05
		c-0.18,0.36-0.42,0.69-0.63,1.03c-0.08,0.13-0.19,0.08-0.3,0.05c-0.58-0.14-1.16-0.28-1.74-0.42c-2.4-0.58-4.84-0.88-7.29-1.05
		c-2.08-0.15-4.14-0.37-6.15-0.96c-2.71-0.79-5.2-2.01-7.5-3.63c-0.13-0.09-0.26-0.19-0.35-0.32c-0.25,0.31-0.48,0.61-0.75,0.94
		c0.41,0.09,0.51,0.38,0.58,0.73c0.24,1.23,0.5,2.47,0.76,3.7c0.29,1.38,0.59,2.76,0.89,4.13c0.27,1.27,0.55,2.53,0.83,3.8
		c0.32,1.42,0.65,2.85,0.99,4.27c0.3,1.26,0.6,2.52,0.9,3.78c0.16,0.68,0.33,1.36,0.5,2.03c0.05,0.2,0.03,0.32-0.18,0.42
		c-0.31,0.14-0.59,0.34-0.93,0.46c-1.84-7.42-3.51-14.86-5.04-22.41c-0.39,0.5-0.73,0.94-1.08,1.37c-1.53,1.89-3,3.81-4.62,5.62
		c-1.43,1.59-2.96,3.07-4.73,4.29c-0.02,0.01-0.03,0.03-0.05,0.05c0.02,0.12,0.14,0.14,0.22,0.19c2.97,1.87,5.5,4.21,7.55,7.06
		c1.32,1.85,2.77,3.6,4.37,5.22c0.04,0.04,0.1,0.08,0.11,0.17c-0.34,0.15-0.7,0.28-1.04,0.45c-0.21,0.1-0.34,0.06-0.49-0.11
		c-0.79-0.83-1.55-1.68-2.28-2.56c-0.75-0.91-1.43-1.88-2.14-2.82c-0.3-0.41-0.62-0.8-0.93-1.19c-0.15,0.04-0.18,0.16-0.24,0.25
		c-0.57,0.82-1.19,1.59-1.93,2.25c-0.11,0.1-0.22,0.22-0.32,0.32c-0.51,0.5-0.72,1.12-0.74,1.82c-0.02,0.79,0.1,1.57,0.21,2.35
		c0.09,0.67,0.24,1.32,0.41,1.98c0.08,0.3,0.08,0.31-0.23,0.37c-0.32,0.06-0.65,0.12-0.97,0.18c-0.33-0.5-0.35-1.1-0.48-1.66
		c-0.08-0.33-0.09-0.68-0.14-1.02c-0.02-0.16-0.06-0.29-0.23-0.36c-0.92-0.38-1.85-0.6-2.85-0.36c-0.41,0.1-0.79,0.27-1.15,0.48
		c-0.19,0.11-0.29,0.27-0.34,0.48c-0.11,0.56-0.36,1.05-0.72,1.49c-0.35,0.44-0.62,0.93-0.83,1.44
		C295.69,339.81,295.64,339.93,295.53,340.03z"/>
	<path class="st14" d="M295.53,340.03c0.15-0.58,0.41-1.12,0.78-1.59c0.45-0.58,0.83-1.18,0.92-1.93c0.01-0.09,0.05-0.15,0.14-0.21
		c1.21-0.8,2.48-0.96,3.83-0.43c0.22,0.09,0.44,0.19,0.7,0.19c0.1,1.06,0.32,2.09,0.58,3.11c-0.35,0.06-0.69,0.13-1.04,0.19
		c-0.14,0.03-0.27,0.06-0.4,0.1c-0.13-0.01-0.25,0.03-0.37,0.06c-0.98,0.13-1.97,0.26-2.95,0.38c-0.13,0.01-0.25,0.02-0.38,0.04
		c-0.37-0.02-0.73,0.04-1.1,0.07C296.01,340.03,295.77,340.06,295.53,340.03z"/>
	<path class="st15" d="M270.53,309.23c0.02-0.05,0.03-0.11,0.05-0.16c0.07-0.03,0.1-0.01,0.1,0.07c-0.01,0.11,0.03,0.22-0.04,0.33
		C270.59,309.39,270.62,309.28,270.53,309.23z"/>
	<path class="st10" d="M315.48,278.84c0.24-0.01,0.39-0.15,0.51-0.35c0.09-0.16,0.19-0.32,0.29-0.49c0.13,0.05,0.1,0.16,0.11,0.24
		c0.23,1.29,0.23,2.57,0,3.86c-0.03,0.15-0.07,0.3-0.02,0.45c0.08,0.24,0.31,0.41,0.58,0.42c0.31,0.01,0.56-0.14,0.65-0.43
		c0.06-0.19,0.09-0.39,0.12-0.59c0.22-1.5,0.17-2.98-0.19-4.46c-0.08-0.33-0.25-0.58-0.61-0.67c0.88-1.73,1.56-3.49,2.07-5.33
		c0.08-0.06,0.1,0.01,0.14,0.05c0.07,0.34,0.13,0.67,0.2,1.01c0.19,0.87,0.13,1.72-0.14,2.56c-0.48,1.52-0.6,3.08-0.68,4.65
		c-0.11,2.43-0.2,4.87-0.43,7.29c-0.01,0.1-0.03,0.2-0.04,0.3c-0.13,1.2-0.72,2.13-1.73,2.77c-0.69,0.44-0.67,0.55-0.47,1.32
		c0.44,1.7,0.75,3.42,0.64,5.2c-0.06,0.93-0.27,1.83-0.48,2.73c-0.39,1.68-0.87,3.34-1.46,4.96c-0.57,1.57-1.34,3.04-2.34,4.39
		c-2.52,3.39-5.15,6.68-7.93,9.85c-1.32,1.5-2.81,2.83-4.47,3.95c-0.4,0.27-0.82,0.51-1.26,0.71c-0.26,0.12-0.53,0.15-0.82,0.1
		c-1.52-0.24-2.93-0.81-4.28-1.53c-1.03-0.55-2-1.2-2.98-1.85c-2.26-1.51-4.6-2.89-7-4.17c-1.35-0.71-2.67-1.5-3.78-2.55
		c-1.92-1.83-3.8-3.7-5.27-5.93c-0.9-1.37-1.74-2.77-2.33-4.3c-0.46-1.21-0.71-2.46-0.86-3.74c-0.1-0.8-0.14-1.59-0.21-2.39
		c-0.04-0.39-0.07-0.78-0.22-1.15c-0.11-0.27-0.28-0.47-0.53-0.63c-0.23-0.15-0.47-0.14-0.71-0.06c-0.3,0.1-0.52,0.31-0.7,0.56
		c-0.14,0.18-0.26,0.38-0.4,0.56c-0.32,0.4-0.7,0.51-1.19,0.34c-0.35-0.12-0.66-0.32-0.94-0.56c-0.9-0.74-1.55-1.66-2.02-2.73
		c-0.67-1.51-1.24-3.06-1.73-4.63c-0.57-1.82-1.24-3.6-2.12-5.29c-0.33-0.64-0.59-1.32-0.82-2.01c-0.04-0.13-0.09-0.26-0.09-0.43
		c0.62-0.13,1.24-0.25,1.85-0.4c1.43-0.35,2.87-0.66,4.23-1.24c0.14-0.06,0.28-0.13,0.42-0.19c1.28-0.53,2.07-1.5,2.51-2.8
		c0.38-1.14,0.56-2.31,0.7-3.5c0.18-1.54,0.21-3.09,0.24-4.63c0.04-2.11,0.21-4.2,0.64-6.27c0.02-0.11,0.03-0.22,0.1-0.33
		c0.17,0.06,0.33,0.12,0.5,0.18c2.26,0.84,4.53,1.64,6.86,2.25c1.89,0.49,3.81,0.68,5.77,0.63c1.94-0.05,3.85-0.29,5.74-0.7
		c1.69-0.37,3.35-0.83,4.99-1.38c6.11-2.02,12.12-4.3,18.06-6.76c2.14-0.89,4.25-1.87,6.33-2.89c0.24-0.12,0.45-0.26,0.48-0.54
		c0.03-0.25-0.03-0.48-0.25-0.65c-0.22-0.17-0.45-0.14-0.68-0.03c-0.47,0.23-0.93,0.46-1.4,0.69c-3.01,1.46-6.11,2.73-9.22,3.96
		c-3.88,1.53-7.8,2.97-11.73,4.35c-1.88,0.66-3.78,1.26-5.72,1.74c-1.91,0.47-3.85,0.81-5.83,0.92c-2.6,0.13-5.13-0.21-7.61-1.02
		c-5.08-1.65-10.07-3.54-14.92-5.8c-0.46-0.21-0.92,0.02-0.97,0.53c-0.03,0.28,0.09,0.5,0.34,0.63c0.17,0.09,0.34,0.17,0.51,0.25
		c2.32,1.09,4.7,2.05,7.08,2.98c0.07,0.03,0.14,0.06,0.21,0.08c0.16,0.05,0.21,0.12,0.17,0.3c-0.43,1.91-0.62,3.85-0.7,5.81
		c-0.05,1.18-0.06,2.36-0.12,3.54c-0.06,1.42-0.2,2.83-0.52,4.22c-0.13,0.58-0.35,1.14-0.61,1.68c-0.31,0.65-0.79,1.11-1.46,1.37
		c-0.99,0.4-2,0.74-3.04,0.99c-0.98,0.23-1.95,0.48-2.94,0.65c-0.35,0.06-0.35,0.07-0.42-0.29c-0.19-0.91-0.29-1.83-0.4-2.75
		c-0.2-1.7-0.37-3.41-0.44-5.12c-0.22-5.49,0.46-10.84,2.56-15.95c1.88-4.57,4.83-8.29,8.9-11.11c1.9-1.31,3.96-2.31,6.12-3.12
		c1.86-0.7,3.76-1.23,5.69-1.69c2.03-0.48,4.08-0.87,6.15-1.07c5.76-0.56,11.43-0.1,16.95,1.7c4.42,1.44,8.39,3.66,11.89,6.72
		c0.86,0.75,1.66,1.57,2.33,2.51c0.42,0.58,0.77,1.19,0.95,1.89c0.22,0.83-0.04,1.62-0.73,2.13c-0.33,0.24-0.7,0.4-1.08,0.55
		c-0.38,0.15-0.76,0.29-1.13,0.46c-0.87,0.39-1.23,1.1-1.2,2.02c0.02,0.66,0.15,1.31,0.35,1.95c0.49,1.57,0.79,3.17,1.06,4.79
		c0.23,1.39,0.61,2.75,0.96,4.12c0.22,0.85,0.44,1.69,0.66,2.54c0.02,0.06,0.02,0.12,0.02,0.18c-0.04,0.01-0.06,0.02-0.08,0.02
		c-0.5,0.03-0.67,0.16-0.79,0.65c-0.36,1.42-0.83,2.8-1.41,4.14c-0.3,0.7-0.63,1.38-1,2.05c-0.11-0.05-0.11-0.15-0.14-0.23
		c-0.62-2.25-1.04-4.53-1.27-6.85c-0.06-0.56-0.1-1.11-0.14-1.67c0.12-0.17,0.21-0.02,0.29,0.04c0.45,0.3,0.66,0.25,0.88-0.24
		c0.36-0.79,0.86-1.46,1.62-1.91c0.08-0.05,0.15-0.1,0.22-0.16c0.21-0.18,0.28-0.39,0.16-0.64c-0.12-0.25-0.35-0.32-0.61-0.27
		c-0.29,0.06-0.53,0.23-0.76,0.41c-0.65,0.51-1.13,1.15-1.49,1.89c-0.04,0.09-0.08,0.19-0.14,0.27c-0.04,0.06-0.09,0.15-0.17,0.09
		c-0.06-0.04-0.06-0.13-0.03-0.21c0-0.56,0-1.12,0-1.67c0.01-3.15,0.39-6.25,1.15-9.3c0.05-0.18,0.09-0.37,0.13-0.55
		c0.08-0.37-0.05-0.62-0.37-0.73c-0.32-0.11-0.66,0.01-0.82,0.3c-0.05,0.09-0.07,0.19-0.1,0.29c-0.69,2.69-1.1,5.42-1.23,8.19
		c-0.13,2.6-0.01,5.18,0.35,7.75c0.27,1.91,0.67,3.8,1.22,5.66c0.11,0.38,0.22,0.75,0.32,1.13c0.05,0.18,0.13,0.33,0.29,0.43
		c0.06,0.05,0.07,0.12,0.03,0.19c-0.24,0.22-0.31,0.51-0.32,0.83c-0.05,1.54-0.06,3.07,0.14,4.6c0.2,1.56,0.4,3.12,0.83,4.65
		c0.14,0.48,0.38,0.72,0.7,0.64c0.32-0.08,0.45-0.44,0.31-0.93c-0.34-1.21-0.57-2.45-0.72-3.7c-0.2-1.67-0.31-3.36-0.19-5.05
		c0.03-0.38-0.02-0.73-0.29-1.03C315.29,278.83,315.37,278.82,315.48,278.84z"/>
	<path class="st14" d="M296.54,324.3c0.33,0.07,0.61,0.13,0.9,0.18c0.69,0.13,1.34,0.03,1.95-0.3c0.19-0.1,0.35-0.17,0.51,0.06
		c0.06,0.09,0.18,0.13,0.28,0.19c1.82,1.13,3.48,2.46,4.98,3.99c0.21,0.21,0.21,0.21,0.04,0.46c-0.54,0.83-1.15,1.61-1.88,2.29
		c-0.13,0.12-0.25,0.25-0.38,0.38c-0.75,0.71-1.08,1.61-1.12,2.63c-0.01,0.16-0.02,0.33-0.03,0.49c-0.12,0.04-0.21-0.03-0.3-0.06
		c-1.44-0.51-2.84-0.42-4.21,0.26c-0.28,0.14-0.28,0.14-0.42-0.12c-0.48-0.83-1.17-1.43-2.07-1.78c-0.18-0.07-0.36-0.13-0.54-0.19
		c-0.92-0.3-1.72-0.8-2.46-1.42c-0.29-0.25-0.25-0.23-0.07-0.48c0.57-0.76,1.13-1.53,1.71-2.29c0.92-1.2,1.85-2.39,2.77-3.58
		C296.38,324.81,296.53,324.61,296.54,324.3z"/>
	<path d="M313.89,267.3c0.02,0.06,0.03,0.12,0.05,0.19c0.1-0.11,0.13-0.24,0.19-0.36c0.43-0.95,1.08-1.71,1.97-2.25
		c0.15-0.09,0.31-0.17,0.5-0.17c0.25,0,0.5,0.15,0.61,0.39c0.1,0.21,0.05,0.48-0.14,0.66c-0.1,0.1-0.22,0.17-0.33,0.25
		c-0.72,0.46-1.22,1.09-1.55,1.88c-0.01,0.02-0.02,0.05-0.03,0.07c-0.21,0.46-0.58,0.54-0.98,0.23c-0.07-0.06-0.08-0.25-0.25-0.15
		C313.9,267.78,313.78,267.54,313.89,267.3z"/>
	<path class="st16" d="M315.48,278.84c-0.05,0.04-0.13,0.02-0.16,0.09c-0.15,0.09-0.3,0.1-0.45-0.02c-0.01-0.05-0.02-0.09-0.03-0.14
		C315.05,278.9,315.28,278.73,315.48,278.84z"/>
	<path class="st17" d="M319.12,271.54c-0.05-0.02-0.09-0.04-0.14-0.05c-0.02-0.08,0.01-0.13,0.09-0.21
		C319.12,271.37,319.14,271.45,319.12,271.54z"/>
	<path class="st18" d="M270.68,309.13c-0.03-0.03-0.05-0.07-0.1-0.07c0.02-0.06,0.02-0.16,0.11-0.12
		C270.76,308.98,270.73,309.07,270.68,309.13z"/>
	<path class="st19" d="M271.99,305.74c-0.06,0-0.08-0.03-0.07-0.08c0.01-0.04,0.04-0.05,0.06-0.01
		C272.01,305.68,272.02,305.71,271.99,305.74z"/>
	<path class="st20" d="M271.99,305.74c0-0.03-0.01-0.06-0.01-0.09c0.05,0.03,0.1,0.06,0.06,0.13
		C272.02,305.79,271.99,305.77,271.99,305.74z"/>
	<path d="M290.5,301.55c1.22,0.65,2.44,1.3,3.73,1.8c1.47,0.57,2.97,0.6,4.49,0.23c1.79-0.44,3.37-1.3,4.85-2.38
		c0.12-0.09,0.24-0.19,0.37-0.27c0.28-0.18,0.58-0.14,0.79,0.09c0.22,0.24,0.26,0.58,0.07,0.84c-0.07,0.09-0.16,0.16-0.25,0.23
		c-1.51,1.13-3.13,2.06-4.95,2.61c-2.1,0.63-4.18,0.63-6.21-0.26c-0.8-0.35-1.59-0.73-2.37-1.13c-0.68-0.35-1.36-0.69-2.04-1.04
		c-0.51-0.26-1-0.56-1.46-0.9c-0.15-0.11-0.3-0.24-0.4-0.4c-0.15-0.25-0.18-0.5-0.03-0.76c0.15-0.24,0.37-0.31,0.66-0.28
		c2.58,0.26,5.17,0.29,7.76,0.12c1.69-0.11,3.36-0.31,5.02-0.68c1.7-0.38,3.35-0.93,4.94-1.65c0.08-0.04,0.16-0.08,0.24-0.11
		c0.34-0.12,0.65,0.01,0.79,0.32c0.16,0.35,0.06,0.67-0.29,0.83c-0.83,0.4-1.69,0.75-2.57,1.05c-2.44,0.85-4.96,1.27-7.53,1.46
		c-1.71,0.12-3.42,0.17-5.14,0.12c-0.08,0-0.15,0.01-0.23,0.02C290.5,301.41,290.45,301.43,290.5,301.55z"/>
	<path d="M297.78,315.68c-2.35,0.33-4.7,0.03-7.02-0.62c-3.42-0.95-6.53-2.5-9.31-4.71c-0.11-0.09-0.22-0.17-0.31-0.28
		c-0.26-0.3-0.21-0.75,0.11-0.97c0.24-0.16,0.46-0.13,0.75,0.11c0.88,0.74,1.81,1.4,2.8,1.97c2.66,1.55,5.49,2.68,8.55,3.16
		c1.9,0.3,3.8,0.25,5.68-0.18c2.09-0.47,3.96-1.4,5.67-2.67c2.06-1.54,3.74-3.42,5.07-5.63c0.06-0.1,0.11-0.2,0.18-0.29
		c0.2-0.29,0.54-0.37,0.84-0.21c0.28,0.15,0.39,0.48,0.27,0.79c-0.02,0.06-0.05,0.11-0.09,0.17c-1.92,3.16-4.38,5.77-7.65,7.57
		C301.6,314.84,299.78,315.45,297.78,315.68z"/>
	<path d="M294,249.89c-1.72,0.13-3.44,0.26-5.17,0.31c-1.57,0.05-3.15,0.07-4.72,0.04c-2.5-0.04-4.99-0.19-7.48-0.43
		c-2.2-0.22-4.38-0.51-6.56-0.89c-0.43-0.07-0.64-0.28-0.65-0.62c-0.02-0.42,0.3-0.72,0.73-0.66c0.61,0.09,1.22,0.21,1.84,0.31
		c2.9,0.46,5.81,0.74,8.74,0.91c1.94,0.11,3.88,0.15,5.82,0.13c1.88-0.02,3.76-0.09,5.63-0.24c1.22-0.09,2.43-0.2,3.64-0.33
		c0.49-0.05,0.84,0.35,0.71,0.82c-0.09,0.31-0.32,0.44-0.63,0.47C295.26,249.77,294.63,249.83,294,249.89z"/>
	<path d="M305.03,252.21c-2.31,0.27-4.63,0.43-6.96,0.45c-2.65,0.02-5.3-0.11-7.94-0.41c-0.06-0.01-0.13-0.01-0.19-0.02
		c-0.37-0.08-0.58-0.37-0.53-0.71c0.05-0.35,0.33-0.58,0.7-0.55c0.45,0.04,0.91,0.1,1.36,0.15c2.17,0.21,4.35,0.3,6.54,0.28
		c2.94-0.03,5.86-0.26,8.77-0.71c2.26-0.35,4.5-0.82,6.7-1.44c0.46-0.13,0.85,0.09,0.93,0.52c0.06,0.34-0.11,0.59-0.49,0.69
		c-0.37,0.1-0.74,0.2-1.1,0.29C310.25,251.38,307.66,251.9,305.03,252.21z"/>
	<path d="M297.96,293.98c-1.29,0.13-2.49-0.13-3.57-0.88c-0.17-0.12-0.33-0.23-0.5-0.35c-0.27-0.2-0.55-0.24-0.86-0.09
		c-0.15,0.07-0.3,0.14-0.45,0.2c-0.75,0.33-1.4,0.15-1.87-0.52c-0.34-0.48-0.47-1.04-0.52-1.61c-0.05-0.59,0-1.16,0.16-1.73
		c0.09-0.34,0.29-0.61,0.55-0.85c0.1-0.1,0.22-0.17,0.36-0.2c0.28-0.07,0.51,0.09,0.54,0.38c0.01,0.1,0.01,0.2-0.01,0.3
		c-0.08,0.44-0.16,0.87-0.27,1.3c-0.13,0.52-0.05,1.01,0.15,1.49c0.14,0.35,0.24,0.38,0.57,0.19c0.47-0.26,0.95-0.4,1.49-0.33
		c0.36,0.05,0.68,0.21,0.97,0.41c0.21,0.14,0.41,0.31,0.62,0.44c0.88,0.54,1.82,0.74,2.84,0.52c0.15-0.03,0.29-0.09,0.43-0.15
		c0.24-0.12,0.41-0.29,0.45-0.57c0.03-0.19,0.09-0.37,0.16-0.55c0.2-0.51,0.54-0.88,1.05-1.1c0.09-0.04,0.19-0.08,0.28-0.12
		c0.45-0.2,0.57-0.44,0.44-0.91c-0.16-0.59-0.46-1.1-0.93-1.49c-0.13-0.11-0.26-0.2-0.39-0.31c-0.32-0.27-0.39-0.62-0.19-0.9
		c0.21-0.29,0.62-0.36,0.95-0.13c1,0.72,1.69,1.63,1.81,2.9c0.09,0.99-0.31,1.68-1.25,2.01c-0.46,0.16-0.69,0.43-0.72,0.91
		c-0.03,0.54-0.33,0.92-0.76,1.22C299.03,293.78,298.51,293.93,297.96,293.98z"/>
	<path d="M291.9,255.32c-4.02,0.38-7.93,0.21-11.81-0.5c-1.95-0.36-3.86-0.86-5.74-1.48c-0.13-0.04-0.27-0.09-0.39-0.14
		c-0.34-0.14-0.47-0.4-0.39-0.72c0.09-0.35,0.4-0.56,0.75-0.48c0.18,0.04,0.36,0.11,0.54,0.17c3.58,1.21,7.26,1.87,11.03,2.03
		c2.34,0.1,4.67,0.01,6.99-0.3c0.16-0.02,0.33-0.05,0.49-0.06c0.4-0.03,0.66,0.2,0.7,0.58c0.04,0.37-0.16,0.63-0.54,0.69
		C292.96,255.19,292.38,255.26,291.9,255.32z"/>
	<path d="M300.33,277.47c-0.42,0.31-0.79,0.67-1.13,1.07c-0.28,0.32-0.65,0.33-0.93,0.05c-0.21-0.2-0.24-0.44-0.08-0.69
		c0.05-0.07,0.11-0.14,0.17-0.21c1.46-1.67,3.3-2.65,5.51-2.84c2.33-0.2,4.37,0.56,6.14,2.08c0.07,0.06,0.13,0.12,0.18,0.19
		c0.19,0.27,0.16,0.6-0.06,0.79c-0.22,0.19-0.58,0.23-0.8,0.01c-0.36-0.34-0.76-0.63-1.19-0.88c-0.05-0.03-0.11-0.06-0.16-0.09
		C306.36,279.71,302.6,280.38,300.33,277.47z"/>
	<path d="M282.96,277.38c2.17-0.24,4.15,0.29,5.92,1.57c0.39,0.28,0.45,0.58,0.22,0.91c-0.22,0.3-0.54,0.35-0.86,0.11
		c-0.36-0.26-0.73-0.5-1.14-0.69c-0.25-0.12-0.25-0.18-0.42,0.14c-0.58,1.1-1.44,1.89-2.62,2.3c-1.28,0.44-2.5,0.28-3.65-0.43
		c-0.35-0.21-0.67-0.46-0.94-0.77c-0.13-0.15-0.21-0.12-0.33,0.01c-0.3,0.31-0.58,0.64-0.83,0.99c-0.27,0.39-0.54,0.46-0.86,0.25
		c-0.33-0.22-0.38-0.59-0.11-0.96c0.96-1.34,2.2-2.34,3.75-2.94C281.68,277.63,282.31,277.46,282.96,277.38z"/>
	<path d="M294.24,246.63c-2.24,0.1-4.46,0-6.68-0.26c-3.38-0.4-6.65-1.22-9.82-2.44c-0.06-0.02-0.12-0.04-0.18-0.07
		c-0.39-0.16-0.53-0.45-0.41-0.81c0.13-0.38,0.48-0.55,0.89-0.4c0.44,0.16,0.88,0.33,1.32,0.49c3.26,1.18,6.62,1.87,10.08,2.13
		c1.58,0.12,3.17,0.15,4.75,0.07c0.36-0.02,0.61,0.14,0.73,0.43c0.16,0.4-0.07,0.78-0.49,0.84
		C294.37,246.62,294.31,246.62,294.24,246.63z"/>
	<path d="M310.98,248.08c-4.72,0.43-9.1-0.57-13.14-3.05c-0.65-0.4-1.28-0.83-1.87-1.31c-0.32-0.26-0.38-0.63-0.17-0.94
		c0.2-0.3,0.53-0.36,0.82-0.14c0.24,0.18,0.48,0.38,0.72,0.56c3.01,2.15,6.37,3.37,10.06,3.65c1.37,0.1,2.74,0.05,4.1-0.12
		c0.16-0.02,0.33-0.05,0.49,0.02c0.24,0.1,0.4,0.38,0.38,0.65c-0.02,0.29-0.2,0.5-0.48,0.56c-0.15,0.03-0.3,0.04-0.45,0.06
		S311.13,248.06,310.98,248.08z"/>
	<path d="M286.31,258.35c-4.81,0.35-9.55,0.01-14.24-1.15c-0.11-0.03-0.22-0.05-0.33-0.09c-0.38-0.12-0.57-0.45-0.47-0.83
		c0.09-0.35,0.41-0.54,0.81-0.43c1.03,0.27,2.07,0.49,3.12,0.67c2.39,0.41,4.8,0.64,7.23,0.65c1.31,0.01,2.61-0.04,3.92-0.14
		c0.47-0.04,0.8,0.3,0.74,0.74c-0.04,0.3-0.22,0.48-0.51,0.53C286.49,258.33,286.4,258.33,286.31,258.35z"/>
	<path d="M270.25,292.85c0.01,0.05,0.02,0.1,0.03,0.15c0.06,0.37-0.04,0.59-0.34,0.71c-0.29,0.12-0.64,0.02-0.82-0.23
		c-0.07-0.1-0.12-0.22-0.14-0.35c-0.32-1.46-0.72-2.91-1.17-4.33c-0.88-2.76-2.01-5.42-3.38-7.97c-0.04-0.07-0.08-0.13-0.11-0.2
		c-0.15-0.32-0.09-0.59,0.16-0.77c0.27-0.19,0.64-0.16,0.87,0.06c0.08,0.08,0.13,0.18,0.19,0.28c1.43,2.62,2.6,5.36,3.51,8.2
		c0.24,0.74,0.46,1.48,0.66,2.22c0.19,0.74,0.37,1.48,0.55,2.22C270.26,292.85,270.25,292.85,270.25,292.85z"/>
	<path d="M303.29,273.03c-1.47,0.17-3.01,0.62-4.51,1.25c-0.06,0.02-0.11,0.06-0.17,0.08c-0.38,0.14-0.69,0.03-0.82-0.3
		c-0.1-0.26-0.08-0.62,0.35-0.8c0.7-0.3,1.41-0.57,2.14-0.79c1.29-0.4,2.61-0.64,3.96-0.74c1.72-0.14,3.42-0.02,5.1,0.34
		c0.12,0.03,0.25,0.06,0.35,0.13c0.24,0.16,0.32,0.4,0.24,0.66c-0.09,0.28-0.32,0.44-0.6,0.43c-0.1-0.01-0.2-0.03-0.3-0.05
		C307.18,272.83,305.31,272.76,303.29,273.03z"/>
	<path d="M281.46,274.71c2.12-0.29,4.22-0.19,6.31,0.29c0.14,0.03,0.27,0.06,0.4,0.11c0.32,0.13,0.47,0.44,0.37,0.74
		c-0.1,0.31-0.39,0.47-0.72,0.39c-1.1-0.26-2.21-0.42-3.34-0.47c-1.58-0.06-3.14,0.09-4.68,0.46c-0.89,0.22-1.75,0.51-2.6,0.84
		c-0.46,0.18-0.83-0.06-0.86-0.53c-0.02-0.27,0.09-0.44,0.4-0.57c0.67-0.28,1.35-0.51,2.04-0.71
		C279.66,275.01,280.55,274.83,281.46,274.71z"/>
	<path d="M314.87,278.92c0.15,0.01,0.3-0.05,0.45,0.02c0.36,0.14,0.43,0.43,0.41,0.77c-0.04,0.75-0.06,1.49-0.04,2.24
		c0.03,1.36,0.14,2.71,0.37,4.05c0.16,0.98,0.36,1.95,0.62,2.9c0.02,0.06,0.03,0.12,0.03,0.19c0.03,0.35-0.18,0.67-0.46,0.73
		c-0.36,0.07-0.69-0.12-0.79-0.49c-0.12-0.47-0.24-0.93-0.34-1.4c-0.3-1.37-0.5-2.75-0.62-4.14c-0.12-1.38-0.13-2.76-0.06-4.14
		C314.46,279.33,314.51,279.03,314.87,278.92z"/>
	<path d="M267.19,271.16c0.04,0.33-0.12,0.55-0.39,0.72c-0.66,0.43-1.32,0.85-1.97,1.3c-1.65,1.13-3.2,2.36-4.7,3.68
		c-0.05,0.04-0.09,0.09-0.14,0.13c-0.28,0.24-0.52,0.25-0.75,0.05c-0.24-0.21-0.29-0.61-0.11-0.87c0.06-0.09,0.15-0.17,0.24-0.24
		c2.15-1.89,4.43-3.59,6.85-5.11c0.04-0.03,0.08-0.06,0.13-0.08C266.78,270.48,267.14,270.67,267.19,271.16z"/>
	<path d="M266.83,266.72c0.37-0.04,0.64,0.13,0.74,0.42c0.11,0.3-0.01,0.62-0.31,0.77c-0.3,0.14-0.61,0.25-0.91,0.37
		c-1.58,0.64-3.15,1.33-4.68,2.09c-0.09,0.04-0.18,0.09-0.27,0.13c-0.37,0.15-0.69,0.04-0.84-0.28c-0.16-0.34-0.06-0.7,0.29-0.88
		c0.61-0.31,1.23-0.6,1.85-0.89c1.28-0.6,2.58-1.16,3.91-1.66C266.69,266.77,266.79,266.74,266.83,266.72z"/>
	<path d="M260.96,266.18c-0.4,0.04-0.7-0.16-0.78-0.49c-0.08-0.32,0.05-0.6,0.39-0.73c0.59-0.23,1.19-0.44,1.78-0.65
		c1.28-0.47,2.55-1,3.8-1.54c0.07-0.03,0.14-0.06,0.21-0.09c0.4-0.16,0.74-0.05,0.9,0.29c0.17,0.37,0.02,0.71-0.39,0.89
		c-1.71,0.74-3.43,1.44-5.19,2.06C261.42,266.03,261.16,266.12,260.96,266.18z"/>
	<path d="M264.51,283.36c0.48-0.08,0.86,0.36,0.72,0.84c-0.08,0.28-0.19,0.55-0.25,0.84c-0.33,1.53-0.06,2.95,0.81,4.25
		c0.05,0.07,0.11,0.14,0.15,0.22c0.16,0.31,0.05,0.68-0.25,0.87c-0.29,0.18-0.62,0.12-0.83-0.18c-0.72-0.99-1.13-2.09-1.26-3.3
		c-0.11-1.05,0.03-2.07,0.41-3.06C264.09,283.59,264.24,283.41,264.51,283.36z"/>
	<path d="M292.83,279.69c0.24,1.81,0.2,3.42-0.29,5c-0.1,0.33-0.22,0.65-0.36,0.96c-0.13,0.28-0.42,0.36-0.67,0.21
		c-0.17-0.1-0.24-0.26-0.2-0.45c0.01-0.05,0.03-0.1,0.05-0.14c0.77-1.84,0.83-3.74,0.54-5.68c-0.08-0.5-0.18-1-0.29-1.5
		c-0.05-0.25,0.06-0.41,0.26-0.48c0.22-0.07,0.44,0.01,0.55,0.21c0.04,0.08,0.07,0.16,0.09,0.25
		C292.66,278.67,292.79,279.26,292.83,279.69z"/>
	<path d="M317.49,268.11c0.28-0.03,0.54,0.13,0.67,0.41c0.1,0.21,0.05,0.46-0.15,0.66c-0.14,0.13-0.3,0.23-0.44,0.36
		c-0.74,0.71-1.26,1.55-1.45,2.57c-0.01,0.05-0.02,0.1-0.03,0.15c-0.09,0.41-0.35,0.6-0.73,0.53c-0.37-0.07-0.6-0.39-0.54-0.78
		c0.06-0.36,0.17-0.71,0.3-1.06c0.42-1.06,1.08-1.94,1.98-2.64C317.26,268.17,317.35,268.12,317.49,268.11z"/>
	<path class="st21" d="M290.5,301.55c-0.08,0-0.14-0.04-0.25-0.13c0.2-0.02,0.34-0.05,0.49,0.02
		C290.66,301.48,290.55,301.45,290.5,301.55z"/>
	<path class="st10" d="M306.94,276.46c-0.93,1.82-3.82,2.84-5.68,0.39C303.11,275.86,304.99,275.78,306.94,276.46z"/>
	<path class="st10" d="M280.16,279.69c1.74-1.15,3.61-1.42,5.63-0.91C284.87,280.86,282.08,281.84,280.16,279.69z"/>
</g>
<g id="Vector_Smart_Object_3_">
	<g>
		<defs>
			<rect id="SVGID_9_" x="337.72" y="18.73" width="144.39" height="113.68"/>
		</defs>
		<clipPath id="SVGID_2_">
			<use xlink:href="#SVGID_9_"  style="overflow:visible;"/>
		</clipPath>
		<g class="st22">
			<defs>
				<rect id="SVGID_11_" x="337.72" y="18.73" width="144.39" height="113.68"/>
			</defs>
			<clipPath id="SVGID_4_">
				<use xlink:href="#SVGID_11_"  style="overflow:visible;"/>
			</clipPath>
			<path class="st23" d="M474.22,131.46h-128.1c-1.58,0-2.87-1.29-2.87-2.87V68.83c0-1.58,1.29-2.87,2.87-2.87h128.1
				c1.58,0,2.87,1.29,2.87,2.87v59.76C477.09,130.17,475.81,131.45,474.22,131.46"/>
			<path class="st24" d="M346.13,65.96h128.1c1.59,0,2.87,1.29,2.87,2.87v59.76c0,1.59-1.29,2.87-2.87,2.87h-128.1
				c-1.59,0-2.87-1.28-2.87-2.87V68.83C343.26,67.25,344.54,65.96,346.13,65.96z"/>
			<path class="st24" d="M339.64,124.69h140.55c0.53,0,0.96,0.43,0.96,0.96v4.84c0,0.53-0.43,0.96-0.96,0.96H339.64
				c-0.53,0-0.96-0.43-0.96-0.96v-4.84C338.67,125.12,339.11,124.69,339.64,124.69z"/>
			<rect x="345.45" y="84.84" class="st25" width="4.59" height="13.56"/>
			<rect x="345.45" y="84.84" class="st26" width="4.59" height="13.56"/>
			<path class="st27" d="M356.85,84.37h3.46c0.59,0,1.06,0.47,1.06,1.06v11.51c0,0.59-0.47,1.06-1.06,1.06h-3.46
				c-0.59,0-1.06-0.47-1.06-1.06V85.43C355.79,84.84,356.26,84.37,356.85,84.37z"/>
			<path class="st27" d="M346.02,84.37h3.46c0.59,0,1.06,0.47,1.06,1.06v11.51c0,0.59-0.47,1.06-1.06,1.06h-3.46
				c-0.59,0-1.06-0.47-1.06-1.06V85.43C344.96,84.84,345.43,84.37,346.02,84.37z"/>
			<path class="st27" d="M367.68,84.37h3.46c0.59,0,1.06,0.47,1.06,1.06v11.51c0,0.59-0.47,1.06-1.06,1.06h-3.46
				c-0.59,0-1.06-0.47-1.06-1.06V85.43C366.62,84.84,367.09,84.37,367.68,84.37z"/>
			<path class="st27" d="M378.5,84.37h3.46c0.59,0,1.06,0.47,1.06,1.06v11.51c0,0.59-0.47,1.06-1.06,1.06h-3.46
				c-0.58,0-1.06-0.47-1.06-1.06V85.43C377.44,84.84,377.92,84.37,378.5,84.37z"/>
			<path class="st27" d="M391.65,84.37h3.46c0.59,0,1.06,0.47,1.06,1.06v11.51c0,0.59-0.47,1.06-1.06,1.06h-3.46
				c-0.59,0-1.06-0.47-1.06-1.06V85.43C390.59,84.84,391.07,84.37,391.65,84.37z"/>
			<path class="st27" d="M407.52,84.37h3.46c0.59,0,1.06,0.47,1.06,1.06v11.51c0,0.59-0.48,1.06-1.06,1.06h-3.46
				c-0.58,0-1.06-0.47-1.06-1.06V85.43C406.47,84.84,406.94,84.37,407.52,84.37z"/>
			<path class="st27" d="M422.63,84.37h3.46c0.59,0,1.06,0.47,1.06,1.06v11.51c0,0.59-0.47,1.06-1.06,1.06h-3.46
				c-0.59,0-1.06-0.47-1.06-1.06V85.43C421.57,84.84,422.05,84.37,422.63,84.37z"/>
			<path class="st27" d="M437.66,84.37h3.46c0.59,0,1.06,0.47,1.06,1.06v11.51c0,0.59-0.47,1.06-1.06,1.06h-3.46
				c-0.59,0-1.06-0.47-1.06-1.06V85.43C436.6,84.84,437.07,84.37,437.66,84.37z"/>
			<path class="st27" d="M448.69,84.37h3.46c0.59,0,1.06,0.47,1.06,1.06v11.51c0,0.59-0.47,1.06-1.06,1.06h-3.46
				c-0.59,0-1.06-0.47-1.06-1.06V85.43C447.63,84.84,448.1,84.37,448.69,84.37z"/>
			<path class="st27" d="M458.99,84.37h3.46c0.59,0,1.06,0.47,1.06,1.06v11.51c0,0.59-0.48,1.06-1.06,1.06h-3.46
				c-0.58,0-1.06-0.47-1.06-1.06V85.43C457.93,84.84,458.41,84.37,458.99,84.37z"/>
			<path class="st27" d="M469.91,84.37h3.46c0.59,0,1.06,0.47,1.06,1.06v11.51c0,0.59-0.48,1.06-1.06,1.06h-3.46
				c-0.58,0-1.06-0.47-1.06-1.06V85.43C468.85,84.84,469.33,84.37,469.91,84.37z"/>
			<path class="st27" d="M346.02,106.6h3.46c0.59,0,1.06,0.47,1.06,1.06v11.51c0,0.59-0.47,1.06-1.06,1.06h-3.46
				c-0.59,0-1.06-0.47-1.06-1.06v-11.51C344.96,107.07,345.43,106.6,346.02,106.6z"/>
			<path class="st27" d="M356.85,106.6h3.46c0.59,0,1.06,0.47,1.06,1.06v11.51c0,0.59-0.47,1.06-1.06,1.06h-3.46
				c-0.59,0-1.06-0.47-1.06-1.06v-11.51C355.79,107.07,356.27,106.6,356.85,106.6z"/>
			<path class="st27" d="M367.69,106.6h3.46c0.59,0,1.06,0.47,1.06,1.06v11.51c0,0.59-0.48,1.06-1.06,1.06h-3.46
				c-0.58,0-1.06-0.47-1.06-1.06v-11.51C366.63,107.07,367.11,106.6,367.69,106.6z"/>
			<path class="st27" d="M378.5,106.6h3.46c0.59,0,1.06,0.47,1.06,1.06v11.51c0,0.59-0.47,1.06-1.06,1.06h-3.46
				c-0.58,0-1.06-0.47-1.06-1.06v-11.51C377.44,107.07,377.92,106.6,378.5,106.6z"/>
			<path class="st27" d="M392.07,106.6h3.46c0.59,0,1.06,0.47,1.06,1.06v11.51c0,0.59-0.47,1.06-1.06,1.06h-3.46
				c-0.59,0-1.06-0.47-1.06-1.06v-11.51C391.01,107.07,391.49,106.6,392.07,106.6z"/>
			<path class="st27" d="M405.64,106.6h6.69c0.59,0,1.06,0.47,1.06,1.06v15.41c0,0.59-0.47,1.06-1.06,1.06h-6.69
				c-0.59,0-1.06-0.47-1.06-1.06v-15.41C404.58,107.07,405.06,106.6,405.64,106.6z"/>
			<path class="st27" d="M422.63,106.6h3.46c0.59,0,1.06,0.47,1.06,1.06v11.51c0,0.59-0.47,1.06-1.06,1.06h-3.46
				c-0.59,0-1.06-0.47-1.06-1.06v-11.51C421.57,107.07,422.05,106.6,422.63,106.6z"/>
			<path class="st27" d="M437.66,107h3.46c0.59,0,1.06,0.47,1.06,1.06v11.51c0,0.59-0.47,1.06-1.06,1.06h-3.46
				c-0.59,0-1.06-0.47-1.06-1.06v-11.51C436.6,107.48,437.07,107,437.66,107z"/>
			<path class="st27" d="M448.69,107h3.46c0.59,0,1.06,0.47,1.06,1.06v11.51c0,0.59-0.47,1.06-1.06,1.06h-3.46
				c-0.59,0-1.06-0.47-1.06-1.06v-11.51C447.63,107.48,448.1,107,448.69,107z"/>
			<path class="st27" d="M458.99,107h3.46c0.59,0,1.06,0.47,1.06,1.06v11.51c0,0.59-0.48,1.06-1.06,1.06h-3.46
				c-0.58,0-1.06-0.47-1.06-1.06v-11.51C457.93,107.48,458.41,107,458.99,107z"/>
			<path class="st27" d="M469.91,107h3.46c0.59,0,1.06,0.47,1.06,1.06v11.51c0,0.59-0.48,1.06-1.06,1.06h-3.46
				c-0.58,0-1.06-0.47-1.06-1.06v-11.51C468.85,107.48,469.33,107,469.91,107z"/>
			<path class="st28" d="M346.13,117.92h11.19c1.59,0,2.87,1.29,2.87,2.87v7.79c0,1.58-1.28,2.87-2.87,2.87h-11.19
				c-1.58,0-2.87-1.29-2.87-2.87v-7.79C343.26,119.21,344.55,117.93,346.13,117.92"/>
			<path class="st28" d="M369.8,117.92h11.19c1.59,0,2.87,1.29,2.87,2.87v7.79c0,1.58-1.28,2.87-2.87,2.87H369.8
				c-1.58,0-2.87-1.29-2.87-2.87v-7.79C366.93,119.21,368.22,117.93,369.8,117.92"/>
			<path class="st28" d="M438.27,117.92h11.17c1.58,0,2.86,1.29,2.87,2.87v7.79c0,1.58-1.28,2.87-2.87,2.87h-11.17
				c-1.58,0-2.87-1.29-2.87-2.87v-7.79C435.41,119.21,436.69,117.93,438.27,117.92"/>
			<path class="st28" d="M461.94,117.92h11.19c1.59,0,2.87,1.29,2.87,2.87v7.79c0,1.58-1.28,2.87-2.87,2.87h-11.19
				c-1.58,0-2.87-1.29-2.87-2.87v-7.79C459.08,119.21,460.36,117.93,461.94,117.92"/>
			<rect x="385.02" y="80.03" class="st24" width="4.45" height="44.1"/>
			<rect x="428.29" y="80.03" class="st24" width="4.45" height="44.1"/>
			<rect x="399.41" y="80.03" class="st27" width="4.55" height="44.1"/>
			<path class="st23" d="M478.16,80.03H342.09c-0.76,0-1.39-0.63-1.39-1.39v-2.61c0-0.76,0.62-1.39,1.39-1.39h136.07
				c0.76,0,1.39,0.63,1.39,1.39v2.61C479.55,79.4,478.92,80.02,478.16,80.03"/>
			<path class="st24" d="M342.09,74.62h136.07c0.77,0,1.39,0.62,1.39,1.39v2.63c0,0.77-0.62,1.39-1.39,1.39H342.09
				c-0.77,0-1.39-0.62-1.39-1.39v-2.63C340.7,75.24,341.32,74.62,342.09,74.62z"/>
			<rect x="414.55" y="80.03" class="st27" width="4.55" height="44.1"/>
			<path class="st24" d="M396.04,128.07h27.19c0.62,0,1.13,0.51,1.13,1.14v1.11c0,0.63-0.51,1.14-1.13,1.14h-27.19
				c-0.63,0-1.14-0.51-1.14-1.14v-1.11C394.91,128.58,395.42,128.07,396.04,128.07z"/>
			<rect x="399.41" y="124.99" class="st24" width="19.71" height="3.08"/>
			<rect x="385.02" y="65.96" class="st24" width="47.72" height="7.99"/>
			<rect x="383.03" y="58.07" class="st23" width="51.66" height="7.89"/>
			<rect x="383.03" y="58.07" class="st24" width="51.66" height="7.89"/>
			<polygon class="st23" points="408.82,42.12 385.29,57.3 432.36,57.3 			"/>
			<polygon class="st29" points="408.82,42.12 385.29,57.3 432.36,57.3 			"/>
			<rect x="416.06" y="21.52" class="st30" width="7.24" height="2.65"/>
			<rect x="414.67" y="26.99" class="st30" width="8.41" height="2.08"/>
			<path class="st31" d="M408.9,43.31L408.9,43.31c-0.7,0-1.26-0.56-1.26-1.26V19.99c0-0.7,0.56-1.26,1.26-1.26s1.26,0.56,1.26,1.26
				v22.06C410.15,42.74,409.59,43.3,408.9,43.31"/>
			<rect x="409.57" y="21.74" class="st32" width="6.49" height="7.33"/>
			<path class="st24" d="M410.16,21.09h12.19c0.7,0,1.26,0.56,1.26,1.26v9.88c0,0.7-0.57,1.26-1.26,1.26h-12.19
				c-0.7,0-1.26-0.57-1.26-1.26v-9.88C408.9,21.65,409.46,21.09,410.16,21.09z"/>
		</g>
	</g>
</g>
<g>
	<path class="st10" d="M334.67,252.89c5.24-0.11,19.52-1.13,31.26-11.65c11.08-9.92,12.27-15.58,13.8-22.81
		c4.54-21.48-2.59-36.44,2.14-53.2c2.06-7.31,7.11-17.93,21.45-28.81"/>
	<g>
		<path class="st33" d="M334.67,255.89c11.61-0.31,23.04-3.93,32.07-11.39c9.58-7.92,14.65-16.87,16.57-28.99
			c2.28-14.39-1.42-28.64,0.17-42.97c1.6-14.33,10.93-25.42,21.97-33.99c3.05-2.37-1.23-6.58-4.24-4.24
			c-9.58,7.44-17.89,16.74-21.71,28.45c-4.07,12.48-1.37,25.41-1.18,38.2c0.19,12.67-1.57,25.12-10.64,34.48
			c-8.89,9.17-20.26,14.1-32.99,14.44C330.81,250,330.8,256,334.67,255.89L334.67,255.89z"/>
	</g>
</g>
<g>
	<path class="st10" d="M458.81,269.19c2.18-12.86-0.22-21.39-3.06-26.97c-6.32-12.4-15.7-11.87-24.52-26.36
		c-6.21-10.19-7.73-20.57-8.58-26.36c-1.61-10.96,0.12-14.92-1.23-26.97c-1.15-10.33-3.66-18.51-5.52-23.64"/>
	<g>
		<path class="st34" d="M461.71,269.98c1.72-11.1,1.22-22.92-5.28-32.51c-2.82-4.17-6.55-7.19-10.49-10.24
			c-5.79-4.49-10.54-9.51-13.93-16.1c-5.55-10.81-7.23-23.3-7.07-35.31c0.17-12.89-1.82-25.55-6.15-37.71
			c-1.29-3.61-7.08-2.06-5.79,1.6c4.24,11.91,6.07,24.11,5.92,36.73c-0.12,10.87,1.33,22.1,5.4,32.24
			c2.37,5.91,5.59,11.49,9.9,16.21c3.54,3.88,7.92,6.69,11.88,10.08c9.87,8.46,11.71,21.14,9.81,33.44
			C455.34,272.17,461.12,273.79,461.71,269.98L461.71,269.98z"/>
	</g>
</g>
</svg>
