<?xml version="1.0" encoding="utf-8"?>
<!-- Generator: Adobe Illustrator 24.1.0, SVG Export Plug-In . SVG Version: 6.00 Build 0)  -->
<svg version="1.1" id="Layer_1" xmlns="http://www.w3.org/2000/svg" xmlns:xlink="http://www.w3.org/1999/xlink" x="0px" y="0px"
	 viewBox="0 0 500 400" style="enable-background:new 0 0 500 400;" xml:space="preserve">
<style type="text/css">
	.st0{fill:#FDFDFD;}
	.st1{fill:#4672B7;}
	.st2{fill:#FEFEFE;}
	.st3{fill:#010101;}
	.st4{fill:#020202;}
	.st5{fill:#4C4C4C;}
	.st6{fill:#B1B1B1;}
	.st7{fill:#7F7F7F;}
	.st8{fill:#DEDEDE;}
	.st9{fill:#C3C3C3;}
	.st10{fill:#FFFFFF;}
	.st11{fill:#FEC4C6;}
	.st12{fill:#FEE4E5;}
	.st13{fill:#FEDFE0;}
	.st14{fill:#FC474E;}
	.st15{fill:#CBD8D8;}
	.st16{fill:#668787;}
	.st17{fill:#AAB6B6;}
	.st18{fill:#5C6565;}
	.st19{fill:#C5D1D1;}
	.st20{fill:#8C9393;}
	.st21{fill:#CCDDDD;}
	.st22{clip-path:url(#SVGID_2_);}
	.st23{clip-path:url(#SVGID_4_);fill:#F2F2F2;}
	.st24{clip-path:url(#SVGID_4_);fill:none;stroke:#000000;stroke-width:1.9146;stroke-miterlimit:10;}
	.st25{clip-path:url(#SVGID_4_);fill:#FFFFFF;}
	.st26{clip-path:url(#SVGID_4_);fill:none;stroke:#000000;stroke-width:0.4775;stroke-miterlimit:10;}
	.st27{clip-path:url(#SVGID_4_);fill:none;stroke:#000000;stroke-width:1.6736;stroke-miterlimit:10;}
	.st28{clip-path:url(#SVGID_4_);fill:#004B15;}
	.st29{clip-path:url(#SVGID_4_);fill:none;stroke:#000000;stroke-width:1.9146;stroke-linecap:round;stroke-miterlimit:10;}
	.st30{clip-path:url(#SVGID_4_);fill:#C1272D;}
	.st31{clip-path:url(#SVGID_4_);}
	.st32{clip-path:url(#SVGID_4_);fill:#092096;}
	.st33{fill:#FF3A3E;}
	.st34{fill:#0077FF;}
	.st35{clip-path:url(#SVGID_6_);}
	.st36{clip-path:url(#SVGID_8_);fill:#F2F2F2;}
	.st37{clip-path:url(#SVGID_8_);fill:none;stroke:#000000;stroke-width:1.9146;stroke-miterlimit:10;}
	.st38{clip-path:url(#SVGID_8_);fill:#FFFFFF;}
	.st39{clip-path:url(#SVGID_8_);fill:none;stroke:#000000;stroke-width:0.4775;stroke-miterlimit:10;}
	.st40{clip-path:url(#SVGID_8_);fill:none;stroke:#000000;stroke-width:1.6736;stroke-miterlimit:10;}
	.st41{clip-path:url(#SVGID_8_);fill:#004B15;}
	.st42{clip-path:url(#SVGID_8_);fill:none;stroke:#000000;stroke-width:1.9146;stroke-linecap:round;stroke-miterlimit:10;}
	.st43{clip-path:url(#SVGID_8_);fill:#C1272D;}
	.st44{clip-path:url(#SVGID_8_);}
	.st45{clip-path:url(#SVGID_8_);fill:#092096;}
	.st46{clip-path:url(#SVGID_10_);}
	.st47{clip-path:url(#SVGID_12_);fill:#F2F2F2;}
	.st48{clip-path:url(#SVGID_12_);fill:none;stroke:#000000;stroke-width:1.9146;stroke-miterlimit:10;}
	.st49{clip-path:url(#SVGID_12_);fill:#FFFFFF;}
	.st50{clip-path:url(#SVGID_12_);fill:none;stroke:#000000;stroke-width:0.4775;stroke-miterlimit:10;}
	.st51{clip-path:url(#SVGID_12_);fill:none;stroke:#000000;stroke-width:1.6736;stroke-miterlimit:10;}
	.st52{clip-path:url(#SVGID_12_);fill:#004B15;}
	.st53{clip-path:url(#SVGID_12_);fill:none;stroke:#000000;stroke-width:1.9146;stroke-linecap:round;stroke-miterlimit:10;}
	.st54{clip-path:url(#SVGID_12_);fill:#C1272D;}
	.st55{clip-path:url(#SVGID_12_);}
	.st56{clip-path:url(#SVGID_12_);fill:#092096;}
</style>
<g>
	<path class="st0" d="M366.19,259.31c-0.33,0.35-0.65,0.72-0.99,1.06c-2.72,2.73-5.45,5.46-8.18,8.18c-0.19,0.19-0.4,0.35-0.6,0.53
		c0-3.1,0.01-6.2-0.01-9.29c0-0.4,0.08-0.49,0.48-0.48C359.99,259.32,363.09,259.31,366.19,259.31z"/>
	<path d="M413.58,271.98c0.87,0.34,1.8,0.15,2.69,0.22c1.97,0.14,3.9,0.44,5.82,0.9c3.06,0.73,5.97,1.85,8.65,3.52
		c0.7,0.44,1.39,0.89,2.09,1.34c0.62,0.65,1.3,1.26,1.97,1.84c1.23,1.04,2.18,2.29,3.03,3.61c0.44,0.68,0.73,1.48,0.95,2.26
		c0.52,1.84,0.93,3.71,1.42,5.56c0.09,0.34-0.1,0.74,0.24,1.02c0.1,0.23-0.06,0.5,0.11,0.72l0.01,0.01
		c0.15,0.23-0.04,0.51,0.13,0.74c0.24,1.36,0.48,2.72,0.73,4.08c0.18,0.22-0.03,0.51,0.15,0.73c0.01,0.05,0.03,0.1,0.04,0.14
		c0.1,0.23-0.06,0.5,0.11,0.72l0.01,0.01c0.15,0.23-0.04,0.51,0.13,0.74c0.01,0.05,0.03,0.1,0.04,0.14c0.1,0.23-0.06,0.5,0.11,0.72
		l0.01,0.01c0.15,0.23-0.04,0.51,0.13,0.74c0.01,0.05,0.03,0.1,0.04,0.14c0.1,0.23-0.06,0.5,0.11,0.72l0.01,0.01
		c0.15,0.23-0.04,0.51,0.13,0.74c0.01,0.05,0.03,0.1,0.04,0.14c0.09,0.23-0.05,0.5,0.11,0.73c0.13,1.47,0.36,2.94,0.48,4.41
		c0.09,1.1,0.16,2.19,0.24,3.29c0.14,1.9,0.3,3.8,0.33,5.71c0.04,2.09,0.16,4.2-0.4,6.24c-0.3,1.09-1.03,1.39-2.18,1.05
		c-0.33,0.51,0.18,0.89,0.24,1.33c0.31,2.15,0.01,4.23-0.77,6.21c-0.37,0.95-0.99,1.79-1.18,2.84c-0.27,1.44-0.31,2.9-0.43,4.35
		c-0.02,0.19-0.14,0.37-0.06,0.6c0.07,0.24-0.27,0.73,0.4,0.41c0.2-0.1,0.39,0.16,0.53,0.32c1.75,2.06,3.97,3.53,6.22,4.94
		c1.45,0.91,3.05,1.49,4.66,2.04c1.78,0.6,3.61,0.97,5.45,1.25c1.21,0.19,2.43,0.36,3.66,0.52c-0.35,0.97-0.94,1.15-1.91,0.98
		c-2.16-0.37-4.36-0.55-6.46-1.2c-1.59-0.49-3.2-0.95-4.67-1.75c-0.64-0.35-1.27-0.71-1.89-1.08c-0.98-0.58-1.92-1.19-2.8-1.91
		c-0.62-0.51-1.19-1.12-1.97-1.5c0.06,0.81,0.38,1.53,0.51,2.3c0.21,1.27,0.02,2.46-0.34,3.62c-0.76,2.44-1.23,4.95-1.89,7.42
		c-0.45,1.69-0.87,3.38-1.36,5.06c-0.63,2.2-1.15,4.42-1.57,6.67c-0.07,0.37-0.24,0.69-0.68,0.79c-0.24,0.05-0.54,0.21-0.68,0.05
		c-0.14-0.17-0.08-0.56-0.02-0.74c0.41-1.13,0.5-2.33,0.83-3.48c0.06-0.2,0.1-0.4-0.22-0.38c-0.47,0.02-0.69-0.28-0.93-0.63
		c-0.74-1.09-1.77-1.91-2.68-2.84c-0.26-0.27-0.42-0.14-0.63,0.1c-0.93,1.11-1.9,2.19-2.83,3.3c-0.16,0.19-0.31,0.35-0.49,0.51
		c-0.46,0.42-0.56,0.88-0.2,1.46c0.49,0.82,0.94,1.66,1.33,2.53c0.29,0.63,0.93,1.03,1.06,1.78c-0.41-0.03-0.75,0.3-1.17,0.17
		c-0.42-0.11-0.61-0.45-0.8-0.79c-0.62-1.07-1.18-2.17-1.7-3.28c-0.19-0.4-0.43-0.53-0.84-0.52c-1.15,0.01-2.26,0.24-3.34,0.59
		c-0.27,0.09-0.44,0.27-0.59,0.5c-0.9,1.4-1.91,2.74-2.31,4.41c-0.04,0.17-0.16,0.29-0.31,0.39c-0.41,0-0.82,0-1.28,0
		c0.52-1.58,0.93-3.18,2.07-4.47c0.31-0.35,0.74-0.69-0.01-1.32c-0.85-0.72-1.59-1.65-2.32-2.54c-0.36-0.44-0.74-0.86-1.13-1.31
		c-1.15,1.14-1.91,2.52-2.72,3.88c-0.63,1.05-1.24,2.11-1.56,3.3c-0.02,0.07-0.07,0.15-0.12,0.17c-0.68,0.26-0.51,0.65-0.2,1.1
		c0.18,0.26,0.5,0.67,0.18,0.87c-0.27,0.16-0.76,0-1.1-0.21c-0.18-0.11-0.36-0.28-0.44-0.47c-0.84-1.86-1.95-3.56-2.99-5.3
		c-0.82-1.38-1.72-2.72-2.52-4.11c-0.83-1.43-1.44-2.97-2.01-4.53c-0.36-0.99-0.62-1.99-0.93-2.99c-0.37-1.21-0.55-2.45-0.76-3.69
		c-0.09-0.54-0.25-1.06-0.24-1.63c0.01-0.5,0.21-0.69,0.68-0.72c0.53-0.03,0.52,0.42,0.55,0.7c0.07,0.85,0.24,1.67,0.39,2.5
		c0.43,2.37,1.12,4.65,2.06,6.88c1,2.39,2.33,4.58,3.72,6.75c0.87,1.37,1.67,2.78,2.55,4.25c0.76-1.95,1.78-3.74,2.94-5.45
		c1.17-1.72,2.46-3.35,3.97-4.76c-2.99-1.51-5.19-4.06-7.76-6.12c-1.54-1.23-3.14-2.36-4.73-3.51c-1.19-0.85-2.26-1.81-3.16-2.96
		c-0.26-0.33-0.36-0.75-0.52-1.11c-0.36-0.82-0.43-1.75-0.66-2.63c-0.29-1.09-0.51-2.22-0.96-3.25c-0.81-1.85-1.34-3.76-1.67-5.75
		c-0.23-1.41-0.52-2.82-1.14-4.13c-0.31-0.64-0.45-0.63-0.86-0.06c-0.3,0.42-0.58,0.88-0.95,1.23c-1.35,1.28-2.49,0.81-3.28-0.6
		c-0.57-1-0.83-2.14-1.21-3.23c-0.8-2.28-1.45-4.6-2.23-6.88c-0.8-2.32-1.42-4.69-1.88-7.11c-0.26-1.4-0.61-2.8-1-4.16
		c-0.33-1.13-0.71-2.26-0.97-3.39c-0.37-1.61-0.32-3.29-0.31-4.94c0.01-2.03,0.2-4.03,0.64-6.01c0.58-2.56,1.49-4.99,2.75-7.3
		c0.77-1.41,1.68-2.73,2.67-3.97c1.1-1.36,2.35-2.58,3.68-3.73c1.12-0.96,2.32-1.8,3.54-2.6c0.79-0.52,1.66-0.94,2.5-1.39
		c1.4-0.75,2.85-1.36,4.36-1.84c1.65-0.52,3.32-0.91,5.04-1.19c1.43-0.23,2.86-0.3,4.3-0.33
		C413.32,272.12,413.45,272.03,413.58,271.98z"/>
	<path class="st1" d="M418.24,372.22c0.48-1.44,1.2-2.75,1.93-4.09c0.95-1.74,2.45-1.67,3.93-1.97c0.21-0.04,0.44,0.02,0.65-0.02
		c0.58-0.11,0.8,0.11,1.06,0.68c0.67,1.42,1.29,2.88,2.31,4.1c-0.97,0.35-1.99,0.41-2.99,0.61
		C422.87,371.99,420.55,372.1,418.24,372.22z"/>
	<path d="M383.82,360.32c-0.37-0.08-0.6-0.41-0.88-0.63c-0.23-0.18,0.13-0.31,0.26-0.37c1.28-0.6,2.56-1.2,3.86-1.76
		c1.44-0.62,2.82-1.43,4.35-1.79c2.35-0.56,3.19-2.59,4.42-4.25c0.85-1.14,1.57-2.38,2.49-3.46c0.49-0.58,0.93-1.24,1.58-1.7
		c0.34-0.25,0.6-0.32,0.92-0.03c0.34,0.31,0.18,0.64-0.02,0.9c-0.43,0.53-0.93,1-1.37,1.52c-1.43,1.71-2.76,3.51-3.92,5.4
		c-0.91,1.48-2.2,2.3-3.8,2.8c-1.56,0.48-3.02,1.2-4.49,1.91c-1.04,0.5-2.14,0.9-3.17,1.43
		C383.99,360.32,383.91,360.31,383.82,360.32z"/>
	<path class="st0" d="M442.59,304.21c-0.24-0.21-0.08-0.49-0.11-0.73C442.67,303.7,442.57,303.96,442.59,304.21z"/>
	<path class="st0" d="M442.44,303.33c-0.25-0.21-0.05-0.5-0.13-0.74C442.54,302.81,442.41,303.08,442.44,303.33z"/>
	<path class="st0" d="M442.15,301.73c-0.25-0.21-0.05-0.5-0.13-0.74C442.25,301.2,442.12,301.48,442.15,301.73z"/>
	<path class="st0" d="M442.01,300.99c-0.26-0.2-0.07-0.48-0.11-0.72C442.09,300.48,441.98,300.75,442.01,300.99z"/>
	<path class="st0" d="M441.86,300.12c-0.25-0.21-0.05-0.5-0.13-0.74C441.96,299.6,441.83,299.88,441.86,300.12z"/>
	<path class="st0" d="M441.72,299.38c-0.26-0.2-0.07-0.48-0.11-0.72C441.79,298.88,441.69,299.14,441.72,299.38z"/>
	<path class="st0" d="M441.57,298.52c-0.26-0.2-0.04-0.5-0.15-0.73C441.67,297.99,441.54,298.27,441.57,298.52z"/>
	<path class="st0" d="M440.7,293.71c-0.25-0.21-0.05-0.5-0.13-0.74C440.79,293.19,440.67,293.46,440.7,293.71z"/>
	<path class="st0" d="M440.56,292.97c-0.26-0.2-0.07-0.48-0.11-0.72C440.63,292.47,440.52,292.73,440.56,292.97z"/>
	<path class="st0" d="M442.3,302.59c-0.26-0.2-0.07-0.48-0.11-0.72C442.38,302.09,442.27,302.35,442.3,302.59z"/>
	<path class="st2" d="M390.21,322.73c0.26,0.28,0.51,0.57,0.78,0.85c0.29,0.3,0.6,0.59,1.02,0.19c0.4-0.38,0.18-0.76-0.11-1.04
		c-0.51-0.52-0.96-1.08-1.26-1.74c-0.44-1-0.56-2.03,0.1-2.71c0.43-0.43,1.08-0.35,1.57-0.66c0.13-0.03,0.2,0.05,0.27,0.15
		c0.14,0.25,0.09,0.51,0.09,0.78c-0.05,2.41,0.18,4.78,0.97,7.08c0.03,0.09,0.07,0.18,0.11,0.27c0.1,0.28,0.21,0.6,0.59,0.5
		c0.41-0.11,0.26-0.44,0.2-0.72c-0.17-0.75-0.43-1.48-0.59-2.24c-0.45-2.08-0.53-4.17-0.32-6.28c0.01-0.1,0.02-0.19,0.03-0.29
		c0.01-0.29,0.07-0.65-0.3-0.72c-0.4-0.08-0.44,0.28-0.51,0.56c-0.04,0.17-0.07,0.33-0.19,0.46c-0.06,0.06-0.13,0.06-0.2,0.01
		c-0.16-0.44-0.43-0.63-0.93-0.52c-1.29,0.29-2.08,0.71-2.51,2.76c-0.39-1.18-0.79-2.27-1.1-3.38c-0.3-1.07-0.51-2.17-0.73-3.26
		c-0.06-0.29-0.06-0.43,0.41-0.34c1.8,0.35,3.31,1.18,4.62,2.44c0.22,0.21,0.42,0.45,0.78,0.47c0.28,0.02,0.46-0.08,0.6-0.3
		c0.14-0.23,0.06-0.41-0.1-0.58c-1.33-1.55-3.04-2.5-4.97-3.07c-0.48-0.14-0.97-0.37-1.5-0.31c-0.14,0.01-0.24-0.08-0.27-0.27
		c-0.22-1.05-0.59-2.07-0.72-3.15c1.32-0.06,2.59,0.2,3.86,0.51c0.37,0.09,0.91,0.43,1.08-0.1c0.18-0.58-0.47-0.61-0.86-0.73
		c-0.96-0.28-1.94-0.4-2.93-0.53c-0.46-0.06-0.92-0.05-1.29,0.3c-0.45-0.76-0.56-1.61-0.7-2.45c0.08-0.13,0.19-0.23,0.35-0.25
		c0.78-0.01,1.55-0.18,2.3-0.36c0.84-0.2,1.74,0.04,2.56-0.43c0.31-0.18,0.14,0.32,0.31,0.43c0.11,1.41,0.54,2.76,0.9,4.12
		c0.46,1.74,1.06,3.44,1.58,5.16c0.12,0.39,0.4,0.51,0.69,0.42c0.31-0.1,0.59-0.35,0.46-0.77c-0.37-1.18-0.74-2.36-1.11-3.54
		c-0.56-1.78-0.99-3.59-1.36-5.42c-0.51-2.49-0.64-5.02-0.79-7.54c-0.09-1.41-0.31-2.79-0.43-4.19c-0.1-1.12,0.33-2,1.11-2.7
		c1.16-1.05,2.53-1.75,3.97-2.34c2.45-0.99,5.07-1.26,7.61-1.84c2.05-0.47,4.11-0.91,6.17-1.34c1.77-0.37,3.55-0.69,5.32-1.05
		c2.3-0.47,4.6-0.97,6.9-1.46c1.55-0.33,3.11-0.68,4.66-1c0.53-0.11,1.02-0.4,1.58-0.4c0.83,0.01,1.59,0.3,2.19,0.84
		c1.17,1.04,2.16,2.21,2.85,3.65c1.47,3.1,1.91,6.38,1.95,9.77c0.03,2.34,0.26,4.69,0.59,7.02c0.24,1.68,0.45,3.36,0.65,5.04
		c0.05,0.44,0.24,0.8,0.68,0.76c0.51-0.04,0.62-0.51,0.56-0.93c-0.15-1.09-0.34-2.18-0.52-3.27c-0.03-0.14,0.05-0.19,0.16-0.21
		c0.63,0.19,1.17-0.1,1.7-0.37c0.69-0.34,1.37-0.71,2.09-1c0.25,0.94,0.38,1.9,0.52,2.86c0.04,0.26-0.14,0.27-0.33,0.36
		c-1.57,0.69-2.94,1.6-3.65,3.26c-0.26,0.62-0.42,1.26-0.49,1.92c-0.04,0.37,0.14,0.74,0.51,0.77c0.33,0.03,0.62-0.11,0.7-0.61
		c0.27-1.84,0.9-3.22,3.47-4.19c0.36,2.6,0.47,5.2,0.65,7.8c0.19,2.64,0.32,5.26,0.17,7.9c-0.04,0.64-0.06,1.29-0.33,1.92
		c-0.22,0.52-0.37,0.49-0.78,0.23c-0.4-0.25-0.76-0.55-1.22-0.71c-0.45-0.15-0.73,0.04-0.94,0.31c-0.19,0.25-0.23,0.61-0.03,0.92
		c1.85,2.95,1.26,5.85-0.19,8.72c-0.62,1.23-0.86,2.54-0.96,3.9c-0.12,1.69-0.18,3.39-0.5,5.06c-0.2,1.06-0.61,2.08-1.21,2.97
		c-1.8,2.67-3.58,5.37-5.62,7.86c-1.18,1.44-2.43,2.83-4.09,3.75c-1.8,0.99-3.74,1.61-5.8,1.74c-1.81,0.11-3.58-0.1-5.03-1.3
		c-1.59-1.3-3.13-2.67-4.67-4.03c-1.85-1.63-3.93-2.96-5.87-4.48c-0.69-0.54-1.42-1.04-2.04-1.66c-0.83-0.84-1.22-1.92-1.45-3.04
		c-0.42-2.07-1.01-4.06-1.87-6c-0.63-1.41-0.84-2.95-1.12-4.47c-0.27-1.46-0.51-2.94-1.22-4.28c-0.7-1.31-1.83-1.4-2.73-0.22
		c-0.29,0.38-0.57,0.77-0.89,1.12c-0.61,0.65-0.98,0.57-1.42-0.21c-0.47-0.84-0.81-1.74-1.07-2.65c-0.41-1.44-0.92-2.85-1.33-4.29
		C390.08,322.65,390.15,322.66,390.21,322.73z"/>
	<path class="st2" d="M393.89,286.57c0.33-0.49,0.2-0.81-0.32-1.06c-1.04-0.51-2.13-0.81-3.39-0.78c0.71-1,1.47-1.84,2.35-2.65
		c0.07,0.55,0.47,0.71,0.91,0.81c1.6,0.35,3.09,1.02,4.54,1.75c0.39,0.2,0.67,0.1,0.84-0.18c0.16-0.26,0.18-0.61-0.2-0.81
		c-0.55-0.28-1.07-0.63-1.65-0.85c-1.28-0.49-2.55-1.04-4.1-1.26c1.08-0.76,1.88-1.6,2.83-2.29c1.31-0.96,2.67-1.83,4.11-2.57
		c0.9-0.46,1.77-1.04,2.81-1.17c-0.39,0.95-0.39,1.03,0.68,1.29c2.33,0.58,4.01,1.99,5.27,3.96c0.17,0.27,0.34,0.63,0.72,0.42
		c0.45-0.24,0.16-0.61,0-0.88c-1.29-2.04-3.02-3.52-5.37-4.21c-0.46-0.14-0.96-0.18-1.31-0.57c0.98-0.68,2.15-0.9,3.26-1.22
		c2.03-0.58,4.13-0.86,6.22-0.98c1.82-0.1,3.66-0.04,5.48,0.2c2.01,0.26,4.01,0.6,5.95,1.22c0.14,0.3-0.04,0.46-0.27,0.57
		c-1.33,0.61-2.34,1.6-3.21,2.74c-0.24,0.31-0.75,0.72-0.24,1.1c0.49,0.36,0.69-0.23,0.91-0.54c0.77-1.09,1.72-1.95,2.93-2.52
		c0.42-0.2,0.46-0.45,0.2-0.79c-0.12-0.16-0.35-0.29-0.2-0.56c0.94,0.34,1.87,0.69,2.81,1.02c0.17,0.06,0.31,0.1,0.37,0.28
		c-0.78,0.63-1.62,1.19-2.24,2.01c-0.37,0.49-0.48,0.93-0.04,1.41c0.03,0.07,0.02,0.13-0.01,0.19c-0.91,0.38-1.89,0.45-2.83,0.67
		c-1.8,0.43-3.63,0.75-5.44,1.13c-2.06,0.43-4.12,0.86-6.18,1.3c-2.1,0.45-4.2,0.92-6.31,1.36c-1.44,0.3-2.89,0.56-4.34,0.83
		c-1.8,0.34-3.54,0.84-5.18,1.66c-0.1,0.05-0.23,0.05-0.35,0.07c-0.04-0.03-0.05-0.06-0.03-0.08
		C393.87,286.58,393.88,286.57,393.89,286.57z"/>
	<path class="st2" d="M438.48,342.9c0.98,1.85,1.26,3.71,0.66,5.69c-0.47,1.56-0.89,3.14-1.24,4.74c-0.57,2.6-1.27,5.16-2.03,7.71
		c-0.25,0.86-0.45,1.73-0.69,2.7c-2.01-2.9-4.59-4.93-7.76-6.38c2.64-1.79,4.53-4.17,6.22-6.71
		C435.33,348.15,437.4,345.86,438.48,342.9z"/>
	<path class="st1" d="M425.04,364.96c-1.47,0.09-2.79,0.18-4.03,0.74c-0.45,0.2-0.84,0.25-1.21-0.18c-1-1.17-2.01-2.33-3.05-3.46
		c-0.4-0.43-0.41-0.73,0.04-1.12c0.53-0.45,1.01-0.96,1.52-1.43c0.14-0.12,0.28-0.18,0.51-0.16c1.71,0.17,3.38-0.03,5.03-0.56
		c0.67-0.22,1.36-0.39,2-0.7c0.14-0.07,0.4-0.02,0.55,0.07c1.03,0.56,2.11,1,3.08,1.67c0.32,0.23,0.26,0.28,0.06,0.51
		c-1.29,1.5-2.57,3.01-3.86,4.52C425.46,365.14,425.15,364.87,425.04,364.96z"/>
	<path class="st2" d="M393.45,286.85c-0.28,0.57-0.92,0.66-1.38,0.94c-2.09,1.29-3.02,3.06-2.6,5.48c0.08,0.48,0.01,0.46-0.41,0.35
		c-1.04-0.28-2.09-0.13-3.13,0.07c0.07-1.73,2.47-6.85,3.85-8.36c0.21,0.46,0.53,0.65,1.06,0.65c0.88,0,1.71,0.29,2.48,0.74
		C393.37,286.75,393.42,286.79,393.45,286.85z"/>
	<path class="st2" d="M385,303.76c0.05-1.19-0.15-2.37-0.04-3.56c0.03-0.29,0.03-0.34,0.31-0.37c1.48-0.15,2.92-0.5,4.43-0.47
		c0.45,0.01,0.38,0.14,0.39,0.39c0.02,0.97,0.12,1.92,0.35,2.86c0.13,0.48,0.01,0.59-0.53,0.54c-1.48-0.15-2.93,0.12-4.35,0.54
		C385.37,303.73,385.2,303.86,385,303.76z"/>
	<path class="st2" d="M436.77,302.29c-0.14-1.28-0.3-2.56-0.43-3.84c-0.04-0.38-0.08-0.82,0.55-0.76c0.27,0.03,0.5-0.17,0.61-0.34
		c0.47-0.74,1.34-0.99,1.88-1.63c0.16-0.19,0.36-0.3,0.44,0.14c0.32,1.65,0.68,3.29,0.87,4.96c-1.29,0.14-2.31,0.94-3.48,1.41
		c-0.09,0.04-0.17,0.09-0.26,0.12C436.88,302.37,436.82,302.34,436.77,302.29z"/>
	<path class="st2" d="M424.51,279.68c0-0.03,0-0.06,0-0.08c0.58-0.66,1.05-1.42,1.74-1.98c0.44-0.36,0.89-0.73,1.18-1.24
		c0.43-0.08,0.7,0.24,1.04,0.4c1.94,0.93,3.7,2.1,5.22,3.62c0.33,0.33,0.72,0.61,1.08,0.92c-0.43,0.52-1.1,0.52-1.53,0.91
		c-0.24,0.22-0.27-0.04-0.36-0.14c-0.58-0.62-1.12-1.29-1.76-1.85c-1.47-1.3-3.15-1.52-4.99-0.87
		C425.61,279.53,425.08,279.72,424.51,279.68z"/>
	<path class="st2" d="M384.99,298.78c0.1-1.16,0.23-2.25,0.44-3.33c0.04-0.23,0.12-0.44,0.36-0.49c1.03-0.21,2.06-0.44,3.12-0.13
		c0.14,0.04,0.27,0.11,0.41,0.04c0.35-0.15,0.46,0.11,0.45,0.34c-0.05,0.9,0.17,1.77,0.16,2.66c0,0.43-0.12,0.34-0.38,0.33
		C388.02,298.14,386.52,298.29,384.99,298.78z"/>
	<path class="st2" d="M438.05,287.43c0.05,0.22-0.12,0.29-0.23,0.42c-0.49,0.58-1.22,0.82-1.8,1.28c-0.37,0.3-0.37-0.22-0.41-0.35
		c-0.17-0.54-0.26-1.1-0.4-1.65c-0.31-1.23-0.82-2.39-1.37-3.52c-0.13-0.27-0.11-0.34,0.15-0.54c0.39-0.3,0.91-0.28,1.27-0.65
		c0.21-0.22,0.4,0.05,0.53,0.2c0.74,0.89,1.31,1.88,1.68,2.98C437.68,286.2,437.86,286.82,438.05,287.43z"/>
	<path class="st0" d="M436.33,296.78c-0.28-0.96-0.09-1.85-0.22-2.72c-0.04-0.3,0.52-0.49,0.86-0.63c0.63-0.27,1.26-0.53,1.82-0.92
		c0.23-0.16,0.36-0.09,0.41,0.14c0.11,0.54,0.2,1.08,0.3,1.61c0.02,0.1,0.03,0.17-0.09,0.22
		C438.18,294.92,437.29,295.82,436.33,296.78z"/>
	<path class="st3" d="M423.63,274.75c0.6,0.95,0.61,0.95-0.48,1.74c-1.02,0.75-2,1.54-2.59,2.7c-0.21,0.4-0.63,0.4-0.93,0.22
		c-0.28-0.17-0.38-0.49-0.13-0.86c0.63-0.93,1.25-1.86,2.21-2.49c0.51-0.33,0.95-0.79,1.57-0.96c0.16-0.04,0.33-0.13,0.23-0.36
		C423.55,274.75,423.59,274.75,423.63,274.75z"/>
	<path class="st4" d="M385,303.76c1.71-0.9,3.53-0.88,5.4-0.78c0-0.04,0.02-0.21,0.03-0.37c0.15,0.47,0.27,0.95,0.25,1.46
		c-0.21-0.08-0.05-0.32-0.22-0.44c-0.24,0.47-0.64,0.45-1.12,0.47c-1.12,0.05-2.25,0.14-3.33,0.49c-0.2,0.07-0.37-0.05-0.56-0.06
		c-0.38,0.06-0.31-0.3-0.45-0.47C385,303.95,385,303.85,385,303.76z"/>
	<path class="st3" d="M385.87,307.11c0.1-0.75,0.75-0.55,1.12-0.51c1.24,0.13,2.48,0.35,3.69,0.69c0.39,0.11,0.62,0.44,0.56,0.83
		c-0.06,0.4-0.39,0.46-0.78,0.37c-0.87-0.2-1.73-0.41-2.61-0.55c-0.61-0.1-1.25,0-1.83-0.27
		C386.04,307.46,385.96,307.28,385.87,307.11z"/>
	<path class="st0" d="M438.36,289.03c0.33,0.52,0.25,1.06,0.42,1.56c0.15,0.43,0.21,0.81-0.5,0.9c-0.48,0.06-0.94,0.43-1.39,0.68
		c-0.67,0.37-0.85,0.3-0.88-0.45c-0.01-0.21-0.05-0.42-0.08-0.63c-0.05-0.34-0.01-0.63,0.45-0.83
		C437.08,289.96,437.7,289.46,438.36,289.03z"/>
	<path class="st4" d="M427.43,276.37c-0.02,0.34-0.11,0.56-0.43,0.81c-0.64,0.51-1.35,0.99-1.73,1.78
		c-0.15,0.31-0.47,0.46-0.76,0.63c-0.58-0.35-0.69-0.83-0.28-1.35c0.7-0.91,1.41-1.82,2.58-2.19
		C427.05,276.09,427.28,276.16,427.43,276.37z"/>
	<path class="st4" d="M436.9,302.29c0.28-0.46,0.83-0.44,1.23-0.68c0.61-0.36,1.3-0.58,1.92-0.92c0.3-0.17,0.42,0.11,0.64,0.13
		c0.11,0.2,0.19,0.41,0.14,0.65c-0.28,0.54-0.89,0.57-1.35,0.8c-0.49,0.26-0.99,0.53-1.52,0.74c-0.4,0.16-0.65,0.19-0.94-0.09
		C436.91,302.73,436.85,302.52,436.9,302.29z"/>
	<path class="st5" d="M436.9,302.29c0.09,0.2,0.19,0.4,0.13,0.63c-0.05,0.04-0.1,0.08-0.15,0.12c-0.25-0.22-0.05-0.51-0.1-0.76
		C436.81,302.3,436.86,302.3,436.9,302.29z"/>
	<path class="st6" d="M390.21,322.73c-0.07-0.01-0.13-0.02-0.2-0.02c-0.17-0.16-0.26-0.34-0.14-0.57
		C390.06,322.29,390.14,322.51,390.21,322.73z"/>
	<path class="st7" d="M384.99,304.04c0.15,0.16,0.3,0.31,0.45,0.47c-0.09,0.05-0.19,0.1-0.28,0.14
		C385.03,304.48,384.97,304.27,384.99,304.04z"/>
	<path class="st8" d="M393.45,286.85c-0.05-0.04-0.09-0.08-0.14-0.12c0.24,0.09,0.37-0.17,0.59-0.16c0.02,0.04,0.02,0.08,0,0.13
		C393.81,286.94,393.59,286.79,393.45,286.85z"/>
	<path class="st9" d="M392.45,317.17c0.03-0.02,0.07-0.02,0.1,0c0.21,0.24,0.24,0.46-0.08,0.63c-0.05-0.06-0.1-0.12-0.16-0.17
		C392.35,317.47,392.4,317.32,392.45,317.17z"/>
	<path d="M409.93,331.51c2.34,2.14,4.98,3.19,8.01,2.98c2.08-0.15,4-0.85,5.81-1.96c0.78-0.48,1.5-1.02,2.24-1.53
		c0.25-0.17,0.48-0.41,0.79-0.03c0.29,0.37,0.31,0.72-0.03,1.02c-0.41,0.36-0.84,0.71-1.31,1c-2.68,1.69-5.51,2.89-8.78,2.7
		c-3.01-0.18-5.63-1.26-7.72-3.47c-0.47-0.5-0.41-1.44,0.42-1.73c0.96-0.33,1.93-0.33,2.9-0.27c2.22,0.12,4.45,0.17,6.67,0.08
		c1.7-0.07,3.4-0.27,5.07-0.61c1.27-0.26,2.55-0.52,3.77-0.96c0.46-0.17,0.9-0.18,1.04,0.38c0.13,0.5-0.27,0.68-0.67,0.8
		c-2.6,0.78-5.25,1.28-7.94,1.53c-1.74,0.16-3.5,0.14-5.26,0.11C413.31,331.48,411.68,331.29,409.93,331.51z"/>
	<path d="M408.49,310.53c1.95-0.01,3.31,0.86,4.49,2.11c0.34,0.36,0.28,0.78-0.11,1.07c-0.37,0.28-0.61-0.02-0.81-0.31
		c-0.4-0.56-0.73-0.6-1.32-0.12c-1.44,1.17-3.11,1.83-5.02,1.66c-0.88-0.08-1.74-0.27-2.49-0.76c-0.33-0.21-0.5-0.21-0.6,0.2
		c-0.05,0.2-0.23,0.38-0.25,0.58c-0.05,0.48-0.45,0.54-0.72,0.47c-0.36-0.09-0.6-0.45-0.44-0.86c0.44-1.1,1.02-2.07,2.1-2.7
		C404.97,310.93,406.77,310.62,408.49,310.53z"/>
	<path d="M432.69,310.68c0.02,0.31-0.16,0.43-0.33,0.49c-0.18,0.06-0.37,0.29-0.59,0.07c-0.07-0.07-0.15-0.12-0.21-0.2
		c-0.43-0.64-0.73-0.63-1.46-0.17c-2.37,1.49-4.92,1.67-7.45,0.3c-0.4-0.22-0.72-0.34-1.03,0.09c-0.2,0.29-0.42,0.26-0.68,0.08
		c-0.3-0.2-0.33-0.47-0.24-0.78c0.05-0.2,0.2-0.32,0.35-0.45c1.69-1.43,3.6-2.42,5.84-2.48c2.22-0.06,4.13,0.74,5.54,2.53
		C432.55,310.33,432.62,310.54,432.69,310.68z"/>
	<path d="M418.68,326.49c-1.4,0.02-2.27-0.46-3.19-0.75c-0.64-0.2-1.24-0.32-1.95-0.15c-1.1,0.26-1.92-0.41-2.59-1.19
		c-0.45-0.52-0.33-1.8,0.08-2.52c0.23-0.41,0.55-0.4,0.85-0.29c0.31,0.12,0.36,0.42,0.23,0.74c-0.05,0.11-0.06,0.23-0.11,0.34
		c-0.37,0.96,0.31,1.85,1.32,1.66c1.37-0.25,2.6,0.2,3.81,0.7c1.41,0.59,2.65,0.15,3.7-0.67c0.93-0.73,1.85-1.44,2.94-1.89
		c0.35-0.15,0.29-0.26,0.22-0.52c-0.19-0.62-0.73-1.01-1.03-1.55c-0.22-0.39-0.23-0.72,0.12-0.92c0.31-0.19,0.64-0.16,0.91,0.24
		c0.46,0.67,0.94,1.32,1.3,2.05c0.4,0.82,0,1.5-1.28,1.97c-0.88,0.32-1.55,0.88-2.25,1.47
		C420.78,326.03,419.58,326.43,418.68,326.49z"/>
	<path d="M419.27,349.71c-2.38-0.05-4.16-0.27-5.91-0.75c-0.42-0.12-0.59-0.31-0.5-0.69c0.09-0.39,0.34-0.59,0.8-0.47
		c1.61,0.42,3.25,0.68,4.93,0.71c2.65,0.04,5.19-0.5,7.62-1.49c0.9-0.37,1.81-0.79,2.62-1.38c0.29-0.21,0.72-0.49,1.07-0.07
		c0.18,0.21,0.3,0.53,0,0.78c-0.29,0.24-0.59,0.49-0.92,0.67c-1.77,0.94-3.59,1.75-5.55,2.18
		C421.87,349.53,420.29,349.77,419.27,349.71z"/>
	<path class="st3" d="M428.63,304.87c0.83-0.12,1.82-0.06,2.78,0.22c1.1,0.31,1.97,1.01,2.77,1.8c0.27,0.27,0.21,0.63-0.01,0.84
		c-0.19,0.18-0.5,0.4-0.81,0.04c-1.47-1.72-3.42-1.84-5.47-1.65c-1.89,0.18-3.76,0.49-5.59,1.01c-0.38,0.11-0.59-0.17-0.71-0.54
		c-0.14-0.44,0.18-0.57,0.45-0.64c1-0.27,2.01-0.56,3.03-0.71C426.19,305.08,427.32,304.87,428.63,304.87z"/>
	<path class="st3" d="M409.3,309.17c-1.92-0.05-3.74,0.36-5.49,1.16c-1.05,0.48-1.98,1.11-2.92,1.77c-0.27,0.19-0.6,0.57-0.99,0.13
		c-0.26-0.29-0.4-0.57,0-0.89c1.52-1.21,3.16-2.16,5.03-2.75c1.61-0.5,3.26-0.69,4.93-0.73c0.35-0.01,0.7,0.1,1.05,0.12
		c0.44,0.03,0.53,0.31,0.47,0.65c-0.06,0.34-0.2,0.61-0.66,0.55C410.25,309.13,409.77,309.17,409.3,309.17z"/>
	<path class="st3" d="M392.47,317.79c0.23-0.18,0.1-0.41,0.08-0.63c0.16-0.25-0.01-0.55,0.15-0.82c0.18-0.31,0.33-0.61,0.74-0.47
		c0.34,0.12,0.5,0.36,0.43,0.78c-0.22,1.45-0.23,2.91-0.12,4.36c0.12,1.64,0.51,3.24,1.01,4.8c0.13,0.41,0.07,0.69-0.26,0.8
		c-0.35,0.12-0.71,0.1-0.88-0.43c-0.85-2.6-1.3-5.24-1.09-7.98C392.54,318.07,392.49,317.93,392.47,317.79z"/>
	<path class="st3" d="M438.64,315.29c0.13,2.13,0.19,3.67,0.07,5.21c-0.03,0.35-0.15,0.54-0.45,0.56c-0.29,0.02-0.6,0.03-0.7-0.41
		c-0.13-0.59,0.02-1.17,0.02-1.75c0.01-2.42-0.24-4.82-0.57-7.21c-0.05-0.39,0.09-0.64,0.37-0.69c0.29-0.05,0.62-0.05,0.74,0.45
		C438.45,312.92,438.54,314.4,438.64,315.29z"/>
	<path class="st3" d="M441.85,314.77c0.01,1.25-0.51,2.37-0.84,3.54c-0.12,0.43-0.46,0.37-0.76,0.32c-0.36-0.06-0.38-0.29-0.35-0.64
		c0.07-0.76,0.39-1.44,0.57-2.16c0.33-1.33,0.1-2.53-0.62-3.67c-0.09-0.14-0.14-0.31-0.18-0.47c-0.06-0.3-0.25-0.61,0.24-0.8
		c0.42-0.17,0.62-0.03,0.82,0.29C441.41,312.27,441.83,313.45,441.85,314.77z"/>
	<path class="st3" d="M415.79,314.97c-0.17,1.92-1.17,3.49-2.37,4.96c-0.29,0.35-0.66,0.17-0.9-0.02c-0.36-0.27-0.09-0.61,0.08-0.86
		c0.44-0.63,0.95-1.2,1.29-1.92c0.37-0.8,0.66-1.61,0.72-2.48c0.03-0.45,0.06-0.9,0.58-0.94c0.66-0.06,0.56,0.55,0.66,0.95
		C415.88,314.74,415.82,314.84,415.79,314.97z"/>
	<path class="st3" d="M396.54,279.39c1.85,0.25,3.62,0.58,5.37,1c1.44,0.34,2.86,0.73,4.27,1.19c0.46,0.15,0.7,0.42,0.6,0.78
		c-0.11,0.37-0.49,0.55-0.94,0.4c-2.73-0.92-5.53-1.57-8.38-2.02c-0.35-0.05-0.7-0.08-1.04-0.16c-0.38-0.09-0.52-0.31-0.48-0.74
		C395.98,279.35,396.37,279.5,396.54,279.39z"/>
	<path class="st3" d="M402.6,275.53c1.98,0.47,3.82,1.23,5.27,2.71c0.67,0.68,1.29,1.4,1.73,2.27c0.21,0.41,0.18,0.69-0.19,0.89
		c-0.38,0.2-0.69,0.04-0.9-0.33c-0.8-1.41-1.86-2.56-3.32-3.34c-0.72-0.39-1.48-0.62-2.24-0.84c-0.38-0.11-0.72-0.19-0.83-0.66
		c-0.11-0.47,0.43-0.42,0.5-0.73C402.63,275.5,402.6,275.53,402.6,275.53z"/>
	<path class="st3" d="M410.56,278.1c-0.06-1.41,0.29-2.72,0.93-3.96c0.24-0.46,0.61-0.69,1.02-0.46c0.38,0.21,0.26,0.64,0.06,1.02
		c-0.87,1.67-1.09,3.4-0.41,5.2c0.08,0.22,0.18,0.48,0.14,0.68c-0.06,0.28-0.36,0.36-0.63,0.42c-0.28,0.06-0.37-0.13-0.48-0.33
		C410.74,279.87,410.65,278.99,410.56,278.1z"/>
	<path class="st3" d="M414.51,279.9c0.08-2.2,0.79-4.03,1.85-5.75c0.26-0.41,0.66-0.37,0.94-0.21c0.29,0.17,0.39,0.47,0.11,0.89
		c-0.99,1.49-1.6,3.14-1.69,4.94c-0.02,0.48-0.13,0.89-0.64,0.91C414.49,280.7,414.53,280.16,414.51,279.9z"/>
	<path class="st0" d="M410.41,312.03c-2.74,2.17-4.92,2.02-6.65,1C405.84,311.88,407.96,311.42,410.41,312.03z"/>
	<path class="st0" d="M429.93,309.57c-1.28,0.89-2.63,1.36-4.15,1.28c-0.78-0.04-1.5-0.27-2.21-0.55c-0.12-0.05-0.3-0.14-0.25-0.3
		c0.02-0.09,0.16-0.17,0.26-0.22c1.82-0.92,3.71-1.21,5.7-0.57C429.51,309.29,429.66,309.42,429.93,309.57z"/>
</g>
<g>
	<path class="st10" d="M461.14,149.48c0.02-0.14,0.13-0.27,0.32-0.27h0.29c0.14,0,0.25,0.07,0.31,0.18l3.96,8.5
		c0.04,0,0.04,0,0.05,0l3.96-8.5c0.05-0.11,0.14-0.18,0.31-0.18h0.29c0.2,0,0.31,0.13,0.32,0.27l2.12,12.1
		c0.05,0.25-0.09,0.41-0.32,0.41h-1.64c-0.16,0-0.31-0.14-0.34-0.27l-1.06-6.82c-0.02,0-0.05,0-0.05,0l-3.15,7.08
		c-0.04,0.11-0.14,0.2-0.31,0.2h-0.32c-0.16,0-0.25-0.09-0.31-0.2l-3.19-7.08c0,0-0.04,0-0.05,0l-1.04,6.82
		c-0.02,0.13-0.16,0.27-0.32,0.27h-1.62c-0.23,0-0.38-0.16-0.34-0.41L461.14,149.48z"/>
	<path class="st10" d="M475.54,149.74c0-0.18,0.16-0.34,0.34-0.34h1.67c0.18,0,0.34,0.16,0.34,0.34v11.92
		c0,0.18-0.16,0.34-0.34,0.34h-1.67c-0.18,0-0.34-0.16-0.34-0.34V149.74z"/>
</g>
<g>
	<path d="M24.12,132.71c4.4-5.33,12.8-16.27,17.27-22.2c2.07-2.53,3.4-5.13,3.4-7.4c0-3-2.27-6.07-7.07-6.07
		c-3.2,0-5.93,2.27-7.47,3.93c-0.53,0.53-1.27,0.53-1.8,0l-3.2-3.2c-0.4-0.4-0.53-1.2-0.07-1.73c0,0,5.2-6.54,13.14-6.54
		c9.54,0,14.87,6.07,14.87,13.27c0,4.33-1.87,7.07-4.47,10.8c-2.87,4.07-7.93,10.34-11.47,14.8h14.4c0.67,0,1.27,0.6,1.27,1.27v4.6
		c0,0.67-0.6,1.27-1.27,1.27H25.38c-0.73,0-1.27-0.6-1.27-1.27V132.71z"/>
	<path d="M60.66,112.84c0-14.6,6.13-23.34,16.8-23.34s16.8,8.74,16.8,23.34c0,14.6-6.13,23.34-16.8,23.34S60.66,127.44,60.66,112.84
		z M85.53,112.84c0-9.87-2.93-15.47-8.07-15.47s-8.07,5.6-8.07,15.47c0,9.94,2.93,15.47,8.07,15.47S85.53,122.78,85.53,112.84z"/>
	<path d="M100.07,132.71c4.4-5.33,12.8-16.27,17.27-22.2c2.07-2.53,3.4-5.13,3.4-7.4c0-3-2.27-6.07-7.07-6.07
		c-3.2,0-5.93,2.27-7.47,3.93c-0.53,0.53-1.27,0.53-1.8,0l-3.2-3.2c-0.4-0.4-0.53-1.2-0.07-1.73c0,0,5.2-6.54,13.14-6.54
		c9.54,0,14.87,6.07,14.87,13.27c0,4.33-1.87,7.07-4.47,10.8c-2.87,4.07-7.93,10.34-11.47,14.8h14.4c0.67,0,1.27,0.6,1.27,1.27v4.6
		c0,0.67-0.6,1.27-1.27,1.27h-26.27c-0.73,0-1.27-0.6-1.27-1.27V132.71z"/>
	<path d="M136.62,112.84c0-14.6,6.13-23.34,16.8-23.34s16.8,8.74,16.8,23.34c0,14.6-6.13,23.34-16.8,23.34
		S136.62,127.44,136.62,112.84z M161.49,112.84c0-9.87-2.93-15.47-8.07-15.47s-8.07,5.6-8.07,15.47c0,9.94,2.93,15.47,8.07,15.47
		S161.49,122.78,161.49,112.84z"/>
	<path d="M28.12,170.13c0-0.67,0.53-1.27,1.27-1.27h15.67c8.2,0,14.94,6.67,14.94,14.74c0,8.27-6.73,15-14.87,15h-8.33v15.67
		c0,0.67-0.6,1.27-1.27,1.27h-6.13c-0.73,0-1.27-0.6-1.27-1.27V170.13z M44.52,190.47c3.73,0,6.87-3,6.87-6.93
		c0-3.67-3.13-6.47-6.87-6.47h-7.74v13.4H44.52z"/>
	<path d="M63.73,190.13c0-0.73,0.6-1.27,1.27-1.27h2.53c0.6,0,1,0.33,1.2,0.87l0.93,2.6c0.93-1.33,3.4-4.13,7.54-4.13
		c3.13,0,5.93,1,5.13,2.67l-2.47,4.33c-0.33,0.6-1,0.87-1.53,0.6c-0.2-0.07-1.2-0.4-1.93-0.4c-2.67,0-4.27,1.8-4.73,2.73v16.14
		c0,0.93-0.6,1.27-1.53,1.27H65c-0.67,0-1.27-0.6-1.27-1.27V190.13z"/>
	<path d="M97.87,188.2c6.87,0,12.47,5.2,12.47,12.4c0,0.47-0.07,1.33-0.13,1.8c-0.07,0.67-0.67,1.13-1.27,1.13H91.87
		c0.2,2.73,2.53,5.8,6.4,5.8c2.07,0,4-0.8,5.2-1.67c0.67-0.4,1.27-0.53,1.73,0l2.73,3.13c0.47,0.47,0.6,1.2-0.07,1.73
		c-2.2,2.07-5.6,3.67-9.94,3.67c-8,0-13.67-6.33-13.67-14C84.27,194.67,89.94,188.2,97.87,188.2z M102.54,198.87
		c-0.2-2.47-2.33-4.53-4.87-4.53c-2.67,0-4.87,2-5.2,4.53H102.54z"/>
	<path d="M114.48,212.34l1.8-3.6c0.27-0.67,0.93-0.8,1.53-0.47c0,0,3,1.6,6.07,1.6c1.33,0,2.27-0.53,2.27-1.67
		c0-1.2-0.93-1.93-4.47-3.33c-5.13-2-7.54-4.73-7.54-8.8s3-7.87,9.8-7.87c3.93,0,6.8,1.13,8.2,2.07c0.6,0.4,0.93,1.13,0.6,1.8
		l-1.67,3.4c-0.33,0.6-1.07,0.67-1.6,0.47c0,0-3-1.4-5.53-1.4c-1.6,0-2.27,0.67-2.27,1.53c0,1.2,1.2,1.6,3.67,2.6
		c5.13,2,9,4.2,9,9.4c0,4.4-3.87,8.14-10.6,8.14c-4.4,0-7.47-1.4-8.87-2.47C114.48,213.4,114.21,212.87,114.48,212.34z"/>
	<path d="M139.62,174.8c0-2.53,2-4.6,4.53-4.6c2.6,0,4.67,2.07,4.67,4.6s-2.07,4.6-4.67,4.6
		C141.62,179.4,139.62,177.33,139.62,174.8z M140.22,190.13c0-0.73,0.6-1.27,1.27-1.27h5.54c0.67,0,1.27,0.53,1.27,1.27v24.14
		c0,0.67-0.6,1.27-1.27,1.27h-5.54c-0.67,0-1.27-0.6-1.27-1.27V190.13z"/>
	<path d="M167.49,188.2c2.67,0,4.73,0.73,5.93,1.2v-19.27c0-0.67,0.6-1.27,1.27-1.27h5.67c0.67,0,1.27,0.6,1.27,1.27v44.14
		c0,0.67-0.6,1.27-1.27,1.27h-2.6c-0.6,0-1.07-0.53-1.27-1.27l-0.67-2.07c0,0-3.13,4-8.74,4c-7.27,0-12.8-6.33-12.8-14
		C154.29,194.4,159.56,188.2,167.49,188.2z M168.09,209c3.53,0,5.13-2.73,5.6-4.33v-7.73c0,0-1.87-1.53-5.2-1.53
		c-3.73,0-6.47,3.07-6.47,6.8S164.56,209,168.09,209z"/>
	<path d="M201.24,188.2c6.87,0,12.47,5.2,12.47,12.4c0,0.47-0.07,1.33-0.13,1.8c-0.07,0.67-0.67,1.13-1.27,1.13h-17.07
		c0.2,2.73,2.53,5.8,6.4,5.8c2.07,0,4-0.8,5.2-1.67c0.67-0.4,1.27-0.53,1.73,0l2.73,3.13c0.47,0.47,0.6,1.2-0.07,1.73
		c-2.2,2.07-5.6,3.67-9.94,3.67c-8,0-13.67-6.33-13.67-14C187.63,194.67,193.3,188.2,201.24,188.2z M205.91,198.87
		c-0.2-2.47-2.33-4.53-4.87-4.53c-2.67,0-4.87,2-5.2,4.53H205.91z"/>
	<path d="M219.31,190.13c0-0.73,0.6-1.27,1.27-1.27h2.53c0.6,0,0.93,0.33,1.13,0.8l0.93,2.47c1-1.07,4.27-3.93,9.4-3.93
		c8.47,0,11.87,6.33,11.87,13.27v12.8c0,0.67-0.6,1.27-1.27,1.27h-5.47c-0.73,0-1.27-0.6-1.27-1.27v-13.2c0-3.47-1.8-5.67-5-5.67
		c-3.47,0-5.6,2.4-6.27,4.2v14.67c0,0.93-0.4,1.27-1.67,1.27h-4.93c-0.67,0-1.27-0.6-1.27-1.27V190.13z"/>
	<path d="M255.12,195.87h-2.27c-0.67,0-1.2-0.6-1.2-1.27v-4.47c0-0.73,0.53-1.27,1.2-1.27h2.27v-7.4c0-0.67,0.6-1.27,1.27-1.27
		l5.47-0.07c0.67,0,1.2,0.6,1.2,1.27v7.47h5.87c0.73,0,1.27,0.53,1.27,1.27v4.47c0,0.67-0.53,1.27-1.27,1.27h-5.87v10.67
		c0,1.87,1,2.13,2.07,2.13c1.13,0,2.53-0.47,3.27-0.73s1.27,0.07,1.47,0.73l1.33,4.2c0.27,0.67-0.07,1.33-0.73,1.6
		c-0.33,0.2-4.67,1.73-7.93,1.73c-5.13,0-7.4-3.2-7.4-8.6V195.87z"/>
	<path d="M276.13,174.8c0-2.53,2-4.6,4.53-4.6c2.6,0,4.67,2.07,4.67,4.6s-2.07,4.6-4.67,4.6
		C278.13,179.4,276.13,177.33,276.13,174.8z M276.73,190.13c0-0.73,0.6-1.27,1.27-1.27h5.54c0.67,0,1.27,0.53,1.27,1.27v24.14
		c0,0.67-0.6,1.27-1.27,1.27H278c-0.67,0-1.27-0.6-1.27-1.27V190.13z"/>
	<path d="M301.54,198.67c2.67,0,4.87,0.73,4.87,0.73c0.07-3.4-1-4.6-3.47-4.6c-2.47,0-5.93,0.53-7.47,1
		c-0.93,0.27-1.4-0.33-1.53-1.2l-0.6-3.47c-0.2-1,0.33-1.47,0.93-1.67c0.53-0.2,4.8-1.27,9.07-1.27c8.33,0,10.27,4.33,10.27,11.6
		v14.47c0,0.67-0.6,1.27-1.27,1.27h-2.4c-0.47,0-0.8-0.2-1.13-0.93l-0.8-1.8c-1.53,1.4-4,3.4-8.13,3.4c-5.33,0-9-3.47-9-9.14
		C290.87,202.33,294.73,198.67,301.54,198.67z M301.67,210.54c2.13,0,4.2-1.8,4.6-2.6v-3.67c0,0-1.8-0.8-3.73-0.8
		c-2.6,0-4.33,1.47-4.33,3.6C298.2,209.07,299.6,210.54,301.67,210.54z"/>
	<path d="M321.28,170.13c0-0.67,0.6-1.27,1.27-1.27h5.6c0.67,0,1.27,0.6,1.27,1.27v44.14c0,0.67-0.6,1.27-1.27,1.27h-5.6
		c-0.67,0-1.27-0.6-1.27-1.27V170.13z"/>
	<path d="M28.12,250.15c0-0.67,0.53-1.27,1.27-1.27h27.14c0.73,0,1.27,0.6,1.27,1.27v5.47c0,0.67-0.53,1.27-1.27,1.27H36.79v10.94
		h16.47c0.67,0,1.27,0.6,1.27,1.27v5.54c0,0.73-0.6,1.27-1.27,1.27H36.79v11.67h19.74c0.73,0,1.27,0.6,1.27,1.27v5.47
		c0,0.67-0.53,1.27-1.27,1.27H29.38c-0.73,0-1.27-0.6-1.27-1.27V250.15z"/>
	<path d="M64.33,250.15c0-0.67,0.6-1.27,1.27-1.27h5.6c0.67,0,1.27,0.6,1.27,1.27v44.14c0,0.67-0.6,1.27-1.27,1.27h-5.6
		c-0.67,0-1.27-0.6-1.27-1.27V250.15z"/>
	<path d="M92.07,268.23c6.87,0,12.47,5.2,12.47,12.4c0,0.47-0.07,1.33-0.13,1.8c-0.07,0.67-0.67,1.13-1.27,1.13H86.07
		c0.2,2.73,2.53,5.8,6.4,5.8c2.07,0,4-0.8,5.2-1.67c0.67-0.4,1.27-0.53,1.73,0l2.73,3.13c0.47,0.47,0.6,1.2-0.07,1.73
		c-2.2,2.07-5.6,3.67-9.94,3.67c-8,0-13.67-6.33-13.67-14C78.47,274.69,84.13,268.23,92.07,268.23z M96.74,278.89
		c-0.2-2.47-2.33-4.53-4.87-4.53c-2.67,0-4.87,2-5.2,4.53H96.74z"/>
	<path d="M122.28,268.23c4.13,0,7.33,1.67,9.87,4.73c0.47,0.6,0.33,1.4-0.33,1.87l-3.07,2.93c-0.6,0.53-1.2,0.2-1.67-0.2
		c-1.07-1.2-2.73-2.13-4.6-2.13c-3.6,0-6.54,3.07-6.54,6.8c0,3.8,2.87,6.8,6.47,6.8c2.87,0,4.13-1.4,5.33-2.53
		c0.47-0.47,1.13-0.6,1.67-0.2l2.87,2.47c0.67,0.53,0.93,1.2,0.47,1.87c-2.27,3.53-5.8,5.6-10.54,5.6c-7.54,0-14.14-6-14.14-14
		C108.08,274.36,114.81,268.23,122.28,268.23z"/>
	<path d="M139.95,275.89h-2.27c-0.67,0-1.2-0.6-1.2-1.27v-4.47c0-0.73,0.53-1.27,1.2-1.27h2.27v-7.4c0-0.67,0.6-1.27,1.27-1.27
		l5.47-0.07c0.67,0,1.2,0.6,1.2,1.27v7.47h5.87c0.73,0,1.27,0.53,1.27,1.27v4.47c0,0.67-0.53,1.27-1.27,1.27h-5.87v10.67
		c0,1.87,1,2.13,2.07,2.13c1.13,0,2.53-0.47,3.27-0.73s1.27,0.07,1.47,0.73l1.33,4.2c0.27,0.67-0.07,1.33-0.73,1.6
		c-0.33,0.2-4.67,1.73-7.93,1.73c-5.13,0-7.4-3.2-7.4-8.6V275.89z"/>
	<path d="M160.96,254.82c0-2.53,2-4.6,4.53-4.6c2.6,0,4.67,2.07,4.67,4.6s-2.07,4.6-4.67,4.6
		C162.96,259.42,160.96,257.36,160.96,254.82z M161.56,270.16c0-0.73,0.6-1.27,1.27-1.27h5.54c0.67,0,1.27,0.53,1.27,1.27v24.14
		c0,0.67-0.6,1.27-1.27,1.27h-5.54c-0.67,0-1.27-0.6-1.27-1.27V270.16z"/>
	<path d="M189.23,268.23c7.54,0,13.67,6.4,13.67,13.94c0,7.67-6.13,14.07-13.67,14.07s-13.67-6.4-13.67-14.07
		C175.56,274.63,181.7,268.23,189.23,268.23z M189.23,289.03c3.53,0,6.4-3.07,6.4-6.87c0-3.73-2.87-6.73-6.4-6.73
		c-3.6,0-6.4,3-6.4,6.73C182.83,285.96,185.63,289.03,189.23,289.03z"/>
	<path d="M208.84,270.16c0-0.73,0.6-1.27,1.27-1.27h2.53c0.6,0,0.93,0.33,1.13,0.8l0.93,2.47c1-1.07,4.27-3.93,9.4-3.93
		c8.47,0,11.87,6.33,11.87,13.27v12.8c0,0.67-0.6,1.27-1.27,1.27h-5.47c-0.73,0-1.27-0.6-1.27-1.27v-13.2c0-3.47-1.8-5.67-5-5.67
		c-3.47,0-5.6,2.4-6.27,4.2v14.67c0,0.93-0.4,1.27-1.67,1.27h-4.93c-0.67,0-1.27-0.6-1.27-1.27V270.16z"/>
</g>
<g>
	<path class="st2" d="M301.51,349.48c-16.61,2.16-33.21,4.32-49.82,6.48c-4.47-34.42-8.95-68.84-13.42-103.27
		c34.06-4.43,68.13-8.85,102.21-13.28c4.47,34.42,8.95,68.84,13.42,103.27c-16.22,2.11-32.45,4.22-48.68,6.33
		c-0.03-0.04-0.03-0.08,0-0.12c0.24-0.24,0.56-0.2,0.86-0.25c0.19-0.03,0.38-0.05,0.57-0.07c0.29-0.04,0.56-0.16,0.85-0.19
		c0.24-0.02,0.3-0.16,0.23-0.37c-0.34-1.13-0.41-2.3-0.58-3.45c-0.03-0.19-0.02-0.38-0.03-0.57c-0.04-1.03,0.41-1.83,1.16-2.5
		c0.43-0.38,0.82-0.8,1.16-1.26c0.23-0.32,0.47-0.63,0.72-0.93c0.22-0.26,0.32-0.26,0.54,0c0.45,0.52,0.86,1.07,1.26,1.63
		c1.13,1.57,2.34,3.07,3.69,4.46c0.4,0.41,0.41,0.42,0.95,0.18c0.7-0.3,0.58-0.28,0.17-0.69c-1.88-1.87-3.37-4.06-5-6.14
		c-1.02-1.3-2.21-2.45-3.47-3.52c-0.94-0.8-1.96-1.49-2.98-2.18c-0.34-0.23-0.35-0.35-0.02-0.6c0.79-0.6,1.57-1.21,2.29-1.89
		c1.2-1.12,2.31-2.33,3.36-3.58c1.46-1.74,2.86-3.53,4.29-5.3c0.09-0.11,0.17-0.25,0.33-0.22c0.19,0.04,0.17,0.23,0.2,0.37
		c0.31,1.54,0.64,3.08,0.96,4.62c0.28,1.35,0.58,2.7,0.87,4.06c0.24,1.13,0.5,2.25,0.76,3.38c0.33,1.42,0.66,2.84,0.99,4.26
		c0.4,1.69,0.81,3.38,1.22,5.07c0.1,0.41,0.15,0.43,0.54,0.22c0.56-0.3,0.55-0.29,0.4-0.92c-0.47-1.97-0.95-3.95-1.42-5.92
		c-0.4-1.69-0.79-3.39-1.17-5.08c-0.3-1.34-0.57-2.68-0.86-4.02c-0.29-1.38-0.59-2.75-0.89-4.13c-0.16-0.74-0.27-1.5-0.46-2.24
		c-0.04-0.18-0.1-0.34-0.25-0.46c-0.21-0.16-0.18-0.33-0.05-0.53c0.48-0.74,0.5-0.73,1.22-0.23c1.71,1.19,3.53,2.15,5.48,2.89
		c2.46,0.94,5.02,1.36,7.63,1.52c3.04,0.19,6.04,0.63,8.98,1.42c0.45,0.12,0.98-0.25,1.03-0.72c0.02-0.21-0.16-0.21-0.28-0.24
		c-0.8-0.2-1.61-0.38-2.41-0.56c-2.61-0.59-5.27-0.8-7.93-1.01c-3.72-0.29-7.22-1.3-10.43-3.22c-0.61-0.36-1.21-0.74-1.79-1.17
		c-0.25-0.18-0.28-0.36-0.12-0.61c0.22-0.34,0.43-0.69,0.64-1.04c1.13-1.89,1.82-3.96,2.43-6.07c0.38-1.32,0.68-2.66,0.88-4.02
		c0.16-1.05,0.18-2.1,0.04-3.15c-0.13-0.99-0.26-1.99-0.46-2.97c-0.06-0.29,0.01-0.52,0.26-0.7c1.28-0.92,1.77-2.24,1.91-3.74
		c0.24-2.49,0.33-4.99,0.41-7.49c0.05-1.36,0.15-2.72,0.58-4.02c0.48-1.45,0.28-2.88-0.02-4.32c-0.46-2.19-1.06-4.34-1.62-6.5
		c-0.29-1.12-0.47-2.26-0.63-3.4c-0.13-0.98-0.45-1.93-0.7-2.88c-0.17-0.64-0.39-1.26-0.45-1.93c-0.06-0.65,0.08-0.94,0.69-1.2
		c0.59-0.26,1.2-0.49,1.77-0.81c1.54-0.87,2.1-2.35,1.52-4.03c-0.48-1.4-1.39-2.5-2.39-3.54c-1.32-1.37-2.83-2.51-4.38-3.59
		c-2.05-1.43-4.26-2.58-6.57-3.52c-3.63-1.48-7.4-2.35-11.3-2.72c-1.91-0.18-3.83-0.22-5.75-0.17c-1.93,0.06-3.86,0.25-5.75,0.6
		c-3.38,0.62-6.71,1.44-9.91,2.71c-3.41,1.35-6.52,3.21-9.16,5.78c-2.6,2.54-4.55,5.52-5.93,8.87c-1.47,3.6-2.27,7.35-2.55,11.21
		c-0.15,2.03-0.12,4.06-0.03,6.09c0.11,2.38,0.46,4.73,0.8,7.07c0.22,1.53,0.68,3.03,1.38,4.42c1.02,2.04,1.73,4.2,2.48,6.35
		c0.54,1.55,1.06,3.11,1.88,4.53c0.65,1.14,1.52,2.1,2.71,2.72c1.12,0.59,2.08,0.42,2.94-0.48c0.11-0.12,0.21-0.35,0.42-0.25
		c0.18,0.08,0.16,0.31,0.16,0.48c0.02,0.85,0.08,1.7,0.18,2.54c0.21,1.74,0.71,3.4,1.43,5c0.05,0.1,0.1,0.2,0.13,0.32
		c0.03,0.12-0.02,0.22-0.15,0.19c-0.59-0.1-0.77,0.31-0.93,0.75c-0.69,1.94-1.6,3.79-2.51,5.63c-1.25,2.51-3.21,4.25-5.65,5.53
		c-3,1.57-6.1,2.9-9.26,4.12c-0.6,0.23-0.58,0.23-0.18,0.73c0.22,0.27,0.43,0.32,0.76,0.18c2.42-0.97,4.84-1.94,7.18-3.07
		c1.58-0.76,3.14-1.57,4.53-2.66c1.64-1.28,2.83-2.9,3.76-4.73c0.34-0.67,0.68-1.34,1.01-2.01c0.07-0.13,0.12-0.28,0.25-0.37
		c0.14-0.01,0.16,0.1,0.2,0.19c0.08,0.53,0.02,1.06,0.03,1.6c0.04,1.64,0.24,3.27,0.58,4.87c0.6,2.86,1.71,5.55,2.81,8.25
		c1.58,3.9,3.37,7.7,5.22,11.48c0.46,0.95,0.95,1.88,1.42,2.83c0.12,0.25,0.3,0.4,0.58,0.44c0.29,0.04,0.57,0.12,0.84,0.18
		c0.06-0.08,0.02-0.14-0.01-0.19c-1.42-2.8-2.84-5.6-4.15-8.45c-1.8-3.9-3.52-7.83-4.91-11.9c-0.71-2.08-1.14-4.22-1.31-6.4
		c-0.14-1.83-0.03-3.65,0.29-5.46c0.02-0.14-0.01-0.36,0.17-0.38c0.19-0.03,0.26,0.17,0.35,0.31c0.89,1.47,1.91,2.85,3,4.17
		c2.27,2.73,5.05,4.84,8.2,6.47c2.3,1.2,4.51,2.55,6.65,4.01c1.36,0.93,2.78,1.78,4.33,2.38c0.02,0.01,0.05,0.02,0.07,0.03
		c0.5,0.22,0.52,0.27,0.19,0.7c-0.73,0.96-1.47,1.92-2.21,2.87c-1.64,2.1-3.2,4.27-4.74,6.44c-1.23,1.74-2.42,3.51-3.6,5.29
		c-0.04,0.06-0.08,0.13-0.12,0.19c-0.14,0.2-0.11,0.32,0.15,0.34c0.05,0-0.01,0,0.04,0.01c0.96,0.18,0.96,0.18,1.5-0.63
		c1.35-2.03,2.71-4.05,4.16-6.01c0.08-0.11,0.15-0.24,0.22-0.35c0.25-0.38,0.37-0.4,0.73-0.14c0.32,0.23,0.63,0.48,0.95,0.7
		c0.71,0.49,1.54,0.71,2.32,1.05c0.55,0.24,1,0.6,1.32,1.11c0.35,0.54,0.42,1.11,0.12,1.7c-0.19,0.38-0.41,0.73-0.67,1.06
		c-0.4,0.51-0.64,1.1-0.84,1.7c-0.13,0.38-0.11,0.39,0.31,0.38c0.29-0.01,0.58-0.07,0.87-0.1c0.39,0.02,0.78-0.04,1.17-0.09
		c0.2-0.02,0.4-0.06,0.59,0.06C301.52,349.39,301.53,349.43,301.51,349.48z"/>
	<path class="st11" d="M304.84,349.05c-0.98,0.13-1.97,0.26-2.95,0.38c-0.03-0.05-0.02-0.09,0.02-0.13c0.14-0.1,0.31-0.11,0.47-0.13
		c0.66-0.09,1.33-0.18,1.99-0.26c0.14-0.02,0.28-0.04,0.41,0.02C304.84,348.95,304.86,348.99,304.84,349.05z"/>
	<path class="st12" d="M301.88,349.36c0,0.02,0.01,0.05,0.01,0.07c-0.13,0.02-0.25,0.03-0.38,0.05c0-0.03-0.01-0.05-0.01-0.08
		C301.62,349.28,301.75,349.26,301.88,349.36z"/>
	<path class="st13" d="M304.84,349.05c0-0.02-0.01-0.05-0.01-0.07c0.11-0.13,0.23-0.14,0.37-0.06c0,0.03,0.01,0.05,0.01,0.08
		C305.09,349.01,304.97,349.03,304.84,349.05z"/>
	<path d="M299.69,349.49c-0.45,0.09-0.9,0.08-1.38,0.09c0.21-0.79,0.49-1.52,0.95-2.18c0.19-0.27,0.39-0.53,0.57-0.81
		c0.47-0.75,0.43-1.42-0.12-2.11c-0.3-0.38-0.66-0.67-1.11-0.85c-0.17-0.06-0.33-0.14-0.5-0.19c-1.12-0.36-2.1-0.95-2.99-1.7
		c-0.04-0.03-0.06-0.08-0.09-0.11c-0.17,0.08-0.21,0.21-0.29,0.31c-1.64,2.28-3.24,4.59-4.77,6.94c-0.14,0.22-0.29,0.31-0.55,0.25
		c-0.38-0.08-0.77-0.13-1.22-0.2c3.5-5.39,7.25-10.55,11.17-15.5c0.03-0.09,0.02-0.1-0.01-0.11c-1.71-0.64-3.29-1.54-4.79-2.57
		c-2.3-1.58-4.7-2.98-7.15-4.29c-3.08-1.64-5.75-3.78-7.94-6.49c-1.05-1.3-2.06-2.64-2.9-4.1c-0.03-0.05-0.04-0.12-0.15-0.14
		c-0.03,0.19-0.07,0.38-0.1,0.57c-0.43,2.71-0.39,5.41,0.12,8.11c0.35,1.81,0.91,3.56,1.55,5.29c2.16,5.8,4.81,11.37,7.58,16.89
		c0.3,0.59,0.6,1.18,0.9,1.76c0.04,0.08,0.1,0.15,0.08,0.28c-0.48-0.07-0.96-0.19-1.43-0.3c-0.17-0.04-0.18-0.2-0.24-0.32
		c-0.72-1.44-1.45-2.87-2.15-4.32c-1.87-3.86-3.64-7.76-5.21-11.75c-0.64-1.62-1.25-3.24-1.72-4.92c-0.54-1.91-0.88-3.86-0.96-5.85
		c-0.03-0.75-0.01-1.5-0.02-2.25c0.02-0.09,0-0.18-0.02-0.27c-0.02-0.01,0.03-0.05-0.02-0.05c-0.02,0.03-0.04,0.06-0.07,0.09
		c-0.51,1.06-1.04,2.12-1.61,3.15c-1.18,2.15-2.84,3.82-4.93,5.07c-1.81,1.09-3.72,1.97-5.65,2.8c-1.58,0.69-3.19,1.32-4.78,1.97
		c-0.2,0.08-0.32,0.08-0.45-0.1c-0.2-0.26-0.42-0.5-0.63-0.74c0.03-0.11,0.11-0.12,0.18-0.15c2.3-0.93,4.63-1.82,6.87-2.89
		c1.44-0.69,2.89-1.36,4.24-2.23c1.62-1.04,2.94-2.36,3.89-4.05c1.14-2.06,2.12-4.19,2.93-6.4c0.01-0.04,0.02-0.07,0.04-0.11
		c0.21-0.56,0.43-0.67,1.05-0.49c-0.12-0.27-0.23-0.52-0.34-0.77c-0.9-1.98-1.32-4.07-1.44-6.24c-0.02-0.33-0.03-0.66-0.05-0.99
		c-0.01-0.16-0.04-0.31-0.07-0.53c-0.14,0.15-0.23,0.26-0.33,0.37c-0.79,0.85-1.73,1.05-2.8,0.61c-0.51-0.21-0.95-0.53-1.36-0.9
		c-1.09-0.98-1.84-2.18-2.39-3.53c-0.61-1.48-1.13-2.99-1.65-4.5c-0.57-1.67-1.19-3.32-1.98-4.9c-0.58-1.17-0.96-2.4-1.22-3.67
		c-0.54-2.59-0.8-5.22-0.96-7.86c-0.16-2.65-0.1-5.3,0.21-7.94c0.44-3.69,1.36-7.25,2.93-10.63c2.58-5.52,6.63-9.6,12.07-12.32
		c1.98-0.99,4.05-1.75,6.18-2.36c1.98-0.56,3.97-1.06,6-1.43c1.4-0.25,2.81-0.43,4.23-0.54c1.71-0.13,3.42-0.17,5.14-0.1
		c7.12,0.29,13.76,2.13,19.77,6.03c1.68,1.09,3.26,2.3,4.69,3.71c0.91,0.89,1.73,1.86,2.33,3c0.37,0.7,0.61,1.45,0.58,2.26
		c-0.04,0.99-0.46,1.78-1.24,2.38c-0.58,0.45-1.24,0.73-1.91,1.01c-0.2,0.08-0.4,0.16-0.59,0.25c-0.35,0.16-0.49,0.45-0.47,0.83
		c0.02,0.47,0.14,0.93,0.28,1.38c0.55,1.76,0.93,3.56,1.2,5.38c0.17,1.15,0.48,2.26,0.79,3.37c0.33,1.19,0.62,2.38,0.9,3.58
		c0.18,0.8,0.36,1.61,0.49,2.43c0.15,0.93,0.16,1.85-0.13,2.75c-0.54,1.7-0.65,3.46-0.7,5.22c-0.07,2.31-0.18,4.61-0.41,6.91
		c-0.15,1.49-0.75,2.73-2.01,3.61c-0.19,0.13-0.22,0.26-0.17,0.47c0.21,0.94,0.37,1.89,0.49,2.85c0.19,1.55,0.06,3.09-0.25,4.61
		c-0.47,2.27-1.11,4.48-1.99,6.62c-0.47,1.14-1.06,2.22-1.74,3.25c-0.07,0.1-0.16,0.2-0.19,0.32c1.03,0.74,2.1,1.42,3.22,2
		c2.67,1.37,5.51,2.18,8.49,2.48c1.8,0.18,3.62,0.28,5.42,0.51c2.05,0.26,4.06,0.74,6.07,1.23c0.02,0.01,0.04,0.02,0.08,0.05
		c-0.18,0.36-0.42,0.69-0.63,1.03c-0.08,0.13-0.19,0.08-0.3,0.05c-0.58-0.14-1.16-0.28-1.74-0.42c-2.4-0.58-4.84-0.88-7.29-1.05
		c-2.08-0.15-4.14-0.37-6.15-0.96c-2.71-0.79-5.2-2.01-7.5-3.63c-0.13-0.09-0.26-0.19-0.35-0.32c-0.25,0.31-0.48,0.61-0.75,0.94
		c0.41,0.09,0.51,0.38,0.58,0.73c0.24,1.23,0.5,2.47,0.76,3.7c0.29,1.38,0.59,2.76,0.89,4.13c0.27,1.27,0.55,2.53,0.83,3.8
		c0.32,1.42,0.65,2.85,0.99,4.27c0.3,1.26,0.6,2.52,0.9,3.78c0.16,0.68,0.33,1.36,0.5,2.03c0.05,0.2,0.03,0.32-0.18,0.42
		c-0.31,0.14-0.59,0.34-0.93,0.46c-1.84-7.42-3.51-14.86-5.04-22.41c-0.39,0.5-0.73,0.94-1.08,1.37c-1.53,1.89-3,3.81-4.62,5.62
		c-1.43,1.59-2.96,3.07-4.73,4.29c-0.02,0.01-0.03,0.03-0.05,0.05c0.02,0.12,0.14,0.14,0.22,0.19c2.97,1.87,5.5,4.21,7.55,7.06
		c1.32,1.85,2.77,3.6,4.37,5.22c0.04,0.04,0.1,0.08,0.11,0.17c-0.34,0.15-0.7,0.28-1.04,0.45c-0.21,0.1-0.34,0.06-0.49-0.11
		c-0.79-0.83-1.55-1.68-2.28-2.56c-0.75-0.91-1.43-1.88-2.14-2.82c-0.3-0.41-0.62-0.8-0.93-1.19c-0.15,0.04-0.18,0.16-0.24,0.25
		c-0.57,0.82-1.19,1.59-1.93,2.25c-0.11,0.1-0.22,0.22-0.32,0.32c-0.51,0.5-0.72,1.12-0.74,1.82c-0.02,0.79,0.1,1.57,0.21,2.35
		c0.09,0.67,0.24,1.32,0.41,1.98c0.08,0.3,0.08,0.31-0.23,0.37c-0.32,0.06-0.65,0.12-0.97,0.18c-0.33-0.5-0.35-1.1-0.48-1.66
		c-0.08-0.33-0.09-0.68-0.14-1.02c-0.02-0.16-0.06-0.29-0.23-0.36c-0.92-0.38-1.85-0.6-2.85-0.36c-0.41,0.1-0.79,0.27-1.15,0.48
		c-0.19,0.11-0.29,0.27-0.34,0.48c-0.11,0.56-0.36,1.05-0.72,1.49c-0.35,0.44-0.62,0.93-0.83,1.44
		C299.85,349.26,299.8,349.39,299.69,349.49z"/>
	<path class="st14" d="M299.69,349.49c0.15-0.58,0.41-1.12,0.78-1.59c0.45-0.58,0.83-1.18,0.92-1.93c0.01-0.09,0.05-0.15,0.14-0.21
		c1.21-0.8,2.48-0.96,3.83-0.43c0.22,0.09,0.44,0.19,0.7,0.19c0.1,1.06,0.32,2.09,0.58,3.11c-0.35,0.06-0.69,0.13-1.04,0.19
		c-0.14,0.03-0.27,0.06-0.4,0.1c-0.13-0.01-0.25,0.03-0.37,0.06c-0.98,0.13-1.97,0.26-2.95,0.38c-0.13,0.01-0.25,0.02-0.38,0.04
		c-0.37-0.02-0.73,0.04-1.1,0.07C300.17,349.49,299.93,349.52,299.69,349.49z"/>
	<path class="st15" d="M274.69,318.68c0.02-0.05,0.03-0.11,0.05-0.16c0.07-0.03,0.1-0.01,0.1,0.07c-0.01,0.11,0.03,0.22-0.04,0.33
		C274.75,318.84,274.78,318.74,274.69,318.68z"/>
	<path class="st10" d="M319.64,288.3c0.24-0.01,0.39-0.15,0.51-0.35c0.09-0.16,0.19-0.32,0.29-0.49c0.13,0.05,0.1,0.16,0.11,0.24
		c0.23,1.29,0.23,2.57,0,3.86c-0.03,0.15-0.07,0.3-0.02,0.45c0.08,0.24,0.31,0.41,0.58,0.42c0.31,0.01,0.56-0.14,0.65-0.43
		c0.06-0.19,0.09-0.39,0.12-0.59c0.22-1.5,0.17-2.98-0.19-4.46c-0.08-0.33-0.25-0.58-0.61-0.67c0.88-1.73,1.56-3.49,2.07-5.33
		c0.08-0.06,0.1,0.01,0.14,0.05c0.07,0.34,0.13,0.67,0.2,1.01c0.19,0.87,0.13,1.72-0.14,2.56c-0.48,1.52-0.6,3.08-0.68,4.65
		c-0.11,2.43-0.2,4.87-0.43,7.29c-0.01,0.1-0.03,0.2-0.04,0.3c-0.13,1.2-0.72,2.13-1.73,2.77c-0.69,0.44-0.67,0.55-0.47,1.32
		c0.44,1.7,0.75,3.42,0.64,5.2c-0.06,0.93-0.27,1.83-0.48,2.73c-0.39,1.68-0.87,3.34-1.46,4.96c-0.57,1.57-1.34,3.04-2.34,4.39
		c-2.52,3.39-5.15,6.68-7.93,9.85c-1.32,1.5-2.81,2.83-4.47,3.95c-0.4,0.27-0.82,0.51-1.26,0.71c-0.26,0.12-0.53,0.15-0.82,0.1
		c-1.52-0.24-2.93-0.81-4.28-1.53c-1.03-0.55-2-1.2-2.98-1.85c-2.26-1.51-4.6-2.89-7-4.17c-1.35-0.71-2.67-1.5-3.78-2.55
		c-1.92-1.83-3.8-3.7-5.27-5.93c-0.9-1.37-1.74-2.77-2.33-4.3c-0.46-1.21-0.71-2.46-0.86-3.74c-0.1-0.8-0.14-1.59-0.21-2.39
		c-0.04-0.39-0.07-0.78-0.22-1.15c-0.11-0.27-0.28-0.47-0.53-0.63c-0.23-0.15-0.47-0.14-0.71-0.06c-0.3,0.1-0.52,0.31-0.7,0.56
		c-0.14,0.18-0.26,0.38-0.4,0.56c-0.32,0.4-0.7,0.51-1.19,0.34c-0.35-0.12-0.66-0.32-0.94-0.56c-0.9-0.74-1.55-1.66-2.02-2.73
		c-0.67-1.51-1.24-3.06-1.73-4.63c-0.57-1.82-1.24-3.6-2.12-5.29c-0.33-0.64-0.59-1.32-0.82-2.01c-0.04-0.13-0.09-0.26-0.09-0.43
		c0.62-0.13,1.24-0.25,1.85-0.4c1.43-0.35,2.87-0.66,4.23-1.24c0.14-0.06,0.28-0.13,0.42-0.19c1.28-0.53,2.07-1.5,2.51-2.8
		c0.38-1.14,0.56-2.31,0.7-3.5c0.18-1.54,0.21-3.09,0.24-4.63c0.04-2.11,0.21-4.2,0.64-6.27c0.02-0.11,0.03-0.22,0.1-0.33
		c0.17,0.06,0.33,0.12,0.5,0.18c2.26,0.84,4.53,1.64,6.86,2.25c1.89,0.49,3.81,0.68,5.77,0.63c1.94-0.05,3.85-0.29,5.74-0.7
		c1.69-0.37,3.35-0.83,4.99-1.38c6.11-2.02,12.12-4.3,18.06-6.76c2.14-0.89,4.25-1.87,6.33-2.89c0.24-0.12,0.45-0.26,0.48-0.54
		c0.03-0.25-0.03-0.48-0.25-0.65c-0.22-0.17-0.45-0.14-0.68-0.03c-0.47,0.23-0.93,0.46-1.4,0.69c-3.01,1.46-6.11,2.73-9.22,3.96
		c-3.88,1.53-7.8,2.97-11.73,4.35c-1.88,0.66-3.78,1.26-5.72,1.74c-1.91,0.47-3.85,0.81-5.83,0.92c-2.6,0.13-5.13-0.21-7.61-1.02
		c-5.08-1.65-10.07-3.54-14.92-5.8c-0.46-0.21-0.92,0.02-0.97,0.53c-0.03,0.28,0.09,0.5,0.34,0.63c0.17,0.09,0.34,0.17,0.51,0.25
		c2.32,1.09,4.7,2.05,7.08,2.98c0.07,0.03,0.14,0.06,0.21,0.08c0.16,0.05,0.21,0.12,0.17,0.3c-0.43,1.91-0.62,3.85-0.7,5.81
		c-0.05,1.18-0.06,2.36-0.12,3.54c-0.06,1.42-0.2,2.83-0.52,4.22c-0.13,0.58-0.35,1.14-0.61,1.68c-0.31,0.65-0.79,1.11-1.46,1.37
		c-0.99,0.4-2,0.74-3.04,0.99c-0.98,0.23-1.95,0.48-2.94,0.65c-0.35,0.06-0.35,0.07-0.42-0.29c-0.19-0.91-0.29-1.83-0.4-2.75
		c-0.2-1.7-0.37-3.41-0.44-5.12c-0.22-5.49,0.46-10.84,2.56-15.95c1.88-4.57,4.83-8.29,8.9-11.11c1.9-1.31,3.96-2.31,6.12-3.12
		c1.86-0.7,3.76-1.23,5.69-1.69c2.03-0.48,4.08-0.87,6.15-1.07c5.76-0.56,11.43-0.1,16.95,1.7c4.42,1.44,8.39,3.66,11.89,6.72
		c0.86,0.75,1.66,1.57,2.33,2.51c0.42,0.58,0.77,1.19,0.95,1.89c0.22,0.83-0.04,1.62-0.73,2.13c-0.33,0.24-0.7,0.4-1.08,0.55
		c-0.38,0.15-0.76,0.29-1.13,0.46c-0.87,0.39-1.23,1.1-1.2,2.02c0.02,0.66,0.15,1.31,0.35,1.95c0.49,1.57,0.79,3.17,1.06,4.79
		c0.23,1.39,0.61,2.75,0.96,4.12c0.22,0.85,0.44,1.69,0.66,2.54c0.02,0.06,0.02,0.12,0.02,0.18c-0.04,0.01-0.06,0.02-0.08,0.02
		c-0.5,0.03-0.67,0.16-0.79,0.65c-0.36,1.42-0.83,2.8-1.41,4.14c-0.3,0.7-0.63,1.38-1,2.05c-0.11-0.05-0.11-0.15-0.14-0.23
		c-0.62-2.25-1.04-4.53-1.27-6.85c-0.06-0.56-0.1-1.11-0.14-1.67c0.12-0.17,0.21-0.02,0.29,0.04c0.45,0.3,0.66,0.25,0.88-0.24
		c0.36-0.79,0.86-1.46,1.62-1.91c0.08-0.05,0.15-0.1,0.22-0.16c0.21-0.18,0.28-0.39,0.16-0.64c-0.12-0.25-0.35-0.32-0.61-0.27
		c-0.29,0.06-0.53,0.23-0.76,0.41c-0.65,0.51-1.13,1.15-1.49,1.89c-0.04,0.09-0.08,0.19-0.14,0.27c-0.04,0.06-0.09,0.15-0.17,0.09
		c-0.06-0.04-0.06-0.13-0.03-0.21c0-0.56,0-1.12,0-1.67c0.01-3.15,0.39-6.25,1.15-9.3c0.05-0.18,0.09-0.37,0.13-0.55
		c0.08-0.37-0.05-0.62-0.37-0.73c-0.32-0.11-0.66,0.01-0.82,0.3c-0.05,0.09-0.07,0.19-0.1,0.29c-0.69,2.69-1.1,5.42-1.23,8.19
		c-0.13,2.6-0.01,5.18,0.35,7.75c0.27,1.91,0.67,3.8,1.22,5.66c0.11,0.38,0.22,0.75,0.32,1.13c0.05,0.18,0.13,0.33,0.29,0.43
		c0.06,0.05,0.07,0.12,0.03,0.19c-0.24,0.22-0.31,0.51-0.32,0.83c-0.05,1.54-0.06,3.07,0.14,4.6c0.2,1.56,0.4,3.12,0.83,4.65
		c0.14,0.48,0.38,0.72,0.7,0.64c0.32-0.08,0.45-0.44,0.31-0.93c-0.34-1.21-0.57-2.45-0.72-3.7c-0.2-1.67-0.31-3.36-0.19-5.05
		c0.03-0.38-0.02-0.73-0.29-1.03C319.45,288.29,319.53,288.27,319.64,288.3z"/>
	<path class="st14" d="M300.7,333.76c0.33,0.07,0.61,0.13,0.9,0.18c0.69,0.13,1.34,0.03,1.95-0.3c0.19-0.1,0.35-0.17,0.51,0.06
		c0.06,0.09,0.18,0.13,0.28,0.19c1.82,1.13,3.48,2.46,4.98,3.99c0.21,0.21,0.21,0.21,0.04,0.46c-0.54,0.83-1.15,1.61-1.88,2.29
		c-0.13,0.12-0.25,0.25-0.38,0.38c-0.75,0.71-1.08,1.61-1.12,2.63c-0.01,0.16-0.02,0.33-0.03,0.49c-0.12,0.04-0.21-0.03-0.3-0.06
		c-1.44-0.51-2.84-0.42-4.21,0.26c-0.28,0.14-0.28,0.14-0.42-0.12c-0.48-0.83-1.17-1.43-2.06-1.78c-0.18-0.07-0.36-0.13-0.54-0.19
		c-0.92-0.3-1.72-0.8-2.46-1.42c-0.29-0.25-0.25-0.23-0.07-0.48c0.57-0.76,1.13-1.53,1.71-2.29c0.92-1.2,1.85-2.39,2.77-3.58
		C300.54,334.26,300.69,334.06,300.7,333.76z"/>
	<path d="M318.05,276.75c0.02,0.06,0.03,0.12,0.05,0.19c0.1-0.11,0.13-0.24,0.19-0.36c0.43-0.95,1.08-1.71,1.97-2.25
		c0.15-0.09,0.31-0.17,0.5-0.17c0.25,0,0.5,0.15,0.61,0.39c0.1,0.21,0.05,0.48-0.14,0.66c-0.1,0.1-0.22,0.17-0.33,0.25
		c-0.72,0.46-1.22,1.09-1.55,1.88c-0.01,0.02-0.02,0.05-0.03,0.07c-0.21,0.46-0.58,0.54-0.98,0.23c-0.07-0.06-0.08-0.25-0.25-0.15
		C318.06,277.24,317.93,277,318.05,276.75z"/>
	<path class="st16" d="M319.64,288.3c-0.05,0.04-0.13,0.02-0.16,0.09c-0.15,0.09-0.3,0.1-0.45-0.02c-0.01-0.05-0.02-0.09-0.03-0.14
		C319.2,288.36,319.44,288.19,319.64,288.3z"/>
	<path class="st17" d="M323.28,281c-0.05-0.02-0.09-0.04-0.14-0.05c-0.02-0.08,0.01-0.13,0.09-0.21
		C323.28,280.82,323.3,280.9,323.28,281z"/>
	<path class="st18" d="M274.84,318.59c-0.03-0.03-0.05-0.07-0.1-0.07c0.02-0.06,0.02-0.16,0.11-0.12
		C274.91,318.44,274.89,318.53,274.84,318.59z"/>
	<path class="st19" d="M276.15,315.2c-0.06,0-0.08-0.03-0.07-0.08c0.01-0.04,0.04-0.05,0.06-0.01
		C276.17,315.13,276.18,315.16,276.15,315.2z"/>
	<path class="st20" d="M276.15,315.2c0-0.03-0.01-0.06-0.01-0.09c0.05,0.03,0.1,0.06,0.06,0.13
		C276.18,315.25,276.15,315.23,276.15,315.2z"/>
	<path d="M294.66,311.01c1.22,0.65,2.44,1.3,3.73,1.8c1.47,0.57,2.97,0.6,4.49,0.23c1.79-0.44,3.37-1.3,4.85-2.38
		c0.12-0.09,0.24-0.19,0.37-0.27c0.28-0.18,0.58-0.14,0.79,0.09c0.22,0.24,0.26,0.58,0.07,0.84c-0.07,0.09-0.16,0.16-0.25,0.23
		c-1.51,1.13-3.13,2.06-4.95,2.61c-2.1,0.63-4.18,0.63-6.21-0.26c-0.8-0.35-1.59-0.73-2.37-1.13c-0.68-0.35-1.36-0.69-2.04-1.04
		c-0.51-0.26-1-0.56-1.46-0.9c-0.15-0.11-0.3-0.24-0.4-0.4c-0.15-0.25-0.18-0.5-0.03-0.76c0.15-0.24,0.37-0.31,0.66-0.28
		c2.58,0.26,5.17,0.29,7.76,0.12c1.69-0.11,3.36-0.31,5.02-0.68c1.7-0.38,3.35-0.93,4.94-1.65c0.08-0.04,0.16-0.08,0.24-0.11
		c0.34-0.12,0.65,0.01,0.79,0.32c0.16,0.35,0.06,0.67-0.29,0.83c-0.83,0.4-1.69,0.75-2.57,1.05c-2.44,0.85-4.96,1.27-7.53,1.46
		c-1.71,0.12-3.42,0.17-5.14,0.12c-0.08,0-0.15,0.01-0.23,0.02C294.66,310.87,294.61,310.89,294.66,311.01z"/>
	<path d="M301.94,325.14c-2.35,0.33-4.7,0.03-7.02-0.62c-3.42-0.95-6.53-2.5-9.31-4.71c-0.11-0.09-0.22-0.17-0.31-0.28
		c-0.26-0.3-0.21-0.75,0.11-0.97c0.24-0.16,0.46-0.13,0.75,0.11c0.88,0.74,1.81,1.4,2.8,1.97c2.66,1.55,5.49,2.68,8.55,3.16
		c1.9,0.3,3.8,0.25,5.68-0.18c2.09-0.47,3.96-1.4,5.67-2.67c2.06-1.54,3.74-3.42,5.07-5.63c0.06-0.1,0.11-0.2,0.18-0.29
		c0.2-0.29,0.54-0.37,0.84-0.21c0.28,0.15,0.39,0.48,0.27,0.79c-0.02,0.06-0.05,0.11-0.09,0.17c-1.92,3.16-4.38,5.77-7.65,7.57
		C305.76,324.3,303.94,324.9,301.94,325.14z"/>
	<path d="M298.15,259.35c-1.72,0.13-3.44,0.26-5.17,0.31c-1.57,0.05-3.15,0.07-4.72,0.04c-2.5-0.04-4.99-0.19-7.48-0.43
		c-2.2-0.22-4.38-0.51-6.56-0.89c-0.43-0.07-0.64-0.28-0.65-0.62c-0.02-0.42,0.3-0.72,0.73-0.66c0.61,0.09,1.22,0.21,1.84,0.31
		c2.9,0.46,5.81,0.74,8.74,0.91c1.94,0.11,3.88,0.15,5.82,0.13c1.88-0.02,3.76-0.09,5.63-0.24c1.22-0.09,2.43-0.2,3.64-0.33
		c0.49-0.05,0.84,0.35,0.71,0.82c-0.09,0.31-0.32,0.44-0.63,0.47C299.42,259.22,298.79,259.28,298.15,259.35z"/>
	<path d="M309.19,261.66c-2.31,0.27-4.63,0.43-6.96,0.45c-2.65,0.02-5.3-0.11-7.94-0.41c-0.06-0.01-0.13-0.01-0.19-0.02
		c-0.37-0.08-0.58-0.37-0.53-0.71c0.05-0.35,0.33-0.58,0.7-0.55c0.45,0.04,0.91,0.1,1.36,0.15c2.17,0.21,4.35,0.3,6.54,0.28
		c2.94-0.03,5.86-0.26,8.77-0.71c2.26-0.35,4.5-0.82,6.7-1.44c0.46-0.13,0.85,0.09,0.93,0.52c0.06,0.34-0.11,0.59-0.49,0.69
		c-0.37,0.1-0.74,0.2-1.1,0.29C314.4,260.84,311.82,261.36,309.19,261.66z"/>
	<path d="M302.12,303.44c-1.29,0.13-2.49-0.13-3.57-0.88c-0.17-0.12-0.33-0.23-0.5-0.35c-0.27-0.2-0.55-0.24-0.86-0.09
		c-0.15,0.07-0.3,0.14-0.45,0.2c-0.75,0.33-1.4,0.15-1.87-0.52c-0.34-0.48-0.47-1.04-0.52-1.61c-0.05-0.59,0-1.16,0.16-1.73
		c0.09-0.34,0.3-0.61,0.55-0.85c0.1-0.1,0.22-0.17,0.36-0.2c0.28-0.07,0.51,0.09,0.54,0.38c0.01,0.1,0.01,0.2-0.01,0.3
		c-0.08,0.44-0.16,0.87-0.27,1.3c-0.13,0.52-0.05,1.01,0.15,1.49c0.14,0.35,0.24,0.38,0.57,0.19c0.47-0.26,0.95-0.4,1.49-0.33
		c0.36,0.05,0.68,0.21,0.97,0.41c0.21,0.14,0.41,0.31,0.62,0.44c0.88,0.54,1.82,0.74,2.84,0.52c0.15-0.03,0.29-0.09,0.43-0.15
		c0.24-0.12,0.41-0.29,0.45-0.57c0.03-0.19,0.09-0.37,0.16-0.55c0.2-0.51,0.54-0.88,1.05-1.1c0.09-0.04,0.19-0.08,0.28-0.12
		c0.45-0.2,0.57-0.44,0.44-0.91c-0.16-0.59-0.46-1.1-0.93-1.49c-0.13-0.11-0.26-0.2-0.39-0.31c-0.32-0.27-0.39-0.62-0.19-0.9
		c0.21-0.29,0.62-0.36,0.95-0.13c1,0.72,1.69,1.63,1.81,2.9c0.09,0.99-0.31,1.68-1.25,2.01c-0.46,0.16-0.69,0.43-0.72,0.91
		c-0.03,0.54-0.33,0.92-0.76,1.22C303.19,303.24,302.67,303.38,302.12,303.44z"/>
	<path d="M296.06,264.78c-4.02,0.38-7.93,0.21-11.81-0.5c-1.95-0.36-3.86-0.86-5.74-1.48c-0.13-0.04-0.27-0.09-0.39-0.14
		c-0.34-0.14-0.47-0.4-0.39-0.72c0.09-0.35,0.4-0.56,0.75-0.48c0.18,0.04,0.36,0.11,0.54,0.17c3.58,1.21,7.26,1.87,11.03,2.03
		c2.34,0.1,4.67,0.01,6.99-0.3c0.16-0.02,0.33-0.05,0.49-0.06c0.4-0.03,0.66,0.2,0.7,0.58c0.04,0.37-0.16,0.63-0.54,0.69
		C297.12,264.65,296.54,264.71,296.06,264.78z"/>
	<path d="M304.49,286.93c-0.42,0.31-0.79,0.67-1.13,1.07c-0.28,0.32-0.65,0.33-0.93,0.05c-0.21-0.2-0.24-0.44-0.08-0.69
		c0.05-0.07,0.11-0.14,0.17-0.21c1.46-1.67,3.3-2.65,5.51-2.84c2.33-0.2,4.37,0.56,6.14,2.08c0.07,0.06,0.13,0.12,0.18,0.19
		c0.19,0.27,0.16,0.6-0.06,0.79c-0.22,0.19-0.58,0.23-0.8,0.01c-0.36-0.34-0.76-0.63-1.19-0.88c-0.05-0.03-0.11-0.06-0.16-0.09
		C310.52,289.17,306.76,289.84,304.49,286.93z"/>
	<path d="M287.11,286.84c2.17-0.24,4.15,0.29,5.92,1.57c0.39,0.28,0.45,0.58,0.22,0.91c-0.22,0.3-0.54,0.35-0.86,0.11
		c-0.36-0.26-0.73-0.5-1.14-0.69c-0.25-0.12-0.25-0.18-0.42,0.14c-0.58,1.1-1.44,1.89-2.62,2.3c-1.28,0.44-2.5,0.28-3.65-0.43
		c-0.35-0.21-0.67-0.46-0.94-0.77c-0.13-0.15-0.21-0.12-0.33,0.01c-0.3,0.31-0.58,0.64-0.83,0.99c-0.27,0.39-0.54,0.46-0.86,0.25
		c-0.33-0.22-0.38-0.59-0.11-0.96c0.96-1.34,2.2-2.34,3.75-2.94C285.84,287.09,286.47,286.92,287.11,286.84z"/>
	<path d="M298.4,256.09c-2.24,0.1-4.46,0-6.68-0.26c-3.38-0.4-6.65-1.22-9.82-2.44c-0.06-0.02-0.12-0.04-0.18-0.07
		c-0.39-0.16-0.53-0.45-0.41-0.81c0.13-0.38,0.48-0.55,0.89-0.4c0.44,0.16,0.88,0.33,1.32,0.49c3.26,1.18,6.62,1.87,10.08,2.13
		c1.58,0.12,3.17,0.15,4.75,0.07c0.36-0.02,0.61,0.14,0.73,0.43c0.16,0.4-0.07,0.78-0.49,0.84
		C298.53,256.07,298.47,256.08,298.4,256.09z"/>
	<path d="M315.13,257.54c-4.72,0.43-9.1-0.57-13.14-3.05c-0.65-0.4-1.28-0.83-1.87-1.31c-0.32-0.26-0.38-0.63-0.17-0.94
		c0.2-0.3,0.53-0.36,0.82-0.14c0.24,0.18,0.48,0.38,0.72,0.56c3.01,2.15,6.37,3.37,10.06,3.65c1.37,0.1,2.74,0.05,4.1-0.12
		c0.16-0.02,0.33-0.05,0.49,0.02c0.24,0.1,0.4,0.38,0.38,0.65c-0.02,0.29-0.2,0.5-0.48,0.56c-0.15,0.03-0.3,0.04-0.45,0.06
		C315.44,257.5,315.29,257.52,315.13,257.54z"/>
	<path d="M290.47,267.8c-4.81,0.35-9.55,0.01-14.24-1.15c-0.11-0.03-0.22-0.05-0.33-0.09c-0.38-0.12-0.57-0.45-0.47-0.83
		c0.09-0.35,0.41-0.54,0.81-0.43c1.03,0.27,2.07,0.49,3.12,0.67c2.39,0.41,4.8,0.64,7.23,0.65c1.31,0.01,2.61-0.04,3.92-0.14
		c0.47-0.04,0.8,0.3,0.74,0.74c-0.04,0.3-0.22,0.48-0.51,0.53C290.64,267.78,290.56,267.79,290.47,267.8z"/>
	<path d="M274.41,302.31c0.01,0.05,0.02,0.1,0.03,0.15c0.06,0.37-0.04,0.59-0.34,0.71c-0.29,0.12-0.64,0.02-0.82-0.23
		c-0.07-0.1-0.12-0.22-0.14-0.35c-0.32-1.46-0.72-2.91-1.17-4.33c-0.88-2.76-2.01-5.42-3.38-7.97c-0.04-0.07-0.08-0.13-0.11-0.2
		c-0.15-0.32-0.09-0.59,0.16-0.77c0.27-0.19,0.64-0.16,0.87,0.06c0.08,0.08,0.13,0.18,0.19,0.28c1.43,2.62,2.6,5.36,3.51,8.2
		c0.24,0.74,0.46,1.48,0.66,2.22c0.19,0.74,0.37,1.48,0.55,2.22C274.42,302.31,274.41,302.31,274.41,302.31z"/>
	<path d="M307.45,282.48c-1.47,0.17-3.01,0.62-4.51,1.25c-0.06,0.02-0.11,0.06-0.17,0.08c-0.38,0.14-0.69,0.03-0.82-0.3
		c-0.1-0.26-0.08-0.62,0.35-0.8c0.7-0.3,1.41-0.57,2.14-0.79c1.29-0.4,2.61-0.64,3.96-0.74c1.72-0.14,3.42-0.02,5.1,0.34
		c0.12,0.03,0.25,0.06,0.35,0.13c0.24,0.16,0.32,0.4,0.24,0.66c-0.09,0.28-0.32,0.44-0.6,0.43c-0.1-0.01-0.2-0.03-0.3-0.05
		C311.33,282.28,309.47,282.21,307.45,282.48z"/>
	<path d="M285.62,284.17c2.12-0.29,4.22-0.19,6.31,0.29c0.14,0.03,0.27,0.06,0.4,0.11c0.32,0.13,0.47,0.44,0.37,0.74
		c-0.1,0.31-0.39,0.47-0.72,0.39c-1.1-0.26-2.21-0.42-3.34-0.47c-1.58-0.06-3.14,0.09-4.68,0.46c-0.89,0.22-1.75,0.51-2.6,0.84
		c-0.46,0.18-0.83-0.06-0.86-0.53c-0.02-0.27,0.09-0.44,0.4-0.57c0.67-0.28,1.35-0.51,2.04-0.71
		C283.82,284.46,284.71,284.28,285.62,284.17z"/>
	<path d="M319.03,288.38c0.15,0.01,0.3-0.05,0.45,0.02c0.36,0.14,0.43,0.43,0.41,0.77c-0.04,0.75-0.06,1.49-0.04,2.24
		c0.03,1.36,0.14,2.71,0.37,4.05c0.16,0.98,0.36,1.95,0.62,2.9c0.02,0.06,0.03,0.12,0.03,0.19c0.03,0.35-0.18,0.67-0.46,0.73
		c-0.36,0.07-0.69-0.12-0.79-0.49c-0.12-0.47-0.24-0.93-0.34-1.4c-0.3-1.37-0.5-2.75-0.62-4.14c-0.12-1.38-0.13-2.76-0.06-4.14
		C318.62,288.79,318.67,288.49,319.03,288.38z"/>
	<path d="M271.35,280.62c0.04,0.33-0.12,0.55-0.39,0.72c-0.66,0.43-1.32,0.85-1.97,1.3c-1.65,1.13-3.2,2.36-4.7,3.68
		c-0.05,0.04-0.09,0.09-0.14,0.13c-0.28,0.24-0.52,0.25-0.75,0.05c-0.24-0.21-0.29-0.61-0.11-0.87c0.06-0.09,0.15-0.17,0.24-0.24
		c2.15-1.89,4.43-3.59,6.85-5.11c0.04-0.03,0.08-0.06,0.13-0.08C270.93,279.94,271.3,280.13,271.35,280.62z"/>
	<path d="M270.99,276.18c0.37-0.04,0.64,0.13,0.74,0.42c0.11,0.3-0.01,0.62-0.31,0.77c-0.3,0.14-0.61,0.25-0.91,0.37
		c-1.58,0.64-3.15,1.33-4.68,2.09c-0.09,0.04-0.18,0.09-0.27,0.13c-0.37,0.15-0.69,0.04-0.84-0.28c-0.16-0.34-0.06-0.7,0.29-0.88
		c0.61-0.31,1.23-0.6,1.85-0.89c1.28-0.6,2.58-1.16,3.91-1.66C270.85,276.22,270.95,276.19,270.99,276.18z"/>
	<path d="M265.12,275.64c-0.4,0.04-0.7-0.16-0.78-0.49c-0.08-0.32,0.05-0.6,0.39-0.73c0.59-0.23,1.19-0.44,1.78-0.65
		c1.28-0.47,2.55-1,3.8-1.54c0.07-0.03,0.14-0.06,0.21-0.09c0.4-0.16,0.74-0.05,0.9,0.29c0.17,0.37,0.02,0.71-0.39,0.89
		c-1.71,0.74-3.43,1.44-5.19,2.06C265.58,275.48,265.32,275.57,265.12,275.64z"/>
	<path d="M268.66,292.82c0.48-0.08,0.86,0.36,0.72,0.84c-0.08,0.28-0.19,0.55-0.25,0.84c-0.33,1.53-0.06,2.95,0.81,4.25
		c0.05,0.07,0.11,0.14,0.15,0.22c0.16,0.31,0.05,0.68-0.25,0.87c-0.29,0.18-0.62,0.12-0.83-0.18c-0.72-0.99-1.13-2.09-1.26-3.3
		c-0.11-1.05,0.03-2.07,0.41-3.06C268.25,293.04,268.4,292.87,268.66,292.82z"/>
	<path d="M296.99,289.15c0.24,1.81,0.2,3.42-0.29,5c-0.1,0.33-0.22,0.65-0.36,0.96c-0.13,0.28-0.42,0.36-0.67,0.21
		c-0.17-0.1-0.24-0.26-0.2-0.45c0.01-0.05,0.03-0.1,0.05-0.14c0.77-1.84,0.83-3.74,0.54-5.68c-0.08-0.5-0.18-1-0.29-1.5
		c-0.05-0.25,0.06-0.41,0.26-0.48c0.22-0.07,0.44,0.01,0.55,0.21c0.04,0.08,0.07,0.16,0.09,0.25
		C296.82,288.12,296.95,288.72,296.99,289.15z"/>
	<path d="M321.65,277.57c0.28-0.03,0.54,0.13,0.67,0.41c0.1,0.21,0.05,0.46-0.15,0.66c-0.14,0.13-0.3,0.23-0.44,0.36
		c-0.74,0.71-1.26,1.55-1.45,2.57c-0.01,0.05-0.02,0.1-0.03,0.15c-0.09,0.41-0.35,0.6-0.73,0.53c-0.37-0.07-0.6-0.39-0.54-0.78
		c0.06-0.36,0.17-0.71,0.3-1.06c0.42-1.06,1.08-1.94,1.98-2.64C321.42,277.62,321.51,277.58,321.65,277.57z"/>
	<path class="st21" d="M294.66,311.01c-0.08,0-0.14-0.04-0.25-0.13c0.2-0.02,0.34-0.05,0.49,0.02
		C294.82,310.94,294.71,310.91,294.66,311.01z"/>
	<path class="st10" d="M311.1,285.92c-0.93,1.82-3.82,2.84-5.68,0.39C307.26,285.31,309.15,285.24,311.1,285.92z"/>
	<path class="st10" d="M284.32,289.15c1.74-1.15,3.61-1.42,5.63-0.91C289.02,290.32,286.24,291.29,284.32,289.15z"/>
</g>
<g id="Vector_Smart_Object_1_">
	<g>
		<defs>
			<rect id="SVGID_1_" x="341.88" y="28.18" width="144.39" height="113.68"/>
		</defs>
		<clipPath id="SVGID_2_">
			<use xlink:href="#SVGID_1_"  style="overflow:visible;"/>
		</clipPath>
		<g class="st22">
			<defs>
				<rect id="SVGID_3_" x="341.88" y="28.19" width="144.39" height="113.68"/>
			</defs>
			<clipPath id="SVGID_4_">
				<use xlink:href="#SVGID_3_"  style="overflow:visible;"/>
			</clipPath>
			<path class="st23" d="M478.38,140.91h-128.1c-1.58,0-2.87-1.29-2.87-2.87V78.28c0-1.58,1.29-2.87,2.87-2.87h128.1
				c1.58,0,2.87,1.29,2.87,2.87v59.76C481.25,139.62,479.97,140.91,478.38,140.91"/>
			<path class="st24" d="M350.29,75.42h128.1c1.59,0,2.87,1.29,2.87,2.87v59.76c0,1.59-1.29,2.87-2.87,2.87h-128.1
				c-1.59,0-2.87-1.28-2.87-2.87V78.29C347.42,76.71,348.7,75.42,350.29,75.42z"/>
			<path class="st24" d="M343.8,134.15h140.55c0.53,0,0.96,0.43,0.96,0.96v4.84c0,0.53-0.43,0.96-0.96,0.96H343.8
				c-0.53,0-0.96-0.43-0.96-0.96v-4.84C342.83,134.58,343.26,134.15,343.8,134.15z"/>
			<rect x="349.61" y="94.29" class="st25" width="4.59" height="13.56"/>
			<rect x="349.61" y="94.29" class="st26" width="4.59" height="13.56"/>
			<path class="st27" d="M361,93.82h3.46c0.59,0,1.06,0.47,1.06,1.06v11.51c0,0.59-0.47,1.06-1.06,1.06H361
				c-0.59,0-1.06-0.47-1.06-1.06V94.88C359.94,94.3,360.42,93.82,361,93.82z"/>
			<path class="st27" d="M350.17,93.82h3.46c0.59,0,1.06,0.47,1.06,1.06v11.51c0,0.59-0.47,1.06-1.06,1.06h-3.46
				c-0.59,0-1.06-0.47-1.06-1.06V94.88C349.11,94.3,349.59,93.82,350.17,93.82z"/>
			<path class="st27" d="M371.84,93.82h3.46c0.59,0,1.06,0.47,1.06,1.06v11.51c0,0.59-0.47,1.06-1.06,1.06h-3.46
				c-0.59,0-1.06-0.47-1.06-1.06V94.88C370.78,94.3,371.25,93.82,371.84,93.82z"/>
			<path class="st27" d="M382.66,93.82h3.46c0.59,0,1.06,0.47,1.06,1.06v11.51c0,0.59-0.47,1.06-1.06,1.06h-3.46
				c-0.58,0-1.06-0.47-1.06-1.06V94.88C381.6,94.3,382.08,93.82,382.66,93.82z"/>
			<path class="st27" d="M395.81,93.82h3.46c0.59,0,1.06,0.47,1.06,1.06v11.51c0,0.59-0.47,1.06-1.06,1.06h-3.46
				c-0.59,0-1.06-0.47-1.06-1.06V94.88C394.75,94.3,395.23,93.82,395.81,93.82z"/>
			<path class="st27" d="M411.68,93.82h3.46c0.59,0,1.06,0.47,1.06,1.06v11.51c0,0.59-0.48,1.06-1.06,1.06h-3.46
				c-0.58,0-1.06-0.47-1.06-1.06V94.88C410.62,94.3,411.1,93.82,411.68,93.82z"/>
			<path class="st27" d="M426.79,93.82h3.46c0.59,0,1.06,0.47,1.06,1.06v11.51c0,0.59-0.47,1.06-1.06,1.06h-3.46
				c-0.59,0-1.06-0.47-1.06-1.06V94.88C425.73,94.3,426.21,93.82,426.79,93.82z"/>
			<path class="st27" d="M441.82,93.82h3.46c0.59,0,1.06,0.47,1.06,1.06v11.51c0,0.59-0.47,1.06-1.06,1.06h-3.46
				c-0.59,0-1.06-0.47-1.06-1.06V94.88C440.76,94.3,441.23,93.82,441.82,93.82z"/>
			<path class="st27" d="M452.85,93.82h3.46c0.59,0,1.06,0.47,1.06,1.06v11.51c0,0.59-0.47,1.06-1.06,1.06h-3.46
				c-0.59,0-1.06-0.47-1.06-1.06V94.88C451.79,94.3,452.26,93.82,452.85,93.82z"/>
			<path class="st27" d="M463.15,93.82h3.46c0.59,0,1.06,0.47,1.06,1.06v11.51c0,0.59-0.48,1.06-1.06,1.06h-3.46
				c-0.58,0-1.06-0.47-1.06-1.06V94.88C462.09,94.3,462.57,93.82,463.15,93.82z"/>
			<path class="st27" d="M474.07,93.82h3.46c0.59,0,1.06,0.47,1.06,1.06v11.51c0,0.59-0.48,1.06-1.06,1.06h-3.46
				c-0.58,0-1.06-0.47-1.06-1.06V94.88C473.01,94.3,473.49,93.82,474.07,93.82z"/>
			<path class="st27" d="M350.17,116.05h3.46c0.59,0,1.06,0.47,1.06,1.06v11.51c0,0.59-0.47,1.06-1.06,1.06h-3.46
				c-0.59,0-1.06-0.47-1.06-1.06v-11.51C349.11,116.53,349.59,116.05,350.17,116.05z"/>
			<path class="st27" d="M361.01,116.05h3.46c0.59,0,1.06,0.47,1.06,1.06v11.51c0,0.59-0.47,1.06-1.06,1.06h-3.46
				c-0.59,0-1.06-0.47-1.06-1.06v-11.51C359.95,116.53,360.43,116.05,361.01,116.05z"/>
			<path class="st27" d="M371.85,116.05h3.46c0.59,0,1.06,0.47,1.06,1.06v11.51c0,0.59-0.48,1.06-1.06,1.06h-3.46
				c-0.58,0-1.06-0.47-1.06-1.06v-11.51C370.79,116.53,371.27,116.05,371.85,116.05z"/>
			<path class="st27" d="M382.66,116.05h3.46c0.59,0,1.06,0.47,1.06,1.06v11.51c0,0.59-0.47,1.06-1.06,1.06h-3.46
				c-0.58,0-1.06-0.47-1.06-1.06v-11.51C381.6,116.53,382.08,116.05,382.66,116.05z"/>
			<path class="st27" d="M396.23,116.05h3.46c0.59,0,1.06,0.47,1.06,1.06v11.51c0,0.59-0.47,1.06-1.06,1.06h-3.46
				c-0.59,0-1.06-0.47-1.06-1.06v-11.51C395.17,116.53,395.64,116.05,396.23,116.05z"/>
			<path class="st27" d="M409.8,116.05h6.69c0.59,0,1.06,0.47,1.06,1.06v15.41c0,0.59-0.47,1.06-1.06,1.06h-6.69
				c-0.59,0-1.06-0.47-1.06-1.06v-15.41C408.74,116.53,409.22,116.05,409.8,116.05z"/>
			<path class="st27" d="M426.79,116.05h3.46c0.59,0,1.06,0.47,1.06,1.06v11.51c0,0.59-0.47,1.06-1.06,1.06h-3.46
				c-0.59,0-1.06-0.47-1.06-1.06v-11.51C425.73,116.53,426.21,116.05,426.79,116.05z"/>
			<path class="st27" d="M441.82,116.46h3.46c0.59,0,1.06,0.47,1.06,1.06v11.51c0,0.59-0.47,1.06-1.06,1.06h-3.46
				c-0.59,0-1.06-0.47-1.06-1.06v-11.51C440.76,116.93,441.23,116.46,441.82,116.46z"/>
			<path class="st27" d="M452.85,116.46h3.46c0.59,0,1.06,0.47,1.06,1.06v11.51c0,0.59-0.47,1.06-1.06,1.06h-3.46
				c-0.59,0-1.06-0.47-1.06-1.06v-11.51C451.79,116.93,452.26,116.46,452.85,116.46z"/>
			<path class="st27" d="M463.15,116.46h3.46c0.59,0,1.06,0.47,1.06,1.06v11.51c0,0.59-0.48,1.06-1.06,1.06h-3.46
				c-0.58,0-1.06-0.47-1.06-1.06v-11.51C462.09,116.93,462.57,116.46,463.15,116.46z"/>
			<path class="st27" d="M474.07,116.46h3.46c0.59,0,1.06,0.47,1.06,1.06v11.51c0,0.59-0.48,1.06-1.06,1.06h-3.46
				c-0.58,0-1.06-0.47-1.06-1.06v-11.51C473.01,116.93,473.49,116.46,474.07,116.46z"/>
			<path class="st28" d="M350.29,127.38h11.19c1.59,0,2.87,1.29,2.87,2.87v7.79c0,1.58-1.28,2.87-2.87,2.87h-11.19
				c-1.58,0-2.87-1.29-2.87-2.87v-7.79C347.42,128.66,348.7,127.38,350.29,127.38"/>
			<path class="st28" d="M373.96,127.38h11.19c1.59,0,2.87,1.29,2.87,2.87v7.79c0,1.58-1.28,2.87-2.87,2.87h-11.19
				c-1.58,0-2.87-1.29-2.87-2.87v-7.79C371.09,128.66,372.38,127.38,373.96,127.38"/>
			<path class="st28" d="M442.43,127.38h11.17c1.58,0,2.86,1.29,2.87,2.87v7.79c0,1.58-1.28,2.87-2.87,2.87h-11.17
				c-1.58,0-2.87-1.29-2.87-2.87v-7.79C439.56,128.66,440.85,127.38,442.43,127.38"/>
			<path class="st28" d="M466.1,127.38h11.19c1.59,0,2.87,1.29,2.87,2.87v7.79c0,1.58-1.28,2.87-2.87,2.87H466.1
				c-1.58,0-2.87-1.29-2.87-2.87v-7.79C463.24,128.66,464.52,127.38,466.1,127.38"/>
			<rect x="389.18" y="89.49" class="st24" width="4.45" height="44.1"/>
			<rect x="432.45" y="89.49" class="st24" width="4.45" height="44.1"/>
			<rect x="403.56" y="89.49" class="st27" width="4.55" height="44.1"/>
			<path class="st23" d="M482.32,89.48H346.25c-0.76,0-1.39-0.63-1.39-1.39v-2.61c0-0.76,0.62-1.39,1.39-1.39h136.07
				c0.76,0,1.39,0.63,1.39,1.39v2.61C483.71,88.86,483.08,89.48,482.32,89.48"/>
			<path class="st24" d="M346.25,84.07h136.07c0.77,0,1.39,0.62,1.39,1.39v2.63c0,0.77-0.62,1.39-1.39,1.39H346.25
				c-0.77,0-1.39-0.62-1.39-1.39v-2.63C344.86,84.7,345.48,84.07,346.25,84.07z"/>
			<rect x="418.71" y="89.49" class="st27" width="4.55" height="44.1"/>
			<path class="st24" d="M400.2,137.53h27.19c0.62,0,1.13,0.51,1.13,1.14v1.11c0,0.63-0.51,1.14-1.13,1.14H400.2
				c-0.63,0-1.14-0.51-1.14-1.14v-1.11C399.07,138.04,399.58,137.53,400.2,137.53z"/>
			<rect x="403.56" y="134.45" class="st24" width="19.71" height="3.08"/>
			<rect x="389.18" y="75.42" class="st24" width="47.72" height="7.99"/>
			<rect x="387.18" y="67.53" class="st23" width="51.66" height="7.89"/>
			<rect x="387.18" y="67.53" class="st24" width="51.66" height="7.89"/>
			<polygon class="st23" points="412.98,51.57 389.45,66.75 436.52,66.75 			"/>
			<polygon class="st29" points="412.98,51.57 389.45,66.75 436.52,66.75 			"/>
			<rect x="420.22" y="30.97" class="st30" width="7.24" height="2.65"/>
			<rect x="418.83" y="36.45" class="st30" width="8.41" height="2.08"/>
			<path class="st31" d="M413.06,52.76L413.06,52.76c-0.7,0-1.26-0.56-1.26-1.26V29.45c0-0.7,0.56-1.26,1.26-1.26
				s1.26,0.56,1.26,1.26V51.5C414.31,52.2,413.75,52.76,413.06,52.76"/>
			<rect x="413.73" y="31.2" class="st32" width="6.49" height="7.33"/>
			<path class="st24" d="M414.31,30.54h12.19c0.7,0,1.26,0.56,1.26,1.26v9.88c0,0.7-0.57,1.26-1.26,1.26h-12.19
				c-0.7,0-1.26-0.57-1.26-1.26V31.8C413.06,31.11,413.62,30.54,414.31,30.54z"/>
		</g>
	</g>
</g>
<g>
	<path class="st10" d="M338.82,262.35c5.24-0.11,19.52-1.13,31.26-11.65c11.08-9.92,12.27-15.58,13.8-22.81
		c4.54-21.48-2.59-36.44,2.14-53.2c2.06-7.31,7.11-17.93,21.45-28.81"/>
	<g>
		<path class="st33" d="M338.82,265.35c11.61-0.31,23.04-3.93,32.07-11.39c9.58-7.92,14.65-16.87,16.57-28.99
			c2.28-14.39-1.42-28.64,0.17-42.97c1.6-14.33,10.93-25.42,21.97-33.99c3.05-2.37-1.23-6.58-4.24-4.24
			c-9.58,7.44-17.89,16.74-21.71,28.45c-4.07,12.48-1.37,25.41-1.18,38.2c0.19,12.67-1.57,25.12-10.64,34.48
			c-8.89,9.17-20.26,14.1-32.99,14.44C334.97,259.45,334.96,265.45,338.82,265.35L338.82,265.35z"/>
	</g>
</g>
<g>
	<path class="st10" d="M462.97,278.64c2.18-12.86-0.22-21.39-3.06-26.97c-6.32-12.4-15.7-11.87-24.52-26.36
		c-6.21-10.19-7.73-20.57-8.58-26.36c-1.61-10.96,0.12-14.92-1.23-26.97c-1.15-10.33-3.66-18.51-5.52-23.64"/>
	<g>
		<path class="st34" d="M465.87,279.44c1.72-11.1,1.22-22.92-5.28-32.51c-2.82-4.17-6.55-7.19-10.49-10.24
			c-5.79-4.49-10.54-9.51-13.93-16.1c-5.55-10.81-7.23-23.3-7.07-35.31c0.17-12.89-1.82-25.55-6.15-37.71
			c-1.29-3.61-7.08-2.06-5.79,1.6c4.24,11.91,6.07,24.11,5.92,36.73c-0.12,10.87,1.33,22.1,5.4,32.24
			c2.37,5.91,5.59,11.49,9.9,16.21c3.54,3.88,7.92,6.69,11.88,10.08c9.87,8.46,11.71,21.14,9.81,33.44
			C459.5,281.62,465.28,283.25,465.87,279.44L465.87,279.44z"/>
	</g>
</g>
</svg>
