<?xml version="1.0" encoding="utf-8"?>
<!-- Generator: Adobe Illustrator 24.1.0, SVG Export Plug-In . SVG Version: 6.00 Build 0)  -->
<svg version="1.1" id="Layer_1" xmlns="http://www.w3.org/2000/svg" xmlns:xlink="http://www.w3.org/1999/xlink" x="0px" y="0px"
	 viewBox="0 0 438 219" style="enable-background:new 0 0 438 219;" xml:space="preserve">
<style type="text/css">
	.st0{fill:#FDFDFD;}
	.st1{fill:#4672B7;}
	.st2{fill:#FEFEFE;}
	.st3{fill:#010101;}
	.st4{fill:#020202;}
	.st5{fill:#4C4C4C;}
	.st6{fill:#B1B1B1;}
	.st7{fill:#7F7F7F;}
	.st8{fill:#DEDEDE;}
	.st9{fill:#C3C3C3;}
	.st10{fill:#FFFFFF;}
	.st11{fill:#FEC4C6;}
	.st12{fill:#FEE4E5;}
	.st13{fill:#FEDFE0;}
	.st14{fill:#FC474E;}
	.st15{fill:#CBD8D8;}
	.st16{fill:#668787;}
	.st17{fill:#AAB6B6;}
	.st18{fill:#5C6565;}
	.st19{fill:#C5D1D1;}
	.st20{fill:#8C9393;}
	.st21{fill:#CCDDDD;}
	.st22{clip-path:url(#SVGID_2_);}
	.st23{clip-path:url(#SVGID_4_);fill:#F1F1F1;}
	.st24{clip-path:url(#SVGID_4_);fill:none;stroke:#000000;stroke-width:1.9146;stroke-miterlimit:10;}
	.st25{clip-path:url(#SVGID_4_);fill:#FFFFFF;}
	.st26{clip-path:url(#SVGID_4_);fill:none;stroke:#000000;stroke-width:0.4775;stroke-miterlimit:10;}
	.st27{clip-path:url(#SVGID_4_);fill:none;stroke:#000000;stroke-width:1.6736;stroke-miterlimit:10;}
	.st28{clip-path:url(#SVGID_4_);fill:#1D491C;}
	.st29{clip-path:url(#SVGID_4_);fill:none;stroke:#000000;stroke-width:1.9146;stroke-linecap:round;stroke-miterlimit:10;}
	.st30{clip-path:url(#SVGID_4_);fill:#B13634;}
	.st31{clip-path:url(#SVGID_4_);}
	.st32{clip-path:url(#SVGID_4_);fill:#0A258F;}
	.st33{fill:#FF3A3E;}
	.st34{fill:#0077FF;}
	.st35{clip-path:url(#SVGID_6_);}
	.st36{clip-path:url(#SVGID_8_);fill:#F1F1F1;}
	.st37{clip-path:url(#SVGID_8_);fill:none;stroke:#000000;stroke-width:1.9146;stroke-miterlimit:10;}
	.st38{clip-path:url(#SVGID_8_);fill:#FFFFFF;}
	.st39{clip-path:url(#SVGID_8_);fill:none;stroke:#000000;stroke-width:0.4775;stroke-miterlimit:10;}
	.st40{clip-path:url(#SVGID_8_);fill:none;stroke:#000000;stroke-width:1.6736;stroke-miterlimit:10;}
	.st41{clip-path:url(#SVGID_8_);fill:#1D491C;}
	.st42{clip-path:url(#SVGID_8_);fill:none;stroke:#000000;stroke-width:1.9146;stroke-linecap:round;stroke-miterlimit:10;}
	.st43{clip-path:url(#SVGID_8_);fill:#B13634;}
	.st44{clip-path:url(#SVGID_8_);}
	.st45{clip-path:url(#SVGID_8_);fill:#0A258F;}
	.st46{clip-path:url(#SVGID_10_);}
	.st47{clip-path:url(#SVGID_12_);fill:#F1F1F1;}
	.st48{clip-path:url(#SVGID_12_);fill:none;stroke:#000000;stroke-width:1.9146;stroke-miterlimit:10;}
	.st49{clip-path:url(#SVGID_12_);fill:#FFFFFF;}
	.st50{clip-path:url(#SVGID_12_);fill:none;stroke:#000000;stroke-width:0.4775;stroke-miterlimit:10;}
	.st51{clip-path:url(#SVGID_12_);fill:none;stroke:#000000;stroke-width:1.6736;stroke-miterlimit:10;}
	.st52{clip-path:url(#SVGID_12_);fill:#1D491C;}
	.st53{clip-path:url(#SVGID_12_);fill:none;stroke:#000000;stroke-width:1.9146;stroke-linecap:round;stroke-miterlimit:10;}
	.st54{clip-path:url(#SVGID_12_);fill:#B13634;}
	.st55{clip-path:url(#SVGID_12_);}
	.st56{clip-path:url(#SVGID_12_);fill:#0A258F;}
	.st57{clip-path:url(#SVGID_14_);}
	.st58{clip-path:url(#SVGID_16_);fill:#F1F1F1;}
	.st59{clip-path:url(#SVGID_16_);fill:none;stroke:#000000;stroke-width:1.2949;stroke-miterlimit:10;}
	.st60{clip-path:url(#SVGID_16_);fill:#FFFFFF;}
	.st61{clip-path:url(#SVGID_16_);fill:none;stroke:#000000;stroke-width:0.323;stroke-miterlimit:10;}
	.st62{clip-path:url(#SVGID_16_);fill:none;stroke:#000000;stroke-width:1.1319;stroke-miterlimit:10;}
	.st63{clip-path:url(#SVGID_16_);fill:#1D491C;}
	.st64{clip-path:url(#SVGID_16_);fill:none;stroke:#000000;stroke-width:1.2949;stroke-linecap:round;stroke-miterlimit:10;}
	.st65{clip-path:url(#SVGID_16_);fill:#B13634;}
	.st66{clip-path:url(#SVGID_16_);}
	.st67{clip-path:url(#SVGID_16_);fill:#0A258F;}
</style>
<g>
	<path class="st0" d="M289.2,4.57c-0.28,0.3-0.55,0.61-0.84,0.9c-2.31,2.32-4.63,4.63-6.95,6.94c-0.16,0.16-0.34,0.3-0.51,0.45
		c0-2.63,0.01-5.26-0.01-7.89c0-0.34,0.07-0.41,0.41-0.41C283.93,4.58,286.57,4.57,289.2,4.57z"/>
	<path d="M329.43,15.33c0.74,0.29,1.53,0.13,2.28,0.18c1.67,0.12,3.31,0.38,4.94,0.77c2.6,0.62,5.07,1.57,7.34,2.99
		c0.6,0.37,1.18,0.76,1.77,1.14c0.53,0.55,1.1,1.07,1.68,1.56c1.05,0.88,1.85,1.94,2.58,3.07c0.37,0.58,0.62,1.26,0.81,1.92
		c0.44,1.56,0.79,3.15,1.21,4.72c0.08,0.29-0.08,0.63,0.2,0.86c0.08,0.19-0.05,0.42,0.09,0.61l0,0c0.13,0.19-0.03,0.44,0.11,0.63
		c0.21,1.15,0.41,2.31,0.62,3.46c0.15,0.18-0.02,0.44,0.13,0.62c0.01,0.04,0.02,0.08,0.03,0.12c0.08,0.19-0.05,0.42,0.09,0.61l0,0
		c0.13,0.19-0.03,0.44,0.11,0.63c0.01,0.04,0.02,0.08,0.03,0.12c0.08,0.19-0.05,0.42,0.09,0.61l0,0c0.13,0.19-0.03,0.44,0.11,0.63
		c0.01,0.04,0.02,0.08,0.03,0.12c0.08,0.19-0.05,0.42,0.09,0.61l0,0c0.13,0.19-0.03,0.44,0.11,0.63c0.01,0.04,0.02,0.08,0.03,0.12
		c0.08,0.2-0.05,0.43,0.09,0.62c0.11,1.25,0.31,2.49,0.41,3.75c0.07,0.93,0.14,1.86,0.21,2.79c0.12,1.61,0.26,3.23,0.28,4.85
		c0.03,1.77,0.13,3.56-0.34,5.3c-0.25,0.92-0.88,1.18-1.85,0.89c-0.28,0.43,0.15,0.75,0.2,1.13c0.26,1.83,0.01,3.59-0.65,5.27
		c-0.31,0.81-0.84,1.52-1.01,2.41c-0.23,1.22-0.26,2.46-0.37,3.69c-0.01,0.16-0.11,0.31-0.05,0.51c0.06,0.2-0.23,0.62,0.34,0.35
		c0.17-0.08,0.33,0.14,0.45,0.27c1.48,1.75,3.37,3,5.28,4.19c1.23,0.77,2.59,1.26,3.96,1.73c1.51,0.51,3.06,0.82,4.63,1.06
		c1.03,0.16,2.06,0.31,3.11,0.44c-0.3,0.82-0.8,0.97-1.62,0.83c-1.83-0.32-3.7-0.47-5.49-1.02c-1.35-0.42-2.72-0.81-3.97-1.49
		c-0.54-0.29-1.08-0.6-1.61-0.92c-0.83-0.49-1.63-1.01-2.38-1.63c-0.53-0.43-1.01-0.95-1.68-1.27c0.05,0.68,0.32,1.3,0.43,1.95
		c0.18,1.07,0.02,2.09-0.29,3.08c-0.65,2.07-1.04,4.2-1.6,6.3c-0.38,1.43-0.74,2.87-1.15,4.3c-0.53,1.87-0.98,3.75-1.33,5.66
		c-0.06,0.31-0.2,0.58-0.58,0.67c-0.2,0.05-0.46,0.18-0.58,0.04c-0.12-0.15-0.07-0.48-0.01-0.63c0.35-0.96,0.43-1.98,0.7-2.95
		c0.05-0.17,0.09-0.34-0.19-0.32c-0.4,0.02-0.59-0.24-0.79-0.54c-0.63-0.92-1.5-1.63-2.28-2.41c-0.22-0.23-0.36-0.12-0.53,0.09
		c-0.79,0.94-1.61,1.86-2.4,2.81c-0.13,0.16-0.27,0.29-0.42,0.43c-0.39,0.35-0.47,0.75-0.17,1.24c0.42,0.69,0.8,1.41,1.13,2.15
		c0.24,0.53,0.79,0.88,0.9,1.51c-0.34-0.03-0.64,0.26-0.99,0.15c-0.35-0.1-0.52-0.39-0.68-0.67c-0.53-0.91-1-1.84-1.45-2.79
		c-0.16-0.34-0.36-0.45-0.71-0.44c-0.98,0.01-1.92,0.2-2.84,0.5c-0.23,0.08-0.37,0.23-0.5,0.43c-0.77,1.19-1.62,2.33-1.96,3.74
		c-0.03,0.14-0.14,0.25-0.26,0.33c-0.35,0-0.69,0-1.09,0c0.44-1.34,0.79-2.7,1.76-3.8c0.26-0.3,0.63-0.58-0.01-1.12
		c-0.72-0.61-1.35-1.4-1.97-2.15c-0.31-0.37-0.63-0.73-0.96-1.12c-0.98,0.97-1.62,2.14-2.31,3.29c-0.54,0.89-1.05,1.79-1.33,2.8
		c-0.02,0.06-0.06,0.13-0.11,0.15c-0.58,0.22-0.43,0.55-0.17,0.94c0.15,0.22,0.43,0.57,0.15,0.74c-0.23,0.14-0.65,0-0.93-0.18
		c-0.15-0.1-0.31-0.24-0.38-0.4c-0.71-1.58-1.66-3.02-2.54-4.5c-0.7-1.17-1.46-2.31-2.14-3.49c-0.7-1.22-1.22-2.52-1.7-3.85
		c-0.3-0.84-0.53-1.69-0.79-2.54c-0.31-1.03-0.47-2.08-0.65-3.13c-0.08-0.46-0.22-0.9-0.2-1.38c0.01-0.43,0.18-0.59,0.58-0.61
		c0.45-0.03,0.44,0.36,0.47,0.59c0.06,0.72,0.2,1.42,0.33,2.12c0.37,2.01,0.95,3.95,1.75,5.84c0.85,2.03,1.98,3.89,3.16,5.73
		c0.74,1.16,1.42,2.36,2.17,3.61c0.64-1.66,1.51-3.18,2.5-4.63c0.99-1.46,2.09-2.84,3.37-4.04c-2.54-1.28-4.4-3.44-6.59-5.19
		c-1.3-1.04-2.66-2.01-4.01-2.98c-1.01-0.73-1.92-1.54-2.68-2.51c-0.22-0.28-0.31-0.64-0.44-0.94c-0.3-0.69-0.36-1.49-0.56-2.23
		c-0.25-0.93-0.44-1.89-0.82-2.76c-0.69-1.57-1.14-3.19-1.41-4.88c-0.19-1.2-0.44-2.4-0.97-3.51c-0.26-0.55-0.38-0.54-0.73-0.05
		c-0.26,0.36-0.49,0.74-0.81,1.04c-1.14,1.08-2.11,0.68-2.79-0.51c-0.48-0.85-0.71-1.82-1.03-2.74c-0.68-1.93-1.23-3.91-1.89-5.84
		c-0.68-1.97-1.21-3.98-1.59-6.04c-0.22-1.19-0.52-2.37-0.85-3.53c-0.28-0.96-0.6-1.92-0.83-2.88c-0.32-1.37-0.27-2.79-0.26-4.19
		c0.01-1.72,0.17-3.42,0.55-5.11c0.49-2.18,1.26-4.23,2.33-6.2c0.65-1.2,1.42-2.32,2.27-3.37c0.93-1.16,1.99-2.19,3.13-3.17
		c0.95-0.82,1.97-1.53,3.01-2.21c0.67-0.44,1.41-0.8,2.12-1.18c1.18-0.63,2.42-1.16,3.7-1.56c1.4-0.44,2.82-0.77,4.28-1.01
		c1.22-0.19,2.43-0.25,3.65-0.28C329.21,15.46,329.32,15.38,329.43,15.33z"/>
	<path class="st1" d="M333.39,100.44c0.41-1.23,1.02-2.34,1.64-3.47c0.81-1.48,2.08-1.42,3.34-1.67c0.18-0.04,0.37,0.02,0.55-0.02
		c0.49-0.09,0.68,0.09,0.9,0.57c0.57,1.2,1.09,2.44,1.96,3.48c-0.82,0.29-1.69,0.35-2.54,0.52
		C337.32,100.24,335.35,100.33,333.39,100.44z"/>
	<path d="M304.16,90.34c-0.31-0.07-0.51-0.35-0.74-0.54c-0.19-0.16,0.11-0.26,0.22-0.31c1.09-0.51,2.17-1.02,3.28-1.5
		c1.22-0.53,2.39-1.22,3.69-1.52c1.99-0.47,2.7-2.2,3.75-3.61c0.72-0.97,1.34-2.02,2.11-2.94c0.42-0.49,0.79-1.05,1.34-1.44
		c0.29-0.21,0.51-0.27,0.78-0.03c0.29,0.26,0.16,0.55-0.02,0.77c-0.36,0.45-0.79,0.85-1.16,1.29c-1.22,1.45-2.34,2.98-3.33,4.59
		c-0.77,1.26-1.86,1.95-3.22,2.37c-1.32,0.41-2.56,1.02-3.81,1.62c-0.88,0.43-1.81,0.76-2.69,1.22
		C304.31,90.33,304.24,90.32,304.16,90.34z"/>
	<path class="st0" d="M354.06,42.69c-0.2-0.18-0.06-0.41-0.09-0.62C354.13,42.26,354.04,42.48,354.06,42.69z"/>
	<path class="st0" d="M353.94,41.95c-0.21-0.18-0.04-0.42-0.11-0.63C354.02,41.5,353.91,41.74,353.94,41.95z"/>
	<path class="st0" d="M353.69,40.59c-0.21-0.18-0.04-0.42-0.11-0.63C353.77,40.14,353.67,40.38,353.69,40.59z"/>
	<path class="st0" d="M353.57,39.96c-0.22-0.17-0.06-0.41-0.09-0.61C353.63,39.53,353.54,39.76,353.57,39.96z"/>
	<path class="st0" d="M353.44,39.23c-0.21-0.18-0.04-0.42-0.11-0.63C353.52,38.78,353.42,39.02,353.44,39.23z"/>
	<path class="st0" d="M353.32,38.6c-0.22-0.17-0.06-0.41-0.09-0.61C353.39,38.17,353.3,38.39,353.32,38.6z"/>
	<path class="st0" d="M353.2,37.87c-0.22-0.17-0.03-0.43-0.13-0.62C353.28,37.42,353.17,37.66,353.2,37.87z"/>
	<path class="st0" d="M352.45,33.78c-0.21-0.18-0.04-0.42-0.11-0.63C352.53,33.34,352.43,33.57,352.45,33.78z"/>
	<path class="st0" d="M352.33,33.15c-0.22-0.17-0.06-0.41-0.09-0.61C352.4,32.73,352.31,32.95,352.33,33.15z"/>
	<path class="st0" d="M353.82,41.32c-0.22-0.17-0.06-0.41-0.09-0.61C353.88,40.9,353.79,41.12,353.82,41.32z"/>
	<path class="st2" d="M309.59,58.42c0.22,0.24,0.43,0.49,0.66,0.72c0.25,0.26,0.51,0.5,0.86,0.16c0.34-0.32,0.15-0.64-0.09-0.89
		c-0.44-0.44-0.82-0.91-1.07-1.48c-0.38-0.85-0.48-1.72,0.09-2.3c0.36-0.37,0.92-0.3,1.33-0.56c0.11-0.02,0.17,0.05,0.23,0.13
		c0.12,0.21,0.08,0.43,0.07,0.66c-0.04,2.05,0.15,4.06,0.83,6.01c0.03,0.08,0.06,0.15,0.09,0.23c0.08,0.24,0.18,0.51,0.5,0.42
		c0.35-0.1,0.22-0.38,0.17-0.61c-0.15-0.64-0.37-1.26-0.5-1.91c-0.38-1.77-0.45-3.54-0.27-5.33c0.01-0.08,0.02-0.16,0.02-0.25
		c0.01-0.25,0.06-0.55-0.26-0.61c-0.34-0.07-0.37,0.24-0.43,0.48c-0.03,0.14-0.06,0.28-0.16,0.39c-0.05,0.05-0.11,0.05-0.17,0.01
		c-0.14-0.38-0.36-0.53-0.79-0.44c-1.1,0.25-1.76,0.6-2.13,2.35c-0.33-1.01-0.67-1.92-0.93-2.87c-0.25-0.91-0.43-1.84-0.62-2.76
		c-0.05-0.25-0.05-0.37,0.35-0.29c1.53,0.3,2.81,1,3.92,2.07c0.18,0.18,0.36,0.38,0.66,0.39c0.24,0.01,0.39-0.06,0.51-0.26
		c0.12-0.2,0.05-0.34-0.08-0.49c-1.13-1.31-2.58-2.12-4.22-2.61c-0.41-0.12-0.82-0.31-1.28-0.27c-0.12,0.01-0.2-0.07-0.23-0.23
		c-0.18-0.9-0.5-1.76-0.62-2.67c1.12-0.05,2.2,0.17,3.27,0.43c0.32,0.08,0.78,0.37,0.91-0.09c0.15-0.5-0.4-0.52-0.73-0.62
		c-0.81-0.24-1.65-0.34-2.49-0.45c-0.39-0.05-0.78-0.04-1.09,0.26c-0.38-0.64-0.48-1.37-0.59-2.08c0.07-0.11,0.16-0.19,0.3-0.21
		c0.66,0,1.31-0.16,1.95-0.3c0.72-0.17,1.48,0.04,2.17-0.36c0.26-0.15,0.12,0.27,0.26,0.37c0.1,1.2,0.46,2.34,0.76,3.49
		c0.39,1.48,0.9,2.92,1.34,4.39c0.1,0.33,0.34,0.43,0.58,0.35c0.26-0.08,0.5-0.3,0.39-0.65c-0.31-1-0.63-2-0.94-3.01
		c-0.47-1.51-0.84-3.05-1.16-4.6c-0.43-2.11-0.54-4.26-0.67-6.4c-0.07-1.19-0.26-2.37-0.36-3.56c-0.08-0.95,0.28-1.69,0.94-2.29
		c0.98-0.89,2.15-1.49,3.37-1.98c2.08-0.84,4.3-1.07,6.46-1.56c1.74-0.4,3.49-0.77,5.24-1.14c1.5-0.31,3.02-0.58,4.52-0.89
		c1.96-0.4,3.91-0.83,5.86-1.24c1.32-0.28,2.64-0.58,3.96-0.85c0.45-0.09,0.87-0.34,1.34-0.34c0.71,0.01,1.35,0.25,1.86,0.71
		c0.99,0.88,1.84,1.88,2.42,3.1c1.25,2.63,1.62,5.41,1.65,8.3c0.02,1.99,0.22,3.98,0.5,5.96c0.2,1.42,0.38,2.85,0.55,4.28
		c0.04,0.38,0.21,0.68,0.58,0.64c0.43-0.04,0.52-0.43,0.47-0.79c-0.13-0.93-0.29-1.85-0.44-2.78c-0.03-0.12,0.04-0.16,0.14-0.18
		c0.54,0.16,0.99-0.09,1.44-0.31c0.59-0.29,1.16-0.6,1.77-0.85c0.22,0.8,0.32,1.61,0.44,2.43c0.03,0.22-0.12,0.23-0.28,0.3
		c-1.33,0.58-2.5,1.36-3.1,2.77c-0.22,0.52-0.36,1.07-0.41,1.63c-0.03,0.31,0.12,0.62,0.43,0.65c0.28,0.02,0.53-0.09,0.59-0.52
		c0.23-1.57,0.76-2.74,2.95-3.56c0.31,2.21,0.4,4.42,0.55,6.62c0.16,2.24,0.27,4.47,0.14,6.71c-0.03,0.54-0.05,1.1-0.28,1.63
		c-0.18,0.44-0.31,0.41-0.66,0.2c-0.34-0.21-0.64-0.47-1.04-0.6c-0.38-0.13-0.62,0.04-0.8,0.26c-0.16,0.21-0.2,0.52-0.03,0.78
		c1.57,2.5,1.07,4.96-0.16,7.4c-0.53,1.04-0.73,2.16-0.81,3.31c-0.1,1.44-0.15,2.88-0.42,4.3c-0.17,0.9-0.52,1.77-1.03,2.52
		c-1.53,2.27-3.04,4.56-4.77,6.68c-1,1.22-2.07,2.4-3.47,3.18c-1.53,0.84-3.17,1.37-4.92,1.48c-1.54,0.1-3.04-0.09-4.27-1.1
		c-1.35-1.11-2.65-2.27-3.96-3.42c-1.57-1.39-3.34-2.52-4.99-3.8c-0.59-0.46-1.21-0.88-1.73-1.41c-0.71-0.71-1.04-1.63-1.23-2.58
		c-0.35-1.75-0.86-3.45-1.58-5.09c-0.53-1.2-0.71-2.51-0.95-3.79c-0.23-1.24-0.43-2.5-1.04-3.63c-0.6-1.12-1.55-1.19-2.32-0.19
		c-0.25,0.32-0.48,0.66-0.76,0.95c-0.52,0.56-0.84,0.48-1.21-0.18c-0.4-0.71-0.69-1.48-0.91-2.25c-0.35-1.22-0.78-2.42-1.13-3.64
		C309.48,58.35,309.54,58.36,309.59,58.42z"/>
	<path class="st2" d="M312.72,27.72c0.28-0.41,0.17-0.69-0.27-0.9c-0.88-0.43-1.81-0.69-2.88-0.66c0.61-0.85,1.25-1.57,1.99-2.25
		c0.06,0.47,0.4,0.6,0.78,0.68c1.36,0.3,2.62,0.86,3.86,1.49c0.33,0.17,0.56,0.09,0.71-0.16c0.13-0.22,0.15-0.52-0.17-0.69
		c-0.47-0.24-0.91-0.53-1.4-0.72c-1.09-0.42-2.16-0.88-3.48-1.07c0.92-0.65,1.6-1.36,2.4-1.95c1.11-0.81,2.27-1.55,3.49-2.18
		c0.76-0.39,1.5-0.88,2.39-1c-0.33,0.81-0.33,0.87,0.58,1.1c1.97,0.49,3.4,1.69,4.47,3.37c0.15,0.23,0.29,0.53,0.61,0.36
		c0.38-0.21,0.14-0.52,0-0.75c-1.09-1.73-2.57-2.99-4.56-3.57c-0.39-0.11-0.82-0.16-1.12-0.48c0.83-0.58,1.82-0.76,2.77-1.03
		c1.72-0.49,3.5-0.73,5.28-0.83c1.55-0.09,3.1-0.03,4.65,0.17c1.71,0.22,3.41,0.51,5.05,1.04c0.12,0.26-0.04,0.39-0.23,0.48
		c-1.13,0.52-1.99,1.36-2.73,2.33c-0.2,0.26-0.63,0.61-0.2,0.94c0.41,0.31,0.59-0.2,0.77-0.46c0.65-0.93,1.46-1.66,2.49-2.14
		c0.36-0.17,0.39-0.38,0.17-0.67c-0.11-0.14-0.3-0.25-0.17-0.47c0.79,0.29,1.59,0.59,2.39,0.86c0.15,0.05,0.26,0.09,0.31,0.24
		c-0.66,0.54-1.38,1.01-1.9,1.71c-0.31,0.42-0.41,0.79-0.03,1.2c0.02,0.06,0.02,0.11-0.01,0.17c-0.77,0.32-1.6,0.38-2.4,0.57
		c-1.53,0.37-3.08,0.64-4.62,0.96c-1.75,0.36-3.5,0.73-5.25,1.1c-1.79,0.38-3.57,0.78-5.36,1.15c-1.22,0.25-2.46,0.47-3.68,0.7
		c-1.52,0.29-3,0.71-4.4,1.41c-0.09,0.04-0.2,0.04-0.3,0.06c-0.03-0.02-0.04-0.05-0.03-0.07C312.7,27.73,312.71,27.72,312.72,27.72z
		"/>
	<path class="st2" d="M350.57,75.54c0.84,1.57,1.07,3.15,0.56,4.83c-0.4,1.33-0.75,2.67-1.05,4.02c-0.49,2.21-1.08,4.38-1.72,6.55
		c-0.22,0.73-0.38,1.47-0.59,2.29c-1.71-2.46-3.89-4.19-6.59-5.41c2.24-1.52,3.84-3.54,5.28-5.69
		C347.9,80,349.66,78.06,350.57,75.54z"/>
	<path class="st1" d="M339.16,94.28c-1.24,0.08-2.37,0.15-3.42,0.63c-0.38,0.17-0.72,0.21-1.03-0.16c-0.85-0.99-1.7-1.98-2.59-2.94
		c-0.34-0.37-0.35-0.62,0.03-0.95c0.45-0.38,0.86-0.81,1.29-1.21c0.12-0.11,0.24-0.16,0.44-0.14c1.45,0.15,2.87-0.02,4.27-0.47
		c0.57-0.18,1.15-0.33,1.7-0.59c0.12-0.06,0.34-0.01,0.47,0.06c0.87,0.47,1.79,0.85,2.61,1.42c0.27,0.19,0.22,0.24,0.05,0.44
		c-1.1,1.27-2.19,2.56-3.28,3.84C339.52,94.42,339.26,94.19,339.16,94.28z"/>
	<path class="st2" d="M312.34,27.96c-0.23,0.49-0.78,0.56-1.17,0.8c-1.77,1.09-2.57,2.59-2.21,4.65c0.07,0.4,0.01,0.39-0.35,0.3
		c-0.88-0.24-1.77-0.11-2.66,0.06c0.06-1.47,2.1-5.81,3.27-7.1c0.18,0.39,0.45,0.55,0.9,0.56c0.75,0,1.46,0.25,2.11,0.63
		C312.27,27.88,312.31,27.91,312.34,27.96z"/>
	<path class="st2" d="M305.17,42.31c0.05-1.01-0.13-2.01-0.04-3.03c0.02-0.25,0.03-0.29,0.26-0.32c1.25-0.13,2.48-0.43,3.76-0.4
		c0.39,0.01,0.33,0.12,0.33,0.33c0.02,0.82,0.1,1.63,0.3,2.43c0.11,0.41,0.01,0.5-0.45,0.45c-1.26-0.13-2.49,0.1-3.7,0.46
		C305.48,42.29,305.34,42.4,305.17,42.31z"/>
	<path class="st2" d="M349.12,41.06c-0.12-1.09-0.25-2.17-0.36-3.26c-0.03-0.32-0.07-0.7,0.47-0.64c0.23,0.02,0.42-0.15,0.51-0.29
		c0.4-0.63,1.14-0.84,1.59-1.39c0.13-0.16,0.3-0.26,0.37,0.12c0.27,1.4,0.58,2.79,0.73,4.21c-1.09,0.12-1.96,0.8-2.95,1.19
		c-0.07,0.03-0.14,0.08-0.22,0.1C349.21,41.13,349.16,41.11,349.12,41.06z"/>
	<path class="st2" d="M338.71,21.87c0-0.02,0-0.05,0-0.07c0.5-0.56,0.89-1.2,1.48-1.68c0.38-0.31,0.75-0.62,1-1.05
		c0.36-0.07,0.59,0.2,0.88,0.34c1.64,0.79,3.14,1.78,4.43,3.07c0.28,0.28,0.61,0.52,0.91,0.78c-0.36,0.44-0.93,0.44-1.3,0.77
		c-0.21,0.18-0.23-0.04-0.31-0.12c-0.5-0.53-0.95-1.09-1.49-1.57c-1.25-1.11-2.67-1.29-4.24-0.74
		C339.65,21.74,339.19,21.91,338.71,21.87z"/>
	<path class="st2" d="M305.16,38.09c0.08-0.98,0.2-1.91,0.37-2.82c0.04-0.2,0.1-0.37,0.31-0.42c0.87-0.18,1.75-0.38,2.64-0.11
		c0.12,0.04,0.23,0.09,0.35,0.03c0.3-0.13,0.39,0.09,0.38,0.29c-0.04,0.76,0.14,1.5,0.14,2.26c0,0.36-0.1,0.29-0.33,0.28
		C307.73,37.54,306.46,37.67,305.16,38.09z"/>
	<path class="st2" d="M350.2,28.45c0.04,0.19-0.11,0.25-0.2,0.35c-0.42,0.49-1.04,0.7-1.52,1.09c-0.31,0.25-0.31-0.19-0.35-0.3
		c-0.15-0.46-0.22-0.94-0.34-1.4c-0.27-1.04-0.69-2.03-1.16-2.99c-0.11-0.23-0.1-0.29,0.12-0.46c0.33-0.25,0.78-0.24,1.08-0.55
		c0.18-0.18,0.34,0.04,0.45,0.17c0.63,0.76,1.11,1.6,1.43,2.53C349.89,27.41,350.04,27.93,350.2,28.45z"/>
	<path class="st0" d="M348.75,36.39c-0.24-0.81-0.08-1.57-0.19-2.31c-0.04-0.25,0.44-0.41,0.73-0.54c0.53-0.23,1.07-0.45,1.55-0.78
		c0.2-0.14,0.31-0.08,0.35,0.12c0.1,0.45,0.17,0.91,0.26,1.37c0.02,0.09,0.03,0.15-0.08,0.18
		C350.32,34.81,349.57,35.57,348.75,36.39z"/>
	<path class="st3" d="M337.96,17.69c0.51,0.8,0.52,0.81-0.4,1.48c-0.87,0.63-1.69,1.3-2.2,2.29c-0.18,0.34-0.53,0.34-0.79,0.19
		c-0.24-0.14-0.33-0.41-0.11-0.73c0.53-0.79,1.06-1.58,1.87-2.11c0.44-0.28,0.81-0.67,1.33-0.81c0.13-0.04,0.28-0.11,0.2-0.31
		C337.89,17.69,337.93,17.69,337.96,17.69z"/>
	<path class="st4" d="M305.17,42.31c1.45-0.76,2.99-0.75,4.59-0.67c0-0.04,0.01-0.18,0.03-0.32c0.13,0.4,0.23,0.81,0.21,1.24
		c-0.18-0.06-0.04-0.27-0.19-0.37c-0.21,0.4-0.54,0.38-0.95,0.4c-0.95,0.04-1.91,0.12-2.82,0.41c-0.17,0.06-0.32-0.04-0.48-0.05
		c-0.32,0.05-0.27-0.26-0.39-0.4C305.16,42.47,305.17,42.39,305.17,42.31z"/>
	<path class="st3" d="M305.91,45.16c0.08-0.64,0.63-0.47,0.95-0.44c1.06,0.11,2.11,0.3,3.13,0.59c0.33,0.09,0.53,0.38,0.48,0.7
		c-0.06,0.34-0.33,0.39-0.66,0.32c-0.74-0.17-1.47-0.35-2.22-0.47c-0.52-0.08-1.06,0-1.55-0.23
		C306.05,45.46,305.98,45.31,305.91,45.16z"/>
	<path class="st0" d="M350.47,29.81c0.28,0.44,0.22,0.9,0.36,1.32c0.13,0.36,0.18,0.69-0.43,0.76c-0.41,0.05-0.79,0.36-1.18,0.58
		c-0.57,0.32-0.72,0.25-0.75-0.38c-0.01-0.18-0.04-0.36-0.07-0.53c-0.04-0.29-0.01-0.54,0.38-0.71
		C349.39,30.6,349.91,30.17,350.47,29.81z"/>
	<path class="st4" d="M341.19,19.06c-0.01,0.29-0.09,0.48-0.36,0.69c-0.55,0.43-1.15,0.84-1.47,1.51c-0.13,0.26-0.4,0.39-0.65,0.53
		c-0.49-0.3-0.58-0.7-0.24-1.15c0.59-0.77,1.2-1.54,2.19-1.86C340.87,18.82,341.06,18.88,341.19,19.06z"/>
	<path class="st4" d="M349.23,41.07c0.24-0.39,0.7-0.38,1.05-0.58c0.52-0.3,1.1-0.49,1.63-0.79c0.26-0.14,0.36,0.09,0.54,0.11
		c0.09,0.17,0.16,0.35,0.12,0.55c-0.24,0.46-0.76,0.48-1.14,0.68c-0.41,0.22-0.84,0.45-1.29,0.63c-0.34,0.13-0.55,0.16-0.8-0.07
		C349.24,41.44,349.19,41.26,349.23,41.07z"/>
	<path class="st5" d="M349.23,41.07c0.08,0.17,0.16,0.34,0.11,0.54c-0.04,0.03-0.08,0.07-0.12,0.1c-0.21-0.19-0.04-0.43-0.09-0.64
		C349.16,41.07,349.19,41.08,349.23,41.07z"/>
	<path class="st6" d="M309.59,58.42c-0.06-0.01-0.11-0.01-0.17-0.02c-0.15-0.13-0.22-0.29-0.12-0.48
		C309.47,58.04,309.53,58.23,309.59,58.42z"/>
	<path class="st7" d="M305.16,42.55c0.13,0.13,0.26,0.27,0.39,0.4c-0.08,0.04-0.16,0.08-0.24,0.12
		C305.19,42.92,305.14,42.75,305.16,42.55z"/>
	<path class="st8" d="M312.34,27.96c-0.04-0.03-0.08-0.07-0.12-0.1c0.2,0.08,0.32-0.15,0.5-0.14c0.02,0.04,0.01,0.07,0,0.11
		C312.65,28.03,312.46,27.91,312.34,27.96z"/>
	<path class="st9" d="M311.49,53.7c0.03-0.02,0.06-0.02,0.09,0c0.18,0.21,0.2,0.39-0.07,0.54c-0.04-0.05-0.09-0.1-0.13-0.15
		C311.41,53.95,311.45,53.83,311.49,53.7z"/>
	<path d="M326.33,65.87c1.99,1.82,4.22,2.71,6.8,2.53c1.76-0.13,3.4-0.72,4.93-1.66c0.66-0.41,1.27-0.86,1.9-1.3
		c0.21-0.15,0.41-0.35,0.67-0.03c0.25,0.31,0.26,0.61-0.03,0.86c-0.35,0.31-0.72,0.6-1.11,0.85c-2.27,1.44-4.68,2.46-7.45,2.29
		c-2.56-0.16-4.78-1.07-6.56-2.95c-0.4-0.42-0.35-1.22,0.35-1.46c0.81-0.28,1.64-0.28,2.46-0.23c1.89,0.1,3.78,0.14,5.67,0.06
		c1.45-0.06,2.89-0.23,4.3-0.52c1.08-0.22,2.16-0.44,3.2-0.82c0.39-0.14,0.76-0.15,0.89,0.32c0.11,0.43-0.23,0.57-0.57,0.68
		c-2.2,0.66-4.46,1.09-6.75,1.3c-1.48,0.14-2.97,0.12-4.46,0.09C329.2,65.85,327.82,65.69,326.33,65.87z"/>
	<path d="M325.11,48.06c1.65-0.01,2.81,0.73,3.81,1.79c0.29,0.31,0.23,0.66-0.09,0.91c-0.32,0.24-0.52-0.02-0.69-0.26
		c-0.34-0.47-0.62-0.51-1.12-0.1c-1.22,1-2.64,1.56-4.26,1.41c-0.75-0.07-1.48-0.23-2.11-0.65c-0.28-0.18-0.42-0.18-0.51,0.17
		c-0.04,0.17-0.2,0.32-0.22,0.5c-0.04,0.41-0.38,0.46-0.62,0.4c-0.31-0.08-0.51-0.38-0.37-0.73c0.37-0.93,0.87-1.76,1.79-2.29
		C322.12,48.4,323.65,48.14,325.11,48.06z"/>
	<path d="M345.66,48.19c0.01,0.26-0.14,0.37-0.28,0.42c-0.15,0.05-0.31,0.25-0.5,0.06c-0.06-0.06-0.13-0.11-0.18-0.17
		c-0.36-0.54-0.62-0.54-1.24-0.15c-2.02,1.26-4.18,1.42-6.33,0.25c-0.34-0.18-0.61-0.29-0.87,0.07c-0.17,0.24-0.36,0.22-0.58,0.07
		c-0.25-0.17-0.28-0.4-0.21-0.66c0.05-0.17,0.17-0.27,0.29-0.38c1.44-1.21,3.06-2.05,4.96-2.1c1.88-0.05,3.51,0.62,4.7,2.15
		C345.54,47.89,345.6,48.07,345.66,48.19z"/>
	<path d="M333.76,61.61c-1.19,0.01-1.93-0.39-2.71-0.64c-0.54-0.17-1.05-0.27-1.65-0.13c-0.93,0.22-1.63-0.35-2.2-1.01
		c-0.38-0.44-0.28-1.52,0.07-2.14c0.2-0.35,0.46-0.34,0.73-0.24c0.26,0.1,0.31,0.36,0.2,0.63c-0.04,0.09-0.05,0.19-0.09,0.29
		c-0.31,0.82,0.26,1.57,1.12,1.41c1.16-0.21,2.21,0.17,3.23,0.59c1.2,0.5,2.25,0.13,3.14-0.57c0.79-0.62,1.57-1.23,2.5-1.61
		c0.3-0.12,0.25-0.22,0.18-0.44c-0.16-0.53-0.62-0.85-0.88-1.32c-0.18-0.33-0.19-0.61,0.1-0.78c0.26-0.16,0.54-0.13,0.77,0.2
		c0.39,0.57,0.8,1.12,1.1,1.74c0.34,0.7,0,1.27-1.09,1.67c-0.74,0.28-1.31,0.75-1.91,1.25C335.54,61.22,334.53,61.56,333.76,61.61z"
		/>
	<path d="M334.26,81.33c-2.02-0.04-3.53-0.23-5.01-0.63c-0.36-0.1-0.5-0.27-0.43-0.59c0.08-0.33,0.29-0.5,0.68-0.4
		c1.37,0.36,2.76,0.58,4.18,0.6c2.25,0.04,4.4-0.42,6.47-1.26c0.77-0.31,1.54-0.67,2.23-1.17c0.25-0.18,0.61-0.42,0.91-0.06
		c0.15,0.18,0.25,0.45,0,0.66c-0.25,0.21-0.5,0.42-0.78,0.57c-1.5,0.8-3.05,1.49-4.71,1.85C336.47,81.17,335.13,81.37,334.26,81.33z
		"/>
	<path class="st3" d="M342.21,43.26c0.7-0.1,1.55-0.05,2.36,0.18c0.93,0.27,1.67,0.86,2.35,1.53c0.23,0.23,0.17,0.54-0.01,0.72
		c-0.16,0.15-0.43,0.34-0.68,0.03c-1.25-1.46-2.91-1.56-4.65-1.4c-1.61,0.15-3.19,0.42-4.75,0.86c-0.32,0.09-0.5-0.14-0.6-0.46
		c-0.12-0.38,0.15-0.48,0.39-0.54c0.85-0.23,1.71-0.47,2.58-0.6C340.14,43.44,341.09,43.26,342.21,43.26z"/>
	<path class="st3" d="M325.8,46.91c-1.63-0.04-3.17,0.31-4.66,0.99c-0.89,0.41-1.68,0.94-2.48,1.5c-0.23,0.16-0.51,0.49-0.84,0.11
		c-0.22-0.25-0.34-0.48,0-0.75c1.29-1.03,2.69-1.84,4.27-2.33c1.37-0.43,2.77-0.59,4.18-0.62c0.3-0.01,0.59,0.09,0.89,0.11
		c0.37,0.02,0.45,0.26,0.4,0.55c-0.05,0.29-0.17,0.51-0.56,0.47C326.61,46.87,326.2,46.91,325.8,46.91z"/>
	<path class="st3" d="M311.51,54.23c0.19-0.16,0.09-0.35,0.07-0.54c0.13-0.21-0.01-0.46,0.13-0.7c0.16-0.26,0.28-0.52,0.63-0.4
		c0.29,0.1,0.42,0.3,0.37,0.67c-0.19,1.23-0.2,2.47-0.1,3.7c0.1,1.39,0.43,2.75,0.86,4.07c0.11,0.35,0.06,0.59-0.22,0.68
		c-0.3,0.1-0.6,0.09-0.75-0.37c-0.72-2.21-1.11-4.45-0.92-6.77C311.57,54.46,311.53,54.35,311.51,54.23z"/>
	<path class="st3" d="M350.71,52.11c0.11,1.81,0.16,3.11,0.06,4.42c-0.02,0.3-0.13,0.46-0.39,0.48c-0.24,0.02-0.51,0.02-0.59-0.35
		c-0.11-0.5,0.01-0.99,0.02-1.48c0-2.05-0.21-4.09-0.49-6.12c-0.05-0.33,0.07-0.54,0.32-0.59c0.24-0.04,0.53-0.04,0.63,0.38
		C350.54,50.09,350.62,51.35,350.71,52.11z"/>
	<path class="st3" d="M353.43,51.66c0.01,1.06-0.44,2.01-0.71,3c-0.1,0.36-0.39,0.32-0.65,0.27c-0.3-0.05-0.32-0.25-0.29-0.54
		c0.06-0.64,0.33-1.22,0.48-1.83c0.28-1.13,0.08-2.15-0.52-3.11c-0.07-0.12-0.12-0.26-0.15-0.4c-0.05-0.25-0.21-0.51,0.2-0.68
		c0.36-0.15,0.52-0.02,0.69,0.25C353.06,49.54,353.42,50.54,353.43,51.66z"/>
	<path class="st3" d="M331.31,51.83c-0.15,1.63-0.99,2.96-2.01,4.21c-0.24,0.3-0.56,0.14-0.77-0.02c-0.31-0.23-0.08-0.52,0.07-0.73
		c0.37-0.54,0.81-1.02,1.09-1.63c0.32-0.68,0.56-1.37,0.61-2.11c0.03-0.38,0.05-0.76,0.49-0.8c0.56-0.05,0.47,0.47,0.56,0.81
		C331.38,51.63,331.33,51.72,331.31,51.83z"/>
	<path class="st3" d="M314.97,21.62c1.57,0.22,3.08,0.49,4.56,0.84c1.22,0.29,2.43,0.62,3.62,1.01c0.39,0.13,0.59,0.36,0.51,0.67
		c-0.09,0.32-0.42,0.47-0.8,0.34c-2.32-0.78-4.7-1.33-7.11-1.71c-0.29-0.05-0.59-0.07-0.88-0.14c-0.32-0.07-0.44-0.26-0.41-0.63
		C314.49,21.59,314.82,21.72,314.97,21.62z"/>
	<path class="st3" d="M320.11,18.34c1.68,0.4,3.24,1.04,4.47,2.3c0.57,0.58,1.1,1.19,1.47,1.93c0.18,0.35,0.15,0.59-0.16,0.76
		c-0.33,0.17-0.58,0.03-0.76-0.28c-0.68-1.2-1.58-2.17-2.82-2.84c-0.61-0.33-1.25-0.52-1.91-0.71c-0.32-0.09-0.61-0.16-0.71-0.56
		c-0.1-0.4,0.36-0.36,0.43-0.62C320.13,18.32,320.11,18.34,320.11,18.34z"/>
	<path class="st3" d="M326.86,20.53c-0.05-1.2,0.24-2.31,0.79-3.36c0.2-0.39,0.52-0.59,0.87-0.39c0.32,0.18,0.22,0.55,0.05,0.87
		c-0.74,1.42-0.93,2.89-0.35,4.42c0.07,0.19,0.15,0.4,0.12,0.58c-0.05,0.24-0.3,0.31-0.53,0.36c-0.24,0.05-0.31-0.11-0.41-0.28
		C327.02,22.04,326.94,21.28,326.86,20.53z"/>
	<path class="st3" d="M330.22,22.06c0.07-1.86,0.67-3.42,1.57-4.89c0.22-0.35,0.56-0.32,0.8-0.18c0.25,0.14,0.33,0.4,0.09,0.75
		c-0.84,1.26-1.36,2.67-1.43,4.2c-0.02,0.41-0.11,0.76-0.54,0.77C330.2,22.74,330.24,22.28,330.22,22.06z"/>
	<path class="st0" d="M326.74,49.34c-2.33,1.84-4.18,1.71-5.65,0.85C322.86,49.21,324.66,48.82,326.74,49.34z"/>
	<path class="st0" d="M343.31,47.25c-1.09,0.75-2.23,1.15-3.53,1.09c-0.66-0.03-1.27-0.23-1.88-0.47c-0.1-0.04-0.25-0.12-0.21-0.26
		c0.02-0.08,0.13-0.14,0.22-0.19c1.55-0.78,3.15-1.02,4.84-0.48C342.96,47.01,343.09,47.12,343.31,47.25z"/>
</g>
<g>
	<path class="st10" d="M371.12,68.51c0.02-0.12,0.11-0.22,0.27-0.22h0.24c0.12,0,0.21,0.06,0.25,0.15l3.3,7.07c0.03,0,0.03,0,0.04,0
		l3.3-7.07c0.04-0.09,0.12-0.15,0.25-0.15h0.24c0.16,0,0.25,0.1,0.27,0.22l1.77,10.07c0.04,0.21-0.07,0.34-0.27,0.34h-1.36
		c-0.13,0-0.25-0.12-0.29-0.22l-0.88-5.68c-0.01,0-0.04,0-0.04,0l-2.62,5.89c-0.03,0.09-0.12,0.17-0.25,0.17h-0.27
		c-0.13,0-0.21-0.08-0.25-0.17l-2.65-5.89c0,0-0.03,0-0.04,0l-0.87,5.68c-0.01,0.1-0.13,0.22-0.27,0.22h-1.35
		c-0.19,0-0.31-0.13-0.29-0.34L371.12,68.51z"/>
	<path class="st10" d="M383.11,68.72c0-0.15,0.13-0.28,0.29-0.28h1.39c0.15,0,0.28,0.13,0.28,0.28v9.92c0,0.15-0.13,0.28-0.28,0.28
		h-1.39c-0.15,0-0.29-0.13-0.29-0.28V68.72z"/>
</g>
<g>
	<path d="M7.32,54.54C10.98,50.1,17.98,41,21.7,36.06c1.72-2.11,2.83-4.27,2.83-6.16c0-2.5-1.89-5.05-5.88-5.05
		c-2.66,0-4.94,1.89-6.22,3.28c-0.44,0.44-1.05,0.44-1.5,0l-2.66-2.66c-0.33-0.33-0.44-1-0.06-1.44c0,0,4.33-5.44,10.94-5.44
		c7.94,0,12.38,5.05,12.38,11.05c0,3.61-1.55,5.88-3.72,8.99c-2.39,3.39-6.61,8.6-9.55,12.32h11.99c0.55,0,1.05,0.5,1.05,1.05v3.83
		c0,0.56-0.5,1.05-1.05,1.05H8.37c-0.61,0-1.05-0.5-1.05-1.05V54.54z"/>
	<path d="M37.74,38c0-12.16,5.11-19.43,13.99-19.43S65.72,25.84,65.72,38c0,12.16-5.11,19.43-13.99,19.43S37.74,50.16,37.74,38z
		 M58.45,38c0-8.22-2.44-12.88-6.72-12.88S45.01,29.78,45.01,38c0,8.27,2.44,12.88,6.72,12.88S58.45,46.27,58.45,38z"/>
	<path d="M70.55,54.54C74.21,50.1,81.21,41,84.93,36.06c1.72-2.11,2.83-4.27,2.83-6.16c0-2.5-1.89-5.05-5.88-5.05
		c-2.66,0-4.94,1.89-6.22,3.28c-0.44,0.44-1.05,0.44-1.5,0l-2.67-2.66c-0.33-0.33-0.44-1-0.05-1.44c0,0,4.33-5.44,10.94-5.44
		c7.94,0,12.38,5.05,12.38,11.05c0,3.61-1.55,5.88-3.72,8.99c-2.39,3.39-6.61,8.6-9.55,12.32h11.99c0.55,0,1.05,0.5,1.05,1.05v3.83
		c0,0.56-0.5,1.05-1.05,1.05H71.6c-0.61,0-1.05-0.5-1.05-1.05V54.54z"/>
	<path d="M100.97,38c0-12.16,5.11-19.43,13.99-19.43s13.99,7.27,13.99,19.43c0,12.16-5.11,19.43-13.99,19.43S100.97,50.16,100.97,38
		z M121.68,38c0-8.22-2.44-12.88-6.72-12.88s-6.72,4.66-6.72,12.88c0,8.27,2.44,12.88,6.72,12.88S121.68,46.27,121.68,38z"/>
	<path d="M10.65,85.69c0-0.56,0.44-1.05,1.05-1.05h13.04c6.83,0,12.43,5.55,12.43,12.27c0,6.88-5.61,12.49-12.38,12.49h-6.94v13.05
		c0,0.56-0.5,1.05-1.05,1.05H11.7c-0.61,0-1.05-0.5-1.05-1.05V85.69z M24.31,102.62c3.11,0,5.72-2.5,5.72-5.77
		c0-3.05-2.61-5.38-5.72-5.38h-6.44v11.16H24.31z"/>
	<path d="M40.3,102.34c0-0.61,0.5-1.05,1.05-1.05h2.11c0.5,0,0.83,0.28,1,0.72l0.78,2.17c0.78-1.11,2.83-3.44,6.27-3.44
		c2.61,0,4.94,0.83,4.27,2.22l-2.05,3.61c-0.28,0.5-0.83,0.72-1.28,0.5c-0.17-0.06-1-0.33-1.61-0.33c-2.22,0-3.55,1.5-3.94,2.28
		v13.43c0,0.78-0.5,1.05-1.28,1.05h-4.27c-0.56,0-1.05-0.5-1.05-1.05V102.34z"/>
	<path d="M68.72,100.73c5.72,0,10.38,4.33,10.38,10.33c0,0.39-0.06,1.11-0.11,1.5c-0.06,0.55-0.56,0.94-1.05,0.94H63.72
		c0.17,2.28,2.11,4.83,5.33,4.83c1.72,0,3.33-0.67,4.33-1.39c0.56-0.33,1.05-0.44,1.44,0l2.28,2.61c0.39,0.39,0.5,1-0.06,1.44
		c-1.83,1.72-4.66,3.05-8.27,3.05c-6.66,0-11.38-5.27-11.38-11.66C57.39,106.12,62.11,100.73,68.72,100.73z M72.6,109.61
		c-0.17-2.05-1.94-3.77-4.05-3.77c-2.22,0-4.05,1.67-4.33,3.77H72.6z"/>
	<path d="M82.54,120.83l1.5-3c0.22-0.56,0.78-0.67,1.28-0.39c0,0,2.5,1.33,5.05,1.33c1.11,0,1.89-0.44,1.89-1.39
		c0-1-0.78-1.61-3.72-2.78c-4.27-1.67-6.27-3.94-6.27-7.33s2.5-6.55,8.16-6.55c3.28,0,5.66,0.94,6.83,1.72
		c0.5,0.33,0.78,0.94,0.5,1.5l-1.39,2.83c-0.28,0.5-0.89,0.56-1.33,0.39c0,0-2.5-1.17-4.61-1.17c-1.33,0-1.89,0.56-1.89,1.28
		c0,1,1,1.33,3.05,2.17c4.27,1.67,7.49,3.5,7.49,7.83c0,3.66-3.22,6.77-8.83,6.77c-3.66,0-6.22-1.17-7.38-2.05
		C82.54,121.72,82.32,121.27,82.54,120.83z"/>
	<path d="M103.47,89.57c0-2.11,1.67-3.83,3.77-3.83c2.17,0,3.89,1.72,3.89,3.83s-1.72,3.83-3.89,3.83
		C105.14,93.4,103.47,91.68,103.47,89.57z M103.97,102.34c0-0.61,0.5-1.05,1.05-1.05h4.61c0.55,0,1.05,0.44,1.05,1.05v20.1
		c0,0.56-0.5,1.05-1.05,1.05h-4.61c-0.56,0-1.05-0.5-1.05-1.05V102.34z"/>
	<path d="M126.68,100.73c2.22,0,3.94,0.61,4.94,1V85.69c0-0.56,0.5-1.05,1.06-1.05h4.72c0.56,0,1.05,0.5,1.05,1.05v36.75
		c0,0.56-0.5,1.05-1.05,1.05h-2.17c-0.5,0-0.89-0.44-1.05-1.05l-0.55-1.72c0,0-2.61,3.33-7.27,3.33c-6.05,0-10.66-5.27-10.66-11.66
		C115.68,105.9,120.07,100.73,126.68,100.73z M127.18,118.05c2.94,0,4.27-2.28,4.66-3.61V108c0,0-1.55-1.28-4.33-1.28
		c-3.11,0-5.38,2.55-5.38,5.66C122.12,115.5,124.23,118.05,127.18,118.05z"/>
	<path d="M154.77,100.73c5.72,0,10.38,4.33,10.38,10.33c0,0.39-0.06,1.11-0.11,1.5c-0.06,0.55-0.56,0.94-1.05,0.94h-14.21
		c0.17,2.28,2.11,4.83,5.33,4.83c1.72,0,3.33-0.67,4.33-1.39c0.56-0.33,1.05-0.44,1.44,0l2.28,2.61c0.39,0.39,0.5,1-0.06,1.44
		c-1.83,1.72-4.66,3.05-8.27,3.05c-6.66,0-11.38-5.27-11.38-11.66C143.44,106.12,148.16,100.73,154.77,100.73z M158.65,109.61
		c-0.17-2.05-1.94-3.77-4.05-3.77c-2.22,0-4.05,1.67-4.33,3.77H158.65z"/>
	<path d="M169.81,102.34c0-0.61,0.5-1.05,1.05-1.05h2.11c0.5,0,0.78,0.28,0.94,0.67l0.78,2.05c0.83-0.89,3.55-3.28,7.83-3.28
		c7.05,0,9.88,5.27,9.88,11.05v10.66c0,0.56-0.5,1.05-1.05,1.05h-4.55c-0.61,0-1.05-0.5-1.05-1.05v-10.99c0-2.89-1.5-4.72-4.16-4.72
		c-2.89,0-4.66,2-5.22,3.5v12.21c0,0.78-0.33,1.05-1.39,1.05h-4.11c-0.56,0-1.05-0.5-1.05-1.05V102.34z"/>
	<path d="M199.62,107.12h-1.89c-0.56,0-1-0.5-1-1.05v-3.72c0-0.61,0.44-1.05,1-1.05h1.89v-6.16c0-0.56,0.5-1.05,1.05-1.05l4.55-0.06
		c0.55,0,1,0.5,1,1.05v6.22h4.88c0.61,0,1.05,0.44,1.05,1.05v3.72c0,0.56-0.44,1.05-1.05,1.05h-4.88V116c0,1.55,0.83,1.78,1.72,1.78
		c0.94,0,2.11-0.39,2.72-0.61c0.61-0.22,1.05,0.06,1.22,0.61l1.11,3.5c0.22,0.55-0.06,1.11-0.61,1.33
		c-0.28,0.17-3.89,1.44-6.61,1.44c-4.27,0-6.16-2.66-6.16-7.16V107.12z"/>
	<path d="M217.11,89.57c0-2.11,1.67-3.83,3.77-3.83c2.17,0,3.89,1.72,3.89,3.83s-1.72,3.83-3.89,3.83
		C218.77,93.4,217.11,91.68,217.11,89.57z M217.61,102.34c0-0.61,0.5-1.05,1.05-1.05h4.61c0.55,0,1.05,0.44,1.05,1.05v20.1
		c0,0.56-0.5,1.05-1.05,1.05h-4.61c-0.56,0-1.05-0.5-1.05-1.05V102.34z"/>
	<path d="M238.26,109.45c2.22,0,4.05,0.61,4.05,0.61c0.06-2.83-0.83-3.83-2.89-3.83s-4.94,0.44-6.22,0.83
		c-0.78,0.22-1.17-0.28-1.28-1l-0.5-2.89c-0.17-0.83,0.28-1.22,0.78-1.39c0.44-0.17,4-1.05,7.55-1.05c6.94,0,8.55,3.61,8.55,9.66
		v12.05c0,0.56-0.5,1.05-1.05,1.05h-2c-0.39,0-0.67-0.17-0.94-0.78l-0.67-1.5c-1.28,1.17-3.33,2.83-6.77,2.83
		c-4.44,0-7.49-2.89-7.49-7.6C229.38,112.5,232.6,109.45,238.26,109.45z M238.37,119.33c1.78,0,3.5-1.5,3.83-2.16v-3.05
		c0,0-1.5-0.67-3.11-0.67c-2.17,0-3.61,1.22-3.61,3C235.48,118.11,236.65,119.33,238.37,119.33z"/>
	<path d="M254.69,85.69c0-0.56,0.5-1.05,1.05-1.05h4.66c0.55,0,1.05,0.5,1.05,1.05v36.75c0,0.56-0.5,1.05-1.05,1.05h-4.66
		c-0.56,0-1.05-0.5-1.05-1.05V85.69z"/>
	<path d="M10.65,152.31c0-0.55,0.44-1.05,1.05-1.05H34.3c0.61,0,1.05,0.5,1.05,1.05v4.55c0,0.55-0.44,1.05-1.05,1.05H17.87v9.1
		h13.71c0.55,0,1.05,0.5,1.05,1.05v4.61c0,0.61-0.5,1.05-1.05,1.05H17.87v9.71H34.3c0.61,0,1.05,0.5,1.05,1.05v4.55
		c0,0.55-0.44,1.05-1.05,1.05H11.7c-0.61,0-1.05-0.5-1.05-1.05V152.31z"/>
	<path d="M40.8,152.31c0-0.55,0.5-1.05,1.05-1.05h4.66c0.55,0,1.05,0.5,1.05,1.05v36.75c0,0.55-0.5,1.05-1.05,1.05h-4.66
		c-0.56,0-1.05-0.5-1.05-1.05V152.31z"/>
	<path d="M63.89,167.35c5.72,0,10.38,4.33,10.38,10.33c0,0.39-0.06,1.11-0.11,1.5c-0.06,0.55-0.56,0.94-1.05,0.94H58.89
		c0.17,2.28,2.11,4.83,5.33,4.83c1.72,0,3.33-0.67,4.33-1.39c0.56-0.33,1.05-0.44,1.44,0l2.28,2.61c0.39,0.39,0.5,1-0.06,1.44
		c-1.83,1.72-4.66,3.05-8.27,3.05c-6.66,0-11.38-5.27-11.38-11.66C52.56,172.74,57.28,167.35,63.89,167.35z M67.77,176.23
		c-0.17-2.05-1.94-3.77-4.05-3.77c-2.22,0-4.05,1.67-4.33,3.77H67.77z"/>
	<path d="M89.04,167.35c3.44,0,6.11,1.39,8.22,3.94c0.39,0.5,0.28,1.17-0.28,1.55l-2.55,2.44c-0.5,0.44-1,0.17-1.39-0.17
		c-0.89-1-2.28-1.78-3.83-1.78c-3,0-5.44,2.55-5.44,5.66c0,3.16,2.39,5.66,5.38,5.66c2.39,0,3.44-1.17,4.44-2.11
		c0.39-0.39,0.94-0.5,1.39-0.17l2.39,2.05c0.55,0.44,0.78,1,0.39,1.55c-1.89,2.94-4.83,4.66-8.77,4.66c-6.27,0-11.77-5-11.77-11.66
		C77.21,172.46,82.82,167.35,89.04,167.35z"/>
	<path d="M103.75,173.73h-1.89c-0.56,0-1-0.5-1-1.05v-3.72c0-0.61,0.44-1.05,1-1.05h1.89v-6.16c0-0.56,0.5-1.05,1.05-1.05l4.55-0.06
		c0.55,0,1,0.5,1,1.05v6.22h4.88c0.61,0,1.05,0.44,1.05,1.05v3.72c0,0.55-0.44,1.05-1.05,1.05h-4.88v8.88
		c0,1.55,0.83,1.78,1.72,1.78c0.94,0,2.11-0.39,2.72-0.61c0.61-0.22,1.05,0.06,1.22,0.61l1.11,3.5c0.22,0.56-0.06,1.11-0.61,1.33
		c-0.28,0.17-3.89,1.44-6.61,1.44c-4.27,0-6.16-2.66-6.16-7.16V173.73z"/>
	<path d="M121.23,156.19c0-2.11,1.67-3.83,3.77-3.83c2.17,0,3.89,1.72,3.89,3.83c0,2.11-1.72,3.83-3.89,3.83
		C122.9,160.02,121.23,158.3,121.23,156.19z M121.73,168.96c0-0.61,0.5-1.05,1.05-1.05h4.61c0.55,0,1.05,0.44,1.05,1.05v20.09
		c0,0.55-0.5,1.05-1.05,1.05h-4.61c-0.56,0-1.05-0.5-1.05-1.05V168.96z"/>
	<path d="M144.77,167.35c6.27,0,11.38,5.33,11.38,11.6c0,6.38-5.11,11.71-11.38,11.71c-6.27,0-11.38-5.33-11.38-11.71
		C133.39,172.68,138.5,167.35,144.77,167.35z M144.77,184.67c2.94,0,5.33-2.55,5.33-5.72c0-3.11-2.39-5.61-5.33-5.61
		c-3,0-5.33,2.5-5.33,5.61C139.44,182.12,141.77,184.67,144.77,184.67z"/>
	<path d="M161.09,168.96c0-0.61,0.5-1.05,1.05-1.05h2.11c0.5,0,0.78,0.28,0.94,0.67l0.78,2.05c0.83-0.89,3.55-3.28,7.83-3.28
		c7.05,0,9.88,5.27,9.88,11.05v10.66c0,0.55-0.5,1.05-1.05,1.05h-4.55c-0.61,0-1.05-0.5-1.05-1.05v-10.99c0-2.89-1.5-4.72-4.16-4.72
		c-2.89,0-4.66,2-5.22,3.5v12.21c0,0.78-0.33,1.05-1.39,1.05h-4.11c-0.56,0-1.05-0.5-1.05-1.05V168.96z"/>
</g>
<g>
	<path class="st2" d="M329.67,206.74c-13.56,1.76-27.11,3.52-40.67,5.29c-3.65-28.1-7.3-56.2-10.96-84.3
		c27.81-3.61,55.62-7.23,83.43-10.84c3.65,28.1,7.3,56.2,10.96,84.3c-13.24,1.72-26.49,3.44-39.74,5.16c-0.02-0.03-0.02-0.07,0-0.1
		c0.19-0.2,0.46-0.16,0.7-0.21c0.15-0.03,0.31-0.04,0.46-0.06c0.24-0.03,0.46-0.13,0.7-0.15c0.2-0.01,0.24-0.13,0.19-0.3
		c-0.28-0.92-0.33-1.88-0.47-2.82c-0.02-0.15-0.01-0.31-0.02-0.47c-0.03-0.84,0.33-1.5,0.95-2.04c0.35-0.31,0.67-0.65,0.95-1.03
		c0.19-0.26,0.38-0.52,0.59-0.76c0.18-0.21,0.26-0.21,0.44,0c0.37,0.42,0.7,0.87,1.03,1.33c0.92,1.28,1.91,2.51,3.01,3.64
		c0.33,0.34,0.33,0.34,0.78,0.15c0.57-0.24,0.47-0.23,0.13-0.57c-1.54-1.53-2.75-3.32-4.09-5.01c-0.84-1.06-1.8-2-2.83-2.88
		c-0.77-0.66-1.6-1.21-2.43-1.78c-0.27-0.19-0.29-0.28-0.02-0.49c0.64-0.49,1.28-0.99,1.87-1.54c0.98-0.91,1.88-1.9,2.74-2.93
		c1.19-1.42,2.34-2.88,3.5-4.33c0.07-0.09,0.14-0.21,0.27-0.18c0.15,0.03,0.14,0.19,0.17,0.3c0.26,1.26,0.52,2.51,0.79,3.77
		c0.23,1.1,0.47,2.21,0.71,3.31c0.2,0.92,0.41,1.84,0.62,2.76c0.27,1.16,0.54,2.32,0.81,3.48c0.33,1.38,0.66,2.76,1,4.14
		c0.08,0.34,0.12,0.35,0.44,0.18c0.45-0.24,0.45-0.24,0.32-0.75c-0.39-1.61-0.78-3.22-1.16-4.84c-0.33-1.38-0.64-2.76-0.95-4.15
		c-0.24-1.09-0.47-2.19-0.7-3.28c-0.24-1.12-0.48-2.25-0.73-3.37c-0.13-0.61-0.22-1.22-0.37-1.83c-0.04-0.14-0.08-0.28-0.21-0.37
		c-0.17-0.13-0.14-0.27-0.04-0.43c0.39-0.61,0.41-0.6,1-0.19c1.39,0.97,2.88,1.76,4.47,2.36c2.01,0.76,4.1,1.11,6.23,1.24
		c2.48,0.16,4.93,0.52,7.33,1.16c0.37,0.1,0.8-0.2,0.84-0.58c0.02-0.17-0.13-0.17-0.23-0.19c-0.65-0.16-1.31-0.31-1.97-0.46
		c-2.13-0.48-4.3-0.65-6.48-0.82c-3.04-0.24-5.89-1.06-8.52-2.63c-0.5-0.3-0.99-0.61-1.46-0.95c-0.2-0.15-0.23-0.29-0.1-0.49
		c0.18-0.28,0.35-0.56,0.52-0.85c0.93-1.55,1.49-3.24,1.99-4.95c0.31-1.08,0.55-2.17,0.72-3.28c0.13-0.86,0.14-1.71,0.03-2.57
		c-0.11-0.81-0.21-1.62-0.38-2.43c-0.05-0.23,0.01-0.42,0.22-0.57c1.04-0.75,1.45-1.83,1.56-3.05c0.19-2.04,0.27-4.08,0.34-6.12
		c0.04-1.11,0.12-2.22,0.48-3.28c0.39-1.18,0.23-2.35-0.02-3.53c-0.38-1.79-0.87-3.54-1.32-5.31c-0.23-0.91-0.39-1.84-0.51-2.78
		c-0.11-0.8-0.37-1.57-0.57-2.35c-0.14-0.52-0.32-1.03-0.37-1.57c-0.05-0.53,0.07-0.77,0.56-0.98c0.48-0.21,0.98-0.4,1.44-0.66
		c1.25-0.71,1.71-1.92,1.24-3.29c-0.39-1.14-1.13-2.04-1.95-2.89c-1.08-1.12-2.31-2.05-3.58-2.93c-1.68-1.17-3.47-2.1-5.36-2.87
		c-2.96-1.21-6.04-1.92-9.22-2.22c-1.56-0.15-3.13-0.18-4.69-0.14c-1.58,0.04-3.15,0.2-4.7,0.49c-2.76,0.51-5.47,1.17-8.09,2.21
		c-2.78,1.1-5.32,2.62-7.48,4.72c-2.12,2.07-3.72,4.5-4.84,7.24c-1.2,2.94-1.85,6-2.08,9.15c-0.12,1.66-0.1,3.31-0.02,4.97
		c0.09,1.94,0.37,3.86,0.65,5.78c0.18,1.25,0.56,2.47,1.13,3.61c0.83,1.67,1.41,3.43,2.03,5.18c0.44,1.26,0.87,2.54,1.54,3.7
		c0.53,0.93,1.24,1.71,2.21,2.22c0.91,0.48,1.7,0.34,2.4-0.39c0.09-0.1,0.17-0.28,0.34-0.21c0.15,0.07,0.13,0.25,0.13,0.39
		c0.02,0.69,0.07,1.38,0.15,2.08c0.17,1.42,0.58,2.78,1.17,4.08c0.04,0.08,0.08,0.17,0.1,0.26c0.02,0.1-0.02,0.18-0.13,0.16
		c-0.48-0.08-0.63,0.25-0.76,0.61c-0.56,1.59-1.3,3.09-2.05,4.6c-1.02,2.05-2.62,3.47-4.61,4.51c-2.45,1.28-4.98,2.37-7.56,3.36
		c-0.49,0.19-0.48,0.19-0.15,0.59c0.18,0.22,0.35,0.26,0.62,0.15c1.97-0.79,3.95-1.58,5.86-2.5c1.29-0.62,2.56-1.28,3.7-2.17
		c1.34-1.04,2.31-2.37,3.07-3.86c0.28-0.55,0.55-1.09,0.83-1.64c0.05-0.11,0.09-0.23,0.21-0.3c0.11-0.01,0.13,0.08,0.16,0.16
		c0.07,0.43,0.01,0.87,0.02,1.3c0.03,1.34,0.2,2.67,0.47,3.98c0.49,2.34,1.4,4.53,2.29,6.73c1.29,3.18,2.75,6.29,4.26,9.37
		c0.38,0.77,0.78,1.54,1.16,2.31c0.1,0.2,0.25,0.32,0.47,0.36c0.23,0.03,0.46,0.09,0.69,0.14c0.05-0.07,0.01-0.11-0.01-0.16
		c-1.16-2.28-2.32-4.57-3.39-6.89c-1.47-3.18-2.88-6.39-4.01-9.71c-0.58-1.7-0.93-3.44-1.07-5.23c-0.12-1.49-0.02-2.98,0.23-4.46
		c0.02-0.11-0.01-0.29,0.14-0.31c0.15-0.02,0.21,0.14,0.28,0.25c0.73,1.2,1.56,2.33,2.45,3.4c1.86,2.23,4.12,3.95,6.69,5.28
		c1.88,0.98,3.68,2.08,5.43,3.27c1.11,0.76,2.27,1.45,3.54,1.94c0.02,0.01,0.04,0.02,0.06,0.02c0.41,0.18,0.42,0.22,0.15,0.57
		c-0.6,0.78-1.2,1.57-1.8,2.34c-1.34,1.72-2.61,3.48-3.87,5.26c-1.01,1.42-1.97,2.87-2.94,4.32c-0.03,0.05-0.06,0.11-0.1,0.16
		c-0.12,0.17-0.09,0.26,0.13,0.28c0.04,0-0.01,0,0.03,0c0.78,0.15,0.78,0.15,1.22-0.51c1.1-1.66,2.22-3.3,3.39-4.91
		c0.07-0.09,0.12-0.19,0.18-0.29c0.2-0.31,0.31-0.33,0.6-0.11c0.26,0.19,0.51,0.39,0.78,0.57c0.58,0.4,1.26,0.58,1.89,0.86
		c0.45,0.2,0.81,0.49,1.08,0.9c0.29,0.44,0.34,0.91,0.1,1.39c-0.15,0.31-0.34,0.6-0.54,0.87c-0.32,0.42-0.52,0.89-0.69,1.39
		c-0.11,0.31-0.09,0.32,0.25,0.31c0.24-0.01,0.47-0.06,0.71-0.08c0.32,0.02,0.64-0.03,0.96-0.07c0.16-0.02,0.33-0.05,0.48,0.05
		C329.68,206.66,329.69,206.7,329.67,206.74z"/>
	<path class="st11" d="M332.39,206.38c-0.8,0.1-1.6,0.21-2.41,0.31c-0.02-0.04-0.02-0.07,0.02-0.1c0.11-0.08,0.25-0.09,0.38-0.11
		c0.54-0.07,1.08-0.14,1.62-0.21c0.11-0.01,0.23-0.03,0.34,0.01C332.39,206.31,332.4,206.34,332.39,206.38z"/>
	<path class="st12" d="M329.97,206.64c0,0.02,0.01,0.04,0.01,0.06c-0.1,0.01-0.21,0.03-0.31,0.04c0-0.02-0.01-0.04-0.01-0.07
		C329.76,206.57,329.86,206.56,329.97,206.64z"/>
	<path class="st13" d="M332.39,206.38c0-0.02,0-0.04-0.01-0.06c0.09-0.11,0.19-0.12,0.31-0.05c0,0.02,0.01,0.04,0.01,0.06
		C332.59,206.36,332.49,206.37,332.39,206.38z"/>
	<path d="M328.18,206.74c-0.37,0.08-0.74,0.06-1.13,0.07c0.17-0.65,0.4-1.24,0.77-1.78c0.15-0.22,0.32-0.44,0.46-0.66
		c0.38-0.61,0.35-1.16-0.1-1.72c-0.24-0.31-0.54-0.55-0.9-0.69c-0.13-0.05-0.27-0.11-0.41-0.16c-0.91-0.29-1.71-0.78-2.44-1.39
		c-0.03-0.03-0.05-0.07-0.07-0.09c-0.13,0.07-0.18,0.17-0.23,0.25c-1.34,1.86-2.64,3.75-3.9,5.66c-0.12,0.18-0.23,0.25-0.45,0.21
		c-0.31-0.07-0.63-0.1-1-0.16c2.86-4.4,5.91-8.61,9.12-12.65c0.03-0.07,0.02-0.08-0.01-0.09c-1.4-0.52-2.68-1.26-3.91-2.1
		c-1.87-1.29-3.83-2.43-5.84-3.5c-2.51-1.34-4.69-3.08-6.48-5.3c-0.86-1.06-1.68-2.16-2.37-3.34c-0.02-0.04-0.03-0.1-0.12-0.12
		c-0.03,0.15-0.06,0.31-0.09,0.46c-0.35,2.21-0.32,4.42,0.1,6.62c0.28,1.48,0.74,2.91,1.27,4.32c1.76,4.73,3.92,9.28,6.19,13.79
		c0.24,0.48,0.49,0.96,0.73,1.44c0.03,0.06,0.08,0.12,0.07,0.22c-0.4-0.05-0.78-0.15-1.17-0.24c-0.14-0.03-0.15-0.17-0.2-0.26
		c-0.59-1.17-1.19-2.35-1.76-3.53c-1.53-3.15-2.97-6.33-4.26-9.59c-0.52-1.32-1.02-2.65-1.41-4.01c-0.44-1.56-0.72-3.15-0.79-4.78
		c-0.03-0.61-0.01-1.22-0.02-1.83c0.02-0.07,0-0.15-0.02-0.22c-0.01-0.01,0.03-0.04-0.02-0.04c-0.01,0.03-0.04,0.05-0.06,0.07
		c-0.42,0.87-0.85,1.73-1.32,2.57c-0.96,1.75-2.32,3.11-4.02,4.14c-1.48,0.89-3.03,1.61-4.61,2.29c-1.29,0.56-2.6,1.08-3.9,1.61
		c-0.16,0.07-0.26,0.06-0.37-0.08c-0.16-0.21-0.34-0.41-0.51-0.61c0.02-0.09,0.09-0.1,0.14-0.12c1.88-0.76,3.78-1.48,5.61-2.36
		c1.18-0.56,2.36-1.11,3.46-1.82c1.32-0.85,2.4-1.92,3.17-3.31c0.93-1.68,1.73-3.42,2.39-5.22c0.01-0.03,0.02-0.06,0.03-0.09
		c0.17-0.46,0.35-0.55,0.86-0.4c-0.1-0.22-0.19-0.43-0.28-0.63c-0.73-1.62-1.08-3.33-1.17-5.09c-0.01-0.27-0.02-0.54-0.04-0.81
		c-0.01-0.13-0.03-0.26-0.05-0.43c-0.11,0.12-0.19,0.22-0.27,0.3c-0.64,0.69-1.41,0.86-2.29,0.5c-0.42-0.17-0.78-0.44-1.11-0.73
		c-0.89-0.8-1.5-1.78-1.95-2.88c-0.49-1.21-0.92-2.44-1.35-3.67c-0.47-1.36-0.97-2.71-1.61-4c-0.47-0.95-0.78-1.96-1-3
		c-0.44-2.12-0.65-4.26-0.78-6.42c-0.13-2.17-0.08-4.33,0.18-6.48c0.36-3.01,1.11-5.92,2.39-8.68c2.1-4.51,5.41-7.84,9.85-10.06
		c1.62-0.81,3.3-1.43,5.04-1.92c1.62-0.46,3.24-0.87,4.9-1.17c1.14-0.21,2.3-0.35,3.46-0.44c1.4-0.11,2.8-0.14,4.19-0.08
		c5.81,0.23,11.23,1.74,16.14,4.92c1.37,0.89,2.66,1.88,3.82,3.03c0.74,0.73,1.41,1.52,1.9,2.44c0.3,0.57,0.5,1.18,0.48,1.84
		c-0.03,0.81-0.38,1.45-1.01,1.94c-0.47,0.37-1.01,0.6-1.56,0.83c-0.16,0.07-0.33,0.13-0.49,0.21c-0.29,0.13-0.4,0.37-0.39,0.68
		c0.02,0.39,0.11,0.76,0.23,1.13c0.45,1.44,0.76,2.91,0.98,4.39c0.14,0.93,0.39,1.85,0.64,2.75c0.27,0.97,0.51,1.95,0.73,2.93
		c0.15,0.66,0.29,1.31,0.4,1.98c0.13,0.76,0.13,1.51-0.1,2.24c-0.44,1.39-0.53,2.82-0.57,4.26c-0.06,1.88-0.14,3.77-0.34,5.64
		c-0.13,1.21-0.62,2.23-1.64,2.94c-0.15,0.11-0.18,0.21-0.14,0.39c0.17,0.77,0.3,1.55,0.4,2.33c0.16,1.27,0.05,2.52-0.21,3.77
		c-0.38,1.85-0.9,3.66-1.62,5.41c-0.38,0.93-0.87,1.81-1.42,2.65c-0.06,0.08-0.13,0.16-0.16,0.26c0.84,0.6,1.71,1.16,2.63,1.63
		c2.18,1.12,4.5,1.78,6.93,2.02c1.47,0.15,2.95,0.23,4.42,0.42c1.68,0.22,3.32,0.6,4.95,1.01c0.02,0,0.03,0.02,0.07,0.04
		c-0.15,0.29-0.34,0.56-0.51,0.84c-0.07,0.11-0.16,0.07-0.25,0.04c-0.47-0.12-0.95-0.23-1.42-0.34c-1.96-0.48-3.95-0.72-5.95-0.86
		c-1.69-0.12-3.38-0.3-5.02-0.78c-2.21-0.65-4.25-1.64-6.12-2.97c-0.11-0.08-0.21-0.16-0.29-0.26c-0.2,0.25-0.39,0.49-0.61,0.77
		c0.33,0.08,0.42,0.31,0.47,0.59c0.2,1.01,0.4,2.01,0.62,3.02c0.24,1.13,0.48,2.25,0.73,3.37c0.22,1.03,0.45,2.07,0.68,3.1
		c0.26,1.16,0.53,2.32,0.8,3.48c0.24,1.03,0.49,2.06,0.74,3.08c0.13,0.55,0.27,1.11,0.41,1.66c0.04,0.17,0.03,0.26-0.15,0.34
		c-0.25,0.11-0.48,0.28-0.76,0.38c-1.5-6.06-2.87-12.13-4.12-18.29c-0.32,0.41-0.6,0.77-0.88,1.12c-1.25,1.54-2.45,3.11-3.77,4.59
		c-1.17,1.3-2.42,2.5-3.86,3.5c-0.02,0.01-0.03,0.03-0.04,0.04c0.02,0.1,0.11,0.12,0.18,0.16c2.42,1.53,4.49,3.43,6.16,5.77
		c1.08,1.51,2.26,2.94,3.57,4.26c0.04,0.04,0.08,0.07,0.09,0.14c-0.28,0.12-0.57,0.23-0.85,0.37c-0.17,0.08-0.27,0.05-0.4-0.09
		c-0.64-0.68-1.27-1.37-1.86-2.09c-0.61-0.74-1.17-1.53-1.75-2.3c-0.25-0.33-0.51-0.65-0.76-0.97c-0.12,0.03-0.15,0.13-0.2,0.21
		c-0.46,0.67-0.97,1.3-1.57,1.84c-0.09,0.08-0.18,0.18-0.26,0.26c-0.42,0.41-0.59,0.92-0.6,1.49c-0.02,0.65,0.08,1.28,0.17,1.92
		c0.08,0.54,0.19,1.08,0.34,1.61c0.07,0.25,0.06,0.25-0.19,0.3c-0.26,0.05-0.53,0.1-0.79,0.15c-0.27-0.41-0.28-0.9-0.39-1.36
		c-0.06-0.27-0.08-0.55-0.11-0.83c-0.02-0.13-0.05-0.23-0.19-0.29c-0.75-0.31-1.51-0.49-2.33-0.29c-0.34,0.08-0.64,0.22-0.94,0.39
		c-0.15,0.09-0.24,0.22-0.27,0.39c-0.09,0.46-0.3,0.86-0.59,1.22c-0.29,0.36-0.5,0.76-0.68,1.18
		C328.31,206.56,328.27,206.66,328.18,206.74z"/>
	<path class="st14" d="M328.18,206.74c0.13-0.48,0.33-0.91,0.64-1.3c0.37-0.47,0.68-0.96,0.75-1.58c0.01-0.07,0.04-0.12,0.11-0.17
		c0.98-0.65,2.03-0.78,3.13-0.35c0.18,0.07,0.36,0.16,0.57,0.16c0.08,0.87,0.26,1.71,0.47,2.54c-0.28,0.05-0.56,0.1-0.85,0.16
		c-0.11,0.02-0.22,0.05-0.33,0.08c-0.11-0.01-0.21,0.02-0.31,0.05c-0.8,0.1-1.61,0.21-2.41,0.31c-0.1,0.01-0.2,0.02-0.31,0.03
		c-0.3-0.02-0.6,0.03-0.89,0.06C328.58,206.74,328.38,206.77,328.18,206.74z"/>
	<path class="st15" d="M307.78,181.6c0.01-0.04,0.03-0.09,0.04-0.13c0.06-0.03,0.08-0.01,0.08,0.05c-0.01,0.09,0.03,0.18-0.03,0.27
		C307.82,181.73,307.85,181.64,307.78,181.6z"/>
	<path class="st10" d="M344.47,156.79c0.2-0.01,0.32-0.12,0.41-0.29c0.08-0.13,0.16-0.26,0.24-0.4c0.1,0.04,0.08,0.13,0.09,0.19
		c0.19,1.05,0.19,2.1,0,3.15c-0.02,0.12-0.06,0.24-0.01,0.37c0.07,0.2,0.25,0.34,0.47,0.34c0.26,0.01,0.46-0.12,0.53-0.35
		c0.05-0.16,0.07-0.32,0.1-0.49c0.18-1.22,0.14-2.43-0.16-3.64c-0.07-0.27-0.2-0.47-0.5-0.55c0.72-1.41,1.27-2.85,1.69-4.35
		c0.06-0.05,0.08,0.01,0.11,0.04c0.06,0.27,0.11,0.55,0.17,0.82c0.15,0.71,0.1,1.4-0.11,2.09c-0.39,1.24-0.49,2.52-0.55,3.8
		c-0.09,1.99-0.16,3.97-0.35,5.95c-0.01,0.08-0.02,0.16-0.03,0.25c-0.11,0.98-0.59,1.74-1.42,2.26c-0.56,0.36-0.55,0.45-0.39,1.07
		c0.36,1.39,0.62,2.79,0.52,4.24c-0.05,0.76-0.22,1.49-0.39,2.23c-0.32,1.37-0.71,2.72-1.2,4.05c-0.47,1.28-1.1,2.48-1.91,3.58
		c-2.05,2.76-4.2,5.45-6.48,8.04c-1.08,1.23-2.29,2.31-3.65,3.22c-0.33,0.22-0.67,0.42-1.03,0.58c-0.22,0.1-0.43,0.12-0.67,0.08
		c-1.24-0.2-2.39-0.66-3.49-1.25c-0.84-0.45-1.64-0.98-2.43-1.51c-1.85-1.23-3.76-2.36-5.72-3.4c-1.1-0.58-2.18-1.22-3.08-2.09
		c-1.57-1.49-3.1-3.02-4.31-4.84c-0.74-1.12-1.42-2.26-1.9-3.51c-0.38-0.99-0.58-2.01-0.7-3.05c-0.08-0.65-0.11-1.3-0.17-1.95
		c-0.03-0.32-0.06-0.64-0.18-0.94c-0.09-0.22-0.23-0.39-0.43-0.52c-0.19-0.12-0.38-0.12-0.58-0.05c-0.25,0.08-0.42,0.26-0.57,0.46
		c-0.11,0.15-0.21,0.31-0.33,0.45c-0.26,0.32-0.57,0.41-0.97,0.28c-0.29-0.1-0.54-0.27-0.77-0.46c-0.74-0.6-1.26-1.36-1.65-2.23
		c-0.54-1.23-1.01-2.5-1.42-3.78c-0.47-1.48-1.01-2.94-1.73-4.32c-0.27-0.52-0.49-1.08-0.67-1.64c-0.03-0.11-0.07-0.21-0.07-0.35
		c0.5-0.11,1.01-0.21,1.51-0.33c1.17-0.28,2.34-0.54,3.46-1.01c0.11-0.05,0.22-0.11,0.34-0.15c1.05-0.43,1.69-1.23,2.05-2.28
		c0.31-0.93,0.46-1.89,0.57-2.86c0.15-1.26,0.17-2.52,0.2-3.78c0.03-1.72,0.17-3.43,0.52-5.12c0.02-0.09,0.02-0.18,0.08-0.27
		c0.14,0.05,0.27,0.1,0.41,0.15c1.84,0.69,3.7,1.34,5.6,1.83c1.54,0.4,3.11,0.55,4.71,0.51c1.58-0.04,3.14-0.23,4.69-0.57
		c1.38-0.3,2.74-0.68,4.07-1.12c4.98-1.65,9.89-3.51,14.74-5.52c1.75-0.73,3.47-1.52,5.17-2.36c0.19-0.1,0.37-0.21,0.39-0.44
		c0.02-0.2-0.03-0.39-0.2-0.53c-0.18-0.14-0.37-0.11-0.56-0.02c-0.38,0.18-0.76,0.38-1.14,0.56c-2.46,1.19-4.99,2.23-7.53,3.23
		c-3.17,1.25-6.36,2.42-9.58,3.55c-1.53,0.54-3.09,1.03-4.67,1.42c-1.56,0.39-3.14,0.66-4.76,0.75c-2.12,0.11-4.19-0.17-6.21-0.83
		c-4.15-1.35-8.22-2.89-12.18-4.73c-0.37-0.17-0.75,0.02-0.79,0.43c-0.02,0.23,0.07,0.41,0.27,0.52c0.14,0.07,0.28,0.14,0.42,0.2
		c1.89,0.89,3.84,1.67,5.78,2.43c0.06,0.02,0.11,0.05,0.17,0.07c0.13,0.04,0.17,0.1,0.14,0.25c-0.35,1.56-0.51,3.15-0.57,4.74
		c-0.04,0.96-0.05,1.93-0.09,2.89c-0.05,1.16-0.17,2.31-0.42,3.45c-0.11,0.48-0.29,0.93-0.5,1.37c-0.25,0.53-0.65,0.9-1.19,1.12
		c-0.81,0.32-1.63,0.61-2.48,0.81c-0.8,0.19-1.59,0.39-2.4,0.53c-0.28,0.05-0.29,0.06-0.35-0.24c-0.15-0.74-0.23-1.5-0.32-2.25
		c-0.17-1.39-0.3-2.78-0.36-4.18c-0.18-4.48,0.37-8.85,2.09-13.02c1.53-3.73,3.94-6.77,7.26-9.07c1.55-1.07,3.23-1.88,4.99-2.54
		c1.52-0.57,3.07-1.01,4.64-1.38c1.66-0.39,3.33-0.71,5.02-0.87c4.7-0.45,9.33-0.08,13.84,1.39c3.6,1.17,6.85,2.99,9.71,5.48
		c0.7,0.62,1.35,1.28,1.9,2.05c0.34,0.47,0.63,0.97,0.78,1.54c0.18,0.67-0.04,1.32-0.6,1.74c-0.27,0.2-0.57,0.33-0.88,0.45
		c-0.31,0.12-0.62,0.24-0.92,0.38c-0.71,0.32-1,0.89-0.98,1.65c0.02,0.54,0.12,1.07,0.28,1.59c0.4,1.28,0.65,2.59,0.87,3.91
		c0.19,1.14,0.5,2.25,0.79,3.36c0.18,0.69,0.36,1.38,0.54,2.08c0.01,0.05,0.01,0.1,0.02,0.15c-0.03,0.01-0.05,0.02-0.06,0.02
		c-0.41,0.02-0.55,0.13-0.65,0.53c-0.29,1.16-0.68,2.28-1.15,3.38c-0.25,0.57-0.51,1.13-0.82,1.67c-0.09-0.04-0.09-0.12-0.11-0.19
		c-0.5-1.83-0.85-3.7-1.04-5.59c-0.05-0.45-0.08-0.91-0.12-1.36c0.1-0.14,0.17-0.01,0.24,0.03c0.37,0.25,0.54,0.2,0.72-0.2
		c0.29-0.64,0.7-1.19,1.32-1.56c0.06-0.04,0.12-0.08,0.18-0.13c0.17-0.14,0.23-0.32,0.13-0.53c-0.1-0.21-0.28-0.26-0.5-0.22
		c-0.24,0.05-0.44,0.19-0.62,0.34c-0.53,0.42-0.93,0.94-1.22,1.55c-0.04,0.07-0.06,0.15-0.11,0.22c-0.04,0.05-0.07,0.12-0.14,0.08
		c-0.05-0.04-0.05-0.11-0.02-0.17c0-0.46,0-0.91,0-1.37c0.01-2.57,0.32-5.1,0.94-7.59c0.04-0.15,0.08-0.3,0.11-0.45
		c0.06-0.3-0.04-0.51-0.3-0.6c-0.26-0.09-0.54,0.01-0.67,0.25c-0.04,0.07-0.06,0.15-0.08,0.23c-0.57,2.19-0.89,4.42-1.01,6.68
		c-0.11,2.12-0.01,4.23,0.28,6.33c0.22,1.56,0.55,3.1,0.99,4.62c0.09,0.31,0.18,0.62,0.26,0.93c0.04,0.15,0.1,0.27,0.24,0.35
		c0.05,0.04,0.06,0.09,0.03,0.15c-0.19,0.18-0.26,0.41-0.26,0.67c-0.04,1.25-0.05,2.51,0.11,3.76c0.16,1.28,0.32,2.55,0.67,3.79
		c0.11,0.39,0.31,0.59,0.57,0.53c0.26-0.07,0.37-0.36,0.25-0.76c-0.28-0.99-0.46-2-0.59-3.02c-0.17-1.37-0.25-2.75-0.16-4.13
		c0.02-0.31-0.02-0.6-0.24-0.84C344.32,156.79,344.38,156.77,344.47,156.79z"/>
	<path class="st14" d="M329,193.9c0.27,0.05,0.5,0.1,0.73,0.15c0.56,0.1,1.09,0.02,1.6-0.25c0.16-0.09,0.29-0.14,0.42,0.05
		c0.05,0.07,0.15,0.11,0.23,0.16c1.49,0.92,2.84,2.01,4.06,3.26c0.17,0.17,0.17,0.18,0.03,0.38c-0.44,0.68-0.94,1.31-1.54,1.87
		c-0.11,0.1-0.2,0.21-0.31,0.31c-0.61,0.58-0.88,1.31-0.91,2.14c-0.01,0.13-0.01,0.27-0.02,0.4c-0.1,0.04-0.17-0.02-0.25-0.05
		c-1.18-0.42-2.32-0.34-3.43,0.21c-0.22,0.11-0.23,0.11-0.35-0.09c-0.39-0.68-0.95-1.17-1.69-1.45c-0.14-0.06-0.29-0.11-0.44-0.16
		c-0.75-0.25-1.41-0.65-2.01-1.16c-0.24-0.2-0.2-0.19-0.05-0.39c0.47-0.62,0.92-1.25,1.39-1.87c0.75-0.98,1.51-1.95,2.27-2.93
		C328.87,194.32,329,194.15,329,193.9z"/>
	<path d="M343.17,147.37c0.01,0.05,0.03,0.1,0.04,0.16c0.08-0.09,0.11-0.2,0.15-0.29c0.35-0.77,0.88-1.4,1.61-1.84
		c0.12-0.08,0.25-0.14,0.4-0.14c0.21,0,0.41,0.12,0.49,0.31c0.08,0.18,0.04,0.4-0.12,0.54c-0.08,0.08-0.18,0.14-0.27,0.2
		c-0.59,0.37-1,0.89-1.26,1.53c-0.01,0.02-0.02,0.04-0.02,0.06c-0.17,0.37-0.48,0.44-0.8,0.19c-0.06-0.05-0.07-0.2-0.2-0.13
		C343.18,147.76,343.08,147.57,343.17,147.37z"/>
	<path class="st16" d="M344.47,156.79c-0.04,0.03-0.11,0.02-0.13,0.08c-0.12,0.07-0.25,0.08-0.36-0.01
		c-0.01-0.04-0.02-0.08-0.02-0.11C344.11,156.84,344.3,156.7,344.47,156.79z"/>
	<path class="st17" d="M347.44,150.83c-0.04-0.01-0.08-0.03-0.11-0.04c-0.02-0.06,0.01-0.11,0.08-0.17
		C347.44,150.69,347.45,150.76,347.44,150.83z"/>
	<path class="st18" d="M307.89,181.52c-0.02-0.02-0.04-0.06-0.08-0.05c0.01-0.05,0.02-0.13,0.09-0.1
		C307.96,181.4,307.93,181.47,307.89,181.52z"/>
	<path class="st19" d="M308.96,178.75c-0.05,0-0.07-0.03-0.06-0.07c0.01-0.03,0.03-0.04,0.05-0.01
		C308.99,178.7,308.99,178.72,308.96,178.75z"/>
	<path class="st20" d="M308.96,178.75c0-0.02-0.01-0.05-0.01-0.07c0.04,0.02,0.09,0.05,0.05,0.1
		C308.99,178.8,308.97,178.78,308.96,178.75z"/>
	<path d="M324.08,175.33c1,0.53,1.99,1.06,3.05,1.47c1.2,0.46,2.42,0.49,3.66,0.19c1.46-0.36,2.75-1.06,3.96-1.94
		c0.1-0.07,0.2-0.15,0.3-0.22c0.23-0.15,0.47-0.12,0.65,0.07c0.18,0.19,0.21,0.48,0.05,0.68c-0.06,0.07-0.13,0.13-0.2,0.19
		c-1.24,0.92-2.56,1.68-4.04,2.13c-1.71,0.52-3.41,0.51-5.07-0.21c-0.66-0.28-1.3-0.59-1.94-0.92c-0.55-0.28-1.11-0.57-1.66-0.85
		c-0.42-0.21-0.81-0.46-1.19-0.73c-0.13-0.09-0.24-0.19-0.33-0.33c-0.12-0.2-0.15-0.41-0.03-0.62c0.12-0.2,0.3-0.25,0.54-0.23
		c2.11,0.22,4.22,0.23,6.33,0.1c1.38-0.09,2.75-0.25,4.09-0.56c1.39-0.31,2.73-0.76,4.03-1.34c0.07-0.03,0.13-0.06,0.2-0.09
		c0.28-0.1,0.53,0.01,0.65,0.27c0.13,0.29,0.05,0.54-0.23,0.68c-0.68,0.33-1.38,0.61-2.1,0.86c-1.99,0.69-4.05,1.04-6.15,1.19
		c-1.4,0.1-2.79,0.14-4.19,0.09c-0.06,0-0.12,0.01-0.19,0.01C324.08,175.22,324.04,175.23,324.08,175.33z"/>
	<path d="M330.02,186.87c-1.91,0.27-3.83,0.02-5.73-0.5c-2.79-0.78-5.33-2.04-7.6-3.85c-0.09-0.07-0.18-0.14-0.26-0.23
		c-0.22-0.25-0.17-0.61,0.09-0.79c0.2-0.13,0.38-0.11,0.62,0.09c0.72,0.6,1.48,1.14,2.29,1.61c2.18,1.27,4.48,2.19,6.98,2.58
		c1.55,0.24,3.1,0.2,4.63-0.14c1.7-0.38,3.23-1.14,4.63-2.18c1.68-1.26,3.05-2.79,4.14-4.59c0.05-0.08,0.09-0.16,0.14-0.24
		c0.16-0.23,0.44-0.3,0.68-0.17c0.22,0.12,0.32,0.39,0.22,0.64c-0.02,0.05-0.04,0.09-0.07,0.14c-1.57,2.58-3.58,4.71-6.25,6.18
		C333.13,186.18,331.65,186.67,330.02,186.87z"/>
	<path d="M326.93,133.16c-1.41,0.11-2.81,0.21-4.22,0.26c-1.28,0.04-2.57,0.06-3.85,0.03c-2.04-0.04-4.08-0.15-6.11-0.35
		c-1.79-0.18-3.58-0.42-5.35-0.72c-0.35-0.06-0.52-0.22-0.53-0.5c-0.02-0.35,0.24-0.59,0.6-0.54c0.5,0.08,1,0.17,1.5,0.25
		c2.36,0.38,4.74,0.6,7.13,0.74c1.58,0.09,3.17,0.13,4.75,0.11c1.53-0.02,3.07-0.08,4.6-0.19c0.99-0.08,1.98-0.17,2.97-0.27
		c0.4-0.04,0.68,0.29,0.58,0.67c-0.07,0.25-0.26,0.36-0.51,0.38C327.96,133.06,327.44,133.11,326.93,133.16z"/>
	<path d="M335.94,135.05c-1.89,0.22-3.78,0.35-5.68,0.37c-2.17,0.02-4.33-0.09-6.48-0.33c-0.05-0.01-0.1-0.01-0.15-0.02
		c-0.3-0.06-0.48-0.3-0.43-0.58c0.04-0.29,0.27-0.48,0.57-0.45c0.37,0.03,0.74,0.08,1.11,0.12c1.77,0.17,3.55,0.25,5.34,0.23
		c2.4-0.02,4.79-0.21,7.16-0.58c1.85-0.29,3.67-0.67,5.47-1.18c0.38-0.11,0.7,0.07,0.76,0.42c0.05,0.28-0.09,0.48-0.4,0.57
		c-0.3,0.08-0.6,0.16-0.9,0.24C340.19,134.38,338.08,134.8,335.94,135.05z"/>
	<path d="M330.16,169.15c-1.06,0.11-2.04-0.11-2.92-0.72c-0.14-0.09-0.27-0.19-0.41-0.29c-0.22-0.16-0.45-0.2-0.7-0.07
		c-0.12,0.06-0.24,0.11-0.37,0.17c-0.61,0.27-1.14,0.12-1.53-0.43c-0.27-0.39-0.38-0.85-0.42-1.32c-0.04-0.48,0-0.95,0.13-1.41
		c0.08-0.28,0.24-0.5,0.45-0.7c0.08-0.08,0.18-0.14,0.29-0.17c0.23-0.06,0.41,0.07,0.44,0.31c0.01,0.08,0.01,0.17-0.01,0.25
		c-0.07,0.36-0.13,0.71-0.22,1.06c-0.11,0.42-0.04,0.82,0.12,1.21c0.12,0.29,0.19,0.31,0.46,0.16c0.38-0.21,0.78-0.33,1.22-0.27
		c0.3,0.04,0.55,0.17,0.79,0.34c0.17,0.12,0.33,0.25,0.51,0.36c0.72,0.44,1.49,0.6,2.32,0.42c0.12-0.03,0.24-0.07,0.35-0.13
		c0.2-0.1,0.33-0.23,0.37-0.47c0.02-0.15,0.07-0.3,0.13-0.45c0.16-0.41,0.44-0.72,0.85-0.9c0.08-0.03,0.15-0.06,0.23-0.1
		c0.36-0.16,0.47-0.36,0.36-0.74c-0.13-0.48-0.37-0.9-0.76-1.22c-0.1-0.09-0.21-0.16-0.32-0.25c-0.26-0.22-0.32-0.5-0.15-0.74
		c0.17-0.24,0.51-0.29,0.78-0.1c0.82,0.58,1.38,1.33,1.48,2.37c0.08,0.81-0.25,1.37-1.02,1.64c-0.38,0.13-0.56,0.35-0.59,0.74
		c-0.03,0.44-0.27,0.75-0.62,0.99C331.04,168.99,330.62,169.11,330.16,169.15z"/>
	<path d="M325.22,137.59c-3.28,0.31-6.47,0.17-9.64-0.41c-1.59-0.29-3.15-0.7-4.68-1.21c-0.11-0.04-0.22-0.07-0.32-0.11
		c-0.27-0.11-0.39-0.32-0.31-0.59c0.08-0.29,0.32-0.45,0.61-0.39c0.15,0.03,0.3,0.09,0.44,0.14c2.92,0.99,5.93,1.53,9.01,1.66
		c1.91,0.08,3.81,0.01,5.71-0.25c0.13-0.02,0.27-0.04,0.4-0.05c0.33-0.02,0.54,0.16,0.57,0.48c0.03,0.3-0.13,0.52-0.44,0.56
		C326.08,137.49,325.61,137.54,325.22,137.59z"/>
	<path d="M332.1,155.67c-0.34,0.26-0.64,0.55-0.92,0.87c-0.23,0.26-0.53,0.27-0.76,0.04c-0.17-0.16-0.19-0.36-0.07-0.56
		c0.04-0.06,0.09-0.12,0.14-0.17c1.2-1.36,2.69-2.17,4.5-2.32c1.9-0.16,3.57,0.46,5.01,1.69c0.05,0.05,0.11,0.1,0.15,0.16
		c0.15,0.22,0.13,0.49-0.05,0.65c-0.18,0.15-0.47,0.18-0.65,0.01c-0.29-0.28-0.62-0.51-0.97-0.72c-0.04-0.03-0.09-0.05-0.13-0.07
		C337.02,157.5,333.95,158.05,332.1,155.67z"/>
	<path d="M317.92,155.6c1.77-0.19,3.39,0.24,4.83,1.28c0.32,0.23,0.37,0.48,0.18,0.74c-0.18,0.25-0.44,0.29-0.7,0.09
		c-0.29-0.22-0.6-0.41-0.93-0.56c-0.2-0.1-0.2-0.15-0.34,0.11c-0.47,0.9-1.17,1.54-2.14,1.88c-1.05,0.36-2.04,0.23-2.98-0.35
		c-0.28-0.18-0.55-0.38-0.77-0.63c-0.11-0.12-0.17-0.1-0.27,0.01c-0.24,0.26-0.48,0.52-0.68,0.81c-0.22,0.32-0.44,0.38-0.7,0.21
		c-0.27-0.18-0.31-0.48-0.09-0.79c0.79-1.1,1.8-1.91,3.06-2.4C316.88,155.81,317.39,155.67,317.92,155.6z"/>
	<path d="M327.13,130.5c-1.82,0.08-3.64,0-5.45-0.21c-2.76-0.33-5.42-1-8.01-1.99c-0.05-0.02-0.1-0.04-0.15-0.05
		c-0.32-0.13-0.44-0.37-0.33-0.66c0.11-0.31,0.39-0.45,0.73-0.33c0.36,0.13,0.72,0.27,1.08,0.4c2.66,0.96,5.41,1.53,8.23,1.74
		c1.29,0.1,2.58,0.12,3.88,0.06c0.3-0.01,0.5,0.11,0.59,0.35c0.13,0.33-0.05,0.64-0.4,0.69
		C327.24,130.49,327.18,130.49,327.13,130.5z"/>
	<path d="M340.79,131.68c-3.85,0.35-7.43-0.47-10.73-2.49c-0.53-0.33-1.04-0.68-1.53-1.07c-0.26-0.21-0.31-0.51-0.14-0.77
		c0.17-0.25,0.43-0.29,0.67-0.11c0.2,0.15,0.39,0.31,0.59,0.45c2.46,1.76,5.2,2.75,8.21,2.98c1.12,0.08,2.24,0.04,3.35-0.1
		c0.13-0.02,0.27-0.04,0.4,0.02c0.19,0.08,0.32,0.31,0.31,0.53c-0.02,0.24-0.16,0.41-0.39,0.46c-0.12,0.02-0.25,0.03-0.37,0.05
		C341.04,131.65,340.91,131.67,340.79,131.68z"/>
	<path d="M320.65,140.06c-3.92,0.29-7.8,0.01-11.62-0.94c-0.09-0.02-0.18-0.04-0.27-0.07c-0.31-0.1-0.47-0.37-0.39-0.67
		c0.08-0.29,0.33-0.44,0.66-0.35c0.84,0.22,1.69,0.4,2.55,0.55c1.95,0.34,3.92,0.52,5.9,0.53c1.07,0.01,2.13-0.03,3.2-0.11
		c0.38-0.03,0.66,0.25,0.61,0.6c-0.03,0.24-0.18,0.39-0.42,0.43C320.8,140.05,320.73,140.05,320.65,140.06z"/>
	<path d="M307.54,168.23c0.01,0.04,0.02,0.08,0.03,0.12c0.05,0.3-0.04,0.48-0.28,0.58c-0.24,0.09-0.52,0.02-0.67-0.19
		c-0.06-0.08-0.1-0.18-0.12-0.28c-0.26-1.19-0.58-2.37-0.96-3.54c-0.72-2.25-1.64-4.42-2.76-6.5c-0.03-0.05-0.06-0.11-0.09-0.16
		c-0.12-0.26-0.08-0.48,0.13-0.63c0.22-0.16,0.53-0.13,0.71,0.05c0.07,0.07,0.11,0.15,0.15,0.23c1.16,2.14,2.12,4.37,2.87,6.69
		c0.19,0.6,0.38,1.21,0.54,1.82c0.16,0.6,0.3,1.21,0.45,1.81C307.55,168.23,307.55,168.23,307.54,168.23z"/>
	<path d="M334.52,152.05c-1.2,0.14-2.46,0.51-3.68,1.02c-0.05,0.02-0.09,0.05-0.14,0.06c-0.31,0.12-0.56,0.03-0.67-0.25
		c-0.09-0.21-0.07-0.51,0.28-0.66c0.57-0.25,1.15-0.46,1.74-0.65c1.05-0.32,2.13-0.52,3.23-0.61c1.4-0.11,2.79-0.02,4.16,0.28
		c0.1,0.02,0.2,0.05,0.29,0.11c0.19,0.13,0.26,0.33,0.2,0.54c-0.07,0.22-0.26,0.36-0.49,0.35c-0.08-0.01-0.16-0.03-0.24-0.04
		C337.69,151.88,336.17,151.83,334.52,152.05z"/>
	<path d="M316.7,153.42c1.73-0.23,3.45-0.15,5.15,0.23c0.11,0.03,0.22,0.05,0.33,0.09c0.26,0.11,0.38,0.36,0.3,0.6
		c-0.08,0.25-0.32,0.38-0.59,0.32c-0.9-0.21-1.81-0.35-2.73-0.38c-1.29-0.05-2.56,0.07-3.82,0.38c-0.73,0.18-1.43,0.41-2.13,0.68
		c-0.38,0.14-0.68-0.05-0.7-0.44c-0.02-0.22,0.08-0.36,0.33-0.46c0.54-0.23,1.1-0.42,1.67-0.58
		C315.23,153.66,315.96,153.51,316.7,153.42z"/>
	<path d="M343.97,156.86c0.12,0.01,0.24-0.04,0.36,0.01c0.29,0.11,0.35,0.35,0.34,0.63c-0.04,0.61-0.05,1.22-0.03,1.83
		c0.03,1.11,0.11,2.21,0.3,3.31c0.13,0.8,0.29,1.59,0.51,2.37c0.01,0.05,0.02,0.1,0.03,0.15c0.03,0.28-0.14,0.55-0.38,0.6
		c-0.29,0.06-0.56-0.1-0.64-0.4c-0.1-0.38-0.19-0.76-0.28-1.15c-0.25-1.11-0.41-2.24-0.51-3.38c-0.1-1.13-0.1-2.25-0.05-3.38
		C343.64,157.19,343.67,156.95,343.97,156.86z"/>
	<path d="M305.05,150.52c0.03,0.27-0.1,0.45-0.32,0.59c-0.54,0.35-1.08,0.7-1.61,1.06c-1.34,0.92-2.62,1.93-3.84,3
		c-0.04,0.03-0.08,0.07-0.12,0.1c-0.23,0.19-0.42,0.2-0.61,0.04c-0.19-0.17-0.24-0.5-0.09-0.71c0.05-0.07,0.13-0.14,0.19-0.2
		c1.75-1.54,3.61-2.93,5.59-4.17c0.04-0.02,0.07-0.05,0.1-0.07C304.71,149.97,305,150.12,305.05,150.52z"/>
	<path d="M304.75,146.9c0.3-0.04,0.52,0.1,0.61,0.34c0.09,0.25-0.01,0.51-0.26,0.63c-0.24,0.12-0.5,0.2-0.75,0.3
		c-1.29,0.52-2.57,1.09-3.82,1.7c-0.07,0.04-0.15,0.08-0.22,0.11c-0.3,0.12-0.56,0.03-0.69-0.23c-0.13-0.27-0.05-0.57,0.23-0.72
		c0.5-0.25,1-0.49,1.51-0.72c1.05-0.49,2.11-0.95,3.19-1.35C304.64,146.94,304.72,146.91,304.75,146.9z"/>
	<path d="M299.96,146.46c-0.33,0.04-0.57-0.13-0.64-0.4c-0.07-0.26,0.04-0.49,0.32-0.59c0.48-0.19,0.97-0.36,1.46-0.53
		c1.05-0.38,2.08-0.81,3.11-1.25c0.06-0.02,0.11-0.05,0.17-0.07c0.33-0.13,0.61-0.04,0.73,0.24c0.14,0.31,0.02,0.58-0.32,0.73
		c-1.4,0.6-2.8,1.17-4.24,1.68C300.34,146.33,300.12,146.4,299.96,146.46z"/>
	<path d="M302.86,160.48c0.39-0.07,0.71,0.29,0.59,0.69c-0.07,0.23-0.15,0.45-0.21,0.68c-0.27,1.25-0.05,2.4,0.66,3.47
		c0.04,0.06,0.09,0.12,0.12,0.18c0.13,0.25,0.04,0.56-0.2,0.71c-0.24,0.15-0.5,0.1-0.68-0.14c-0.59-0.8-0.92-1.7-1.03-2.7
		c-0.09-0.86,0.03-1.69,0.33-2.5C302.52,160.67,302.64,160.52,302.86,160.48z"/>
	<path d="M325.98,157.49c0.2,1.48,0.16,2.79-0.24,4.08c-0.08,0.27-0.18,0.53-0.3,0.78c-0.1,0.23-0.34,0.29-0.54,0.17
		c-0.14-0.08-0.19-0.21-0.16-0.37c0.01-0.04,0.02-0.08,0.04-0.12c0.63-1.5,0.68-3.06,0.44-4.64c-0.06-0.41-0.14-0.82-0.23-1.22
		c-0.04-0.2,0.05-0.34,0.22-0.39c0.18-0.06,0.36,0.01,0.45,0.17c0.03,0.06,0.06,0.13,0.07,0.2
		C325.84,156.65,325.95,157.14,325.98,157.49z"/>
	<path d="M346.11,148.03c0.23-0.02,0.44,0.11,0.54,0.33c0.08,0.17,0.04,0.38-0.13,0.54c-0.11,0.11-0.25,0.19-0.36,0.3
		c-0.6,0.58-1.02,1.27-1.19,2.1c-0.01,0.04-0.02,0.08-0.03,0.12c-0.08,0.34-0.29,0.49-0.6,0.43c-0.3-0.05-0.49-0.32-0.44-0.64
		c0.05-0.3,0.14-0.58,0.25-0.86c0.34-0.87,0.88-1.59,1.61-2.16C345.92,148.08,345.99,148.04,346.11,148.03z"/>
	<path class="st21" d="M324.08,175.33c-0.06,0-0.11-0.03-0.2-0.11c0.16-0.02,0.28-0.04,0.4,0.01
		C324.21,175.28,324.12,175.25,324.08,175.33z"/>
	<path class="st10" d="M337.5,154.85c-0.76,1.48-3.11,2.32-4.63,0.32C334.37,154.36,335.9,154.3,337.5,154.85z"/>
	<path class="st10" d="M315.64,157.49c1.42-0.94,2.95-1.16,4.59-0.74C319.48,158.44,317.2,159.24,315.64,157.49z"/>
</g>
<g id="Vector_Smart_Object_4_">
	<g>
		<defs>
			<rect id="SVGID_13_" x="141.02" y="5.21" width="97.66" height="76.89"/>
		</defs>
		<clipPath id="SVGID_2_">
			<use xlink:href="#SVGID_13_"  style="overflow:visible;"/>
		</clipPath>
		<g class="st22">
			<defs>
				<rect id="SVGID_15_" x="141.02" y="5.21" width="97.66" height="76.88"/>
			</defs>
			<clipPath id="SVGID_4_">
				<use xlink:href="#SVGID_15_"  style="overflow:visible;"/>
			</clipPath>
			<path class="st23" d="M233.34,81.45h-86.63c-1.07,0-1.94-0.87-1.94-1.94V39.09c0-1.07,0.87-1.94,1.94-1.94h86.63
				c1.07,0,1.94,0.87,1.94,1.94v40.42C235.28,80.58,234.41,81.44,233.34,81.45"/>
			<path style="clip-path:url(#SVGID_4_);fill:none;stroke:#000000;stroke-width:1.2949;stroke-miterlimit:10;" d="M146.71,37.15
				h86.64c1.07,0,1.94,0.87,1.94,1.94v40.42c0,1.07-0.87,1.94-1.94,1.94h-86.64c-1.07,0-1.94-0.87-1.94-1.94V39.09
				C144.76,38.02,145.63,37.15,146.71,37.15z"/>
			<path style="clip-path:url(#SVGID_4_);fill:none;stroke:#000000;stroke-width:1.2949;stroke-miterlimit:10;" d="M142.32,76.87
				h95.06c0.36,0,0.65,0.29,0.65,0.65v3.27c0,0.36-0.29,0.65-0.65,0.65h-95.06c-0.36,0-0.65-0.29-0.65-0.65v-3.27
				C141.66,77.16,141.96,76.87,142.32,76.87z"/>
			<rect x="146.25" y="49.92" class="st25" width="3.1" height="9.17"/>
			
				<rect x="146.25" y="49.92" style="clip-path:url(#SVGID_4_);fill:none;stroke:#000000;stroke-width:0.323;stroke-miterlimit:10;" width="3.1" height="9.17"/>
			<path style="clip-path:url(#SVGID_4_);fill:none;stroke:#000000;stroke-width:1.1319;stroke-miterlimit:10;" d="M153.95,49.6
				h2.34c0.4,0,0.72,0.32,0.72,0.72v7.78c0,0.4-0.32,0.72-0.72,0.72h-2.34c-0.4,0-0.72-0.32-0.72-0.72v-7.78
				C153.24,49.92,153.56,49.6,153.95,49.6z"/>
			<path style="clip-path:url(#SVGID_4_);fill:none;stroke:#000000;stroke-width:1.1319;stroke-miterlimit:10;" d="M146.63,49.6
				h2.34c0.4,0,0.72,0.32,0.72,0.72v7.78c0,0.4-0.32,0.72-0.72,0.72h-2.34c-0.4,0-0.72-0.32-0.72-0.72v-7.78
				C145.91,49.92,146.23,49.6,146.63,49.6z"/>
			<path style="clip-path:url(#SVGID_4_);fill:none;stroke:#000000;stroke-width:1.1319;stroke-miterlimit:10;" d="M161.28,49.6
				h2.34c0.4,0,0.72,0.32,0.72,0.72v7.78c0,0.4-0.32,0.72-0.72,0.72h-2.34c-0.4,0-0.72-0.32-0.72-0.72v-7.78
				C160.56,49.92,160.88,49.6,161.28,49.6z"/>
			<path style="clip-path:url(#SVGID_4_);fill:none;stroke:#000000;stroke-width:1.1319;stroke-miterlimit:10;" d="M168.6,49.6h2.34
				c0.4,0,0.72,0.32,0.72,0.72v7.78c0,0.4-0.32,0.72-0.72,0.72h-2.34c-0.39,0-0.72-0.32-0.72-0.72v-7.78
				C167.88,49.92,168.21,49.6,168.6,49.6z"/>
			<path style="clip-path:url(#SVGID_4_);fill:none;stroke:#000000;stroke-width:1.1319;stroke-miterlimit:10;" d="M177.5,49.6h2.34
				c0.4,0,0.72,0.32,0.72,0.72v7.78c0,0.4-0.32,0.72-0.72,0.72h-2.34c-0.4,0-0.72-0.32-0.72-0.72v-7.78
				C176.78,49.92,177.1,49.6,177.5,49.6z"/>
			<path style="clip-path:url(#SVGID_4_);fill:none;stroke:#000000;stroke-width:1.1319;stroke-miterlimit:10;" d="M188.23,49.6
				h2.34c0.4,0,0.72,0.32,0.72,0.72v7.78c0,0.4-0.32,0.72-0.72,0.72h-2.34c-0.39,0-0.72-0.32-0.72-0.72v-7.78
				C187.51,49.92,187.84,49.6,188.23,49.6z"/>
			<path style="clip-path:url(#SVGID_4_);fill:none;stroke:#000000;stroke-width:1.1319;stroke-miterlimit:10;" d="M198.45,49.6
				h2.34c0.4,0,0.72,0.32,0.72,0.72v7.78c0,0.4-0.32,0.72-0.72,0.72h-2.34c-0.4,0-0.72-0.32-0.72-0.72v-7.78
				C197.73,49.92,198.05,49.6,198.45,49.6z"/>
			<path style="clip-path:url(#SVGID_4_);fill:none;stroke:#000000;stroke-width:1.1319;stroke-miterlimit:10;" d="M208.61,49.6
				h2.34c0.4,0,0.72,0.32,0.72,0.72v7.78c0,0.4-0.32,0.72-0.72,0.72h-2.34c-0.4,0-0.72-0.32-0.72-0.72v-7.78
				C207.89,49.92,208.21,49.6,208.61,49.6z"/>
			<path style="clip-path:url(#SVGID_4_);fill:none;stroke:#000000;stroke-width:1.1319;stroke-miterlimit:10;" d="M216.07,49.6
				h2.34c0.4,0,0.72,0.32,0.72,0.72v7.78c0,0.4-0.32,0.72-0.72,0.72h-2.34c-0.4,0-0.72-0.32-0.72-0.72v-7.78
				C215.35,49.92,215.67,49.6,216.07,49.6z"/>
			<path style="clip-path:url(#SVGID_4_);fill:none;stroke:#000000;stroke-width:1.1319;stroke-miterlimit:10;" d="M223.04,49.6
				h2.34c0.4,0,0.72,0.32,0.72,0.72v7.78c0,0.4-0.32,0.72-0.72,0.72h-2.34c-0.39,0-0.72-0.32-0.72-0.72v-7.78
				C222.32,49.92,222.64,49.6,223.04,49.6z"/>
			<path style="clip-path:url(#SVGID_4_);fill:none;stroke:#000000;stroke-width:1.1319;stroke-miterlimit:10;" d="M230.42,49.6
				h2.34c0.4,0,0.72,0.32,0.72,0.72v7.78c0,0.4-0.32,0.72-0.72,0.72h-2.34c-0.39,0-0.72-0.32-0.72-0.72v-7.78
				C229.7,49.92,230.03,49.6,230.42,49.6z"/>
			<path style="clip-path:url(#SVGID_4_);fill:none;stroke:#000000;stroke-width:1.1319;stroke-miterlimit:10;" d="M146.63,64.63
				h2.34c0.4,0,0.72,0.32,0.72,0.72v7.78c0,0.4-0.32,0.72-0.72,0.72h-2.34c-0.4,0-0.72-0.32-0.72-0.72v-7.78
				C145.91,64.95,146.23,64.63,146.63,64.63z"/>
			<path style="clip-path:url(#SVGID_4_);fill:none;stroke:#000000;stroke-width:1.1319;stroke-miterlimit:10;" d="M153.96,64.63
				h2.34c0.4,0,0.72,0.32,0.72,0.72v7.78c0,0.4-0.32,0.72-0.72,0.72h-2.34c-0.4,0-0.72-0.32-0.72-0.72v-7.78
				C153.24,64.95,153.56,64.63,153.96,64.63z"/>
			<path style="clip-path:url(#SVGID_4_);fill:none;stroke:#000000;stroke-width:1.1319;stroke-miterlimit:10;" d="M161.29,64.63
				h2.34c0.4,0,0.72,0.32,0.72,0.72v7.78c0,0.4-0.32,0.72-0.72,0.72h-2.34c-0.39,0-0.72-0.32-0.72-0.72v-7.78
				C160.57,64.95,160.89,64.63,161.29,64.63z"/>
			<path style="clip-path:url(#SVGID_4_);fill:none;stroke:#000000;stroke-width:1.1319;stroke-miterlimit:10;" d="M168.6,64.63
				h2.34c0.4,0,0.72,0.32,0.72,0.72v7.78c0,0.4-0.32,0.72-0.72,0.72h-2.34c-0.39,0-0.72-0.32-0.72-0.72v-7.78
				C167.88,64.95,168.21,64.63,168.6,64.63z"/>
			<path style="clip-path:url(#SVGID_4_);fill:none;stroke:#000000;stroke-width:1.1319;stroke-miterlimit:10;" d="M177.78,64.63
				h2.34c0.4,0,0.72,0.32,0.72,0.72v7.78c0,0.4-0.32,0.72-0.72,0.72h-2.34c-0.4,0-0.72-0.32-0.72-0.72v-7.78
				C177.06,64.95,177.38,64.63,177.78,64.63z"/>
			<path style="clip-path:url(#SVGID_4_);fill:none;stroke:#000000;stroke-width:1.1319;stroke-miterlimit:10;" d="M186.96,64.63
				h4.52c0.4,0,0.72,0.32,0.72,0.72v10.42c0,0.4-0.32,0.72-0.72,0.72h-4.52c-0.4,0-0.72-0.32-0.72-0.72V65.35
				C186.24,64.95,186.56,64.63,186.96,64.63z"/>
			<path style="clip-path:url(#SVGID_4_);fill:none;stroke:#000000;stroke-width:1.1319;stroke-miterlimit:10;" d="M198.45,64.63
				h2.34c0.4,0,0.72,0.32,0.72,0.72v7.78c0,0.4-0.32,0.72-0.72,0.72h-2.34c-0.4,0-0.72-0.32-0.72-0.72v-7.78
				C197.73,64.95,198.05,64.63,198.45,64.63z"/>
			<path style="clip-path:url(#SVGID_4_);fill:none;stroke:#000000;stroke-width:1.1319;stroke-miterlimit:10;" d="M208.61,64.91
				h2.34c0.4,0,0.72,0.32,0.72,0.72v7.78c0,0.4-0.32,0.72-0.72,0.72h-2.34c-0.4,0-0.72-0.32-0.72-0.72v-7.78
				C207.89,65.23,208.21,64.91,208.61,64.91z"/>
			<path style="clip-path:url(#SVGID_4_);fill:none;stroke:#000000;stroke-width:1.1319;stroke-miterlimit:10;" d="M216.07,64.91
				h2.34c0.4,0,0.72,0.32,0.72,0.72v7.78c0,0.4-0.32,0.72-0.72,0.72h-2.34c-0.4,0-0.72-0.32-0.72-0.72v-7.78
				C215.35,65.23,215.67,64.91,216.07,64.91z"/>
			<path style="clip-path:url(#SVGID_4_);fill:none;stroke:#000000;stroke-width:1.1319;stroke-miterlimit:10;" d="M223.04,64.91
				h2.34c0.4,0,0.72,0.32,0.72,0.72v7.78c0,0.4-0.32,0.72-0.72,0.72h-2.34c-0.39,0-0.72-0.32-0.72-0.72v-7.78
				C222.32,65.23,222.64,64.91,223.04,64.91z"/>
			<path style="clip-path:url(#SVGID_4_);fill:none;stroke:#000000;stroke-width:1.1319;stroke-miterlimit:10;" d="M230.42,64.91
				h2.34c0.4,0,0.72,0.32,0.72,0.72v7.78c0,0.4-0.32,0.72-0.72,0.72h-2.34c-0.39,0-0.72-0.32-0.72-0.72v-7.78
				C229.7,65.23,230.03,64.91,230.42,64.91z"/>
			<path class="st28" d="M146.71,72.29h7.57c1.07,0,1.94,0.87,1.94,1.94v5.27c0,1.07-0.87,1.94-1.94,1.94h-7.57
				c-1.07,0-1.94-0.87-1.94-1.94v-5.27C144.77,73.16,145.64,72.3,146.71,72.29"/>
			<path class="st28" d="M162.71,72.29h7.57c1.07,0,1.94,0.87,1.94,1.94v5.27c0,1.07-0.87,1.94-1.94,1.94h-7.57
				c-1.07,0-1.94-0.87-1.94-1.94v-5.27C160.78,73.16,161.64,72.3,162.71,72.29"/>
			<path class="st28" d="M209.02,72.29h7.56c1.07,0,1.93,0.87,1.94,1.94v5.27c0,1.07-0.87,1.94-1.94,1.94h-7.56
				c-1.07,0-1.94-0.87-1.94-1.94v-5.27C207.09,73.16,207.95,72.3,209.02,72.29"/>
			<path class="st28" d="M225.03,72.29h7.57c1.07,0,1.94,0.87,1.94,1.94v5.27c0,1.07-0.87,1.94-1.94,1.94h-7.57
				c-1.07,0-1.94-0.87-1.94-1.94v-5.27C223.1,73.16,223.96,72.3,225.03,72.29"/>
			
				<rect x="173.01" y="46.67" style="clip-path:url(#SVGID_4_);fill:none;stroke:#000000;stroke-width:1.2949;stroke-miterlimit:10;" width="3.01" height="29.83"/>
			
				<rect x="202.27" y="46.67" style="clip-path:url(#SVGID_4_);fill:none;stroke:#000000;stroke-width:1.2949;stroke-miterlimit:10;" width="3.01" height="29.83"/>
			
				<rect x="182.74" y="46.67" style="clip-path:url(#SVGID_4_);fill:none;stroke:#000000;stroke-width:1.1319;stroke-miterlimit:10;" width="3.08" height="29.83"/>
			<path class="st23" d="M236,46.66h-92.03c-0.52,0-0.94-0.42-0.94-0.94v-1.77c0-0.52,0.42-0.94,0.94-0.94H236
				c0.52,0,0.94,0.42,0.94,0.94v1.77C236.94,46.24,236.52,46.66,236,46.66"/>
			<path style="clip-path:url(#SVGID_4_);fill:none;stroke:#000000;stroke-width:1.2949;stroke-miterlimit:10;" d="M143.97,43.01
				H236c0.52,0,0.94,0.42,0.94,0.94v1.78c0,0.52-0.42,0.94-0.94,0.94h-92.03c-0.52,0-0.94-0.42-0.94-0.94v-1.78
				C143.03,43.43,143.45,43.01,143.97,43.01z"/>
			
				<rect x="192.98" y="46.67" style="clip-path:url(#SVGID_4_);fill:none;stroke:#000000;stroke-width:1.1319;stroke-miterlimit:10;" width="3.08" height="29.83"/>
			<path style="clip-path:url(#SVGID_4_);fill:none;stroke:#000000;stroke-width:1.2949;stroke-miterlimit:10;" d="M180.46,79.16
				h18.39c0.42,0,0.77,0.34,0.77,0.77v0.75c0,0.42-0.34,0.77-0.77,0.77h-18.39c-0.42,0-0.77-0.34-0.77-0.77v-0.75
				C179.7,79.5,180.04,79.16,180.46,79.16z"/>
			
				<rect x="182.74" y="77.07" style="clip-path:url(#SVGID_4_);fill:none;stroke:#000000;stroke-width:1.2949;stroke-miterlimit:10;" width="13.33" height="2.09"/>
			
				<rect x="173.01" y="37.15" style="clip-path:url(#SVGID_4_);fill:none;stroke:#000000;stroke-width:1.2949;stroke-miterlimit:10;" width="32.28" height="5.4"/>
			<rect x="171.66" y="31.82" class="st23" width="34.94" height="5.33"/>
			
				<rect x="171.66" y="31.82" style="clip-path:url(#SVGID_4_);fill:none;stroke:#000000;stroke-width:1.2949;stroke-miterlimit:10;" width="34.94" height="5.33"/>
			<polygon class="st23" points="189.11,21.02 173.19,31.29 205.02,31.29 			"/>
			
				<polygon style="clip-path:url(#SVGID_4_);fill:none;stroke:#000000;stroke-width:1.2949;stroke-linecap:round;stroke-miterlimit:10;" points="
				189.11,21.02 173.19,31.29 205.02,31.29 			"/>
			<rect x="194" y="7.09" class="st30" width="4.9" height="1.79"/>
			<rect x="193.06" y="10.79" class="st30" width="5.69" height="1.41"/>
			<path class="st31" d="M189.16,21.83L189.16,21.83c-0.47,0-0.85-0.38-0.85-0.85V6.06c0-0.47,0.38-0.86,0.85-0.86
				c0.47,0,0.85,0.38,0.85,0.86v14.92C190.01,21.45,189.63,21.83,189.16,21.83"/>
			<rect x="189.61" y="7.24" class="st32" width="4.39" height="4.96"/>
			<path style="clip-path:url(#SVGID_4_);fill:none;stroke:#000000;stroke-width:1.2949;stroke-miterlimit:10;" d="M190.01,6.8h8.24
				c0.47,0,0.86,0.38,0.86,0.85v6.68c0,0.47-0.38,0.86-0.86,0.86h-8.24c-0.47,0-0.85-0.38-0.85-0.86V7.65
				C189.16,7.18,189.54,6.8,190.01,6.8z"/>
		</g>
	</g>
</g>
</svg>
