<?xml version="1.0" encoding="utf-8"?>
<!-- Generator: Adobe Illustrator 24.1.0, SVG Export Plug-In . SVG Version: 6.00 Build 0)  -->
<svg version="1.1" id="Layer_1" xmlns="http://www.w3.org/2000/svg" xmlns:xlink="http://www.w3.org/1999/xlink" x="0px" y="0px"
	 viewBox="0 0 1366 119" enable-background="new 0 0 1366 119" xml:space="preserve">
<a xlink:href="https://projects.jhkforecasts.com/2020-elections/" >
	<g>
		<path fill="#FC474E" d="M797.5,55.76h-44.38c-4.77,0-8.63-3.86-8.63-8.63V16.97c0-4.77,3.86-8.63,8.63-8.63h44.38
			c4.77,0,8.63,3.86,8.63,8.63v30.16C806.13,51.89,802.27,55.76,797.5,55.76z"/>
		<g>
			<path fill="#FFFFFF" d="M748.88,47.02c3.32-4.02,9.65-12.26,13.01-16.73c1.56-1.91,2.56-3.87,2.56-5.58
				c0-2.26-1.71-4.57-5.33-4.57c-2.41,0-4.47,1.71-5.63,2.96c-0.4,0.4-0.95,0.4-1.36,0l-2.41-2.41c-0.3-0.3-0.4-0.9-0.05-1.31
				c0,0,3.92-4.92,9.9-4.92c7.18,0,11.2,4.57,11.2,10c0,3.27-1.41,5.33-3.37,8.14c-2.16,3.06-5.98,7.79-8.64,11.15h10.85
				c0.5,0,0.95,0.45,0.95,0.95v3.47c0,0.5-0.45,0.95-0.95,0.95h-19.79c-0.55,0-0.95-0.45-0.95-0.95V47.02z"/>
			<path fill="#FFFFFF" d="M776.41,32.05c0-11,4.62-17.58,12.66-17.58c8.04,0,12.66,6.58,12.66,17.58c0,11-4.62,17.58-12.66,17.58
				C781.03,49.63,776.41,43.05,776.41,32.05z M795.15,32.05c0-7.44-2.21-11.66-6.08-11.66s-6.08,4.22-6.08,11.66
				c0,7.49,2.21,11.65,6.08,11.65S795.15,39.53,795.15,32.05z"/>
		</g>
		<path fill="#36AEFF" d="M835.1,101h-46.85c-4.09,0-7.4-3.31-7.4-7.4V62.57c0-4.09,3.31-7.4,7.4-7.4h46.85c4.09,0,7.4,3.31,7.4,7.4
			V93.6C842.5,97.69,839.19,101,835.1,101z"/>
		<g>
			<path fill="#FFFFFF" d="M785.25,93.06c3.32-4.02,9.65-12.26,13.01-16.73c1.56-1.91,2.56-3.87,2.56-5.58
				c0-2.26-1.71-4.57-5.33-4.57c-2.41,0-4.47,1.71-5.63,2.96c-0.4,0.4-0.95,0.4-1.36,0l-2.41-2.41c-0.3-0.3-0.4-0.9-0.05-1.31
				c0,0,3.92-4.92,9.9-4.92c7.18,0,11.2,4.57,11.2,10c0,3.27-1.41,5.33-3.37,8.14c-2.16,3.06-5.98,7.79-8.64,11.15H806
				c0.5,0,0.95,0.45,0.95,0.95v3.47c0,0.5-0.45,0.95-0.95,0.95h-19.79c-0.55,0-0.95-0.45-0.95-0.95V93.06z"/>
			<path fill="#FFFFFF" d="M812.78,78.08c0-11,4.62-17.58,12.66-17.58c8.04,0,12.66,6.58,12.66,17.58c0,11-4.62,17.58-12.66,17.58
				C817.4,95.67,812.78,89.09,812.78,78.08z M831.52,78.08c0-7.44-2.21-11.66-6.08-11.66c-3.87,0-6.08,4.22-6.08,11.66
				c0,7.49,2.21,11.65,6.08,11.65C829.31,89.74,831.52,85.57,831.52,78.08z"/>
		</g>
	</g>
</a>
<rect x="862" fill="#FFFFFF" width="504" height="119"/>
<a xlink:href="https://projects.jhkforecasts.com/democratic_primary/" >
	<g>
		<path d="M867,33.56c0-0.24,0.19-0.46,0.43-0.46h5.52c4.63,0,8.42,3.77,8.42,8.38c0,4.66-3.79,8.42-8.42,8.42h-5.52
			c-0.24,0-0.43-0.22-0.43-0.46V33.56z M872.62,47.62c3.53,0,6.1-2.59,6.1-6.14c0-3.53-2.57-6.1-6.1-6.1h-3.17v12.24H872.62z"/>
		<path d="M887.86,40.06c2.5,0,4.42,1.87,4.42,4.44c0,0.17-0.02,0.48-0.05,0.65c-0.02,0.24-0.22,0.41-0.43,0.41h-6.53
			c0.07,1.3,1.2,2.57,2.76,2.57c0.86,0,1.66-0.38,2.14-0.7c0.29-0.17,0.46-0.26,0.65-0.02l0.67,0.91c0.17,0.19,0.24,0.38-0.05,0.62
			c-0.7,0.6-1.94,1.2-3.55,1.2c-2.9,0-4.82-2.28-4.82-5.04C883.06,42.39,884.98,40.06,887.86,40.06z M890.04,44.04
			c-0.07-1.15-1.03-2.14-2.21-2.14c-1.3,0-2.3,0.94-2.45,2.14H890.04z"/>
		<path d="M894.58,40.76c0-0.24,0.22-0.46,0.46-0.46h0.67c0.22,0,0.34,0.12,0.41,0.29l0.26,0.82c0.22-0.22,1.32-1.34,3.17-1.34
			c1.39,0,2.4,0.55,3.1,1.54c0.26-0.26,1.66-1.54,3.48-1.54c2.93,0,3.96,2.06,3.96,4.56v4.82c0,0.24-0.19,0.46-0.46,0.46h-1.34
			c-0.26,0-0.46-0.22-0.46-0.46v-4.92c0-1.51-0.7-2.38-1.99-2.38c-1.46,0-2.3,1.03-2.47,1.18c0.05,0.22,0.07,0.67,0.07,1.15v4.97
			c0,0.24-0.22,0.46-0.46,0.46h-1.27c-0.26,0-0.46-0.22-0.46-0.46v-4.92c0-1.54-0.7-2.38-2.04-2.38c-1.44,0-2.26,1.13-2.38,1.44
			v5.86c0,0.24-0.22,0.46-0.46,0.46h-1.34c-0.24,0-0.46-0.22-0.46-0.46V40.76z"/>
		<path d="M917.21,40.06c2.69,0,4.85,2.3,4.85,5.02c0,2.76-2.16,5.06-4.85,5.06s-4.85-2.3-4.85-5.06
			C912.36,42.36,914.52,40.06,917.21,40.06z M917.21,48.08c1.51,0,2.71-1.34,2.71-3c0-1.61-1.2-2.93-2.71-2.93s-2.71,1.32-2.71,2.93
			C914.5,46.73,915.7,48.08,917.21,48.08z"/>
		<path d="M928.78,40.06c1.46,0,2.59,0.6,3.48,1.7c0.17,0.22,0.12,0.5-0.1,0.67l-0.79,0.72c-0.29,0.26-0.46,0.07-0.65-0.1
			c-0.43-0.48-1.13-0.91-1.92-0.91c-1.56,0-2.78,1.32-2.78,2.95c0,1.66,1.2,2.98,2.76,2.98c1.22,0,1.73-0.62,2.23-1.1
			c0.22-0.22,0.43-0.22,0.65-0.05l0.65,0.53c0.24,0.19,0.34,0.43,0.17,0.67c-0.77,1.22-2.06,2.02-3.72,2.02
			c-2.69,0-5.02-2.14-5.02-5.02C923.74,42.29,926.11,40.06,928.78,40.06z"/>
		<path d="M934.87,40.76c0-0.24,0.22-0.46,0.46-0.46h0.7c0.17,0,0.36,0.14,0.41,0.34l0.26,0.82c0.17-0.24,1.06-1.39,2.81-1.39
			c0.91,0,2.02,0.24,1.75,0.89l-0.58,1.18c-0.12,0.26-0.36,0.31-0.58,0.22c-0.14-0.07-0.5-0.17-0.82-0.17
			c-1.39,0-2.06,1.01-2.16,1.18v6.1c0,0.41-0.26,0.46-0.65,0.46h-1.15c-0.24,0-0.46-0.22-0.46-0.46V40.76z"/>
		<path d="M946.08,43.83c1.01,0,1.9,0.29,1.9,0.29C948,42.6,947.71,42,946.49,42c-1.1,0-2.18,0.29-2.69,0.43
			c-0.29,0.07-0.46-0.12-0.53-0.38l-0.19-0.89c-0.07-0.31,0.1-0.48,0.31-0.55c0.17-0.07,1.54-0.55,3.31-0.55
			c3.07,0,3.36,1.87,3.36,4.27v5.11c0,0.24-0.22,0.46-0.46,0.46h-0.67c-0.22,0-0.31-0.1-0.41-0.34l-0.24-0.65
			c-0.53,0.5-1.46,1.22-2.95,1.22c-1.8,0-3.1-1.22-3.1-3.22C942.24,45.17,943.63,43.83,946.08,43.83z M945.79,48.44
			c0.96,0,1.87-0.72,2.16-1.2V45.7c-0.14-0.1-0.82-0.38-1.68-0.38c-1.15,0-1.94,0.6-1.94,1.58
			C944.33,47.76,944.9,48.44,945.79,48.44z"/>
		<path d="M953.71,42.29h-1.01c-0.26,0-0.46-0.22-0.46-0.46v-1.08c0-0.26,0.19-0.46,0.46-0.46h1.01v-2.66
			c0-0.24,0.22-0.46,0.46-0.46l1.37-0.02c0.24,0,0.43,0.22,0.43,0.46v2.69h2.45c0.26,0,0.46,0.19,0.46,0.46v1.08
			c0,0.24-0.19,0.46-0.46,0.46h-2.45v4.75c0,0.82,0.31,0.96,0.77,0.96c0.5,0,1.18-0.29,1.46-0.43c0.31-0.14,0.46,0,0.55,0.22
			l0.43,1.06c0.12,0.26,0.02,0.46-0.22,0.58c-0.24,0.14-1.66,0.72-2.81,0.72c-1.9,0-2.45-1.15-2.45-2.86V42.29z"/>
		<path d="M961.13,35c0-0.79,0.6-1.42,1.37-1.42c0.79,0,1.42,0.62,1.42,1.42c0,0.77-0.62,1.39-1.42,1.39
			C961.73,36.39,961.13,35.76,961.13,35z M961.39,40.76c0-0.24,0.22-0.46,0.46-0.46h1.37c0.24,0,0.46,0.22,0.46,0.46v8.69
			c0,0.24-0.22,0.46-0.46,0.46h-1.37c-0.24,0-0.46-0.22-0.46-0.46V40.76z"/>
		<path d="M971.11,40.06c1.46,0,2.59,0.6,3.48,1.7c0.17,0.22,0.12,0.5-0.1,0.67l-0.79,0.72c-0.29,0.26-0.46,0.07-0.65-0.1
			c-0.43-0.48-1.13-0.91-1.92-0.91c-1.56,0-2.78,1.32-2.78,2.95c0,1.66,1.2,2.98,2.76,2.98c1.22,0,1.73-0.62,2.23-1.1
			c0.22-0.22,0.43-0.22,0.65-0.05l0.65,0.53c0.24,0.19,0.34,0.43,0.17,0.67c-0.77,1.22-2.06,2.02-3.72,2.02
			c-2.69,0-5.02-2.14-5.02-5.02C966.07,42.29,968.45,40.06,971.11,40.06z"/>
		<path d="M884.84,62.35c0-0.24,0.19-0.46,0.46-0.46h5.47c2.95,0,5.38,2.4,5.38,5.3c0,2.98-2.42,5.4-5.35,5.4h-3.48v5.64
			c0,0.24-0.22,0.46-0.46,0.46h-1.56c-0.26,0-0.46-0.22-0.46-0.46V62.35z M890.63,70.25c1.66,0,3.05-1.34,3.05-3.07
			c0-1.63-1.39-2.88-3.05-2.88h-3.31v5.95H890.63z"/>
		<path d="M897.76,69.56c0-0.24,0.22-0.46,0.46-0.46h0.7c0.17,0,0.36,0.14,0.41,0.34l0.26,0.82c0.17-0.24,1.06-1.39,2.81-1.39
			c0.91,0,2.02,0.24,1.75,0.89l-0.58,1.18c-0.12,0.26-0.36,0.31-0.58,0.22c-0.14-0.07-0.5-0.17-0.82-0.17
			c-1.39,0-2.06,1.01-2.16,1.18v6.1c0,0.41-0.26,0.46-0.65,0.46h-1.15c-0.24,0-0.46-0.22-0.46-0.46V69.56z"/>
		<path d="M905.56,63.79c0-0.79,0.6-1.42,1.37-1.42c0.79,0,1.42,0.62,1.42,1.42c0,0.77-0.62,1.39-1.42,1.39
			C906.16,65.19,905.56,64.56,905.56,63.79z M905.82,69.56c0-0.24,0.22-0.46,0.46-0.46h1.37c0.24,0,0.46,0.22,0.46,0.46v8.69
			c0,0.24-0.22,0.46-0.46,0.46h-1.37c-0.24,0-0.46-0.22-0.46-0.46V69.56z"/>
		<path d="M911.22,69.56c0-0.24,0.22-0.46,0.46-0.46h0.67c0.22,0,0.34,0.12,0.41,0.29l0.26,0.82c0.22-0.22,1.32-1.34,3.17-1.34
			c1.39,0,2.4,0.55,3.1,1.54c0.26-0.26,1.66-1.54,3.48-1.54c2.93,0,3.96,2.06,3.96,4.56v4.82c0,0.24-0.19,0.46-0.46,0.46h-1.34
			c-0.26,0-0.46-0.22-0.46-0.46v-4.92c0-1.51-0.7-2.38-1.99-2.38c-1.46,0-2.3,1.03-2.47,1.18c0.05,0.22,0.07,0.67,0.07,1.15v4.97
			c0,0.24-0.22,0.46-0.46,0.46h-1.27c-0.26,0-0.46-0.22-0.46-0.46v-4.92c0-1.54-0.7-2.38-2.04-2.38c-1.44,0-2.26,1.13-2.38,1.44
			v5.86c0,0.24-0.22,0.46-0.46,0.46h-1.34c-0.24,0-0.46-0.22-0.46-0.46V69.56z"/>
		<path d="M932.87,72.63c1.01,0,1.9,0.29,1.9,0.29c0.02-1.51-0.26-2.11-1.49-2.11c-1.1,0-2.18,0.29-2.69,0.43
			c-0.29,0.07-0.46-0.12-0.53-0.38l-0.19-0.89c-0.07-0.31,0.1-0.48,0.31-0.55c0.17-0.07,1.54-0.55,3.31-0.55
			c3.07,0,3.36,1.87,3.36,4.27v5.11c0,0.24-0.22,0.46-0.46,0.46h-0.67c-0.22,0-0.31-0.1-0.41-0.34l-0.24-0.65
			c-0.53,0.5-1.46,1.22-2.95,1.22c-1.8,0-3.1-1.22-3.1-3.22C929.03,73.97,930.42,72.63,932.87,72.63z M932.58,77.24
			c0.96,0,1.87-0.72,2.16-1.2V74.5c-0.14-0.1-0.82-0.38-1.68-0.38c-1.15,0-1.94,0.6-1.94,1.58
			C931.12,76.56,931.69,77.24,932.58,77.24z"/>
		<path d="M939.88,69.56c0-0.24,0.22-0.46,0.46-0.46h0.7c0.17,0,0.36,0.14,0.41,0.34l0.26,0.82c0.17-0.24,1.06-1.39,2.81-1.39
			c0.91,0,2.02,0.24,1.75,0.89l-0.58,1.18c-0.12,0.26-0.36,0.31-0.58,0.22c-0.14-0.07-0.5-0.17-0.82-0.17
			c-1.39,0-2.06,1.01-2.16,1.18v6.1c0,0.41-0.26,0.46-0.65,0.46h-1.15c-0.24,0-0.46-0.22-0.46-0.46V69.56z"/>
		<path d="M946.95,69.72c-0.14-0.31,0.05-0.62,0.41-0.62h1.58c0.14,0,0.34,0.12,0.41,0.26l2.98,6.38h0.02l2.88-6.38
			c0.1-0.22,0.29-0.26,0.5-0.26h1.37c0.38,0,0.58,0.31,0.41,0.62l-7.34,15.89c-0.07,0.14-0.22,0.29-0.41,0.29h-1.44
			c-0.36,0-0.58-0.31-0.41-0.65l3.22-6.89L946.95,69.72z"/>
	</g>
</a>
<a xlink:href="https://projects.jhkforecasts.com/presidential-forecast/" >
	<g>
		<path d="M1061.72,51.44c0-0.24,0.19-0.46,0.46-0.46h5.47c2.95,0,5.38,2.4,5.38,5.3c0,2.98-2.42,5.4-5.35,5.4h-3.48v5.64
			c0,0.24-0.22,0.46-0.46,0.46h-1.56c-0.26,0-0.46-0.22-0.46-0.46V51.44z M1067.5,59.33c1.66,0,3.05-1.34,3.05-3.07
			c0-1.63-1.39-2.88-3.05-2.88h-3.31v5.95H1067.5z"/>
		<path d="M1074.63,58.64c0-0.24,0.22-0.46,0.46-0.46h0.7c0.17,0,0.36,0.14,0.41,0.34l0.26,0.82c0.17-0.24,1.06-1.39,2.81-1.39
			c0.91,0,2.02,0.24,1.75,0.89l-0.58,1.18c-0.12,0.26-0.36,0.31-0.58,0.22c-0.14-0.07-0.5-0.17-0.82-0.17
			c-1.39,0-2.06,1.01-2.16,1.18v6.1c0,0.41-0.26,0.46-0.65,0.46h-1.15c-0.24,0-0.46-0.22-0.46-0.46V58.64z"/>
		<path d="M1086.73,57.94c2.5,0,4.42,1.87,4.42,4.44c0,0.17-0.02,0.48-0.05,0.65c-0.02,0.24-0.22,0.41-0.43,0.41h-6.53
			c0.07,1.3,1.2,2.57,2.76,2.57c0.86,0,1.66-0.38,2.14-0.7c0.29-0.17,0.46-0.26,0.65-0.02l0.67,0.91c0.17,0.19,0.24,0.38-0.05,0.62
			c-0.7,0.6-1.94,1.2-3.55,1.2c-2.9,0-4.82-2.28-4.82-5.04C1081.93,60.27,1083.85,57.94,1086.73,57.94z M1088.91,61.92
			c-0.07-1.15-1.03-2.14-2.21-2.14c-1.3,0-2.3,0.94-2.45,2.14H1088.91z"/>
		<path d="M1092.87,66.53l0.5-0.94c0.1-0.19,0.36-0.26,0.6-0.12c0,0,1.06,0.62,2.23,0.62c0.72,0,1.18-0.29,1.18-0.82
			c0-0.65-0.53-0.96-1.85-1.56c-1.49-0.65-2.74-1.56-2.74-3.14c0-1.2,0.98-2.64,3.29-2.64c1.34,0,2.35,0.43,2.83,0.74
			c0.22,0.14,0.34,0.46,0.19,0.7l-0.43,0.82c-0.12,0.22-0.43,0.29-0.62,0.19c0,0-1.06-0.5-1.97-0.5c-0.82,0-1.08,0.36-1.08,0.72
			c0,0.62,0.6,0.89,1.54,1.3c1.75,0.77,3.19,1.51,3.19,3.31c0,1.49-1.42,2.81-3.55,2.81c-1.61,0-2.66-0.58-3.17-0.98
			C1092.87,66.94,1092.78,66.72,1092.87,66.53z"/>
		<path d="M1101.78,52.88c0-0.79,0.6-1.42,1.37-1.42c0.79,0,1.42,0.62,1.42,1.42c0,0.77-0.62,1.39-1.42,1.39
			C1102.38,54.27,1101.78,53.64,1101.78,52.88z M1102.04,58.64c0-0.24,0.22-0.46,0.46-0.46h1.37c0.24,0,0.46,0.22,0.46,0.46v8.69
			c0,0.24-0.22,0.46-0.46,0.46h-1.37c-0.24,0-0.46-0.22-0.46-0.46V58.64z"/>
		<path d="M1111.47,57.94c1.22,0,2.09,0.46,2.3,0.53v-7.03c0-0.24,0.22-0.46,0.46-0.46h1.39c0.24,0,0.46,0.22,0.46,0.46v15.89
			c0,0.24-0.22,0.46-0.46,0.46h-0.72c-0.22,0-0.36-0.17-0.43-0.41l-0.19-0.7c0,0-1.15,1.34-3.05,1.34c-2.54,0-4.49-2.28-4.49-5.04
			C1106.74,60.17,1108.81,57.94,1111.47,57.94z M1111.52,65.96c1.46,0,2.16-1.18,2.28-1.44V60.6c0,0-0.84-0.58-2.09-0.58
			c-1.61,0-2.74,1.32-2.74,2.95C1108.98,64.59,1109.98,65.96,1111.52,65.96z"/>
		<path d="M1123.3,57.94c2.5,0,4.42,1.87,4.42,4.44c0,0.17-0.02,0.48-0.05,0.65c-0.02,0.24-0.22,0.41-0.43,0.41h-6.53
			c0.07,1.3,1.2,2.57,2.76,2.57c0.86,0,1.66-0.38,2.14-0.7c0.29-0.17,0.46-0.26,0.65-0.02l0.67,0.91c0.17,0.19,0.24,0.38-0.05,0.62
			c-0.7,0.6-1.94,1.2-3.55,1.2c-2.9,0-4.82-2.28-4.82-5.04C1118.5,60.27,1120.42,57.94,1123.3,57.94z M1125.49,61.92
			c-0.07-1.15-1.03-2.14-2.21-2.14c-1.3,0-2.3,0.94-2.45,2.14H1125.49z"/>
		<path d="M1130.02,58.64c0-0.24,0.22-0.46,0.46-0.46h0.7c0.19,0,0.34,0.12,0.38,0.29l0.29,0.82c0.17-0.19,1.44-1.34,3.36-1.34
			c2.93,0,4.01,2.06,4.01,4.56v4.82c0,0.24-0.22,0.46-0.46,0.46h-1.37c-0.26,0-0.46-0.22-0.46-0.46V62.4c0-1.54-0.74-2.38-1.99-2.38
			c-1.51,0-2.54,1.1-2.66,1.44v5.86c0,0.31-0.14,0.46-0.55,0.46h-1.25c-0.24,0-0.46-0.22-0.46-0.46V58.64z"/>
		<path d="M1142.77,60.17h-1.01c-0.26,0-0.46-0.22-0.46-0.46v-1.08c0-0.26,0.19-0.46,0.46-0.46h1.01v-2.66
			c0-0.24,0.22-0.46,0.46-0.46l1.37-0.02c0.24,0,0.43,0.22,0.43,0.46v2.69h2.45c0.26,0,0.46,0.19,0.46,0.46v1.08
			c0,0.24-0.19,0.46-0.46,0.46h-2.45v4.75c0,0.82,0.31,0.96,0.77,0.96c0.5,0,1.18-0.29,1.46-0.43c0.31-0.14,0.46,0,0.55,0.22
			l0.43,1.06c0.12,0.26,0.02,0.46-0.22,0.58c-0.24,0.14-1.66,0.72-2.81,0.72c-1.9,0-2.45-1.15-2.45-2.86V60.17z"/>
		<path d="M1150.18,52.88c0-0.79,0.6-1.42,1.37-1.42c0.79,0,1.42,0.62,1.42,1.42c0,0.77-0.62,1.39-1.42,1.39
			C1150.78,54.27,1150.18,53.64,1150.18,52.88z M1150.45,58.64c0-0.24,0.22-0.46,0.46-0.46h1.37c0.24,0,0.46,0.22,0.46,0.46v8.69
			c0,0.24-0.22,0.46-0.46,0.46h-1.37c-0.24,0-0.46-0.22-0.46-0.46V58.64z"/>
		<path d="M1158.99,61.71c1.01,0,1.9,0.29,1.9,0.29c0.02-1.51-0.26-2.11-1.49-2.11c-1.1,0-2.18,0.29-2.69,0.43
			c-0.29,0.07-0.46-0.12-0.53-0.38l-0.19-0.89c-0.07-0.31,0.1-0.48,0.31-0.55c0.17-0.07,1.54-0.55,3.31-0.55
			c3.07,0,3.36,1.87,3.36,4.27v5.11c0,0.24-0.22,0.46-0.46,0.46h-0.67c-0.22,0-0.31-0.1-0.41-0.34l-0.24-0.65
			c-0.53,0.5-1.46,1.22-2.95,1.22c-1.8,0-3.1-1.22-3.1-3.22C1155.15,63.05,1156.54,61.71,1158.99,61.71z M1158.7,66.32
			c0.96,0,1.87-0.72,2.16-1.2v-1.54c-0.14-0.1-0.82-0.38-1.68-0.38c-1.15,0-1.94,0.6-1.94,1.58
			C1157.24,65.64,1157.82,66.32,1158.7,66.32z"/>
		<path d="M1166,51.44c0-0.24,0.22-0.46,0.46-0.46h1.37c0.24,0,0.46,0.22,0.46,0.46v15.89c0,0.24-0.22,0.46-0.46,0.46h-1.37
			c-0.24,0-0.46-0.22-0.46-0.46V51.44z"/>
	</g>
</a>
<a xlink:href="https://projects.jhkforecasts.com/senate-forecast/" >
	<g>
		<path d="M1276.81,65.48c0.22-0.31,0.41-0.67,0.62-0.98s0.55-0.41,0.82-0.19c0.14,0.12,1.99,1.66,3.84,1.66
			c1.66,0,2.71-1.01,2.71-2.23c0-1.44-1.25-2.35-3.62-3.34c-2.45-1.03-4.37-2.3-4.37-5.09c0-1.87,1.44-4.44,5.26-4.44
			c2.4,0,4.2,1.25,4.44,1.42c0.19,0.12,0.38,0.46,0.14,0.82c-0.19,0.29-0.41,0.62-0.6,0.91c-0.19,0.31-0.5,0.46-0.84,0.24
			c-0.17-0.1-1.85-1.2-3.24-1.2c-2.02,0-2.71,1.27-2.71,2.16c0,1.37,1.06,2.21,3.05,3.02c2.79,1.13,5.16,2.45,5.16,5.38
			c0,2.5-2.23,4.54-5.35,4.54c-2.93,0-4.78-1.54-5.16-1.9C1276.74,66.05,1276.57,65.88,1276.81,65.48z"/>
		<path d="M1294.11,58.06c2.5,0,4.42,1.87,4.42,4.44c0,0.17-0.02,0.48-0.05,0.65c-0.02,0.24-0.22,0.41-0.43,0.41h-6.53
			c0.07,1.3,1.2,2.57,2.76,2.57c0.86,0,1.66-0.38,2.14-0.7c0.29-0.17,0.46-0.26,0.65-0.02l0.67,0.91c0.17,0.19,0.24,0.38-0.05,0.62
			c-0.7,0.6-1.94,1.2-3.55,1.2c-2.9,0-4.82-2.28-4.82-5.04C1289.31,60.39,1291.23,58.06,1294.11,58.06z M1296.3,62.04
			c-0.07-1.15-1.03-2.14-2.21-2.14c-1.3,0-2.3,0.94-2.45,2.14H1296.3z"/>
		<path d="M1300.83,58.76c0-0.24,0.22-0.46,0.46-0.46h0.7c0.19,0,0.34,0.12,0.38,0.29l0.29,0.82c0.17-0.19,1.44-1.34,3.36-1.34
			c2.93,0,4.01,2.06,4.01,4.56v4.82c0,0.24-0.22,0.46-0.46,0.46h-1.37c-0.26,0-0.46-0.22-0.46-0.46v-4.92
			c0-1.54-0.74-2.38-1.99-2.38c-1.51,0-2.54,1.1-2.66,1.44v5.86c0,0.31-0.14,0.46-0.55,0.46h-1.25c-0.24,0-0.46-0.22-0.46-0.46
			V58.76z"/>
		<path d="M1316.17,61.83c1.01,0,1.9,0.29,1.9,0.29c0.02-1.51-0.26-2.11-1.49-2.11c-1.1,0-2.18,0.29-2.69,0.43
			c-0.29,0.07-0.46-0.12-0.53-0.38l-0.19-0.89c-0.07-0.31,0.1-0.48,0.31-0.55c0.17-0.07,1.54-0.55,3.31-0.55
			c3.07,0,3.36,1.87,3.36,4.27v5.11c0,0.24-0.22,0.46-0.46,0.46h-0.67c-0.22,0-0.31-0.1-0.41-0.34l-0.24-0.65
			c-0.53,0.5-1.46,1.22-2.95,1.22c-1.8,0-3.1-1.22-3.1-3.22C1312.33,63.17,1313.72,61.83,1316.17,61.83z M1315.88,66.44
			c0.96,0,1.87-0.72,2.16-1.2V63.7c-0.14-0.1-0.82-0.38-1.68-0.38c-1.15,0-1.94,0.6-1.94,1.58
			C1314.42,65.76,1314.99,66.44,1315.88,66.44z"/>
		<path d="M1323.8,60.29h-1.01c-0.26,0-0.46-0.22-0.46-0.46v-1.08c0-0.26,0.19-0.46,0.46-0.46h1.01v-2.66
			c0-0.24,0.22-0.46,0.46-0.46l1.37-0.02c0.24,0,0.43,0.22,0.43,0.46v2.69h2.45c0.26,0,0.46,0.19,0.46,0.46v1.08
			c0,0.24-0.19,0.46-0.46,0.46h-2.45v4.75c0,0.82,0.31,0.96,0.77,0.96c0.5,0,1.18-0.29,1.46-0.43c0.31-0.14,0.46,0,0.55,0.22
			l0.43,1.06c0.12,0.26,0.02,0.46-0.22,0.58c-0.24,0.14-1.66,0.72-2.81,0.72c-1.9,0-2.45-1.15-2.45-2.86V60.29z"/>
		<path d="M1335.58,58.06c2.5,0,4.42,1.87,4.42,4.44c0,0.17-0.02,0.48-0.05,0.65c-0.02,0.24-0.22,0.41-0.43,0.41h-6.53
			c0.07,1.3,1.2,2.57,2.76,2.57c0.86,0,1.66-0.38,2.14-0.7c0.29-0.17,0.46-0.26,0.65-0.02l0.67,0.91c0.17,0.19,0.24,0.38-0.05,0.62
			c-0.7,0.6-1.94,1.2-3.55,1.2c-2.9,0-4.82-2.28-4.82-5.04C1330.78,60.39,1332.7,58.06,1335.58,58.06z M1337.77,62.04
			c-0.07-1.15-1.03-2.14-2.21-2.14c-1.3,0-2.3,0.94-2.45,2.14H1337.77z"/>
	</g>
</a>
<a xlink:href="https://jhkforecasts.com" >
	<g>
		<path d="M16.03,73.76l2.89-2.94c0.61-0.55,1.17-0.44,1.67,0.06c0.72,0.78,1.83,1.78,3.66,1.78c2.16,0,4.44-1.78,4.44-5.6V40.85
			c0-0.55,0.44-1.05,1.05-1.05h5.22c0.61,0,1.05,0.5,1.05,1.05v26.19c0,7.71-5.16,12.15-11.65,12.15c-4.83,0-7.49-2.89-8.44-4.05
			C15.64,74.71,15.7,74.15,16.03,73.76z"/>
		<path d="M45.06,40.85c0-0.55,0.5-1.05,1.05-1.05h5.16c0.61,0,1.05,0.5,1.05,1.05v14.71h18.09V40.85c0-0.55,0.44-1.05,1.05-1.05
			h5.11c0.56,0,1.05,0.5,1.05,1.05v36.74c0,0.55-0.5,1.05-1.05,1.05h-5.11c-0.61,0-1.05-0.5-1.05-1.05V62.27H52.33v15.32
			c0,0.55-0.44,1.05-1.05,1.05h-5.16c-0.55,0-1.05-0.5-1.05-1.05V40.85z"/>
		<path d="M87.74,41.13c0-0.72,0.55-1.33,1.33-1.33h4.88c0.72,0,1.33,0.61,1.33,1.33v14.98l13.98-15.76
			c0.22-0.28,0.56-0.55,1.05-0.55h5.55c1.05,0,1.61,1.17,0.89,2l-14.48,16.32l15.54,18.59c0.56,0.72,0.11,1.94-1,1.94h-6.05
			c-0.55,0-0.89-0.22-1-0.39L95.29,60.39v16.93c0,0.72-0.61,1.33-1.33,1.33h-4.88c-0.78,0-1.33-0.61-1.33-1.33V41.13z"/>
		<path d="M136.36,40.85c0-0.55,0.44-1.05,1.05-1.05H160c0.61,0,1.05,0.5,1.05,1.05v4.55c0,0.55-0.44,1.05-1.05,1.05h-16.43v10.43
			h13.71c0.56,0,1.05,0.5,1.05,1.05v4.55c0,0.56-0.5,1.05-1.05,1.05h-13.71v14.04c0,0.55-0.5,1.05-1.05,1.05h-5.11
			c-0.61,0-1.05-0.5-1.05-1.05V40.85z"/>
		<path d="M173.66,55.89c6.27,0,11.38,5.33,11.38,11.6c0,6.38-5.11,11.71-11.38,11.71c-6.27,0-11.38-5.33-11.38-11.71
			C162.28,61.22,167.39,55.89,173.66,55.89z M173.66,73.21c2.94,0,5.33-2.55,5.33-5.72c0-3.11-2.39-5.6-5.33-5.6
			c-3,0-5.33,2.5-5.33,5.6C168.33,70.65,170.66,73.21,173.66,73.21z"/>
		<path d="M189.98,57.5c0-0.61,0.5-1.05,1.05-1.05h2.11c0.5,0,0.83,0.28,1,0.72l0.78,2.16c0.78-1.11,2.83-3.44,6.27-3.44
			c2.61,0,4.94,0.83,4.27,2.22l-2.05,3.61c-0.28,0.5-0.83,0.72-1.28,0.5c-0.17-0.06-1-0.33-1.61-0.33c-2.22,0-3.55,1.5-3.94,2.28
			v13.43c0,0.78-0.5,1.05-1.28,1.05h-4.27c-0.56,0-1.05-0.5-1.05-1.05V57.5z"/>
		<path d="M218.39,55.89c5.72,0,10.38,4.33,10.38,10.32c0,0.39-0.06,1.11-0.11,1.5c-0.06,0.55-0.56,0.94-1.05,0.94H213.4
			c0.17,2.28,2.11,4.83,5.33,4.83c1.72,0,3.33-0.67,4.33-1.39c0.55-0.33,1.05-0.44,1.44,0l2.28,2.61c0.39,0.39,0.5,1-0.06,1.44
			c-1.83,1.72-4.66,3.05-8.27,3.05c-6.66,0-11.38-5.27-11.38-11.65C207.07,61.28,211.79,55.89,218.39,55.89z M222.28,64.77
			c-0.17-2.05-1.94-3.77-4.05-3.77c-2.22,0-4.05,1.67-4.33,3.77H222.28z"/>
		<path d="M243.53,55.89c3.44,0,6.1,1.39,8.21,3.94c0.39,0.5,0.28,1.17-0.28,1.55l-2.55,2.44c-0.5,0.44-1,0.17-1.39-0.17
			c-0.89-1-2.28-1.78-3.83-1.78c-3,0-5.44,2.55-5.44,5.66c0,3.16,2.39,5.66,5.38,5.66c2.39,0,3.44-1.17,4.44-2.11
			c0.39-0.39,0.94-0.5,1.39-0.17l2.39,2.05c0.56,0.44,0.78,1,0.39,1.55c-1.89,2.94-4.83,4.66-8.77,4.66c-6.27,0-11.77-5-11.77-11.65
			C231.71,61,237.32,55.89,243.53,55.89z"/>
		<path d="M264.35,64.61c2.22,0,4.05,0.61,4.05,0.61c0.06-2.83-0.83-3.83-2.89-3.83s-4.94,0.44-6.22,0.83
			c-0.78,0.22-1.17-0.28-1.28-1l-0.5-2.89c-0.17-0.83,0.28-1.22,0.78-1.39c0.44-0.17,4-1.05,7.55-1.05c6.94,0,8.55,3.61,8.55,9.66
			v12.04c0,0.55-0.5,1.05-1.05,1.05h-2c-0.39,0-0.67-0.17-0.94-0.78l-0.67-1.5c-1.28,1.17-3.33,2.83-6.77,2.83
			c-4.44,0-7.49-2.89-7.49-7.6C255.47,67.66,258.69,64.61,264.35,64.61z M264.46,74.48c1.78,0,3.5-1.5,3.83-2.16v-3.05
			c0,0-1.5-0.67-3.11-0.67c-2.16,0-3.61,1.22-3.61,3C261.57,73.26,262.74,74.48,264.46,74.48z"/>
		<path d="M279.56,75.98l1.5-3c0.22-0.55,0.78-0.67,1.28-0.39c0,0,2.5,1.33,5.05,1.33c1.11,0,1.89-0.44,1.89-1.39
			c0-1-0.78-1.61-3.72-2.77c-4.27-1.67-6.27-3.94-6.27-7.33s2.5-6.55,8.16-6.55c3.27,0,5.66,0.94,6.83,1.72
			c0.5,0.33,0.78,0.94,0.5,1.5l-1.39,2.83c-0.28,0.5-0.89,0.56-1.33,0.39c0,0-2.5-1.17-4.61-1.17c-1.33,0-1.89,0.56-1.89,1.28
			c0,1,1,1.33,3.05,2.16c4.27,1.67,7.49,3.5,7.49,7.83c0,3.66-3.22,6.77-8.82,6.77c-3.66,0-6.22-1.17-7.38-2.05
			C279.56,76.87,279.33,76.43,279.56,75.98z"/>
		<path d="M302.14,62.27h-1.89c-0.56,0-1-0.5-1-1.05V57.5c0-0.61,0.44-1.05,1-1.05h1.89v-6.16c0-0.56,0.5-1.05,1.05-1.05l4.55-0.06
			c0.56,0,1,0.5,1,1.05v6.22h4.88c0.61,0,1.05,0.44,1.05,1.05v3.72c0,0.56-0.44,1.05-1.05,1.05h-4.88v8.88
			c0,1.55,0.83,1.78,1.72,1.78c0.94,0,2.11-0.39,2.72-0.61c0.61-0.22,1.05,0.06,1.22,0.61l1.11,3.5c0.22,0.55-0.06,1.11-0.61,1.33
			c-0.28,0.17-3.88,1.44-6.6,1.44c-4.27,0-6.16-2.66-6.16-7.16V62.27z"/>
		<path d="M318.91,75.98l1.5-3c0.22-0.55,0.78-0.67,1.28-0.39c0,0,2.5,1.33,5.05,1.33c1.11,0,1.89-0.44,1.89-1.39
			c0-1-0.78-1.61-3.72-2.77c-4.27-1.67-6.27-3.94-6.27-7.33s2.5-6.55,8.16-6.55c3.27,0,5.66,0.94,6.83,1.72
			c0.5,0.33,0.78,0.94,0.5,1.5l-1.39,2.83c-0.28,0.5-0.89,0.56-1.33,0.39c0,0-2.5-1.17-4.61-1.17c-1.33,0-1.89,0.56-1.89,1.28
			c0,1,1,1.33,3.05,2.16c4.27,1.67,7.49,3.5,7.49,7.83c0,3.66-3.22,6.77-8.82,6.77c-3.66,0-6.22-1.17-7.38-2.05
			C318.91,76.87,318.68,76.43,318.91,75.98z"/>
	</g>
</a>
</svg>
