<?xml version="1.0" encoding="utf-8"?>
<!-- Generator: Adobe Illustrator 24.1.0, SVG Export Plug-In . SVG Version: 6.00 Build 0)  -->
<svg version="1.1" id="Layer_1" xmlns="http://www.w3.org/2000/svg" xmlns:xlink="http://www.w3.org/1999/xlink" x="0px" y="0px"
	 viewBox="0 0 1366 119" enable-background="new 0 0 1366 119" xml:space="preserve">
<a xlink:href="https://projects.jhkforecasts.com/2020-elections/" >
	<g>
		<path fill="#FC474E" d="M637.5,55.76h-44.38c-4.77,0-8.63-3.86-8.63-8.63V16.97c0-4.77,3.86-8.63,8.63-8.63h44.38
			c4.77,0,8.63,3.86,8.63,8.63v30.16C646.13,51.89,642.27,55.76,637.5,55.76z"/>
		<g>
			<path fill="#FFFFFF" d="M588.88,47.02c3.32-4.02,9.65-12.26,13.01-16.73c1.56-1.91,2.56-3.87,2.56-5.58
				c0-2.26-1.71-4.57-5.33-4.57c-2.41,0-4.47,1.71-5.63,2.96c-0.4,0.4-0.95,0.4-1.36,0l-2.41-2.41c-0.3-0.3-0.4-0.9-0.05-1.31
				c0,0,3.92-4.92,9.9-4.92c7.18,0,11.2,4.57,11.2,10c0,3.27-1.41,5.33-3.37,8.14c-2.16,3.06-5.98,7.79-8.64,11.15h10.85
				c0.5,0,0.95,0.45,0.95,0.95v3.47c0,0.5-0.45,0.95-0.95,0.95h-19.79c-0.55,0-0.95-0.45-0.95-0.95V47.02z"/>
			<path fill="#FFFFFF" d="M616.41,32.05c0-11,4.62-17.58,12.66-17.58c8.04,0,12.66,6.58,12.66,17.58c0,11-4.62,17.58-12.66,17.58
				C621.03,49.63,616.41,43.05,616.41,32.05z M635.15,32.05c0-7.44-2.21-11.66-6.08-11.66s-6.08,4.22-6.08,11.66
				c0,7.49,2.21,11.65,6.08,11.65S635.15,39.53,635.15,32.05z"/>
		</g>
		<path fill="#36AEFF" d="M675.1,101h-46.85c-4.09,0-7.4-3.31-7.4-7.4V62.57c0-4.09,3.31-7.4,7.4-7.4h46.85c4.09,0,7.4,3.31,7.4,7.4
			V93.6C682.5,97.69,679.19,101,675.1,101z"/>
		<g>
			<path fill="#FFFFFF" d="M625.25,93.06c3.32-4.02,9.65-12.26,13.01-16.73c1.56-1.91,2.56-3.87,2.56-5.58
				c0-2.26-1.71-4.57-5.33-4.57c-2.41,0-4.47,1.71-5.63,2.96c-0.4,0.4-0.95,0.4-1.36,0l-2.41-2.41c-0.3-0.3-0.4-0.9-0.05-1.31
				c0,0,3.92-4.92,9.9-4.92c7.18,0,11.2,4.57,11.2,10c0,3.27-1.41,5.33-3.37,8.14c-2.16,3.06-5.98,7.79-8.64,11.15H646
				c0.5,0,0.95,0.45,0.95,0.95v3.47c0,0.5-0.45,0.95-0.95,0.95h-19.79c-0.55,0-0.95-0.45-0.95-0.95V93.06z"/>
			<path fill="#FFFFFF" d="M652.78,78.08c0-11,4.62-17.58,12.66-17.58c8.04,0,12.66,6.58,12.66,17.58c0,11-4.62,17.58-12.66,17.58
				C657.4,95.67,652.78,89.09,652.78,78.08z M671.52,78.08c0-7.44-2.21-11.66-6.08-11.66c-3.87,0-6.08,4.22-6.08,11.66
				c0,7.49,2.21,11.65,6.08,11.65C669.31,89.74,671.52,85.57,671.52,78.08z"/>
		</g>
	</g>
</a>
<g>
	<path d="M734.38,26.26c0-0.32,0.25-0.61,0.57-0.61l7.55-0.02c6.15-0.01,11.19,4.98,11.21,11.1c0.01,6.18-5.01,11.19-11.16,11.21
		L735,47.95c-0.32,0-0.57-0.29-0.57-0.6L734.38,26.26z M742.16,44.05c4.14-0.01,7.16-3.14,7.15-7.31c-0.01-4.14-3.04-7.26-7.18-7.25
		l-3.63,0.01l0.03,14.56L742.16,44.05z"/>
	<path d="M762.02,34.83c3.28-0.01,5.96,2.47,5.97,5.91c0,0.22-0.03,0.64-0.06,0.86c-0.03,0.32-0.32,0.54-0.6,0.54l-8.16,0.02
		c0.1,1.31,1.22,2.77,3.06,2.77c0.99,0,1.91-0.39,2.48-0.8c0.32-0.19,0.61-0.26,0.83,0l1.31,1.49c0.22,0.22,0.29,0.57-0.03,0.83
		c-1.05,0.99-2.67,1.76-4.74,1.76c-3.82,0.01-6.54-3.01-6.54-6.68C755.53,37.94,758.23,34.84,762.02,34.83z M764.26,39.93
		c-0.1-1.18-1.12-2.16-2.33-2.16c-1.27,0-2.32,0.96-2.48,2.17L764.26,39.93z"/>
	<path d="M770.65,35.74c0-0.35,0.29-0.61,0.6-0.61l1.18,0c0.29,0,0.48,0.16,0.54,0.35l0.45,1.21c0.54-0.61,2-1.88,4.27-1.89
		c1.82,0,3.09,0.69,4.15,1.97c0.54-0.57,2.19-1.98,4.49-1.98c4.08-0.01,5.58,3.02,5.59,6.36l0.01,6.08c0,0.32-0.25,0.61-0.6,0.61
		l-2.58,0.01c-0.35,0-0.61-0.29-0.61-0.6l-0.01-6.31c0-1.66-0.8-2.71-2.4-2.7c-1.85,0-2.67,1.34-2.67,1.34s0.03,0.64,0.03,1.21
		l0.01,6.47c0,0.32-0.29,0.61-0.6,0.61l-2.39,0c-0.35,0-0.6-0.29-0.61-0.6l-0.01-6.31c0-1.66-0.74-2.71-2.36-2.7
		c-1.59,0-2.35,1.15-2.67,2.01l0.01,7.01c0,0.32-0.29,0.61-0.6,0.61l-2.58,0.01c-0.32,0-0.6-0.29-0.61-0.6L770.65,35.74z"/>
	<path d="M801.01,34.76c3.6-0.01,6.54,3.04,6.54,6.65c0.01,3.66-2.92,6.73-6.52,6.74c-3.6,0.01-6.54-3.05-6.54-6.71
		C794.48,37.83,797.41,34.76,801.01,34.76z M801.03,44.7c1.69,0,3.06-1.47,3.05-3.29c0-1.78-1.38-3.22-3.07-3.21
		c-1.72,0-3.06,1.44-3.05,3.22C797.97,43.24,799.31,44.7,801.03,44.7z"/>
	<path d="M816.17,34.72c1.98,0,3.51,0.79,4.72,2.25c0.22,0.29,0.16,0.67-0.16,0.89l-1.46,1.4c-0.29,0.26-0.57,0.1-0.8-0.09
		c-0.51-0.57-1.31-1.02-2.2-1.01c-1.72,0-3.12,1.47-3.12,3.26c0,1.82,1.38,3.25,3.1,3.24c1.37,0,1.97-0.67,2.55-1.22
		c0.22-0.22,0.54-0.29,0.8-0.1l1.37,1.18c0.32,0.25,0.45,0.57,0.22,0.89c-1.08,1.69-2.77,2.68-5.03,2.69
		c-3.6,0.01-6.76-2.85-6.77-6.68C809.39,37.67,812.6,34.73,816.17,34.72z"/>
	<path d="M823.95,35.63c0-0.35,0.29-0.61,0.6-0.61l1.21,0c0.29,0,0.48,0.16,0.57,0.41l0.45,1.24c0.45-0.64,1.62-1.98,3.6-1.98
		c1.5,0,2.84,0.47,2.46,1.27l-1.17,2.07c-0.16,0.29-0.48,0.42-0.73,0.29c-0.1-0.03-0.57-0.19-0.92-0.19c-1.27,0-2.04,0.86-2.26,1.31
		l0.02,7.71c0,0.45-0.29,0.61-0.73,0.61l-2.45,0c-0.32,0-0.6-0.29-0.61-0.6L823.95,35.63z"/>
	<path d="M838.99,39.68c1.27,0,2.33,0.35,2.33,0.35c0.03-1.62-0.48-2.2-1.66-2.2c-1.18,0-2.84,0.26-3.57,0.49
		c-0.45,0.13-0.67-0.16-0.74-0.57l-0.29-1.66c-0.1-0.48,0.16-0.7,0.44-0.8c0.25-0.1,2.29-0.61,4.33-0.61
		c3.98-0.01,4.91,2.06,4.92,5.53l0.01,6.91c0,0.32-0.29,0.61-0.6,0.61l-1.15,0c-0.22,0-0.38-0.1-0.54-0.45l-0.38-0.86
		c-0.73,0.67-1.91,1.63-3.88,1.63c-2.55,0-4.31-1.65-4.31-4.36C833.9,41.44,835.74,39.69,838.99,39.68z M839.07,45.35
		c1.02,0,2-0.86,2.2-1.25l0-1.75c0,0-0.86-0.38-1.79-0.38c-1.24,0-2.07,0.71-2.07,1.72C837.41,44.65,838.08,45.35,839.07,45.35z"/>
	<path d="M849.09,38.32l-1.08,0c-0.32,0-0.57-0.29-0.58-0.6l0-2.13c0-0.35,0.25-0.61,0.57-0.61l1.08,0l-0.01-3.54
		c0-0.32,0.29-0.61,0.6-0.61l2.61-0.04c0.32,0,0.57,0.29,0.57,0.6l0.01,3.57l2.8-0.01c0.35,0,0.61,0.25,0.61,0.6l0,2.13
		c0,0.32-0.25,0.61-0.6,0.61l-2.8,0.01l0.01,5.1c0,0.89,0.48,1.02,0.99,1.02c0.54,0,1.21-0.23,1.56-0.35
		c0.35-0.13,0.61,0.03,0.7,0.35l0.64,2.01c0.13,0.32-0.03,0.64-0.35,0.77c-0.16,0.1-2.23,0.83-3.79,0.84
		c-2.45,0.01-3.54-1.52-3.54-4.1L849.09,38.32z"/>
	<path d="M859.1,28.23c0-1.21,0.95-2.2,2.16-2.2c1.24,0,2.23,0.98,2.23,2.19c0,1.21-0.98,2.2-2.23,2.2
		C860.06,30.43,859.1,29.44,859.1,28.23z M859.4,35.56c0-0.35,0.29-0.61,0.6-0.61l2.64-0.01c0.32,0,0.61,0.25,0.61,0.6l0.02,11.53
		c0,0.32-0.29,0.61-0.6,0.61l-2.64,0.01c-0.32,0-0.61-0.29-0.61-0.6L859.4,35.56z"/>
	<path d="M872.87,34.61c1.98,0,3.51,0.79,4.72,2.25c0.22,0.29,0.16,0.67-0.16,0.89l-1.46,1.4c-0.29,0.26-0.57,0.1-0.8-0.09
		c-0.51-0.57-1.31-1.02-2.2-1.02c-1.72,0-3.12,1.47-3.12,3.26c0,1.82,1.38,3.25,3.1,3.24c1.37,0,1.97-0.67,2.55-1.22
		c0.22-0.22,0.54-0.29,0.8-0.1l1.37,1.18c0.32,0.25,0.45,0.57,0.22,0.89c-1.08,1.69-2.77,2.68-5.03,2.69
		c-3.6,0.01-6.76-2.85-6.77-6.68C866.09,37.55,869.31,34.62,872.87,34.61z"/>
	<path d="M757.52,64.44c0-0.32,0.25-0.61,0.6-0.61l7.49-0.02c3.92-0.01,7.14,3.17,7.15,7.03c0.01,3.95-3.2,7.17-7.09,7.18
		l-3.98,0.01l0.01,7.49c0,0.32-0.29,0.61-0.6,0.61l-2.93,0.01c-0.35,0-0.61-0.29-0.61-0.6L757.52,64.44z M765.38,74.14
		c1.78,0,3.28-1.44,3.27-3.32c0-1.75-1.5-3.09-3.29-3.08l-3.7,0.01l0.01,6.4L765.38,74.14z"/>
	<path d="M774.55,73.96c0-0.35,0.29-0.61,0.6-0.61l1.21,0c0.29,0,0.48,0.16,0.57,0.41l0.45,1.24c0.45-0.64,1.62-1.98,3.6-1.98
		c1.5,0,2.84,0.47,2.46,1.27l-1.17,2.07c-0.16,0.29-0.48,0.42-0.73,0.29c-0.1-0.03-0.57-0.19-0.92-0.19c-1.27,0-2.04,0.86-2.26,1.31
		l0.02,7.71c0,0.45-0.29,0.61-0.73,0.61l-2.45,0.01c-0.32,0-0.6-0.29-0.61-0.6L774.55,73.96z"/>
	<path d="M785.12,66.61c0-1.21,0.95-2.2,2.16-2.2c1.24,0,2.23,0.98,2.24,2.19c0,1.21-0.98,2.2-2.23,2.2
		C786.08,68.81,785.12,67.82,785.12,66.61z M785.42,73.94c0-0.35,0.29-0.61,0.6-0.61l2.64-0.01c0.32,0,0.61,0.25,0.61,0.6
		l0.02,11.53c0,0.32-0.29,0.61-0.6,0.61l-2.64,0.01c-0.32,0-0.6-0.29-0.61-0.6L785.42,73.94z"/>
	<path d="M793.09,73.92c0-0.35,0.29-0.61,0.6-0.61l1.18,0c0.29,0,0.48,0.16,0.54,0.35l0.45,1.21c0.54-0.61,2-1.88,4.27-1.89
		c1.82,0,3.09,0.69,4.15,1.97c0.54-0.57,2.19-1.98,4.49-1.98c4.08-0.01,5.58,3.01,5.59,6.36l0.01,6.08c0,0.32-0.25,0.61-0.6,0.61
		l-2.58,0c-0.35,0-0.61-0.29-0.61-0.6l-0.01-6.31c0-1.66-0.8-2.71-2.4-2.7c-1.85,0-2.67,1.34-2.67,1.34s0.03,0.64,0.03,1.21
		l0.01,6.47c0,0.32-0.29,0.61-0.6,0.61l-2.39,0c-0.35,0-0.61-0.29-0.61-0.6l-0.01-6.31c0-1.66-0.74-2.71-2.36-2.7
		c-1.59,0-2.35,1.15-2.67,2.01l0.01,7.01c0,0.32-0.29,0.61-0.6,0.61l-2.58,0.01c-0.32,0-0.61-0.29-0.61-0.6L793.09,73.92z"/>
	<path d="M822.09,77.94c1.27,0,2.33,0.35,2.33,0.35c0.03-1.62-0.48-2.2-1.66-2.2c-1.18,0-2.83,0.26-3.57,0.49
		c-0.45,0.13-0.67-0.16-0.73-0.57l-0.29-1.66c-0.1-0.48,0.16-0.7,0.44-0.8c0.25-0.1,2.29-0.61,4.33-0.61
		c3.98-0.01,4.91,2.06,4.92,5.53l0.01,6.91c0,0.32-0.29,0.61-0.6,0.61l-1.15,0c-0.22,0-0.38-0.1-0.54-0.45l-0.38-0.86
		c-0.73,0.67-1.91,1.63-3.88,1.63c-2.55,0.01-4.3-1.65-4.31-4.36C817,79.7,818.84,77.95,822.09,77.94z M822.17,83.61
		c1.02,0,2.01-0.86,2.2-1.25l0-1.75c0,0-0.86-0.38-1.79-0.38c-1.24,0-2.07,0.7-2.07,1.72C820.51,82.91,821.18,83.61,822.17,83.61z"
		/>
	<path d="M831.51,73.84c0-0.35,0.29-0.61,0.6-0.61l1.21,0c0.29,0,0.48,0.16,0.57,0.41l0.45,1.24c0.45-0.64,1.62-1.98,3.6-1.98
		c1.5,0,2.84,0.47,2.46,1.27l-1.17,2.07c-0.16,0.29-0.48,0.42-0.73,0.29c-0.1-0.03-0.57-0.19-0.92-0.19c-1.27,0-2.04,0.86-2.26,1.31
		l0.02,7.71c0,0.45-0.29,0.61-0.73,0.61l-2.45,0.01c-0.32,0-0.6-0.29-0.61-0.6L831.51,73.84z"/>
	<path d="M841.26,74.05c-0.19-0.41,0.06-0.83,0.54-0.83l2.87-0.01c0.29,0,0.45,0.16,0.54,0.35l3.23,7.19h0.03l3.17-7.21
		c0.16-0.32,0.38-0.35,0.76-0.35l2.55,0c0.51,0,0.77,0.41,0.54,0.83l-9.71,21.11c-0.1,0.19-0.29,0.38-0.54,0.38l-2.74,0.01
		c-0.48,0-0.77-0.41-0.54-0.86l4.5-9.6L841.26,74.05z"/>
</g>
<g>
	<path d="M935.61,45.23c0-0.32,0.25-0.61,0.61-0.61h7.49c3.92,0,7.14,3.19,7.14,7.04c0,3.95-3.22,7.17-7.11,7.17h-3.98v7.49
		c0,0.32-0.29,0.61-0.61,0.61h-2.93c-0.35,0-0.61-0.29-0.61-0.61V45.23z M943.45,54.94c1.78,0,3.28-1.43,3.28-3.31
		c0-1.75-1.5-3.09-3.28-3.09h-3.7v6.4H943.45z"/>
	<path d="M952.62,54.78c0-0.35,0.29-0.61,0.6-0.61h1.21c0.29,0,0.48,0.16,0.57,0.41l0.45,1.24c0.45-0.64,1.62-1.98,3.6-1.98
		c1.5,0,2.83,0.48,2.45,1.27l-1.18,2.07c-0.16,0.29-0.48,0.41-0.73,0.29c-0.1-0.03-0.57-0.19-0.92-0.19c-1.27,0-2.04,0.86-2.26,1.31
		v7.71c0,0.45-0.29,0.61-0.73,0.61h-2.45c-0.32,0-0.6-0.29-0.6-0.61V54.78z"/>
	<path d="M968.93,53.86c3.28,0,5.96,2.48,5.96,5.93c0,0.22-0.03,0.64-0.06,0.86c-0.03,0.32-0.32,0.54-0.61,0.54h-8.16
		c0.1,1.31,1.21,2.77,3.06,2.77c0.99,0,1.91-0.38,2.49-0.8c0.32-0.19,0.61-0.25,0.83,0l1.31,1.5c0.22,0.22,0.29,0.57-0.03,0.83
		c-1.05,0.99-2.68,1.75-4.75,1.75c-3.82,0-6.53-3.03-6.53-6.69C962.43,56.95,965.14,53.86,968.93,53.86z M971.16,58.96
		c-0.1-1.18-1.12-2.17-2.33-2.17c-1.27,0-2.33,0.96-2.48,2.17H971.16z"/>
	<path d="M976.86,65.39l0.86-1.72c0.13-0.32,0.45-0.38,0.73-0.22c0,0,1.43,0.76,2.9,0.76c0.64,0,1.08-0.25,1.08-0.8
		c0-0.57-0.45-0.92-2.13-1.59c-2.45-0.96-3.6-2.26-3.6-4.21s1.43-3.76,4.68-3.76c1.88,0,3.25,0.54,3.92,0.99
		c0.29,0.19,0.45,0.54,0.29,0.86l-0.8,1.62c-0.16,0.29-0.51,0.32-0.76,0.22c0,0-1.43-0.67-2.64-0.67c-0.76,0-1.08,0.32-1.08,0.73
		c0,0.57,0.57,0.76,1.75,1.24c2.45,0.96,4.3,2.01,4.3,4.49c0,2.1-1.85,3.89-5.07,3.89c-2.1,0-3.57-0.67-4.24-1.18
		C976.86,65.9,976.74,65.65,976.86,65.39z"/>
	<path d="M988.87,47.46c0-1.21,0.96-2.2,2.17-2.2c1.24,0,2.23,0.99,2.23,2.2c0,1.21-0.99,2.2-2.23,2.2
		C989.83,49.65,988.87,48.67,988.87,47.46z M989.16,54.78c0-0.35,0.29-0.61,0.61-0.61h2.64c0.32,0,0.61,0.25,0.61,0.61v11.53
		c0,0.32-0.29,0.61-0.61,0.61h-2.64c-0.32,0-0.61-0.29-0.61-0.61V54.78z"/>
	<path d="M1002.19,53.86c1.27,0,2.26,0.35,2.83,0.57v-9.21c0-0.32,0.29-0.61,0.61-0.61h2.71c0.32,0,0.61,0.29,0.61,0.61v21.09
		c0,0.32-0.29,0.61-0.61,0.61h-1.24c-0.29,0-0.51-0.25-0.61-0.61l-0.32-0.99c0,0-1.5,1.91-4.17,1.91c-3.47,0-6.12-3.03-6.12-6.69
		C995.88,56.82,998.4,53.86,1002.19,53.86z M1002.48,63.8c1.69,0,2.45-1.31,2.68-2.07v-3.7c0,0-0.89-0.73-2.49-0.73
		c-1.78,0-3.09,1.47-3.09,3.25S1000.79,63.8,1002.48,63.8z"/>
	<path d="M1018.31,53.86c3.28,0,5.96,2.48,5.96,5.93c0,0.22-0.03,0.64-0.06,0.86c-0.03,0.32-0.32,0.54-0.61,0.54h-8.16
		c0.1,1.31,1.21,2.77,3.06,2.77c0.99,0,1.91-0.38,2.49-0.8c0.32-0.19,0.61-0.25,0.83,0l1.31,1.5c0.22,0.22,0.29,0.57-0.03,0.83
		c-1.05,0.99-2.68,1.75-4.75,1.75c-3.82,0-6.53-3.03-6.53-6.69C1011.81,56.95,1014.52,53.86,1018.31,53.86z M1020.54,58.96
		c-0.1-1.18-1.12-2.17-2.33-2.17c-1.27,0-2.33,0.96-2.48,2.17H1020.54z"/>
	<path d="M1026.94,54.78c0-0.35,0.29-0.61,0.6-0.61h1.21c0.29,0,0.45,0.16,0.54,0.38l0.45,1.18c0.48-0.51,2.04-1.88,4.49-1.88
		c4.05,0,5.67,3.03,5.67,6.34v6.12c0,0.32-0.29,0.61-0.61,0.61h-2.61c-0.35,0-0.61-0.29-0.61-0.61v-6.31c0-1.66-0.86-2.71-2.39-2.71
		c-1.66,0-2.68,1.15-3,2.01v7.01c0,0.45-0.19,0.61-0.8,0.61h-2.36c-0.32,0-0.6-0.29-0.6-0.61V54.78z"/>
	<path d="M1044.05,57.52h-1.08c-0.32,0-0.57-0.29-0.57-0.6v-2.13c0-0.35,0.25-0.61,0.57-0.61h1.08v-3.54c0-0.32,0.29-0.6,0.61-0.6
		l2.61-0.03c0.32,0,0.57,0.29,0.57,0.61v3.57h2.8c0.35,0,0.61,0.25,0.61,0.61v2.13c0,0.32-0.25,0.6-0.61,0.6h-2.8v5.1
		c0,0.89,0.48,1.02,0.99,1.02c0.54,0,1.21-0.22,1.56-0.35c0.35-0.13,0.61,0.03,0.7,0.35l0.64,2.01c0.13,0.32-0.03,0.64-0.35,0.76
		c-0.16,0.1-2.23,0.83-3.79,0.83c-2.45,0-3.54-1.53-3.54-4.11V57.52z"/>
</g>
<g>
	<path d="M1095.86,63.8l1.15-1.98c0.25-0.45,0.79-0.45,1.08-0.22c0.16,0.1,2.74,1.98,4.81,1.98c1.66,0,2.9-1.08,2.9-2.45
		c0-1.62-1.37-2.74-4.05-3.82c-2.99-1.21-5.99-3.12-5.99-6.88c0-2.84,2.1-6.12,7.17-6.12c3.25,0,5.73,1.66,6.37,2.13
		c0.32,0.19,0.41,0.73,0.19,1.05l-1.21,1.82c-0.25,0.38-0.73,0.64-1.12,0.38c-0.25-0.16-2.68-1.75-4.43-1.75
		c-1.82,0-2.8,1.21-2.8,2.23c0,1.5,1.18,2.52,3.76,3.57c3.09,1.24,6.66,3.09,6.66,7.2c0,3.28-2.84,6.31-7.33,6.31
		c-4.02,0-6.37-1.88-7.01-2.48C1095.73,64.47,1095.57,64.31,1095.86,63.8z"/>
	<path d="M1118.79,53.86c3.28,0,5.96,2.48,5.96,5.93c0,0.22-0.03,0.64-0.06,0.86c-0.03,0.32-0.32,0.54-0.61,0.54h-8.16
		c0.1,1.31,1.21,2.77,3.06,2.77c0.99,0,1.91-0.38,2.48-0.8c0.32-0.19,0.61-0.25,0.83,0l1.31,1.5c0.22,0.22,0.29,0.57-0.03,0.83
		c-1.05,0.99-2.68,1.75-4.75,1.75c-3.82,0-6.53-3.03-6.53-6.69C1112.29,56.95,1115,53.86,1118.79,53.86z M1121.03,58.96
		c-0.1-1.18-1.12-2.17-2.33-2.17c-1.28,0-2.33,0.96-2.48,2.17H1121.03z"/>
	<path d="M1127.43,54.78c0-0.35,0.29-0.61,0.61-0.61h1.21c0.29,0,0.45,0.16,0.54,0.38l0.45,1.18c0.48-0.51,2.04-1.88,4.49-1.88
		c4.05,0,5.67,3.03,5.67,6.34v6.12c0,0.32-0.29,0.61-0.61,0.61h-2.61c-0.35,0-0.61-0.29-0.61-0.61v-6.31c0-1.66-0.86-2.71-2.39-2.71
		c-1.66,0-2.68,1.15-3,2.01v7.01c0,0.45-0.19,0.61-0.79,0.61h-2.36c-0.32,0-0.61-0.29-0.61-0.61V54.78z"/>
	<path d="M1148.13,58.86c1.28,0,2.33,0.35,2.33,0.35c0.03-1.62-0.48-2.2-1.66-2.2s-2.84,0.25-3.57,0.48
		c-0.45,0.13-0.67-0.16-0.73-0.57l-0.29-1.66c-0.1-0.48,0.16-0.7,0.45-0.8c0.26-0.1,2.29-0.6,4.33-0.6c3.98,0,4.91,2.07,4.91,5.54
		v6.91c0,0.32-0.29,0.61-0.61,0.61h-1.15c-0.22,0-0.38-0.1-0.54-0.45l-0.38-0.86c-0.73,0.67-1.91,1.62-3.89,1.62
		c-2.55,0-4.3-1.66-4.3-4.36C1143.04,60.61,1144.88,58.86,1148.13,58.86z M1148.2,64.53c1.02,0,2.01-0.86,2.2-1.24v-1.75
		c0,0-0.86-0.38-1.79-0.38c-1.24,0-2.07,0.7-2.07,1.72C1146.54,63.83,1147.21,64.53,1148.2,64.53z"/>
	<path d="M1158.23,57.52h-1.08c-0.32,0-0.57-0.29-0.57-0.6v-2.13c0-0.35,0.25-0.61,0.57-0.61h1.08v-3.54c0-0.32,0.29-0.6,0.61-0.6
		l2.61-0.03c0.32,0,0.57,0.29,0.57,0.61v3.57h2.8c0.35,0,0.61,0.25,0.61,0.61v2.13c0,0.32-0.26,0.6-0.61,0.6h-2.8v5.1
		c0,0.89,0.48,1.02,0.99,1.02c0.54,0,1.21-0.22,1.56-0.35c0.35-0.13,0.61,0.03,0.7,0.35l0.64,2.01c0.13,0.32-0.03,0.64-0.35,0.76
		c-0.16,0.1-2.23,0.83-3.79,0.83c-2.45,0-3.54-1.53-3.54-4.11V57.52z"/>
	<path d="M1174.09,53.86c3.28,0,5.96,2.48,5.96,5.93c0,0.22-0.03,0.64-0.06,0.86c-0.03,0.32-0.32,0.54-0.61,0.54h-8.16
		c0.1,1.31,1.21,2.77,3.06,2.77c0.99,0,1.91-0.38,2.49-0.8c0.32-0.19,0.61-0.25,0.83,0l1.31,1.5c0.22,0.22,0.29,0.57-0.03,0.83
		c-1.05,0.99-2.68,1.75-4.75,1.75c-3.82,0-6.53-3.03-6.53-6.69C1167.6,56.95,1170.3,53.86,1174.09,53.86z M1176.32,58.96
		c-0.1-1.18-1.12-2.17-2.33-2.17c-1.27,0-2.32,0.96-2.48,2.17H1176.32z"/>
</g>
<g>
	<path d="M935.61,45.23c0-0.32,0.25-0.61,0.61-0.61h7.49c3.92,0,7.14,3.19,7.14,7.04c0,3.95-3.22,7.17-7.11,7.17h-3.98v7.49
		c0,0.32-0.29,0.61-0.61,0.61h-2.93c-0.35,0-0.61-0.29-0.61-0.61V45.23z M943.45,54.94c1.78,0,3.28-1.43,3.28-3.31
		c0-1.75-1.5-3.09-3.28-3.09h-3.7v6.4H943.45z"/>
	<path d="M952.62,54.78c0-0.35,0.29-0.61,0.6-0.61h1.21c0.29,0,0.48,0.16,0.57,0.41l0.45,1.24c0.45-0.64,1.62-1.98,3.6-1.98
		c1.5,0,2.83,0.48,2.45,1.27l-1.18,2.07c-0.16,0.29-0.48,0.41-0.73,0.29c-0.1-0.03-0.57-0.19-0.92-0.19c-1.27,0-2.04,0.86-2.26,1.31
		v7.71c0,0.45-0.29,0.61-0.73,0.61h-2.45c-0.32,0-0.6-0.29-0.6-0.61V54.78z"/>
	<path d="M968.93,53.86c3.28,0,5.96,2.48,5.96,5.93c0,0.22-0.03,0.64-0.06,0.86c-0.03,0.32-0.32,0.54-0.61,0.54h-8.16
		c0.1,1.31,1.21,2.77,3.06,2.77c0.99,0,1.91-0.38,2.49-0.8c0.32-0.19,0.61-0.25,0.83,0l1.31,1.5c0.22,0.22,0.29,0.57-0.03,0.83
		c-1.05,0.99-2.68,1.75-4.75,1.75c-3.82,0-6.53-3.03-6.53-6.69C962.43,56.95,965.14,53.86,968.93,53.86z M971.16,58.96
		c-0.1-1.18-1.12-2.17-2.33-2.17c-1.27,0-2.33,0.96-2.48,2.17H971.16z"/>
	<path d="M976.86,65.39l0.86-1.72c0.13-0.32,0.45-0.38,0.73-0.22c0,0,1.43,0.76,2.9,0.76c0.64,0,1.08-0.25,1.08-0.8
		c0-0.57-0.45-0.92-2.13-1.59c-2.45-0.96-3.6-2.26-3.6-4.21s1.43-3.76,4.68-3.76c1.88,0,3.25,0.54,3.92,0.99
		c0.29,0.19,0.45,0.54,0.29,0.86l-0.8,1.62c-0.16,0.29-0.51,0.32-0.76,0.22c0,0-1.43-0.67-2.64-0.67c-0.76,0-1.08,0.32-1.08,0.73
		c0,0.57,0.57,0.76,1.75,1.24c2.45,0.96,4.3,2.01,4.3,4.49c0,2.1-1.85,3.89-5.07,3.89c-2.1,0-3.57-0.67-4.24-1.18
		C976.86,65.9,976.74,65.65,976.86,65.39z"/>
	<path d="M988.87,47.46c0-1.21,0.96-2.2,2.17-2.2c1.24,0,2.23,0.99,2.23,2.2c0,1.21-0.99,2.2-2.23,2.2
		C989.83,49.65,988.87,48.67,988.87,47.46z M989.16,54.78c0-0.35,0.29-0.61,0.61-0.61h2.64c0.32,0,0.61,0.25,0.61,0.61v11.53
		c0,0.32-0.29,0.61-0.61,0.61h-2.64c-0.32,0-0.61-0.29-0.61-0.61V54.78z"/>
	<path d="M1002.19,53.86c1.27,0,2.26,0.35,2.83,0.57v-9.21c0-0.32,0.29-0.61,0.61-0.61h2.71c0.32,0,0.61,0.29,0.61,0.61v21.09
		c0,0.32-0.29,0.61-0.61,0.61h-1.24c-0.29,0-0.51-0.25-0.61-0.61l-0.32-0.99c0,0-1.5,1.91-4.17,1.91c-3.47,0-6.12-3.03-6.12-6.69
		C995.88,56.82,998.4,53.86,1002.19,53.86z M1002.48,63.8c1.69,0,2.45-1.31,2.68-2.07v-3.7c0,0-0.89-0.73-2.49-0.73
		c-1.78,0-3.09,1.47-3.09,3.25S1000.79,63.8,1002.48,63.8z"/>
	<path d="M1018.31,53.86c3.28,0,5.96,2.48,5.96,5.93c0,0.22-0.03,0.64-0.06,0.86c-0.03,0.32-0.32,0.54-0.61,0.54h-8.16
		c0.1,1.31,1.21,2.77,3.06,2.77c0.99,0,1.91-0.38,2.49-0.8c0.32-0.19,0.61-0.25,0.83,0l1.31,1.5c0.22,0.22,0.29,0.57-0.03,0.83
		c-1.05,0.99-2.68,1.75-4.75,1.75c-3.82,0-6.53-3.03-6.53-6.69C1011.81,56.95,1014.52,53.86,1018.31,53.86z M1020.54,58.96
		c-0.1-1.18-1.12-2.17-2.33-2.17c-1.27,0-2.33,0.96-2.48,2.17H1020.54z"/>
	<path d="M1026.94,54.78c0-0.35,0.29-0.61,0.6-0.61h1.21c0.29,0,0.45,0.16,0.54,0.38l0.45,1.18c0.48-0.51,2.04-1.88,4.49-1.88
		c4.05,0,5.67,3.03,5.67,6.34v6.12c0,0.32-0.29,0.61-0.61,0.61h-2.61c-0.35,0-0.61-0.29-0.61-0.61v-6.31c0-1.66-0.86-2.71-2.39-2.71
		c-1.66,0-2.68,1.15-3,2.01v7.01c0,0.45-0.19,0.61-0.8,0.61h-2.36c-0.32,0-0.6-0.29-0.6-0.61V54.78z"/>
	<path d="M1044.05,57.52h-1.08c-0.32,0-0.57-0.29-0.57-0.6v-2.13c0-0.35,0.25-0.61,0.57-0.61h1.08v-3.54c0-0.32,0.29-0.6,0.61-0.6
		l2.61-0.03c0.32,0,0.57,0.29,0.57,0.61v3.57h2.8c0.35,0,0.61,0.25,0.61,0.61v2.13c0,0.32-0.25,0.6-0.61,0.6h-2.8v5.1
		c0,0.89,0.48,1.02,0.99,1.02c0.54,0,1.21-0.22,1.56-0.35c0.35-0.13,0.61,0.03,0.7,0.35l0.64,2.01c0.13,0.32-0.03,0.64-0.35,0.76
		c-0.16,0.1-2.23,0.83-3.79,0.83c-2.45,0-3.54-1.53-3.54-4.11V57.52z"/>
</g>
<g>
	<path d="M1237.18,45.23c0-0.32,0.29-0.61,0.61-0.61h2.96c0.35,0,0.61,0.29,0.61,0.61v8.44h10.38v-8.44c0-0.32,0.26-0.61,0.61-0.61
		h2.93c0.32,0,0.61,0.29,0.61,0.61v21.09c0,0.32-0.29,0.61-0.61,0.61h-2.93c-0.35,0-0.61-0.29-0.61-0.61v-8.79h-10.38v8.79
		c0,0.32-0.26,0.61-0.61,0.61h-2.96c-0.32,0-0.61-0.29-0.61-0.61V45.23z"/>
	<path d="M1265.56,53.86c3.6,0,6.53,3.06,6.53,6.66c0,3.66-2.93,6.72-6.53,6.72c-3.6,0-6.53-3.06-6.53-6.72
		C1259.03,56.92,1261.96,53.86,1265.56,53.86z M1265.56,63.8c1.69,0,3.06-1.47,3.06-3.28c0-1.78-1.37-3.22-3.06-3.22
		c-1.72,0-3.06,1.43-3.06,3.22C1262.5,62.33,1263.84,63.8,1265.56,63.8z"/>
	<path d="M1274.7,54.78c0-0.35,0.29-0.61,0.61-0.61h2.61c0.32,0,0.61,0.25,0.61,0.61v6.28c0,1.69,0.86,2.74,2.33,2.74
		c1.34,0,2.36-1.24,2.55-2.39v-6.63c0-0.48,0.19-0.61,0.7-0.61h2.42c0.32,0,0.61,0.25,0.61,0.61v11.53c0,0.32-0.29,0.61-0.61,0.61
		h-1.18c-0.32,0-0.51-0.22-0.61-0.48l-0.38-1.05c-0.57,0.51-1.75,1.85-4.27,1.85c-3.95,0-5.38-3.03-5.38-6.28V54.78z"/>
	<path d="M1290.25,65.39l0.86-1.72c0.13-0.32,0.45-0.38,0.73-0.22c0,0,1.43,0.76,2.9,0.76c0.64,0,1.08-0.25,1.08-0.8
		c0-0.57-0.45-0.92-2.13-1.59c-2.45-0.96-3.6-2.26-3.6-4.21s1.43-3.76,4.68-3.76c1.88,0,3.25,0.54,3.92,0.99
		c0.29,0.19,0.45,0.54,0.29,0.86l-0.8,1.62c-0.16,0.29-0.51,0.32-0.76,0.22c0,0-1.43-0.67-2.64-0.67c-0.77,0-1.08,0.32-1.08,0.73
		c0,0.57,0.57,0.76,1.75,1.24c2.45,0.96,4.3,2.01,4.3,4.49c0,2.1-1.85,3.89-5.07,3.89c-2.1,0-3.57-0.67-4.24-1.18
		C1290.25,65.9,1290.12,65.65,1290.25,65.39z"/>
	<path d="M1308.09,53.86c3.28,0,5.96,2.48,5.96,5.93c0,0.22-0.03,0.64-0.06,0.86c-0.03,0.32-0.32,0.54-0.61,0.54h-8.16
		c0.1,1.31,1.21,2.77,3.06,2.77c0.99,0,1.91-0.38,2.48-0.8c0.32-0.19,0.61-0.25,0.83,0l1.31,1.5c0.22,0.22,0.29,0.57-0.03,0.83
		c-1.05,0.99-2.68,1.75-4.75,1.75c-3.82,0-6.53-3.03-6.53-6.69C1301.59,56.95,1304.29,53.86,1308.09,53.86z M1310.32,58.96
		c-0.1-1.18-1.12-2.17-2.33-2.17c-1.28,0-2.33,0.96-2.48,2.17H1310.32z"/>
</g>
<a xlink:href="https://projects.jhkforecasts.com/democratic_primary/" >
	<rect x="731" y="20" fill="none" width="154" height="76"/>
</a>
<a xlink:href="https://projects.jhkforecasts.com/presidential-forecast/" >
	<rect x="930.16" y="29" fill="none" width="125.84" height="58"/>
</a>
<a xlink:href="https://projects.jhkforecasts.com/senate-forecast/" >
	<rect x="1088" y="33.4" fill="none" width="101" height="46.55"/>
</a>
<a xlink:href="https://projects.jhkforecasts.com/house-forecast/" >
	<rect x="1224.9" y="34.4" fill="none" width="101" height="46.55"/>
</a>
<a xlink:href="https://jhkforecasts.com" >
	<g>
		<g>
			<ellipse fill="#FFFFFF" cx="83.5" cy="59.52" rx="70" ry="70.03"/>
			<path fill="#4A84FF" d="M106.71,46.8c0,8.32,0.01,16.65-0.01,24.97c-0.01,3.19-0.39,6.34-1.27,9.42
				c-0.72,2.53-1.76,4.91-3.24,7.09c-1.87,2.75-4.26,4.93-7.14,6.57c-2.5,1.42-5.18,2.34-7.98,2.92c-1.52,0.32-3.06,0.53-4.61,0.66
				c-1.41,0.12-2.82,0.19-4.23,0.18c-5.65-0.07-10.96-1.42-15.84-4.31c-2.88-1.7-5.38-3.85-7.51-6.43c-0.46-0.56-0.9-1.13-1.33-1.71
				c-0.11-0.15-0.11-0.25,0.02-0.39c0.77-0.81,1.52-1.63,2.28-2.45c2.28-2.45,4.56-4.9,6.85-7.35c0.36-0.38,0.35-0.38,0.7,0.04
				c1.79,2.19,3.82,4.13,6.23,5.63c1.79,1.11,3.7,1.92,5.79,2.29c1.1,0.2,2.21,0.27,3.33,0.2c0.97-0.05,1.94-0.13,2.9-0.32
				c1.53-0.31,2.96-0.84,4.21-1.81c1.21-0.93,2.08-2.13,2.7-3.53c0.62-1.41,0.96-2.9,1.16-4.42c0.21-1.6,0.26-3.22,0.26-4.83
				c0-11.4,0-22.8,0-34.2c0-0.55,0.05-0.5-0.49-0.5c-9.71,0-19.42,0-29.13,0c-0.55,0-0.48,0.05-0.48-0.47c0-4.37,0-8.74,0-13.11
				c0-0.44-0.08-0.45,0.43-0.45c15.32,0,30.65,0,45.97,0c0.06,0,0.12,0,0.18,0c0.26,0.01,0.26,0.02,0.27,0.26c0,0.09,0,0.19,0,0.28
				C106.71,29.63,106.71,38.22,106.71,46.8z"/>
		</g>
	</g>
</a>
</svg>
