<?xml version="1.0" encoding="utf-8"?>
<!-- Generator: Adobe Illustrator 24.1.0, SVG Export Plug-In . SVG Version: 6.00 Build 0)  -->
<svg version="1.1" id="Layer_1" xmlns="http://www.w3.org/2000/svg" xmlns:xlink="http://www.w3.org/1999/xlink" x="0px" y="0px"
	 viewBox="0 0 900 500" style="enable-background:new 0 0 900 500;" xml:space="preserve">
<style type="text/css">
	.st0{fill:#FF9E9E;stroke:#FFFFFF;stroke-width:0.8;}
	.st1{fill:#FFB1B1;stroke:#FFFFFF;stroke-width:0.8;}
	.st2{fill:#FFC7C7;stroke:#FFFFFF;stroke-width:0.8;}
	.st3{fill:#FF9999;stroke:#FFFFFF;stroke-width:0.8;}
	.st4{fill:#FF9797;stroke:#FFFFFF;stroke-width:0.8;}
	.st5{fill:#FFB4B4;stroke:#FFFFFF;stroke-width:0.8;}
	.st6{fill:#BFE3FF;stroke:#FFFFFF;stroke-width:0.8;}
	.st7{fill:#31A6FF;stroke:#FFFFFF;stroke-width:0.8;}
	.st8{fill:#D4ECFF;stroke:#FFFFFF;stroke-width:0.8;}
	.st9{fill:#D3D3D3;stroke:#FFFFFF;stroke-width:0.8;}
	.st10{fill:#FFBEBE;stroke:#FFFFFF;stroke-width:0.8;}
	.st11{fill:#FFA0A0;stroke:#FFFFFF;stroke-width:0.8;}
	.st12{fill:#FFE3E3;stroke:#FFFFFF;stroke-width:0.8;}
	.st13{fill:#F4FAFF;stroke:#FFFFFF;stroke-width:0.8;}
	.st14{fill:#3AAAFF;stroke:#FFFFFF;stroke-width:0.8;}
	.st15{fill:#95D1FF;stroke:#FFFFFF;stroke-width:0.8;}
	.st16{font-family:'SFMono-Regular';}
	.st17{font-size:10px;}
	.st18{fill:#FFFFFF;}
</style>
<path class="st0" d="M561.1,419.8l2.7-0.6l0-0.3l0.7,0.5l-0.4,0.4l-0.5-0.2l-0.9,0.1l-1,0.3L561.1,419.8z M556.7,344.7l0-0.2
	l6.9-0.5l2.9-0.3l7.3-0.5l4.2-0.4l1.7-0.2l7.2-0.7l2.8-0.2l1.2,4.3l1.7,5.9l1.4,5l1,3.9l1.2,4.1l2.6,9.4l0.5,0.4l-0.1,0.5l0.7,0.5
	l0.5,2l0.6,0.9l0.9,0.8l0.3,1.1l0.5,0.4l-0.3,1.6l0.9,0.3l0.6,0.5l-0.4,0.8l-0.5,0.1l0.1,0.3l-0.6,0.4l-0.5,0.8l0.2,0.7l0,1.2
	l-0.2,1.2l-0.6,1l-0.1,0.6l0.5,1.6l0,0.6l1,1.1l0.3,1.6l-0.2,0.8l0.2,0.6l-0.3,1.1l0.2,1.1l-0.3,0.3l0.3,0.7l-0.1,0.7l1.1,1.1
	l0.4,0.8l0.2,0.8l-3.2,0.4l-3.4,0.4l-5.3,0.6l-8.3,0.9l-6.5,0.5l-8,0.8l0.2,0.5l-0.5,1.6l0.1,0.3l1.2,1l0.2,0.5l1.8,0.9l0.2,0.9
	l-0.6,1.4l0.2,0.7l1,0.6L573,416l-0.3,1.1l-0.4,0.2l0.4,0.3l-0.7,0.4l-1.8,0.6l-1.9,0.5l-2.7,0.3l0.8-0.6l0.6,0.3l1.7-0.5l0.1-0.5
	l-0.8-0.6l-0.4-0.5l-1-0.6l-0.4-1.2l0.3-1l-0.2-1l-0.4-0.6l-1-0.3l-0.7,0.7l0.1,0.5l-0.4,0.8l0.1,0.5l-0.3,0.5l0.1,1.9l-0.3,0.9
	l-0.7,0.1l0-0.5l-1-0.5l-0.7,0.3l-0.3-0.3l-0.8,0.4l-0.4-3l-0.5-4.8l-0.7-5.7l-1.3-10.4l0.1-3.9l0.2-9.7l0-2.9l0.3-15.3l0.1-2.2
	l0.2-8.8l0.1-5l-0.8-0.4L556.7,344.7z"/>
<path class="st1" d="M189.4,456.2l0-0.2l0.2,0L189.4,456.2L189.4,456.2z M188.4,466.2l0.3-0.4l0.2,0.1l0,0.2l-0.3,0.4l-0.2-0.1
	L188.4,466.2z M186.4,467.3l0.3,0.1l0,0.2L186.4,467.3z M185.8,467.4l0.2,0.1l-0.1,0.2l-0.1-0.1L185.8,467.4z M185.4,467.2l0.2,0
	l0,0.2L185.4,467.2z M185.5,472.4l0.1-0.2l0.2,0.1l-0.1,0.3l-0.2,0.1L185.5,472.4z M184.9,468.6l0.1-0.1l0.2,0.2L184.9,468.6
	L184.9,468.6z M184.6,460.7l0.3-0.4l0.1-0.5l0.3,0.1l-0.3,0.3l-0.1,0.2l0.1,0.1L184.6,460.7z M184.1,468.6l0.1-0.3l0.2,0.1l0.2,0
	l-0.3,0.2L184.1,468.6z M183.1,461.8l0.2,0l0.1,0.4L183.1,461.8z M181.1,473.4l0.3-0.4l0.2,0l0.3,0.3l0.1-0.1l-0.2-0.3l0.1-0.3
	l0.1,0l0.3,0.1l0.2-0.1l-0.3-0.3l0.2-0.3l0.3,0.1l0.2,0l-0.1-0.3l0.1-0.1l0.2,0.1l0.1-0.2l-0.2,0l-0.1-0.2l0.2,0l0.2-0.3l0.3-0.1
	l-0.1-0.2l0-0.3l0.3-0.3l0.1,0.1l0.5-0.3l0.1,0l-0.1,0.6l-0.1,0.1l-0.3,0.5l0.1,0.4l0.4-0.1l0-0.3l0.2,0l0.2,0.3l0.2-0.2l0.1,0.2
	l-0.2,0.6l0.1,0.1l0.1-0.3l0.3-0.2l0.1,0.1l0,0.5l-0.3,0.4l-0.3-0.1l-0.1-0.4l-0.2,0.1l0.1,0.5l-0.2,0.1l-0.4-0.1l-0.2,0.3l-0.1-0.2
	l0-0.4l-0.1,0l-0.1,0.5l-0.1,0.1l-0.3,0.1l0,0.2l-0.2,0.1l-0.5,0.1l-0.9-0.3l-0.2,0.1L181.1,473.4z M180.7,466.1l0.4-0.1l0.2,0.2
	l0,0.2l-0.1,0.1l-0.3,0l-0.2-0.3L180.7,466.1z M178.9,481l0.3-0.2l0.1,0.2L178.9,481L178.9,481z M178.3,481.8l0.2-0.3l0.2-0.1
	l0.1,0.1l0.3-0.1l0.1,0.2l0.2,0.2l0.4-0.1l0,0.2l-0.2,0.1l-0.5,0l-0.3,0.1l-0.3-0.1L178.3,481.8z M177.1,477.2l0.2-0.1l0-0.4
	l0.2-0.4l0.3-0.2l0.1-0.2l0.2,0l0.4-0.3l0.3-0.2l0.4,0.1l0.3,0l0,0.5l0.3,0.3l0-0.2l0.2-0.3l-0.2-0.2l0.1-0.1l0.6,0.1l0-0.2
	l-0.5-0.2l-0.2,0l0-0.6l0.3-0.3l0.3-0.1l0.2,0.1l0.2,0.3l0.1,0.6l0.2-0.1l0.1-0.4l-0.1-0.3l0.4,0.2l0.1-0.2l-0.4-0.2l-0.2-0.3
	l0.1-0.2l0.2,0l0.5,0.4l0.1,0l0.3,0.2l0.1,0l-0.3-0.4l-0.2-0.2l-0.1-0.2l0.2,0l0.3,0.3l0.3-0.1l0.4,0.1l0.1-0.2l0.4-0.1l-0.1,0.3
	l-0.4,0.5l-0.1,0.4l0.2,0.2l0-0.4l0.2-0.2l0.2,0.2l0-0.2l0.2-0.2l0-0.2l0.1-0.1l0.1,0.1l0.2-0.3l0.2,0l0,0.2l0.3,0.1l-0.1,0.2
	l-0.1-0.1l-0.2,0.1l0.2,0.2l0,0.2l0.2-0.1l0.1,0.2l0.3,0l-0.2,0.3l-0.2-0.2l-0.3,0l-0.2,0.2l0.2,0l-0.1,0.3l0.3,0l-0.3,0.4l0.2-0.1
	l0.1-0.2l0.1,0.2l0.5,0l0,0.2l-0.4,0.4l-0.1,0.5l-0.4-0.1l0-0.2l-0.1,0.2l-0.2-0.2l-0.2,0l-0.2-0.2l-0.2,0.1l-0.3-0.1l-0.1,0.2
	l0.3,0l0.2,0.1l0.5,0.4l-0.1,0.3l-0.2,0.3l-0.1-0.2l-0.2,0.2l-0.2-0.1l-0.1-0.2l-0.2-0.1l-0.2,0.1l-0.2,0.2l0.3,0l0.2,0.2l-0.4,0.3
	l-0.4-0.1l0,0.1l0.3,0.2l0.1-0.1l0.4,0l0.2,0.2l-0.1,0.1l-0.3,0l-0.4,0.2l-0.1-0.1l-0.2,0.1l0,0.2l-0.3,0.2l-0.1-0.1l0.1-0.2
	l-0.2-0.2l0.1-0.2l0.3-0.3l-0.1-0.1l-0.2,0.1l-0.4,0.5l0,0.1l-0.2-0.1l-0.2,0l-0.1,0.2l0.3,0l0.1,0.3l-0.2,0.3l-0.3,0.1l0,0.3
	l-0.3,0.2l-0.1-0.1l-0.2,0.4l-0.2,0.1l-0.2-0.1l-0.3,0.1l0.2-0.5l0.1-0.1l0.3-0.3l0.3-0.1l0-0.2l-0.4,0.1l0-0.2l0.2-0.5l0.3-0.2
	l-0.1-0.1l-0.2,0.2l-0.4,0.3l-0.3,0.5l-0.3,0.3l-0.2,0.1l-0.1,0.2l-0.2,0.1l0-0.4l-0.3-0.3l-0.4-0.1l0-0.5l0-0.5l-0.1-0.4l-0.1-0.2
	l-0.2-0.1l-0.3,0l0.2-0.1l-0.2-0.2L177.1,477.2z M177,482.4l0.3-0.5l0.6-0.5l0.2,0l0.2,0.3l-0.1,0.1l-0.6,0.3l-0.3,0.4L177,482.4z
	 M174,485.7l0.3-0.2l0.1-0.2l0.1-0.1l0.1,0.2l-0.1,0.2l0,0.3l-0.1,0.2l-0.4-0.1L174,485.7z M171,484.4l0.1-0.2l0.2-0.1l0.1,0.3
	l-0.2,0.3L171,484.4z M170.9,483.5l0.1-0.2l0,0.4l-0.1,0L170.9,483.5z M169.4,481.5l0.2-0.2l0.5,0l0.3,0.3l-0.4-0.1l-0.2,0.1
	L169.4,481.5L169.4,481.5z M167.6,482.5l0.2-0.1l0.1,0.3l-0.1,0L167.6,482.5z M164.3,485.2l0.1-0.3l0.2,0l0.3,0.3l-0.1,0.1l-0.2-0.2
	L164.3,485.2z M163.6,484.8l0.2,0.2l-0.3-0.1L163.6,484.8z M162.6,490.2l0-0.2l0.2-0.1l0.2,0.1l-0.1,0.3l-0.2,0.1L162.6,490.2z
	 M162.8,485.5l0.1-0.3l0.1,0l0.1,0.3L162.8,485.5z M162.2,489.8l0.2-0.4l-0.1-0.2l0.3,0l0,0.5L162.2,489.8L162.2,489.8z
	 M161.7,490.5l0.1-0.1l0.2,0.2l0,0.2l-0.3,0L161.7,490.5z M161.7,488.5l0.2,0.1l0.1-0.2l0.2-0.2l0,0.1l-0.1,0.3l0.1,0.1l0,0.2
	l-0.1,0.3l0.1,0.2l-0.1,0.1l-0.2-0.1l0,0.1l-0.2-0.1L161.7,488.5z M161,490.4l0.2-0.1l0.1,0.2l-0.2,0.1L161,490.4z M161,489.2
	l0.1-0.2l0.3-0.2l0,0.2l-0.3,0.2l-0.1,0.3L161,489.2z M160.3,487.6l0.2,0l0,0.2L160.3,487.6z M159.7,489.7l0.4-0.4l0.2-0.1l0-0.1
	l-0.2,0l0-0.4l0.3-0.2l0.3,0.2l0-0.2l-0.1-0.3l0.3,0.1l0.2-0.5l0.1,0.1l0,0.2l-0.1,0l-0.1,0.3l0.1,0.1l0-0.2l0.1,0l-0.1,0.3
	l-0.1,0.2l-0.2-0.1l0,0.2l-0.3,0.3l-0.2,0.1l-0.4,0.6L159.7,489.7z M161.5,469.1l0.1-0.2l0.1,0.4l-0.1,0.1L161.5,469.1z M159.7,487
	l0.3-0.2l0.4,0.1l0,0.4l-0.6-0.1L159.7,487z M161.1,469.1l0.1-0.4l0,0.3L161.1,469.1z M158,487.4l0.2-0.3l0.3-0.1l0.2,0.1l0,0.2
	l0.1,0l0.2-0.2l0.2,0.2l0.3,0.2l0.3-0.1l0,0.3l-0.1,0.3l-0.1-0.2l-0.2,0l-0.1-0.1l0-0.2l-0.1,0l0,0.3l0.1,0.1l0.1,0.4l-0.2,0.3
	l-0.4-0.2l-0.1-0.3l-0.2,0.1l-0.2,0.4l0.1-0.3L158,488l0.1-0.5L158,487.4z M159.2,469.4l0.1-0.6l0.4-0.2l0.2,0l0.4-0.3l0,0l-0.7,1.2
	l-0.2,0.1l-0.3,0L159.2,469.4z M156.2,487.8l0.3,0l-0.1,0.3L156.2,487.8L156.2,487.8z M155.4,487.7l0.1-0.1l0.4,0l-0.1,0.2l-0.4,0
	L155.4,487.7z M154.6,488.1l0.1-0.2l0.2-0.1l0.3,0.1l0.1,0.2l0.4,0.2l0,0.2l-0.3-0.2l-0.3,0.2l-0.3-0.4l-0.1,0.2L154.6,488.1z
	 M152.8,489l0.4-0.3l0.3,0.2l0,0.4l-0.2,0.2l-0.2,0.1l-0.3-0.3L152.8,489z M158.3,441.6l0.2-0.2l0.2-0.1l0.2,0.1l0.2,0l0.1,0.2
	l0,0.2l-0.7,0l-0.1-0.1L158.3,441.6z M151.2,491.4l0-0.2l0.7,0.4l0.2,0.2l0.3,0l0.2,0.2l-0.2,0.1l-0.1,0.1l-0.2-0.2l-0.2,0l-0.3-0.2
	l-0.2,0.1l-0.2-0.3L151.2,491.4z M150.9,485.9l0.2,0l-0.1,0.2L150.9,485.9z M144.6,491.8l0.2-0.1l0.2,0.1l-0.3,0.1L144.6,491.8z
	 M143.4,492.1l0.3-0.1l0.4,0.1l0.3,0l0,0.1l-0.1,0.2l-0.3,0L143.4,492.1L143.4,492.1z M142.5,492.1l0.7,0l0.1,0.2l-0.2,0.1l-0.1-0.2
	L142.5,492.1L142.5,492.1z M142.2,492.3l0.2-0.1l0.1,0.2l-0.2,0L142.2,492.3z M142,491.1l0.2-0.2l0.1,0.1l0.2,0l0.1,0.1l-0.3,0.1
	l0.1,0.2l0.3,0.1l0,0.2l-0.3-0.1l-0.3,0.3l-0.2-0.2l0-0.4l0.2-0.1l-0.1-0.1l-0.2,0.1L142,491.1z M140.6,491.4l0.1-0.2l0.4-0.2
	l0.3,0.1l0,0.3l0.2,0l0.1,0.1l0.1,0.2l0.2,0l-0.1,0.2l-0.3,0.1l-0.1-0.1l-0.2,0.2l0-0.1l-0.3-0.1l-0.2,0.1l-0.1-0.5L140.6,491.4z
	 M140.2,492.2L140.2,492.2l0.4,0.2l-0.4,0L140.2,492.2z M143.1,457.9l0.4,0l0.5,0.1l0.2,0.1l0.2,0l0.1,0.1l0.2,0l0.1-0.1l0-0.2
	l0.4-0.3l0.3,0.1l0-0.2l0.3-0.2l0.3,0.2l0.3-0.1l0.2,0l0.2-0.2l0.1,0.6l0.2,0.1l0.3-0.1l0.3,0.1l0.2,0.2l-0.2,0.3l0.1,0.2l-0.1,0.2
	l0.1,0.1l0,0.3l-0.2,0.2l0.2,0.3l0,0.3l0.2,0l-0.1,0.1l0,0.2l-0.7,0l-0.1,0.1l-0.2-0.1l-0.3,0l-0.3,0.2l0,0.3l-0.3,0l-0.2-0.4
	l-0.3-0.3l-0.6-0.1l-0.1-0.2l-0.3-0.1l-0.2-0.3l-0.3-0.3l-0.4-0.2l-0.2-0.4l-0.2-0.1l0-0.3L143.1,457.9z M134.1,494.8l0.2-0.1
	l0.3-0.2l0.3,0l0.5-0.1l0.1-0.1l0.3,0.2l0.2-0.1l0.1-0.2l0.2,0.1l0.1-0.3l0.3,0.1l-0.1-0.5l0.3-0.1l0.1,0.1l0.2,0l-0.2-0.2l0.1-0.2
	l0.2-0.1l0.3,0.1l0,0.3l0.2,0l0-0.2l0.2-0.1l-0.6-0.3l-0.2,0.1l-0.3-0.4l0-0.2l0.4-0.4l0.5-0.1l0.4-0.1l0.1,0.1l0.3,0l0.1,0.3
	l-0.2,0.2l0,0.2l0.2,0.1l0.2-0.2l0,0.2l0.2-0.1l0-0.2l0.3-0.3l0.1,0.3l0.1-0.1l0.2,0.3l-0.1,0.2l-0.3,0l-0.3,0.3l-0.5,0.2l0,0.2
	l0.4-0.2l0.7-0.2l0.1-0.1l0.3-0.1l0.1,0.1l-0.1,0.3l-0.2,0.2l-0.3,0.1l-0.1,0.1l-0.6,0.1l-0.4,0l0.1,0.2l-0.2,0l-0.1,0.3l-0.2-0.1
	l-0.1,0.3l-0.2-0.2l-0.1,0.3l-0.4,0l-0.2-0.2l-0.1,0.1l-0.1-0.1l-0.3,0.1l-0.1-0.1l-0.6,0.2l-0.1,0.1l-0.3-0.1l-0.2,0.1l-0.2,0.2
	l-0.3-0.2l-0.1,0.2l-0.5-0.3L134.1,494.8z M147.6,428.1l0.1-0.1l0.3-0.2l1.1-0.3l0.6-0.2l0.4-0.3l0.4-0.2l0.4-0.2l0.8-0.4l0.5-0.2
	l1.3-0.6l1.5-0.5l1.1-0.2l0.7-0.1l1.1,0.1l0.4,0.1l0.2,0.2l-0.3,0l0,0.2l-0.1,0.3l-0.3,0.3l0,0.3l0.1,0.3l-0.2,0.3l-0.4,0.1l0,0.1
	l0.4,0l0.2,0.8l0.3,0.1l0.3-0.1l0.3,0.1l0.4,0.2l0.4,0l0.6,0l0.2,0.3l0.4,0l0.1,0.2l0.4-0.1l0.2-0.1l0.6,0.4l0.2-0.3l0.2-0.2
	l0.4-0.7l0.2-0.1l0.3,0.1l0,0.2l0.2,0.1l0.3-0.1l0.2,0l-0.2-0.5l-0.5-0.3l-0.3-0.2l-0.4,0l-0.5,0.2l0.2-0.5l0-0.4l-0.4-0.6l-0.1-0.4
	l-0.2-0.2l-0.4-0.1l0-0.3l-0.2-0.5l0.1-0.2l0.2-0.1l0.1-0.2l0.1,0.2l0.2-0.1l0.2,0.4l0.2,0.5l0.2,0.1l-0.2,0.5l0,0.3l0.2,0.3
	l0.4,0.6l0.4,0.4l0.3,0l0.3-0.1l0.1-0.2l-0.4,0l-0.1-0.2l-0.4-0.4l-0.4-0.6l0.1-0.2l0-0.3l0.1-0.1l0-0.3l0.3-0.4l0.2,0.2l0.2,0
	l0-0.1l-0.3-0.3l-0.2,0l-0.2-0.3L162,423l-0.3,0.1l-0.3,0l-0.3,0.1l-0.3-0.1l-0.1-0.2l-0.1,0.1l-0.1-0.1l-0.1,0.2l-0.3-0.2l-0.7-0.3
	l-0.4-0.2l-0.4-0.1l-0.1-0.2l0.1-0.5l-0.1-0.8l-0.2-1.1l-0.1-0.3L158,419l-0.6-0.6l-0.9-1.2l-0.1-0.1l-0.3-0.5l-0.3-0.3l-0.4-0.2
	l-0.4-0.2l-0.2-0.2l-0.1-0.3l-0.3-0.5l-0.3-0.2l-0.5-0.3l-0.3,0l0.3-0.1l0.7-0.1l0.2-0.2l0.1-0.3l0.2-0.3l0.3-1.1l0-0.5l1.2,0.4
	l0.5,0.1l1.1,0l0.6,0l0.6,0l0.6-0.2l0.3-0.3l0.2-0.1l0.4-0.3l0.7-0.8l0.2-0.4l0.1-0.4l0.1-0.9l0.4-1l0.7-0.8l0.5-0.8l0.3-0.3l1-0.6
	l0.6,0.2l0.5,0.1l0.5-0.1l0.5-0.2l0.7-0.4l0.5-0.5l0.3-0.4l0.8-0.8l0.2-0.1l0.7-0.2l0,0.2l0.3,0.2l0.5,0.1l0.5,0l0.1-0.1l0.2,0
	l0.4-0.1l0.5-0.2l0.5-0.4l0.5-0.5l0.3-0.4l0.6-0.8l0.5-0.3l0.1,0.3l0.3,0.2l0.3,0l0.3,0.1l0.1,0.4l0.2-0.2l0.6,0.2l0.1,0.5l-0.4,0.3
	l-0.2,0.3l-0.3,0l0.1,0.7l0.5,0.1l0.3-0.3l0-0.4l0.1,0l0.2-0.3l0.2-0.1l0.1,0.2l0-0.3l-0.2-0.2l0.2-0.2l0.1,0.2l0-0.3l0.1-0.1
	l0.5,0.3l0.3,0.3l0.1,0.2l-0.1,0.2l0,0.5l0.1,0.2l0.4,0l0.2,0.2l0.1,0.2l0.3-0.3l0.2-0.3l0.7,0l0.5-0.2l0.4,0l0.3,0.2l0.6,0l0.4,0.1
	l0.3,0.2l0.1,0.2l-0.2,0.1l-0.2,0.4l-0.2,0.1l0.1,0.4l0.2,0l0.1,0.1l0.3,0l0.1,0.1l0.5,0.1l0.2,0l-0.1,0.2l0.1,0.1l-0.4,0.1
	l-0.1,0.1l0.1,0.1l0.6,0l0.5,0.2l0.1,0.1l0.2,0l0.3-0.4l0.4-0.1l0.2,0.1l0.1-0.2l0.3,0l0.2,0.1l0.1,0.3l0.3-0.1l0.3-0.1l0.4-0.4
	l0.1,0.1l0.3-0.1l0.1,0.1l0.2-0.1l0.1,0.1l0.4,0l0.4,0.3l0.2,0l0.1,0.1l0.2-0.2l0.2,0l0.3,0.3l0,0.2l0.2,0.1l0.3-0.3l0,0.3l0.2-0.3
	l0.6,0.3l0.1,0.3l0.2,0.1l0.3,0l0.3,0l0.2-0.2l0.2,0.3l0.3,0l0.2-0.2l0.3,0l0.4-0.1l0.5,0l0.4,0.1l0.3,0l0.1-0.1l0.5,0.4l0.2,0
	l0.2,0.2l0.3,0l0.2,0.1l0.3,0l0.1,0.1l0.2-0.2l0.5,0l0.3-0.4l0.3-0.1l0-0.1l0.5-0.3l0.1-0.1l0.6-0.2l0.3,0.1l0.3-0.2l0.1,0.1
	l0.6,0.2l0.4,0.1l0.5,0.3l0.2,0.3l0.3,0l0.7,0.3l0.5,0.1l0.4,0.2l0.2,0.2l0.4,0l0.4,0.1l8.3,41.6l0.9,4.5l0.8,4.1l1.3,0.2l0.1-0.5
	l1.4,0.4l0.6-1l1.6-0.5l0.1,0.2l0,1.3l0.6,0.4l0.7,0.2l0.3,0l0.2,0.5l0.4,0.3l3.2,2l0.6,1.3l0,0.4l0.2-0.1l0.4-0.6l0.9-1l0.1-0.1
	l0.7-0.2l0.1-0.7l-0.3-1l0.3,0l0.1-0.1l0.1-0.4l-0.1-0.2l-0.4-0.1l0.4-0.3l0.6-0.3l1-1.1l0.7,0.4l0.4,0.3l0.1,0l0.3,0.3l0.1,0.5
	l-0.1,0.1l0.1,0.2l0.2,0.2l0,0.2l0.3,0.3l0.8,0l0.1,0.3l0.4,0.2l0.2-0.1l0.4,0.4l0,0.3l0.3,0l0,0.2l0.3,0.3l1.3,0.3l0.5,0.4l0.6,0.4
	l0.6,0.3l-0.2,0.3l0.5,0.5l0.7,0.5l0.5,0.7l0.8,0.6l0.6,0.6l0.5,0.4l0.4,0.5l0.8,0.6l0.6,0.6l-0.1,0.7l1-0.1l0.1,1l0.8,0.1l0,0.3
	l0.2,0.2l0.3,0.5l0.7-0.3l0.5,0.2l1,0.2l0.3,0.1l0.9-0.1l0.6,0.3l0.5,0l0.3,0.5l0.3,0l0.3,0.1l0.4-0.3l0.5,0.5l0.1,0.4l0,0.6
	l-0.1,0.4l0.1,0.3l0.2,0.1l0.1,0.5l0.3,0.4l0.2,0.2l0.3,0.6l0.2,0.2l-0.2,0.6l-0.1,0.6l0,0.1l-0.1,0.5l-0.1,0.4l-0.2,0.6l-0.2,0.3
	l-0.2,0.1l0.1,0.2l-0.2,0.2l-0.2-0.1l-0.1-0.2l-0.2-0.1l0.1,0.2l-0.1,0.1l-0.2,0l-0.2-0.2l-0.2-0.5l-0.1-0.3l-0.2-0.1l-0.1-0.5
	l-0.1,0l-0.3-0.2l-0.2-0.3l0.2-0.4l0.1-0.3l0.2,0l-0.2-0.3l-0.2-0.3l0-0.6l-0.4-0.8l-0.2-0.3l-0.7-0.6l-0.3-0.2l-0.2-0.2l0,0.2
	l0.3,0.2l0.4,0.3l0.2,0.3l0.4,0.3l0.3,0.5l-0.1,0.3l0.1,0.4l0.2,0.4l0.2,0.2l0,0.2l-0.3-0.4l-0.1,0l0.1,0.3l0.1,0.3l-0.2,0.6
	l-0.1,0.1l-0.3-0.1l0.1-0.4l0-0.4l-0.1-0.2l-0.2,0.1l0.2,0.3l0,0.2l-0.3,0.4l-0.1,0l-0.4-0.4l0,0.2l-0.3-0.1l-0.2,0l-0.2-0.2
	l-0.4-0.2l-0.1-0.3l0.3-0.3l0.2-0.3l-0.3-0.1l0-0.4l-0.2-0.1l0.2-0.3l0-0.1l-0.2,0.1l-0.1-0.3l0-0.2l-0.4,0.2l0.1,0.2l0.1,0l0,0.2
	l0,0.4l0.1,0.3l-0.1,0.4l-0.2,0l0.2,0.4l0,0.2l-0.3-0.1l-0.3,0L246,476l-0.3-0.5l-0.3-0.3l0.3,0.1l0-0.4l0.2-0.3l-0.1-0.7l-0.2-0.4
	l0-0.3l0.1,0.1l0.1-0.2l-0.1-0.4l-0.2,0.1l0,0.3l-0.2,0.2l-0.1,0.3l0.3,0.5l0,0.2l-0.3,0.1l-0.1,0.2l0.1,0.1l-0.2,0.1l-0.1-0.1
	l-0.1-0.3l-0.2,0l-0.3-0.5l-0.3,0.2l0.1,0.2l-0.5-0.4l-0.2-0.5l0-0.1l0.3-0.1l0-0.3l0.1-0.3l0.3-0.2l0.3,0.3l0-0.3l-0.4-0.7l0.1,0
	l0.4,0.1l0.1,0.3l0.2,0.1l0-0.1l-0.2-0.3l-0.3-0.1l-0.3-0.1l-0.1-0.2l-0.1,0l-0.1,0.2l-0.2-0.2l-0.3-0.1l-0.1-0.2l0.1-0.1l-0.1-0.3
	l-0.3-0.1l-0.5-0.2l-0.2-0.3l-0.2-0.1l-0.2-0.3l0.2-0.3l-0.2-0.2l-0.1,0.3l-0.2,0l0,0.1l-0.3-0.2l-0.3,0.1l-0.2-0.2l-0.2,0.2
	l-0.7-0.2l-0.2-0.3l0-0.4l0.2,0l0.3-0.1l0-0.2l-0.2,0.1l-0.4-0.1l0-0.2l-0.4-0.5l0-0.4l-0.2,0.1l-0.2,0l-0.2-0.2l-0.1-0.5l0.2-0.1
	l0.2,0.1l0.4,0l0.8,0.2l0-0.1l-0.3-0.2l-0.2,0l-0.8-0.4l-0.2-0.4l-0.1,0.1l0.1,0.3l-0.2,0l-0.6-0.6l-0.8-0.5l-0.3-0.6l0-0.3
	l-0.1-0.2l0.2-0.3l-0.3-0.4l-0.1,0l0,0.4l-0.2,0.2l0.1,0.2l0.1,0.1l0,0.3l-0.1,0l-0.2,0.2l-0.3,0l-0.4,0l0,0.1l-0.4-0.1l-0.6-0.7
	l-0.2-0.5l-0.6-0.5l-0.2-0.3l0.2-0.1l-0.3-0.8l-0.1,0.3l0.1,0.3l-0.5-0.5l-0.3-0.8l-0.2-0.4l-0.4-0.6l-0.5-0.4l-0.4-0.1l0,0.1
	l0.3,0.1l0.1,0.2l0.2,0.1l0.4,0.5l-0.2,0l-0.5-0.5l-0.3-0.1l-0.2,0l0.5,0.3l0.2,0.4l0.2,0.1l0.1,0.5l0.2,0.4l0.2,0.1l0,0.1l0.4,0.5
	l0.1,0.2l0.4,0.6l0.1,0.1l-0.2,0l0.5,0.9l0.2,0.4l0.1,0.3l-0.1,0l0.1,0.3l0.2,0.3l-0.3,0l-0.2-0.1l-0.1,0.1l-0.2-0.1l-0.2-0.3
	l-0.2-0.4l-0.2,0.1l-0.4-0.1l-0.2,0.2l-0.5,0.2l-0.1-0.4l-0.3,0l-0.1-0.1l0.2-0.3l-0.2-0.3l0-0.3l-0.4-0.4l0-0.2l-0.3-0.3l0.1-0.1
	l-0.1-0.4l-0.3-0.2l-0.1,0l0.3,0.6l0,0.6l-0.3,0.1l-0.5-0.2l-0.3-0.1l-0.3-0.6l0,0.3l-0.1,0.1l-0.5-0.1l-0.1,0.1l-0.2-0.2l-0.1,0.1
	l0,0.3l0.5,0l0.1-0.1l0.5,0.1l0.4,0.2l0.4,0.4l-0.1,0.2l-0.2,0.3l0.1,0l0.3-0.3l0-0.2l0.3-0.1l0.2,0.5l0.4,0.3l0.4,0.7l-0.1,0.3
	l-0.4,0.3l-0.1,0l0-0.2l-0.2,0l-0.1,0.1l0.1,0.2l-0.1,0.2l-0.5,0l-0.1,0.1l0.1,0.3l0,0.2l-0.3,0.1l-0.2-0.3l-0.4-0.1l0-0.1l-0.4-0.3
	l-0.2,0l-0.3,0.2l-0.4-0.2l-0.2,0l-0.7-0.3l-0.6-0.2l-0.1-0.2l-0.4-0.2l-0.4-0.2l-0.1-0.1l0-0.4l-0.2-0.2l-0.7-0.4l-0.3-0.1l-1-0.2
	l-0.4-0.2l-0.5-0.2l-1.1-0.3l-0.5-0.1l-1-0.5l-0.3-0.1l0-0.1l0.2-0.5l0.2,0l-0.1,0.1l0.2-0.1l0-0.2l0.1-0.4l-0.2,0l-0.1-0.4
	l-0.3-0.5l0-0.2l0.2-0.2l-0.1-0.1l0.1-0.2l-0.2-0.2l-0.1,0.3l0,0.3l-0.2,0.2l-0.1,0.4l0,0.2l-0.9,0.7l-0.1,0.2l-0.2,0.2l-0.9,0.1
	l-0.7,0l-0.3-0.1l-1.3-0.3l-0.2-0.2l0.2,0l0.3-0.2l0-0.4l-0.4-0.5l0-0.2l-0.2,0.1l-0.3-0.1l0.1,0.2l0.5,0.5l-0.1,0.1l-0.5,0.3
	l-0.4,0.1l-0.5-0.2l-0.6,0l-0.3-0.1l-0.8,0l-0.4,0l-0.6,0.1l-0.6,0.3l-0.7,0.2l-0.8,0.3l-0.5,0.3l-0.4-0.1l-0.4,0.2l-0.5,0.7
	l-0.4,0.6l0-0.3l0.3-0.5l0.5-0.6l0.4-0.1l-0.2-0.3l-0.5-0.2l-0.1-0.1l0,0.4l-0.3-0.4l-0.3-0.1l-0.2,0.1l-0.2-0.1l-0.7,0l0.1-0.1
	l0.4-0.2l-0.4-0.1l-0.2,0.1l0-0.1l0.3-0.8l-0.2-0.1l-0.1,0.2l-0.3,0.1l0,0.3l-0.2,0.3l-0.4,0l-0.7-0.4l0-0.1l-0.3-0.1l-0.4-0.1
	l-0.4,0.2l-0.2-0.1l0.1-0.2l0.3-0.2l0.2-0.4l-0.1,0l-0.1,0.3l-0.7,0.5l-0.3,0.1l-0.4,0l0,0.3l0.6-0.2l0.1,0.1l0,0.2l-0.2,0l-0.2,0.2
	l-0.2,0l-0.4,0.2l-0.4,0.4l-0.1,0l-0.1-0.2l0.4-0.4l-0.4,0.1l-0.2,0l0-0.3l0.2-0.4l0.1-0.1l0.2,0l0.2,0.1l0.2-0.1l0.2-0.2l0.4-0.1
	l0.5-0.3l0.4-0.1l-0.1-0.1l-0.2,0l0-0.3l-0.1,0.2l-0.2,0.1l0-0.1l0.2-0.3l0-0.1l-0.3,0.3l-0.4,0.3l-0.2,0l-0.1-0.1l0.5-0.6l-0.1-0.2
	l-0.2,0.3l-0.4,0.1l-0.1-0.1l-0.1,0.2l-0.2,0.1l-0.5,0l-0.1-0.3l0.2-0.1l0.1,0l0.2-0.1l0.4-0.1l0.3-0.2l0.2-0.3l-0.2,0l-0.1,0.2
	l-0.2,0.1l-0.4,0.1l-0.2-0.3l-0.1,0l-0.1,0.3l-0.2,0.1l-0.1-0.3l0.1-0.1l0.2,0l-0.1-0.2l-0.1-0.3l0.1-0.2l0.2-0.6l0.9-0.1l-0.1-0.2
	l-0.9,0.1l-0.2,0.3l-0.2,0.2l-0.2,0.4l-0.3,0.3l-0.2,0l0.2-0.2l-0.2-0.5l-0.1-0.2l0.2-0.2l-0.2,0l-0.1,0.1l0,0.2l0.1,0.3l-0.1,0.3
	l0,0.2l-0.1,0.1l-0.3-0.2l0,0.3L197,457l-0.2-0.1l0-0.2l-0.1-0.1l0,0.4l-0.1-0.1l0-0.6l0.1-0.3l-0.1,0l-0.1,0.6l0.1,0.5l0,0.1
	l-0.2,0.1l0-0.2l-0.3-0.1l0,0.2l0.2,0.3l-0.1,0l-0.4,0l-0.3,0.3l-0.3,0l-0.1-0.1l0.1-0.5l0.3-0.7l0-0.3l0.4-0.6l0.1-0.4l-0.1-0.1
	l-0.6,1.1l0,0.2l-0.1,0.3l-0.1,0l-0.1-0.3l-0.1,0l0,0.4l-0.1,0.3l-0.2,0.2l0,0.3l-0.1,0.3l-0.2-0.1l0,0.2l0.2,0.1l0,0.4l0.1,0
	l0.1-0.4l0.4-0.1l0.1,0.1l0.1,0.4l-0.1,0.2l-0.3,0.2l-0.2,0.4l0,0.3l0.2-0.1l0.1-0.4l0.3-0.2l0.3,0.4l0,0.2l0.1,0.2l-0.1,0.9l-0.3,0
	l-0.1-0.2l-0.2,0l0,0.2l-0.2,0.2l0,0.1l0.3-0.1l0.2,0.1l0.6,0.5l0.3,0.4l-0.1,0.4l-0.1,0.1l-0.3,0.2l-0.2-0.1l-0.1,0.1l-0.3,0.1
	l0.1-0.2l-0.3-0.3l0.1-0.3l-0.2-0.3l-0.1,0.6l0,0.3l-0.1,0.2l-0.2-0.3l-0.1,0l0,0.3l-0.2,0.2l-0.4-0.2l-0.3,0.2l-0.2-0.2l-0.3,0.1
	l-0.2,0l-0.1-0.1l0.2-0.4l-0.1-0.1l-0.3,0.2l-0.2,0.8l-0.3,0.2l-0.1-0.1l0.1-0.3l0.1-0.4l-0.2-0.8l-0.2,0l0,0.1l0,0.4l0.1,0.2
	l-0.1,0l-0.1,0.3l-0.2,0l-0.1,0.1l0,0.3l-0.1,0.1l0.1,0.2l0.3,0.1l0,0.4l-0.3-0.1l-0.2-0.6l0.1-0.2l-0.1-0.4l-0.2,0l0.1,0.2
	l-0.1,0.2l0.1,0.9l0,0.3l-0.3-0.3l0-0.2l-0.2-0.1l-0.3-0.1l0,0.2l0.2,0.2l0,0.3L190,465l-0.3,0.4l0,0.2l-0.2,0.1l-0.1,0.4l-0.1,0
	l0-0.3l0.3-1l0-0.1l-0.2,0.3l-0.2,0.5l-0.1,0l-0.1-0.7l-0.1,0.3l-0.1,0l0.2,0.3l0,0.4l-0.4,0l-0.1,0.3l-0.2,0.1l-0.2,0.3l0.1,0.2
	l-0.1,0.2l-0.2,0.1l0-0.3l-0.2-0.2l-0.1,0.2l0,0.3l-0.2,0.1l-0.2-0.1l-0.1,0.1l-0.2-0.2l-0.1-0.2l-0.1,0.2l-0.2,0.1l0.1,0.2l-0.2,0
	l0,0.2l-0.4,0l-0.1-0.4l-0.2,0.1l-0.2-0.1l0-0.1l-0.2,0l0-0.3l0.1-0.2l0.2-0.1l0-0.3l0.3-0.2l0.1,0l0.3-0.3l0.3,0l0-0.2l0.3-0.1
	l0.3-0.3l0.3,0l-0.1-0.3l0.2-0.1l0-0.2l0.3-0.5l-0.1-0.1l-0.2,0.1l-0.6,0.5l-0.3,0.1l-0.2,0.2l-0.4-0.1l-0.4-0.3l-0.2-0.2l-0.1-0.2
	l0.2-0.6l0.1-0.2l0.1-0.6l0.3-0.4l0.2-0.2l0.3-0.5l0.1-0.5l0-0.3l0.2-0.2l0-0.7l0-0.1l-0.2-0.2l-0.2-0.8l0.4-0.2l0-0.1l0.6-0.2
	l0.8-0.8l0.8-0.6l0.5,0.7l0.4,0.1l0.1,0.1l0.3-0.5l0.3-0.1l0.4,0.2l0.2-0.1l0.6,0.2l0.6,0l0.3,0.2l0-0.1l-0.2-0.3l-0.3-0.1l-0.4,0.1
	l-0.5-0.3l-0.2,0l-0.4-0.2l-0.3-0.3l-0.4-0.3l-0.3-0.1l0.2-0.3l0.2-0.1l0.3-0.6l0.2-0.1l0.1-0.3l0.4-0.2l0.3-0.2l-0.3-0.2l-0.2,0
	l-0.4,0.3l-0.1,0.2l-0.2,0.1l-0.1,0.3l0,0.3l-0.2,0.2l-0.2-0.1l-0.3,0l-0.7,0.1l-0.3-0.2l-0.3-0.1l-0.1,0.3l-0.8,0.4l-0.3,0.7
	l-0.3,0.1l-0.2,0.2l-0.3,0l-0.4,0.3l-0.4,0.5l0,0.1l0.3,0.6l0,0.1l-0.4-0.1l-0.2,0.1l-0.3,0.3l-0.2,0.4l-0.3,0.1l-0.3,0.4l0,0.3
	l0.1,0.2l0.2,0.1l-0.4,0.3l-0.1,0.3l-0.1,0l-0.3,0.3l-0.2,0l-0.1-0.1l-0.2,0.1l0,0.3l0.2,0.1l0,0.1l0.2,0.2l0.1,0.2l-0.1,0.3
	l-0.2,0.2l-0.1,0.3l-0.2,0.1l0,0.1l-0.4,0l-0.1-0.1l-0.4,0.2l-0.2,0l-0.2,0.3l0.2-0.1l0.1,0.1l0.1-0.1l0.2,0l0.1,0.2l-0.2,0.6
	l-0.2,0.1l-0.3,0.2l-0.3-0.2l0.1,0.2l-0.1,0.1l-0.2-0.1l0.1-0.2l0-0.4l-0.2-0.3l0,0.6l-0.1,0.3l-0.2,0.1l-0.1-0.1l-0.1,0.2l0.2,0.1
	l-0.1,0.3l-0.5,0l0.2,0.4l-0.1,0.2l-0.3,0.1l-0.1,0l-0.2,0.2l-0.1-0.1l-0.4,0.2l0,0.1l0.2,0.1l-0.2,0.2l-0.1,0.2l0,0.3l-0.1,0.2
	l-0.2,0.2l0.2,0.1l-0.1,0.3l0.1,0.3l0.3-0.3l0.6,0.1l0.2-0.1l0.1,0.1l0.2-0.1l0.2,0.4l0.2,0.1l0.2-0.1l0.2,0.2l0.2,0.2l0.1,0.3
	l0.2,0.1l-0.3,0.1l-0.1,0.6l-0.1,0.2l-0.3,0.1l-0.1,0.3l-0.2,0.2l-0.5,0l-0.2,0.1l0,0.4l-0.1,0.2l-0.3,0l-0.1,0.1l0.1,0.4l0.1,0.2
	l-0.3,0.2l-0.2-0.1l0,0.2l0.2,0.2l-0.1,0.4l-0.2,0.1l-0.1,0.2l0.1,0.1l-0.2,0l-0.1,0.2l-0.3-0.3l-0.1,0l0.1,0.3l0,0.2l-0.2,0
	l-0.1,0.2l-0.2-0.1l0-0.1l-0.2,0l0,0.2l-0.2,0.1l-0.2-0.1l-0.3,0.1l-0.4,0.3l0.2,0.2l-0.1,0.2l-0.4,0.2l-0.3,0l0,0.3l0.1,0.1
	l-0.1,0.2l-0.2,0.1L175,475l-0.1-0.1l-0.2,0.1l-0.1,0.3l0,0.3l-0.3,0.1l0,0.5l-0.7,0l-0.2-0.1l0,0.3l0.1,0.3l-0.2,0l-0.1-0.2l-0.2,0
	l0,0.2l-0.3,0.1l-0.4,0.4l-0.2,0.1l-0.1,0.2l0.1,0.1l0.5-0.3l0,0.2l-0.1,0.2l-0.2,0l0,0.1l0.2,0.2l-0.1,0.2l-0.2,0.1l0,0.2l-0.3,0.2
	l-0.1,0.1l0,0.2l-0.3-0.1l-0.3,0.1l-0.1,0.3l-0.1,0.1l-0.2-0.4l-0.1,0.2l-0.3,0.2l-0.1,0.2l-0.3,0l0,0.2l-0.2,0.1l-0.3-0.2l-0.2-0.3
	l-0.2,0.1l0,0.2l0.1,0l0,0.2l-0.3,0l-0.2,0.3l0.1,0.2l0.2,0l0,0.2l-0.4,0l-0.3,0.1l-0.2-0.4l-0.6,0.1l-0.2,0.2l-0.2,0l-0.1,0.2
	l0.2,0l0.3-0.1l0.2,0.1l0.1,0.3l-0.2,0.2l-0.5-0.2l-0.2-0.1l-0.1,0.3l-0.4-0.1l-0.2-0.1l-0.2,0.1l-0.3,0.4l0,0.2l0.5,0.1l0.3,0.2
	l0,0.1l-0.4,0.2l0,0.1l0.2,0l0.3-0.1l0.2,0l-0.6,0.3l-0.3,0.3l0,0.2l-0.1-0.2l-0.1,0.1l0.2,0.3l-0.1,0.2l-0.1-0.2l-0.1,0l0,0.2
	l-0.2-0.4l0-0.4l-0.2,0.3l0.1,0.4l-0.1,0.3l-0.3,0l0.1-0.3l-0.4,0l-0.2,0.4l-0.3,0l-0.8,0.1l-0.3,0.1l-0.1,0.1l-0.1,0.3l-0.2-0.2
	l0.1-0.4l-0.3,0.1l0.1,0.2l0,0.5l-0.2,0.3l0,0.2l-0.3,0.4l-0.4,0.1l0-0.2l0.3,0l0-0.2l-0.1,0l0.1-0.5l0.2-0.3l-0.3-0.2l-0.3-0.1
	l-0.2,0.1l0,0.2l-0.1,0.1l-0.1-0.1l-0.3,0l-0.1,0.4l-0.4,0.3l-0.3,0.1l-0.4-0.2l-0.1,0.1l0.1,0.2l-0.3,0.4l0,0.1l-0.3,0.2l-0.1-0.5
	l-0.1-0.1l-0.2,0.2l-0.1-0.1l-0.2,0.1l0.3,0.1l-0.1,0.3l-0.4,0l-0.2-0.1l0.1-0.2l-0.1-0.1l-0.3,0.1l-0.3,0.4l-0.7,0.3l-0.3,0
	l-0.1-0.1l-0.3,0.1l-0.1,0l0.2-0.7l0.4-0.4l0-0.2l-0.2-0.1l-0.3,0l-0.3,0.1l-0.3,0.4l0,0.6l-0.5,0.6l-0.1,0l-0.2,0.4l-0.2-0.2
	l-0.2,0l0.1,0.3l0.1,0.1l0,0.3l-0.3,0.1l-0.2-0.2l0-0.2l-0.2-0.1l-0.2,0.3l0.1,0.2l-0.2,0.2l-0.1-0.1l-0.4,0l-0.2-0.1l-0.1-0.4
	l0.4,0l-0.2-0.3l0-0.5l-0.2-0.3l-0.1,0l-0.2,0.1l-0.2,0.3l0.1,0.1l0.2,0l0.2,0.4l-0.2,0.2l0.1,0.5l0,0.2l-0.2-0.2l-0.2,0.1l0,0.1
	l-0.2,0.1l-0.2,0l-0.2-0.2l-0.1-0.3l0.1-0.2l-0.1-0.3l-0.2-0.2l-0.4,0.1l-0.1,0.2l0.5,0.5l0,0.2l-0.6,0.4l-0.3,0.1l-0.2,0.1l0.1,0.3
	l0.3,0l0.1-0.1l0.2,0.3l0.1,0.4l-0.3-0.1l0.1-0.1l-0.2-0.1l-0.1,0.1l-0.2-0.1l-0.2-0.3l-0.3,0.1l0,0.3l-0.2,0l-0.4,0.2l-0.2-0.1
	l-0.4-0.1l-0.5-0.1l-0.4,0l-0.5,0.1l-0.4,0.3l-0.1,0.3l-0.4,0.2l-0.6,0.1l-0.3-0.1l-0.3-0.2l-0.1-0.2l0-0.4l-0.1-0.2l0-0.3l0.1-0.1
	l0.5-0.1l0.2-0.1l0.3-0.5l0.3-0.5l0-0.1l0.3-0.2l0.2,0l0.2,0.3l0.5-0.1l0.3-0.2l0.3,0l0.5-0.3l0.4,0l0.4,0.1l0.4,0l0,0.2l0.3,0.4
	l0.1,0.3l-0.1,0.2l0.3-0.1l-0.1-0.3l0-0.2l0.3,0.2l-0.1-0.2l0.1-0.4l0-0.5l0.4-0.2l0.3-0.1l0.5,0.1l0.2,0l0.2-0.3l-0.2,0l0.1-0.1
	l0.2,0l0.1-0.2l0.2,0l0.4-0.4l0,0.2l0.2,0.1l0.3-0.2l0-0.4l-0.2,0l0.3-0.3l0.8-0.9l0.4-0.2l0.3-0.3l0.2,0l0.3-0.2l0.3-0.3l0.3,0
	l0.4-0.1l0.4,0l1-0.2l0.3,0.1l0.1-0.1l0.5,0l0.1,0.1l-0.2,0.1l0,0.2l0.2,0l-0.1,0.2l-0.3,0.1l-0.1,0.4l0.4,0.5l0.1-0.1l0.3,0.2
	l0.1-0.1l-0.3-0.3l0-0.4l-0.1-0.2l0.3,0.2l0.6,0l0,0.4l0.3,0l0.3,0.2l0.1-0.1l-0.1-0.2l0.3,0l-0.6-0.5l-0.3-0.2l0-0.3l-0.2,0
	l0.5-0.7l0.2-0.6l0.1-0.3l0.3-0.2l0.4-0.4l0.2,0l0.5-0.3l0.4-0.4l0.9-0.4l0.5-0.3l0.4-0.2l0.8-0.4l0.2-0.2l0.3,0.3l0.2,0.1l0.3-0.1
	l0.1-0.3l-0.1-0.2l0-0.2l0.2-0.6l0.3-0.5l0.5-0.6l0.3-0.3l0.2-0.2l0.4-0.2l0.2-0.2l0.3-0.4l0.2-0.1l0.3-0.3l0.3-0.1l0.1,0.4l0.2,0.1
	l0.1-0.2l-0.1-0.5l-0.2,0l-0.1-0.2l0-0.4l0.1-0.3l0.4-1.9l0.2-0.2l0.4-0.1l0.1-0.2l-0.2,0l-0.3-0.4l0-0.3l0.1-0.5l0.2-0.5l0.3-0.1
	l0.3-0.5l0.5-0.5l0.1-0.3l0.2-0.4l0-0.2l0.1-0.2l0-0.2l0.1-0.2l-0.2,0l-0.1,0.1l0,0.2l-0.2,0.2l-0.3,0.1l-0.4,0.1l-0.2,0.1l-0.3,0.1
	l-0.1,0.1l-0.4,0.1l-0.5,0.3l-0.8,0.3l-0.3,0l-0.3-0.3l0-0.3l-0.2-0.2l-0.4-0.2l0-0.2l0.1-0.1l0.1-0.8l-0.1,0l-0.3,0.5l-0.4,0.2
	l-0.1,0.3l0,0.3l-0.1,0.2l-0.1,0l0,0.1l0.1,0.4l0.1,0.4l0.2,0.4l-0.3,0.4l-0.3,0.1l-0.4-0.2l-0.3-0.8l-0.4-1l-0.2-0.4l-0.2-0.2
	l-0.3-0.1l0.2-0.3l-0.1-0.2l-0.3,0l-0.1,0.4l-0.1,0l0,0.3l-0.3,0.1l-0.2-0.4l0-0.1l-0.2-0.1l-0.1,0.1l-0.2,0l0-0.3l-0.2,0.1
	l-0.2-0.3l0.2-0.2l-0.1-0.4l-0.5,0.2l-0.5,0.3l-0.3,0.3l-0.2,0.4l-0.1-0.3l-0.4,0.1l-1,0.5l-0.1,0.2l0,0.2L158,469l-0.1,0.1l-0.2,0
	l-0.2,0.2l-0.2,0l0-0.3l-0.3-0.2l-0.6,0l-0.3-0.2l0.5-0.2l0.1,0.2l0.2,0l0.1-0.2l0.3-0.3l0.1-0.3l0-0.4l0.1-0.4l-0.1-0.4l0.1-0.1
	l-0.1-0.1l-0.2-0.5l-0.1-0.7l0.4-0.6l0.2-0.1l0.3-0.3l0.3-0.1l-0.1-0.4l-0.2-0.2l-0.1-0.3l0-0.5l-0.4-0.8l0-0.4l-0.2-0.3L157,461
	l-0.2-0.4l-0.1-0.2l-0.2-0.1l-0.1,0.2l-0.1,0.3l0,0.2l-0.1,0.3l-0.1,0.1l-0.3,0l-0.2-0.1l-0.2,0.2l-0.4,0.1l-0.5,0.3l-0.7,0.1
	l-0.9,0l-0.7-0.2l-0.5-0.3l-0.1-0.2l-0.1-0.5l0.2,0l-0.1-0.4l-0.5-0.4l-0.2-0.6l0-0.2l-0.3-0.3l-0.1-0.3l-0.4-0.1l-0.3-0.2l-0.4-0.6
	l0.2-0.1l0.3-0.2l0-0.2l-0.2-0.1l-0.4,0.2l-0.4-0.1l-0.1-0.3l0.1-0.1l0.3,0l0.6-0.5l0.1,0l0.2-0.2l-0.1-0.2l0-0.2l0.3-0.1l-0.2-0.1
	l0.1-0.3l0.3-0.3l-0.2,0l-0.2,0.2l-0.3-0.3l0-0.2l0.2-0.2l0.2,0.1l0.2-0.1l0-0.2l-0.2,0.1l-0.3-0.2L150,454l0-0.1l-0.2-0.1l-0.1-0.2
	l-0.1,0l-0.2,0.4l-0.1,0L149,454l-0.1-0.1l0-0.3l0.1-0.6l-0.1-0.1l-0.4-0.1l-0.1-0.2l0-0.5l0.4-0.1l0.1-0.2l-0.1-0.2l-0.3-0.2
	l-0.4,0.1l0,0.2l-0.2-0.1l0-0.4l0.2-0.7l0.1,0l-0.1,0.5l0.9-0.1l0-0.1l-0.3-0.2l-0.2-0.2l-0.1-0.4l0-0.1l0.3,0l0.5,0.1l0.3-0.1
	l-0.2-0.7l0-0.2l0.1-0.4l0.3-0.3l1.1-1.1l0.1-0.1l0.3-0.3l0.3-0.2l0.1-0.3l0.2-0.3l0.2-0.1l0.2,0l0.1-0.1l0-0.6l0.4-0.8l0.2-0.3
	l0.4-0.2l-0.1-0.1l0.1-0.1l0.6-0.5l0.6-0.1l0.4,0l0.3,0.3l0.4,0.1l0.2,0.4l0.2,0.1l0,0.1l0.4,0.5l0.7,0l0.6-0.5l0.1-0.2l0.4-0.1
	l0.7-0.7l0.3-0.4l0.2-0.2l0-0.3l0.1,0l0.2,0.2l0.2,0l0.1,0.4l0.5,0.1l0.4,0l0.2,0.1l0.7-0.1l0.4-0.1l0.1-0.2l0.6-0.6l0.4-0.6l0-0.3
	l-0.1-0.4l-0.2-0.5l-0.1-0.6l0-0.6l0-0.2l-0.5-0.8l-0.1-0.2l-0.3-0.2l-0.2,0l0.1-0.4l0.2-0.1l0.1,0.1l0.3,0.1l0.4,0l-0.1-0.2l0.3,0
	l0.4-0.3l0.1-0.5l-0.3-0.6l-0.4-0.4l-0.2-0.2l0,0.1l-0.2,0.2l-0.2,0.4l-0.4,0.1l-0.3-0.2l-0.5,0.4l-0.7,0.1l-0.2,0.3l-0.8,0.4
	l-0.2,0.3l-0.1,0.5l-0.4,0.3l0-0.4l-0.1-0.5l-0.2-0.3l-0.2,0l0.1-0.2l-0.2-0.3l-0.1-0.2l-0.4,0.2l0.1,0.2l0.2,0.1l0.1,0.2l0.2,0
	l0,0.2l-0.2,0.4l-0.2,0l-0.1-0.4l-0.4-0.4l-0.3-0.2l-0.5-0.1l-0.4,0.1l-0.2-0.1l-0.4-0.1l-0.4,0l-1,0.4l-0.5,0l-0.9-0.5l-0.7-0.3
	l-0.4-0.1l-0.7-0.3l-0.3-0.4l-0.1-0.5l0.1-0.3l0.2-0.1l0-0.3l-0.2-0.3l-0.3-0.3l0-0.3l-0.3-0.4l0-0.3l0.3,0.2l0.3,0l0.1-0.1l0.2,0
	l0.2-0.1l0-0.3l0.3-0.2l-0.3-0.4l-0.1-0.1l-0.2,0l-0.3-0.1l-0.5-0.3l-0.8-0.3l-0.3-0.3l-0.2-0.4l-0.4-0.4l-0.3-0.2L147.6,428.1z
	 M129.7,496.3l0.3-0.1l0.1-0.3l0.2,0l0.2-0.1l0.1-0.3l0.3-0.1l0.1-0.2l-0.1-0.1l0.2-0.4l0.6-0.4l0.2,0.2l0.3,0l0.3,0.1l0-0.3
	l-0.1-0.1l0.2-0.3l0-0.1l0.3-0.3l0.5-0.2l0.7,0l0.3,0.3l0.4,0.1l0,0.1l-0.3,0.3l0,0.3l-0.7,0.3l-0.8,0.2l-0.3,0.3l0,0.2l-0.4,0.3
	l-0.2,0.2l-0.3,0l-0.4,0.3l-0.2,0l-0.1,0.2l-0.2-0.1l-0.4,0.2l-0.7,0.2L129.7,496.3z M128.9,496.7l0.4-0.1l-0.1,0.2l-0.3,0
	L128.9,496.7z M127.6,495.2l0.1-0.2l0.2,0l0,0.2l-0.2,0.2l-0.1,0L127.6,495.2z M132.2,475.7l0.5,0.2l0.3,0l0.1,0.1l-0.4,0.2
	l-0.2-0.1l0-0.2l-0.2-0.1L132.2,475.7z M127.7,494.6l0,0.2l-0.2-0.1L127.7,494.6z M126.6,495.7l0.2,0l0.3,0.1l0-0.1l0.3,0l0.2,0.1
	l0.1,0.1l-0.3,0.4l-0.3-0.3l-0.3,0.1l-0.2-0.1L126.6,495.7z M126.3,495.3l0.1-0.1l0.2,0.1l0,0.1l-0.2,0.1l-0.1-0.1L126.3,495.3z
	 M125.9,496.2l0.1-0.3l0.4,0.2l-0.1,0.2L125.9,496.2z M131.1,472.3l0.1-0.2l0.2,0l0.1,0.1l0.3,0l-0.1,0.3l-0.4,0.2l0-0.2
	L131.1,472.3z M123.6,496.3l0.1-0.2l0.5-0.2l0.3,0.2l0,0.1l-0.2,0.2l-0.2-0.1l-0.2,0.1l-0.2,0.2l-0.2-0.1L123.6,496.3z M122.6,496.1
	l0.1,0.2l-0.2-0.1L122.6,496.1z M121.9,496.5l0.2-0.1l0.1,0.2l-0.2,0.2l-0.2-0.1L121.9,496.5z M136.4,437.3l0.1-0.2l0.3-0.3l0.1-0.3
	l0.1-0.1l0-0.3l0.2,0l0,0.2l-0.1,0.2l0.1,0.2l0.5,0.4l0.6,0.4l0.4,0.2l0.6-0.3l0.6-0.1l0.5,0.2l0.2,0.4l0.2,0.1l0,0.5l-0.1,0.2
	l0.4,0.4l0.5,0.2l0.2,0.2l0,0.2l0.3,0.2l0.7,0.3l0.1,0l0.8,0.5l-0.4,0.6l-0.2,0.2l-0.4-0.3l-0.4-0.1l-0.5,0l-0.5,0.3l-0.2,0.3l0,0.2
	l-0.2,0.2l-0.2-0.2l0.1-0.1l-0.1-0.6l-0.2-0.4l-0.4-0.4l-0.3-0.1l0-0.3l-0.1-0.3l-0.4-0.5l-0.7-0.5l-0.5-0.2l-0.5,0.1l-0.2,0.2
	l-0.3,0.1l-0.2-0.2l-0.4-0.3l-0.1-0.4l0-0.3L136.4,437.3z M117.4,496.3l0.3-0.2l0.4-0.1l0.1,0l0.3,0.3l-0.1,0.2l-0.4,0.1l-0.4,0
	l-0.3-0.1L117.4,496.3z M128.7,452.6l0.1-0.3l0.3-0.2l0.1,0l-0.1,0.3l0,0.3l0.2,0.4l0.4,0.4l0.2,0.1l0.3,0l0.4,0.6l-0.2,0l0-0.2
	l-0.5-0.2l-0.3,0l-0.2-0.3l-0.4-0.8L128.7,452.6z M129,451.5L129,451.5l0,0.4l-0.1-0.2L129,451.5z M112.5,495.8l0.4,0.1l0.3,0.3
	l0.1-0.1l0.2,0.1l0.4,0l0.3,0.1l-0.1,0.1l0.1,0.2l0.1,0l0.3,0.2l0.3,0l0.1,0.1l0.4,0.1l0,0.1l0.5,0.2l-0.3,0l-0.2-0.1l-0.2,0.1
	l-0.5-0.1l-0.3,0.1l-0.1-0.1l-0.2,0l-0.2-0.1l-0.2-0.2l-0.6-0.2l-0.1,0l-0.3-0.2l0-0.3l-0.1,0L112.5,495.8z M108.2,495l0.7,0
	l0.1,0.2l0.4-0.1l0,0.1l0.3-0.1l0.1-0.1l0.2,0.2l0.3,0.1l0.1-0.1l0,0.1l0.5,0l0.1-0.2l0.5,0.1l-0.1-0.2l0.5,0.2l0.2-0.1l0-0.2
	l-0.4-0.1l-0.2-0.2l0.1-0.1l0.2,0.1l0.2-0.1l0-0.2l0.5-0.1l0.3,0.3l0.1,0.4l0,0.1l-0.4,0.3l-0.4-0.2l-0.1,0.2l0.3,0.5l-0.1,0.1
	l-0.1-0.1l-0.2,0l-0.1,0.1l-0.2,0l-0.2-0.2l-0.4,0.4l-0.2-0.2l-0.8,0l-0.1-0.2l-0.3-0.2l-0.3-0.1l-0.2,0.1l-0.3,0l-0.4-0.2
	L108.2,495z M107.5,495.1l0.2,0l0,0.2L107.5,495.1L107.5,495.1z M107.8,494l0.2,0.1l-0.1,0L107.8,494z M106.7,494.9L106.7,494.9
	l0.5,0.1l0,0.1l-0.2-0.1l-0.3,0L106.7,494.9z M106.1,494.6l0.1,0l0.3,0.1l0,0.5l-0.2-0.1l-0.1-0.3L106.1,494.6z M105.5,493.8
	l0.2-0.1l0.3,0.1l0.1,0.4l-0.3,0.1l0.1,0.3l-0.2,0.1l-0.2-0.1l-0.2-0.2l0.1-0.2l-0.1,0L105.5,493.8L105.5,493.8z M104.9,495.1
	l0.1-0.2l0.2,0l0.1,0.2l0.2,0l-0.1-0.1l0.4,0l0.1,0.1l-0.1,0.2l-0.3-0.1l0.1,0.3l-0.3-0.2l0,0.2l-0.1-0.1l-0.1,0.2l0-0.2
	L104.9,495.1z M102.1,495.2l0.2-0.3l0.2,0l0.1-0.1l0-0.3l0.1-0.1l0.4,0.1l0.2-0.2l0-0.4l0.2-0.2l0.2,0l0.2,0.2l0.3-0.2l0.1,0.1
	l-0.1,0.3l-0.3,0l-0.1,0.2l0.1,0.1l0.2,0.1l0.4,0l0.4,0.1l0,0.3l-0.2,0.4l-0.2,0l-0.4-0.2l-0.2,0.2l-0.2,0l-0.2,0.1l-0.2-0.2
	l-0.1,0.1l0,0.2l-0.1-0.1l-0.2,0.1l0-0.3l-0.1-0.2l-0.4,0.4l-0.1-0.1L102.1,495.2z M101.1,493.2l0.2,0l0,0.1l-0.2,0L101.1,493.2z
	 M99.9,494l0.3-0.1l0.2,0.2l0.4,0l0.6,0l0.3-0.1l0.2-0.6l0.2,0l0.2,0.1l0.1,0.3l-0.5,0.3l-0.1,0.4l-0.1,0.1l-0.4,0l-0.3-0.4l-0.4,0
	l-0.5-0.1l-0.1,0.2l-0.1-0.1L99.9,494z M98.6,492.5l0.1-0.1l0.4,0.1l0.4,0.2l0.1,0.2l-0.1,0.1l0.2,0.2l0.2,0l0.2,0.2l0.4,0l-0.2,0.1
	l-0.5,0l-0.3,0.3l0,0.2l-0.2,0.1l-0.1-0.1l-0.2,0.2l0,0.3l-0.1,0l0-0.3l-0.2,0l-0.1-0.3l-0.1-0.1l0.1-0.1l0.5,0.1l0.1-0.3l-0.2-0.1
	l-0.1-0.2L98.6,492.5L98.6,492.5z M96.6,493.3l0.3,0.2l-0.1,0.1l-0.3-0.2L96.6,493.3z M96,493.2l0.3,0.2l0,0.1l-0.3-0.1L96,493.2z
	 M96.4,492.1l0.2-0.2l0.2,0.2l-0.1,0.3l-0.2,0L96.4,492.1z M95.2,494.1l0.1-0.1l0.1,0.1l0,0.2l-0.1,0l-0.2,0.1L95.2,494.1z
	 M94.5,494.4l0.2,0l0,0.3l-0.3,0L94.5,494.4z M91.6,489l0.1,0.1l0.2-0.1l0.3,0.1l0.2,0.4l-0.2,0.3l-0.3,0.1l-0.1,0l-0.2-0.2
	l-0.1-0.2L91.6,489z M88.1,489.6l0.1-0.1l0.2,0.3l0.2,0.1l0.3,0.2l0,0.2l0.2,0.3l0.2,0.5l0.2,0.2l0,0.3l0.5,0.3l0.2,0.2l-0.2,0
	l-0.1-0.1l-0.4-0.1l-0.1-0.2l-0.3-0.5l-0.2-0.6l-0.3-0.3l-0.2,0l-0.2-0.2L88.1,489.6z M88.3,487.7l0.1,0l0.2,0.2l0.1,0.2l-0.2,0.1
	l-0.1,0L88.3,487.7z M87.3,488.1l0.2,0.1l0.1,0.4l-0.2-0.2L87.3,488.1z M87.4,486.9l0.1-0.1l0.1,0.2l0,0.2l-0.2,0L87.4,486.9z
	 M84.3,486.3l0.3,0l0.3-0.1l0.5,0.1l0.2-0.2l0.4-0.3l0.2,0l0.1,0.3l-0.2,0.1l-0.2,0.2l-0.3,0.1l0.2,0.2l-0.1,0.1l-0.2,0l-0.4-0.3
	l-0.2,0l-0.2,0.3l-0.1-0.1L84.3,486.3L84.3,486.3z M81.3,482.1l0.3,0.2l-0.3,0L81.3,482.1z M76.8,477.5l0.2,0.2l0,0.1L76.8,477.5
	L76.8,477.5z M76.5,477.3l0.1,0.1l-0.1,0.1L76.5,477.3z M76.3,477l0.2,0.2l-0.1-0.1L76.3,477z M73.9,478l0.1-0.1l0.3,0l0.2,0.2
	l0.4-0.1l0.4,0.2l-0.3,0.1l-0.1,0.1l-0.1,0.5l-0.2-0.1l-0.1-0.3l-0.4-0.1L73.9,478z M72.6,474.1l0.7-0.1l0.4,0.1l1,0.7l0.2,0.4
	l0.2,0.2l0.2,0.6l0,0.1l-0.4-0.2l-0.1-0.3l-0.3,0.2l-0.1,0l-0.4-0.3l-0.4,0l-0.2-0.3l0-0.2l0.1-0.3l-0.2-0.4l-0.4-0.1L72.6,474.1z
	 M249.6,477.6l0.1-0.1l0.2,0.1l0,0.3l-0.2-0.1L249.6,477.6z M249.2,478.6l0.6-0.5l0.2,0.3l0.2,0l-0.1,0.4l-0.3,0.1l-0.5-0.2
	L249.2,478.6z M248.8,478.8l0.2-0.4l0.1,0.1l-0.2,0.4L248.8,478.8z M248.5,478.3l0.1-0.3l-0.1-0.2l0.1-0.1l-0.2-0.1l-0.1-0.3l0-0.2
	l0.1-0.1l0.3,0.1l0.1,0.1l0.1,0l0.2,0.1l0.3,0.7l0,0.2l-0.3,0.1l-0.2-0.1l-0.2,0.2L248.5,478.3z M247.3,476.8l-0.1-0.3l0.1,0
	l0.8,0.4l-0.1,0.2l0.1,0.3l0,0.6l-0.4-0.2l-0.3-0.5L247.3,476.8z M243.4,471.5l0-0.2l0.1,0.1L243.4,471.5z M243.5,472.3l0-0.1
	l0.2-0.3l0.3,0.1l0,0.1l-0.2,0.2L243.5,472.3z M243,471.8l0.2-0.2l0.1-0.3l0,0.2l-0.1,0.4L243,471.8z M244.9,479.9l0.2-0.1l0,0.3
	L244.9,479.9z M242.4,473.5l0-0.3l0.1,0.1l0.4,0.4l0.2,0.3L243,474l-0.3-0.2l-0.1,0L242.4,473.5z M242,472.9l0.1-0.4l0.2-0.2l0.3,0
	l0.2-0.2l0.4,0.1l0.1,0.1l-0.1,0.3l0.2,0.3l-0.1,0.1l-0.4,0.2l-0.3-0.2l-0.3,0L242,472.9z M242.9,478l0.2-0.2l0,0.2l-0.2,0.1
	L242.9,478z M243.1,481.1L243.1,481.1l0.4,0.5l-0.2-0.1L243.1,481.1z M241.5,477.2l0.1-0.1l-0.1-0.3l0.3,0.1l0.1,0.1l-0.1,0.4
	L241.5,477.2z M241.3,477l0.1-0.1l0,0.2L241.3,477z M241.4,478.2l0-0.4l0-0.1l0.4-0.1l0.1,0l0,0.2l-0.1,0.2l0.1,0l0.2-0.2l0-0.2
	l0.2,0l0.1-0.4l0.2-0.1l0.2,0.1l0,0.3l-0.1,0.2l-0.2,0l-0.1,0.2l0.2,0l0,0.2l-0.2,0.2l-0.2,0.3l0,0.5l-0.4-0.3l0.1-0.3l-0.1-0.3
	l-0.4-0.1L241.4,478.2z M240.5,475.6l0.1-0.1l0.1-0.5l0.3-0.1l0.1-0.1l-0.2,0l-0.1-0.2l0.2,0l0-0.2l-0.5-0.2l0.1-0.2l-0.2-0.4
	l0.2-0.3l0.5,0l0.8-0.2l0.4,0.3l0.2,0.3l0,0.3l0.2,0l0.2,0.3l0.2,0.2l0.2-0.1l0.8,0.3l0.2,0.2l0.5,0.4l0.2,0.6l0.3,0l0.2,0.3
	l0.1,0.1l0.4,0.1l0.2,0.2l-0.1,0.1l-0.3-0.1l-0.9-0.2l0,0.1l-0.1,0.4l0.1,0l0.1-0.3l0.1,0.1l0.2-0.1l0.1,0.1l0.2,0l0.1,0.1l-0.4,0.2
	l0.1,0.1l0.3-0.2l0.2,0.2l0.2,0l0.2,0.3l0.1,0l-0.1,0.3l-0.2,0l0.1,0.1l0.3,0l0.1-0.1l0-0.2l0.1-0.2l0.1,0.1l0.2,0.4l-0.1,0.2
	l0.1,0.1l-0.1,0.5l-0.2,0.3l0.2,0l0.2-0.4l0.2,0l0.3,0.9l0.2,0.3l-0.1,0.5l-0.4,0.2l-0.4-0.1l-0.1,0.1l-0.2-0.1l-0.1-0.2l-0.4,0.1
	l0.1-0.3l0.3-0.1l0-0.2l-0.3-0.1l-0.2,0l-0.5-0.2l0-0.2l-0.1-0.6l-0.2,0l0,0.3l-0.1-0.5l0-0.2l-0.2-0.1l0,0.3l-0.3,0.2l0.3,0.4
	l-0.1,0.3l-0.6-0.1l-0.1-0.1l0.1-0.3l-0.3-0.4l-0.2,0.1l-0.2-0.2l-0.2,0.1l0.2,0.3l0.3,0.2l0.2,0.3l0,0.2l0.2,0l0.4,0.6l0.3,0
	l-0.1-0.2l0.2-0.2l0.4,0.2l0.2,0.5l-0.1,0.1l-0.3-0.3l-0.1,0.1l0.5,0.7l-0.3,0.1l-0.3-0.1l-0.1-0.3l-0.3-0.1l-0.8-0.6l-0.1-0.1
	l-0.1-0.4l-0.1,0l-0.2-0.2l0.3-0.1l-0.3-0.1l-0.1-0.5l-0.3,0.2l-0.1-0.1l-0.2,0.1l-0.2-0.2l-0.1-0.4l0.3-0.2l0.2,0.2l0.2-0.1
	l-0.2-0.1l0-0.2l0.1-0.1l0.2,0l0.2-0.3l-0.4-0.3l0.1-0.1l-0.2-0.1L243,477l-0.2,0.2l-0.6-0.2l-0.1-0.1l0.2,0l-0.2-0.2l0-0.2l-0.3,0
	l0.1,0.2l-0.1,0.1l-0.4-0.1l-0.3-0.2l0.1-0.3l0.3-0.2l0.5,0.1l0.2-0.3l-0.3-0.2l-0.2,0l-0.1,0.1l-0.1,0l0-0.2l-0.1-0.2l0-0.3
	l-0.1-0.1l-0.1,0.3l-0.2,0.4l-0.2,0.2l-0.3-0.1L240.5,475.6z M238.1,468.6l0.1-0.2l0.2,0.1l-0.2,0.2L238.1,468.6z M240.2,476
	l0.1-0.2l0.1,0l0.1,0.2l0,0.2l-0.1,0L240.2,476z M239,476.4l0.3-0.2l0.1,0.2l0.3-0.2l0-0.4l0.1,0l0,0.5l-0.2,0.2l-0.1,0.3l-0.2,0
	l0-0.2L239,476.4z M237.3,471.5l0.1-0.3l0.1-0.1l0-0.2l0.3-0.1l0-0.1l0.3,0.1l0.2,0.3l0.3,0.2l0.3-0.1l0.1,0.1l0.1-0.1l-0.4-0.1
	l-0.2-0.3l-0.1-0.2l-0.5-0.2l0-0.3l0.3-0.2l0.6,0l0.3,0l0.5,0l0.3,0l0.1-0.1l0.6-0.1l0.4,0.2l0.3,0.3l0.1,0.2l0.1,0.1l0.3,0l0.2,0.2
	l0.1,0.2l0.4,0.1l0.2,0.3l0.2,0.1l-0.3,0.3l-0.1,0.3l-0.2,0.2l-0.2,0L242,472l-0.5,0l0.1,0.2l-0.2,0.3l-0.5,0l-0.2-0.1l-0.1,0.3
	l-0.1,0.1l-0.3,0.1l-0.2,0l-0.2-0.4l-0.2-0.1l-0.2,0.4l0.2,0.1l0.1,0.4l-0.2,0.1l0,0.1l0.2,0.2l0,0.3l0.1,0.3l-0.1,0.3l0.1,0.2
	l0,0.3l-0.1,0.1l-0.3,0l0,0.5l-0.2,0l-0.2-0.2l-0.2-0.3l-0.2-0.5l-0.2-0.4l-0.1-0.3l0.1-0.3l-0.1-0.2l0-0.5l-0.2-0.1l-0.2,0.1
	l-0.1-0.4l-0.3-0.2l-0.2-0.3l0-0.2L237.3,471.5z M233.3,463.7l0.6,0.3l0.1,0.2l0.2,0l0.3,0.6l0.2-0.1l0.2-0.2l0.1,0.1l0.2-0.1
	l0.2,0.1l0.5-0.2l0.1,0.4l0.4,0.3l0.1,0.2l0.3,0.2l0.3,0.4l0.2,0.2l0.2,0.6l0.3,0.2l0.1,0.3l-0.1,0l-0.1-0.2l-0.6-0.4l-0.3-0.5
	l-0.2-0.1l-0.2-0.2l-0.2,0.1l0.4,0.4l0.1,0.1l-0.1,0.1l0.5,0.4l0.3,0.1l0.1,0.3l0.4,0.4l-0.2,0l0.3,0.4l0,0.1l-0.2,0.4l-0.2-0.1
	l-0.2,0.1l0.1,0.1l-0.1,0.5l-0.3,0.5l-0.2,0.2l0,0.2l-0.2,0.4l-0.3,0.1l-0.2-0.4l-0.2-0.6l0.1-0.4l0.1-0.2l-0.2-0.1l-0.1-0.3
	l0.1-0.1l0.2,0.1l0-0.1l-0.6-0.5l-0.1-0.3l-0.3-0.2l-0.2-0.4l-0.2-0.2l-0.1-0.6l-0.2-0.3l-0.2-0.4l-0.2-0.4l0-0.2l-0.3-0.4l-0.2-0.2
	l-0.2-0.3l-0.2-0.4L233.3,463.7z M233,463.2l0.4,0.1l0.4,0.5l-0.1,0.1l-0.4-0.5l-0.3,0L233,463.2z M231.3,460.8l0.2,0.3l0.1,0.2
	l-0.1-0.1L231.3,460.8z M232.9,469.8l0.1-0.1l0-0.1l0.2-0.4l-0.1-0.3l0.3-0.4l0.2,0l0.4,0.3l0.1-0.1l0.3,0.2l0.3,0l0.4-0.1l0.2,0
	l0.2,0.3l0,0.2l-0.3-0.1l-0.2,0.1l0,0.1l0.2,0.1l0.2,0.2l0.7,1.2l0.1,0.3l0.2,0.2l0.1,0.3l0.4,0.6l0.2,0.5l0.1,0.5l-0.1,0l0.2,0.3
	l0.4,1.1l0.1,0.5l-0.1,0l-0.4-0.2l-0.2-0.4l-0.3-0.2l-0.7-0.8l0-0.2l0.2-0.2l-0.2-0.1l-0.2,0.2l-0.3-0.4l-0.1,0.1l-0.2-0.1l-0.2-0.2
	l0-0.2l-0.1,0.1l-0.1-0.1l-0.3,0.1l-0.3-0.4l0.2-0.1l0.1,0.1l0.1-0.1l-0.2-0.5l0.1-0.3l0-0.2l-0.5-0.3l0.2-0.4l-0.1-0.1l0.1-0.2
	l0-0.3l-0.4,0l-0.2,0.2l-0.2-0.3L232.9,469.8z M231.3,464.5l0.1-0.1l0.2,0l0.2,0.2l-0.3,0.1L231.3,464.5z M232.6,470.6l0-0.2
	l-0.1-0.3l0.2-0.1l0.4,0.2l0.2,0.3l0.1,0.1l0.1-0.2l0.2,0l-0.1,0.4l-0.2,0.1l-0.1,0.8l-0.1,0l-0.4,0.3l-0.1,0l-0.1-0.5l0.2-0.3
	l-0.1-0.2l-0.2,0l0-0.1l-0.2-0.1L232.6,470.6z M229.8,463.6L229.8,463.6l0.2,0.2L229.8,463.6z M230.2,465.3l0.2-0.3l0.1,0.2
	l-0.1,0.1L230.2,465.3z M229.6,467.5l-0.2-0.8l0.1-0.2l0.1,0l0.2-0.4l0-0.2l-0.2-0.4l0.3-0.1l0.1,0.2l0.2,0.2l0.2-0.4l0.3-0.1l0.2,0
	l0.1-0.3l0.3-0.3l0.2,0.2l0.4,0l0.3,0.2l0,0.4l-0.2,0.4l0.1,0.2l0.1,0l0-0.3l0.2-0.6l0.1-0.1l0.4,0.2l0.5-0.1l0.2,0.1l0.3,0l0.3,0.3
	l0,0.3l-0.2,0.3l-0.4-0.1l-0.1,0.1l0.2,0.1l0.2,0l0.4,0.2l-0.2,0.2l-0.2,0.1l0.1,0.1l0.2,0l0.2-0.2l0.2,0.4l0.2,0.3l0.3,0.6
	l-0.1,0.2l-0.4,0.2l-0.2,0l-0.6-0.3l-0.8-0.3l-0.3-0.1l-0.2,0.2l-0.1-0.1l0,0.2l0.4,0.2l0.2,0l-0.2,0.2l0.1,0.1l0.1,0.3l0,0.3
	l-0.2,0.5l-0.6-0.1l-0.1-0.2l-0.5-0.3l-0.3-0.4l-0.1,0.2L231,469l-0.2-0.3l0-0.1l-0.3-0.3l0-0.1l-0.2-0.2l-0.3-0.1l-0.1-0.2
	L229.6,467.5z M202,459.3l0.3,0l0.1,0.2l-0.3,0.1L202,459.3z M201,459.2l0.1-0.1l0.6,0.1l0,0.1l-0.2,0.1L201,459.2z M197.2,457
	l0.2-0.2l0.3,0l0.2,0.1l-0.1,0.3L197.2,457z M196.8,458.2l0-0.4l0.3-0.1l0.2,0.4l-0.1,0.2l-0.4,0.1L196.8,458.2z M197,460.4
	L197,460.4l0.4-0.3l0,0.2l-0.4,0.3L197,460.4z M196.1,463.1l0.1-0.1l0-0.3l0.2-0.1l0-0.2l0.2-0.3l0.2,0l0-0.2l0.3-0.2l0.1-0.2
	l0.4-0.4l0.2-0.6l0.2-0.2l0-0.2l0.1-0.3l0.2-0.2l0.1,0.2l0.2,0l-0.1,0.3l0.1,0.1l0.2-0.2l0.1,0.1l-0.1,0.2l-0.5,0.6l-0.4,0.7l0,0.4
	l-0.3,0.3l0.3,0.2l-0.2,0.2l-0.2,0.1l-0.2,0l-0.1,0.3l-0.1,0l-0.4,0.3L196.1,463.1z M195.8,460.6l0.3-1.3l0.1,0.2l0.1-0.1l-0.1-0.3
	l0.4-0.4l0,0.3l-0.1,0.2l0,0.4l-0.2,0.2l0.2,0.2l-0.2,0.5l0,0.2l-0.1,0.5l-0.3-0.2l0-0.1l-0.2,0L195.8,460.6z M195.4,458l0.1-0.2
	l0.2,0.1l0.2,0.2l-0.2,0.2L195.4,458z"/>
<path class="st2" d="M212.9,360.6l0.3-0.4l1.1,0.4l1.2-0.1l0-0.6l1-0.7l0.3-1l-0.3-1.9l-0.7-0.3l-0.4,0.1l-0.5-0.5l-0.2,0.2l-0.5-1
	l0.5-0.8l0.5-1.9l-0.6-0.7l0.6-0.8L215,350l0.9,0.1l1.6-1.6l0.5-0.2l-0.1-0.6l0.5-1.4l0.4-0.1l0.1-1l-0.2-0.9l0.2-0.7l0.3,0l0.1-0.8
	l-0.3-0.3l1.6-1.3l0.2-0.9l0.4-0.3l1.1-0.2l0.6-0.4l0.8-0.1l0.1-0.2l1.3-0.6l0.1-0.7l-0.4-0.8l-0.6-0.4l-1.1-1.6l-0.6-0.2l0.2-0.8
	l-0.5-3.4l-0.9-1l-0.1-1l-0.6-0.9l0.4-2l0.5-1.2l-0.4-0.4l1.1-0.4l0.2-1l0.1-2.5l-0.1-0.9l-0.4-0.7l0-0.8l0.4-0.4l0.3-1.4l-0.3-0.6
	l0.2-0.5l-0.2-0.5l0.3-0.7l-0.1-0.8l0.3-0.7l0.5-0.2l-0.4-0.5l-0.3-1.4l0.3-0.5l-0.1-1.1l1.2-0.2l0.5-0.3l0.2,0.2l0.6-0.2l0.7,0.2
	l0,0.4l1.1,0l0.6,0.2l0.6,1.1l-0.2,0.4l0.8,0.9l1.1,0.1l1.5-2.2l0.3-0.2l0.6-3.1l0.6-3.7l1.1-5.8l8.8,1.7l9.7,1.8l13.8,2.3l4.3,0.7
	l7.1,1.1l0.2,0.1l10.4,1.5l7.2,1l-3.2,22.8l-0.5,3.2l0,0.4l-1.7,12.5l-1.2,8.2l-0.2,2l-0.3,1.5l-5.3,38.3l-3-0.5l-9.5-1.4l-6.1-0.9
	l-8.2-1.3l-15.9-9.2l-9.3-5.4l-4.4-2.7l-15.9-9.6l0.4-0.8l-0.2-0.3l0.2-0.8l0.4-0.1L212.9,360.6z"/>
<path class="st3" d="M304.4,243l10.1,1.4l6.5,0.8l13.7,1.6l2.8,0.4l5.7,0.6l10.2,1l0.3,0l9.1,0.8l11.9,0.9l5.7,0.4l5.9,0.4l-1,15.8
	l-0.3,5.2l-0.4,5.9l-0.1,2.6l-1.1,17.3l-0.1,1.9l-0.9,14.8l-8.1-0.6l-1-0.1l-2.8-0.2l-9.1-0.7l-7.5-0.6l-8.2-0.7l-1.5-0.2l-13.4-1.3
	l-8.2-0.9l-0.1-0.1l-6.7-0.8l-10.2-1.3l-9.8-1.3l1.1-7.9l0.1-0.5l1.4-10l0-1.8l1-7l0.5-2.9l3.5-25.1l0.1-0.6L304.4,243z"/>
<path class="st4" d="M589.6,341.7l1.8-0.2l6.2-0.8l8.3-1l8.9-1.1l-0.1-0.1l6.5-1l0,1l-1.3,1.1l-1,1.6l0.1,0.5l-0.3,0.4l0.3,0.8
	l1.5,0.9l0.8,0l1.2,1.3l1.1,0.5l1.2-0.4l0.4,0.1l0.5,0.8l0.3,0.8l0.6,0.3l0.2,0.7l0.6,0.6l0.1,0.7l0.4,0.9l0.6,0.2l0.5,0.9l0.7,0.6
	l0.7,1.3l0.4,0l1,0.8l1.4,0.5l1.5,1.1l0.3,0.8l0.5,0.5l0.1,0.5l0.7,0.4l0.6-0.1l0.9,0.4l1,1.1l0.7,0.2l0.2,0.3l-0.2,0.6l0.3,0.5
	l-0.1,0.5l1.5,0.9l-0.1,0.4l0.7,0.5l0.5-0.1l0,0.6l0.5,0.5l1.4,0.5l0.4-0.1l0.9,0.7l1,0.4l-0.1,0.9l0.7,0.8l0.2,0.6l0.4,0.1l0.2,1.1
	l0.3,0.4l-0.1,0.6l0.3,0.1l0.3,0.6l-0.1,0.6l0.7,0.6l1.2,0.2l0,0.3l1.2,0.9l-0.1,0.5l0.9,1.3l0.2-0.1l0.4,1l-0.4,0.7l0.7,0.8
	l-0.1,0.4l0.4,0.8l1.1,0.3l0.5-0.3l1.2,0.8l0.4,0l0.6,0.1l-0.1,0.9l-0.6,0.5l-0.5-0.1l-0.2,0.7l0.5,0l-0.6,0.9l-1-0.2l0,0.8l0.5,0.1
	l-0.3,0.9l-0.7,0.8l-0.8,0l-0.1,0.2l0.6,0.4l0.4-0.1l0.1,1.1l-0.2,0.9l-1.3,0.6l0,0.3l0.8-0.3l0.3,0.3l-0.8,1.9l-0.1,1.3l0.4,0.1
	l-0.2,0.4l0,1.3l-0.6,0.4l-0.3,0.8l-0.4,0.1l0.1,0.9l-0.2,1l-0.3,0l-0.5,0.7l0.7,0.2l0.5-0.4l0.2,1.1l-0.4,2.3l0.4,0.9l-0.7-0.2
	l-0.6,0.3l-0.8-0.1l-1.6,0l-0.4-0.3l-0.9-0.2l-0.8,0.1l-0.4-0.4l-0.7,0l-0.3,0.9l-0.6,0l0.2,0.3l-0.4,0.3l0.1,0.6l-0.1,0.8l0.8,1.1
	l0.1,1.6l-0.2,0.7l0.1,1l-1.8,0.4l-0.7-0.9l0-1l-0.4-0.3l-0.2-0.7l0.2-0.2l-6.5,0.5l-10,0.7l-12.6,0.9l-6.6,0.4l-0.7-0.6l-0.4-1
	l-0.2-1.1l-0.6-0.6l-0.4-1l-0.2-0.8l-0.4-0.8l-1.1-1.1l0.1-0.7l-0.3-0.7l0.3-0.3l-0.2-1.1l0.3-1.1l-0.2-0.6l0.2-0.8l-0.3-1.6l-1-1.1
	l0-0.6l-0.5-1.6l0.1-0.6l0.6-1l0.2-1.2l0-1.2l-0.2-0.7l0.5-0.8l0.6-0.4l-0.1-0.3l0.5-0.1l0.4-0.8l-0.6-0.5l-0.9-0.3l0.3-1.6
	l-0.5-0.4l-0.3-1.1l-0.9-0.8l-0.6-0.9l-0.5-2l-0.7-0.5l0.1-0.5l-0.5-0.4l-2.6-9.4l-1.2-4.1l-1-3.9l-1.4-5l-1.7-5.9L589.6,341.7z"/>
<path class="st5" d="M763.1,158.3l0.5-0.3l-0.1,0.5L763.1,158.3z M761.9,159.3l-0.1-1.2l0.4,0.4l0.9,0.5l-0.4,0.8l-0.3-0.4
	L761.9,159.3z M760.7,156.6l0-0.6l0.7,0.8L760.7,156.6z M757.9,159.2l0.5-0.2l0.3,0.5L757.9,159.2z M758.8,165.2l0.2-0.6l0.3,1
	L758.8,165.2z M757.3,161.4l0.2-0.6l0.8-0.9l0.6,0.5l-0.3,0.2l0.8,0.9l-0.3,0.6l-0.6,0.4l-0.6-0.2l0.1-0.4l-0.3-0.6L757.3,161.4z
	 M756.4,159.3l0.2-1l-0.2-0.9l0.3-0.4l0.3,0.3l-0.2,0.6l0.2,0.5l0,1l-0.3,0.5L756.4,159.3z M742.6,182.8l-1.7-0.7l-0.2-0.9l0.1-0.6
	l-2.1-1.2l-0.5-0.6l0-1.4l-0.2-0.1l-0.1-1.2l-0.3-0.2l-1.3-4l-0.3-1.2l-3.5-11.1l-3.2-9.7l0.8-0.4l-0.1-0.4l1.1,0.3l0.1,0.5l0.4,0.5
	l0.5,0.1l0.2-1.2l-0.2-1.1l-0.3-0.3l0.3-0.6l0.3,0l0.6,0.4l0.8-0.1l-0.1-0.5l-1.2-0.8l-0.2-0.4l0.5-1.6l0.4-0.5l0.3-0.7l0.3-0.1
	l0.4-0.7l0.8-0.7l-0.6-0.8l0.6-1.1l0.7-0.8l0-0.8l-0.4-0.3l-0.5,0.1l-0.2-0.9l0.2-0.6l-0.4-0.1l0.4-0.8l0-0.6l-0.7-0.4l0.2-1.7
	l0.2-0.3l-0.2-0.5l0.5-0.6l0.3-0.9l0.4-0.2l-0.5-4.4l4.7-13.8l0.5-0.1l1.1,0.2l0.4-0.2l0.1,0.8l0.6,1.8l0.2,0.2l1.6,0.5l0.8-0.8
	l0.8-0.7l1-0.3l0.2-0.8l1.1-0.5l1-0.1l-0.2-0.8l0.5-0.5l0.9-0.2l1,0.2l0.3,0.4l1.5,0.5l1.8,1.3l0.1,0.2l1.2,0.3l2.1,7l2.8,8.9
	l0.2,0.9l0.5,0.3l-0.4,0.7l0.8,0.7l-0.4,0.6l0.6,1.7l0.9,0l0-0.3l0.6,0.6l0.8,0.1l1.2-0.1l0.5-0.4l0.5,0.7l0.3,0.7l-0.5,0l-0.3,0.4
	l0.5,0.8l0.9,0.6l0,1l-0.2,0.6l1.3,1.2l0.1,0.3l0.8,0.3l0.4-0.5l-0.1-0.6l0.8,0.2l0.7-0.2l0.7,0.6l0.4,0.6l-0.2,0.3l0.5,0.3l0.9,1.1
	l0.7,0.3l0.5,1.5l-0.3,0.8l-0.4,0.1l0,0.5l-0.8,1.8l-0.8,0.6l0.2,0.2l-0.5,0.3l0.1-0.6l-0.5-1l-0.9,0.7l0.7,0.6l-0.3,0.7l-0.5,0
	l-0.3,0.9l-0.6-0.1l-0.3,0.3l0.2,0.4l0.8,0.3l-0.6,1l-0.7-0.4l-0.5-0.7l-0.5,0.3l0,0.5l-0.3,0.1l-0.5-0.7l0,0.9l-0.3,0.3l0,1.1
	l-0.3-0.2l0,0.7l-0.3-0.5l-0.6,0.9l-0.3-0.3l-0.1,1.3l-0.8-0.3l-0.1-0.5l-0.3,0.4l-0.5,0l0.3,0.8l-0.3,1.1l0.6,0.3l-1.3,0.6l-1-0.1
	l-1-1.2l0.1-0.4l0.7-0.6l-0.5-0.5l-0.4,0.6l-0.1-0.6L761,155l0.3,0.9l-0.2,0.1l-0.2-0.8l-0.7,1l0.3,0.4l-0.1,0.6l0.8,0.7l0.1,0.6
	l-0.6,1.3l0.4,0l-0.3,0.5l0.6,0.6l0.1,1l-0.6,0.3l-0.4-1.1l0.2-0.1l-0.3-0.7l-0.8-0.4l-0.4-0.8l0.4-0.8l-0.9-0.3l0.1-0.4l-0.4,0
	l-0.6,0.5l-0.4-1.5l0.3-0.7l-0.2-0.7l-0.3-0.1l-0.1,0.7l-0.4,0.7l-0.5-0.3l-0.1,0.5l-0.6,0.2l0.8,0.9l0.1,0.7l-0.4,0.4l-0.1,1l0.1,1
	l-0.2,1.2l0.8,0.2l-0.4,0.5l0.6,0.6l-0.2,0.6l-1.1,0.3l-0.2,1.1l-0.6,0.2l0.1,0.8l-0.4,0.2l-0.2-0.7l0.1-0.6l-0.4-0.1l0,0.4
	l-0.4,0.3l0-0.9l-0.7,0.3l0.2,0.7l-0.5,0.7l0,0.7l-0.7-0.5l0.1,0.6l-0.5,0.6l-0.6-0.2l0.1,0.9l-0.7-0.5l-0.2,1.3l-0.8,0.6l-0.1,0.3
	l-0.5-1l-0.6,0.1l-0.4,0.7l-0.1,0.6l-0.8,0.2l-0.1,0.7l-0.8,0.2l-0.2,0.7l0.1,0.7l0.3,0.3l-0.2,0.5l-0.6-0.2l-0.8,0.6l-0.2,0.7
	l0.5,0.8l-0.2,0.6l-0.3,0.3l0.2,0.4l-0.5,0.5l-0.6,0.1l-0.3,0.4l-0.1,1.4l0.3,0.2l-0.3,1.2l0.1,0.3l-0.3,1.1L742.6,182.8z"/>
<path class="st6" d="M444.5,127.8l3.1,0l10,0l8.6,0l-0.1-6l1,0.5l1-0.3l1.1,0.7l0.3,0.5l0.6,2.7l0.3,0.3l0.7,3.3l-0.2,0.9l0.2,0.7
	l0.5,0.6l1.1,0.6l0.9,0.1l0.3-0.3l1.7,0.1l0.4,0.8l2.3,0l1.8,0.2l0.3,0.9l-0.1,0.7l0.2,0.2l1.6-0.1l0.2-0.2l0.8,0l0.9-0.3l-0.1-0.6
	l1.2-0.6l1.5-0.3l0.3,0.3l2-0.1l2.8,1.2l1-0.1l0.1,0.7l-0.7,0.1l-0.1,0.5l0.6,0.4l1.5-0.2l0.6,0.7l-0.2,0.5l0.3,0.6l1,1.7l0.9-0.4
	l-0.3-1.1l0.5-0.6l0.6,0.1l1.6-0.3l0.6,0.6l0,0.9l0.7,0.5l0.5-0.1l0.4,0.5l1.6,0.1l0.2,0.9l-0.1,0.4l0.8,0.2l0.9-0.2l-0.1,1l0.8-0.4
	l0.5,0.3l0.7-0.4l1.3-0.3l1.7-1.6l0.6-0.2l0.5-0.5l0.9-0.5l0.5,0.1l0,0.9l0.7,0.2l-0.2,0.4l0.4,0.6l0.6,0l1.3-0.5l0.2,0.4l0.9-0.3
	l1,0.2l0.7-0.2l1.8-0.2l1.1,0.3l0.4,0.9l1.3,0.6l0.5-0.5l0.8-0.2l0.5,0.2l0.9-0.1l0.4,0.2l0.9-0.4l-1,0.8l-0.4-0.2l-0.1,0.5
	l-0.6,0.2l-0.9,0.8l-1.4,0.5l-0.5,0.5l-1.9,0.7l-1.8,0.8l-0.6,0.1l-1.6,0.7l-0.1,0.2l-1.9,1.1l-1.4,1.1l-2.6,2.6l-0.6,1l-2,2.5l-1,1
	l-1,0.6l-0.9,1.2l-0.4,0.2l-1,1.2l-0.4,0.2l-2.3,1.9l-0.3,0.4l0.3,0.7l0.6,0.6l-0.8-0.6l-0.5,0.2l-0.1,0.4l-0.6,0.2l0.4,0.2
	l-0.4,0.6l-0.9-0.2l0.4,9.2l-0.4,0.1l-0.2,0.8l-0.9-0.1l-0.4,0.8l-0.6-0.2l-0.3,0.5l-1,0.3l-0.8,0.7l-0.7,2l-0.8,0.7l-0.2,1.5
	l0.1,0.7l0.8,0.3l0.4-0.1l0.6,0.4l0,0.4l0.9,1.1l0,0.7l-0.6,0.7l0.1,0.4l-0.7,0.7l0.1,1.2l-0.1,0.4l0.3,1.2l-0.6,0.8l0.5,0.4l0,0.9
	l0.3,0.5l-0.3,0.6l0.2,1l-0.4,1.1l0.2,0.5l0.7,0.3l1.3,1.1l0,0.3l0.6,0.2l0.4,0.6l2,0l0.5,0.2l0.4,1l0.6,0.5l2,0.6l0.9,0.5l0.6,0.5
	l0,0.7l0.3,0.2l0.3,1.1l0.7,0.6l1.1,0.5l0.1,0.4l1.5,1.2l1.6,0.3l0.6,0.7l1.3,1.8l0.4,1l-0.2,1.5l0.1,1l0.4,0.5l-0.1,0.6l0.4,0.7
	l-8.3,0.4l-9.1,0.3l-4.7,0.2l-9.1,0.2l-7.3,0.1l-12.7,0.1l-8.1,0l0.1-16.5l0-1.4l0-4.1l0-6.5l-0.4-0.9l-1.4-0.8l-0.7-0.1l-0.5-0.7
	l-0.3-1l-1-1.3l0.2-0.6l1-0.8l0.9-0.5l0.5-0.8l0.6-0.6l0.2-1.7l-0.1-1.4l0.2-0.5l-0.4-2.5l0-1.7l-0.5-0.4l-0.8-1.3l-0.2-0.7
	l-0.1-1.6l-0.4-0.8l-0.1-0.5l0.2-0.9l-0.2-1.5l0.2-0.2l0.2-1.6l-0.2,0.1l-0.4-0.7l0.1-2.3l-0.2-1.2l-0.1-1.5l0.1-0.7l-0.3-1.4
	l0.1-2.9l-0.2,0l-0.3-1.2l-0.4-1.2l-0.3-0.2l-0.4-1.4l-0.1-0.8l-0.4-0.5l-0.2-1.6l-0.6-1.4l-0.1-1.5l0.3-0.7l-0.3-1.2l0.1-0.7l0-1.4
	l-0.3-0.8l0.3-1l0.3-0.3l0.1-0.8l-0.6-1.1l-0.3-1.7l-0.2-0.3l-0.4-1.3L444.5,127.8z"/>
<path class="st2" d="M700.4,249l0.4-1l0.3-0.5l0-0.9l0.4-0.7l0.6-0.7l1.5-0.7l0.9-0.8l-0.2-0.9l0.6-0.5l0.2-0.5l1.2-1.3l0.7-0.4
	l0.3-0.8l0.4,0l0.6-0.7l-0.8-0.8l-1-0.4l-0.4-0.6l-1-0.5l-0.5-0.8l-1.1,0l-0.3-0.6l-0.2-1.3l-0.5-0.4l-0.7,0.2l-0.4-0.1l-0.3-1.1
	l0.2-0.5l-0.4-0.2l0.1-1.4l0.5,0l0.6-1.7l-1.3-1.4l0.4-0.8l0.7-0.6l0.5-0.9l-0.2-0.3l0.6-0.6l0.3-0.8l0.2-1.8l0.7-1.1l0.6-0.3
	l4.1,1.5l6.2,2l0.2,0.2l-0.2,2.7l-0.3,1l0,0.9l-0.2,0.3l-0.2,0.5l-1.4,0.8l0.1,1.2l-0.3,0.3l0,0.7l0.1,0.6l0.9,0.2l0.6-0.4l1.1,0.3
	l0.6,0l0-0.6l0.4,1.2l0.2,1.4l0,2.5l0.2,3.4l0.3,2.3l-0.9,3.6l-0.3,0.7l-0.4,0.2l0.2,0.4l-0.3,0.8l-0.6,1l0,0.3l-1.1,1l-1,1.7
	l-0.5,1.8l-0.5,2.2l-0.7,1l-0.8,0.4l-0.5-0.1l0-1.2l0.3-1.4l-0.1-0.9l-1-0.3l-0.8,0.1l-0.3-0.3l-0.8,0.2l-0.2,0.5l-0.5-0.2l-0.2-0.6
	l-0.9-0.3l-0.2-0.4l-0.4,0.3l-0.8-0.8l-0.3,0.2l-0.9-0.6l-0.6-0.7l-0.9-0.2l-0.2-1.9l-0.6-0.3L700.4,249z"/>
<path class="st7" d="M710.9,306.7l0.9,0.1l0.7,0.9l0.2,0.6l-0.7,0l0-0.6L710.9,306.7z M710.2,320.9l0.2-0.9l0.4-0.1l1.9-1.6l0.6-0.3
	l0.5-0.6l0.5-0.1l0.6-0.6l0.6-0.3l0-1l-0.2-3.5l-0.2-0.7l-0.6-1.2l-0.6-1.3l0.1,0l0.8,1.3l0.5,1.2l0.3,1.8l0.2,3.9l-1,0.3l-2,1.3
	l-1.7,1.5L710.2,320.9z M635.6,310.1l3.8-0.4l2.4-0.3l4.2-0.5l1.6-0.3l5.1-0.5l2.1-0.3l7.5-1.3l12.3-2.2l3.3-0.7l11.6-2.3l4.7-0.9
	l0-0.1l1.4-0.3l5.3-1.1l6.2-1.3l0.3,0.8l1.5,3.1l1.2,2l1.5,1.9l2.3,3.3l-0.4-0.1l-1.2-1.8l-0.9-0.9l-0.6,0l-0.9-2.2l-1.2-1.9
	l-0.4-0.2l0-0.5l-0.5-1.1l-0.5-0.3l-0.3-0.6l-1.1,0.1l-0.2-0.5l-0.5,0.4l0.4,0.8l0.8,0.5l0.5-0.2l0.2,0.9l1,1.7l0.6,0.7l0,0.4
	l0.7,0.9l0.1,0.6l-1-0.7l-0.1-0.5l-0.7-0.7l-0.2-0.5l-0.6,0l0.4,0.4l-0.1,0.4l0.7,0.4l-1.4,0l-1.7-1.3l-0.7,0l1.1,1.1l0.5,0.1
	l0.4,0.6l-0.3,0.4l-1,0.4l-1.1-0.8l0.5,0.8l0.5,0.3l-0.3,0.3l-1.5-0.3l-0.6,0.1l-0.3-0.3l-0.9-0.2l1.2,0.8l1,0.1L703,306l-1,0.3
	l-0.4,0.9l-0.6,0.4l-0.8,0.1l-0.4-0.3l-0.9,0l-0.9-1.5l-0.2-0.8l0.3-1.1l-0.3-0.1l-0.4,1.1l0.1,1l0.6,1.2l0.7,0.9l-0.1,0.6l0.4,0.4
	l1.7-0.5l1.5-1l0.5,0.6l0.6-0.2l0.5-0.5l1.1-0.6l1.4-0.3l0.7,0.4l0.1,0.6l-0.4,1.2l0.3,0.7l0.6,2.2l0.4-0.2l0-1.6l-0.3-2l0.5-0.7
	l-0.4-0.4l0.6-0.4l1.2,0l1,1.1l0.5,0.8l0,0.7l0.6,1.2l-0.3,0.4l0.3,0.7l-0.4,0.8l-0.7,0.3l-0.3-0.2l-0.4,0.3l-0.2,0.6l-0.4,0.2
	l0,0.6l-0.3,0.2l-0.1,1l-0.5,0.3l0,0.6l-0.7,0.5l-0.1,0.3l-1.2-0.1l-1.3,0.3l-1.2,0l-0.3-0.3l-0.4,0.3l-0.8-0.5l-0.9-1.4l1.4-0.3
	l0.1-0.6l-1.2,0.6l-0.6,0l-0.3,0.5l0.6,0.7l0.5,1.1l-0.3,0.1l-1.4-0.4l-0.6,0.3l-1-0.3l-1.5-0.1l-1.2-0.4l0,0.4l0.9,0.7l1-0.1
	l3.1,0.8l2.1-0.1l0.4,0.3l0.2,0.5l-0.2,0.8l-0.4,0.8l0.1,0.4l-0.3,0.8l-0.6,0.7l-1.9,2l-2.5-1l0.2,0.9l1.2,0.5l1.7,0.2l1.4-1.4
	l0.6-0.1l1.1-0.7l0-0.9l0.5,0.1l0.3,0.9l0.4,0.3l0.8-0.1l-0.6-0.9l1,0.2l0.3,1.1l-0.6,1.2l-0.8,0.3l0.1,0.5l-0.4,0.4l-0.4,1.3
	l-0.1,1l-0.8-0.1l-0.2-1.1l-0.5-0.2l0.3,1.1l-0.7,0.2l2.1,0.5l0.7-1.9l1.1-1.9l0.9-1.2l1.6-2.8l0.4,0.2l-1,1.4L708,324l-0.8,1
	l-0.7,1.2l-0.6,1.3l-0.6,1.7l0,0.5l-0.4-0.9l-1.7-0.4l-1.8,0.3l-2.6,1.1l-1.2,0.7l-0.8,0.6l-1.2,1.4l-1.6,1.4l-1,1.1l-1.4,1.8
	l-0.5,0.9l-0.8,1.9l-0.4,1.6l-0.2,1.6l-0.2,1l0,1l-0.6,0l-0.2-0.4l-1-0.1l-1.1,0.1l-1.3,0.3l-1.3,0.4l-1.5,0.9l-0.3,0.3l-5.1-3.6
	l-5.6-4l-1.7-1.3l-4.7-3.3l-2.8,0.5l-3.4,0.5l-8.1,1.2l-0.1-1.8l-2.3-2.4l-1.2,1.2l-0.3-0.2l0.2-0.7l-0.2-0.7l-2.5,0.2l-4.8,0.5
	l-8.6,0.9l-1,0.4l-0.3-0.5l-0.4,0.8l-0.3-0.1l-0.9,0.5l-0.3,0l-1.2,0.8l-1.2,1l-0.4-0.2l-3.9,1.9l-6.5,1l0.1,0.1l-8.9,1.1l-0.1-3.8
	l0.9-0.8l0.2,0.3l1.3-0.2l0.9-1l-0.3-0.7l0.4-0.4l-0.3-0.6l0.7-0.9l0.6-0.3l0.3-0.7l0.7-0.2l0.6-0.7l3.6-0.6l0.4-0.7l0.9-0.6
	l0.2-0.4l0.5,0l0.6-0.7l0.1-0.5l0.7-0.2l0.3-0.6l0.9-0.5l1.1,0.1l1-1.7l-0.3-0.8l0.4-0.5l0.7,0.4l0.7-1.4l1.3-1.2l0.5,0.5l-0.1,1
	l0.7,0.2l1.1-1l0.5-1.4l0.6-0.6l0.7-0.4l0.5,0l0.3-0.5l0.9,0l0.3,0.6l0.7-0.1l0.6-0.5l1.1-2.9l0.8-0.9l0.5-0.2l0.4,0.3l0.8-0.1
	l-0.6-0.9l0.2-0.9l0.2-0.2l-0.3-1.1L635.6,310.1z"/>
<path class="st8" d="M369.8,321.7l9.4,0.7l7.8,0.5l6.7,0.4l8,0.4l5.5,0.2l-1.3,30.7l0.9-0.2l1.6,2l1.1,1.1l1.4,0.3l0.3-0.7l0.8,0.1
	l1,0.7l0.6,0l0.2-1.2l0.8,0.8l0.7,0.1l-0.2,0.3l0.8,0.8l0.2,1.9l0.8,0l0.1,0.3l0.6-0.1l0.4,0.2l0.8-0.3l0.9,0.7l0.8,0.4l0.6,0.1
	l0.6,0.4l1,0.1l0.6-0.5l1,0.3l1.1,1.3l0.9-0.3l0.2-0.6l0.5-0.5l0.9,0.4l0.7,0l0.9,0.3l0.8-0.6l0.2,0.7l-0.4,0.5l0.4,1.2l0.9,0.2
	l0.6-0.2l0.3,0.3l-0.3,0.8l0.2,0l-0.2,0.9l0.4,0l0.7,0.5l0.6-0.1l1.4-1.2l0.6-0.8l0.4,0l0.9,0.6l-0.1,0.6l0.5,0.3l0.7-0.4l0.6,0.3
	l-0.1,0.9l0.2,0.4l0.9,0.1l0.5-0.9l0.4-0.1l0.6,0.3l0.1-0.6l0.5-0.3l0.4,0.4l0.1,0.9l-0.5,0.4l0.5,1.3l0.5,0.2l0.5-0.4l-0.1-0.9
	l0.6-0.3l-0.5-0.6l0.6,0.3l0.8-0.8l-0.1-1l0.3,0.2l0.7-0.4l0.2,0.2l0.3,1.3l0.4,0.3l0.3-0.4l0.6,0.2l0.2,0.6l0.8-0.1l0.4-1.2
	l1.2,0.2l-0.6,0.8l0.7,0.4l0.5-0.1l0.4,0.8l1-0.1l0.8,1.1l0,0.3l0.6,0l0.3-1.1l0.9,0.3l0.7-0.2l0.4-1.2l0.7,0.1l0-0.3l0.7,0.2
	l1.4-0.4l0-0.4l1.3,0.8l0.4-0.4l0.6,0.1l0-0.6l0.9,0l1.1-0.7l0.5,0l0.3,0.8l1-0.1l0,0.2l1.6,0l0.6-0.1l0.5-0.4l0.3-0.9l1.3,0.4
	l1.1,1.1l1,0l0.3,0.8l1,1l0.6,0.1l0.7-0.2l0.9,1.1l0.8,0l0.1,0.3l0.7-0.2l0.9,1l0.4-0.3l0.4-0.1l0,0.7l0.5,0.3l0.4-0.1l-0.1,0.5
	l0.5,0.1l0.2-0.4l0.4,0.2l0.1-0.4l1,0.3l0.5-0.6l0.6,0.2l0.2,0.4l0.3-0.3l0.8,0.3l0,0l0,0.1l0.2,8.3l0.3,16.2l0.4,0.2l0.5,1l0.9,0.4
	l0.5,1.1l0.7,0.7l-0.1,0.5l0.4,0.7l-0.3,0.6l0.2,0.6l-0.3,0.4l0.3,0.7l0.4,0.4l0.6,0.1l0.2,0.5l-0.3,0.4l0.7,0.5l0,0.4l0.4,0.2
	l0.2,0.7l-0.3,0.7l0.6,0.6l0.3,0l0.3,1.5l0.9-0.2l-0.3,1.4l0.4,0.4l0.1,0.7l-0.6,0.3l0,0.4l0.6,0.7l-0.4,0.3l-0.1,0.5l0.2,0.8
	l-0.4,0.5l-0.4,0.9l-0.1,1l-0.6,0.4l-0.1,0.9l-0.7,0.4l-0.1,0.5l0.3,0.3l0.3,1.2l-0.6,0.7l-0.3,1l0.8,0.7l0.1,0.7l-0.2,0.5l0.5,1.1
	l-0.6,1l0.4,0.2l-0.5,0.7l-0.7,0.5l-0.3,1.1l-0.6,1l-0.8,0.6l-0.1,0.3l0.4,0.4l0.9,1.3l0,0.2l-2.3,0l-1.8,0.6l-6.2,2.9l-1.4,0.8
	l-0.5,0.7l-0.7-0.1l1.1-1l0.4-0.6l0.6,0l0.4-0.3l0.4-0.6l0.4,0.2l0.5-0.1l-0.7-0.7l-2.6,0.8l-0.4-0.3l0.8-1.2l0.2-1.1l0-1l-0.6-0.1
	l-0.2-0.3l-0.8,0.4l-0.5,0.6l-0.2,0.7l-0.7,0.3l-0.3-0.6l-0.9,0.6l-0.1,0.5l0.4,0.4l-0.5,0.7l0.5,0.7l1,0.2l-0.3,0.7l0.5,0.3
	l0.1,1.1l-0.1,0.9l-0.4,0.4l-0.4-0.1l-0.9,1l-1.1,0.9l-0.2-0.3l-0.6,0.1l-0.1,1.2l0.3,0.3l0.6-0.6l1.3-0.9l0.1-0.3l1.6-1.4l0.7-0.3
	l0-0.6l1.3,0.2l-1,0.8l-3,2.1l-1.2,0.9l-0.2,0.3l-1.6,1.2l-2,1.9l-0.7,0.1l-3.4,2l-1.7,1.1l-2.6,1.2l-3,1.5l-1.7,1.2l-0.6,0.6
	l-0.8,1l-2.6,1.5l-1.2,0.9l-2.4,2.1l-1.6,1.9l-0.6,1.1l-0.7,0.8l-1.7,2.9l-1.2,2.6l-0.6,1.7l-0.5,2.6l-0.1,1.4l0,1.4l0.4,2.8
	l0.7,2.8l0.6,1.8l0.8,3.1l0.5,3.5l-0.3-0.6l-0.2-2l-0.6-2.5l-0.5-2l-1.2-0.2l0.9-0.3l-0.4-1.1l-0.3-1.2l-0.4-1.2l-0.1-1.4l0.1-1.8
	l0-1.6l0.6-3.7l0.8-2.4l1-2l0.7-0.9l0.5-1.2l0.4-0.5l-0.1-0.6l0.7-1.1l0.9-0.5l0.5-0.6l0.9-1.7l1.4-0.8l0.4-0.7l0.8,0l1.8-1.4
	l1.1-0.7l1.2-0.3l-0.2-0.6l0.4-0.4l-0.4-0.2l-0.8,0.5l-1,0.5l-0.6,0.5l-0.8,0.1l-0.3-0.5l0-0.8l-0.9-0.2l-0.3,0.4l0,1.1l-0.3,0.3
	l0.3,0.6l-0.2,0.5l-1,0.7l-0.9,0.8l-0.4,0l-0.9-0.4l-0.1-0.6l-1.6,0.8l-0.9,0.9l1,0.3l1.2-0.8l0.4,1l-0.4,0.3l-1.9,3l-0.6,0
	l-0.3-0.7l-1.1,0.1l-0.2-0.2l-1.6,0.1l-0.5-0.2l-0.3,0.5l0.6,0.4l0.8,0l0.6-0.2l-0.2,0.9l0.3,0.7l0.7,0.5l0.8,0.3l-1,1.9l-0.7,2.5
	l-0.6,1.4l-1,0.3l-0.4,0.4l-0.6-0.3l0.7-0.3l0.2-0.8l-0.4,0l-0.3,0.4l-1.5,1l0.2,0.4l1.2,0.2l1.3-0.5l0.4,0l-0.3,1.6l0.2,0.1
	l-0.2,2.7l-0.3,2.8l-0.2,0l0.5,3.1l0.4,0.9l0,1.1l0.5,0l1.1,2.9l0.2,0.4l-0.5,0.6l0.2,0.5l-0.1,0.8l0.4,1l1,0.2l0,0.5l0.6-0.2
	l0.1,1.7l-1.2-0.1l-0.7,0.1l0,0.3l-1.1,0.1l-0.3,1.3l-1-0.2l-0.4-0.5l-0.8-0.1l-0.3-0.7l-0.6-0.1l-0.9-1.3l-1.6-0.2l-0.6-0.5
	l-0.9,0.1l-0.4-0.2l-1.2,0.2l-0.2-0.2l-0.7,0l-0.2,0.4l-0.5-0.4l-1,0.2l-0.4-0.3L426,489l-0.7-0.3l-0.4-0.4l0.2-0.3l-0.8,0l-0.1-0.6
	l-0.8,0l-1-1l-0.5,0.1l-1.3-0.7l-1,0.3l-0.6-0.5l-0.7-0.9l-0.5-0.1l-0.1-0.4l-0.4-0.2l-0.9,0.2l-1-0.7l-0.6,0l-0.4-0.3l-0.6,0.2
	l-0.4-0.6l0.3-0.7l-0.5-0.8l-0.6-0.2l-0.1-1.3l-0.3-0.6l-0.1-1.1l-0.4-0.3l0-0.7l-0.3-0.9l-0.8-0.6l0.1-0.4l-0.6-0.4l-0.3-0.5
	l0.3-0.3l-0.5-0.6l-0.5-0.1l0-0.7l0.3-0.4l-0.1-0.9l0.2-0.4l-0.2-1.2l-0.8-0.4l0.1-0.5l-0.6-0.2l0.5-0.4l0.3-1.1l-0.1-0.4l0.2-0.8
	l-0.6-0.2l0.3-1l-0.6-0.8l-0.4,0.2l-0.3-0.6l-0.5,0.2l-0.4-0.5l-0.5,0.1l-0.9-1.2l-0.4-0.2l-0.1-0.5l-0.4,0.1l-0.5-0.5l0-0.7
	l-0.3-0.4l0.2-0.5l-0.6-0.7l0.1-0.6l-0.8-0.3l-0.3-1.1l-0.5-0.3l-0.4-1l-1.7-0.8l-0.2-0.7l-0.3,0l-0.6-0.8l0.1-0.5l-0.8-1.4l0.2-0.6
	l-0.4-0.5l0.5-0.4l-0.6-0.2l-0.4-0.7l0.2-0.5l-0.7-0.4l0.1-0.4l-0.7-0.4l-0.2-0.7l0.1-0.5l-0.4-0.4l-0.2-1l-0.3,0l-0.4-1.2l-0.4,0
	l-0.3-0.6l0.1-1l-0.3-1.4l-0.9-0.7l-0.5-0.6l0.2-0.2l-0.4-1l-1.1-0.6l-0.1-0.4l-0.8-0.7l-0.9-0.4l-0.6-1.2l0-0.3l-1.3-0.4l-0.3-0.6
	l-1.1-0.2l0.2-0.8l0-0.9l-0.2-0.1l-0.3,0.9l-0.3-0.4l0.1-0.7l-0.8-0.4l-0.6-1.5l-0.4,0l-0.4-0.5l-0.7,0.3l-0.3-0.6l-0.4,0.3
	l-1.8,0.1l-0.9-0.5l-0.3,0.1l-0.7-0.3l-1.1,0.1l-0.6-0.4l-0.8,0l-0.2,0.3l-1.3-0.4l-0.5-0.7l-0.6,0l-0.9-0.6l-0.7,0.2l-0.6,1.5
	l-1.6-0.4l-0.5,0.5l-0.3-0.2l-1.1,0.4l-0.3-0.2l-0.4,0.7l0.1,0.3l-0.7,0.5l0,0.7l-0.3,0l-0.2,0.8l-0.6,0.4l0,0.4l-0.4,0.8l0,0.7
	l-0.3,0.6l-0.5,0l-0.2,1l-0.3,0.5l0.5,0.3l-0.3,0.5l-0.9,0.4l-0.5-0.1l-0.4,0.9l-0.9,0.5l-0.4,0.5l-0.3,1.1l-0.7,0.1l-0.8-0.3
	l-0.7,0.1l-0.6-0.7l-1.3-0.4l-1.2-1.6l-1.1-0.5l-0.5,0.1l-1-0.6l-0.8-1.1l-0.6-0.4l-1.9-0.4l-0.8-0.4l-0.9-0.9l-0.5-0.2l-0.8-1.2
	l0-0.3l-0.6-0.7l-1-0.2l-0.6-0.4l-0.2-0.5l-1.4-1.2l-0.4-0.6l-0.2-1.5l-0.5-0.8l-0.3-0.8l-0.6-0.9l0.1-0.8l-0.3-0.8l0.4-0.9
	l-0.1-0.7l0.2-0.7l-0.3-0.9l-0.5-0.5l-0.1-0.6l-0.6-0.6l0-0.4l-0.6-0.5l0.1-0.4l-0.4-2.4l-0.3-0.6l-0.6-0.1l-0.4-1.3l-0.7-0.1
	l-0.6-1l-0.6-0.2l-0.1-0.3l-0.7-0.5l-0.6,0l-0.3-0.4l-1.4-0.7l0.1-0.5l-2-1.8l-0.5-1.5l-0.5-0.6l-0.8-0.4l-0.4-0.5l-0.4-0.1l0-0.5
	l-1-1.5l-0.9-0.6l-0.1-0.7l-0.6-0.5l-1-0.2l-1.6-1.2l-0.4-1.2l-0.4-0.4l-0.2-0.9l-0.5-1.3l-0.4-0.6l-0.8-0.6l-0.6,0.2l-0.5-0.6
	l-0.2-0.4l-0.7-0.4l0.1-0.3l-0.4-0.4l-0.1-0.5l0.4-0.2l0.2-1.4l15.7,1.7l11.8,1.1L355,392l8.7,0.7l1.2-16.4l0.3-3.4l0.2-2l0.5-5.6
	l0.3-3.1l1.5-20.6l0.5-5.9l0.8-11l0.2-2.9L369.8,321.7z"/>
<path class="st9" d="M684.3,263.7l0.7-1.1l1.9,1.3l-1.2,1.9l-0.3-1.2L684.3,263.7z"/>
<path class="st10" d="M452.1,214l8.1,0l12.7-0.1l7.3-0.1l9.1-0.2l4.7-0.2l9.1-0.3l8.3-0.4l-0.2,0.7l0.4,0.7l0,1l1.1,0.5l0.6,1
	l-0.7,0.9l-0.2,0.7l-0.4,0.3l0.1,1.5l0.4,1.2l0,0.9l0.5,0.3l0.7,2.3l1.4,0.8l2,0.4l0.7,0.2l0.8,1.4l0,0.5l0,0.6l0.9,0.4l0.1,0.3
	l0.9,0.4l0.7,0.8l-0.1,0.8l0.7,1l2,0.9l0.6,0.5l0,1.2l0.3,0.5l-0.2,0.8l0.2,0.8l-0.3,1l0.1,0.6l-1.1,0.7l-0.4,0.4l0,0.7l-0.3,0.8
	l0.1,0.9l-0.7,0.3l-0.7,0.8l-1.1,0l-0.4,0.2l-0.6,0.8l-1,0.3l-1.3,0l-0.9,0.6l-0.6-0.2l-0.8,0.3l-0.2,0.8l0,1l-0.4,1.1l0.9,1.1
	l0.6,0.1l0.6,1l0.1,1.3l-0.2,1.5l-0.5,0.3l-0.5,0.9l-0.4,0.4l0,0.9l-0.2,0.7l0,0.8l-0.7,0.6l-0.8,0l-1.3,0.6l-0.5,1l0.5,0.5
	l-0.1,1.2l0.1,0.7l-0.5,0.2l-0.8-0.1l-0.5-0.4l-0.1-0.8l-0.4,0l-0.7-0.7l0-0.5l-0.8-0.2l-0.1-0.4l-0.5-0.5l-4.3,0.4l-6.4,0.4
	l-8.4,0.4l-2.6,0.1l-5.5,0.2l-6.6,0.2l-6.8,0l-7.1-0.1l0.2-0.4l-0.4-0.8l-0.6-0.2l-0.6-0.8l0.1-0.5l0.5-0.5l-0.2-1.1l0.4-0.7
	l-0.3-0.4l0.1-0.9l-0.4-0.3l0-0.6l-0.3-0.4l0.2-0.4l-0.2-1.3l0.5-0.2l-1-0.3l0.2-0.5l-0.2-0.9l0.5-0.6l-0.8-0.4l0.3-0.4l0-1.6
	l-0.8-0.1l0.1-1l-0.4,0l-0.1,0.5l-0.6-0.4l0.1-0.8l-0.5-0.5l0.3-0.5l-0.3-0.6l0.5-0.2l-0.2-0.7l0.3-0.3l0.1-0.6l-0.5-0.3l0-0.5
	l-0.6-0.8l0.3-0.1l0.1-0.9l-0.7-0.1l0-0.4l-0.6-0.2l0.2-0.2l-0.6-0.3l0-1.1l-0.9-0.8l-0.1-0.7l0.4-0.3l-0.6-1.4l-0.5-0.4l0-1
	l0.4-0.6l-0.2-0.6l-0.6-0.1l-0.5-0.4l0.2-0.6l-0.4-1.2l-0.7-0.8l-0.6-0.4l0-1l0.5-0.4l0.1-0.7l0.5-0.2l0-1.1l0.5-0.6l-0.2-0.3
	l0.3-0.4l-0.2-0.8l0.6-0.2l0.3-0.9l-0.4-0.5l-0.1-1.1l-1,0l0.1-0.4l-0.3-0.7l0.6-0.1l0-1.5l-0.9-0.9l0.3-0.5l-0.2-0.3L452.1,214z"/>
<path class="st11" d="M542.6,314.2l-0.7-0.7l0.1-0.8l0.7-0.8l0.3-0.9l0.5-0.6l0.6-0.3l0.8,0l1.4,0.5l0.7,0.5l1.6,0.4l0.9,0.6
	l0.6,0.1l0.7-0.2l0.3-1.2l-0.4-0.9l-0.8-0.8l-0.1-0.3l0.3-0.9l0-0.8l0.7-0.7l0.6,0.3l0.7-0.8l0.5-0.2l2.1-0.4l0.2-0.7l-1-0.8
	l-0.4-1.4l0.4-0.8l0.7-0.5l0.3-0.9l1,0.3l0.5-0.7l-0.5-1.2l0.4-0.6l0.4,0l0.5,0.7l1.8-0.6l0.3,0.4l-0.1,0.8l0.5,0l0.5-0.6l-0.6-0.8
	l0.2-0.9l0.4,0.1l0.3,0.6l0.6,0.2l0.6-0.6l0.9,0l1,0.5l1,0.7l0.8,0.1l0.4,0.8l0.5-0.1l0.3-0.4l0.1-1.3l0.4-0.4l1.2-0.5l0.5-0.8
	l0.7-0.1l0.6,1.2l0.5,0.3l0.4-0.4l0.5,0.1l-0.2,0.7l0.3,0.3l0.4-0.4l0-0.9l1-0.2l-0.3-0.5l0-1.3l0.8-0.2l0.2-0.6l-0.4-0.2l0.4-0.4
	l0.4,0.3l0.3-0.4l0.6-0.1l0-0.3l-0.6-0.1l-0.1-0.5l0.3-0.1l1,0.8l0.2,1.3l1.2,0.6l1-0.1l0.7,0.7l0.1-0.5l1-0.4l0.3-0.4l0.1-1
	l-0.2-1.2l0.6-1.1l0.2-0.9l0.4-0.2l0.6,0.3l0.8-0.6l0.6-2.3l1.3-0.6l0.2-0.6l0.6-0.6l-0.4-0.9l-0.4-1.7l0.5-0.5l0.7,0l1.1-0.2
	l0.5,0.5l0.8,0l0.5-0.6l1.4-1l0.4,0l0.7-0.4l1-0.1l-0.3-0.6l0.5-0.7l-0.2-0.3l-0.7,0l-0.2-0.5l0.4-0.6l-0.1-0.4l-0.8-0.9l0.1-0.3
	l0.7-0.7l0.7-0.7l0.3,0l0.7,0.7l0.9,0.3l0.6-0.5l0.6,0l0.3-0.4l0.4,0.1l0.3,0.9l1.3,0.3l0.6,1.1l0.8,1l0.1,0.9l0.3,0.3l1.8,0.3
	l1.4-0.4l1.3,0.5l0.2,0.4l0.7,0.3l0.3,0.6l1.3,0.2l0.5-1l1.1-0.4l0.7,0.3l1.2,0.1l0.5,0.3l0.3,0.6l0.5-0.4l1.3-0.2l0.3-0.8l0.7-0.6
	l0.3-0.6l0.6-0.1l0.8-0.6l0.4,0.4l0,0.6l0.6,1.4l0.6,0.4l0.9,0l1.1,0.9l0.6,0.4l0.2,0.6l0.1,1.2l0.4,0.4l0.1,0.8l-0.4,0.5l0.2,0.2
	l0,0.8l-0.3,0l0.1,0.5l0.7,0.4l0.5,0.5l0.5,1l0.7,0.2l-0.4,0.8l0.4,0.5l0.7,0.2l0,0.5l0.7,0.7l0.5,0.2l0.8,1.7l0.7,0.1l0.4,0.5
	l0.4-0.1l0.4,0.5l0.4,0l0.2,0.5l1.3,0.2l0.6-0.1l-4.1,5l-1.6,0.8l-0.9,0.7l-0.7,0.8l-1,0.8l0.2,1.2l-0.6,0.6l-0.5,0.1l-0.5,0.5
	l0.2,0.8l-0.2,0.6l-1,0.6l-1.3,0.2l-0.6,1.2l0,0.7l-0.7,0.2l-1.4,0.7l-1.6,0.9l-0.9,0.1l-1.4,0.9l-0.3,0.4l-0.1,0.3L607,314
	l-3.5,0.4l-3.4,0.3l-3.7,0.3l-2.3,0l-3.3,0.3l-2.4,0.5l-4.3,0.4l-2.5,0.1l-3.7,0.1l-2.2,0.2l-0.7,0.4l-0.3-0.3l-6.5,0.8l-4.1,0.4
	l-5.1,0.6l0-0.5l-2.7,0l0.6,2l-0.2,0.9l-6.1,0.4l-5.6,0.4l-3.8,0.2l-1.5,0.2l0.4-2l0.6-0.2l0.9,1l0.6-0.3l0.2-1l0.3-0.4l-0.5-0.8
	l0.1-0.6l0.7,0l0.1-0.4l-0.8-0.4l0-0.5l0.4-0.2l0.2-0.6l0.1-1.2L542.6,314.2z M538.7,322.2l-0.7,0l-0.5-0.8l0.2-0.4l0.9,0l0.3,0.7
	L538.7,322.2z"/>
<path class="st12" d="M581.2,169.4l0.3-0.3l0.4,0.8l2.6,0.5l-0.6,0.9l-0.9-0.1l-0.6-0.8L581.2,169.4z M573.3,171.7l0.1-0.6l0.3,0.2
	L573.3,171.7z M571.8,171l0.9,0.4l-0.1,0.5l-0.8-0.4L571.8,171z M571.1,174.8l0.2-0.7l0-0.9l0.2-0.2l0-0.8l0.7,0l0.1,1.1l0.3,1.1
	l-0.7,0.7L571.1,174.8z M570.1,172.7l0.5-0.2l-0.1,0.7l-0.3,0L570.1,172.7z M568.6,177.5l0.5,0.2l0.1,0.8L568.6,177.5z M567,182.5
	l0.2-0.3l0.8,0.3l-0.1,1.3l-0.7-0.6L567,182.5z M566.3,184.6l0.4-0.6l0.3,0.6L566.3,184.6z M559.4,175.7l0.9,0.8l-0.3,0.3l-0.2-0.5
	l-0.6-0.5L559.4,175.7z M563.8,236.4l1.2-1l1-1.3l1.2-3.7l1.2-2.1l0.6-1.9l0.3-1.4l0.2-2.4l-0.1-0.8l0.1-1.2l-0.3-2.2l-0.5-2.4
	l-0.6-1.6l-1.7-3l-0.6-1.2l-0.7-1.8l-0.8-1.5l-0.1-0.6l0.8-1.5l0.2-0.7l-0.1-1l-0.5-1.8l-0.7-1.2l0.1-0.4l0.7-0.8l0.8-2.1l0.7-1.6
	l0-1.7l0.2-1.8l-0.6-1.5l0-0.4l1-0.7l0.8-0.3l0.1-1.3l-0.2-1l0.3-0.5l0.5,0.2l0.5-1.1l0.8,0.4l0.7-0.2l0.3-0.5l0.2-1.2l0.4-0.3
	l0.5-1.3l0.4-0.7l0.4,0.1l0.4-0.5l0.2,0.5l-0.7,0.5l-0.1,0.6l0.6,1l-0.8,1.2l0.5-0.3l0.1,1l-0.2,0.1l-0.2,1.2l0.4,1.2l0.3,0l0.5-2
	l0-1.3l0.5-0.3l-0.1,2.2l-0.5,0.7l-0.1,0.9l0.6,0.1l0.2-0.9l0.3-0.2l0.7-1.9l0.1-1.1l-0.1-0.7l0-1.1l-0.4-1.1l0.1-1.3l0.6-0.7
	l0.4-0.1l0.6-0.7l0.7-0.3l1,0l1-0.3l0.4-0.3l-0.1-0.4l-1.3-0.1l-0.6-0.6l-0.5-1.5l0.5-1.1l0.5-0.2l0.7-1l-0.1-0.4l-0.7-0.3l2.4-0.1
	l0.2-0.7l2.5,1.1l1.1,0.7l0.5-0.3l0.5,0.2l0.5-0.2l1.3,0.3l1.1,1l0.2,0.7l0.7,0.3l1.3-0.2l0.3,0.1l1.3,0.9l0.9,0l1.5,0.8l1.1-0.2
	l1,0.9l0.5,0.3l-0.3,0.4l0.8,1.2l0.5,0.3l0.8,1.7l-0.8-0.2l-0.7-0.4l-0.5,0.6l0.4,1.5l0.6,0.5l0.9,0.2l0.3,0.8l0.2,1.3l0.3,0.5l0,1
	l-0.2,0.9l0.2,0.9l0,1.5l0.2,1.6l-0.5,0.3l-0.4,0.9l-1,0.1l-0.3,0.4l-0.1,1.5l0,1.6l-0.8,0.2l-0.3,0.3l0.1,0.7l-1.7,0.3l-0.5,0.5
	l-0.2,1.1l0,1.7l-0.2,0.6l0.7,1.2l0.7,0.3l0.3-0.5l0.3,0.5l0.8,0.2l0.6,0.4l0.4-0.3l0.9-1.8l0.6-0.1l0.2-0.4l-0.4-0.6l0.3-0.6
	l0.2-1.2l0.2,0.7l0.7-0.5l0.1-0.4l-0.9-0.3l1-0.1l0.4-0.4l0.1-0.6l0.9-0.3l1.3-0.6l0.3-0.7l1.2-0.6l0.5,0.3l1,0.2l0.7,0.4l0.9,1.6
	l0.5,0.4l0.5,1.3l0.6,2.8l1,2.3l0.6,3.3l0.7,1.9l0.9,1.4l0.2,0.6l-0.4,0.7l0,2l0.3,0.6l-0.3,1.6l0,0.9l-0.6,1l-0.6,0l-0.4,0.6
	l-0.1-0.9l-0.4-0.3l0.4-0.3l0.5-0.9l-0.6-0.3l-0.6,0.2l-0.7,0.6l-0.2,0.5l0.4,0.3l0.2,0.6l-0.6,0l-0.4,0.8l0.2,1.1l-0.1,1.1
	l-0.6,0.8l-1.2,0.5l-0.6,1.4l0.3,1.7l0,0.6l-0.6,0.4l0.1,0.9l-0.6,0.6l-0.2,0.6l-0.5,0.1l-0.2,0.9l-0.4,0.2l-0.6,1.1l0.3,1l-0.3,0.2
	l-3.5,0.6l-6.9,1.1l-5.1,0.8l-0.1-1l-3.6,0.4l-7.8,0.9l-8.2,0.8L563.8,236.4z M528.9,142.8l0.7-1l3.5-2.1l0.3,0l1.5-1.4l1.1-0.7
	l0.2,0.1l1-0.5l0,0.4l-0.4,0.2l-1.1,1.2l0,0.4l-0.9,0.8l-1.9,0.9l-1.5,1l0.1,0.3l0.9-0.1l-2.2,1.1l-0.7,0L528.9,142.8z M517.7,164
	l0.7-0.6l0.5-0.1l1.5-0.7l1.4-0.5l1.1-1.1l0.7-0.9l0.6-0.4l1.3-0.3l0.6,0.2l1.1-0.4l0.9,0l1.9-1.1l1.1-1.3l0.8-0.1l1.1-0.4l0.3-0.6
	l0.1-0.7l0.9-0.9l0.5-0.3l1.1-1.2l0.9-0.4l0.7-0.8l0.4-0.8l0.7-0.8l2.1-1.3l2.1-0.5l1.9-0.1l0.9,0.4l0.1,0.6l-0.4,0l-0.6,0.4
	l-0.7-0.1l-0.8,0.2l0.2,0.6l-1.2,0.9l-1,1.4l-0.7,0.3l-0.1,1l-0.3-0.1l-0.2,0.7l-0.5,0.4l-0.1,0.9l-0.4,0.7l-0.3,0.1l-0.3,2.2
	l0.3,0.7l-0.3,0.5l0.4-0.1l0.7-1.2l0.1-0.6l0.3,0.2l1-1.2l1-0.7l-0.4,0.8l-0.4,0.4l-0.5,1.1l1.1-1.2l1-0.3l0.6,0.1l1.4-0.1l0.6,0.4
	l0.3-0.1l0.7,0.4l0.4,0.5l0.6-0.2l0.9,0.8l0.2,0.8l0.7,0.6l0.3,0.6l0.6,0.6l0.8,0.1l0,1.1l0.5,0.3l1,0.1l1.6-0.3l0.9-0.7l0.4,0.1
	l0.6,0.9l0.5,0.3l0.7,0l0.3-0.6l0.6,0l0.4,0.5l0.1-0.9l-0.3-0.7l0.6-0.3l0.3,0.4l-0.2,0.8l0.7,0.3l0.9-1.1l1.5-1l2.1-1.7l0.5,0.2
	l2.3-0.8l1.8,0l1.4-0.1l1.1-0.2l2.3-1.4l0.9-0.3l1.2,0l1.2-0.3l-0.7,1.2l0.1,1.8l0.1,0.6l-0.3,0.3l0.4,0.6l0.6,0l0.3-0.3l0.3,0.3
	l0.6-0.1l0.7,0.3l1.2-0.8l0.5,0l0.5,0.6l0,0.5l0.9-0.5l0.3,0.1l0.3-0.9l0.7-0.4l0.9,0.1l0.4-0.2l0.2-0.6l1.1-0.1l0.2,0.4l-0.2,1.4
	l0.5,1.6l0.2,1.3l-1.1,0.2L585,164l0.6,0.1l0.2-0.3l0.6,0l0.4,0.5l0.8,0.2l-0.4,0.6l1.1,0.9l0.5,0l0.9,0.5l0.2-0.5l0.6,0.4l0.3-0.4
	l-0.8-1.3l0.6,0.1l1.6-0.4l0.5,0.1l0.7,1.1l0.7,0.3l-0.3,0.9l-0.5,0.3l-1.1-0.4l-1.2,0.4l-1.3-0.4L589,167l-1.1,0.1l-1.1-0.2
	l-2.3,0.6l-0.5,0.4l-1.6-0.7l-0.7-0.6l-0.5,0.2l-0.6-0.3l-0.3,0.6l0.2,0.7l-0.5,0.5l0.1,0.6l0.5,0.8l-0.4,0.3l-1-0.5l-0.2-0.4
	l-0.9-0.4l-0.2-0.4l-1-0.8l-1.6-0.4l-0.5,0.2l-1.4-0.5l-0.7,0.1l-0.5-0.3l-0.2,0.3l-0.8-0.1l-0.9,1.1l-0.6,1.1l-0.3,0.1l-1.3-0.2
	l-0.9,0.3l-0.3,0.3l0.1,0.4l-1-0.4l-0.8-0.1l-0.9,0.3l-0.4-0.1l-0.9,0.4l-0.5,0.6l0,0.9l-0.3,1l-0.6,0l-0.2,0.6l-0.8,0.3l-0.2,0.6
	l-0.5,0.1l0.1,0.6L560,175l0.2,0.8l-0.8-0.4l-0.4-0.5l0.4-0.4l0-0.5l0.4-0.5l0-0.5l0.5,0l0.5-1.2l-0.2-0.6l-0.5-0.1l-0.6,1.1
	l-1.5-0.2l0.2,0.7l-0.4,0.7l-0.1,0.8l-1.1,0.5l-0.2,0.4l-0.3-0.5l0-0.7l-0.2-0.9l-0.4-0.4l-0.4,0.3l0,1.6l0.1,0.2l-1.1,0.9l-0.9,1.8
	l-0.5,2l-0.7,0.9l-0.7,1.6l-1.4,2.5l0.3,0.4l-0.8-0.1l-0.4-0.6l-0.5-0.3l-0.1-0.4l0.5-1.6l0.4-0.7l-0.1-0.5l-0.5-0.3l-0.6,0.7
	l-1.1,0.2l0,0l-0.3-0.6l0.2-0.3l-0.2-0.5l0.5-0.5l0.2-0.6l-0.2-0.6l0.2-1l-0.6-1l0.5-0.2l-0.4-0.6l-0.5-0.2l-0.3-0.4l-0.9,0
	l-0.4-0.5l-0.8,0.3l-0.8-0.5l0.6-0.8l-0.3-0.3l-0.1-0.6l-1.6-0.5l-0.5,0.2l-1-0.6l-0.5,0.2l-0.8-0.2l-0.1-0.3l-1.1,0.1l-0.1,0.4
	l-0.5,0l-0.2-0.4l-0.7-0.2l-0.5,0.2l-3.5-1.7l-11.4-2.3l0-0.4l-1.2-2.2l-1.1-0.2l-0.4-0.3l0,0l-0.5,0.1L517.7,164z"/>
<path class="st13" d="M249.6,105.9l8.6,1.8l8.5,1.7l7,1.4l7,1.3l12.8,2.3l7.8,1.3l8.6,1.3l12.2,1.7l5.2,0.7l10.8,1.4l8.4,1l5.3,0.6
	l11,1.1l4.3,0.4l6.2,0.5l-0.8,9.5l0,0.2l-3.2,37.8l-0.2,3.1l-1,11.7l-0.2,0l-4.6-0.4l-9.9-1l-5.2-0.5l-0.9,0l-7-0.8l-5.7-0.7
	l-0.5-0.1l-12.5-1.5l-8.7-1.2l-0.4-0.2l-7.7-1l-3.4-0.5l-1,0l-1.8-0.3l-0.4,0l-3.3-0.5l-0.8-0.3l-3-0.4l-0.4,2.1l-0.6,3.8l-0.3,2.4
	l-0.8-0.4l-0.1-0.7l-0.8-0.9l0.2-0.6l-0.9-1.7l-0.6-0.6l-0.4,0.6l-0.8-0.1l0.1,0.5l-0.8,1.2l0.5,1L284,183l-0.4,0.2l-0.9-0.3
	l-0.2,0.2l-1.3,0.3l-0.4-0.9l-0.9,0l-0.6,0.2l-0.4-0.2l-0.9,0.3l-0.3-0.3l-0.6,0l-0.4-0.5l-0.6-0.2l-0.4,0.4l-0.4-0.1l-0.2,0.8
	l-0.4,0.5l-0.9-0.7l-0.4,0.2l-0.4-0.4l-1.3-0.3l-0.6-0.4l-0.7,0.2l-0.8,0.9l0.1,0.7l-0.4,0.2l-0.3-0.7l-0.7-0.4l-0.5-0.6l-0.1-0.7
	l0.3-0.4l-0.6-1.2l0.5-0.6l-0.1-0.7l-0.4-1.6l-1.1-1l-1.1,0.4l-0.1-0.6l-1-0.9l-0.2-1.4l0.6-0.1l0.2-0.7l0-0.8l-0.6-0.7l0.1-0.3
	l-0.6-0.3l-0.1-1l-0.8-1.1l0-0.5l-0.4-0.8l0.3-0.9l-0.3-0.3l-0.1-0.8l0.3-0.4l0.1-0.6l-0.7-0.1l0.5-1.2l-0.5-0.4l-0.5-0.1l0.1-0.3
	l-0.3-0.7l-0.5-0.5l-0.4,0.1l0,0.6l-0.7,0.4l-0.9,0.9l-0.8,0.2l-0.5-0.3l-0.3,0.7l-1,0.4l-0.1-0.5l-0.5-0.4l-0.3-0.9l-1-0.2l0.3-0.7
	l-0.2-0.5l0.8-0.4l0.2-0.6l-0.5-1.1l0.9-1l1,0.2l0.4-0.5l-0.4-0.8l0.4-0.6l-0.7-0.5l0-0.7l0.5-0.7l-0.6-0.6l0.2-0.6l0.7,0.1l0.2-1.1
	l-0.2-0.4l0.6-0.2l0.3-1.5l0.7-0.8l-0.1-1l0.5,0.1l0.7-1.5l0-0.8l-0.3-0.2l-1.1,0.1l-0.2,0.2l-0.8-0.4l-0.7-0.1l-0.2-0.6l0.3-0.5
	l-0.2-0.4l-0.5-0.2l-0.2,0.4l-0.6,0.2l-0.2-0.3l0.4-0.7l-1.1-1l-0.5-0.9l0.3-0.9l-0.6-0.9l-0.5-0.1l-0.1-0.8l-0.5-1.2l-0.5-0.8
	l-0.4-0.3l-0.1-0.5l-0.4-0.2l0.2-0.5l-0.2-0.6l-0.9-0.3l-1.1-0.8l-0.1-0.8l-1.5-1.5l-0.4-0.1l0.6-0.4l0.8,0.1l0.2-0.3l-0.6-0.2
	l0-0.8l-0.4-0.2l0.2-0.4l0.6-0.3l-0.3-0.8l0.2-0.8l-0.4-0.4l-0.1-0.7l-0.3,0l-0.1-1.2l-0.5-0.4l-1-2.3l0.7-3.7l0.3-1.4L249.6,105.9z
	"/>
<path class="st14" d="M726,155.4l-0.1-0.9l0.5-1l-0.2-0.2l0.2-1.1l-0.6-0.3l0.7-0.3l0.1-0.4l0.7-0.8l0.8,0.6l1.1-0.2l0.3-1l3.2,9.7
	l3.5,11.1l0.3,1.2l1.3,4l0.3,0.2l0.1,1.2l0.2,0.1l0,1.4l0.5,0.6l2.1,1.2l-0.1,0.6l0.2,0.9l1.7,0.7l-0.6,2.6l0.1,0.6l-0.3,0.3
	l-0.7-0.2l-1.3,0.8l-0.1,0.9l-0.8,0l-0.5,0.6l0.3,0.8l-0.8,0.2l-0.2,0.7l-5.1,1.2l-8,1.7l-0.5-0.6l-0.2,0.2l-0.8-1.2l0.1-1.1
	l-0.1-0.8l0.5-0.3l0.2-0.7l-0.4-0.6l0.2-0.5l-0.4-0.8l-0.3-1.9l0.3-1l-0.4-0.7l-0.1-1.9l-0.3-0.4l0-1l0.5-0.6l-0.1-1.5l0.2-0.7
	l0.6-0.8l0.1-0.6l-0.3-0.8l0.5-1.1l-0.3-1.1l0.3-0.7l0.2-1l-0.2-0.6l-0.6-0.8l0-0.8l-0.3-0.4l0.2-0.9l1.3-0.8l0.4,0.1l0.6-0.4l0-0.7
	l0.9-0.4l0.4-0.7l0.1-0.7l0.5-0.5l-0.4-0.7l0.4-0.3l-0.2-1l-0.5-0.4l-0.8-1.2l0.4-0.8l-0.1-0.9l0.4-1.2l-0.8-1L726,155.4z"/>
<path class="st15" d="M621.2,337.5l3.9-1.9l0.4,0.2l1.2-1l1.2-0.8l0.3,0l0.9-0.5l0.3,0.1l0.4-0.8l0.3,0.5l1-0.4l8.6-0.9l4.8-0.5
	l2.5-0.2l0.2,0.7l-0.2,0.7l0.3,0.2l1.2-1.2l2.3,2.4l0.1,1.8l8.1-1.2l3.4-0.5l2.8-0.5l4.7,3.3l1.7,1.3l5.6,4l5.1,3.6l-0.6,0.2l-1.5,1
	l-1.1,1.1l-1.3,1.9l-0.6,1.2l-0.2,0.7l-0.6,0.9l-0.4,1.4l-0.2,2.4l0.3,0.7l-0.2,0.7l-0.5,0.7l-1,0.7l-0.2,1.4l-0.8,0l-0.7,0.4
	l-0.6-0.4l-0.7,0.6l-0.3,0.9l0.2,0.4l0.3-0.2l0.1,0.4l-0.6,0.4l-0.7,0.7l-0.3,0.8l-1.4,1.1l-0.6-0.4l-0.5,0.2l0,0.4l0.8,0.2
	l-0.1,0.8l-1,0.9l-0.2,0.6l-0.5,0l-1.1,0.5l-0.7,0.9l-0.3-0.2l-1.5,1.5l-0.4-0.2l-0.6,0.5l-0.2-0.4l-0.6,0.1l-0.1,0.6l0.9,1l-0.2,1
	l-1.4,1.1l-0.8,0.4l-0.2-0.5l-1-0.4l-0.5,0.4l0,0.4l0.6,0.1l0.8,0.7l-0.6,1l-1,1l-0.4,0.1l-0.7,1l0.3,0.2l-0.4,0l-1.2-0.8l-0.5,0.3
	l-1.1-0.3l-0.4-0.8l0.1-0.4l-0.7-0.8l0.4-0.7l-0.4-1l-0.2,0.1l-0.9-1.3l0.1-0.5l-1.2-0.9l0-0.3l-1.2-0.2l-0.7-0.6l0.1-0.6l-0.3-0.6
	l-0.3-0.1l0.1-0.6l-0.3-0.4l-0.2-1.1l-0.4-0.1l-0.2-0.6l-0.7-0.8l0.1-0.9l-1-0.4l-0.9-0.7l-0.4,0.1l-1.4-0.5l-0.5-0.5l0-0.6
	l-0.5,0.1l-0.7-0.5l0.1-0.4l-1.5-0.9l0.1-0.5l-0.3-0.5l0.2-0.6l-0.2-0.3l-0.7-0.2l-1-1.1l-0.9-0.4l-0.6,0.1l-0.7-0.4l-0.1-0.5
	l-0.5-0.5l-0.3-0.8l-1.5-1.1l-1.4-0.5l-1-0.8l-0.4,0l-0.7-1.3l-0.7-0.6l-0.5-0.9l-0.6-0.2l-0.4-0.9l-0.1-0.7l-0.6-0.6l-0.2-0.7
	l-0.6-0.3l-0.3-0.8l-0.5-0.8l-0.4-0.1l-1.2,0.4l-1.1-0.5l-1.2-1.3l-0.8,0l-1.5-0.9l-0.3-0.8l0.3-0.4l-0.1-0.5l1-1.6l1.3-1.1
	L621.2,337.5z"/>
<path class="st15" d="M-60,40"/>
<path class="st15" d="M-60,40"/>
<text transform="matrix(1 0 0 1 570.8184 373.6934)" class="st16 st17">AL</text>
<text transform="matrix(1 0 0 1 178.8184 435)" class="st16 st17">AK</text>
<text transform="matrix(1 0 0 1 248.8184 341.5801)" class="st16 st17">AZ</text>
<text transform="matrix(1 0 0 1 333.8184 280.5645)" class="st16 st17">CO</text>
<text transform="matrix(1 0 0 1 647.8184 432.8154)" class="st18 st16 st17">FL</text>
<text transform="matrix(1 0 0 1 613.8301 370.2354)" class="st16 st17">GA</text>
<text transform="matrix(1 0 0 1 744.1288 144.855)" class="st16 st17">ME</text>
<text transform="matrix(1 0 0 1 -1066.1816 -965)" class="st16 st17">MA</text>
<text transform="matrix(1 0 0 1 464.6777 176.5874)" class="st16 st17">MN</text>
<text transform="matrix(1 0 0 1 662.4268 319.5029)" class="st16 st17">NC</text>
<text transform="matrix(1 0 0 1 414.8086 409.2861)" class="st16 st17">TX</text>
<text transform="matrix(1 0 0 1 -1066.1816 -965)" class="st18 st16 st17">CT</text>
<text transform="matrix(1 0 0 1 490.8184 296.123)" class="st18 st16 st17">MO</text>
<text transform="matrix(1 0 0 1 156.8184 288.9219)" class="st18 st16 st17">CA</text>
<text transform="matrix(1 0 0 1 -1066.1816 -965)" class="st16 st17">DE</text>
<text transform="matrix(1 0 0 1 -1066.1816 -965)" class="st18 st16 st17">DC</text>
<text transform="matrix(1 0 0 1 313.8184 500)" class="st18 st16 st17">HI</text>
<text transform="matrix(1 0 0 1 479.6641 237.6782)" class="st16 st17">IA</text>
<text transform="matrix(1 0 0 1 588.9667 299.9658)" class="st16 st17">KY</text>
<text transform="matrix(1 0 0 1 -1066.1816 -965)" class="st18 st16 st17">MD</text>
<text transform="matrix(1 0 0 1 579.4648 216.3647)" class="st16 st17">MI</text>
<text transform="matrix(1 0 0 1 303.9165 147.7705)" class="st16 st17">MT</text>
<text transform="matrix(1 0 0 1 -1066.1816 -965)" class="st16 st17">NH</text>
<text transform="matrix(1 0 0 1 646.2579 350.6387)" class="st16 st17">SC</text>
<text transform="matrix(1 0 0 1 -1066.1816 -965)" class="st18 st16 st17">VT</text>
<text transform="matrix(1 0 0 1 -1066.1816 -965)" class="st16 st17">RI</text>
</svg>
