<?xml version="1.0" encoding="utf-8"?>
<!-- Generator: Adobe Illustrator 24.1.0, SVG Export Plug-In . SVG Version: 6.00 Build 0)  -->
<svg version="1.1" id="Layer_1" xmlns="http://www.w3.org/2000/svg" xmlns:xlink="http://www.w3.org/1999/xlink" x="0px" y="0px"
	 viewBox="0 0 600 200" style="enable-background:new 0 0 600 200;" xml:space="preserve">
<style type="text/css">
	.st0{fill:#0D07FF;stroke:#FFFFFF;stroke-width:0.5093;}
	.st1{fill:none;stroke:#E32400;stroke-width:1.5326;}
	.st2{fill:#F27D9F;stroke:#FFFFFF;stroke-width:1.3663;}
	.st3{fill:#F1614B;stroke:#FFFFFF;stroke-width:1.1996;}
	.st4{fill:#FF6060;stroke:#FFFFFF;stroke-width:1.0285;}
	.st5{fill:#C45DFF;stroke:#FFFFFF;stroke-width:2.0914;}
	.st6{fill:#EF4466;stroke:#FFFFFF;stroke-width:1.0929;}
	.st7{fill:#FAC1B4;stroke:#FFFFFF;stroke-width:1.8173;}
	.st8{fill:#001C84;stroke:#FFFFFF;stroke-width:0.3051;}
	.st9{fill:#C5EDFF;stroke:#FFFFFF;stroke-width:1.4752;}
	.st10{fill:#F15C55;stroke:#FFFFFF;stroke-width:1.6655;}
	.st11{fill:#F78C36;}
	.st12{fill:#C5D0FF;stroke:#FFFFFF;stroke-width:2.8499;}
	.st13{fill:none;stroke:#D62800;stroke-width:6.3815;}
	.st14{fill:none;stroke:#D77CFF;stroke-width:6.3815;}
	.st15{fill:none;stroke:#FF9D9F;stroke-width:6.3815;}
	.st16{fill:none;stroke:#FF5130;stroke-width:6.3815;}
	.st17{fill:none;stroke:#FF7151;stroke-width:6.3815;}
	.st18{fill:none;stroke:#FF9F8D;stroke-width:6.3815;}
	.st19{fill:none;stroke:#7A92FF;stroke-width:6.3815;}
	.st20{fill:none;stroke:#36AEFF;stroke-width:6.3815;}
	.st21{fill:none;stroke:#747FFF;stroke-width:6.3815;}
	.st22{fill:none;stroke:#648DFF;stroke-width:6.3815;}
	.st23{fill:none;stroke:#FF7483;stroke-width:6.3815;}
	.st24{fill:#4FC9FF;stroke:#FFFFFF;stroke-width:2.6157;}
	.st25{fill:#930B00;stroke:#FFFFFF;stroke-width:0.8719;}
	.st26{fill:#FF5647;stroke:#FFFFFF;stroke-width:2.6157;}
	.st27{fill:#195CFF;stroke:#FFFFFF;stroke-width:2.9486;}
	.st28{fill:#394EFF;stroke:#FFFFFF;stroke-width:2.6157;}
	.st29{fill:#F79B82;stroke:#FFFFFF;stroke-width:2.6157;}
	.st30{fill:#FF7AA1;stroke:#FFFFFF;stroke-width:2.6157;}
	.st31{fill:#FF6060;stroke:#FFFFFF;stroke-width:2.6157;}
	.st32{fill:#68B2E2;stroke:#FFFFFF;stroke-width:2.6157;}
	.st33{fill:#E796FF;stroke:#FFFFFF;stroke-width:3.4419;}
	.st34{fill:#FF7F6B;stroke:#FFFFFF;stroke-width:3.579;}
	.st35{fill:#4F4FFF;stroke:#FFFFFF;stroke-width:3.6029;}
	.st36{fill:#FF9699;stroke:#FFFFFF;stroke-width:2.6157;}
	.st37{fill:#7AA8FF;stroke:#FFFFFF;stroke-width:2.6157;}
	.st38{fill:#F15C55;stroke:#FFFFFF;stroke-width:3.7961;}
	.st39{fill:#EF3B24;stroke:#FFFFFF;stroke-width:2.6157;}
	.st40{fill:#FFAA96;stroke:#FFFFFF;stroke-width:4.2983;}
	.st41{fill:#FAC1B4;stroke:#FFFFFF;stroke-width:2.6157;}
	.st42{fill:#FFD3CC;stroke:#FFFFFF;stroke-width:2.6157;}
	.st43{fill:#FF281C;stroke:#FFFFFF;stroke-width:4.5419;}
	.st44{fill:#7AA4FF;stroke:#FFFFFF;stroke-width:2.6157;}
	.st45{fill:#EE2724;stroke:#FFFFFF;stroke-width:2.6157;}
	.st46{fill:#EF4466;stroke:#FFFFFF;stroke-width:3.0931;}
	.st47{fill:#F27D9F;stroke:#FFFFFF;stroke-width:3.7572;}
	.st48{fill:#76A5FF;stroke:#FFFFFF;stroke-width:2.6157;}
	.st49{fill:#0D07FF;stroke:#FFFFFF;stroke-width:0.8719;}
	.st50{fill:#448EFF;stroke:#FFFFFF;stroke-width:2.6157;}
	.st51{fill:#6FC7FF;stroke:#FFFFFF;stroke-width:3.3839;}
	.st52{fill:#0069DB;stroke:#FFFFFF;stroke-width:2.6157;}
	.st53{fill:#84F3FF;stroke:#FFFFFF;stroke-width:7.4024;}
	.st54{fill:#FF8B7A;stroke:#FFFFFF;stroke-width:2.6157;}
	.st55{fill:#55CAF5;stroke:#FFFFFF;stroke-width:2.6157;}
	.st56{fill:#FF4715;stroke:#FFFFFF;stroke-width:2.6157;}
	.st57{fill:#638DC9;stroke:#FFFFFF;stroke-width:2.6157;}
	.st58{fill:#FF8176;stroke:#FFFFFF;stroke-width:2.6157;}
	.st59{fill:#B7C8FF;stroke:#FFFFFF;stroke-width:5.1528;}
	.st60{fill:#FFA8B4;stroke:#FFFFFF;stroke-width:4.2242;}
	.st61{fill:#526EFF;stroke:#FFFFFF;stroke-width:2.6157;}
	.st62{fill:#7DBFE9;stroke:#FFFFFF;stroke-width:3.9605;}
	.st63{fill:#C5EDFF;stroke:#FFFFFF;stroke-width:2.6157;}
	.st64{fill:#329FFF;stroke:#FFFFFF;stroke-width:2.6157;}
	.st65{fill:#D0D0D0;stroke:#FFFFFF;stroke-width:2.6157;}
	.st66{fill:#FF3E39;stroke:#FFFFFF;stroke-width:2.6157;}
	.st67{fill:#47DFFF;stroke:#FFFFFF;stroke-width:2.6157;}
	.st68{fill:none;stroke:#0F008D;stroke-width:6.3815;}
	.st69{fill:#001C84;stroke:#FFFFFF;stroke-width:0.8719;}
	.st70{fill:#F1614B;stroke:#FFFFFF;stroke-width:2.6157;}
	.st71{fill:#FF8B81;stroke:#FFFFFF;stroke-width:3.7175;}
	.st72{fill:#C45DFF;stroke:#FFFFFF;stroke-width:4.6687;}
	.st73{fill:#FF7AAB;stroke:#FFFFFF;stroke-width:3.9913;}
	.st74{fill:#DA2E27;stroke:#FFFFFF;stroke-width:3.4856;}
	.st75{fill:none;stroke:#CBDEFF;stroke-width:6.3815;}
	.st76{fill:none;stroke:#B5CDFF;stroke-width:4.8599;}
	.st77{fill:none;stroke:#FF101D;stroke-width:6.3815;}
	.st78{fill:none;stroke:#FFB1AA;stroke-width:6.3815;}
	.st79{fill:#4FC9FF;stroke:#FFFFFF;stroke-width:1.5955;}
	.st80{fill:#FF5647;stroke:#FFFFFF;stroke-width:0.8168;}
	.st81{fill:#FF9699;stroke:#FFFFFF;stroke-width:1.4746;}
	.st82{fill:#FF281C;stroke:#FFFFFF;stroke-width:2.8172;}
	.st83{fill:#7AA4FF;stroke:#FFFFFF;stroke-width:1.4053;}
	.st84{fill:#EE2724;stroke:#FFFFFF;stroke-width:1.058;}
	.st85{fill:#76A5FF;stroke:#FFFFFF;stroke-width:1.0208;}
	.st86{fill:#84F3FF;stroke:#FFFFFF;stroke-width:4.1424;}
	.st87{fill:#FF4715;stroke:#FFFFFF;stroke-width:1.0647;}
	.st88{fill:#B7C8FF;stroke:#FFFFFF;stroke-width:2.0629;}
	.st89{fill:#FFA8B4;stroke:#FFFFFF;stroke-width:1.8986;}
	.st90{fill:#D0D0D0;stroke:#FFFFFF;stroke-width:0.8169;}
	.st91{fill:#FF7AAB;stroke:#FFFFFF;stroke-width:1.4203;}
	.st92{fill:#930B00;stroke:#FFFFFF;stroke-width:0.5093;}
	.st93{fill:#394EFF;stroke:#FFFFFF;stroke-width:1.5278;}
	.st94{fill:#68B2E2;stroke:#FFFFFF;stroke-width:1.5278;}
	.st95{fill:#FFAA96;stroke:#FFFFFF;stroke-width:1.7548;}
	.st96{fill:none;stroke:#B3D7FF;stroke-width:3;}
	.st97{fill:none;stroke:#4B8DFF;stroke-width:2;}
	.st98{fill:#FFD3CC;stroke:#FFFFFF;stroke-width:1.1524;}
	.st99{fill:#448EFF;stroke:#FFFFFF;stroke-width:1.0469;}
	.st100{fill:#55CAF5;stroke:#FFFFFF;stroke-width:1.2672;}
	.st101{fill:#FF8176;stroke:#FFFFFF;stroke-width:1.5278;}
	.st102{fill:#526EFF;stroke:#FFFFFF;stroke-width:1.5278;}
	.st103{fill:#329FFF;stroke:#FFFFFF;stroke-width:1.1996;}
	.st104{fill:#DA2E27;stroke:#FFFFFF;stroke-width:1.457;}
	.st105{fill:none;stroke:#B722FF;stroke-width:3;}
	.st106{fill:#6FC7FF;stroke:#FFFFFF;stroke-width:1.3994;}
	.st107{fill:#E796FF;stroke:#FFFFFF;stroke-width:2.0104;}
	.st108{fill:#FF7AA1;stroke:#FFFFFF;stroke-width:0.75;}
	.st109{fill:#638DC9;stroke:#FFFFFF;stroke-width:0.919;}
	.st110{fill:none;stroke:#FFB3CD;stroke-width:2;stroke-miterlimit:10;}
	.st111{fill:none;stroke:#FFB09A;stroke-width:2;stroke-miterlimit:10;}
	.st112{fill:#FF3E39;stroke:#FFFFFF;stroke-width:1.2672;}
	.st113{fill:#FF8B81;stroke:#FFFFFF;stroke-width:1.8009;}
	.st114{fill:#FF7F6B;stroke:#FFFFFF;stroke-width:1.6413;}
	.st115{fill:none;stroke:#0077FF;stroke-width:2;stroke-miterlimit:10;}
	.st116{fill:#0069DB;stroke:#FFFFFF;stroke-width:1.1124;}
	.st117{fill:#FF8B7A;stroke:#FFFFFF;stroke-width:1.2351;}
	.st118{fill:#7DBFE9;stroke:#FFFFFF;stroke-width:1.6894;}
	.st119{fill:#7AA8FF;stroke:#FFFFFF;stroke-width:1.565;}
	.st120{fill:#C5D0FF;stroke:#FFFFFF;stroke-width:1.6898;}
	.st121{fill:#4F4FFF;stroke:#FFFFFF;stroke-width:1.8341;}
	.st122{fill:#F79B82;stroke:#FFFFFF;stroke-width:1.5726;}
	.st123{fill:none;stroke:#FF4655;stroke-width:3;}
	.st124{fill:#EF3B24;stroke:#FFFFFF;stroke-width:1.5278;}
	.st125{fill:#195CFF;stroke:#FFFFFF;stroke-width:1.0451;}
	.st126{fill:#47DFFF;stroke:#FFFFFF;stroke-width:1.1507;}
	.st127{fill:#0D07FF;stroke:#FFFFFF;stroke-width:0.6453;}
	.st128{fill:none;stroke:#E32400;stroke-width:3.8011;}
	.st129{fill:#F1614B;stroke:#FFFFFF;stroke-width:1.5199;}
	.st130{fill:#FF6060;stroke:#FFFFFF;stroke-width:1.6367;}
	.st131{fill:#C45DFF;stroke:#FFFFFF;stroke-width:3.4871;}
	.st132{fill:#EF4466;stroke:#FFFFFF;stroke-width:1.3848;}
	.st133{fill:#FAC1B4;stroke:#FFFFFF;stroke-width:2.3026;}
	.st134{fill:#001C84;stroke:#FFFFFF;stroke-width:0.4359;}
	.st135{fill:#C5EDFF;stroke:#FFFFFF;stroke-width:2.1075;}
	.st136{fill:#4FC9FF;stroke:#FFFFFF;stroke-width:2.2793;}
	.st137{fill:#FF5647;stroke:#FFFFFF;stroke-width:1.1668;}
	.st138{fill:#FF9699;stroke:#FFFFFF;stroke-width:2.1066;}
	.st139{fill:#FF281C;stroke:#FFFFFF;stroke-width:4.0245;}
	.st140{fill:#7AA4FF;stroke:#FFFFFF;stroke-width:2.0076;}
	.st141{fill:#EE2724;stroke:#FFFFFF;stroke-width:1.5114;}
	.st142{fill:#76A5FF;stroke:#FFFFFF;stroke-width:1.4583;}
	.st143{fill:#84F3FF;stroke:#FFFFFF;stroke-width:5.9177;}
	.st144{fill:#FF4715;stroke:#FFFFFF;stroke-width:1.521;}
	.st145{fill:#B7C8FF;stroke:#FFFFFF;stroke-width:2.9471;}
	.st146{fill:#FFA8B4;stroke:#FFFFFF;stroke-width:2.7123;}
	.st147{fill:#D0D0D0;stroke:#FFFFFF;stroke-width:1.167;}
	.st148{fill:#FF7AAB;stroke:#FFFFFF;stroke-width:2.0289;}
	.st149{fill:#930B00;stroke:#FFFFFF;stroke-width:0.6453;}
	.st150{fill:#394EFF;stroke:#FFFFFF;stroke-width:1.9358;}
	.st151{fill:#68B2E2;stroke:#FFFFFF;stroke-width:1.9358;}
	.st152{fill:#FFAA96;stroke:#FFFFFF;stroke-width:2.2234;}
	.st153{fill:none;stroke:#B3D7FF;stroke-width:2.759;}
	.st154{fill:none;stroke:#4B8DFF;stroke-width:2.5341;}
	.st155{fill:#FFD3CC;stroke:#FFFFFF;stroke-width:1.4602;}
	.st156{fill:#448EFF;stroke:#FFFFFF;stroke-width:1.3264;}
	.st157{fill:#55CAF5;stroke:#FFFFFF;stroke-width:1.6056;}
	.st158{fill:#FF8176;stroke:#FFFFFF;stroke-width:1.9358;}
	.st159{fill:#526EFF;stroke:#FFFFFF;stroke-width:1.9358;}
	.st160{fill:#329FFF;stroke:#FFFFFF;stroke-width:1.5199;}
	.st161{fill:#DA2E27;stroke:#FFFFFF;stroke-width:1.8461;}
	.st162{fill:none;stroke:#B722FF;stroke-width:2.055;}
	.st163{fill:#6FC7FF;stroke:#FFFFFF;stroke-width:1.7731;}
	.st164{fill:#E796FF;stroke:#FFFFFF;stroke-width:2.5473;}
	.st165{fill:#FF7AA1;stroke:#FFFFFF;stroke-width:0.9503;}
	.st166{fill:#638DC9;stroke:#FFFFFF;stroke-width:1.1644;}
	.st167{fill:none;stroke:#FFB3CD;stroke-width:2.8571;stroke-miterlimit:10;}
	.st168{fill:none;stroke:#FFB09A;stroke-width:2.8571;stroke-miterlimit:10;}
	.st169{fill:#FF3E39;stroke:#FFFFFF;stroke-width:1.6056;}
	.st170{fill:#FF8B81;stroke:#FFFFFF;stroke-width:2.2819;}
	.st171{fill:#FF7F6B;stroke:#FFFFFF;stroke-width:2.0797;}
	.st172{fill:none;stroke:#0077FF;stroke-width:2.8571;stroke-miterlimit:10;}
	.st173{fill:#0069DB;stroke:#FFFFFF;stroke-width:1.5892;}
	.st174{fill:#FF8B7A;stroke:#FFFFFF;stroke-width:1.7644;}
	.st175{fill:#7DBFE9;stroke:#FFFFFF;stroke-width:2.4134;}
	.st176{fill:#7AA8FF;stroke:#FFFFFF;stroke-width:2.2357;}
	.st177{fill:#C5D0FF;stroke:#FFFFFF;stroke-width:2.414;}
	.st178{fill:#4F4FFF;stroke:#FFFFFF;stroke-width:2.6202;}
	.st179{fill:#F79B82;stroke:#FFFFFF;stroke-width:2.2466;}
	.st180{fill:none;stroke:#FF4655;stroke-width:4.0056;}
	.st181{fill:#195CFF;stroke:#FFFFFF;stroke-width:1.3242;}
	.st182{fill:#47DFFF;stroke:#FFFFFF;stroke-width:1.458;}
	.st183{fill:#EF3B24;stroke:#FFFFFF;stroke-width:1.9358;}
	.st184{fill:#F27D9F;stroke:#FFFFFF;stroke-width:1.9519;}
	.st185{fill:#F15C55;stroke:#FFFFFF;stroke-width:2.6815;}
</style>
<path class="st127" d="M43.12,165.47l0.55-0.99l1.69-0.89l1.05-0.73l0.65,0l0.38-0.44l-0.26-0.96l0.83-0.31l0.56-0.67l0.39,0.39
	l-0.96,1.56l-0.29,1.28l1.06-0.57l-0.03-1.24l0.73-1.21l1.47-0.47l0.52-0.71l0.22-1.7l0.47-2.33l1.84-2.43l-0.66-4.23l0.12-2.77
	l1.34-5.92l14.59,8.15l-0.34,1.4l1.43,0.1l0.9,0.8l1.08,0.43l1.03,1.67l2.26,1.92l1.15,1.69l0.65,0.16l0.78,0.94l-0.2,0.67
	l0.65,2.03l0.17,1.49l-0.23,0.27l0.05,1.39l-1,0.16l0.2,1.3l0.39,0.55l-0.49,0.58l0.44,1.34l0.93,0.68l-0.17,0.62l1-0.25l0.81,0.66
	l-0.3,0.51l0.07,0.59l-0.17,0.62l-1.12-0.46l-0.82,0.54l0.61,1.24l0.82,0.89l0.14,0.94l2.03,0.66l-0.23,0.95l1.34,1.39l-0.56,0.67
	l-0.62,1.92l-1.35-0.19l-1.92,1.08l-1.54-0.64l-0.53-0.06l-0.52,2.14l0.5,0.85l-0.34,0.4l-0.19,0.83l-0.8,0.26l-1.47,1.07
	l-0.38,1.12l0.43,0.34l-0.92,0.92l-1.62,0.13l-0.79,1.1l-1.85,1.59l-0.43-0.34l-2.28-0.19l-1.61,0.88l-0.38,1.12l-0.88,0.95
	l-0.71,0.41L35.7,176.26l6.6-10.78L43.12,165.47z"/>
<path class="st128" d="M-4.36,184.55c37.38-11.27,64.99-25.04,83.2-35.46c27.81-15.92,30.75-22.32,52.91-30.8
	c24.71-9.45,37.8-7.9,79.43-15.32c25.21-4.49,45.51-9.53,58.68-13.08"/>
<path class="st129" d="M508.64,156.1l-3.39,5.06l-11.15,15.56l-11.85,15.55l-25.73-19.01l10.16-13.25l8.06-11.3l6.92-10.08
	l6.72,4.29L508.64,156.1z"/>
<path class="st130" d="M125.14,132.85l1.69,1.91l0.77,0.58l2.12,0.07l0.27,0.2l0.25,0.38l1.02,0.19l0.83,0.81l0.19,1.16l1.21,1.74
	l0.85,3.05l2.68,2.08l-0.32,0.4l1.02,0.19l0.35,0.26l0.35,1.66l0.46,0.28l1.33,0.05l0.32,0.3l-0.94,1.64l0.27,0.59l-0.61,0.3
	l-0.13,0.54l1.15,1.12l1.24-0.15l0.8,0.86l-0.36,0.68l-3.35,1.86l0.16,2.66l0.79,0.41l-0.89,1.11l-1.02,0.12l-2.04-0.39l-0.74-0.55
	l0.02-0.49l-0.47-0.42l-1.27,0.12l-1.25-0.37l-2.45-0.12l-2.03,1.53l-5.1,0.87l-1.06-0.54l-2.05-3.32l-0.86-0.39l-0.05-0.79
	l-0.5-0.38l-1.47,0.67l-1.22,0.98l-0.62,1.7l-1.3-0.16l-0.54-0.79l-1.15-0.42l-5.98,0.97l-1.28,0.44l-3.08-0.72l-2.47-1.09
	l-0.99-1.63l-0.05-0.48l-0.86-0.71l-0.57,0.01l-0.26-0.83l0.34-0.89l0.17-0.45l-0.15-0.74l-0.93-0.7l-0.39-1.37l-0.03-0.35
	l-1.32-1.06l-0.83-0.05l-0.43,0.31l-0.97-0.03l-1.23-1.56l0.64-1.42l0.76-0.95l0.64-2.19l-0.31-1.31l-0.9-0.74l-0.15-0.82
	l-0.83-1.44l-1.04-0.71l-2.24,0.09l-0.38,0.47l-0.71,0.04l-0.55-0.54l-1.2,0.18l-1.3,0.61l-0.08-0.37l13.5-19.01l1.81,1.3l2.86-0.01
	l1.97,0.72l1.75,0.3L125.14,132.85z"/>
<path class="st131" d="M133.57,118.36l2.16-1.04l12.46-22.37l0.27-0.58l-27.49-15.76l-0.98,1.02l-1.8-0.81l0.23-1.72l-19.38-11.1
	L80.32,93.65l0.63,4.69l-10.12,0.09l-0.51,5.57l14.57,0.95l4.42,0.47l1.22,1.11l8.02-1.18l1.99,2.09l5.97,2.43l3.2,2.92l11.88,3.43
	l5.54,2.58l2.93-0.07l1.58,2.81L133.57,118.36z"/>
<path class="st132" d="M147.19,175.42l0.09-0.66l-0.43-0.36L147.19,175.42z M139.56,157.59l-0.36,0.28l0.01,0.68l-0.26,0.51
	l0.53,0.59l-0.2,0.95l0.18,1.3l0.46,2.78l0.29-0.19l-0.18-1.04l-0.22-1.1l0.36,0.19l0.25,1.42l0.39,0.51l-0.18,0.59l0.67,2.31
	l-0.34-0.08l-0.99-2.44l0.86,2.57l0.87,1.1l-0.11,0.76l1.01,2.6l1.15,1.95l0.78,1.76l0.47,0.63l0.23-0.84l-0.47-0.63l-0.31-0.18
	l-0.24-0.53l0.62-0.28l-0.3-0.96l-0.42-0.15l0.19-0.43l0.38,0.35l0.46-0.53l-0.37-0.4l-0.24,0.42l-0.26,0.04l-0.21-0.21l-1.1-0.99
	l0.21-0.94l0.77,0.65l0.19,0.52l0.78,0.34l0.62,0.88l0.29,0.54l0.18,0.83l0.23-0.58l-0.36-0.45l0.08-0.35l-0.27-0.64l-0.46-0.21
	l-0.77-1.33l-0.39-0.3l-0.28-0.8l-0.09-4.07l-0.45,0l-0.24-0.53l0.07-1.03l0.4-0.44l-0.51-0.22l0.31-0.51l-0.49-0.06l0.18-0.59
	l-0.11-0.66l-0.51-0.22l0.11-0.5l-0.5-0.01l0.08-0.35l-0.5-0.01l0-0.95l-0.94-1.01L139.56,157.59z M139.84,157.24l-0.02-0.85
	l-0.48-0.11l-0.69-0.53l-0.4,0.22l0.85,1.46l0.44,0.05L139.84,157.24z M186.63,162.72l-0.85-0.51l-0.58,0.6l-0.68-0.36l-1.59-0.11
	l-1.34,0.85l-1.01-0.44l-1.02,0.08l-0.44-0.31l-1.79-0.57l-3.55,0.81l-0.78-0.6l-1.15,0.21l0.67,0.63l-0.92,0.78l-7.14-0.07
	l-0.91-0.47l-0.6,0.44l-7.15-1.91l-0.55,0.24l-8.13-0.4l-0.91,0.73l-1.26-2.13l-1.24,0.61l-1.45-1.02l-0.66-0.94l-0.94-1.01
	l0.36-0.02l2.79,0.85l3.91-6.77l0.7-0.68l0.06-0.98l1.38-1.26l3.11-0.86l0.21-1l0.77-0.04l0.71-0.73l0.87-36.83l2.97,0.26l1.41,2.58
	l0.75,0.49l0.78,2.23l1.09,0.57l0.72,1.37l0.44,0.52l1.77-0.48l0.42-0.8l1.63-0.57l1.56,0.25l1.06,4.24l-0.11,4.28l-0.47,2.2
	l-1.11,1.43l-0.05,0.46l0.57,1.08l-0.03,1.78l-0.32,1.5l0.35,1.44l0.98,1.54l1.23,1.55l-0.01,0.99l0.12,0.61l1.49,0.55l1.45-0.4
	l0.46-0.53l0.41,1.15l0.87,0.15l0.16-0.75l0.92-1l1.5,0.29l2.26,3.78l1.08,0.62l2.63,2.55l2.44,3.66l0.59,1.24l-0.31,1.24
	l0.29,10.89L186.63,162.72z"/>
<path class="st133" d="M183.19,64.27l-0.84-0.07l-0.8-0.44l-1.17,0.06l-5.8,5.31l-11.15,9.97l-11.04,8.99l0.99,0.07l0.35,0.67
	l2.16,0.77l3.81,1.2l2.25,0.21l1.05-0.45l0.04-0.72l1.36,0.33l0.37,0.52l-0.26,2l0.57,1.11l1.91,0.14l2.71,1l1.6-0.83l16.63,19.38
	l3.77,4.32l16.37-13.91l16.22-14.68l1.53,0.46l0.76,0.9l-0.21,1.2l0.55,3.05l4.48-4.22l-0.26-1.16l0.34-0.62l-0.24-0.28l-0.89-0.03
	l-0.6-0.2l0.79-0.51l0.1-0.56l-1.11-0.12l0.42-0.69l-0.3-0.44l-0.6-0.2l-0.44-0.53l-0.54-0.04l-0.26-0.47l0.47-0.39l0.54,0.04
	l0.21,0.51l0.58,0l0-0.69l-0.49-1.45l0.9-0.12l0.16-0.4l-0.89-2.08l-0.77-0.06l-0.26-1.16l-0.22-0.43l-0.82,0.13l-1.19,0.98
	l-1.11-0.12l-2.06-0.92l-0.65-0.78l0.13-0.52l-0.4-0.56l-1.37-0.18l-1.24-0.7l-2.55-0.73l-2.48,1.14l-5.56-0.31l-0.99-0.83
	l-1.41-4.06l-0.82-0.63l0.13-0.87l-0.44-0.53l-1.7,0.37l-1.51,0.76l-1.04,1.67l-1.34-0.49l-0.39-0.98l-1.12-0.73l-6.52-0.42
	l-1.44,0.16l-3.07-1.53l-2.35-1.78l-0.67-1.99L183.19,64.27z"/>
<path class="st134" d="M69.71,96.87l21.04-10.12l18.34-9.55l-3.91-7L92.17,47.95L72.91,57.96l-19.99,9.52L27.97,78.04l3.25,8.02
	l2.88,1.53l0.52,1.87l2.27,0.73l0.79-0.2l3.15,1.77l0.47,0.67l1.44,0.44l0.3-0.2l0.93,0.36l1.08-0.7l0.35,0.51l1.38,6.94l0.74,1.41
	l0.58-0.15l1.11,0.47l0.63-1.06l0.68-1.56l1.06,0.19l0.72,0.68l0.54,1.12l2.99,2.52l1.65,0.53l1.08-0.06l0.8,0.86l0.91,1.3
	l1.29,0.22l0.03-1.08l2.68-1.02l0.44-0.84l3.41-1.44l0.21-1.66l0.47-0.59l0.8,0.31l1.45,0.95l0.32-0.17L69.71,96.87z"/>
<path class="st135" d="M383.68,17.23l-1.2,1.35l0.82,1.01L383.18,22l0.88,1.52l0.52,0.13l0.18-0.6l-0.25-0.92l0.65-1.19l-0.52-2.51
	l1.4-1.69l-0.64-1.82l0.07-0.66l-0.46-1.12l0.55-1.12l-0.47-0.71l0.21-0.76l0.73-0.42l0.63,0.94l-0.46,0.38l0.63,0.39l0.34,1.27
	l-0.27,0.25l0.82,2.52l-0.19,0.47l0.86,4.33l1.17,2.08l0.93,0.74l0.46,0.58l-0.6,1.7l0.74,0.79l0.53,1.76l0.65,0.65l1.36,1.61
	l0.74,2.3l0.82,2.86l0.97,0.37l-0.06,0.24l0.93,0.54l0.1,0.69l0.83,0.05l0.85,1.27l1.12,0.27l0.74,1.55l1.41,1.78l-22.01,16.74
	l-1.53-0.88l-1.87,0.78l-1.81,0.2l-2.73-1.91l-0.73-1.21l-0.24-2.09l-0.64-0.32l-1.55-0.05l-0.92-1.16l-1.96-1.75l-1.04-1.34
	l-2.04-0.67l-1.61,0.61l-3.72,0.06l-1.34-1.35l-4.11,0.66l-0.51-0.54l-1.65,1.11l-1.92-0.48l-1.41,0.06l-1.25-2.63l-0.95-0.45
	l-1.45-2.71l-0.07-1.18l-1-1.17l-1-0.21l-0.99,0.46l-0.53-0.8l-0.43-3.67l1.72-3.82l-4.28-5.97l0.57-0.12l0.15-0.43l-0.29-0.55
	l0.26-0.58l1.07,0.09l0.32-0.28l1.3-0.87l2.57-3.5L342.24,20l0.6-0.41l-0.03-0.8l0.45,0.24l0.61-1.03l0.36-1.41l0.3,0.13l0.18-0.81
	l1.6,0.01l0.1,1.02l-0.16,1.06l0.72,0.54l-0.19,1.22l0.48,0.29l0.8-1.29l-0.44-0.66l2.24-0.22l1.17-0.31l1.17-0.31l2.69,0.78
	l9.67-3.92l1.01,0l2.24-0.97l0.51,0l1.33-1.03l2.69-1.27l1.17,0.23l-0.18,0.81l0.65,0.11l2.12-0.95l0.98,0.16l1.43,2.03l0.23,1.76
	l1.03-0.62l0.25-0.71l0.7,0.07l0.43,1.82l1,0.41l0.69-0.26L383.68,17.23z M347.28,16.33l-0.22,0.21l-0.25,1.26l0.26,0.17l0.56-0.79
	l-0.19-0.28l0.35-0.45L347.28,16.33z M347.73,15.27l-0.41,0.48l0.12,0.4l0.42-0.35L347.73,15.27z M346.59,14.95l0.18,0.49l0.85-0.57
	l0.17-0.39l-0.27-0.51L346.59,14.95z M347.04,12.6l0.45,0.99l0.44-0.64l-0.39-0.69L347.04,12.6z M386.14,8.01l-0.9,0.81l0.21,0.75
	l1.18,0.36L386.14,8.01z"/>
<path class="st136" d="M29.95,155.76l-0.16-4.88l-0.71-0.76l-1.25-0.39l-1.95-1.76l0.18-1.95l34.3-5.49l-0.63-1.43l-1.15-0.93
	l-0.44-0.91l0.04-4.22l-2.05-3.69l0.2-1.76l-0.02-2.48l1.32-2.62l-0.21-0.72l-1.26-0.59l-0.2-2.13l-1.39-1.19l-2.43-3.93
	L40.21,83.99L8.03,88.61l1.04,1.27l3.16,44.64l5.14,21.91l0.6-0.37l0.93,0.01l0.45,0.24l0.56-0.1l1.19-2.62l-0.14-1.53l0.71-0.78
	l1.02,0.27l2.8,4.11l0.06,0.6l-2.21,1.61l2.46-0.42l3.38-1.27L29.95,155.76z"/>
<path class="st137" d="M240.8,89.35l-0.06-0.66l0.37-0.04l0.04-0.34l-0.3-0.06l-0.12-0.41l-0.4-0.07l0.02-0.33l-0.23-0.36
	l-0.29,0.12l0.1-0.31l0.43,0.02l-0.11-0.38l-0.25-0.22l-0.07-0.19l0.58-0.12l-0.3-0.32l0.23-0.53l-0.25-0.16l-0.26,0.17l-0.27-0.14
	l0.11-0.34l0.38-0.26l0.02-0.26l0.33-0.24l-0.13-0.18l-0.35-0.1l-0.07-0.12l0.38-0.2l0.01-0.23l-0.49-0.06l-0.11-0.13l-2.73,1.71
	l0.03-1.64l0.23-0.6l-0.29-0.54l-0.74-0.4l-9.79,5.86l-9.79,5.45l4.27,5.46l5,9.71l0.96,0.22l0.53-0.7l0.92-0.23l1.63,2.91
	l13.05-7.38l0.1-0.53l-0.27-0.81l-0.68-0.37l-0.42-0.48l0.14-0.29l-0.11-0.2l-0.57-0.04l-0.12-0.16l0.28-0.44l-0.45-0.11l-0.51-1.98
	l0.65-0.85l-0.11-0.2l-0.46-0.2l0.01-1.73l0.48-0.26l0.22-0.5l-0.77-1.24l0.19-1.53l0.38-0.39l-0.54-0.7L240.8,89.35z"/>
<path class="st138" d="M189.65,84.4l-0.93-1.78l-0.9,0.44l0.98,1.89L189.65,84.4z M200.82,73.73l0.15-2.98l-1.25-2.68l-1-0.3
	l-0.3,1.34l0.92,2.32l-0.13,1.92l0.27,1.32l-4.31,4.25l-0.35,1.23l-1.36,0.93l0.04,1.16l-1.13,1.36l-1.7-2.46l0.07-0.96l-1.17-0.08
	l-0.59-1.69l-1.25,1.94l-1.09-2.1l1.19-0.99l-2.36,0.64l-1.22-0.45l-0.26-1.59l-1.23-0.19l0.09,2.07l1,0.56l-0.46,1.02l-0.96,1.14
	l-2.8,0.07l-0.88-1.15l-1.73-0.6l-2.5-1l1.25-1.68l-1.45-0.07l-0.49-0.95l0.13-1.39l1.75-1.26l-1.91,0.15l-0.5-0.68l-1.52,0.62
	l0.15,1.38l-0.51,0.65l-1.75-3.63l0.58-1.61l1.28,0.29l-0.76-1.74l-1.61-0.39l-0.42,1.66l-0.37,2.03l-1.22-0.71l-1.09-2.64
	l0.47-1.55l1.5,0.44l0.97-1.4l-1.38-1.57l-0.58,1.61l-2.16-1.7l-1.16-1.68l-0.07-3.13l0.48-2.08l1.47-0.99l-1-0.56l0.24-0.91
	l-0.72-0.57l-0.92-2.32l-1.47,1.25l-0.3,1.6l1.84,0.81l-0.96,5.23l-1.23,0.08l-0.3,1.34l0.52,2.65l-1.76,1.53l1.79-0.09l2.17,0.64
	l0.15,0.84l1.67,0.76l-0.69,1.67l0.73,0.03l0.15,1.65l1.15,2.21l0.15,1.65l1.62,0.65l2.64,3.18l2.23,0.75l2.57,0.58l1.98,2.72
	l2.9,1.21l1.21,1.25l0.55,1.05l-0.79,0.39l-2.35-0.43l-0.34,0.43l-1.46,0.46l-2.68-0.53l-1.74,0.46l-0.85,1.08l-1.52,0.36
	l-0.34,0.43l-2.35,0.11l-1.68-0.5l-1.84-0.81l-0.79,0.12l-0.52,1.18l-1.09,2.25l-1.67-0.23l-1.71-2.2l-0.24-2.66l-0.61-0.36
	l0.12-0.59l-1.33-0.66l1.07-0.66l0.64-1.5l-0.53-2.11l0.49-3.68l-3.91-0.45l-0.2,2.35l-1-0.3l-1.13,0.55l-0.73,0.23l-0.67-0.2
	l-0.16-0.58l-2.25,0.32l-0.74,0.76l-1.41,0.56L145,79.92l-0.68,0.07l-0.61-0.63l0.24-1.17l-0.49-0.95L142,77.7l-1.61-0.39
	l-0.96,0.61l-1.96,0.57l-1.23,0.08l-0.65-1.79l-1.4,0.03l-0.61-0.63l-0.79,0.39l-1.56-0.82l-0.32-1.16l-2.72,1.87L124.82,76
	l-1.42,1.1l-0.25,1.97l-1.47,0.73l-0.33,3.99l-3.5,2.26l-2.69,0.01l-0.86,5.44l-2.64,0.91l-1.36,5.83l-0.14,2.18l-1.16,2.69
	l-8.13-11.04l61.73-46.09l23.36,24.25L197,61.74l2.89,5.57l1.58,3.32l-0.14,2.45L200.82,73.73z M184.73,79.29l-0.97,1.67l1.88,1.44
	L188,82.3l-1.33-1.46L184.73,79.29z"/>
<path class="st139" d="M3.14,42.81l-1.23,0.8l-1.59-0.45l-1.11,2.32l2.85,5.83l2.44,1.44l0.83,3.79l3.6,1.4l0.54,1.76l0.81,1.13
	l0.07,2.51l-1.16,1.13l0.12,1.51l-1.51,2.06l0.13,1.75l3.24,2.33l0.88,2.55l1.31,1.09l0.05,2.28l1.44,1.51L14.6,82l1.4,1.89
	l-0.09,1.38l3.15,3.71l1.51,0.99l0.93,2.64l1.87,1.15l1.17,2.39l0.22,1.45l0.67,1.33l3.49,1.22l16.03-13.52l0.16-1.91l-0.64-1.72
	l1.54-1.58l-0.11-1.28l1.07-1.93l1.44-0.44l-1.84-4.81l-3.03-0.02l-1.99-1.57l-4.24-0.07L34.54,68L2.71,40.98L3.14,42.81z"/>
<path class="st140" d="M101.37,128.2l-14.79,16.5l2.16,3.68l2.88,1.04l5.18,6.8l3.18-1.01l2.15,1.98l0.7,1.85l4.91,1.26l2.72-3.05
	l4.17,0.18l2.63-2.16l6.55-3.79l1.41,5.71l2.02,3.32l2.8,3.95l-0.16,2.41l1.37,2.74l2.24,2.48l2.52,1.51l1.62-0.56l3.18,0.7
	l1.47-1.25l3.32-2.35l2.08-1.93l1.96-1.67l1.47,0.46l0.6-0.99l-0.89-2.08l0.98-0.83l1.48-2.64l3.6,1.81l3.32,1.07l0.15-2.73
	l-4.13-4.04l-5.22-4.65l-1.9-5.29l-4.14-2.64l-1.89,0.15l-2.73-3.77l-1.54-0.64l-1.81,0.33l-2.77-3.01l-4.79-1.52l-10.87-3.58
	l-2.49,0.83l1.79,0.75l1.06-0.34l-0.64,1.44l-0.86,0.57l-1.01,1.6l0.25,1.5l-2.75,0.72l-1.77-1.82l-1.28-0.54l0.09-2.6l-2.22-2.17
	L101.37,128.2z"/>
<path class="st141" d="M238.07,95.14l-0.33-0.13l-18.48,37.58l-12.84-5.94l-13.77-6.73l-0.58,1.13l0.49,1.17l-12.2-6.37l-2.14,3.77
	l-6.2-3.29l26.23-45.8l20.9,10.69l20.79,9.89L238.07,95.14z"/>
<path class="st142" d="M141.02,103.78l-1.06,0.78l0.02,0.72l-1.24,1.84l-0.45,0.29l-0.89,4.07l-0.01,1.26l-2.78,5.42l-0.18,1.26
	L133,121.5l-0.43,3.49l-1.15,2.25l-0.5,0.76l-12-7.36l-18.38-12.03L85.12,97.95l16.75-23.75l17.49,12.15l22.3,14.11L141.02,103.78z"
	/>
<path class="st143" d="M71.36,31.02l-5.08,1.94l-7.78,5.25l-6.79-1.68l-1.34,2.23l-8.02-2.01l-5.64,21.1l37.73,9.83l2.22,2.78
	l5.41,1.63l-0.08-21.04l-7.73-4.84l-3.45,1l-0.91-2.03l-3.59-1.7l-3.35,1.44l0.96-3.94l-5.72,0.07l4.86-3.94l4.18,1.3l4.33-0.12
	l-4.46,2.67l6.32-0.47l2.65,2.66l-3.9-0.01l6.58,3.81l-1.36-3.04l3.04,0.26l-1.77-5.89l-6.91-3.25l10.51,0.83l-0.69-4.15
	L71.36,31.02z M95.56,62.65l1.51-2.5l-0.74-2.3l-4.76,0.25l0.67,3.01L95.56,62.65z"/>
<path class="st144" d="M62.68,156.61l15.09-19.77l7.2-10.22l-1.91-1.73l-0.01-1.01l0.59-0.57l0.12-0.83l-1.34-1.74l0.49-2.89
	l1.12-1.62l0.13-2.18l-0.29-0.61l0.76-2.72l-1.13-1.41l0.15-2.74l0.37-0.25l0.63,0.48l0.61-0.05l0.07-1.02l-0.58-1l0.29-2.27
	l1.38-0.67l-1.19-2.76l0.04-0.98l0.59-0.57l-2.07-1.79l-0.17-0.36l-1.48,2.03l0.32,0.43l-9.23,12.77l-1.49,2.74l-6.92,8.73
	l-1.58,2.37l-5.95,7.35l-0.63,1.32l-7.45,9.79l-0.49,0.07l-1.35,1.49l1.71,0.62l0.14,0.55l-7.91,9.89l0.11,0.66l-0.57,0.08
	l-0.37,0.4l0.52,0.45l0.62,0.1l0.36,0.39l-0.31,0.73l1.11-0.05l-0.01,0.56l-0.7,0.62l0.62,0.1l0.88-0.11l0.28,0.24l-0.24,0.66
	L44,161.4l0.28,0.16l0.91-0.22l0.13,0.4l-0.55,0.61l0.2,0.17l0.69-0.05l0.35,0.24l-0.43,0.63l0.13,0.48l-0.5,0.71l0.03,0.67
	l0.58,0.07l0.36-0.48l0.54,0.11L46.65,166l0.74,0.35l-0.97,0.6l0.24,0.28l0.58,0.22l0.45,0.6l-0.79,0.25l0.03,0.6l0.44-0.41
	l0.63,0.48l0.18,0.59l0.76-0.13l0.49,0.64l0.57-0.08l0.14,0.62l-0.63,0.31l0.55,1.12l-0.31,0.88L62.68,156.61z"/>
<path class="st145" d="M230.47,105.99l0.08,2.81l2.31,1.43l0.14,1.33l0.41,0.91l-0.29,1.81l-0.95,0.67l-0.11,1.1l-1.32,1.3
	l-0.14,1.27l1.93,2.05l0.27,1.93l0.76,0.94l-0.26,1.64l0.79,1.25l-0.49,1.72l0.72,1.52l-0.24,0.98l1.69,3.03l0.91,0.88l0.3,2
	l1.14,1.04l0.5,1.85l-0.04,1.07l0.29,1.03l2.25,1.28l-8.65,5.37l-1.09-0.41l-0.14-1.57l-5.92-9.35l-1.82-0.55l-0.27,1.39l-1.24-1.33
	l0.14-1.51l-4.06-3.94l-0.76-2.81l0.04-0.83l-0.97-1.27l-0.27-1.68l-2.25-1.04l-1.2-2.16l-0.09-1.19l-1.29-0.26l-0.04-1.53l-1.04-1
	l18.79-12.5L230.47,105.99z"/>
<path class="st146" d="M112,140.35l-0.65,1.8l0.34,0.68l0.23-0.7l0.45-1.98L112,140.35z M89.64,137.06l-0.47-0.61l0.64-0.1l0.62-0.6
	l0.22-1.15l-0.14-0.31l0.06-0.32l-0.21-0.43l-0.39-0.29l-0.26-0.05l-0.33-0.24l-0.39-0.36l-0.64,0.03l-0.39-0.04l-0.27-0.24
	l0.06-0.32l-1.11-0.32l-0.51,0.22l-0.77-0.02l-0.46-0.42l-0.33-0.11l-0.14-0.43l0.37-0.52l-0.02-0.57L84,129.76l-0.66-0.53
	l-0.58,0.09l-1.04-0.14l-0.24,0.46l-0.23,1.02l-0.27,1.46l-6.52-2.95l-0.11,0.57l0.61,0.98l-0.47,1.48l0.12,1.82l-0.76,0.54
	l-0.28,1.34l-0.56,0.53l-0.86,1.18l-0.56,0.53L71,139.75l-1.56-0.62l-1.31,5.42l-0.8,1.05l-1.81-0.23l-0.87-1.15l-1.49-0.36
	l0.03,2.96l-0.87,1.11l0.29,0.93l-1.31,1.45l0.3,1.18l-2.25,4.09l-0.58,2.11l0.98,0.71l-0.93,1.24l0.09,0.88l-1.44,1.33l-0.47-0.67
	l-2.7,2.09l-0.98-0.58l-0.36,0.9l0.53,0.29l-0.3,0.58l-3.48,1.69l-1.96-1.04l-0.48,1.09l-1.19,1.2l-1.47,0.14l-2.87-1.3l-0.09-0.94
	l-0.98-0.39l0.49-0.78l-0.46-0.35l-3.02,4.31l-1.84,0.73l-1.87,1.98l-0.21,1.4l-1.33,0.89l-0.03,1.07l-0.87,0.93l-1.15,0.37
	l-0.28,1.22l-0.63,0.28l-4.35,2.86l18.5-3.01l0.11-0.63l2.94-0.46l-0.18,0.45l18.81-3.16l25.16-5.87l18.57-4.78l-0.41-0.74
	l0.25-0.08l0.59,0.54l-0.09-0.88l-0.23-1.19l1.05,0.7l0.62,1.29l-0.02-0.82l-2.29-3.35l-0.02-0.76l-0.47-0.48l-0.82,0.48l0.35,0.87
	l-0.51,0.02l-0.28-0.61l-0.37,0.59l-0.6-0.66l-1.35,0.01l-0.12,0.45l1,1.27l-0.91-0.39l-0.34-0.61l-0.24,0.52l-0.51,0.09l-0.93,1.12
	l0.16-1.02l-0.02-0.88l-0.98-0.39l-1.16-0.25l-0.16-1.07l-0.41-0.8l-0.36,0.71l-1.11-0.58l-1.28,0.25l0.11-0.57l0.96-0.17l0.59,0.29
	l1.08-0.56l0.59,0.22l0.34,0.61l0.01,0.44l1.23,0.19l0.21,0.56l0.59,0.22l0.6,0.73l0.87-1.05l0.39-0.02l-0.1-1.32l-0.82,0.67
	l-0.4-0.55l0.96-0.17l-0.79-0.53l-0.76,0.42l-0.1-1.07l-1.09,0.18l-1.43-0.62l-1.2-1.33l2.35,1.27l0.59,0.16l1.08-0.56l-1.11-0.51
	l0.37-0.39l-0.65-0.28l0.51-0.15l-0.21-0.56l0.72,0.53l0.24-0.52l0.28,0.81l0.78,0.47l0.38-0.33l-0.33-0.36l-0.11-1.57l-0.71-0.03
	l-1.04-0.45l0.56-0.72l-1.29,0l-0.27-0.3l-0.88,0.42l-0.92-0.46l-0.35-0.74l-1.37-0.69l-1.38-1.06l-1.45-1.12l1.96,0.72l0.6,0.73
	l1.36,0.37l1.53,1.5l0.1-1.08l0.41,0.8l1.49,0.24l-0.08-2.52l-0.53-0.67l0.72,0.22l0.03-1.01l-2.02-0.78l-1.03-0.07l-0.84-0.09
	l0.17-0.76l-0.97-0.14l-0.08-0.37l-1.16,0.06l-0.11,0.51l-0.47-0.61l-1.74,0.09l-0.65-0.22l-0.15-0.63l-0.78-0.34l-0.29-0.93
	l-0.39-0.24l-0.43,0.72l-0.57,0.15l-0.57,0.47l-0.96,0.05l-0.61-0.79l0.19-1.96l0.27-1.53l0.39,0.29L89.64,137.06z M103.93,143.65
	l0.58-0.09l-0.01-0.37l-0.51,0.09L103.93,143.65z M109.02,152.35l-0.59,1.74l0.74-0.85L109.02,152.35z M107.57,142.78l0.46,0.17
	l-0.09,1.2l-0.33-0.3l-0.82,0.67l0.65,0.22l-1.07,2.83l0.22,5.09l1.28,1.89l0.29-0.96l0.2-1.72l-0.24-1.44l0.43-0.59l-0.16-0.87
	l0.76-0.42l-0.39-0.29l0.31-0.46l0.53,0.67l-0.11,0.7l-0.18,2.47l0.66-1.42l0.19-1.96l0-1.89l-0.23-1.25l0.34-1.46l0.67-1.17
	l0.02-1.39l0.17-0.57l-2.92,1.16l-0.43,0.52L107.57,142.78z"/>
<path class="st147" d="M214.13,119.42l-0.38-1.03l-0.61,0.23l0.06,0.21l0.1,0.11l0.07,0.26l-0.05,0.25l-0.12,0.11l-0.04,0.18
	L214.13,119.42z"/>
<path class="st148" d="M221.4,2.61l-1.77,0.9l-0.93,0.16l-0.45,1.18l0.74,0.95l1.17,0.39l1.08,1.77l-0.64,0.84l-0.71-0.12
	l-1.18-1.03l-18.58,15.89l-3.06-1.31l-17.54,16.2l0.67,1.24l1.81,0.33l0.87-0.23l0.71,0.19l2.01,2.88l-0.25,0.55l0.32,0l0.3-0.4
	l0.04-0.51l3.3-4.09l3.44-2.88l3.72-1.65l4.8-0.59l1.17-0.4l1.45,0.12l0.76,1.05l0.94-0.7l0.44-0.93l1.01-0.69l0.55-0.89l0.54-1.61
	l0.35-2l0.31-0.47l0.38,0.02l0.55-0.41l-0.04-0.45l-0.55-0.31l-0.41-0.05l-0.16-0.36l0.46-1l1.83-1.61l0.61,0.15l0.42-0.26
	l1.19-0.29l1.7-0.19l0.97,0.29l0.78,0.13l1.51-0.29l0.71,0.91l1.65-0.1l0.42-0.26l1.04,0.06l0.75,0.4l0.45-0.22l0.93,0.56l0.45,0.02
	l0.06-0.71l1.16-0.81l0.61,0.39l0.7,0.02l0.39,0.49l1.78-0.01l2.92,3.58l1.01,2.72l0.75,0.16l0.93,1.35l0.1,0.76l0.63,0.25l1.58,0.2
	l0.56,0.48l0.61,0.15l-0.72-0.6l0.33-0.61l-0.75-1.59l-1.53,0.42l-0.14-0.26l0.89-0.91l1.12,0.72l0.61-0.1l-0.56-0.79l0.52-0.21
	l0.47,0.13l0.17,0.29l0.11,2.44l0.25,0.47l-0.1,1.22l0.33,0.42l2.57,0.36l4.41,1.44l1.33,0.27l0.53,0.68l2.45,0.92l1.07-0.45
	l-0.08-0.66l-0.73,0.73l-2.5-0.82l-0.34-0.59l0.35-0.74l-0.44-0.57l-0.62-0.32l0.09-0.6l0.42,0.23l0.42-0.02l1.18,1.52l-0.65,0.12
	l-0.04,0.58l1.02,0.19l1.16,0.69l0.29-0.58l1.25-0.22l1.47,0.22l2.13,1.46l2.63,0.91l-0.07-0.72l0.95-1.01l1.64-0.44l0.62,0.56
	l2.41,0.47l0.36,0.39l1.66,0.38l-0.12,0.39l0.8,1.02l1.47-0.26l0.59-0.44l0.52-1.47l0.67-0.32l0.55-0.17l0.4-1.32L270.9,35
	l0.56-0.24l0.44-1.35l-0.17-1.25l-1.22-1.01l-0.46-0.44l-0.76-1.84l0.17-0.25l0.71,0.43l-0.22-0.92l-2.45-2.49l-3.26-3.86l-2.4-2.28
	l-0.77-0.44l-5.86-2.27l-4.72-1.93l-1.84-0.61l-1.57-0.98l-1.08-1.23l0.26-0.38l-0.27-0.34l-1.08-0.51l-2.74-0.34l-5.84-1.45
	L231,6.77l-4.85-2.8l-1.33-1.23l-0.77-0.03l-1.32-1.29L221.4,2.61z M264.81,50.84l0.63-0.53l-0.57-0.18L264.81,50.84z M267.34,48.28
	l-0.21-0.26l0.57-0.55l0.47-2.33l0.41-0.67l0.67-1.04l0.5,0.4l0.9-0.19l-0.66,1.21l-0.94,0.7l-0.78,2.09L267.34,48.28z M271.8,40.38
	l-0.76,1.41l-0.01,0.79l0.46-0.28L271.8,40.38z M272.43,38.17l-0.34,0.43l0.05,1.17l0.37-0.4l0.11-1.05L272.43,38.17z M271.02,29.8
	l1,2.62L272,33.03l0.38,1.28l0,0.96l0.23,0.85l-0.09,1.39l0.27,0.34l0.23-1.85l-0.1-2.03l-0.36-0.93l-0.63-2.47L271.02,29.8z"/>
<path class="st149" d="M433.47,106.11l1.92-0.71l0.76-1.11l-0.32-0.96l-0.95-0.35L434.5,102l1.53-3.38l0.91,0.07l1.73-1.3l1.81-3.36
	l1.79-1.5l2.83-0.2l0.88-0.48l0.04-1.02l-0.91-1.6l0.13-3.13l-0.52-1.11l-0.25-1.92l0.77-0.95l1.17-1.34l0.66-1.41l0.39-2.57
	l2.38-6.82l1.98,0.18l1.82,1.23l0.28,1.55l1.08,0.28l1.69-1.15l4.21-8.48l23.92,10.64l20.86,8.65l-26.2,61.06l-19.48-7.96
	l-29.72-28.14l0.66-1.41l1.33-0.64L433.47,106.11z"/>
<path class="st150" d="M442.01,69.19l-2.24-2.2l-3.35-1.2l-4.53,0.31l-32.83,40.37l15.62,14.74l9.13-11.43l-1.99-1.21l0.29-7.92
	l2.03-2.57l-0.48-3.88l5.41-4.19l1.02-5.61l0-2.57l0.34-3.04l4.43-3.99l3.53-1.73l4.47-0.73L442.01,69.19z"/>
<path class="st151" d="M466.52,131.54L450.1,144.1l-13.82,9.99l17.63,24.71l25.74-19.09l22.83-18.37l-14.11-16.57l-1.38,0.71
	l-2.32-0.86l-1.65-0.13l-0.48-0.95l0.24-1.7l-0.31-0.45l-1.16-0.28l-0.04,0.62l-0.91,0.38l-1.94-0.18L466.52,131.54z"/>
<path class="st152" d="M217.45,112.5l-1.56-2.05l-0.11-1.43l-3.43-2.57l0.02-0.58l-0.23-0.15l-0.69,0.42l-0.22-0.22l-1.9-0.31
	l-0.17-0.32l0.11-0.45l0.38-1.02l0.63-0.25l1.36-3.96l2.17-0.95l0.88,0.01l0.61-0.36L203.57,83.9l5.44-2.71l2.71-0.38l5.29,0.09
	l0.49-1.47l0.61,0.84l1.36-0.95l0.31-1.72l0.85-0.28l0.05-0.79l2.45-2.71l0.76-0.15l0.98,0.07l1.39-0.65l0.5-1.29l0.76-0.84
	l0.56,0.17l0.33-0.23l-0.06-1.02l0.26-0.24l0.86,0.41l0.09-0.82l3.45-1.34l1.69,0.95l0.33-0.23l0.25-0.86l3.11-0.34l0.58,0.79
	l0.95,0.28l2.06-1.62l2.8,0l0.79,0.57l1.13-1.1l12.67,15.2l-0.43,1.12l-28.12,18.72l-12.41,11.38L217.45,112.5z"/>
<path class="st153" d="M33.06,71.26c1.93,3.2,4.44,8.18,5.72,14.64c1.33,6.72,0.18,9.33,0.77,13.49
	c1.51,10.68,12.46,17.54,24.21,24.68c14.86,9.03,17.26,6.85,32.11,15.02c16.32,8.97,17.46,13.82,31.76,22.29
	c0,0,18.3,10.82,39.03,14.68c42.85,7.97,83.66-27.07,90.49-33.09"/>
<path class="st154" d="M10.22,49.37c10.12,1.42,26.24,2.82,45.65,0.44c29.58-3.63,34.87-12.12,64.88-16.13
	c17.04-2.28,39.92-5.06,63.51,5.25c15.11,6.6,16.1,12.28,30.43,19.94c13.36,7.15,34.59,14.04,67.51,9.9"/>
<path class="st155" d="M211.32,151.49l17.77-0.67l1.69,1.27l0.8,0.03l1.04,0.79l0.84-0.11l0.77-0.94l0.72,0.21l0.44-0.34l0.35,0.19
	l0.41-0.2l0.34,0.15l0.41-0.2l0.48,0.18l0.63-0.31l0.96,0.19l0.32,0.46l2.92,0.74l0.6,0.52l0.51,1.1l0.86,0.24l0.69-0.14l0.26,0.37
	l0.08,1l0.34,0.72l0.05,0.61l0.73,1.56l1.17,1.79l0.22,1.6l1.47,2.07l0.39,2.64l0.63,0.26l0,1.27l0.49,1.41l-0.25,0.98l0.99,1.85
	l0.65,0.52l-0.1,0.62l1.1,1.53l2.03,2.6L240,179.21l-20.42,1.05l-16.87,0.41l-0.08-9.66l-15.51,0.15l0.25-19.36L211.32,151.49z"/>
<path class="st156" d="M457.84,28.33l-2.32-0.47l-0.95,0.09l0.09,0.63l-1.8,1.01l-0.48-0.4l-1.39,1.74l-0.7,0.05L449,31.74
	l0.07,0.69l-1.16,0.95l-0.68-0.18l-0.42,0.25l-1.03-0.26l-0.64,0.61l-0.82,0.19l-1-0.36l-0.19,1.88l-0.3,0.49l-0.67-0.43l-0.23-0.74
	l-0.55-0.03l-0.41,1.27l-0.82-0.11l-0.29-0.49l-0.39,0.4l-1.24-0.12l-0.64,1.42l-1.03,0.04l-0.11-0.84l-0.82,0.44l-1.21-0.68
	l-1.46,0.25l-0.33,1.14l-1.22-0.34l-0.44,0.39l-0.71,0.39l-1.6-0.02l-0.82,0.44l-0.55-0.03l-0.68-0.9l-1.13-0.17l-0.14,0.71
	l-0.68-0.09l-0.51,0.08l-0.23,0.54l-0.6,0.17l-1.43-0.58l-1.21,0.04l-6.83-14.81l-19.66,8.32l-1.61-3.72l6.17-2.61l25.11-11.11
	l22.56-11.05l1.93,3.65l5.68,7.59l6.45,13.42L457.84,28.33z"/>
<path class="st157" d="M504.34,143.44l16.64-17.26l10.32-11.36l0.78,0.73l0.43,0.98l-0.36,1.8l0.34,0.49l1.51,0.12l0.81,0.41
	l1.12-0.82l1.22,0.01l14.57,12.48l-0.8,0.82l0.56,0.54l1.01-0.04l0.38,0.38l-0.16,0.55l0.73,0.35l0.59-0.38l0.98,0.36l1.31,2.26
	l1.25,1.74l0.9-0.13l0.59,0.29l0.87,0.26l-0.44,0.65l-0.88,0.48l-1.27-0.47l-0.9,0.06l-2.92,1.68l-0.62-0.11l-0.91,0.59l-0.26,0.73
	l-0.53,0.23l-0.16,0.48l-0.39,0.15l-0.16,0.48l-0.42,0.12l-0.09,0.61l-0.74,0.39l0.12,1.33l-0.58,0.73l-1.46,0.19l-0.66,0.6
	l-2.36,0.32l-13.7,14.3l-18.92,18.8l-14.92-15.31l-6.98-7.28L504.34,143.44z"/>
<path class="st158" d="M548.09,142.54l-6.51-8.61l-19.84,14.25l30.79,44.46L571.78,179l16.27-12.19l-26.9-34.06L548.09,142.54z"/>
<path class="st159" d="M181.96,176.32l1.53,1.67l0.7,2.38l-17.53,6.12l-1.13,1.35l-3,1.28l-1.18,0.14l-0.41,1.04l-1.79,0.85
	l-2.14,1.65l-0.25,0.61l-2.25,1.14l-0.88-0.5l-0.67,0.28l-1.85,2l-1.14-0.01l-0.88,1.07l-0.63-0.79l-1.52,0.16l-0.82,0.38l-0.83-0.2
	l-1.43,1.09l-0.84,0l-0.61,0.38l-0.35,0.8l-2.58,2.07l-4.58,0.1l-1.08-2.99l-1.41-1.81l-2.71-0.74l-1.85,1.22l-0.53-0.4l-0.15-0.69
	l-0.59-0.16l-0.48,0.36l-1.51-0.04l-0.49,0.56l-1.05,0.58l-0.79-0.49l-0.9,0.36l-0.94-4.33l1.41,3.05l0.4,0.08l-0.59-0.94l0.35-0.35
	l1.24,0.74l-0.9-0.88l-0.62-2.36l1.03-0.38l-1.15-0.6l-0.42,0.46l-0.88,0.28l-1.13-2.04l0.55,0.64l0.6-0.05l-0.16-0.94l1.62-1.01
	l-1.47,0.12l-1.42-0.36l-0.24,1.2l-0.3-1.85l-1.51-2.08l-1.16-1.64l-1.34-3.17l-0.84-0.79l-1.33-0.55l-1.12-1.92l-0.59-1.4
	l0.34-1.72l-0.77-0.44l-0.07-0.34l0.49-0.24l6.19,1.13l2.95-0.59l3.32-0.43l1.6-1.06l0.98,1.36l0.04-1.07l0.36-0.22l1.1,1.08
	l-0.51-1.38l0.65-0.53l0.46,0.18l-0.38,0.63l0.52,0.72l-0.09-0.93l0.56-0.35l0.56,1.36l-0.79-0.03l0.61,0.54l0.39,0.74l-0.2,0.59
	l-0.41,2.16l-0.39-1.98l-0.69,0.69l0.42,1.12l-1.1,2.52l0.09,0.6l-0.42,1.7l0.24,0.51l1.11-0.69l1.16-0.85l-0.01-0.58l-1.83,1.47
	l-0.18-0.28l0.5-2.14l0.68-0.95l0.91-0.7l0.04-1.07l0.85-2.03l-0.41-0.66l0.56-0.35l1.22,1.86l-0.76,0.47l-0.07,0.57l-0.82-0.08
	l0.47,0.42l0.5,0.8l-0.15,0.55l-0.62-0.66l-0.17,0.63l0.53,0.06l-0.13,0.8l0.66-0.41l0.21-0.45l0.64,0.91l0.05,1.22l-0.17,0.75
	l0.48,0.88l-0.56,0.22l-0.51-0.6l0.13-0.8l-0.55,0.02l-0.2,0.59l0.29,1.26l-0.14,0.68l-0.64-0.91l0.08-0.77l-0.42-0.46l-0.26,0.95
	l0.7,1.01l-0.19,0.38l-1.19,0.47l-0.31,0.98l0.94-0.98l0.55,1.1l-0.02-1.16l0.61,0.54l-0.04-0.63l0.88,0.63l0.36-0.22l0.12-0.6
	l0.28-0.24l0.46-1.53l-0.25-0.63l0.59,0.03l0.42,0.33l0.27-0.37l-0.3-0.59l0.66-0.41l-0.75-1.43l-0.84-1.25l0.55-0.14l-0.97-0.77
	l0.47-0.82l-0.6-1.2l0.52-1.77l0.54-0.27l-0.26-0.75l-1.02-0.28l-1.08-1.62l-0.14,0.68l1.21,1.15l-0.28,0.24l-0.87-0.71l-0.45-0.05
	L129,170l0.88-0.62l0.36,0.23l-0.32-0.85l-1.31-0.29l-0.78-0.57l0.48,1.01l0.78,0.23l-0.24,0.41l-0.74-0.07l-0.53,1.18l0.91-0.24
	l0.81,1.07l0.38,0.94l0.08-0.9l1.39,0.64l0.36,1.02l-0.76,0.47l-0.36-0.57l-1.11-0.09l-0.63-1.58l-1.73-0.63l0.49-2.27l-0.9-2.13
	l0.46-0.28l1.65,1.07l-0.77-1.23l0.7-0.23l-0.97-1.56l-0.69-0.09l0.13,1.56l-1.39-1.1l0.63-0.46l-2.25-1.84l0.79-0.88l15.1-4.48
	l18.45-6.23l13.6-4.85L181.96,176.32z M130.42,182.56l0.26-0.16l0.28,0.35l-0.17,0.3l0.23,0.25l-0.24,0.41l-0.37-0.36l0.14-0.35
	L130.42,182.56z M131.7,178.95l-0.05,1.28l0.18,0.41l0.27-0.03l0.08-0.44l0.59-0.3L131.7,178.95z M125.15,168.88l0.43,0.12
	l0.57-0.55l-0.19-0.53l0.08-1.23l-0.63,0.13l0.11,0.98l-0.52-0.72l-0.5,0.44l0.05,0.88L125.15,168.88z M125.15,165.27l0.79,0.49
	l-0.4,0.38l-0.29,0.44l-0.81-1.07L125.15,165.27z M123.31,165.37l-0.62,0.25l0.66,0.5L123.31,165.37z M123.54,166.87l0.52-0.06
	l0.12,0.64l0.72-0.77l-0.75-0.97l-0.51,0.19L123.54,166.87z M122.05,167.53l0.95,1.18l1.2,0.11l-0.25-1.09l-1.2-0.69L122.05,167.53z
	 M122.7,166.41l-0.85-0.12l-0.42,0.33l1.35,0.14L122.7,166.41z M122.26,162.09l-0.61,0.38l0.23,0.38l0.79-0.1L122.26,162.09z
	 M131.36,177.72l-0.59-1.4l-0.56,0.35l0.46,0.96L131.36,177.72z"/>
<path class="st160" d="M73.58,8.96l-21.95,6.36l-24.97,6.38l0.88,4.54l5.21,22.98l2.12,9.16l14.05-3.43l19.49-5.19l16.06-4.88
	l-5.51-18.01L73.58,8.96z"/>
<path class="st161" d="M340.27,103.38l1.11-0.26l0.4,0.23l-0.33,0.64l-0.85,0.29l-1.01,0.85l-1.71,0.36l0.92-0.64l0.02-0.52
	l1.12-0.4L340.27,103.38z M343.91,101.72l0.65,0.08l0.42-0.1l0.36,0.48l0.07-0.3l0.43-0.01l0.66,0.55l0.05,0.22l-1.73,1.29
	l-1.12,0.21l-0.51-0.11l-0.43,0.43l-0.92,0.22l-0.66-0.5l2.11-0.73L343.91,101.72z M346.39,101.09l0.47-0.06l0.4,0.23l0.11,0.44
	l-0.59,0.19l-0.53-0.39L346.39,101.09z M347.57,100.96l0.59-0.19l0.06,0.45l-0.44,0.39L347.57,100.96z M347.95,101.9l1.56-0.41
	l0.21,0.46l-0.59,0.19l-0.19-0.19l-0.3,0.35l-0.25-0.22l-0.43,0.01L347.95,101.9z M425.33,87.29l0.98-0.18l-0.26,0.95l-0.52,0.08
	l-0.27-0.31l0.09-0.63 M424.54,86.02l0.14-0.64l-0.33-1l1.05-0.48l2.54,1.46l0.96,1.37l1.05,0.5l0.68,2.23l-0.65,0.15l-0.84-0.88
	L427.45,88l-0.27,0.07l0.8,1.12l0.81-0.09l0.31,0.91l-0.4,0.14l-2.35-1.51l-0.14-0.39l0.77-0.65l-0.11-0.44l-0.32-0.3l-0.8-0.09
	l-0.92-0.39l0.66-0.11l0.19-0.23l-0.37-0.33L425.07,86L424.54,86.02z M421.92,82.37l0.61-0.1l1.37,0.85l-0.01,0.38l-0.38,0.04
	l0.15,0.81l0.28,0.17l0.16,0.66l-0.34,0.22l-0.06,0.58l-0.41-0.09l-0.42-0.93l0.36-0.74l-1.2-0.75l-0.08-0.54L421.92,82.37z
	 M422.45,81.55l0.9-0.11l1.16-0.23l1.91,1.05l-0.04,0.25l-0.44,0.39l-0.53,0.03l-0.12-0.3l-0.72-0.58l-0.06,0.34l0.6,0.47l0.04,0.56
	l-0.38,0.04l-0.58,0.23l-0.23-0.74l-1.5-0.96L422.45,81.55z M415.65,78.98l0.37-0.28l0.74-0.17l0.27-0.3l2.12,0.53l0.2,0.66
	l-0.18,0.27l-0.37,0.09l-0.72-0.16l0.64,0.46l0.83-0.2l0.44,0.84l-0.42,0.1l-1.17-0.43l-0.53,0.03l0.41,0.51l0.14,0.39l0.3-0.35
	l0.91,0.35l0.59-0.19l-0.01,0.38l1.33,1.7l0.36,1.51l0.41,0.89L422,85.81l-0.77-0.75l-0.39-0.61l-0.91-0.54l-0.38-1.17l-0.46-0.69
	l-0.32,0.07l0.25,0.46l0.05,0.22l-0.54,0.59l-0.3-1.47l-0.91-0.54l-0.84-0.88l-0.68-0.4L415.65,78.98z M418.72,77.17l0.7,0.68
	l1.09-0.3l0.68,0.82l-0.21,0.33l1.26,1.2l0.14,0.57l-0.47,0.48l0.07,0.31l-0.72,1.06l-0.38-0.56l-0.18-0.57l0.2-0.38l-0.12-0.49
	l-0.89-0.68l-0.63-1.58l-0.57-0.57L418.72,77.17z M390.67,75.19l-1.4,2.25l0.17,0.71l0.88-0.58l0.17-0.93l0.76-1.3L390.67,75.19z
	 M377.88,85.97l0.07,0.26l0.96,0.34l-0.06-0.64l0.37,0.33l1.62-0.34l0.26-0.34l-0.1-0.82l-0.3-0.26l-0.65,0.15l-0.09-0.35l0.12-0.31
	l-0.04-0.18l-0.72,0.03l-1.14,1.95L377.88,85.97z M374.81,89.6l1.31,2.41l0.97-0.22l0.84-1.37l0.27,0.5l2.48-2.45l0.21-0.52
	l-0.58-0.38l-0.07-0.31l0.09-0.63l-0.43,0.05l-0.81,0.66l-0.13-0.53l-1.31,0.03l-1.07,0.39l0.27,1.53l-0.58-0.8l-0.7,0.12
	l-0.39,0.37L374.81,89.6z M374.67,93.47l-0.03-0.32l0.83-0.8l0.31,0.07l0.62-0.05l0.73,0.39l-1.04,0.15l-0.25-0.22l-0.39,0.37
	L374.67,93.47z M372.63,95.5l-0.42,0.47l0.84,0.46l0.29-0.4l-0.18-0.57L372.63,95.5z M368.89,92.68l0.66-0.11l0.25,0.22l-0.82,0.24
	L368.89,92.68z M363.75,99.45l0.05,0.22l0.33-0.03l-0.11-0.26L363.75,99.45z M363.23,98.08l-0.35,0.55l0.05,0.22l0.44,0.41
	l0.35-0.55l-0.33,0.03L363.23,98.08z M362.22,97.94l-0.03,0.48l-0.59,0.19l-0.16,0.13l0.14,0.57l-0.14,0.45l0.27-0.07l0.23-0.47
	l0.36-0.13l0.31-0.54l-0.05-0.6L362.22,97.94z M359.98,97.53l0.1,0.82l0.73,0.2l0.49-0.39l-0.11-0.44l0.75-0.32l-0.11-0.26
	l-0.43,0.01l-0.26,0.34l-0.47-0.12L359.98,97.53z M357.71,98.01l0.53,0.2l-0.01,0.56l-0.76-0.33L357.71,98.01z M355.92,99.05
	l0.66-0.11l-0.24,0.43L355.92,99.05z M354.62,100.75l0.94,0.29l-0.77,0.23L354.62,100.75z M339.61,89.67l0.62,0.14l-0.3,0.35
	L339.61,89.67z M338.62,86.95l0.31,0.49l0.24-0.62L338.62,86.95z M347.75,75.77l0.68-0.21l0.46,0.08l0.45-0.34l0.59-0.19l0.82,0.18
	l0.57,0.76l0.05,0.41l-0.34,1.02l-1.13,0.17l-1.16-0.57L348.24,77l-0.72-0.77L347.75,75.77z M336.51,71.66l0.25,0.83l1.13,0.67
	l0.05,0.22l-0.39,0l-0.87-0.17l-0.25-0.46l-0.31-0.68L336.51,71.66z M342.45,59.35l0.13,0.53l1.07,0.59l1.06-0.25l0.39,0.42
	l0.17,0.71l1.17,0.61l0.96,0.34l0.03,0.32l-0.21,0.56l-0.77-0.38l-0.96,0.27l-0.46-0.27l-0.64-0.83l-0.93-0.81l-1.21,0.23l-0.53-0.2
	l0.24-1.04L342.45,59.35z M349.71,55.54l0.46-0.11l0.16,0.48l-0.46,0.11L349.71,55.54z M359.27,62.52l0.43-0.05l0.13,0.53
	l-0.84-0.04L359.27,62.52z M426.38,83.15l-0.51,0.31l0.07,0.5l0.56-0.13L426.38,83.15z M353.33,98.2l-0.64-0.04l-1.82,0.71
	l-1.14,0.92l0.15,0.85l0.95,0.11l0.6-0.56l0.77-0.23l2.31,0.11l-0.09-0.59l-0.85-0.31L353.33,98.2z M354.54,98.99l-0.33-0.58
	l0.58-0.04l0.2,0.61l0.83-0.2l-0.08-1.15l0.39,1.03l1.14-0.32l1.12-1.81l0.38-0.04l-0.19,0.66l0.74,0.25l1.92-0.54l1.07-0.81
	l0.63-0.19l0.3,0.63l0.22-0.29l0.03-0.67l2.74-0.55l0.7-0.91l-0.71-0.35l0.15-0.6l1.22-0.19l-0.22-0.51l1.17-0.18l0.21-0.56
	l0.53-0.03l1.92-1.34l-0.09-0.78l2.32-1.67l0.72-1.06l0.49-0.39l0.69,0.21l0.96-0.65l0.31-0.96l0.09-0.63l0.69-0.58l0.62-0.47
	l0.03-0.67l-0.69-0.63l-1.04,0.15l-0.23-0.55l0.2-0.8l0.62-0.24l0.44-0.81l0.86-0.25l1.23-1.79l0.03-0.67l0.45-1.18l1.31-2.23
	l1.06-0.67l0.78-0.6l1.05,0.13l0.92,1l-0.69,0.16l-0.8-0.51l-1.17,1.21l-0.77,0.23l0.24,1.39l-0.91,2.51l0.49,0.82l1.06-0.25
	l-0.17,0.51l-0.63,0.19l-0.91,1.06l0.09,0.4l0.98,0.24l1.5-0.63l0.47-0.9l0.66-0.11l1.2-1.08l-0.01-1.07l0.73-0.22l2.99-0.33
	l0.34-0.6l-0.02-2.1l-0.62,0.66l0.04-1.04l-0.89-0.45l0.21-0.75l0.2,0.66l1.56-0.37l0.21-0.52l0.73-0.22l0.04,0.79l0.89-0.16
	l-0.74,0.78l2,0.04l-1.57,0.56l-0.47,0.67l0.56,0.52l1.94-1.25l1.24,0.5l0.23-0.47l0.43,0.56l2.08,0.59l1.33-0.31l1.74-0.64
	l2.1,0.02l1.12,0.63l2.12-0.31l0.67-0.86l0.62,0.98l-0.76,0.51l0.68,0.4l3.81,0.89l0.91,0.96l2.92,1.23l1.31-1.24l-0.51-0.91
	l-1.83-0.51l1.56,0.2l0.16-0.36l0.55,0.48l0.29,1.2l0.9-0.5l1.16,0.57l-2.19-4.07l0.69,0.45l1.28,2.51l1.28,0.87l1.06-0.44l1.2,1.36
	l0.42-0.1l0.87,2.42l1.62-0.15l0.97,0.8l0.94,0.29l0.48,1.2l-0.55,1.35l1.51,0.4l0.3-1.19l0.24,1.39l-0.27,0.49l0.82,0.6l0.07-1.14
	l-0.22-0.51l0.39,0l0.52,0.96l-0.31,0.73l0.55,1.09l0.27,0.13l-0.03-0.74l0.39,0.19l0.08,0.92l0.58-0.04l-0.09,0.44l0.77-0.23
	l-0.11-0.44l-0.46,0.11l-0.13-0.76l-0.43-0.18l0.75-0.32l0.14-0.41l-0.17-0.71l0.37,0.52l-0.08,0.86l0.97,1.6l0.84-0.15l0.57-2.1
	l-0.15-0.85l-1.02-1.63l-0.18-0.52l0.1-0.58l-0.4-0.23l-0.77,0.23l-1.36-0.62l-0.79,0.18l-1.07-0.4l-0.69,0.16l-0.4-0.65l-0.68,0.02
	l-0.25-0.64l-0.51-0.11l-0.13-0.76l-3.14-2.73l-0.99-0.47l-0.13-0.53l-2.35-1.09l-0.44-0.41l-0.95-0.71l-0.94-0.06l-0.23-0.97
	l-0.69-0.45l-0.86-0.13l-0.83,0.8l-0.52,1.11l0.07,1.11l-0.68,0.21l-0.87,1.47l-0.4-0.05l-0.26-1.11l-1.34-0.72l-1.27-0.64
	l-0.44-0.84l-1.29-0.31l-0.14-0.99l-1.3,0.26l-0.21,0.56l-0.56,0.13l-0.4-0.23l-0.47,0.48l-0.96-0.34l-9.13-38.04l-3.62-1.07
	L390,33.71l-0.9,0.73l-1,0.28l-1.23-0.46l-2.05,0.2l-3.05-0.97l-2.67,0.44l-0.87,0.44l-0.28-0.78l-0.9-0.12l0.4-0.56l-0.19-0.38
	l-1.59-0.14l-1.11,0.26l-0.14,0.22l-0.48-0.17l-0.23-1.16l-0.46-0.31l-0.85,1.56l-0.38,0.04l-0.09-0.35l0.7-0.54l-0.09-0.35
	l-1.13-0.86l-0.52,0.08l-1.74,1.86l-1.79,0.42l0.09-0.44l-0.84,0.15l-2.03,2.07l-0.83,0.2l-0.36-0.29l-1.09,0.96l-1.26,2.03l-1,1.5
	l-0.56,0.69l-1.19,0.32l-1.06,0.06l-1.2-0.33l0,0l-0.87,2.03l0.21,1.08l1.45,0.78l1.45,1.77l0.66,2.33l1.55,0.57l1.61-0.19
	l0.41,0.28l-0.45,1.18l0.61,1.12l-1.06-0.97l-0.26-1.06l-0.72,0.03l0.18,0.52l0.54,0.85l1.73,1.33l-0.65,0.15l-0.9,0.73l-3.12-0.44
	l-0.26-0.88l0.51-0.73l-0.15-0.62l-1.02,0.01l-1.04,0.34l-2.19,0.61l0.93,0.86l-1.07-0.59l-3.74,1.44l-0.21,0.75l2.76,1.55
	l-0.22,0.71l0.08,0.92l-0.24,0.43l0.15,0.85l2.41,1.12l1.91-0.35l2.32,0.35l0.92-0.22l0.3-0.35l1.76-0.37l-0.04-0.37l0.67,0.36
	l0.26,0.88l-1.16,0.23l0.4,1.45l0.57,1.36l-1.05,1.51l-0.89,0.16l-1.01-0.14l-0.45,0.15l-1.21,1.27l-0.76,0.27l-0.94-1.09
	l-1.43,0.33l-0.8,1.12l-0.04,0.85l-1.33,1.15l-1.98,2.48l0.19,1.41l0.56,0.9l0.59,0.43l0.42-0.28l0.52,0.34l-0.3,0.35l-0.6,0.56
	l0.66,0.55l-1.08,0.77l0.6,0.89l1.03,0.83l0.81,1.73l2,0.23l1.11-0.63l0.67-0.67l0.45,0.87l0.6,1.92l-0.72,0.82l0.47,1.95
	l-0.18,0.46l-0.79,0.18l0.91,0.35l0.96-0.27l0.08-0.49l2.05-0.76l1.2,0.94l0.52-0.45l1.14,2.12l0.51,0.11l0.39-0.42l-0.21-1.08
	l0.31-0.54l0.44,0.41l0.26,0.69l0.78,0l2.04-1.04l0.22,0.51l-0.8,0.7l-0.56,0.93l-0.54,3.41l-1.77,1.35l-0.49,0.81l0.01,0.65
	l-0.53-0.16l-3.93,2.47l-0.39,2.02l-0.64-0.04l0.11-0.54l-0.84-0.46l-1.63,0.29l-2.1,1.99l-0.88,0.81l-1.06,0.25l0.03,1.12
	L354.54,98.99z"/>
<path class="st162" d="M12.86,113.94c9.66-4.27,24.03-9.78,42.15-13.65c23.12-4.94,36.88-7.87,46.93-0.46
	c11.65,8.58,4.54,20.87,16.72,36.63c10.21,13.2,30.87,24.84,51.5,19.41c19.33-5.09,28.58-22.52,30.48-26.31"/>
<path class="st163" d="M435.36,90.91l20.14,7.62l5.92-15.28l1.62-2.28l0.3-0.86l0.4-0.33l-0.28-0.9l-1.21-0.68l0.33-1.77l2.11-2.21
	l1.15-0.19l0.84-0.87l0.05-0.68l0.89-0.57l1.73-2.13l2.13-1.78l-0.04-1.39l-1.37-1.52l-0.5-1.62L456.6,58.5l-1.3,0.25l-2.34-0.71
	l-0.74-0.49l-0.73,0.42l-1.44-0.37l-2.02-0.06l-0.44,0.24l-1.83-0.43l-0.26-0.73l-0.52-0.16l-2.02,0.28l-0.64-0.57l-1.02,0.2
	l0.02-0.78l-0.95-0.65l-0.65-0.18l-0.38-0.53L438,54.2l-0.49-0.41l-0.53-0.08l-0.58,0.31l-2.47-0.04l-2.68-2.18l0.81-2.31l0.06-1.76
	l-1.2-1.76l-1.64-0.18l-0.11-0.49l0.25-0.49l-0.26-0.38l-0.45-0.02l-0.56,0.48l-0.65-0.18l-0.16-0.5l-0.44-0.1l-0.35,0.21
	l-0.78-0.92l-0.25,1.82l-0.65,0.47l-0.69,1.42L424,48.08l-2.7,4.94l-7.65,12.46l-1.68,1.75l-0.7-0.14l-0.08,0.9l-2.71,2.69
	l-0.32,1.38l0.37,0.61l-0.09,1.02l-0.59,0.39l-0.7,1.2l-0.29,2.42l0.36,1.3L435.36,90.91z"/>
<path class="st164" d="M573.74,52.68l-13.95,1.14l-3.54,0.58l-11.84,0.85l-1.76,0.55l-15.37,1.55l-0.49-0.39l-2.52,0.04l0.86,2.07
	l-0.4,0.59l-15.85,1.24l0.65-1.77l0.96,0.57l0.48-0.27l0.76-2.68l-0.69-0.64l0.66-1.31l0.13-0.59l-0.9-0.51l-0.23-1.17l2.68-2.45
	l4.74,1.87l1.02-0.21l0.25-1.57l-1.18-1.15l0.23-2.15l0.67-0.33l0.82,0.38l0.39-0.79l2.51-0.43l0.05-0.59l-1.05-1.41L521.76,43
	l1.47-1.78l-0.01-0.59l0.76,0.51l0.4-0.66l-0.5-1.1l3.13-0.38l0.15,0.78l0.75,0.12l0.26-0.59l-0.42-0.84l0.19-0.53l0.9,0.51
	l1.16-0.28l1.17,0.37l2.34,1.33l1.19-1.84l2.36-1.47l2.08,2.11l1.06-1.39l0.17-1.76l2.56-1.54l0.15,0.84l1.31,0.76l2.04-0.16
	l0.81-0.47l0.03-2.21l1.66-2.44l3.08-2.92l-0.09-1.11l0.77-2.48l1.51,0.63l4.51-3.01l-0.29-1.11l-1.05-1.35l0.66-1.25l0.89,0.31
	l1.5,0.04l1.29-0.55l1.99,0.75l1.54,2.19l0.01,0.65l2.8,0.41l1.57-0.16l1.32,1.35l1.5,0.1l-0.01-0.65l1.29-0.55l2.06,0.49l0.83,0.51
	l0.88-0.47l0.62-0.01l0.39-1.12l2.29-1.21l0.35,0.52l0.58,1.88l2.4,0.88l0.85,1.35l-0.05,0.72l0.42,0.64l-0.36,2.35l1.31,1.02
	l0.56,0.71l0.69,0.38l-0.05,0.59l3.07,3.6l0.95-0.02l1.04,1.16l0.82,0.18l0.95-0.08l-3.26,4.35l-1.97,0.69l-2.01,1.99l-0.25,1.44
	L585.4,45l-0.05,1.11l-0.94,0.93l-1.22,0.34l-0.32,1.24l-0.68,0.27l-4.65,2.81L573.74,52.68z M507.12,61.13l-0.49-0.45l0.12-0.65
	l0.75-0.01l0.49,0.45l-0.19,0.66L507.12,61.13z"/>
<path class="st165" d="M128.48,157.82l0,1.42l0.83,0.79l0.08,0.53l-2.05,2.14l-0.01,0.54l0.95,1.36l0.89,1.81l0.08,1.15l-0.19,0.55
	l0.15,1.5l1.92,0.81l0.53,0.45l0.51-0.52l0.85-1.66l1.96-1.42l1.48-0.32l1.11-0.52l0.74-0.58l1.35-1.64l-1.3-0.41l-0.68-0.58l0-0.75
	l-0.24-0.25l-0.91,0.06l0.02-1.11l-0.35-0.51l-1.25-0.94l-2.1-0.71l-1.28,0l-1.57-1.1l-0.56-0.23L128.48,157.82z M121.05,150.74
	l-0.46,0.7l0,0.75l1.29,0.98l0.88,0.16l0.3,0.42l0.27,1.32l1.64-0.02l2.32-1.31l-0.12-1.11l-0.65-0.18l-1.66-1.05l-0.83-0.08
	l-1.27,0.66l-0.76-1.15L121.05,150.74z M120.7,155.88l0.37-0.65l1.13-0.21l0.33,0.78L120.7,155.88z M117.28,152.24l0.88,1.72
	l1.39-0.35l0.08-0.89l-0.68-0.62L117.28,152.24z M115.23,149.39l-0.43,1.1l2.26-0.15l2.22,0.57l1.09-0.78l0.05-0.67l-2.17,0.23
	L115.23,149.39z M107.66,145.16l-0.8,0.98l-1.3,0.35l0.43,0.95l1.08,1.17l0.08,0.44l0.95-0.19l1.04-0.03l0.81,0.48l1.56-0.46
	l-0.02-0.31l-0.48-0.33l-0.29-0.92l-0.37-0.11l-0.2,0.46l-0.58-0.54l0.05-0.63l-0.91-1.41l-0.52-0.28L107.66,145.16z M92.89,140.61
	l-1.82,1.41l0.16,1.02l1.12,0.46l0.9,0.52l1.24,0.09l1.11-1.05l-0.14-0.84l0.31-0.77l-0.04-0.62l-0.48-0.37L92.89,140.61z
	 M88.13,143.06l-0.1,0.54l-0.84,0.46l-0.22,0.82l0.48,0.33l0.46-0.7l0.84-0.32l0.1-1.16L88.13,143.06z"/>
<path class="st166" d="M507.86,122.7l0.17-0.93l11.29,1.93l10.45,1.56l4.82-30.83l0.26,0.02l17.31,2.23l-1.41,13.3l0.86,0.47
	l0.76,0.99l0.49,0.13l0.39-0.29l0.39,0.15l0.44,0.35l0.4-0.44l0.72,0.58l0.1,0.92l0.38,0.25l0.76,0.02l1.11,0.68l0.66,0.01
	l0.47-0.09l0.71,0.74l0.71-0.67l1.13,0.43l0.56,0.98l0.76,0.02l-0.28,0.64l0.73,0.4l1.05-0.74l0.82,0.59l0.44-0.13l0,0.47l0.54,0.41
	l0.82-0.73l0.38,0.25l-0.14,0.62l0.29,0.59l0.42-0.22l0.92-1.25l0.55,0.67l0.65,0.2l0.71-0.17l0.62,0.61l0.4,0l0.4,0.41l1.21-0.2
	l0.24-0.52l1.23-0.01l0.51,0.26l1.71-0.67l0.17,0.48l1.69,0.02l0.2-0.49l0.7,0.33l1.44,1.29l2.07,0.74l0.81,0.78l0.95-0.34
	l1.04,0.33l-0.2,3.72l-0.28,6.23l0.16,1.08l0.8,0.93l0.11,1.7l1.15,1.53l0.17,1.36l0.33,0.02l-0.2,2.28l-1.23,1.92l0.38,0.75
	l-0.46,0.44l0.17,0.95l-0.13,1.34l-0.8,1.04l-0.05,0.25l-0.59,0.34l0.29,0.59l0.37,0.37l-1.16,0.01l-2.86,1.02l-1.19,0.35
	l-0.63,0.52l-0.22-0.17l0.75-0.67l0.61-0.18l0.19-0.27l-0.96-0.1l-0.21-0.27l0.31-0.61l-0.26-0.58l-0.2-0.02l-0.82,0.35l-0.69,0.77
	l0.06,0.54l1.01,1.14l0.42,0.12l-0.02,0.25l-0.8,0.45l-1.71,1.14l-1.41,1.12l-1.09,0.36l-1.72,0.82l-1.27,0.54l-1.53,0.49
	l-1.41,0.69l1.12-0.86l0.02-0.34l0.22-0.23l-0.03-0.57l-0.5-0.07l-0.4,0.44l-0.89,0.35l-0.57-0.42l-0.06-0.54l-0.5-0.03l0.21,0.71
	l0.45,0.25l0.38,0.31l0.56,0.54l-0.25,0.23l-1.33,0.44l-0.56-0.01l-0.37-0.4l-0.21,0.64l0.14,0.36l-0.93,0.56l-0.5,0.03l-0.28,0.2
	l-0.17,0.52l-0.67,0.99l-0.54,0.18l-0.52-0.22l-0.62,0.3l0.07,0.44l0.41,0.28l0.31,0.27l-0.67,1.05l-0.16,0.87l-0.37,0.51
	l-0.48,0.28l-0.97,0.06l0.58,0.23l0.64-0.14l-0.2,0.99l-0.36-0.06l0.04,0.38l0.07,0.44l-0.45,0.25l-0.07,0.97l0.5,0.47l0.13,0.98
	l-0.18,0.68l-0.34,0.1l0.1,0.48l0.35,0.15l0.22,0.55l-0.06,0.81l0.32,0.68l0.67,0.86l-0.05,0.21l-0.72-0.11l-0.56,0.4l0.04,0.44
	l-0.29-0.12l-0.46-0.1l-1.04-1.24l-0.75-0.24l-2.34-0.17l-0.91-0.31l-1.12-1.02l-0.54-0.35l-0.69-0.02l-1-0.89l-1.75-0.62l0.03-0.41
	l-0.42-0.6l-0.19-1.49l-0.32-0.56l-0.53-0.48l0.03-0.5l-0.45-0.22l0.26-0.8l-0.05-0.7l-0.4-0.47l0.3-0.92l-0.19-1.02l-0.53-0.48
	l-0.36-0.03l-1.24-1.19l0.08-0.59l-0.22-0.55l-0.26-0.08l-0.24-0.77l-0.63-0.55l-0.9-0.85l-0.02-0.66l-0.31-0.24l0.1-0.49l0.18-0.21
	l-0.43-0.5l0.05-0.21l-0.61-0.73l0.08-0.65l-0.78-1.59l0-0.53l-0.53-1.01l-1.58-1.62l0.02-0.34l-1.05-0.61l0.01-0.56l-0.39-0.15
	l0.01-0.22l-0.26-0.08l-0.63-0.92l-0.26-0.02l-0.22-0.21l-0.45,0.31l-0.73-0.05l-0.83-0.4l-1.52-0.11l-1.34-0.75l-0.47,0.56
	l-0.71-0.24l-1.12,0.3l-0.62,0.84l-0.73,0.95l-0.46,1.35l-0.49,0.34l-0.37,0.01l-0.33,0.48l-0.44,0.16l-0.07,0.56l-0.96-0.04
	l-0.56-0.51l-0.33-0.02l-0.6-0.95l-1.18-0.24l-0.51-0.76l-0.43-0.09l-0.67-0.3l-1.05-1.14l0.08-0.24l-0.5-0.41l-0.33-0.06
	l-1.05-1.05l0.01-0.62l-0.67-1.3l0.1-0.49l-0.2-0.42l0.3-0.45l0.02-0.75l-0.77-1.34l-0.1-1.33l-0.49-0.54l0.02-0.31l-0.39-0.09
	l-0.21-0.36l-0.75-0.59l-0.3-0.05l-0.59-0.54l0.02-0.34l-0.92-0.63l-0.15-0.67l-0.81-0.78l-0.96-1.45l-0.96-0.48l-0.66-0.61
	l0.09-0.37l-0.4-0.47l-0.48-1.2l-0.77-0.37L507.86,122.7z M562.57,169.98l0.26,0.05l-0.09-1.52l-0.88-3.92l0.11-2.53l1.85-3.16
	l2.2-2.42l2.49-1.43l0.01-0.22l-0.26-0.02l-0.88,0.25l-1.24,0.63l-0.27,0.45l-2.97,3.43l-1.1,2.4l-0.2,2.75l0.92,3.83L562.57,169.98
	z"/>
<path class="st167" d="M85.64,198.73c13.64-35.52,28.03-53.11,45.84-58.19c17.7-5.05,3.98-1.31,68.66-19.8
	c1.34-0.38,19.84-5.78,41.35-17.16c7.63-4.04,11.28-6.52,14.68-9.62c11.78-10.71,15.94-24.48,17.6-32.67"/>
<path class="st168" d="M1.4,97.59c11.7-11.56,29.22-24.76,51.04-25.27c6.68-0.16,6.71,1.04,36.94,8.38
	c30.08,7.3,45.43,10.96,60.68,11.27c11.39,0.23,14.2-0.94,27.91-0.14c14.5,0.84,26.33,3.01,34.27,4.78"/>
<path class="st169" d="M558.22,51.54l2.71,7.77l-0.33,1.74l-0.85,0.49l-1.15-0.78l-1.91,0.36l-1.35,1.1l2.81,5.63l1.38,1.82
	l0.48,1.27l0.12,1.53l-54.99-24.28l-1.3-1.12l-8.01-29.04l22.7-7.14l11.69-3.87l11.06-3.88L558.22,51.54z"/>
<path class="st170" d="M464.57,28.71l1.25,0.76l0.39,0.56l-0.73,1.84l0.07,1.34l1.39,2.85l1.59,0.68l1.88,0.22l0.87,1.44l-0.25,0.34
	l1.47,0.58l1.04,0.83l-0.03,0.87l0.56,0.55l0.67-0.05l1.74,1.74l0.19,1.39l-0.57,1.77l-0.55,0.74l0.06,1.29l-0.84,1.25l-2.26,1.16
	l-1.35,0.11l-1.64,0.56l-0.36,2.19l0.7,0.81l0.58,0.11l0.57,0.71l0.12,1.88l-0.26,0.29l-0.84,1.36l0.12,1.28l-0.5,0.69l-0.49,0.2
	l-0.98,0.41l-0.49,0.85l0.44,0.45l0.06,1.23l-0.36,0.41l-0.88-0.36l-0.67-0.54l-0.42-0.83l-1.02-0.62l-7.97,1.09l-15.19,1.91
	l-14.52,1.15l-1.23-2.27l0.28-1.21l-0.61-1.72l-0.03-1.56l-0.77-0.31l-0.53-3.24l-1.82-2.54l-0.3-1.97l-1.45-2.2l-0.92-1.92
	l-0.07-0.75l-0.42-0.88l-0.11-1.23l-0.32-0.46l-0.48-0.88l-0.23-0.68l-0.79-0.58l0.35-2.34l0.7-2.8l-0.49-1.04l-0.75-0.15l-0.3-0.83
	l0.54-0.31l0-0.59l-0.8-0.74l-0.02-0.86l1.24-0.05l15.8-1.31l20.3-2.17l10.39-1.24L464.57,28.71z"/>
<path class="st171" d="M458.17,139.22l-1.27-0.58l-0.23-0.82l-4.97-2.11l-0.91-2.83l0.15-1.11l-0.38-0.8l-20.66,13.28l-2.73-7.12
	l-0.09-3.45l0.92-6.65l-1.85-0.76l1.18-0.68l-1.03-1.81l-2.2-0.56l-0.24-1.11l-1.02-0.14l-3.17-3.36l-0.08-0.97l-30.52,18.42
	l6.54,10.77l1.48,1.63l2.42,0.66l2.11,2.73l3.69,1.24l1.82,2.09l0.59-0.34l2.23,4.05l0.06,4.63l1.49,0.82l-0.3,1.26l1.36,1.41
	l1.29,2.4l-0.2,2.67l0.19,0.48l-0.63,1.24l1.15,0.65l1.05,0.2l0.54-1.25l2.85-2.29l3.58-2.12l6.87-1.16l5.04-2.16l0.45-1.28l1-0.72
	l3.53-0.41l0.82-0.76l0.18-1.2l-3.05,0.43l-0.99,1.3l-0.71,0.26l-1.46-0.63l1.26-2.33l0.92-0.6l0.53,0.93l0.86-0.57l1.92-1.32
	l0.96,1.13l0.78-0.16l0.95,0.84l3.15-1.07l1.51,0.3l0.22,0.38l-0.71,0.4l-0.35,1.44l1.38,0.08l3.51-1.28l2.47,0.62l2.29-2.04
	l-2.13,1.36l-0.25-0.3l1.44-1.33l-0.45-1.05l0.62-0.57l-0.44-0.77l0.68-0.32l0.5,0.88l1.51-0.79l-0.12-1.31l0.63-0.14l0.9,1.31
	l0.77-0.3l-0.44,1.71l1.25-1.37l0.84-1.28l0.68-2.79l-0.41,0.24l-0.39,1.1l-0.27,0.08l-0.54-0.27l0.16-0.96l-0.72-1.27l0.4-0.81
	l0.63,0.15l0.34-0.78l0.56-0.39l0.76,0.51l0.24,1.25l1.42-0.81l3.55-0.8l0.71,0.54l1.38,0.23l1.69-0.89l0.99-0.05l0.75-1.16l0-1.24
	l-0.53-0.93l-0.83,0.47l-1.15-0.36l-0.99-0.24l-2.17,0.59l-1.47,0.99l-3.24,0.1l-0.72-1.27l0.46-0.99l1.61-0.48l-2.34,0.17
	l-0.13-0.51l2.13-1.22l0.44-2.8l-2.1-0.11l0-1.1l-0.96-0.03l-0.47,0.27l-0.52,1.83l0.66,1.16l-0.13,0.59l-0.68,0.32l-1.38-0.23
	l-0.77,0.44l-0.47-0.82l0.13-0.59l0.69,0.11l0.5-1.46l-0.09-1.11l0.38-0.44L458.17,139.22z M451.23,141.22l1.44-0.09l0.82,0.33
	l1.51-0.79l1.14-0.07l0.56,0.7l-0.05,0.47l-1.01-0.52l-0.45,1.13l-0.09,1.07l-1.4,1.38l-0.92,0.6l-2.5,0.7l-0.47-0.97l0.55-1.77
	l-0.1-1.69L451.23,141.22z M448.83,143.47l0.35,0.6l-0.44,1.71l-0.71,0.4l-0.69-1.21l0.47-1.36L448.83,143.47z"/>
<path class="st172" d="M26.61,144.92c8.22-14.25,21.62-31.61,42.53-37.88c6.4-1.92,6.75-0.78,37.84-1.7
	c30.94-0.92,46.71-1.46,61.5-5.2c11.05-2.79,13.44-4.66,26.88-7.53c14.2-3.03,26.18-4.07,34.31-4.46"/>
<path class="st173" d="M589.76,85.69l-1.46-0.82l-0.97-2.97l0.84-5.24l-1.38-1.06l0.48-1.15l-0.63-1.6l-55.81-28.61l2.46-4.2
	l-4.62-0.09l-0.68-0.41L524.61,40l-3.14-0.68l-11.62,21.41l-7.68,14.09l13.51,7.39l47.83,24.64l1.88-0.68l1.59,0.11l1.26,0.66
	l0.81,1.22l1.82-0.32l1.41,0.47l2.75-0.93l2.26-0.6l3.59,0.11l-1.3-4.24l-0.9-1.8l0.71-2.29l-1.42-2l1.46-2.53l1.2-0.1l1.49-0.89
	L582,91.1l4.79-1.81l1.04-1.44l2.5-0.62L589.76,85.69z"/>
<path class="st174" d="M172.8,5.67l-15.74,5.84l-0.56-1.95l-3.27-1.65l-0.71,1.36l-0.63-0.09l-0.09-1.1l-0.42-0.3l-18.73,6.04
	l-5.24,4.63l-1.05,0.32l-3.28,2.27l0.27,1.46l-1.38,1.11l-0.57,2.68l0.4,0.94l5.73,1.72l2.09-0.72l3.29,2.44l0.64,1.21l4.39,3.07
	l2.45,0.79l1.19-0.11l2.11,0.8l1.31,1.46l1.94,0.83l1.58,0.04l2.72,1.54l0.34,1.04l2.66,1.63l4.54,0.8l4.19,4.39l0.74,1.99l3.6,0.85
	l2.94,3.16l1.23,2.19l3.54-0.49l0.39-1.28l0.5-0.11l1.21-1.47l0.05-1.61l2.25-2.19l-0.19-1.87l-1.15-0.45l0.53-0.68l0.73,0.15
	l1-0.55l1.1-1.93l2.8-2.08l0.88-2.12l-0.05-0.55l3.16-4.24l-0.17-0.36l-0.89-0.43l0.63-1.34l0.66-0.15l0.42,0.3l0.43-0.74l1.07-0.24
	l0.22-1.25l1.51-2.03l-1.23-4.03l0.24-1.89l1.84-5.37l1.58-2.12l1.61-1.25L172.8,5.67z"/>
<path class="st175" d="M187.5,48.56l-1.07-0.3l-0.05,1.32l-1.02,0.46l-0.32,3.93l0.74,1.72l1.81,0.98l1.42,0.17l-0.38,2.74
	l3.28,3.56l0.77,0.15l0.11-0.74l1.15,0.1l-0.26,1.39l3.42,2.47l-0.57,0.81l2.06,1.23l0.95-0.43l1.77,0.65l0.4-1.44l2.6-0.08
	l5.48,1.2l1.21-0.79l2.15,1.03l0.93-0.69l1.59,0.63l3.31-1.12l0.18,1.93l-0.95,1.47l0.47,2.25l1.49,0.58l6.6-0.42l-0.07,2.1
	l2.04,0.12l0.82,0.48l1.66,0.6l0.82,0.48l1.61-0.16l0.91,0.71l1.99-0.81l1.84,0.02l0.86-1.09l0.68-0.08l-0.72,8.92l1.75-0.21
	l1.23-0.11l0.6,0.12l0.02-0.78l1.18-0.26l0.06-0.89l0.43-0.33l-0.2-0.53l0.61-0.92l0.75-0.1l-1.03-1.87l0.48-2.08l-0.62-0.99
	l-1.24-0.32l-0.38-0.99l-2.52-0.55l-1.24-2.4l0.14-1.7l-3.41-1.01l-0.43-1.75l-3.63-1.36l-1.38-0.28l-1.64-0.96l7.46-4.2
	l-7.09-12.47l12.82-7.46l-1.48-1.37l-1.06,1.6l-1.57,0.48l-1.22,0.97l-2.69,0.03l-3.8,1.3l-2.8,0.16l-0.62,0.66l-1.65,0.26
	l-0.67-0.71l-2.89-0.67l-1.92-0.86l-0.17-0.45l-1.71-0.93l0.46-1.29l-1.69-0.68l-0.93,0.08l-0.38-0.99l-1.91-0.43l-1.44,0.61
	l-0.64-0.64l-0.36,1.34l-1.33,0.49l-0.43-0.71l-0.76-0.33l-0.64-0.64l1.29-0.99l-0.12-1.34l-1.9-0.17l-1.62,0.34l-1.23-0.5
	l-2.14,1.91l-1-0.93l-2.56,0.59l-0.44-1.14l-1.91-2.07l-0.79,0.21l-0.52,0.71l-2.69,0.46l-0.56,1.85l-0.53,0.89l-0.13,0.91
	l-0.66,0.15l-2.63,4.77l0.41,1.06l-0.82,1.6l0.14,0.99l0.48,1.04L187.5,48.56z"/>
<path class="st176" d="M298.71,82.72l4.09-0.67l0.96-0.87l-0.15-1.52l-2.66-1.71l0.69,1.07l-1.49,2.02l-2.77,0.44l0.29,0.91
	L298.71,82.72z M288.26,86.55l-1.57-0.45l1.04-1.12l0.28-2.54l1.23-1.39l0.92-0.39l0.9,0.92l1.36,0.01l0.6-0.81l1,2.1l-1.5,0.6
	l-3.23,1.35L288.26,86.55z M241.4,66.34l21.35-7.97l0.89-1.92l0.01-2.02l2.16-1.06l0.37-1.37l1.82-1.6l1.62,0.09l2.73,3.48
	l1.29,0.26l1.05-1.71l1.23,1.35l0.23,1.27l-3.11,3.36l0.41,0.88l-0.88,1.33l0.65,0.84l-1.5,0.6l1.34,1.21l-0.82,0.96l0.93,1.04
	l1.04-0.4l0.19-0.98l1.45,0.48L278,64.1l3.55,2.52l0.78,2.96l2.19-0.23l1.19,1.11l1.14,2.19l1.35,0.61l2.29-0.37l2.26-0.49
	l0.77-1.19l1.67-1.7l1.26-0.56l-1.88-2.19l-0.17,1.09l-2.55-3.86l-0.97,0.16l-0.3,1.12l-1.65-0.92l1.34-1.53l2.25,0.11l3.2,1.98
	l2.12,2.86l2.13,3.58l-0.62,3.43l-0.37-2.08l-1.05-1.02l-3.73,3.34l-1.14-0.17l-1.72,1.47l0.13,1.4l-2.4,1.81l-1.97,2.81l-2.01,2.59
	l-1.44,0.23l3.28-4.45l0.21-2.29l-0.72-0.6l-0.63-1.44l-1.1,0.06l0.15,1.52l-0.95,1.58l-1.44,0.23l-0.13,1.33l0.73,1.31l-1.22,1.5
	l-1.36-0.01l-0.28,1.23l-2.31-3.19l-1.79-1.02l-3.4-0.99l-1.18-2.42l-0.97,0.16l-1.38-2.86l-7.4,3.58l-0.18-0.33l-17.22,6.83
	l0.14,0.81l-1.02,0.52l-0.75-0.71l-12.13,4.81l-1.05-1.02l-2.52-17.41L241.4,66.34z"/>
<path class="st177" d="M150.21,83.56l-4.27,0.59l-3.26-1.92l-6.62,36.02l-1.75,3.44l-0.39,1.4l1.12,2.93l-0.13,0.49l-0.4,0.57
	l0.31,1.51l-0.69,1.62l-1.55,0.94l-1.79,2.68l-3.88,2.95l-1.43,4.89l-0.75-0.2l0.31,1.51l0.67,0.78l0.65-0.58l-0.2-1.34l3.55,0.57
	l-0.08,0.88l0.79,0.36l0.48-0.55l-0.2-1.03l0.38-0.5l0.82,0.82l1.36,0.06l1.16,0.76l2.15,2.15l1.89-1.6l3.06-0.84l1.62,2.92
	l1.61-1.16l0.75-1.83l3.3-0.85l-0.1,0.95l1.2,1.22l2.3,0.46l1.03-0.25l0.73-2.36l2.59-2.09l4.3-2.16l0.25-1.21l1.64-2.43l1.46,1.14
	l5.9-1.81l0.03-1.27l-0.72-1.77l1.11-1.13l6.09-41.43l0.19-1l-25.03-4.12L150.21,83.56z"/>
<path class="st178" d="M481.51,135.92l-0.47,3.04l2.01,2.15l0.1,1.78l1.45,1.52l1.15,0.09l1.48-1.96l0.06-2.28l1.45-0.31l1.04-1.93
	l-0.16-1.07l3-0.66l-1.16-2.15l1.26-1.55l1.6-1.3l-0.36,2.44l1.7-1.11l0.8,0.94l1.11-0.32l0.4-1.24l2.78-0.25l0.91-2.04l1.98,0.4
	l2.95-2.1l0.16-0.51l-0.58-0.56l0.7-2.42l0.72-0.67l-0.22,1.2l0.89-0.15l0.59-2.37l-0.77,0.02l-0.36,0.85l-0.6-1.28l1.03-0.82
	l0.44,0.2l0.95-0.05l-0.27,2.14l1.62,0.21l2.08,1.14l0.23-0.73l-0.57-1.11l0.99,0.36l0.62-1.65l0.28,0.71l-0.21,1.45l1.27,1.55
	l0.39-0.68l0.74,0.05l-0.04-0.65l0.76-0.26l0.3-1.18l-1.19-0.49l-1.71,0.07l1.45-0.86l0.73-0.43l1.05,0.14l0.01,1.03l0.94,1.54
	l0.8-1.44l2.06-0.37l-0.39-1.14l0.48-1.21l0.74,0.6l0.54,0.15l1.64-0.65l0.85-1.58l1.63,0.7l0.24-0.49l0.53-1.12l0.06,1.12l1.39-0.4
	l2.74-2.48l0.44-1.62l-0.61-1.76l-1.57-2.98l-1.47-0.41l-1.14,1.42l-1.54-2.81l0.42-0.51l0.35-1.09l-0.19-3.62l-0.57-0.32
	l-0.63,0.14l-3.71-1.04l0.61-2.68l-0.18-20.66l-4.78-4.27l-2.22-0.7l-6.73,3.35l-1.85-1.31l0.14-3.05l-2.09-0.59l-9.9,12.68
	l-0.91,4.66l-1.88,1.38l-1.39,3.26L491,95.9l0.57,0.32l-0.38,1.16l-2.3,2.92l-1.49,0.7l-1.53,1.32l-2.13,5.58l-1.62-1.25l-1.25-0.04
	L481.51,135.92z M514.07,125.47l-0.96,0.37l-0.3,0.95l0.73-0.43l0.51,0.78l0.43-0.28l0.8,0.39l-0.59-0.8l0.5-0.49L514.07,125.47z
	 M512.14,126.99l-1.03,0.58l0.29,0.4l-0.31,0.71l0.85,0.24l0.42-1.31L512.14,126.99z M510.19,125.17l0.39,1.14l0.65,0.58l0.47-0.66
	l0.42-1.31l-0.84-0.79l-0.59,0.79L510.19,125.17z M508.25,128.6l-0.92-1.6l1.8-1.4l0.55,0.39l-0.1,0.85l0.59,0.8l-0.26,0.8
	l-1.01,0.51L508.25,128.6z"/>
<path class="st179" d="M202.64,130.14l0.19,0.69l-1.26,3.66l-0.58,0.28l0.83,0.03l0.28,0.99l-0.3,0.67l0.54,3.04l-0.29,3.38
	l0.54,0.91l1.07,2.42l-1.78,0.66l-2.12,0.23l-0.98-0.2l-0.91,1.01l0.35,1.24l1,0.83l0.35,2.19l-0.98,0.6l-0.66-0.4l-0.75-1.49
	l-24.89,8.81l-2.51-2.49l-0.66-0.98l-0.97-0.52l-0.45-0.62l-0.58-3.19l-2.01-2.47l-0.11-1.35l-0.37-1.87l0.58-2.19l-0.26-0.51
	l-1-0.25l-0.45-1.58l-1.17-0.68l-2.32-2.59l-12.95-20.73l11.18-4.71l10.41-4.55l0.22,0.95l-0.82,0.77l-0.26,1.78l0.28,0.61l3.62,1
	l1.28-0.52l2.13,1.52l0.44,0.78l2.84,1.91l1.56,0.47l0.74-0.1l1.33,0.48l0.87,0.93l1.24,0.5l0.98-0.01l1.74,0.94l0.25,0.67
	l1.71,1.01l2.85,0.41l2.76,2.79l0.53,1.29l2.27,0.48l1.93,2.01l0.84,1.41l2.18-0.4L202.64,130.14z"/>
<path class="st180" d="M572.36,126.07c-6.12,2.35-15.17,5.45-25.91,7.7c-36.36,7.63-61.31-0.91-70.2-3.63
	c-22.05-6.76-56.3-11.79-109.48-3.7"/>
<path class="st181" d="M491.16,89.58l1.55,1.79l-0.54,0.08l-0.78-0.64L491.16,89.58z M491.48,85.92l0.88,1.44l1.05,0.28l0.25-0.24
	l-0.61-0.88l-1.12-0.79L491.48,85.92z M482.93,79.62l0.1,0.88l0.83,0.37l1.71-0.22l0.35-0.4l-1.22,0.03L482.93,79.62z M480.63,79.85
	l1.3,0.07l0.64,0.76l-1.48,0.13L480.63,79.85z M501.22,94.94l-0.52-1.07l-0.05-1.11l-0.49-2.89l-0.9-1.7l-0.53-0.47l-0.3-0.53
	l-3.09-2.92l-1.4,0.16l-0.86-0.63l0.35-0.7l-0.43-1.34l-0.91-0.37l-1.54-0.09l-1.15-0.38l-0.67-0.65l-2.03-2.27l-1.15-0.72
	l-1.46-0.06l-1.31-0.74l-1.9-0.39l-1.1-0.01l-1.08-0.83l-0.04-1.03l0.11-1.79l0.49-1.93l-0.61-0.54l-1.96-3.32l-1.21-1.27
	l-0.28-1.09l-0.72-0.79l-0.03-0.92l-0.99-1.77l-1.24-0.89l-0.07-2.63l0.9-0.37l0.57-1.2l-0.29-1.16l-0.43-0.3l-0.97,0.08l-1.11-1.13
	l-0.73-1.23l-0.32-2.75l0.29-1.58l-0.01-0.78l0.98-0.01l0.03,0.59l-0.28,0.28l0.11,0.92l1.58,1.05l-0.2-1.73l-0.69-1.2l0.15-0.42
	l-0.46-0.59l1.03-0.65l-0.87-1.04l-0.52,0.23l-0.42,1.44l0.25,0.46l-0.27,0.4l-0.36,0l-2.36-2.06l0.04-2.08l-0.59-1.39l-3.08-4.48
	l-0.14-3.95l0.74-1.4l-0.2-2.35l-2.62-3.89l-0.1-1.92l2.37-2.99l0.56-0.94l-0.1-0.51l1.17-3.51l-0.32-3.09l0.24-0.95l26.54,4.59
	l-3.71,23.71l0.58,1.25l31.88,36.16l-0.26,0.8l0.65,1.2l0.62,0.61l0.71,2.09l1,0.84l0.24,0.68l-0.45,0.52l-1.8,0.78l-0.78,1.4
	l-0.33,2.62l-0.8,1.26l-0.61,0.16l-0.14,2.57l0.5,0.55l0.71,0.01l0.46,0.55l-0.21,0.91l-1.08,0.91l-0.86,0.04L501.22,94.94z"/>
<path class="st182" d="M115,60.57l-8.39,2.74l-4.04-12.61l-0.15-2.24l-0.25-0.7l0.09-0.41l-0.63-0.43l-1.09,0.16l-0.68-1.29
	l0.19-2.44l0.62-0.68l0.08-0.97l-0.32-0.46l0.26-0.8l0-2.21l0.43-2.18l-0.72-0.86l-1.62-0.3l-1.13-0.79l-0.43-1.47l-0.92-1.07
	l-6.1-18.96l4.85-1.64l2.44,7.4l2.44,1.54l0.37,1.72l1.95,0.78l0.7-0.13l2.66,1.77l0.37,0.62l1.23,0.48l0.27-0.16l0.8,0.38
	l0.97-0.57l0.29,0.48l0.86,6.32l0.58,1.31l0.51-0.1l0.95,0.49l0.61-0.92l0.67-1.35l0.91,0.23l0.6,0.66l0.41,1.04l2.48,2.44
	l1.41,0.58l0.95,0l0.65,0.82l0.73,1.22l1.11,0.27l0.08-0.97l2.39-0.75l0.43-0.73l3.04-1.1l0.26-1.48l0.44-0.5l0.69,0.32l1.22,0.93
	l0.29-0.13l7.14,17.82l-16.04,6.1L115,60.57z"/>
<path d="M286.28,40.05c0.3-0.41,0.56-0.89,0.86-1.3c0.3-0.41,0.74-0.53,1.09-0.23c0.19,0.16,2.61,2.26,5.08,2.31
	c2.21,0.04,3.64-1.27,3.67-2.91c0.04-1.92-1.6-3.17-4.75-4.54c-3.24-1.44-5.76-3.18-5.69-6.89c0.05-2.49,2.03-5.88,7.12-5.78
	c3.2,0.06,5.57,1.77,5.88,2c0.25,0.16,0.5,0.62,0.17,1.09c-0.26,0.38-0.56,0.82-0.82,1.2c-0.26,0.41-0.68,0.59-1.13,0.3
	c-0.22-0.13-2.43-1.65-4.29-1.68c-2.69-0.05-3.65,1.63-3.67,2.81c-0.03,1.82,1.35,2.97,3.99,4.11c3.68,1.57,6.82,3.4,6.74,7.3
	c-0.06,3.33-3.09,5.99-7.25,5.91c-3.9-0.07-6.33-2.17-6.83-2.66C286.17,40.82,285.95,40.59,286.28,40.05z"/>
<path d="M302.6,35.87l-1.31-0.31c-0.34-0.08-0.52-0.42-0.45-0.73l0.34-1.4c0.08-0.34,0.39-0.53,0.73-0.45l1.31,0.31l0.83-3.45
	c0.08-0.31,0.42-0.52,0.73-0.45l1.78,0.39c0.31,0.07,0.49,0.42,0.42,0.73l-0.84,3.49l3.17,0.76c0.34,0.08,0.53,0.39,0.45,0.73
	l-0.34,1.4c-0.07,0.31-0.39,0.53-0.73,0.45l-3.17-0.76l-1.48,6.16c-0.25,1.06,0.11,1.34,0.7,1.48c0.65,0.16,1.61-0.01,2.03-0.1
	c0.45-0.09,0.59,0.14,0.65,0.45l0.23,1.5c0.07,0.38-0.11,0.6-0.46,0.68c-0.36,0.11-2.37,0.42-3.86,0.06
	c-2.46-0.59-2.81-2.26-2.28-4.46L302.6,35.87z"/>
<path d="M316.86,49.23c0.48,1.25,0.55,2.5,0.55,2.5c1.89-0.7,2.5-1.34,1.91-2.87c-0.53-1.37-1.41-2.58-1.83-3.13
	c-0.23-0.32-0.07-0.62,0.22-0.84l1.01-0.67c0.35-0.24,0.64-0.11,0.84,0.12c0.17,0.17,1.43,1.64,2.28,3.85
	c1.48,3.82-0.71,5.08-3.7,6.23l-6.36,2.46c-0.3,0.12-0.67-0.05-0.79-0.35l-0.32-0.84c-0.1-0.27-0.03-0.43,0.22-0.67l0.69-0.61
	c-0.88-0.41-2.23-1.23-2.94-3.08c-0.87-2.24,0.03-4.44,2.51-5.4C313.34,45.1,315.68,46.19,316.86,49.23z M310.99,51.09
	c0.46,1.19,1.8,1.98,2.53,2.11l1.91-0.74c0.05-0.23,0.09-1.2-0.33-2.27c-0.55-1.43-1.68-2.13-2.9-1.66
	C311.12,48.95,310.57,49.99,310.99,51.09z"/>
<path d="M327.64,49.58l-0.7-1.15c-0.18-0.3-0.07-0.67,0.2-0.84l1.23-0.75c0.3-0.18,0.65-0.1,0.83,0.2l0.7,1.15l3.03-1.85
	c0.27-0.17,0.67-0.07,0.83,0.2l0.98,1.54c0.17,0.27,0.05,0.64-0.22,0.81l-3.06,1.87l1.7,2.79c0.18,0.3,0.1,0.65-0.2,0.83l-1.23,0.75
	c-0.27,0.17-0.65,0.1-0.84-0.2l-1.7-2.79l-5.41,3.3c-0.93,0.57-0.88,1.02-0.56,1.54c0.35,0.57,1.15,1.14,1.51,1.37
	c0.38,0.26,0.32,0.52,0.14,0.78l-0.9,1.22c-0.22,0.32-0.5,0.35-0.81,0.15c-0.33-0.17-1.97-1.38-2.77-2.69
	c-1.32-2.16-0.39-3.59,1.55-4.77L327.64,49.58z"/>
<path d="M335.98,56.75c2.46,2.24,2.66,5.81,0.35,8.34c-0.15,0.17-0.46,0.45-0.63,0.59c-0.24,0.22-0.58,0.21-0.79,0.01l-6.42-5.87
	c-1.1,1.34-1.13,3.61,0.41,5.01c0.85,0.78,1.97,1.11,2.73,1.24c0.43,0.09,0.69,0.15,0.66,0.56l-0.16,1.5
	c-0.01,0.34-0.11,0.59-0.61,0.57c-1.23-0.03-2.99-0.57-4.58-2.01c-2.86-2.61-2.7-6.58-0.22-9.3
	C329.16,54.73,333.14,54.16,335.98,56.75z M334.55,62.64c0.97-1.2,0.91-3.03-0.25-4.09c-1.27-1.17-3.11-1.15-4.33-0.1L334.55,62.64z
	"/>
<path d="M250.92,113.21c-0.05-0.32,0.16-0.64,0.51-0.69l7.22-1.07c3.89-0.58,7.56,2.11,8.13,5.94c0.58,3.93-2.14,7.6-6,8.17
	l-4.59,0.68l1.11,7.44c0.05,0.32-0.2,0.64-0.51,0.69l-2.06,0.31c-0.35,0.05-0.64-0.2-0.69-0.51L250.92,113.21z M260.1,122.49
	c2.18-0.32,3.76-2.37,3.42-4.65c-0.32-2.15-2.4-3.53-4.58-3.2l-4.37,0.65l1.17,7.85L260.1,122.49z"/>
<path d="M272.88,118.05c1.34-0.1,2.55,0.19,2.55,0.19c-0.12-2.01-0.57-2.78-2.19-2.65c-1.47,0.11-2.87,0.61-3.53,0.85
	c-0.37,0.12-0.62-0.11-0.74-0.46l-0.35-1.16c-0.13-0.41,0.08-0.65,0.36-0.76c0.22-0.11,1.98-0.89,4.35-1.08
	c4.08-0.32,4.66,2.14,4.91,5.33l0.53,6.79c0.02,0.32-0.24,0.63-0.56,0.65l-0.89,0.07c-0.29,0.02-0.42-0.1-0.58-0.41l-0.39-0.84
	c-0.65,0.72-1.82,1.78-3.8,1.93c-2.39,0.19-4.24-1.31-4.45-3.96C267.91,120.23,269.62,118.3,272.88,118.05z M272.97,124.2
	c1.28-0.1,2.41-1.15,2.75-1.82l-0.16-2.04c-0.2-0.11-1.12-0.43-2.27-0.34c-1.53,0.12-2.52,1-2.42,2.3
	C270.95,123.46,271.79,124.29,272.97,124.2z"/>
<path d="M276.71,109.59c-0.23-0.22-0.24-0.63-0.02-0.86l0.64-0.67c0.15-0.16,0.47-0.22,0.7-0.09l1.03,0.5
	c-0.08-0.38-0.37-2.3,1.24-3.99c0.84-0.88,2.08-1.73,2.47-0.88l0.61,1.64c0.14,0.36-0.03,0.63-0.32,0.75
	c-0.2,0.07-0.63,0.33-0.91,0.63c-1.28,1.34-0.92,2.92-0.85,3.17l5.89,5.6c0.39,0.38,0.2,0.67-0.15,1.05l-1.06,1.11
	c-0.22,0.23-0.63,0.24-0.86,0.02L276.71,109.59z"/>
<path d="M285.85,103.49l-1.34,0.15c-0.35,0.04-0.64-0.22-0.67-0.54l-0.16-1.43c-0.04-0.35,0.19-0.63,0.54-0.67l1.34-0.15l-0.38-3.53
	c-0.03-0.32,0.22-0.64,0.54-0.67l1.81-0.23c0.32-0.03,0.6,0.22,0.64,0.54l0.39,3.56l3.24-0.35c0.35-0.04,0.63,0.19,0.67,0.54
	l0.16,1.43c0.04,0.32-0.19,0.63-0.54,0.67l-3.24,0.35l0.68,6.3c0.12,1.08,0.55,1.23,1.16,1.16c0.67-0.07,1.52-0.55,1.88-0.78
	c0.39-0.24,0.6-0.07,0.76,0.21l0.72,1.34c0.2,0.33,0.1,0.6-0.2,0.8c-0.3,0.22-2.09,1.19-3.62,1.36c-2.51,0.27-3.41-1.18-3.66-3.43
	L285.85,103.49z"/>
<path d="M290.66,89.58c-0.32-1.01,0.19-2.04,1.17-2.35c1.01-0.32,2.05,0.22,2.37,1.23c0.31,0.98-0.23,2.02-1.24,2.34
	C291.99,91.1,290.97,90.55,290.66,89.58z M293.32,96.79c-0.1-0.3,0.09-0.67,0.4-0.76l1.74-0.55c0.3-0.1,0.67,0.09,0.76,0.4
	l3.51,11.04c0.1,0.3-0.09,0.67-0.39,0.76l-1.74,0.55c-0.3,0.1-0.67-0.09-0.76-0.4L293.32,96.79z"/>
<path d="M302.18,105.1l0.31-1.38c0.05-0.28,0.37-0.47,0.73-0.37c0,0,1.58,0.42,3.09,0c0.93-0.26,1.41-0.79,1.22-1.47
	c-0.23-0.83-1.02-1.04-2.93-1.34c-2.14-0.3-4.07-1.02-4.64-3.05c-0.43-1.54,0.31-3.74,3.27-4.57c1.73-0.48,3.17-0.29,3.9-0.06
	c0.33,0.11,0.59,0.47,0.5,0.82l-0.26,1.2c-0.08,0.32-0.45,0.52-0.73,0.47c0,0-1.54-0.27-2.71,0.06c-1.05,0.29-1.26,0.85-1.13,1.31
	c0.22,0.8,1.09,0.92,2.44,1.11c2.53,0.36,4.64,0.8,5.29,3.11c0.53,1.91-0.81,4.11-3.55,4.88c-2.06,0.58-3.63,0.22-4.42-0.13
	C302.33,105.62,302.13,105.38,302.18,105.1z"/>
<path d="M316.11,90.26c1.34-0.09,2.55,0.22,2.55,0.22c-0.1-2.01-0.53-2.79-2.16-2.68c-1.47,0.1-2.88,0.57-3.54,0.81
	c-0.38,0.12-0.62-0.12-0.74-0.46l-0.33-1.16c-0.12-0.41,0.09-0.65,0.37-0.76c0.22-0.11,2-0.87,4.36-1.02
	c4.09-0.27,4.63,2.2,4.84,5.39l0.44,6.8c0.02,0.32-0.25,0.63-0.57,0.65l-0.89,0.06c-0.29,0.02-0.42-0.1-0.57-0.41l-0.38-0.84
	c-0.66,0.72-1.84,1.76-3.82,1.88c-2.39,0.16-4.22-1.36-4.4-4.01C311.12,92.38,312.85,90.47,316.11,90.26z M316.12,96.41
	c1.28-0.08,2.43-1.12,2.77-1.78l-0.13-2.04c-0.2-0.12-1.12-0.44-2.27-0.36c-1.53,0.1-2.53,0.97-2.45,2.27
	C314.12,95.64,314.94,96.49,316.12,96.41z"/>
<path d="M325.61,77.56c-0.02-0.32,0.26-0.62,0.58-0.64l0.93-0.05c0.26-0.01,0.46,0.14,0.53,0.36l0.44,1.07
	c0.21-0.27,1.83-1.89,4.38-2.02c3.9-0.2,5.48,2.48,5.64,5.8l0.33,6.42c0.02,0.32-0.26,0.62-0.58,0.64l-1.82,0.09
	c-0.35,0.02-0.62-0.26-0.64-0.58l-0.33-6.55c-0.1-2.05-1.15-3.11-2.81-3.03c-2.01,0.1-3.31,1.64-3.45,2.1l0.4,7.8
	c0.02,0.42-0.16,0.62-0.7,0.65l-1.66,0.08c-0.32,0.02-0.62-0.26-0.64-0.58L325.61,77.56z"/>
<path d="M297.38,131.15l-2.94-4.31c-0.2-0.29-0.1-0.66,0.16-0.84l1.48-1.01c0.26-0.18,0.65-0.13,0.84,0.16l7.75,11.37
	c0.2,0.29,0.11,0.67-0.16,0.85l-1.48,1.01c-0.26,0.18-0.65,0.13-0.85-0.16l-2.94-4.31l-15.52,10.57c-0.27,0.18-0.67,0.11-0.85-0.16
	l-1.19-1.75c-0.18-0.26-0.1-0.66,0.16-0.85L297.38,131.15z"/>
<path d="M300.71,140.44c0.17-0.27,0.57-0.36,0.84-0.19l0.79,0.5c0.19,0.12,0.3,0.42,0.22,0.67l-0.28,1.11
	c0.36-0.15,2.18-0.82,4.16,0.43c1.03,0.65,2.1,1.71,1.34,2.25l-1.49,0.92c-0.32,0.21-0.63,0.1-0.8-0.17
	c-0.11-0.18-0.45-0.55-0.8-0.77c-1.57-0.99-3.04-0.33-3.27-0.21l-4.34,6.87c-0.29,0.46-0.62,0.33-1.06,0.05l-1.3-0.82
	c-0.27-0.17-0.36-0.57-0.19-0.84L300.71,140.44z"/>
<path d="M314.87,145.36c3.25,0.71,5.22,3.7,4.48,7.04c-0.05,0.22-0.17,0.62-0.25,0.83c-0.1,0.3-0.4,0.47-0.68,0.41l-8.5-1.87
	c-0.28,1.71,0.83,3.69,2.86,4.13c1.13,0.25,2.27-0.03,2.98-0.3c0.42-0.14,0.67-0.21,0.85,0.15l0.61,1.38c0.16,0.3,0.2,0.57-0.24,0.8
	c-1.08,0.58-2.88,1.01-4.97,0.55c-3.78-0.83-5.63-4.35-4.84-7.94C307.96,147.02,311.12,144.53,314.87,145.36z M316.58,151.17
	c0.24-1.52-0.73-3.08-2.26-3.41c-1.69-0.37-3.27,0.56-3.8,2.08L316.58,151.17z"/>
<path d="M320.36,151.38c0.14-0.29,0.53-0.42,0.81-0.28l0.83,0.41c0.23,0.11,0.33,0.34,0.29,0.57l-0.13,1.15
	c0.31-0.13,2.51-0.76,4.81,0.36c3.5,1.72,3.58,4.83,2.12,7.81l-2.83,5.77c-0.14,0.29-0.53,0.42-0.81,0.28l-1.64-0.8
	c-0.32-0.15-0.42-0.53-0.28-0.81l2.89-5.89c0.9-1.84,0.51-3.28-0.99-4.01c-1.81-0.89-3.69-0.17-4.03,0.16l-3.44,7.01
	c-0.18,0.37-0.44,0.46-0.93,0.22l-1.49-0.73c-0.29-0.14-0.42-0.53-0.28-0.81L320.36,151.38z"/>
<path d="M342.12,164.72c0.92,1.35,1.07,2.64,1.16,2.93l7.73-5.31c0.26-0.18,0.66-0.11,0.84,0.16l1.05,1.53
	c0.18,0.26,0.11,0.66-0.16,0.85l-17.46,12c-0.26,0.18-0.66,0.11-0.85-0.16l-0.54-0.79c-0.16-0.24-0.09-0.52,0.12-0.78l0.62-0.74
	c0,0-2.35-0.25-3.78-2.33c-1.92-2.8-0.88-6.65,2.15-8.74C336.1,161.22,340.11,161.8,342.12,164.72z M333.35,170.83
	c1.11,1.61,2.92,1.49,3.3,1.42l4.3-2.95c0,0,0-1.36-0.94-2.73c-1.22-1.77-3.52-2.01-5.31-0.78
	C332.93,167,332.19,169.14,333.35,170.83z"/>
<path d="M345,173.52l1.41-0.15c0.28-0.04,0.56,0.2,0.58,0.57c0,0,0.11,1.63,0.99,2.93c0.54,0.79,1.2,1.08,1.78,0.68
	c0.71-0.49,0.66-1.3,0.33-3.21c-0.4-2.13-0.34-4.18,1.41-5.37c1.32-0.9,3.65-0.9,5.38,1.64c1.01,1.48,1.29,2.92,1.31,3.68
	c0,0.35-0.25,0.71-0.62,0.73l-1.22,0.14c-0.33,0.03-0.64-0.26-0.68-0.54c0,0-0.24-1.54-0.92-2.55c-0.61-0.9-1.21-0.92-1.6-0.65
	c-0.69,0.47-0.53,1.33-0.27,2.67c0.47,2.51,0.73,4.65-1.25,6c-1.64,1.12-4.16,0.55-5.76-1.8c-1.21-1.77-1.37-3.37-1.3-4.23
	C344.55,173.82,344.72,173.55,345,173.52z"/>
<path class="st183" d="M397.03,111.23l-1.44,0.96l-0.03,0.92l-1.76,2.31l-0.6,0.35l-1.49,5.19l-0.12,1.61l-4.05,6.85l-0.34,1.61
	l-2.03,2.61l-0.85,4.46l-1.67,2.84l-0.71,0.96l-0.74,1l-1.09,0.65l-2.17-0.12l-0.53,0.47l0.08,1.74l-0.36,0.99l1.13,1.15l0.16,1.4
	l-12.52,18.61l14.31,9.32l18.71,11.58l9.66,5.82l0.86-2.49l0.84-1.48l-0.17-2.15l-1.2-1.25l-1.51-3.42l0.73-1.76l-2.23-3.55
	l0.3-0.68l-1.68-1.09l-0.3-1.96l-0.61-1.28l1.96-2.18l0.05-1.05l1.95-2.38l1.08-0.52l0.7-1.37l-0.2-1.01l-0.82-0.74l0.53-0.8
	l3.24-1.82l4.22,0.1l3.88-6.28l0.33,0.49l0.46-0.04l0.39-0.49l0.65,0.01l0.33,1.03l0.39,0.18l0,0l0.08-1.44l3.16-0.04l2.74-0.73
	l1.06,0.15l4.24-1.24l5.02-0.66l2.64,0.3l4.05,0.81l5.27,0.39l-0.18-0.39l-2.1-0.89l-1.45-0.88l0-1.09l-0.43-0.89l-5.35-2.67
	l0.37-1.66l-0.78-0.57l-1.11-0.18l-2.85,0.24l-2.08-1.36l-0.75-1.17l0.38-0.9l-1.73-1.67l0.2-0.95l0.05-0.85l-0.79,0.1l-1.35-0.81
	l-3.3-5.87l-1.47-0.96l-0.18-0.6l-1.98-0.41l-0.82,0.35l-1.92-0.71l-0.6-0.53l0.53-0.8l-0.07-0.66l-3-1.95l0.24-0.8l-1.32-0.86
	l-0.69-0.17l-0.68-1.6l0.59-0.56l0.45-1.33l-0.01-0.75l0.84-1.48l0.47-1.79l-0.56-1.45l-1.47-0.96l-2.46,3.81l-15.56-10.41
	L397.03,111.23z"/>
<path class="st184" d="M301.88,168.01l-15.93-2.75l-21.39-4.19l-15.6-4.07L248,159.5l-0.74-0.34l-0.94,0.31l-2.19,2.05l-1.12-1.04
	l-2.24,0.53l-0.75,0.88l-0.98,0.29l-0.26-0.55l0.23-0.74l-0.37-0.25l-2.65,0.81l-0.94,1.53l-2.84,0.24l-0.48,0.48l-2.11,0.63
	l-1.92-0.46l-2.9,0.55l-1.17,1.83l-0.83,0.18l-0.74-0.34l-0.95,0.35l-0.96,2.35l11.44,2.75l2.59-0.06l0.68,0.21l4.51-0.65l12.2,3.49
	l0.11,0.32l-0.36,0.64l0.3,0.28l0.89-0.49l1.12,2.1l-0.43,1.28l10.53,2.51l9.27,13.08l2.44-0.28l1.65,0.25l0.87,0.33l0.35,0.75
	l0.78-0.81l1.24-2.3l1.59-1.55l3.88-1.89l2.74-0.89l3.17-0.05l1.35,0.3l0.59,0.45l0.15,0.67l2.91-2.55l2.66-1.92l-0.3-0.28
	l-3.5,2.43l-0.1-0.48l1.43-0.67l0.08-0.8l-0.92-0.63l0.27,0.83l-0.63-0.19l-0.27-1.1l-0.98,0.73l-0.85-0.21l1.01-1.11l0.67-0.68
	l0.44-1.45l-1.1-0.48l0.62-0.26l0.51,0.36l1.36,0.58l0.5-0.09l1.17,0.45l1.37-0.53l0.69-1.51l0.92-0.42l0.65,0.14l0.85-0.23
	l0.44-1.89l-0.41-2.27l-1.33-0.63l-0.76,0.6l-0.07-0.58l-1.41-0.43l-0.69-0.04l-1.19,0.21l-0.08-0.25l-0.46-0.18l-1.14,0.23
	l-1.41-0.27l0.24-0.63l0.59-0.33l0.38,0.54l0.51,0.19l1.25-0.68l2.2-0.1l1.43-0.67l1.22,0.47l0.16,0.79l0.72,0.72l0.02-0.82
	l0.15-0.83l-0.85-2.05l0.11-0.73l-0.39,0.4l-0.22-0.8L301.88,168.01z M299.67,184.38l1.84-0.68l2.95-0.69l0.69-1.79l0.37-1.58
	l-0.09-2.37l0.5,0.97l-0.09,1.75l-1.21,3.76l-0.94-0.14l-2.02,0.56l-2.22,0.92L299.67,184.38z M304.23,175.41l-0.42-0.27l-0.19,0.49
	l0.86,1.55l0.16-0.72L304.23,175.41z M305.31,177l-0.19-1.63l-0.49-2.07l-0.66-1.92l-0.32-2.51l-0.27-0.5l0.32,2.51l-0.09,0.69
	l0.7,3.33l0.52,1.37L305.31,177z"/>
<path class="st185" d="M404.31,163.92l0.48,0.8l12.33-8.59l-0.04-0.86l0.69-4.7l-1.27-2.56l-0.12-1.49l1.14-1.15l-1.06-5.25
	l0.48-0.6l0.8,0.05l0.05,0.42l-0.45,0.81l0.46,0.44l0.62-0.01l0.77-1.41l-2.65-5.95l-1.68-0.88l-1.85-1.84l-0.74-1.49l-2.74-1.92
	l-0.53-1.07l-1.73-1.6l-2.33-1.09l-2.1,0.29l-2.11,3.24l-0.2,3.5l0.14,0.6l-0.84,3l-0.99,0.34l-2.64-0.78l-1.07-1.99l0.37-1.59
	l1.19-0.73l0.24-1.38l-1.06-2.44l0.27-0.72l0.66-0.39l0.06-1.28l-2.97-5.65l-0.57-0.68l-1.11-0.35l-1.36-0.08l-0.6-1.04l0.26-0.57
	l1.36-0.07l-0.69-0.92l-1.99-1.03l-0.91-0.74l-1.02-0.32l-1.38,0.67l-5.92,0.74l-1.38-0.59l-2.03,0.76l-0.66,0.54l-3.43-0.03
	l-0.87,0.43l0.61,0.44l-1.72,0.76l0.24,0.33l0.55,0.17l-0.94,2.01l0.6,1.04l1.62,0.91l0.99-0.34l0.18,0.36l-0.79,0.75l-1.34,0.58
	l-1.01,2.34l0.8,1.46l1.97,3.33l-0.37,2.69l-0.84-2.92l-0.68-0.11l1.01,3.43l-1.31-1.06l-0.37-1.52l-0.61-0.44l-0.01-0.95l-0.7-0.47
	l0.33-0.9l-0.35-0.72l-0.64,0.75l0.1,2.24l-0.23,0.63l-0.1,1.82l-1.12,0.4l0.29,0.74l-1,0.49l0.57,0.83l0.72,1.13l-1.52,1.62
	l0.44,0.74l1.13,0.71l1.48,3.13l0.49,3.01l-0.32,2l1.16,0.46l1.54,1.84l0.11,1.79l0.5,1.31l2.07,1.51l3.01,2.15l1.31,0.77l3.04,3.62
	l2.54,5.26l0.59,2.59l-0.3,2.51l0.54,2.47l-0.36,2.39l-0.45,0.96L404.31,163.92z M315.78,135.47l3,1.35l11.74-2.91l1.17,0.17
	l2.74-0.74l0.59,0.09l1.69-0.97l3.3-1.01l1.32,0.47l-0.33,0.9l0.73,0.23l2.58-0.74l1.11,0.35l1.37,2.58l0.02,2.06l1.28-0.55
	l0.39-0.78l0.8,0.2l0.23,2.18l1.1,0.65l0.84-0.19l-0.04-1.31l0.45-3.62l-0.78-4.05l0.84-1.89l-0.79-0.8l0.05-0.69l1.1,0.65l0.47,1.4
	l1.16-2.19l-0.56-1.43l1.49-0.28l0.03-1.2l0.61,0.14l0.01,1.1l-0.48,0.6l-0.03,1.49l1.41,0.64l0.54-0.63l-0.52-0.26l0.18-1.2
	l0.68-1.59l0.5-0.24l-0.64-1.61l0.72-1.68l4.79-2.7l0.27-2.42l2.28-1.33l2.73-0.44l3.43,0.33l0.38-0.33l-1.16-2.02l0.38-0.33
	l3.14-0.72l0.88-0.58l1.6-1.3l1.18-0.28l1.15-0.49l-0.32-0.65l-0.71-0.32l-0.99,0.34l-0.92-0.14l-0.1-0.98l-0.59,0.06l-1.59,0.85
	l-0.36-0.57l0.45-0.81l0.61,0.29l-0.22-1.22l-0.64-0.21l0.38-0.33l-1.26-0.35l-0.2-0.87l-0.5-1.16l-0.81,0.4l-0.64,1.05l-1.16,0.64
	l0.22,1.22l-1.13,0.7l-0.54-0.63l-1.35,0.73l-0.27,1.02l-0.47,0.15l-0.36-0.42l-1.51,1.03l-1.48-2.82l0.03-1.49l-0.47,0.15
	l-0.8,1.21l-1.38,0.67l-1.58,2.76l-3.78,2.06l-2.33,1.72l-0.74,1.47l-0.49,1.2l-1.06,1.77l0.05,0.57l-0.88-0.83l-0.99,0.04
	l0.18,0.36l0.64,0.21l0.38,0.77l-1.12,0.1l-0.38,0.18l0.17,0.8l-1.81-0.52l-0.87,0.28l-0.37,1.29l-2.03,0.91l-0.72-0.68l-1.81-0.52
	l-1.29-0.55l-0.21-0.41l-1.1-0.5l-1.98,0.08l-2.09,0.94l-0.95-0.2l-0.87,0.43l-0.32,0.45l-0.72,1.97l-0.11,0.87l-0.83-0.11
	l-0.17-0.66l-0.12-1.49l0.52-3.94l0.44-0.36l0.5-1.65l-0.04-1.17l1.7-1.27l0.32-0.6l-0.36-0.57l-0.46-0.15l-2.75,1.48l-1.1,0.91
	l-1.27,1.5l-0.4,1.08l-0.41,1.83l-0.83,1.14l-1.05,3.03l0.22,1.07l-3.26,4.98l-2.35,1.51l-1,0.78l-0.55,2.48l-0.92,0.97l-2.07,2.71
	L315.78,135.47z M379.81,107.11l2.4-1.1l0.23-0.48l-0.72-1.13l-1.6-0.56l-1.16,0.64l0.09,0.33l0.81-0.09l-0.76,0.96l0.11,0.68
	l-0.55-0.17l-0.01,0.6L379.81,107.11z M320.48,105.03l-1.37,0.82l-1.12,1.95l-2.87,5.31l0.8,0.35l1.21-0.37l1.16-2.04l-0.84,0.04
	l0.96-1.65l0.62-0.3l1.31-2.04l-0.33-0.5L320.48,105.03z M364.77,129.89l0.3,0.6l1.79,0.31l-0.84-1.37L364.77,129.89z
	 M365.16,131.76l0.71-0.28l0.27,0.53l-0.62,0.3L365.16,131.76z M372.22,112.58l0.27,0.53l0.44-0.36l-0.15-0.29L372.22,112.58z
	 M376.08,113l-0.39-0.62l-1.06,0.37l-0.49-0.05l-0.56,0.27l-0.16,0.3l0.68-0.04l1.02,0.32L376.08,113z M365.18,119.18l0.26,0.69
	l0.02,0.51l0.78,1.25l0.34,0.06l0.47-0.15l0.05-0.69l-0.41-0.98l-0.37-0.27l-0.39-0.62L365.18,119.18z"/>
</svg>
