<?xml version="1.0" encoding="utf-8"?>
<!-- Generator: Adobe Illustrator 24.1.0, SVG Export Plug-In . SVG Version: 6.00 Build 0)  -->
<svg version="1.1" id="Layer_1" xmlns="http://www.w3.org/2000/svg" xmlns:xlink="http://www.w3.org/1999/xlink" x="0px" y="0px"
	 viewBox="0 0 800 418" style="enable-background:new 0 0 800 418;" xml:space="preserve">
<style type="text/css">
	.st0{fill:#0D07FF;stroke:#FFFFFF;stroke-width:0.5093;}
	.st1{fill:none;stroke:#E32400;stroke-width:1.5326;}
	.st2{fill:#F27D9F;stroke:#FFFFFF;stroke-width:1.3663;}
	.st3{fill:#F1614B;stroke:#FFFFFF;stroke-width:1.1996;}
	.st4{fill:#FF6060;stroke:#FFFFFF;stroke-width:1.0285;}
	.st5{fill:#C45DFF;stroke:#FFFFFF;stroke-width:2.0914;}
	.st6{fill:#EF4466;stroke:#FFFFFF;stroke-width:1.0929;}
	.st7{fill:#FAC1B4;stroke:#FFFFFF;stroke-width:1.8173;}
	.st8{fill:#001C84;stroke:#FFFFFF;stroke-width:0.3051;}
	.st9{fill:#C5EDFF;stroke:#FFFFFF;stroke-width:1.4752;}
	.st10{fill:#F15C55;stroke:#FFFFFF;stroke-width:1.6655;}
	.st11{fill:#F78C36;}
	.st12{fill:#C5D0FF;stroke:#FFFFFF;stroke-width:2.8499;}
	.st13{fill:none;stroke:#D62800;stroke-width:6.3815;}
	.st14{fill:none;stroke:#D77CFF;stroke-width:6.3815;}
	.st15{fill:none;stroke:#FF9D9F;stroke-width:6.3815;}
	.st16{fill:none;stroke:#FF5130;stroke-width:6.3815;}
	.st17{fill:none;stroke:#FF7151;stroke-width:6.3815;}
	.st18{fill:none;stroke:#FF9F8D;stroke-width:6.3815;}
	.st19{fill:none;stroke:#7A92FF;stroke-width:6.3815;}
	.st20{fill:none;stroke:#36AEFF;stroke-width:6.3815;}
	.st21{fill:none;stroke:#747FFF;stroke-width:6.3815;}
	.st22{fill:none;stroke:#648DFF;stroke-width:6.3815;}
	.st23{fill:none;stroke:#FF7483;stroke-width:6.3815;}
	.st24{fill:#4FC9FF;stroke:#FFFFFF;stroke-width:2.6157;}
	.st25{fill:#930B00;stroke:#FFFFFF;stroke-width:0.8719;}
	.st26{fill:#FF5647;stroke:#FFFFFF;stroke-width:2.6157;}
	.st27{fill:#195CFF;stroke:#FFFFFF;stroke-width:2.9486;}
	.st28{fill:#394EFF;stroke:#FFFFFF;stroke-width:2.6157;}
	.st29{fill:#F79B82;stroke:#FFFFFF;stroke-width:2.6157;}
	.st30{fill:#FF7AA1;stroke:#FFFFFF;stroke-width:2.6157;}
	.st31{fill:#FF6060;stroke:#FFFFFF;stroke-width:2.6157;}
	.st32{fill:#68B2E2;stroke:#FFFFFF;stroke-width:2.6157;}
	.st33{fill:#E796FF;stroke:#FFFFFF;stroke-width:3.4419;}
	.st34{fill:#FF7F6B;stroke:#FFFFFF;stroke-width:3.579;}
	.st35{fill:#4F4FFF;stroke:#FFFFFF;stroke-width:3.6029;}
	.st36{fill:#FF9699;stroke:#FFFFFF;stroke-width:2.6157;}
	.st37{fill:#7AA8FF;stroke:#FFFFFF;stroke-width:2.6157;}
	.st38{fill:#F15C55;stroke:#FFFFFF;stroke-width:3.7961;}
	.st39{fill:#EF3B24;stroke:#FFFFFF;stroke-width:2.6157;}
	.st40{fill:#FFAA96;stroke:#FFFFFF;stroke-width:4.2983;}
	.st41{fill:#FAC1B4;stroke:#FFFFFF;stroke-width:2.6157;}
	.st42{fill:#FFD3CC;stroke:#FFFFFF;stroke-width:2.6157;}
	.st43{fill:#FF281C;stroke:#FFFFFF;stroke-width:4.5419;}
	.st44{fill:#7AA4FF;stroke:#FFFFFF;stroke-width:2.6157;}
	.st45{fill:#EE2724;stroke:#FFFFFF;stroke-width:2.6157;}
	.st46{fill:#EF4466;stroke:#FFFFFF;stroke-width:3.0931;}
	.st47{fill:#F27D9F;stroke:#FFFFFF;stroke-width:3.7572;}
	.st48{fill:#76A5FF;stroke:#FFFFFF;stroke-width:2.6157;}
	.st49{fill:#0D07FF;stroke:#FFFFFF;stroke-width:0.8719;}
	.st50{fill:#448EFF;stroke:#FFFFFF;stroke-width:2.6157;}
	.st51{fill:#6FC7FF;stroke:#FFFFFF;stroke-width:3.3839;}
	.st52{fill:#0069DB;stroke:#FFFFFF;stroke-width:2.6157;}
	.st53{fill:#84F3FF;stroke:#FFFFFF;stroke-width:7.4024;}
	.st54{fill:#FF8B7A;stroke:#FFFFFF;stroke-width:2.6157;}
	.st55{fill:#55CAF5;stroke:#FFFFFF;stroke-width:2.6157;}
	.st56{fill:#FF4715;stroke:#FFFFFF;stroke-width:2.6157;}
	.st57{fill:#638DC9;stroke:#FFFFFF;stroke-width:2.6157;}
	.st58{fill:#FF8176;stroke:#FFFFFF;stroke-width:2.6157;}
	.st59{fill:#B7C8FF;stroke:#FFFFFF;stroke-width:5.1528;}
	.st60{fill:#FFA8B4;stroke:#FFFFFF;stroke-width:4.2242;}
	.st61{fill:#526EFF;stroke:#FFFFFF;stroke-width:2.6157;}
	.st62{fill:#7DBFE9;stroke:#FFFFFF;stroke-width:3.9605;}
	.st63{fill:#C5EDFF;stroke:#FFFFFF;stroke-width:2.6157;}
	.st64{fill:#329FFF;stroke:#FFFFFF;stroke-width:2.6157;}
	.st65{fill:#D0D0D0;stroke:#FFFFFF;stroke-width:2.6157;}
	.st66{fill:#FF3E39;stroke:#FFFFFF;stroke-width:2.6157;}
	.st67{fill:#47DFFF;stroke:#FFFFFF;stroke-width:2.6157;}
	.st68{fill:none;stroke:#0F008D;stroke-width:6.3815;}
	.st69{fill:#001C84;stroke:#FFFFFF;stroke-width:0.8719;}
	.st70{fill:#F1614B;stroke:#FFFFFF;stroke-width:2.6157;}
	.st71{fill:#FF8B81;stroke:#FFFFFF;stroke-width:3.7175;}
	.st72{fill:#C45DFF;stroke:#FFFFFF;stroke-width:4.6687;}
	.st73{fill:#FF7AAB;stroke:#FFFFFF;stroke-width:3.9913;}
	.st74{fill:#DA2E27;stroke:#FFFFFF;stroke-width:3.4856;}
	.st75{fill:none;stroke:#CBDEFF;stroke-width:6.3815;}
	.st76{fill:none;stroke:#B5CDFF;stroke-width:4.8599;}
	.st77{fill:none;stroke:#FF101D;stroke-width:6.3815;}
	.st78{fill:none;stroke:#FFB1AA;stroke-width:6.3815;}
	.st79{fill:#4FC9FF;stroke:#FFFFFF;stroke-width:1.5955;}
	.st80{fill:#FF5647;stroke:#FFFFFF;stroke-width:0.8168;}
	.st81{fill:#FF9699;stroke:#FFFFFF;stroke-width:1.4746;}
	.st82{fill:#FF281C;stroke:#FFFFFF;stroke-width:2.8172;}
	.st83{fill:#7AA4FF;stroke:#FFFFFF;stroke-width:1.4053;}
	.st84{fill:#EE2724;stroke:#FFFFFF;stroke-width:1.058;}
	.st85{fill:#76A5FF;stroke:#FFFFFF;stroke-width:1.0208;}
	.st86{fill:#84F3FF;stroke:#FFFFFF;stroke-width:4.1424;}
	.st87{fill:#FF4715;stroke:#FFFFFF;stroke-width:1.0647;}
	.st88{fill:#B7C8FF;stroke:#FFFFFF;stroke-width:2.0629;}
	.st89{fill:#FFA8B4;stroke:#FFFFFF;stroke-width:1.8986;}
	.st90{fill:#D0D0D0;stroke:#FFFFFF;stroke-width:0.8169;}
	.st91{fill:#FF7AAB;stroke:#FFFFFF;stroke-width:1.4203;}
	.st92{fill:#930B00;stroke:#FFFFFF;stroke-width:0.5093;}
	.st93{fill:#394EFF;stroke:#FFFFFF;stroke-width:1.5278;}
	.st94{fill:#68B2E2;stroke:#FFFFFF;stroke-width:1.5278;}
	.st95{fill:#FFAA96;stroke:#FFFFFF;stroke-width:1.7548;}
	.st96{fill:none;stroke:#B3D7FF;stroke-width:3;}
	.st97{fill:none;stroke:#4B8DFF;stroke-width:2;}
	.st98{fill:#FFD3CC;stroke:#FFFFFF;stroke-width:1.1524;}
	.st99{fill:#448EFF;stroke:#FFFFFF;stroke-width:1.0469;}
	.st100{fill:#55CAF5;stroke:#FFFFFF;stroke-width:1.2672;}
	.st101{fill:#FF8176;stroke:#FFFFFF;stroke-width:1.5278;}
	.st102{fill:#526EFF;stroke:#FFFFFF;stroke-width:1.5278;}
	.st103{fill:#329FFF;stroke:#FFFFFF;stroke-width:1.1996;}
	.st104{fill:#DA2E27;stroke:#FFFFFF;stroke-width:1.457;}
	.st105{fill:none;stroke:#B722FF;stroke-width:3;}
	.st106{fill:#6FC7FF;stroke:#FFFFFF;stroke-width:1.3994;}
	.st107{fill:#E796FF;stroke:#FFFFFF;stroke-width:2.0104;}
	.st108{fill:#FF7AA1;stroke:#FFFFFF;stroke-width:0.75;}
	.st109{fill:#638DC9;stroke:#FFFFFF;stroke-width:0.919;}
	.st110{fill:none;stroke:#FFB3CD;stroke-width:2;stroke-miterlimit:10;}
	.st111{fill:none;stroke:#FFB09A;stroke-width:2;stroke-miterlimit:10;}
	.st112{fill:#FF3E39;stroke:#FFFFFF;stroke-width:1.2672;}
	.st113{fill:#FF8B81;stroke:#FFFFFF;stroke-width:1.8009;}
	.st114{fill:#FF7F6B;stroke:#FFFFFF;stroke-width:1.6413;}
	.st115{fill:none;stroke:#0077FF;stroke-width:2;stroke-miterlimit:10;}
	.st116{fill:#0069DB;stroke:#FFFFFF;stroke-width:1.1124;}
	.st117{fill:#FF8B7A;stroke:#FFFFFF;stroke-width:1.2351;}
	.st118{fill:#7DBFE9;stroke:#FFFFFF;stroke-width:1.6894;}
	.st119{fill:#7AA8FF;stroke:#FFFFFF;stroke-width:1.565;}
	.st120{fill:#C5D0FF;stroke:#FFFFFF;stroke-width:1.6898;}
	.st121{fill:#4F4FFF;stroke:#FFFFFF;stroke-width:1.8341;}
	.st122{fill:#F79B82;stroke:#FFFFFF;stroke-width:1.5726;}
	.st123{fill:none;stroke:#FF4655;stroke-width:3;}
	.st124{fill:#EF3B24;stroke:#FFFFFF;stroke-width:1.5278;}
	.st125{fill:#195CFF;stroke:#FFFFFF;stroke-width:1.0451;}
	.st126{fill:#47DFFF;stroke:#FFFFFF;stroke-width:1.1507;}
	.st127{fill:#0D07FF;stroke:#FFFFFF;stroke-width:0.6453;}
	.st128{fill:none;stroke:#E32400;stroke-width:3.8011;}
	.st129{fill:#F1614B;stroke:#FFFFFF;stroke-width:1.5199;}
	.st130{fill:#FF6060;stroke:#FFFFFF;stroke-width:1.6367;}
	.st131{fill:#C45DFF;stroke:#FFFFFF;stroke-width:3.4871;}
	.st132{fill:#EF4466;stroke:#FFFFFF;stroke-width:1.3848;}
	.st133{fill:#FAC1B4;stroke:#FFFFFF;stroke-width:2.3026;}
	.st134{fill:#001C84;stroke:#FFFFFF;stroke-width:0.4359;}
	.st135{fill:#C5EDFF;stroke:#FFFFFF;stroke-width:2.1075;}
	.st136{fill:#4FC9FF;stroke:#FFFFFF;stroke-width:2.2793;}
	.st137{fill:#FF5647;stroke:#FFFFFF;stroke-width:1.1668;}
	.st138{fill:#FF9699;stroke:#FFFFFF;stroke-width:2.1066;}
	.st139{fill:#FF281C;stroke:#FFFFFF;stroke-width:4.0245;}
	.st140{fill:#7AA4FF;stroke:#FFFFFF;stroke-width:2.0076;}
	.st141{fill:#EE2724;stroke:#FFFFFF;stroke-width:1.5114;}
	.st142{fill:#76A5FF;stroke:#FFFFFF;stroke-width:1.4583;}
	.st143{fill:#84F3FF;stroke:#FFFFFF;stroke-width:5.9177;}
	.st144{fill:#FF4715;stroke:#FFFFFF;stroke-width:1.521;}
	.st145{fill:#B7C8FF;stroke:#FFFFFF;stroke-width:2.9471;}
	.st146{fill:#FFA8B4;stroke:#FFFFFF;stroke-width:2.7123;}
	.st147{fill:#D0D0D0;stroke:#FFFFFF;stroke-width:1.167;}
	.st148{fill:#FF7AAB;stroke:#FFFFFF;stroke-width:2.0289;}
	.st149{fill:#930B00;stroke:#FFFFFF;stroke-width:0.6453;}
	.st150{fill:#394EFF;stroke:#FFFFFF;stroke-width:1.9358;}
	.st151{fill:#68B2E2;stroke:#FFFFFF;stroke-width:1.9358;}
	.st152{fill:#FFAA96;stroke:#FFFFFF;stroke-width:2.2234;}
	.st153{fill:none;stroke:#B3D7FF;stroke-width:2.759;}
	.st154{fill:none;stroke:#4B8DFF;stroke-width:2.5341;}
	.st155{fill:#FFD3CC;stroke:#FFFFFF;stroke-width:1.4602;}
	.st156{fill:#448EFF;stroke:#FFFFFF;stroke-width:1.3264;}
	.st157{fill:#55CAF5;stroke:#FFFFFF;stroke-width:1.6056;}
	.st158{fill:#FF8176;stroke:#FFFFFF;stroke-width:1.9358;}
	.st159{fill:#526EFF;stroke:#FFFFFF;stroke-width:1.9358;}
	.st160{fill:#329FFF;stroke:#FFFFFF;stroke-width:1.5199;}
	.st161{fill:#DA2E27;stroke:#FFFFFF;stroke-width:1.8461;}
	.st162{fill:none;stroke:#B722FF;stroke-width:2.055;}
	.st163{fill:#6FC7FF;stroke:#FFFFFF;stroke-width:1.7731;}
	.st164{fill:#E796FF;stroke:#FFFFFF;stroke-width:2.5473;}
	.st165{fill:#FF7AA1;stroke:#FFFFFF;stroke-width:0.9503;}
	.st166{fill:#638DC9;stroke:#FFFFFF;stroke-width:1.1644;}
	.st167{fill:none;stroke:#FFB3CD;stroke-width:2.8571;stroke-miterlimit:10;}
	.st168{fill:none;stroke:#FFB09A;stroke-width:2.8571;stroke-miterlimit:10;}
	.st169{fill:#FF3E39;stroke:#FFFFFF;stroke-width:1.6056;}
	.st170{fill:#FF8B81;stroke:#FFFFFF;stroke-width:2.2819;}
	.st171{fill:#FF7F6B;stroke:#FFFFFF;stroke-width:2.0797;}
	.st172{fill:none;stroke:#0077FF;stroke-width:2.8571;stroke-miterlimit:10;}
	.st173{fill:#0069DB;stroke:#FFFFFF;stroke-width:1.5892;}
	.st174{fill:#FF8B7A;stroke:#FFFFFF;stroke-width:1.7644;}
	.st175{fill:#7DBFE9;stroke:#FFFFFF;stroke-width:2.4134;}
	.st176{fill:#7AA8FF;stroke:#FFFFFF;stroke-width:2.2357;}
	.st177{fill:#C5D0FF;stroke:#FFFFFF;stroke-width:2.414;}
	.st178{fill:#4F4FFF;stroke:#FFFFFF;stroke-width:2.6202;}
	.st179{fill:#F79B82;stroke:#FFFFFF;stroke-width:2.2466;}
	.st180{fill:none;stroke:#FF4655;stroke-width:4.0056;}
	.st181{fill:#195CFF;stroke:#FFFFFF;stroke-width:1.3242;}
	.st182{fill:#47DFFF;stroke:#FFFFFF;stroke-width:1.458;}
	.st183{fill:#EF3B24;stroke:#FFFFFF;stroke-width:1.9358;}
	.st184{fill:#F27D9F;stroke:#FFFFFF;stroke-width:1.9519;}
	.st185{fill:#F15C55;stroke:#FFFFFF;stroke-width:2.6815;}
</style>
<path class="st12" d="M509.17,61.73l-4.85,1.53l-4.16-1.61l-0.67,43.35l-1.36,4.36l-0.17,1.71l1.88,3.2l-0.06,0.6l-0.35,0.75
	l0.66,1.7l-0.48,2.03l-1.62,1.4l-1.56,3.48l-3.93,4.21l-0.71,5.99l-0.91-0.09l0.66,1.7l0.93,0.78l0.64-0.8l-0.49-1.52l4.24-0.03
	l0.08,1.05l0.99,0.27l0.45-0.74l-0.44-1.16l0.35-0.66l1.11,0.79l1.59-0.19l1.5,0.66l2.91,2.09l1.89-2.25l3.39-1.58l2.45,3.09
	l1.65-1.66l0.51-2.28l3.67-1.65l0.07,1.13l1.63,1.19l2.76,0.09l1.15-0.49l0.39-2.9l2.6-2.95l4.58-3.37l0.06-1.46l1.43-3.15
	l1.92,1.05l6.5-3.27l-0.21-1.49l-1.18-1.93l1.07-1.54l-1.01-49.56l0.03-1.21l-29.86,0.1L509.17,61.73z"/>
<path class="st13" d="M260.64,74.9c-5.91,26.99-11.42,50.43-16.03,69.47c-11.23,46.33-14.71,56.13-20.04,66.8
	c-13.05,26.13-29.65,42.26-42.75,54.77c-29.57,28.25-61.84,45.52-89.51,56.11"/>
<path class="st14" d="M463.63,6.7c1.15,14.62,5.2,36.11,20.04,54.77c16.87,21.2,37.49,25.95,94.85,44.09
	c88.33,27.93,77.88,28.83,102.86,33.39c27.24,4.98,69.06,9.29,121.57,1.34"/>
<path class="st15" d="M551.07,162.51c3.28,19.87,4.65,49.37-10.68,76.15c-12.47,21.76-29.49,30.36-64.13,53.44
	c-21.14,14.09-50.81,34.88-85.5,62.79"/>
<path class="st16" d="M16.25,66.37c12.83,25.97,26.94,44.99,37.41,57.44c21.14,25.18,38.57,45.95,66.8,53.44
	c19.01,5.05,24.02-0.94,50.76,2.67c26.6,3.59,47.21,12.97,60.12,20.04"/>
<path class="st17" d="M65.81,128.53c19.76,33.41,41.59,51.34,57.44,61.46c27.07,17.26,38.82,13.08,81.5,37.41
	c34.43,19.62,50.83,36.05,54.77,40.08c17.27,17.67,28.13,35.39,34.74,48.09"/>
<path class="st18" d="M688.71,82.95c1.62,18.11,1.32,44.65-10.68,72.14c-10.32,23.62-20.51,27.87-42.75,58.79
	c-28.85,40.1-25.45,52.07-49.43,86.84c-12.22,17.71-32.1,42.13-64.13,66.8"/>
<path class="st19" d="M667.29,39.59c-4.28,49.95-19.84,86.15-30.72,106.88c-12.94,24.62-23.75,45.17-46.76,61.46
	c-35.9,25.4-62.53,12.81-81.5,32.06c-14.32,14.54-22.62,45.58,2.67,117.56"/>
<path class="st20" d="M750.13,10.21c28.83,75.9,15.06,125.49,6.68,146.95c-13.2,33.81-37.83,61.36-53.44,78.82
	c-33.32,37.27-59.11,50.3-78.82,90.85c-8.65,17.78-12.67,33.73-14.7,44.09"/>
<path class="st21" d="M223.32-1.76c7.97,74.07-0.82,128.81-10.68,165.66c-8.28,30.96-19.94,59.09-6.68,88.17
	c6.67,14.62,21.37,29.34,50.76,58.79c13.09,13.11,24.3,23.61,32.06,30.72"/>
<path class="st22" d="M270.05,87.26c-16.67,77.99-49.76,122.65-70.8,145.62c-12.99,14.17-27.36,26.59-41.42,38.75
	c-39.18,33.87-74.34,57.94-98.86,73.48"/>
<path class="st23" d="M131.81,25.95c8.51,38.42,4.8,66.85,0,85.5c-7.5,29.13-17.93,35.46-28.05,77.48c-7.9,32.78-7,51.54,0,68.13
	c4.41,10.46,10.37,18.01,14.7,22.71"/>
<path class="st24" d="M570.73,309.83l-3.08-4.68l-1.15-0.32l-1.45,0.37l-2.95-0.55l-1-2.02l30.17-26.03l-1.47-1.03l-1.68-0.22
	l-0.98-0.63l-2.49-4.16l-4.21-2.38l-0.86-1.84l-1.5-2.42l-0.28-3.37l-0.64-0.58l-1.59,0.18l-1.47-1.97l-2.07-0.33l-4.73-2.39
	l-29.58-22.14l-28.61,23.9l1.78,0.62l29.83,41.85l18.14,18.38l0.37-0.73l0.91-0.55l0.58-0.04l0.48-0.44l-0.41-3.28l-1.05-1.41
	l0.23-1.19l1.16-0.35l5.2,2.34l0.42,0.55l-1.19,2.9l2.15-1.89l2.54-3.28L570.73,309.83z"/>
<path class="st25" d="M204.25,265.65l2.5-1.2l0.87-1.6l-0.56-1.25l-1.33-0.35L205.1,260l1.62-4.74l1.23-0.03l2.16-1.97l2-4.75
	l2.21-2.25l3.78-0.64l1.12-0.76l-0.08-1.38l-1.43-2.03l-0.23-4.23l-0.84-1.43l-0.58-2.55l0.91-1.37l1.39-1.95l0.71-1.98l0.19-3.51
	l2.31-9.48l2.68-0.01l2.6,1.42l0.58,2.04l1.49,0.23l2.13-1.76l4.56-11.95l33.56,11.2l29.19,8.92l-27.3,85.53l-27.23-8.18
	l-43.62-33.98l0.71-1.98l1.7-1.04L204.25,265.65z"/>
<path class="st26" d="M771.95,82.83l0.46-1.42l0.79,0.25l0.4-0.66l-0.55-0.4l0.12-0.96l-0.75-0.5l0.33-0.66l-0.15-0.94l-0.71-0.01
	l0.47-0.54l0.87,0.44l0.12-0.89l-0.31-0.67l0.03-0.45l1.31,0.27l-0.33-0.92l0.96-0.89l-0.37-0.54l-0.7,0.12l-0.43-0.53l0.53-0.61
	l1.02-0.2l0.28-0.52l0.89-0.19l-0.11-0.49l-0.62-0.52l-0.03-0.31l0.96-0.08l0.22-0.45l-0.95-0.55l-0.1-0.37l-7.13,1.06l1.53-3.34
	l1.01-1.03l-0.12-1.37l-1.15-1.48l-25.37,3.26l-25,2.42l3.88,15.07l1.57,24.45l1.78,1.31l1.72-0.96l2.09,0.34l0.75,7.44l33.41-3.45
	l0.69-1l0.16-1.91l-1.07-1.36l-0.44-1.35l0.54-0.48l-0.04-0.5l-1.14-0.6l-0.1-0.44l0.98-0.65l-0.82-0.63l0.73-4.53l2.09-1.17
	l-0.04-0.5l-0.77-0.82l1.58-3.53l1.22-0.1l0.9-0.82l-0.46-3.24l1.75-2.97l1.12-0.46l-0.48-1.92L771.95,82.83z"/>
<path class="st27" d="M70.09,184.44l2.93,4.38l-1.22,0.04l-1.56-1.62L70.09,184.44z M71.79,176.43l1.55,3.43l2.25,0.9l0.61-0.47
	l-1.12-2.1l-2.25-2.05L71.79,176.43z M54.58,160.2l-0.01,1.97l1.73,1.05l3.83-0.03l0.87-0.79l-2.7-0.26L54.58,160.2z M49.44,160.1
	l2.86,0.51l1.21,1.85l-3.31-0.12L49.44,160.1z M90.89,198.99l-0.85-2.5l0.19-2.46l-0.31-6.51l-1.54-4.01l-1.04-1.19l-0.51-1.25
	l-6.05-7.29l-3.14-0.03l-1.73-1.63l0.97-1.45l-0.59-3.07l-1.91-1.05L71,165.95l-2.43-1.15l-1.3-1.61l-3.88-5.56l-2.34-1.9
	l-3.21-0.52l-2.69-1.98l-4.08-1.37l-2.44-0.33l-2.16-2.13l0.18-2.29l0.73-3.93l1.6-4.14l-1.21-1.35l-3.44-7.86L42,126.69l-0.33-2.48
	l-1.38-1.95l0.18-2.05l-1.71-4.17l-2.51-2.31l0.56-5.83l2.09-0.58l1.59-2.5l-0.33-2.64l-0.86-0.77l-2.18-0.08l-2.16-2.79l-1.29-2.92
	l0.04-6.17l1.06-3.42l0.18-1.72l2.18,0.24l-0.1,1.32l-0.7,0.55l-0.01,2.06l3.2,2.75l0.03-3.87l-1.2-2.84l0.45-0.89l-0.86-1.43
	l2.45-1.15l-1.64-2.53l-1.22,0.37l-1.33,3.08l0.43,1.08l-0.7,0.8l-0.78-0.11l-4.66-5.19l0.64-4.59l-0.94-3.24l-5.59-10.73l0.75-8.78
	l2.02-2.89l0.2-5.25l-4.73-9.3l0.29-4.27l6.04-5.96l1.49-1.93l-0.08-1.15l3.53-7.45l0.14-6.91l0.79-2.03L92.48,21.4l-14.6,51.41
	l0.94,2.91l60.71,88.52l-0.79,1.7l1.11,2.84l1.21,1.52l1.02,4.81l1.98,2.13l0.34,1.58l-1.14,1.03l-4.19,1.25l-2.11,2.89l-1.43,5.71
	l-2.11,2.56l-1.39,0.19l-1,5.64l0.95,1.35l1.57,0.22l0.86,1.35l-0.71,1.95l-2.62,1.72l-1.92-0.15L90.89,198.99z"/>
<path class="st28" d="M395.15,10.66l-3.7-2.08l-4.79-0.39l-5.8,2.01l-28.53,64.26l25.59,13.69l7.87-18.13l-3.02-0.87l-2.42-10.43
	l1.74-4.07l-1.99-4.89l5.57-7.38l-0.66-7.67l-0.91-3.35l-0.63-4.08l4.36-6.76l4-3.5l5.56-2.54L395.15,10.66z"/>
<path class="st29" d="M644.74,188.42l0.01,0.84l-2.51,3.74l-0.74,0.14l0.92,0.28l0.02,1.2l-0.54,0.67l-0.31,3.59l-1.35,3.73
	l0.33,1.19l0.47,3.05l-2.2,0.21l-2.45-0.38l-1.05-0.52l-1.33,0.86l0.02,1.5l0.87,1.24l-0.26,2.57l-1.28,0.38l-0.62-0.65l-0.4-1.91
	l-30.57,2.44l-2.07-3.56l-0.45-1.31l-0.93-0.88l-0.32-0.83l0.31-3.77l-1.52-3.39l0.28-1.56l0.15-2.22l1.31-2.29l-0.14-0.66
	l-1.05-0.58l-0.03-1.92l-1.11-1.12l-1.83-3.62l-8.31-27.28l13.95-1.95l13.04-1.99l-0.04,1.14l-1.15,0.62l-0.82,1.93l0.14,0.77
	l3.76,2.22l1.59-0.2l1.94,2.36l0.26,1.02l2.61,3.01l1.61,1l0.86,0.11l1.35,0.94l0.7,1.31l1.24,0.94l1.1,0.28l1.67,1.59l0.08,0.83
	l1.62,1.65l3.08,1.33l2.26,3.98l0.21,1.62l2.4,1.22l1.57,2.84l0.52,1.85l2.56,0.2L644.74,188.42z"/>
<path class="st30" d="M260.51,340.05l0.14,1.92l1.19,0.99l0.15,0.71l-2.55,3.08l0.04,0.73l1.41,1.74l1.37,2.35l0.21,1.55l-0.2,0.75
	l0.34,2.01l2.66,0.91l0.75,0.56l0.64-0.75l0.99-2.31l2.51-2.1l1.96-0.57l1.44-0.8l0.94-0.85l1.66-2.34l-1.79-0.43l-0.97-0.72
	l-0.08-1.02l-0.35-0.32l-1.22,0.16l-0.08-1.5l-0.52-0.66l-1.77-1.15l-2.89-0.75l-1.72,0.12l-2.23-1.34l-0.77-0.26L260.51,340.05z
	 M249.83,331.21l-0.55,0.99l0.08,1.02l1.84,1.2l1.2,0.14l0.45,0.54l0.48,1.75l2.21-0.18l3.01-1.98l-0.26-1.48l-0.89-0.18l-2.34-1.26
	l-1.12-0.03l-1.65,1.02l-1.13-1.48L249.83,331.21z M249.85,338.17l0.44-0.91l1.5-0.39l0.51,1.02L249.85,338.17z M244.88,333.58
	l1.35,2.24l1.84-0.61l0.02-1.21l-0.98-0.77L244.88,333.58z M241.85,329.94l-0.47,1.52l3.04-0.42l3.05,0.55l1.39-1.16v-0.91
	l-2.9,0.51L241.85,329.94z M231.26,324.96l-0.99,1.4l-1.71,0.6l0.67,1.24l1.57,1.48l0.15,0.59l1.26-0.35l1.4-0.14l1.13,0.57
	l2.06-0.76l-0.06-0.42l-0.68-0.4l-0.47-1.21l-0.51-0.12l-0.22,0.64l-0.83-0.68l0.01-0.85l-1.36-1.81l-0.73-0.33L231.26,324.96z
	 M210.92,320.23l-2.32,2.07l0.31,1.35l1.56,0.51l1.26,0.62l1.67,0.01l1.4-1.52l-0.27-1.11l0.35-1.07l-0.12-0.83l-0.68-0.45
	L210.92,320.23z M204.73,323.97l-0.09,0.74l-1.08,0.7l-0.22,1.12l0.68,0.4l0.55-0.99l1.1-0.51l0.03-1.58L204.73,323.97z"/>
<path class="st31" d="M614.67,19.69l2.83,2.94l1.27,0.88l3.38-0.03l0.45,0.31l0.43,0.59l1.65,0.24l1.38,1.25l0.38,1.84l2.04,2.7
	l1.55,4.82l4.4,3.14l-0.48,0.66l1.65,0.24l0.57,0.4l0.66,2.63l0.75,0.42l2.12-0.01l0.52,0.46l-1.39,2.69l0.47,0.92l-0.96,0.52
	l-0.16,0.87l1.91,1.71l1.96-0.32l1.34,1.32L642.82,52l-5.23,3.19l0.43,4.25l1.29,0.6l-1.35,1.83l-1.63,0.26l-3.28-0.49l-1.21-0.83
	v-0.78l-0.77-0.64l-2.02,0.28l-2.02-0.51l-3.91-0.04l-3.14,2.57l-8.07,1.72l-1.72-0.79l-3.48-5.18l-1.4-0.57l-0.13-1.27l-0.82-0.57
	l-2.3,1.17l-1.89,1.65l-0.87,2.76l-2.09-0.16l-0.92-1.23l-1.87-0.6l-9.47,1.94l-2.01,0.78l-4.95-0.96l-4.02-1.59l-1.68-2.54
	l-0.11-0.76l-1.41-1.07l-0.91,0.06l-0.47-1.32l0.48-1.44l0.24-0.73l-0.28-1.18l-1.53-1.05l-0.71-2.17l-0.08-0.55l-2.18-1.61
	L564,44.39l-0.67,0.52l-1.55,0.02l-2.06-2.42l0.93-2.31l1.15-1.57l0.87-3.54l-0.58-2.08l-1.48-1.12l-0.3-1.3l-1.41-2.25l-1.7-1.07
	l-3.57,0.29l-0.58,0.78l-1.13,0.11l-0.92-0.83l-1.9,0.37l-2.03,1.06l-0.15-0.59L567.2-2.83l2.97,1.95l4.56-0.2l3.18,1.02l2.81,0.36
	L614.67,19.69z"/>
<path class="st32" d="M313.09,4.52l-25.74,10.84l-21.47,8.37l14.65,38.31l40.15-16.21l36.1-16.26L343.97,3.1l-2.04,0.45l-2.74-1.92
	l-2.11-0.73l-0.31-1.4l0.89-2.15l-0.25-0.69l-1.42-0.76l-0.26,0.79l-1.32,0.19L331.94-4L313.09,4.52z"/>
<path class="st33" d="M342.2,70.17l-18.87,1.22l-4.79,0.7l-16.02,0.87l-2.39,0.71l-20.81,1.74l-0.65-0.53h-3.41l1.11,2.82
	l-0.55,0.79l-21.44,1.31l0.92-2.37l1.29,0.79l0.65-0.35l1.09-3.61l-0.92-0.88l0.92-1.76l0.18-0.79l-1.2-0.71l-0.28-1.59l3.68-3.25
	l6.36,2.64l1.38-0.26l0.37-2.11l-1.57-1.59l0.36-2.9l0.92-0.44l1.1,0.53l0.55-1.05l3.41-0.52l0.09-0.79l-1.38-1.94l-0.1-0.97
	l2.02-2.37v-0.79l1.02,0.71l0.55-0.88l-0.65-1.5l4.24-0.44l0.18,1.05l1.02,0.17l0.37-0.79l-0.55-1.14l0.27-0.71l1.2,0.71l1.57-0.35
	l1.57,0.53l3.14,1.85l1.65-2.46l3.22-1.94l2.77,2.9l1.47-1.85l0.27-2.37l3.49-2.02l0.18,1.14l1.75,1.05l2.76-0.17l1.1-0.62
	l0.09-2.99l2.29-3.25l4.23-3.87l-0.1-1.5l1.09-3.34l2.02,0.88l6.16-3.96l-0.37-1.5l-1.38-1.85l0.92-1.67l1.2,0.45l2.02,0.09
	l1.75-0.71l2.67,1.05l2.03,2.99v0.88l3.77,0.62l2.12-0.17l1.75,1.85l2.02,0.17v-0.88l1.75-0.71l2.77,0.71l1.1,0.71l1.2-0.62h0.83
	l0.55-1.5l3.13-1.58l0.46,0.71l0.75,2.55l3.22,1.24l1.11,1.85l-0.09,0.97l0.55,0.88l-0.54,3.16l1.75,1.41l0.74,0.97l0.92,0.53
	l-0.09,0.79l4.06,4.94h1.29l1.38,1.59l1.1,0.26l1.29-0.09l-4.5,5.81l-2.67,0.88l-2.76,2.64l-0.37,1.94l-1.94,1.14l-0.09,1.5
	l-1.29,1.23l-1.65,0.44l-0.45,1.67l-0.92,0.35l-6.35,3.69L342.2,70.17z M252,80.04l-0.65-0.62l0.18-0.88h1.02l0.65,0.62l-0.27,0.88
	H252z"/>
<path class="st34" d="M409.43,365.49l-1.77-1.64l0.06-1.46l-7-6.13l0.03-5.12l0.84-1.73l-0.19-1.52l-40.92,10.61l-0.64-13.1
	l1.71-5.69l5.07-10.37l-2.61-2.24l2.29-0.47l-0.72-3.52l-3.3-2.1l0.2-1.94l-1.6-0.78l-3.38-7.2l0.39-1.64l-59.8,13.69l4.91,21.12
	l1.54,3.46l3.6,2.38l1.97,5.6l5.36,4.02l1.86,4.4l1.15-0.23l1.47,7.82l-2.4,7.61l1.99,2.15l-1.17,1.91l1.46,3.04l0.82,4.62
	l-1.77,4.26l0.06,0.88l-1.69,1.68l1.54,1.68l1.62,0.89l1.56-1.76l5.89-2.21l6.99-1.54l11.85,1.8l9.41-0.81l1.42-1.85l2.02-0.64
	l5.99,1.22l1.75-0.8l0.94-1.86l-5.22-0.93l-2.31,1.59l-1.31,0.05l-2.04-1.81l3.31-3.13l1.82-0.48l0.37,1.81l1.7-0.46l3.84-1.12
	l0.96,2.36l1.35,0.16l1.1,1.89l5.73-0.06l2.3,1.31l0.15,0.75l-1.37,0.28l-1.35,2.17l2.22,0.88l6.43-0.2l3.71,2.35l4.84-2.1
	l-4.21,1.08l-0.24-0.62l3.07-1.4l-0.16-1.96l1.32-0.6l-0.3-1.49l1.29-0.15l0.35,1.7l2.89-0.48l0.5-2.22l1.1,0.11l0.77,2.62
	l1.42-0.07l-1.64,2.55l2.79-1.57l2.06-1.65l2.61-4.2l-0.8,0.16l-1.23,1.59l-0.48-0.01l-0.75-0.74l0.77-1.49l-0.5-2.46l1.09-1.11
	l0.96,0.58l0.98-1.09l1.12-0.34l0.97,1.25l-0.28,2.17l2.76-0.56l6.23,0.61l0.86,1.27l2.14,1.11l3.24-0.55l1.65,0.45l1.85-1.49
	l0.67-2.02l-0.37-1.81l-1.61,0.33l-1.68-1.21l-1.5-0.92l-3.87-0.2l-2.94,0.82l-5.35-1.58l-0.5-2.46l1.28-1.37l2.88,0.08l-3.91-0.98
	l0.06-0.9l4.13-0.85l2.23-4.34l-3.38-1.31l0.59-1.79l-1.55-0.57l-0.92,0.18l-1.84,2.71l0.45,2.25l-0.53,0.89l-1.29,0.15l-2.14-1.11
	l-1.49,0.31l-0.33-1.6l0.53-0.89l1.07,0.56l1.61-2.11l0.45-1.87l0.85-0.51L409.43,365.49z M397.01,365.02l2.4,0.62l1.16,0.99
	l2.89-0.48l1.9,0.5l0.53,1.45l-0.33,0.74l-1.36-1.39l-1.35,1.61l-0.73,1.7l-3.04,1.51l-1.82,0.48l-4.47-0.19l-0.25-1.84l1.86-2.6
	l0.75-2.82L397.01,365.02z M391.87,367.41l0.24,1.17l-1.64,2.55l-1.37,0.28l-0.47-2.35l1.51-1.97L391.87,367.41z"/>
<path class="st35" d="M689.83,141.98l-2.89,3.09l0.61,4.01l-1.26,2.1l0.46,2.85l1.24,1l3.19-1.08l1.84-2.54l1.88,0.77l2.67-1.38
	l0.65-1.35l3.91,1.58l0.35-3.35l2.62-0.78l2.82-0.23l-2.3,2.49l2.79,0.07l0.17,1.68l1.51,0.5l1.41-1.09l3.34,1.88l2.61-1.62
	l1.94,1.99l4.97-0.1l0.58-0.45l-0.22-1.08l2.66-2.21l1.34-0.2l-1.18,1.2l1.12,0.52l2.51-2.24l-0.89-0.57l-1.06,0.69l0.31-1.92
	l1.8-0.14l0.34,0.57l1.11,0.68l-1.96,2.23l1.66,1.5l1.47,2.91l0.83-0.65l0.21-1.7l0.84,1.17l1.97-1.39l-0.24,1.03l-1.36,1.48
	l0.24,2.75l0.97-0.47l0.8,0.64l0.45-0.77l1.06,0.29l1.26-1.11l-0.97-1.49l-1.99-1.25l2.31,0.15l1.16,0.08l1.08,0.98l-0.79,1.18
	l-0.13,2.48l2.02-1.02l2.62,1.18l0.45-1.6l1.48-1.01l0.37,1.26l0.49,0.59l2.36,0.54l2.19-1.14l1.31,2.06l0.65-0.37l1.47-0.86
	l-0.8,1.33l1.89,0.63l5.02-0.69l1.75-1.5l0.67-2.48l0.53-4.61l-1.35-1.62l-2.39,0.74l0.44-4.39l0.87-0.26l1.24-0.97l2.59-4.26
	l-0.4-0.8l-0.82-0.34l-3.4-4.07l2.77-2.57l15.81-23.62l-2.1-8.57l-1.97-2.53l-10.22-1.43l-1.08-2.93l2.53-3.36l-1.92-2.29
	l-21.05,6.71l-4.64,4.59l-3.19,0.11l-4.09,2.62l-2.15,3.48l0.4,0.8l-1.33,1.03l-4.87,1.54l-2.23-0.37l-2.75,0.31l-6.74,4.68
	l-0.87-2.68l-1.39-1.02L689.83,141.98z M734.81,155.43l-1.37-0.33l-1.07,0.84l1.16,0.08l-0.03,1.28l0.7,0.02l0.61,1.06l-0.05-1.36
	l0.95-0.17L734.81,155.43z M731.45,155.66l-1.62-0.14l0.02,0.68l-0.9,0.56l0.77,0.93l1.49-1.16L731.45,155.66z M730.65,152.08
	l-0.45,1.6l0.29,1.17l1.05-0.39l1.49-1.16l-0.34-1.56l-1.28,0.44L730.65,152.08z M725.8,154.46l0.2-2.54l3.13-0.18l0.32,0.87
	l-0.77,0.88l0.05,1.36l-0.91,0.71l-1.54-0.2L725.8,154.46z"/>
<path class="st36" d="M769.72,138.32l-1.49-2l-1.02,0.73l1.58,2.13L769.72,138.32z M781.23,122.95l-0.42-3.69l-2.07-3.04l-1.29-0.16
	l-0.1,1.7l1.6,2.66l0.22,2.38l0.59,1.57l-4.41,6.09l-0.18,1.59l-1.47,1.42l0.28,1.42l-1.11,1.9l-2.57-2.68l-0.11-1.19l-1.45,0.14
	l-1.06-1.95l-1.14,2.64l-1.76-2.36l1.26-1.45l-2.76,1.26l-1.59-0.31l-0.64-1.9L759.5,129l0.52,2.53l1.34,0.48l-0.36,1.35l-0.95,1.6
	l-3.41,0.65l-1.31-1.24l-2.24-0.39l-3.26-0.73l1.19-2.31l-1.79,0.2l-0.79-1.06l-0.12-1.73l1.89-1.91l-2.3,0.57l-0.75-0.74
	l-1.73,1.06l0.46,1.66l-0.49,0.9l-2.86-4.1l0.39-2.09l1.63,0.1l-1.28-1.98l-2.05-0.15l-0.17,2.12l-0.04,2.56l-1.64-0.63l-1.86-3.02
	l0.26-2l1.93,0.24l0.9-1.92l-2-1.65l-0.39,2.09l-2.98-1.65l-1.75-1.83l-0.72-3.83l0.16-2.65l1.6-1.51l-1.34-0.48l0.11-1.16l-1-0.55
	l-1.6-2.66l-1.55,1.84l-0.05,2.03l2.41,0.62l-0.13,6.62l-1.49,0.35l-0.1,1.7l1.17,3.14l-1.84,2.24l2.17-0.47l2.79,0.35l0.36,1.01
	l2.2,0.6l-0.51,2.19l0.9-0.11l0.51,1.99l1.85,2.48l0.51,1.99l2.11,0.47l3.87,3.38l2.87,0.46l3.25,0.19l2.97,2.94l3.78,0.9l1.73,1.29
	l0.88,1.18l-0.89,0.64l-2.95-0.05l-0.33,0.6l-1.69,0.86l-3.38-0.11l-2.03,0.92l-0.82,1.5l-1.78,0.75l-0.33,0.6l-2.85,0.61
	l-2.15-0.27l-2.41-0.62l-0.94,0.31l-0.4,1.56l-0.88,2.99l-2.09,0.06l-2.53-2.35l-0.83-3.21l-0.82-0.32l0.03-0.75l-1.76-0.54
	l1.18-1.03l0.47-1.97l-1.07-2.49l-0.14-4.62l-4.87,0.24l0.23,2.92l-1.29-0.16l-1.27,0.91l-0.85,0.43l-0.86-0.11l-0.31-0.68
	l-2.68,0.84l-0.75,1.08l-1.61,0.98l-1.5-0.18l-0.81,0.22l-0.87-0.65l0.06-1.49l-0.79-1.06l-1.69,0.86l-2.05-0.15l-1.05,0.94
	l-2.28,1.1l-1.49,0.35l-1.15-2.07l-1.7,0.32l-0.87-0.65l-0.89,0.64l-2.07-0.69l-0.63-1.36l-2.94,2.84l-4.19,0.12l-1.51,1.64
	l0.09,2.48l-1.65,1.19l0.4,4.97l-3.82,3.48l-3.28,0.55l0.05,6.86l-3.05,1.65l-0.49,7.43l0.27,2.71l-0.87,3.53l-12.16-11.91
	l66.16-69.1l33.43,25.05l11.77-12.66l4.65,6.26l2.59,3.75l0.32,3.04L781.23,122.95z M762.69,133.04l-0.85,2.25l2.59,1.39l2.85-0.61
	l-1.92-1.52L762.69,133.04z"/>
<path class="st37" d="M641.31,107.35l3.15-3.69l0.2-1.5l-1.28-1.25l-3.66,0.47l1.42,0.45l0.18,2.94l-2.14,2.49l0.94,0.6
	L641.31,107.35z M634.85,118.68l-1.74,0.77l0.09-1.79l-1.65-2.5l0.06-2.18l0.53-1.05l1.5,0.15l1.23-1.02l-0.08-1.18l2.47,1.13
	l-0.89,1.67l-1.87,3.65L634.85,118.68z M577.81,135.89l13.09-23.27l-0.65-2.4l-1.51-1.82l1.13-2.58l-0.7-1.51l0.43-2.81l1.52-1.14
	l5.05,1.06l1.35-0.74l-0.35-2.33l2.11,0.28l1.16,0.97l-0.26,5.36l1.03,0.48l0.21,1.86l1.21,0.27l-0.89,1.67l2.1,0.08l-0.01,1.48
	l1.61,0.23l0.63-1.15l-0.56-1.03l1.65-0.67l1.67-1.95l5.06-0.42l2.92,2.07l1.78-1.86l1.9,0.1l2.66,1.11l1.66-0.46l1.76-2.06
	l1.65-2.15l-0.2-1.65l0.22-2.79l0.71-1.45l-3.33-0.55l0.67,1.11l-5.18-1.54l-0.75,0.87l0.57,1.23l-2.17,0.42l0.05-2.38l2.09-1.6
	l4.34-0.64l4.04,0.97l4.59,1.61l2.02,3.55l-1.9-1.59l-1.7-0.13l-0.83,5.82l-1.15,0.71l-0.44,2.61l1.17,1.16l-0.78,3.44l0.35,4.02
	l0.15,3.84l-1.11,1.3l-0.41-6.47l-1.54-2.22l-1.09,0.01l-1.65-0.82l-0.94,0.89l1.28,1.25l0.34,2.14l-1.11,1.3l0.88,1.3l1.64,0.62
	l0.04,2.26l-1.23,1.02l0.68,1.32l-4.46-1.12l-2.36,0.44l-3.78,1.67l-2.87-1.29l-0.75,0.87l-3.39-1.53l-3.93,8.8l-0.41-0.15
	l-10.26,19.13l0.74,0.62l-0.52,1.24l-1.2-0.08l-7.23,13.48l-1.7-0.13l-15.32-13.74L577.81,135.89z"/>
<path class="st38" d="M738.53,287.06l0.39,1.27l19.87-7.61l0.23-1.2l2.54-6.22l-0.88-3.95l0.34-2.09l1.95-1.19l0.33-7.58l0.86-0.67
	l1.08,0.35l-0.07,0.59l-0.89,0.96l0.47,0.76l0.85,0.2l1.54-1.67l-1.62-9.08l-2.01-1.78l-1.92-3.15l-0.51-2.29l-3.12-3.57l-0.37-1.65
	l-1.83-2.79l-2.83-2.28l-2.99-0.32l-4.01,3.74l-1.46,4.74l-0.01,0.87l-2.17,3.83l-1.48,0.13l-3.36-1.97l-0.79-3.11l1.05-2.05
	l1.89-0.59l0.8-1.81l-0.63-3.72l0.61-0.9l1.04-0.32l0.52-1.74l-2.16-8.78l-0.55-1.13l-1.4-0.85l-1.84-0.57l-0.46-1.64l0.55-0.7
	l1.9,0.37l-0.64-1.5l-2.38-2.09l-1-1.33l-1.29-0.78l-2.12,0.45l-8.39-1.01l-1.69-1.28l-3.05,0.36l-1.09,0.52l-4.7-1.21l-1.35,0.29
	l0.69,0.81l-2.62,0.46l0.22,0.53l0.7,0.43l-1.97,2.44l0.46,1.64l1.92,1.8l1.48-0.13l0.13,0.55l-1.35,0.76l-2.04,0.34l-2.19,2.87
	l0.61,2.27l1.57,5.24l-1.42,3.57l-0.15-4.3l-0.89-0.39l0.22,5.05l-1.43-1.91l0.01-2.22l-0.69-0.81l0.31-1.32l-0.8-0.89l0.75-1.12
	l-0.24-1.1l-1.13,0.81l-0.62,3.12l-0.53,0.78l-0.76,2.47l-1.67,0.16l0.15,1.12l-1.54,0.33l0.5,1.34l0.6,1.8l-2.64,1.71l0.36,1.17
	l1.31,1.35l0.97,4.8l-0.35,4.31l-1.12,2.64l1.44,1.04l1.49,3.05l-0.45,2.5l0.24,1.97l2.33,2.78l3.41,3.99l1.54,1.5l2.95,6.01
	l1.7,8.1l-0.07,3.76l-1.27,3.35l-0.11,3.58l-1.31,3.16l-0.95,1.16L738.53,287.06z M626.58,217.81l3.67,2.87h17.13l1.55,0.63
	l4.02-0.09l0.77,0.32l2.65-0.75l4.88-0.27l1.65,1.09l-0.75,1.12l0.93,0.57l3.8-0.14l1.4,0.85l1,4.02l-0.68,2.84l1.95-0.32l0.8-0.94
	l1.03,0.55l-0.43,3.07l1.29,1.27l1.22,0.03l0.4-1.82l1.85-4.82l0.31-5.84l1.8-2.31l-0.81-1.36l0.3-0.93l1.29,1.27l0.16,2.08
	l2.34-2.61l-0.28-2.16l2.14,0.12l0.45-1.64l0.79,0.41l-0.37,1.52l-0.86,0.67l-0.55,2.04l1.71,1.36l0.96-0.69l-0.63-0.54l0.66-1.59
	l1.48-1.95l0.77-0.16l-0.34-2.43l1.56-2.06l7.5-2.08l1.19-3.23l3.59-1.05l3.9,0.32l4.6,1.62l0.63-0.33l-0.91-3.17l0.63-0.33
	l4.56,0.09l1.4-0.49l2.64-1.24l1.71,0.02l1.75-0.28l-0.22-1.01l-0.86-0.69l-1.48,0.13l-1.22-0.51l0.19-1.38l-0.83-0.12l-2.48,0.63
	l-0.3-0.9l0.89-0.96l0.75,0.61l0.12-1.75l-0.81-0.5l0.63-0.33l-1.62-0.91l0.02-1.26l-0.29-1.76l-1.25,0.27l-1.24,1.23l-1.81,0.48
	l-0.12,1.75l-1.79,0.57l-0.53-1.05l-2.1,0.54l-0.72,1.31l-0.7,0.05l-0.36-0.7l-2.42,0.9l-1.07-4.38l0.55-2.04l-0.7,0.05l-1.51,1.38
	l-2.12,0.45l-3.11,3.26l-5.9,1.55l-3.78,1.58l-1.52,1.77l-1.08,1.48l-2.06,2.07l-0.13,0.79l-0.93-1.44l-1.37-0.28l0.13,0.55
	l0.81,0.5l0.26,1.19l-1.57-0.24l-0.58,0.13l-0.04,1.16l-2.31-1.34l-1.29,0.09l-0.95,1.65l-3.1,0.56l-0.76-1.18l-2.31-1.34l-1.58-1.2
	l-0.15-0.64l-1.35-1.06l-2.75-0.57l-3.19,0.58l-1.24-0.6l-1.35,0.29l-0.59,0.51l-1.66,2.47l-0.45,1.15l-1.1-0.44l-0.01-0.96
	l0.34-2.09l2.05-5.24l0.73-0.35l1.25-2.09l0.35-1.62l2.77-1.17l0.65-0.72l-0.3-0.9l-0.58-0.36l-4.29,1.1l-1.82,0.87l-2.25,1.64
	l-0.91,1.35l-1.18,2.37l-1.53,1.29l-2.48,3.8l-0.06,1.55l-6.17,5.74l-3.74,1.28l-1.65,0.74l-1.6,3.22l-1.59,1.02l-3.76,3.02
	L626.58,217.81z M724.22,200.66l3.68-0.69l0.47-0.58l-0.6-1.8l-2-1.31l-1.81,0.48l0.01,0.48l1.14,0.15l-1.37,1.06l-0.09,0.98
	l-0.7-0.43l-0.22,0.81L724.22,200.66z M643.41,177.58l-2.17,0.66l-2.21,2.3l-5.75,6.32l0.98,0.75l1.79-0.1l2.28-2.41l-1.16-0.23
	l1.89-1.95l0.96-0.2l2.5-2.36l-0.28-0.8L643.41,177.58z M695.79,226.82l0.2,0.92l2.35,1.04l-0.69-2.17L695.79,226.82z
	 M695.69,229.53l1.07-0.14l0.18,0.82l-0.96,0.2L695.69,229.53z M711.92,205.58l0.18,0.82l0.73-0.35l-0.11-0.45L711.92,205.58z
	 M717.08,207.47l-0.32-0.99l-1.58,0.15l-0.66-0.24l-0.86,0.18l-0.32,0.36l0.95,0.18l1.29,0.78L717.08,207.47z M700.01,212.26
	l0.13,1.04l-0.15,0.71l0.64,1.98l0.45,0.19l0.7-0.05l0.3-0.93l-0.23-1.49l-0.42-0.49l-0.32-0.99L700.01,212.26z"/>
<path class="st39" d="M274.65,30.53l-1.55,1.75l0.27,1.22l-1.51,3.62l-0.66,0.67l-0.17,7.3l0.39,2.15l-2.95,10.33l0.11,2.22
	l-1.76,4.1l0.41,6.12L266,74.29l-0.6,1.5l-0.63,1.57l-1.2,1.22l-2.88,0.58l-0.53,0.79l0.7,2.25l-0.14,1.41l1.87,1.11l0.69,1.77
	l-10.01,28.6l21.9,7.3l28.42,8.74l14.62,4.31l0.27-3.55l0.59-2.23l-0.96-2.75l-2-1.23l-3.14-3.96l0.36-2.54l-4.12-3.88l0.16-1
	l-2.56-0.85l-1.06-2.46l-1.23-1.46l1.82-3.52l-0.3-1.39l1.73-3.78l1.23-1.05l0.45-2.03l-0.61-1.26l-1.33-0.69l0.43-1.23l3.62-3.48
	l5.55-1.31l2.93-9.53l0.6,0.52l0.59-0.2l0.35-0.77l0.85-0.2l0.78,1.23l0.57,0.11l0,0l-0.39-1.91l4.11-1.13l3.33-1.89l1.44-0.16
	l5.12-3.07l6.34-2.57l3.55-0.51l5.56-0.33l7.03-1.3l-0.37-0.45l-3.05-0.45l-2.2-0.65l-0.38-1.42l-0.86-1.02l-7.91-1.66l-0.08-2.29
	l-1.22-0.48l-1.52,0.15l-3.65,1.29l-3.18-1.06l-1.38-1.27l0.19-1.31l-2.83-1.59l-0.07-1.32l-0.22-1.12l-1,0.4l-2.04-0.6l-6.32-6.55
	l-2.25-0.75l-0.45-0.72l-2.73,0.15l-0.95,0.74l-2.76-0.27l-0.96-0.48l0.43-1.23l-0.32-0.83l-4.59-1.53l0.04-1.12l-2.02-0.68
	l-0.96,0.01l-1.44-1.86l0.58-0.94l0.14-1.9l-0.27-0.98l0.59-2.23v-2.51l-1.23-1.7l-2.25-0.75l-1.92,5.83l-23.9-8.28L274.65,30.53z"
	/>
<path class="st40" d="M188.96,209.98l-3.95-3.04l-0.93-2.61l-7.7-3.05l-0.26-1.08l-0.51-0.16l-1.07,1.13l-0.53-0.3l-3.71,0.4
	l-0.48-0.51l-0.03-0.9l0.19-2.09l1.05-0.78l0.52-8.07l3.57-2.87l1.65-0.43l0.95-0.99L148.5,163.7l8.76-7.83l4.87-2.09l9.91-2.54
	l0.16-2.99l1.56,1.25l2.06-2.47l-0.3-3.36l1.45-0.96l-0.31-1.49l3.19-6.3l1.35-0.67l1.87-0.38l2.26-1.93l0.27-2.65l0.99-1.95
	l1.13,0.04l0.5-0.6l-0.63-1.88l0.36-0.58l1.81,0.32l-0.24-1.57l5.76-4.25l3.64,0.92l0.5-0.6l0.02-1.73l5.63-2.23l1.48,1.18
	l1.92,0.04l3.02-4.07l5.23-1.43l1.77,0.67l1.55-2.62l31.37,21.9l-0.24,2.3l-42.9,49.24l-17.34,27.54L188.96,209.98z"/>
<path class="st41" d="M723.87,7.22l-0.83-0.47l-0.61-0.84l-1.23-0.49l-8.51,2.69l-16.23,4.94l-15.65,3.98l0.99,0.55l0.04,0.86
	l1.85,1.83l3.34,3.07l2.22,1.3l1.3,0.04l0.39-0.73l1.24,0.99l0.13,0.72l-1.22,1.94l0.06,1.42l1.9,1.06l2.3,2.33l2.04-0.09
	l7.84,27.98l1.81,6.27l23.49-6.49l23.7-7.36l1.35,1.21l0.35,1.29l-0.79,1.14l-0.89,3.41l6.63-2.21l0.29-1.33l0.65-0.47l-0.11-0.41
	l-0.9-0.45l-0.52-0.49l1.05-0.15l0.38-0.53l-1.08-0.66l0.76-0.51l-0.1-0.6l-0.52-0.49l-0.2-0.75l-0.53-0.3l-0.04-0.61l0.67-0.17
	l0.53,0.3l-0.03,0.63l0.59,0.28l0.33-0.71l0.18-1.73l0.99,0.31l0.36-0.34l0.08-2.57l-0.76-0.43l0.29-1.33l-0.02-0.55l-0.91-0.26
	l-1.69,0.44l-1.08-0.66l-1.68-1.94l-0.3-1.11l0.39-0.47l-0.15-0.77l-1.33-0.84l-0.94-1.32l-2.27-1.97l-3.1-0.01l-5.57-2.99
	l-0.62-1.34l0.49-4.87l-0.54-1.05l0.55-0.83l-0.2-0.75l-1.93-0.44l-1.92,0.06l-1.87,1.23l-1.14-1.14l0.07-1.2l-0.8-1.29l-6.5-3.56
	l-1.56-0.53l-2.43-3.05l-1.57-2.96l0.26-2.38L723.87,7.22z"/>
<path class="st42" d="M170.63,350.97l31.49,4.83l2.54,2.81l1.39,0.32l1.57,1.75l1.51,0.1l1.67-1.38l1.2,0.61l0.89-0.45l0.54,0.45
	l0.78-0.22l0.55,0.38l0.78-0.22l0.78,0.48l1.22-0.33l1.62,0.66l0.41,0.91l4.89,2.28l0.88,1.12l0.52,2.1l1.43,0.72l1.27-0.01
	l0.34,0.75l-0.2,1.79l0.35,1.37l-0.13,1.08l0.75,3l1.45,3.54l-0.16,2.89l1.89,4.14l-0.2,4.77l1.02,0.67l-0.43,2.24l0.38,2.64
	l-0.77,1.65l1.11,3.59l0.97,1.13l-0.38,1.05l1.42,3.07l2.69,5.25l-26.97-3.06l-36.27-5.06l-29.81-4.98l3.13-17.02l-27.34-4.99
	l7-33.97L170.63,350.97z"/>
<path class="st43" d="M681.14,59.28l-1.42,0.83l-1.76-0.6l-1.37,2.55l2.87,6.74l2.66,1.76l0.73,4.33l3.97,1.79l0.5,2.02l0.84,1.33
	l-0.07,2.84l-1.36,1.21l0.05,1.71l-1.82,2.25l0.05,1.98l3.51,2.82l0.84,2.93l1.41,1.31l-0.07,2.57l1.53,1.79l-0.41,2.75l1.47,2.22
	l-0.17,1.56l3.33,4.37l1.65,1.2l0.9,3.04l2.04,1.4l1.18,2.77l0.16,1.65l0.68,1.54l3.85,1.58l18.78-14.37l0.29-2.15l-0.62-1.97
	l1.82-1.7l-0.05-1.45l1.32-2.12l1.65-0.42l-1.8-5.54l-3.41-0.19l-2.15-1.89l-4.76-0.32l-2.94-3.9l-34.28-32.33L681.14,59.28z"/>
<path class="st44" d="M546.31,149.63l-26.07,12.32l0.72,5.53l2.92,2.72l2.76,10.81l4.32,0.41l1.58,3.47l-0.1,2.57l5.24,4.02
	l4.81-2.28l4.91,2.34l4.25-1.26l9.76-1.23l-1.2,7.58l0.74,5.01l1.35,6.17l-1.41,2.82l0.25,3.99l1.42,4.12l2.25,3.1l2.23,0.15
	l3.45,2.46l2.39-0.75l5.17-1.13l3.46-1.27l3.19-1.01l1.53,1.3l1.22-0.89l-0.02-2.95l1.6-0.5l3.11-2.43l3.4,4.01l3.44,2.97l1.56-3.2
	l-2.9-6.96l-3.9-8.24l0.4-7.33l-3.62-5.28l-2.33-0.78l-1.36-5.92l-1.52-1.55l-2.34-0.52l-1.79-5.02l-4.96-4.27l-11.21-9.83
	l-3.41-0.27l1.77,1.81l1.44,0.14l-1.5,1.4l-1.33,0.25l-2.02,1.4l-0.46,1.93l-3.66-0.53l-1.2-3.09l-1.27-1.3l1.42-3.08l-1.57-3.74
	L546.31,149.63z"/>
<path class="st45" d="M796.97,331.81l-0.58-0.2l-30.05,66.08l-22.45-9.68l-24.09-11l-0.95,1.98l0.91,2l-21.36-10.45l-3.51,6.64
	l-10.86-5.4l43.01-80.71l36.59,17.51L800,324.7L796.97,331.81z"/>
<path class="st46" d="M708.49,291.51l-0.61-1.36l-1.23-0.17L708.49,291.51z M672.93,266.81l-0.35,0.97l0.82,1.29l0.12,1.29l1.7,0.49
	l0.75,2.04l1.88,2.25l4.18,4.72l0.32-0.72l-1.58-1.75l-1.72-1.83l0.91-0.08l2.16,2.4l1.35,0.5l0.37,1.33l4,3.58l-0.73,0.25
	l-4.76-3.44l4.67,3.83l2.95,1.04l0.69,1.58l4.98,3.72l4.47,2.32l3.56,2.4l1.64,0.64l-0.56-1.87l-1.64-0.64l-0.8,0.04l-1.08-0.72
	l0.83-1.26l-1.7-1.47l-0.98,0.22l-0.15-1.05l1.13,0.21l0.25-1.55l-1.17-0.32l0.04,1.07l-0.45,0.4l-0.64-0.15l-3.25-0.56l-0.73-2.02
	l2.22,0.32l0.98,0.75l1.88-0.29l2.21,0.93l1.18,0.68l1.32,1.36l-0.26-1.36l-1.21-0.43l-0.27-0.75l-1.26-0.89l-1.11,0.15l-3.04-1.61
	l-1.09-0.11l-1.48-1.18l-4.99-7.6l-0.85,0.54l-1.08-0.72l-1.09-2.04l0.23-1.3l-1.22,0.18l-0.02-1.33l-1,0.46l-0.37-1.33l-0.99-1.11
	l-1.22,0.18l-0.39-1.07l-0.96,0.58l-0.27-0.75l-0.96,0.58l-1.12-1.79l-2.97-0.78L672.93,266.81z M673.04,265.8l-1.05-1.58
	l-1.04,0.36l-1.94-0.17l-0.49,0.9l3.33,1.75l0.89-0.44L673.04,265.8z M767.87,220.49l-2.21,0.04l-0.39,1.83l-1.71,0.12l-3.13,1.69
	l-1.53,3.2l-2.44,0.37l-1.84,1.36l-1.19-0.07l-4.06,1.05l-5.74,5.76l-2.18-0.21l-1.93,1.76l2.01,0.39l-0.81,2.58l-13.56,8.36
	l-2.27,0.18l-0.61,1.55l-15.76,4.89l-0.76,1.11l-15.82,8.91l-0.85,2.48l-4.9-2.54l-1.62,2.62l-3.94-0.2l-2.35-1l-2.97-0.78
	l0.65-0.46l6.28-1.7l-0.64-17.48l0.51-2.12l-1.05-1.94l1.1-4.03l4.85-5.32l-0.78-2.15l1.4-0.98l0.47-2.23l-42.06-70.8l5.91-3.03
	l5.73,3.21l2,0.03l4.12,3.29l2.73-0.22l2.98,1.75l1.45,0.46l2.76-3.02l-0.15-2.01l2.41-3.02l3.24-1.37l7.03,6.76l4.88,8.24
	l1.72,4.73l-0.41,4.03l0.45,0.93l2.36,1.35l2.06,3.41l1.17,3.22l2.37,2.32l3.68,1.75l4.16,1.46l1.16,1.9l0.95,1.01l3.47-0.73
	l2.25-2.49l0.25-1.55l2.13,1.68l1.83-0.75l-0.59-1.62l0.55-2.98l3.17-1.23l8.76,4.46l2.77-0.12l7.98,1.7l8.95,4.04l2.58,1.65
	l0.88,2.73l13.47,20.28L767.87,220.49z"/>
<path class="st47" d="M767.85,237.53l-31.03-1.2l-41.79-2.55l-30.74-3.8l-1.2,5.06l-1.5-0.46l-1.7,0.82l-3.65,4.47l-2.39-1.7
	l-4.14,1.58l-1.2,1.87l-1.8,0.8l-0.63-0.98l0.24-1.48l-0.76-0.39l-4.84,2.23l-1.39,3.16l-5.34,1.18l-0.78,1.05l-3.86,1.74l-3.78-0.4
	l-5.38,1.79l-1.76,3.79l-1.53,0.56l-1.5-0.46l-1.72,0.92l-1.24,4.74l22.48,2.33l4.92-0.77l1.35,0.22l8.43-2.39l24.12,3.55l0.29,0.58
	l-0.52,1.32l0.64,0.46l1.57-1.16l2.67,3.73l-0.5,2.55l20.7,2.11l20.99,22.63l4.58-1.16l3.21,0.06l1.73,0.42l0.86,1.34l1.28-1.75
	l1.77-4.71l2.63-3.38l6.91-4.61l4.98-2.4l6.03-0.91l2.64,0.22l1.23,0.71l0.45,1.24l4.89-5.61l4.59-4.34l-0.64-0.46l-6.05,5.54
	l-0.32-0.9l2.55-1.65l-0.06-1.56l-1.92-0.98l0.72,1.51l-1.25-0.19l-0.8-2.04l-1.68,1.65l-1.67-0.19l1.65-2.38l1.1-1.48l0.46-2.87
	l-2.22-0.64l1.12-0.66l1.05,0.56l2.73,0.75l0.93-0.29l2.34,0.56l2.48-1.35l0.94-3.07l1.65-1.05l1.27,0.1l1.56-0.66l0.35-3.73
	l-1.36-4.24l-2.7-0.86l-1.29,1.34l-0.28-1.09l-2.8-0.46l-1.32,0.1l-2.22,0.7l-0.21-0.46l-0.92-0.22l-2.11,0.73l-2.76-0.15l0.3-1.27
	l1.05-0.77l0.85,0.93l1.02,0.24l2.22-1.63l4.16-0.75l2.54-1.65l2.44,0.59l0.51,1.46l1.55,1.19l-0.16-1.58l0.07-1.63l-2.14-3.71
	l0.02-1.43l-0.64,0.87l-0.62-1.48L767.85,237.53z M767.82,269.4l3.33-1.77l5.45-2.08l0.85-3.6l0.31-3.12l-0.76-4.5l1.2,1.73
	l0.28,3.36l-1.35,7.49l-1.82-0.03l-3.71,1.58l-4,2.33L767.82,269.4z M774.21,251.09l-0.87-0.42l-0.23,0.98l2.03,2.75l0.12-1.41
	L774.21,251.09z M776.68,253.85l-0.77-3.07l-1.45-3.84l-1.75-3.5l-1.25-4.72l-0.65-0.88l1.25,4.72l0.01,1.34l2.19,6.18l1.35,2.49
	L776.68,253.85z"/>
<path class="st48" d="M664.61,226.09l-0.05,2.37l1.05,0.75l1.27,3.78l-0.08,0.96l4.82,5.72l1.77,1.39l4.67,9.9l1.59,1.64l1.39,4.32
	l4.48,4.43l1.95,4.09l0.54,1.55l-23.51,9.08l-37.09,13.08l-31.93,10.34l-15.51-49.87l36.29-11.67l44.32-16.39L664.61,226.09z"/>
<path class="st49" d="M229.78,102.12l0.9-1.23l2.42-0.91l1.53-0.8l0.87,0.11l0.58-0.53l-0.18-1.34l1.17-0.27l0.87-0.8l0.45,0.59
	l-1.55,1.93l-0.6,1.66l1.52-0.59l0.16-1.66l1.19-1.5l2.05-0.38l0.82-0.86l0.59-2.25l1.03-3.05l2.87-2.94l-0.16-5.79l0.63-3.7
	l2.81-7.71l18.17,13.4l-0.69,1.82l1.9,0.38l1.06,1.23l1.37,0.75l1.1,2.41l2.71,2.95l1.26,2.47l0.85,0.32l0.89,1.39L278,98.09
	l0.52,2.84l-0.03,2.03l-0.35,0.32l-0.17,1.88l-1.37,0.05l0.05,1.77l0.44,0.8l-0.75,0.7l0.37,1.88l1.13,1.07l-0.33,0.8l1.38-0.16
	l0.98,1.02l-0.48,0.64v0.8l-0.33,0.8l-1.42-0.8l-1.19,0.59l0.6,1.77l0.95,1.34l0.03,1.29l2.6,1.23l-0.46,1.23l1.56,2.09l-0.87,0.8
	l-1.15,2.47l-1.77-0.48l-2.76,1.12l-1.95-1.12l-0.7-0.16l-1.05,2.79l0.52,1.23l-0.52,0.48l-0.4,1.07l-1.11,0.21l-2.16,1.18
	l-0.7,1.44l0.51,0.53l-1.38,1.07l-2.19-0.11l-1.24,1.34l-2.75,1.82l-0.51-0.53l-3.03-0.65l-2.3,0.91l-0.7,1.44l-1.34,1.12
	l-1.02,0.43l-33.15-27.12L228.67,102L229.78,102.12z"/>
<path class="st50" d="M187.35,237.13l-4.59-0.92l-1.88,0.17l0.18,1.25l-3.55,2l-0.94-0.79l-2.73,3.44l-1.38,0.1l-2.54,1.51
	l0.15,1.35l-2.27,1.88l-1.34-0.35l-0.82,0.49l-2.04-0.5l-1.27,1.21l-1.61,0.38l-1.97-0.71l-0.36,3.71l-0.59,0.96l-1.33-0.85
	l-0.46-1.45l-1.09-0.05l-0.79,2.5l-1.63-0.2l-0.58-0.97l-0.76,0.79l-2.44-0.22l-1.26,2.81l-2.02,0.08l-0.21-1.65l-1.62,0.88
	l-2.38-1.35l-2.88,0.5l-0.65,2.25l-2.4-0.66l-0.87,0.76l-1.39,0.77l-3.15-0.04l-1.62,0.88l-1.09-0.05l-1.35-1.77l-2.23-0.33
	l-0.28,1.39l-1.35-0.17l-1,0.15l-0.45,1.06l-1.18,0.33l-2.82-1.13l-2.38,0.09l-13.55-29.17l-38.73,16.5l-3.18-7.33l12.15-5.18
	l49.46-22.03l44.43-21.89l3.82,7.18l11.24,14.93l12.78,26.44L187.35,237.13z"/>
<path class="st51" d="M54.83,386.99l38.83,13.45l10.47-29.48l2.96-4.43l0.52-1.66l0.75-0.66l-0.59-1.7l-2.35-1.24l0.54-3.39
	l3.9-4.34l2.19-0.42l1.56-1.71l0.06-1.31l1.66-1.13l3.19-4.16l3.98-3.5l-0.15-2.64l-2.69-2.84l-1.04-3.07l-25.02-8.74l-2.46,0.55
	l-4.5-1.23l-1.44-0.9l-1.37,0.83l-2.76-0.63l-3.85-0.01l-0.82,0.48l-3.52-0.72l-0.54-1.37l-1-0.27l-3.84,0.65l-1.26-1.05l-1.94,0.45
	l-0.01-1.48l-1.84-1.19l-1.25-0.3l-0.75-0.99l-2.56-0.04l-0.95-0.76l-1.02-0.12l-1.09,0.62l-4.72,0.06l-5.23-4.02l1.42-4.44
	l0.02-3.37l-2.39-3.3l-3.14-0.26l-0.24-0.93l0.45-0.94l-0.52-0.72l-0.85-0.01l-1.05,0.95l-1.25-0.3L37,298.35l-0.84-0.17l-0.65,0.43
	l-1.53-1.72l-0.38,3.49l-1.22,0.94l-1.24,2.74l-0.29,1.86l-4.89,9.56l-13.92,24.17l-3.12,3.44l-1.35-0.23l-0.1,1.71l-5.03,5.27
	l-0.54,2.65l0.74,1.15l-0.13,1.95l-1.11,0.78l-1.28,2.32l-0.42,4.64l0.76,2.47L54.83,386.99z"/>
<path class="st52" d="M749.94,134.92l-2.56-1.01l-2.24-4.64l0.19-8.75l-2.49-1.42l0.52-1.99l-1.37-2.47l-97.15-34.3l3.07-7.41
	l-7.53,0.89l-1.19-0.52l-5.39,1.5l-5.25-0.41l-14.15,37.59l-9.36,24.74l23.62,9.07l83.29,29.58l2.91-1.54l2.61-0.18l2.2,0.79
	l1.59,1.82l2.89-0.94l2.4,0.45l4.27-2.14l3.55-1.48l5.86-0.62l-3.06-6.64l-1.87-2.75l0.65-3.91l-2.75-2.95l1.82-4.46l1.93-0.43
	l2.23-1.78l-0.65-3.12l7.39-4.03l1.36-2.58l3.93-1.57L749.94,134.92z"/>
<path class="st53" d="M675.19,64.86l-6.57,1.74l-10.36,5.51l-8.23-2.99l-1.96,2.59l-9.71-3.56l-9.79,25.52l45.63,17.2l2.4,3.75
	l6.51,2.74l2.67-26.19l-8.97-7.04l-4.42,0.79l-0.86-2.64l-4.24-2.59l-4.35,1.35l1.71-4.78l-7.12-0.67l6.56-4.26l5.03,2.17l5.4,0.43
	l-5.89,2.74l7.92,0.25l2.95,3.66l-4.85-0.52l7.68,5.6l-1.3-3.96l3.74,0.73l-1.42-7.57l-8.17-4.95l12.96,2.41l-0.31-5.25
	L675.19,64.86z M701.13,107.4l2.21-2.91l-0.62-2.96l-5.95-0.32l0.44,3.83L701.13,107.4z"/>
<path class="st54" d="M718.95,149.1l-22.83,9.77l-0.96-2.85l-4.94-2.22l-0.96,2.07l-0.94-0.1l-0.21-1.63l-0.64-0.42l-27.24,10.29
	l-7.41,7.25l-1.53,0.55l-4.68,3.6l0.49,2.15l-1.96,1.75l-0.66,4.03l0.66,1.37l8.57,2.16l3.04-1.21l5.02,3.4l1.03,1.75l6.7,4.25
	l3.68,1.01l1.75-0.25l3.16,1.04l2.03,2.07l2.92,1.1l2.33-0.05l4.12,2.09l0.57,1.52l4.04,2.24l6.76,0.87l6.49,6.23l1.23,2.9
	l5.37,1.02l4.56,4.49l1.96,3.17l5.19-0.98l0.48-1.94l0.73-0.2l1.68-2.27l-0.04-2.39l3.17-3.42l-0.42-2.77l-1.73-0.59l0.74-1.05
	l1.09,0.17l1.44-0.88l1.49-2.94l4-3.28l1.15-3.21l-0.11-0.81l4.36-6.51l-0.28-0.52l-1.35-0.58l0.84-2.04l0.97-0.27l0.64,0.42
	l0.59-1.12l1.57-0.44l0.24-1.87l2.09-3.12l-2.1-5.9l0.22-2.83l2.34-8.11l2.19-3.26l2.29-1.96L718.95,149.1z"/>
<path class="st55" d="M148,94.03l32.2-22.1l20.19-14.76l1.01,1.42l0.37,1.7l-1.17,2.76l0.39,0.9l2.37,0.69l1.15,0.92l2.05-0.95
	l1.95,0.42l19.17,24.69l-1.54,1.05l0.72,1.05l1.62,0.27l0.47,0.74l-0.44,0.82l1.05,0.79l1.07-0.42l1.45,0.89l1.35,4.04l1.42,3.18
	l1.47,0.09l0.84,0.66l1.31,0.71l-0.92,0.89l-1.56,0.48l-1.88-1.16l-1.45-0.2l-5.21,1.73l-0.95-0.38l-1.65,0.65l-0.66,1.08
	l-0.92,0.19l-0.42,0.71l-0.67,0.11l-0.42,0.71l-0.72,0.05l-0.34,0.95l-1.31,0.39l-0.24,2.16l-1.17,0.98l-2.4-0.17l-1.25,0.75
	l-3.87-0.26l-26.53,18.34l-36.35,23.82l-18.81-29.31l-8.76-13.91L148,94.03z"/>
<path class="st56" d="M644.44,260.63l33.81-26.18l16.49-13.79l-2.4-3.73l0.44-1.68l1.23-0.69l0.56-1.34l-1.45-3.48l2.09-4.59
	l2.57-2.2l1.19-3.57l-0.21-1.15l2.47-4.18l-1.25-2.85l1.46-4.5l0.73-0.25l0.84,1.07l1.04,0.19l0.57-1.66l-0.51-1.93l1.48-3.65
	l2.59-0.49l-0.75-5.12l0.49-1.61l1.23-0.69l-2.63-3.9l-0.12-0.68l-3.36,2.71l0.35,0.85l-20.99,17.13l-3.69,3.89l-15.37,11.45
	l-3.68,3.23l-13.14,9.57l-1.64,1.92l-16.71,12.97l-0.85-0.1l-2.9,1.88l2.56,1.79l-0.02,0.98l-17.51,12.94l-0.12,1.15l-0.98-0.12
	l-0.78,0.5l0.66,0.98l0.98,0.45l0.43,0.8l-0.84,1.08l1.86,0.42l-0.27,0.93l-1.43,0.72l0.98,0.45l1.5,0.21l0.36,0.52l-0.69,0.99
	l0.23,2l0.39,0.4l1.61,0.04l0.04,0.73l-1.18,0.76l0.25,0.38l1.16,0.22l0.48,0.55l-1,0.86l0.01,0.85l-1.15,0.96l-0.25,1.13l0.93,0.37
	l0.81-0.63l0.85,0.43l-0.6,1.79l1.07,0.92l-1.87,0.56l0.28,0.57l0.87,0.62l0.47,1.2l-1.42,0.06l-0.22,1.01l0.91-0.48l0.84,1.07
	l0.04,1.05l1.32,0.12l0.52,1.28l0.98,0.12l-0.04,1.1l-1.19,0.23l0.41,2.11l-0.9,1.34L644.44,260.63z"/>
<path class="st57" d="M296.14,317.88l0.07-2.12l25.71,0.63l23.73,0.08l0.74-70.09l0.59-0.05l39.19-0.65l1.17,30.03l2.07,0.76
	l2.01,1.96l1.13,0.13l0.76-0.76l0.91,0.21l1.09,0.63l0.74-1.11l1.79,1.06l0.52,2l0.93,0.43l1.7-0.19l2.69,1.14l1.48-0.18l1.02-0.36
	l1.82,1.41l1.36-1.72l2.65,0.58l1.57,2l1.7-0.19l-0.41,1.51l1.76,0.65l2.09-1.99l2.01,1.05l0.94-0.43l0.15,1.05l1.33,0.75l1.58-1.88
	l0.93,0.43l-0.12,1.42l0.83,1.21l0.85-0.63l1.64-3.09l1.44,1.31l1.51,0.24l1.52-0.61l1.58,1.15l0.88-0.14l1.03,0.77l2.62-0.83
	l0.36-1.23l2.73-0.42l1.22,0.41l3.58-2.03l0.52,1.02l3.76-0.49l0.29-1.15l1.67,0.51l3.61,2.41l4.85,0.98l2.05,1.47l2.01-1.06
	l2.42,0.39l0.76,8.34l1.4,13.93l0.7,2.34l2.07,1.82l0.79,3.74l3.06,3.02l0.81,2.97l0.75-0.06l0.3,5.13l-2.12,4.67l1.08,1.54
	l-0.89,1.12l0.68,2.06l0.15,3.02l-1.45,2.57l-0.03,0.57l-1.2,0.94l0.83,1.21l0.95,0.71l-2.58,0.41l-6.03,3.2l-2.53,1.17l-1.24,1.36
	l-0.54-0.31l1.44-1.73l1.3-0.59l0.33-0.66l-2.16,0.09l-0.56-0.52l0.49-1.45l-0.76-1.21l-0.45,0.03l-1.71,1.05l-1.28,1.93l0.31,1.18
	l2.62,2.21l0.98,0.14l0.04,0.56l-1.63,1.25l-3.43,3.08l-2.77,2.95l-2.3,1.16l-3.55,2.38l-2.64,1.61l-3.24,1.58l-2.91,1.98l2.22-2.28
	l-0.06-0.77l0.41-0.59l-0.24-1.25l-1.12,0.01l-0.74,1.11l-1.86,1.05l-1.39-0.75l-0.31-1.18l-1.11,0.09l0.71,1.5l1.07,0.42l0.94,0.56
	l1.42,1.03l-0.47,0.6l-2.81,1.4l-1.26,0.16l-0.95-0.77l-0.26,1.5l0.43,0.75l-1.9,1.55l-1.1,0.22l-0.56,0.53l-0.21,1.22l-1.16,2.41
	l-1.15,0.58l-1.22-0.33l-1.28,0.87l0.29,0.97l1.01,0.49l0.78,0.5l-1.15,2.55l-0.08,1.98l-0.66,1.25l-0.99,0.77l-2.13,0.44l1.36,0.32
	l1.37-0.52l-0.14,2.26l-0.82-0.01l0.21,0.83l0.29,0.97l-0.92,0.71l0.16,2.18l1.26,0.89l0.61,2.14l-0.18,1.57l-0.73,0.34l0.38,1.03
	l0.83,0.22l0.68,1.15l0.14,1.82l0.93,1.41l1.77,1.7l-0.04,0.49l-1.65-0.02l-1.11,1.07l0.22,0.97l-0.69-0.16l-1.05-0.07l-2.71-2.41
	l-1.74-0.29l-5.26,0.39l-2.12-0.41l-2.83-1.91l-1.32-0.61l-1.55,0.18l-2.51-1.65l-4.09-0.82l-0.07-0.91l-1.13-1.19l-0.91-3.25
	l-0.9-1.13l-1.34-0.89l-0.09-1.12l-1.07-0.35l0.31-1.86l-0.34-1.53l-1.04-0.91l0.37-2.14l-0.75-2.2l-1.34-0.89l-0.81,0.06
	l-3.14-2.24l-0.02-1.34l-0.68-1.15l-0.6-0.1l-0.79-1.64l-1.57-1.02l-2.28-1.6l-0.26-1.46l-0.77-0.44l0.07-1.13l0.34-0.52l-1.11-0.98
	l0.04-0.49l-1.6-1.43l-0.04-1.48l-2.25-3.29l-0.16-1.19l-1.5-2.07l-4.04-3.09l-0.06-0.77l-2.54-1.01l-0.16-1.26l-0.91-0.21
	l-0.04-0.49l-0.6-0.1l-1.7-1.85l-0.59,0.05l-0.55-0.39l-0.91,0.84l-1.64,0.13l-1.98-0.63l-3.42,0.25l-3.22-1.24l-0.87,1.4l-1.66-0.3
	l-2.39,1.03l-1.11,2.06l-1.32,2.35l-0.59,3.14l-0.98,0.92l-0.81,0.14l-0.58,1.17l-0.93,0.49l0.02,1.27l-2.15,0.23l-1.41-0.95
	l-0.75,0.06l-1.64-1.93l-2.7-0.15l-1.38-1.52l-0.98-0.07l-1.6-0.45l-2.7-2.2l0.11-0.57l-1.25-0.75l-0.75-0.02l-2.68-1.98l-0.17-1.39
	l-1.92-2.68l0.07-1.13l-0.59-0.87l0.51-1.09l-0.19-1.67l-2.14-2.73l-0.66-2.91l-1.27-1.04l-0.05-0.7l-0.9-0.08l-0.58-0.74
	l-1.87-1.06l-0.68-0.02l-1.49-1.02l-0.06-0.77l-2.25-1.1l-0.55-1.44l-2.05-1.47l-2.6-2.91l-2.29-0.75l-1.65-1.15l0.09-0.85
	l-1.04-0.91l-1.45-2.51l-1.83-0.57L296.14,317.88z M433.05,405.27l0.6,0.03l-0.7-3.34l-3.23-8.44l-0.57-5.67l3.1-7.63l4.1-6.09
	l5.08-3.98l-0.04-0.49l-0.59,0.05l-1.88,0.84l-2.55,1.81l-0.45,1.09l-5.49,8.59l-1.67,5.7l0.45,6.17l3.29,8.22L433.05,405.27z"/>
<path class="st58" d="M237.92,115.8l-5.4-13.55l-30.96,11.45l24.18,68.97l29.96-10.88l25.57-10.04l-22.84-54.02L237.92,115.8z"/>
<path class="st59" d="M686.48,150.64l-2.43,4.29l2.16,4.23l-1,2.12l-0.2,1.73l-2.06,2.45l-2.03,0.15l-1.16,1.54l-3.14,0.75
	l-1.35,1.77l1.04,4.83l-1.35,3.14l0.29,2.1l-1.87,2.22l0.05,2.59l-2.28,2.14l-0.3,2.93l-1.25,1.25l-0.21,6.08l0.57,2.15l-1.36,3.27
	l0.76,2.59l-0.93,3.22l-1.03,1.57l-0.5,1.81l2.21,3.97l-17.76,0.2l-1.25-1.61l1.21-2.49l-0.41-19.38l-2.22-2.48l-1.65,1.85
	l-0.66-3.12l1.57-2.14l-2.51-9.6l1.4-4.9l0.81-1.2l-0.3-2.78l1.12-2.77l-2.42-3.6l0.15-4.33l0.94-1.86l-1.69-1.56l1.33-2.32
	l-0.66-2.44l39.34-1.7L686.48,150.64z"/>
<path class="st60" d="M689.32,370.72l-2.3,1.9l-0.08,1.18l0.87-0.75l2.18-2.29L689.32,370.72z M662.04,348.51l-0.15-1.19l0.93,0.38
	l1.31-0.31l1.21-1.36l0.06-0.52l0.33-0.39l0.07-0.75l-0.29-0.71l-0.31-0.27l-0.25-0.58l-0.24-0.79l-0.88-0.46l-0.48-0.37l-0.16-0.53
	l0.33-0.39l-1.22-1.32l-0.85-0.12l-1.02-0.65l-0.29-0.93l-0.35-0.41l0.15-0.7l0.91-0.41l0.43-0.77l-0.97-0.74l-0.45-1.24l-0.84-0.34
	l-1.28-1.01l-0.69,0.42l-1.11,1.19l-1.53,1.74l-6.38-9.15l-0.6,0.68l0.04,1.8l-1.8,1.61l-1.29,2.54l-1.44,0.13l-1.44,1.57
	l-1.17,0.27l-2.09,0.89l-1.17,0.27l-2.07,1.68l-1.6-2.07l-6.06,6.23l-1.91,0.76l-2.24-1.74l-0.25-2.25l-1.7-1.67l-2.31,4l-2.04,0.8
	l-0.36,1.48l-2.9,0.91l-0.54,1.82l-6.26,3.69l-2.45,2.37l0.75,1.73l-2.23,0.93l-0.57,1.25l-2.98,0.64l-0.1-1.28l-5.27,0.65
	l-0.85-1.56l-1.19,0.92l0.47,0.8l-0.87,0.54l-6-0.51l-1.8-2.95l-1.51,1.08l-2.54,0.66l-2.08-0.99l-2.81-4.04l0.62-1.34l-1-1.31
	l1.28-0.66l-0.34-0.84l-7.46,3.38l-3.04-0.49l-4.07,1.17l-1.39,1.7l-2.48,0.14l-0.89,1.41l-1.91,0.55l-1.83-0.42l-1.35,1.4
	l-1.07-0.13l-8.09,0.38l27.12,10.69l0.65-0.76l4.31,1.72l-0.6,0.46l27.66,10.75l38.3,12.16l28.62,8.38l0.04-1.32l0.4,0.1l0.37,1.19
	l0.57-1.25l0.64-1.77l0.84,1.78l-0.2,2.23l0.62-1.11l-0.4-6.32l0.57-1.04l-0.24-1.02l-1.48-0.01l-0.22,1.44l-0.71-0.38l0.12-1.05
	l-0.96,0.49l-0.27-1.36l-1.81-1.06l-0.51,0.51l0.33,2.51l-0.91-1.26l0.03-1.09l-0.74,0.5l-0.75-0.29l-2.13,0.75l1.03-1.24l0.67-1.2
	l-1-1.31l-1.35-1.27l0.63-1.56l0.09-1.4l-1.05,0.67l-1.03-1.65l-1.91-0.68l0.6-0.68l1.42,0.53l0.56,0.85l1.89,0.11l0.61,0.76
	l-0.03,1.09l-0.33,0.6l1.49,1.23l-0.16,0.91l0.61,0.76l0.22,1.45l1.99-0.72l0.53,0.28l0.91-1.85l-1.63,0.25l-0.11-1.05l1.42,0.53
	l-0.64-1.34l-1.35-0.05l0.72-1.51l-1.6-0.62l-1.42-1.97l-0.55-2.74l2.14,3.58l0.66,0.68l1.89,0.11l-1.07-1.57l0.81-0.23l-0.65-0.9
	l0.8,0.2l0.16-0.91l0.54,1.29l0.74-0.5l-0.26,1.31l0.68,1.25l0.76-0.15l-0.15-0.75l1.09-2.2l-0.93-0.6l-1.04-1.43l1.32-0.52
	l-1.72-1.03l-0.12-0.62l-1.52-0.14l-0.86-1.35l0.13-1.27l-1.29-2.01l-1.01-2.53l-1.05-2.66l2.04,2.53l0.22,1.45l1.53,1.59l0.85,3.22
	l0.99-1.36l-0.09,1.4l1.8,1.51l1.9-3.44l-0.18-1.32l0.78,0.86l0.84-1.33l-2.08-2.65l-1.32-0.92l-1.05-0.78l0.83-0.89l-1.18-0.96
	l0.19-0.56l-1.6-0.84l-0.55,0.59l-0.15-1.19l-2.39-1.27l-0.7-0.81l0.3-0.96l-0.77-1.07l0.36-1.48l-0.34-0.63l-1.14,0.62l-0.89-0.25
	l-1.13,0.18l-1.33-0.71l-0.18-1.54l1.82-2.48l1.58-1.83l0.29,0.71L662.04,348.51z M675.91,368.73l0.84,0.34l0.28-0.51l-0.75-0.29
	L675.91,368.73z M675.81,384.44l-2.17,1.86l1.67-0.55L675.81,384.44z M681.47,370.45l0.47,0.59l-1.07,1.54l-0.2-0.67l-1.63,0.25
	l0.7,0.81l-3.68,2.94l-3.74,7.01l0.21,3.55l1.15-1.05l1.64-2.14l0.82-2.12l1.05-0.45l0.48-1.3l1.35,0.05l-0.29-0.71l0.77-0.37
	l0.18,1.32l-0.7,0.85l-2.21,3.16l2.01-1.37l1.82-2.48l1.51-2.54l0.69-1.86l1.62-1.69l1.83-1.04l1.13-1.85l0.69-0.63l-4.83-0.77
	l-1,0.36L681.47,370.45z"/>
<path class="st61" d="M236.81,309.37l1.43,2.7l0.11,3.35l-25,2.01l-1.94,1.38l-4.36,0.65l-1.59-0.21l-0.89,1.22l-2.63,0.5
	l-3.36,1.43l-0.54,0.72l-3.33,0.72l-0.98-0.96l-0.97,0.15l-3.11,1.98l-1.48-0.41l-1.52,1.1l-0.55-1.25l-2.04-0.31l-1.2,0.21
	l-1.02-0.55l-2.25,0.93l-1.1-0.29l-0.93,0.29l-0.73,0.93l-4.08,1.82l-6.03-1.43l-0.4-4.28l-1.22-2.84l-3.29-1.89l-2.84,0.96
	l-0.55-0.7l0.04-0.96l-0.72-0.41l-0.75,0.31l-1.95-0.57l-0.83,0.57l-1.57,0.41l-0.87-0.91l-1.3,0.16l0.25-5.98l0.8,4.47l0.49,0.24
	l-0.45-1.43l0.57-0.34l1.36,1.38l-0.88-1.46l-0.01-3.3l1.48-0.15l-1.3-1.17l-0.71,0.45l-1.25,0.07l-0.78-3.06l0.49,1.03l0.8,0.15
	l0.11-1.29l2.47-0.76l-1.96-0.34l-1.73-0.96l-0.73,1.48l0.23-2.52l-1.26-3.23l-0.96-2.54l-0.67-4.6l-0.83-1.32l-1.55-1.17
	l-0.81-2.89l-0.29-2.03l1.03-2.13l-0.85-0.84l0.02-0.47l0.72-0.15l7.71,3.59l4.05,0.24l4.49,0.57l2.45-0.84l0.82,2.11l0.42-1.38
	l0.54-0.16l1.06,1.79l-0.19-1.98l1.04-0.47l0.54,0.39l-0.72,0.7l0.44,1.12l0.2-1.25l0.85-0.26l0.27,1.96l-1.03-0.31l0.62,0.91
	l0.26,1.1l-0.46,0.7l-1.28,2.68l0.16-2.73l-1.14,0.67l0.16,1.61l-2.3,2.92l-0.09,0.81l-1.13,2.08l0.15,0.75l1.69-0.52l1.81-0.72
	l0.18-0.76l-2.89,1.3l-0.14-0.43l1.38-2.63l1.21-1.01l1.42-0.6l0.42-1.38l1.8-2.37l-0.31-1.01l0.85-0.26l0.97,2.84l-1.16,0.36
	l-0.28,0.72l-1.05-0.39l0.47,0.72l0.38,1.22l-0.39,0.67l-0.59-1.07l-0.44,0.76l0.68,0.26l-0.45,1.01l1.01-0.31l0.43-0.52l0.52,1.41
	l-0.35,1.61l-0.47,0.93l0.33,1.32l-0.81,0.1l-0.46-0.96l0.45-1.01l-0.73-0.16l-0.46,0.7l-0.05,1.74l-0.42,0.84l-0.52-1.41l0.37-0.98
	l-0.4-0.75l-0.66,1.15l0.57,1.56l-0.38,0.44l-1.71,0.21l-0.74,1.17l1.57-0.96l0.34,1.63l0.37-1.53l0.62,0.91l0.16-0.84l0.94,1.12
	l0.54-0.16l0.36-0.75l0.45-0.21l1.12-1.84l-0.12-0.91l0.75,0.24l0.44,0.57l0.47-0.39l-0.19-0.88l1.01-0.31l-0.49-2.13l-0.68-1.92
	h0.76l-1.01-1.34l0.9-0.91l-0.38-1.77l1.29-2.13l0.79-0.16l-0.08-1.07l-1.24-0.72l-0.86-2.49l-0.42,0.84l1.19,1.92l-0.45,0.21
	l-0.89-1.22l-0.57-0.21l-0.28-1.72l1.36-0.5l0.39,0.43l-0.13-1.22l-1.62-0.83l-0.82-1.01l0.29,1.48l0.94,0.57l-0.45,0.45l-0.95-0.34
	l-1.1,1.36h1.27l0.69,1.67l0.17,1.36l0.41-1.15l1.6,1.32l0.12,1.46l-1.16,0.36l-0.27-0.86l-1.42-0.5l-0.28-2.27l-2.04-1.41l1.41-2.8
	l-0.45-3.09l0.7-0.21l1.79,1.96l-0.58-1.87l1-0.07l-0.74-2.37l-0.87-0.36l-0.37,2.08l-1.44-1.92l0.98-0.39l-2.31-3.17l1.34-0.88
	l21.27-0.7l26.24-1.85l19.43-1.7L236.81,309.37z M167.3,299.93l0.39-0.12l0.25,0.55l-0.32,0.34l0.21,0.41l-0.45,0.45l-0.36-0.6
	l0.3-0.41L167.3,299.93z M170.21,295.65l-0.5,1.65l0.1,0.6l0.36,0.05l0.25-0.55l0.87-0.19L170.21,295.65z M165.08,280.25l0.52,0.31
	l0.94-0.52l-0.07-0.76l0.52-1.58l-0.86-0.05l-0.18,1.32l-0.44-1.12l-0.8,0.41l-0.23,1.17L165.08,280.25z M166.32,275.53l0.87,0.91
	l-0.65,0.36l-0.53,0.47l-0.69-1.67L166.32,275.53z M163.88,275.03l-0.89,0.12l0.7,0.88L163.88,275.03z M163.67,277.06l0.71,0.1
	l-0.07,0.88l1.2-0.76l-0.65-1.53l-0.74,0.07L163.67,277.06z M161.5,277.42l0.83,1.87l1.53,0.55l0.04-1.51l-1.34-1.32L161.5,277.42z
	 M162.72,276.18l-1.07-0.45l-0.67,0.29l1.72,0.65L162.72,276.18z M163.62,270.38l-0.93,0.29l0.17,0.57l1.06,0.15L163.62,270.38z
	 M170.18,293.93l-0.29-2.03l-0.85,0.26l0.27,1.41L170.18,293.93z"/>
<path class="st62" d="M615.08,73.74l-1.45,1.11l1.67,1.37l-0.41,1.79l4.82,4.32l2.98,0.74l3.07-1.4l1.63-1.69l3.2,3.21l7.89-0.78
	l0.96-0.87l-0.85-0.88l1.27-1.41l1.57,1.72l6.6-2.04l0.5,1.55l3.65-1.49l0.37-1.67l2.59-1.67l-1.49-1.95l2.45-3.49l6.97-6.01
	l0.16-2.37l3.46-1.8l0.02-1.91l2.39-1.47l1.79-5.46l2.7,1.66l0.99,2.7l3.41,1.62l2.23-1.39l5.95-9.1l2.68,2.17l2.17-2.55l1.43-0.6
	l2.43-1.59l1.43-0.6l1.38-2.27l1.82-0.49l0.9-3.43l1.84-2.4l-0.58-2.21l0.57-0.98l10.95,9.77l1.45-2.51l1.07-1.72l0.75-0.67
	l-1.01-0.8l0.82-1.8l-1.1-0.96l-0.01-0.89l-0.9-0.26l-0.6-1.7l0.61-1.09l-3.46-0.49l-2.24-2.68l-1.9-0.16l-1.65,1.31l-1.66-0.48
	l-3.2,2.77l-4.36-0.75l-2.08-1.87l-4.67,3.48l-2.71-1.16l-5.35,3.42l-1.72,1.54l-2.87,1.21l1.86-13.96l-23.29-3.03l2.87-24.23
	l-3.24,0.59l1.05,2.97l-0.91,2.54l0.06,2.56l-2.61,3.57l-2.04,6.28l-2.55,3.84l0.25,1.47l-1.29,2.43l-1.59,0.18l-3.73,3.13
	l-3.01,1.67l-0.76-0.22l-2.9,1.33l-1.24-1.89l-2.55,1.55l-0.81,1.3l-1.66-0.48l-2.44,2.09l-0.62,2.5l-1.46,0.21l1.4,1.8l-0.67,2.23
	l-1.35-0.14l-1.18,0.68l-1.46,0.21l-0.03-2.68l-1.87-1.17l-2.09,2.32l-1.16,2.47l-1.87,1.11l0.39,4.69l-2.21,0.39l-1.75,3.95
	l-1.92-0.55l-4.59,0.45l-0.51,1.25L603.3,50l-2.04,3.99l1.87,2.57l0.64,1.58l1.06,1.07l-0.45,1.02l3.65,8.18l1.79,0.51l1.29,2.66
	l1.43,0.79l1.83,0.4L615.08,73.74z"/>
<path class="st63" d="M684.82,86.76l-2.02,0.97l0.45,1.56l-1.32,2.69l0.26,2.17l0.53,0.4l0.49-0.6l0.15-1.17l1.32-1.05l0.62-3.13
	l2.42-1.26l0.15-2.39l0.4-0.72l0.02-1.51l1.17-1.02l-0.19-1.04l0.61-0.76l1.04-0.13l0.26,1.38l-0.72,0.21l0.52,0.75l-0.22,1.62
	l-0.43,0.15l-0.29,3.28l-0.45,0.45L688.49,93l0.33,2.94l0.7,1.3l0.24,0.88l-1.51,1.65l0.46,1.27l-0.25,2.26l0.43,1.06l0.77,2.5
	l-0.27,2.99l-0.45,3.67l0.93,0.89l-0.18,0.25l0.8,1.06l-0.22,0.83l0.92,0.46l0.35,1.87l1.15,0.85l0.1,2.13l0.75,2.72l-33.23,8.45
	l-1.32-1.75l-2.51-0.02l-2.17-0.65l-2.19-3.51l-0.25-1.74l0.74-2.51l-0.58-0.68l-1.74-0.8l-0.48-1.77l-1.39-2.95l-0.54-2.04l-2-1.76
	l-2.14-0.09l-4.28-1.74l-0.87-2.2l-5.01-1.25l-0.32-0.87l-2.42,0.46l-1.95-1.48l-1.64-0.61l-0.15-3.62l-0.87-0.98l-0.34-3.8
	l0.49-1.38l-0.57-1.82l-1.05-0.73l-1.35,0.05l-0.22-1.17l1.29-4.4l3.81-3.53l-1.99-8.91l0.71,0.15l0.38-0.43l-0.07-0.77l0.58-0.54
	l1.18,0.63l0.5-0.16l1.91-0.37l4.64-2.76l0.09-0.74l0.88-0.17l0.36-0.93l0.4,0.49l1.2-0.88l1.09-1.43l0.28,0.3l0.6-0.83l1.82,0.79
	l-0.38,1.22l-0.7,1.13l0.56,0.97l-0.81,1.31l0.41,0.56l1.54-1.08l-0.18-0.97l2.66,0.84l1.48,0.21l1.48,0.21l2.69,2.2l12.94,0.21
	l1.15,0.49l3.03-0.02l0.58,0.24l2.02-0.53l3.69-0.15l1.22,0.83l-0.6,0.83l0.69,0.44l2.87-0.06l1.04,0.66l0.65,3.02l-0.59,2.12
	l1.48-0.21l0.63-0.7l0.76,0.43l-0.4,2.29l0.94,0.96l0.92,0.04L684.82,86.76z M643.72,68.04l-0.35,0.14l-0.89,1.32l0.21,0.32
	l1.02-0.63l-0.08-0.42l0.62-0.34L643.72,68.04z M644.74,67.06l-0.7,0.35l-0.06,0.51l0.65-0.19L644.74,67.06z M643.59,66.14
	l-0.03,0.65l1.25-0.24l0.39-0.36l-0.06-0.71L643.59,66.14z M645.24,63.67l0.03,1.35l0.81-0.51l-0.11-0.98L645.24,63.67z
	 M692.09,77.41l-1.42,0.49l-0.13,0.96l1.17,0.99L692.09,77.41z"/>
<path class="st64" d="M304.15,320.44l-39.26,2.5l-44.34,1.4l-0.22,7.95l0.17,40.55l0.15,16.19l24.89-0.51l34.68-1.45l28.81-2.2
	l-2.53-32.31L304.15,320.44z"/>
<path class="st65" d="M685.63,150.32l-2.25-0.98l-0.57,1.35l0.44,0.22l0.33,0.02l0.53,0.29l0.32,0.46l-0.02,0.37l0.22,0.34
	L685.63,150.32z"/>
<path class="st66" d="M273.99,90.09l2.58,13.16l-0.94,2.73l-1.49,0.6l-1.68-1.52l-3.16,0.14l-2.43,1.46l3.23,9.73l1.8,3.25
	l0.47,2.16l-0.16,2.5l-83.09-51.82l-1.84-2.1l-6.23-48.68l38.26-6.28l19.74-3.54l18.72-3.71L273.99,90.09z"/>
<path class="st67" d="M59.09,303.63l-15.53,3.07l-4.45-23.34l0.22-4.03l-0.3-1.3l0.24-0.72l-1.03-0.91l-1.98,0.05l-0.94-2.44
	l0.86-4.31l1.25-1.08l0.35-1.71l-0.46-0.88l0.64-1.36l0.47-3.93l1.23-3.78l-1.09-1.69l-2.82-0.88l-1.84-1.65l-0.45-2.72l-1.41-2.1
	l-6.74-35.08l9-1.87l2.75,13.71l4.02,3.28l0.28,3.14l3.3,1.82l1.28-0.08l4.35,3.74l0.53,1.19l2.09,1.12l0.52-0.22l1.35,0.84
	l1.86-0.8l0.41,0.91l0.15,11.45l0.75,2.46l0.94-0.07l1.59,1.07l1.28-1.5l1.49-2.26l1.58,0.6l0.92,1.3l0.51,1.95l3.89,4.89l2.39,1.34
	l1.68,0.21l0.99,1.61l1.04,2.33l1.92,0.73l0.35-1.71l4.41-0.82l0.92-1.21l5.65-1.3l0.79-2.58l0.89-0.79l1.15,0.73l1.96,1.93
	l0.55-0.17l8.85,33.29l-29.89,7.38L59.09,303.63z"/>
<path class="st68" d="M14.54,345.51c66.92,16.62,118.78,13.69,153.64,8.01c66.83-10.9,98.55-36.36,169.66-40.08
	c45.4-2.38,82.86,5.36,106.88,12.03"/>
<path class="st69" d="M529.1,384.28l24.48-39.8l20.55-35.94l-14.11-7.58l-45.86-23.49l-21.59,37.69l-23.35,37.66l-30.59,44.77
	l14.11,10.02l6.49-0.54l2.89,2.59l4.61-1.23l1.12-1.19l7.2-0.42l1.5,0.62l2.89-0.8l0.3-0.66l1.95-0.41l1.05-2.35l1.14,0.47
	l9.79,10.23l2.76,1.58l0.81-0.88l2.38-0.41l-0.08-2.47l-0.53-3.36l1.98-0.83l1.95,0.37l2.12,1.31l7.74,1.03l3.35-0.88l1.75-1.28
	l2.27,0.59l2.92,1.21l2.4-1.02l-1.11-1.86l3.41-4.61l-0.16-1.9l4.17-6.12l-1.43-3.03l0.16-1.5l1.67-0.35l3.45,0.03l0.37-0.63
	L529.1,384.28z"/>
<path class="st70" d="M399.28,308.37l-8.07,6.69l-26.02,20.21l-27.17,19.85l-33.13-43.98l23.26-16.88l18.84-14.69l16.36-13.24
	l8.98,10.37L399.28,308.37z"/>
<path class="st71" d="M175.38,23.75l2.2,0.94l0.75,0.81l-0.75,3.14l0.42,2.15l2.9,4.28l2.72,0.73l3.09-0.08l1.73,2.12l-0.33,0.61
	l2.5,0.6l1.87,1.1l0.15,1.4l1.03,0.75l1.07-0.24l3.21,2.41l0.62,2.2l-0.51,2.99l-0.72,1.33l0.4,2.06l-1.07,2.22l-3.39,2.39
	l-2.15,0.48l-2.52,1.29l-0.08,3.61l1.31,1.14l0.96,0.05l1.08,1.01l0.62,3l-0.35,0.52l-1.04,2.39l0.48,2.04l-0.65,1.23l-0.75,0.44
	l-1.49,0.88l-0.59,1.48l0.81,0.62l0.38,1.97l-0.48,0.74l-1.5-0.38l-1.21-0.72l-0.86-1.24l-1.78-0.76l-12.61,3.59l-24.06,6.56
	l-23.16,5.19l-2.5-3.38l0.17-2.01l-1.38-2.64l-0.41-2.51l-1.31-0.33l-1.6-5.11l-3.51-3.69L112.19,70l-2.84-3.21l-1.92-2.88
	l-0.28-1.19l-0.88-1.33l-0.46-1.95l-0.63-0.67l-0.97-1.31l-0.53-1.05l-1.4-0.75l0.02-3.86l0.48-4.68l-1.04-1.56l-1.24-0.08
	l-0.68-1.28l0.79-0.63l-0.14-0.96l-1.46-1.02l-0.23-1.38l1.98-0.36l25.19-5.74l32.24-8.16l16.47-4.38L175.38,23.75z"/>
<path class="st72" d="M489.53,60.03l2.48-2.04l9.17-33.11l0.17-0.84l-40.61-11.92l-0.96,1.65l-2.58-0.49l-0.24-2.31l-28.62-8.39
	l-15.66,41.96l2.28,5.92l-13.11,3.3l1.08,7.43l19.21-3.34l5.88-0.77l1.93,1.06L440,54.06l3.24,2.1l8.51,1.3l5.07,2.81l16.5,0.75
	l7.99,1.63l3.78-1.01l2.93,3.17L489.53,60.03z"/>
<path class="st73" d="M612.76,270.73l-3.53,1.65l-1.84,0.24l-0.96,2.28l1.38,1.92l2.26,0.84l1.99,3.57l-1.32,1.62l-1.39-0.29
	l-2.25-2.12l-37.57,30l-5.92-2.79l-35.55,30.67l1.22,2.5l3.52,0.77l1.72-0.4l1.37,0.43l3.74,5.82l-0.53,1.06l0.62,0.03l0.62-0.77
	l0.11-1l6.76-7.83l6.96-5.43l7.42-2.99l9.45-0.83l2.33-0.71l2.84,0.33l1.42,2.12l1.89-1.32l0.94-1.81l2.02-1.3l1.13-1.71l1.17-3.13
	l0.83-3.92l0.64-0.91l0.75,0.06l1.1-0.76l-0.05-0.89l-1.05-0.65l-0.8-0.14l-0.29-0.73l0.97-1.94l3.71-3.05l1.18,0.33l0.84-0.47
	l2.36-0.49l3.36-0.26l1.89,0.65l1.53,0.32l2.98-0.46l1.34,1.84l3.25-0.08l0.84-0.47l2.03,0.19l1.44,0.84l0.9-0.4l1.79,1.17
	l0.88,0.08l0.17-1.39l2.33-1.51l1.17,0.8l1.36,0.09l0.73,1l3.5,0.1l5.49,7.25l1.8,5.43l1.45,0.37l1.73,2.72l0.15,1.51l1.22,0.53
	l3.09,0.5l1.06,0.99l1.18,0.33l-1.36-1.24l0.69-1.17l-1.36-3.19l-3.03,0.73l-0.25-0.51l1.82-1.73l2.15,1.5l1.2-0.15l-1.04-1.59
	l1.04-0.38l0.92,0.28l0.31,0.59l0.05,4.81l0.45,0.95l-0.28,2.39l0.61,0.84l5.02,0.88l8.55,3.14l2.58,0.62l1,1.38l4.75,1.99l2.14-0.8
	l-0.12-1.31l-1.48,1.38l-4.86-1.8l-0.62-1.18l0.74-1.43l-0.83-1.15l-1.19-0.67l0.21-1.18l0.81,0.47h0.83l2.22,3.07l-1.28,0.19
	l-0.13,1.13l1.99,0.45l2.23,1.44l0.61-1.12l2.48-0.34l2.87,0.53l4.08,3.03l5.1,1.97l-0.09-1.43l1.93-1.92l3.24-0.75l1.18,1.14
	l4.7,1.1l0.69,0.78l3.23,0.86l-0.27,0.76l1.5,2.07l2.9-0.41l1.18-0.82l1.12-2.86l1.35-0.59l1.08-0.3l0.87-2.56l-0.23-0.65l1.11-0.43
	l0.95-2.62l-0.25-2.48l-2.32-2.07l-0.88-0.89l-1.35-3.67l0.36-0.48l1.35,0.9l-0.37-1.82l-4.63-5.08l-6.14-7.83l-4.56-4.66
	l-1.49-0.92l-11.35-4.89l-9.13-4.12l-3.56-1.33l-3.02-2.04l-2.04-2.5l0.54-0.73l-0.5-0.69l-2.09-1.08l-5.36-0.87l-11.36-3.26
	l-10.25-4.85l-9.32-5.84l-2.53-2.51l-1.5-0.11l-2.5-2.64L612.76,270.73z M694.6,368.76l1.28-1.01l-1.1-0.39L694.6,368.76z
	 M699.73,363.91l-0.39-0.53l1.15-1.04l1.08-4.56l0.85-1.29l1.38-2l0.96,0.83l1.78-0.32l-1.38,2.34l-1.89,1.32l-1.68,4.05
	L699.73,363.91z M709.05,348.66l-1.59,2.72l-0.07,1.55l0.92-0.52L709.05,348.66z M710.42,344.35l-0.7,0.83l0.01,2.3l0.75-0.75
	l0.29-2.05L710.42,344.35z M708.24,327.77l1.77,5.23l-0.08,1.21l0.66,2.55l-0.06,1.89l0.4,1.68l-0.27,2.73l0.5,0.69l0.57-3.63
	l-0.06-4l-0.64-1.86l-1.06-4.91L708.24,327.77z"/>
<path class="st74" d="M28.54,391.61l2.14-0.14l0.67,0.56l-0.82,1.08l-1.68,0.28l-2.15,1.26l-3.3,0.13l1.91-0.9l0.2-0.96l2.21-0.4
	L28.54,391.61z M35.84,389.67l1.19,0.36l0.8-0.05l0.51,1.01l0.23-0.53l0.81,0.12l1.06,1.23l0.03,0.43l-3.63,1.87l-2.15,0.05
	l-0.91-0.37l-0.94,0.67l-1.78,0.12l-1.06-1.14l4.16-0.7L35.84,389.67z M40.64,389.27l0.9,0.03l0.67,0.56l0.06,0.86l-1.15,0.16
	L40.25,390L40.64,389.27z M42.89,389.39l1.15-0.16l-0.03,0.86l-0.95,0.58L42.89,389.39z M43.29,391.27l3.03-0.28l0.24,0.93
	l-1.15,0.16l-0.3-0.42l-0.68,0.56l-0.4-0.49l-0.81-0.12L43.29,391.27z M191.95,388.32l1.88-0.03l-0.78,1.69l-0.99-0.02l-0.41-0.67
	l0.37-1.14 M190.88,385.7l0.45-1.15l-0.31-1.96l2.11-0.57l4.27,3.52l1.35,2.84l1.79,1.27l0.57,4.36l-1.25,0.08l-1.3-1.9l-2.9-1.89
	l-0.53,0.04l1.14,2.34l1.53,0.08l0.3,1.79l-0.79,0.14l-3.91-3.54l-0.15-0.76l1.64-0.97l-0.06-0.86l-0.49-0.66l-1.46-0.43l-1.6-1.02
	l1.26,0.01l0.43-0.37l-0.59-0.74l-0.5,0.46L190.88,385.7z M187.13,378.1l1.16,0.01l2.28,2.01l-0.14,0.7l-0.72-0.04l0.02,1.55
	l0.47,0.4l0.09,1.29l-0.7,0.3l-0.29,1.05l-0.74-0.3l-0.48-1.87l0.9-1.27l-2-1.77l0.02-1.04L187.13,378.1z M188.38,376.72l1.7,0.07
	l2.24-0.06l3.22,2.55l-0.15,0.45l-0.95,0.58l-1-0.11l-0.13-0.6l-1.16-1.31l-0.22,0.62l0.97,1.05l-0.11,1.05l-0.72-0.04l-1.15,0.24
	l-0.19-1.45l-2.49-2.25L188.38,376.72z M176.54,369.8l0.77-0.4l1.42-0.09l0.59-0.47l3.78,1.65l0.17,1.29l-0.42,0.45l-0.72,0.05
	l-1.29-0.52l1.05,1.05l1.61-0.11l0.56,1.69l-0.8,0.05l-2.05-1.16l-1-0.11l0.61,1.08l0.15,0.76l0.68-0.56l1.59,0.93l1.15-0.16
	l-0.14,0.7l1.95,3.58l0.2,2.92l0.48,1.78l-0.7,0.3l-1.19-1.65l-0.53-1.26l-1.52-1.29l-0.34-2.3l-0.64-1.42l-0.62,0.04l0.33,0.93
	l0.03,0.43l-1.19,0.94l-0.11-2.84l-1.52-1.29l-1.3-1.9l-1.14-0.96L176.54,369.8z M182.82,367.41l1.08,1.48l2.13-0.22l1.02,1.74
	l-0.5,0.55l1.97,2.63l0.08,1.11l-1.03,0.75l0.04,0.6l-1.67,1.74l-0.53-1.17l-0.16-1.11l0.49-0.64l-0.07-0.95l-1.45-1.55l-0.67-3.14
	l-0.89-1.24L182.82,367.41z M131.2,354.93l-3.32,3.74l0.1,1.37l1.83-0.8l0.6-1.67l1.82-2.19L131.2,354.93z M104.02,370.99l0.04,0.51
	l1.67,0.93l0.1-1.21l0.59,0.74l3.13-0.12l0.59-0.55l0.07-1.56l-0.48-0.57l-1.25,0.08l-0.05-0.69l0.32-0.54l-0.02-0.35l-1.35-0.17
	l-2.73,3.28L104.02,370.99z M97.16,376.78l1.68,4.9l1.87-0.12l1.99-2.28l0.34,1.02l5.38-3.79l0.56-0.9l-0.96-0.89l-0.04-0.6
	l0.37-1.14l-0.81-0.04l-1.72,0.98l-0.07-1.04l-2.44-0.36l-2.12,0.4l0.02,2.93l-0.83-1.67h-1.35l-0.85,0.57L97.16,376.78z
	 M95.69,383.94l0.05-0.61l1.79-1.24l0.55,0.22l1.17,0.1l1.23,0.96l-1.97-0.05l-0.4-0.49l-0.85,0.57L95.69,383.94z M91.24,387.08
	l-0.93,0.75l1.42,1.11l0.67-0.65l-0.16-1.11L91.24,387.08z M85.17,380.65l1.26,0.01l0.4,0.49l-1.6,0.18L85.17,380.65z M73.48,391.66
	l0.03,0.43l0.63,0.05l-0.13-0.51L73.48,391.66z M72.94,388.93l-0.83,0.92l0.03,0.43l0.69,0.91l0.83-0.92l-0.63-0.05L72.94,388.93z
	 M71.11,388.36l-0.21,0.88l-1.15,0.16l-0.35,0.19l0.08,1.11l-0.4,0.8l0.53-0.04l0.57-0.81l0.71-0.14l0.75-0.91l0.1-1.13
	L71.11,388.36z M67.06,386.89l-0.07,1.56l1.3,0.61l1.04-0.58l-0.06-0.86l1.5-0.36l-0.13-0.51l-0.81-0.12l-0.59,0.55l-0.83-0.38
	L67.06,386.89z M62.69,387.09l0.93,0.54l-0.19,1.05l-1.32-0.86L62.69,387.09z M59.02,388.45l1.26,0.01l-0.58,0.73L59.02,388.45z
	 M56.08,391.22l1.66,0.84l-1.51,0.18L56.08,391.22z M31.6,365.88l1.1,0.45l-0.68,0.56L31.6,365.88z M30.61,360.5l0.43,1.01
	l0.64-1.07L30.61,360.5z M51.12,342.54l1.34-0.17l0.82,0.29l0.95-0.49l1.15-0.16l1.47,0.6l0.82,1.59l-0.04,0.77l-0.95,1.79
	l-2.15-0.04l-1.97-1.42L51.65,345l-1.1-1.65L51.12,342.54z M31.47,331.38l0.2,1.63l1.9,1.61l0.03,0.43l-0.73-0.13l-1.56-0.59
	l-0.33-0.93l-0.36-1.35L31.47,331.38z M46.4,310.32l0.07,1.04l1.8,1.44l2.05-0.14l0.6,0.91l0.1,1.37l1.98,1.51l1.67,0.93l-0.05,0.61
	l-0.56,0.99l-1.32-0.95l-1.87,0.2l-0.76-0.64l-0.93-1.75l-1.47-1.8l-2.32,0.06l-0.93-0.54l0.76-1.86L46.4,310.32z M61.11,305.5
	l0.89-0.06l0.15,0.94l-0.89,0.06L61.11,305.5z M76.71,321.5l0.81,0.04l0.07,1.04l-1.55-0.33L76.71,321.5z M195.2,380.94l-1.05,0.42
	l-0.02,0.95l1.07-0.07L195.2,380.94z M54.47,386.06l-1.18-0.27l-3.62,0.75l-2.41,1.36l0.02,1.64l1.73,0.49l1.29-0.86l1.51-0.18
	l4.27,0.94l0.01-1.12l-1.49-0.85L54.47,386.06z M56.49,387.92l-0.44-1.18l1.08,0.11l0.17,1.2l1.61-0.11l0.21-2.17l0.41,2.04
	l2.23-0.23l2.66-3.02l0.72,0.04l-0.55,1.16l1.3,0.7l3.74-0.41l2.25-1.18l1.24-0.16l0.36,1.27l0.5-0.46l0.27-1.23l5.27-0.16l1.6-1.48
	l-1.22-0.87l0.46-1.06l2.33,0.02l-0.25-1.02l2.24,0.03l0.56-0.99l1,0.11l3.99-1.9l0.08-1.47l4.85-2.38l1.67-1.74l1.04-0.58
	l1.21,0.61l1.99-0.9l0.87-1.69l0.37-1.14l1.46-0.87l1.3-0.69l0.27-1.23l-1.08-1.39l-1.97-0.05l-0.25-1.1l0.62-1.42l1.24-0.25
	l1.07-1.36l1.68-0.19l2.84-2.94l0.27-1.23l1.2-2.06l3.14-3.74l2.18-0.92l1.64-0.88l1.92,0.57l1.4,2.16l-1.34,0.09l-1.34-1.21
	l-2.55,1.89l-1.51,0.18l0.01,2.67l-2.48,4.38l0.65,1.68l2.05-0.14l-0.47,0.89l-1.24,0.16l-2.03,1.68l0.05,0.77l1.75,0.75l2.99-0.71
	l1.15-1.54l1.26,0.01l2.57-1.64l0.31-2l1.42-0.17l5.66,0.33l0.82-1.01l0.63-3.92l-1.36,1.04l0.41-1.93l-1.51-1.11l0.63-1.34
	l0.17,1.29l3.03-0.19l0.56-0.9l1.42-0.17l-0.16,1.48l1.7-0.02l-1.62,1.23l3.72,0.71l-3.1,0.54l-1.08,1.1l0.88,1.15l4-1.72l2.15,1.33
	l0.57-0.81l0.62,1.17l3.7,1.75l2.58-0.16l3.44-0.65l3.9,0.7l1.9,1.52l4.04,0.09l1.52-1.39l0.85,2.01l-1.57,0.71l1.14,0.96l6.82,2.84
	l1.39,2.07l5.05,3.21l2.83-1.91l-0.67-1.86l-3.24-1.52l2.84,0.85l0.41-0.63l0.88,1.06l0.15,2.32l1.84-0.64l1.97,1.42l-2.81-8.27
	l1.14,1.05l1.61,5.07l2.11,2.02l2.12-0.48l1.81,2.9l0.8-0.05l0.86,4.77l3.06,0.23l1.56,1.8l1.66,0.84l0.52,2.38l-1.45,2.33
	l2.68,1.21l0.93-2.13l0.01,2.67l-0.66,0.82l1.35,1.38l0.48-2.1l-0.25-1.02l0.73,0.13l0.67,1.95l-0.81,1.26l0.69,2.2l0.46,0.32
	l0.17-1.39l0.66,0.47l-0.15,1.73l1.08,0.11l-0.3,0.79l1.51-0.18l-0.06-0.86l-0.89,0.06l-0.01-1.46l-0.75-0.47l1.5-0.36l0.4-0.72
	l-0.1-1.37l0.52,1.08l-0.43,1.58l1.3,3.28l1.61-0.02l1.71-3.74l-0.02-1.64l-1.39-3.36l-0.16-1.03l0.38-1.05l-0.67-0.56l-1.51,0.18
	l-2.34-1.58l-1.52,0.1l-1.87-1.08l-1.34,0.09l-0.54-1.35l-1.27-0.17l-0.27-1.28l-0.92-0.37l-0.01-1.46l-4.98-6.07l-1.69-1.19
	l-0.07-1.04l-4.04-2.76l-0.69-0.91l-1.55-1.63l-1.73-0.41l-0.13-1.89l-1.14-1.05l-1.56-0.5l-1.79,1.24l-1.31,1.9l-0.21,2.08
	l-1.34,0.17l-2.07,2.46l-0.74-0.21l-0.15-2.15l-2.26-1.75l-2.17-1.59l-0.56-1.69l-2.3-0.98l0.05-1.9l-2.5,0.08l-0.56,0.99
	l-1.07,0.07l-0.67-0.56l-1.03,0.75l-1.67-0.93L151,280.94l-6.4-3.13l-1.64-0.33l-1.9,1.07l-1.95,0.21l-2.15-1.24l-3.87-0.27
	l-5.38-2.76l-5.1-0.02l-1.75,0.54l-0.28-1.54l-1.65-0.5l0.92-0.92l-0.23-0.76l-2.91-0.76l-2.14,0.14l-0.33,0.37l-0.84-0.46
	l-0.07-2.24l-0.76-0.73l-2.06,2.63l-0.72-0.04l-0.05-0.69l1.47-0.78l-0.05-0.69l-1.84-1.95l-0.99-0.02l-3.83,2.92l-3.47,0.22
	l0.3-0.79l-1.61,0.02l-4.43,3.21l-1.61,0.11l-0.58-0.65l-2.32,1.44l-2.99,3.39l-2.33,2.48l-1.27,1.11l-2.31,0.23l-1.98-0.22
	l-2.13-0.99l0,0l-2.26,3.51l0.05,2.07l2.46,1.92l2.14,3.74l0.49,4.54l2.7,1.55l3.06,0.15l0.67,0.65l-1.2,2.06l0.78,2.28l-1.66-2.14
	l-0.15-2.06l-1.35-0.17l0.16,1.03l0.75,1.76l2.81,3.01l-1.25,0.08l-1.9,1.07l-5.67-1.79l-0.2-1.71l1.17-1.2l-0.09-1.2l-1.9-0.31
	l-2.04,0.3l-4.27,0.45l1.47,1.89l-1.8-1.44l-7.41,1.51l-0.63,1.34l4.64,3.75l-0.63,1.25l-0.15,1.73l-0.58,0.73l0.02,1.64l4.13,2.84
	l3.67-0.06l4.21,1.37l1.78-0.12l0.68-0.56l3.4-0.14l0.04-0.7l1.13,0.88l0.2,1.71l-2.24,0.06l0.28,2.83l0.64,2.72l-2.43,2.49
	l-1.7,0.02l-1.83-0.57l-0.88,0.15l-2.64,1.98l-1.5,0.27l-1.41-2.32l-2.77,0.17l-1.84,1.84l-0.34,1.58l-2.84,1.73l-4.47,4l-0.09,2.68
	l0.75,1.85l0.96,0.98l0.87-0.4l0.86,0.8l-0.68,0.56l-1.29,0.86l1.06,1.23l-2.25,1.09l0.84,1.85l1.65,1.88l0.96,3.47l3.66,1.06
	l2.27-0.83l1.45-1.05l0.57,1.77l0.52,3.76l-1.61,1.31l0.26,3.78l-0.48,0.8l-1.52,0.1l1.59,0.93l1.87-0.2l0.3-0.88l4.06-0.77
	l1.94,2.12l1.11-0.68l1.46,4.31l0.92,0.37l0.85-0.66l-0.05-2.07l0.75-0.91l0.69,0.91l0.27,1.36l1.45,0.25l4.12-1.3l0.25,1.02
	l-1.71,1.05l-1.33,1.55l-2.08,6.17l-3.72,1.96l-1.16,1.36l-0.18,1.22l-0.93-0.45l-8.09,3.37l-1.36,3.63l-1.18-0.27l0.38-0.98
	l-1.42-1.11l-3.14,0.03l-4.54,3.05l-1.89,1.24l-2.05,0.14l-0.3,2.09L56.49,387.92z"/>
<path class="st75" d="M766.17,120.31c-5.47,20.2-16.82,50.96-42.75,77.48c-42.62,43.59-88.31,38.6-153.64,80.15
	c-21.24,13.52-49.88,35.34-78.82,70.8"/>
<path class="st76" d="M389.93,324.7c58.49-22.41,107.96-38.01,144.32-48.54c45.97-13.32,59.6-15.26,73.55-14.87
	c21.85,0.6,78.01,7.84,140.49,85.65"/>
<path class="st77" d="M296.23,22.95c-4.69,7-10.9,17.84-14.7,32.06c-8.18,30.62,1.96,50.12,5.34,80.15
	c4.79,42.56-7.32,76.7-14.7,97.52c-7.05,19.91-21.27,51.64-50.76,84.17"/>
<path class="st78" d="M239.25,306.29c22.79,5.7,57.27,14.84,98.86,28.05c38.39,12.19,56.98,19.63,70.8,24.05
	c37.5,11.96,95.65,19.35,183.03-5.34"/>
<path d="M365.87,147.78c-0.04-0.83-0.18-1.71-0.22-2.53c-0.04-0.83,0.42-1.44,1.16-1.41c0.41,0.02,5.64,0.24,8.85-2.2
	c2.87-2.19,3.37-5.33,1.76-7.46c-1.9-2.5-5.27-2.43-10.7-1c-5.61,1.44-10.62,1.77-14.3-3.06c-2.47-3.25-3.37-9.61,3.25-14.65
	c4.16-3.17,8.94-3.38,9.57-3.41c0.49-0.04,1.27,0.28,1.33,1.23c0.05,0.75,0.12,1.62,0.16,2.37c0.08,0.79-0.27,1.46-1.14,1.53
	c-0.42,0.06-4.79,0.36-7.21,2.2c-3.5,2.66-3.03,5.79-1.85,7.33c1.81,2.37,4.75,2.44,9.28,1.22c6.32-1.72,12.19-2.57,16.06,2.51
	c3.3,4.33,2.12,10.82-3.29,14.94c-5.08,3.87-10.32,3.64-11.46,3.53C366.51,148.88,366,148.81,365.87,147.78z"/>
<path d="M388.03,127.03l-2.17,0.37c-0.57,0.1-1.06-0.3-1.15-0.82l-0.39-2.32c-0.1-0.57,0.25-1.05,0.81-1.15l2.17-0.37l-0.97-5.73
	c-0.09-0.52,0.3-1.06,0.81-1.15l2.93-0.55c0.52-0.09,1.01,0.31,1.1,0.82l0.98,5.78l5.26-0.89c0.57-0.1,1.05,0.25,1.15,0.81
	l0.39,2.32c0.09,0.52-0.25,1.05-0.81,1.15l-5.26,0.89l1.73,10.22c0.3,1.76,1.02,1.95,2,1.78c1.08-0.18,2.42-1.05,2.99-1.46
	c0.62-0.42,0.98-0.17,1.27,0.26l1.31,2.11c0.35,0.52,0.22,0.97-0.25,1.32c-0.46,0.4-3.3,2.15-5.77,2.57
	c-4.08,0.69-5.68-1.59-6.3-5.25L388.03,127.03z"/>
<path d="M410.58,133.39c1.98-0.96,4-1.23,4-1.23c-1.39-2.99-2.52-3.9-4.93-2.73c-2.17,1.05-4.01,2.64-4.87,3.4
	c-0.5,0.41-1.01,0.2-1.4-0.25l-1.22-1.56c-0.44-0.54-0.27-1.03,0.09-1.38c0.26-0.3,2.49-2.54,5.98-4.23
	c6.03-2.92,8.37,0.48,10.65,5.2l4.85,10.04c0.23,0.47,0.01,1.1-0.46,1.33l-1.32,0.64c-0.42,0.2-0.7,0.11-1.12-0.27l-1.09-1.04
	c-0.56,1.49-1.71,3.79-4.63,5.21c-3.53,1.71-7.24,0.54-9.13-3.37C404.31,139.68,405.77,135.72,410.58,133.39z M414.39,142.71
	c1.88-0.91,2.99-3.19,3.1-4.41l-1.46-3.02c-0.37-0.05-1.97,0.02-3.66,0.84c-2.26,1.09-3.25,3.02-2.31,4.96
	C410.87,142.78,412.64,143.56,414.39,142.71z"/>
<path d="M427.98,128.72l-1.96,1c-0.51,0.26-1.1,0.03-1.34-0.44l-1.07-2.1c-0.26-0.51-0.08-1.08,0.43-1.34l1.96-1l-2.64-5.18
	c-0.24-0.47-0.03-1.1,0.43-1.34l2.63-1.4c0.47-0.24,1.05-0.01,1.29,0.46l2.66,5.22l4.76-2.42c0.51-0.26,1.08-0.08,1.34,0.44
	l1.07,2.1c0.24,0.47,0.08,1.08-0.44,1.34l-4.76,2.42l4.7,9.23c0.81,1.59,1.56,1.56,2.44,1.11c0.98-0.5,2-1.72,2.42-2.29
	c0.46-0.59,0.89-0.45,1.29-0.13l1.88,1.62c0.49,0.39,0.5,0.86,0.15,1.33c-0.32,0.52-2.51,3.04-4.74,4.18
	c-3.68,1.88-5.9,0.18-7.58-3.13L427.98,128.72z"/>
<path d="M446.85,124.26c4.36-3.26,10.16-2.5,13.51,1.99c0.22,0.29,0.59,0.87,0.76,1.19c0.27,0.45,0.16,1-0.22,1.28l-11.4,8.53
	c1.82,2.17,5.45,2.92,8.17,0.88c1.51-1.13,2.39-2.83,2.82-4.01c0.28-0.67,0.45-1.06,1.1-0.89l2.37,0.72
	c0.54,0.12,0.92,0.36,0.73,1.15c-0.43,1.96-1.83,4.63-4.64,6.74c-5.07,3.79-11.4,2.32-15.01-2.5
	C441.51,134.59,441.82,128.02,446.85,124.26z M455.87,128.36c-1.63-1.92-4.59-2.38-6.65-0.85c-2.26,1.69-2.8,4.64-1.49,6.93
	L455.87,128.36z"/>
<path d="M335.61,154.78c0.33-0.41,0.95-0.51,1.4-0.14l9.25,7.54c4.99,4.07,5.78,11.46,1.78,16.37c-4.1,5.03-11.54,5.79-16.49,1.75
	l-5.88-4.8l-7.77,9.53c-0.33,0.41-0.99,0.47-1.4,0.14l-2.64-2.15c-0.45-0.36-0.47-0.99-0.14-1.4L335.61,154.78z M334.51,176.1
	c2.8,2.28,7,1.93,9.38-0.99c2.25-2.76,1.62-6.79-1.18-9.07l-5.6-4.56l-8.2,10.06L334.51,176.1z"/>
<path d="M355,188.68c1.77-1.3,3.71-1.94,3.71-1.94c-1.9-2.69-3.18-3.38-5.34-1.8c-1.94,1.42-3.47,3.32-4.17,4.22
	c-0.41,0.5-0.96,0.38-1.42,0l-1.48-1.32c-0.53-0.46-0.45-0.97-0.16-1.37c0.2-0.34,1.99-2.95,5.12-5.24
	c5.41-3.96,8.32-1.03,11.41,3.19l6.59,9c0.31,0.42,0.21,1.08-0.21,1.39l-1.18,0.87c-0.38,0.28-0.67,0.23-1.15-0.07l-1.26-0.83
	c-0.28,1.57-1,4.04-3.62,5.96c-3.17,2.32-7.02,1.83-9.59-1.67C349.97,195.99,350.69,191.83,355,188.68z M360.42,197.16
	c1.69-1.24,2.37-3.68,2.26-4.89l-1.98-2.7c-0.38,0.02-1.93,0.38-3.45,1.49c-2.03,1.48-2.65,3.56-1.38,5.29
	C356.98,197.86,358.86,198.3,360.42,197.16z"/>
<path d="M369.83,178.41c-0.09-0.52,0.3-1.06,0.81-1.15l1.5-0.26c0.36-0.06,0.83,0.18,1,0.57l0.87,1.66
	c0.27-0.58,1.75-3.38,5.52-4.03c1.96-0.34,4.42-0.23,4.09,1.26l-0.8,2.74c-0.16,0.61-0.66,0.8-1.16,0.68
	c-0.34-0.1-1.14-0.17-1.82-0.06c-2.99,0.52-4.06,2.93-4.21,3.33l2.26,13.1c0.15,0.88-0.4,1.08-1.22,1.22l-2.48,0.43
	c-0.52,0.09-1.06-0.3-1.15-0.81L369.83,178.41z"/>
<path d="M388.73,178.61l-2.06,0.78c-0.54,0.2-1.1-0.09-1.28-0.58l-0.83-2.2c-0.2-0.54,0.04-1.08,0.58-1.28l2.06-0.78l-2.05-5.44
	c-0.18-0.49,0.09-1.1,0.58-1.28l2.77-1.1c0.49-0.18,1.05,0.11,1.23,0.6l2.07,5.48l4.99-1.88c0.54-0.2,1.08,0.04,1.28,0.58l0.83,2.2
	c0.18,0.49-0.04,1.08-0.58,1.28l-4.99,1.88l3.66,9.7c0.63,1.67,1.38,1.72,2.31,1.37c1.03-0.39,2.18-1.49,2.65-2.01
	c0.53-0.53,0.93-0.35,1.29,0.02l1.69,1.82c0.45,0.45,0.4,0.91,0,1.34c-0.38,0.48-2.83,2.74-5.18,3.63
	c-3.87,1.46-5.88-0.47-7.19-3.94L388.73,178.61z"/>
<path d="M417.29,155.11c0.75-1.56,2.51-2.22,4.02-1.5c1.56,0.75,2.2,2.56,1.45,4.12c-0.72,1.51-2.54,2.15-4.1,1.41
	C417.16,158.42,416.56,156.63,417.29,155.11z M412.38,166.69c0.23-0.47,0.85-0.69,1.33-0.47l2.69,1.29
	c0.47,0.23,0.69,0.85,0.47,1.33l-8.18,17.09c-0.23,0.47-0.85,0.69-1.33,0.47l-2.69-1.29c-0.47-0.23-0.69-0.85-0.47-1.33
	L412.38,166.69z"/>
<path d="M423.99,196.78l-0.16-2.31c-0.05-0.47,0.36-0.91,0.97-0.92c0,0,2.67-0.08,4.84-1.44c1.33-0.84,1.83-1.9,1.22-2.87
	c-0.75-1.2-2.09-1.16-5.22-0.73c-3.5,0.53-6.86,0.3-8.7-2.62c-1.4-2.21-1.25-6.01,3-8.69c2.48-1.56,4.84-1.94,6.09-1.92
	c0.57,0.02,1.15,0.45,1.16,1.06l0.15,2.01c0.03,0.54-0.46,1.03-0.93,1.08c0,0-2.53,0.3-4.22,1.36c-1.51,0.95-1.57,1.92-1.16,2.58
	c0.73,1.15,2.14,0.94,4.34,0.61c4.13-0.62,7.65-0.92,9.74,2.4c1.73,2.75,0.65,6.83-3.29,9.31c-2.97,1.87-5.58,2.04-6.99,1.87
	C424.46,197.53,424.03,197.24,423.99,196.78z"/>
<path d="M445.18,181.98c2.09-0.68,4.13-0.68,4.13-0.68c-0.97-3.15-1.97-4.2-4.51-3.38c-2.29,0.74-4.33,2.07-5.28,2.71
	c-0.55,0.34-1.03,0.06-1.35-0.44l-1-1.71c-0.36-0.6-0.12-1.06,0.27-1.36c0.3-0.26,2.81-2.18,6.5-3.38c6.37-2.07,8.23,1.62,9.85,6.59
	l3.45,10.6c0.16,0.5-0.14,1.09-0.64,1.25l-1.39,0.45c-0.45,0.15-0.71,0.01-1.07-0.42l-0.93-1.18c-0.76,1.4-2.21,3.53-5.3,4.53
	c-3.73,1.21-7.25-0.45-8.59-4.58C438.12,187.36,440.1,183.63,445.18,181.98z M447.69,191.73c1.99-0.65,3.4-2.76,3.67-3.95
	l-1.04-3.19c-0.36-0.1-1.95-0.25-3.74,0.34c-2.39,0.78-3.63,2.55-2.96,4.6C444.2,191.32,445.85,192.33,447.69,191.73z"/>
<path d="M461.76,172.95c0.09-0.52,0.64-0.9,1.15-0.81l1.49,0.26c0.41,0.07,0.68,0.39,0.72,0.77l0.31,1.86
	c0.43-0.35,3.6-2.34,7.73-1.61c6.29,1.11,7.82,5.95,6.87,11.31l-1.83,10.36c-0.09,0.52-0.64,0.9-1.15,0.81l-2.94-0.52
	c-0.57-0.1-0.9-0.64-0.81-1.15l1.87-10.57c0.58-3.3-0.7-5.39-3.38-5.86c-3.25-0.57-5.88,1.41-6.27,2.08l-2.22,12.58
	c-0.12,0.67-0.48,0.92-1.36,0.77l-2.68-0.47c-0.52-0.09-0.9-0.64-0.81-1.15L461.76,172.95z"/>
<path d="M345.01,210.47l-8.24-2.19c-0.56-0.15-0.84-0.71-0.71-1.22l0.75-2.83c0.13-0.51,0.66-0.85,1.22-0.71l21.75,5.78
	c0.56,0.15,0.84,0.71,0.71,1.22l-0.75,2.83c-0.13,0.51-0.66,0.85-1.22,0.71l-8.24-2.19l-7.89,29.69c-0.13,0.51-0.71,0.84-1.22,0.71
	l-3.34-0.89c-0.51-0.13-0.84-0.71-0.71-1.22L345.01,210.47z"/>
<path d="M358.27,218.65c0.16-0.5,0.75-0.81,1.24-0.65l1.45,0.45c0.35,0.11,0.66,0.53,0.63,0.96l0.02,1.87
	c0.51-0.39,3.1-2.21,6.75-1.08c1.9,0.59,4.04,1.81,3.07,2.99l-1.96,2.07c-0.42,0.47-0.95,0.42-1.34,0.08
	c-0.25-0.24-0.94-0.68-1.59-0.88c-2.9-0.9-4.95,0.76-5.26,1.05l-3.96,12.69c-0.26,0.85-0.84,0.78-1.64,0.53l-2.4-0.75
	c-0.5-0.16-0.81-0.75-0.65-1.24L358.27,218.65z"/>
<path d="M379.33,221.25c5.26-1.38,10.35,1.5,11.77,6.92c0.09,0.36,0.22,1.03,0.26,1.39c0.08,0.52-0.23,0.98-0.68,1.1l-13.77,3.62
	c0.87,2.69,3.95,4.75,7.24,3.89c1.82-0.48,3.28-1.73,4.12-2.65c0.51-0.51,0.82-0.81,1.35-0.41l1.92,1.55
	c0.46,0.31,0.72,0.68,0.24,1.34c-1.14,1.65-3.44,3.61-6.83,4.5c-6.13,1.61-11.44-2.14-12.97-7.96
	C370.5,228.82,373.26,222.84,379.33,221.25z M386.15,228.44c-0.79-2.39-3.36-3.93-5.84-3.28c-2.73,0.72-4.34,3.25-3.98,5.86
	L386.15,228.44z"/>
<path d="M400.96,214.23c0.21-0.48,0.83-0.72,1.31-0.51l1.39,0.61c0.38,0.17,0.57,0.53,0.52,0.91l-0.13,1.88
	c0.5-0.24,4.05-1.43,7.89,0.24c5.85,2.55,6.22,7.62,4.04,12.61l-4.2,9.65c-0.21,0.48-0.83,0.72-1.31,0.51l-2.74-1.19
	c-0.53-0.23-0.72-0.83-0.51-1.31l4.28-9.84c1.34-3.07,0.58-5.4-1.91-6.49c-3.02-1.32-6.05-0.01-6.58,0.56l-5.1,11.71
	c-0.27,0.62-0.68,0.79-1.5,0.43l-2.5-1.09c-0.48-0.21-0.72-0.83-0.51-1.31L400.96,214.23z"/>
<path d="M440.86,212.09c2.07,1.69,2.9,3.65,3.16,4.07l9.7-11.88c0.33-0.41,0.99-0.47,1.4-0.14l2.35,1.92
	c0.41,0.33,0.47,0.99,0.14,1.4L435.7,234.3c-0.33,0.41-0.99,0.47-1.4,0.14l-1.22-0.99c-0.36-0.3-0.38-0.78-0.17-1.28l0.64-1.44
	c0,0-3.8,0.68-7-1.94c-4.3-3.51-4.43-10.04-0.62-14.7C429.8,209.34,436.36,208.42,440.86,212.09z M429.88,225.7
	c2.47,2.02,5.27,0.99,5.84,0.71l5.4-6.61c0,0-0.62-2.13-2.73-3.85c-2.72-2.22-6.44-1.55-8.69,1.21
	C427.48,219.88,427.29,223.58,429.88,225.7z"/>
<path d="M446.47,237.89l1.63-1.65c0.32-0.34,0.92-0.33,1.33,0.12c0,0,1.83,1.95,4.29,2.67c1.51,0.44,2.64,0.12,2.96-0.99
	c0.4-1.36-0.52-2.33-2.91-4.4c-2.72-2.27-4.77-4.94-3.8-8.26c0.74-2.51,3.68-4.92,8.5-3.51c2.81,0.82,4.66,2.35,5.47,3.29
	c0.36,0.43,0.42,1.16-0.02,1.57l-1.4,1.44c-0.38,0.38-1.08,0.34-1.42,0.02c0,0-1.9-1.7-3.81-2.26c-1.71-0.5-2.48,0.09-2.7,0.84
	c-0.38,1.31,0.71,2.23,2.42,3.65c3.2,2.68,5.75,5.12,4.65,8.89c-0.91,3.11-4.69,5.01-9.16,3.7c-3.36-0.99-5.22-2.84-6.03-4
	C446.22,238.74,446.15,238.23,446.47,237.89z"/>
</svg>
