<?xml version="1.0" encoding="utf-8"?>
<!-- Generator: Adobe Illustrator 24.1.0, SVG Export Plug-In . SVG Version: 6.00 Build 0)  -->
<svg version="1.1" id="Layer_1" xmlns="http://www.w3.org/2000/svg" xmlns:xlink="http://www.w3.org/1999/xlink" x="0px" y="0px"
	 viewBox="0 0 840 600" style="enable-background:new 0 0 840 600;" xml:space="preserve">
<style type="text/css">
	.st0{fill:#C5D0FF;stroke:#FFFFFF;stroke-width:2.9451;}
	.st1{fill:none;stroke:#D62800;stroke-width:6.5947;}
	.st2{fill:none;stroke:#D77CFF;stroke-width:6.5947;}
	.st3{fill:none;stroke:#FF9D9F;stroke-width:6.5947;}
	.st4{fill:none;stroke:#FF5130;stroke-width:6.5947;}
	.st5{fill:none;stroke:#FF7151;stroke-width:6.5947;}
	.st6{fill:none;stroke:#FF9F8D;stroke-width:6.5947;}
	.st7{fill:none;stroke:#7A92FF;stroke-width:6.5947;}
	.st8{fill:none;stroke:#36AEFF;stroke-width:6.5947;}
	.st9{fill:none;stroke:#747FFF;stroke-width:6.5947;}
	.st10{fill:none;stroke:#648DFF;stroke-width:6.5947;}
	.st11{fill:none;stroke:#FF7483;stroke-width:6.5947;}
	.st12{fill:none;stroke:#0F008D;stroke-width:6.5947;}
	.st13{fill:#4FC9FF;stroke:#FFFFFF;stroke-width:2.7031;}
	.st14{fill:#930B00;stroke:#FFFFFF;stroke-width:0.901;}
	.st15{fill:#FF5647;stroke:#FFFFFF;stroke-width:2.7031;}
	.st16{fill:#195CFF;stroke:#FFFFFF;stroke-width:3.0471;}
	.st17{fill:#394EFF;stroke:#FFFFFF;stroke-width:2.7031;}
	.st18{fill:#F79B82;stroke:#FFFFFF;stroke-width:2.7031;}
	.st19{fill:#FF7AA1;stroke:#FFFFFF;stroke-width:2.7031;}
	.st20{fill:#FF6060;stroke:#FFFFFF;stroke-width:2.7031;}
	.st21{fill:#68B2E2;stroke:#FFFFFF;stroke-width:2.7031;}
	.st22{fill:#E796FF;stroke:#FFFFFF;stroke-width:3.5569;}
	.st23{fill:#FF7F6B;stroke:#FFFFFF;stroke-width:3.6986;}
	.st24{fill:#4F4FFF;stroke:#FFFFFF;stroke-width:3.7232;}
	.st25{fill:#FF9699;stroke:#FFFFFF;stroke-width:2.7031;}
	.st26{fill:#7AA8FF;stroke:#FFFFFF;stroke-width:2.7031;}
	.st27{fill:#F15C55;stroke:#FFFFFF;stroke-width:3.9229;}
	.st28{fill:#EF3B24;stroke:#FFFFFF;stroke-width:2.7031;}
	.st29{fill:#FFAA96;stroke:#FFFFFF;stroke-width:4.4419;}
	.st30{fill:#FAC1B4;stroke:#FFFFFF;stroke-width:2.7031;}
	.st31{fill:#FFD3CC;stroke:#FFFFFF;stroke-width:2.7031;}
	.st32{fill:#FF281C;stroke:#FFFFFF;stroke-width:4.6936;}
	.st33{fill:#7AA4FF;stroke:#FFFFFF;stroke-width:2.7031;}
	.st34{fill:#EE2724;stroke:#FFFFFF;stroke-width:2.7031;}
	.st35{fill:#EF4466;stroke:#FFFFFF;stroke-width:3.1964;}
	.st36{fill:#F27D9F;stroke:#FFFFFF;stroke-width:3.8827;}
	.st37{fill:#76A5FF;stroke:#FFFFFF;stroke-width:2.7031;}
	.st38{fill:#0D07FF;stroke:#FFFFFF;stroke-width:0.901;}
	.st39{fill:#448EFF;stroke:#FFFFFF;stroke-width:2.7031;}
	.st40{fill:#6FC7FF;stroke:#FFFFFF;stroke-width:3.4969;}
	.st41{fill:#0069DB;stroke:#FFFFFF;stroke-width:2.7031;}
	.st42{fill:#84F3FF;stroke:#FFFFFF;stroke-width:7.6497;}
	.st43{fill:#FF8B7A;stroke:#FFFFFF;stroke-width:2.7031;}
	.st44{fill:#55CAF5;stroke:#FFFFFF;stroke-width:2.7031;}
	.st45{fill:#FF4715;stroke:#FFFFFF;stroke-width:2.7031;}
	.st46{fill:#638DC9;stroke:#FFFFFF;stroke-width:2.7031;}
	.st47{fill:#FF8176;stroke:#FFFFFF;stroke-width:2.7031;}
	.st48{fill:#B7C8FF;stroke:#FFFFFF;stroke-width:5.3249;}
	.st49{fill:#FFA8B4;stroke:#FFFFFF;stroke-width:4.3653;}
	.st50{fill:#526EFF;stroke:#FFFFFF;stroke-width:2.7031;}
	.st51{fill:#7DBFE9;stroke:#FFFFFF;stroke-width:4.0928;}
	.st52{fill:#C5EDFF;stroke:#FFFFFF;stroke-width:2.7031;}
	.st53{fill:#329FFF;stroke:#FFFFFF;stroke-width:2.7031;}
	.st54{fill:#D0D0D0;stroke:#FFFFFF;stroke-width:2.7031;}
	.st55{fill:#FF3E39;stroke:#FFFFFF;stroke-width:2.7031;}
	.st56{fill:#47DFFF;stroke:#FFFFFF;stroke-width:2.7031;}
	.st57{fill:#001C84;stroke:#FFFFFF;stroke-width:0.901;}
	.st58{fill:#F1614B;stroke:#FFFFFF;stroke-width:2.7031;}
	.st59{fill:#FF8B81;stroke:#FFFFFF;stroke-width:3.8417;}
	.st60{fill:#C45DFF;stroke:#FFFFFF;stroke-width:4.8246;}
	.st61{fill:#FF7AAB;stroke:#FFFFFF;stroke-width:4.1246;}
	.st62{fill:#DA2E27;stroke:#FFFFFF;stroke-width:3.602;}
	.st63{fill:none;stroke:#CBDEFF;stroke-width:6.5947;}
	.st64{fill:none;stroke:#B5CDFF;stroke-width:6.5947;}
	.st65{fill:none;stroke:#FF101D;stroke-width:6.5947;}
	.st66{fill:none;stroke:#FFB1AA;stroke-width:6.5947;}
</style>
<path class="st0" d="M536.26,238.44l-5.01,1.58l-4.3-1.66l-0.69,44.8l-1.41,4.51l-0.18,1.77l1.94,3.31l-0.06,0.62l-0.36,0.77
	l0.68,1.76l-0.5,2.1l-1.67,1.45l-1.61,3.6l-4.06,4.35l-0.73,6.19l-0.94-0.09l0.68,1.76l0.96,0.81l0.66-0.83l-0.51-1.57l4.38-0.03
	l0.08,1.08l1.02,0.28l0.46-0.76l-0.45-1.2l0.36-0.68l1.15,0.82l1.64-0.2l1.55,0.68l3.01,2.16l1.95-2.32l3.5-1.63l2.53,3.19l1.7-1.72
	l0.53-2.36l3.79-1.7l0.07,1.17l1.68,1.23l2.85,0.09l1.19-0.51l0.4-3l2.69-3.05l4.73-3.48l0.06-1.51l1.48-3.26l1.98,1.08l6.72-3.38
	l-0.22-1.54l-1.22-1.99l1.11-1.59l-1.04-51.22l0.03-1.25L538,237.17L536.26,238.44z"/>
<path class="st1" d="M398.8,178.32c-6.11,27.89-11.8,52.11-16.57,71.79c-11.61,47.88-15.2,58-20.71,69.03
	c-13.49,27-30.64,43.67-44.18,56.6c-30.56,29.19-63.91,47.04-92.5,57.98"/>
<path class="st2" d="M480.15,160.34c1.19,15.11,5.37,37.32,20.71,56.6c17.43,21.91,38.74,26.82,98.02,45.56
	c91.28,28.86,80.48,29.79,106.3,34.51c28.15,5.15,71.37,9.6,125.63,1.38"/>
<path class="st3" d="M579.55,342.58c3.39,20.53,4.81,51.02-11.04,78.69c-12.89,22.49-30.47,31.37-66.27,55.22
	c-21.85,14.56-52.51,36.04-88.36,64.89"/>
<path class="st4" d="M26.87,243.23c13.26,26.84,27.84,46.49,38.66,59.36c21.85,26.02,39.86,47.48,69.03,55.22
	c19.64,5.22,24.82-0.97,52.46,2.76c27.49,3.71,48.79,13.4,62.13,20.71"/>
<path class="st5" d="M169.62,205.93c20.42,34.53,42.98,53.06,59.36,63.51c27.97,17.84,40.12,13.52,84.22,38.66
	c35.58,20.28,52.53,37.25,56.6,41.42c17.85,18.26,29.07,36.57,35.9,49.7"/>
<path class="st6" d="M593.35,152.06c1.67,18.71,1.36,46.14-11.04,74.55c-10.66,24.41-21.2,28.8-44.18,60.75
	c-29.81,41.44-26.3,53.81-51.08,89.74c-12.63,18.3-33.17,43.54-66.27,69.03"/>
<path class="st7" d="M699.66,215.56c-4.42,51.62-20.5,89.03-31.75,110.45c-13.37,25.44-24.54,46.68-48.32,63.51
	c-37.1,26.25-64.62,13.24-84.22,33.13c-14.8,15.03-23.38,47.1,2.76,121.49"/>
<path class="st8" d="M785.26,185.19c29.79,78.44,15.56,129.68,6.9,151.86c-13.64,34.94-39.09,63.41-55.22,81.45
	c-34.43,38.51-61.08,51.98-81.45,93.88c-8.94,18.37-13.09,34.86-15.19,45.56"/>
<path class="st9" d="M240.86,172.82c8.24,76.54-0.85,133.11-11.04,171.19c-8.56,31.99-20.61,61.06-6.9,91.12
	c6.89,15.11,22.08,30.32,52.46,60.75c13.53,13.55,25.11,24.4,33.13,31.75"/>
<path class="st10" d="M433.31,252.87c-17.23,80.59-51.42,126.75-73.17,150.48c-13.42,14.64-28.27,27.48-42.8,40.04
	c-40.49,35-76.82,59.88-102.16,75.93"/>
<path class="st11" d="M146.29,201.46c8.79,39.7,4.96,69.08,0,88.36c-7.75,30.1-18.53,36.64-28.99,80.07
	c-8.16,33.87-7.23,53.26,0,70.41c4.56,10.81,10.72,18.61,15.19,23.47"/>
<path class="st12" d="M9.86,439.24c69.16,17.18,122.75,14.15,158.77,8.28c69.06-11.26,101.84-37.57,175.33-41.42
	c46.92-2.46,85.63,5.54,110.45,12.43"/>
<path class="st13" d="M599.87,494.82l-3.18-4.84l-1.19-0.33l-1.5,0.38l-3.05-0.57l-1.03-2.09l31.18-26.9l-1.52-1.06l-1.74-0.23
	l-1.01-0.65l-2.57-4.3l-4.35-2.46l-0.89-1.9l-1.55-2.5l-0.29-3.48l-0.66-0.6l-1.64,0.19l-1.52-2.04l-2.14-0.34l-4.89-2.47
	l-30.57-22.88l-29.57,24.7l1.84,0.64l30.83,43.25l18.75,18.99l0.38-0.75l0.94-0.57l0.6-0.04l0.5-0.45l-0.42-3.39l-1.09-1.46
	l0.24-1.23l1.2-0.36l5.37,2.42l0.43,0.57l-1.23,3l2.22-1.95l2.62-3.39L599.87,494.82z"/>
<path class="st14" d="M228.53,449.36l2.58-1.24l0.9-1.65l-0.58-1.29l-1.37-0.36l-0.66-1.3l1.67-4.9l1.27-0.03l2.23-2.04l2.07-4.91
	l2.28-2.33l3.91-0.66l1.16-0.79l-0.08-1.43l-1.48-2.1l-0.24-4.37l-0.87-1.48l-0.6-2.64l0.94-1.42l1.44-2.02l0.73-2.05l0.2-3.63
	l2.39-9.8l2.77-0.01l2.69,1.47l0.6,2.11l1.54,0.24l2.2-1.82l4.71-12.35l34.68,11.57l30.16,9.22l-28.21,88.39l-28.14-8.45
	l-45.08-35.12l0.73-2.05l1.76-1.07L228.53,449.36z"/>
<path class="st15" d="M812.72,166.87l0.48-1.47l0.82,0.26l0.41-0.68l-0.57-0.41l0.12-0.99l-0.78-0.52l0.34-0.68l-0.15-0.97
	l-0.73-0.01l0.49-0.56l0.9,0.45l0.12-0.92l-0.32-0.69l0.03-0.46l1.35,0.28l-0.34-0.95l0.99-0.92l-0.38-0.56l-0.72,0.12l-0.44-0.55
	l0.55-0.63l1.05-0.21l0.29-0.54l0.92-0.2l-0.11-0.51l-0.64-0.54l-0.03-0.32l0.99-0.08l0.23-0.47l-0.98-0.57l-0.1-0.38l-7.37,1.1
	l1.58-3.45l1.04-1.06l-0.12-1.42l-1.19-1.53l-26.22,3.37l-25.83,2.5l4.01,15.57l1.62,25.27l1.84,1.35l1.78-0.99l2.16,0.35l0.77,7.69
	l34.53-3.57l0.71-1.03l0.17-1.97l-1.11-1.41l-0.45-1.4l0.56-0.5l-0.04-0.52l-1.18-0.62l-0.1-0.45l1.01-0.67l-0.85-0.65l0.75-4.68
	l2.16-1.21l-0.04-0.52l-0.8-0.85l1.63-3.65l1.26-0.1l0.93-0.85l-0.48-3.35l1.81-3.07l1.16-0.48l-0.5-1.98L812.72,166.87z"/>
<path class="st16" d="M90.53,354.09l3.03,4.53l-1.26,0.04l-1.61-1.67L90.53,354.09z M92.29,345.82l1.6,3.54l2.33,0.93l0.63-0.49
	l-1.16-2.17l-2.33-2.12L92.29,345.82z M74.5,329.04l-0.01,2.04l1.79,1.08l3.96-0.03l0.9-0.82l-2.79-0.27L74.5,329.04z M69.19,328.94
	l2.96,0.53l1.25,1.91l-3.42-0.12L69.19,328.94z M112.02,369.13l-0.88-2.58l0.2-2.54l-0.32-6.73l-1.59-4.14l-1.07-1.23l-0.53-1.29
	l-6.25-7.53l-3.24-0.03l-1.79-1.68l1-1.5l-0.61-3.17l-1.97-1.09l-3.5-0.63l-2.51-1.19l-1.34-1.66l-4.01-5.75l-2.42-1.96l-3.32-0.54
	l-2.78-2.05l-4.22-1.42l-2.52-0.34l-2.23-2.2l0.19-2.37l0.75-4.06l1.65-4.28l-1.25-1.4l-3.55-8.12l-2.41-3.23l-0.34-2.56l-1.43-2.01
	l0.19-2.12l-1.77-4.31l-2.59-2.39l0.58-6.02l2.16-0.6l1.64-2.58l-0.34-2.73l-0.89-0.8l-2.25-0.08l-2.23-2.88l-1.33-3.02l0.04-6.38
	l1.1-3.53l0.19-1.78l2.25,0.25l-0.1,1.36l-0.72,0.57l-0.01,2.13l3.31,2.84l0.03-4l-1.24-2.93l0.46-0.92l-0.89-1.48l2.53-1.19
	l-1.69-2.61l-1.26,0.38l-1.37,3.18l0.44,1.12l-0.72,0.83l-0.81-0.11l-4.82-5.36l0.66-4.74l-0.97-3.35l-5.78-11.09l0.78-9.07
	l2.09-2.99l0.21-5.43l-4.89-9.61l0.3-4.41l6.24-6.16l1.54-1.99l-0.08-1.19l3.65-7.7l0.14-7.14l0.82-2.1l59.34,17.89l-15.09,53.13
	l0.97,3.01l62.74,91.48l-0.82,1.76l1.15,2.93l1.25,1.57l1.05,4.97l2.05,2.2l0.35,1.63l-1.18,1.06l-4.33,1.29l-2.18,2.99l-1.48,5.9
	l-2.18,2.65l-1.44,0.2l-1.03,5.83l0.98,1.39l1.62,0.23l0.89,1.39l-0.73,2.02l-2.71,1.78l-1.98-0.15L112.02,369.13z"/>
<path class="st17" d="M544.58,310.79l-3.82-2.15l-4.95-0.4l-5.99,2.08l-29.48,66.41l26.44,14.15l8.13-18.74l-3.12-0.9l-2.5-10.78
	l1.8-4.21l-2.06-5.05l5.76-7.63l-0.68-7.93l-0.94-3.46l-0.65-4.22l4.51-6.99l4.13-3.62l5.75-2.62L544.58,310.79z"/>
<path class="st18" d="M676.35,369.36l0.01,0.87l-2.59,3.87l-0.76,0.14l0.95,0.29l0.02,1.24l-0.56,0.69l-0.32,3.71l-1.39,3.85
	l0.34,1.23l0.49,3.15l-2.27,0.22l-2.53-0.39l-1.08-0.54l-1.37,0.89l0.02,1.55l0.9,1.28l-0.27,2.66l-1.32,0.39l-0.64-0.67l-0.41-1.97
	l-31.59,2.52l-2.14-3.68l-0.46-1.35l-0.96-0.91l-0.33-0.86l0.32-3.9l-1.57-3.5l0.29-1.61l0.15-2.29l1.35-2.37l-0.14-0.68l-1.08-0.6
	l-0.03-1.98l-1.15-1.16l-1.89-3.74l-8.59-28.19l14.42-2.01l13.48-2.06l-0.04,1.18l-1.19,0.64l-0.85,1.99l0.14,0.8l3.89,2.29
	l1.64-0.21l2,2.44l0.27,1.05l2.7,3.11l1.66,1.03l0.89,0.11l1.4,0.97l0.72,1.35l1.28,0.97l1.14,0.29l1.73,1.64l0.08,0.86l1.67,1.71
	l3.18,1.37l2.34,4.11l0.22,1.67l2.48,1.26l1.62,2.94l0.54,1.91l2.65,0.21L676.35,369.36z"/>
<path class="st19" d="M279.29,526.05l0.14,1.98l1.23,1.02l0.16,0.73l-2.64,3.18l0.04,0.75l1.46,1.8l1.42,2.43l0.22,1.6l-0.21,0.78
	l0.35,2.08l2.75,0.94l0.78,0.58l0.66-0.78l1.02-2.39l2.59-2.17l2.03-0.59l1.49-0.83l0.97-0.88l1.72-2.42l-1.85-0.44l-1-0.74
	l-0.08-1.05l-0.36-0.33l-1.26,0.17l-0.08-1.55l-0.54-0.68l-1.83-1.19l-2.99-0.78l-1.78,0.12l-2.3-1.38l-0.8-0.27L279.29,526.05z
	 M268.25,516.92l-0.57,1.02l0.08,1.05l1.9,1.24l1.24,0.14l0.46,0.56l0.5,1.81l2.28-0.19l3.11-2.05l-0.27-1.53l-0.92-0.19l-2.42-1.3
	l-1.16-0.03l-1.71,1.05l-1.17-1.53L268.25,516.92z M268.27,524.11l0.45-0.94l1.55-0.4l0.53,1.05L268.27,524.11z M263.14,519.37
	l1.4,2.31l1.9-0.63l0.02-1.25l-1.01-0.8L263.14,519.37z M260.01,515.6l-0.49,1.57l3.14-0.43l3.15,0.57l1.44-1.2l0-0.94l-3,0.53
	L260.01,515.6z M249.06,510.46l-1.02,1.45l-1.77,0.62l0.69,1.28l1.62,1.53l0.15,0.61l1.3-0.36l1.45-0.14l1.17,0.59l2.13-0.79
	l-0.06-0.43l-0.7-0.41l-0.49-1.25l-0.53-0.12l-0.23,0.66l-0.86-0.7l0.01-0.88l-1.41-1.87l-0.75-0.34L249.06,510.46z M228.04,505.57
	l-2.4,2.14l0.32,1.4l1.61,0.53l1.3,0.64l1.73,0.01l1.45-1.57l-0.28-1.15l0.36-1.11l-0.12-0.86l-0.7-0.47L228.04,505.57z
	 M221.65,509.44l-0.09,0.76l-1.12,0.72l-0.23,1.16l0.7,0.41l0.57-1.02l1.14-0.53l0.03-1.63L221.65,509.44z"/>
<path class="st20" d="M511.28,194.99l2.92,3.04l1.31,0.91l3.49-0.03l0.46,0.32l0.44,0.61l1.7,0.25l1.43,1.29l0.39,1.9l2.11,2.79
	l1.6,4.98l4.55,3.25l-0.5,0.68l1.7,0.25l0.59,0.41l0.68,2.72l0.77,0.43l2.19-0.01l0.54,0.48l-1.44,2.78l0.49,0.95l-0.99,0.54
	l-0.17,0.9l1.97,1.77l2.03-0.33l1.38,1.36l-0.55,1.15l-5.4,3.3l0.44,4.39l1.33,0.62l-1.39,1.89l-1.68,0.27l-3.39-0.51l-1.25-0.86
	l0-0.81l-0.8-0.66l-2.09,0.29l-2.09-0.53l-4.04-0.04l-3.24,2.66l-8.34,1.78l-1.78-0.82l-3.6-5.35l-1.45-0.59l-0.13-1.31l-0.85-0.59
	l-2.38,1.21l-1.95,1.71l-0.9,2.85l-2.16-0.17l-0.95-1.27l-1.93-0.62l-9.79,2l-2.08,0.81l-5.12-0.99l-4.15-1.64l-1.74-2.63
	l-0.11-0.79l-1.46-1.11l-0.94,0.06l-0.49-1.36l0.5-1.49l0.25-0.75l-0.29-1.22l-1.58-1.09l-0.73-2.24l-0.08-0.57l-2.25-1.66
	l-1.37-0.03l-0.69,0.54l-1.6,0.02l-2.13-2.5l0.96-2.39l1.19-1.62l0.9-3.66l-0.6-2.15l-1.53-1.16l-0.31-1.34l-1.46-2.33l-1.76-1.11
	l-3.69,0.3l-0.6,0.81l-1.17,0.11l-0.95-0.86l-1.96,0.38l-2.1,1.1l-0.15-0.61l20.96-32.33l3.07,2.02l4.71-0.21l3.29,1.05l2.9,0.37
	L511.28,194.99z"/>
<path class="st21" d="M333.63,179.31l-26.6,11.2l-22.19,8.65l15.14,39.59l41.49-16.75l37.31-16.8l-13.24-27.35l-2.11,0.47
	l-2.83-1.98l-2.18-0.75l-0.32-1.45l0.92-2.22l-0.26-0.71l-1.47-0.79l-0.27,0.82l-1.36,0.2l-2.55-0.93L333.63,179.31z"/>
<path class="st22" d="M479.46,348.31l-19.5,1.26l-4.95,0.72l-16.55,0.9l-2.47,0.73l-21.5,1.8l-0.67-0.55l-3.52,0l1.15,2.91
	l-0.57,0.82l-22.16,1.35l0.95-2.45l1.33,0.82l0.67-0.36l1.13-3.73l-0.95-0.91l0.95-1.82l0.19-0.82l-1.24-0.73l-0.29-1.64l3.8-3.36
	l6.57,2.73l1.43-0.27l0.38-2.18l-1.62-1.64l0.37-3l0.95-0.45l1.14,0.55l0.57-1.09l3.52-0.54l0.09-0.82l-1.43-2l-0.1-1l2.09-2.45
	l0-0.82l1.05,0.73l0.57-0.91l-0.67-1.55l4.38-0.45l0.19,1.09l1.05,0.18l0.38-0.82l-0.57-1.18l0.28-0.73l1.24,0.73l1.62-0.36
	l1.62,0.55l3.24,1.91l1.71-2.54l3.33-2l2.86,3l1.52-1.91l0.28-2.45l3.61-2.09l0.19,1.18l1.81,1.09l2.85-0.18l1.14-0.64l0.09-3.09
	l2.37-3.36l4.37-4l-0.1-1.55l1.13-3.45l2.09,0.91l6.37-4.09l-0.38-1.55l-1.43-1.91l0.95-1.73l1.24,0.46l2.09,0.09l1.81-0.73
	l2.76,1.09l2.1,3.09l0,0.91l3.9,0.64l2.19-0.18l1.81,1.91l2.09,0.18l0-0.91l1.81-0.73l2.86,0.73l1.14,0.73l1.24-0.64l0.86,0
	l0.57-1.55l3.23-1.63l0.48,0.73l0.77,2.64l3.33,1.28l1.15,1.91l-0.09,1l0.57,0.91l-0.56,3.27l1.81,1.46l0.76,1l0.95,0.55l-0.09,0.82
	l4.2,5.1l1.33,0l1.43,1.64l1.14,0.27l1.33-0.09l-4.65,6l-2.76,0.91l-2.85,2.73l-0.38,2l-2,1.18l-0.09,1.55l-1.33,1.27l-1.71,0.45
	l-0.47,1.73l-0.95,0.36l-6.56,3.81L479.46,348.31z M386.25,358.51l-0.67-0.64l0.19-0.91l1.05,0l0.67,0.64l-0.28,0.91L386.25,358.51z
	"/>
<path class="st23" d="M414.22,303.34l-1.83-1.69l0.06-1.51l-7.23-6.33l0.03-5.29l0.87-1.79l-0.2-1.57l-42.29,10.96l-0.66-13.54
	l1.77-5.88l5.24-10.72l-2.7-2.32l2.37-0.49l-0.74-3.64l-3.41-2.17l0.21-2l-1.65-0.81l-3.49-7.44l0.4-1.69l-61.8,14.15l5.07,21.83
	l1.59,3.58l3.72,2.46l2.04,5.79l5.54,4.15l1.92,4.55l1.19-0.24l1.52,8.08l-2.48,7.86l2.06,2.22l-1.21,1.97l1.51,3.14l0.85,4.77
	l-1.83,4.4l0.06,0.91l-1.75,1.74l1.59,1.74l1.67,0.92l1.61-1.82l6.09-2.28l7.22-1.59l12.25,1.86l9.72-0.84l1.47-1.91l2.09-0.66
	l6.19,1.26l1.81-0.83l0.97-1.92l-5.39-0.96l-2.39,1.64l-1.35,0.05l-2.11-1.87l3.42-3.23l1.88-0.5l0.38,1.87l1.76-0.48l3.97-1.16
	l0.99,2.44l1.4,0.17l1.14,1.95l5.92-0.06l2.38,1.35l0.16,0.77l-1.42,0.29l-1.4,2.24l2.29,0.91l6.64-0.21l3.83,2.43l5-2.17
	l-4.35,1.12l-0.25-0.64l3.17-1.45l-0.17-2.03l1.36-0.62l-0.31-1.54l1.33-0.16l0.36,1.76l2.99-0.5l0.52-2.29l1.14,0.11l0.8,2.71
	l1.47-0.07l-1.69,2.64l2.88-1.62l2.13-1.7l2.7-4.34l-0.83,0.17l-1.27,1.64l-0.5-0.01l-0.77-0.76l0.8-1.54l-0.52-2.54l1.13-1.15
	l0.99,0.6l1.01-1.13l1.16-0.35l1,1.29l-0.29,2.24l2.85-0.58l6.44,0.63l0.89,1.31l2.21,1.15l3.35-0.57l1.7,0.46l1.91-1.54l0.69-2.09
	l-0.38-1.87l-1.66,0.34l-1.74-1.25l-1.55-0.95l-4-0.21l-3.04,0.85l-5.53-1.63l-0.52-2.54l1.32-1.42l2.98,0.08l-4.04-1.01l0.06-0.93
	l4.27-0.88l2.3-4.49l-3.49-1.35l0.61-1.85l-1.6-0.59l-0.95,0.19l-1.9,2.8l0.47,2.32l-0.55,0.92l-1.33,0.16l-2.21-1.15l-1.54,0.32
	l-0.34-1.65l0.55-0.92l1.11,0.58l1.66-2.18l0.47-1.93l0.88-0.53L414.22,303.34z M401.38,302.86l2.48,0.64l1.2,1.02l2.99-0.5
	l1.96,0.52l0.55,1.5l-0.34,0.76l-1.41-1.44l-1.39,1.66l-0.75,1.76l-3.14,1.56l-1.88,0.5l-4.62-0.2l-0.26-1.9l1.92-2.69l0.77-2.91
	L401.38,302.86z M396.07,305.33l0.25,1.21l-1.69,2.64l-1.42,0.29l-0.49-2.43l1.56-2.04L396.07,305.33z"/>
<path class="st24" d="M695.99,125.88l-2.99,3.19l0.63,4.14l-1.3,2.17l0.48,2.95l1.28,1.03l3.3-1.12l1.9-2.63l1.94,0.8l2.76-1.43
	l0.67-1.39l4.04,1.63l0.36-3.46l2.71-0.81l2.91-0.24l-2.38,2.57l2.88,0.07l0.18,1.74l1.56,0.52l1.46-1.13l3.45,1.94l2.7-1.67l2,2.06
	l5.14-0.1l0.6-0.47l-0.23-1.12l2.75-2.28l1.38-0.21l-1.22,1.24l1.16,0.54l2.59-2.31l-0.92-0.59l-1.1,0.71l0.32-1.98l1.86-0.14
	l0.35,0.59l1.15,0.7l-2.03,2.3l1.72,1.55l1.52,3.01l0.86-0.67l0.22-1.76l0.87,1.21l2.04-1.44l-0.25,1.06l-1.41,1.53l0.25,2.84
	l1-0.49l0.83,0.66l0.47-0.8l1.1,0.3l1.3-1.15l-1-1.54l-2.06-1.29l2.39,0.16l1.2,0.08l1.12,1.01l-0.82,1.22l-0.13,2.56l2.09-1.05
	l2.71,1.22l0.46-1.65l1.53-1.04l0.38,1.3l0.51,0.61l2.44,0.56l2.26-1.18l1.35,2.13l0.67-0.38l1.52-0.89l-0.83,1.37l1.95,0.65
	l5.19-0.71l1.81-1.55l0.69-2.56l0.55-4.76l-1.39-1.67l-2.47,0.76l0.45-4.54l0.9-0.27l1.28-1l2.68-4.4l-0.41-0.83l-0.85-0.35
	l-3.51-4.21l2.86-2.66l16.34-24.41l-2.17-8.86l-2.04-2.61l-10.56-1.48l-1.12-3.03l2.61-3.47l-1.98-2.37l-21.75,6.93l-4.8,4.74
	l-3.3,0.11l-4.23,2.71l-2.22,3.6l0.41,0.83l-1.37,1.06l-5.03,1.59l-2.3-0.38l-2.84,0.32l-6.97,4.84l-0.9-2.77l-1.44-1.05
	L695.99,125.88z M742.47,139.78l-1.42-0.34l-1.11,0.87l1.2,0.08l-0.03,1.32l0.72,0.02l0.63,1.1l-0.05-1.41l0.98-0.18L742.47,139.78z
	 M739,140.02l-1.67-0.14l0.02,0.7l-0.93,0.58l0.8,0.96l1.54-1.2L739,140.02z M738.17,136.32l-0.46,1.65l0.3,1.21l1.08-0.4l1.54-1.2
	l-0.35-1.61l-1.32,0.45L738.17,136.32z M733.16,138.78l0.21-2.62l3.23-0.19l0.33,0.9l-0.8,0.91l0.05,1.41l-0.94,0.73l-1.59-0.21
	L733.16,138.78z"/>
<path class="st25" d="M805.51,317.58l-1.54-2.07l-1.05,0.75l1.63,2.2L805.51,317.58z M817.4,301.7l-0.43-3.81l-2.14-3.14l-1.33-0.17
	l-0.1,1.76l1.65,2.75l0.23,2.46l0.61,1.62l-4.56,6.29l-0.19,1.64l-1.52,1.47l0.29,1.47l-1.15,1.96l-2.66-2.77l-0.11-1.23l-1.5,0.14
	l-1.1-2.02l-1.18,2.73l-1.82-2.44l1.3-1.5l-2.85,1.3l-1.64-0.32l-0.66-1.96l-1.59,0.02l0.54,2.61l1.38,0.5l-0.37,1.39l-0.98,1.65
	l-3.52,0.67l-1.35-1.28l-2.31-0.4l-3.37-0.75l1.23-2.39l-1.85,0.21l-0.82-1.1l-0.12-1.79l1.95-1.97l-2.38,0.59l-0.77-0.76l-1.79,1.1
	l0.48,1.72l-0.51,0.93l-2.96-4.24l0.4-2.16l1.68,0.1l-1.32-2.05l-2.12-0.16l-0.18,2.19l-0.04,2.65l-1.69-0.65l-1.92-3.12l0.27-2.07
	l1.99,0.25l0.93-1.98l-2.07-1.7l-0.4,2.16l-3.08-1.71l-1.81-1.89l-0.74-3.96l0.17-2.74l1.65-1.56l-1.38-0.5l0.11-1.2l-1.03-0.57
	l-1.65-2.75l-1.6,1.9l-0.05,2.1l2.49,0.64l-0.13,6.84l-1.54,0.36l-0.1,1.76l1.21,3.25l-1.9,2.31l2.24-0.49l2.88,0.36l0.37,1.04
	l2.27,0.62l-0.53,2.26l0.93-0.11l0.53,2.06l1.91,2.56l0.53,2.06l2.18,0.49l4,3.49l2.97,0.48l3.36,0.2l3.07,3.04l3.91,0.93l1.79,1.33
	l0.91,1.22l-0.92,0.66l-3.05-0.05l-0.34,0.62l-1.75,0.89l-3.49-0.11l-2.1,0.95l-0.85,1.55l-1.84,0.77l-0.34,0.62l-2.95,0.63
	l-2.22-0.28l-2.49-0.64l-0.97,0.32l-0.41,1.61l-0.91,3.09l-2.16,0.06l-2.61-2.43l-0.86-3.32l-0.85-0.33l0.03-0.77l-1.82-0.56
	l1.22-1.06l0.49-2.04l-1.11-2.57l-0.14-4.77l-5.03,0.25l0.24,3.02l-1.33-0.17l-1.31,0.94l-0.88,0.44l-0.89-0.11l-0.32-0.7
	l-2.77,0.87l-0.77,1.12l-1.66,1.01l-1.55-0.19l-0.84,0.23l-0.9-0.67l0.06-1.54l-0.82-1.1l-1.75,0.89l-2.12-0.16l-1.09,0.97
	l-2.36,1.14l-1.54,0.36l-1.19-2.14l-1.76,0.33l-0.9-0.67l-0.92,0.66l-2.14-0.71l-0.65-1.41l-3.04,2.94l-4.33,0.12l-1.56,1.69
	l0.09,2.56l-1.7,1.23l0.41,5.14l-3.95,3.6l-3.39,0.57l0.05,7.09l-3.15,1.71l-0.51,7.68l0.28,2.8l-0.9,3.65L695,345.89l68.37-71.41
	l34.55,25.89l12.16-13.08l4.81,6.47l2.68,3.88l0.33,3.14L817.4,301.7z M798.24,312.13l-0.88,2.32l2.68,1.44l2.95-0.63l-1.98-1.57
	L798.24,312.13z"/>
<path class="st26" d="M672.81,285.58l3.26-3.81l0.21-1.55l-1.32-1.29l-3.78,0.49l1.47,0.46l0.19,3.04l-2.21,2.57l0.97,0.62
	L672.81,285.58z M666.13,297.29l-1.8,0.8l0.09-1.85l-1.71-2.58l0.06-2.25l0.55-1.08l1.55,0.15l1.27-1.05l-0.08-1.22l2.55,1.17
	l-0.92,1.73l-1.93,3.77L666.13,297.29z M607.19,315.07l13.53-24.05l-0.67-2.48l-1.56-1.88l1.17-2.67l-0.72-1.56l0.44-2.9l1.57-1.18
	l5.22,1.1l1.39-0.76l-0.36-2.41l2.18,0.29l1.2,1l-0.27,5.54l1.06,0.5l0.22,1.92l1.25,0.28l-0.92,1.73l2.17,0.08l-0.01,1.53
	l1.66,0.24l0.65-1.19l-0.58-1.06l1.71-0.69l1.73-2.01l5.23-0.43l3.02,2.14l1.84-1.92l1.96,0.1l2.75,1.15l1.72-0.48l1.82-2.13
	l1.71-2.22l-0.21-1.71l0.23-2.88l0.73-1.5l-3.44-0.57l0.69,1.15l-5.35-1.59l-0.77,0.9l0.59,1.27l-2.24,0.43l0.05-2.46l2.16-1.65
	l4.49-0.66l4.18,1l4.74,1.66l2.09,3.67l-1.96-1.64l-1.76-0.13l-0.86,6.01l-1.19,0.73l-0.45,2.7l1.21,1.2l-0.81,3.55l0.36,4.15
	l0.15,3.97l-1.15,1.34l-0.42-6.69l-1.59-2.29l-1.13,0.01l-1.7-0.85l-0.97,0.92l1.32,1.29l0.35,2.21l-1.15,1.34l0.91,1.34l1.69,0.64
	l0.04,2.34l-1.27,1.05l0.7,1.36l-4.61-1.16l-2.44,0.45l-3.91,1.73l-2.97-1.33l-0.77,0.9l-3.5-1.58l-4.06,9.09l-0.42-0.16
	l-10.6,19.77l0.76,0.64l-0.54,1.28l-1.24-0.08l-7.47,13.93l-1.76-0.13l-15.83-14.2L607.19,315.07z"/>
<path class="st27" d="M624.59,131.17l0.4,1.31l20.53-7.86l0.24-1.24l2.63-6.43l-0.91-4.08l0.35-2.16l2.02-1.23l0.34-7.83l0.89-0.69
	l1.12,0.36l-0.07,0.61l-0.92,0.99l0.49,0.79l0.88,0.21l1.59-1.73l-1.67-9.38l-2.08-1.84l-1.98-3.26l-0.53-2.37l-3.22-3.69
	l-0.38-1.71l-1.89-2.88l-2.92-2.36l-3.09-0.33l-4.14,3.86l-1.51,4.9l-0.01,0.9l-2.24,3.96l-1.53,0.13l-3.47-2.04l-0.82-3.21
	l1.09-2.12l1.95-0.61l0.83-1.87l-0.65-3.84l0.63-0.93l1.07-0.33l0.54-1.8l-2.23-9.07l-0.57-1.17l-1.45-0.88l-1.9-0.59l-0.48-1.69
	l0.57-0.72l1.96,0.38l-0.66-1.55l-2.46-2.16l-1.03-1.37l-1.33-0.81l-2.19,0.47l-8.67-1.04l-1.75-1.32l-3.15,0.37l-1.13,0.54
	l-4.86-1.25l-1.39,0.3l0.71,0.84l-2.71,0.48l0.23,0.55l0.72,0.44l-2.04,2.52l0.48,1.69l1.98,1.86l1.53-0.13l0.13,0.57l-1.39,0.79
	l-2.11,0.35l-2.26,2.97l0.63,2.35l1.62,5.42l-1.47,3.69l-0.16-4.44l-0.92-0.4l0.23,5.22l-1.48-1.97l0.01-2.29l-0.71-0.84l0.32-1.36
	l-0.83-0.92l0.78-1.16l-0.25-1.14l-1.17,0.84l-0.64,3.22l-0.55,0.81l-0.79,2.55l-1.73,0.17l0.15,1.16l-1.59,0.34l0.52,1.38
	l0.62,1.86l-2.73,1.77l0.37,1.21l1.35,1.4l1,4.96l-0.36,4.45l-1.16,2.73l1.49,1.07l1.54,3.15l-0.47,2.58l0.25,2.04l2.41,2.87
	l3.52,4.12l1.59,1.55l3.05,6.21l1.76,8.37l-0.07,3.89l-1.31,3.46l-0.11,3.7l-1.35,3.27l-0.98,1.2L624.59,131.17z M508.9,59.61
	l3.79,2.97l17.7,0l1.6,0.65l4.15-0.09l0.8,0.33l2.74-0.78l5.04-0.28l1.71,1.13l-0.78,1.16l0.96,0.59l3.93-0.14l1.45,0.88l1.03,4.15
	l-0.7,2.93l2.01-0.33l0.83-0.97l1.06,0.57l-0.44,3.17l1.33,1.31l1.26,0.03l0.41-1.88l1.91-4.98l0.32-6.03l1.86-2.39l-0.84-1.41
	l0.31-0.96l1.33,1.31l0.17,2.15l2.42-2.7l-0.29-2.23l2.21,0.12l0.46-1.69l0.82,0.42l-0.38,1.57l-0.89,0.69l-0.57,2.11l1.77,1.41
	l0.99-0.71l-0.65-0.56l0.68-1.64l1.53-2.02l0.8-0.17l-0.35-2.51l1.61-2.13l7.75-2.15l1.23-3.34l3.71-1.09l4.03,0.33l4.75,1.67
	l0.65-0.34l-0.94-3.28l0.65-0.34l4.71,0.09l1.45-0.51l2.73-1.28l1.77,0.02l1.81-0.29l-0.23-1.04l-0.89-0.71l-1.53,0.13l-1.26-0.53
	l0.2-1.43l-0.86-0.12l-2.56,0.65l-0.31-0.93l0.92-0.99l0.77,0.63l0.12-1.81l-0.84-0.52l0.65-0.34l-1.67-0.94l0.02-1.3l-0.3-1.82
	l-1.29,0.28l-1.28,1.27l-1.87,0.5l-0.12,1.81l-1.85,0.59l-0.55-1.08l-2.17,0.56l-0.74,1.35l-0.72,0.05l-0.37-0.72l-2.5,0.93
	l-1.11-4.53l0.57-2.11l-0.72,0.05l-1.56,1.43l-2.19,0.47l-3.21,3.37l-6.1,1.6l-3.91,1.63l-1.57,1.83l-1.12,1.53l-2.13,2.14
	l-0.13,0.82l-0.96-1.49l-1.42-0.29l0.13,0.57l0.84,0.52l0.27,1.23l-1.62-0.25l-0.6,0.13l-0.04,1.2l-2.39-1.38l-1.33,0.09l-0.98,1.7
	l-3.2,0.58l-0.79-1.22l-2.39-1.38l-1.63-1.24l-0.15-0.66l-1.39-1.1l-2.84-0.59l-3.3,0.6l-1.28-0.62l-1.39,0.3l-0.61,0.53l-1.72,2.55
	l-0.46,1.19l-1.14-0.45l-0.01-0.99l0.35-2.16l2.12-5.42l0.75-0.36l1.29-2.16l0.36-1.67l2.86-1.21l0.67-0.74l-0.31-0.93l-0.6-0.37
	l-4.43,1.14l-1.88,0.9l-2.33,1.69l-0.94,1.39l-1.22,2.45l-1.58,1.33l-2.56,3.93l-0.06,1.6l-6.38,5.93l-3.87,1.32l-1.7,0.76
	l-1.65,3.33l-1.64,1.05l-3.89,3.12L508.9,59.61z M609.8,41.88l3.8-0.71l0.49-0.6l-0.62-1.86l-2.07-1.35l-1.87,0.5l0.01,0.5
	l1.18,0.15l-1.42,1.1l-0.09,1.01l-0.72-0.44l-0.23,0.84L609.8,41.88z M526.29,18.03l-2.24,0.68l-2.28,2.38l-5.94,6.53l1.01,0.78
	l1.85-0.1l2.36-2.49l-1.2-0.24l1.95-2.01l0.99-0.21l2.58-2.44l-0.29-0.83L526.29,18.03z M580.42,68.92l0.21,0.95l2.43,1.07
	l-0.71-2.24L580.42,68.92z M580.32,71.72l1.11-0.14l0.19,0.85l-0.99,0.21L580.32,71.72z M597.09,46.97l0.19,0.85l0.75-0.36
	l-0.11-0.47L597.09,46.97z M602.42,48.92l-0.33-1.02l-1.63,0.15l-0.68-0.25l-0.89,0.19l-0.33,0.37l0.98,0.19l1.33,0.81L602.42,48.92
	z M584.78,53.87l0.13,1.07l-0.15,0.73l0.66,2.05l0.46,0.2l0.72-0.05l0.31-0.96l-0.24-1.54l-0.43-0.51l-0.33-1.02L584.78,53.87z"/>
<path class="st28" d="M433.62,32.79l-1.6,1.81l0.28,1.26l-1.56,3.74l-0.68,0.69l-0.18,7.54l0.4,2.22l-3.05,10.68l0.11,2.29
	l-1.82,4.24l0.42,6.32l-1.25,4.43l-0.62,1.55l-0.65,1.62l-1.24,1.26l-2.98,0.6l-0.55,0.82l0.72,2.33l-0.14,1.46l1.93,1.15l0.71,1.83
	l-10.34,29.56l22.63,7.54l29.37,9.03l15.11,4.45l0.28-3.67l0.61-2.3l-0.99-2.84l-2.07-1.27l-3.25-4.09l0.37-2.63l-4.26-4.01
	l0.17-1.03l-2.65-0.88l-1.1-2.54l-1.27-1.51l1.88-3.64l-0.31-1.44l1.79-3.91l1.27-1.08l0.46-2.1l-0.63-1.3l-1.37-0.71l0.44-1.27
	l3.74-3.6l5.74-1.35l3.03-9.85l0.62,0.54l0.61-0.21l0.36-0.8l0.88-0.21l0.81,1.27l0.59,0.11l0,0l-0.4-1.97l4.25-1.17l3.44-1.95
	l1.49-0.17l5.29-3.17l6.55-2.66l3.67-0.53l5.75-0.34l7.26-1.34l-0.38-0.46l-3.15-0.46l-2.27-0.67l-0.39-1.47l-0.89-1.05l-8.17-1.72
	l-0.08-2.37l-1.26-0.5l-1.57,0.15l-3.77,1.33l-3.29-1.1l-1.43-1.31l0.2-1.35l-2.92-1.64l-0.07-1.36l-0.23-1.16l-1.03,0.41
	l-2.11-0.62l-6.53-6.77l-2.33-0.78l-0.46-0.74l-2.82,0.15l-0.98,0.76l-2.85-0.28l-0.99-0.5l0.44-1.27l-0.33-0.86l-4.74-1.58
	l0.04-1.16l-2.09-0.7l-0.99,0.01l-1.49-1.92l0.6-0.97l0.14-1.96l-0.28-1.01l0.61-2.3l0-2.59l-1.27-1.76l-2.33-0.78l-1.98,6.02
	l-24.7-8.56L433.62,32.79z"/>
<path class="st29" d="M451.54,441.91l-4.08-3.14l-0.96-2.7l-7.96-3.15l-0.27-1.12l-0.53-0.17l-1.11,1.17l-0.55-0.31l-3.83,0.41
	l-0.5-0.53l-0.03-0.93l0.2-2.16l1.08-0.81l0.54-8.34l3.69-2.97l1.71-0.44l0.98-1.02l-30.19-21.61l9.05-8.09l5.03-2.16l10.24-2.62
	l0.17-3.09l1.61,1.29l2.13-2.55l-0.31-3.47l1.5-0.99l-0.32-1.54l3.3-6.51l1.39-0.69l1.93-0.39l2.34-1.99l0.28-2.74l1.02-2.02
	l1.17,0.04l0.52-0.62l-0.65-1.94l0.37-0.6l1.87,0.33l-0.25-1.62l5.95-4.39l3.76,0.95l0.52-0.62l0.02-1.79l5.82-2.3l1.53,1.22
	l1.98,0.04l3.12-4.21l5.4-1.48l1.83,0.69l1.6-2.71l32.42,22.63l-0.25,2.38l-44.33,50.88l-17.92,28.46L451.54,441.91z"/>
<path class="st30" d="M454.19,229.43l-0.86-0.49l-0.63-0.87l-1.27-0.51l-8.79,2.78l-16.77,5.1l-16.17,4.11l1.02,0.57l0.04,0.89
	l1.91,1.89l3.45,3.17l2.29,1.34l1.34,0.04l0.4-0.75l1.28,1.02l0.13,0.74l-1.26,2l0.06,1.47l1.96,1.1l2.38,2.41l2.11-0.09l8.1,28.91
	l1.87,6.48l24.27-6.71l24.49-7.61l1.4,1.25l0.36,1.33l-0.82,1.18l-0.92,3.52l6.85-2.28l0.3-1.37l0.67-0.49l-0.11-0.42l-0.93-0.47
	l-0.54-0.51l1.09-0.15l0.39-0.55l-1.12-0.68l0.79-0.53l-0.1-0.62l-0.54-0.51l-0.21-0.78l-0.55-0.31l-0.04-0.63l0.69-0.18l0.55,0.31
	l-0.03,0.65l0.61,0.29l0.34-0.73l0.19-1.79l1.02,0.32l0.37-0.35l0.08-2.66l-0.79-0.44l0.3-1.37l-0.02-0.57l-0.94-0.27l-1.75,0.45
	l-1.12-0.68l-1.74-2l-0.31-1.15l0.4-0.49l-0.15-0.8l-1.37-0.87l-0.97-1.36l-2.35-2.04l-3.2-0.01l-5.76-3.09l-0.64-1.38l0.51-5.03
	l-0.56-1.08l0.57-0.86l-0.21-0.78l-1.99-0.45l-1.98,0.06l-1.93,1.27l-1.18-1.18l0.07-1.24l-0.83-1.33l-6.72-3.68l-1.61-0.55
	l-2.51-3.15l-1.62-3.06l0.27-2.46L454.19,229.43z"/>
<path class="st31" d="M400.85,117.93l32.54,4.99l2.63,2.9l1.44,0.33l1.62,1.81l1.56,0.1l1.73-1.43l1.24,0.63l0.92-0.46l0.56,0.47
	l0.81-0.23l0.57,0.39l0.81-0.23l0.81,0.5l1.26-0.34l1.67,0.68l0.42,0.94l5.05,2.36l0.91,1.16l0.54,2.17l1.48,0.74l1.31-0.01
	l0.35,0.77l-0.21,1.85l0.36,1.42l-0.13,1.12l0.78,3.1l1.5,3.66l-0.17,2.99l1.95,4.28l-0.21,4.93l1.05,0.69l-0.44,2.31l0.39,2.73
	l-0.8,1.7l1.15,3.71l1,1.17l-0.39,1.09l1.47,3.17l2.78,5.43l-27.87-3.16l-37.48-5.23L375,167.98l3.23-17.59l-28.25-5.16l7.23-35.1
	L400.85,117.93z"/>
<path class="st32" d="M704.35,21.27l-1.47,0.86l-1.82-0.62l-1.42,2.64l2.97,6.97l2.75,1.82l0.75,4.47l4.1,1.85l0.52,2.09l0.87,1.37
	l-0.07,2.94l-1.41,1.25l0.05,1.77L708.29,51l0.05,2.05l3.63,2.91l0.87,3.03l1.46,1.35l-0.07,2.66l1.58,1.85l-0.42,2.84l1.52,2.29
	l-0.18,1.61l3.44,4.52l1.7,1.24l0.93,3.14l2.11,1.45l1.22,2.86l0.17,1.71l0.7,1.59l3.98,1.63l19.41-14.85l0.3-2.22l-0.64-2.04
	l1.88-1.76l-0.05-1.5l1.36-2.19l1.7-0.43l-1.86-5.72l-3.52-0.2l-2.22-1.95l-4.92-0.33l-3.04-4.03l-35.42-33.41L704.35,21.27z"/>
<path class="st33" d="M574.64,329.27L547.7,342l0.74,5.71l3.02,2.81l2.85,11.17l4.46,0.42l1.63,3.59l-0.1,2.66l5.42,4.15l4.97-2.36
	l5.07,2.42l4.39-1.3l10.09-1.27l-1.24,7.83l0.76,5.18l1.4,6.38l-1.46,2.91l0.26,4.12l1.47,4.26l2.33,3.2l2.3,0.15l3.57,2.54
	l2.47-0.78l5.34-1.17l3.58-1.31l3.3-1.04l1.58,1.34l1.26-0.92l-0.02-3.05l1.65-0.52l3.21-2.51l3.51,4.14l3.55,3.07l1.61-3.31
	l-3-7.19l-4.03-8.52l0.41-7.57l-3.74-5.46l-2.41-0.81l-1.41-6.12l-1.57-1.6l-2.42-0.54l-1.85-5.19l-5.13-4.41l-11.58-10.16
	l-3.52-0.28l1.83,1.87l1.49,0.14l-1.55,1.45l-1.37,0.26l-2.09,1.45l-0.48,1.99l-3.78-0.55l-1.24-3.19l-1.31-1.34l1.47-3.18
	l-1.62-3.86L574.64,329.27z"/>
<path class="st34" d="M833.67,517.54l-0.6-0.21l-31.05,68.29l-23.2-10l-24.89-11.37l-0.98,2.05l0.94,2.07l-22.07-10.8l-3.63,6.86
	l-11.22-5.58l44.45-83.41l37.81,18.09l37.57,16.66L833.67,517.54z"/>
<path class="st35" d="M683.43,279.71l-0.63-1.41l-1.27-0.18L683.43,279.71z M646.69,254.18l-0.36,1l0.85,1.33l0.12,1.33l1.76,0.51
	l0.77,2.11l1.94,2.33l4.32,4.88l0.33-0.74l-1.63-1.81l-1.78-1.89l0.94-0.08l2.23,2.48l1.4,0.52l0.38,1.37l4.13,3.7l-0.75,0.26
	l-4.92-3.55l4.83,3.96l3.05,1.07l0.71,1.63l5.15,3.84l4.62,2.4l3.68,2.48l1.69,0.66l-0.58-1.93l-1.69-0.66l-0.83,0.04l-1.12-0.74
	l0.86-1.3l-1.76-1.52l-1.01,0.23l-0.15-1.08l1.17,0.22l0.26-1.6l-1.21-0.33l0.04,1.11l-0.46,0.41l-0.66-0.15l-3.36-0.58L668.9,274
	l2.29,0.33l1.01,0.78l1.94-0.3l2.28,0.96l1.22,0.7l1.36,1.41l-0.27-1.41l-1.25-0.44l-0.28-0.78l-1.3-0.92l-1.15,0.15l-3.14-1.66
	l-1.13-0.11l-1.53-1.22l-5.16-7.85l-0.88,0.56l-1.12-0.74l-1.13-2.11l0.24-1.34l-1.26,0.19l-0.02-1.37l-1.03,0.48l-0.38-1.37
	l-1.02-1.15l-1.26,0.19l-0.4-1.11l-0.99,0.6l-0.28-0.78l-0.99,0.6l-1.16-1.85l-3.07-0.81L646.69,254.18z M646.8,253.14l-1.08-1.63
	l-1.07,0.37l-2-0.18l-0.51,0.93l3.44,1.81l0.92-0.45L646.8,253.14z M744.8,206.32l-2.28,0.04l-0.4,1.89l-1.77,0.12l-3.23,1.75
	l-1.58,3.31l-2.52,0.38l-1.9,1.41l-1.23-0.07l-4.2,1.09l-5.93,5.95l-2.25-0.22l-1.99,1.82l2.08,0.4l-0.84,2.67l-14.01,8.64
	l-2.35,0.19l-0.63,1.6l-16.29,5.05l-0.79,1.15l-16.35,9.21l-0.88,2.56l-5.06-2.62l-1.67,2.71l-4.07-0.21l-2.43-1.03l-3.07-0.81
	l0.67-0.48l6.49-1.76l-0.66-18.06l0.53-2.19l-1.09-2l1.14-4.16l5.01-5.5l-0.81-2.22l1.45-1.01l0.49-2.3l-43.46-73.17l6.11-3.13
	l5.92,3.32l2.07,0.03l4.26,3.4l2.82-0.23l3.08,1.81l1.5,0.48l2.85-3.12l-0.15-2.08l2.49-3.12l3.35-1.42l7.26,6.99l5.04,8.52
	l1.78,4.89l-0.42,4.16l0.47,0.96l2.44,1.4l2.13,3.52l1.21,3.33l2.45,2.4l3.8,1.81l4.3,1.51l1.2,1.96l0.98,1.04l3.59-0.75l2.33-2.57
	l0.26-1.6l2.2,1.74l1.89-0.78l-0.61-1.67l0.57-3.08l3.28-1.27l9.05,4.61l2.86-0.12l8.25,1.76l9.25,4.17l2.67,1.7l0.91,2.82
	l13.92,20.96L744.8,206.32z"/>
<path class="st36" d="M803.58,420.11l-32.07-1.24l-43.19-2.64l-31.77-3.93l-1.24,5.23l-1.55-0.48l-1.76,0.85l-3.77,4.62l-2.47-1.76
	l-4.28,1.63l-1.24,1.93l-1.86,0.83l-0.65-1.01l0.25-1.53l-0.79-0.4l-5,2.3l-1.44,3.27l-5.52,1.22l-0.81,1.08l-3.99,1.8l-3.91-0.41
	l-5.56,1.85l-1.82,3.92l-1.58,0.58l-1.55-0.48l-1.78,0.95l-1.28,4.9l23.23,2.41l5.08-0.8l1.39,0.23l8.71-2.47l24.93,3.67l0.3,0.6
	l-0.54,1.36l0.66,0.48l1.62-1.2l2.76,3.85l-0.52,2.64l21.39,2.18l21.69,23.39l4.73-1.2l3.32,0.06l1.79,0.43l0.89,1.38l1.32-1.81
	l1.83-4.87l2.72-3.49l7.14-4.76l5.15-2.48l6.23-0.94l2.73,0.23l1.27,0.73l0.47,1.28l5.05-5.8l4.74-4.49l-0.66-0.48l-6.25,5.72
	l-0.33-0.93l2.63-1.7l-0.06-1.61l-1.98-1.01l0.74,1.56l-1.29-0.2l-0.83-2.11l-1.74,1.71l-1.73-0.2l1.7-2.46l1.14-1.53l0.48-2.97
	l-2.29-0.66l1.16-0.68l1.09,0.58l2.82,0.78l0.96-0.3l2.42,0.58l2.56-1.4l0.97-3.17l1.7-1.08l1.31,0.1l1.61-0.68l0.36-3.85
	l-1.41-4.38l-2.79-0.89l-1.33,1.38l-0.29-1.13l-2.89-0.48l-1.36,0.1l-2.29,0.72l-0.22-0.48l-0.95-0.23l-2.18,0.75l-2.85-0.16
	l0.31-1.31l1.08-0.8l0.88,0.96l1.05,0.25l2.29-1.68l4.3-0.77l2.63-1.7l2.52,0.61l0.53,1.51l1.6,1.23l-0.17-1.63l0.07-1.68
	l-2.21-3.83l0.02-1.48l-0.66,0.9l-0.64-1.53L803.58,420.11z M803.54,453.04l3.44-1.83l5.63-2.15l0.88-3.72l0.32-3.22l-0.79-4.65
	l1.24,1.79l0.29,3.47l-1.39,7.74l-1.88-0.03l-3.83,1.63l-4.13,2.41L803.54,453.04z M810.15,434.12l-0.9-0.43l-0.24,1.01l2.1,2.84
	l0.12-1.46L810.15,434.12z M812.7,436.97l-0.8-3.17l-1.5-3.97l-1.81-3.62l-1.29-4.88l-0.67-0.91l1.29,4.88l0.01,1.38l2.26,6.39
	l1.39,2.57L812.7,436.97z"/>
<path class="st37" d="M696.89,408.29l-0.05,2.45l1.08,0.78l1.31,3.91l-0.08,0.99l4.98,5.91l1.83,1.44l4.83,10.23l1.64,1.69
	l1.44,4.46l4.63,4.58l2.01,4.23l0.56,1.6l-24.3,9.38l-38.33,13.52l-33,10.69l-16.03-51.54l37.5-12.06l45.8-16.94L696.89,408.29z"/>
<path class="st38" d="M523.29,90.51l0.93-1.27l2.5-0.94l1.58-0.83l0.9,0.11l0.6-0.55l-0.19-1.38l1.21-0.28l0.9-0.83l0.47,0.61
	l-1.6,1.99l-0.62,1.72l1.57-0.61l0.17-1.72l1.23-1.55l2.12-0.39l0.85-0.89l0.61-2.32l1.06-3.15l2.97-3.04l-0.17-5.98l0.65-3.82
	l2.9-7.97l18.78,13.85L562,73.15l1.96,0.39l1.1,1.27l1.42,0.78l1.14,2.49l2.8,3.05l1.3,2.55l0.88,0.33l0.92,1.44l-0.4,0.89
	l0.54,2.93l-0.03,2.1l-0.36,0.33l-0.18,1.94l-1.42,0.05l0.05,1.83l0.45,0.83l-0.78,0.72l0.38,1.94l1.17,1.11l-0.34,0.83l1.43-0.17
	l1.01,1.05l-0.5,0.66l0,0.83l-0.34,0.83l-1.47-0.83l-1.23,0.61l0.62,1.83l0.98,1.38l0.03,1.33l2.69,1.27l-0.48,1.27l1.61,2.16
	l-0.9,0.83l-1.19,2.55l-1.83-0.5l-2.85,1.16l-2.02-1.16l-0.72-0.17l-1.09,2.88l0.54,1.27l-0.54,0.5l-0.41,1.11l-1.15,0.22
	l-2.23,1.22l-0.72,1.49l0.53,0.55l-1.43,1.11l-2.26-0.11l-1.28,1.38l-2.84,1.88l-0.53-0.55l-3.13-0.67l-2.38,0.94l-0.72,1.49
	l-1.38,1.16l-1.05,0.44l-34.26-28.03l11.04-13.78L523.29,90.51z"/>
<path class="st39" d="M203.69,419.69l-4.74-0.95l-1.94,0.18l0.19,1.29l-3.67,2.07l-0.97-0.82l-2.82,3.56l-1.43,0.1l-2.63,1.56
	l0.15,1.4l-2.35,1.94l-1.38-0.36l-0.85,0.51l-2.11-0.52l-1.31,1.25l-1.66,0.39l-2.04-0.73l-0.37,3.83l-0.61,0.99l-1.37-0.88
	l-0.48-1.5l-1.13-0.05l-0.82,2.58l-1.68-0.21l-0.6-1l-0.79,0.82l-2.52-0.23l-1.3,2.9l-2.09,0.08l-0.22-1.71l-1.67,0.91l-2.46-1.39
	l-2.98,0.52l-0.67,2.33l-2.48-0.68l-0.9,0.79l-1.44,0.8l-3.26-0.04l-1.67,0.91l-1.13-0.05l-1.39-1.83l-2.3-0.34l-0.29,1.44
	l-1.39-0.18l-1.03,0.16l-0.46,1.1l-1.22,0.34l-2.91-1.17l-2.46,0.09l-14-30.14L74.02,426.8l-3.29-7.58l12.56-5.35l51.11-22.77
	l45.91-22.62l3.95,7.42l11.62,15.43l13.21,27.32L203.69,419.69z"/>
<path class="st40" d="M216.17,364.94l40.13,13.9l10.82-30.46l3.06-4.58l0.54-1.72l0.78-0.68l-0.61-1.76l-2.43-1.28l0.56-3.5
	l4.03-4.48l2.26-0.43l1.61-1.77l0.06-1.35l1.72-1.17l3.3-4.3l4.11-3.62l-0.15-2.73l-2.78-2.93l-1.07-3.17l-25.86-9.03l-2.54,0.57
	l-4.65-1.27l-1.49-0.93l-1.42,0.86l-2.85-0.65l-3.98-0.01l-0.85,0.5l-3.64-0.74l-0.56-1.42l-1.03-0.28l-3.97,0.67l-1.3-1.08l-2,0.46
	l-0.01-1.53l-1.9-1.23l-1.29-0.31l-0.78-1.02l-2.65-0.04l-0.98-0.79l-1.05-0.12l-1.13,0.64l-4.88,0.06l-5.4-4.15l1.47-4.59
	l0.02-3.48l-2.47-3.41l-3.25-0.27l-0.25-0.96l0.46-0.97l-0.54-0.74l-0.88-0.01l-1.08,0.98l-1.29-0.31l-0.34-0.97l-0.87-0.18
	l-0.67,0.44l-1.58-1.78l-0.39,3.61l-1.26,0.97l-1.28,2.83l-0.3,1.92l-5.05,9.88l-14.39,24.98l-3.22,3.55l-1.39-0.24l-0.1,1.77
	l-5.2,5.45l-0.56,2.74l0.76,1.19l-0.13,2.02l-1.15,0.81l-1.32,2.4l-0.43,4.79l0.79,2.55L216.17,364.94z"/>
<path class="st41" d="M785.07,314.07l-2.65-1.04l-2.32-4.8l0.2-9.04l-2.57-1.47l0.54-2.06l-1.42-2.55l-100.4-35.45l3.17-7.66
	l-7.78,0.92l-1.23-0.54l-5.57,1.55l-5.43-0.42l-14.62,38.85l-9.67,25.57l24.41,9.37l86.07,30.57l3.01-1.59l2.7-0.19l2.27,0.82
	l1.64,1.88l2.99-0.97l2.48,0.47l4.41-2.21l3.67-1.53l6.06-0.64l-3.16-6.86l-1.93-2.84l0.67-4.04l-2.84-3.05l1.88-4.61l1.99-0.44
	l2.3-1.84l-0.67-3.22l7.64-4.16l1.41-2.67l4.06-1.62L785.07,314.07z"/>
<path class="st42" d="M709.85,128.44l-6.79,1.8l-10.71,5.69l-8.5-3.09l-2.03,2.68l-10.03-3.68l-10.12,26.37l47.15,17.77l2.48,3.88
	l6.73,2.83l2.76-27.06l-9.27-7.28l-4.57,0.82l-0.89-2.73l-4.38-2.68l-4.5,1.39l1.77-4.94l-7.36-0.69l6.78-4.4l5.2,2.24l5.58,0.44
	l-6.09,2.83l8.18,0.26l3.05,3.78l-5.01-0.54l7.94,5.79l-1.34-4.09l3.87,0.75l-1.47-7.82l-8.44-5.12l13.39,2.49l-0.32-5.43
	L709.85,128.44z M736.66,172.4l2.28-3.01l-0.64-3.06l-6.15-0.33l0.45,3.96L736.66,172.4z"/>
<path class="st43" d="M753.04,328.72l-23.59,10.1l-0.99-2.95l-5.11-2.29l-0.99,2.14l-0.97-0.1l-0.22-1.68l-0.66-0.43l-28.15,10.63
	l-7.66,7.49l-1.58,0.57l-4.84,3.72l0.51,2.22l-2.03,1.81l-0.68,4.16l0.68,1.42l8.86,2.23l3.14-1.25l5.19,3.51l1.06,1.81l6.92,4.39
	l3.8,1.04l1.81-0.26l3.27,1.07l2.1,2.14l3.02,1.14l2.41-0.05l4.26,2.16l0.59,1.57l4.17,2.31l6.99,0.9l6.71,6.44l1.27,3l5.55,1.05
	l4.71,4.64l2.03,3.28l5.36-1.01l0.5-2l0.75-0.21l1.74-2.35l-0.04-2.47l3.28-3.53l-0.43-2.86l-1.79-0.61l0.76-1.08l1.13,0.18
	l1.49-0.91l1.54-3.04l4.13-3.39l1.19-3.32l-0.11-0.84l4.51-6.73l-0.29-0.54l-1.39-0.6l0.87-2.11l1-0.28l0.66,0.43l0.61-1.16
	l1.62-0.45l0.25-1.93l2.16-3.22l-2.17-6.1l0.23-2.92l2.42-8.38l2.26-3.37l2.37-2.03L753.04,328.72z"/>
<path class="st44" d="M227.98,120.99l33.28-22.84l20.86-15.25l1.04,1.47l0.38,1.76l-1.21,2.85l0.4,0.93l2.45,0.71l1.19,0.95
	l2.12-0.98l2.01,0.43l19.81,25.51l-1.59,1.09l0.74,1.08l1.67,0.28l0.49,0.76l-0.45,0.85l1.09,0.82l1.11-0.43l1.5,0.92l1.39,4.17
	l1.47,3.29l1.52,0.09l0.87,0.68l1.35,0.73l-0.95,0.92l-1.61,0.5l-1.94-1.2l-1.5-0.21l-5.38,1.79l-0.98-0.39l-1.7,0.67l-0.68,1.12
	l-0.95,0.2l-0.43,0.73l-0.69,0.11l-0.43,0.73l-0.74,0.05l-0.35,0.98l-1.35,0.4l-0.25,2.23l-1.21,1.01l-2.48-0.18l-1.29,0.77l-4-0.27
	l-27.42,18.95l-37.56,24.62l-19.44-30.29l-9.05-14.37L227.98,120.99z"/>
<path class="st45" d="M507.01,470.28l34.94-27.05l17.04-14.25l-2.48-3.85l0.45-1.74l1.27-0.71l0.58-1.38l-1.5-3.6l2.16-4.74
	l2.66-2.27l1.23-3.69l-0.22-1.19l2.55-4.32l-1.29-2.95l1.51-4.65l0.75-0.26l0.87,1.11l1.07,0.2l0.59-1.72l-0.53-1.99l1.53-3.77
	l2.68-0.51l-0.78-5.29l0.51-1.66l1.27-0.71l-2.72-4.03l-0.12-0.7l-3.47,2.8l0.36,0.88l-21.69,17.7l-3.81,4.02l-15.88,11.83
	l-3.8,3.34l-13.58,9.89l-1.69,1.98L490.2,440.4l-0.88-0.1l-3,1.94l2.65,1.85l-0.02,1.01l-18.1,13.37l-0.12,1.19l-1.01-0.12
	l-0.81,0.52l0.68,1.01l1.01,0.46l0.44,0.83l-0.87,1.12l1.92,0.43l-0.28,0.96l-1.48,0.74l1.01,0.46l1.55,0.22l0.37,0.54l-0.71,1.02
	l0.24,2.07l0.4,0.41l1.66,0.04l0.04,0.75l-1.22,0.79l0.26,0.39l1.2,0.23l0.5,0.57l-1.03,0.89l0.01,0.88l-1.19,0.99l-0.26,1.17
	l0.96,0.38l0.84-0.65l0.88,0.44l-0.62,1.85l1.11,0.95l-1.93,0.58l0.29,0.59l0.9,0.64l0.49,1.24l-1.47,0.06l-0.23,1.04l0.94-0.5
	l0.87,1.11l0.04,1.09l1.36,0.12l0.54,1.32l1.01,0.12l-0.04,1.14l-1.23,0.24l0.42,2.18l-0.93,1.38L507.01,470.28z"/>
<path class="st46" d="M316.11,503.14l0.07-2.19l26.57,0.65l24.52,0.08l0.76-72.43l0.61-0.05l40.5-0.67l1.21,31.03l2.14,0.79
	l2.08,2.03l1.17,0.13l0.79-0.79l0.94,0.22l1.13,0.65l0.76-1.15l1.85,1.1l0.54,2.07l0.96,0.44l1.76-0.2l2.78,1.18l1.53-0.19
	l1.05-0.37l1.88,1.46l1.41-1.78l2.74,0.6l1.62,2.07l1.76-0.2l-0.42,1.56l1.82,0.67l2.16-2.06l2.08,1.08l0.97-0.44l0.16,1.08
	l1.37,0.77l1.63-1.94l0.96,0.44l-0.12,1.47l0.86,1.25l0.88-0.65l1.69-3.19l1.49,1.35l1.56,0.25l1.57-0.63l1.63,1.19l0.91-0.14
	l1.06,0.8l2.71-0.86l0.37-1.27l2.82-0.43l1.26,0.42l3.7-2.1l0.54,1.05l3.89-0.51l0.3-1.19l1.73,0.53l3.73,2.49l5.01,1.01l2.12,1.52
	l2.08-1.1l2.5,0.4l0.79,8.62l1.45,14.4l0.72,2.42l2.14,1.88l0.82,3.87l3.16,3.12l0.84,3.07l0.77-0.06l0.31,5.3l-2.19,4.83l1.12,1.59
	l-0.92,1.16l0.7,2.13l0.15,3.12l-1.5,2.66l-0.03,0.59l-1.24,0.97l0.86,1.25l0.98,0.73l-2.67,0.42l-6.23,3.31l-2.61,1.21l-1.28,1.41
	l-0.56-0.32l1.49-1.79l1.34-0.61l0.34-0.68l-2.23,0.09l-0.58-0.54l0.51-1.5l-0.79-1.25l-0.46,0.03l-1.77,1.08l-1.32,1.99l0.32,1.22
	l2.71,2.28l1.01,0.14l0.04,0.58l-1.68,1.29l-3.54,3.18l-2.86,3.05l-2.38,1.2l-3.67,2.46l-2.73,1.66l-3.35,1.63l-3.01,2.05l2.29-2.36
	l-0.06-0.8l0.42-0.61l-0.25-1.29l-1.16,0.01l-0.76,1.15l-1.92,1.09l-1.44-0.77l-0.32-1.22l-1.15,0.09l0.73,1.55l1.11,0.43l0.97,0.58
	l1.47,1.06l-0.49,0.62l-2.9,1.45l-1.3,0.17l-0.98-0.8l-0.27,1.55l0.44,0.77l-1.96,1.6l-1.14,0.23l-0.58,0.55l-0.22,1.26l-1.2,2.49
	l-1.19,0.6l-1.26-0.34l-1.32,0.9l0.3,1l1.04,0.51l0.81,0.52l-1.19,2.64l-0.08,2.05l-0.68,1.29l-1.02,0.8l-2.2,0.45l1.41,0.33
	l1.42-0.54l-0.14,2.34l-0.85-0.01l0.22,0.86l0.3,1l-0.95,0.73l0.17,2.25l1.3,0.92l0.63,2.21l-0.19,1.62l-0.75,0.35l0.39,1.06
	l0.86,0.23l0.7,1.19l0.14,1.88l0.96,1.46l1.83,1.76l-0.04,0.51l-1.7-0.02l-1.15,1.11l0.23,1l-0.71-0.17l-1.08-0.07l-2.8-2.49
	l-1.8-0.3l-5.44,0.4l-2.19-0.42l-2.92-1.97l-1.36-0.63l-1.6,0.19l-2.59-1.7l-4.23-0.85l-0.07-0.94l-1.17-1.23l-0.94-3.36l-0.93-1.17
	l-1.38-0.92l-0.09-1.16l-1.11-0.36l0.32-1.92l-0.35-1.58l-1.07-0.94l0.38-2.21l-0.78-2.27l-1.38-0.92l-0.84,0.06l-3.25-2.31
	l-0.02-1.38l-0.7-1.19l-0.62-0.1l-0.82-1.69l-1.62-1.05l-2.36-1.65l-0.27-1.51l-0.8-0.45l0.07-1.17l0.35-0.54l-1.15-1.01l0.04-0.51
	l-1.65-1.48l-0.04-1.53l-2.33-3.4l-0.17-1.23l-1.55-2.14l-4.17-3.19l-0.06-0.8l-2.62-1.04l-0.17-1.3l-0.94-0.22l-0.04-0.51
	l-0.62-0.1l-1.76-1.91l-0.61,0.05l-0.57-0.4l-0.94,0.87l-1.69,0.13l-2.05-0.65l-3.53,0.26l-3.33-1.28l-0.9,1.45l-1.72-0.31
	l-2.47,1.06l-1.15,2.13l-1.36,2.43l-0.61,3.25l-1.01,0.95l-0.84,0.14l-0.6,1.21l-0.96,0.51l0.02,1.31l-2.22,0.24l-1.46-0.98
	l-0.77,0.06l-1.69-1.99l-2.79-0.16l-1.43-1.57l-1.01-0.07l-1.65-0.46l-2.79-2.27l0.11-0.59l-1.29-0.78l-0.77-0.02l-2.77-2.05
	l-0.18-1.44l-1.98-2.77l0.07-1.17l-0.61-0.9l0.53-1.13l-0.2-1.73l-2.21-2.82l-0.68-3.01l-1.31-1.07l-0.05-0.72l-0.93-0.08l-0.6-0.76
	l-1.93-1.1l-0.7-0.02l-1.54-1.05l-0.06-0.8l-2.32-1.14l-0.57-1.49l-2.12-1.52l-2.69-3.01l-2.37-0.77l-1.71-1.19l0.09-0.88
	l-1.07-0.94l-1.5-2.59l-1.89-0.59L316.11,503.14z M457.59,593.45l0.62,0.03l-0.72-3.45l-3.34-8.72l-0.59-5.86l3.2-7.89l4.24-6.29
	l5.25-4.11l-0.04-0.51l-0.61,0.05l-1.94,0.87l-2.64,1.87l-0.46,1.13l-5.67,8.88l-1.73,5.89l0.47,6.38l3.4,8.49L457.59,593.45z"/>
<path class="st47" d="M332.64,341.57l-5.58-14l-31.99,11.83l24.99,71.27l30.96-11.24l26.42-10.38l-23.6-55.82L332.64,341.57z"/>
<path class="st48" d="M690.56,80.2l-2.51,4.43l2.23,4.37l-1.03,2.19l-0.21,1.79l-2.13,2.53l-2.1,0.15l-1.2,1.59l-3.25,0.77
	l-1.4,1.83l1.07,4.99l-1.39,3.24l0.3,2.17l-1.93,2.29l0.05,2.68l-2.36,2.21l-0.31,3.03l-1.29,1.29l-0.22,6.28l0.59,2.22l-1.41,3.38
	l0.79,2.68l-0.96,3.33l-1.06,1.62l-0.52,1.87l2.28,4.1l-18.35,0.21l-1.29-1.66l1.25-2.57l-0.42-20.03l-2.29-2.56l-1.71,1.91
	l-0.68-3.22l1.62-2.21l-2.59-9.92l1.45-5.06l0.84-1.24l-0.31-2.87l1.16-2.86l-2.5-3.72l0.16-4.47l0.97-1.92l-1.75-1.61l1.37-2.4
	l-0.68-2.52l40.65-1.76L690.56,80.2z"/>
<path class="st49" d="M722.42,557.75l-2.38,1.96l-0.08,1.22l0.9-0.78l2.25-2.37L722.42,557.75z M694.23,534.79l-0.15-1.23l0.96,0.39
	l1.35-0.32l1.25-1.41l0.06-0.54l0.34-0.4l0.07-0.77l-0.3-0.73l-0.32-0.28l-0.26-0.6l-0.25-0.82l-0.91-0.48l-0.5-0.38l-0.17-0.55
	l0.34-0.4l-1.26-1.36l-0.88-0.12l-1.05-0.67l-0.3-0.96l-0.36-0.42l0.16-0.72l0.94-0.42l0.44-0.8l-1-0.76l-0.47-1.28l-0.87-0.35
	l-1.32-1.04l-0.71,0.43l-1.15,1.23l-1.58,1.8l-6.59-9.46l-0.62,0.7l0.04,1.86l-1.86,1.66l-1.33,2.62l-1.49,0.13l-1.49,1.62
	l-1.21,0.28l-2.16,0.92l-1.21,0.28l-2.14,1.74l-1.65-2.14l-6.26,6.44l-1.97,0.79l-2.31-1.8l-0.26-2.32l-1.76-1.73l-2.39,4.13
	l-2.11,0.83l-0.37,1.53l-3,0.94l-0.56,1.88l-6.47,3.81l-2.53,2.45l0.78,1.79l-2.3,0.96l-0.59,1.29l-3.08,0.66l-0.1-1.32l-5.45,0.67
	l-0.88-1.61l-1.23,0.95l0.49,0.83l-0.9,0.56l-6.2-0.53l-1.86-3.05l-1.56,1.12l-2.62,0.68l-2.15-1.02l-2.9-4.17l0.64-1.38l-1.03-1.35
	l1.32-0.68l-0.35-0.87l-7.71,3.49l-3.14-0.51l-4.21,1.21l-1.44,1.76l-2.56,0.14l-0.92,1.46l-1.97,0.57l-1.89-0.43l-1.39,1.45
	l-1.11-0.13l-8.36,0.39l28.03,11.05l0.67-0.79l4.45,1.78l-0.62,0.48l28.58,11.11l39.58,12.57l29.58,8.66l0.04-1.36l0.41,0.1
	l0.38,1.23l0.59-1.29l0.66-1.83l0.87,1.84l-0.21,2.3l0.64-1.15l-0.41-6.53l0.59-1.07l-0.25-1.05l-1.53-0.01l-0.23,1.49l-0.73-0.39
	l0.12-1.08l-0.99,0.51l-0.28-1.41l-1.87-1.1l-0.53,0.53l0.34,2.59l-0.94-1.3l0.03-1.13l-0.76,0.52l-0.78-0.3l-2.2,0.78l1.06-1.28
	l0.69-1.24l-1.03-1.35l-1.4-1.31l0.65-1.61l0.09-1.45l-1.09,0.69l-1.06-1.71l-1.97-0.7l0.62-0.7l1.47,0.55l0.58,0.88l1.95,0.11
	l0.63,0.79l-0.03,1.13l-0.34,0.62l1.54,1.27l-0.17,0.94l0.63,0.79l0.23,1.5l2.06-0.74l0.55,0.29l0.94-1.91l-1.68,0.26l-0.11-1.09
	l1.47,0.55l-0.66-1.38l-1.39-0.05l0.74-1.56l-1.65-0.64l-1.47-2.04l-0.57-2.83l2.21,3.7l0.68,0.7l1.95,0.11l-1.11-1.62l0.84-0.24
	l-0.67-0.93l0.83,0.21l0.17-0.94l0.56,1.33l0.76-0.52l-0.27,1.35l0.7,1.29l0.79-0.15l-0.16-0.77l1.13-2.27l-0.96-0.62l-1.07-1.48
	l1.36-0.54l-1.78-1.06l-0.12-0.64l-1.57-0.14l-0.89-1.39l0.13-1.31l-1.33-2.08l-1.04-2.61l-1.08-2.75l2.11,2.61l0.23,1.5l1.58,1.64
	l0.88,3.33l1.02-1.41l-0.09,1.45l1.86,1.56l1.96-3.55l-0.19-1.36l0.81,0.89l0.87-1.37l-2.15-2.74l-1.36-0.95l-1.09-0.81l0.86-0.92
	l-1.22-0.99l0.2-0.58l-1.65-0.87l-0.57,0.61l-0.15-1.23l-2.47-1.31l-0.72-0.84l0.31-0.99l-0.8-1.11l0.37-1.53l-0.35-0.65l-1.18,0.64
	l-0.92-0.26l-1.17,0.19l-1.37-0.73l-0.19-1.59l1.88-2.56l1.63-1.89l0.3,0.73L694.23,534.79z M708.56,555.69l0.87,0.35l0.29-0.53
	l-0.78-0.3L708.56,555.69z M708.46,571.93l-2.24,1.92l1.73-0.57L708.46,571.93z M714.31,557.47l0.49,0.61l-1.11,1.59l-0.21-0.69
	l-1.68,0.26l0.72,0.84l-3.8,3.04l-3.87,7.24l0.22,3.67l1.19-1.09l1.69-2.21l0.85-2.19l1.08-0.46l0.5-1.34l1.39,0.05l-0.3-0.73
	l0.8-0.38l0.19,1.36l-0.72,0.88l-2.28,3.27l2.08-1.42l1.88-2.56l1.56-2.62l0.71-1.92l1.67-1.75l1.89-1.07l1.17-1.91l0.71-0.65
	l-4.99-0.8l-1.03,0.37L714.31,557.47z"/>
<path class="st50" d="M235.36,494.35l1.48,2.79l0.11,3.46l-25.84,2.08l-2,1.43l-4.51,0.67l-1.64-0.22l-0.92,1.26l-2.72,0.52
	l-3.47,1.48l-0.56,0.74l-3.44,0.74l-1.01-0.99l-1,0.15l-3.21,2.05l-1.53-0.42l-1.57,1.14l-0.57-1.29l-2.11-0.32l-1.24,0.22
	l-1.05-0.57l-2.32,0.96l-1.14-0.3l-0.96,0.3l-0.75,0.96l-4.22,1.88l-6.23-1.48l-0.41-4.42l-1.26-2.94l-3.4-1.95l-2.93,0.99
	l-0.57-0.72l0.04-0.99l-0.74-0.42l-0.77,0.32l-2.02-0.59l-0.86,0.59l-1.62,0.42l-0.9-0.94l-1.34,0.17l0.26-6.18l0.83,4.62l0.51,0.25
	l-0.46-1.48l0.59-0.35l1.41,1.43l-0.91-1.51l-0.01-3.41l1.53-0.15l-1.34-1.21l-0.73,0.47l-1.29,0.07l-0.81-3.16l0.51,1.06l0.83,0.15
	l0.11-1.33l2.55-0.79l-2.03-0.35l-1.79-0.99l-0.75,1.53l0.24-2.6l-1.3-3.34l-0.99-2.62l-0.69-4.75l-0.86-1.36l-1.6-1.21l-0.84-2.99
	l-0.3-2.1l1.06-2.2l-0.88-0.87l0.02-0.49l0.74-0.15l7.97,3.71l4.19,0.25l4.64,0.59l2.53-0.87l0.85,2.18l0.43-1.43l0.56-0.17
	l1.1,1.85l-0.2-2.05l1.07-0.49l0.56,0.4l-0.74,0.72l0.45,1.16l0.21-1.29l0.88-0.27l0.28,2.03l-1.06-0.32l0.64,0.94l0.27,1.14
	l-0.48,0.72l-1.32,2.77l0.17-2.82l-1.18,0.69l0.17,1.66l-2.38,3.02l-0.09,0.84l-1.17,2.15l0.15,0.77l1.75-0.54l1.87-0.74l0.19-0.79
	l-2.99,1.34l-0.14-0.44l1.43-2.72l1.25-1.04l1.47-0.62l0.43-1.43l1.86-2.45l-0.32-1.04l0.88-0.27l1,2.94l-1.2,0.37l-0.29,0.74
	l-1.08-0.4l0.49,0.74l0.39,1.26l-0.4,0.69l-0.61-1.11l-0.45,0.79l0.7,0.27l-0.46,1.04l1.04-0.32l0.44-0.54l0.54,1.46l-0.36,1.66
	l-0.49,0.96l0.34,1.36l-0.84,0.1l-0.48-0.99l0.46-1.04l-0.75-0.17l-0.48,0.72l-0.05,1.8l-0.43,0.87l-0.54-1.46l0.38-1.01l-0.41-0.77
	l-0.68,1.19l0.59,1.61l-0.39,0.45l-1.77,0.22l-0.76,1.21l1.62-0.99l0.35,1.68l0.38-1.58l0.64,0.94l0.17-0.87l0.97,1.16l0.56-0.17
	l0.37-0.77l0.46-0.22l1.16-1.9l-0.12-0.94l0.78,0.25l0.45,0.59l0.49-0.4l-0.2-0.91l1.04-0.32l-0.51-2.2l-0.7-1.98l0.79,0l-1.04-1.38
	l0.93-0.94l-0.39-1.83l1.33-2.2l0.82-0.17l-0.08-1.11l-1.28-0.74l-0.89-2.57l-0.43,0.87l1.23,1.98l-0.46,0.22l-0.92-1.26l-0.59-0.22
	l-0.29-1.78l1.41-0.52l0.4,0.44l-0.13-1.26l-1.67-0.86l-0.85-1.04l0.3,1.53l0.97,0.59l-0.47,0.47l-0.98-0.35l-1.14,1.41l1.31,0
	l0.71,1.73l0.18,1.41l0.42-1.19l1.65,1.36l0.12,1.51l-1.2,0.37l-0.28-0.89l-1.47-0.52l-0.29-2.35l-2.11-1.46l1.46-2.89l-0.47-3.19
	l0.72-0.22l1.85,2.03l-0.6-1.93l1.03-0.07l-0.76-2.45l-0.9-0.37l-0.38,2.15l-1.49-1.98l1.01-0.4L162,454.9l1.38-0.91l21.98-0.72
	l27.12-1.91l20.08-1.76L235.36,494.35z M163.53,484.59l0.4-0.12l0.26,0.57l-0.33,0.35l0.22,0.42l-0.47,0.47l-0.37-0.62l0.31-0.42
	L163.53,484.59z M166.53,480.17l-0.52,1.71l0.1,0.62l0.37,0.05l0.26-0.57l0.9-0.2L166.53,480.17z M161.23,464.25l0.54,0.32
	l0.97-0.54l-0.07-0.79l0.54-1.63l-0.89-0.05l-0.19,1.36l-0.45-1.16l-0.83,0.42l-0.24,1.21L161.23,464.25z M162.51,459.38l0.9,0.94
	l-0.67,0.37l-0.55,0.49l-0.71-1.73L162.51,459.38z M159.99,458.86l-0.92,0.12l0.72,0.91L159.99,458.86z M159.77,460.96l0.73,0.1
	l-0.07,0.91l1.24-0.79l-0.67-1.58l-0.76,0.07L159.77,460.96z M157.53,461.33l0.86,1.93l1.58,0.57l0.04-1.56l-1.38-1.36
	L157.53,461.33z M158.79,460.05l-1.11-0.47l-0.69,0.3l1.78,0.67L158.79,460.05z M159.72,454.06l-0.96,0.3l0.18,0.59l1.1,0.15
	L159.72,454.06z M166.5,478.39l-0.3-2.1l-0.88,0.27l0.28,1.46L166.5,478.39z"/>
<path class="st51" d="M568.87,243.28l-1.5,1.15l1.73,1.42l-0.42,1.85l4.98,4.46l3.08,0.76l3.17-1.45l1.68-1.75l3.31,3.32l8.15-0.81
	l0.99-0.9l-0.88-0.91l1.31-1.46l1.62,1.78l6.82-2.11l0.52,1.6l3.77-1.54l0.38-1.73l2.68-1.73l-1.54-2.02l2.53-3.61l7.2-6.21
	l0.17-2.45l3.58-1.86l0.02-1.97l2.47-1.52l1.85-5.64l2.79,1.72l1.02,2.79l3.52,1.67l2.3-1.44l6.15-9.4l2.77,2.24l2.24-2.64
	l1.48-0.62l2.51-1.64l1.48-0.62l1.43-2.35l1.88-0.51l0.93-3.54l1.9-2.48l-0.6-2.28l0.59-1.01l11.32,10.1l1.5-2.59l1.11-1.78
	l0.78-0.69l-1.04-0.83l0.85-1.86l-1.14-0.99l-0.01-0.92l-0.93-0.27l-0.62-1.76l0.63-1.13l-3.58-0.51l-2.32-2.77l-1.96-0.17
	l-1.7,1.35l-1.72-0.5l-3.31,2.86l-4.51-0.77l-2.15-1.93l-4.83,3.6l-2.8-1.2l-5.53,3.53l-1.78,1.59l-2.97,1.25l1.92-14.43
	l-24.07-3.13l2.97-25.04l-3.35,0.61l1.08,3.07l-0.94,2.62l0.06,2.65l-2.7,3.69l-2.11,6.49l-2.64,3.97l0.26,1.52l-1.33,2.51
	l-1.64,0.19l-3.85,3.23l-3.11,1.73l-0.79-0.23l-3,1.37l-1.28-1.95l-2.64,1.6l-0.84,1.34l-1.72-0.5l-2.52,2.16l-0.64,2.58l-1.51,0.22
	l1.45,1.86l-0.69,2.3l-1.4-0.14l-1.22,0.7l-1.51,0.22l-0.03-2.77l-1.93-1.21l-2.16,2.4l-1.2,2.55l-1.93,1.15l0.4,4.85l-2.28,0.4
	l-1.81,4.08l-1.98-0.57l-4.74,0.47l-0.53,1.29l0.43,1.44l-2.11,4.12l1.93,2.66l0.66,1.63l1.1,1.11l-0.46,1.05l3.77,8.45l1.85,0.53
	l1.33,2.75l1.48,0.82l1.89,0.41L568.87,243.28z"/>
<path class="st52" d="M577.53,144.32l-2.09,1l0.46,1.61l-1.36,2.78l0.27,2.24l0.55,0.41l0.51-0.62l0.16-1.21l1.36-1.08l0.64-3.23
	l2.5-1.3l0.16-2.47l0.41-0.74l0.02-1.56l1.21-1.05l-0.2-1.07l0.63-0.79l1.07-0.13l0.27,1.43l-0.74,0.22l0.54,0.78l-0.23,1.67
	l-0.44,0.16l-0.3,3.39l-0.46,0.46l-1.15,5.55l0.34,3.04l0.72,1.34l0.25,0.91l-1.56,1.71l0.48,1.31l-0.26,2.34l0.44,1.1l0.8,2.58
	l-0.28,3.09l-0.46,3.79l0.96,0.92l-0.19,0.26l0.83,1.1l-0.23,0.86l0.95,0.48l0.36,1.93l1.19,0.88l0.1,2.2l0.77,2.81l-34.34,8.73
	l-1.36-1.81l-2.59-0.02l-2.24-0.67l-2.26-3.63l-0.26-1.8l0.76-2.59l-0.6-0.7l-1.8-0.83l-0.5-1.83l-1.44-3.05l-0.56-2.11l-2.07-1.82
	l-2.21-0.09l-4.42-1.8l-0.9-2.27l-5.18-1.29l-0.33-0.9l-2.5,0.48l-2.02-1.53l-1.69-0.63l-0.16-3.74l-0.9-1.01l-0.35-3.93l0.51-1.43
	l-0.59-1.88l-1.08-0.75l-1.4,0.05l-0.23-1.21l1.33-4.55l3.94-3.65l-2.06-9.21l0.73,0.15l0.39-0.44l-0.07-0.8l0.6-0.56l1.22,0.65
	l0.52-0.17l1.97-0.38l4.79-2.85l0.09-0.76l0.91-0.18l0.37-0.96l0.41,0.51l1.24-0.91l1.13-1.48l0.29,0.31l0.62-0.86l1.88,0.82
	l-0.39,1.26l-0.72,1.17l0.58,1l-0.84,1.35l0.42,0.58l1.59-1.12l-0.19-1l2.75,0.87l1.53,0.22l1.53,0.22l2.78,2.27l13.37,0.22
	l1.19,0.51l3.13-0.02l0.6,0.25l2.09-0.55l3.81-0.15l1.26,0.86l-0.62,0.86l0.71,0.45l2.97-0.06l1.07,0.68l0.67,3.12l-0.61,2.19
	l1.53-0.22l0.65-0.72l0.79,0.44l-0.41,2.37l0.97,0.99l0.95,0.04L577.53,144.32z M535.05,124.98l-0.36,0.14l-0.92,1.36l0.22,0.33
	l1.05-0.65l-0.08-0.43l0.64-0.35L535.05,124.98z M536.11,123.96l-0.72,0.36l-0.06,0.53l0.67-0.2L536.11,123.96z M534.92,123.01
	l-0.03,0.67l1.29-0.25l0.4-0.37l-0.06-0.73L534.92,123.01z M536.63,120.46l0.03,1.4l0.84-0.53l-0.11-1.01L536.63,120.46z
	 M585.04,134.66l-1.47,0.51l-0.13,0.99l1.21,1.02L585.04,134.66z"/>
<path class="st53" d="M324.39,505.79l-40.57,2.58L238,509.82l-0.23,8.22l0.18,41.9l0.15,16.73l25.72-0.53l35.84-1.5l29.77-2.27
	l-2.61-33.39L324.39,505.79z"/>
<path class="st54" d="M718.61,329.98l-2.33-1.01l-0.59,1.39l0.45,0.23l0.34,0.02l0.55,0.3l0.33,0.48l-0.02,0.38l0.23,0.35
	L718.61,329.98z"/>
<path class="st55" d="M293.22,267.74l2.67,13.6l-0.97,2.82l-1.54,0.62l-1.74-1.57l-3.27,0.14l-2.51,1.51l3.34,10.06l1.86,3.36
	l0.49,2.23l-0.17,2.58l-85.87-53.55l-1.9-2.17l-6.44-50.31l39.54-6.49l20.4-3.66l19.35-3.83L293.22,267.74z"/>
<path class="st56" d="M71.14,488.42l-16.05,3.17l-4.6-24.12l0.23-4.16l-0.31-1.34l0.25-0.74l-1.06-0.94l-2.05,0.05l-0.97-2.52
	l0.89-4.45l1.29-1.12l0.36-1.77l-0.48-0.91l0.66-1.41l0.49-4.06l1.27-3.91l-1.13-1.75l-2.91-0.91l-1.9-1.7l-0.46-2.81l-1.46-2.17
	l-6.97-36.25l9.3-1.93l2.84,14.17l4.15,3.39l0.29,3.24l3.41,1.88l1.32-0.08l4.5,3.86l0.55,1.23l2.16,1.16l0.54-0.23l1.39,0.87
	l1.92-0.83l0.42,0.94l0.16,11.83l0.77,2.54l0.97-0.07l1.64,1.11l1.32-1.55l1.54-2.34l1.63,0.62l0.95,1.34l0.53,2.01l4.02,5.05
	l2.47,1.38l1.74,0.22l1.02,1.66l1.07,2.41l1.98,0.75l0.36-1.77l4.56-0.85l0.95-1.25l5.84-1.34l0.82-2.67l0.92-0.82l1.19,0.75
	l2.03,1.99l0.57-0.18l9.15,34.4l-30.89,7.63L71.14,488.42z"/>
<path class="st57" d="M556.85,571.76l25.3-41.13l21.24-37.14l-14.58-7.83l-47.39-24.27l-22.31,38.95l-24.13,38.92l-31.61,46.27
	l14.58,10.35l6.71-0.56l2.99,2.68l4.76-1.27l1.16-1.23l7.44-0.43l1.55,0.64l2.99-0.83l0.31-0.68l2.02-0.42l1.09-2.43l1.18,0.49
	l10.12,10.57l2.85,1.63l0.84-0.91l2.46-0.42l-0.08-2.55l-0.55-3.47l2.05-0.86l2.01,0.38l2.19,1.35l8,1.06l3.46-0.91l1.81-1.32
	l2.35,0.61l3.02,1.25l2.48-1.05l-1.15-1.92l3.52-4.76l-0.17-1.96l4.31-6.32l-1.48-3.13l0.17-1.55l1.73-0.36l3.57,0.03l0.38-0.65
	L556.85,571.76z"/>
<path class="st58" d="M380.1,457.12l-8.34,6.91l-26.89,20.88l-28.08,20.51l-34.24-45.45l24.04-17.44l19.47-15.18l16.91-13.68
	l9.28,10.72L380.1,457.12z"/>
<path class="st59" d="M428.71,174.7l2.27,0.97l0.78,0.84l-0.78,3.24l0.43,2.22l3,4.42l2.81,0.75l3.19-0.08l1.79,2.19l-0.34,0.63
	l2.58,0.62l1.93,1.14l0.15,1.45l1.06,0.78l1.11-0.25l3.32,2.49l0.64,2.27l-0.53,3.09l-0.74,1.37l0.41,2.13l-1.11,2.29l-3.5,2.47
	l-2.22,0.5l-2.6,1.33l-0.08,3.73l1.35,1.18l0.99,0.05l1.12,1.04l0.64,3.1l-0.36,0.54l-1.07,2.47l0.5,2.11l-0.67,1.27l-0.77,0.45
	l-1.54,0.91l-0.61,1.53l0.84,0.64l0.39,2.04l-0.5,0.76l-1.55-0.39l-1.25-0.74l-0.89-1.28l-1.84-0.79l-13.03,3.71l-24.86,6.78
	l-23.93,5.36l-2.58-3.49l0.18-2.08l-1.43-2.73l-0.42-2.59l-1.35-0.34l-1.65-5.28l-3.63-3.81l-0.96-3.21l-2.93-3.32l-1.98-2.98
	l-0.29-1.23l-0.91-1.37l-0.48-2.02l-0.65-0.69l-1-1.35l-0.55-1.08l-1.45-0.78l0.02-3.99l0.5-4.84l-1.07-1.61l-1.28-0.08l-0.7-1.32
	l0.82-0.65l-0.14-0.99l-1.51-1.05l-0.24-1.43l2.05-0.37l26.03-5.93l33.32-8.43l17.02-4.53L428.71,174.7z"/>
<g>
	<path d="M24.92,62.69c0.54-0.78,1.02-1.68,1.56-2.46c0.54-0.78,1.38-1.02,2.04-0.48c0.36,0.3,4.98,4.14,9.6,4.14
		c4.14,0,6.78-2.52,6.78-5.58c0-3.6-3.12-5.88-9.06-8.34c-6.12-2.58-10.92-5.76-10.92-12.72c0-4.68,3.6-11.1,13.14-11.1
		c6,0,10.5,3.12,11.1,3.54c0.48,0.3,0.96,1.14,0.36,2.04c-0.48,0.72-1.02,1.56-1.5,2.28c-0.48,0.78-1.26,1.14-2.1,0.6
		c-0.42-0.24-4.62-3-8.1-3c-5.04,0-6.78,3.18-6.78,5.4c0,3.42,2.64,5.52,7.62,7.56c6.96,2.82,12.9,6.12,12.9,13.44
		c0,6.24-5.58,11.34-13.38,11.34c-7.32,0-11.94-3.84-12.9-4.74C24.73,64.12,24.31,63.71,24.92,62.69z"/>
	<path d="M58.51,49.73h-2.52c-0.66,0-1.14-0.54-1.14-1.14v-2.7c0-0.66,0.48-1.14,1.14-1.14h2.52v-6.66c0-0.6,0.54-1.14,1.14-1.14
		l3.42-0.06c0.6,0,1.08,0.54,1.08,1.14v6.72h6.12c0.66,0,1.14,0.48,1.14,1.14v2.7c0,0.6-0.48,1.14-1.14,1.14h-6.12v11.88
		c0,2.04,0.78,2.4,1.92,2.4c1.26,0,2.94-0.72,3.66-1.08c0.78-0.36,1.14,0,1.38,0.54l1.08,2.64c0.3,0.66,0.06,1.14-0.54,1.44
		c-0.6,0.36-4.14,1.8-7.02,1.8c-4.74,0-6.12-2.88-6.12-7.14V49.73z"/>
	<path d="M85.56,53.57c2.52,0,4.74,0.72,4.74,0.72c0.06-3.78-0.66-5.28-3.72-5.28c-2.76,0-5.46,0.72-6.72,1.08
		c-0.72,0.18-1.14-0.3-1.32-0.96l-0.48-2.22c-0.18-0.78,0.24-1.2,0.78-1.38c0.42-0.18,3.84-1.38,8.28-1.38
		c7.68,0,8.4,4.68,8.4,10.68V67.6c0,0.6-0.54,1.14-1.14,1.14H92.7c-0.54,0-0.78-0.24-1.02-0.84l-0.6-1.62
		c-1.32,1.26-3.66,3.06-7.38,3.06c-4.5,0-7.74-3.06-7.74-8.04C75.96,56.93,79.44,53.57,85.56,53.57z M84.84,65.08
		c2.4,0,4.68-1.8,5.4-3v-3.84c-0.36-0.24-2.04-0.96-4.2-0.96c-2.88,0-4.86,1.5-4.86,3.96C81.18,63.4,82.62,65.08,84.84,65.08z"/>
	<path d="M104.64,49.73h-2.52c-0.66,0-1.14-0.54-1.14-1.14v-2.7c0-0.66,0.48-1.14,1.14-1.14h2.52v-6.66c0-0.6,0.54-1.14,1.14-1.14
		l3.42-0.06c0.6,0,1.08,0.54,1.08,1.14v6.72h6.12c0.66,0,1.14,0.48,1.14,1.14v2.7c0,0.6-0.48,1.14-1.14,1.14h-6.12v11.88
		c0,2.04,0.78,2.4,1.92,2.4c1.26,0,2.94-0.72,3.66-1.08c0.78-0.36,1.14,0,1.38,0.54l1.08,2.64c0.3,0.66,0.06,1.14-0.54,1.44
		c-0.6,0.36-4.14,1.8-7.02,1.8c-4.74,0-6.12-2.88-6.12-7.14V49.73z"/>
	<path d="M134.09,44.15c6.24,0,11.04,4.68,11.04,11.1c0,0.42-0.06,1.2-0.12,1.62c-0.06,0.6-0.54,1.02-1.08,1.02h-16.31
		c0.18,3.24,3,6.42,6.9,6.42c2.16,0,4.14-0.96,5.34-1.74c0.72-0.42,1.14-0.66,1.62-0.06l1.68,2.28c0.42,0.48,0.6,0.96-0.12,1.56
		c-1.74,1.5-4.86,3-8.88,3c-7.26,0-12.06-5.7-12.06-12.6C122.09,49.97,126.89,44.15,134.09,44.15z M139.55,54.11
		c-0.18-2.88-2.58-5.34-5.52-5.34c-3.24,0-5.76,2.34-6.12,5.34H139.55z"/>
	<path d="M166,27.89c0-0.6,0.48-1.14,1.14-1.14h13.68c7.38,0,13.44,6,13.44,13.26c0,7.44-6.06,13.5-13.38,13.5h-8.7v14.1
		c0,0.6-0.54,1.14-1.14,1.14h-3.9c-0.66,0-1.14-0.54-1.14-1.14V27.89z M180.46,47.63c4.14,0,7.62-3.36,7.62-7.68
		c0-4.08-3.48-7.2-7.62-7.2h-8.28v14.88H180.46z"/>
	<path d="M205.83,53.57c2.52,0,4.74,0.72,4.74,0.72c0.06-3.78-0.66-5.28-3.72-5.28c-2.76,0-5.46,0.72-6.72,1.08
		c-0.72,0.18-1.14-0.3-1.32-0.96l-0.48-2.22c-0.18-0.78,0.24-1.2,0.78-1.38c0.42-0.18,3.84-1.38,8.28-1.38
		c7.68,0,8.4,4.68,8.4,10.68V67.6c0,0.6-0.54,1.14-1.14,1.14h-1.68c-0.54,0-0.78-0.24-1.02-0.84l-0.6-1.62
		c-1.32,1.26-3.66,3.06-7.38,3.06c-4.5,0-7.74-3.06-7.74-8.04C196.24,56.93,199.71,53.57,205.83,53.57z M205.11,65.08
		c2.4,0,4.68-1.8,5.4-3v-3.84c-0.36-0.24-2.04-0.96-4.2-0.96c-2.88,0-4.86,1.5-4.86,3.96C201.45,63.4,202.89,65.08,205.11,65.08z"/>
	<path d="M223.35,45.89c0-0.6,0.54-1.14,1.14-1.14h1.74c0.42,0,0.9,0.36,1.02,0.84l0.66,2.04c0.42-0.6,2.64-3.48,7.02-3.48
		c2.28,0,5.04,0.6,4.38,2.22l-1.44,2.94c-0.3,0.66-0.9,0.78-1.44,0.54c-0.36-0.18-1.26-0.42-2.04-0.42c-3.48,0-5.16,2.52-5.4,2.94
		V67.6c0,1.02-0.66,1.14-1.62,1.14h-2.88c-0.6,0-1.14-0.54-1.14-1.14V45.89z"/>
	<path d="M245.06,49.73h-2.52c-0.66,0-1.14-0.54-1.14-1.14v-2.7c0-0.66,0.48-1.14,1.14-1.14h2.52v-6.66c0-0.6,0.54-1.14,1.14-1.14
		l3.42-0.06c0.6,0,1.08,0.54,1.08,1.14v6.72h6.12c0.66,0,1.14,0.48,1.14,1.14v2.7c0,0.6-0.48,1.14-1.14,1.14h-6.12v11.88
		c0,2.04,0.78,2.4,1.92,2.4c1.26,0,2.94-0.72,3.66-1.08c0.78-0.36,1.14,0,1.38,0.54l1.08,2.64c0.3,0.66,0.06,1.14-0.54,1.44
		c-0.6,0.36-4.14,1.8-7.02,1.8c-4.74,0-6.12-2.88-6.12-7.14V49.73z"/>
	<path d="M263.6,31.49c0-1.98,1.5-3.54,3.42-3.54c1.98,0,3.54,1.56,3.54,3.54c0,1.92-1.56,3.48-3.54,3.48
		C265.1,34.97,263.6,33.41,263.6,31.49z M264.26,45.89c0-0.6,0.54-1.14,1.14-1.14h3.42c0.6,0,1.14,0.54,1.14,1.14V67.6
		c0,0.6-0.54,1.14-1.14,1.14h-3.42c-0.6,0-1.14-0.54-1.14-1.14V45.89z"/>
	<path d="M276.32,65.62l1.26-2.34c0.24-0.48,0.9-0.66,1.5-0.3c0,0,2.64,1.56,5.58,1.56c1.8,0,2.94-0.72,2.94-2.04
		c0-1.62-1.32-2.4-4.62-3.9c-3.72-1.62-6.84-3.9-6.84-7.86c0-3,2.46-6.6,8.22-6.6c3.36,0,5.88,1.08,7.08,1.86
		c0.54,0.36,0.84,1.14,0.48,1.74l-1.08,2.04c-0.3,0.54-1.08,0.72-1.56,0.48c0,0-2.64-1.26-4.92-1.26c-2.04,0-2.7,0.9-2.7,1.8
		c0,1.56,1.5,2.22,3.84,3.24c4.38,1.92,7.98,3.78,7.98,8.28c0,3.72-3.54,7.02-8.88,7.02c-4.02,0-6.66-1.44-7.92-2.46
		C276.32,66.64,276.08,66.1,276.32,65.62z"/>
	<path d="M307.09,53.57c2.52,0,4.74,0.72,4.74,0.72c0.06-3.78-0.66-5.28-3.72-5.28c-2.76,0-5.46,0.72-6.72,1.08
		c-0.72,0.18-1.14-0.3-1.32-0.96l-0.48-2.22c-0.18-0.78,0.24-1.2,0.78-1.38c0.42-0.18,3.84-1.38,8.28-1.38
		c7.68,0,8.4,4.68,8.4,10.68V67.6c0,0.6-0.54,1.14-1.14,1.14h-1.68c-0.54,0-0.78-0.24-1.02-0.84l-0.6-1.62
		c-1.32,1.26-3.66,3.06-7.38,3.06c-4.5,0-7.74-3.06-7.74-8.04C297.49,56.93,300.97,53.57,307.09,53.57z M306.37,65.08
		c2.4,0,4.68-1.8,5.4-3v-3.84c-0.36-0.24-2.04-0.96-4.2-0.96c-2.88,0-4.86,1.5-4.86,3.96C302.71,63.4,304.15,65.08,306.37,65.08z"/>
	<path d="M324.6,45.89c0-0.6,0.54-1.14,1.14-1.14h1.74c0.48,0,0.84,0.3,0.96,0.72l0.72,2.04c0.42-0.48,3.6-3.36,8.4-3.36
		c7.32,0,10.02,5.16,10.02,11.4V67.6c0,0.6-0.54,1.14-1.14,1.14h-3.42c-0.66,0-1.14-0.54-1.14-1.14v-12.3
		c0-3.84-1.86-5.94-4.98-5.94c-3.78,0-6.36,2.76-6.66,3.6V67.6c0,0.78-0.36,1.14-1.38,1.14h-3.12c-0.6,0-1.14-0.54-1.14-1.14V45.89z
		"/>
	<path d="M33.37,104.38H23.6c-0.66,0-1.14-0.54-1.14-1.14v-3.36c0-0.6,0.48-1.14,1.14-1.14h25.79c0.66,0,1.14,0.54,1.14,1.14v3.36
		c0,0.6-0.48,1.14-1.14,1.14h-9.78v35.21c0,0.6-0.54,1.14-1.14,1.14h-3.96c-0.6,0-1.14-0.54-1.14-1.14V104.38z"/>
	<path d="M51.55,117.88c0-0.6,0.54-1.14,1.14-1.14h1.74c0.42,0,0.9,0.36,1.02,0.84l0.66,2.04c0.42-0.6,2.64-3.48,7.02-3.48
		c2.28,0,5.04,0.6,4.38,2.22l-1.44,2.94c-0.3,0.66-0.9,0.78-1.44,0.54c-0.36-0.18-1.26-0.42-2.04-0.42c-3.48,0-5.16,2.52-5.4,2.94
		v15.23c0,1.02-0.66,1.14-1.62,1.14h-2.88c-0.6,0-1.14-0.54-1.14-1.14V117.88z"/>
	<path d="M81.78,116.13c6.24,0,11.04,4.68,11.04,11.1c0,0.42-0.06,1.2-0.12,1.62c-0.06,0.6-0.54,1.02-1.08,1.02H75.3
		c0.18,3.24,3,6.42,6.9,6.42c2.16,0,4.14-0.96,5.34-1.74c0.72-0.42,1.14-0.66,1.62-0.06l1.68,2.28c0.42,0.48,0.6,0.96-0.12,1.56
		c-1.74,1.5-4.86,3-8.88,3c-7.26,0-12.06-5.7-12.06-12.6C69.79,121.95,74.58,116.13,81.78,116.13z M87.24,126.09
		c-0.18-2.88-2.58-5.34-5.52-5.34c-3.24,0-5.76,2.34-6.12,5.34H87.24z"/>
	<path d="M98.58,117.88c0-0.6,0.54-1.14,1.14-1.14h1.74c0.48,0,0.84,0.3,0.96,0.72l0.72,2.04c0.42-0.48,3.6-3.36,8.4-3.36
		c7.32,0,10.02,5.16,10.02,11.4v12.06c0,0.6-0.54,1.14-1.14,1.14h-3.42c-0.66,0-1.14-0.54-1.14-1.14v-12.3
		c0-3.84-1.86-5.94-4.98-5.94c-3.78,0-6.36,2.76-6.66,3.6v14.63c0,0.78-0.36,1.14-1.38,1.14h-3.12c-0.6,0-1.14-0.54-1.14-1.14
		V117.88z"/>
	<path d="M139.13,116.13c3.06,0,5.22,1.14,5.76,1.32V99.88c0-0.6,0.54-1.14,1.14-1.14h3.48c0.6,0,1.14,0.54,1.14,1.14v39.71
		c0,0.6-0.54,1.14-1.14,1.14h-1.8c-0.54,0-0.9-0.42-1.08-1.02l-0.48-1.74c0,0-2.88,3.36-7.62,3.36c-6.36,0-11.22-5.7-11.22-12.6
		C127.31,121.71,132.47,116.13,139.13,116.13z M139.25,136.17c3.66,0,5.4-2.94,5.7-3.6v-9.78c0,0-2.1-1.44-5.22-1.44
		c-4.02,0-6.84,3.3-6.84,7.38C132.89,132.75,135.41,136.17,139.25,136.17z"/>
	<path d="M157.01,137.61l1.26-2.34c0.24-0.48,0.9-0.66,1.5-0.3c0,0,2.64,1.56,5.58,1.56c1.8,0,2.94-0.72,2.94-2.04
		c0-1.62-1.32-2.4-4.62-3.9c-3.72-1.62-6.84-3.9-6.84-7.86c0-3,2.46-6.6,8.22-6.6c3.36,0,5.88,1.08,7.08,1.86
		c0.54,0.36,0.84,1.14,0.48,1.74l-1.08,2.04c-0.3,0.54-1.08,0.72-1.56,0.48c0,0-2.64-1.26-4.92-1.26c-2.04,0-2.7,0.9-2.7,1.8
		c0,1.56,1.5,2.22,3.84,3.24c4.38,1.92,7.98,3.78,7.98,8.28c0,3.72-3.54,7.02-8.88,7.02c-4.02,0-6.66-1.44-7.92-2.46
		C157.01,138.63,156.77,138.09,157.01,137.61z"/>
</g>
<path class="st60" d="M696.92,105.36l2.56-2.11l9.48-34.22l0.18-0.87l-41.97-12.32l-0.99,1.7l-2.67-0.51l-0.25-2.39l-29.58-8.67
	L617.5,89.33l2.36,6.12l-13.55,3.41l1.12,7.68l19.85-3.45l6.08-0.8l1.99,1.1l10.38-4.2l3.35,2.17l8.79,1.34l5.24,2.9l17.05,0.77
	l8.26,1.68l3.91-1.04l3.03,3.28L696.92,105.36z"/>
<path class="st61" d="M643.31,454.42l-3.65,1.71l-1.9,0.25l-0.99,2.36l1.43,1.98l2.34,0.87l2.06,3.69l-1.36,1.67l-1.44-0.3
	l-2.32-2.19l-38.83,31l-6.12-2.88l-36.74,31.69l1.26,2.58l3.64,0.8l1.78-0.41l1.42,0.44l3.86,6.01l-0.55,1.1l0.64,0.03l0.64-0.8
	l0.11-1.03l6.99-8.09l7.19-5.61l7.67-3.09l9.77-0.86l2.41-0.73l2.93,0.34l1.47,2.19l1.95-1.36l0.97-1.87l2.09-1.34l1.17-1.77
	l1.21-3.23l0.86-4.05l0.66-0.94l0.77,0.06l1.14-0.79l-0.05-0.92l-1.09-0.67l-0.83-0.14l-0.3-0.75l1-2l3.83-3.15l1.22,0.34l0.87-0.49
	l2.44-0.51l3.47-0.27l1.95,0.67l1.58,0.33l3.08-0.48l1.38,1.9l3.36-0.08l0.87-0.49l2.1,0.2l1.49,0.87l0.93-0.41l1.85,1.21l0.91,0.08
	l0.18-1.44l2.41-1.56l1.21,0.83l1.41,0.09l0.75,1.03l3.62,0.1l5.67,7.49l1.86,5.61l1.5,0.38l1.79,2.81l0.15,1.56l1.26,0.55
	l3.19,0.52l1.1,1.02l1.22,0.34l-1.41-1.28l0.71-1.21l-1.41-3.3l-3.13,0.75l-0.26-0.53l1.88-1.79l2.22,1.55l1.24-0.15l-1.07-1.64
	l1.07-0.39l0.95,0.29l0.32,0.61l0.05,4.97l0.47,0.98l-0.29,2.47l0.63,0.87l5.19,0.91l8.84,3.25l2.67,0.64l1.03,1.43l4.91,2.06
	l2.21-0.83l-0.12-1.35l-1.53,1.43l-5.02-1.86l-0.64-1.22l0.76-1.48l-0.86-1.19l-1.23-0.69l0.22-1.22l0.84,0.49l0.86,0l2.29,3.17
	l-1.32,0.2l-0.13,1.17l2.06,0.47l2.3,1.49l0.63-1.16l2.56-0.35l2.97,0.55l4.22,3.13l5.27,2.04l-0.09-1.48l1.99-1.98l3.35-0.78
	l1.22,1.18l4.86,1.14l0.71,0.81l3.34,0.89l-0.28,0.79l1.55,2.14l3-0.42l1.22-0.85l1.16-2.96l1.39-0.61l1.12-0.31l0.9-2.65
	l-0.24-0.67l1.15-0.44l0.98-2.71l-0.26-2.56l-2.4-2.14l-0.91-0.92l-1.4-3.79l0.37-0.5l1.4,0.93l-0.38-1.88l-4.78-5.25l-6.34-8.09
	l-4.71-4.82l-1.54-0.95l-11.73-5.05l-9.44-4.26l-3.68-1.37l-3.12-2.11l-2.11-2.58l0.56-0.75l-0.52-0.71l-2.16-1.12l-5.54-0.9
	l-11.74-3.37l-10.59-5.01l-9.63-6.04l-2.61-2.59l-1.55-0.11l-2.58-2.73L643.31,454.42z M727.88,555.72l1.32-1.04l-1.14-0.4
	L727.88,555.72z M733.18,550.71l-0.4-0.55l1.19-1.07l1.12-4.71l0.88-1.33l1.43-2.07l0.99,0.86l1.84-0.33l-1.43,2.42l-1.95,1.36
	l-1.74,4.19L733.18,550.71z M742.81,534.95l-1.64,2.81l-0.07,1.6l0.95-0.54L742.81,534.95z M744.23,530.5l-0.72,0.86l0.01,2.38
	l0.78-0.78l0.3-2.12L744.23,530.5z M741.98,513.36l1.83,5.4l-0.08,1.25l0.68,2.63l-0.06,1.95l0.41,1.74l-0.28,2.82l0.52,0.71
	l0.59-3.75l-0.06-4.13l-0.66-1.92l-1.1-5.07L741.98,513.36z"/>
<path class="st62" d="M39.57,579.33l2.21-0.14l0.69,0.58l-0.85,1.12l-1.74,0.29l-2.22,1.3l-3.41,0.13l1.97-0.93l0.21-0.99l2.28-0.41
	L39.57,579.33z M47.11,577.33l1.23,0.37l0.83-0.05l0.53,1.04l0.24-0.55l0.84,0.12l1.1,1.27l0.03,0.44l-3.75,1.93l-2.22,0.05
	L45,581.57l-0.97,0.69l-1.84,0.12l-1.1-1.18l4.3-0.72L47.11,577.33z M52.08,576.92l0.93,0.03l0.69,0.58l0.06,0.89l-1.19,0.17
	l-0.9-0.92L52.08,576.92z M54.4,577.04l1.19-0.17l-0.03,0.89l-0.98,0.6L54.4,577.04z M54.81,578.98l3.13-0.29l0.25,0.96l-1.19,0.17
	l-0.31-0.43l-0.7,0.58l-0.41-0.51l-0.84-0.12L54.81,578.98z M208.44,575.93l1.94-0.03l-0.81,1.75l-1.02-0.02l-0.42-0.69l0.38-1.18
	 M207.33,573.23l0.47-1.19l-0.32-2.03l2.18-0.59l4.41,3.64l1.4,2.94l1.85,1.31l0.59,4.51l-1.29,0.08l-1.34-1.96l-3-1.95l-0.55,0.04
	l1.18,2.42l1.58,0.08l0.31,1.85l-0.82,0.14l-4.04-3.66l-0.15-0.79l1.69-1l-0.06-0.89l-0.51-0.68l-1.51-0.44l-1.65-1.05l1.3,0.01
	l0.44-0.38l-0.61-0.76l-0.52,0.48L207.33,573.23z M203.46,565.37l1.2,0.01l2.36,2.08l-0.14,0.72l-0.74-0.04l0.02,1.6l0.49,0.41
	l0.09,1.33l-0.72,0.31l-0.3,1.09l-0.76-0.31l-0.5-1.93l0.93-1.31l-2.07-1.83l0.02-1.07L203.46,565.37z M204.75,563.95l1.76,0.07
	l2.31-0.06l3.33,2.64l-0.15,0.46l-0.98,0.6l-1.03-0.11l-0.13-0.62l-1.2-1.35l-0.23,0.64l1,1.09l-0.11,1.08l-0.74-0.04l-1.19,0.25
	l-0.2-1.5l-2.57-2.33L204.75,563.95z M192.51,556.8l0.8-0.41l1.47-0.09l0.61-0.49l3.91,1.71l0.18,1.33l-0.43,0.47l-0.74,0.05
	l-1.33-0.54l1.09,1.09l1.66-0.11l0.58,1.75l-0.83,0.05l-2.12-1.2l-1.03-0.11l0.63,1.12l0.15,0.79l0.7-0.58l1.64,0.96l1.19-0.17
	l-0.14,0.72l2.01,3.7l0.21,3.02l0.5,1.84l-0.72,0.31l-1.23-1.7l-0.55-1.3l-1.57-1.33l-0.35-2.38l-0.66-1.47l-0.64,0.04l0.34,0.96
	l0.03,0.44l-1.23,0.97l-0.11-2.93l-1.57-1.33l-1.34-1.96l-1.18-0.99L192.51,556.8z M199,554.33l1.12,1.53l2.2-0.23l1.05,1.8
	l-0.52,0.57l2.04,2.72l0.08,1.15l-1.06,0.78l0.04,0.62l-1.73,1.8l-0.55-1.21l-0.17-1.15l0.51-0.66l-0.07-0.98l-1.5-1.6l-0.69-3.25
	l-0.92-1.28L199,554.33z M145.66,541.43l-3.43,3.87l0.1,1.42l1.89-0.83l0.62-1.73l1.88-2.26L145.66,541.43z M117.57,558.03
	l0.04,0.53l1.73,0.96l0.1-1.25l0.61,0.76l3.23-0.12l0.61-0.57l0.07-1.61l-0.5-0.59l-1.29,0.08l-0.05-0.71l0.33-0.56l-0.02-0.36
	l-1.4-0.18l-2.82,3.39L117.57,558.03z M110.48,564.01l1.74,5.06l1.93-0.12l2.06-2.36l0.35,1.05l5.56-3.92l0.58-0.93l-0.99-0.92
	l-0.04-0.62l0.38-1.18l-0.84-0.04l-1.78,1.01l-0.07-1.07l-2.52-0.37l-2.19,0.41l0.02,3.03l-0.86-1.73l-1.39,0l-0.88,0.59
	L110.48,564.01z M108.96,571.41l0.05-0.63l1.85-1.28l0.57,0.23l1.21,0.1l1.27,0.99l-2.04-0.05l-0.41-0.51l-0.88,0.59L108.96,571.41z
	 M104.37,574.65l-0.96,0.77l1.47,1.15l0.69-0.67l-0.17-1.15L104.37,574.65z M98.09,568.01l1.3,0.01l0.41,0.51l-1.65,0.19
	L98.09,568.01z M86.01,579.39l0.03,0.44l0.65,0.05l-0.13-0.53L86.01,579.39z M85.45,576.57l-0.86,0.95l0.03,0.44l0.71,0.94
	l0.86-0.95l-0.65-0.05L85.45,576.57z M83.56,575.98l-0.22,0.91l-1.19,0.17l-0.36,0.2l0.08,1.15l-0.41,0.83l0.55-0.04l0.59-0.84
	l0.73-0.14l0.77-0.94l0.1-1.17L83.56,575.98z M79.38,574.46l-0.07,1.61l1.34,0.63l1.07-0.6l-0.06-0.89l1.55-0.37l-0.13-0.53
	l-0.84-0.12l-0.61,0.57l-0.86-0.39L79.38,574.46z M74.86,574.66l0.96,0.56l-0.2,1.08l-1.36-0.89L74.86,574.66z M71.07,576.07
	l1.3,0.01l-0.6,0.75L71.07,576.07z M68.03,578.93l1.72,0.87l-1.56,0.19L68.03,578.93z M42.73,552.74l1.14,0.46l-0.7,0.58
	L42.73,552.74z M41.71,547.19l0.44,1.04l0.66-1.11L41.71,547.19z M62.91,528.63l1.38-0.18l0.85,0.3l0.98-0.51l1.19-0.17l1.52,0.62
	l0.85,1.64l-0.04,0.8l-0.98,1.85l-2.22-0.04l-2.04-1.47l-0.95-0.3l-1.14-1.71L62.91,528.63z M42.6,517.09l0.21,1.68l1.96,1.66
	l0.03,0.44l-0.75-0.13l-1.61-0.61l-0.34-0.96l-0.37-1.4L42.6,517.09z M58.03,495.33l0.07,1.07l1.86,1.49l2.12-0.14l0.62,0.94
	l0.1,1.42l2.05,1.56l1.73,0.96l-0.05,0.63l-0.58,1.02l-1.36-0.98l-1.93,0.21l-0.79-0.66l-0.96-1.81l-1.52-1.86l-2.4,0.06l-0.96-0.56
	l0.79-1.92L58.03,495.33z M73.23,490.35l0.92-0.06l0.16,0.97l-0.92,0.06L73.23,490.35z M89.35,506.88l0.84,0.04l0.07,1.07l-1.6-0.34
	L89.35,506.88z M211.8,568.31l-1.08,0.43l-0.02,0.98l1.11-0.07L211.8,568.31z M66.37,573.6l-1.22-0.28l-3.74,0.77l-2.49,1.41
	l0.02,1.69l1.79,0.51l1.33-0.89l1.56-0.19l4.41,0.97l0.01-1.16l-1.54-0.88L66.37,573.6z M68.45,575.52l-0.45-1.22l1.12,0.11
	l0.18,1.24l1.66-0.11l0.22-2.24l0.42,2.11l2.3-0.24l2.75-3.12l0.74,0.04l-0.57,1.2l1.34,0.72l3.86-0.42l2.32-1.22l1.28-0.17
	l0.37,1.31l0.52-0.48l0.28-1.27l5.45-0.17l1.65-1.53l-1.26-0.9l0.48-1.1l2.41,0.02l-0.26-1.05l2.31,0.03l0.58-1.02l1.03,0.11
	l4.12-1.96l0.08-1.52l5.01-2.46l1.73-1.8l1.07-0.6l1.25,0.63l2.06-0.93l0.9-1.75l0.38-1.18l1.51-0.9l1.34-0.71l0.28-1.27l-1.12-1.44
	l-2.04-0.05l-0.26-1.14l0.64-1.47l1.28-0.26l1.11-1.41l1.74-0.2l2.94-3.04l0.28-1.27l1.24-2.13l3.25-3.86l2.25-0.95l1.69-0.91
	l1.98,0.59l1.45,2.23l-1.38,0.09l-1.38-1.25l-2.64,1.95l-1.56,0.19l0.01,2.76l-2.56,4.53l0.67,1.74l2.12-0.14l-0.49,0.92l-1.28,0.17
	l-2.1,1.74l0.05,0.8l1.81,0.78l3.09-0.73l1.19-1.59l1.3,0.01l2.66-1.69l0.32-2.07l1.47-0.18l5.85,0.34l0.85-1.04l0.65-4.05
	l-1.41,1.07l0.42-1.99l-1.56-1.15l0.65-1.38l0.18,1.33l3.13-0.2l0.58-0.93l1.47-0.18l-0.17,1.53l1.76-0.02l-1.67,1.27l3.84,0.73
	l-3.2,0.56l-1.12,1.14l0.91,1.19l4.13-1.78l2.22,1.37l0.59-0.84l0.64,1.21l3.82,1.81l2.67-0.17l3.56-0.67l4.03,0.72l1.96,1.57
	l4.17,0.09l1.57-1.44l0.88,2.08l-1.62,0.73l1.18,0.99l7.05,2.94l1.44,2.14l5.22,3.32l2.92-1.97l-0.69-1.92l-3.35-1.57l2.93,0.88
	l0.42-0.65l0.91,1.1l0.16,2.4l1.9-0.66l2.04,1.47l-2.9-8.55l1.18,1.08l1.66,5.24l2.18,2.09l2.19-0.5l1.87,3l0.83-0.05l0.89,4.93
	l3.16,0.24l1.61,1.86l1.72,0.87l0.54,2.46l-1.5,2.41l2.77,1.25l0.96-2.2l0.01,2.76l-0.68,0.85l1.39,1.43l0.5-2.17l-0.26-1.05
	l0.75,0.13l0.69,2.01l-0.84,1.3l0.71,2.27l0.48,0.33l0.18-1.44l0.68,0.49l-0.15,1.79l1.12,0.11l-0.31,0.82l1.56-0.19l-0.06-0.89
	l-0.92,0.06l-0.01-1.51l-0.77-0.49l1.55-0.37l0.41-0.74l-0.1-1.42l0.54,1.12l-0.44,1.63l1.34,3.39l1.66-0.02l1.77-3.86l-0.02-1.69
	l-1.44-3.47l-0.17-1.06l0.39-1.09l-0.69-0.58l-1.56,0.19l-2.42-1.63l-1.57,0.1l-1.93-1.12l-1.38,0.09l-0.56-1.39l-1.31-0.18
	l-0.28-1.32l-0.95-0.38l-0.01-1.51l-5.15-6.27l-1.75-1.23l-0.07-1.07l-4.17-2.85l-0.71-0.94l-1.6-1.68l-1.79-0.42l-0.13-1.95
	l-1.18-1.08l-1.61-0.52l-1.85,1.28l-1.35,1.96l-0.22,2.15l-1.38,0.18l-2.14,2.54l-0.76-0.22l-0.15-2.22l-2.34-1.81l-2.24-1.64
	l-0.58-1.75l-2.38-1.01l0.05-1.96l-2.58,0.08l-0.58,1.02l-1.11,0.07l-0.69-0.58l-1.06,0.78l-1.73-0.96l-5.24-76.15l-6.61-3.23
	l-1.69-0.34l-1.96,1.11l-2.02,0.22l-2.22-1.28l-4-0.28l-5.56-2.85l-5.27-0.02l-1.81,0.56l-0.29-1.59l-1.7-0.52l0.95-0.95l-0.24-0.79
	l-3.01-0.79l-2.21,0.14l-0.34,0.38l-0.87-0.48l-0.07-2.31l-0.79-0.75l-2.13,2.72l-0.74-0.04l-0.05-0.71l1.52-0.81l-0.05-0.71
	l-1.9-2.02l-1.02-0.02l-3.96,3.02l-3.59,0.23l0.31-0.82l-1.66,0.02l-4.58,3.32l-1.66,0.11l-0.6-0.67l-2.4,1.49l-3.09,3.5l-2.41,2.56
	l-1.31,1.15l-2.39,0.24l-2.05-0.23l-2.2-1.02l0,0l-2.34,3.63l0.05,2.14l2.54,1.98l2.21,3.87l0.51,4.69l2.79,1.6l3.16,0.15l0.69,0.67
	l-1.24,2.13l0.81,2.36l-1.72-2.21l-0.15-2.13l-1.4-0.18l0.17,1.06l0.77,1.82l2.9,3.11l-1.29,0.08l-1.96,1.11l-5.86-1.85l-0.21-1.77
	l1.21-1.24l-0.09-1.24l-1.96-0.32l-2.11,0.31l-4.41,0.46l1.52,1.95l-1.86-1.49l-7.66,1.56l-0.65,1.38l4.8,3.88l-0.65,1.29
	l-0.15,1.79l-0.6,0.75l0.02,1.69l4.27,2.94l3.79-0.06l4.35,1.42l1.84-0.12l0.7-0.58l3.51-0.14l0.04-0.72l1.17,0.91l0.21,1.77
	l-2.31,0.06l0.29,2.92l0.66,2.81l-2.51,2.57l-1.76,0.02l-1.89-0.59l-0.91,0.15l-2.73,2.05l-1.55,0.28l-1.46-2.4l-2.86,0.18l-1.9,1.9
	l-0.35,1.63l-2.93,1.79l-4.62,4.13l-0.09,2.77l0.78,1.91l0.99,1.01l0.9-0.41l0.89,0.83l-0.7,0.58l-1.33,0.89l1.1,1.27l-2.33,1.13
	l0.87,1.91l1.71,1.94l0.99,3.59l3.78,1.1l2.35-0.86l1.5-1.08l0.59,1.83l0.54,3.89l-1.66,1.35l0.27,3.91l-0.5,0.83l-1.57,0.1
	l1.64,0.96l1.93-0.21l0.31-0.91l4.2-0.8l2,2.19l1.15-0.7l1.51,4.45l0.95,0.38l0.88-0.68l-0.05-2.14l0.77-0.94l0.71,0.94l0.28,1.41
	l1.5,0.26l4.26-1.34l0.26,1.05l-1.77,1.09l-1.37,1.6l-2.15,6.38l-3.84,2.03l-1.2,1.41l-0.19,1.26l-0.96-0.47l-8.36,3.48l-1.41,3.75
	l-1.22-0.28l0.39-1.01l-1.47-1.15l-3.24,0.03l-4.69,3.15l-1.95,1.28l-2.12,0.14l-0.31,2.16L68.45,575.52z"/>
<path class="st63" d="M647.2,207.28c-5.65,20.87-17.38,52.66-44.18,80.07c-44.04,45.05-91.26,39.89-158.77,82.83
	c-21.95,13.97-51.55,36.52-81.45,73.17"/>
<path class="st64" d="M57.69,212.8c84.88,4.45,154.82,12.36,205.71,19.33c64.35,8.81,82.32,13.92,99.4,22.09
	c26.76,12.79,92.41,52.71,127.01,183.62"/>
<path class="st65" d="M315.41,149.35c-4.85,7.23-11.26,18.44-15.19,33.13c-8.45,31.64,2.03,51.79,5.52,82.83
	c4.95,43.98-7.56,79.26-15.19,100.78c-7.29,20.58-21.98,53.36-52.46,86.98"/>
<path class="st66" d="M88.06,248.7c23.55,5.89,59.18,15.34,102.16,28.99c39.67,12.6,58.88,20.29,73.17,24.85
	c38.75,12.36,98.85,20,189.14-5.52"/>
</svg>
