<?xml version="1.0" encoding="utf-8"?>
<!-- Generator: Adobe Illustrator 24.1.0, SVG Export Plug-In . SVG Version: 6.00 Build 0)  -->
<svg version="1.1" id="Layer_1" xmlns="http://www.w3.org/2000/svg" xmlns:xlink="http://www.w3.org/1999/xlink" x="0px" y="0px"
	 viewBox="0 0 700 100" style="enable-background:new 0 0 700 100;" xml:space="preserve">
<style type="text/css">
	.st0{fill:#0D07FF;stroke:#FFFFFF;stroke-width:0.5093;}
	.st1{fill:none;stroke:#E32400;stroke-width:1.5326;}
	.st2{fill:#F27D9F;stroke:#FFFFFF;stroke-width:1.3663;}
	.st3{fill:#F1614B;stroke:#FFFFFF;stroke-width:1.1996;}
	.st4{fill:#FF6060;stroke:#FFFFFF;stroke-width:1.0285;}
	.st5{fill:#C45DFF;stroke:#FFFFFF;stroke-width:2.0914;}
	.st6{fill:#EF4466;stroke:#FFFFFF;stroke-width:1.0929;}
	.st7{fill:#FAC1B4;stroke:#FFFFFF;stroke-width:1.8173;}
	.st8{fill:#001C84;stroke:#FFFFFF;stroke-width:0.3051;}
	.st9{fill:#C5EDFF;stroke:#FFFFFF;stroke-width:1.4752;}
	.st10{fill:#F15C55;stroke:#FFFFFF;stroke-width:1.6655;}
	.st11{fill:#F78C36;}
	.st12{fill:#C5D0FF;stroke:#FFFFFF;stroke-width:2.8499;}
	.st13{fill:none;stroke:#D62800;stroke-width:6.3815;}
	.st14{fill:none;stroke:#D77CFF;stroke-width:6.3815;}
	.st15{fill:none;stroke:#FF9D9F;stroke-width:6.3815;}
	.st16{fill:none;stroke:#FF5130;stroke-width:6.3815;}
	.st17{fill:none;stroke:#FF7151;stroke-width:6.3815;}
	.st18{fill:none;stroke:#FF9F8D;stroke-width:6.3815;}
	.st19{fill:none;stroke:#7A92FF;stroke-width:6.3815;}
	.st20{fill:none;stroke:#36AEFF;stroke-width:6.3815;}
	.st21{fill:none;stroke:#747FFF;stroke-width:6.3815;}
	.st22{fill:none;stroke:#648DFF;stroke-width:6.3815;}
	.st23{fill:none;stroke:#FF7483;stroke-width:6.3815;}
	.st24{fill:#4FC9FF;stroke:#FFFFFF;stroke-width:2.6157;}
	.st25{fill:#930B00;stroke:#FFFFFF;stroke-width:0.8719;}
	.st26{fill:#FF5647;stroke:#FFFFFF;stroke-width:2.6157;}
	.st27{fill:#195CFF;stroke:#FFFFFF;stroke-width:2.9486;}
	.st28{fill:#394EFF;stroke:#FFFFFF;stroke-width:2.6157;}
	.st29{fill:#F79B82;stroke:#FFFFFF;stroke-width:2.6157;}
	.st30{fill:#FF7AA1;stroke:#FFFFFF;stroke-width:2.6157;}
	.st31{fill:#FF6060;stroke:#FFFFFF;stroke-width:2.6157;}
	.st32{fill:#68B2E2;stroke:#FFFFFF;stroke-width:2.6157;}
	.st33{fill:#E796FF;stroke:#FFFFFF;stroke-width:3.4419;}
	.st34{fill:#FF7F6B;stroke:#FFFFFF;stroke-width:3.579;}
	.st35{fill:#4F4FFF;stroke:#FFFFFF;stroke-width:3.6029;}
	.st36{fill:#FF9699;stroke:#FFFFFF;stroke-width:2.6157;}
	.st37{fill:#7AA8FF;stroke:#FFFFFF;stroke-width:2.6157;}
	.st38{fill:#F15C55;stroke:#FFFFFF;stroke-width:3.7961;}
	.st39{fill:#EF3B24;stroke:#FFFFFF;stroke-width:2.6157;}
	.st40{fill:#FFAA96;stroke:#FFFFFF;stroke-width:4.2983;}
	.st41{fill:#FAC1B4;stroke:#FFFFFF;stroke-width:2.6157;}
	.st42{fill:#FFD3CC;stroke:#FFFFFF;stroke-width:2.6157;}
	.st43{fill:#FF281C;stroke:#FFFFFF;stroke-width:4.5419;}
	.st44{fill:#7AA4FF;stroke:#FFFFFF;stroke-width:2.6157;}
	.st45{fill:#EE2724;stroke:#FFFFFF;stroke-width:2.6157;}
	.st46{fill:#EF4466;stroke:#FFFFFF;stroke-width:3.0931;}
	.st47{fill:#F27D9F;stroke:#FFFFFF;stroke-width:3.7572;}
	.st48{fill:#76A5FF;stroke:#FFFFFF;stroke-width:2.6157;}
	.st49{fill:#0D07FF;stroke:#FFFFFF;stroke-width:0.8719;}
	.st50{fill:#448EFF;stroke:#FFFFFF;stroke-width:2.6157;}
	.st51{fill:#6FC7FF;stroke:#FFFFFF;stroke-width:3.3839;}
	.st52{fill:#0069DB;stroke:#FFFFFF;stroke-width:2.6157;}
	.st53{fill:#84F3FF;stroke:#FFFFFF;stroke-width:7.4024;}
	.st54{fill:#FF8B7A;stroke:#FFFFFF;stroke-width:2.6157;}
	.st55{fill:#55CAF5;stroke:#FFFFFF;stroke-width:2.6157;}
	.st56{fill:#FF4715;stroke:#FFFFFF;stroke-width:2.6157;}
	.st57{fill:#638DC9;stroke:#FFFFFF;stroke-width:2.6157;}
	.st58{fill:#FF8176;stroke:#FFFFFF;stroke-width:2.6157;}
	.st59{fill:#B7C8FF;stroke:#FFFFFF;stroke-width:5.1528;}
	.st60{fill:#FFA8B4;stroke:#FFFFFF;stroke-width:4.2242;}
	.st61{fill:#526EFF;stroke:#FFFFFF;stroke-width:2.6157;}
	.st62{fill:#7DBFE9;stroke:#FFFFFF;stroke-width:3.9605;}
	.st63{fill:#C5EDFF;stroke:#FFFFFF;stroke-width:2.6157;}
	.st64{fill:#329FFF;stroke:#FFFFFF;stroke-width:2.6157;}
	.st65{fill:#D0D0D0;stroke:#FFFFFF;stroke-width:2.6157;}
	.st66{fill:#FF3E39;stroke:#FFFFFF;stroke-width:2.6157;}
	.st67{fill:#47DFFF;stroke:#FFFFFF;stroke-width:2.6157;}
	.st68{fill:none;stroke:#0F008D;stroke-width:6.3815;}
	.st69{fill:#001C84;stroke:#FFFFFF;stroke-width:0.8719;}
	.st70{fill:#F1614B;stroke:#FFFFFF;stroke-width:2.6157;}
	.st71{fill:#FF8B81;stroke:#FFFFFF;stroke-width:3.7175;}
	.st72{fill:#C45DFF;stroke:#FFFFFF;stroke-width:4.6687;}
	.st73{fill:#FF7AAB;stroke:#FFFFFF;stroke-width:3.9913;}
	.st74{fill:#DA2E27;stroke:#FFFFFF;stroke-width:3.4856;}
	.st75{fill:none;stroke:#CBDEFF;stroke-width:6.3815;}
	.st76{fill:none;stroke:#B5CDFF;stroke-width:4.8599;}
	.st77{fill:none;stroke:#FF101D;stroke-width:6.3815;}
	.st78{fill:none;stroke:#FFB1AA;stroke-width:6.3815;}
	.st79{fill:#4FC9FF;stroke:#FFFFFF;stroke-width:1.5955;}
	.st80{fill:#FF5647;stroke:#FFFFFF;stroke-width:0.8168;}
	.st81{fill:#FF9699;stroke:#FFFFFF;stroke-width:1.4746;}
	.st82{fill:#FF281C;stroke:#FFFFFF;stroke-width:2.8172;}
	.st83{fill:#7AA4FF;stroke:#FFFFFF;stroke-width:1.4053;}
	.st84{fill:#EE2724;stroke:#FFFFFF;stroke-width:1.058;}
	.st85{fill:#76A5FF;stroke:#FFFFFF;stroke-width:1.0208;}
	.st86{fill:#84F3FF;stroke:#FFFFFF;stroke-width:4.1424;}
	.st87{fill:#FF4715;stroke:#FFFFFF;stroke-width:1.0647;}
	.st88{fill:#B7C8FF;stroke:#FFFFFF;stroke-width:2.0629;}
	.st89{fill:#FFA8B4;stroke:#FFFFFF;stroke-width:1.8986;}
	.st90{fill:#D0D0D0;stroke:#FFFFFF;stroke-width:0.8169;}
	.st91{fill:#FF7AAB;stroke:#FFFFFF;stroke-width:1.4203;}
	.st92{fill:#930B00;stroke:#FFFFFF;stroke-width:0.5093;}
	.st93{fill:#394EFF;stroke:#FFFFFF;stroke-width:1.5278;}
	.st94{fill:#68B2E2;stroke:#FFFFFF;stroke-width:1.5278;}
	.st95{fill:#FFAA96;stroke:#FFFFFF;stroke-width:1.7548;}
	.st96{fill:none;stroke:#B3D7FF;stroke-width:3;}
	.st97{fill:none;stroke:#4B8DFF;stroke-width:2;}
	.st98{fill:#FFD3CC;stroke:#FFFFFF;stroke-width:1.1524;}
	.st99{fill:#448EFF;stroke:#FFFFFF;stroke-width:1.0469;}
	.st100{fill:#55CAF5;stroke:#FFFFFF;stroke-width:1.2672;}
	.st101{fill:#FF8176;stroke:#FFFFFF;stroke-width:1.5278;}
	.st102{fill:#526EFF;stroke:#FFFFFF;stroke-width:1.5278;}
	.st103{fill:#329FFF;stroke:#FFFFFF;stroke-width:1.1996;}
	.st104{fill:#DA2E27;stroke:#FFFFFF;stroke-width:1.457;}
	.st105{fill:none;stroke:#B722FF;stroke-width:3;}
	.st106{fill:#6FC7FF;stroke:#FFFFFF;stroke-width:1.3994;}
	.st107{fill:#E796FF;stroke:#FFFFFF;stroke-width:2.0104;}
	.st108{fill:#FF7AA1;stroke:#FFFFFF;stroke-width:0.75;}
	.st109{fill:#638DC9;stroke:#FFFFFF;stroke-width:0.919;}
	.st110{fill:none;stroke:#FFB3CD;stroke-width:2;stroke-miterlimit:10;}
	.st111{fill:none;stroke:#FFB09A;stroke-width:2;stroke-miterlimit:10;}
	.st112{fill:#FF3E39;stroke:#FFFFFF;stroke-width:1.2672;}
	.st113{fill:#FF8B81;stroke:#FFFFFF;stroke-width:1.8009;}
	.st114{fill:#FF7F6B;stroke:#FFFFFF;stroke-width:1.6413;}
	.st115{fill:none;stroke:#0077FF;stroke-width:2;stroke-miterlimit:10;}
	.st116{fill:#0069DB;stroke:#FFFFFF;stroke-width:1.1124;}
	.st117{fill:#FF8B7A;stroke:#FFFFFF;stroke-width:1.2351;}
	.st118{fill:#7DBFE9;stroke:#FFFFFF;stroke-width:1.6894;}
	.st119{fill:#7AA8FF;stroke:#FFFFFF;stroke-width:1.565;}
	.st120{fill:#C5D0FF;stroke:#FFFFFF;stroke-width:1.6898;}
	.st121{fill:#4F4FFF;stroke:#FFFFFF;stroke-width:1.8341;}
	.st122{fill:#F79B82;stroke:#FFFFFF;stroke-width:1.5726;}
	.st123{fill:none;stroke:#FF4655;stroke-width:3;}
	.st124{fill:#EF3B24;stroke:#FFFFFF;stroke-width:1.5278;}
	.st125{fill:#195CFF;stroke:#FFFFFF;stroke-width:1.0451;}
	.st126{fill:#47DFFF;stroke:#FFFFFF;stroke-width:1.1507;}
	.st127{fill:#0D07FF;stroke:#FFFFFF;stroke-width:0.6453;}
	.st128{fill:none;stroke:#E32400;stroke-width:3.8011;}
	.st129{fill:#F1614B;stroke:#FFFFFF;stroke-width:1.5199;}
	.st130{fill:#FF6060;stroke:#FFFFFF;stroke-width:1.6367;}
	.st131{fill:#C45DFF;stroke:#FFFFFF;stroke-width:3.4871;}
	.st132{fill:#EF4466;stroke:#FFFFFF;stroke-width:1.3848;}
	.st133{fill:#FAC1B4;stroke:#FFFFFF;stroke-width:2.3026;}
	.st134{fill:#001C84;stroke:#FFFFFF;stroke-width:0.4359;}
	.st135{fill:#C5EDFF;stroke:#FFFFFF;stroke-width:2.1075;}
	.st136{fill:#4FC9FF;stroke:#FFFFFF;stroke-width:2.2793;}
	.st137{fill:#FF5647;stroke:#FFFFFF;stroke-width:1.1668;}
	.st138{fill:#FF9699;stroke:#FFFFFF;stroke-width:2.1066;}
	.st139{fill:#FF281C;stroke:#FFFFFF;stroke-width:4.0245;}
	.st140{fill:#7AA4FF;stroke:#FFFFFF;stroke-width:2.0076;}
	.st141{fill:#EE2724;stroke:#FFFFFF;stroke-width:1.5114;}
	.st142{fill:#76A5FF;stroke:#FFFFFF;stroke-width:1.4583;}
	.st143{fill:#84F3FF;stroke:#FFFFFF;stroke-width:5.9177;}
	.st144{fill:#FF4715;stroke:#FFFFFF;stroke-width:1.521;}
	.st145{fill:#B7C8FF;stroke:#FFFFFF;stroke-width:2.9471;}
	.st146{fill:#FFA8B4;stroke:#FFFFFF;stroke-width:2.7123;}
	.st147{fill:#D0D0D0;stroke:#FFFFFF;stroke-width:1.167;}
	.st148{fill:#FF7AAB;stroke:#FFFFFF;stroke-width:2.0289;}
	.st149{fill:#930B00;stroke:#FFFFFF;stroke-width:0.6453;}
	.st150{fill:#394EFF;stroke:#FFFFFF;stroke-width:1.9358;}
	.st151{fill:#68B2E2;stroke:#FFFFFF;stroke-width:1.9358;}
	.st152{fill:#FFAA96;stroke:#FFFFFF;stroke-width:2.2234;}
	.st153{fill:none;stroke:#B3D7FF;stroke-width:2.759;}
	.st154{fill:none;stroke:#4B8DFF;stroke-width:2.5341;}
	.st155{fill:#FFD3CC;stroke:#FFFFFF;stroke-width:1.4602;}
	.st156{fill:#448EFF;stroke:#FFFFFF;stroke-width:1.3264;}
	.st157{fill:#55CAF5;stroke:#FFFFFF;stroke-width:1.6056;}
	.st158{fill:#FF8176;stroke:#FFFFFF;stroke-width:1.9358;}
	.st159{fill:#526EFF;stroke:#FFFFFF;stroke-width:1.9358;}
	.st160{fill:#329FFF;stroke:#FFFFFF;stroke-width:1.5199;}
	.st161{fill:#DA2E27;stroke:#FFFFFF;stroke-width:1.8461;}
	.st162{fill:none;stroke:#B722FF;stroke-width:2.055;}
	.st163{fill:#6FC7FF;stroke:#FFFFFF;stroke-width:1.7731;}
	.st164{fill:#E796FF;stroke:#FFFFFF;stroke-width:2.5473;}
	.st165{fill:#FF7AA1;stroke:#FFFFFF;stroke-width:0.9503;}
	.st166{fill:#638DC9;stroke:#FFFFFF;stroke-width:1.1644;}
	.st167{fill:none;stroke:#FFB3CD;stroke-width:2.8571;stroke-miterlimit:10;}
	.st168{fill:none;stroke:#FFB09A;stroke-width:2.8571;stroke-miterlimit:10;}
	.st169{fill:#FF3E39;stroke:#FFFFFF;stroke-width:1.6056;}
	.st170{fill:#FF8B81;stroke:#FFFFFF;stroke-width:2.2819;}
	.st171{fill:#FF7F6B;stroke:#FFFFFF;stroke-width:2.0797;}
	.st172{fill:none;stroke:#0077FF;stroke-width:2.8571;stroke-miterlimit:10;}
	.st173{fill:#0069DB;stroke:#FFFFFF;stroke-width:1.5892;}
	.st174{fill:#FF8B7A;stroke:#FFFFFF;stroke-width:1.7644;}
	.st175{fill:#7DBFE9;stroke:#FFFFFF;stroke-width:2.4134;}
	.st176{fill:#7AA8FF;stroke:#FFFFFF;stroke-width:2.2357;}
	.st177{fill:#C5D0FF;stroke:#FFFFFF;stroke-width:2.414;}
	.st178{fill:#4F4FFF;stroke:#FFFFFF;stroke-width:2.6202;}
	.st179{fill:#F79B82;stroke:#FFFFFF;stroke-width:2.2466;}
	.st180{fill:none;stroke:#FF4655;stroke-width:4.0056;}
	.st181{fill:#195CFF;stroke:#FFFFFF;stroke-width:1.3242;}
	.st182{fill:#47DFFF;stroke:#FFFFFF;stroke-width:1.458;}
	.st183{fill:#EF3B24;stroke:#FFFFFF;stroke-width:1.9358;}
	.st184{fill:#F27D9F;stroke:#FFFFFF;stroke-width:1.9519;}
	.st185{fill:#F15C55;stroke:#FFFFFF;stroke-width:2.6815;}
</style>
<path class="st0" d="M431.14,23.54l0.45-0.77l1.35-0.67l0.84-0.56l0.51,0.01l0.31-0.34l-0.19-0.76l0.66-0.23l0.46-0.52l0.3,0.32
	l-0.78,1.21l-0.25,1l0.85-0.43l0-0.98l0.6-0.94l1.17-0.34l0.43-0.55l0.21-1.34l0.41-1.83l1.49-1.88l-0.44-3.35l0.14-2.19l1.17-4.65
	l11.37,6.69l-0.29,1.1l1.12,0.1l0.69,0.65l0.84,0.36l0.79,1.33l1.75,1.55l0.88,1.36l0.51,0.13l0.6,0.76l-0.17,0.52l0.47,1.62
	l0.11,1.18l-0.18,0.21l0.01,1.1l-0.8,0.11l0.13,1.03l0.3,0.44l-0.4,0.45l0.33,1.07l0.72,0.56l-0.14,0.49l0.79-0.18l0.63,0.53
	l-0.24,0.4l0.05,0.47l-0.14,0.49l-0.87-0.38l-0.66,0.41l0.46,0.99l0.63,0.72l0.09,0.75l1.59,0.56l-0.2,0.74l1.03,1.12l-0.46,0.52
	l-0.52,1.5l-1.06-0.17l-1.53,0.82l-1.2-0.53l-0.41-0.05L457,36.91l0.38,0.68l-0.27,0.31l-0.17,0.65l-0.63,0.19l-1.18,0.82
	l-0.32,0.88l0.33,0.28l-0.74,0.71l-1.28,0.07l-0.64,0.85l-1.49,1.22l-0.33-0.28l-1.8-0.19l-1.28,0.67l-0.32,0.88l-0.71,0.73
	l-0.56,0.31l-20.9-13.76l5.4-8.39L431.14,23.54z"/>
<path class="st1" d="M327.93,57.55c19.49-1.29,34.41-3.98,44.37-6.18c15.22-3.36,17.27-5.21,29-6.55c13.08-1.49,19.38-0.19,40.6,0
	c12.85,0.12,23.33-0.24,30.16-0.56"/>
<path class="st2" d="M179.98,79.98l-11.19-1.68l-15.03-2.6l-10.98-2.61l-0.64,1.78l-0.52-0.23l-0.65,0.23l-1.5,1.47l-0.8-0.71
	l-1.56,0.4l-0.51,0.63l-0.68,0.22l-0.19-0.38l0.15-0.52l-0.26-0.17l-1.84,0.61l-0.63,1.09l-1.98,0.21l-0.33,0.35l-1.47,0.47
	l-1.35-0.3l-2.02,0.43l-0.79,1.3l-0.58,0.14l-0.52-0.23l-0.66,0.26l-0.64,1.66l8.05,1.74l1.81-0.08l0.48,0.13l3.15-0.52l8.59,2.25
	l0.08,0.22l-0.24,0.45l0.21,0.19l0.61-0.36l0.82,1.45l-0.28,0.9l7.41,1.59l6.69,9.01l1.7-0.24l1.16,0.15l0.61,0.22l0.26,0.52
	l0.53-0.58l0.83-1.63l1.09-1.11l2.69-1.38l1.9-0.67l2.22-0.09l0.95,0.19l0.42,0.3l0.12,0.47l1.99-1.83l1.83-1.38l-0.21-0.19
	l-2.41,1.75l-0.08-0.34l0.99-0.49l0.04-0.56l-0.65-0.43l0.2,0.57l-0.44-0.12l-0.21-0.77l-0.68,0.53l-0.6-0.14l0.69-0.79l0.46-0.49
	l0.28-1.02l-0.78-0.32l0.43-0.19l0.36,0.24l0.96,0.38l0.35-0.07l0.83,0.3l0.95-0.39l0.46-1.07l0.64-0.31l0.46,0.09l0.59-0.17
	l0.28-1.33l-0.32-1.58l-0.94-0.42l-0.52,0.43l-0.06-0.41l-0.99-0.28l-0.48-0.02l-0.83,0.16l-0.06-0.18l-0.32-0.12l-0.79,0.18
	L175.06,84l0.16-0.45l0.41-0.24l0.27,0.37l0.36,0.13l0.87-0.5l1.54-0.1l0.99-0.49l0.86,0.31l0.13,0.55l0.51,0.49l0-0.58l0.09-0.58
	l-0.63-1.42l0.06-0.52l-0.27,0.29l-0.16-0.56L179.98,79.98z M178.69,91.48l1.28-0.51l2.06-0.53l0.45-1.26l0.24-1.11l-0.1-1.65
	l0.37,0.67l-0.03,1.22l-0.79,2.65l-0.66-0.08l-1.41,0.42l-1.54,0.68L178.69,91.48z M181.74,85.13l-0.3-0.19l-0.12,0.34l0.63,1.07
	l0.1-0.51L181.74,85.13z M182.52,86.22l-0.16-1.14L182,83.64l-0.49-1.33l-0.26-1.75l-0.2-0.34l0.26,1.75l-0.05,0.48l0.54,2.32
	l0.39,0.95L182.52,86.22z"/>
<path class="st3" d="M507.76,73.43l-3.7,3.07l-11.93,9.27l-12.46,9.1l-15.19-20.17l10.67-7.74l8.64-6.74l7.5-6.07l4.12,4.76
	L507.76,73.43z"/>
<path class="st4" d="M303.53,81.42l1.25,1l0.54,0.28l1.32-0.19l0.19,0.1l0.2,0.21l0.65,0.01l0.6,0.41l0.24,0.7l0.94,0.94l0.85,1.79
	l1.88,1l-0.16,0.28l0.65,0.01l0.24,0.12l0.39,0.99l0.31,0.12l0.83-0.11l0.23,0.15l-0.41,1.12l0.23,0.33l-0.35,0.25l-0.02,0.35
	l0.83,0.57l0.75-0.23l0.59,0.44l-0.15,0.46l-1.88,1.51l0.39,1.63l0.53,0.17l-0.43,0.78l-0.62,0.19l-1.31-0.02l-0.52-0.26l-0.04-0.3
	l-0.34-0.21l-0.78,0.21l-0.82-0.1l-1.53,0.19l-1.09,1.16l-3.06,1.09l-0.71-0.22l-1.63-1.83l-0.58-0.15l-0.11-0.49l-0.35-0.18
	l-0.84,0.57l-0.65,0.74l-0.2,1.12l-0.82,0.04l-0.42-0.43l-0.76-0.14l-3.6,1.24l-0.75,0.41l-1.98-0.12l-1.65-0.41l-0.79-0.9
	l-0.08-0.29l-0.61-0.34l-0.35,0.07l-0.25-0.49l0.11-0.59l0.06-0.29l-0.17-0.44l-0.65-0.33l-0.39-0.81l-0.06-0.21l-0.93-0.51
	l-0.52,0.06l-0.23,0.24l-0.6,0.09l-0.93-0.83l0.24-0.95l0.37-0.67l0.16-1.42l-0.33-0.78l-0.64-0.36l-0.18-0.49l-0.67-0.8l-0.72-0.33
	l-1.38,0.3l-0.19,0.33l-0.44,0.1l-0.4-0.28l-0.72,0.24l-0.74,0.52l-0.09-0.22l6.31-13.22l1.26,0.61l1.77-0.31l1.3,0.23l1.11-0.01
	L303.53,81.42z"/>
<path class="st5" d="M300.88,37.69l1.46-0.02l11.76-8.87l0.28-0.24l-12.55-15.35l-0.78,0.3l-0.86-0.89l0.48-0.86l-8.85-10.81
	l-16.45,10.12l-0.6,2.67l-5.84-2.49l-1.44,2.86l8.18,4.17l2.44,1.36l0.47,0.9l4.85,1.38l0.72,1.62l2.93,2.8l1.24,2.37l6.12,4.82
	l2.65,2.77l1.7,0.7l0.33,1.9L300.88,37.69z"/>
<path class="st6" d="M349.39,74.68l0.25-0.47l-0.22-0.38L349.39,74.68z M348.57,59.39l-0.35,0.11l-0.18,0.51l-0.33,0.31l0.23,0.58
	l-0.41,0.65l-0.22,1.01l-0.41,2.19l0.27-0.07l0.15-0.82l0.14-0.88l0.22,0.24l-0.2,1.12l0.15,0.49l-0.29,0.39l-0.13,1.89l-0.23-0.15
	l-0.07-2.07l-0.05,2.14l0.35,1.05l-0.29,0.53l0.04,2.2l0.32,1.75l0.1,1.51l0.18,0.6l0.4-0.56l-0.18-0.6l-0.18-0.22l-0.04-0.46
	l0.53-0.04l0.04-0.79l-0.27-0.23l0.26-0.27l0.19,0.36l0.49-0.26l-0.16-0.4l-0.29,0.24l-0.21-0.04l-0.1-0.21l-0.55-1.03l0.41-0.64
	l0.39,0.69l0,0.44l0.49,0.46l0.22,0.82l0.07,0.48l-0.09,0.66l0.32-0.37l-0.14-0.43l0.15-0.24l-0.02-0.54l-0.28-0.28l-0.21-1.2
	l-0.21-0.33l0.01-0.67l1.03-3.04l-0.34-0.12l-0.04-0.46l0.33-0.75l0.41-0.22l-0.32-0.3l0.37-0.29l-0.35-0.18l0.29-0.39l0.1-0.52
	l-0.32-0.3l0.22-0.34L349.6,62l0.15-0.24l-0.37-0.14l0.26-0.7l-0.43-1L348.57,59.39z M348.87,59.2l0.21-0.63l-0.32-0.21l-0.37-0.58
	l-0.36,0.06l0.23,1.31l0.31,0.15L348.87,59.2z M382.07,75.94l-0.49-0.61l-0.59,0.29l-0.4-0.45l-1.15-0.51l-1.22,0.26l-0.63-0.6
	l-0.78-0.22l-0.24-0.35l-1.18-0.91l-2.85-0.36l-0.41-0.66l-0.91-0.16l0.33,0.65l-0.9,0.33l-5.27-1.98l-0.54-0.6l-0.56,0.16
	l-4.78-3.35l-0.48,0.03l-5.92-2.5l-0.88,0.3l-0.36-1.92l-1.08,0.11l-0.8-1.15l-0.23-0.87l-0.43-1l0.27,0.08l1.84,1.39l4.73-3.96
	l0.7-0.31l0.31-0.71l1.36-0.56l2.54,0.21l0.43-0.68l0.58,0.18l0.72-0.35l10.62-27.07l2.13,1l0.35,2.3l0.43,0.57l-0.02,1.86
	l0.65,0.72l0.16,1.21l0.19,0.51l1.44,0.12l0.53-0.48l1.36,0.02l1.09,0.61l-0.36,3.43l-1.24,3.15l-0.95,1.5l-1.21,0.76l-0.16,0.33
	l0.13,0.95l-0.5,1.31l-0.64,1.02l-0.13,1.17l0.31,1.41l0.5,1.48l-0.28,0.73l-0.07,0.48l0.96,0.81l1.18,0.09l0.49-0.26l-0.01,0.96
	l0.61,0.35l0.32-0.51l0.95-0.49l1.03,0.62l0.66,3.41l0.63,0.75l1.26,2.6l0.82,3.38l0.1,1.08l-0.57,0.84l-2.73,8.15L382.07,75.94z"/>
<path class="st7" d="M380.45,7.68l-0.65-0.16l-0.57-0.45l-0.92-0.1l-5.19,3.41l-9.93,6.37l-9.73,5.62l0.77,0.18l0.19,0.57l1.58,0.87
	l2.82,1.41l1.73,0.44l0.88-0.22l0.12-0.56l1.02,0.42l0.22,0.45l-0.45,1.52l0.31,0.94l1.47,0.35l1.98,1.12l1.35-0.45l10.54,17.18
	l2.4,3.84l14.5-8.79l14.48-9.41l1.14,0.55l0.48,0.79l-0.32,0.91l0.05,2.44l4.02-2.73l-0.06-0.94l0.34-0.44l-0.15-0.25l-0.69-0.13
	l-0.44-0.23l0.68-0.3l0.15-0.43l-0.85-0.23l0.41-0.49l-0.18-0.38l-0.44-0.23l-0.28-0.47l-0.41-0.1l-0.14-0.4l0.41-0.24l0.41,0.1
	l0.1,0.43l0.45,0.08l0.09-0.53l-0.2-1.19l0.72,0.02l0.18-0.29l-0.43-1.73l-0.59-0.14l-0.06-0.94l-0.12-0.36l-0.66,0l-1.05,0.61
	l-0.85-0.23l-1.49-0.97l-0.41-0.69l0.17-0.39l-0.24-0.49l-1.05-0.31l-0.88-0.7l-1.9-0.89l-2.08,0.58l-4.3-0.94l-0.67-0.77
	l-0.59-3.34l-0.56-0.59l0.21-0.66l-0.28-0.47l-1.37,0.07l-1.27,0.4l-1.02,1.17l-0.98-0.55l-0.18-0.81l-0.78-0.71l-5.03-1.14
	l-1.14-0.06l-2.2-1.57l-1.61-1.68l-0.28-1.64L380.45,7.68z"/>
<path class="st8" d="M48.79,44.8l15.18-6.06l13.27-5.8l-2.4-5.07L66.81,11.7l-13.92,6.07l-14.41,5.7l-17.93,6.18l1.89,5.76l1.94,1.2
	l0.28,1.33l1.55,0.62l0.56-0.1l2.11,1.39l0.29,0.49l0.98,0.38l0.22-0.12l0.64,0.29l0.79-0.44l0.22,0.37l0.63,4.92l0.45,1.02
	l0.41-0.08l0.75,0.38l0.49-0.71l0.55-1.05l0.73,0.18l0.47,0.51l0.32,0.81l1.97,1.9l1.13,0.45l0.76,0.01l0.52,0.64l0.57,0.95
	l0.89,0.22l0.07-0.75l1.92-0.58L45,49.06l2.45-0.85l0.23-1.15l0.36-0.39l0.54,0.25l0.97,0.73l0.23-0.1L48.79,44.8z"/>
<path class="st9" d="M256.65,18.3l-1.01,0.76l0.42,0.81l-0.42,1.63l0.39,1.17l0.34,0.16l0.21-0.39l-0.05-0.66l0.61-0.73l-0.01-1.8
	l1.2-0.97l-0.18-1.34l0.14-0.44l-0.16-0.84l0.53-0.69l-0.22-0.55l0.25-0.49l0.56-0.19l0.3,0.73l-0.37,0.2l0.37,0.36l0.06,0.92
	l-0.22,0.13l0.21,1.84l-0.2,0.3l-0.01,3.09l0.51,1.59l0.53,0.64l0.23,0.46l-0.65,1.08l0.4,0.65l0.12,1.28l0.36,0.54l0.71,1.29
	l0.19,1.68l0.17,2.07l0.61,0.39l-0.07,0.16l0.56,0.5l-0.03,0.48l0.56,0.15l0.4,0.99l0.73,0.34l0.29,1.16l0.72,1.42l-17.43,8.42
	l-0.93-0.82l-1.39,0.27l-1.27-0.11l-1.61-1.69l-0.34-0.93l0.12-1.47l-0.4-0.31l-1.05-0.25l-0.47-0.92l-1.1-1.47l-0.53-1.07
	l-1.31-0.75l-1.19,0.19l-2.56-0.48l-0.73-1.11l-2.91-0.12l-0.27-0.44l-1.29,0.53l-1.25-0.6l-0.97-0.15l-0.49-1.98l-0.59-0.44
	l-0.62-2.06l0.12-0.82l-0.52-0.94l-0.66-0.28l-0.74,0.18l-0.26-0.62l0.22-2.58l1.71-2.38l-2.11-4.69l0.41,0l0.16-0.28l-0.12-0.42
	l0.26-0.36l0.72,0.21l0.26-0.15l1.01-0.42l2.25-2.05l-0.03-0.42l0.47-0.2l0.09-0.55l0.28,0.23l0.56-0.62l0.44-0.91l0.19,0.13
	l0.24-0.53l1.1,0.23l-0.07,0.72l-0.26,0.7l0.42,0.47l-0.3,0.81l0.29,0.26l0.73-0.77l-0.21-0.51l1.57,0.16l0.84-0.05l0.84-0.05
	l1.74,0.91l7.18-1.34l0.69,0.14l1.67-0.35l0.35,0.07l1.06-0.52l2.02-0.5l0.77,0.32l-0.24,0.53l0.43,0.16l1.58-0.36l0.65,0.25
	l0.7,1.59l-0.09,1.24l0.79-0.28l0.27-0.46l0.47,0.15l0.04,1.31l0.63,0.42l0.51-0.08L256.65,18.3z M231.8,12.61l-0.18,0.11
	l-0.34,0.83l0.15,0.15l0.49-0.46l-0.09-0.22l0.3-0.26L231.8,12.61z M232.26,11.95l-0.35,0.27l0.03,0.29l0.34-0.18L232.26,11.95z
	 M231.52,11.58l0.06,0.36l0.66-0.27l0.17-0.24l-0.11-0.38L231.52,11.58z M232.16,10.03l0.17,0.74l0.39-0.37l-0.17-0.53L232.16,10.03
	z M259.62,12.32l-0.73,0.43l0.04,0.54l0.76,0.41L259.62,12.32z"/>
<path class="st10" d="M283.03,49.06l0.38,0.44l6.63-6.57l-0.12-0.52l-0.08-2.95l-1.05-1.43l-0.23-0.9l0.57-0.82l-1.21-3.1l0.23-0.42
	l0.5-0.05l0.08,0.25l-0.19,0.54l0.33,0.22l0.38-0.07l0.32-0.94l-2.25-3.36l-1.12-0.36l-1.33-0.93l-0.61-0.83l-1.88-0.88l-0.44-0.6
	l-1.23-0.8l-1.54-0.42l-1.26,0.4l-0.95,2.21l0.25,2.16l0.15,0.35l-0.19,1.92l-0.57,0.31l-1.7-0.2l-0.87-1.11l0.06-1.01l0.65-0.57
	l0-0.87l-0.91-1.38l0.09-0.47l0.36-0.31l-0.1-0.79l-2.42-3.14l-0.42-0.36l-0.71-0.09l-0.84,0.1l-0.48-0.57l0.1-0.38l0.83-0.19
	l-0.52-0.49l-1.33-0.42l-0.63-0.36l-0.66-0.09l-0.77,0.56l-3.55,1.08l-0.91-0.21l-1.16,0.68l-0.35,0.4l-2.1,0.35l-0.49,0.35
	l0.42,0.2l-0.97,0.65l0.18,0.17l0.36,0.05l-0.36,1.33l0.48,0.57l1.09,0.38l0.57-0.31l0.15,0.2l-0.41,0.54l-0.76,0.5l-0.37,1.54
	l0.65,0.81l1.56,1.83l0.06,1.69l-0.82-1.7l-0.43,0l0.98,1.99l-0.91-0.51l-0.39-0.89l-0.42-0.2l-0.11-0.58l-0.48-0.22l0.1-0.58
	l-0.29-0.4l-0.31,0.53l0.3,1.36l-0.08,0.41l0.13,1.13l-0.64,0.36l0.26,0.43l-0.56,0.4l0.44,0.45l0.56,0.62L257,36.32l0.35,0.41
	l0.76,0.31l1.24,1.76l0.62,1.79l0.02,1.26l0.76,0.16l1.14,0.96l0.26,1.08l0.45,0.75l1.43,0.7l2.07,1l0.88,0.33l2.25,1.89l2.12,2.95
	l0.64,1.52l0.08,1.57l0.59,1.46l0.03,1.5l-0.18,0.63L283.03,49.06z M225.83,41.04l1.98,0.51l6.88-3.03l0.73-0.02l1.6-0.74l0.37-0.01
	l0.93-0.77l1.91-0.97l0.86,0.15l-0.1,0.58l0.47,0.07l1.5-0.73l0.71,0.09l1.11,1.44l0.23,1.26l0.72-0.47l0.16-0.52l0.51,0.04
	l0.37,1.31l0.74,0.28l0.49-0.2l-0.16-0.8l-0.11-2.26l-0.91-2.4l0.31-1.25l-0.57-0.4l-0.04-0.43l0.74,0.28l0.43,0.81l0.48-1.46
	l-0.49-0.82l0.88-0.33l-0.11-0.74l0.39,0.02l0.12,0.68l-0.23,0.42l0.14,0.92l0.93,0.25l0.26-0.45l-0.35-0.11l-0.02-0.75l0.25-1.05
	l0.28-0.2l-0.57-0.92l0.26-1.1l2.64-2.16l-0.09-1.51l1.26-1.06l1.62-0.56l2.13-0.16l0.19-0.24l-0.93-1.11l0.19-0.24l1.85-0.77
	l0.48-0.45l0.84-0.96l0.69-0.29l0.65-0.42l-0.27-0.36l-0.47-0.12l-0.57,0.31l-0.58,0.01l-0.17-0.59l-0.35,0.1l-0.88,0.69l-0.28-0.31
	l0.19-0.54l0.41,0.11l-0.26-0.72l-0.42-0.06l0.19-0.24l-0.81-0.08l-0.21-0.51l-0.43-0.66l-0.45,0.33l-0.28,0.71l-0.64,0.51
	l0.26,0.72l-0.62,0.55l-0.4-0.33l-0.75,0.59l-0.06,0.65l-0.27,0.14l-0.27-0.22l-0.81,0.79l-1.21-1.57l-0.14-0.92l-0.27,0.14
	l-0.36,0.82l-0.77,0.56l-0.67,1.86l-2.1,1.66l-1.24,1.3l-0.3,0.98l-0.17,0.79l-0.46,1.2l0.09,0.34l-0.63-0.41l-0.6,0.13l0.15,0.2
	l0.42,0.06l0.32,0.43l-0.67,0.18l-0.21,0.15l0.19,0.47l-1.16-0.13l-0.5,0.26l-0.09,0.83l-1.14,0.77l-0.52-0.34l-1.16-0.13l-0.85-0.2
	l-0.17-0.23l-0.73-0.19l-1.2,0.26l-1.18,0.8l-0.6-0.02l-0.49,0.35l-0.15,0.31l-0.23,1.28l0.02,0.54l-0.52,0.02l-0.17-0.38l-0.23-0.9
	l-0.1-2.47l0.23-0.27l0.13-1.06l-0.15-0.71l0.9-0.96l0.13-0.4l-0.28-0.31l-0.3-0.04L231.6,25l-0.58,0.67l-0.62,1.06l-0.13,0.7
	l-0.06,1.16l-0.39,0.79l-0.32,1.96l0.25,0.63l-1.47,3.4l-1.28,1.17l-0.53,0.59l-0.07,1.58l-0.46,0.69l-0.98,1.88L225.83,41.04z
	 M262.01,16.89l1.36-0.93l0.09-0.32l-0.56-0.62l-1.04-0.17l-0.64,0.51l0.09,0.19l0.48-0.14l-0.36,0.67l0.14,0.41l-0.36-0.05
	l0.05,0.37L262.01,16.89z M225.48,21.91l-0.75,0.65l-0.48,1.31l-1.19,3.55l0.53,0.13l0.7-0.36l0.49-1.37l-0.51,0.11l0.41-1.11
	l0.35-0.25l0.59-1.39l-0.25-0.27L225.48,21.91z M255.22,32.42l0.24,0.33l1.13,0l-0.66-0.75L255.22,32.42z M255.66,33.53l0.41-0.24
	l0.22,0.3l-0.35,0.25L255.66,33.53z M257.94,21.05l0.22,0.3l0.23-0.27l-0.12-0.16L257.94,21.05z M260.35,20.89l-0.3-0.34l-0.61,0.34
	l-0.31,0.02l-0.31,0.23l-0.06,0.2l0.41-0.09l0.66,0.09L260.35,20.89z M254.34,25.83l0.23,0.39l0.07,0.31l0.61,0.68l0.21,0l0.27-0.14
	l-0.04-0.43l-0.36-0.56l-0.25-0.12l-0.3-0.34L254.34,25.83z"/>
<path d="M308.88,20.04c0.2-0.43,0.35-0.9,0.55-1.33c0.2-0.43,0.58-0.61,0.95-0.41c0.2,0.12,2.78,1.59,5.02,1.2
	c2.01-0.35,3.08-1.8,2.82-3.29c-0.31-1.75-2.02-2.6-5.12-3.29c-3.2-0.73-5.8-1.87-6.4-5.26c-0.4-2.28,0.81-5.71,5.45-6.52
	c2.92-0.51,5.37,0.62,5.7,0.78c0.26,0.11,0.56,0.47,0.35,0.96c-0.17,0.39-0.36,0.85-0.54,1.24c-0.17,0.42-0.52,0.66-0.97,0.47
	c-0.22-0.08-2.5-1.07-4.2-0.77c-2.45,0.43-3.03,2.13-2.84,3.21c0.29,1.66,1.76,2.46,4.35,3.03c3.63,0.78,6.8,1.88,7.42,5.44
	c0.53,3.04-1.75,5.99-5.54,6.66c-3.56,0.62-6.14-0.85-6.68-1.21C308.91,20.75,308.67,20.58,308.88,20.04z"/>
<path d="M325.42,15.37l-1.19-0.38c-0.31-0.1-0.45-0.43-0.36-0.71l0.41-1.27c0.1-0.31,0.4-0.46,0.71-0.37l1.19,0.38l1-3.13
	c0.09-0.28,0.43-0.46,0.71-0.37l1.62,0.49c0.28,0.09,0.43,0.42,0.34,0.7l-1.01,3.16l2.88,0.92c0.31,0.1,0.46,0.4,0.37,0.71
	l-0.41,1.27c-0.09,0.28-0.4,0.46-0.71,0.37l-2.88-0.92l-1.79,5.59c-0.31,0.96,0.01,1.25,0.54,1.42c0.59,0.19,1.49,0.1,1.88,0.04
	c0.42-0.05,0.54,0.17,0.57,0.46l0.11,1.4c0.04,0.36-0.14,0.55-0.47,0.6c-0.34,0.08-2.22,0.22-3.57-0.21
	c-2.23-0.71-2.45-2.28-1.81-4.28L325.42,15.37z"/>
<path d="M335.1,24.43c1.24,0.03,2.33,0.42,2.33,0.42c0.08-1.87-0.26-2.62-1.77-2.66c-1.36-0.04-2.71,0.28-3.33,0.44
	c-0.36,0.08-0.56-0.16-0.64-0.49l-0.21-1.1c-0.08-0.39,0.13-0.59,0.4-0.67c0.21-0.08,1.91-0.63,4.11-0.57
	c3.79,0.1,4.09,2.42,4.01,5.38l-0.17,6.31c-0.01,0.3-0.28,0.56-0.58,0.55l-0.83-0.02c-0.27-0.01-0.38-0.13-0.49-0.43l-0.27-0.81
	c-0.67,0.6-1.85,1.46-3.68,1.41c-2.22-0.06-3.78-1.61-3.72-4.07C330.32,25.96,332.08,24.35,335.1,24.43z M334.59,30.11
	c1.19,0.03,2.34-0.83,2.71-1.41l0.05-1.9c-0.17-0.12-0.99-0.5-2.06-0.53c-1.42-0.04-2.42,0.68-2.45,1.89
	C332.81,29.23,333.5,30.08,334.59,30.11z"/>
<path d="M345.07,26.61l-1.24-0.01c-0.33,0-0.56-0.27-0.56-0.57l0.01-1.33c0-0.33,0.24-0.56,0.57-0.56l1.24,0.01l0.02-3.29
	c0-0.3,0.27-0.56,0.57-0.56l1.69-0.02c0.3,0,0.53,0.27,0.53,0.57l-0.02,3.32l3.02,0.02c0.33,0,0.56,0.24,0.56,0.57l-0.01,1.33
	c0,0.3-0.24,0.56-0.57,0.56l-3.02-0.02l-0.04,5.87c-0.01,1.01,0.38,1.19,0.94,1.19c0.62,0,1.45-0.35,1.81-0.52
	c0.39-0.18,0.56,0,0.68,0.27l0.52,1.31c0.15,0.33,0.03,0.56-0.27,0.71c-0.3,0.18-2.05,0.88-3.47,0.87c-2.34-0.01-3.01-1.44-3-3.55
	L345.07,26.61z"/>
<path d="M355.72,29.27c3.04-0.51,5.76,1.39,6.28,4.51c0.03,0.21,0.07,0.59,0.07,0.8c0.02,0.3-0.18,0.54-0.44,0.59l-7.95,1.32
	c0.35,1.56,1.98,2.88,3.88,2.57c1.05-0.18,1.94-0.8,2.46-1.28c0.32-0.26,0.5-0.41,0.78-0.16l1,0.98c0.24,0.2,0.37,0.42,0.07,0.77
	c-0.73,0.87-2.12,1.86-4.08,2.18c-3.54,0.59-6.34-1.8-6.9-5.16C350.35,33.08,352.22,29.86,355.72,29.27z M359.19,33.68
	c-0.32-1.39-1.69-2.39-3.12-2.15c-1.58,0.26-2.62,1.61-2.55,3.1L359.19,33.68z"/>
<path d="M284.83,66.48c0.57-0.94,1.34-1.6,1.34-1.6c-1.39-0.88-2.11-0.95-2.81,0.18c-0.63,1.03-0.97,2.19-1.12,2.74
	c-0.1,0.31-0.37,0.36-0.66,0.27l-0.93-0.33c-0.33-0.11-0.39-0.36-0.34-0.6c0.03-0.2,0.36-1.74,1.37-3.39
	c1.74-2.85,3.65-2.06,5.87-0.7l4.75,2.9c0.22,0.14,0.3,0.46,0.16,0.68l-0.38,0.62c-0.12,0.2-0.27,0.24-0.54,0.19l-0.74-0.14
	c0.17,0.78,0.31,2.05-0.54,3.44c-1.02,1.67-2.89,2.18-4.74,1.05C283.9,70.81,283.44,68.75,284.83,66.48z M288.95,69.36
	c0.54-0.89,0.39-2.15,0.11-2.69l-1.43-0.87c-0.17,0.08-0.82,0.54-1.31,1.34c-0.65,1.07-0.55,2.15,0.37,2.7
	C287.49,70.34,288.44,70.18,288.95,69.36z"/>
<path d="M289.72,58.92c-0.14-0.22-0.07-0.55,0.16-0.68l0.64-0.4c0.15-0.1,0.42-0.08,0.57,0.07l0.72,0.6
	c0.02-0.32,0.17-1.89,1.78-2.91c0.84-0.53,2-0.95,2.13-0.2l0.15,1.42c0.04,0.31-0.15,0.5-0.41,0.53c-0.17,0.02-0.56,0.14-0.85,0.32
	c-1.28,0.81-1.32,2.12-1.31,2.34l3.53,5.62c0.24,0.38,0.02,0.57-0.33,0.8l-1.06,0.67c-0.22,0.14-0.55,0.07-0.68-0.16L289.72,58.92z"
	/>
<path d="M298.48,55.42l-0.8,0.75c-0.21,0.2-0.52,0.17-0.7-0.02l-0.8-0.86c-0.2-0.21-0.19-0.51,0.02-0.7l0.8-0.75l-1.98-2.12
	c-0.18-0.19-0.17-0.52,0.02-0.7l1.07-1.04c0.19-0.18,0.5-0.15,0.68,0.04l2,2.14l1.95-1.82c0.21-0.2,0.51-0.19,0.7,0.02l0.8,0.86
	c0.18,0.19,0.19,0.51-0.02,0.7l-1.95,1.82l3.53,3.78c0.61,0.65,0.96,0.53,1.32,0.19c0.4-0.37,0.72-1.1,0.84-1.43
	c0.14-0.35,0.36-0.34,0.6-0.24l1.13,0.52c0.29,0.12,0.36,0.34,0.26,0.62c-0.08,0.29-0.78,1.8-1.7,2.66c-1.51,1.41-2.8,0.9-4.07-0.45
	L298.48,55.42z"/>
<path d="M307.2,39.14c0.05-0.86,0.74-1.5,1.57-1.46c0.86,0.05,1.5,0.76,1.45,1.62c-0.05,0.83-0.76,1.48-1.62,1.43
	C307.76,40.69,307.15,39.98,307.2,39.14z M307.13,45.42c0.01-0.26,0.26-0.48,0.52-0.47l1.49,0.08c0.26,0.01,0.48,0.26,0.47,0.52
	L309.09,55c-0.01,0.26-0.26,0.48-0.52,0.47l-1.49-0.08c-0.26-0.01-0.48-0.26-0.47-0.52L307.13,45.42z"/>
<path d="M318.21,57.1l-0.51-1.04c-0.11-0.21-0.01-0.49,0.27-0.61c0,0,1.22-0.54,1.96-1.59c0.45-0.64,0.49-1.23,0.02-1.56
	c-0.58-0.41-1.18-0.14-2.55,0.66c-1.51,0.91-3.11,1.44-4.51,0.45c-1.07-0.76-1.72-2.54-0.27-4.58c0.85-1.19,1.87-1.82,2.45-2.04
	c0.26-0.1,0.62-0.01,0.74,0.27l0.45,0.9c0.12,0.24-0.02,0.57-0.22,0.67c0,0-1.11,0.62-1.69,1.43c-0.51,0.72-0.36,1.19-0.04,1.41
	c0.55,0.39,1.17,0.03,2.12-0.55c1.79-1.07,3.35-1.88,4.95-0.75c1.32,0.94,1.6,3.03,0.25,4.92c-1.01,1.43-2.19,2-2.87,2.19
	C318.57,57.35,318.32,57.3,318.21,57.1z"/>
<path d="M325.18,46.24c0.84-0.71,1.77-1.1,1.77-1.1c-1.05-1.27-1.71-1.56-2.72-0.7c-0.91,0.78-1.61,1.78-1.92,2.25
	c-0.19,0.26-0.46,0.22-0.71,0.05l-0.79-0.6c-0.28-0.21-0.26-0.47-0.13-0.68c0.09-0.18,0.88-1.54,2.36-2.79
	c2.55-2.17,4.11-0.82,5.8,1.17l3.61,4.24c0.17,0.2,0.14,0.53-0.06,0.7l-0.56,0.47c-0.18,0.15-0.33,0.14-0.58,0.01l-0.66-0.37
	c-0.08,0.79-0.35,2.05-1.58,3.1c-1.49,1.27-3.43,1.17-4.84-0.48C322.94,50.06,323.15,47.97,325.18,46.24z M328.19,50.26
	c0.8-0.68,1.04-1.92,0.94-2.52l-1.08-1.27c-0.19,0.02-0.95,0.26-1.66,0.87c-0.95,0.81-1.19,1.87-0.49,2.68
	C326.5,50.74,327.45,50.89,328.19,50.26z"/>
<path d="M331.11,38.92c-0.06-0.26,0.12-0.54,0.38-0.59l0.74-0.16c0.2-0.04,0.39,0.05,0.48,0.22l0.5,0.8
	c0.13-0.24,1.22-1.76,3.26-2.21c3.11-0.68,4.74,1.26,5.32,3.91l1.12,5.13c0.06,0.26-0.12,0.54-0.38,0.59l-1.45,0.32
	c-0.28,0.06-0.54-0.12-0.59-0.38l-1.15-5.23c-0.36-1.63-1.34-2.35-2.67-2.06c-1.61,0.35-2.45,1.77-2.5,2.15l1.36,6.23
	c0.07,0.33-0.05,0.52-0.48,0.61l-1.33,0.29c-0.26,0.06-0.54-0.12-0.59-0.38L331.11,38.92z"/>
<path d="M319.86,62.96l-4.3-2.62c-0.29-0.18-0.36-0.54-0.2-0.81l0.9-1.48c0.16-0.26,0.52-0.37,0.81-0.2l11.34,6.91
	c0.29,0.18,0.36,0.54,0.2,0.81l-0.9,1.48c-0.16,0.26-0.52,0.37-0.81,0.2l-4.3-2.62l-9.43,15.48c-0.16,0.26-0.54,0.36-0.81,0.2
	l-1.74-1.06c-0.26-0.16-0.36-0.54-0.2-0.81L319.86,62.96z"/>
<path d="M326,69.81c0.17-0.26,0.56-0.33,0.81-0.16l0.74,0.5c0.18,0.12,0.28,0.41,0.2,0.65l-0.3,1.06c0.35-0.14,2.12-0.73,4,0.52
	c0.98,0.65,1.98,1.7,1.24,2.2l-1.46,0.85c-0.32,0.2-0.61,0.08-0.77-0.18c-0.1-0.18-0.42-0.54-0.75-0.76c-1.49-1-2.93-0.4-3.15-0.29
	l-4.36,6.52c-0.29,0.44-0.61,0.3-1.02,0.02l-1.23-0.82c-0.26-0.17-0.33-0.56-0.16-0.81L326,69.81z"/>
<path d="M337.48,74.8c3.21,0.1,5.61,2.58,5.5,5.88c-0.01,0.22-0.05,0.62-0.09,0.83c-0.04,0.31-0.29,0.52-0.57,0.51l-8.4-0.26
	c0.04,1.67,1.44,3.35,3.45,3.41c1.11,0.03,2.14-0.43,2.77-0.81c0.38-0.2,0.6-0.32,0.83-0.01l0.83,1.2c0.21,0.25,0.29,0.5-0.09,0.8
	c-0.92,0.74-2.55,1.47-4.62,1.4c-3.73-0.11-6.11-3.12-6.01-6.67C331.21,77.61,333.77,74.69,337.48,74.8z M340.13,80.01
	c-0.05-1.48-1.24-2.79-2.75-2.83c-1.67-0.05-3,1.11-3.23,2.65L340.13,80.01z"/>
<path d="M350.89,74.45c0.2-0.24,0.59-0.27,0.83-0.07l0.69,0.58c0.19,0.16,0.23,0.4,0.14,0.6l-0.39,1.04
	c0.32-0.05,2.53-0.13,4.42,1.45c2.89,2.42,2.24,5.35,0.18,7.81l-3.99,4.75c-0.2,0.24-0.59,0.27-0.83,0.07l-1.35-1.13
	c-0.26-0.22-0.27-0.59-0.07-0.83l4.07-4.85c1.27-1.51,1.23-2.96,0-3.99c-1.49-1.25-3.42-1.02-3.82-0.78l-4.84,5.77
	c-0.26,0.31-0.52,0.33-0.92-0.01l-1.23-1.03c-0.24-0.2-0.27-0.59-0.07-0.83L350.89,74.45z"/>
<path d="M373.82,79.92c0.89,1.3,1.03,2.55,1.11,2.83l7.48-5.1c0.26-0.17,0.64-0.1,0.82,0.15l1.01,1.48c0.17,0.26,0.1,0.64-0.15,0.82
	l-16.89,11.51c-0.26,0.17-0.64,0.1-0.82-0.15l-0.52-0.77c-0.16-0.23-0.08-0.5,0.12-0.75l0.6-0.71c0,0-2.26-0.25-3.64-2.27
	c-1.84-2.7-0.83-6.42,2.11-8.42C368.02,76.51,371.89,77.09,373.82,79.92z M365.34,85.78c1.06,1.56,2.82,1.44,3.18,1.38l4.16-2.83
	c0,0,0-1.31-0.9-2.64c-1.17-1.71-3.39-1.95-5.12-0.77C364.95,82.08,364.22,84.15,365.34,85.78z"/>
<path d="M372.68,95.45l1.2-0.66c0.24-0.14,0.57-0.03,0.73,0.29c0,0,0.71,1.41,1.98,2.23c0.78,0.5,1.47,0.51,1.84-0.06
	c0.45-0.7,0.1-1.41-0.91-2.98c-1.16-1.74-1.87-3.59-0.77-5.31c0.84-1.3,2.9-2.17,5.4-0.56c1.45,0.94,2.24,2.11,2.54,2.78
	c0.13,0.31,0.05,0.73-0.28,0.89l-1.04,0.58c-0.28,0.15-0.67,0.01-0.81-0.23c0,0-0.79-1.28-1.78-1.92c-0.88-0.57-1.42-0.36-1.67,0.03
	c-0.44,0.68,0.03,1.38,0.76,2.47c1.36,2.05,2.4,3.86,1.14,5.81c-1.04,1.61-3.49,2.05-5.8,0.56c-1.74-1.12-2.48-2.48-2.74-3.27
	C372.4,95.89,372.44,95.59,372.68,95.45z"/>
<path class="st79" d="M29.13,85.03l-1.18-3.2l-0.64-0.35L26.4,81.5l-1.68-0.74l-0.31-1.34L45.97,68.2l-0.73-0.81l-0.97-0.37
	l-0.49-0.51l-0.9-2.81l-2.18-2l-0.26-1.21l-0.56-1.64l0.3-2.03l-0.3-0.43l-0.97-0.11l-0.6-1.37l-1.19-0.48l-2.49-2.08L20.09,35.1
	L-0.25,45.27l0.97,0.61l11.96,28.96l8.25,13.42l0.32-0.38l0.62-0.2l0.35,0.06l0.35-0.19l0.21-2l-0.43-0.98l0.3-0.67l0.74-0.04
	l2.77,2.11l0.17,0.38l-1.11,1.55l1.54-0.82l1.96-1.59L29.13,85.03z"/>
<path class="st80" d="M169.37,37.16l-0.1-0.46l0.25-0.06l0-0.24l-0.21-0.02l-0.12-0.28l-0.28-0.02l-0.02-0.23l-0.19-0.23l-0.19,0.11
	l0.04-0.22l0.3-0.02l-0.11-0.26l-0.19-0.13l-0.06-0.12l0.39-0.13l-0.23-0.2l0.12-0.39l-0.18-0.09l-0.17,0.14l-0.2-0.08l0.05-0.25
	l0.24-0.22l-0.01-0.19l0.21-0.19l-0.11-0.12l-0.25-0.04l-0.06-0.08l0.25-0.17l-0.01-0.16l-0.34,0l-0.08-0.08l-1.75,1.41l-0.12-1.14
	l0.11-0.44l-0.25-0.35l-0.54-0.22l-6.32,4.89l-6.35,4.6l3.43,3.44l4.29,6.33l0.69,0.07l0.31-0.53l0.62-0.24l1.38,1.89l8.46-6.21
	l0.03-0.38l-0.26-0.54l-0.5-0.2l-0.33-0.3l0.07-0.22l-0.09-0.13l-0.4,0.02l-0.09-0.1l0.16-0.33l-0.32-0.04l-0.52-1.33l0.38-0.65
	l-0.09-0.13l-0.34-0.1l-0.13-1.2l0.31-0.22l0.11-0.36l-0.64-0.8l0-1.08l0.23-0.3l-0.43-0.44L169.37,37.16z"/>
<path class="st81" d="M129.29,44.77l-0.24-1.39l-0.7,0.1l0.25,1.47L129.29,44.77z M139,40.02l0.73-1.95l-0.27-2.05l-0.61-0.41
	l-0.48,0.83l0.13,1.74l-0.5,1.25l-0.1,0.94l-3.78,1.92l-0.5,0.75l-1.1,0.34l-0.22,0.78l-1.04,0.67l-0.61-2l0.25-0.62l-0.77-0.3
	l-0.04-1.25l-1.25,1.03l-0.28-1.63l1-0.4l-1.71-0.08l-0.72-0.56l0.16-1.11l-0.78-0.38l-0.38,1.4l0.55,0.58l-0.52,0.58l-0.88,0.56
	l-1.88-0.55l-0.34-0.96l-1.03-0.77l-1.46-1.2l1.19-0.85l-0.95-0.36l-0.13-0.74l0.38-0.9l1.44-0.47l-1.31-0.3L121,32.95l-1.14,0.09
	L119.67,34l-0.48,0.32l-0.4-2.79l0.73-0.95l0.79,0.47l-0.14-1.32l-0.99-0.6l-0.63,1.02l-0.67,1.28l-0.66-0.73l-0.17-1.99l0.64-0.94
	l0.91,0.61l0.94-0.73l-0.59-1.34l-0.73,0.95l-1.08-1.59l-0.42-1.37l0.62-2.1l0.76-1.29l1.19-0.35l-0.55-0.58l0.35-0.55l-0.36-0.53
	l-0.13-1.74l-1.25,0.52l-0.54,1.01l1.06,0.93l-1.75,3.28l-0.84-0.21l-0.48,0.83l-0.21,1.88l-1.5,0.65l1.21,0.32l1.31,0.89l-0.08,0.6
	l0.95,0.86l-0.82,0.96l0.48,0.18l-0.25,1.13l0.3,1.72l-0.25,1.13l0.94,0.78l1.09,2.68l1.33,0.97l1.59,0.93l0.75,2.24l1.68,1.42
	l0.54,1.09l0.14,0.82l-0.61,0.09l-1.47-0.78l-0.32,0.22l-1.07,0l-1.67-0.92l-1.26-0.06l-0.8,0.54l-1.09-0.08l-0.32,0.22l-1.59-0.43
	l-1.01-0.69l-1.06-0.93l-0.55-0.09l-0.6,0.68l-1.21,1.27l-1.07-0.51l-0.67-1.83l0.4-1.82l-0.33-0.37l0.2-0.37l-0.75-0.72l0.86-0.21
	l0.74-0.87l0.09-1.52l1.11-2.35l-2.51-1.13l-0.63,1.52l-0.61-0.41l-0.87,0.13l-0.54-0.01l-0.41-0.27l0.02-0.42l-1.56-0.27
	l-0.65,0.35l-1.06,0.08l-0.71-0.48l-0.47-0.1l-0.27-0.55l0.41-0.73l-0.13-0.74l-1.07,0l-0.99-0.6l-0.77,0.2l-1.43-0.03l-0.84-0.21
	l-0.05-1.33l-0.94-0.28l-0.27-0.55L93,27.5l-0.87-0.88l0.03-0.85l-2.21,0.67l-2.14-1.02l-1.18,0.43l-0.59,1.26l-1.13,0.17
	l-1.07,2.59l-2.81,0.77l-1.79-0.56l-1.73,3.45l-1.96,0.05l-2.14,3.6l-0.55,1.43l-1.34,1.55l-3.09-9.09l50.95-17.66l10.45,21.13
	l9.16-3.33l0.75,4.33l0.35,2.55l-0.61,1.6L139,40.02z M127.09,40.33l-1,0.91l0.95,1.36l1.59,0.43l-0.58-1.25L127.09,40.33z"/>
<path class="st82" d="M8.31,3.69L7.33,3.98L6.35,3.36l-1.2,1.33l0.75,4.48l1.35,1.45l-0.2,2.71l2.13,1.66l0.01,1.29L9.5,17.2
	l-0.46,1.7l-1,0.53l-0.22,1.04l-1.43,1.08l-0.26,1.2l1.71,2.21l0.08,1.89l0.66,0.99l-0.42,1.54l0.66,1.3l-0.65,1.59l0.56,1.55
	L8.4,34.73l1.37,3.12l0.82,0.96l0.1,1.96l1.03,1.14l0.31,1.84l-0.14,1.02l0.18,1.02l2.09,1.52l13.45-5.87l0.49-1.25l-0.08-1.28
	l1.35-0.76l0.18-0.88l1.11-1.08l1.05-0.01l-0.27-3.59l-2.03-0.62l-1.02-1.45l-2.83-0.89l-1.2-2.78L8.39,2.37L8.31,3.69z"/>
<path class="st83" d="M68.16,70.2L60.6,83.75l2.04,2.18l2.13,0.27l4.58,3.85l2.02-1.18l1.78,1.02l0.76,1.15l3.55,0.11l1.39-2.5
	l2.88-0.52l1.47-1.88l3.89-3.6l1.84,3.68l1.89,1.95l2.52,2.27l0.26,1.67l1.36,1.66l1.91,1.35l1.95,0.64l1.02-0.63l2.28-0.01
	l0.81-1.08l1.91-2.11l1.12-1.64l1.08-1.44l1.07,0.09l0.26-0.77l-0.93-1.28l0.54-0.72l0.6-2.03l2.74,0.68l2.43,0.22l-0.32-1.88
	l-3.44-2.12l-4.28-2.37l-2.11-3.32l-3.23-1.17l-1.27,0.39l-2.45-2.15l-1.15-0.2l-1.19,0.51l-2.35-1.63l-3.5-0.3l-7.97-0.77
	l-1.57,0.95l1.34,0.23l0.67-0.39l-0.22,1.08l-0.5,0.53l-0.45,1.25l0.4,0.99l-1.77,0.91l-1.49-0.97l-0.96-0.17l-0.34-1.79l-1.85-1.14
	L68.16,70.2z"/>
<path class="st84" d="M167.33,44.58l-0.22-0.11l-15.13,25.11l-8.6-4.91l-9.2-5.52l-0.47,0.75l0.27,0.84l-8.13-5.17l-1.72,2.5
	L120,55.42l21.02-30.38l13.94,8.7l13.91,8.13L167.33,44.58z"/>
<path class="st85" d="M98.7,44.61l-0.59,0.71l0.14,0.48l-0.53,1.46l-0.26,0.27l0.09,2.92l0.21,0.86l-0.96,4.16l0.09,0.88l-0.62,1.66
	l0.3,2.44l-0.39,1.72l-0.21,0.6l-9.4-2.95L72.04,54.8l-12.29-4.61l7.32-18.98l13.94,5.26l17.55,5.78L98.7,44.61z"/>
<path class="st86" d="M47.65-2.63l-3.23,2.01l-4.65,4.64l-4.89-0.26l-0.63,1.71l-5.78-0.32L27.39,20.4l27.23,1.75l1.9,1.62l3.93,0.4
	L57.61,9.72l-5.95-2.3l-2.24,1.15l-0.89-1.27l-2.69-0.7l-2.11,1.43l0.14-2.84l-3.92,0.81l2.82-3.35l3.05,0.34l2.96-0.65l-2.71,2.43
	l4.28-1.16l2.18,1.48l-2.68,0.51l5.03,1.74l-1.34-1.91l2.12-0.22l-2-3.82l-5.18-1.32l7.33-0.83l-1.02-2.76L47.65-2.63z M68.48,15.89
	l0.71-1.92l-0.81-1.48l-3.24,0.8l0.86,1.98L68.48,15.89z"/>
<path class="st87" d="M42.38,85.72l12.84-11.75l6.23-6.15l-1.1-1.43l0.12-0.7l0.48-0.32l0.18-0.56l-0.71-1.36l0.69-1.93l0.97-0.98
	l0.36-1.49l-0.13-0.46l0.86-1.78l-0.6-1.11l0.44-1.87l0.29-0.13l0.38,0.41l0.43,0.04l0.18-0.69l-0.27-0.76l0.48-1.53l1.04-0.29
	l-0.48-2.05l0.15-0.67l0.48-0.32l-1.2-1.49l-0.07-0.27l-1.27,1.21l0.17,0.33l-7.94,7.65l-1.37,1.7l-5.85,5.16l-1.38,1.43l-5.01,4.32
	l-0.6,0.83l-6.35,5.82l-0.35-0.01l-1.12,0.86l1.1,0.64l0.03,0.4l-6.67,5.84l-0.01,0.47l-0.4-0.01l-0.3,0.23l0.3,0.37l0.41,0.15
	l0.2,0.31l-0.31,0.47l0.77,0.11l-0.08,0.39l-0.56,0.34l0.41,0.15l0.62,0.04l0.16,0.2l-0.25,0.42l0.16,0.8l0.17,0.15l0.65-0.04
	l0.04,0.29l-0.45,0.35l0.11,0.14l0.48,0.05l0.22,0.21l-0.38,0.38l0.03,0.34l-0.44,0.43l-0.06,0.47l0.39,0.12l0.31-0.28l0.36,0.14
	l-0.18,0.75l0.47,0.34l-0.74,0.29l0.13,0.22l0.37,0.22l0.23,0.47l-0.58,0.07l-0.06,0.42L30.36,92l0.38,0.41l0.05,0.43l0.54,0
	l0.26,0.5l0.4,0.01l0.02,0.45l-0.48,0.13l0.24,0.84l-0.32,0.57L42.38,85.72z"/>
<path class="st88" d="M160.12,55.48l-0.43,1.92l1.32,1.36l-0.14,0.93l0.12,0.69l-0.51,1.18l-0.76,0.29l-0.27,0.72l-1.12,0.65
	l-0.31,0.84l0.96,1.72l-0.15,1.36l0.36,0.77l-0.46,1.07l0.32,0.99l-0.63,1.08l0.23,1.16l-0.33,0.62l0.63,2.35l0.47,0.75l-0.14,1.41
	l0.6,0.9l0.02,1.34l-0.21,0.72l0.02,0.75L161,82.3l-6.79,2.15l-0.67-0.47l0.17-1.09l-2.41-7.36l-1.14-0.69l-0.42,0.9l-0.62-1.11
	l0.35-1l-2.08-3.38l-0.03-2.04l0.17-0.55l-0.44-1.03l0.11-1.19l-1.35-1.09l-0.44-1.67l0.14-0.82l-0.83-0.4l0.24-1.04l-0.54-0.86
	l14.9-5.25L160.12,55.48z"/>
<path class="st89" d="M79.97,82.11l-0.74,1.12l0.12,0.52l0.27-0.44l0.63-1.27L79.97,82.11z M65.3,76.2l-0.22-0.49l0.45,0.04
	l0.52-0.31l0.34-0.75l-0.04-0.23l0.09-0.21l-0.07-0.33l-0.22-0.26l-0.17-0.08l-0.18-0.22l-0.21-0.31l-0.44-0.08l-0.26-0.09
	l-0.14-0.21l0.09-0.21l-0.7-0.4l-0.38,0.06l-0.52-0.14l-0.25-0.36l-0.2-0.13l-0.03-0.32l0.34-0.29l0.08-0.39l-0.51-0.19l-0.36-0.47
	L61.9,69.8l-0.68-0.26l-0.24,0.27l-0.32,0.66l-0.43,0.95l-3.95-3.08l-0.17,0.37l0.25,0.77L55.8,70.4l-0.22,1.26l-0.6,0.24
	l-0.41,0.86l-0.47,0.27l-0.78,0.66l-0.47,0.27l-0.67,1l-0.96-0.68l-1.78,3.48l-0.72,0.58l-1.19-0.45l-0.4-0.93l-0.95-0.49
	l-0.47,2.02l-0.77,0.61l0.04,0.68l-1.13,0.77l0.01,0.85l-2.21,2.41l-0.74,1.34l0.55,0.64l-0.83,0.69l-0.08,0.61l-1.2,0.67
	l-0.21-0.54l-2.18,0.98l-0.57-0.56l-0.39,0.55l0.31,0.28l-0.3,0.35l-2.65,0.57l-1.16-1.03l-0.51,0.66l-1,0.62l-1.03-0.15l-1.74-1.36
	l0.09-0.65l-0.6-0.43l0.46-0.45l-0.26-0.32l-2.76,2.44l-1.37,0.19l-1.6,1.04l-0.37,0.92l-1.05,0.39l-0.2,0.72L19.5,92.5l-0.84,0.06
	l-0.39,0.78l-0.48,0.09l-3.43,1.23l13.08,0.99l0.18-0.41l2.08,0.17l-0.2,0.28l13.32,0.95l18.08,0.14l13.42-0.2l-0.16-0.57l0.18-0.01
	l0.32,0.46l0.08-0.61l0.04-0.84l0.6,0.65l0.21,0.98l0.12-0.56l-1.01-2.66l0.11-0.52l-0.24-0.4l-0.64,0.19l0.09,0.65l-0.35-0.07
	l-0.09-0.46l-0.35,0.34l-0.3-0.55l-0.92-0.22l-0.15,0.29l0.47,1.03l-0.56-0.42l-0.13-0.47l-0.25,0.31l-0.36-0.02l-0.82,0.61
	l0.28-0.67l0.13-0.6l-0.6-0.43l-0.75-0.36l0.06-0.75l-0.15-0.61l-0.37,0.43l-0.66-0.57l-0.91-0.04l0.17-0.37l0.68,0.04l0.35,0.29
	l0.83-0.2l0.36,0.25l0.13,0.47l-0.06,0.3l0.8,0.33l0.05,0.41l0.36,0.25l0.29,0.59l0.76-0.57l0.27,0.05l0.15-0.91l-0.67,0.32
	l-0.19-0.44l0.68,0.04l-0.45-0.49l-0.59,0.16l0.11-0.74l-0.77-0.05l-0.87-0.66l-0.6-1.1l1.39,1.25l0.37,0.2l0.83-0.2l-0.67-0.53
	l0.32-0.21l-0.4-0.3l0.37-0.02l-0.05-0.41l0.4,0.48l0.25-0.31l0.06,0.59l0.46,0.45l0.31-0.16l-0.17-0.3l0.18-1.09l-0.48-0.13
	l-0.63-0.48l0.5-0.4l-0.88-0.21l-0.13-0.25l-0.67,0.14l-0.55-0.46l-0.11-0.56l-0.82-0.69l-0.77-0.95l-0.8-1l1.21,0.81l0.29,0.59
	l0.87,0.48l0.79,1.27l0.24-0.72l0.15,0.61l0.97,0.41l0.36-1.72l-0.25-0.54l0.45,0.27l0.19-0.68l-1.25-0.86l-0.69-0.22l-0.56-0.2
	l0.24-0.49l-0.63-0.25l0.01-0.27l-0.8-0.15l-0.16,0.33l-0.22-0.49l-1.2-0.23L67,80.19l0-0.45l-0.47-0.36l-0.04-0.68l-0.23-0.22
	l-0.41,0.42l-0.42,0.01l-0.46,0.23l-0.66-0.13l-0.28-0.64l0.46-1.3l0.44-0.99l0.22,0.26L65.3,76.2z M73.94,83.03l0.41,0.03
	l0.05-0.26l-0.36-0.02L73.94,83.03z M75.97,89.79l-0.69,1.08l0.65-0.46L75.97,89.79z M76.56,83.04l0.28,0.19l-0.26,0.8l-0.18-0.26
	l-0.67,0.32l0.41,0.26l-1.19,1.75l-0.69,3.5l0.56,1.5l0.36-0.6l0.42-1.13l0.07-1.02l0.39-0.33l0.04-0.62l0.59-0.16l-0.22-0.26
	l0.28-0.26l0.25,0.54l-0.19,0.46l-0.53,1.65l0.68-0.86l0.46-1.3l0.31-1.29l0.05-0.89l0.47-0.94l0.65-0.69l0.24-0.94l0.21-0.36
	l-2.18,0.31l-0.38,0.29L76.56,83.04z"/>
<path class="st90" d="M150.97,60.78l-0.4-0.66l-0.39,0.24l0.07,0.14l0.08,0.06l0.08,0.17l0,0.18l-0.07,0.09l0,0.13L150.97,60.78z"/>
<path class="st91" d="M227.65,63.27l-1.29,0.51l-0.66,0.05l-0.39,0.79l0.45,0.71l0.79,0.35l0.64,1.31l-0.5,0.55l-0.49-0.13
	l-0.76-0.8l-13.99,9.86l-2.05-1.11l-13.28,10.14l0.38,0.91l1.24,0.35l0.62-0.11l0.48,0.18l1.21,2.14l-0.21,0.37l0.22,0.02l0.24-0.26
	l0.06-0.35l2.57-2.64l2.59-1.78l2.7-0.91l3.38-0.1l0.84-0.2l1,0.18l0.46,0.78l0.7-0.43l0.37-0.62l0.75-0.42l0.44-0.58l0.48-1.08
	l0.38-1.37l0.25-0.31l0.26,0.04l0.41-0.25l0-0.32l-0.36-0.25l-0.28-0.06l-0.09-0.26l0.38-0.67l1.38-1l0.41,0.14l0.31-0.15l0.85-0.13
	l1.2-0.02l0.66,0.27l0.54,0.14l1.07-0.1l0.44,0.68l1.16,0.04l0.31-0.15l0.72,0.11l0.5,0.33l0.33-0.12l0.61,0.45l0.31,0.05l0.09-0.49
	l0.86-0.49l0.4,0.31l0.48,0.06l0.24,0.37l1.24,0.11l1.8,2.68l0.53,1.96l0.51,0.16l0.56,1l0.02,0.54l0.42,0.21l1.09,0.24l0.36,0.37
	l0.41,0.14l-0.46-0.47l0.27-0.4l-0.42-1.16l-1.09,0.19l-0.08-0.19l0.68-0.58l0.73,0.58l0.43-0.03l-0.34-0.58l0.38-0.11l0.32,0.12
	l0.1,0.22l-0.08,1.71l0.14,0.35l-0.15,0.84l0.2,0.31l1.77,0.42l2.98,1.29l0.91,0.27l0.33,0.51l1.65,0.81l0.78-0.24l-0.01-0.47
	l-0.56,0.46l-1.69-0.74l-0.2-0.43l0.29-0.49L244,86.94l-0.41-0.26l0.1-0.41l0.28,0.18l0.3,0.02L245,87.6l-0.46,0.04l-0.07,0.4
	l0.7,0.2l0.76,0.56l0.24-0.39l0.89-0.07l1.01,0.25l1.39,1.16l1.77,0.81l0-0.51l0.72-0.64l1.17-0.2l0.4,0.43l1.65,0.49l0.23,0.29
	l1.13,0.37l-0.11,0.27l0.49,0.77l1.04-0.08l0.44-0.27l0.46-0.99l0.49-0.18l0.39-0.08l0.36-0.89l-0.07-0.23l0.4-0.13l0.39-0.91
	l-0.04-0.88L260,86.38l-0.3-0.33l-0.41-1.33l0.14-0.16l0.46,0.35l-0.09-0.65l-1.54-1.9l-2.02-2.9l-1.53-1.75l-0.51-0.36l-3.94-1.97
	l-3.17-1.65l-1.24-0.54l-1.03-0.79l-0.68-0.93l0.21-0.25l-0.16-0.25l-0.72-0.43l-1.89-0.42l-3.98-1.39l-3.55-1.93l-3.2-2.27
	l-0.85-0.94l-0.53-0.07l-0.83-0.99L227.65,63.27z M254.75,99.72l0.48-0.33l-0.38-0.16L254.75,99.72z M256.68,98.1l-0.13-0.2
	l0.43-0.34l0.48-1.59l0.33-0.44l0.53-0.68l0.32,0.31l0.64-0.08l-0.54,0.8l-0.7,0.43l-0.68,1.4L256.68,98.1z M260.31,92.89
	l-0.62,0.93l-0.06,0.55l0.34-0.17L260.31,92.89z M260.88,91.39l-0.27,0.28l-0.04,0.82l0.28-0.25l0.15-0.72L260.88,91.39z
	 M260.45,85.46l0.52,1.89l-0.05,0.43l0.18,0.92l-0.06,0.67l0.11,0.61L261,90.93l0.16,0.25l0.28-1.28l0.06-1.42l-0.19-0.67
	l-0.28-1.76L260.45,85.46z"/>
<path class="st92" d="M561.78,46.58l1.46-0.7l0.51-0.93l-0.33-0.73l-0.77-0.2l-0.37-0.73l0.94-2.77l0.72-0.02l1.26-1.15l1.17-2.78
	l1.29-1.32l2.21-0.37l0.66-0.45l-0.05-0.81l-0.84-1.19l-0.14-2.47l-0.49-0.84l-0.34-1.49l0.53-0.8l0.81-1.14l0.41-1.16l0.11-2.05
	l1.35-5.54l1.57-0.01l1.52,0.83l0.34,1.19l0.87,0.14l1.24-1.03l2.66-6.98l19.6,6.54l17.05,5.21L600.8,72.79l-15.91-4.78
	l-25.48-19.85l0.41-1.16l0.99-0.6L561.78,46.58z"/>
<path class="st93" d="M540.93,19.86l-2.16-1.22l-2.8-0.23l-3.39,1.18l-16.66,37.54l14.94,8l4.6-10.59l-1.76-0.51l-1.41-6.09
	l1.02-2.38l-1.16-2.85l3.26-4.31l-0.38-4.48l-0.53-1.96l-0.37-2.39l2.55-3.95l2.33-2.05l3.25-1.48L540.93,19.86z"/>
<path class="st94" d="M592.12,61.41l-15.03,6.33l-12.54,4.89L573.1,95l23.45-9.47l21.09-9.5l-7.48-15.46l-1.19,0.27l-1.6-1.12
	l-1.23-0.42l-0.18-0.82l0.52-1.25l-0.15-0.4l-0.83-0.45l-0.15,0.46l-0.77,0.11l-1.44-0.53L592.12,61.41z"/>
<path class="st95" d="M410.61,45.36L409,44.12l-0.38-1.07l-3.14-1.24l-0.11-0.44l-0.21-0.07l-0.44,0.46l-0.22-0.12l-1.51,0.16
	l-0.2-0.21l-0.01-0.37l0.08-0.85l0.43-0.32l0.21-3.29l1.46-1.17l0.68-0.17l0.39-0.4l-11.93-8.54l3.58-3.2l1.99-0.85l4.05-1.04
	l0.07-1.22l0.64,0.51l0.84-1.01l-0.12-1.37l0.59-0.39l-0.13-0.61l1.3-2.57l0.55-0.27l0.76-0.15l0.92-0.79l0.11-1.08l0.4-0.8
	l0.46,0.02l0.21-0.24l-0.26-0.77l0.15-0.24l0.74,0.13l-0.1-0.64l2.35-1.73l1.49,0.38l0.21-0.24l0.01-0.71l2.3-0.91l0.6,0.48
	l0.78,0.02l1.23-1.66l2.13-0.58l0.72,0.27l0.63-1.07l12.81,8.94L436,14l-17.51,20.1l-7.08,11.24L410.61,45.36z"/>
<path class="st96" d="M22.28,17.54c3.03,2.71,7.24,7.08,10.63,13.38c3.53,6.56,3.17,9.64,5.12,13.77
	c4.99,10.62,18.57,14.24,33.06,17.9c18.34,4.63,20.13,1.59,38.18,5.32c19.83,4.1,22.57,8.77,40.14,12.99c0,0,22.48,5.39,45.26,2.75
	c47.08-5.44,78.27-54.92,83.44-63.36"/>
<path class="st97" d="M394.26,32.5c8,1.04,20.73,2.03,36.03,0c23.31-3.09,27.42-9.83,51.08-13.23c13.43-1.93,31.46-4.3,50.16,3.65
	c11.97,5.09,12.8,9.56,24.17,15.51c10.6,5.54,27.41,10.82,53.36,7.3"/>
<path class="st98" d="M443.2,60.04L456.65,56l1.54,0.63l0.61-0.14l0.96,0.4l0.62-0.25l0.4-0.87l0.59,0.02l0.27-0.35l0.3,0.08
	l0.27-0.24l0.29,0.05l0.27-0.24l0.4,0.04l0.42-0.36l0.77-0.04l0.33,0.28l2.38-0.02l0.56,0.28l0.61,0.74l0.71,0.01l0.5-0.24
	l0.28,0.23l0.26,0.75l0.4,0.48l0.16,0.45l0.87,1.05l1.25,1.13l0.48,1.18l1.53,1.29l0.82,1.94l0.53,0.07l0.25,0.97l0.65,0.98l0,0.8
	l1.12,1.22l0.6,0.27l0.05,0.49l1.15,0.95l2.07,1.58l-11.31,3.89l-15.39,4.85l-12.8,3.66l-1.98-7.36l-11.82,3.19l-3.65-14.84
	L443.2,60.04z"/>
<path class="st99" d="M500.79,25.73l-1.84-0.37l-0.75,0.07l0.07,0.5l-1.42,0.8l-0.38-0.32l-1.09,1.38l-0.55,0.04l-1.02,0.6
	l0.06,0.54l-0.91,0.75l-0.53-0.14l-0.33,0.2l-0.82-0.2l-0.51,0.48l-0.64,0.15l-0.79-0.28l-0.14,1.48l-0.24,0.38l-0.53-0.34
	l-0.19-0.58l-0.44-0.02l-0.32,1l-0.65-0.08l-0.23-0.39l-0.31,0.32l-0.98-0.09l-0.5,1.12l-0.81,0.03l-0.09-0.66l-0.65,0.35
	l-0.95-0.54l-1.15,0.2l-0.26,0.9l-0.96-0.26l-0.35,0.31l-0.56,0.31l-1.26-0.02l-0.65,0.35l-0.44-0.02L476.16,33l-0.89-0.13
	l-0.11,0.56l-0.54-0.07l-0.4,0.06l-0.18,0.43l-0.47,0.13l-1.13-0.45l-0.95,0.03l-5.42-11.67l-15.5,6.6l-1.27-2.94l4.86-2.07
	l19.79-8.82l17.78-8.76l1.53,2.87l4.5,5.98l5.12,10.58L500.79,25.73z"/>
<path class="st100" d="M618.15,68.57l15.6-10.71l9.78-7.15l0.49,0.69l0.18,0.83l-0.57,1.34l0.19,0.44l1.15,0.33l0.56,0.45l0.99-0.46
	l0.94,0.2l9.29,11.96L656,66.99l0.35,0.51l0.78,0.13l0.23,0.36l-0.21,0.4l0.51,0.38l0.52-0.2l0.7,0.43l0.65,1.95l0.69,1.54
	l0.71,0.04l0.41,0.32l0.63,0.34l-0.45,0.43l-0.75,0.23l-0.91-0.56l-0.7-0.1l-2.52,0.84l-0.46-0.18l-0.8,0.31l-0.32,0.53l-0.45,0.09
	l-0.2,0.34l-0.32,0.05l-0.2,0.34l-0.35,0.02l-0.16,0.46l-0.63,0.19l-0.12,1.05l-0.57,0.47l-1.16-0.08l-0.6,0.36l-1.88-0.13
	l-12.85,8.88l-17.61,11.54l-9.11-14.2l-4.24-6.74L618.15,68.57z"/>
<path class="st101" d="M495.18,56.03l-3.15-7.91l-18.08,6.69l14.12,40.28l17.5-6.35l14.93-5.87l-13.34-31.55L495.18,56.03z"/>
<path class="st102" d="M434.9,74.68l0.84,1.58l0.06,1.96l-14.61,1.18l-1.13,0.81l-2.55,0.38l-0.93-0.12l-0.52,0.71l-1.54,0.29
	l-1.96,0.84l-0.32,0.42l-1.94,0.42l-0.57-0.56l-0.57,0.08l-1.81,1.16l-0.86-0.24l-0.89,0.64l-0.32-0.73l-1.19-0.18l-0.7,0.12
	l-0.59-0.32l-1.31,0.54l-0.64-0.17l-0.54,0.17l-0.42,0.54l-2.39,1.06l-3.52-0.84l-0.23-2.5l-0.71-1.66l-1.92-1.1l-1.66,0.56
	l-0.32-0.41l0.02-0.56l-0.42-0.24l-0.44,0.18l-1.14-0.33l-0.49,0.33l-0.92,0.24l-0.51-0.53l-0.76,0.1l0.15-3.49l0.47,2.61l0.29,0.14
	l-0.26-0.84l0.33-0.2l0.8,0.81l-0.51-0.85l-0.01-1.93l0.86-0.08l-0.76-0.68l-0.41,0.27l-0.73,0.04l-0.46-1.79l0.29,0.6l0.47,0.08
	l0.06-0.75l1.44-0.45l-1.15-0.2l-1.01-0.56l-0.42,0.86l0.14-1.47l-0.73-1.89l-0.56-1.48l-0.39-2.68l-0.49-0.77l-0.9-0.68l-0.47-1.69
	l-0.17-1.19l0.6-1.24l-0.5-0.49l0.01-0.28l0.42-0.08l4.5,2.1l2.37,0.14l2.62,0.33l1.43-0.49l0.48,1.23l0.24-0.81l0.32-0.1l0.62,1.05
	l-0.11-1.16l0.6-0.28l0.32,0.23l-0.42,0.41l0.25,0.66l0.12-0.73l0.5-0.15l0.16,1.15l-0.6-0.18l0.36,0.53l0.15,0.64l-0.27,0.41
	l-0.75,1.57l0.1-1.59l-0.67,0.39l0.1,0.94l-1.35,1.71l-0.05,0.47l-0.66,1.22l0.08,0.44l0.99-0.31l1.06-0.42l0.11-0.45l-1.69,0.76
	l-0.08-0.25l0.81-1.54l0.71-0.59l0.83-0.35l0.24-0.81l1.05-1.38l-0.18-0.59l0.5-0.15l0.57,1.66l-0.68,0.21l-0.16,0.42l-0.61-0.23
	l0.28,0.42l0.22,0.71l-0.23,0.39l-0.34-0.63l-0.25,0.45l0.4,0.15l-0.26,0.59l0.59-0.18l0.25-0.31l0.31,0.83l-0.2,0.94l-0.28,0.54
	l0.19,0.77l-0.47,0.06l-0.27-0.56l0.26-0.59l-0.42-0.1l-0.27,0.41l-0.03,1.02l-0.24,0.49l-0.31-0.83l0.21-0.57l-0.23-0.44
	l-0.38,0.67l0.33,0.91l-0.22,0.25l-1,0.12l-0.43,0.68l0.92-0.56l0.2,0.95l0.21-0.89l0.36,0.53l0.1-0.49l0.55,0.66l0.32-0.1
	l0.21-0.44l0.26-0.12l0.66-1.07l-0.07-0.53l0.44,0.14l0.25,0.33l0.28-0.23l-0.11-0.51l0.59-0.18l-0.29-1.24l-0.4-1.12h0.45
	l-0.59-0.78l0.53-0.53l-0.22-1.03l0.75-1.24l0.46-0.1l-0.05-0.63l-0.72-0.42l-0.5-1.45l-0.24,0.49l0.7,1.12l-0.26,0.12l-0.52-0.71
	l-0.33-0.12l-0.16-1.01l0.8-0.29l0.23,0.25l-0.07-0.71l-0.94-0.49l-0.48-0.59l0.17,0.86l0.55,0.33l-0.27,0.27l-0.55-0.2l-0.64,0.8
	h0.74l0.4,0.98l0.1,0.8l0.24-0.67l0.93,0.77l0.07,0.85l-0.68,0.21l-0.16-0.5l-0.83-0.29l-0.16-1.33l-1.19-0.83l0.83-1.63l-0.27-1.8
	l0.41-0.12l1.05,1.15L395.63,56l0.58-0.04l-0.43-1.38l-0.51-0.21l-0.21,1.22l-0.84-1.12l0.57-0.23l-1.35-1.85l0.78-0.51l12.42-0.41
	l15.33-1.08l11.35-0.99L434.9,74.68z M394.3,69.16l0.23-0.07l0.15,0.32l-0.19,0.2l0.12,0.24l-0.27,0.27l-0.21-0.35l0.18-0.24
	L394.3,69.16z M396,66.66l-0.29,0.97l0.06,0.35l0.21,0.03l0.15-0.32l0.51-0.11L396,66.66z M393,57.67l0.31,0.18l0.55-0.31
	l-0.04-0.45l0.31-0.92l-0.5-0.03l-0.11,0.77l-0.25-0.66l-0.47,0.24l-0.14,0.68L393,57.67z M393.73,54.91l0.51,0.53l-0.38,0.21
	l-0.31,0.28l-0.4-0.98L393.73,54.91z M392.3,54.62l-0.52,0.07l0.41,0.51L392.3,54.62z M392.18,55.81l0.41,0.06l-0.04,0.51l0.7-0.45
	l-0.38-0.89l-0.43,0.04L392.18,55.81z M390.91,56.02l0.49,1.09l0.89,0.32l0.02-0.88l-0.78-0.77L390.91,56.02z M391.62,55.29
	L391,55.03l-0.39,0.17l1.01,0.38L391.62,55.29z M392.15,51.91l-0.54,0.17l0.1,0.33l0.62,0.08L392.15,51.91z M395.98,65.66
	l-0.17-1.19l-0.5,0.15l0.16,0.83L395.98,65.66z"/>
<path class="st103" d="M482.34,26.63l-18,1.14L444,28.41l-0.1,3.65l0.08,18.59l0.07,7.42l11.41-0.24l15.9-0.67l13.21-1.01
	l-1.16-14.82L482.34,26.63z"/>
<path class="st104" d="M529.26,65.09l0.89-0.06l0.28,0.23l-0.34,0.45l-0.7,0.12l-0.9,0.53l-1.38,0.05l0.8-0.38l0.08-0.4l0.92-0.17
	L529.26,65.09z M532.31,64.28l0.5,0.15l0.34-0.02l0.21,0.42l0.1-0.22l0.34,0.05l0.44,0.51l0.01,0.18l-1.52,0.78l-0.9,0.02L531.45,66
	l-0.39,0.28l-0.74,0.05l-0.44-0.48l1.74-0.29L532.31,64.28z M534.32,64.12l0.38,0.01l0.28,0.23l0.02,0.36l-0.48,0.07l-0.36-0.37
	L534.32,64.12z M535.26,64.16l0.48-0.07l-0.01,0.36l-0.4,0.24L535.26,64.16z M535.42,64.95l1.27-0.12l0.1,0.39l-0.48,0.07
	l-0.13-0.17l-0.28,0.23l-0.17-0.21l-0.34-0.05L535.42,64.95z M597.57,63.72l0.78-0.01l-0.33,0.71l-0.41-0.01l-0.17-0.28l0.15-0.48
	 M597.12,62.62l0.19-0.48l-0.13-0.82l0.88-0.24l1.78,1.47l0.57,1.19l0.75,0.53l0.24,1.82l-0.52,0.03l-0.54-0.79l-1.21-0.79
	l-0.22,0.02l0.48,0.98l0.64,0.03l0.13,0.75l-0.33,0.06l-1.63-1.48l-0.06-0.32l0.68-0.4l-0.02-0.36l-0.21-0.28l-0.61-0.18l-0.67-0.42
	l0.53,0l0.18-0.15l-0.25-0.31l-0.21,0.19L597.12,62.62z M595.55,59.44l0.49,0l0.95,0.84l-0.06,0.29l-0.3-0.02l0.01,0.65l0.2,0.17
	l0.04,0.54l-0.29,0.13l-0.12,0.44l-0.31-0.13l-0.2-0.78l0.38-0.53l-0.84-0.74l0.01-0.43L595.55,59.44z M596.07,58.87l0.71,0.03
	l0.93-0.02l1.35,1.07l-0.06,0.19l-0.4,0.24l-0.42-0.04l-0.05-0.25l-0.49-0.55l-0.09,0.26l0.4,0.44l-0.04,0.44l-0.3-0.02l-0.48,0.1
	l-0.08-0.61l-1.04-0.94L596.07,58.87z M591.12,55.98l0.32-0.17l0.59-0.04l0.25-0.2l1.58,0.69l0.07,0.54L593.77,57l-0.3,0.02
	l-0.54-0.22l0.44,0.44l0.67-0.04l0.23,0.71l-0.34,0.02l-0.86-0.49l-0.42-0.04l0.25,0.45l0.06,0.32l0.28-0.23l0.66,0.39l0.48-0.07
	l-0.06,0.29l0.81,1.5l0.08,1.22l0.2,0.74l-0.29,0.13l-0.5-0.69l-0.22-0.53l-0.64-0.54l-0.14-0.96l-0.27-0.59l-0.26,0.02l0.14,0.39
	l0.01,0.18l-0.5,0.39l-0.04-1.19l-0.64-0.54l-0.54-0.79l-0.48-0.4L591.12,55.98z M593.75,54.98l0.45,0.62l0.89-0.09l0.42,0.73
	l-0.21,0.23l0.83,1.1l0.03,0.47l-0.43,0.32l0.02,0.25l-0.7,0.73l-0.22-0.49l-0.07-0.47l0.21-0.27l-0.03-0.4l-0.61-0.65l-0.28-1.31
	l-0.37-0.52L593.75,54.98z M572.17,49.76l-1.39,1.57l0.04,0.57l0.76-0.34l0.25-0.7l0.76-0.91L572.17,49.76z M560.81,56.47l0.02,0.21
	l0.7,0.39l0.04-0.51l0.25,0.31l1.31-0.05l0.25-0.23l0.03-0.65l-0.2-0.24l-0.52,0.03l-0.02-0.29l0.13-0.23l-0.01-0.15l-0.57-0.07
	l-1.14,1.37L560.81,56.47z M557.94,58.89l0.7,2.05l0.78-0.05l0.83-0.95l0.14,0.42l2.25-1.59l0.23-0.38l-0.4-0.37l-0.02-0.25
	l0.15-0.48l-0.34-0.02l-0.72,0.41l-0.03-0.43l-1.02-0.15l-0.89,0.17l0.01,1.23l-0.35-0.7h-0.56l-0.36,0.24L557.94,58.89z
	 M557.33,61.89l0.02-0.25l0.75-0.52l0.23,0.09l0.49,0.04l0.51,0.4l-0.83-0.02l-0.17-0.21l-0.36,0.24L557.33,61.89z M555.47,63.2
	l-0.39,0.31l0.59,0.47l0.28-0.27l-0.07-0.47L555.47,63.2z M552.93,60.51l0.53,0l0.17,0.21l-0.67,0.08L552.93,60.51z M548.04,65.12
	l0.01,0.18l0.26,0.02l-0.05-0.21L548.04,65.12z M547.82,63.97l-0.35,0.38l0.01,0.18l0.29,0.38l0.35-0.38l-0.26-0.02L547.82,63.97z
	 M547.05,63.74l-0.09,0.37l-0.48,0.07l-0.15,0.08l0.03,0.47l-0.17,0.34l0.22-0.02l0.24-0.34l0.3-0.06l0.31-0.38l0.04-0.47
	L547.05,63.74z M545.36,63.12l-0.03,0.65l0.54,0.25l0.43-0.24l-0.02-0.36l0.63-0.15l-0.05-0.21l-0.34-0.05l-0.25,0.23l-0.35-0.16
	L545.36,63.12z M543.53,63.2l0.39,0.23l-0.08,0.44l-0.55-0.36L543.53,63.2z M542,63.77l0.53,0l-0.24,0.3L542,63.77z M540.77,64.93
	l0.7,0.35l-0.63,0.08L540.77,64.93z M530.53,54.34l0.46,0.19l-0.28,0.23L530.53,54.34z M530.12,52.09l0.18,0.42l0.27-0.45
	L530.12,52.09z M538.7,44.58l0.56-0.07l0.34,0.12l0.4-0.21l0.48-0.07l0.61,0.25l0.34,0.66l-0.02,0.32l-0.4,0.75l-0.9-0.02
	l-0.83-0.59l-0.38-0.12l-0.46-0.69L538.7,44.58z M530.48,39.91l0.08,0.68l0.79,0.67l0.01,0.18l-0.3-0.05l-0.65-0.25l-0.14-0.39
	l-0.15-0.57L530.48,39.91z M536.72,31.11l0.03,0.43l0.75,0.6l0.86-0.06l0.25,0.38l0.04,0.57l0.83,0.63l0.7,0.39l-0.02,0.25
	l-0.23,0.41l-0.55-0.4l-0.78,0.08l-0.32-0.27l-0.39-0.73l-0.61-0.75l-0.97,0.02l-0.39-0.23l0.32-0.78L536.72,31.11z M542.87,29.1
	l0.37-0.02l0.06,0.39l-0.37,0.02L542.87,29.1z M549.39,35.78l0.34,0.02l0.03,0.43l-0.65-0.14L549.39,35.78z M598.92,60.63
	l-0.44,0.17l-0.01,0.4l0.45-0.03L598.92,60.63z M540.1,62.77l-0.49-0.11l-1.51,0.31l-1.01,0.57l0.01,0.68l0.72,0.21l0.54-0.36
	l0.63-0.08l1.78,0.39l0-0.47l-0.62-0.36L540.1,62.77z M540.94,63.55l-0.18-0.49l0.45,0.04l0.07,0.5l0.67-0.04l0.09-0.91l0.17,0.85
	l0.93-0.1l1.11-1.26l0.3,0.02l-0.23,0.49l0.54,0.29l1.56-0.17l0.94-0.49l0.52-0.07l0.15,0.53l0.21-0.19l0.11-0.51l2.2-0.07
	l0.67-0.62l-0.51-0.36l0.19-0.44l0.97,0.01l-0.11-0.42l0.93,0.01l0.23-0.41l0.42,0.04l1.67-0.79l0.03-0.61l2.03-1l0.7-0.73
	l0.43-0.24l0.51,0.25l0.83-0.38l0.36-0.71l0.15-0.48l0.61-0.36l0.54-0.29l0.11-0.51l-0.45-0.58l-0.83-0.02l-0.11-0.46l0.26-0.59
	l0.52-0.11l0.45-0.57l0.7-0.08l1.19-1.23l0.11-0.51l0.5-0.86l1.31-1.56l0.91-0.38l0.68-0.37l0.8,0.24l0.59,0.9l-0.56,0.04
	l-0.56-0.51l-1.07,0.79l-0.63,0.08l0,1.12l-1.04,1.83l0.27,0.7l0.86-0.06l-0.2,0.37l-0.52,0.07l-0.85,0.7l0.02,0.32l0.73,0.32
	l1.25-0.3l0.48-0.64l0.53,0l1.08-0.68l0.13-0.84l0.59-0.07l2.37,0.14l0.34-0.42l0.26-1.64l-0.57,0.43l0.17-0.8l-0.63-0.47l0.26-0.56
	l0.07,0.54l1.27-0.08l0.23-0.38l0.59-0.07l-0.07,0.62l0.71-0.01l-0.68,0.51l1.55,0.3l-1.29,0.23l-0.45,0.46l0.37,0.48l1.67-0.72
	l0.9,0.55l0.24-0.34l0.26,0.49l1.55,0.73l1.08-0.07l1.44-0.27l1.63,0.29l0.79,0.64l1.69,0.04l0.64-0.58l0.36,0.84l-0.66,0.3
	l0.48,0.4l2.85,1.19l0.58,0.87l2.11,1.34l1.18-0.8l-0.28-0.78l-1.36-0.64l1.19,0.36l0.17-0.26l0.37,0.44l0.06,0.97l0.77-0.27
	l0.83,0.59l-1.17-3.46l0.48,0.44l0.67,2.12l0.88,0.85l0.89-0.2l0.76,1.21l0.34-0.02l0.36,1.99l1.28,0.1l0.65,0.75l0.7,0.35l0.22,1
	L599,61.67l1.12,0.51l0.39-0.89l0,1.12l-0.28,0.34l0.56,0.58l0.2-0.88l-0.11-0.42l0.3,0.05l0.28,0.81l-0.34,0.53l0.29,0.92
	l0.19,0.13l0.07-0.58l0.28,0.2l-0.06,0.72l0.45,0.04l-0.13,0.33l0.63-0.08l-0.02-0.36l-0.37,0.02l0-0.61l-0.31-0.2l0.63-0.15
	l0.17-0.3l-0.04-0.57l0.22,0.45l-0.18,0.66l0.54,1.37l0.67-0.01l0.72-1.56l-0.01-0.68l-0.58-1.4l-0.07-0.43l0.16-0.44l-0.28-0.23
	l-0.63,0.08l-0.98-0.66l-0.64,0.04l-0.78-0.45l-0.56,0.04l-0.23-0.56l-0.53-0.07l-0.11-0.53l-0.38-0.15l0-0.61l-2.08-2.54l-0.71-0.5
	l-0.03-0.43l-1.69-1.15l-0.29-0.38l-0.65-0.68l-0.72-0.17l-0.05-0.79l-0.48-0.44l-0.65-0.21L591.16,51l-0.55,0.79l-0.09,0.87
	l-0.56,0.07l-0.87,1.03l-0.31-0.09l-0.06-0.9l-0.95-0.73l-0.91-0.66l-0.23-0.71l-0.96-0.41l0.02-0.79l-1.04,0.03l-0.23,0.41
	l-0.45,0.03l-0.28-0.23l-0.43,0.32l-0.7-0.39l-2.12-30.8l-2.67-1.31l-0.68-0.14l-0.79,0.45l-0.82,0.09l-0.9-0.52l-1.62-0.11
	l-2.25-1.15l-2.13-0.01l-0.73,0.23l-0.12-0.64l-0.69-0.21l0.38-0.38l-0.1-0.32l-1.22-0.32l-0.89,0.06l-0.14,0.15l-0.35-0.19
	l-0.03-0.93l-0.32-0.3l-0.86,1.1l-0.3-0.02l-0.02-0.29l0.61-0.33l-0.02-0.29l-0.77-0.82l-0.41-0.01l-1.6,1.22l-1.45,0.09l0.13-0.33
	l-0.67,0.01l-1.85,1.34L556.49,15l-0.24-0.27l-0.97,0.6l-1.25,1.42l-0.97,1.04l-0.53,0.47l-0.97,0.1l-0.83-0.09l-0.89-0.41l0,0
	l-0.95,1.47l0.02,0.87l1.03,0.8l0.89,1.57l0.21,1.9l1.13,0.65l1.28,0.06l0.28,0.27l-0.5,0.86l0.33,0.95l-0.7-0.89l-0.06-0.86
	l-0.57-0.07l0.07,0.43l0.31,0.74l1.17,1.26l-0.52,0.03l-0.79,0.45l-2.37-0.75l-0.08-0.72l0.49-0.5l-0.04-0.5l-0.79-0.13l-0.85,0.13
	l-1.78,0.19l0.61,0.79l-0.75-0.6l-3.1,0.63l-0.26,0.56l1.94,1.57l-0.26,0.52l-0.06,0.72l-0.24,0.3l0.01,0.68l1.73,1.19l1.53-0.02
	l1.76,0.57l0.74-0.05l0.28-0.23l1.42-0.06l0.02-0.29l0.47,0.37l0.08,0.72l-0.93,0.02l0.12,1.18l0.27,1.14l-1.02,1.04l-0.71,0.01
	l-0.76-0.24l-0.37,0.06l-1.1,0.83l-0.63,0.11l-0.59-0.97l-1.16,0.07l-0.77,0.77l-0.14,0.66l-1.19,0.72l-1.87,1.67l-0.04,1.12
	l0.32,0.77l0.4,0.41l0.36-0.17l0.36,0.34l-0.28,0.23l-0.54,0.36l0.44,0.51l-0.94,0.46l0.35,0.77l0.69,0.78l0.4,1.45l1.53,0.44
	l0.95-0.35l0.61-0.44l0.24,0.74l0.22,1.57l-0.67,0.55l0.11,1.58l-0.2,0.34l-0.64,0.04l0.66,0.39l0.78-0.08l0.13-0.37l1.7-0.32
	l0.81,0.89l0.47-0.28l0.61,1.8l0.38,0.15l0.36-0.28l-0.02-0.87l0.31-0.38l0.29,0.38l0.11,0.57l0.61,0.11l1.72-0.54l0.11,0.42
	l-0.72,0.44l-0.55,0.65l-0.87,2.58l-1.55,0.82l-0.49,0.57l-0.08,0.51l-0.39-0.19l-3.38,1.41l-0.57,1.52l-0.49-0.11l0.16-0.41
	l-0.59-0.47l-1.31,0.01l-1.9,1.27l-0.79,0.52l-0.86,0.06l-0.13,0.87L540.94,63.55z"/>
<path class="st105" d="M405.79,71.38c12-9.69,30.17-22.91,54.24-35.23c30.73-15.73,49-25.09,65.99-18.45
	c19.68,7.68,14.31,27.7,37.47,45.3c19.4,14.74,52.95,23.31,79.97,7.83c25.32-14.51,31.75-42.59,32.99-48.65"/>
<path class="st106" d="M520.64,36.79l16.06,5.56l4.33-12.19l1.22-1.83l0.22-0.69l0.31-0.27l-0.24-0.7l-0.97-0.51l0.22-1.4l1.61-1.79
	l0.9-0.17l0.64-0.71l0.02-0.54l0.69-0.47l1.32-1.72l1.64-1.45l-0.06-1.09l-1.11-1.17l-0.43-1.27l-10.35-3.61l-1.02,0.23l-1.86-0.51
	l-0.6-0.37l-0.57,0.34l-1.14-0.26l-1.59,0l-0.34,0.2l-1.46-0.3l-0.22-0.57l-0.41-0.11l-1.59,0.27l-0.52-0.43l-0.8,0.18l0-0.61
	l-0.76-0.49l-0.52-0.12l-0.31-0.41l-1.06-0.02l-0.39-0.32l-0.42-0.05l-0.45,0.26l-1.95,0.02l-2.16-1.66l0.59-1.84l0.01-1.39
	l-0.99-1.36l-1.3-0.11l-0.1-0.38l0.18-0.39l-0.22-0.3l-0.35,0l-0.43,0.39l-0.52-0.12l-0.14-0.39l-0.35-0.07l-0.27,0.18l-0.63-0.71
	l-0.16,1.44l-0.5,0.39l-0.51,1.13l-0.12,0.77l-2.02,3.95l-5.76,10l-1.29,1.42l-0.56-0.1l-0.04,0.71l-2.08,2.18l-0.22,1.1l0.3,0.48
	l-0.05,0.81l-0.46,0.32l-0.53,0.96l-0.17,1.92l0.32,1.02L520.64,36.79z"/>
<path class="st107" d="M512.08,44.06l-11.02,0.71l-2.8,0.41l-9.35,0.51l-1.4,0.41l-12.15,1.02l-0.38-0.31h-1.99l0.65,1.64
	l-0.32,0.46l-12.53,0.76l0.54-1.38l0.75,0.46l0.38-0.2l0.64-2.11l-0.54-0.51l0.54-1.03l0.11-0.46l-0.7-0.41l-0.16-0.93l2.15-1.9
	l3.71,1.54l0.81-0.15l0.21-1.23l-0.92-0.93l0.21-1.7l0.54-0.25l0.64,0.31l0.32-0.62l1.99-0.31l0.05-0.46l-0.81-1.13l-0.06-0.57
	l1.18-1.38v-0.46l0.59,0.41l0.32-0.51l-0.38-0.88l2.48-0.25l0.11,0.62l0.59,0.1l0.21-0.46l-0.32-0.67l0.16-0.41l0.7,0.41l0.92-0.2
	l0.92,0.31l1.83,1.08l0.97-1.44l1.88-1.13l1.62,1.7l0.86-1.08l0.16-1.38l2.04-1.18l0.11,0.67l1.02,0.62l1.61-0.1l0.64-0.36
	l0.05-1.75l1.34-1.9l2.47-2.26l-0.06-0.88l0.64-1.95l1.18,0.51l3.6-2.31l-0.21-0.88l-0.81-1.08l0.54-0.98l0.7,0.26l1.18,0.05
	l1.02-0.41l1.56,0.62l1.19,1.75v0.51l2.2,0.36l1.24-0.1l1.02,1.08l1.18,0.1v-0.51l1.02-0.41l1.62,0.41l0.64,0.41l0.7-0.36h0.49
	l0.32-0.88l1.83-0.92l0.27,0.41l0.44,1.49l1.88,0.72l0.65,1.08l-0.05,0.57l0.32,0.51l-0.32,1.85l1.02,0.83l0.43,0.57l0.54,0.31
	L523.21,27l2.37,2.88h0.75l0.81,0.93l0.64,0.15l0.75-0.05l-2.63,3.39l-1.56,0.51l-1.61,1.54l-0.21,1.13l-1.13,0.67l-0.05,0.88
	l-0.75,0.72l-0.97,0.25l-0.27,0.98l-0.54,0.2l-3.71,2.15L512.08,44.06z M459.4,49.83l-0.38-0.36l0.11-0.51h0.59l0.38,0.36
	l-0.16,0.51H459.4z"/>
<path class="st108" d="M459.31,87l0.08,1.12l0.7,0.58l0.09,0.41l-1.49,1.8l0.02,0.42l0.83,1.02l0.8,1.37l0.12,0.9l-0.12,0.44
	l0.2,1.18l1.55,0.53l0.44,0.33l0.37-0.44l0.58-1.35l1.46-1.23l1.15-0.33l0.84-0.47l0.55-0.5l0.97-1.37l-1.05-0.25l-0.57-0.42
	l-0.05-0.59l-0.2-0.19l-0.71,0.1l-0.05-0.88l-0.31-0.38l-1.03-0.67l-1.69-0.44l-1.01,0.07l-1.3-0.78l-0.45-0.15L459.31,87z
	 M453.07,81.84l-0.32,0.58l0.05,0.59l1.07,0.7l0.7,0.08l0.26,0.32l0.28,1.02l1.29-0.11l1.76-1.16L458.01,83l-0.52-0.11l-1.37-0.73
	l-0.66-0.02l-0.97,0.59l-0.66-0.86L453.07,81.84z M453.08,85.9l0.25-0.53l0.88-0.23l0.3,0.59L453.08,85.9z M450.18,83.22l0.79,1.31
	l1.07-0.36l0.01-0.71l-0.57-0.45L450.18,83.22z M448.41,81.09l-0.28,0.89l1.77-0.24l1.78,0.32l0.81-0.68v-0.53l-1.7,0.3
	L448.41,81.09z M442.23,78.19l-0.58,0.82l-1,0.35l0.39,0.72l0.92,0.86l0.08,0.34l0.73-0.2l0.82-0.08l0.66,0.33l1.2-0.45l-0.03-0.24
	l-0.4-0.23l-0.28-0.71l-0.3-0.07l-0.13,0.37l-0.49-0.4l0.01-0.5l-0.8-1.06l-0.42-0.19L442.23,78.19z M430.34,75.42l-1.36,1.21
	l0.18,0.79l0.91,0.3l0.73,0.36l0.98,0.01l0.82-0.89l-0.16-0.65l0.2-0.63l-0.07-0.49l-0.4-0.27L430.34,75.42z M426.73,77.61
	l-0.05,0.43l-0.63,0.41l-0.13,0.66l0.4,0.23l0.32-0.58l0.64-0.3l0.02-0.92L426.73,77.61z"/>
<path class="st109" d="M620.16,61.22l0.02-0.74l9.03,0.22l8.34,0.03l0.26-24.62l0.21-0.02l13.77-0.23l0.41,10.55l0.73,0.27
	l0.71,0.69l0.4,0.04l0.27-0.27l0.32,0.07l0.38,0.22l0.26-0.39l0.63,0.37l0.18,0.7l0.33,0.15l0.6-0.07l0.95,0.4l0.52-0.06l0.36-0.13
	l0.64,0.5l0.48-0.61l0.93,0.2l0.55,0.7l0.6-0.07l-0.14,0.53l0.62,0.23l0.73-0.7l0.71,0.37l0.33-0.15l0.05,0.37l0.47,0.26l0.55-0.66
	l0.33,0.15l-0.04,0.5l0.29,0.42l0.3-0.22l0.57-1.08l0.51,0.46l0.53,0.08l0.53-0.21l0.55,0.4l0.31-0.05l0.36,0.27l0.92-0.29
	l0.13-0.43l0.96-0.15l0.43,0.14l1.26-0.71l0.18,0.36l1.32-0.17l0.1-0.4l0.59,0.18l1.27,0.85l1.7,0.34l0.72,0.52l0.71-0.37l0.85,0.14
	l0.27,2.93l0.49,4.9l0.24,0.82l0.73,0.64l0.28,1.32l1.07,1.06l0.29,1.04l0.26-0.02l0.11,1.8l-0.74,1.64l0.38,0.54l-0.31,0.39
	l0.24,0.72l0.05,1.06l-0.51,0.9l-0.01,0.2l-0.42,0.33l0.29,0.42l0.33,0.25l-0.91,0.14l-2.12,1.13l-0.89,0.41l-0.44,0.48l-0.19-0.11
	l0.51-0.61l0.46-0.21l0.12-0.23l-0.76,0.03l-0.2-0.18l0.17-0.51l-0.27-0.42l-0.16,0.01l-0.6,0.37l-0.45,0.68l0.11,0.41l0.92,0.78
	l0.34,0.05l0.01,0.2l-0.57,0.44l-1.2,1.08l-0.97,1.04l-0.81,0.41l-1.25,0.84l-0.93,0.56l-1.14,0.55l-1.02,0.7l0.78-0.8l-0.02-0.27
	l0.14-0.21l-0.09-0.44l-0.39,0l-0.26,0.39l-0.65,0.37l-0.49-0.26l-0.11-0.41l-0.39,0.03l0.25,0.53l0.38,0.15l0.33,0.2l0.5,0.36
	l-0.17,0.21l-0.99,0.49l-0.44,0.06l-0.33-0.27l-0.09,0.53l0.15,0.26l-0.67,0.54l-0.39,0.08l-0.2,0.19l-0.07,0.43l-0.41,0.85
	l-0.4,0.2l-0.43-0.12l-0.45,0.31l0.1,0.34l0.35,0.17l0.28,0.18l-0.4,0.9l-0.03,0.7l-0.23,0.44l-0.35,0.27l-0.75,0.15l0.48,0.11
	l0.48-0.18l-0.05,0.8l-0.29,0l0.07,0.29l0.1,0.34l-0.32,0.25l0.06,0.76l0.44,0.31l0.21,0.75l-0.06,0.55l-0.26,0.12l0.13,0.36
	l0.29,0.08l0.24,0.4l0.05,0.64l0.33,0.5l0.62,0.6l-0.01,0.17l-0.58-0.01l-0.39,0.38l0.08,0.34l-0.24-0.06l-0.37-0.02l-0.95-0.85
	l-0.61-0.1l-1.85,0.14l-0.74-0.14l-0.99-0.67L661,91.26l-0.54,0.06l-0.88-0.58l-1.44-0.29l-0.02-0.32l-0.4-0.42l-0.32-1.14
	l-0.32-0.4l-0.47-0.31l-0.03-0.39l-0.38-0.12l0.11-0.65l-0.12-0.54l-0.36-0.32l0.13-0.75l-0.27-0.77l-0.47-0.31l-0.29,0.02
	l-1.1-0.79l-0.01-0.47l-0.24-0.4l-0.21-0.03l-0.28-0.57l-0.55-0.36l-0.8-0.56l-0.09-0.51l-0.27-0.15l0.02-0.4l0.12-0.18l-0.39-0.34
	l0.01-0.17l-0.56-0.5l-0.01-0.52l-0.79-1.16l-0.06-0.42l-0.53-0.73l-1.42-1.08l-0.02-0.27l-0.89-0.35l-0.06-0.44l-0.32-0.07
	l-0.01-0.17l-0.21-0.03l-0.6-0.65l-0.21,0.02l-0.19-0.14l-0.32,0.3l-0.57,0.04l-0.7-0.22l-1.2,0.09l-1.13-0.44l-0.31,0.49
	l-0.58-0.11l-0.84,0.36l-0.39,0.72l-0.46,0.83l-0.21,1.1l-0.34,0.32l-0.29,0.05l-0.2,0.41l-0.33,0.17l0.01,0.45l-0.75,0.08
	l-0.5-0.33l-0.26,0.02l-0.57-0.68l-0.95-0.05l-0.49-0.53l-0.34-0.02l-0.56-0.16l-0.95-0.77l0.04-0.2l-0.44-0.27l-0.26-0.01
	l-0.94-0.7l-0.06-0.49l-0.67-0.94l0.02-0.4l-0.21-0.31l0.18-0.38l-0.07-0.59l-0.75-0.96l-0.23-1.02l-0.45-0.36l-0.02-0.24
	l-0.32-0.03l-0.2-0.26L627,67.15l-0.24-0.01l-0.52-0.36l-0.02-0.27l-0.79-0.39l-0.19-0.51l-0.72-0.52l-0.91-1.02l-0.81-0.26
	l-0.58-0.4l0.03-0.3l-0.36-0.32l-0.51-0.88l-0.64-0.2L620.16,61.22z M668.26,91.93l0.21,0.01l-0.24-1.17l-1.14-2.96l-0.2-1.99
	l1.09-2.68l1.44-2.14l1.78-1.4l-0.01-0.17l-0.21,0.02l-0.66,0.3l-0.9,0.64l-0.16,0.38l-1.93,3.02l-0.59,2l0.16,2.17l1.16,2.89
	L668.26,91.93z"/>
<path class="st110" d="M51.97,99.16c15.18-21.88,27.89-31.45,40.85-31.94c12.88-0.49,2.92-0.23,49.98-2.04
	c0.98-0.04,14.45-0.63,30.97-4.79c5.86-1.48,8.75-2.56,11.58-4.1c9.79-5.33,14.91-14,17.4-19.29"/>
<path class="st111" d="M72.31,21.96c9.41-6.64,23.02-13.73,38.15-11.58c4.63,0.66,4.52,1.49,24.54,10.03
	c19.93,8.5,30.11,12.79,40.6,14.76c7.84,1.47,9.91,0.99,19.29,3.11c9.92,2.25,17.83,5.11,23.11,7.24"/>
<path class="st112" d="M690.86,41.69l1.25,6.38l-0.45,1.32l-0.72,0.29l-0.82-0.74l-1.53,0.07l-1.18,0.71l1.57,4.72l0.87,1.58
	l0.23,1.05L690,58.26l-40.25-25.1l-0.89-1.02l-3.02-23.58l18.54-3.04l9.56-1.72l9.07-1.8L690.86,41.69z"/>
<path class="st113" d="M604.03,0.81l1.06,0.45l0.37,0.39l-0.37,1.52l0.2,1.04l1.41,2.07l1.32,0.35l1.5-0.04l0.84,1.03l-0.16,0.3
	l1.21,0.29l0.9,0.53l0.07,0.68l0.5,0.37l0.52-0.12l1.56,1.17l0.3,1.06l-0.25,1.45L614.66,14l0.19,1l-0.52,1.07l-1.64,1.16
	l-1.04,0.23l-1.22,0.62l-0.04,1.75l0.63,0.55l0.46,0.02l0.53,0.49l0.3,1.45l-0.17,0.25l-0.5,1.16l0.23,0.99l-0.31,0.6l-0.36,0.21
	l-0.72,0.43l-0.29,0.72l0.39,0.3l0.18,0.96l-0.23,0.36l-0.73-0.18l-0.59-0.35l-0.42-0.6l-0.86-0.37l-6.11,1.74l-11.65,3.18
	l-11.22,2.51l-1.21-1.64l0.08-0.98l-0.67-1.28l-0.2-1.21l-0.63-0.16l-0.77-2.48l-1.7-1.79l-0.45-1.5l-1.37-1.56l-0.93-1.4
	l-0.14-0.58l-0.43-0.64l-0.23-0.95l-0.3-0.32l-0.47-0.63l-0.26-0.51l-0.68-0.37l0.01-1.87l0.23-2.27l-0.5-0.75l-0.6-0.04l-0.33-0.62
	l0.38-0.3l-0.07-0.46l-0.71-0.49l-0.11-0.67l0.96-0.17l12.2-2.78l15.62-3.95l7.98-2.12L604.03,0.81z"/>
<path class="st114" d="M581.38,75.62l-0.81-0.75l0.03-0.67l-3.21-2.81l0.01-2.35l0.39-0.79l-0.09-0.7l-18.77,4.86l-0.29-6.01
	l0.79-2.61l2.33-4.76l-1.2-1.03l1.05-0.22l-0.33-1.62l-1.51-0.96l0.09-0.89l-0.73-0.36l-1.55-3.3l0.18-0.75l-27.43,6.28l2.25,9.69
	l0.71,1.59l1.65,1.09l0.91,2.57l2.46,1.84l0.85,2.02l0.53-0.11l0.67,3.59l-1.1,3.49l0.91,0.99l-0.54,0.87l0.67,1.39l0.38,2.12
	l-0.81,1.95l0.03,0.4l-0.78,0.77l0.71,0.77l0.74,0.41l0.71-0.81l2.7-1.01l3.2-0.71l5.44,0.83l4.31-0.37l0.65-0.85l0.93-0.29
	l2.75,0.56l0.8-0.37l0.43-0.85l-2.39-0.43l-1.06,0.73l-0.6,0.02l-0.94-0.83l1.52-1.43l0.83-0.22l0.17,0.83l0.78-0.21l1.76-0.51
	l0.44,1.08l0.62,0.08l0.51,0.87l2.63-0.03l1.06,0.6l0.07,0.34l-0.63,0.13l-0.62,0.99l1.02,0.4l2.95-0.09l1.7,1.08l2.22-0.96
	l-1.93,0.5l-0.11-0.28l1.41-0.64l-0.08-0.9l0.6-0.28l-0.14-0.68l0.59-0.07l0.16,0.78l1.33-0.22l0.23-1.02l0.51,0.05l0.36,1.2
	l0.65-0.03l-0.75,1.17l1.28-0.72l0.95-0.75l1.2-1.93l-0.37,0.08l-0.56,0.73l-0.22,0l-0.34-0.34l0.35-0.68l-0.23-1.13l0.5-0.51
	l0.44,0.27l0.45-0.5l0.51-0.16l0.44,0.57l-0.13,0.99l1.26-0.26l2.86,0.28l0.39,0.58l0.98,0.51l1.49-0.25l0.75,0.2l0.85-0.68
	l0.31-0.93l-0.17-0.83l-0.74,0.15l-0.77-0.55l-0.69-0.42l-1.78-0.09l-1.35,0.38l-2.45-0.72l-0.23-1.13l0.59-0.63l1.32,0.04
	l-1.79-0.45l0.03-0.41l1.89-0.39l1.02-1.99l-1.55-0.6l0.27-0.82l-0.71-0.26l-0.42,0.08l-0.84,1.24l0.21,1.03l-0.24,0.41l-0.59,0.07
	l-0.98-0.51l-0.68,0.14l-0.15-0.73l0.24-0.41l0.49,0.26l0.74-0.97l0.21-0.86l0.39-0.24L581.38,75.62z M575.68,75.41l1.1,0.28
	l0.53,0.45l1.33-0.22l0.87,0.23l0.24,0.67l-0.15,0.34l-0.63-0.64l-0.62,0.74l-0.33,0.78l-1.39,0.69l-0.83,0.22l-2.05-0.09
	l-0.12-0.84l0.85-1.19l0.34-1.29L575.68,75.41z M573.32,76.5l0.11,0.54l-0.75,1.17l-0.63,0.13l-0.22-1.08l0.69-0.91L573.32,76.5z"/>
<path class="st115" d="M18.43,73.8c6.19-9.7,16.12-21.42,30.93-25.15c4.53-1.14,4.74-0.33,26.51,0c21.67,0.33,32.71,0.45,43.17-1.7
	c7.81-1.61,9.55-2.84,19.03-4.42c10.03-1.67,18.44-2.02,24.13-2.04"/>
<path class="st116" d="M226.48,43.76l-0.95-0.68l-0.44-2.15l0.99-3.58l-0.88-0.85l0.42-0.76l-0.31-1.16l-36.57-24.29l2.04-2.73
	l-3.2-0.42l-0.44-0.34l-2.38,0.05l-2.13-0.72l-9.77,13.98l-6.45,9.19l8.82,6.2l31.33,20.9l1.36-0.33l1.1,0.2l0.82,0.56l0.47,0.91
	l1.29-0.08l0.94,0.44l1.99-0.43l1.62-0.24l2.49,0.36l-0.57-3.05l-0.49-1.33l0.68-1.54l-0.83-1.5l1.22-1.64l0.84,0.03l1.11-0.5
	l0.06-1.35l3.48-0.88l0.83-0.92l1.79-0.23L226.48,43.76z"/>
<path class="st117" d="M204.16,33.17l-10.39,5.48l-0.56-1.3l-2.42-0.85l-0.37,1.01l-0.45-0.01l-0.16-0.75l-0.32-0.17l-12.45,5.9
	l-3.22,3.69l-0.7,0.32l-2.07,1.87l0.32,0.99l-0.86,0.9l-0.15,1.91l0.36,0.62l4.13,0.68l1.39-0.69l2.5,1.4l0.55,0.78l3.33,1.73
	l1.77,0.33l0.82-0.19l1.53,0.36l1.04,0.89l1.42,0.4l1.1-0.11l2.03,0.82l0.33,0.69l1.99,0.89l3.23,0.14l3.31,2.67l0.69,1.31
	l2.57,0.27l2.33,1.93l1.05,1.41l2.41-0.66l0.15-0.93l0.33-0.12l0.71-1.13l-0.11-1.12l1.36-1.73l-0.3-1.28l-0.84-0.21l0.31-0.52
	l0.52,0.04l0.65-0.47l0.59-1.44l1.76-1.7l0.42-1.55l-0.08-0.38l1.81-3.23l-0.15-0.23l-0.66-0.22l0.32-0.99l0.45-0.17l0.32,0.17
	l0.23-0.55l0.72-0.27l0.04-0.89l0.86-1.54l-1.22-2.69l-0.01-1.33l0.79-3.9l0.9-1.62l1.01-1.01L204.16,33.17z"/>
<path class="st118" d="M119.59,24.77l-0.78,0.03l0.25,0.89l-0.58,0.53l0.64,2.68l0.87,0.98l1.42,0.26l0.98-0.2l0.34,1.9l2.96,1.65
	l0.55-0.07l-0.09-0.52l0.79-0.18l0.13,0.98l2.81,0.9l-0.2,0.66l1.64,0.37l0.54-0.5l1.32,0.05l-0.05-1.05l1.71-0.62l3.91-0.4
	l0.63-0.79l1.65,0.22l0.47-0.66l1.2,0.07l1.95-1.47l0.54,1.24l-0.31,1.18l0.8,1.4l1.12,0.06l4.3-1.73l0.42,1.41l1.38-0.36l0.65,0.14
	l1.24,0.04l0.65,0.14l1.04-0.46l0.76,0.27l1.15-0.98l1.23-0.39l0.33-0.91l0.44-0.2l1.47,6.09l1.12-0.52l0.8-0.34l0.43-0.05
	L164.05,36l0.73-0.43l-0.15-0.6l0.21-0.31l-0.25-0.31l0.2-0.74l0.48-0.23l-1.1-1.02l-0.14-1.48l-0.63-0.52l-0.89,0.06l-0.47-0.58
	l-1.8,0.19l-1.35-1.33l-0.28-1.16l-2.49,0.08l-0.67-1.07l-2.71-0.11l-0.98,0.12l-1.3-0.28l4.04-4.43l-7.44-6.74l6.89-7.77
	l-1.28-0.58l-0.35,1.29l-0.93,0.66l-0.6,0.91L149,10.22l-2.24,1.7l-1.83,0.72l-0.27,0.58l-1.04,0.53l-0.6-0.32l-2.07,0.18
	l-1.46-0.15l-0.21-0.26l-1.34-0.24l0.02-0.96l-1.27-0.08l-0.6,0.25l-0.47-0.58l-1.36,0.14l-0.82,0.72l-0.56-0.28l0.06,0.97
	l-0.77,0.61l-0.44-0.38l-0.58-0.05l-0.56-0.28l0.64-0.94l-0.37-0.86l-1.3,0.3l-1.01,0.58l-0.93-0.07l-1,1.73l-0.87-0.4l-1.57,0.95
	l-0.54-0.66l-1.72-0.96l-0.48,0.31l-0.19,0.59l-1.68,0.9l0.03,1.36l-0.16,0.71l0.11,0.64l-0.4,0.25l-0.7,3.75l0.5,0.62l-0.19,1.24
	l0.31,0.63l0.55,0.58L119.59,24.77z"/>
<path class="st119" d="M185.95,15.82l2.55-1.39l0.43-0.79l-0.45-0.97l-2.15-0.51l0.7,0.55l-0.52,1.68l-1.72,0.93l0.4,0.53
	L185.95,15.82z M179.94,20.77l-1.14,0.06l0.43-0.98l-0.4-1.74l0.49-1.2l0.52-0.47l0.81,0.4l0.9-0.31l0.21-0.68l1.15,1.16l-0.85,0.75
	l-1.82,1.64L179.94,20.77z M144.3,18.28l12.26-10.21l0.14-1.48l-0.46-1.34l1.18-1.2l-0.07-0.99l0.83-1.48l1.09-0.32l2.61,1.67
	l0.91-0.13l0.3-1.38l1.12,0.6l0.45,0.79l-1.28,2.94l0.47,0.49l-0.27,1.08l0.62,0.41l-0.85,0.75l1.16,0.49l-0.32,0.82l0.85,0.47
	l0.6-0.51l-0.1-0.69l1.07-0.02l1.35-0.73l2.93,0.84l1.2,1.78l1.39-0.66l1.04,0.46l1.26,1.19l1.03,0.09l1.42-0.78l1.38-0.85
	l0.23-0.97l0.71-1.51l0.7-0.66l-1.75-1.01L179.66,7l-2.58-1.96l-0.6,0.33l0.06,0.81l-1.3-0.23l0.53-1.32l1.51-0.45l2.57,0.56
	l2.07,1.4l2.24,1.87l0.39,2.41l-0.73-1.29l-0.93-0.43l-1.69,3.07l-0.8,0.15l-0.8,1.37l0.41,0.9l-1.16,1.75l-0.65,2.32l-0.73,2.18
	l-0.9,0.49l1.14-3.7l-0.4-1.56l-0.62-0.23l-0.75-0.81l-0.71,0.3l0.45,0.97l-0.26,1.27l-0.9,0.49l0.22,0.91l0.79,0.69l-0.46,1.27
	l-0.9,0.31l0.1,0.88L172,20.13l-1.42-0.26L168.11,20l-1.34-1.33l-0.6,0.33l-1.58-1.57l-4.06,4.08l-0.2-0.17l-9.79,8.5l0.28,0.5
	l-0.55,0.58l-0.66-0.3l-6.9,5.99l-0.93-0.43l-5.7-10.92L144.3,18.28z"/>
<path class="st120" d="M111.81,37.9l-2.97-0.56l-1.73-2L94.66,57.75l-1.93,1.89l-0.57,0.84l0.09,2.2l-0.2,0.3l-0.39,0.29l-0.13,1.07
	l-0.82,0.92l-1.24,0.28l-1.79,1.38l-3.23,1.09l-2.04,2.92l-0.45-0.3l-0.13,1.07l0.27,0.67l0.56-0.24l0.17-0.93l2.23,1.17l-0.25,0.57
	l0.44,0.42l0.44-0.26l0.1-0.73l0.37-0.25l0.36,0.73l0.89,0.34l0.6,0.76l0.94,1.91l1.62-0.64l2.22,0.13l0.42,2.3l1.33-0.41l0.91-1.05
	l2.38,0.17l-0.28,0.61l0.52,1.08l1.42,0.82l0.74,0.07l1.01-1.4l2.19-0.81l3.34-0.47l0.44-0.75l1.63-1.24l0.71,1.08l4.32,0.12
	l0.3-0.84l-0.08-1.34l0.99-0.5l13.3-26.12l0.35-0.62l-15.68-8.33L111.81,37.9z"/>
<path class="st121" d="M232.08,79.29l-0.23,2.14l1.47,1.44l0.13,1.24l1.06,1.02l0.81,0.02l0.97-1.42l-0.03-1.6l1-0.26l0.66-1.38
	l-0.15-0.74l2.07-0.56l-0.88-1.47l0.83-1.12l1.08-0.96l-0.18,1.72l1.16-0.83l0.59,0.63l0.77-0.26l0.24-0.88l1.93-0.26l0.57-1.46
	l1.4,0.21l2-1.57l0.1-0.36l-0.42-0.37l0.41-1.71l0.48-0.49l-0.11,0.85l0.62-0.13l0.34-1.68l-0.54,0.04l-0.22,0.61l-0.46-0.87
	l0.69-0.61l0.31,0.13l0.66-0.07l-0.12,1.51l1.14,0.1l1.49,0.73l0.14-0.52l-0.43-0.76l0.7,0.22l0.38-1.17l0.22,0.49l-0.1,1.02
	l0.94,1.04l0.25-0.49l0.52,0.01l-0.05-0.45l0.52-0.21l0.17-0.84l-0.85-0.31l-1.19,0.11l0.99-0.65l0.5-0.33l0.74,0.06l0.04,0.72
	l0.71,1.04l0.51-1.03l1.43-0.33l-0.31-0.78l0.29-0.86l0.53,0.4l0.38,0.09l1.13-0.51l0.54-1.13l1.16,0.44l0.15-0.35l0.34-0.8
	l0.08,0.78l0.96-0.32l1.83-1.82l0.25-1.15l-0.49-1.21l-1.19-2.03l-1.04-0.24l-0.75,1.03l-1.17-1.92l0.27-0.37l0.21-0.77l-0.25-2.52
	l-0.41-0.2l-0.44,0.12l-2.63-0.61l0.34-1.89l-0.79-14.44l-3.48-2.83l-1.58-0.42l-4.6,2.56l-1.34-0.86l0-2.14l-1.48-0.34l-6.52,9.18
	l-0.49,3.29l-1.27,1.02l-0.86,2.32l0.19,2.07l0.41,0.2l-0.23,0.82l-1.51,2.12l-1.02,0.53l-1.02,0.97l-1.31,3.97l-1.17-0.82
	l-0.88,0.02L232.08,79.29z M254.51,70.94l-0.66,0.29l-0.18,0.67l0.5-0.33l0.38,0.53l0.29-0.21l0.57,0.24l-0.44-0.54l0.33-0.36
	L254.51,70.94z M253.21,72.06l-0.7,0.44l0.22,0.27l-0.19,0.5l0.6,0.14l0.25-0.93L253.21,72.06z M251.79,70.85l0.31,0.78l0.48,0.39
	l0.31-0.48l0.25-0.93l-0.61-0.53l-0.39,0.57L251.79,70.85z M250.54,73.31l-0.69-1.09l1.22-1.03l0.4,0.26l-0.05,0.59l0.44,0.54
	l-0.15,0.57l-0.69,0.39L250.54,73.31z"/>
<path class="st122" d="M141.93,69.42l0.12,0.49l-0.94,2.54l-0.41,0.18l0.58,0.03l0.18,0.7l-0.22,0.47l0.32,2.14l-0.26,2.36
	l0.36,0.65l0.71,1.71l-1.26,0.43l-1.49,0.13l-0.69-0.16l-0.66,0.69l0.22,0.87l0.68,0.6l0.21,1.54l-0.7,0.4l-0.45-0.29l-0.5-1.06
	l-17.57,5.74l-1.71-1.78l-0.44-0.7l-0.67-0.38l-0.3-0.44l-0.35-2.24l-1.37-1.76l-0.05-0.95L115.04,80l0.44-1.52l-0.17-0.36
	l-0.69-0.19l-0.29-1.11l-0.81-0.5l-1.58-1.85l-8.7-14.73l7.9-3.1l7.36-3l0.14,0.67l-0.59,0.52l-0.21,1.24l0.19,0.43l2.52,0.76
	l0.9-0.34l1.47,1.1l0.3,0.56l1.95,1.39l1.08,0.35l0.52-0.06l0.93,0.36l0.59,0.66l0.86,0.37l0.69,0.01l1.2,0.69l0.16,0.47l1.18,0.74
	l1.99,0.34l1.89,2l0.35,0.91l1.58,0.37l1.32,1.44l0.57,1l1.53-0.24L141.93,69.42z"/>
<path d="M269.44,54.52c0.08-0.25,0.34-0.42,0.62-0.33l5.7,1.72c3.08,0.93,4.85,4.19,3.93,7.22c-0.94,3.1-4.23,4.86-7.28,3.94
	l-3.63-1.09l-1.77,5.88c-0.08,0.25-0.37,0.41-0.62,0.33l-1.63-0.49c-0.28-0.08-0.41-0.37-0.33-0.62L269.44,54.52z M272.98,64.57
	c1.73,0.52,3.6-0.44,4.14-2.24c0.51-1.7-0.54-3.44-2.27-3.96l-3.45-1.04l-1.87,6.2L272.98,64.57z"/>
<path class="st123" d="M669.21,48.32c-7.01,1.55-17.45,3.68-30.2,5.59c-43.15,6.46-76.13,4.89-87.8,4.47
	c-28.95-1.04-72.59-0.28-136.45,7.83"/>
<path class="st124" d="M507.26,35.48l-0.9,1.02l0.16,0.71l-0.88,2.11l-0.38,0.39l-0.1,4.26l0.23,1.25l-1.72,6.04l0.06,1.29
	l-1.03,2.4l0.24,3.57l-0.71,2.5l-0.35,0.88l-0.37,0.92l-0.7,0.71l-1.68,0.34l-0.31,0.46l0.41,1.32l-0.08,0.83l1.09,0.65l0.4,1.03
	l-5.84,16.71l12.79,4.26l16.6,5.1l8.54,2.52l0.16-2.07l0.34-1.3l-0.56-1.61l-1.17-0.72l-1.84-2.31l0.21-1.49L527.45,85l0.1-0.58
	l-1.5-0.5l-0.62-1.44l-0.72-0.85l1.06-2.06l-0.18-0.81l1.01-2.21l0.72-0.61l0.26-1.19l-0.36-0.73l-0.77-0.4l0.25-0.72l2.11-2.03
	l3.24-0.76l1.71-5.57l0.35,0.31l0.34-0.12l0.2-0.45l0.5-0.12l0.46,0.72l0.33,0.06l0,0l-0.23-1.11l2.4-0.66l1.94-1.1l0.84-0.1
	l2.99-1.79l3.7-1.5l2.07-0.3l3.25-0.19l4.1-0.76l-0.21-0.26l-1.78-0.26l-1.28-0.38l-0.22-0.83l-0.5-0.59l-4.62-0.97l-0.05-1.34
	l-0.71-0.28l-0.89,0.08l-2.13,0.75l-1.86-0.62l-0.81-0.74l0.11-0.76l-1.65-0.93l-0.04-0.77l-0.13-0.66l-0.58,0.23l-1.19-0.35
	l-3.69-3.83l-1.32-0.44l-0.26-0.42l-1.59,0.08l-0.55,0.43l-1.61-0.16l-0.56-0.28l0.25-0.72l-0.19-0.49l-2.68-0.89l0.02-0.66
	l-1.18-0.4l-0.56,0.01l-0.84-1.09l0.34-0.55l0.08-1.11l-0.16-0.57l0.34-1.3V34.9l-0.72-0.99l-1.32-0.44l-1.12,3.4l-13.96-4.84
	L507.26,35.48z"/>
<path class="st125" d="M626.8,73.72l1.04,1.55l-0.43,0.01l-0.55-0.57L626.8,73.72z M627.4,70.88l0.55,1.21l0.8,0.32l0.22-0.17
	l-0.4-0.74l-0.8-0.73L627.4,70.88z M621.3,65.13l0,0.7l0.61,0.37l1.36-0.01l0.31-0.28l-0.96-0.09L621.3,65.13z M619.48,65.09
	l1.02,0.18l0.43,0.66l-1.17-0.04L619.48,65.09z M634.17,78.88l-0.3-0.88l0.07-0.87l-0.11-2.31l-0.55-1.42l-0.37-0.42l-0.18-0.44
	l-2.14-2.58l-1.11-0.01l-0.61-0.58l0.34-0.51L629,67.76l-0.68-0.37l-1.2-0.22l-0.86-0.41l-0.46-0.57l-1.38-1.97l-0.83-0.67
	l-1.14-0.19l-0.95-0.7l-1.45-0.49l-0.86-0.12l-0.76-0.75l0.07-0.81l0.26-1.39l0.57-1.47l-0.43-0.48l-1.22-2.79l-0.83-1.11
	l-0.12-0.88l-0.49-0.69l0.07-0.73l-0.61-1.48l-0.89-0.82l0.2-2.06l0.74-0.21l0.56-0.88l-0.12-0.94l-0.31-0.27l-0.77-0.03l-0.76-0.99
	l-0.46-1.04l0.01-2.19l0.38-1.21l0.07-0.61l0.77,0.09l-0.03,0.47l-0.25,0.2l0,0.73l1.14,0.97l0.01-1.37l-0.43-1l0.16-0.32
	l-0.31-0.51l0.87-0.41l-0.58-0.9l-0.43,0.13l-0.47,1.09l0.15,0.38l-0.25,0.28l-0.28-0.04l-1.65-1.84l0.23-1.63l-0.33-1.15l-1.98-3.8
	l0.27-3.11l0.72-1.03l0.07-1.86l-1.68-3.3l0.1-1.51l2.14-2.11l0.53-0.68l-0.03-0.41l1.25-2.64l0.05-2.45l0.28-0.72l20.35,6.14
	l-5.18,18.22l0.33,1.03l21.52,31.38l-0.28,0.6l0.39,1l0.43,0.54l0.36,1.7l0.7,0.75l0.12,0.56l-0.4,0.36l-1.49,0.44l-0.75,1.03
	l-0.51,2.02l-0.75,0.91l-0.49,0.07l-0.35,2l0.34,0.48l0.56,0.08l0.31,0.48l-0.25,0.69l-0.93,0.61l-0.68-0.05L634.17,78.88z"/>
<path class="st126" d="M440.83,72.3L434,73.65l-1.96-10.27l0.1-1.77L432,61.04l0.11-0.32l-0.45-0.4l-0.87,0.02l-0.41-1.07l0.38-1.89
	l0.55-0.48l0.15-0.75l-0.2-0.39l0.28-0.6l0.21-1.73l0.54-1.66l-0.48-0.74l-1.24-0.39l-0.81-0.72l-0.2-1.2l-0.62-0.92l-2.97-15.43
	l3.96-0.82l1.21,6.03l1.77,1.44l0.12,1.38l1.45,0.8l0.56-0.03l1.92,1.64l0.23,0.52l0.92,0.49l0.23-0.1l0.59,0.37l0.82-0.35l0.18,0.4
	l0.07,5.04l0.33,1.08l0.41-0.03l0.7,0.47l0.56-0.66l0.66-1l0.69,0.26l0.4,0.57l0.23,0.86l1.71,2.15l1.05,0.59l0.74,0.09l0.43,0.71
	l0.46,1.03l0.84,0.32l0.15-0.75l1.94-0.36l0.4-0.53l2.49-0.57l0.35-1.14l0.39-0.35l0.51,0.32l0.86,0.85l0.24-0.08l3.9,14.64
	l-13.15,3.25L440.83,72.3z"/>
</svg>
