<?xml version="1.0" encoding="utf-8"?>
<!-- Generator: Adobe Illustrator 24.0.1, SVG Export Plug-In . SVG Version: 6.00 Build 0)  -->
<svg version="1.1" id="Layer_1" xmlns="http://www.w3.org/2000/svg" xmlns:xlink="http://www.w3.org/1999/xlink" x="0px" y="0px"
	 viewBox="0 0 400 400" style="enable-background:new 0 0 400 400;" xml:space="preserve">
<style type="text/css">
	.st0{fill:none;stroke:#000000;stroke-width:3;stroke-miterlimit:10;}
</style>
<g>
	<g>
		<path d="M121.44,295.56c5.05,5.66,10.63,10.54,16.8,14.94c7.5,5.35,14.84,10.78,21.76,16.88c7.49,6.6,15.1,13.34,24.38,17.33
			c2.31,0.99,5.04,2.21,7.6,2.36c3.28,0.19,6.82-1.73,9.66-3.15c14.55-7.29,26.26-18.84,37.91-29.98
			c5.85-5.6,11.65-11.27,17.25-17.12c4.87-5.09,8.82-10.54,12.17-16.78c4.51-8.4,8.34-17.36,11.04-26.51
			c2.38-8.07,2.1-16.55,1.26-24.85c-0.07-0.73-0.15-1.46-0.25-2.18c-0.25,0.43-0.5,0.86-0.74,1.3c2.59-1.24,5.27-2.82,7.21-4.98
			c2.4-2.67,3.69-6.08,4.55-9.52c1.71-6.92,2.86-14.06,4.07-21.08c1.1-6.4,1.92-12.86,3.94-19.05c1.03-3.15,2.68-6.13,3.48-9.35
			c0.41-1.66,0.55-3.39,0.54-5.1c-0.04-3.99-0.44-8.01-0.82-11.99c-0.54-5.67-1.24-11.33-2.15-16.94c-0.05-0.28-0.15-1.09-0.07-0.35
			c-0.07-0.7-0.13-1.41-0.2-2.11c-0.27-2.97-0.5-5.95-0.65-8.92c-0.16-3.16-0.09-6.32-0.43-9.48c-0.37-3.5-0.98-6.97-1.38-10.46
			c-0.26-2.27-0.9-5.56,0.17-7.72c0.83-1.68,3.28-2.07,4.9-2.49c5.14-1.33,10.37-2.98,12.53-8.36c1.92-4.76,0.2-10.08-1.99-14.44
			c-3.07-6.12-7.6-11.52-12.3-16.45c-20.57-21.59-47.99-35.33-77.07-41.15c-16.29-3.26-33.21-4.4-49.77-2.79
			c-11.61,1.13-23.21,2.59-34.47,5.76c-14.09,3.97-27.38,10.53-38.67,19.91C81.31,47.68,69.29,72.29,63.56,97.79
			c-2.94,13.1-4.21,26.36-4.49,39.77c-0.24,11.4-0.17,22.59,3.56,33.46c4.13,12.03,5.46,24.68,8.85,36.91
			c0.98,3.53,2.07,7.21,4.05,10.34c2.51,3.95,6.2,8.76,11.09,9.62c2.87,0.5,5.37-0.75,7.38-2.72c0.44-0.43,0.84-0.89,1.27-1.33
			c0.18-0.19,0.83-0.63,0.88-0.83c-0.04,0.18,0.34-0.64-0.02-0.06c-0.03,0.05-0.37-0.13-0.32-0.21c-0.02,0.04,0.28,0.85,0.29,0.95
			c0.47,2.85-0.07,6.01-0.2,8.87c-0.19,4.27-0.21,8.55,0.28,12.8c1.33,11.51,6.19,22.68,12.16,32.56
			C112.14,284.2,116.59,290.07,121.44,295.56c1.28,1.45,3.4-0.68,2.12-2.12c-7.82-8.86-14.12-18.59-18.92-29.36
			c-3.1-6.96-5.26-14.25-5.73-21.88c-0.25-3.99-0.09-7.98,0.12-11.97c0.13-2.47,0.52-5.26-0.1-7.7c-0.46-1.82-2.01-3.13-3.91-2.29
			c-1.89,0.84-2.91,3.01-4.67,4.08c-4.83,2.94-9.75-3.81-12.04-7.3c-1.88-2.86-2.88-6.21-3.8-9.47c-1.87-6.63-3.24-13.4-4.49-20.17
			c-1.01-5.49-2.35-10.9-4.15-16.19c-1.43-4.2-2.66-8.4-3.22-12.81c-0.83-6.58-0.71-13.27-0.59-19.89
			c0.15-7.78,0.51-15.55,1.44-23.28c2.76-22.83,10.12-45.89,23.72-64.6c9.02-12.42,20.88-22.56,34.6-29.46
			c11.74-5.91,24.56-9.31,37.51-11.26c15.5-2.34,31.08-3.19,46.71-1.73c27.1,2.53,53.81,11.37,75.89,27.52
			c6.09,4.45,11.81,9.44,17.06,14.87c4.75,4.91,9.31,10.28,12.39,16.43c2.11,4.2,3.86,9.83,0.58,13.94
			c-3.16,3.96-8.71,3.7-12.97,5.64c-4.84,2.2-4.11,7.96-3.58,12.38c0.4,3.34,0.97,6.66,1.33,10c0.33,3.15,0.26,6.31,0.43,9.48
			c0.47,9.14,2.04,18.06,2.95,27.15c0.42,4.17,0.81,8.37,0.92,12.57c0.04,1.58-0.01,3.16-0.37,4.7c-0.73,3.13-2.34,6.03-3.37,9.07
			c-2.05,6.08-2.9,12.42-3.96,18.72c-1.14,6.71-2.37,13.43-3.79,20.09c-0.72,3.36-1.64,6.89-3.86,9.61
			c-1.79,2.19-4.41,3.68-6.93,4.89c-0.42,0.2-0.8,0.82-0.74,1.3c0.9,6.89,1.46,14.29,0.33,21.16c-0.6,3.66-1.84,7.23-3.08,10.71
			c-1.62,4.55-3.47,9.02-5.51,13.39c-3.33,7.13-7.1,14.29-12.44,20.13c-4.72,5.16-9.73,10.06-14.73,14.95
			c-6.18,6.03-12.46,11.98-18.89,17.75c-5.29,4.73-10.64,9.19-16.71,12.9c-3.57,2.19-7.3,4.37-11.25,5.78
			c-1.18,0.42-2.55,0.94-3.83,0.79c-0.87-0.11-2.05-0.54-2.98-0.83c-8-2.58-15.08-7.82-21.39-13.21
			c-7.74-6.61-15.29-13.27-23.6-19.17c-5.56-3.95-11.06-7.86-15.91-12.69c-1.53-1.52-2.99-3.1-4.43-4.71
			C122.27,291.99,120.16,294.12,121.44,295.56z"/>
	</g>
</g>
<g>
	<g>
		<path d="M81.74,68.8c9.23,6.01,18.9,11.42,28.55,16.71c6.56,3.6,13.18,7.1,19.92,10.36c5.83,2.82,11.76,5.56,17.9,7.64
			c6.46,2.19,13.37,3.19,20.14,3.73c8.06,0.64,16.15,0.28,24.17-0.67c18.09-2.16,35.92-6.58,53.64-10.72
			c18.18-4.24,36.32-8.83,54.08-14.61c2.26-0.74,4.51-1.5,6.76-2.28c1.81-0.63,1.03-3.53-0.8-2.89
			c-17.87,6.27-36.28,11.03-54.69,15.44c-7.91,1.89-15.84,3.69-23.78,5.46c-9.55,2.13-19.13,4.22-28.81,5.72
			c-15.33,2.38-31.52,3.07-46.64-1.05c-5.62-1.53-11.02-3.93-16.3-6.37c-6.67-3.09-13.2-6.46-19.67-9.94
			c-10.57-5.68-21.04-11.61-31.2-17.99c-0.59-0.37-1.18-0.74-1.76-1.12C81.63,65.15,80.13,67.75,81.74,68.8L81.74,68.8z"/>
	</g>
</g>
<g>
	<g>
		<path d="M63.5,158c3.79-0.14,7.57-0.46,11.34-0.87c5.99-0.66,12.4-1.37,17.95-3.87c5.7-2.57,8.41-9.23,10.23-14.8
			c2.53-7.75,3.76-15.88,5.02-23.92c1.48-9.45,3.47-18.69,6.9-27.65c0.69-1.8-2.21-2.59-2.89-0.8c-3.01,7.85-5.04,15.97-6.37,24.27
			c-1.24,7.76-2.33,15.58-4.35,23.19c-0.93,3.52-2.04,7.04-3.72,10.28c-1.18,2.28-2.81,4.81-4.9,6.07c-2.1,1.27-4.6,1.9-6.96,2.44
			c-3.02,0.7-6.09,1.18-9.16,1.56c-4.34,0.53-8.72,0.91-13.1,1.07C61.58,155.07,61.57,158.07,63.5,158L63.5,158z"/>
	</g>
</g>
<g>
	<g>
		<path d="M123.6,72.45c14.35,5.67,29.41,9.4,44.75,11.13c3.87,0.44,7.76,0.74,11.65,0.92c1.93,0.09,1.93-2.91,0-3
			c-15.09-0.7-30.04-3.37-44.43-7.96c-3.77-1.2-7.49-2.53-11.17-3.99C122.6,68.84,121.82,71.74,123.6,72.45L123.6,72.45z"/>
	</g>
</g>
<g>
	<g>
		<path d="M134.24,58.3c18.19,9.07,37.97,14.73,58.23,16.56c5.5,0.5,11.01,0.71,16.53,0.64c1.93-0.02,1.93-3.02,0-3
			c-20.67,0.23-41.27-3.54-60.5-11.11c-4.33-1.7-8.58-3.61-12.74-5.69C134.03,54.85,132.51,57.43,134.24,58.3L134.24,58.3z"/>
	</g>
</g>
<g>
	<g>
		<path d="M120.6,39.45c25.67,7.99,52.23,13.06,79.03,15.09c7.11,0.54,14.24,0.86,21.36,0.97c1.93,0.03,1.93-2.97,0-3
			c-27-0.42-53.91-3.92-80.11-10.47c-6.55-1.64-13.05-3.47-19.5-5.47C119.55,35.98,118.76,38.87,120.6,39.45L120.6,39.45z"/>
	</g>
</g>
<g>
	<g>
		<path d="M196.6,62.45c23.31,5.8,47.43,8.34,71.44,7.16c7.48-0.37,14.94-1.11,22.36-2.16c1.9-0.27,1.09-3.16-0.8-2.89
			c-24.79,3.52-50.11,3.04-74.77-1.29c-5.85-1.03-11.67-2.27-17.43-3.71C195.53,59.09,194.73,61.98,196.6,62.45L196.6,62.45z"/>
	</g>
</g>
<g>
	<g>
		<path d="M152.74,23.8c15.63,8.61,32.68,14.59,50.28,17.53c4.47,0.75,8.96,1.3,13.47,1.67c1.92,0.16,1.91-2.84,0-3
			c-17.48-1.44-34.74-5.85-50.74-13.05c-3.91-1.76-7.74-3.68-11.5-5.75C152.56,20.27,151.05,22.86,152.74,23.8L152.74,23.8z"/>
	</g>
</g>
<g>
	<g>
		<path d="M224.44,32.56c12.82,13.21,29.86,21.59,48.13,23.84c3.63,0.45,7.28,0.64,10.93,0.6c1.93-0.02,1.93-3.02,0-3
			c-16.92,0.17-33.6-5.01-47.26-15.06c-3.46-2.55-6.69-5.42-9.68-8.5C225.21,29.05,223.09,31.17,224.44,32.56L224.44,32.56z"/>
	</g>
</g>
<g>
	<g>
		<path d="M282.45,176.6c-4.22-23.26-3.15-47.39,3.19-70.17c1.61-5.78,3.56-11.47,5.81-17.03c0.72-1.79-2.18-2.57-2.89-0.8
			c-9.24,22.86-13.1,47.8-11.15,72.39c0.44,5.5,1.16,10.98,2.15,16.41C279.9,179.3,282.79,178.49,282.45,176.6L282.45,176.6z"/>
	</g>
</g>
<g>
	<g>
		<path d="M283.06,178.06c6.84-8.72,12.36-18.33,16.39-28.66c0.7-1.8-2.2-2.58-2.89-0.8c-3.83,9.81-9.11,19.05-15.61,27.34
			C279.76,177.44,281.87,179.58,283.06,178.06L283.06,178.06z"/>
	</g>
</g>
<g>
	<g>
		<path d="M98.5,212c-1.53-17.94-5.57-35.6-12.05-52.4c-0.69-1.78-3.59-1.01-2.89,0.8C89.95,176.94,94,194.33,95.51,212
			C95.66,213.91,98.66,213.93,98.5,212L98.5,212z"/>
	</g>
</g>
<g>
	<g>
		<path d="M234.6,248.55c-10.86,3.38-22.05,4.92-33.42,4.73c-10.67-0.18-21.34-1.37-31.81-3.41c-2.03-0.4-4.06-0.81-6.07-1.32
			c-1.38-0.35-2.19,1.04-1.69,2.2c0.3,0.71,1.02,1.36,1.56,1.89c2.04,1.99,4.44,3.6,6.78,5.22c4.57,3.16,9.1,6.44,13.92,9.21
			c4.08,2.35,8.38,3.88,13.1,4.37c5.99,0.62,12.11-0.42,17.8-2.28c4.52-1.48,8.87-3.48,12.97-5.86c1.67-0.97,0.16-3.56-1.51-2.59
			c-8.07,4.69-17.41,8.18-26.86,7.89c-4.66-0.14-9.06-1.39-13.13-3.64c-4.17-2.3-8.09-5.08-12.01-7.78
			c-2.8-1.93-5.73-3.77-8.27-6.04c-0.57-0.51-1.14-1.04-1.61-1.64c0.26,0.32-0.09-0.13-0.15-0.27c-0.56,0.73-1.13,1.47-1.69,2.2
			c5.96,1.51,12.09,2.47,18.18,3.28c12.41,1.63,25.09,2.3,37.53,0.59c5.83-0.8,11.57-2.11,17.18-3.86
			C237.24,250.87,236.45,247.98,234.6,248.55L234.6,248.55z"/>
	</g>
</g>
<g>
	<g>
		<path d="M133.94,283.06c7.04,7.56,15.26,13.84,24.32,18.79c7.99,4.36,16.46,7.91,25.44,9.58c10.81,2,21.92,1.17,32.24-2.67
			c8.19-3.05,15.67-7.71,22.31-13.38c4.33-3.7,8.33-7.82,11.81-12.33c0.5-0.65,0.62-1.49,0-2.12c-0.51-0.52-1.63-0.64-2.12,0
			c-7.71,9.97-17.86,18.39-29.39,23.54c-9.38,4.19-19.69,5.81-29.9,4.68c-9.47-1.05-18.53-4.42-26.92-8.84
			c-9.6-5.07-18.27-11.42-25.67-19.38C134.74,279.52,132.62,281.65,133.94,283.06L133.94,283.06z"/>
	</g>
</g>
<g>
	<g>
		<path d="M160.56,220.56c1.17-0.92,3.14-0.38,4.49-0.33c2.18,0.09,4.31-0.36,6.13-1.59c3.13-2.11,5.52-5.44,7.93-8.29
			c1.03-1.21,2.04-2.45,3.15-3.59c0.29-0.3,0.81-0.69,0.84-0.77c0.11-0.25-0.14,0.12-0.13,0.05c-0.53-0.38-1.06-0.76-1.59-1.14
			c0.04-0.21,0.04-0.26,0.01-0.14c-0.13,0.15-0.14,0.36-0.21,0.53c-1.56,3.4-2.7,6.61-2.2,10.42c0.23,1.76,0.74,3.62,2.05,4.89
			c1.48,1.43,3.3,1.4,5.13,0.78c1.77-0.6,3.59-1.07,5.23,0.1c1.51,1.08,2.71,2.55,4.24,3.63c3.61,2.53,8.54,3.82,12.93,3.26
			c1.84-0.23,3.67-0.82,5.05-2.11c0.76-0.71,1.26-1.6,1.56-2.58c0.34-1.14,0.49-2.09,1.49-2.87c0.95-0.75,2.15-0.86,3.28-1.19
			c1.12-0.33,2.12-0.86,2.89-1.76c1.6-1.88,1.63-4.41,1.27-6.72c-0.34-2.17-1.24-4.21-2.54-5.98c-0.53-0.72-1.1-1.4-1.71-2.04
			c-0.22-0.23-0.45-0.47-0.68-0.69c-0.06-0.05-0.11-0.14-0.18-0.18c-0.04-0.04-0.07-0.07-0.1-0.11c0.3,0.33,0.39,0.75,0.27,1.26
			c0.6-1.84-2.29-2.63-2.89-0.8c-0.37,1.12,0.8,1.95,1.46,2.65c1.16,1.21,2.19,2.59,2.82,4.16c0.63,1.58,1.1,3.74,0.58,5.41
			c-0.68,2.22-3.16,1.98-4.94,2.81c-2.25,1.04-3.23,2.85-3.86,5.11c-0.5,1.78-2.35,2.45-4.03,2.67c-4.24,0.57-9.06-0.98-12.25-3.77
			c-1.29-1.13-2.44-2.52-4.03-3.26c-1.88-0.87-3.99-0.77-5.92-0.14c-0.66,0.21-1.55,0.73-2.27,0.6c-0.67-0.12-1.1-0.82-1.35-1.39
			c-0.62-1.41-0.71-3.18-0.61-4.69c0.13-1.86,0.79-3.62,1.59-5.28c0.5-1.03,1.35-2.35,0.72-3.51c-1.52-2.77-4.65,1.32-5.64,2.45
			c-2.62,3.02-5.05,6.36-8.08,9c-1.96,1.71-4.07,1.9-6.55,1.72c-2.04-0.15-3.79-0.02-5.45,1.28
			C156.92,219.63,159.06,221.74,160.56,220.56L160.56,220.56z"/>
	</g>
</g>
<g>
	<g>
		<path d="M132.76,165.3c11.79-7.36,26.13-10.02,39.76-7.18c2.75,0.57,5.45,1.36,8.09,2.33c1.81,0.67,2.6-2.23,0.8-2.89
			c-13.42-4.96-28.52-4.71-41.74,0.82c-2.92,1.22-5.73,2.66-8.42,4.33C129.61,163.72,131.11,166.32,132.76,165.3L132.76,165.3z"/>
	</g>
</g>
<g>
	<g>
		<path d="M227.4,155.45c7.45-2.17,15.34-3.42,23.12-3c5.37,0.29,10.23,2.16,14.42,5.61c1.48,1.22,3.61-0.89,2.12-2.12
			c-4.64-3.83-9.94-6.03-15.9-6.45c-8.21-0.58-16.69,0.78-24.56,3.07C224.75,153.09,225.54,155.99,227.4,155.45L227.4,155.45z"/>
	</g>
</g>
<g>
	<g>
		<path d="M134.26,173.8c7.04-4.32,14.95-6.89,23.22-7.25c7.54-0.32,15.3,0.62,22.62,2.4c1.88,0.45,2.68-2.44,0.8-2.89
			c-7.69-1.86-15.91-2.88-23.83-2.48c-8.65,0.44-16.95,3.11-24.33,7.64C131.1,172.21,132.61,174.81,134.26,173.8L134.26,173.8z"/>
	</g>
</g>
<g>
	<g>
		<path d="M223.76,169.3c6.7-3.49,14.13-5.39,21.7-5.35c6.83,0.04,13.7,1.3,20.15,3.5c1.83,0.63,2.62-2.27,0.8-2.89
			c-6.8-2.33-14.14-3.63-21.34-3.61c-7.97,0.02-15.76,2.09-22.82,5.76C220.53,167.6,222.05,170.19,223.76,169.3L223.76,169.3z"/>
	</g>
</g>
<g>
	<g>
		<path d="M186.3,196.76c7.59-12.44,8.77-27.54,7.2-41.76c-0.21-1.9-3.21-1.92-3,0c1.51,13.7,0.53,28.23-6.8,40.24
			C182.7,196.9,185.29,198.4,186.3,196.76L186.3,196.76z"/>
	</g>
</g>
<g>
	<g>
		<path d="M83.3,196.24c-3.69-6.65-3.69-14.84,0-21.49c0.94-1.69-1.65-3.2-2.59-1.51c-4.21,7.59-4.21,16.92,0,24.51
			C81.64,199.45,84.23,197.93,83.3,196.24L83.3,196.24z"/>
	</g>
</g>
<g>
	<g>
		<path d="M280.45,219.6c-1.7-12.35-1.34-24.97,1-37.2c0.36-1.89-2.53-2.69-2.89-0.8c-2.45,12.81-2.78,25.88-1,38.8
			c0.11,0.81,1.14,1.23,1.85,1.05C280.27,221.22,280.56,220.4,280.45,219.6L280.45,219.6z"/>
	</g>
</g>
<g>
	<g>
		<path d="M283.6,133.45c2.65,0.62,5.12,1.73,7.33,3.32c1.09,0.78,2.08,1.7,2.98,2.69c0.77,0.84,1.18,1.37,1.79,2.29
			c0.45,0.67,1.32,0.96,2.05,0.54c0.67-0.39,0.99-1.38,0.54-2.05c-3.24-4.85-8.21-8.36-13.9-9.69
			C282.52,130.12,281.72,133.01,283.6,133.45L283.6,133.45z"/>
	</g>
</g>
<g>
	<g>
		<path d="M285.6,115.45c0.09,0.04,0.19,0.08,0.28,0.11c0.26,0.1-0.18-0.09-0.01,0c0.19,0.09,0.39,0.18,0.59,0.27
			c0.44,0.21,0.88,0.45,1.3,0.7c0.46,0.27,0.91,0.57,1.35,0.88c0.41,0.3,0.82,0.64,1.27,1.05c0.41,0.38,0.8,0.78,1.18,1.19
			c0.18,0.2,0.36,0.41,0.53,0.62c0.07,0.09,0.15,0.18,0.22,0.28c-0.18-0.24,0.08,0.11,0.09,0.13c0.48,0.66,0.92,1.36,1.31,2.08
			c0.37,0.69,1.39,0.97,2.05,0.54c0.7-0.45,0.93-1.31,0.54-2.05c-2.14-4-5.69-7.04-9.9-8.69c-0.73-0.29-1.68,0.32-1.85,1.05
			C284.36,114.46,284.82,115.14,285.6,115.45L285.6,115.45z"/>
	</g>
</g>
<g>
	<g>
		<path d="M287.45,194.4c2.07-6.23,2.78-12.88,2.05-19.4c-0.09-0.81-0.63-1.5-1.5-1.5c-0.74,0-1.59,0.69-1.5,1.5
			c0.7,6.28,0.05,12.6-1.95,18.6C283.94,195.44,286.84,196.23,287.45,194.4L287.45,194.4z"/>
	</g>
</g>
<g>
	<g>
		<path d="M101.1,124.05c-12.21,4.81-24.03,10.53-35.36,17.15c-1.67,0.97-0.16,3.57,1.51,2.59c11.1-6.49,22.68-12.13,34.64-16.85
			C103.67,126.25,102.9,123.34,101.1,124.05L101.1,124.05z"/>
	</g>
</g>
<g>
	<g>
		<path d="M99.1,109.05c-8.11,1.93-16.12,4.27-24,7c-1.81,0.63-1.03,3.53,0.8,2.89c7.88-2.73,15.89-5.07,24-7
			C101.78,111.5,100.98,108.61,99.1,109.05L99.1,109.05z"/>
	</g>
</g>
<g>
	<g>
		<path d="M100.1,93.05c-7.92,2.31-15.93,4.31-24,6c-1.89,0.4-1.09,3.29,0.8,2.89c8.07-1.69,16.08-3.69,24-6
			C102.75,95.41,101.96,92.51,100.1,93.05L100.1,93.05z"/>
	</g>
</g>
<g>
	<g>
		<path d="M-11.6,324.45c8.39-2.57,16.82-5.01,25.3-7.28c8.07-2.16,16.2-4.12,24.23-6.43c8.74-2.5,17.58-5.24,25.87-9.01
			c7.62-3.47,14.01-8.54,19.06-15.22c5.87-7.77,11.1-16.03,15.44-24.75c0.86-1.72-1.73-3.24-2.59-1.51
			c-3.75,7.54-8.18,14.66-13.08,21.51c-2.49,3.49-5.07,6.87-8.29,9.73c-2.97,2.64-6.3,4.82-9.85,6.6c-3.81,1.91-7.81,3.39-11.82,4.8
			c-4.42,1.56-8.88,3.01-13.38,4.34c-8.11,2.39-16.34,4.38-24.51,6.55c-9.11,2.42-18.17,5.02-27.18,7.78
			C-14.24,322.12-13.45,325.02-11.6,324.45L-11.6,324.45z"/>
	</g>
</g>
<g>
	<g>
		<path d="M96.55,263.6c-3.45,10.7-4.92,22.01-4.28,33.23c0.53,9.23,2.42,18.3,4.62,27.25c4.3,17.48,9.72,34.7,15.54,51.74
			c4.43,12.96,9.15,25.81,14.12,38.58c0.69,1.78,3.59,1.01,2.89-0.8c-8.16-20.97-15.71-42.2-22.26-63.73
			c-2.36-7.76-4.6-15.56-6.6-23.42c-2.12-8.29-4.09-16.68-4.96-25.2c-1.27-12.44-0.02-24.94,3.82-36.85
			C100.04,262.56,97.14,261.77,96.55,263.6L96.55,263.6z"/>
	</g>
</g>
<g>
	<g>
		<path d="M264.5,413c-3.69-28.09-6.75-56.26-9.15-84.49c-0.67-7.83-1.28-15.67-1.85-23.51c-0.14-1.91-3.14-1.93-3,0
			c2.05,28.35,4.75,56.65,8.11,84.88c0.92,7.71,1.88,15.42,2.89,23.12c0.11,0.81,0.61,1.49,1.5,1.5
			C263.73,414.51,264.61,413.8,264.5,413L264.5,413z"/>
	</g>
</g>
<g>
	<g>
		<path d="M257.44,299.56c9.76,9.25,21.35,16.44,34.13,20.68c10.6,3.52,21.72,4.92,32.43,7.99c8.54,2.45,16.83,5.77,25.06,9.12
			c11.45,4.66,22.88,9.4,34.18,14.4c14.06,6.21,27.89,12.91,41.5,20.05c1.71,0.9,3.23-1.69,1.51-2.59
			c-23.19-12.15-47.07-22.64-71.25-32.63c-8.85-3.66-17.73-7.34-26.87-10.23c-9.85-3.12-20.1-4.58-30.06-7.29
			c-14.5-3.95-27.6-11.28-38.52-21.62C258.16,296.11,256.03,298.23,257.44,299.56L257.44,299.56z"/>
	</g>
</g>
<g>
	<g>
		<path d="M132.06,403.06c12.08-14.19,24.72-27.91,37.89-41.11c3.66-3.67,7.37-7.3,11.11-10.89c1.4-1.34-0.73-3.46-2.12-2.12
			c-13.54,12.98-26.56,26.5-39.02,40.52c-3.37,3.79-6.69,7.62-9.98,11.48C128.69,402.4,130.81,404.53,132.06,403.06L132.06,403.06z"
			/>
	</g>
</g>
<g>
	<g>
		<path d="M200.94,349.06c8.18,6.65,15.41,14.56,21.01,23.52c2.76,4.42,5.1,9.08,7.77,13.56c2.33,3.9,4.83,7.7,7.5,11.38
			c3.93,5.43,8.19,10.61,12.72,15.55c1.31,1.42,3.43-0.7,2.12-2.12c-7.12-7.75-13.54-16.12-19.02-25.11
			c-2.76-4.53-5.15-9.28-7.91-13.81c-3.01-4.95-6.53-9.61-10.39-13.94c-3.58-4.02-7.5-7.74-11.68-11.14
			C201.58,345.73,199.44,347.84,200.94,349.06L200.94,349.06z"/>
	</g>
</g>
<g>
	<g>
		<path d="M159.94,373.06c2.01,2.27,4.24,4.32,6.73,6.06c1.97,1.39,4.11,2.34,6.22,3.48c3.31,1.79,6.3,6.07,5.53,9.95
			c-0.67,3.39-3.75,5.35-5.7,7.98c-2.03,2.74-3.43,5.94-4.52,9.15c-2.01,5.91-3,12.14-3.69,18.32c-0.21,1.92,2.79,1.9,3,0
			c0.64-5.73,1.59-11.48,3.39-16.97c1.06-3.22,2.44-6.43,4.51-9.13c0.6-0.78,1.51-1.68,2.29-2.46c1.72-1.72,3.18-3.85,3.65-6.28
			c0.79-4.14-1.33-8.4-4.28-11.22c-2.08-1.98-4.85-2.86-7.26-4.34c-2.93-1.8-5.47-4.1-7.74-6.66
			C160.77,369.49,158.66,371.62,159.94,373.06L159.94,373.06z"/>
	</g>
</g>
<g>
	<g>
		<path d="M217.94,368.94c-1.73,2.05-3.59,3.98-5.58,5.77c-1.93,1.73-4.08,3.14-6.04,4.82c-3.38,2.9-4.37,7.19-4.68,11.45
			c-0.68,9.22,0.43,18.73,3.05,27.59c1.97,6.66,4.69,13.09,8.02,19.18c0.93,1.69,3.52,0.18,2.59-1.51
			c-4.41-8.06-7.89-16.85-9.53-25.92c-0.94-5.22-1.35-10.54-1.27-15.84c0.06-4.19,0.15-9.11,3.33-12.27
			c1.79-1.78,4.05-3.11,5.96-4.77c2.26-1.96,4.35-4.1,6.28-6.38C221.3,369.59,219.18,367.46,217.94,368.94L217.94,368.94z"/>
	</g>
</g>
<g>
	<g>
		<path d="M182.76,395.3c5.27-2.7,11.57-2.24,16.49,1c1.62,1.07,3.12-1.53,1.51-2.59c-5.82-3.84-13.32-4.18-19.51-1
			C179.52,393.59,181.04,396.18,182.76,395.3L182.76,395.3z"/>
	</g>
</g>
<path class="st0" d="M145.32,168.02c2.46,4.35,7.06,7.02,11.96,6.92c5.41-0.12,10.29-3.61,12.26-8.8"/>
<path class="st0" d="M232.46,165.34c2.29,4.44,6.79,7.29,11.69,7.37c5.41,0.09,10.42-3.21,12.59-8.33"/>
</svg>
