<?xml version="1.0" encoding="utf-8"?>
<!-- Generator: Adobe Illustrator 24.0.1, SVG Export Plug-In . SVG Version: 6.00 Build 0)  -->
<svg version="1.1" id="Layer_1" xmlns="http://www.w3.org/2000/svg" xmlns:xlink="http://www.w3.org/1999/xlink" x="0px" y="0px"
	 viewBox="0 0 400 400" style="enable-background:new 0 0 400 400;" xml:space="preserve">
<style type="text/css">
	.st0{stroke:#000000;stroke-width:2;stroke-miterlimit:10;}
</style>
<g>
	<g>
		<path class="st0" d="M121.4,295.6c5.1,5.7,10.6,10.5,16.8,14.9c7.5,5.4,14.8,10.8,21.8,16.9c7.5,6.6,15.1,13.3,24.4,17.3
			c2.3,1,5,2.2,7.6,2.4c3.3,0.2,6.8-1.7,9.7-3.1c14.6-7.3,26.3-18.8,37.9-30c5.9-5.6,11.6-11.3,17.2-17.1
			c4.9-5.1,8.8-10.5,12.2-16.8c4.5-8.4,8.3-17.4,11-26.5c2.4-8.1,2.1-16.6,1.3-24.9c-0.1-0.7-0.1-1.5-0.2-2.2
			c-0.2,0.4-0.5,0.9-0.7,1.3c2.6-1.2,5.3-2.8,7.2-5c2.4-2.7,3.7-6.1,4.5-9.5c1.7-6.9,2.9-14.1,4.1-21.1c1.1-6.4,1.9-12.9,3.9-19.1
			c1-3.1,2.7-6.1,3.5-9.4c0.4-1.7,0.5-3.4,0.5-5.1c0-4-0.4-8-0.8-12c-0.5-5.7-1.2-11.3-2.1-16.9c0-0.3-0.1-1.1-0.1-0.4
			c-0.1-0.7-0.1-1.4-0.2-2.1c-0.3-3-0.5-5.9-0.6-8.9c-0.2-3.2-0.1-6.3-0.4-9.5c-0.4-3.5-1-7-1.4-10.5c-0.3-2.3-0.9-5.6,0.2-7.7
			c0.8-1.7,3.3-2.1,4.9-2.5c5.1-1.3,10.4-3,12.5-8.4c1.9-4.8,0.2-10.1-2-14.4c-3.1-6.1-7.6-11.5-12.3-16.5
			c-20.6-21.6-48-35.3-77.1-41.2c-16.3-3.3-33.2-4.4-49.8-2.8c-11.6,1.1-23.2,2.6-34.5,5.8c-14.1,4-27.4,10.5-38.7,19.9
			C81.3,47.7,69.3,72.3,63.6,97.8c-2.9,13.1-4.2,26.4-4.5,39.8c-0.2,11.4-0.2,22.6,3.6,33.5c4.1,12,5.5,24.7,8.9,36.9
			c1,3.5,2.1,7.2,4.1,10.3c2.5,3.9,6.2,8.8,11.1,9.6c2.9,0.5,5.4-0.8,7.4-2.7c0.4-0.4,0.8-0.9,1.3-1.3c0.2-0.2,0.8-0.6,0.9-0.8
			c0,0.2,0.3-0.6,0-0.1c0,0.1-0.4-0.1-0.3-0.2c0,0,0.3,0.9,0.3,0.9c0.5,2.9-0.1,6-0.2,8.9c-0.2,4.3-0.2,8.6,0.3,12.8
			c1.3,11.5,6.2,22.7,12.2,32.6C112.1,284.2,116.6,290.1,121.4,295.6c1.3,1.5,3.4-0.7,2.1-2.1c-7.8-8.9-14.1-18.6-18.9-29.4
			c-3.1-7-5.3-14.2-5.7-21.9c-0.2-4-0.1-8,0.1-12c0.1-2.5,0.5-5.3-0.1-7.7c-0.5-1.8-2-3.1-3.9-2.3c-1.9,0.8-2.9,3-4.7,4.1
			c-4.8,2.9-9.8-3.8-12-7.3c-1.9-2.9-2.9-6.2-3.8-9.5c-1.9-6.6-3.2-13.4-4.5-20.2c-1-5.5-2.3-10.9-4.2-16.2
			c-1.4-4.2-2.7-8.4-3.2-12.8c-0.8-6.6-0.7-13.3-0.6-19.9c0.2-7.8,0.5-15.6,1.4-23.3c2.8-22.8,10.1-45.9,23.7-64.6
			c9-12.4,20.9-22.6,34.6-29.5c11.7-5.9,24.6-9.3,37.5-11.3c15.5-2.3,31.1-3.2,46.7-1.7c27.1,2.5,53.8,11.4,75.9,27.5
			c6.1,4.5,11.8,9.4,17.1,14.9c4.8,4.9,9.3,10.3,12.4,16.4c2.1,4.2,3.9,9.8,0.6,13.9c-3.2,4-8.7,3.7-13,5.6c-4.8,2.2-4.1,8-3.6,12.4
			c0.4,3.3,1,6.7,1.3,10c0.3,3.2,0.3,6.3,0.4,9.5c0.5,9.1,2,18.1,3,27.1c0.4,4.2,0.8,8.4,0.9,12.6c0,1.6,0,3.2-0.4,4.7
			c-0.7,3.1-2.3,6-3.4,9.1c-2,6.1-2.9,12.4-4,18.7c-1.1,6.7-2.4,13.4-3.8,20.1c-0.7,3.4-1.6,6.9-3.9,9.6c-1.8,2.2-4.4,3.7-6.9,4.9
			c-0.4,0.2-0.8,0.8-0.7,1.3c0.9,6.9,1.5,14.3,0.3,21.2c-0.6,3.7-1.8,7.2-3.1,10.7c-1.6,4.5-3.5,9-5.5,13.4
			c-3.3,7.1-7.1,14.3-12.4,20.1c-4.7,5.2-9.7,10.1-14.7,15c-6.2,6-12.5,12-18.9,17.8c-5.3,4.7-10.6,9.2-16.7,12.9
			c-3.6,2.2-7.3,4.4-11.2,5.8c-1.2,0.4-2.6,0.9-3.8,0.8c-0.9-0.1-2.1-0.5-3-0.8c-8-2.6-15.1-7.8-21.4-13.2
			c-7.7-6.6-15.3-13.3-23.6-19.2c-5.6-4-11.1-7.9-15.9-12.7c-1.5-1.5-3-3.1-4.4-4.7C122.3,292,120.2,294.1,121.4,295.6z"/>
	</g>
</g>
<g>
	<g>
		<path class="st0" d="M81.7,68.8c9.2,6,18.9,11.4,28.5,16.7c6.6,3.6,13.2,7.1,19.9,10.4c5.8,2.8,11.8,5.6,17.9,7.6
			c6.5,2.2,13.4,3.2,20.1,3.7c8.1,0.6,16.1,0.3,24.2-0.7c18.1-2.2,35.9-6.6,53.6-10.7c18.2-4.2,36.3-8.8,54.1-14.6
			c2.3-0.7,4.5-1.5,6.8-2.3c1.8-0.6,1-3.5-0.8-2.9c-17.9,6.3-36.3,11-54.7,15.4c-7.9,1.9-15.8,3.7-23.8,5.5
			c-9.6,2.1-19.1,4.2-28.8,5.7c-15.3,2.4-31.5,3.1-46.6-1.1c-5.6-1.5-11-3.9-16.3-6.4c-6.7-3.1-13.2-6.5-19.7-9.9
			c-10.6-5.7-21-11.6-31.2-18c-0.6-0.4-1.2-0.7-1.8-1.1C81.6,65.2,80.1,67.8,81.7,68.8L81.7,68.8z"/>
	</g>
</g>
<g>
	<g>
		<path class="st0" d="M63.5,158c3.8-0.1,7.6-0.5,11.3-0.9c6-0.7,12.4-1.4,17.9-3.9c5.7-2.6,8.4-9.2,10.2-14.8
			c2.5-7.8,3.8-15.9,5-23.9c1.5-9.4,3.5-18.7,6.9-27.7c0.7-1.8-2.2-2.6-2.9-0.8c-3,7.8-5,16-6.4,24.3c-1.2,7.8-2.3,15.6-4.3,23.2
			c-0.9,3.5-2,7-3.7,10.3c-1.2,2.3-2.8,4.8-4.9,6.1c-2.1,1.3-4.6,1.9-7,2.4c-3,0.7-6.1,1.2-9.2,1.6c-4.3,0.5-8.7,0.9-13.1,1.1
			C61.6,155.1,61.6,158.1,63.5,158L63.5,158z"/>
	</g>
</g>
<g>
	<g>
		<path class="st0" d="M123.6,72.4c14.3,5.7,29.4,9.4,44.8,11.1c3.9,0.4,7.8,0.7,11.6,0.9c1.9,0.1,1.9-2.9,0-3
			c-15.1-0.7-30-3.4-44.4-8c-3.8-1.2-7.5-2.5-11.2-4C122.6,68.8,121.8,71.7,123.6,72.4L123.6,72.4z"/>
	</g>
</g>
<g>
	<g>
		<path class="st0" d="M134.2,58.3c18.2,9.1,38,14.7,58.2,16.6c5.5,0.5,11,0.7,16.5,0.6c1.9,0,1.9-3,0-3
			c-20.7,0.2-41.3-3.5-60.5-11.1c-4.3-1.7-8.6-3.6-12.7-5.7C134,54.8,132.5,57.4,134.2,58.3L134.2,58.3z"/>
	</g>
</g>
<g>
	<g>
		<path class="st0" d="M120.6,39.5c25.7,8,52.2,13.1,79,15.1c7.1,0.5,14.2,0.9,21.4,1c1.9,0,1.9-3,0-3c-27-0.4-53.9-3.9-80.1-10.5
			c-6.6-1.6-13.1-3.5-19.5-5.5C119.6,36,118.8,38.9,120.6,39.5L120.6,39.5z"/>
	</g>
</g>
<g>
	<g>
		<path class="st0" d="M196.6,62.5c23.3,5.8,47.4,8.3,71.4,7.2c7.5-0.4,14.9-1.1,22.4-2.2c1.9-0.3,1.1-3.2-0.8-2.9
			c-24.8,3.5-50.1,3-74.8-1.3c-5.9-1-11.7-2.3-17.4-3.7C195.5,59.1,194.7,62,196.6,62.5L196.6,62.5z"/>
	</g>
</g>
<g>
	<g>
		<path class="st0" d="M152.7,23.8c15.6,8.6,32.7,14.6,50.3,17.5c4.5,0.8,9,1.3,13.5,1.7c1.9,0.2,1.9-2.8,0-3
			c-17.5-1.4-34.7-5.8-50.7-13c-3.9-1.8-7.7-3.7-11.5-5.8C152.6,20.3,151.1,22.9,152.7,23.8L152.7,23.8z"/>
	</g>
</g>
<g>
	<g>
		<path class="st0" d="M224.4,32.6c12.8,13.2,29.9,21.6,48.1,23.8c3.6,0.5,7.3,0.6,10.9,0.6c1.9,0,1.9-3,0-3
			c-16.9,0.2-33.6-5-47.3-15.1c-3.5-2.5-6.7-5.4-9.7-8.5C225.2,29,223.1,31.2,224.4,32.6L224.4,32.6z"/>
	</g>
</g>
<g>
	<g>
		<path class="st0" d="M282.5,176.6c-4.2-23.3-3.1-47.4,3.2-70.2c1.6-5.8,3.6-11.5,5.8-17c0.7-1.8-2.2-2.6-2.9-0.8
			c-9.2,22.9-13.1,47.8-11.1,72.4c0.4,5.5,1.2,11,2.1,16.4C279.9,179.3,282.8,178.5,282.5,176.6L282.5,176.6z"/>
	</g>
</g>
<g>
	<g>
		<path class="st0" d="M283.1,178.1c6.8-8.7,12.4-18.3,16.4-28.7c0.7-1.8-2.2-2.6-2.9-0.8c-3.8,9.8-9.1,19.1-15.6,27.3
			C279.8,177.4,281.9,179.6,283.1,178.1L283.1,178.1z"/>
	</g>
</g>
<g>
	<g>
		<path class="st0" d="M98.5,212c-1.5-17.9-5.6-35.6-12.1-52.4c-0.7-1.8-3.6-1-2.9,0.8c6.4,16.5,10.4,33.9,11.9,51.6
			C95.7,213.9,98.7,213.9,98.5,212L98.5,212z"/>
	</g>
</g>
<g>
	<g>
		<path class="st0" d="M234.6,248.6c-10.9,3.4-22.1,4.9-33.4,4.7c-10.7-0.2-21.3-1.4-31.8-3.4c-2-0.4-4.1-0.8-6.1-1.3
			c-1.4-0.4-2.2,1-1.7,2.2c0.3,0.7,1,1.4,1.6,1.9c2,2,4.4,3.6,6.8,5.2c4.6,3.2,9.1,6.4,13.9,9.2c4.1,2.4,8.4,3.9,13.1,4.4
			c6,0.6,12.1-0.4,17.8-2.3c4.5-1.5,8.9-3.5,13-5.9c1.7-1,0.2-3.6-1.5-2.6c-8.1,4.7-17.4,8.2-26.9,7.9c-4.7-0.1-9.1-1.4-13.1-3.6
			c-4.2-2.3-8.1-5.1-12-7.8c-2.8-1.9-5.7-3.8-8.3-6c-0.6-0.5-1.1-1-1.6-1.6c0.3,0.3-0.1-0.1-0.1-0.3c-0.6,0.7-1.1,1.5-1.7,2.2
			c6,1.5,12.1,2.5,18.2,3.3c12.4,1.6,25.1,2.3,37.5,0.6c5.8-0.8,11.6-2.1,17.2-3.9C237.2,250.9,236.4,248,234.6,248.6L234.6,248.6z"
			/>
	</g>
</g>
<g>
	<g>
		<path class="st0" d="M133.9,283.1c7,7.6,15.3,13.8,24.3,18.8c8,4.4,16.5,7.9,25.4,9.6c10.8,2,21.9,1.2,32.2-2.7
			c8.2-3,15.7-7.7,22.3-13.4c4.3-3.7,8.3-7.8,11.8-12.3c0.5-0.6,0.6-1.5,0-2.1c-0.5-0.5-1.6-0.6-2.1,0c-7.7,10-17.9,18.4-29.4,23.5
			c-9.4,4.2-19.7,5.8-29.9,4.7c-9.5-1-18.5-4.4-26.9-8.8c-9.6-5.1-18.3-11.4-25.7-19.4C134.7,279.5,132.6,281.6,133.9,283.1
			L133.9,283.1z"/>
	</g>
</g>
<g>
	<g>
		<path class="st0" d="M160.6,220.6c1.2-0.9,3.1-0.4,4.5-0.3c2.2,0.1,4.3-0.4,6.1-1.6c3.1-2.1,5.5-5.4,7.9-8.3c1-1.2,2-2.4,3.1-3.6
			c0.3-0.3,0.8-0.7,0.8-0.8c0.1-0.2-0.1,0.1-0.1,0.1c-0.5-0.4-1.1-0.8-1.6-1.1c0-0.2,0-0.3,0-0.1c-0.1,0.1-0.1,0.4-0.2,0.5
			c-1.6,3.4-2.7,6.6-2.2,10.4c0.2,1.8,0.7,3.6,2.1,4.9c1.5,1.4,3.3,1.4,5.1,0.8c1.8-0.6,3.6-1.1,5.2,0.1c1.5,1.1,2.7,2.6,4.2,3.6
			c3.6,2.5,8.5,3.8,12.9,3.3c1.8-0.2,3.7-0.8,5.1-2.1c0.8-0.7,1.3-1.6,1.6-2.6c0.3-1.1,0.5-2.1,1.5-2.9c0.9-0.8,2.1-0.9,3.3-1.2
			c1.1-0.3,2.1-0.9,2.9-1.8c1.6-1.9,1.6-4.4,1.3-6.7c-0.3-2.2-1.2-4.2-2.5-6c-0.5-0.7-1.1-1.4-1.7-2c-0.2-0.2-0.4-0.5-0.7-0.7
			c-0.1-0.1-0.1-0.1-0.2-0.2c0,0-0.1-0.1-0.1-0.1c0.3,0.3,0.4,0.8,0.3,1.3c0.6-1.8-2.3-2.6-2.9-0.8c-0.4,1.1,0.8,1.9,1.5,2.6
			c1.2,1.2,2.2,2.6,2.8,4.2c0.6,1.6,1.1,3.7,0.6,5.4c-0.7,2.2-3.2,2-4.9,2.8c-2.2,1-3.2,2.9-3.9,5.1c-0.5,1.8-2.4,2.4-4,2.7
			c-4.2,0.6-9.1-1-12.2-3.8c-1.3-1.1-2.4-2.5-4-3.3c-1.9-0.9-4-0.8-5.9-0.1c-0.7,0.2-1.6,0.7-2.3,0.6c-0.7-0.1-1.1-0.8-1.4-1.4
			c-0.6-1.4-0.7-3.2-0.6-4.7c0.1-1.9,0.8-3.6,1.6-5.3c0.5-1,1.4-2.4,0.7-3.5c-1.5-2.8-4.6,1.3-5.6,2.4c-2.6,3-5.1,6.4-8.1,9
			c-2,1.7-4.1,1.9-6.6,1.7c-2-0.1-3.8,0-5.4,1.3C156.9,219.6,159.1,221.7,160.6,220.6L160.6,220.6z"/>
	</g>
</g>
<g>
	<g>
		<path class="st0" d="M132.8,165.3c11.8-7.4,26.1-10,39.8-7.2c2.8,0.6,5.4,1.4,8.1,2.3c1.8,0.7,2.6-2.2,0.8-2.9
			c-13.4-5-28.5-4.7-41.7,0.8c-2.9,1.2-5.7,2.7-8.4,4.3C129.6,163.7,131.1,166.3,132.8,165.3L132.8,165.3z"/>
	</g>
</g>
<g>
	<g>
		<path class="st0" d="M227.4,155.4c7.4-2.2,15.3-3.4,23.1-3c5.4,0.3,10.2,2.2,14.4,5.6c1.5,1.2,3.6-0.9,2.1-2.1
			c-4.6-3.8-9.9-6-15.9-6.4c-8.2-0.6-16.7,0.8-24.6,3.1C224.8,153.1,225.5,156,227.4,155.4L227.4,155.4z"/>
	</g>
</g>
<g>
	<g>
		<path class="st0" d="M134.3,173.8c7-4.3,14.9-6.9,23.2-7.2c7.5-0.3,15.3,0.6,22.6,2.4c1.9,0.4,2.7-2.4,0.8-2.9
			c-7.7-1.9-15.9-2.9-23.8-2.5c-8.6,0.4-16.9,3.1-24.3,7.6C131.1,172.2,132.6,174.8,134.3,173.8L134.3,173.8z"/>
	</g>
</g>
<g>
	<g>
		<path class="st0" d="M223.8,169.3c6.7-3.5,14.1-5.4,21.7-5.4c6.8,0,13.7,1.3,20.1,3.5c1.8,0.6,2.6-2.3,0.8-2.9
			c-6.8-2.3-14.1-3.6-21.3-3.6c-8,0-15.8,2.1-22.8,5.8C220.5,167.6,222.1,170.2,223.8,169.3L223.8,169.3z"/>
	</g>
</g>
<g>
	<g>
		<path class="st0" d="M186.3,196.8c7.6-12.4,8.8-27.5,7.2-41.8c-0.2-1.9-3.2-1.9-3,0c1.5,13.7,0.5,28.2-6.8,40.2
			C182.7,196.9,185.3,198.4,186.3,196.8L186.3,196.8z"/>
	</g>
</g>
<g>
	<g>
		<path class="st0" d="M141.4,181.6c3.7,3.1,8.1,5,12.9,5.3c6.2,0.5,12.6-0.4,18.6-2c1.9-0.5,1.1-3.4-0.8-2.9
			c-5.5,1.4-11.3,2.2-17.1,1.9c-4.3-0.2-8.2-1.7-11.5-4.5C142.1,178.2,140,180.3,141.4,181.6L141.4,181.6z"/>
	</g>
</g>
<g>
	<g>
		<path class="st0" d="M231.6,182.4c9.2,2.1,18.7,0.9,27.2-3.1c1.7-0.8,0.2-3.4-1.5-2.6c-7.7,3.7-16.5,4.7-24.8,2.9
			C230.5,179.1,229.7,182,231.6,182.4L231.6,182.4z"/>
	</g>
</g>
<g>
	<g>
		<path class="st0" d="M83.3,196.2c-3.7-6.6-3.7-14.8,0-21.5c0.9-1.7-1.7-3.2-2.6-1.5c-4.2,7.6-4.2,16.9,0,24.5
			C81.6,199.4,84.2,197.9,83.3,196.2L83.3,196.2z"/>
	</g>
</g>
<g>
	<g>
		<path class="st0" d="M280.5,219.6c-1.7-12.4-1.3-25,1-37.2c0.4-1.9-2.5-2.7-2.9-0.8c-2.5,12.8-2.8,25.9-1,38.8
			c0.1,0.8,1.1,1.2,1.9,1.1C280.3,221.2,280.6,220.4,280.5,219.6L280.5,219.6z"/>
	</g>
</g>
<g>
	<g>
		<path class="st0" d="M283.6,133.4c2.6,0.6,5.1,1.7,7.3,3.3c1.1,0.8,2.1,1.7,3,2.7c0.8,0.8,1.2,1.4,1.8,2.3c0.5,0.7,1.3,1,2,0.5
			c0.7-0.4,1-1.4,0.5-2.1c-3.2-4.9-8.2-8.4-13.9-9.7C282.5,130.1,281.7,133,283.6,133.4L283.6,133.4z"/>
	</g>
</g>
<g>
	<g>
		<path class="st0" d="M285.6,115.4c0.1,0,0.2,0.1,0.3,0.1c0.3,0.1-0.2-0.1,0,0c0.2,0.1,0.4,0.2,0.6,0.3c0.4,0.2,0.9,0.4,1.3,0.7
			c0.5,0.3,0.9,0.6,1.4,0.9c0.4,0.3,0.8,0.6,1.3,1.1c0.4,0.4,0.8,0.8,1.2,1.2c0.2,0.2,0.4,0.4,0.5,0.6c0.1,0.1,0.1,0.2,0.2,0.3
			c-0.2-0.2,0.1,0.1,0.1,0.1c0.5,0.7,0.9,1.4,1.3,2.1c0.4,0.7,1.4,1,2,0.5c0.7-0.4,0.9-1.3,0.5-2.1c-2.1-4-5.7-7-9.9-8.7
			c-0.7-0.3-1.7,0.3-1.9,1.1C284.4,114.5,284.8,115.1,285.6,115.4L285.6,115.4z"/>
	</g>
</g>
<g>
	<g>
		<path class="st0" d="M287.5,194.4c2.1-6.2,2.8-12.9,2-19.4c-0.1-0.8-0.6-1.5-1.5-1.5c-0.7,0-1.6,0.7-1.5,1.5
			c0.7,6.3,0,12.6-2,18.6C283.9,195.4,286.8,196.2,287.5,194.4L287.5,194.4z"/>
	</g>
</g>
<g>
	<g>
		<path class="st0" d="M146.2,169.3c8.7,4.6,19,3.5,27.5-1c1.7-0.9,0.2-3.5-1.5-2.6c-7.5,4-16.8,5.1-24.5,1
			C146.1,165.8,144.5,168.4,146.2,169.3L146.2,169.3z"/>
	</g>
</g>
<g>
	<g>
		<path class="st0" d="M230.3,166.8c8.7,4.6,19,3.5,27.5-1c1.7-0.9,0.2-3.5-1.5-2.6c-7.5,4-16.8,5.1-24.5,1
			C230.1,163.3,228.6,165.9,230.3,166.8L230.3,166.8z"/>
	</g>
</g>
<g>
	<g>
		<path class="st0" d="M101.1,124.1c-12.2,4.8-24,10.5-35.4,17.1c-1.7,1-0.2,3.6,1.5,2.6c11.1-6.5,22.7-12.1,34.6-16.8
			C103.7,126.2,102.9,123.3,101.1,124.1L101.1,124.1z"/>
	</g>
</g>
<g>
	<g>
		<path class="st0" d="M99.1,109.1c-8.1,1.9-16.1,4.3-24,7c-1.8,0.6-1,3.5,0.8,2.9c7.9-2.7,15.9-5.1,24-7
			C101.8,111.5,101,108.6,99.1,109.1L99.1,109.1z"/>
	</g>
</g>
<g>
	<g>
		<path class="st0" d="M100.1,93.1c-7.9,2.3-15.9,4.3-24,6c-1.9,0.4-1.1,3.3,0.8,2.9c8.1-1.7,16.1-3.7,24-6
			C102.8,95.4,102,92.5,100.1,93.1L100.1,93.1z"/>
	</g>
</g>
<g>
	<g>
		<path class="st0" d="M-11.6,324.5c8.4-2.6,16.8-5,25.3-7.3c8.1-2.2,16.2-4.1,24.2-6.4c8.7-2.5,17.6-5.2,25.9-9
			c7.6-3.5,14-8.5,19.1-15.2c5.9-7.8,11.1-16,15.4-24.8c0.9-1.7-1.7-3.2-2.6-1.5c-3.8,7.5-8.2,14.7-13.1,21.5
			c-2.5,3.5-5.1,6.9-8.3,9.7c-3,2.6-6.3,4.8-9.8,6.6c-3.8,1.9-7.8,3.4-11.8,4.8c-4.4,1.6-8.9,3-13.4,4.3c-8.1,2.4-16.3,4.4-24.5,6.5
			c-9.1,2.4-18.2,5-27.2,7.8C-14.2,322.1-13.4,325-11.6,324.5L-11.6,324.5z"/>
	</g>
</g>
<g>
	<g>
		<path class="st0" d="M96.6,263.6c-3.4,10.7-4.9,22-4.3,33.2c0.5,9.2,2.4,18.3,4.6,27.2c4.3,17.5,9.7,34.7,15.5,51.7
			c4.4,13,9.2,25.8,14.1,38.6c0.7,1.8,3.6,1,2.9-0.8c-8.2-21-15.7-42.2-22.3-63.7c-2.4-7.8-4.6-15.6-6.6-23.4
			c-2.1-8.3-4.1-16.7-5-25.2c-1.3-12.4,0-24.9,3.8-36.9C100,262.6,97.1,261.8,96.6,263.6L96.6,263.6z"/>
	</g>
</g>
<g>
	<g>
		<path class="st0" d="M264.5,413c-3.7-28.1-6.8-56.3-9.1-84.5c-0.7-7.8-1.3-15.7-1.9-23.5c-0.1-1.9-3.1-1.9-3,0
			c2.1,28.4,4.8,56.6,8.1,84.9c0.9,7.7,1.9,15.4,2.9,23.1c0.1,0.8,0.6,1.5,1.5,1.5C263.7,414.5,264.6,413.8,264.5,413L264.5,413z"/>
	</g>
</g>
<g>
	<g>
		<path class="st0" d="M257.4,299.6c9.8,9.2,21.4,16.4,34.1,20.7c10.6,3.5,21.7,4.9,32.4,8c8.5,2.5,16.8,5.8,25.1,9.1
			c11.5,4.7,22.9,9.4,34.2,14.4c14.1,6.2,27.9,12.9,41.5,20c1.7,0.9,3.2-1.7,1.5-2.6c-23.2-12.1-47.1-22.6-71.2-32.6
			c-8.9-3.7-17.7-7.3-26.9-10.2c-9.9-3.1-20.1-4.6-30.1-7.3c-14.5-4-27.6-11.3-38.5-21.6C258.2,296.1,256,298.2,257.4,299.6
			L257.4,299.6z"/>
	</g>
</g>
<g>
	<g>
		<path class="st0" d="M132.1,403.1c12.1-14.2,24.7-27.9,37.9-41.1c3.7-3.7,7.4-7.3,11.1-10.9c1.4-1.3-0.7-3.5-2.1-2.1
			c-13.5,13-26.6,26.5-39,40.5c-3.4,3.8-6.7,7.6-10,11.5C128.7,402.4,130.8,404.5,132.1,403.1L132.1,403.1z"/>
	</g>
</g>
<g>
	<g>
		<path class="st0" d="M200.9,349.1c8.2,6.6,15.4,14.6,21,23.5c2.8,4.4,5.1,9.1,7.8,13.6c2.3,3.9,4.8,7.7,7.5,11.4
			c3.9,5.4,8.2,10.6,12.7,15.5c1.3,1.4,3.4-0.7,2.1-2.1c-7.1-7.8-13.5-16.1-19-25.1c-2.8-4.5-5.1-9.3-7.9-13.8
			c-3-5-6.5-9.6-10.4-13.9c-3.6-4-7.5-7.7-11.7-11.1C201.6,345.7,199.4,347.8,200.9,349.1L200.9,349.1z"/>
	</g>
</g>
<g>
	<g>
		<path class="st0" d="M159.9,373.1c2,2.3,4.2,4.3,6.7,6.1c2,1.4,4.1,2.3,6.2,3.5c3.3,1.8,6.3,6.1,5.5,10c-0.7,3.4-3.8,5.4-5.7,8
			c-2,2.7-3.4,5.9-4.5,9.1c-2,5.9-3,12.1-3.7,18.3c-0.2,1.9,2.8,1.9,3,0c0.6-5.7,1.6-11.5,3.4-17c1.1-3.2,2.4-6.4,4.5-9.1
			c0.6-0.8,1.5-1.7,2.3-2.5c1.7-1.7,3.2-3.9,3.6-6.3c0.8-4.1-1.3-8.4-4.3-11.2c-2.1-2-4.9-2.9-7.3-4.3c-2.9-1.8-5.5-4.1-7.7-6.7
			C160.8,369.5,158.7,371.6,159.9,373.1L159.9,373.1z"/>
	</g>
</g>
<g>
	<g>
		<path class="st0" d="M217.9,368.9c-1.7,2-3.6,4-5.6,5.8c-1.9,1.7-4.1,3.1-6,4.8c-3.4,2.9-4.4,7.2-4.7,11.5
			c-0.7,9.2,0.4,18.7,3.1,27.6c2,6.7,4.7,13.1,8,19.2c0.9,1.7,3.5,0.2,2.6-1.5c-4.4-8.1-7.9-16.9-9.5-25.9
			c-0.9-5.2-1.4-10.5-1.3-15.8c0.1-4.2,0.1-9.1,3.3-12.3c1.8-1.8,4.1-3.1,6-4.8c2.3-2,4.4-4.1,6.3-6.4
			C221.3,369.6,219.2,367.5,217.9,368.9L217.9,368.9z"/>
	</g>
</g>
<g>
	<g>
		<path class="st0" d="M182.8,395.3c5.3-2.7,11.6-2.2,16.5,1c1.6,1.1,3.1-1.5,1.5-2.6c-5.8-3.8-13.3-4.2-19.5-1
			C179.5,393.6,181,396.2,182.8,395.3L182.8,395.3z"/>
	</g>
</g>
</svg>
