<?xml version="1.0" encoding="utf-8"?>
<!-- Generator: Adobe Illustrator 24.0.1, SVG Export Plug-In . SVG Version: 6.00 Build 0)  -->
<svg version="1.1" id="Layer_1" xmlns="http://www.w3.org/2000/svg" xmlns:xlink="http://www.w3.org/1999/xlink" x="0px" y="0px"
	 viewBox="0 0 400 400" style="enable-background:new 0 0 400 400;" xml:space="preserve">
<style type="text/css">
	.st0{fill:#E60C00;}
	.st1{stroke:#000000;stroke-width:1.9311;stroke-miterlimit:10;}
	.st2{stroke:#000000;stroke-width:0.2414;stroke-miterlimit:10;}
	.st3{stroke:#000000;stroke-width:1.3576;stroke-miterlimit:10;}
	.st4{stroke:#000000;stroke-width:1.9486;stroke-miterlimit:10;}
	.st5{stroke:#000000;stroke-width:1.9673;stroke-miterlimit:10;}
	.st6{stroke:#000000;stroke-width:2.1769;stroke-miterlimit:10;}
	.st7{stroke:#000000;stroke-width:2.047;stroke-miterlimit:10;}
</style>
<path class="st0" d="M162.3,401.2c3.8-7.6,11-24.4,9.7-26.9c-1.2-2.4-2.8-2.7-10.6-8.7c-7.1-5.5-8.4-7.1-8.2-8.7
	c0.2-1.8,2-2.1,5.3-4.5c5.8-4.2,5.3-6.6,13.3-14.3c3.3-3.1,5-4.7,7.1-5.4c6-2.1,11.9,0.9,14.4,2.2c5.8,2.9,3.8,4.6,14.8,14.7
	c2.3,2.1,4.1,3.6,4.1,5.8c0,2.6-2.4,4.1-6.1,7.5c-3.2,2.9-8.2,7.5-10.3,12.1c-1.4,2.9,0.7,19.9,2.8,27.1"/>
<g>
	<g>
		<path class="st1" d="M116.8,285.6c4.9,5.5,10.2,10.1,16.2,14.4c7.2,5.2,14.3,10.4,21,16.3c7.2,6.4,14.6,12.8,23.6,16.7
			c2.2,1,4.8,2.1,7.3,2.3c3.2,0.2,6.6-1.6,9.4-3c14.1-7,25.4-18.2,36.6-29c5.7-5.4,11.2-10.9,16.6-16.5c4.7-4.9,8.5-10.1,11.8-16.2
			c4.3-8.1,8-16.8,10.6-25.6c2.3-7.8,2-16,1.3-24c-0.1-0.7-0.1-1.4-0.2-2.1c-0.2,0.4-0.5,0.9-0.7,1.3c2.5-1.2,5.1-2.7,7-4.8
			c2.3-2.6,3.6-5.9,4.3-9.2c1.6-6.7,2.8-13.6,4-20.4c1.1-6.2,1.8-12.5,3.8-18.4c1-3,2.6-5.9,3.4-9.1c0.4-1.6,0.5-3.3,0.5-4.9
			c0-3.9-0.4-7.7-0.8-11.6c-0.5-5.5-1.2-10.9-2-16.3c0-0.3-0.1-1.1-0.1-0.4c-0.1-0.7-0.1-1.4-0.2-2c-0.3-2.9-0.5-5.7-0.6-8.6
			c-0.2-3.1-0.1-6.1-0.4-9.2c-0.4-3.4-1-6.8-1.4-10.1c-0.3-2.2-0.9-5.4,0.2-7.4c0.8-1.6,3.2-2,4.7-2.4c4.9-1.3,10-2.9,12.1-8.1
			c1.8-4.6,0.2-9.8-1.9-13.9c-3-5.9-7.3-11.1-11.9-15.9c-19.9-20.9-46.3-34.1-74.4-39.8c-15.7-3.2-32.1-4.2-48.1-2.7
			c-11.2,1.1-22.4,2.5-33.3,5.6c-13.6,3.9-26.5,10.1-37.4,19.2C78,46.2,66.5,70,60.9,94.6c-2.8,12.6-4.1,25.5-4.3,38.4
			c-0.2,11-0.2,21.8,3.5,32.3c4,11.6,5.3,23.8,8.6,35.6c1,3.4,2,7,4,9.9c2.4,3.8,6,8.5,10.7,9.3c2.8,0.5,5.2-0.8,7.1-2.6
			c0.4-0.4,0.8-0.9,1.3-1.3c0.2-0.2,0.8-0.6,0.9-0.8c0,0.2,0.3-0.6,0-0.1c0,0.1-0.4-0.1-0.3-0.2l0.3,0.9c0.5,2.8-0.1,5.8-0.2,8.6
			c-0.2,4.2-0.2,8.3,0.3,12.4c1.3,11.1,6,21.9,11.8,31.5C107.8,274.6,112.1,280.3,116.8,285.6c1.3,1.4,3.3-0.7,2-2
			c-7.5-8.6-13.6-18-18.2-28.4c-3-6.8-5.1-13.7-5.5-21.1c-0.2-3.9-0.1-7.7,0.1-11.6c0.1-2.4,0.5-5.1-0.1-7.4c-0.5-1.7-1.9-3-3.8-2.2
			c-1.8,0.8-2.8,2.9-4.5,4c-4.6,2.8-9.5-3.7-11.6-7c-1.8-2.8-2.8-6-3.7-9.2c-1.8-6.4-3.1-12.9-4.3-19.5c-1-5.3-2.2-10.5-4.1-15.6
			c-1.4-4.1-2.6-8.1-3.1-12.4c-0.8-6.4-0.7-12.8-0.6-19.2c0.2-7.5,0.5-15.1,1.4-22.5c2.7-22,9.8-44.3,22.9-62.4
			c8.7-12,20.2-21.8,33.4-28.5c11.3-5.7,23.8-9,36.2-10.9c15-2.2,30-3.1,45.1-1.6c26.2,2.4,51.9,11,73.3,26.6
			c5.9,4.3,11.4,9.1,16.5,14.4c4.6,4.7,9,9.9,12,15.8c2,4.1,3.8,9.5,0.6,13.4c-3.1,3.9-8.4,3.6-12.6,5.4c-4.6,2.1-4,7.7-3.5,12
			c0.4,3.2,1,6.5,1.3,9.7c0.3,3.1,0.3,6.1,0.4,9.2c0.5,8.8,1.9,17.5,2.9,26.2c0.4,4.1,0.8,8.1,0.9,12.2c0,1.5,0,3.1-0.4,4.5
			c-0.7,3-2.2,5.8-3.3,8.8c-1.9,5.9-2.8,12-3.9,18.1c-1.1,6.5-2.3,12.9-3.7,19.4c-0.7,3.3-1.5,6.7-3.8,9.3c-1.7,2.1-4.2,3.6-6.7,4.7
			c-0.4,0.2-0.8,0.8-0.7,1.3c0.9,6.7,1.4,13.8,0.3,20.5c-0.6,3.6-1.7,7-3,10.3c-1.5,4.3-3.4,8.7-5.3,12.9c-3.2,6.9-6.9,13.8-12,19.4
			c-4.5,5-9.4,9.8-14.2,14.5c-6,5.8-12.1,11.6-18.2,17.2c-5.1,4.5-10.2,8.9-16.1,12.5c-3.5,2.1-7,4.2-10.8,5.6
			c-1.2,0.4-2.5,0.9-3.7,0.8c-0.9-0.1-2-0.5-2.9-0.8c-7.7-2.5-14.6-7.5-20.7-12.7c-7.4-6.4-14.8-12.8-22.8-18.5
			c-5.4-3.9-10.7-7.6-15.4-12.3c-1.4-1.4-2.9-3-4.2-4.5C117.6,282.1,115.6,284.1,116.8,285.6z"/>
	</g>
</g>
<g>
	<g>
		<path class="st1" d="M78.4,66.6c8.9,5.8,18.2,11,27.5,16.1c6.4,3.5,12.7,6.9,19.2,10c5.6,2.7,11.4,5.4,17.3,7.3
			c6.3,2.1,12.9,3.1,19.4,3.6c7.8,0.6,15.5,0.3,23.4-0.7c17.5-2.1,34.7-6.4,51.8-10.3c17.6-4.1,35.1-8.5,52.2-14.1
			c2.2-0.7,4.3-1.4,6.6-2.2c1.7-0.6,1-3.4-0.8-2.8c-17.3,6.1-35.1,10.6-52.8,14.9c-7.6,1.8-15.3,3.6-23,5.3
			c-9.3,2-18.4,4.1-27.8,5.5c-14.8,2.3-30.4,3-45-1.1c-5.4-1.4-10.6-3.8-15.7-6.2c-6.5-3-12.7-6.3-19-9.6
			C101.4,76.9,91.4,71.2,81.5,65c-0.6-0.4-1.2-0.7-1.7-1.1C78.3,63.1,76.9,65.6,78.4,66.6L78.4,66.6z"/>
	</g>
</g>
<g>
	<g>
		<path class="st1" d="M60.9,152.7c3.7-0.1,7.3-0.5,10.9-0.9c5.8-0.7,12-1.4,17.3-3.8c5.5-2.5,8.1-8.9,9.8-14.3
			c2.4-7.5,3.7-15.4,4.8-23.1c1.4-9.1,3.4-18.1,6.7-26.7c0.7-1.7-2.1-2.5-2.8-0.8c-2.9,7.5-4.8,15.4-6.2,23.5
			c-1.2,7.5-2.2,15.1-4.2,22.4c-0.9,3.4-1.9,6.8-3.6,9.9c-1.2,2.2-2.7,4.6-4.7,5.9s-4.4,1.8-6.8,2.3c-2.9,0.7-5.9,1.2-8.9,1.5
			c-4.2,0.5-8.4,0.9-12.6,1.1C59,149.9,59,152.8,60.9,152.7L60.9,152.7z"/>
	</g>
</g>
<g>
	<g>
		<path class="st1" d="M118.9,70c13.8,5.5,28.4,9.1,43.3,10.7c3.8,0.4,7.5,0.7,11.2,0.9c1.8,0.1,1.8-2.8,0-2.9
			c-14.6-0.7-29-3.3-42.9-7.7c-3.7-1.2-7.2-2.4-10.8-3.9C117.9,66.6,117.1,69.4,118.9,70L118.9,70z"/>
	</g>
</g>
<g>
	<g>
		<path class="st1" d="M129.1,56.4c17.6,8.8,36.7,14.2,56.2,16c5.3,0.5,10.6,0.7,15.9,0.6c1.8,0,1.8-2.9,0-2.9
			c-20,0.2-39.9-3.4-58.4-10.7c-4.2-1.6-8.3-3.5-12.3-5.5C128.9,53.1,127.5,55.6,129.1,56.4L129.1,56.4z"/>
	</g>
</g>
<g>
	<g>
		<path class="st1" d="M116,38.3c24.8,7.7,50.4,12.6,76.3,14.6c6.9,0.5,13.7,0.9,20.7,1c1.8,0,1.8-2.9,0-2.9
			c-26.1-0.4-52-3.8-77.3-10.1c-6.4-1.5-12.6-3.4-18.8-5.3C115,34.9,114.2,37.7,116,38.3L116,38.3z"/>
	</g>
</g>
<g>
	<g>
		<path class="st1" d="M189.4,60.5c22.5,5.6,45.8,8,68.9,7c7.2-0.4,14.4-1.1,21.6-2.1c1.8-0.3,1.1-3.1-0.8-2.8
			c-23.9,3.4-48.4,2.9-72.2-1.3c-5.7-1-11.3-2.2-16.8-3.6C188.3,57.2,187.5,60,189.4,60.5L189.4,60.5z"/>
	</g>
</g>
<g>
	<g>
		<path class="st1" d="M147,23.1c15.1,8.3,31.6,14.1,48.6,16.9c4.3,0.8,8.7,1.3,13,1.6c1.8,0.2,1.8-2.7,0-2.9
			c-16.9-1.4-33.5-5.6-49-12.6c-3.8-1.7-7.4-3.6-11.1-5.6C146.9,19.7,145.4,22.3,147,23.1L147,23.1z"/>
	</g>
</g>
<g>
	<g>
		<path class="st1" d="M216.2,31.6c12.4,12.7,28.9,20.9,46.4,23c3.5,0.5,7,0.6,10.5,0.6c1.8,0,1.8-2.9,0-2.9
			c-16.3,0.2-32.4-4.8-45.7-14.6c-3.4-2.4-6.5-5.2-9.4-8.2C217,28.1,215,30.3,216.2,31.6L216.2,31.6z"/>
	</g>
</g>
<g>
	<g>
		<path class="st1" d="M272.3,170.7c-4.1-22.5-3-45.8,3.1-67.8c1.5-5.6,3.5-11.1,5.6-16.4c0.7-1.7-2.1-2.5-2.8-0.8
			c-8.9,22.1-12.6,46.2-10.7,69.9c0.4,5.3,1.2,10.6,2,15.8C269.8,173.3,272.6,172.5,272.3,170.7L272.3,170.7z"/>
	</g>
</g>
<g>
	<g>
		<path class="st1" d="M272.9,172.1c6.6-8.4,12-17.7,15.8-27.7c0.7-1.7-2.1-2.5-2.8-0.8c-3.7,9.5-8.8,18.4-15.1,26.4
			C269.7,171.4,271.7,173.6,272.9,172.1L272.9,172.1z"/>
	</g>
</g>
<g>
	<g>
		<path class="st1" d="M94.6,204.8c-1.4-17.3-5.4-34.4-11.7-50.6c-0.7-1.7-3.5-1-2.8,0.8c6.2,15.9,10,32.7,11.5,49.8
			C91.9,206.7,94.8,206.7,94.6,204.8L94.6,204.8z"/>
	</g>
</g>
<g>
	<g>
		<path class="st2" d="M226.1,240.2c-10.5,3.3-21.3,4.7-32.3,4.5c-10.3-0.2-20.6-1.4-30.7-3.3c-1.9-0.4-4-0.8-5.9-1.3
			c-1.4-0.4-2.1,1-1.6,2.1c0.3,0.7,1,1.4,1.5,1.8c1.9,1.9,4.2,3.5,6.6,5c4.4,3.1,8.8,6.2,13.4,8.9c4,2.3,8.1,3.8,12.6,4.2
			c5.8,0.6,11.7-0.4,17.2-2.2c4.3-1.4,8.6-3.4,12.6-5.7c1.6-1,0.2-3.5-1.4-2.5c-7.8,4.5-16.8,7.9-26,7.6c-4.5-0.1-8.8-1.4-12.6-3.5
			c-4.1-2.2-7.8-4.9-11.6-7.5c-2.7-1.8-5.5-3.7-8-5.8c-0.6-0.5-1.1-1-1.5-1.5c0.3,0.3-0.1-0.1-0.1-0.3c-0.6,0.7-1.1,1.4-1.6,2.1
			c5.8,1.4,11.7,2.4,17.6,3.2c12,1.5,24.2,2.2,36.2,0.6c5.6-0.8,11.2-2,16.6-3.8C228.6,242.4,227.8,239.6,226.1,240.2L226.1,240.2z"
			/>
	</g>
</g>
<g>
	<g>
		<path class="st1" d="M128.8,273.5c6.8,7.3,14.8,13.3,23.5,18.2c7.7,4.2,15.9,7.6,24.5,9.3c10.4,1.9,21.1,1.2,31.1-2.6
			c7.9-2.9,15.2-7.4,21.5-12.9c4.2-3.6,8-7.5,11.4-11.9c0.5-0.6,0.6-1.4,0-2c-0.5-0.5-1.5-0.6-2,0c-7.4,9.7-17.3,17.8-28.4,22.7
			c-9.1,4.1-19,5.6-28.9,4.5c-9.2-1-17.9-4.2-26-8.5c-9.3-4.9-17.7-11-24.8-18.7C129.6,270,127.6,272,128.8,273.5L128.8,273.5z"/>
	</g>
</g>
<g>
	<g>
		<path class="st1" d="M154.6,213.1c1.2-0.9,3-0.4,4.3-0.3c2.1,0.1,4.2-0.4,5.9-1.5c3-2,5.3-5.2,7.6-8c1-1.2,1.9-2.3,3-3.5
			c0.3-0.3,0.8-0.7,0.8-0.8c0.1-0.2-0.1,0.1-0.1,0.1c-0.5-0.4-1.1-0.8-1.5-1.1c0-0.2,0-0.3,0-0.1c-0.1,0.1-0.1,0.4-0.2,0.5
			c-1.5,3.3-2.6,6.4-2.1,10c0.2,1.7,0.7,3.5,2,4.7c1.4,1.4,3.2,1.4,4.9,0.8c1.7-0.6,3.5-1.1,5,0.1c1.4,1.1,2.6,2.5,4.1,3.5
			c3.5,2.4,8.2,3.7,12.5,3.2c1.7-0.2,3.6-0.8,4.9-2c0.8-0.7,1.3-1.5,1.5-2.5c0.3-1.1,0.5-2,1.4-2.8c0.9-0.8,2-0.9,3.2-1.2
			c1.1-0.3,2-0.9,2.8-1.7c1.5-1.8,1.5-4.2,1.3-6.5c-0.3-2.1-1.2-4.1-2.4-5.8c-0.5-0.7-1.1-1.4-1.6-1.9c-0.2-0.2-0.4-0.5-0.7-0.7
			c-0.1-0.1-0.1-0.1-0.2-0.2l-0.1-0.1c0.3,0.3,0.4,0.8,0.3,1.3c0.6-1.7-2.2-2.5-2.8-0.8c-0.4,1.1,0.8,1.8,1.4,2.5
			c1.2,1.2,2.1,2.5,2.7,4.1c0.6,1.5,1.1,3.6,0.6,5.2c-0.7,2.1-3.1,1.9-4.7,2.7c-2.1,1-3.1,2.8-3.8,4.9c-0.5,1.7-2.3,2.3-3.9,2.6
			c-4.1,0.6-8.8-1-11.8-3.7c-1.3-1.1-2.3-2.4-3.9-3.2c-1.8-0.9-3.9-0.8-5.7-0.1c-0.7,0.2-1.5,0.7-2.2,0.6c-0.7-0.1-1.1-0.8-1.4-1.4
			c-0.6-1.4-0.7-3.1-0.6-4.5c0.1-1.8,0.8-3.5,1.5-5.1c0.5-1,1.4-2.3,0.7-3.4c-1.4-2.7-4.4,1.3-5.4,2.3c-2.5,2.9-4.9,6.2-7.8,8.7
			c-1.9,1.6-4,1.8-6.4,1.6c-1.9-0.1-3.7,0-5.2,1.3C151,212.2,153.2,214.2,154.6,213.1L154.6,213.1z"/>
	</g>
</g>
<g>
	<g>
		<path class="st1" d="M127.8,159.7c11.4-7.1,25.2-9.7,38.4-7c2.7,0.6,5.2,1.4,7.8,2.2c1.7,0.7,2.5-2.1,0.8-2.8
			c-12.9-4.8-27.5-4.5-40.3,0.8c-2.8,1.2-5.5,2.6-8.1,4.2C124.7,158.2,126.1,160.7,127.8,159.7L127.8,159.7z"/>
	</g>
</g>
<g>
	<g>
		<path class="st1" d="M219.1,150.2c7.1-2.1,14.8-3.3,22.3-2.9c5.2,0.3,9.8,2.1,13.9,5.4c1.4,1.2,3.5-0.9,2-2
			c-4.4-3.7-9.6-5.8-15.4-6.2c-7.9-0.6-16.1,0.8-23.8,3C216.6,148,217.3,150.8,219.1,150.2L219.1,150.2z"/>
	</g>
</g>
<g>
	<g>
		<path class="st1" d="M129.2,168c6.8-4.2,14.4-6.7,22.4-7c7.2-0.3,14.8,0.6,21.8,2.3c1.8,0.4,2.6-2.3,0.8-2.8
			c-7.4-1.8-15.4-2.8-23-2.4c-8.3,0.4-16.3,3-23.5,7.3C126.1,166.4,127.6,168.9,129.2,168L129.2,168z"/>
	</g>
</g>
<g>
	<g>
		<path class="st1" d="M215.6,163.6c6.5-3.4,13.6-5.2,21-5.2c6.6,0,13.2,1.3,19.4,3.4c1.7,0.6,2.5-2.2,0.8-2.8
			c-6.6-2.2-13.6-3.5-20.6-3.5c-7.7,0-15.3,2-22,5.6C212.4,162,214,164.5,215.6,163.6L215.6,163.6z"/>
	</g>
</g>
<g>
	<g>
		<path class="st3" d="M180.5,187.5c5.2-8.4,6-18.7,4.9-28.4c-0.1-1.3-2.2-1.3-2,0c1,9.3,0.3,19.1-4.6,27.3
			C178,187.5,179.8,188.5,180.5,187.5L180.5,187.5z"/>
	</g>
</g>
<g>
	<g>
		<path class="st1" d="M136.1,175.5c3.6,3,7.8,4.8,12.5,5.1c6,0.5,12.2-0.4,18-1.9c1.8-0.5,1.1-3.3-0.8-2.8
			c-5.3,1.4-10.9,2.1-16.5,1.8c-4.2-0.2-7.9-1.6-11.1-4.3C136.7,172.2,134.7,174.2,136.1,175.5L136.1,175.5z"/>
	</g>
</g>
<g>
	<g>
		<path class="st1" d="M223.2,176.3c8.9,2,18.1,0.9,26.3-3c1.6-0.8,0.2-3.3-1.4-2.5c-7.4,3.6-15.9,4.5-23.9,2.8
			C222.1,173.1,221.3,175.9,223.2,176.3L223.2,176.3z"/>
	</g>
</g>
<g>
	<g>
		<path class="st1" d="M80,189.6c-3.6-6.4-3.6-14.3,0-20.8c0.9-1.6-1.6-3.1-2.5-1.4c-4.1,7.3-4.1,16.3,0,23.7
			C78.3,192.7,80.8,191.2,80,189.6L80,189.6z"/>
	</g>
</g>
<g>
	<g>
		<path class="st1" d="M270.4,212.2c-1.6-12-1.3-24.1,1-35.9c0.4-1.8-2.4-2.6-2.8-0.8c-2.4,12.4-2.7,25-1,37.5
			c0.1,0.8,1.1,1.2,1.8,1.1C270.2,213.7,270.5,213,270.4,212.2L270.4,212.2z"/>
	</g>
</g>
<g>
	<g>
		<path class="st1" d="M273.4,128.9c2.5,0.6,4.9,1.6,7,3.2c1.1,0.8,2,1.6,2.9,2.6c0.8,0.8,1.2,1.4,1.7,2.2c0.5,0.7,1.3,1,1.9,0.5
			c0.7-0.4,1-1.4,0.5-2c-3.1-4.7-7.9-8.1-13.4-9.4C272.3,125.8,271.5,128.6,273.4,128.9L273.4,128.9z"/>
	</g>
</g>
<g>
	<g>
		<path class="st1" d="M275.3,111.6c0.1,0,0.2,0.1,0.3,0.1c0.3,0.1-0.2-0.1,0,0c0.2,0.1,0.4,0.2,0.6,0.3c0.4,0.2,0.9,0.4,1.3,0.7
			c0.5,0.3,0.9,0.6,1.4,0.9c0.4,0.3,0.8,0.6,1.3,1.1c0.4,0.4,0.8,0.8,1.2,1.2c0.2,0.2,0.4,0.4,0.5,0.6c0.1,0.1,0.1,0.2,0.2,0.3
			c-0.2-0.2,0.1,0.1,0.1,0.1c0.5,0.7,0.9,1.4,1.3,2c0.4,0.7,1.4,1,1.9,0.5c0.7-0.4,0.9-1.3,0.5-2c-2-3.9-5.5-6.8-9.6-8.4
			c-0.7-0.3-1.6,0.3-1.8,1.1C274.1,110.7,274.5,111.3,275.3,111.6L275.3,111.6z"/>
	</g>
</g>
<g>
	<g>
		<path class="st1" d="M277.1,187.8c2-6,2.7-12.5,1.9-18.7c-0.1-0.8-0.6-1.4-1.4-1.4c-0.7,0-1.5,0.7-1.4,1.4c0.7,6.1,0,12.2-1.9,18
			C273.7,188.8,276.5,189.6,277.1,187.8L277.1,187.8z"/>
	</g>
</g>
<g>
	<g>
		<path class="st1" d="M140.7,163.6c8.4,4.4,18.3,3.4,26.6-1c1.6-0.9,0.2-3.4-1.4-2.5c-7.2,3.9-16.2,4.9-23.7,1
			C140.6,160.2,139.1,162.7,140.7,163.6L140.7,163.6z"/>
	</g>
</g>
<g>
	<g>
		<path class="st1" d="M221.9,161.2c8.4,4.4,18.3,3.4,26.6-1c1.6-0.9,0.2-3.4-1.4-2.5c-7.2,3.9-16.2,4.9-23.7,1
			C221.7,157.8,220.3,160.3,221.9,161.2L221.9,161.2z"/>
	</g>
</g>
<g>
	<g>
		<path class="st1" d="M97.2,120C85.4,124.6,74,130.1,63,136.5c-1.6,1-0.2,3.5,1.4,2.5c10.7-6.3,21.9-11.7,33.4-16.2
			C99.7,122,98.9,119.2,97.2,120L97.2,120z"/>
	</g>
</g>
<g>
	<g>
		<path class="st1" d="M95.2,105.5c-7.8,1.8-15.5,4.2-23.2,6.8c-1.7,0.6-1,3.4,0.8,2.8c7.6-2.6,15.4-4.9,23.2-6.8
			C97.8,107.8,97.1,105,95.2,105.5L95.2,105.5z"/>
	</g>
</g>
<g>
	<g>
		<path class="st1" d="M96.2,90c-7.6,2.2-15.4,4.2-23.2,5.8c-1.8,0.4-1.1,3.2,0.8,2.8c7.8-1.6,15.5-3.6,23.2-5.8
			C98.8,92.3,98,89.5,96.2,90L96.2,90z"/>
	</g>
</g>
<g>
	<g>
		<path class="st1" d="M-11.7,313.5c8.1-2.5,16.2-4.8,24.4-7c7.8-2.1,15.6-4,23.4-6.2c8.4-2.4,17-5,25-8.7
			c7.3-3.4,13.5-8.2,18.4-14.7c5.7-7.5,10.7-15.4,14.9-23.9c0.9-1.6-1.6-3.1-2.5-1.4c-3.7,7.2-7.9,14.2-12.6,20.8
			c-2.4,3.4-4.9,6.7-8,9.4c-2.9,2.5-6.1,4.6-9.5,6.4c-3.7,1.8-7.5,3.3-11.4,4.6c-4.2,1.5-8.6,2.9-12.9,4.2
			c-7.8,2.3-15.7,4.2-23.7,6.3c-8.8,2.3-17.6,4.8-26.3,7.5C-14.2,311.2-13.4,314-11.7,313.5L-11.7,313.5z"/>
	</g>
</g>
<g>
	<g>
		<path class="st4" d="M92.8,254.7c-3.3,10.5-4.7,21.6-4.2,32.6c0.5,9,2.3,18,4.5,26.7c4.2,17.2,9.4,34,15,50.7
			c4.3,12.8,8.9,25.3,13.6,37.9c0.7,1.8,3.5,1,2.8-0.8c-7.9-20.6-15.2-41.4-21.6-62.5c-2.3-7.7-4.5-15.3-6.4-23
			c-2-8.1-4-16.4-4.8-24.7c-1.3-12.2,0-24.4,3.7-36.2C96.1,253.7,93.3,252.9,92.8,254.7L92.8,254.7z"/>
	</g>
</g>
<g>
	<g>
		<path class="st5" d="M254.9,402.9c-3.6-28.2-6.6-56.4-8.8-84.7c-0.7-7.8-1.3-15.7-1.8-23.5c-0.1-1.9-3-1.9-2.9,0
			c2,28.5,4.6,56.7,7.8,85.1c0.9,7.7,1.8,15.4,2.8,23.1c0.1,0.8,0.6,1.5,1.4,1.5C254.2,404.4,255,403.7,254.9,402.9L254.9,402.9z"/>
	</g>
</g>
<g>
	<g>
		<path class="st1" d="M248.1,289.4c9.5,8.9,20.7,15.8,32.9,20c10.2,3.4,21,4.7,31.3,7.7c8.2,2.4,16.2,5.6,24.2,8.8
			c11.1,4.5,22.1,9.1,33,13.9c13.6,6,26.9,12.5,40.1,19.3c1.6,0.9,3.1-1.6,1.4-2.5c-22.4-11.7-45.5-21.8-68.7-31.5
			c-8.6-3.6-17.1-7-26-9.8c-9.6-3-19.4-4.4-29.1-7c-14-3.9-26.6-10.9-37.2-20.9C248.8,286,246.7,288.1,248.1,289.4L248.1,289.4z"/>
	</g>
</g>
<g>
	<g>
		<path class="st6" d="M124,392.6c13.1-15.5,26.7-30.5,41-45c4-4,8-8,12-11.9c1.5-1.4-0.8-3.8-2.3-2.3c-14.6,14.2-28.8,29-42.2,44.3
			c-3.7,4.2-7.3,8.3-10.8,12.6C120.3,391.9,122.6,394.2,124,392.6L124,392.6z"/>
	</g>
</g>
<g>
	<g>
		<path class="st7" d="M192.2,335.5c8.4,6.7,15.8,14.9,21.6,23.9c2.9,4.5,5.2,9.3,8,13.9c2.4,4,4.9,7.8,7.7,11.6
			c4,5.5,8.4,10.8,13.1,15.8c1.3,1.4,3.5-0.7,2.2-2.1c-7.3-7.9-13.9-16.4-19.5-25.6c-2.9-4.6-5.2-9.5-8.1-14.1
			c-3.1-5.1-6.7-9.8-10.7-14.2c-3.7-4.1-7.7-7.8-12-11.3C192.9,332,190.6,334.2,192.2,335.5L192.2,335.5z"/>
	</g>
</g>
<g>
	<g>
		<path class="st1" d="M153.9,360.4c1.9,2.2,4.1,4.2,6.5,5.9c1.9,1.4,4,2.2,6,3.4c3.2,1.7,6.1,5.9,5.3,9.7c-0.7,3.3-3.7,5.2-5.5,7.7
			c-1.9,2.6-3.3,5.7-4.3,8.8c-1.9,5.7-2.9,11.7-3.6,17.7c-0.2,1.8,2.7,1.8,2.9,0c0.6-5.5,1.5-11.1,3.3-16.4c1.1-3.1,2.3-6.2,4.3-8.8
			c0.6-0.8,1.4-1.6,2.2-2.4c1.6-1.6,3.1-3.8,3.5-6.1c0.8-4-1.3-8.1-4.2-10.8c-2-1.9-4.7-2.8-7-4.2c-2.8-1.7-5.3-4-7.4-6.5
			C154.8,356.9,152.8,358.9,153.9,360.4L153.9,360.4z"/>
	</g>
</g>
<g>
	<g>
		<path class="st1" d="M209.9,356.3c-1.6,1.9-3.5,3.9-5.4,5.6c-1.8,1.6-4,3-5.8,4.6c-3.3,2.8-4.2,7-4.5,11.1
			c-0.7,8.9,0.4,18.1,3,26.6c1.9,6.5,4.5,12.6,7.7,18.5c0.9,1.6,3.4,0.2,2.5-1.4c-4.2-7.8-7.6-16.3-9.2-25c-0.9-5-1.4-10.1-1.3-15.3
			c0.1-4.1,0.1-8.8,3.2-11.9c1.7-1.7,4-3,5.8-4.6c2.2-1.9,4.2-4,6.1-6.2C213.2,357,211.2,355,209.9,356.3L209.9,356.3z"/>
	</g>
</g>
<g>
	<g>
		<path class="st1" d="M176,378.9c5.1-2.6,11.2-2.1,15.9,1c1.5,1.1,3-1.4,1.4-2.5c-5.6-3.7-12.8-4.1-18.8-1
			C172.9,377.3,174.3,379.8,176,378.9L176,378.9z"/>
	</g>
</g>
</svg>
