<?xml version="1.0" encoding="utf-8"?>
<!-- Generator: Adobe Illustrator 24.0.1, SVG Export Plug-In . SVG Version: 6.00 Build 0)  -->
<svg version="1.1" id="Layer_1" xmlns="http://www.w3.org/2000/svg" xmlns:xlink="http://www.w3.org/1999/xlink" x="0px" y="0px"
	 viewBox="0 0 1054.64 652.95" style="enable-background:new 0 0 1054.64 652.95;" xml:space="preserve">
<style type="text/css">
	.st0{clip-path:url(#SVGID_2_);}
	.st1{clip-path:url(#SVGID_4_);fill:#F2F2F2;}
	.st2{clip-path:url(#SVGID_4_);fill:none;stroke:#000000;stroke-width:6.8079;stroke-miterlimit:10;}
	.st3{clip-path:url(#SVGID_4_);fill:#FFFFFF;}
	.st4{clip-path:url(#SVGID_4_);fill:none;stroke:#000000;stroke-width:1.6979;stroke-miterlimit:10;}
	.st5{clip-path:url(#SVGID_4_);fill:none;stroke:#000000;stroke-width:5.9508;stroke-miterlimit:10;}
	.st6{clip-path:url(#SVGID_4_);fill:#004B15;}
	.st7{clip-path:url(#SVGID_4_);fill:none;stroke:#000000;stroke-width:6.8079;stroke-linecap:round;stroke-miterlimit:10;}
	.st8{clip-path:url(#SVGID_4_);fill:#C1272D;}
	.st9{clip-path:url(#SVGID_4_);}
	.st10{clip-path:url(#SVGID_4_);fill:#092096;}
	.st11{fill:#0077FF;}
	.st12{fill:#FF4D4D;}
</style>
<g>
	<path d="M29.17,85.89c5.14-6.23,14.94-18.99,20.16-25.92c2.41-2.96,3.97-5.99,3.97-8.64c0-3.5-2.65-7.08-8.25-7.08
		c-3.74,0-6.93,2.65-8.72,4.59c-0.62,0.62-1.48,0.62-2.1,0l-3.74-3.74c-0.47-0.47-0.62-1.4-0.08-2.02c0,0,6.07-7.63,15.33-7.63
		c11.13,0,17.36,7.08,17.36,15.49c0,5.06-2.18,8.25-5.22,12.61c-3.35,4.75-9.26,12.06-13.39,17.28h16.81c0.78,0,1.48,0.7,1.48,1.48
		v5.37c0,0.78-0.7,1.48-1.48,1.48H30.65c-0.86,0-1.48-0.7-1.48-1.48V85.89z"/>
	<path d="M71.83,62.7c0-17.05,7.16-27.24,19.61-27.24s19.61,10.2,19.61,27.24s-7.16,27.24-19.61,27.24S71.83,79.74,71.83,62.7z
		 M100.86,62.7c0-11.52-3.42-18.06-9.42-18.06s-9.42,6.54-9.42,18.06c0,11.6,3.42,18.06,9.42,18.06S100.86,74.3,100.86,62.7z"/>
	<path d="M117.83,85.89c5.14-6.23,14.94-18.99,20.16-25.92c2.41-2.96,3.97-5.99,3.97-8.64c0-3.5-2.65-7.08-8.25-7.08
		c-3.74,0-6.93,2.65-8.72,4.59c-0.62,0.62-1.48,0.62-2.1,0l-3.74-3.74c-0.47-0.47-0.62-1.4-0.08-2.02c0,0,6.07-7.63,15.33-7.63
		c11.13,0,17.36,7.08,17.36,15.49c0,5.06-2.18,8.25-5.22,12.61c-3.35,4.75-9.26,12.06-13.39,17.28h16.81c0.78,0,1.48,0.7,1.48,1.48
		v5.37c0,0.78-0.7,1.48-1.48,1.48h-30.67c-0.86,0-1.48-0.7-1.48-1.48V85.89z"/>
	<path d="M160.48,62.7c0-17.05,7.16-27.24,19.61-27.24s19.61,10.2,19.61,27.24s-7.16,27.24-19.61,27.24S160.48,79.74,160.48,62.7z
		 M189.52,62.7c0-11.52-3.42-18.06-9.42-18.06s-9.42,6.54-9.42,18.06c0,11.6,3.42,18.06,9.42,18.06S189.52,74.3,189.52,62.7z"/>
	<path d="M228.75,36.16c0-0.78,0.62-1.48,1.48-1.48h18.29c9.57,0,17.44,7.78,17.44,17.2c0,9.65-7.86,17.51-17.36,17.51h-9.73v18.29
		c0,0.78-0.7,1.48-1.48,1.48h-7.16c-0.86,0-1.48-0.7-1.48-1.48V36.16z M247.89,59.9c4.36,0,8.02-3.5,8.02-8.09
		c0-4.28-3.66-7.55-8.02-7.55h-9.03V59.9H247.89z"/>
	<path d="M270.31,59.51c0-0.86,0.7-1.48,1.48-1.48h2.96c0.7,0,1.17,0.39,1.4,1.01l1.09,3.04c1.09-1.56,3.97-4.83,8.79-4.83
		c3.66,0,6.93,1.17,5.99,3.11l-2.88,5.06c-0.39,0.7-1.17,1.01-1.79,0.7c-0.23-0.08-1.4-0.47-2.26-0.47c-3.11,0-4.98,2.1-5.53,3.19
		v18.84c0,1.09-0.7,1.48-1.79,1.48h-5.99c-0.78,0-1.48-0.7-1.48-1.48V59.51z"/>
	<path d="M310.17,57.25c8.02,0,14.56,6.07,14.56,14.48c0,0.54-0.08,1.56-0.16,2.1c-0.08,0.78-0.78,1.32-1.48,1.32h-19.93
		c0.23,3.19,2.96,6.77,7.47,6.77c2.41,0,4.67-0.93,6.07-1.95c0.78-0.47,1.48-0.62,2.02,0l3.19,3.66c0.54,0.54,0.7,1.4-0.08,2.02
		c-2.57,2.41-6.54,4.28-11.6,4.28c-9.34,0-15.96-7.39-15.96-16.35C294.29,64.8,300.9,57.25,310.17,57.25z M315.61,69.7
		c-0.23-2.88-2.72-5.29-5.68-5.29c-3.11,0-5.68,2.33-6.07,5.29H315.61z"/>
	<path d="M329.55,85.43l2.1-4.2c0.31-0.78,1.09-0.93,1.79-0.54c0,0,3.5,1.87,7.08,1.87c1.56,0,2.65-0.62,2.65-1.95
		c0-1.4-1.09-2.26-5.22-3.89c-5.99-2.33-8.8-5.53-8.8-10.27c0-4.75,3.5-9.18,11.44-9.18c4.59,0,7.94,1.32,9.57,2.41
		c0.7,0.47,1.09,1.32,0.7,2.1l-1.95,3.97c-0.39,0.7-1.25,0.78-1.87,0.54c0,0-3.5-1.63-6.46-1.63c-1.87,0-2.65,0.78-2.65,1.79
		c0,1.4,1.4,1.87,4.28,3.04c5.99,2.33,10.51,4.9,10.51,10.97c0,5.14-4.51,9.5-12.38,9.5c-5.14,0-8.72-1.63-10.35-2.88
		C329.55,86.67,329.24,86.05,329.55,85.43z"/>
	<path d="M358.89,41.6c0-2.96,2.33-5.37,5.29-5.37c3.04,0,5.45,2.41,5.45,5.37c0,2.96-2.41,5.37-5.45,5.37
		C361.23,46.98,358.89,44.56,358.89,41.6z M359.59,59.51c0-0.86,0.7-1.48,1.48-1.48h6.46c0.78,0,1.48,0.62,1.48,1.48v28.18
		c0,0.78-0.7,1.48-1.48,1.48h-6.46c-0.78,0-1.48-0.7-1.48-1.48V59.51z"/>
	<path d="M391.43,57.25c3.11,0,5.53,0.86,6.93,1.4V36.16c0-0.78,0.7-1.48,1.48-1.48h6.62c0.78,0,1.48,0.7,1.48,1.48v51.53
		c0,0.78-0.7,1.48-1.48,1.48h-3.04c-0.7,0-1.25-0.62-1.48-1.48l-0.78-2.41c0,0-3.66,4.67-10.2,4.67c-8.48,0-14.94-7.39-14.94-16.35
		C376.02,64.49,382.17,57.25,391.43,57.25z M392.13,81.53c4.13,0,5.99-3.19,6.54-5.06v-9.03c0,0-2.18-1.79-6.07-1.79
		c-4.36,0-7.55,3.58-7.55,7.94S388,81.53,392.13,81.53z"/>
	<path d="M430.81,57.25c8.02,0,14.56,6.07,14.56,14.48c0,0.54-0.08,1.56-0.16,2.1c-0.08,0.78-0.78,1.32-1.48,1.32h-19.93
		c0.23,3.19,2.96,6.77,7.47,6.77c2.41,0,4.67-0.93,6.07-1.95c0.78-0.47,1.48-0.62,2.02,0l3.19,3.66c0.54,0.54,0.7,1.4-0.08,2.02
		c-2.57,2.41-6.54,4.28-11.6,4.28c-9.34,0-15.96-7.39-15.96-16.35C414.94,64.8,421.55,57.25,430.81,57.25z M436.26,69.7
		c-0.23-2.88-2.72-5.29-5.68-5.29c-3.11,0-5.68,2.33-6.07,5.29H436.26z"/>
	<path d="M451.91,59.51c0-0.86,0.7-1.48,1.48-1.48h2.96c0.7,0,1.09,0.39,1.32,0.93l1.09,2.88c1.17-1.25,4.98-4.59,10.97-4.59
		c9.88,0,13.85,7.39,13.85,15.49v14.94c0,0.78-0.7,1.48-1.48,1.48h-6.38c-0.86,0-1.48-0.7-1.48-1.48V72.27
		c0-4.05-2.1-6.62-5.84-6.62c-4.05,0-6.54,2.8-7.32,4.9v17.12c0,1.09-0.47,1.48-1.95,1.48h-5.76c-0.78,0-1.48-0.7-1.48-1.48V59.51z"
		/>
	<path d="M493.71,66.2h-2.65c-0.78,0-1.4-0.7-1.4-1.48v-5.21c0-0.86,0.62-1.48,1.4-1.48h2.65v-8.64c0-0.78,0.7-1.48,1.48-1.48
		l6.38-0.08c0.78,0,1.4,0.7,1.4,1.48v8.72h6.85c0.86,0,1.48,0.62,1.48,1.48v5.21c0,0.78-0.62,1.48-1.48,1.48h-6.85v12.45
		c0,2.18,1.17,2.49,2.41,2.49c1.32,0,2.96-0.54,3.81-0.86c0.86-0.31,1.48,0.08,1.71,0.86l1.56,4.9c0.31,0.78-0.08,1.56-0.86,1.87
		c-0.39,0.23-5.45,2.02-9.26,2.02c-5.99,0-8.64-3.74-8.64-10.04V66.2z"/>
	<path d="M518.23,41.6c0-2.96,2.33-5.37,5.29-5.37c3.04,0,5.45,2.41,5.45,5.37c0,2.96-2.41,5.37-5.45,5.37
		C520.56,46.98,518.23,44.56,518.23,41.6z M518.93,59.51c0-0.86,0.7-1.48,1.48-1.48h6.46c0.78,0,1.48,0.62,1.48,1.48v28.18
		c0,0.78-0.7,1.48-1.48,1.48h-6.46c-0.78,0-1.48-0.7-1.48-1.48V59.51z"/>
	<path d="M547.88,69.47c3.11,0,5.68,0.86,5.68,0.86c0.08-3.97-1.17-5.37-4.05-5.37s-6.93,0.62-8.72,1.17
		c-1.09,0.31-1.63-0.39-1.79-1.4l-0.7-4.05c-0.23-1.17,0.39-1.71,1.09-1.95c0.62-0.23,5.6-1.48,10.58-1.48
		c9.73,0,11.99,5.06,11.99,13.54v16.89c0,0.78-0.7,1.48-1.48,1.48h-2.8c-0.54,0-0.93-0.23-1.32-1.09l-0.93-2.1
		c-1.79,1.63-4.67,3.97-9.5,3.97c-6.23,0-10.51-4.05-10.51-10.66C535.43,73.75,539.94,69.47,547.88,69.47z M548.04,83.32
		c2.49,0,4.9-2.1,5.37-3.04v-4.28c0,0-2.1-0.93-4.36-0.93c-3.04,0-5.06,1.71-5.06,4.2C543.99,81.61,545.62,83.32,548.04,83.32z"/>
	<path d="M570.92,36.16c0-0.78,0.7-1.48,1.48-1.48h6.54c0.78,0,1.48,0.7,1.48,1.48v51.53c0,0.78-0.7,1.48-1.48,1.48h-6.54
		c-0.78,0-1.48-0.7-1.48-1.48V36.16z"/>
	<path d="M33.84,129.56c0-0.78,0.62-1.48,1.48-1.48H67c0.86,0,1.48,0.7,1.48,1.48v6.38c0,0.78-0.62,1.48-1.48,1.48H43.96v14.63
		h19.23c0.78,0,1.48,0.7,1.48,1.48v6.38c0,0.78-0.7,1.48-1.48,1.48H43.96v19.69c0,0.78-0.7,1.48-1.48,1.48h-7.16
		c-0.86,0-1.48-0.7-1.48-1.48V129.56z"/>
	<path d="M86.15,150.66c8.8,0,15.96,7.47,15.96,16.27c0,8.95-7.16,16.42-15.96,16.42s-15.96-7.47-15.96-16.42
		C70.19,158.13,77.35,150.66,86.15,150.66z M86.15,174.94c4.13,0,7.47-3.58,7.47-8.02c0-4.36-3.35-7.86-7.47-7.86
		c-4.2,0-7.47,3.5-7.47,7.86C78.68,171.36,81.95,174.94,86.15,174.94z"/>
	<path d="M109.03,152.91c0-0.86,0.7-1.48,1.48-1.48h2.96c0.7,0,1.17,0.39,1.4,1.01l1.09,3.04c1.09-1.56,3.97-4.83,8.79-4.83
		c3.66,0,6.93,1.17,5.99,3.11l-2.88,5.06c-0.39,0.7-1.17,1.01-1.79,0.7c-0.23-0.08-1.4-0.47-2.26-0.47c-3.11,0-4.98,2.1-5.53,3.19
		v18.84c0,1.09-0.7,1.48-1.79,1.48h-5.99c-0.78,0-1.48-0.7-1.48-1.48V152.91z"/>
	<path d="M148.89,150.66c8.02,0,14.56,6.07,14.56,14.48c0,0.54-0.08,1.56-0.16,2.1c-0.08,0.78-0.78,1.32-1.48,1.32h-19.93
		c0.23,3.19,2.96,6.77,7.47,6.77c2.41,0,4.67-0.93,6.07-1.95c0.78-0.47,1.48-0.62,2.02,0l3.19,3.66c0.54,0.54,0.7,1.4-0.08,2.02
		c-2.57,2.41-6.54,4.28-11.6,4.28c-9.34,0-15.96-7.39-15.96-16.35C133.01,158.21,139.62,150.66,148.89,150.66z M154.34,163.11
		c-0.23-2.88-2.72-5.29-5.68-5.29c-3.11,0-5.68,2.33-6.07,5.29H154.34z"/>
	<path d="M184.15,150.66c4.83,0,8.56,1.95,11.52,5.53c0.54,0.7,0.39,1.63-0.39,2.18l-3.58,3.42c-0.7,0.62-1.4,0.23-1.95-0.23
		c-1.25-1.4-3.19-2.49-5.37-2.49c-4.2,0-7.63,3.58-7.63,7.94c0,4.44,3.35,7.94,7.55,7.94c3.35,0,4.83-1.63,6.23-2.96
		c0.54-0.54,1.32-0.7,1.95-0.23l3.35,2.88c0.78,0.62,1.09,1.4,0.54,2.18c-2.65,4.12-6.77,6.54-12.3,6.54c-8.8,0-16.5-7-16.5-16.35
		C167.57,157.82,175.43,150.66,184.15,150.66z"/>
	<path d="M213.34,162.88c3.11,0,5.68,0.86,5.68,0.86c0.08-3.97-1.17-5.37-4.05-5.37s-6.93,0.62-8.72,1.17
		c-1.09,0.31-1.63-0.39-1.79-1.4l-0.7-4.05c-0.23-1.17,0.39-1.71,1.09-1.95c0.62-0.23,5.6-1.48,10.59-1.48
		c9.73,0,11.99,5.06,11.99,13.54v16.89c0,0.78-0.7,1.48-1.48,1.48h-2.8c-0.54,0-0.93-0.23-1.32-1.09l-0.93-2.1
		c-1.79,1.63-4.67,3.97-9.5,3.97c-6.23,0-10.51-4.05-10.51-10.66C200.88,167.16,205.4,162.88,213.34,162.88z M213.49,176.73
		c2.49,0,4.9-2.1,5.37-3.04v-4.28c0,0-2.1-0.93-4.36-0.93c-3.04,0-5.06,1.71-5.06,4.2C209.44,175.02,211.08,176.73,213.49,176.73z"
		/>
	<path d="M234.66,178.83l2.1-4.2c0.31-0.78,1.09-0.93,1.79-0.54c0,0,3.5,1.87,7.08,1.87c1.56,0,2.65-0.62,2.65-1.95
		c0-1.4-1.09-2.26-5.22-3.89c-5.99-2.33-8.8-5.53-8.8-10.27c0-4.75,3.5-9.18,11.44-9.18c4.59,0,7.94,1.32,9.57,2.41
		c0.7,0.47,1.09,1.32,0.7,2.1l-1.95,3.97c-0.39,0.7-1.25,0.78-1.87,0.54c0,0-3.5-1.63-6.46-1.63c-1.87,0-2.65,0.78-2.65,1.79
		c0,1.4,1.4,1.87,4.28,3.04c5.99,2.33,10.51,4.9,10.51,10.97c0,5.14-4.51,9.5-12.38,9.5c-5.14,0-8.72-1.63-10.35-2.88
		C234.66,180.08,234.35,179.46,234.66,178.83z"/>
	<path d="M266.34,159.61h-2.65c-0.78,0-1.4-0.7-1.4-1.48v-5.21c0-0.86,0.62-1.48,1.4-1.48h2.65v-8.64c0-0.78,0.7-1.48,1.48-1.48
		l6.38-0.08c0.78,0,1.4,0.7,1.4,1.48v8.72h6.85c0.86,0,1.48,0.62,1.48,1.48v5.21c0,0.78-0.62,1.48-1.48,1.48h-6.85v12.45
		c0,2.18,1.17,2.49,2.41,2.49c1.32,0,2.96-0.54,3.81-0.86c0.86-0.31,1.48,0.08,1.71,0.86l1.56,4.9c0.31,0.78-0.08,1.56-0.86,1.87
		c-0.39,0.23-5.45,2.02-9.26,2.02c-5.99,0-8.64-3.74-8.64-10.04V159.61z"/>
</g>
<g id="Vector_Smart_Object_1_">
	<g>
		<defs>
			<rect id="SVGID_1_" x="17" y="191.72" width="513.43" height="404.24"/>
		</defs>
		<clipPath id="SVGID_2_">
			<use xlink:href="#SVGID_1_"  style="overflow:visible;"/>
		</clipPath>
		<g class="st0">
			<defs>
				<rect id="SVGID_3_" x="17" y="191.73" width="513.44" height="404.22"/>
			</defs>
			<clipPath id="SVGID_4_">
				<use xlink:href="#SVGID_3_"  style="overflow:visible;"/>
			</clipPath>
			<path class="st1" d="M502.39,592.55H46.91c-5.63-0.02-10.19-4.58-10.2-10.2V369.86c0.02-5.63,4.58-10.19,10.2-10.2h455.48
				c5.63,0.02,10.19,4.58,10.2,10.2v212.48C512.58,587.97,508.02,592.53,502.39,592.55"/>
			<path class="st2" d="M46.91,359.67h455.51c5.64,0,10.22,4.58,10.22,10.2v212.48c0,5.64-4.58,10.2-10.22,10.2H46.91
				c-5.64,0-10.2-4.56-10.2-10.2V369.87C36.71,364.24,41.27,359.67,46.91,359.67z"/>
			<path class="st2" d="M23.83,568.5h499.77c1.89,0,3.43,1.54,3.43,3.43v17.21c0,1.89-1.54,3.43-3.43,3.43H23.83
				c-1.89,0-3.43-1.54-3.43-3.43v-17.21C20.41,570.04,21.94,568.5,23.83,568.5z"/>
			<rect x="44.51" y="426.79" class="st3" width="16.32" height="48.21"/>
			<rect x="44.51" y="426.79" class="st4" width="16.32" height="48.21"/>
			<path class="st5" d="M85.02,425.12h12.31c2.09,0,3.77,1.68,3.77,3.77v40.91c0,2.09-1.68,3.77-3.77,3.77H85.02
				c-2.09,0-3.77-1.68-3.77-3.77v-40.91C81.25,426.8,82.93,425.12,85.02,425.12z"/>
			<path class="st5" d="M46.51,425.12h12.31c2.09,0,3.77,1.68,3.77,3.77v40.91c0,2.09-1.68,3.77-3.77,3.77H46.51
				c-2.09,0-3.77-1.68-3.77-3.77v-40.91C42.74,426.8,44.42,425.12,46.51,425.12z"/>
			<path class="st5" d="M123.54,425.12h12.31c2.09,0,3.77,1.68,3.77,3.77v40.91c0,2.09-1.68,3.77-3.77,3.77h-12.31
				c-2.09,0-3.77-1.68-3.77-3.77v-40.91C119.77,426.8,121.46,425.12,123.54,425.12z"/>
			<path class="st5" d="M162.03,425.12h12.31c2.09,0,3.77,1.68,3.77,3.77v40.91c0,2.09-1.68,3.77-3.77,3.77h-12.31
				c-2.07,0-3.77-1.68-3.77-3.77v-40.91C158.26,426.8,159.96,425.12,162.03,425.12z"/>
			<path class="st5" d="M208.79,425.12h12.31c2.09,0,3.77,1.68,3.77,3.77v40.91c0,2.09-1.68,3.77-3.77,3.77h-12.31
				c-2.09,0-3.77-1.68-3.77-3.77v-40.91C205.03,426.8,206.71,425.12,208.79,425.12z"/>
			<path class="st5" d="M265.23,425.12h12.31c2.09,0,3.78,1.68,3.78,3.77v40.91c0,2.09-1.7,3.77-3.78,3.77h-12.31
				c-2.07,0-3.77-1.68-3.77-3.77v-40.91C261.46,426.8,263.16,425.12,265.23,425.12z"/>
			<path class="st5" d="M318.95,425.12h12.31c2.09,0,3.77,1.68,3.77,3.77v40.91c0,2.09-1.68,3.77-3.77,3.77h-12.31
				c-2.09,0-3.77-1.68-3.77-3.77v-40.91C315.18,426.8,316.86,425.12,318.95,425.12z"/>
			<path class="st5" d="M372.37,425.12h12.31c2.09,0,3.77,1.68,3.77,3.77v40.91c0,2.09-1.68,3.77-3.77,3.77h-12.31
				c-2.09,0-3.77-1.68-3.77-3.77v-40.91C368.61,426.8,370.29,425.12,372.37,425.12z"/>
			<path class="st5" d="M411.61,425.12h12.31c2.09,0,3.77,1.68,3.77,3.77v40.91c0,2.09-1.68,3.77-3.77,3.77h-12.31
				c-2.09,0-3.77-1.68-3.77-3.77v-40.91C407.84,426.8,409.52,425.12,411.61,425.12z"/>
			<path class="st5" d="M448.24,425.12h12.31c2.09,0,3.78,1.68,3.78,3.77v40.91c0,2.09-1.7,3.77-3.78,3.77h-12.31
				c-2.07,0-3.77-1.68-3.77-3.77v-40.91C444.47,426.8,446.17,425.12,448.24,425.12z"/>
			<path class="st5" d="M487.05,425.12h12.31c2.09,0,3.78,1.68,3.78,3.77v40.91c0,2.09-1.7,3.77-3.78,3.77h-12.31
				c-2.07,0-3.77-1.68-3.77-3.77v-40.91C483.29,426.8,484.98,425.12,487.05,425.12z"/>
			<path class="st5" d="M46.51,504.16h12.31c2.09,0,3.77,1.68,3.77,3.77v40.91c0,2.09-1.68,3.77-3.77,3.77H46.51
				c-2.09,0-3.77-1.68-3.77-3.77v-40.91C42.74,505.84,44.42,504.16,46.51,504.16z"/>
			<path class="st5" d="M85.05,504.16h12.31c2.09,0,3.77,1.68,3.77,3.77v40.91c0,2.09-1.68,3.77-3.77,3.77H85.05
				c-2.09,0-3.77-1.68-3.77-3.77v-40.91C81.28,505.84,82.96,504.16,85.05,504.16z"/>
			<path class="st5" d="M123.58,504.16h12.31c2.09,0,3.78,1.68,3.78,3.77v40.91c0,2.09-1.7,3.77-3.78,3.77h-12.31
				c-2.07,0-3.77-1.68-3.77-3.77v-40.91C119.81,505.84,121.51,504.16,123.58,504.16z"/>
			<path class="st5" d="M162.03,504.16h12.31c2.09,0,3.77,1.68,3.77,3.77v40.91c0,2.09-1.68,3.77-3.77,3.77h-12.31
				c-2.07,0-3.77-1.68-3.77-3.77v-40.91C158.26,505.84,159.96,504.16,162.03,504.16z"/>
			<path class="st5" d="M210.28,504.16h12.31c2.09,0,3.77,1.68,3.77,3.77v40.91c0,2.09-1.68,3.77-3.77,3.77h-12.31
				c-2.09,0-3.77-1.68-3.77-3.77v-40.91C206.51,505.84,208.19,504.16,210.28,504.16z"/>
			<path class="st5" d="M258.54,504.16h23.79c2.09,0,3.77,1.68,3.77,3.77v54.8c0,2.09-1.68,3.77-3.77,3.77h-23.79
				c-2.09,0-3.77-1.68-3.77-3.77v-54.8C254.77,505.84,256.45,504.16,258.54,504.16z"/>
			<path class="st5" d="M318.95,504.16h12.31c2.09,0,3.77,1.68,3.77,3.77v40.91c0,2.09-1.68,3.77-3.77,3.77h-12.31
				c-2.09,0-3.77-1.68-3.77-3.77v-40.91C315.18,505.84,316.86,504.16,318.95,504.16z"/>
			<path class="st5" d="M372.37,505.61h12.31c2.09,0,3.77,1.68,3.77,3.77v40.91c0,2.09-1.68,3.77-3.77,3.77h-12.31
				c-2.09,0-3.77-1.68-3.77-3.77v-40.91C368.61,507.29,370.29,505.61,372.37,505.61z"/>
			<path class="st5" d="M411.61,505.61h12.31c2.09,0,3.77,1.68,3.77,3.77v40.91c0,2.09-1.68,3.77-3.77,3.77h-12.31
				c-2.09,0-3.77-1.68-3.77-3.77v-40.91C407.84,507.29,409.52,505.61,411.61,505.61z"/>
			<path class="st5" d="M448.24,505.61h12.31c2.09,0,3.78,1.68,3.78,3.77v40.91c0,2.09-1.7,3.77-3.78,3.77h-12.31
				c-2.07,0-3.77-1.68-3.77-3.77v-40.91C444.47,507.29,446.17,505.61,448.24,505.61z"/>
			<path class="st5" d="M487.05,505.61h12.31c2.09,0,3.78,1.68,3.78,3.77v40.91c0,2.09-1.7,3.77-3.78,3.77h-12.31
				c-2.07,0-3.77-1.68-3.77-3.77v-40.91C483.29,507.29,484.98,505.61,487.05,505.61z"/>
			<path class="st6" d="M46.91,544.42h39.78c5.64,0.02,10.19,4.58,10.2,10.2v27.72c-0.02,5.63-4.56,10.19-10.2,10.2H46.91
				c-5.63-0.02-10.19-4.58-10.2-10.2v-27.72C36.73,549,41.29,544.44,46.91,544.42"/>
			<path class="st6" d="M131.08,544.42h39.78c5.64,0.02,10.19,4.58,10.2,10.2v27.72c-0.02,5.63-4.56,10.19-10.2,10.2h-39.78
				c-5.63-0.02-10.19-4.58-10.2-10.2v-27.72C120.9,549,125.46,544.44,131.08,544.42"/>
			<path class="st6" d="M374.55,544.42h39.73c5.63,0.02,10.17,4.58,10.19,10.2v27.72c-0.02,5.63-4.56,10.19-10.19,10.2h-39.73
				c-5.63-0.02-10.19-4.58-10.2-10.2v-27.72C364.36,549,368.92,544.44,374.55,544.42"/>
			<path class="st6" d="M458.72,544.42h39.78c5.64,0.02,10.19,4.58,10.2,10.2v27.72c-0.02,5.63-4.56,10.19-10.2,10.2h-39.78
				c-5.63-0.02-10.19-4.58-10.2-10.2v-27.72C448.53,549,453.1,544.44,458.72,544.42"/>
			<rect x="185.19" y="409.7" class="st2" width="15.82" height="156.81"/>
			<rect x="339.06" y="409.7" class="st2" width="15.82" height="156.81"/>
			<rect x="236.36" y="409.7" class="st5" width="16.19" height="156.81"/>
			<path class="st1" d="M516.39,409.68H32.55c-2.72-0.02-4.93-2.23-4.93-4.95v-9.28c0-2.72,2.22-4.93,4.93-4.95h483.85
				c2.72,0.02,4.93,2.23,4.93,4.95v9.28C521.33,407.45,519.11,409.67,516.39,409.68"/>
			<path class="st2" d="M32.55,390.45H516.4c2.73,0,4.95,2.22,4.95,4.95v9.35c0,2.73-2.22,4.95-4.95,4.95H32.55
				c-2.73,0-4.95-2.22-4.95-4.95v-9.35C27.6,392.66,29.82,390.45,32.55,390.45z"/>
			<rect x="290.22" y="409.7" class="st5" width="16.19" height="156.81"/>
			<path class="st2" d="M224.4,580.53h96.67c2.22,0,4.03,1.81,4.03,4.04v3.95c0,2.23-1.81,4.04-4.03,4.04H224.4
				c-2.23,0-4.04-1.81-4.04-4.04v-3.95C220.36,582.34,222.17,580.53,224.4,580.53z"/>
			<rect x="236.36" y="569.56" class="st2" width="70.07" height="10.96"/>
			<rect x="185.19" y="359.66" class="st2" width="169.7" height="28.41"/>
			<rect x="178.11" y="331.62" class="st1" width="183.7" height="28.04"/>
			<rect x="178.11" y="331.62" class="st2" width="183.7" height="28.04"/>
			<polygon class="st1" points="269.84,274.88 186.15,328.86 353.52,328.86 			"/>
			<polygon class="st7" points="269.84,274.88 186.15,328.86 353.52,328.86 			"/>
			<rect x="295.59" y="201.63" class="st8" width="25.76" height="9.43"/>
			<rect x="290.63" y="221.1" class="st8" width="29.9" height="7.41"/>
			<path class="st9" d="M270.11,279.12L270.11,279.12c-2.47,0-4.48-2.01-4.48-4.48v-78.43c0-2.49,2.01-4.5,4.48-4.5
				c2.47,0,4.48,2.01,4.48,4.5v78.43C274.58,277.09,272.59,279.1,270.11,279.12"/>
			<rect x="272.5" y="202.44" class="st10" width="23.08" height="26.07"/>
			<path class="st2" d="M274.58,200.11h43.34c2.47,0,4.5,2.01,4.5,4.48v35.14c0,2.47-2.02,4.5-4.5,4.5h-43.34
				c-2.47,0-4.48-2.02-4.48-4.5v-35.14C270.1,202.11,272.11,200.11,274.58,200.11z"/>
		</g>
	</g>
</g>
<g>
	<path class="st11" d="M812.03,220.91c-0.1-0.32,0.07-0.69,0.42-0.8l7.2-2.21c3.89-1.19,7.48,0.52,8.51,3.9
		c0.76,2.47-0.53,4.8-1.78,6.14c1.92,0.19,4.72,1.05,5.62,4.01c1.1,3.6-1.06,7.11-5.11,8.35l-7.56,2.32c-0.35,0.11-0.7-0.1-0.8-0.42
		L812.03,220.91z M822.46,227.74c2.06-0.63,2.85-2.53,2.26-4.46c-0.6-1.96-2.27-2.93-4.33-2.3l-4.34,1.33l2.07,6.75L822.46,227.74z
		 M825.97,237.35c1.96-0.6,3.01-2.58,2.4-4.57c-0.6-1.96-2.9-2.8-4.99-2.16l-4.4,1.35l2.11,6.88L825.97,237.35z"/>
	<path class="st11" d="M830.76,217.28c-0.33-1.06,0.22-2.14,1.25-2.46c1.06-0.33,2.15,0.26,2.48,1.32c0.32,1.03-0.26,2.12-1.33,2.45
		C832.13,218.9,831.07,218.31,830.76,217.28z M833.48,224.89c-0.1-0.32,0.1-0.7,0.42-0.8l1.83-0.56c0.32-0.1,0.7,0.1,0.8,0.42
		l3.57,11.64c0.1,0.32-0.1,0.7-0.42,0.8l-1.83,0.56c-0.32,0.1-0.7-0.1-0.8-0.42L833.48,224.89z"/>
	<path class="st11" d="M845.83,220.08c1.64-0.5,2.98-0.25,3.3-0.24l-2.89-9.42c-0.1-0.32,0.1-0.7,0.42-0.8l1.87-0.57
		c0.32-0.1,0.7,0.1,0.8,0.42l6.52,21.29c0.1,0.32-0.1,0.7-0.42,0.8l-0.96,0.3c-0.29,0.09-0.55-0.08-0.75-0.37l-0.54-0.85
		c0,0-0.99,2.27-3.53,3.05c-3.41,1.04-6.95-1.21-8.08-4.91C840.41,225.01,842.26,221.17,845.83,220.08z M849.18,230.8
		c1.96-0.6,2.41-2.46,2.46-2.87l-1.61-5.24c0,0-1.36-0.43-3.03,0.09c-2.15,0.66-3.12,2.89-2.45,5.08
		C845.21,230.01,847.13,231.43,849.18,230.8z"/>
	<path class="st11" d="M861.68,215.22c3.34-1.02,6.68,0.69,7.74,4.14c0.07,0.23,0.17,0.65,0.2,0.89c0.07,0.33-0.12,0.64-0.41,0.73
		l-8.75,2.68c0.63,1.71,2.66,2.95,4.75,2.31c1.16-0.35,2.06-1.19,2.58-1.81c0.32-0.34,0.5-0.54,0.86-0.3l1.28,0.95
		c0.3,0.19,0.48,0.42,0.19,0.86c-0.69,1.09-2.11,2.41-4.27,3.07c-3.89,1.19-7.4-1.07-8.53-4.77
		C856.21,220.31,857.82,216.4,861.68,215.22z M866.24,219.66c-0.57-1.51-2.26-2.44-3.83-1.95c-1.74,0.53-2.7,2.2-2.4,3.87
		L866.24,219.66z"/>
	<path class="st11" d="M870.97,213.39c-0.1-0.32,0.1-0.7,0.42-0.8l0.93-0.29c0.26-0.08,0.5,0.02,0.63,0.23l0.72,0.97
		c0.15-0.33,1.38-2.39,3.95-3.18c3.92-1.2,6.22,1.12,7.24,4.46l1.98,6.46c0.1,0.32-0.1,0.7-0.42,0.8l-1.83,0.56
		c-0.35,0.11-0.7-0.1-0.8-0.42l-2.02-6.59c-0.63-2.06-1.97-2.88-3.64-2.37c-2.03,0.62-2.96,2.52-2.98,3.02l2.4,7.85
		c0.13,0.42,0,0.67-0.55,0.84l-1.67,0.51c-0.32,0.1-0.7-0.1-0.8-0.42L870.97,213.39z"/>
</g>
<g>
	<path class="st11" d="M794.32,359.24c-0.06-0.33,0.15-0.68,0.52-0.74l7.42-1.31c4.01-0.71,7.36,1.43,7.97,4.91
		c0.45,2.55-1.11,4.7-2.51,5.87c1.88,0.42,4.56,1.62,5.09,4.67c0.66,3.71-1.92,6.93-6.09,7.67l-7.78,1.38
		c-0.37,0.06-0.68-0.19-0.74-0.52L794.32,359.24z M803.84,367.29c2.12-0.37,3.14-2.16,2.79-4.15c-0.36-2.02-1.89-3.18-4.01-2.81
		l-4.47,0.79l1.23,6.96L803.84,367.29z M806.15,377.26c2.02-0.36,3.3-2.19,2.94-4.24c-0.36-2.02-2.54-3.14-4.69-2.76l-4.54,0.8
		l1.25,7.09L806.15,377.26z"/>
	<path class="st11" d="M813.37,355.87c-0.06-0.33,0.19-0.68,0.52-0.74l1.89-0.33c0.33-0.06,0.68,0.19,0.74,0.52l3.88,21.92
		c0.06,0.33-0.19,0.68-0.52,0.74l-1.89,0.33c-0.33,0.06-0.68-0.19-0.74-0.52L813.37,355.87z"/>
	<path class="st11" d="M828.1,362.52c3.71-0.66,7.25,2,7.91,5.74c0.67,3.81-1.75,7.51-5.45,8.17c-3.71,0.66-7.25-2-7.92-5.81
		C821.97,366.88,824.39,363.18,828.1,362.52z M830.06,373.58c2.09-0.37,3.42-2.52,3.01-4.8c-0.39-2.22-2.37-3.75-4.46-3.38
		c-2.09,0.37-3.42,2.48-3.03,4.7C825.99,372.39,827.97,373.95,830.06,373.58z"/>
	<path class="st11" d="M843.8,359.75c3.71-0.66,7.25,2,7.91,5.74c0.67,3.81-1.75,7.51-5.46,8.17s-7.25-2-7.92-5.8
		C837.67,364.11,840.09,360.4,843.8,359.75z M845.76,370.81c2.09-0.37,3.41-2.52,3.01-4.8c-0.39-2.22-2.37-3.75-4.46-3.38
		c-2.09,0.37-3.42,2.48-3.03,4.7C841.69,369.61,843.67,371.18,845.76,370.81z"/>
	<path class="st11" d="M853.98,358.94c-0.06-0.33,0.19-0.68,0.52-0.74l0.93-0.16c0.3-0.05,0.49,0.08,0.63,0.3l0.56,1.06
		c0.25-0.35,1.49-2.18,4.04-2.63c1.92-0.34,3.45,0.18,4.65,1.36c0.3-0.43,1.91-2.52,4.43-2.97c4.04-0.71,5.97,1.88,6.58,5.33
		l1.18,6.66c0.06,0.33-0.15,0.68-0.52,0.74l-1.85,0.33c-0.36,0.06-0.68-0.19-0.74-0.52l-1.2-6.79c-0.37-2.09-1.54-3.11-3.33-2.79
		c-2.02,0.36-2.93,1.99-3.12,2.23c0.12,0.29,0.26,0.91,0.38,1.57l1.21,6.86c0.06,0.33-0.19,0.68-0.52,0.74l-1.75,0.31
		c-0.37,0.06-0.68-0.19-0.74-0.52l-1.2-6.79c-0.38-2.12-1.54-3.11-3.39-2.78c-1.99,0.35-2.84,2.11-2.93,2.57l1.43,8.08
		c0.06,0.33-0.19,0.68-0.52,0.74l-1.85,0.33c-0.33,0.06-0.68-0.19-0.74-0.52L853.98,358.94z"/>
	<path class="st11" d="M877.76,344.49c-0.06-0.33,0.19-0.68,0.52-0.74l1.92-0.34c0.33-0.06,0.68,0.19,0.74,0.52l1.71,9.7
		c0.28-0.15,1.36-0.99,3.05-1.29c3.68-0.65,7.07,1.93,7.75,5.8c0.67,3.81-1.45,7.43-4.96,8.05c-2.62,0.46-4.53-1.11-4.53-1.11
		l-0.09,1.01c-0.04,0.35-0.2,0.62-0.5,0.67l-0.99,0.18c-0.33,0.06-0.68-0.19-0.74-0.52L877.76,344.49z M887.59,363.41
		c2.12-0.37,3.18-2.51,2.78-4.73c-0.4-2.25-2.28-3.8-4.5-3.41c-1.72,0.3-2.75,1.27-2.75,1.27l0.96,5.43
		C884.32,362.32,885.57,363.77,887.59,363.41z"/>
	<path class="st11" d="M901.24,349.59c3.44-0.61,6.55,1.51,7.18,5.05c0.04,0.23,0.08,0.67,0.09,0.91c0.03,0.34-0.2,0.62-0.5,0.67
		l-9.01,1.59c0.42,1.77,2.28,3.25,4.43,2.87c1.19-0.21,2.19-0.93,2.78-1.48c0.36-0.3,0.57-0.48,0.89-0.19l1.15,1.09
		c0.28,0.22,0.42,0.47,0.08,0.87c-0.81,1-2.39,2.13-4.61,2.52c-4.01,0.71-7.21-1.97-7.89-5.78
		C895.18,353.98,897.26,350.3,901.24,349.59z M905.22,354.56c-0.38-1.57-1.95-2.7-3.57-2.41c-1.79,0.32-2.95,1.85-2.86,3.54
		L905.22,354.56z"/>
	<path class="st11" d="M910.68,348.91c-0.06-0.33,0.19-0.68,0.52-0.74l0.96-0.17c0.23-0.04,0.53,0.11,0.65,0.36l0.56,1.06
		c0.17-0.37,1.12-2.18,3.54-2.61c1.26-0.22,2.84-0.16,2.63,0.8l-0.51,1.76c-0.1,0.39-0.42,0.52-0.74,0.44
		c-0.22-0.06-0.74-0.11-1.17-0.03c-1.92,0.34-2.6,1.9-2.69,2.15l1.49,8.41c0.1,0.56-0.25,0.69-0.78,0.79l-1.59,0.28
		c-0.33,0.06-0.68-0.19-0.74-0.52L910.68,348.91z"/>
	<path class="st11" d="M923.93,354.87c0,0-1.24-1.04-1.59-3.03c-0.54-3.08,1.29-6.2,4.67-6.8l5.79-1.02
		c0.37-0.06,0.68,0.15,0.74,0.52l0.15,0.83c0.04,0.23-0.04,0.55-0.26,0.63l-1.73,0.82c0,0,1.61,0.81,2.05,3.29
		c0.5,2.81-1.23,5.78-4.68,6.39c-1.69,0.3-2.71-0.07-2.97-0.02c-0.23,0.04-1.26,0.8-1.07,1.86c0.13,0.76,0.84,1.25,1.83,1.08
		l4.5-0.8c2.88-0.51,5.48,0.64,5.98,3.52c0.51,2.91-1.68,5.97-6.08,6.74c-4.67,0.83-6.98-1.23-7.36-3.38
		c-0.35-1.99,1.11-3.2,1.4-3.46l-0.02-0.1c-0.73-0.07-2.64-0.66-3.04-2.88C921.79,356.51,923.93,354.87,923.93,354.87z
		 M930.89,350.4c-0.32-1.79-1.67-2.85-3.32-2.56c-1.69,0.3-2.69,1.77-2.38,3.56c0.32,1.79,1.76,2.83,3.45,2.53
		C930.3,353.64,931.21,352.19,930.89,350.4z M930.74,366.17c2.02-0.36,3.59-1.69,3.31-3.28c-0.09-0.53-0.66-1.83-2.82-1.45
		c-0.96,0.17-1.95,0.35-2.9,0.58c-0.19,0.1-1.72,0.92-1.45,2.41C927.12,365.78,928.72,366.53,930.74,366.17z"/>
</g>
<g>
	<path class="st11" d="M909.87,175.61c0-0.34,0.27-0.64,0.64-0.64h7.53c4.07,0,7,2.69,7,6.22c0,2.59-1.92,4.44-3.5,5.35
		c1.78,0.74,4.2,2.39,4.2,5.48c0,3.77-3.09,6.49-7.33,6.49h-7.9c-0.37,0-0.64-0.3-0.64-0.64V175.61z M918.38,195.42
		c2.05,0,3.63-1.58,3.63-3.67c0-2.05-1.95-3.53-4.14-3.53h-4.61v7.2H918.38z M917.84,185.2c2.15,0,3.46-1.58,3.46-3.6
		c0-2.05-1.31-3.46-3.46-3.46h-4.54v7.06H917.84z"/>
	<path class="st11" d="M935.2,184.73c3.77,0,6.79,3.23,6.79,7.03c0,3.87-3.03,7.1-6.79,7.1s-6.79-3.23-6.79-7.1
		C928.4,187.96,931.43,184.73,935.2,184.73z M935.2,195.96c2.12,0,3.8-1.88,3.8-4.2c0-2.25-1.68-4.1-3.8-4.1
		c-2.12,0-3.8,1.85-3.8,4.1C931.4,194.08,933.08,195.96,935.2,195.96z"/>
	<path class="st11" d="M951.14,184.73c3.77,0,6.79,3.23,6.79,7.03c0,3.87-3.03,7.1-6.79,7.1s-6.79-3.23-6.79-7.1
		C944.35,187.96,947.38,184.73,951.14,184.73z M951.14,195.96c2.12,0,3.8-1.88,3.8-4.2c0-2.25-1.68-4.1-3.8-4.1
		c-2.12,0-3.8,1.85-3.8,4.1C947.34,194.08,949.02,195.96,951.14,195.96z"/>
	<path class="st11" d="M961.3,175.61c0-0.34,0.3-0.64,0.64-0.64h1.95c0.34,0,0.64,0.3,0.64,0.64v14.56l5.25-4.71
		c0.24-0.2,0.5-0.4,0.84-0.4h2.35c0.57,0,0.67,0.64,0.37,0.91l-5.58,5.08l6.59,6.59c0.3,0.3,0.2,0.87-0.37,0.87h-2.76
		c-0.24,0-0.5-0.13-0.6-0.27l-6.09-6.26v5.89c0,0.34-0.3,0.64-0.64,0.64h-1.95c-0.34,0-0.64-0.3-0.64-0.64V175.61z"/>
	<path class="st11" d="M982.52,184.73c3.5,0,6.19,2.62,6.19,6.22c0,0.24-0.03,0.67-0.07,0.91c-0.03,0.34-0.3,0.57-0.61,0.57h-9.15
		c0.1,1.82,1.68,3.6,3.87,3.6c1.21,0,2.32-0.54,2.99-0.98c0.4-0.24,0.64-0.37,0.91-0.03l0.94,1.28c0.24,0.27,0.34,0.54-0.07,0.87
		c-0.97,0.84-2.72,1.68-4.98,1.68c-4.07,0-6.76-3.19-6.76-7.06C975.8,187.99,978.49,184.73,982.52,184.73z M985.59,190.31
		c-0.1-1.61-1.45-2.99-3.09-2.99c-1.82,0-3.23,1.31-3.43,2.99H985.59z"/>
	<path class="st11" d="M991.94,185.7c0-0.34,0.3-0.64,0.64-0.64h0.97c0.24,0,0.5,0.2,0.57,0.47l0.37,1.14
		c0.24-0.34,1.48-1.95,3.93-1.95c1.28,0,2.83,0.34,2.46,1.24l-0.81,1.65c-0.17,0.37-0.5,0.44-0.81,0.3c-0.2-0.1-0.71-0.24-1.14-0.24
		c-1.95,0-2.89,1.41-3.03,1.65v8.54c0,0.57-0.37,0.64-0.91,0.64h-1.61c-0.34,0-0.64-0.3-0.64-0.64V185.7z"/>
</g>
<g>
	<path class="st11" d="M794.74,524.81c0.07-0.33,0.4-0.57,0.76-0.49l7.36,1.6c3.98,0.87,6.26,4.12,5.51,7.57
		c-0.55,2.53-2.82,3.93-4.56,4.48c1.58,1.1,3.6,3.23,2.94,6.25c-0.8,3.68-4.41,5.68-8.55,4.78l-7.72-1.68
		c-0.36-0.08-0.56-0.43-0.49-0.76L794.74,524.81z M798.84,545.98c2,0.44,3.89-0.77,4.33-2.81c0.44-2-1.15-3.87-3.29-4.33l-4.5-0.98
		l-1.53,7.03L798.84,545.98z M800.49,535.87c2.1,0.46,3.72-0.81,4.15-2.78c0.44-2-0.54-3.66-2.65-4.12l-4.44-0.97l-1.5,6.9
		L800.49,535.87z"/>
	<path class="st11" d="M811.29,538.74c0.07-0.33,0.43-0.56,0.76-0.49l1.87,0.41c0.33,0.07,0.56,0.43,0.49,0.76l-1.47,6.74
		c-0.47,2.14,0.3,3.51,1.98,3.87c1.94,0.42,3.5-0.89,3.73-1.46l1.71-7.85c0.11-0.53,0.4-0.57,0.86-0.47l1.71,0.37
		c0.33,0.07,0.56,0.43,0.49,0.76l-2.59,11.89c-0.07,0.33-0.43,0.56-0.76,0.49l-0.92-0.2c-0.33-0.07-0.44-0.34-0.48-0.65l-0.12-1.02
		c-0.35,0.2-2.07,1.44-4.73,0.86c-3.94-0.86-4.71-3.95-3.97-7.37L811.29,538.74z"/>
	<path class="st11" d="M828.09,544.61l-1.38-0.3c-0.36-0.08-0.56-0.43-0.49-0.76l0.32-1.48c0.08-0.36,0.4-0.57,0.76-0.49l1.38,0.3
		l0.8-3.65c0.07-0.33,0.43-0.56,0.76-0.49l1.88,0.38c0.33,0.07,0.53,0.42,0.46,0.75l-0.8,3.68l3.35,0.73
		c0.36,0.08,0.57,0.4,0.49,0.76l-0.32,1.48c-0.07,0.33-0.4,0.57-0.76,0.49l-3.35-0.73l-1.42,6.51c-0.24,1.12,0.14,1.41,0.77,1.54
		c0.69,0.15,1.7-0.04,2.13-0.15c0.47-0.1,0.62,0.14,0.69,0.46l0.28,1.57c0.08,0.4-0.1,0.63-0.47,0.72
		c-0.37,0.12-2.48,0.49-4.06,0.15c-2.6-0.57-3.01-2.31-2.5-4.64L828.09,544.61z"/>
	<path class="st11" d="M839.46,547.09l-1.38-0.3c-0.36-0.08-0.56-0.43-0.49-0.76l0.32-1.48c0.08-0.36,0.4-0.57,0.76-0.49l1.38,0.3
		l0.8-3.65c0.07-0.33,0.43-0.56,0.76-0.49l1.88,0.38c0.33,0.07,0.53,0.42,0.46,0.75l-0.8,3.68l3.35,0.73
		c0.36,0.08,0.57,0.4,0.49,0.76l-0.32,1.48c-0.07,0.33-0.4,0.57-0.76,0.49l-3.35-0.73l-1.42,6.51c-0.24,1.12,0.14,1.41,0.77,1.54
		c0.69,0.15,1.7-0.04,2.13-0.15c0.47-0.1,0.62,0.14,0.69,0.46l0.28,1.57c0.09,0.4-0.1,0.63-0.47,0.72
		c-0.37,0.12-2.48,0.49-4.06,0.15c-2.59-0.57-3.01-2.31-2.5-4.64L839.46,547.09z"/>
	<path class="st11" d="M850.43,547.28c0.07-0.33,0.43-0.56,0.76-0.49l1.87,0.41c0.33,0.07,0.56,0.43,0.49,0.76l-2.59,11.89
		c-0.07,0.33-0.43,0.56-0.76,0.49l-1.87-0.41c-0.33-0.07-0.56-0.43-0.49-0.76L850.43,547.28z M851.79,539.31
		c0.24-1.08,1.25-1.76,2.3-1.53c1.08,0.24,1.75,1.28,1.52,2.36c-0.23,1.05-1.27,1.72-2.35,1.48
		C852.2,541.4,851.56,540.36,851.79,539.31z"/>
	<path class="st11" d="M857.11,557.1c0,0-0.75-1.44-0.32-3.41c0.67-3.06,3.55-5.25,6.91-4.52l5.75,1.25
		c0.36,0.08,0.57,0.4,0.49,0.76l-0.18,0.82c-0.05,0.23-0.25,0.5-0.48,0.48l-1.91,0.1c0,0,1.18,1.36,0.65,3.82
		c-0.61,2.79-3.33,4.88-6.75,4.14c-1.68-0.37-2.48-1.09-2.74-1.15c-0.23-0.05-1.47,0.27-1.7,1.32c-0.16,0.76,0.3,1.48,1.28,1.69
		l4.47,0.97c2.86,0.62,4.82,2.67,4.2,5.53c-0.63,2.89-3.82,4.88-8.19,3.93c-4.63-1.01-5.99-3.78-5.52-5.92
		c0.43-1.97,2.24-2.54,2.61-2.67l0.02-0.1c-0.65-0.35-2.2-1.61-1.72-3.82C854.51,557.8,857.11,557.1,857.11,557.1z M859.12,570.13
		c2,0.44,3.97-0.2,4.31-1.78c0.12-0.53,0.08-1.94-2.06-2.41c-0.95-0.21-1.94-0.42-2.91-0.57c-0.21,0.02-1.94,0.2-2.26,1.68
		C855.92,568.4,857.11,569.7,859.12,570.13z M865.25,555.6c0.39-1.77-0.46-3.27-2.1-3.62c-1.68-0.37-3.16,0.62-3.55,2.39
		s0.56,3.29,2.23,3.65C863.47,558.38,864.86,557.37,865.25,555.6z"/>
	<path class="st11" d="M872.95,552.18c0.07-0.33,0.43-0.56,0.76-0.49l1.87,0.41c0.33,0.07,0.56,0.43,0.49,0.76l-2.59,11.89
		c-0.07,0.33-0.43,0.56-0.76,0.49l-1.87-0.41c-0.33-0.07-0.56-0.43-0.49-0.76L872.95,552.18z M874.3,544.22
		c0.24-1.08,1.24-1.76,2.3-1.53c1.08,0.24,1.75,1.28,1.51,2.36c-0.23,1.05-1.27,1.72-2.35,1.48
		C874.71,546.3,874.08,545.27,874.3,544.22z"/>
	<path class="st11" d="M886.17,554.07c3.42,0.75,5.49,3.88,4.72,7.4c-0.05,0.23-0.18,0.65-0.26,0.87c-0.11,0.32-0.42,0.49-0.71,0.43
		l-8.94-1.95c-0.29,1.8,0.88,3.87,3.01,4.34c1.18,0.26,2.38-0.03,3.13-0.31c0.44-0.14,0.7-0.23,0.89,0.16l0.65,1.45
		c0.17,0.31,0.21,0.6-0.25,0.84c-1.13,0.61-3.02,1.06-5.22,0.58c-3.98-0.87-5.92-4.56-5.1-8.34
		C878.9,555.82,882.22,553.21,886.17,554.07z M887.97,560.18c0.25-1.6-0.78-3.23-2.38-3.58c-1.77-0.39-3.43,0.59-3.99,2.19
		L887.97,560.18z"/>
	<path class="st11" d="M894.44,565.23c0,0-0.75-1.44-0.32-3.41c0.67-3.06,3.55-5.25,6.91-4.52l5.75,1.25
		c0.36,0.08,0.57,0.4,0.49,0.76l-0.18,0.82c-0.05,0.23-0.25,0.5-0.48,0.48l-1.91,0.1c0,0,1.18,1.36,0.65,3.82
		c-0.61,2.79-3.33,4.88-6.75,4.14c-1.68-0.37-2.48-1.09-2.74-1.15c-0.23-0.05-1.47,0.26-1.7,1.32c-0.16,0.76,0.3,1.48,1.28,1.69
		l4.47,0.97c2.86,0.62,4.82,2.67,4.2,5.53c-0.63,2.89-3.82,4.88-8.19,3.93c-4.63-1.01-5.99-3.78-5.52-5.92
		c0.43-1.97,2.24-2.54,2.61-2.67l0.02-0.1c-0.65-0.35-2.2-1.61-1.72-3.82C891.84,565.94,894.44,565.23,894.44,565.23z
		 M896.45,578.27c2,0.44,3.97-0.2,4.31-1.78c0.12-0.53,0.08-1.94-2.06-2.41c-0.95-0.21-1.94-0.42-2.91-0.56
		c-0.21,0.02-1.94,0.2-2.26,1.68C893.25,576.54,894.45,577.83,896.45,578.27z M902.58,563.74c0.39-1.77-0.46-3.27-2.1-3.62
		c-1.68-0.37-3.16,0.62-3.55,2.39c-0.39,1.77,0.56,3.29,2.23,3.65C900.8,566.52,902.19,565.51,902.58,563.74z"/>
</g>
<g>
	<path class="st11" d="M764.58,246.42c0.14-0.41,0.57-0.66,1.02-0.51l1.85,0.61c0.42,0.14,0.65,0.6,0.51,1.02l-2.92,8.85l12.08-6.32
		c0.18-0.12,0.46-0.2,0.71-0.12l2.39,0.79c0.58,0.19,0.67,0.97,0.07,1.3l-12.33,6.34l6.21,13.99c0.15,0.4-0.25,1.09-0.92,0.86
		l-2.55-0.84c-0.32-0.11-0.47-0.3-0.5-0.41l-5.83-13.55l-3.28,9.93c-0.14,0.42-0.6,0.65-1.02,0.51l-1.85-0.61
		c-0.45-0.15-0.65-0.6-0.51-1.02L764.58,246.42z"/>
	<path class="st11" d="M783.38,252.46c0.11-0.32,0.49-0.51,0.81-0.41l1.82,0.6c0.32,0.11,0.51,0.49,0.41,0.81l-6.99,21.14
		c-0.11,0.32-0.49,0.51-0.81,0.41l-1.82-0.6c-0.32-0.11-0.51-0.49-0.41-0.81L783.38,252.46z"/>
	<path class="st11" d="M793.19,265.3c3.58,1.18,5.44,5.2,4.24,8.81c-1.21,3.67-5.1,5.79-8.68,4.61s-5.44-5.2-4.22-8.87
		C785.73,266.24,789.62,264.12,793.19,265.3z M789.67,275.97c2.01,0.66,4.2-0.6,4.93-2.8c0.71-2.14-0.31-4.42-2.32-5.09
		s-4.19,0.56-4.9,2.7C786.65,272.99,787.66,275.3,789.67,275.97z"/>
	<path class="st11" d="M805.7,259.84c0.11-0.32,0.49-0.51,0.81-0.41l1.85,0.61c0.32,0.11,0.51,0.49,0.41,0.81l-3.09,9.36
		c0.32,0,1.67-0.23,3.3,0.31c3.54,1.17,5.31,5.05,4.07,8.79c-1.21,3.67-4.8,5.85-8.19,4.73c-2.52-0.83-3.46-3.13-3.46-3.13
		l-0.56,0.84c-0.2,0.29-0.47,0.45-0.75,0.35l-0.96-0.32c-0.32-0.11-0.51-0.49-0.41-0.81L805.7,259.84z M805.38,281.16
		c2.04,0.68,3.99-0.7,4.69-2.84c0.72-2.17-0.2-4.42-2.34-5.13c-1.66-0.55-3.02-0.18-3.02-0.18l-1.73,5.24
		C803.02,278.65,803.43,280.52,805.38,281.16z"/>
	<path class="st11" d="M817.99,274.53c0.11-0.32,0.49-0.51,0.81-0.41l1.82,0.6c0.32,0.11,0.51,0.49,0.41,0.81l-2.16,6.55
		c-0.69,2.08-0.07,3.52,1.56,4.06c1.88,0.62,3.57-0.52,3.86-1.06l2.52-7.63c0.17-0.51,0.46-0.52,0.9-0.37l1.66,0.55
		c0.32,0.11,0.51,0.49,0.41,0.81l-3.82,11.56c-0.11,0.32-0.49,0.51-0.81,0.41l-0.89-0.3c-0.32-0.11-0.4-0.38-0.41-0.7l-0.01-1.03
		c-0.37,0.16-2.21,1.22-4.79,0.36c-3.83-1.27-4.28-4.42-3.18-7.75L817.99,274.53z"/>
	<path class="st11" d="M839.98,280.77c1.95,0.64,3.18,1.94,3.88,3.8c0.13,0.36-0.06,0.72-0.42,0.85l-1.37,0.61
		c-0.5,0.23-0.64-0.1-0.82-0.41c-0.36-0.83-1.1-1.71-2.15-2.06c-2.08-0.69-4.28,0.53-5,2.7c-0.73,2.2,0.29,4.49,2.36,5.17
		c1.63,0.54,2.58-0.07,3.46-0.49c0.38-0.19,0.67-0.1,0.88,0.22l0.63,0.99c0.23,0.36,0.26,0.72-0.07,0.97
		c-1.56,1.29-3.63,1.77-5.84,1.05c-3.58-1.18-5.74-5.05-4.47-8.88C832.29,281.52,836.44,279.6,839.98,280.77z"/>
	<path class="st11" d="M850.95,274.8c0.11-0.32,0.49-0.51,0.81-0.41l1.85,0.61c0.32,0.11,0.51,0.49,0.41,0.81l-3.31,10.03
		c0.39-0.12,2.24-0.78,4.29-0.11c3.61,1.19,4.48,4.35,3.33,7.83l-2.12,6.42c-0.11,0.32-0.49,0.51-0.81,0.41l-1.79-0.59
		c-0.35-0.12-0.51-0.49-0.41-0.81l2.14-6.48c0.69-2.08,0.01-3.57-1.65-4.12c-1.95-0.64-3.78,0.38-4.12,0.87l-2.54,7.7
		c-0.12,0.35-0.42,0.53-0.84,0.4l-1.82-0.6c-0.32-0.11-0.51-0.49-0.41-0.81L850.95,274.8z"/>
	<path class="st11" d="M866.84,295.21c1.34,0.44,2.4,1.22,2.4,1.22c0.7-2,0.58-2.93-1.05-3.46c-1.47-0.49-3.03-0.58-3.77-0.61
		c-0.42-0.03-0.55-0.36-0.53-0.74l0.13-1.27c0.04-0.45,0.34-0.6,0.66-0.6c0.26-0.02,2.29-0.06,4.65,0.72
		c4.09,1.35,3.65,3.97,2.59,7.16l-2.25,6.8c-0.11,0.32-0.49,0.51-0.81,0.41l-0.89-0.3c-0.29-0.09-0.37-0.27-0.4-0.63l-0.03-0.97
		c-0.92,0.44-2.49,0.98-4.47,0.33c-2.39-0.79-3.58-2.99-2.7-5.64C861.14,295.31,863.59,294.14,866.84,295.21z M864.43,301.22
		c1.28,0.42,2.81-0.14,3.4-0.65l0.68-2.04c-0.15-0.19-0.92-0.87-2.07-1.25c-1.53-0.51-2.85-0.06-3.28,1.25
		C862.78,299.68,863.25,300.83,864.43,301.22z"/>
	<path class="st11" d="M877.52,294.21c0.11-0.32,0.49-0.51,0.81-0.41l0.93,0.31c0.22,0.07,0.42,0.35,0.39,0.63l-0.01,1.2
		c0.33-0.25,2.02-1.39,4.35-0.62c1.21,0.4,2.58,1.21,1.94,1.95l-1.28,1.31c-0.28,0.3-0.62,0.26-0.86,0.03
		c-0.16-0.16-0.6-0.44-1.01-0.58c-1.85-0.61-3.19,0.43-3.39,0.61l-2.68,8.11c-0.18,0.54-0.55,0.49-1.06,0.32l-1.53-0.51
		c-0.32-0.11-0.51-0.49-0.41-0.81L877.52,294.21z"/>
</g>
<g>
	<path class="st11" d="M839.57,430.76c0.27-0.46,0.5-0.98,0.77-1.44c0.27-0.46,0.73-0.63,1.12-0.35c0.21,0.15,2.96,2.11,5.54,1.92
		c2.31-0.17,3.69-1.69,3.56-3.4c-0.15-2.01-1.99-3.16-5.41-4.29c-3.53-1.19-6.34-2.77-6.63-6.66c-0.19-2.62,1.56-6.35,6.89-6.75
		c3.35-0.25,6,1.31,6.35,1.52c0.28,0.15,0.58,0.6,0.29,1.13c-0.24,0.42-0.51,0.91-0.74,1.34c-0.24,0.46-0.66,0.69-1.15,0.42
		c-0.24-0.12-2.71-1.49-4.65-1.34c-2.82,0.21-3.66,2.06-3.57,3.3c0.14,1.91,1.7,2.98,4.57,3.91c4.01,1.29,7.46,2.89,7.76,6.98
		c0.26,3.49-2.65,6.57-7.01,6.89c-4.09,0.3-6.83-1.66-7.41-2.12C839.53,431.57,839.28,431.35,839.57,430.76z"/>
	<path class="st11" d="M861.87,423.99c1.41-0.1,2.68,0.21,2.68,0.21c-0.12-2.12-0.59-2.92-2.3-2.8c-1.54,0.11-3.02,0.63-3.71,0.88
		c-0.39,0.13-0.65-0.12-0.78-0.48l-0.36-1.22c-0.13-0.43,0.08-0.68,0.38-0.8c0.23-0.12,2.09-0.93,4.57-1.11
		c4.29-0.32,4.89,2.27,5.14,5.62l0.53,7.14c0.02,0.34-0.26,0.66-0.59,0.68l-0.94,0.07c-0.3,0.02-0.45-0.1-0.61-0.43l-0.4-0.88
		c-0.69,0.76-1.92,1.86-4,2.01c-2.51,0.19-4.45-1.39-4.66-4.18C856.64,426.26,858.45,424.24,861.87,423.99z M861.94,430.46
		c1.34-0.1,2.54-1.2,2.89-1.9l-0.16-2.15c-0.21-0.12-1.18-0.45-2.39-0.36c-1.61,0.12-2.66,1.04-2.55,2.41
		C859.83,429.67,860.7,430.55,861.94,430.46z"/>
	<path class="st11" d="M871.35,418.97c-0.02-0.34,0.26-0.66,0.59-0.68l0.97-0.07c0.27-0.02,0.48,0.13,0.57,0.36l0.49,1.11
		c0.21-0.29,1.87-2.03,4.56-2.22c4.09-0.3,5.81,2.47,6.07,5.96l0.5,6.74c0.02,0.34-0.25,0.66-0.59,0.68l-1.91,0.14
		c-0.37,0.03-0.66-0.25-0.68-0.59l-0.51-6.88c-0.16-2.15-1.28-3.24-3.03-3.12c-2.11,0.16-3.44,1.81-3.58,2.29l0.6,8.18
		c0.03,0.44-0.15,0.65-0.72,0.69l-1.74,0.13c-0.33,0.02-0.66-0.25-0.68-0.59L871.35,418.97z"/>
	<path class="st11" d="M893.95,416.33c1.71-0.13,2.96,0.42,3.27,0.5L896.5,407c-0.02-0.34,0.25-0.66,0.59-0.68l1.95-0.14
		c0.34-0.02,0.66,0.25,0.68,0.59l1.64,22.2c0.02,0.34-0.25,0.66-0.59,0.68l-1.01,0.07c-0.3,0.02-0.52-0.2-0.65-0.53l-0.34-0.95
		c0,0-1.47,2-4.12,2.19c-3.56,0.26-6.51-2.72-6.79-6.58C887.58,419.94,890.23,416.6,893.95,416.33z M894.85,427.53
		c2.05-0.15,2.9-1.87,3.04-2.25l-0.4-5.47c0,0-1.23-0.72-2.98-0.59c-2.25,0.17-3.69,2.13-3.52,4.41
		C891.15,425.88,892.7,427.69,894.85,427.53z"/>
	<path class="st11" d="M910.49,415.11c3.49-0.26,6.36,2.16,6.63,5.75c0.02,0.24,0.02,0.67,0,0.91c-0.01,0.34-0.26,0.59-0.56,0.61
		l-9.12,0.67c0.23,1.8,1.94,3.46,4.12,3.3c1.21-0.09,2.27-0.71,2.91-1.19c0.39-0.26,0.61-0.42,0.9-0.1l1.03,1.21
		c0.25,0.25,0.38,0.51,0,0.88c-0.91,0.91-2.59,1.88-4.84,2.04c-4.06,0.3-6.98-2.69-7.26-6.55
		C904.02,418.86,906.47,415.41,910.49,415.11z M913.95,420.46c-0.22-1.6-1.66-2.88-3.31-2.76c-1.81,0.13-3.12,1.55-3.2,3.24
		L913.95,420.46z"/>
	<path class="st11" d="M919.96,415.39c-0.02-0.34,0.25-0.66,0.59-0.68l0.97-0.07c0.24-0.02,0.52,0.16,0.61,0.43l0.45,1.11
		c0.21-0.35,1.33-2.05,3.78-2.23c1.27-0.09,2.84,0.13,2.54,1.06l-0.68,1.7c-0.14,0.38-0.47,0.47-0.78,0.36
		c-0.21-0.09-0.72-0.18-1.16-0.15c-1.95,0.14-2.78,1.62-2.9,1.87l0.63,8.52c0.04,0.57-0.32,0.66-0.86,0.7l-1.61,0.12
		c-0.33,0.02-0.66-0.25-0.68-0.59L919.96,415.39z"/>
	<path class="st11" d="M931.24,425.66l0.61-1.36c0.11-0.28,0.48-0.41,0.83-0.23c0,0,1.54,0.76,3.18,0.64
		c1.01-0.07,1.61-0.52,1.56-1.26c-0.07-0.91-0.84-1.29-2.74-1.99c-2.15-0.75-3.98-1.9-4.15-4.11c-0.12-1.68,1.1-3.79,4.32-4.03
		c1.88-0.14,3.33,0.36,4.03,0.75c0.32,0.18,0.52,0.6,0.34,0.95l-0.52,1.19c-0.15,0.31-0.57,0.45-0.85,0.33c0,0-1.53-0.6-2.8-0.5
		c-1.14,0.08-1.47,0.61-1.44,1.12c0.06,0.87,0.93,1.18,2.28,1.65c2.53,0.89,4.62,1.78,4.8,4.3c0.15,2.08-1.69,4.07-4.67,4.29
		c-2.25,0.17-3.78-0.53-4.53-1.05C931.28,426.23,931.12,425.94,931.24,425.66z"/>
</g>
<g>
	<path class="st11" d="M914.98,286.58c0.4-0.35,0.79-0.77,1.19-1.12c0.4-0.35,0.89-0.36,1.17,0.02c0.16,0.21,2.12,2.94,4.63,3.59
		c2.25,0.58,4.03-0.42,4.46-2.08c0.5-1.95-0.87-3.63-3.75-5.79c-2.96-2.26-5.12-4.65-4.15-8.43c0.65-2.54,3.5-5.52,8.68-4.19
		c3.26,0.84,5.26,3.16,5.53,3.47c0.22,0.23,0.36,0.75-0.09,1.16c-0.36,0.32-0.77,0.71-1.13,1.03c-0.37,0.36-0.84,0.44-1.22,0.03
		c-0.19-0.19-2.09-2.27-3.98-2.76c-2.74-0.7-4.12,0.78-4.43,1.98c-0.48,1.86,0.66,3.37,3.08,5.17c3.38,2.5,6.15,5.12,5.12,9.1
		c-0.87,3.39-4.61,5.38-8.85,4.29c-3.97-1.02-5.94-3.75-6.34-4.37C914.68,287.34,914.51,287.05,914.98,286.58z"/>
	<path class="st11" d="M935.03,284.24l-1.37-0.35c-0.36-0.09-0.54-0.45-0.46-0.78l0.38-1.46c0.09-0.36,0.42-0.55,0.78-0.46
		l1.37,0.35l0.93-3.62c0.08-0.33,0.45-0.54,0.78-0.46l1.87,0.45c0.33,0.08,0.51,0.44,0.43,0.77l-0.94,3.65l3.32,0.85
		c0.36,0.09,0.55,0.42,0.46,0.78l-0.38,1.47c-0.08,0.33-0.42,0.55-0.78,0.46l-3.32-0.85l-1.66,6.45c-0.28,1.11,0.09,1.41,0.71,1.57
		c0.68,0.18,1.7,0.02,2.14-0.07c0.47-0.09,0.62,0.16,0.67,0.49l0.22,1.58c0.07,0.4-0.13,0.63-0.5,0.71c-0.38,0.11-2.5,0.4-4.06,0
		c-2.57-0.66-2.92-2.42-2.32-4.73L935.03,284.24z"/>
	<path class="st11" d="M951.8,285.33c3.39,0.87,5.34,4.08,4.44,7.57c-0.06,0.23-0.2,0.64-0.29,0.86c-0.12,0.32-0.44,0.48-0.73,0.4
		l-8.86-2.28c-0.35,1.78,0.73,3.9,2.85,4.45c1.17,0.3,2.38,0.06,3.14-0.2c0.45-0.13,0.71-0.2,0.89,0.19l0.59,1.47
		c0.16,0.32,0.19,0.6-0.28,0.83c-1.15,0.57-3.06,0.95-5.24,0.39c-3.94-1.01-5.75-4.78-4.79-8.52
		C944.47,286.81,947.89,284.32,951.8,285.33z M953.37,291.5c0.3-1.59-0.65-3.26-2.25-3.67c-1.76-0.45-3.45,0.47-4.07,2.04
		L953.37,291.5z"/>
	<path class="st11" d="M958.86,288.4c-0.09-0.47,0.28-0.83,0.77-0.7l2.15,0.55c0.2,0.05,0.41,0.28,0.46,0.5l1.81,9.7l0.03,0.01
		l6.14-7.66c0.21-0.26,0.48-0.26,0.78-0.18l1.86,0.48c0.52,0.13,0.67,0.62,0.33,0.99l-15.51,19c-0.15,0.17-0.39,0.32-0.65,0.25
		l-1.95-0.5c-0.49-0.13-0.67-0.62-0.33-1.02l6.77-8.22L958.86,288.4z"/>
	<path class="st11" d="M981.57,292.99c3.39,0.87,5.34,4.08,4.44,7.57c-0.06,0.23-0.2,0.64-0.29,0.86c-0.12,0.32-0.44,0.48-0.73,0.4
		l-8.86-2.28c-0.35,1.78,0.73,3.9,2.85,4.45c1.17,0.3,2.38,0.06,3.14-0.2c0.45-0.13,0.71-0.2,0.89,0.19l0.59,1.47
		c0.16,0.32,0.19,0.6-0.28,0.83c-1.15,0.57-3.06,0.95-5.24,0.39c-3.94-1.01-5.75-4.78-4.79-8.52
		C974.25,294.47,977.67,291.98,981.57,292.99z M983.15,299.16c0.3-1.59-0.65-3.26-2.25-3.67c-1.76-0.45-3.45,0.47-4.07,2.04
		L983.15,299.16z"/>
	<path class="st11" d="M990.45,296.28c0.08-0.33,0.45-0.54,0.78-0.46l0.94,0.24c0.23,0.06,0.44,0.32,0.44,0.6l0.07,1.2
		c0.31-0.27,1.92-1.52,4.3-0.91c1.24,0.32,2.65,1.03,2.07,1.82l-1.19,1.39c-0.26,0.32-0.6,0.3-0.86,0.09
		c-0.17-0.15-0.62-0.4-1.05-0.51c-1.89-0.49-3.15,0.65-3.34,0.84l-2.13,8.27c-0.14,0.55-0.52,0.53-1.04,0.39l-1.56-0.4
		c-0.33-0.08-0.54-0.45-0.46-0.78L990.45,296.28z"/>
</g>
<g>
	<path class="st11" d="M919.64,467.67c-0.2-0.45,0.02-0.82,0.49-0.88l2.23-0.32c0.27-0.04,0.57,0.16,0.67,0.38l6.2,14.71l0.13-0.02
		l3.19-16.49c0.04-0.21,0.25-0.41,0.51-0.45l0.6-0.09c0.27-0.04,0.52,0.1,0.62,0.29l7.73,14.94l0.13-0.02l1.79-15.85
		c0.03-0.24,0.27-0.51,0.53-0.55l2.23-0.32c0.47-0.07,0.78,0.23,0.71,0.71l-3.11,23.27c-0.03,0.28-0.27,0.51-0.53,0.55l-0.53,0.08
		c-0.23,0.03-0.52-0.09-0.62-0.28l-8.21-15.72l-0.17,0.02l-3.41,17.37c-0.04,0.21-0.28,0.41-0.51,0.45l-0.53,0.08
		c-0.27,0.04-0.56-0.12-0.67-0.38L919.64,467.67z"/>
	<path class="st11" d="M954.91,477.02c1.4-0.2,2.69,0.03,2.69,0.03c-0.26-2.1-0.78-2.88-2.48-2.64c-1.53,0.22-2.97,0.83-3.64,1.13
		c-0.38,0.16-0.66-0.08-0.81-0.43l-0.44-1.19c-0.16-0.42,0.04-0.69,0.32-0.83c0.22-0.13,2.02-1.07,4.49-1.42
		c4.26-0.61,5.03,1.94,5.5,5.26l1.01,7.09c0.05,0.33-0.21,0.68-0.54,0.72l-0.93,0.13c-0.3,0.04-0.45-0.07-0.63-0.39l-0.46-0.85
		c-0.63,0.8-1.79,1.99-3.85,2.28c-2.5,0.35-4.54-1.09-4.93-3.85C949.85,479.65,951.51,477.51,954.91,477.02z M955.42,483.47
		c1.33-0.19,2.45-1.37,2.76-2.09l-0.3-2.13c-0.22-0.1-1.21-0.37-2.41-0.2c-1.6,0.23-2.58,1.22-2.38,2.58
		C953.25,482.83,954.18,483.65,955.42,483.47z"/>
	<path class="st11" d="M964.03,471.38c-0.05-0.33,0.21-0.67,0.54-0.72l0.97-0.14c0.23-0.03,0.53,0.13,0.63,0.39l0.53,1.08
		c0.19-0.37,1.19-2.14,3.62-2.48c1.27-0.18,2.84-0.06,2.61,0.89l-0.57,1.74c-0.12,0.39-0.44,0.5-0.76,0.41
		c-0.21-0.07-0.73-0.13-1.17-0.07c-1.93,0.27-2.67,1.81-2.76,2.06l1.2,8.46c0.08,0.57-0.28,0.69-0.81,0.76l-1.6,0.23
		c-0.33,0.05-0.68-0.21-0.72-0.54L964.03,471.38z"/>
	<path class="st11" d="M975.22,469.79c-0.05-0.33,0.21-0.67,0.54-0.72l0.97-0.14c0.23-0.03,0.53,0.13,0.63,0.39l0.53,1.08
		c0.19-0.37,1.19-2.14,3.62-2.48c1.27-0.18,2.84-0.06,2.61,0.89l-0.57,1.74c-0.12,0.39-0.44,0.5-0.76,0.41
		c-0.21-0.07-0.73-0.13-1.17-0.07c-1.93,0.27-2.67,1.81-2.76,2.06l1.2,8.46c0.08,0.57-0.28,0.69-0.81,0.76l-1.6,0.23
		c-0.33,0.05-0.68-0.21-0.72-0.54L975.22,469.79z"/>
	<path class="st11" d="M991.86,466.44c3.46-0.49,6.5,1.73,7,5.29c0.03,0.23,0.06,0.67,0.06,0.91c0.01,0.34-0.22,0.61-0.52,0.65
		l-9.06,1.29c0.36,1.78,2.17,3.33,4.34,3.02c1.2-0.17,2.22-0.86,2.83-1.39c0.37-0.29,0.58-0.46,0.89-0.16l1.11,1.13
		c0.27,0.23,0.41,0.48,0.06,0.88c-0.85,0.97-2.46,2.05-4.69,2.36c-4.03,0.57-7.14-2.21-7.69-6.04
		C985.66,470.62,987.87,467.01,991.86,466.44z M995.68,471.54c-0.33-1.58-1.85-2.76-3.48-2.53c-1.8,0.26-3.01,1.75-2.98,3.45
		L995.68,471.54z"/>
	<path class="st11" d="M1001.32,466.08c-0.05-0.33,0.21-0.67,0.54-0.72l0.97-0.14c0.27-0.04,0.49,0.1,0.59,0.32l0.56,1.08
		c0.2-0.3,1.73-2.15,4.4-2.53c4.06-0.58,5.97,2.07,6.46,5.54l0.95,6.69c0.05,0.33-0.21,0.68-0.54,0.72l-1.9,0.27
		c-0.37,0.05-0.68-0.21-0.72-0.54l-0.97-6.83c-0.3-2.13-1.5-3.15-3.23-2.9c-2.1,0.3-3.31,2.03-3.41,2.52l1.15,8.12
		c0.06,0.43-0.11,0.66-0.68,0.74l-1.73,0.25c-0.33,0.05-0.67-0.21-0.72-0.54L1001.32,466.08z"/>
</g>
<g>
	<path class="st11" d="M936.64,529.61l-4.1-13.09c-0.12-0.5,0.29-0.93,0.81-0.77l2.37,0.75c0.26,0.08,0.37,0.29,0.42,0.45l3.2,10.02
		l8.4-6.33c0.14-0.1,0.38-0.2,0.6-0.13l2.4,0.76c0.51,0.16,0.61,0.76,0.22,1.09l-10.99,8.26l-3.25,10.22
		c-0.1,0.32-0.48,0.52-0.8,0.42l-2.12-0.67c-0.35-0.11-0.52-0.48-0.42-0.8L936.64,529.61z"/>
	<path class="st11" d="M949.89,536.79c1.35,0.43,2.41,1.19,2.41,1.19c0.67-2.01,0.54-2.93-1.09-3.45c-1.47-0.47-3.04-0.54-3.77-0.56
		c-0.41-0.03-0.56-0.35-0.54-0.74l0.12-1.27c0.04-0.45,0.33-0.6,0.65-0.6c0.25-0.02,2.28-0.08,4.66,0.67
		c4.1,1.3,3.69,3.93,2.67,7.13l-2.17,6.83c-0.1,0.32-0.48,0.52-0.8,0.42l-0.9-0.29c-0.29-0.09-0.38-0.26-0.4-0.62l-0.04-0.97
		c-0.92,0.45-2.48,1.01-4.46,0.38c-2.4-0.76-3.62-2.95-2.77-5.61C944.19,536.95,946.62,535.75,949.89,536.79z M947.55,542.82
		c1.28,0.41,2.81-0.17,3.39-0.69l0.65-2.05c-0.15-0.19-0.93-0.86-2.08-1.23c-1.54-0.49-2.85-0.02-3.27,1.29
		C945.88,541.3,946.36,542.44,947.55,542.82z"/>
	<path class="st11" d="M960.56,535.66c0.1-0.32,0.48-0.52,0.8-0.42l0.93,0.3c0.26,0.08,0.4,0.3,0.39,0.55l0.04,1.21
		c0.31-0.18,2.49-1.18,5.06-0.37c3.91,1.24,4.48,4.46,3.42,7.79l-2.05,6.44c-0.1,0.32-0.48,0.52-0.8,0.42l-1.83-0.58
		c-0.35-0.11-0.52-0.48-0.42-0.8l2.09-6.57c0.65-2.05,0.02-3.49-1.65-4.02c-2.02-0.64-3.87,0.39-4.17,0.79l-2.49,7.82
		c-0.13,0.42-0.39,0.55-0.93,0.37l-1.67-0.53c-0.32-0.1-0.52-0.48-0.42-0.8L960.56,535.66z"/>
	<path class="st11" d="M975.36,548.94c0,0-0.62-1.5,0-3.42c0.95-2.98,4.03-4.9,7.3-3.86l5.61,1.78c0.35,0.11,0.53,0.45,0.42,0.8
		l-0.25,0.8c-0.07,0.22-0.29,0.47-0.53,0.43l-1.92-0.08c0,0,1.05,1.46,0.29,3.87c-0.87,2.72-3.78,4.55-7.11,3.49
		c-1.63-0.52-2.37-1.32-2.62-1.4c-0.22-0.07-1.49,0.13-1.81,1.15c-0.23,0.74,0.16,1.5,1.12,1.8l4.36,1.39
		c2.79,0.89,4.55,3.11,3.67,5.89c-0.9,2.82-4.26,4.51-8.52,3.15c-4.52-1.44-5.61-4.33-4.95-6.41c0.61-1.92,2.47-2.32,2.85-2.41
		l0.03-0.1c-0.61-0.41-2.04-1.81-1.35-3.96C972.7,549.4,975.36,548.94,975.36,548.94z M976.15,562.11c1.95,0.62,3.97,0.17,4.46-1.37
		c0.16-0.51,0.26-1.93-1.82-2.59c-0.93-0.3-1.89-0.6-2.84-0.83c-0.21,0-1.95,0.02-2.41,1.46
		C973.12,560.09,974.19,561.49,976.15,562.11z M983.6,548.21c0.55-1.73-0.15-3.29-1.75-3.8c-1.64-0.52-3.21,0.32-3.76,2.05
		c-0.55,1.73,0.25,3.33,1.88,3.85C981.57,550.81,983.05,549.94,983.6,548.21z"/>
</g>
<g>
	<path class="st12" d="M548.27,367.77h-14.68c-1.06,0-1.82-0.86-1.82-1.82v-7.87c0-0.96,0.77-1.82,1.82-1.82h41.93
		c1.06,0,1.82,0.86,1.82,1.82v7.87c0,0.96-0.77,1.82-1.82,1.82h-14.68v53.83c0,0.96-0.86,1.82-1.82,1.82h-8.92
		c-0.96,0-1.82-0.86-1.82-1.82V367.77z"/>
	<path class="st12" d="M578.68,386.86c0-1.06,0.86-1.82,1.82-1.82h3.65c0.86,0,1.44,0.48,1.73,1.25l1.34,3.74
		c1.34-1.92,4.89-5.95,10.84-5.95c4.51,0,8.54,1.44,7.39,3.84l-3.55,6.24c-0.48,0.86-1.44,1.25-2.21,0.86
		c-0.29-0.1-1.73-0.58-2.78-0.58c-3.84,0-6.14,2.59-6.81,3.93v23.22c0,1.34-0.86,1.82-2.21,1.82h-7.39c-0.96,0-1.82-0.86-1.82-1.82
		V386.86z"/>
	<path class="st12" d="M610.73,386.86c0-1.06,0.86-1.82,1.82-1.82h7.87c0.96,0,1.82,0.77,1.82,1.82v18.9c0,5.08,2.59,8.25,7,8.25
		c4.03,0,7.1-3.74,7.68-7.2v-19.96c0-1.44,0.58-1.82,2.11-1.82h7.29c0.96,0,1.82,0.77,1.82,1.82v34.73c0,0.96-0.86,1.82-1.82,1.82
		h-3.55c-0.96,0-1.54-0.67-1.82-1.44l-1.15-3.17c-1.73,1.54-5.28,5.56-12.86,5.56c-11.9,0-16.22-9.11-16.22-18.9V386.86z"/>
	<path class="st12" d="M659.66,386.86c0-1.06,0.86-1.82,1.82-1.82h3.55c0.86,0,1.44,0.48,1.63,1.06l1.34,3.65
		c1.63-1.82,6.04-5.66,12.86-5.66c5.47,0,9.31,2.11,12.47,5.95c1.63-1.73,6.62-5.95,13.53-5.95c12.28,0,16.79,9.11,16.79,19.19
		v18.33c0,0.96-0.77,1.82-1.82,1.82h-7.77c-1.06,0-1.82-0.86-1.82-1.82v-19c0-4.99-2.4-8.16-7.2-8.16c-5.56,0-8.06,4.03-8.06,4.03
		s0.1,1.92,0.1,3.65v19.48c0,0.96-0.86,1.82-1.82,1.82h-7.2c-1.06,0-1.82-0.86-1.82-1.82v-19c0-4.99-2.21-8.16-7.1-8.16
		c-4.8,0-7.1,3.45-8.06,6.04v21.11c0,0.96-0.86,1.82-1.82,1.82h-7.77c-0.96,0-1.82-0.86-1.82-1.82V386.86z"/>
	<path class="st12" d="M746.21,450.38c0,1.15-0.58,1.82-2.3,1.82h-7.68c-0.96,0-1.82-0.86-1.82-1.82v-63.52
		c0-1.06,0.86-1.82,1.82-1.82h3.74c0.67,0,1.34,0.38,1.63,1.15l1.25,3.17c1.44-1.92,6.14-5.28,12.38-5.28
		c10.55,0,18.52,9.11,18.52,20.15c0,11.32-8.63,20.15-19,20.15c-3.74,0-7.2-1.34-8.54-2.11V450.38z M753.21,414.02
		c5.37,0,9.31-4.41,9.31-9.79s-3.65-9.79-8.92-9.79c-4.89,0-7.29,3.84-7.87,5.85v11.51C745.73,411.81,748.41,414.02,753.21,414.02z"
		/>
</g>
</svg>
