<?xml version="1.0" encoding="utf-8"?>
<!-- Generator: Adobe Illustrator 24.0.1, SVG Export Plug-In . SVG Version: 6.00 Build 0)  -->
<svg version="1.1" id="Layer_1" xmlns="http://www.w3.org/2000/svg" xmlns:xlink="http://www.w3.org/1999/xlink" x="0px" y="0px"
	 viewBox="0 0 959 593" style="enable-background:new 0 0 959 593;" xml:space="preserve">
<style type="text/css">
	.st0{fill:#D3D3D3;}
	.st1{fill:#FFFFFF;}
	.st2{fill:#00AEF3;}
	.st3{fill:#00FF90;}
	.st4{fill:#00B050;}
	.st5{fill:#006541;}
	.st6{fill:#36AEFF;}
	.st7{fill:#0077FF;}
	.st8{fill:#002E66;}
	.st9{fill:#E7B5FF;}
	.st10{fill:#B722FF;}
	.st11{fill:#800080;}
</style>
<g>
	<path d="M34.1,85.68c4.99-6.04,14.5-18.43,19.56-25.15c2.34-2.87,3.85-5.82,3.85-8.38c0-3.4-2.57-6.87-8.01-6.87
		c-3.63,0-6.72,2.57-8.46,4.46c-0.6,0.6-1.44,0.6-2.04,0l-3.63-3.63c-0.45-0.45-0.6-1.36-0.08-1.96c0,0,5.89-7.4,14.88-7.4
		c10.8,0,16.84,6.87,16.84,15.03c0,4.91-2.11,8.01-5.06,12.24c-3.25,4.61-8.99,11.71-12.99,16.77H65.3c0.76,0,1.44,0.68,1.44,1.44
		v5.21c0,0.76-0.68,1.44-1.44,1.44H35.54c-0.83,0-1.44-0.68-1.44-1.44V85.68z"/>
	<path d="M75.49,63.18c0-16.54,6.95-26.44,19.03-26.44s19.03,9.89,19.03,26.44c0,16.54-6.95,26.44-19.03,26.44
		S75.49,79.72,75.49,63.18z M103.67,63.18c0-11.18-3.32-17.52-9.14-17.52S85.39,52,85.39,63.18c0,11.25,3.32,17.52,9.14,17.52
		S103.67,74.43,103.67,63.18z"/>
	<path d="M120.13,85.68c4.99-6.04,14.5-18.43,19.56-25.15c2.34-2.87,3.85-5.82,3.85-8.38c0-3.4-2.57-6.87-8.01-6.87
		c-3.63,0-6.72,2.57-8.46,4.46c-0.6,0.6-1.44,0.6-2.04,0l-3.63-3.63c-0.45-0.45-0.6-1.36-0.08-1.96c0,0,5.89-7.4,14.88-7.4
		c10.8,0,16.84,6.87,16.84,15.03c0,4.91-2.11,8.01-5.06,12.24c-3.25,4.61-8.99,11.71-12.99,16.77h16.31c0.76,0,1.44,0.68,1.44,1.44
		v5.21c0,0.76-0.68,1.44-1.44,1.44h-29.76c-0.83,0-1.44-0.68-1.44-1.44V85.68z"/>
	<path d="M161.52,63.18c0-16.54,6.95-26.44,19.03-26.44s19.03,9.89,19.03,26.44c0,16.54-6.95,26.44-19.03,26.44
		S161.52,79.72,161.52,63.18z M189.69,63.18c0-11.18-3.32-17.52-9.14-17.52s-9.14,6.34-9.14,17.52c0,11.25,3.32,17.52,9.14,17.52
		S189.69,74.43,189.69,63.18z"/>
	<path d="M227.75,37.42c0-0.76,0.6-1.44,1.36-1.44h17.9c14.58,0,26.51,11.86,26.51,26.36c0,14.65-11.93,26.51-26.51,26.51h-17.9
		c-0.76,0-1.36-0.68-1.36-1.44V37.42z M246.11,79.64c9.82,0,16.99-7.4,16.99-17.3c0-9.82-7.18-17.22-16.99-17.22h-8.61v34.52H246.11
		z"/>
	<path d="M293.23,57.89c7.78,0,14.12,5.89,14.12,14.05c0,0.53-0.08,1.51-0.15,2.04c-0.08,0.75-0.76,1.28-1.44,1.28h-19.34
		c0.23,3.1,2.87,6.57,7.25,6.57c2.34,0,4.53-0.91,5.89-1.89c0.75-0.45,1.44-0.6,1.96,0l3.1,3.55c0.53,0.53,0.68,1.36-0.08,1.96
		c-2.49,2.34-6.34,4.15-11.25,4.15c-9.06,0-15.48-7.18-15.48-15.86C277.83,65.22,284.25,57.89,293.23,57.89z M298.52,69.97
		c-0.23-2.79-2.64-5.14-5.51-5.14c-3.02,0-5.51,2.27-5.89,5.14H298.52z"/>
	<path d="M313.7,60.08c0-0.83,0.68-1.44,1.44-1.44h2.79c0.68,0,1.13,0.38,1.28,0.83l1.06,2.87c1.28-1.44,4.76-4.46,10.12-4.46
		c4.31,0,7.33,1.66,9.82,4.68c1.28-1.36,5.21-4.68,10.65-4.68c9.67,0,13.22,7.18,13.22,15.11v14.43c0,0.76-0.6,1.44-1.44,1.44h-6.12
		c-0.83,0-1.44-0.68-1.44-1.44V72.47c0-3.93-1.89-6.42-5.67-6.42c-4.38,0-6.34,3.17-6.34,3.17s0.08,1.51,0.08,2.87v15.33
		c0,0.76-0.68,1.44-1.44,1.44h-5.66c-0.83,0-1.44-0.68-1.44-1.44V72.47c0-3.93-1.74-6.42-5.59-6.42c-3.78,0-5.59,2.72-6.34,4.76
		v16.62c0,0.76-0.68,1.44-1.44,1.44h-6.12c-0.76,0-1.44-0.68-1.44-1.44V60.08z"/>
	<path d="M385.68,57.89c8.54,0,15.48,7.25,15.48,15.79c0,8.69-6.95,15.94-15.48,15.94s-15.48-7.25-15.48-15.94
		C370.19,65.14,377.14,57.89,385.68,57.89z M385.68,81.46c4,0,7.25-3.47,7.25-7.78c0-4.23-3.25-7.63-7.25-7.63
		c-4.08,0-7.25,3.4-7.25,7.63C378.43,77.98,381.6,81.46,385.68,81.46z"/>
	<path d="M421.63,57.89c4.68,0,8.31,1.89,11.18,5.36c0.53,0.68,0.38,1.59-0.38,2.11l-3.47,3.32c-0.68,0.6-1.36,0.23-1.89-0.23
		c-1.21-1.36-3.1-2.42-5.21-2.42c-4.08,0-7.4,3.47-7.4,7.7c0,4.31,3.25,7.7,7.33,7.7c3.25,0,4.68-1.59,6.04-2.87
		c0.53-0.53,1.28-0.68,1.89-0.23l3.25,2.79c0.76,0.6,1.06,1.36,0.53,2.11c-2.57,4-6.57,6.34-11.93,6.34
		c-8.54,0-16.01-6.8-16.01-15.86C405.54,64.84,413.17,57.89,421.63,57.89z"/>
	<path d="M440.05,60.08c0-0.83,0.68-1.44,1.44-1.44h2.87c0.68,0,1.13,0.38,1.36,0.98l1.06,2.95c1.06-1.51,3.85-4.68,8.54-4.68
		c3.55,0,6.72,1.13,5.82,3.02l-2.79,4.91c-0.38,0.68-1.13,0.98-1.74,0.68c-0.23-0.08-1.36-0.45-2.19-0.45
		c-3.02,0-4.83,2.04-5.36,3.1v18.28c0,1.06-0.68,1.44-1.74,1.44h-5.82c-0.76,0-1.44-0.68-1.44-1.44V60.08z"/>
	<path d="M475.7,69.75c3.02,0,5.51,0.83,5.51,0.83c0.08-3.85-1.13-5.21-3.93-5.21s-6.72,0.6-8.46,1.13
		c-1.06,0.3-1.59-0.38-1.74-1.36l-0.68-3.93c-0.23-1.13,0.38-1.66,1.06-1.89c0.6-0.23,5.44-1.44,10.27-1.44
		c9.44,0,11.63,4.91,11.63,13.14v16.39c0,0.76-0.68,1.44-1.43,1.44h-2.72c-0.53,0-0.91-0.23-1.28-1.06l-0.91-2.04
		c-1.74,1.59-4.53,3.85-9.21,3.85c-6.04,0-10.2-3.93-10.2-10.35C463.62,73.9,468,69.75,475.7,69.75z M475.85,83.19
		c2.42,0,4.76-2.04,5.21-2.95v-4.15c0,0-2.04-0.91-4.23-0.91c-2.95,0-4.91,1.66-4.91,4.08C471.93,81.53,473.51,83.19,475.85,83.19z"
		/>
	<path d="M499.64,66.58h-2.57c-0.76,0-1.36-0.68-1.36-1.44v-5.06c0-0.83,0.6-1.44,1.36-1.44h2.57v-8.38c0-0.76,0.68-1.44,1.43-1.44
		l6.19-0.08c0.76,0,1.36,0.68,1.36,1.44v8.46h6.65c0.83,0,1.43,0.6,1.43,1.44v5.06c0,0.76-0.6,1.44-1.43,1.44h-6.65v12.08
		c0,2.11,1.13,2.42,2.34,2.42c1.28,0,2.87-0.53,3.7-0.83c0.83-0.3,1.43,0.08,1.66,0.83l1.51,4.76c0.3,0.75-0.08,1.51-0.83,1.81
		c-0.38,0.23-5.29,1.96-8.99,1.96c-5.82,0-8.38-3.63-8.38-9.74V66.58z"/>
	<path d="M523.43,42.71c0-2.87,2.27-5.21,5.14-5.21c2.95,0,5.29,2.34,5.29,5.21s-2.34,5.21-5.29,5.21
		C525.7,47.92,523.43,45.58,523.43,42.71z M524.11,60.08c0-0.83,0.68-1.44,1.43-1.44h6.27c0.75,0,1.43,0.6,1.43,1.44v27.34
		c0,0.76-0.68,1.44-1.43,1.44h-6.27c-0.75,0-1.43-0.68-1.43-1.44V60.08z"/>
	<path d="M556.06,57.89c4.68,0,8.31,1.89,11.18,5.36c0.53,0.68,0.38,1.59-0.38,2.11l-3.47,3.32c-0.68,0.6-1.36,0.23-1.89-0.23
		c-1.21-1.36-3.1-2.42-5.21-2.42c-4.08,0-7.4,3.47-7.4,7.7c0,4.31,3.25,7.7,7.33,7.7c3.25,0,4.68-1.59,6.04-2.87
		c0.53-0.53,1.28-0.68,1.89-0.23l3.25,2.79c0.75,0.6,1.06,1.36,0.53,2.11c-2.57,4-6.57,6.34-11.93,6.34
		c-8.54,0-16.01-6.8-16.01-15.86C539.97,64.84,547.6,57.89,556.06,57.89z"/>
	<path d="M593.52,37.42c0-0.76,0.6-1.44,1.44-1.44h17.75c9.29,0,16.92,7.55,16.92,16.69c0,9.37-7.63,16.99-16.84,16.99h-9.44v17.75
		c0,0.76-0.68,1.44-1.44,1.44h-6.95c-0.83,0-1.44-0.68-1.44-1.44V37.42z M612.1,60.46c4.23,0,7.78-3.4,7.78-7.85
		c0-4.15-3.55-7.33-7.78-7.33h-8.76v15.18H612.1z"/>
	<path d="M633.85,60.08c0-0.83,0.68-1.44,1.43-1.44h2.87c0.68,0,1.13,0.38,1.36,0.98l1.06,2.95c1.06-1.51,3.85-4.68,8.54-4.68
		c3.55,0,6.72,1.13,5.82,3.02l-2.79,4.91c-0.38,0.68-1.13,0.98-1.74,0.68c-0.23-0.08-1.36-0.45-2.19-0.45
		c-3.02,0-4.83,2.04-5.36,3.1v18.28c0,1.06-0.68,1.44-1.74,1.44h-5.82c-0.75,0-1.43-0.68-1.43-1.44V60.08z"/>
	<path d="M658.92,42.71c0-2.87,2.27-5.21,5.14-5.21c2.95,0,5.29,2.34,5.29,5.21s-2.34,5.21-5.29,5.21
		C661.19,47.92,658.92,45.58,658.92,42.71z M659.6,60.08c0-0.83,0.68-1.44,1.43-1.44h6.27c0.75,0,1.43,0.6,1.43,1.44v27.34
		c0,0.76-0.68,1.44-1.43,1.44h-6.27c-0.75,0-1.43-0.68-1.43-1.44V60.08z"/>
	<path d="M677.8,60.08c0-0.83,0.68-1.44,1.43-1.44h2.79c0.68,0,1.13,0.38,1.28,0.83l1.06,2.87c1.28-1.44,4.76-4.46,10.12-4.46
		c4.3,0,7.33,1.66,9.82,4.68c1.28-1.36,5.21-4.68,10.65-4.68c9.67,0,13.22,7.18,13.22,15.11v14.43c0,0.76-0.6,1.44-1.44,1.44h-6.12
		c-0.83,0-1.44-0.68-1.44-1.44V72.47c0-3.93-1.89-6.42-5.67-6.42c-4.38,0-6.34,3.17-6.34,3.17s0.08,1.51,0.08,2.87v15.33
		c0,0.76-0.68,1.44-1.44,1.44h-5.67c-0.83,0-1.43-0.68-1.43-1.44V72.47c0-3.93-1.74-6.42-5.59-6.42c-3.78,0-5.59,2.72-6.34,4.76
		v16.62c0,0.76-0.68,1.44-1.44,1.44h-6.12c-0.75,0-1.43-0.68-1.43-1.44V60.08z"/>
	<path d="M746.53,69.75c3.02,0,5.51,0.83,5.51,0.83c0.08-3.85-1.13-5.21-3.93-5.21s-6.72,0.6-8.46,1.13
		c-1.06,0.3-1.59-0.38-1.74-1.36l-0.68-3.93c-0.23-1.13,0.38-1.66,1.06-1.89c0.6-0.23,5.44-1.44,10.27-1.44
		c9.44,0,11.63,4.91,11.63,13.14v16.39c0,0.76-0.68,1.44-1.44,1.44h-2.72c-0.53,0-0.91-0.23-1.28-1.06l-0.91-2.04
		c-1.74,1.59-4.53,3.85-9.21,3.85c-6.04,0-10.2-3.93-10.2-10.35C734.45,73.9,738.83,69.75,746.53,69.75z M746.68,83.19
		c2.42,0,4.76-2.04,5.21-2.95v-4.15c0,0-2.04-0.91-4.23-0.91c-2.95,0-4.91,1.66-4.91,4.08C742.75,81.53,744.34,83.19,746.68,83.19z"
		/>
	<path d="M768.89,60.08c0-0.83,0.68-1.44,1.43-1.44h2.87c0.68,0,1.13,0.38,1.36,0.98l1.06,2.95c1.06-1.51,3.85-4.68,8.54-4.68
		c3.55,0,6.72,1.13,5.82,3.02l-2.79,4.91c-0.38,0.68-1.13,0.98-1.74,0.68c-0.23-0.08-1.36-0.45-2.19-0.45
		c-3.02,0-4.83,2.04-5.36,3.1v18.28c0,1.06-0.68,1.44-1.74,1.44h-5.82c-0.75,0-1.43-0.68-1.43-1.44V60.08z"/>
	<path d="M792,60.61c-0.45-0.98,0.15-1.96,1.28-1.96h6.8c0.68,0,1.06,0.38,1.28,0.83l7.63,17.07h0.08l7.55-17.07
		c0.38-0.76,0.91-0.83,1.81-0.83h6.04c1.21,0,1.81,0.98,1.28,1.96l-23.11,50c-0.23,0.45-0.68,0.91-1.28,0.91h-6.5
		c-1.13,0-1.81-0.98-1.28-2.04l10.73-22.73L792,60.61z"/>
	<path d="M38.64,128.05c0-0.76,0.6-1.44,1.44-1.44h30.74c0.83,0,1.44,0.68,1.44,1.44v6.19c0,0.76-0.6,1.44-1.44,1.44H48.46v14.2
		h18.66c0.76,0,1.44,0.68,1.44,1.44v6.19c0,0.76-0.68,1.44-1.44,1.44H48.46v19.11c0,0.76-0.68,1.44-1.44,1.44h-6.95
		c-0.83,0-1.44-0.68-1.44-1.44V128.05z"/>
	<path d="M89.39,148.52c8.54,0,15.48,7.25,15.48,15.79c0,8.69-6.95,15.94-15.48,15.94s-15.48-7.25-15.48-15.94
		C73.91,155.77,80.86,148.52,89.39,148.52z M89.39,172.09c4,0,7.25-3.47,7.25-7.78c0-4.23-3.25-7.63-7.25-7.63
		c-4.08,0-7.25,3.4-7.25,7.63C82.14,168.61,85.31,172.09,89.39,172.09z"/>
	<path d="M111.59,150.71c0-0.83,0.68-1.44,1.44-1.44h2.87c0.68,0,1.13,0.38,1.36,0.98l1.06,2.95c1.06-1.51,3.85-4.68,8.54-4.68
		c3.55,0,6.72,1.13,5.82,3.02l-2.79,4.91c-0.38,0.68-1.13,0.98-1.74,0.68c-0.23-0.08-1.36-0.45-2.19-0.45
		c-3.02,0-4.83,2.04-5.36,3.1v18.28c0,1.06-0.68,1.44-1.74,1.44h-5.82c-0.76,0-1.44-0.68-1.44-1.44V150.71z"/>
	<path d="M150.27,148.52c7.78,0,14.12,5.89,14.12,14.05c0,0.53-0.08,1.51-0.15,2.04c-0.08,0.75-0.76,1.28-1.44,1.28h-19.34
		c0.23,3.1,2.87,6.57,7.25,6.57c2.34,0,4.53-0.91,5.89-1.89c0.76-0.45,1.44-0.6,1.96,0l3.1,3.55c0.53,0.53,0.68,1.36-0.08,1.96
		c-2.49,2.34-6.34,4.15-11.25,4.15c-9.06,0-15.48-7.18-15.48-15.86C134.86,155.85,141.28,148.52,150.27,148.52z M155.55,160.61
		c-0.23-2.79-2.64-5.14-5.51-5.14c-3.02,0-5.51,2.27-5.89,5.14H155.55z"/>
	<path d="M184.48,148.52c4.68,0,8.31,1.89,11.18,5.36c0.53,0.68,0.38,1.59-0.38,2.11l-3.47,3.32c-0.68,0.6-1.36,0.23-1.89-0.23
		c-1.21-1.36-3.1-2.42-5.21-2.42c-4.08,0-7.4,3.47-7.4,7.7c0,4.31,3.25,7.7,7.33,7.7c3.25,0,4.68-1.59,6.04-2.87
		c0.53-0.53,1.28-0.68,1.89-0.23l3.25,2.79c0.75,0.6,1.06,1.36,0.53,2.11c-2.57,4-6.57,6.34-11.93,6.34
		c-8.54,0-16.01-6.8-16.01-15.86C168.39,155.47,176.02,148.52,184.48,148.52z"/>
	<path d="M212.8,160.38c3.02,0,5.51,0.83,5.51,0.83c0.08-3.85-1.13-5.21-3.93-5.21c-2.79,0-6.72,0.6-8.46,1.13
		c-1.06,0.3-1.59-0.38-1.74-1.36l-0.68-3.93c-0.23-1.13,0.38-1.66,1.06-1.89c0.6-0.23,5.44-1.44,10.27-1.44
		c9.44,0,11.63,4.91,11.63,13.14v16.39c0,0.76-0.68,1.44-1.44,1.44h-2.72c-0.53,0-0.91-0.23-1.28-1.06l-0.91-2.04
		c-1.74,1.59-4.53,3.85-9.21,3.85c-6.04,0-10.2-3.93-10.2-10.35C200.71,164.53,205.1,160.38,212.8,160.38z M212.95,173.82
		c2.42,0,4.76-2.04,5.21-2.95v-4.15c0,0-2.04-0.91-4.23-0.91c-2.95,0-4.91,1.66-4.91,4.08
		C209.02,172.16,210.61,173.82,212.95,173.82z"/>
	<path d="M233.49,175.86l2.04-4.08c0.3-0.76,1.06-0.91,1.74-0.53c0,0,3.4,1.81,6.87,1.81c1.51,0,2.57-0.6,2.57-1.89
		c0-1.36-1.06-2.19-5.06-3.78c-5.82-2.27-8.53-5.36-8.53-9.97s3.4-8.91,11.1-8.91c4.46,0,7.7,1.28,9.29,2.34
		c0.68,0.45,1.06,1.28,0.68,2.04l-1.89,3.85c-0.38,0.68-1.21,0.76-1.81,0.53c0,0-3.4-1.59-6.27-1.59c-1.81,0-2.57,0.76-2.57,1.74
		c0,1.36,1.36,1.81,4.15,2.95c5.82,2.27,10.2,4.76,10.2,10.65c0,4.98-4.38,9.21-12.01,9.21c-4.99,0-8.46-1.59-10.05-2.79
		C233.49,177.07,233.19,176.47,233.49,175.86z"/>
	<path d="M264.23,157.21h-2.57c-0.76,0-1.36-0.68-1.36-1.44v-5.06c0-0.83,0.6-1.44,1.36-1.44h2.57v-8.38c0-0.76,0.68-1.44,1.44-1.44
		l6.19-0.08c0.76,0,1.36,0.68,1.36,1.44v8.46h6.65c0.83,0,1.44,0.6,1.44,1.44v5.06c0,0.76-0.6,1.44-1.44,1.44h-6.65v12.08
		c0,2.11,1.13,2.42,2.34,2.42c1.28,0,2.87-0.53,3.7-0.83c0.83-0.3,1.44,0.08,1.66,0.83l1.51,4.76c0.3,0.76-0.08,1.51-0.83,1.81
		c-0.38,0.23-5.29,1.96-8.99,1.96c-5.82,0-8.38-3.63-8.38-9.74V157.21z"/>
</g>
<path id="WI" class="st0" d="M425.72,129.7l13.49,2.33l13.49-2.79l34.42-14.88l13.49-8.84l9.77-3.72l8.84,6.98l-5.12,5.12
	l-8.84,14.42l-2.79,8.84l4.65,2.79l8.37-4.65l5.12-0.93l12.56,3.72l2.79,5.12l5.12,0.93l2.79-5.12l18.6,24.65l38.14,5.58
	l38.14,10.23l12.09,5.12l57.21,12.09l7.44,10.7l16.74,5.58l7.91,47.44l7.44,6.51l6.98,4.19l-5.12,10.7l-8.37,7.44l-9.77,21.86
	l-6.05,11.16l0.93,8.37l6.98,1.4l5.12-8.84l6.98-3.72l3.72-10.7l8.84-8.37l12.56-18.6l19.53-29.3l3.72-2.33l1.4,4.65l-0.93,10.7
	l-13.49,31.63l-12.56,26.51l-2.33,14.88l-2.79,12.09l3.72,6.05l-0.93,12.56l-8.84,11.16l-2.33,8.37l2.79,16.74l2.79,15.81
	l-6.98,12.09l-3.72,13.49l-4.65,14.42l5.12,11.16l2.79,28.37l7.44,20.93l-0.93,13.95l-73.95,8.37l-81.39,4.65h-59.07l-3.26-6.98
	l-13.49-1.86l-12.09-6.05l-10.7-17.21l-1.4-16.74l9.3-13.49l-2.33-6.51l-9.77-10.23l-3.72-15.35l-2.79-31.63l-9.77-11.63
	l-32.56-20.93l-17.67-25.11l-15.81-4.65l-10.23-13.02h-14.88l-13.49-15.35l-2.33-30.23l0.46-17.67l6.98-14.42l-3.72-14.88
	l-11.63-13.02l8.37-25.11L402.47,199l7.44-8.84l-0.93-37.67l0.93-13.02l11.16-13.02L425.72,129.7z">
<title>Wisconsin</title>
</path>
<g>
	<circle class="st1" cx="721.26" cy="498.7" r="85.99"/>
	<path class="st2" d="M721.26,408.69c-48.53,0-88,39.48-88,88c0,48.52,39.47,88,88,88c48.52,0,88-39.48,88-88
		C809.27,448.17,769.79,408.69,721.26,408.69L721.26,408.69z M721.26,431.29c36.06,0,65.39,29.34,65.39,65.4
		c0,36.06-29.34,65.39-65.39,65.39c-36.06,0-65.4-29.33-65.4-65.39C655.86,460.64,685.2,431.29,721.26,431.29L721.26,431.29z
		 M692.15,460.74v71.9h27.33c25.88,0,40.98-15.41,40.98-36.16v-0.2c0-20.75-14.89-35.54-40.57-35.54L692.15,460.74L692.15,460.74z
		 M712.08,478.41h8.11c11.91,0,19.82,6.67,19.82,18.18v0.21c0,11.61-7.91,18.18-19.82,18.18h-8.11V478.41L712.08,478.41z"/>
</g>
<g>
	<path d="M472.4,244.4c0-0.5,0.4-0.96,0.96-0.96h14.43c6.05,0,11,4.84,11,10.85c0,4.64-3.08,8.42-7.47,10.19l6.91,12.81
		c0.35,0.66,0,1.46-0.86,1.46h-5.3c-0.45,0-0.71-0.25-0.81-0.45l-6.71-13.37h-5.6v12.86c0,0.5-0.45,0.96-0.96,0.96h-4.64
		c-0.55,0-0.96-0.45-0.96-0.96V244.4z M487.24,259.54c2.67,0,4.99-2.32,4.99-5.15c0-2.67-2.32-4.89-4.99-4.89h-8.22v10.04H487.24z"
		/>
	<path d="M509.78,265.99c2.02,0,3.68,0.55,3.68,0.55c0.05-2.57-0.76-3.48-2.62-3.48s-4.49,0.4-5.65,0.76
		c-0.71,0.2-1.06-0.25-1.16-0.91l-0.45-2.62c-0.15-0.76,0.25-1.11,0.71-1.26c0.4-0.15,3.63-0.96,6.86-0.96
		c6.31,0,7.77,3.28,7.77,8.78v10.95c0,0.5-0.45,0.96-0.96,0.96h-1.82c-0.35,0-0.61-0.15-0.86-0.71l-0.61-1.36
		c-1.16,1.06-3.03,2.57-6.15,2.57c-4.04,0-6.81-2.62-6.81-6.91C501.71,268.77,504.63,265.99,509.78,265.99z M509.88,274.97
		c1.61,0,3.18-1.36,3.48-1.97v-2.77c0,0-1.36-0.61-2.83-0.61c-1.97,0-3.28,1.11-3.28,2.72
		C507.26,273.86,508.32,274.97,509.88,274.97z"/>
	<path d="M533.89,258.07c3.13,0,5.55,1.26,7.47,3.58c0.35,0.45,0.25,1.06-0.25,1.41l-2.32,2.22c-0.45,0.4-0.91,0.15-1.26-0.15
		c-0.81-0.91-2.07-1.61-3.48-1.61c-2.72,0-4.94,2.32-4.94,5.15c0,2.88,2.17,5.15,4.89,5.15c2.17,0,3.13-1.06,4.04-1.92
		c0.35-0.35,0.86-0.45,1.26-0.15l2.17,1.87c0.5,0.4,0.71,0.91,0.35,1.41c-1.71,2.67-4.39,4.24-7.97,4.24
		c-5.7,0-10.69-4.54-10.69-10.59C523.14,262.71,528.24,258.07,533.89,258.07z"/>
	<path d="M554.97,258.07c5.2,0,9.43,3.93,9.43,9.38c0,0.35-0.05,1.01-0.1,1.36c-0.05,0.5-0.5,0.86-0.96,0.86h-12.91
		c0.15,2.07,1.92,4.39,4.84,4.39c1.56,0,3.03-0.61,3.93-1.26c0.5-0.3,0.96-0.4,1.31,0l2.07,2.37c0.35,0.35,0.45,0.91-0.05,1.31
		c-1.67,1.56-4.24,2.78-7.52,2.78c-6.05,0-10.34-4.79-10.34-10.59C544.68,262.97,548.97,258.07,554.97,258.07z M558.5,266.15
		c-0.15-1.87-1.77-3.43-3.68-3.43c-2.02,0-3.68,1.51-3.93,3.43H558.5z"/>
	<path d="M580.84,263.88h-1.71c-0.5,0-0.91-0.45-0.91-0.96v-3.38c0-0.55,0.4-0.96,0.91-0.96h1.71v-5.6c0-0.5,0.45-0.96,0.96-0.96
		l4.14-0.05c0.5,0,0.91,0.45,0.91,0.96v5.65h4.44c0.55,0,0.96,0.4,0.96,0.96v3.38c0,0.5-0.4,0.96-0.96,0.96h-4.44v8.07
		c0,1.41,0.76,1.61,1.56,1.61c0.86,0,1.92-0.35,2.47-0.55c0.55-0.2,0.96,0.05,1.11,0.55l1.01,3.18c0.2,0.5-0.05,1.01-0.56,1.21
		c-0.25,0.15-3.53,1.31-6,1.31c-3.88,0-5.6-2.42-5.6-6.51V263.88z"/>
	<path d="M605.96,258.07c5.7,0,10.34,4.84,10.34,10.54c0,5.8-4.64,10.64-10.34,10.64s-10.34-4.84-10.34-10.64
		C595.62,262.92,600.26,258.07,605.96,258.07z M605.96,273.81c2.67,0,4.84-2.32,4.84-5.2c0-2.83-2.17-5.09-4.84-5.09
		c-2.72,0-4.84,2.27-4.84,5.09C601.12,271.49,603.24,273.81,605.96,273.81z"/>
	<path d="M476.09,304.22c0.05-0.4,0.35-0.76,0.91-0.76h0.81c0.4,0,0.71,0.2,0.86,0.5l11.1,23.81c0.1,0,0.1,0,0.15,0l11.1-23.81
		c0.15-0.3,0.4-0.5,0.86-0.5h0.81c0.55,0,0.86,0.35,0.91,0.76l5.95,33.9c0.15,0.71-0.25,1.16-0.91,1.16h-4.59
		c-0.45,0-0.86-0.4-0.96-0.76l-2.98-19.12c-0.05,0-0.15,0-0.15,0l-8.83,19.83c-0.1,0.3-0.4,0.56-0.86,0.56h-0.91
		c-0.45,0-0.71-0.25-0.86-0.56l-8.93-19.83c0,0-0.1,0-0.15,0l-2.93,19.12c-0.05,0.35-0.45,0.76-0.91,0.76h-4.54
		c-0.66,0-1.06-0.45-0.96-1.16L476.09,304.22z"/>
	<path d="M513.86,308.46c0-1.92,1.51-3.48,3.43-3.48c1.97,0,3.53,1.56,3.53,3.48s-1.56,3.48-3.53,3.48
		C515.38,311.94,513.86,310.38,513.86,308.46z M514.32,320.06c0-0.55,0.45-0.96,0.96-0.96h4.19c0.5,0,0.96,0.4,0.96,0.96v18.26
		c0,0.5-0.45,0.96-0.96,0.96h-4.19c-0.5,0-0.96-0.45-0.96-0.96V320.06z"/>
	<path d="M526.47,304.93c0-0.5,0.45-0.96,0.96-0.96h4.24c0.5,0,0.96,0.45,0.96,0.96v33.4c0,0.5-0.45,0.96-0.96,0.96h-4.24
		c-0.5,0-0.96-0.45-0.96-0.96V304.93z"/>
	<path d="M536.56,320.27c-0.3-0.66,0.15-1.16,0.86-1.16h3.63c0.3,0,0.81,0.25,0.91,0.6l3.03,9.03h0.05l5.15-9.69
		c0.1-0.2,0.35-0.45,0.81-0.45h0.4c0.45,0,0.66,0.2,0.81,0.45l5.09,9.69h0.05l3.03-9.03c0.2-0.55,0.61-0.6,1.16-0.6h3.28
		c0.71,0,1.16,0.5,0.91,1.16l-6.31,18.97c-0.1,0.3-0.4,0.56-0.91,0.56h-0.2c-0.4,0-0.66-0.2-0.81-0.45l-6.36-11.75h-0.05
		l-6.31,11.75c-0.15,0.25-0.4,0.45-0.81,0.45h-0.25c-0.45,0-0.76-0.25-0.86-0.56L536.56,320.27z"/>
	<path d="M576.36,326.52c2.02,0,3.68,0.55,3.68,0.55c0.05-2.57-0.76-3.48-2.62-3.48c-1.87,0-4.49,0.4-5.65,0.76
		c-0.71,0.2-1.06-0.25-1.16-0.91l-0.45-2.62c-0.15-0.76,0.25-1.11,0.71-1.26c0.4-0.15,3.63-0.96,6.86-0.96
		c6.31,0,7.77,3.28,7.77,8.78v10.95c0,0.5-0.45,0.96-0.96,0.96h-1.82c-0.35,0-0.61-0.15-0.86-0.71l-0.61-1.36
		c-1.16,1.06-3.03,2.57-6.15,2.57c-4.04,0-6.81-2.62-6.81-6.91C568.29,329.29,571.21,326.52,576.36,326.52z M576.46,335.5
		c1.61,0,3.18-1.36,3.48-1.97v-2.77c0,0-1.36-0.61-2.83-0.61c-1.97,0-3.28,1.11-3.28,2.72C573.84,334.39,574.9,335.5,576.46,335.5z"
		/>
	<path d="M590.93,320.06c0-0.55,0.45-0.96,0.96-0.96h4.14c0.5,0,0.96,0.4,0.96,0.96V330c0,2.67,1.36,4.34,3.68,4.34
		c2.12,0,3.73-1.97,4.04-3.78v-10.49c0-0.76,0.3-0.96,1.11-0.96h3.83c0.5,0,0.96,0.4,0.96,0.96v18.26c0,0.5-0.45,0.96-0.96,0.96
		h-1.87c-0.5,0-0.81-0.35-0.96-0.76l-0.61-1.67c-0.91,0.81-2.77,2.93-6.76,2.93c-6.25,0-8.52-4.79-8.52-9.94V320.06z"/>
	<path d="M616.66,304.93c0-0.5,0.45-0.96,0.96-0.96h4.29c0.5,0,0.96,0.45,0.96,0.96v21.84l6.96-7.06c0.35-0.3,0.71-0.6,1.26-0.6
		h4.59c0.86,0,1.16,0.91,0.66,1.46l-7.52,7.67l8.98,9.64c0.5,0.55,0.2,1.41-0.66,1.41h-5.45c-0.3,0-0.71-0.2-0.86-0.4l-7.97-9.08
		v8.53c0,0.5-0.45,0.96-0.96,0.96h-4.29c-0.5,0-0.96-0.45-0.96-0.96V304.93z"/>
	<path d="M649.7,318.6c5.2,0,9.43,3.93,9.43,9.38c0,0.35-0.05,1.01-0.1,1.36c-0.05,0.5-0.5,0.86-0.96,0.86h-12.91
		c0.15,2.07,1.92,4.39,4.84,4.39c1.56,0,3.03-0.61,3.93-1.26c0.5-0.3,0.96-0.4,1.31,0l2.07,2.37c0.35,0.35,0.45,0.91-0.05,1.31
		c-1.66,1.56-4.24,2.78-7.52,2.78c-6.05,0-10.34-4.79-10.34-10.59C639.4,323.49,643.69,318.6,649.7,318.6z M653.23,326.67
		c-0.15-1.87-1.77-3.43-3.68-3.43c-2.02,0-3.68,1.51-3.93,3.43H653.23z"/>
	<path d="M672.14,318.6c5.2,0,9.43,3.93,9.43,9.38c0,0.35-0.05,1.01-0.1,1.36c-0.05,0.5-0.5,0.86-0.96,0.86H667.6
		c0.15,2.07,1.92,4.39,4.84,4.39c1.56,0,3.03-0.61,3.93-1.26c0.5-0.3,0.96-0.4,1.31,0l2.07,2.37c0.35,0.35,0.45,0.91-0.05,1.31
		c-1.67,1.56-4.24,2.78-7.52,2.78c-6.05,0-10.34-4.79-10.34-10.59C661.85,323.49,666.14,318.6,672.14,318.6z M675.67,326.67
		c-0.15-1.87-1.77-3.43-3.68-3.43c-2.02,0-3.68,1.51-3.93,3.43H675.67z"/>
</g>
<g>
	<path class="st3" d="M53.96,252.01c-0.14-0.46,0.1-0.98,0.6-1.14l10.28-3.15c5.55-1.7,10.67,0.75,12.15,5.57
		c1.08,3.53-0.76,6.86-2.54,8.76c2.74,0.26,6.74,1.5,8.03,5.72c1.57,5.14-1.51,10.15-7.29,11.92L64.41,283
		c-0.5,0.16-1-0.15-1.14-0.6L53.96,252.01z M68.85,261.76c2.94-0.9,4.07-3.61,3.22-6.36c-0.86-2.8-3.24-4.18-6.18-3.28l-6.2,1.9
		l2.95,9.64L68.85,261.76z M73.86,275.49c2.8-0.86,4.3-3.68,3.42-6.52c-0.86-2.8-4.14-4-7.12-3.09l-6.29,1.93l3.01,9.82
		L73.86,275.49z"/>
	<path class="st3" d="M80.69,246.84c-0.46-1.51,0.32-3.06,1.79-3.51c1.51-0.46,3.07,0.36,3.54,1.88c0.45,1.47-0.38,3.03-1.89,3.49
		C82.65,249.15,81.14,248.3,80.69,246.84z M84.57,257.7c-0.14-0.46,0.15-1,0.6-1.14l2.62-0.8c0.46-0.14,1,0.15,1.14,0.6l5.09,16.62
		c0.14,0.46-0.15,1-0.61,1.14l-2.62,0.8c-0.46,0.14-1-0.15-1.14-0.6L84.57,257.7z"/>
	<path class="st3" d="M102.2,250.84c2.34-0.72,4.26-0.35,4.72-0.34l-4.12-13.45c-0.14-0.46,0.15-1,0.6-1.14l2.66-0.82
		c0.46-0.14,1,0.15,1.14,0.6l9.31,30.38c0.14,0.46-0.15,1-0.6,1.14l-1.38,0.42c-0.41,0.13-0.79-0.11-1.07-0.53l-0.78-1.22
		c0,0-1.42,3.25-5.04,4.36c-4.87,1.49-9.92-1.73-11.54-7.01C94.46,257.88,97.1,252.4,102.2,250.84z M106.99,266.14
		c2.8-0.86,3.44-3.51,3.52-4.09l-2.29-7.48c0,0-1.94-0.61-4.33,0.12c-3.08,0.94-4.46,4.13-3.5,7.25
		C101.32,265.01,104.05,267.04,106.99,266.14z"/>
	<path class="st3" d="M124.82,243.91c4.77-1.46,9.54,0.99,11.05,5.9c0.1,0.32,0.24,0.93,0.29,1.27c0.09,0.47-0.17,0.91-0.59,1.03
		l-12.48,3.83c0.9,2.44,3.8,4.21,6.78,3.29c1.65-0.51,2.94-1.71,3.68-2.58c0.45-0.49,0.72-0.77,1.23-0.42l1.82,1.35
		c0.43,0.27,0.68,0.59,0.27,1.22c-0.98,1.56-3.01,3.43-6.09,4.38c-5.55,1.7-10.56-1.53-12.18-6.81
		C117.01,251.17,119.31,245.59,124.82,243.91z M131.33,250.24c-0.81-2.16-3.23-3.48-5.47-2.79c-2.48,0.76-3.86,3.14-3.43,5.52
		L131.33,250.24z"/>
	<path class="st3" d="M138.08,241.3c-0.14-0.46,0.15-1,0.6-1.14l1.33-0.41c0.37-0.11,0.71,0.03,0.9,0.33l1.03,1.39
		c0.21-0.46,1.97-3.41,5.64-4.54c5.6-1.72,8.87,1.6,10.34,6.37l2.83,9.23c0.14,0.46-0.15,1-0.6,1.14l-2.62,0.8
		c-0.5,0.16-1-0.15-1.14-0.6l-2.88-9.41c-0.9-2.94-2.82-4.11-5.2-3.38c-2.89,0.89-4.22,3.6-4.25,4.32l3.43,11.2
		c0.18,0.6-0.01,0.96-0.79,1.2l-2.39,0.73c-0.46,0.14-1-0.15-1.14-0.6L138.08,241.3z"/>
</g>
<g>
	<path class="st4" d="M89.22,390.48c0.12-0.46,0.6-0.79,1.11-0.65l10.41,2.7c5.62,1.46,8.7,6.23,7.43,11.11
		c-0.93,3.58-4.24,5.44-6.75,6.13c2.2,1.66,4.95,4.81,3.84,9.08c-1.35,5.2-6.6,7.86-12.46,6.34l-10.92-2.84
		c-0.51-0.13-0.77-0.65-0.65-1.11L89.22,390.48z M93.87,420.9c2.83,0.74,5.58-0.88,6.33-3.76c0.74-2.83-1.43-5.58-4.45-6.36
		l-6.37-1.65l-2.58,9.94L93.87,420.9z M96.79,406.59c2.97,0.77,5.35-0.94,6.08-3.73c0.74-2.83-0.57-5.26-3.54-6.03l-6.27-1.63
		l-2.54,9.76L96.79,406.59z"/>
	<path class="st4" d="M115.94,397.43c0.12-0.46,0.65-0.77,1.11-0.65l2.65,0.69c0.46,0.12,0.77,0.65,0.65,1.11l-7.99,30.76
		c-0.12,0.46-0.65,0.77-1.11,0.65l-2.65-0.69c-0.46-0.12-0.77-0.65-0.65-1.11L115.94,397.43z"/>
	<path class="st4" d="M131.11,414.81c5.2,1.35,8.23,6.9,6.86,12.15c-1.39,5.34-6.73,8.72-11.93,7.37c-5.2-1.35-8.23-6.9-6.84-12.24
		C120.57,416.83,125.91,413.46,131.11,414.81z M127.08,430.33c2.93,0.76,5.93-1.24,6.76-4.44c0.81-3.11-0.85-6.27-3.78-7.03
		c-2.93-0.76-5.91,1.19-6.72,4.3C122.5,426.36,124.15,429.57,127.08,430.33z"/>
	<path class="st4" d="M153.13,420.53c5.2,1.35,8.23,6.9,6.86,12.15c-1.39,5.34-6.73,8.72-11.93,7.37c-5.2-1.35-8.23-6.9-6.84-12.24
		C142.59,422.55,147.93,419.18,153.13,420.53z M149.1,436.05c2.93,0.76,5.93-1.24,6.76-4.44c0.81-3.11-0.85-6.27-3.78-7.03
		c-2.93-0.76-5.91,1.19-6.72,4.3C144.52,432.08,146.17,435.29,149.1,436.05z"/>
	<path class="st4" d="M166.81,425.52c0.12-0.46,0.65-0.77,1.11-0.65l1.3,0.34c0.42,0.11,0.59,0.4,0.64,0.76l0.1,1.71
		c0.53-0.31,3.23-1.94,6.81-1.01c2.69,0.7,4.37,2.28,5.22,4.53c0.64-0.38,3.98-2.14,7.51-1.22c5.67,1.47,6.63,5.99,5.37,10.82
		l-2.43,9.34c-0.12,0.46-0.6,0.79-1.11,0.65l-2.6-0.68c-0.51-0.13-0.77-0.65-0.65-1.11l2.47-9.52c0.76-2.93-0.15-4.95-2.66-5.6
		c-2.83-0.74-4.98,0.84-5.38,1.03c-0.02,0.44-0.2,1.34-0.44,2.27l-2.5,9.62c-0.12,0.46-0.65,0.77-1.11,0.65l-2.46-0.64
		c-0.51-0.13-0.77-0.65-0.65-1.11l2.47-9.52c0.77-2.97-0.15-4.95-2.75-5.62c-2.79-0.72-4.93,1.05-5.32,1.59l-2.95,11.34
		c-0.12,0.46-0.65,0.78-1.11,0.65l-2.6-0.68c-0.46-0.12-0.77-0.65-0.65-1.11L166.81,425.52z"/>
	<path class="st4" d="M206.25,420.89c0.12-0.46,0.65-0.78,1.11-0.65l2.7,0.7c0.46,0.12,0.77,0.65,0.65,1.11l-3.54,13.61
		c0.45-0.03,2.36-0.48,4.73,0.14c5.16,1.34,8.03,6.7,6.62,12.13c-1.39,5.34-6.3,8.78-11.22,7.5c-3.67-0.95-5.22-4.13-5.22-4.13
		l-0.72,1.25c-0.26,0.43-0.62,0.68-1.04,0.57l-1.39-0.36c-0.46-0.12-0.77-0.65-0.65-1.11L206.25,420.89z M207.77,451.29
		c2.97,0.77,5.61-1.37,6.42-4.48c0.82-3.16-0.7-6.28-3.81-7.09c-2.42-0.63-4.32,0.02-4.32,0.02l-1.98,7.62
		C204.18,447.93,204.94,450.56,207.77,451.29z"/>
	<path class="st4" d="M233.69,441.46c4.83,1.25,7.61,5.84,6.32,10.82c-0.08,0.32-0.29,0.92-0.42,1.23
		c-0.17,0.45-0.62,0.68-1.04,0.57l-12.64-3.29c-0.51,2.55,1.03,5.58,4.05,6.36c1.67,0.44,3.4,0.09,4.48-0.27
		c0.64-0.18,1.02-0.28,1.27,0.28l0.84,2.1c0.23,0.46,0.27,0.86-0.41,1.18c-1.65,0.81-4.37,1.35-7.48,0.54
		c-5.62-1.46-8.19-6.84-6.8-12.18C223.22,443.55,228.11,440.01,233.69,441.46z M235.91,450.27c0.44-2.27-0.92-4.65-3.2-5.25
		c-2.51-0.65-4.93,0.65-5.81,2.9L235.91,450.27z"/>
	<path class="st4" d="M246.34,446.19c0.12-0.46,0.65-0.77,1.11-0.65l1.35,0.35c0.33,0.08,0.62,0.46,0.62,0.86l0.1,1.71
		c0.45-0.38,2.74-2.16,6.14-1.28c1.77,0.46,3.78,1.48,2.95,2.6l-1.71,1.99c-0.37,0.45-0.85,0.42-1.22,0.13
		c-0.24-0.21-0.89-0.58-1.5-0.73c-2.69-0.7-4.5,0.91-4.77,1.19l-3.07,11.8c-0.21,0.79-0.74,0.75-1.48,0.56l-2.23-0.58
		c-0.46-0.12-0.77-0.65-0.65-1.11L246.34,446.19z"/>
	<path class="st4" d="M260,461.79c0,0-0.99-2.09-0.27-4.88c1.12-4.32,5.37-7.29,10.1-6.05l8.13,2.11c0.51,0.13,0.79,0.6,0.65,1.11
		l-0.3,1.16c-0.08,0.32-0.38,0.69-0.72,0.66l-2.74,0.03c0,0,1.61,2.01,0.71,5.49c-1.03,3.95-5.03,6.78-9.87,5.52
		c-2.37-0.62-3.48-1.7-3.85-1.79c-0.32-0.08-2.11,0.29-2.5,1.78c-0.28,1.07,0.34,2.12,1.74,2.49l6.32,1.64
		c4.04,1.05,6.73,4.08,5.68,8.12c-1.06,4.09-5.72,6.75-11.9,5.14c-6.55-1.7-8.33-5.73-7.55-8.75c0.72-2.79,3.34-3.5,3.88-3.66
		l0.04-0.14c-0.9-0.53-3.04-2.43-2.23-5.54C256.25,462.65,260,461.79,260,461.79z M262.13,480.5c2.83,0.74,5.67-0.06,6.25-2.29
		c0.19-0.74,0.22-2.77-2.8-3.55c-1.35-0.35-2.74-0.71-4.11-0.97c-0.3,0.02-2.77,0.17-3.32,2.26
		C257.66,477.85,259.29,479.76,262.13,480.5z M271.69,460.12c0.65-2.51-0.47-4.69-2.79-5.29c-2.37-0.62-4.55,0.7-5.2,3.21
		c-0.65,2.51,0.61,4.72,2.98,5.34C269,463.98,271.04,462.62,271.69,460.12z"/>
</g>
<g>
	<path class="st5" d="M669.78,129.99c0-0.48,0.38-0.91,0.91-0.91h10.75c5.81,0,9.99,3.84,9.99,8.88c0,3.7-2.74,6.34-4.99,7.63
		c2.54,1.06,6,3.41,6,7.82c0,5.38-4.42,9.26-10.46,9.26h-11.28c-0.53,0-0.91-0.43-0.91-0.91V129.99z M681.92,158.26
		c2.93,0,5.18-2.26,5.18-5.23c0-2.93-2.78-5.04-5.91-5.04h-6.58v10.27H681.92z M681.15,143.67c3.07,0,4.94-2.26,4.94-5.14
		c0-2.93-1.87-4.94-4.94-4.94h-6.48v10.08H681.15z"/>
	<path class="st5" d="M705.92,143c5.38,0,9.7,4.61,9.7,10.03c0,5.52-4.32,10.13-9.7,10.13c-5.38,0-9.7-4.61-9.7-10.13
		C696.22,147.61,700.55,143,705.92,143z M705.92,159.03c3.02,0,5.42-2.69,5.42-6c0-3.22-2.4-5.86-5.42-5.86s-5.42,2.64-5.42,5.86
		C700.5,156.34,702.9,159.03,705.92,159.03z"/>
	<path class="st5" d="M728.67,143c5.38,0,9.7,4.61,9.7,10.03c0,5.52-4.32,10.13-9.7,10.13c-5.38,0-9.7-4.61-9.7-10.13
		C718.98,147.61,723.3,143,728.67,143z M728.67,159.03c3.02,0,5.42-2.69,5.42-6c0-3.22-2.4-5.86-5.42-5.86s-5.42,2.64-5.42,5.86
		C723.25,156.34,725.65,159.03,728.67,159.03z"/>
	<path class="st5" d="M743.17,129.99c0-0.48,0.43-0.91,0.91-0.91h2.78c0.48,0,0.91,0.43,0.91,0.91v20.79l7.49-6.72
		c0.34-0.29,0.72-0.58,1.2-0.58h3.36c0.82,0,0.96,0.91,0.53,1.3l-7.97,7.25l9.41,9.41c0.43,0.43,0.29,1.25-0.53,1.25h-3.94
		c-0.34,0-0.72-0.19-0.86-0.38l-8.69-8.93v8.4c0,0.48-0.43,0.91-0.91,0.91h-2.78c-0.48,0-0.91-0.43-0.91-0.91V129.99z"/>
	<path class="st5" d="M773.46,143c4.99,0,8.83,3.74,8.83,8.88c0,0.34-0.05,0.96-0.1,1.3c-0.05,0.48-0.43,0.82-0.86,0.82h-13.06
		c0.14,2.59,2.4,5.14,5.52,5.14c1.73,0,3.31-0.77,4.27-1.39c0.58-0.34,0.91-0.53,1.3-0.05l1.34,1.82c0.34,0.38,0.48,0.77-0.1,1.25
		c-1.39,1.2-3.89,2.4-7.1,2.4c-5.81,0-9.65-4.56-9.65-10.08C763.86,147.65,767.7,143,773.46,143z M777.83,150.97
		c-0.14-2.3-2.06-4.27-4.42-4.27c-2.59,0-4.61,1.87-4.9,4.27H777.83z"/>
	<path class="st5" d="M786.9,144.39c0-0.48,0.43-0.91,0.91-0.91h1.39c0.34,0,0.72,0.29,0.82,0.67l0.53,1.63
		c0.34-0.48,2.11-2.78,5.62-2.78c1.82,0,4.03,0.48,3.5,1.78l-1.15,2.35c-0.24,0.53-0.72,0.62-1.15,0.43
		c-0.29-0.14-1.01-0.34-1.63-0.34c-2.78,0-4.13,2.02-4.32,2.35v12.19c0,0.82-0.53,0.91-1.3,0.91h-2.3c-0.48,0-0.91-0.43-0.91-0.91
		V144.39z"/>
</g>
<g>
	<path class="st6" d="M774.93,377.71c0.1-0.47,0.57-0.81,1.09-0.7l10.51,2.29c5.68,1.24,8.94,5.88,7.87,10.8
		c-0.79,3.61-4.02,5.61-6.5,6.39c2.26,1.57,5.14,4.61,4.2,8.92c-1.15,5.25-6.29,8.11-12.2,6.82l-11.02-2.4
		c-0.52-0.11-0.8-0.62-0.7-1.09L774.93,377.71z M780.78,407.93c2.86,0.62,5.55-1.1,6.18-4.01c0.62-2.86-1.65-5.52-4.7-6.18
		l-6.43-1.4l-2.19,10.04L780.78,407.93z M783.13,393.51c3,0.65,5.31-1.15,5.93-3.97c0.62-2.86-0.78-5.23-3.78-5.88l-6.33-1.38
		l-2.15,9.85L783.13,393.51z"/>
	<path class="st6" d="M798.55,397.6c0.1-0.47,0.62-0.8,1.08-0.7l2.67,0.58c0.47,0.1,0.8,0.62,0.7,1.08l-2.1,9.62
		c-0.67,3.05,0.43,5.01,2.82,5.53c2.77,0.6,4.99-1.27,5.32-2.08l2.44-11.21c0.16-0.75,0.57-0.81,1.23-0.67l2.44,0.53
		c0.47,0.1,0.8,0.62,0.7,1.08l-3.7,16.98c-0.1,0.47-0.62,0.8-1.08,0.7l-1.31-0.29c-0.47-0.1-0.63-0.48-0.68-0.93l-0.17-1.46
		c-0.5,0.28-2.96,2.06-6.75,1.23c-5.63-1.23-6.73-5.64-5.67-10.52L798.55,397.6z"/>
	<path class="st6" d="M822.52,405.97l-1.97-0.43c-0.52-0.11-0.8-0.62-0.7-1.08l0.46-2.11c0.11-0.51,0.57-0.81,1.09-0.7l1.97,0.43
		l1.13-5.21c0.1-0.47,0.62-0.8,1.09-0.7l2.68,0.54c0.47,0.1,0.75,0.61,0.65,1.07l-1.15,5.25l4.78,1.04c0.52,0.11,0.81,0.57,0.7,1.08
		l-0.46,2.11c-0.1,0.47-0.57,0.81-1.09,0.7l-4.78-1.04l-2.02,9.29c-0.35,1.6,0.2,2.01,1.09,2.2c0.98,0.21,2.42-0.06,3.04-0.22
		c0.67-0.15,0.89,0.19,0.99,0.66l0.39,2.25c0.12,0.57-0.15,0.9-0.67,1.03c-0.53,0.18-3.54,0.7-5.79,0.21
		c-3.71-0.81-4.29-3.29-3.57-6.62L822.52,405.97z"/>
	<path class="st6" d="M838.74,409.51l-1.97-0.43c-0.52-0.11-0.8-0.62-0.7-1.08l0.46-2.11c0.11-0.51,0.57-0.81,1.08-0.7l1.97,0.43
		l1.13-5.21c0.1-0.47,0.62-0.8,1.09-0.7l2.68,0.54c0.47,0.1,0.75,0.61,0.65,1.08l-1.15,5.25l4.78,1.04c0.52,0.11,0.81,0.57,0.7,1.08
		l-0.46,2.11c-0.1,0.47-0.57,0.81-1.08,0.7l-4.78-1.04l-2.02,9.29c-0.35,1.6,0.2,2.01,1.09,2.2c0.98,0.21,2.42-0.06,3.04-0.22
		c0.67-0.15,0.89,0.19,0.99,0.66l0.39,2.25c0.12,0.57-0.15,0.9-0.67,1.03c-0.53,0.18-3.54,0.7-5.79,0.21
		c-3.71-0.81-4.29-3.29-3.57-6.62L838.74,409.51z"/>
	<path class="st6" d="M854.41,409.78c0.1-0.47,0.62-0.8,1.09-0.7l2.67,0.58c0.47,0.1,0.8,0.62,0.7,1.08l-3.7,16.98
		c-0.1,0.47-0.62,0.8-1.09,0.7l-2.67-0.58c-0.47-0.1-0.8-0.62-0.7-1.08L854.41,409.78z M856.34,398.41
		c0.34-1.55,1.78-2.51,3.28-2.18c1.55,0.34,2.5,1.82,2.17,3.37c-0.33,1.5-1.81,2.46-3.36,2.12
		C856.92,401.39,856.02,399.91,856.34,398.41z"/>
	<path class="st6" d="M863.93,423.79c0,0-1.08-2.05-0.46-4.87c0.95-4.36,5.07-7.49,9.86-6.45l8.21,1.79
		c0.52,0.11,0.81,0.57,0.7,1.08l-0.26,1.17c-0.07,0.33-0.35,0.71-0.69,0.68l-2.73,0.14c0,0,1.69,1.94,0.92,5.46
		c-0.87,3.99-4.76,6.97-9.64,5.91c-2.39-0.52-3.54-1.56-3.92-1.64c-0.33-0.07-2.1,0.38-2.42,1.88c-0.24,1.08,0.43,2.11,1.83,2.41
		l6.38,1.39c4.08,0.89,6.88,3.81,5.99,7.89c-0.9,4.13-5.45,6.97-11.69,5.61c-6.61-1.44-8.55-5.4-7.89-8.45
		c0.61-2.81,3.2-3.63,3.73-3.81l0.03-0.14c-0.92-0.5-3.13-2.3-2.45-5.45C860.22,424.8,863.93,423.79,863.93,423.79z M866.8,442.4
		c2.86,0.62,5.67-0.29,6.16-2.54c0.16-0.75,0.11-2.78-2.94-3.44c-1.36-0.3-2.77-0.6-4.15-0.8c-0.3,0.03-2.76,0.28-3.22,2.39
		C862.23,439.93,863.94,441.78,866.8,442.4z M875.54,421.66c0.55-2.53-0.65-4.66-3-5.17c-2.39-0.52-4.52,0.88-5.07,3.42
		c-0.55,2.53,0.79,4.69,3.19,5.21C873.01,425.63,874.99,424.19,875.54,421.66z"/>
	<path class="st6" d="M886.53,416.78c0.1-0.47,0.62-0.8,1.09-0.7l2.67,0.58c0.47,0.1,0.8,0.62,0.7,1.08l-3.7,16.98
		c-0.1,0.47-0.62,0.8-1.08,0.7l-2.67-0.58c-0.47-0.1-0.8-0.62-0.7-1.09L886.53,416.78z M888.47,405.42
		c0.34-1.55,1.78-2.51,3.28-2.18c1.55,0.34,2.5,1.82,2.17,3.37c-0.33,1.5-1.81,2.45-3.36,2.12
		C889.05,408.39,888.14,406.92,888.47,405.42z"/>
	<path class="st6" d="M905.4,419.47c4.88,1.06,7.83,5.54,6.74,10.56c-0.07,0.33-0.25,0.93-0.37,1.25c-0.15,0.46-0.6,0.71-1.02,0.61
		l-12.76-2.78c-0.41,2.56,1.25,5.53,4.3,6.19c1.69,0.37,3.4-0.04,4.47-0.45c0.63-0.21,1-0.32,1.28,0.23l0.92,2.07
		c0.25,0.45,0.31,0.85-0.36,1.2c-1.62,0.88-4.31,1.52-7.45,0.83c-5.68-1.24-8.46-6.51-7.28-11.9
		C895.03,421.98,899.77,418.25,905.4,419.47z M907.97,428.19c0.35-2.28-1.11-4.61-3.41-5.12c-2.53-0.55-4.9,0.85-5.69,3.13
		L907.97,428.19z"/>
	<path class="st6" d="M917.2,435.41c0,0-1.08-2.05-0.46-4.87c0.95-4.36,5.07-7.49,9.86-6.45l8.21,1.79c0.52,0.11,0.81,0.57,0.7,1.09
		l-0.26,1.17c-0.07,0.33-0.35,0.71-0.69,0.68l-2.73,0.14c0,0,1.69,1.94,0.92,5.46c-0.87,3.99-4.76,6.97-9.64,5.91
		c-2.39-0.52-3.54-1.56-3.92-1.64c-0.33-0.07-2.1,0.38-2.42,1.88c-0.24,1.08,0.43,2.11,1.83,2.41l6.38,1.39
		c4.08,0.89,6.88,3.81,5.99,7.89c-0.9,4.13-5.45,6.97-11.69,5.61c-6.61-1.44-8.55-5.4-7.89-8.45c0.61-2.81,3.2-3.63,3.73-3.81
		l0.03-0.14c-0.92-0.5-3.13-2.3-2.45-5.45C913.49,436.42,917.2,435.41,917.2,435.41z M920.07,454.02c2.86,0.62,5.66-0.29,6.16-2.54
		c0.16-0.75,0.11-2.78-2.94-3.44c-1.36-0.3-2.77-0.6-4.15-0.81c-0.3,0.03-2.76,0.28-3.22,2.39
		C915.5,451.55,917.21,453.39,920.07,454.02z M928.82,433.28c0.55-2.53-0.65-4.66-3-5.17c-2.39-0.52-4.52,0.88-5.07,3.42
		c-0.55,2.53,0.79,4.69,3.19,5.21C926.28,437.24,928.27,435.81,928.82,433.28z"/>
</g>
<g>
	<path class="st7" d="M234.37,317.67c0.2-0.59,0.82-0.94,1.46-0.73l2.64,0.87c0.59,0.2,0.93,0.86,0.73,1.46l-4.17,12.62l17.24-9.01
		c0.26-0.17,0.65-0.29,1.02-0.17l3.42,1.13c0.82,0.27,0.96,1.38,0.1,1.85l-17.6,9.05l8.87,19.97c0.21,0.58-0.36,1.55-1.32,1.23
		l-3.65-1.21c-0.46-0.15-0.67-0.42-0.71-0.59l-8.32-19.33l-4.69,14.17c-0.2,0.59-0.86,0.93-1.46,0.73l-2.64-0.87
		c-0.64-0.21-0.93-0.86-0.73-1.46L234.37,317.67z"/>
	<path class="st7" d="M261.19,326.28c0.15-0.46,0.7-0.73,1.15-0.58l2.6,0.86c0.46,0.15,0.73,0.7,0.58,1.15l-9.97,30.17
		c-0.15,0.46-0.7,0.73-1.15,0.58l-2.6-0.86c-0.46-0.15-0.73-0.7-0.58-1.15L261.19,326.28z"/>
	<path class="st7" d="M275.2,344.62c5.11,1.69,7.76,7.42,6.06,12.57c-1.73,5.24-7.28,8.26-12.39,6.57
		c-5.1-1.69-7.76-7.42-6.03-12.66C264.55,345.95,270.1,342.93,275.2,344.62z M270.17,359.84c2.87,0.95,5.99-0.85,7.03-4
		c1.01-3.05-0.44-6.31-3.31-7.26c-2.87-0.95-5.98,0.8-6.99,3.86C265.86,355.58,267.3,358.89,270.17,359.84z"/>
	<path class="st7" d="M293.05,336.81c0.15-0.46,0.7-0.73,1.15-0.58l2.64,0.87c0.46,0.15,0.73,0.7,0.58,1.15l-4.42,13.36
		c0.46,0,2.38-0.33,4.71,0.44c5.06,1.67,7.58,7.21,5.81,12.54c-1.73,5.24-6.86,8.35-11.69,6.75c-3.6-1.19-4.95-4.46-4.95-4.46
		l-0.8,1.2c-0.29,0.41-0.67,0.64-1.08,0.5l-1.37-0.45c-0.46-0.15-0.73-0.7-0.58-1.15L293.05,336.81z M292.59,367.25
		c2.92,0.96,5.69-1,6.7-4.05c1.03-3.1-0.29-6.31-3.34-7.32c-2.37-0.78-4.31-0.26-4.31-0.26l-2.47,7.48
		C289.23,363.66,289.81,366.33,292.59,367.25z"/>
	<path class="st7" d="M310.58,357.78c0.15-0.46,0.7-0.73,1.15-0.58l2.6,0.86c0.46,0.15,0.73,0.7,0.58,1.15l-3.09,9.34
		c-0.98,2.96-0.09,5.02,2.23,5.79c2.69,0.89,5.1-0.74,5.51-1.52l3.6-10.89c0.24-0.73,0.65-0.74,1.29-0.53l2.37,0.78
		c0.46,0.15,0.73,0.7,0.58,1.15l-5.45,16.5c-0.15,0.46-0.7,0.73-1.15,0.58l-1.28-0.42c-0.46-0.15-0.58-0.54-0.58-1l-0.02-1.47
		c-0.53,0.23-3.15,1.74-6.84,0.52c-5.47-1.81-6.1-6.31-4.54-11.05L310.58,357.78z"/>
	<path class="st7" d="M341.97,366.69c2.78,0.92,4.55,2.77,5.54,5.42c0.18,0.52-0.09,1.03-0.6,1.21l-1.96,0.87
		c-0.71,0.32-0.91-0.15-1.17-0.59c-0.52-1.18-1.57-2.44-3.07-2.94c-2.96-0.98-6.12,0.76-7.14,3.86c-1.04,3.14,0.41,6.4,3.37,7.38
		c2.33,0.77,3.67-0.1,4.93-0.7c0.55-0.27,0.96-0.14,1.26,0.32l0.9,1.41c0.34,0.52,0.37,1.03-0.1,1.38
		c-2.23,1.84-5.19,2.53-8.33,1.49c-5.1-1.69-8.19-7.21-6.38-12.67C331,367.76,336.91,365.02,341.97,366.69z"/>
	<path class="st7" d="M357.63,358.16c0.15-0.46,0.7-0.73,1.15-0.58l2.64,0.87c0.46,0.15,0.73,0.7,0.58,1.15l-4.73,14.31
		c0.56-0.17,3.2-1.12,6.12-0.15c5.15,1.7,6.39,6.21,4.75,11.18l-3.03,9.16c-0.15,0.46-0.7,0.73-1.15,0.58l-2.55-0.84
		c-0.5-0.17-0.73-0.7-0.58-1.15l3.06-9.25c0.98-2.96,0.02-5.1-2.35-5.88c-2.78-0.92-5.39,0.54-5.87,1.24l-3.63,10.98
		c-0.17,0.5-0.61,0.76-1.2,0.56l-2.6-0.86c-0.46-0.15-0.73-0.7-0.58-1.15L357.63,358.16z"/>
	<path class="st7" d="M380.3,387.3c1.91,0.63,3.42,1.74,3.42,1.74c0.99-2.86,0.82-4.18-1.5-4.95c-2.1-0.69-4.33-0.82-5.38-0.87
		c-0.59-0.04-0.79-0.51-0.76-1.06l0.19-1.81c0.06-0.64,0.48-0.85,0.94-0.85c0.36-0.03,3.26-0.08,6.64,1.03
		c5.83,1.93,5.21,5.66,3.7,10.22l-3.21,9.71c-0.15,0.46-0.7,0.73-1.15,0.58l-1.28-0.42c-0.41-0.14-0.53-0.38-0.56-0.89l-0.05-1.38
		c-1.32,0.63-3.55,1.4-6.38,0.47c-3.42-1.13-5.11-4.27-3.86-8.05C372.17,387.44,375.65,385.76,380.3,387.3z M376.86,395.87
		c1.82,0.6,4.01-0.19,4.85-0.92l0.96-2.92c-0.21-0.27-1.31-1.24-2.95-1.78c-2.19-0.72-4.07-0.08-4.69,1.79
		C374.5,393.67,375.17,395.31,376.86,395.87z"/>
	<path class="st7" d="M395.54,385.86c0.15-0.46,0.7-0.73,1.15-0.58l1.32,0.44c0.32,0.11,0.59,0.5,0.56,0.89l-0.01,1.71
		c0.47-0.35,2.88-1.98,6.21-0.88c1.73,0.57,3.68,1.72,2.77,2.79l-1.83,1.87c-0.39,0.42-0.88,0.37-1.23,0.05
		c-0.23-0.23-0.85-0.63-1.44-0.83c-2.64-0.87-4.55,0.62-4.84,0.88l-3.83,11.58c-0.26,0.77-0.79,0.7-1.52,0.46l-2.19-0.72
		c-0.46-0.15-0.73-0.7-0.58-1.15L395.54,385.86z"/>
</g>
<g>
	<path class="st8" d="M264.22,537.46c0.39-0.66,0.72-1.4,1.1-2.05c0.38-0.65,1.04-0.9,1.6-0.5c0.3,0.22,4.22,3.01,7.9,2.74
		c3.3-0.24,5.26-2.41,5.08-4.85c-0.21-2.87-2.83-4.51-7.72-6.12c-5.03-1.7-9.05-3.95-9.46-9.51c-0.27-3.73,2.22-9.07,9.83-9.63
		c4.79-0.35,8.56,1.87,9.07,2.17c0.4,0.21,0.83,0.85,0.41,1.61c-0.34,0.6-0.72,1.31-1.06,1.91c-0.34,0.65-0.94,0.98-1.64,0.6
		c-0.35-0.17-3.86-2.12-6.64-1.92c-4.02,0.3-5.22,2.94-5.09,4.71c0.2,2.73,2.43,4.25,6.53,5.59c5.72,1.84,10.65,4.12,11.08,9.96
		c0.37,4.98-3.79,9.38-10.01,9.84c-5.84,0.43-9.75-2.36-10.57-3.03C264.16,538.62,263.8,538.31,264.22,537.46z"/>
	<path class="st8" d="M296.04,527.8c2.01-0.15,3.82,0.3,3.82,0.3c-0.17-3.02-0.84-4.17-3.28-3.99c-2.2,0.16-4.32,0.89-5.3,1.25
		c-0.56,0.19-0.93-0.17-1.11-0.69l-0.51-1.74c-0.19-0.61,0.12-0.97,0.54-1.15c0.32-0.17,2.98-1.33,6.53-1.59
		c6.13-0.45,6.98,3.24,7.33,8.03l0.75,10.2c0.04,0.48-0.36,0.94-0.84,0.98l-1.34,0.1c-0.43,0.03-0.64-0.15-0.86-0.61l-0.57-1.26
		c-0.98,1.08-2.74,2.66-5.71,2.88c-3.59,0.26-6.36-1.99-6.65-5.96C288.58,531.05,291.16,528.16,296.04,527.8z M296.15,537.03
		c1.92-0.14,3.63-1.71,4.13-2.71l-0.23-3.06c-0.3-0.17-1.68-0.65-3.41-0.52c-2.3,0.17-3.79,1.48-3.65,3.45
		C293.13,535.91,294.37,537.17,296.15,537.03z"/>
	<path class="st8" d="M309.57,520.64c-0.04-0.48,0.36-0.94,0.84-0.98l1.39-0.1c0.38-0.03,0.69,0.19,0.81,0.52l0.69,1.58
		c0.31-0.41,2.67-2.89,6.5-3.17c5.84-0.43,8.3,3.53,8.67,8.51l0.71,9.62c0.04,0.48-0.36,0.94-0.84,0.98l-2.73,0.2
		c-0.53,0.04-0.94-0.36-0.98-0.84l-0.72-9.81c-0.23-3.06-1.83-4.63-4.32-4.45c-3.02,0.22-4.91,2.58-5.1,3.26l0.86,11.68
		c0.05,0.62-0.22,0.93-1.03,0.99l-2.49,0.18c-0.48,0.04-0.94-0.36-0.98-0.84L309.57,520.64z"/>
	<path class="st8" d="M341.83,516.87c2.44-0.18,4.23,0.6,4.67,0.71l-1.03-14.03c-0.04-0.48,0.36-0.94,0.84-0.98l2.78-0.2
		c0.48-0.04,0.94,0.36,0.98,0.84l2.33,31.69c0.04,0.48-0.36,0.94-0.84,0.98l-1.44,0.11c-0.43,0.03-0.74-0.28-0.92-0.75l-0.49-1.36
		c0,0-2.1,2.85-5.88,3.13c-5.07,0.37-9.29-3.89-9.69-9.39C332.72,522.02,336.51,517.26,341.83,516.87z M343.1,532.85
		c2.92-0.21,4.14-2.66,4.34-3.21l-0.58-7.8c0,0-1.76-1.03-4.25-0.84c-3.21,0.24-5.26,3.04-5.02,6.29
		C337.82,530.5,340.04,533.08,343.1,532.85z"/>
	<path class="st8" d="M365.43,515.13c4.98-0.37,9.08,3.08,9.46,8.21c0.02,0.33,0.02,0.96,0,1.3c-0.01,0.48-0.37,0.85-0.8,0.88
		l-13.02,0.96c0.33,2.58,2.77,4.95,5.88,4.72c1.72-0.13,3.25-1.01,4.16-1.7c0.55-0.38,0.87-0.59,1.29-0.14l1.47,1.72
		c0.36,0.36,0.54,0.73,0,1.25c-1.3,1.3-3.7,2.68-6.91,2.92c-5.79,0.43-9.96-3.84-10.36-9.34
		C356.19,520.48,359.68,515.56,365.43,515.13z M370.37,522.76c-0.31-2.29-2.37-4.11-4.72-3.94c-2.59,0.19-4.46,2.21-4.57,4.62
		L370.37,522.76z"/>
	<path class="st8" d="M378.93,515.54c-0.04-0.48,0.37-0.94,0.84-0.98l1.39-0.1c0.33-0.02,0.74,0.23,0.86,0.61l0.65,1.59
		c0.3-0.5,1.9-2.93,5.4-3.19c1.82-0.13,4.06,0.18,3.63,1.51l-0.98,2.43c-0.2,0.54-0.67,0.67-1.12,0.52
		c-0.3-0.12-1.03-0.26-1.65-0.22c-2.78,0.21-3.97,2.31-4.14,2.66l0.9,12.16c0.06,0.81-0.46,0.95-1.23,1l-2.3,0.17
		c-0.48,0.04-0.94-0.36-0.98-0.84L378.93,515.54z"/>
	<path class="st8" d="M395.03,530.19l0.87-1.94c0.16-0.4,0.68-0.58,1.18-0.33c0,0,2.2,1.09,4.54,0.92c1.44-0.11,2.3-0.75,2.23-1.8
		c-0.1-1.29-1.2-1.84-3.92-2.84c-3.06-1.08-5.69-2.71-5.92-5.87c-0.18-2.39,1.58-5.41,6.17-5.75c2.68-0.2,4.76,0.52,5.76,1.07
		c0.45,0.26,0.74,0.86,0.48,1.36l-0.74,1.69c-0.21,0.45-0.82,0.64-1.22,0.47c0,0-2.18-0.85-4-0.72c-1.63,0.12-2.1,0.88-2.05,1.59
		c0.09,1.24,1.33,1.68,3.25,2.36c3.61,1.27,6.59,2.55,6.86,6.14c0.22,2.97-2.41,5.81-6.67,6.12c-3.21,0.24-5.4-0.76-6.46-1.5
		C395.09,531,394.86,530.58,395.03,530.19z"/>
</g>
<g>
	<path class="st9" d="M784.39,198.01c0.57-0.5,1.13-1.1,1.7-1.59c0.57-0.5,1.27-0.52,1.68,0.04c0.22,0.3,3.03,4.2,6.61,5.12
		c3.21,0.83,5.75-0.6,6.37-2.97c0.72-2.79-1.25-5.18-5.36-8.27c-4.23-3.22-7.31-6.64-5.93-12.03c0.93-3.63,5-7.88,12.39-5.98
		c4.65,1.2,7.51,4.51,7.9,4.96c0.31,0.33,0.52,1.08-0.13,1.65c-0.52,0.46-1.1,1-1.62,1.47c-0.53,0.51-1.2,0.63-1.75,0.04
		c-0.28-0.27-2.98-3.25-5.68-3.94c-3.91-1-5.89,1.11-6.33,2.83c-0.68,2.65,0.94,4.8,4.4,7.38c4.83,3.57,8.78,7.31,7.32,12.99
		c-1.24,4.83-6.58,7.67-12.63,6.12c-5.67-1.46-8.49-5.36-9.05-6.25C783.96,199.09,783.72,198.68,784.39,198.01z"/>
	<path class="st9" d="M813.01,194.66l-1.95-0.5c-0.51-0.13-0.78-0.65-0.66-1.11l0.54-2.09c0.13-0.51,0.6-0.79,1.11-0.66l1.95,0.5
		l1.33-5.16c0.12-0.46,0.65-0.78,1.11-0.66l2.66,0.64c0.46,0.12,0.73,0.63,0.61,1.1l-1.34,5.21l4.74,1.22
		c0.51,0.13,0.79,0.6,0.66,1.11l-0.54,2.09c-0.12,0.47-0.6,0.79-1.11,0.66l-4.74-1.22l-2.37,9.21c-0.41,1.58,0.13,2.02,1.01,2.24
		c0.98,0.25,2.42,0.03,3.05-0.11c0.68-0.12,0.88,0.23,0.96,0.69l0.31,2.26c0.1,0.57-0.18,0.89-0.71,1.01c-0.54,0.16-3.57,0.57-5.8,0
		c-3.67-0.95-4.17-3.45-3.32-6.75L813.01,194.66z"/>
	<path class="st9" d="M836.95,196.21c4.83,1.24,7.62,5.83,6.34,10.8c-0.08,0.33-0.29,0.92-0.42,1.23c-0.17,0.45-0.62,0.68-1.04,0.58
		l-12.64-3.25c-0.51,2.55,1.04,5.57,4.07,6.35c1.67,0.43,3.4,0.08,4.48-0.28c0.64-0.18,1.02-0.29,1.27,0.28l0.85,2.1
		c0.23,0.46,0.27,0.86-0.4,1.18c-1.65,0.82-4.36,1.36-7.48,0.55c-5.63-1.45-8.21-6.82-6.83-12.17
		C826.49,198.33,831.37,194.78,836.95,196.21z M839.19,205.02c0.43-2.27-0.93-4.65-3.21-5.24c-2.51-0.65-4.93,0.67-5.81,2.92
		L839.19,205.02z"/>
	<path class="st9" d="M847.02,200.59c-0.12-0.68,0.4-1.19,1.1-1.01l3.07,0.79c0.28,0.07,0.59,0.4,0.66,0.72l2.58,13.85l0.05,0.01
		l8.76-10.93c0.29-0.37,0.69-0.37,1.11-0.26l2.65,0.68c0.74,0.19,0.96,0.89,0.48,1.41l-22.14,27.12c-0.21,0.24-0.56,0.45-0.93,0.35
		l-2.79-0.72c-0.7-0.18-0.96-0.89-0.47-1.46l9.66-11.74L847.02,200.59z"/>
	<path class="st9" d="M879.43,207.14c4.83,1.24,7.62,5.83,6.34,10.8c-0.08,0.33-0.29,0.92-0.42,1.23c-0.17,0.45-0.62,0.68-1.04,0.58
		l-12.65-3.25c-0.51,2.55,1.05,5.57,4.07,6.35c1.67,0.43,3.4,0.08,4.48-0.28c0.64-0.18,1.01-0.28,1.27,0.28l0.85,2.1
		c0.23,0.46,0.27,0.86-0.4,1.18c-1.65,0.82-4.36,1.36-7.48,0.55c-5.62-1.45-8.21-6.82-6.83-12.17
		C868.97,209.26,873.85,205.71,879.43,207.14z M881.68,215.95c0.44-2.27-0.93-4.65-3.21-5.24c-2.51-0.65-4.93,0.67-5.81,2.92
		L881.68,215.95z"/>
	<path class="st9" d="M892.1,211.84c0.12-0.46,0.65-0.78,1.11-0.66l1.35,0.35c0.32,0.08,0.62,0.46,0.62,0.85l0.11,1.71
		c0.45-0.38,2.74-2.17,6.13-1.3c1.77,0.46,3.79,1.47,2.95,2.59l-1.7,1.99c-0.36,0.45-0.85,0.42-1.22,0.13
		c-0.24-0.21-0.89-0.58-1.5-0.73c-2.7-0.69-4.5,0.92-4.77,1.2l-3.04,11.81c-0.2,0.79-0.74,0.75-1.48,0.56l-2.23-0.57
		c-0.46-0.12-0.78-0.65-0.66-1.11L892.1,211.84z"/>
</g>
<g>
	<path class="st10" d="M199.32,256.07c-0.28-0.64,0.03-1.17,0.69-1.26l3.18-0.45c0.38-0.05,0.81,0.22,0.95,0.54l8.85,21l0.19-0.03
		l4.56-23.53c0.05-0.3,0.35-0.58,0.73-0.64l0.86-0.12c0.38-0.05,0.75,0.14,0.88,0.41l11.03,21.32l0.19-0.03l2.56-22.62
		c0.05-0.35,0.38-0.73,0.76-0.79l3.18-0.45c0.67-0.09,1.11,0.33,1.02,1.02l-4.44,33.21c-0.04,0.39-0.38,0.73-0.76,0.79l-0.76,0.11
		c-0.33,0.05-0.75-0.14-0.88-0.41l-11.72-22.43l-0.24,0.03l-4.87,24.79c-0.06,0.3-0.4,0.59-0.73,0.64l-0.76,0.11
		c-0.38,0.05-0.8-0.18-0.95-0.54L199.32,256.07z"/>
	<path class="st10" d="M249.66,269.43c2-0.28,3.84,0.04,3.84,0.04c-0.38-3-1.12-4.11-3.54-3.76c-2.19,0.31-4.24,1.18-5.2,1.61
		c-0.55,0.22-0.94-0.11-1.16-0.61l-0.63-1.7c-0.23-0.6,0.06-0.98,0.46-1.18c0.31-0.19,2.89-1.53,6.4-2.03
		c6.08-0.86,7.18,2.76,7.86,7.51l1.44,10.12c0.07,0.48-0.3,0.96-0.78,1.03l-1.33,0.19c-0.43,0.06-0.64-0.1-0.9-0.55l-0.66-1.21
		c-0.9,1.15-2.55,2.84-5.5,3.25c-3.56,0.51-6.48-1.55-7.04-5.5C242.43,273.17,244.81,270.12,249.66,269.43z M250.38,278.64
		c1.9-0.27,3.5-1.95,3.94-2.98l-0.43-3.04c-0.31-0.15-1.72-0.53-3.44-0.29c-2.28,0.32-3.68,1.74-3.4,3.68
		C247.29,277.72,248.62,278.89,250.38,278.64z"/>
	<path class="st10" d="M262.67,261.38c-0.07-0.47,0.3-0.96,0.77-1.03l1.38-0.2c0.33-0.05,0.75,0.18,0.9,0.55l0.75,1.54
		c0.27-0.52,1.7-3.05,5.17-3.55c1.81-0.26,4.06-0.09,3.72,1.27l-0.81,2.49c-0.16,0.56-0.62,0.72-1.08,0.59
		c-0.31-0.1-1.04-0.19-1.66-0.1c-2.76,0.39-3.8,2.58-3.95,2.94l1.71,12.07c0.12,0.81-0.4,0.98-1.16,1.08l-2.28,0.32
		c-0.47,0.07-0.96-0.3-1.03-0.77L262.67,261.38z"/>
	<path class="st10" d="M278.64,259.11c-0.07-0.47,0.3-0.96,0.77-1.03l1.38-0.2c0.33-0.05,0.75,0.18,0.9,0.55l0.75,1.54
		c0.27-0.52,1.7-3.05,5.17-3.55c1.81-0.26,4.06-0.09,3.72,1.27l-0.81,2.49c-0.16,0.56-0.62,0.72-1.08,0.59
		c-0.31-0.1-1.04-0.19-1.66-0.1c-2.76,0.39-3.8,2.58-3.95,2.94l1.72,12.07c0.12,0.81-0.39,0.98-1.15,1.09l-2.28,0.32
		c-0.47,0.07-0.96-0.3-1.03-0.77L278.64,259.11z"/>
	<path class="st10" d="M302.39,254.33c4.94-0.7,9.27,2.46,9.99,7.55c0.05,0.33,0.09,0.96,0.09,1.3c0.02,0.48-0.31,0.87-0.74,0.93
		l-12.93,1.84c0.51,2.55,3.1,4.75,6.19,4.31c1.71-0.24,3.17-1.23,4.03-1.98c0.52-0.41,0.83-0.65,1.28-0.23l1.59,1.62
		c0.39,0.33,0.58,0.69,0.08,1.25c-1.21,1.38-3.51,2.92-6.7,3.38c-5.75,0.82-10.19-3.16-10.97-8.62
		C293.54,260.29,296.69,255.14,302.39,254.33z M307.84,261.6c-0.47-2.26-2.64-3.94-4.97-3.61c-2.57,0.36-4.3,2.5-4.25,4.92
		L307.84,261.6z"/>
	<path class="st10" d="M315.89,253.81c-0.07-0.47,0.3-0.96,0.77-1.03l1.38-0.2c0.38-0.05,0.7,0.14,0.84,0.46l0.8,1.54
		c0.28-0.43,2.47-3.07,6.28-3.61c5.8-0.82,8.52,2.96,9.22,7.9l1.36,9.55c0.07,0.48-0.3,0.96-0.78,1.03l-2.71,0.38
		c-0.52,0.07-0.96-0.3-1.03-0.77l-1.38-9.74c-0.43-3.04-2.14-4.5-4.61-4.14c-2.99,0.43-4.73,2.9-4.87,3.6l1.65,11.6
		c0.09,0.62-0.16,0.94-0.96,1.06l-2.47,0.35c-0.47,0.07-0.96-0.3-1.03-0.77L315.89,253.81z"/>
</g>
<g>
	<path class="st11" d="M857.99,516.47l-5.85-18.68c-0.18-0.71,0.42-1.33,1.15-1.09l3.39,1.08c0.37,0.12,0.52,0.42,0.6,0.64
		l4.57,14.3l11.99-9.03c0.2-0.14,0.54-0.28,0.86-0.18l3.43,1.09c0.73,0.23,0.87,1.08,0.31,1.56l-15.69,11.79l-4.64,14.59
		c-0.15,0.46-0.69,0.74-1.15,0.59l-3.02-0.96c-0.5-0.16-0.74-0.69-0.59-1.15L857.99,516.47z"/>
	<path class="st11" d="M876.89,526.71c1.92,0.61,3.44,1.7,3.44,1.7c0.96-2.87,0.78-4.18-1.56-4.93c-2.1-0.67-4.34-0.78-5.38-0.81
		c-0.59-0.04-0.8-0.5-0.77-1.05l0.17-1.81c0.05-0.64,0.47-0.86,0.93-0.86c0.36-0.04,3.26-0.12,6.65,0.95
		c5.86,1.86,5.27,5.61,3.82,10.18l-3.1,9.74c-0.15,0.46-0.69,0.74-1.15,0.59l-1.28-0.41c-0.41-0.13-0.54-0.37-0.57-0.89l-0.07-1.38
		c-1.31,0.64-3.53,1.45-6.37,0.54c-3.43-1.09-5.16-4.21-3.95-8.01C868.76,526.95,872.22,525.23,876.89,526.71z M873.55,535.32
		c1.83,0.58,4-0.24,4.84-0.98l0.93-2.93c-0.22-0.27-1.32-1.23-2.97-1.75c-2.2-0.7-4.07-0.03-4.67,1.84
		C871.17,533.16,871.86,534.79,873.55,535.32z"/>
	<path class="st11" d="M892.11,525.1c0.15-0.46,0.69-0.74,1.15-0.59l1.33,0.42c0.37,0.12,0.57,0.43,0.56,0.78l0.05,1.73
		c0.44-0.26,3.56-1.69,7.22-0.53c5.58,1.78,6.39,6.36,4.88,11.12l-2.92,9.19c-0.15,0.46-0.69,0.74-1.15,0.59l-2.61-0.83
		c-0.5-0.16-0.74-0.69-0.59-1.15l2.98-9.38c0.93-2.93,0.02-4.98-2.36-5.74c-2.88-0.92-5.52,0.56-5.95,1.13l-3.55,11.16
		c-0.19,0.59-0.55,0.78-1.33,0.54l-2.38-0.76c-0.46-0.15-0.74-0.69-0.59-1.15L892.11,525.1z"/>
	<path class="st11" d="M913.23,544.06c0,0-0.88-2.14-0.01-4.89c1.35-4.25,5.75-6.99,10.41-5.5l8.01,2.55
		c0.5,0.16,0.75,0.64,0.59,1.15l-0.36,1.14c-0.1,0.32-0.42,0.67-0.75,0.62l-2.73-0.11c0,0,1.5,2.09,0.41,5.52
		c-1.24,3.89-5.39,6.5-10.15,4.98c-2.33-0.74-3.38-1.88-3.75-2c-0.32-0.1-2.12,0.18-2.59,1.65c-0.33,1.05,0.23,2.14,1.6,2.57
		l6.22,1.98c3.98,1.27,6.5,4.43,5.23,8.41c-1.28,4.03-6.07,6.43-12.16,4.5c-6.45-2.05-8.01-6.17-7.07-9.15
		c0.87-2.74,3.52-3.31,4.07-3.44l0.04-0.14c-0.87-0.58-2.91-2.59-1.93-5.65C909.45,544.72,913.23,544.06,913.23,544.06z
		 M914.36,562.86c2.79,0.89,5.67,0.24,6.36-1.96c0.23-0.73,0.37-2.75-2.6-3.7c-1.33-0.42-2.7-0.86-4.06-1.19
		c-0.3,0-2.78,0.02-3.43,2.08C910.04,559.97,911.57,561.97,914.36,562.86z M925,543.02c0.79-2.47-0.22-4.71-2.5-5.43
		c-2.33-0.74-4.58,0.46-5.36,2.93c-0.79,2.47,0.35,4.75,2.69,5.49C922.1,546.73,924.21,545.49,925,543.02z"/>
</g>
</svg>
